M48
;Layer_Color=9474304
;FILE_FORMAT=2:5
INCH,LZ
;TYPE=PLATED
T1F00S00C0.00787
T2F00S00C0.01968
T3F00S00C0.11811
%
T01
X019311Y0063878
X020902Y0066067
X0218799Y0070177
X0232642Y0054256
X0235531Y003878
X0242815Y00625
X0309449Y0055905
X0308661Y0027264
X0161776Y0018823
X0168799Y0062795
X0105807Y0049311
X0114531Y0030634
X0072047Y003435
Y0053543
X0079098Y0066067
X0020043Y0160555
X0008232Y0148744
X0067287
X0079098
X0090909
X010272
Y0136933
Y0125122
X0090909
X0079098
Y0113311
X0067287
Y01015
Y0089689
X0079098
Y01015
X010272
X0079098Y0136933
X0067287
Y0125122
X014685Y0123524
X0149964Y0148744
X0138154
X0161776
X0173586
Y0136933
Y0125122
X0169193Y0084941
X0161776Y0089689
X0193209Y0095177
X0211516Y0095571
X0232642Y0089689
X0243898
Y0077878
X0255906Y007874
Y0088779
X0243898Y0113311
X0232642
X0235433Y0131299
X0233661Y0147736
X0229724
X0225787
X022185
X0217913
X0213976
X0210039
X0206102
Y015561
X0217913
X022185
X0233661
X0268075Y0160555
X0279886
X0291697
X0303508
X0309449Y0127461
X0298819Y0123819
X0303508Y0089689
X027559Y0146063
X0220831Y0125122
X0200197Y0131299
X0185398Y0136933
T02
X0180976Y-0007874
X0184913
X018885
X0192787
X0196724
X0200661
X0204598
X0208535
X0212472
X0216409
X0220346
X0224284
X0228221
X0232157
X0236094
X0240032
X0243969
X0247905
X0251842
X025578
X0259717
X0263653
X026759
X0271528
X0275465
X0279402
X0283339
X0287276
X0291213
X029515
X0299087
X0303024
X0306961
X0322835Y0007874
Y0011811
Y0015748
Y0019685
Y0023622
Y0027559
Y0031496
Y0035433
Y003937
Y0043307
Y0047244
Y0051181
Y0055118
Y0059055
Y0062992
Y0066929
Y0070866
X0177039Y-0007874
X0173102
X0169165
X0165228
X0161291
X0157354
X0153417
X014948
X0145543
X0141606
X0137669
X0133732
X0129795
X0125858
X0121921
X0117984
X0114047
X011011
X0106173
X0102236
X0098299
X0094362
X0090425
X0086488
X0082551
X0078614
X0074677
X007074
X0066803
X0062866
X0058929
X0054992
X0051055
X0047118
X0043181
X0039244
X0035307
X003137
X0027433
X0023496
X0019559
X0015622
X0011685
X0007748
X-0007874Y0007874
Y0011811
Y0015748
Y0019685
Y0023622
Y0027559
Y0031496
Y0035433
Y003937
Y0043307
Y0047244
Y0051181
Y0055118
Y0059055
Y0062992
Y0066929
Y0070866
Y0074803
Y007874
Y0082677
Y0086614
Y0090551
Y0094488
Y0098425
Y0102362
Y0106299
Y0110236
Y0114173
Y011811
Y0122047
Y0125984
Y0129921
Y0133858
Y0137795
Y0141732
Y0145669
Y0149606
X0008Y0165354
X0011937
X0015874
X0019811
X0023748
X0027685
X0031622
X0035559
X0039496
X0043433
X004737
X0051307
X0055244
X0059181
X0063118
X0067055
X0070992
X0074929
X0078866
X0082803
X008674
X0090677
X0094614
X0098551
X0102488
X0106425
X0110362
X0114299
X0118236
X0122173
X012611
X0130047
X0133984
X0137921
X0141858
X0145795
X0149732
X0153669
X0157606
X0161543
X016548
X0169417
X0173354
X0177291
X0181228
X0185165
X0189102
X0193039
X0196976
X0200913
X020485
X0208787
X0212724
X0216661
X0220598
X0224535
X0228472
X023241
X0236347
X0240283
X024422
X0248158
X0252095
X0256031
X0259968
X0263906
X0267843
X0271779
X0275716
X0279654
X0283591
X0287528
X0291465
X0295402
X0299339
X0303276
X0307213
X0322835Y0149606
Y0145669
Y0141732
Y0137795
Y0133858
Y0129921
Y0125984
Y0122047
Y011811
Y0114173
Y0110236
Y0106299
Y0102362
Y0098425
Y0094488
Y0090551
Y0086614
Y0082677
Y007874
Y0074803
T03
X0314961Y0
X0
Y015748
X0314961
M30
