M48
;Layer_Color=9474304
;FILE_FORMAT=2:5
INCH,LZ
;TYPE=PLATED
T1F00S00C0.00787
%
T01
X0185039Y0007457
X0185039Y0017746
X0202165Y0016929
X0199606Y0011614
X0201575Y0009646
X0204724
X0223622
X022559Y0011614
Y0014764
Y0017913
Y0021063
Y0024213
X021063
X0211024Y0034547
X0206693Y0034646
X0201571Y0033661
Y0030512
Y0027362
X0201575Y0043012
X0182874Y0065886
X0260433Y006624
Y007124
Y006124
Y005624
Y005124
Y004624
Y004124
Y003624
Y003124
Y002624
Y001624
Y001124
Y000624
X0290748Y001124
Y001624
Y002124
X0290945Y002624
X0290748Y003124
Y003624
Y004124
Y004624
Y005124
Y005624
Y006124
Y006624
Y007124
X0220472Y0002165
X0177165Y0007457
X0169291
X0161417
X0153543
X0150984Y0014665
X0140772Y0015748
Y0019685
X0138587Y0017717
Y001378
X0140772Y0011811
X0135827Y001102
X013189
X0133858Y0008835
X0137795
X0129921
X0125984Y001102
X0124016Y0009055
X0120129
X0122047Y001102
X011811
X0116142Y0009055
X0114173Y001102
X0112205Y0009055
X0110236Y001102
X0108268Y0009055
X0104381
X0106299Y001102
X0102362
X0100394Y0009055
X0098425Y001102
X0096457Y0009055
X0093701Y0013681
X0090551Y001102
X0087795Y0019634
X0089764Y0025591
X0091339Y0027559
X0094488Y0029528
X008777Y003349
Y0037376
X0089735Y0035458
X008976Y003937
X0087795Y0041339
Y0045225
X008976Y0043307
Y0047244
X0087795Y0049213
X008976Y0051181
X0087795Y005315
X009252Y0061811
X0098425
X0100394Y0059847
X0108268
X0110236Y0061811
X0114123
X0112205Y0059847
X0116142
X011811Y0061811
X0120079Y0059847
X0122047Y0061811
X0124016Y0059847
X0125984Y0061811
X0127953Y0059847
X0129921Y0061811
X013189Y0059847
X0133858Y0061811
X0135827Y0059847
X0138587Y0055118
X0140551Y005315
Y0049263
X0138587Y0051181
Y0047244
X0140551Y0045276
X0138587Y0043307
X0140551Y0041339
X0138587Y003937
Y0035433
X0140551Y0033465
Y0029578
X0138587Y0031496
Y0027559
X0140551Y0025591
X0138587Y0023622
X0161614Y0024902
Y0027461
Y003002
Y0032579
Y0035138
X0163579Y0044783
Y0052461
X0161614Y005502
X0169488
Y0047343
X0176969Y0049902
Y0052461
Y0057579
Y0060138
Y0044783
Y0032579
Y003002
Y0027461
Y0024902
X0165945Y-0002756
X0154134Y0042224
Y0047343
Y0049902
X0150492Y0060138
X0157874Y0063425
X0167323Y0065886
X0116929Y0044488
X0112795Y0032283
X0070866Y0023622
X0072835Y0021654
X007559Y0017717
X0068898Y001378
X0066929Y0015748
X0054528Y001624
Y001124
Y002124
X0054525Y0026237
X0054528Y003124
Y003624
Y004124
Y004624
Y005124
Y005624
Y006124
Y006624
Y007124
X0024213Y007124
Y006624
Y006124
Y005624
X0024213Y005124
X0024213Y004624
Y004124
Y003624
Y003124
X0024213Y002624
Y001624
Y001124
Y000624
X0082579Y0001575
X0086319Y0066634
X0022736Y-0000295
X002421Y0076237
X0024213Y008124
Y008624
Y009124
Y009624
Y010124
X0024213Y010624
X0024213Y011124
Y011624
Y012124
Y012624
X0024213Y013124
X0024213Y013624
Y014124
Y014624
X0054528Y014624
Y015124
Y013624
X0054528Y013124
X0054528Y012624
Y012124
Y011624
Y011124
X0054646Y0106359
X0054528Y010124
Y009624
Y009124
Y008624
Y008124
Y007624
X0079724Y0073819
X0122441Y0085335
X0118799Y0106579
X0114547Y01065
X0110217
X0105886
X0127539
X0161614Y010502
Y0102461
Y0099902
Y0097342
Y0110138
Y0112697
Y0115354
X0164173Y0122421
Y0127461
X0156341Y0158799
X0127539Y0152047
X0118799Y0151969
X0114547Y0152047
X0110216
X0105886
X0141831Y0075689
X0155709Y0075846
X0165354Y0087106
X0182913Y0088465
Y0080984
X0182874Y0076181
X0188425Y0084724
X0199606Y0080748
Y0077008
X0210512Y0076968
Y0080512
Y0073425
X0220374Y0076968
Y0084055
Y0091142
X0225787Y0103799
X0228125Y0118922
X0212377Y0118627
X0196575Y0118681
X0199409Y0113799
Y0106496
Y0101476
X0184449Y0102461
Y010502
Y0107579
Y0110138
Y0099902
X0185394Y015124
Y0155207
Y0159173
X0196575Y0141161
X0212323
X022815Y0141535
X0260433Y014124
Y013624
Y013124
Y012624
Y012124
Y011624
Y011124
Y010624
Y010124
Y009624
Y009124
Y008624
Y008124
Y007624
X0290748Y007624
Y008124
Y008624
Y009124
Y009624
Y010124
Y010624
Y011124
Y011624
Y012124
Y012624
Y013124
Y013624
Y014624
Y015124
X0260433Y014624
M30
