M48
;Layer_Color=9474304
;FILE_FORMAT=2:5
INCH,LZ
;TYPE=PLATED
T1F00S00C0.00787
%
T01
X0182087Y0002756
X0182887Y0020984
X0180131Y0020997
X0195955Y0014764
Y0008858
X0197835Y-0000984
X0227362Y0002435
X0230512
X0233268
X0238189Y-0000984
X0246406Y0003851
X0243199Y0009874
Y0014764
X0233366Y0020965
X0229921
X0227362
X0214567Y0039114
X020748
X0200394
X0193307
X0186221Y0039114
X0179134Y0049744
X0257087Y0046201
X0264173
Y0039114
X027126
Y0046201
X0278346
X0285433
X0278346Y0039114
X0279043Y0021012
X0276575Y0020965
X0272855
X028248Y0021181
X0290571Y0014
Y0007874
X0287402Y000502
X0284449Y0002372
X0279478Y0002461
X0276575Y0002372
X0273667
X0253346Y-0000984
X0304161Y0032677
X0310937Y0032685
X0301181Y006989
X0286614Y0063917
X0177028Y000502
X0136555Y001811
X0133465Y0016142
X0126378Y0013453
X0114173Y0014902
X0110236
X0110138Y0037992
X0106102Y0041535
X0103032Y0057087
X0096614Y0055
X007874Y0055118
Y0059055
Y003937
Y0035433
X0092795
X005878Y0031309
X003937Y0027559
X0052165Y0048094
X0133465Y0027608
X0002953Y008248
X0034252Y008184
X0047894Y0082579
Y0074902
X0062343Y0082579
X0092795Y0075
X0108543
X0124291
X0138583Y0075197
X0144882
X0148622
X0144882Y0088976
X0138583
X0131309Y0090463
X0135945Y0082441
X0138583Y01
X0144882
X0147165Y0110236
X0143405Y0120276
X0137992Y0125787
X0131417Y0129921
Y011811
X0115669
Y0129871
X0099921Y0129921
Y011811
X0099705Y0090354
X0115561Y0090463
X003937Y0106299
X0030807Y0129921
X0186221Y0124153
X0186811Y010935
X0186221Y0102894
Y0095807
X0193307Y0081634
X026063Y013124
X027126
X0301831Y0116339
X0306831
X0308661Y0076531
M30
