M48
;Layer_Color=9474304
;FILE_FORMAT=2:5
INCH,LZ
;TYPE=PLATED
T1F00S00C0.00787
%
T01
X0182087Y0009055
X0185039Y0012575
X0188483Y0014217
X0195955Y0011024
X0227801Y0009055
X0230512
X0233268
X0266392Y000689
X0266929Y001124
Y001624
X0267717Y0022835
Y0025984
Y0029134
Y0032283
X0257283Y0043701
X027126Y0051417
Y005502
Y0058366
X0283465Y0063917
X0306398Y006989
X0295276Y001624
Y001124
X0292815Y0002953
X0287402Y0002559
X022559Y0039173
X0211024Y0039272
X0180905Y0052461
X0179134Y0065886
X0176969Y0063386
X0169488Y0058709
X0167516Y0052461
X0165551Y0047343
X0163579Y0040846
X0167421Y0038386
X0176969Y0040846
X0150197Y0042224
Y0047343
Y0049902
X0146555Y0060138
X0163386Y0065886
X0143311Y003937
X0133465Y004311
X0129528
X0125591
X0123622Y0045571
X0127559
Y0048524
X0131496
Y0045571
X0135433
X0101374Y0047244
X0099409Y0049213
X0101354Y0051201
X0099409Y005315
Y0045225
X0101279Y0043307
X0099409Y0041339
X0101374Y003937
X009941Y0037402
X0088189Y0027559
X0072835Y002815
X0070866Y0025984
X0062992Y002124
X0048031Y001624
X0051181Y001124
X0066142Y005624
Y006124
Y006624
Y007124
X0098425Y0068898
X0100394Y0066535
X009252Y0057087
X0129921Y0013453
X013189Y0005902
X0158661Y0009055
X0161417Y00125
X0169291
X0176575Y0011963
X0017717Y001124
Y001624
Y000624
X0017717Y014124
Y014624
X0048031Y014624
X0061024Y015124
X0061811Y009624
X0043307Y0094488
X0066142Y0074902
X0104921Y0090354
X0105886Y0102563
X0110217
X0114547
X0118799Y0102642
X0127539Y0102563
X0126093Y0090463
X0120778
X0143405Y0115354
X0152382Y0110335
X0166339Y0115354
X0166929Y010502
Y0102461
Y0099902
Y0097342
X0161713Y0122421
Y0127461
X0156341Y0154075
X0137795Y015748
Y0161417
X0179134Y0110138
X0199409Y0109941
Y0103642
X0196457Y0106496
X0229328Y0103797
X0255906Y011124
Y011624
Y012124
X0264961Y013624
Y014124
Y014624
X0284252Y014624
Y015124
X028563Y012624
Y012124
Y011124
Y010624
Y010124
X0299326Y0116344
X0299274Y0131292
Y0136292
X0308661Y0079681
X03125Y0082677
X0315453Y007874
X0214252Y0080512
X0204134Y0077008
X0186614Y0076181
M30
