M48
;Layer_Color=9474304
;FILE_FORMAT=2:5
INCH,LZ
;TYPE=PLATED
T1F00S00C0.00787
%
T01
X0179134Y0044528
X0193307Y0033898
X0200394
X020748
X0214567
X02625Y0021949
X0269882Y0018504
X0262008Y0009055
X0285531Y003189
X0286024Y0049705
X027874Y0059941
X0298228
X0148819Y0015453
X0139764Y0016142
X0092224Y0019783
X0080512Y0010531
X009252Y0054429
X0106102Y0044882
X0045851Y006288
X003563Y0065256
X0035433Y003061
X0039272Y0030419
X0022146Y0015354
X0036516Y0097835
X0039272Y0109153
X0046457Y0088189
X0046752Y0139567
X0034744Y0139173
X0030512Y0156201
X0108465Y0107579
X0125Y0104331
X0137894Y0103937
X0131417Y0113189
X0117815Y0096555
X0117913Y0077362
X0168701Y0094882
X0175394Y0097539
X0168898Y0108169
X0188976Y0118405
X021437Y011811
X0236122Y0118012
X0256988Y0100394
X0285433Y0090748
X0285531Y0076378
X0284744Y0137894
X0302264Y0152067
X0316437Y0142815
X0263386Y0149705
M30
