M48
;Layer_Color=9474304
;FILE_FORMAT=2:4
INCH,LZ
;TYPE=PLATED
T1F00S00C0.0079
%
T01
X02278Y000591
X022244Y002136
Y003361
X022293Y005
X02189Y00502
X021634Y005315
X021161Y005
X022293Y005758
X025315Y005624
Y005124
Y004624
Y004124
Y003624
Y003124
Y002624
X028366Y002624
X028346Y003124
Y003624
Y004124
Y004624
Y005124
Y005624
Y006124
X025315Y006124
X028347Y002112
X018199Y005758
X016161Y005
X014567Y004926
X01437Y005118
X014567Y005315
X01437Y005512
Y004724
X014567Y004528
X01437Y004331
X014567Y004134
X014589Y001969
Y001575
Y001181
X01437Y001378
Y001772
X012598Y001614
X012402Y001417
X012013
X012205Y001614
X011811
X011614Y001417
X011417Y001614
X01122Y001417
X011024Y002411
X010827Y002215
X010438
X01063Y002411
X010236
X010039Y002215
X009843Y002411
X009646Y002215
X009938Y003349
X010135Y003546
X010827Y005473
X011024Y005669
X011412
X011232Y005485
X011614Y005473
X011811Y005669
X012008Y005473
X012205Y005669
X015571Y007116
X016476Y003514
X013583Y00059
X013386Y000372
X01378
X006614Y004624
Y005124
X00315
X00315Y005624
Y006124
Y004624
Y004124
Y003624
Y003124
X00315Y002624
X00315Y009124
Y009624
Y010124
X00315Y010624
X00315Y011124
Y011624
Y012124
Y012624
X004724Y012624
Y012124
Y011624
Y011124
X004734Y010636
X004724Y010124
X004724Y013124
X004724Y013624
M30
