M48
;Layer_Color=9474304
;FILE_FORMAT=2:4
INCH,LZ
;TYPE=PLATED
T1F00S00C0.0079
T2F00S00C0.0197
T3F00S00C0.1181
%
T01
X02061Y014774
X021004
X021398
X021791
X022185
X022579
X022972
X023366
Y015561
X022185
X021791
X02061
T02
X018098Y-000787
X018491
X018885
X019279
X019672
X020066
X02046
X020854
X021247
X021641
X022035
X022428
X022822
X023216
X023609
X024003
X024397
X024791
X025184
X025578
X025972
X026365
X026759
X027153
X027546
X02794
X028334
X028728
X029121
X029515
X029909
X030302
X030696
X032283Y000787
Y001181
Y001575
Y001969
Y002362
Y002756
Y00315
Y003543
Y003937
Y004331
Y004724
Y005118
Y005512
Y005906
Y006299
Y006693
Y007087
X017704Y-000787
X01731
X016917
X016523
X016129
X015735
X015342
X014948
X014554
X014161
X013767
X013373
X01298
X012586
X012192
X011798
X011405
X011011
X010617
X010224
X00983
X009436
X009043
X008649
X008255
X007861
X007468
X007074
X00668
X006287
X005893
X005499
X005106
X004712
X004318
X003924
X003531
X003137
X002743
X00235
X001956
X001562
X001169
X000775
X-000787Y000787
Y001181
Y001575
Y001969
Y002362
Y002756
Y00315
Y003543
Y003937
Y004331
Y004724
Y005118
Y005512
Y005906
Y006299
Y006693
Y007087
Y00748
Y007874
Y008268
Y008661
Y009055
Y009449
Y009843
Y010236
Y01063
Y011024
Y011417
Y011811
Y012205
Y012598
Y012992
Y013386
Y01378
Y014173
Y014567
Y014961
X0008Y016535
X001194
X001587
X001981
X002375
X002768
X003162
X003556
X00395
X004343
X004737
X005131
X005524
X005918
X006312
X006706
X007099
X007493
X007887
X00828
X008674
X009068
X009461
X009855
X010249
X010643
X011036
X01143
X011824
X012217
X012611
X013005
X013398
X013792
X014186
X01458
X014973
X015367
X015761
X016154
X016548
X016942
X017335
X017729
X018123
X018517
X01891
X019304
X019698
X020091
X020485
X020879
X021272
X021666
X02206
X022454
X022847
X023241
X023635
X024028
X024422
X024816
X025209
X025603
X025997
X026391
X026784
X027178
X027572
X027965
X028359
X028753
X029146
X02954
X029934
X030328
X030721
X032283Y014961
Y014567
Y014173
Y01378
Y013386
Y012992
Y012598
Y012205
Y011811
Y011417
Y011024
Y01063
Y010236
Y009843
Y009449
Y009055
Y008661
Y008268
Y007874
Y00748
T03
X031496Y0
X0
Y015748
X031496
M30
