M48
;Layer_Color=9474304
;FILE_FORMAT=2:4
INCH,LZ
;TYPE=PLATED
T1F00S00C0.0079
%
T01
X018209Y000906
X018504Y001257
X018848Y001422
X019595Y001102
X02278Y000906
X023051
X023327
X024862Y001062
X026693Y001124
X026639Y000689
X026693Y001624
X026772Y002283
Y002598
Y002913
Y003228
X025728Y00437
X027126Y005142
Y005502
Y005837
X028346Y006392
X03064Y006989
X029528Y001624
Y001124
X029281Y000295
X02874Y000256
X022559Y003917
X021102Y003927
X018091Y005246
X017913Y006589
X017697Y006339
X016949Y005871
X016752Y005246
X016555Y004734
X016358Y004085
X016742Y003839
X017697Y004085
X01502Y004222
Y004734
Y00499
X014656Y006014
X016339Y006589
X014331Y003937
X013346Y004311
X012953
X012559
X012362Y004557
X012756
Y004852
X01315
Y004557
X013543
X010137Y004724
X009941Y004921
X010135Y00512
X009941Y005315
Y004522
X010128Y004331
X009941Y004134
X010137Y003937
X009941Y00374
X008819Y002756
X007283Y002815
X007087Y002598
X006299Y002124
X004803Y001624
X005118Y001124
X006614Y005624
Y006124
Y006624
Y007124
X009843Y00689
X010039Y006654
X009252Y005709
X012992Y001356
X013189Y00059
X015866Y000906
X016142Y00125
X016929
X017657Y001196
X001772Y001124
Y001624
Y000624
X001772Y014124
Y014624
X006102Y014624
Y015124
X006181Y009624
X004154Y009449
X006614Y00749
X010492Y009035
X010589Y010256
X011022
X011455
X01188Y010264
X012754Y010256
X012609Y009046
X012078
X014341Y011535
X015238Y011033
X016634Y011535
X016693Y010502
Y010246
Y00999
Y009734
X016171Y012242
Y012746
X015634Y015407
X017913Y011014
X019941Y010994
Y010364
X019646Y01065
X022933Y01038
X025591Y011124
Y011624
Y012124
Y013624
X026496Y014124
Y014624
X028425Y014624
Y015124
X028563Y012624
Y012124
Y011124
Y010624
Y010124
X029933Y011634
X029927Y013129
Y013629
X030866Y007968
X03125Y008268
X031545Y007874
X021425Y008051
X020413Y007701
X018661Y007618
M30
