M48
;Layer_Color=9474304
;FILE_FORMAT=2:4
INCH,LZ
;TYPE=PLATED
T1F00S00C0.0079
%
T01
X018209Y000276
X018289Y002098
X018013Y0021
X019595Y001476
Y000886
X019783Y-000098
X022736Y000244
X023051
X023327
X023819Y-000098
X024641Y000385
X02432Y000987
Y001476
X023337Y002096
X022992
X022736
X021457Y003911
X020748
X020039
X019331
X018622Y003911
X017913Y004974
X025709Y00462
X026417
Y003911
X027126
Y00462
X027835
X028543
X027835Y003911
X027904Y002101
X027657Y002096
X027286
X028248Y002118
X029057Y0014
Y000787
X02874Y000502
X028445Y000237
X027948Y000246
X027657Y000237
X027367
X025335Y-000098
X030416Y003268
X031094Y003268
X030118Y006989
X028661Y006392
X017703Y000502
X013656Y001811
X013346Y001614
X012638Y001345
X011417Y00149
X011024
X01061Y004154
X010303Y005709
X009661Y0055
X007874Y005512
Y005906
Y003937
Y003543
X00928
X005878Y003131
X003937Y002756
X005217Y004809
X000295Y008248
X003425Y008184
X004789Y008258
Y00749
X006234Y008258
X00997Y009035
X011556Y009046
X013131
X013858Y008898
X014488
Y01
X013858
X014717Y011024
X014341Y012028
X013799Y012579
X013142Y012992
Y011811
X011567
Y012987
X009992Y012992
Y011811
X013594Y008244
X003937Y01063
X003081Y012992
X018622Y012415
X018681Y010935
X018622Y010289
Y009581
X019331Y008163
X030866Y007653
M30
