M48
;Layer_Color=9474304
;FILE_FORMAT=2:4
INCH,LZ
;TYPE=PLATED
T1F00S00C0.0079
%
T01
X018504Y000746
X018504Y001775
X019961Y001161
X020157Y000965
X020472
X022362
X022559Y001161
Y001476
Y001791
Y002106
Y002421
X021063
X021102Y003455
X020157Y003366
Y003051
Y002736
X020157Y004301
X018287Y006589
X026043Y006624
Y007124
Y006124
Y005624
Y005124
Y004624
Y004124
Y003624
Y003124
Y002624
Y001624
Y001124
Y000624
X029075Y001124
Y001624
Y002124
X029094Y002624
X029075Y003124
Y003624
Y004124
Y004624
Y005124
Y005624
Y006124
Y006624
Y007124
X022047Y000217
X017717Y000746
X016929
X016142
X015354
X015098Y001467
X014077Y001575
Y001969
X013859Y001772
Y001378
X014077Y001181
X013583Y001102
X013189
X013386Y000883
X01378
X012992
X012598Y001102
X012402Y000906
X012013
X012205Y001102
X011811
X011614Y000906
X011417Y001102
X01122Y000906
X011024Y001102
X010827Y000906
X010438
X01063Y001102
X010236
X010039Y000906
X009843Y001102
X009646Y000906
X009055Y001102
X00878Y001963
X008976Y002559
X009134Y002756
X009449Y002953
X008777Y003349
Y003738
X008973Y003546
X008976Y003937
X00878Y004134
Y004522
X008976Y004331
Y004724
X00878Y004921
X008976Y005118
X00878Y005315
X009252Y006181
X009843
X010039Y005985
X010827
X011024Y006181
X011412
X01122Y005985
X011614
X011811Y006181
X012008Y005985
X012205Y006181
X012402Y005985
X012598Y006181
X012795Y005985
X012992Y006181
X013189Y005985
X013386Y006181
X013583Y005985
X013859Y005512
X014055Y005315
Y004926
X013859Y005118
Y004724
X014055Y004528
X013859Y004331
X014055Y004134
X013859Y003937
Y003543
X014055Y003346
Y002958
X013859Y00315
Y002756
X014055Y002559
X013859Y002362
X016161Y00249
Y002746
Y003002
Y003258
Y003514
X016358Y004478
Y005246
X016161Y005502
X016949
Y004734
X017697Y00499
Y005246
Y005758
Y006014
Y004478
Y003258
Y003002
Y002746
Y00249
X016594Y-000276
X015413Y004222
Y004734
Y00499
X015049Y006014
X015787Y006343
X016732Y006589
X005453Y006624
Y007124
Y006124
Y005624
Y005124
Y004624
Y004124
Y003624
Y003124
X005452Y002624
X005453Y002124
Y001624
Y001124
X006693Y001575
X00689Y001378
X007559Y001772
X007283Y002165
X007087Y002362
X002421Y002624
X002421Y003124
Y003624
Y004124
Y004624
X002421Y005124
X002421Y005624
Y006124
Y006624
Y007124
X002421Y001624
Y001124
Y000624
X002421Y007624
X002421Y008124
Y008624
Y009124
Y009624
Y010124
X002421Y010624
X002421Y011124
Y011624
Y012124
Y012624
X002421Y013124
X002421Y013624
Y014124
Y014624
X005453Y014624
Y015124
Y013624
X005453Y013124
X005453Y012624
Y012124
Y011624
Y011124
X005465Y010636
X005453Y010124
Y009624
Y009124
Y008624
Y008124
Y007624
X010589Y01065
X011022
X011455
X01188Y010658
X012754Y01065
X016161Y010502
Y010246
Y00999
Y009734
Y011014
Y01127
Y011535
X016417Y012242
Y012746
X015634Y01588
X016535Y008711
X015571Y007585
X018287Y007618
X018291Y008098
Y008846
X018843Y008472
X019961Y008075
Y007701
X021051Y007697
Y008051
Y007343
X022037Y007697
Y008406
Y009114
X022579Y01038
X022812Y011892
X021238Y011863
X019657Y011868
X019941Y01138
Y01065
Y010148
X018445Y010246
Y010502
Y010758
Y011014
Y00999
X026043Y010124
Y009624
Y009124
Y008624
Y008124
Y007624
Y010624
Y011124
Y011624
Y012124
Y012624
Y013124
Y013624
Y014124
Y014624
X029075Y014624
Y015124
Y013624
Y013124
Y012624
Y012124
Y011624
Y011124
Y010624
Y010124
Y009624
Y009124
Y008624
Y008124
Y007624
M30
