%TF.GenerationSoftware,Altium Limited,Altium Designer,20.0.13 (296)*%
G04 Layer_Color=8388736*
%FSLAX26Y26*%
%MOIN*%
%TF.FileFunction,Soldermask,Top*%
%TF.Part,Single*%
G01*
G75*
%TA.AperFunction,ViaPad*%
%ADD41C,0.029528*%
%TA.AperFunction,NonConductor*%
%ADD45R,0.039370X5.669291*%
%ADD46R,10.196850X0.039370*%
%TA.AperFunction,ComponentPad*%
%ADD47O,0.044094X0.079528*%
%ADD48O,0.032283X0.063779*%
%ADD49R,0.060787X0.060787*%
%ADD50C,0.060787*%
%ADD51R,0.071653X0.071653*%
%ADD52C,0.071653*%
%TA.AperFunction,ViaPad*%
%ADD53C,0.197638*%
%TA.AperFunction,NonConductor*%
%ADD61R,0.061890X0.033150*%
%TA.AperFunction,SMDPad,CuDef*%
%ADD62R,0.019291X0.021260*%
%ADD63R,0.021260X0.019291*%
%ADD64R,0.024409X0.020472*%
%ADD65R,0.016535X0.016535*%
%ADD66R,0.016535X0.016535*%
%ADD67R,0.059843X0.044094*%
%ADD68R,0.032283X0.020472*%
%ADD69R,0.010630X0.020472*%
%ADD70R,0.099213X0.063779*%
%TA.AperFunction,ConnectorPad*%
%ADD71R,0.059843X0.018504*%
%TA.AperFunction,SMDPad,CuDef*%
%ADD72R,0.083465X0.118898*%
G04:AMPARAMS|DCode=73|XSize=63.779mil|YSize=32.677mil|CornerRadius=3.583mil|HoleSize=0mil|Usage=FLASHONLY|Rotation=270.000|XOffset=0mil|YOffset=0mil|HoleType=Round|Shape=RoundedRectangle|*
%AMROUNDEDRECTD73*
21,1,0.063779,0.025512,0,0,270.0*
21,1,0.056614,0.032677,0,0,270.0*
1,1,0.007165,-0.012756,-0.028307*
1,1,0.007165,-0.012756,0.028307*
1,1,0.007165,0.012756,0.028307*
1,1,0.007165,0.012756,-0.028307*
%
%ADD73ROUNDEDRECTD73*%
%ADD74R,0.040157X0.020472*%
%ADD75R,0.020472X0.024409*%
%ADD76R,0.038189X0.059843*%
%ADD77R,0.128740X0.059843*%
%ADD78R,0.057874X0.077559*%
%ADD79R,0.111024X0.087402*%
%ADD80R,0.048032X0.087402*%
%ADD81R,0.020472X0.040157*%
%TA.AperFunction,BGAPad,CuDef*%
%ADD82R,0.044094X0.044094*%
%TA.AperFunction,SMDPad,CuDef*%
%ADD83R,0.058657X0.029917*%
G36*
X8696363Y2830021D02*
X8705789D01*
Y2827664D01*
X8724642D01*
Y2830021D01*
X8748207D01*
Y2827664D01*
X8771773D01*
Y2825307D01*
X8785912D01*
Y2822951D01*
X8795338D01*
Y2820595D01*
X8797695D01*
Y2818238D01*
X8802408D01*
Y2815881D01*
X8807121D01*
Y2813525D01*
X8809478D01*
Y2811168D01*
X8811834D01*
Y2808811D01*
X8814191D01*
Y2806455D01*
X8816547D01*
Y2804099D01*
X8818904D01*
Y2801742D01*
X8821261D01*
Y2799385D01*
Y2797029D01*
X8818904D01*
Y2794672D01*
Y2792316D01*
X8821261D01*
Y2794672D01*
X8823617D01*
Y2797029D01*
X8825974D01*
Y2794672D01*
Y2792316D01*
X8828330D01*
Y2789959D01*
Y2787602D01*
X8833043D01*
Y2785246D01*
X8830686D01*
Y2782889D01*
X8835400D01*
Y2780533D01*
X8837756D01*
Y2778176D01*
Y2775820D01*
Y2773463D01*
X8840113D01*
Y2771106D01*
X8842469D01*
Y2768750D01*
Y2766393D01*
X8844826D01*
Y2764037D01*
Y2761680D01*
Y2759324D01*
X8847183D01*
Y2756967D01*
Y2754611D01*
X8849539D01*
Y2752254D01*
Y2749897D01*
X8851896D01*
Y2747541D01*
Y2745184D01*
X8854252D01*
Y2742828D01*
X8856609D01*
Y2740471D01*
Y2738115D01*
X8858966D01*
Y2735758D01*
Y2733402D01*
X8861322D01*
Y2731045D01*
X8863678D01*
Y2728689D01*
X8861322D01*
Y2726332D01*
X8863678D01*
Y2723975D01*
X8866035D01*
Y2721619D01*
Y2719262D01*
Y2716906D01*
X8868392D01*
Y2714549D01*
Y2712193D01*
Y2709836D01*
X8870748D01*
Y2707480D01*
Y2705123D01*
Y2702766D01*
Y2700410D01*
Y2698053D01*
X8873105D01*
Y2695697D01*
Y2693340D01*
X8903740D01*
Y2690984D01*
X8901384D01*
Y2688627D01*
X8896670D01*
Y2686271D01*
X8887244D01*
Y2683914D01*
X8901384D01*
Y2681557D01*
X8899027D01*
Y2679201D01*
X8896670D01*
Y2681557D01*
X8894314D01*
Y2679201D01*
X8891957D01*
Y2676844D01*
X8875461D01*
Y2674488D01*
Y2672131D01*
Y2669775D01*
Y2667418D01*
Y2665062D01*
Y2662705D01*
Y2660349D01*
Y2657992D01*
Y2655635D01*
Y2653279D01*
X8873105D01*
Y2650922D01*
Y2648566D01*
Y2646209D01*
Y2643852D01*
X8870748D01*
Y2641496D01*
X8868392D01*
Y2639140D01*
X8870748D01*
Y2636783D01*
X8868392D01*
Y2634426D01*
X8866035D01*
Y2632070D01*
X8863678D01*
Y2629713D01*
X8866035D01*
Y2627356D01*
X8863678D01*
Y2625000D01*
Y2622644D01*
X8861322D01*
Y2625000D01*
X8858966D01*
Y2622644D01*
X8861322D01*
Y2620287D01*
Y2617930D01*
X8858966D01*
Y2615574D01*
X8856609D01*
Y2613217D01*
Y2610860D01*
X8854252D01*
Y2608504D01*
X8849539D01*
Y2606148D01*
Y2603791D01*
X8844826D01*
Y2601434D01*
X8842469D01*
Y2599078D01*
X8837756D01*
Y2596721D01*
X8830686D01*
Y2594365D01*
X8818904D01*
Y2596721D01*
X8811834D01*
Y2599078D01*
X8807121D01*
Y2601434D01*
X8804764D01*
Y2603791D01*
X8802408D01*
Y2606148D01*
X8800051D01*
Y2608504D01*
Y2610860D01*
Y2613217D01*
X8797695D01*
Y2615574D01*
Y2617930D01*
X8795338D01*
Y2620287D01*
Y2622644D01*
Y2625000D01*
Y2627356D01*
X8797695D01*
Y2629713D01*
X8800051D01*
Y2632070D01*
X8797695D01*
Y2634426D01*
X8800051D01*
Y2636783D01*
Y2639140D01*
X8802408D01*
Y2641496D01*
X8804764D01*
Y2643852D01*
X8807121D01*
Y2646209D01*
X8814191D01*
Y2643852D01*
X8816547D01*
Y2641496D01*
Y2639140D01*
X8814191D01*
Y2636783D01*
X8816547D01*
Y2634426D01*
Y2632070D01*
X8814191D01*
Y2629713D01*
X8811834D01*
Y2627356D01*
Y2625000D01*
Y2622644D01*
X8814191D01*
Y2620287D01*
X8818904D01*
Y2617930D01*
X8825974D01*
Y2620287D01*
X8830686D01*
Y2622644D01*
X8833043D01*
Y2625000D01*
X8835400D01*
Y2627356D01*
Y2629713D01*
Y2632070D01*
X8837756D01*
Y2634426D01*
X8840113D01*
Y2636783D01*
X8837756D01*
Y2639140D01*
X8840113D01*
Y2641496D01*
Y2643852D01*
Y2646209D01*
Y2648566D01*
Y2650922D01*
Y2653279D01*
Y2655635D01*
Y2657992D01*
Y2660349D01*
Y2662705D01*
Y2665062D01*
Y2667418D01*
X8842469D01*
Y2669775D01*
X8840113D01*
Y2672131D01*
Y2674488D01*
X8837756D01*
Y2676844D01*
Y2679201D01*
X8835400D01*
Y2681557D01*
Y2683914D01*
Y2686271D01*
X8833043D01*
Y2688627D01*
Y2690984D01*
X8830686D01*
Y2693340D01*
Y2695697D01*
X8828330D01*
Y2698053D01*
X8814191D01*
Y2695697D01*
X8807121D01*
Y2698053D01*
X8804764D01*
Y2700410D01*
X8800051D01*
Y2702766D01*
X8797695D01*
Y2705123D01*
X8792982D01*
Y2707480D01*
X8776486D01*
Y2705123D01*
X8774129D01*
Y2702766D01*
X8769416D01*
Y2700410D01*
Y2698053D01*
X8762346D01*
Y2695697D01*
Y2693340D01*
X8757633D01*
Y2690984D01*
X8752920D01*
Y2693340D01*
X8750564D01*
Y2690984D01*
X8745851D01*
Y2693340D01*
X8741138D01*
Y2695697D01*
X8736424D01*
Y2698053D01*
X8731711D01*
Y2700410D01*
Y2702766D01*
X8729355D01*
Y2700410D01*
X8726998D01*
Y2702766D01*
X8724642D01*
Y2705123D01*
X8722285D01*
Y2707480D01*
Y2709836D01*
X8724642D01*
Y2712193D01*
X8719929D01*
Y2709836D01*
Y2707480D01*
X8717572D01*
Y2709836D01*
X8715215D01*
Y2712193D01*
X8712859D01*
Y2714549D01*
X8710502D01*
Y2716906D01*
X8708146D01*
Y2719262D01*
X8705789D01*
Y2721619D01*
X8703433D01*
Y2723975D01*
X8701076D01*
Y2726332D01*
Y2728689D01*
X8698720D01*
Y2731045D01*
X8696363D01*
Y2733402D01*
X8694006D01*
Y2735758D01*
Y2738115D01*
X8691650D01*
Y2740471D01*
X8689293D01*
Y2742828D01*
Y2745184D01*
X8686937D01*
Y2742828D01*
Y2740471D01*
X8689293D01*
Y2738115D01*
Y2735758D01*
X8691650D01*
Y2733402D01*
Y2731045D01*
X8694006D01*
Y2728689D01*
X8696363D01*
Y2726332D01*
X8698720D01*
Y2723975D01*
Y2721619D01*
X8701076D01*
Y2719262D01*
X8703433D01*
Y2716906D01*
X8705789D01*
Y2714549D01*
X8708146D01*
Y2712193D01*
X8710502D01*
Y2709836D01*
X8715215D01*
Y2707480D01*
X8717572D01*
Y2705123D01*
X8719929D01*
Y2702766D01*
X8722285D01*
Y2700410D01*
X8726998D01*
Y2698053D01*
X8729355D01*
Y2695697D01*
Y2693340D01*
X8734068D01*
Y2690984D01*
Y2688627D01*
Y2686271D01*
Y2683914D01*
Y2681557D01*
Y2679201D01*
Y2676844D01*
Y2674488D01*
X8736424D01*
Y2672131D01*
Y2669775D01*
Y2667418D01*
Y2665062D01*
Y2662705D01*
Y2660349D01*
Y2657992D01*
Y2655635D01*
X8738781D01*
Y2653279D01*
X8741138D01*
Y2650922D01*
Y2648566D01*
Y2646209D01*
X8743494D01*
Y2643852D01*
Y2641496D01*
X8745851D01*
Y2639140D01*
Y2636783D01*
Y2634426D01*
Y2632070D01*
Y2629713D01*
X8748207D01*
Y2627356D01*
Y2625000D01*
Y2622644D01*
X8750564D01*
Y2620287D01*
Y2617930D01*
X8748207D01*
Y2615574D01*
X8750564D01*
Y2613217D01*
X8752920D01*
Y2610860D01*
Y2608504D01*
X8750564D01*
Y2606148D01*
X8752920D01*
Y2603791D01*
Y2601434D01*
X8755277D01*
Y2599078D01*
Y2596721D01*
Y2594365D01*
X8757633D01*
Y2592008D01*
Y2589651D01*
Y2587295D01*
Y2584938D01*
X8759990D01*
Y2582582D01*
Y2580225D01*
Y2577869D01*
X8762346D01*
Y2575512D01*
X8759990D01*
Y2573156D01*
X8762346D01*
Y2570799D01*
X8764703D01*
Y2568442D01*
Y2566086D01*
Y2563729D01*
X8767060D01*
Y2561373D01*
Y2559016D01*
Y2556660D01*
X8769416D01*
Y2554303D01*
X8767060D01*
Y2551947D01*
X8769416D01*
Y2549590D01*
Y2547234D01*
X8771773D01*
Y2544877D01*
X8769416D01*
Y2542520D01*
X8771773D01*
Y2540164D01*
Y2537807D01*
Y2535451D01*
Y2533094D01*
Y2530738D01*
X8774129D01*
Y2528381D01*
Y2526025D01*
Y2523668D01*
X8776486D01*
Y2521311D01*
Y2518955D01*
X8778842D01*
Y2516598D01*
Y2514242D01*
X8781199D01*
Y2511885D01*
Y2509529D01*
X8783555D01*
Y2507172D01*
X8785912D01*
Y2504816D01*
Y2502459D01*
X8788269D01*
Y2500102D01*
X8790625D01*
Y2497746D01*
X8792982D01*
Y2495389D01*
Y2493033D01*
X8790625D01*
Y2490676D01*
X8783555D01*
Y2488320D01*
X8762346D01*
Y2485963D01*
X8759990D01*
Y2488320D01*
X8743494D01*
Y2490676D01*
Y2493033D01*
X8741138D01*
Y2495389D01*
Y2497746D01*
Y2500102D01*
Y2502459D01*
X8743494D01*
Y2504816D01*
Y2507172D01*
X8745851D01*
Y2509529D01*
X8748207D01*
Y2511885D01*
Y2514242D01*
X8745851D01*
Y2516598D01*
Y2518955D01*
Y2521311D01*
X8743494D01*
Y2523668D01*
Y2526025D01*
Y2528381D01*
X8741138D01*
Y2530738D01*
Y2533094D01*
Y2535451D01*
X8738781D01*
Y2537807D01*
Y2540164D01*
X8736424D01*
Y2542520D01*
Y2544877D01*
X8734068D01*
Y2547234D01*
Y2549590D01*
X8731711D01*
Y2551947D01*
Y2554303D01*
X8729355D01*
Y2556660D01*
X8726998D01*
Y2559016D01*
Y2561373D01*
X8724642D01*
Y2563729D01*
X8726998D01*
Y2566086D01*
X8722285D01*
Y2568442D01*
Y2570799D01*
Y2573156D01*
X8717572D01*
Y2575512D01*
Y2577869D01*
X8715215D01*
Y2580225D01*
Y2582582D01*
X8712859D01*
Y2584938D01*
X8710502D01*
Y2587295D01*
X8715215D01*
Y2589651D01*
X8708146D01*
Y2592008D01*
X8705789D01*
Y2594365D01*
Y2596721D01*
X8703433D01*
Y2599078D01*
X8701076D01*
Y2601434D01*
X8698720D01*
Y2603791D01*
X8696363D01*
Y2606148D01*
X8694006D01*
Y2608504D01*
X8691650D01*
Y2610860D01*
X8689293D01*
Y2613217D01*
X8686937D01*
Y2615574D01*
X8684580D01*
Y2617930D01*
X8682224D01*
Y2620287D01*
X8679867D01*
Y2622644D01*
Y2625000D01*
X8677511D01*
Y2627356D01*
X8675154D01*
Y2629713D01*
Y2632070D01*
X8672798D01*
Y2634426D01*
X8670441D01*
Y2636783D01*
Y2639140D01*
X8668084D01*
Y2641496D01*
Y2643852D01*
X8665728D01*
Y2646209D01*
Y2648566D01*
X8663371D01*
Y2646209D01*
Y2643852D01*
X8665728D01*
Y2641496D01*
Y2639140D01*
X8668084D01*
Y2636783D01*
Y2634426D01*
X8670441D01*
Y2632070D01*
Y2629713D01*
X8672798D01*
Y2627356D01*
X8675154D01*
Y2625000D01*
Y2622644D01*
X8677511D01*
Y2620287D01*
X8679867D01*
Y2617930D01*
Y2615574D01*
X8682224D01*
Y2613217D01*
Y2610860D01*
Y2608504D01*
Y2606148D01*
X8679867D01*
Y2603791D01*
Y2601434D01*
Y2599078D01*
X8677511D01*
Y2596721D01*
Y2594365D01*
Y2592008D01*
X8675154D01*
Y2589651D01*
Y2587295D01*
X8672798D01*
Y2584938D01*
Y2582582D01*
Y2580225D01*
X8670441D01*
Y2577869D01*
Y2575512D01*
Y2573156D01*
X8668084D01*
Y2570799D01*
Y2568442D01*
Y2566086D01*
Y2563729D01*
X8665728D01*
Y2561373D01*
Y2559016D01*
Y2556660D01*
Y2554303D01*
X8663371D01*
Y2551947D01*
Y2549590D01*
Y2547234D01*
X8661014D01*
Y2544877D01*
Y2542520D01*
X8658658D01*
Y2540164D01*
Y2537807D01*
Y2535451D01*
X8656301D01*
Y2533094D01*
Y2530738D01*
X8653945D01*
Y2528381D01*
Y2526025D01*
Y2523668D01*
Y2521311D01*
Y2518955D01*
X8651588D01*
Y2516598D01*
Y2514242D01*
X8653945D01*
Y2511885D01*
Y2509529D01*
Y2507172D01*
X8656301D01*
Y2504816D01*
X8658658D01*
Y2502459D01*
X8661014D01*
Y2500102D01*
X8663371D01*
Y2497746D01*
X8665728D01*
Y2495389D01*
Y2493033D01*
X8668084D01*
Y2490676D01*
Y2488320D01*
Y2485963D01*
X8663371D01*
Y2483607D01*
X8632736D01*
Y2485963D01*
X8625666D01*
Y2483607D01*
X8613883D01*
Y2485963D01*
X8611527D01*
Y2488320D01*
Y2490676D01*
Y2493033D01*
Y2495389D01*
X8613883D01*
Y2497746D01*
Y2500102D01*
X8616240D01*
Y2502459D01*
X8620953D01*
Y2504816D01*
Y2507172D01*
Y2509529D01*
X8623309D01*
Y2511885D01*
X8620953D01*
Y2514242D01*
Y2516598D01*
Y2518955D01*
Y2521311D01*
Y2523668D01*
Y2526025D01*
Y2528381D01*
Y2530738D01*
Y2533094D01*
Y2535451D01*
Y2537807D01*
X8623309D01*
Y2540164D01*
Y2542520D01*
Y2544877D01*
Y2547234D01*
Y2549590D01*
Y2551947D01*
Y2554303D01*
Y2556660D01*
X8625666D01*
Y2559016D01*
Y2561373D01*
Y2563729D01*
Y2566086D01*
Y2568442D01*
X8628023D01*
Y2570799D01*
Y2573156D01*
Y2575512D01*
Y2577869D01*
Y2580225D01*
Y2582582D01*
X8630379D01*
Y2584938D01*
Y2587295D01*
Y2589651D01*
Y2592008D01*
Y2594365D01*
Y2596721D01*
Y2599078D01*
Y2601434D01*
Y2603791D01*
Y2606148D01*
Y2608504D01*
Y2610860D01*
X8632736D01*
Y2613217D01*
X8630379D01*
Y2615574D01*
Y2617930D01*
Y2620287D01*
Y2622644D01*
Y2625000D01*
Y2627356D01*
Y2629713D01*
Y2632070D01*
X8628023D01*
Y2634426D01*
Y2636783D01*
Y2639140D01*
X8623309D01*
Y2636783D01*
X8618596D01*
Y2634426D01*
X8613883D01*
Y2632070D01*
X8609170D01*
Y2629713D01*
X8602100D01*
Y2627356D01*
X8595031D01*
Y2625000D01*
X8583248D01*
Y2622644D01*
X8578535D01*
Y2625000D01*
X8571465D01*
Y2622644D01*
X8554969D01*
Y2625000D01*
X8552613D01*
Y2622644D01*
X8554969D01*
Y2620287D01*
X8550256D01*
Y2617930D01*
Y2615574D01*
X8547900D01*
Y2613217D01*
X8545543D01*
Y2610860D01*
X8543187D01*
Y2608504D01*
X8540830D01*
Y2606148D01*
X8538474D01*
Y2603791D01*
X8536117D01*
Y2601434D01*
X8533760D01*
Y2599078D01*
X8531404D01*
Y2596721D01*
Y2594365D01*
X8529047D01*
Y2592008D01*
Y2589651D01*
Y2587295D01*
X8526691D01*
Y2584938D01*
Y2582582D01*
X8524334D01*
Y2580225D01*
Y2577869D01*
Y2575512D01*
X8521978D01*
Y2573156D01*
Y2570799D01*
Y2568442D01*
Y2566086D01*
X8524334D01*
Y2563729D01*
Y2561373D01*
Y2559016D01*
Y2556660D01*
Y2554303D01*
Y2551947D01*
Y2549590D01*
Y2547234D01*
Y2544877D01*
Y2542520D01*
Y2540164D01*
Y2537807D01*
Y2535451D01*
Y2533094D01*
Y2530738D01*
Y2528381D01*
X8526691D01*
Y2526025D01*
Y2523668D01*
Y2521311D01*
X8529047D01*
Y2518955D01*
Y2516598D01*
X8531404D01*
Y2514242D01*
X8533760D01*
Y2511885D01*
X8536117D01*
Y2509529D01*
X8538474D01*
Y2507172D01*
X8540830D01*
Y2504816D01*
X8543187D01*
Y2502459D01*
X8545543D01*
Y2500102D01*
X8547900D01*
Y2497746D01*
Y2495389D01*
Y2493033D01*
X8545543D01*
Y2490676D01*
X8493699D01*
Y2493033D01*
X8488986D01*
Y2495389D01*
Y2497746D01*
Y2500102D01*
Y2502459D01*
Y2504816D01*
Y2507172D01*
Y2509529D01*
Y2511885D01*
Y2514242D01*
Y2516598D01*
Y2518955D01*
Y2521311D01*
Y2523668D01*
Y2526025D01*
X8491343D01*
Y2528381D01*
Y2530738D01*
Y2533094D01*
Y2535451D01*
Y2537807D01*
X8493699D01*
Y2540164D01*
Y2542520D01*
Y2544877D01*
Y2547234D01*
Y2549590D01*
Y2551947D01*
Y2554303D01*
Y2556660D01*
Y2559016D01*
Y2561373D01*
Y2563729D01*
Y2566086D01*
Y2568442D01*
Y2570799D01*
Y2573156D01*
Y2575512D01*
X8491343D01*
Y2577869D01*
Y2580225D01*
Y2582582D01*
Y2584938D01*
Y2587295D01*
Y2589651D01*
Y2592008D01*
X8488986D01*
Y2594365D01*
X8486629D01*
Y2596721D01*
X8484272D01*
Y2599078D01*
X8486629D01*
Y2601434D01*
X8488986D01*
Y2603791D01*
X8491343D01*
Y2606148D01*
X8493699D01*
Y2608504D01*
X8496056D01*
Y2610860D01*
Y2613217D01*
X8498412D01*
Y2615574D01*
X8503125D01*
Y2617930D01*
Y2620287D01*
Y2622644D01*
X8500769D01*
Y2620287D01*
X8498412D01*
Y2617930D01*
X8496056D01*
Y2615574D01*
X8493699D01*
Y2613217D01*
Y2610860D01*
X8491343D01*
Y2608504D01*
X8488986D01*
Y2610860D01*
X8484272D01*
Y2608504D01*
X8488986D01*
Y2606148D01*
X8486629D01*
Y2603791D01*
X8484272D01*
Y2601434D01*
X8481916D01*
Y2599078D01*
Y2596721D01*
X8479559D01*
Y2594365D01*
X8477203D01*
Y2592008D01*
X8474846D01*
Y2589651D01*
X8472490D01*
Y2587295D01*
Y2584938D01*
X8470133D01*
Y2582582D01*
X8467777D01*
Y2580225D01*
Y2577869D01*
X8465420D01*
Y2575512D01*
Y2573156D01*
X8460707D01*
Y2570799D01*
X8463064D01*
Y2568442D01*
X8460707D01*
Y2566086D01*
X8458351D01*
Y2563729D01*
Y2561373D01*
Y2559016D01*
X8455994D01*
Y2556660D01*
Y2554303D01*
X8453637D01*
Y2551947D01*
Y2549590D01*
X8451281D01*
Y2547234D01*
X8453637D01*
Y2544877D01*
X8451281D01*
Y2542520D01*
Y2540164D01*
Y2537807D01*
Y2535451D01*
X8448924D01*
Y2537807D01*
X8446568D01*
Y2535451D01*
X8448924D01*
Y2533094D01*
Y2530738D01*
Y2528381D01*
Y2526025D01*
X8446568D01*
Y2523668D01*
Y2521311D01*
Y2518955D01*
X8444211D01*
Y2516598D01*
Y2514242D01*
Y2511885D01*
X8441855D01*
Y2509529D01*
X8444211D01*
Y2507172D01*
Y2504816D01*
Y2502459D01*
X8446568D01*
Y2500102D01*
X8444211D01*
Y2502459D01*
X8441855D01*
Y2500102D01*
X8444211D01*
Y2497746D01*
Y2495389D01*
Y2493033D01*
X8439498D01*
Y2490676D01*
X8437141D01*
Y2493033D01*
X8415932D01*
Y2495389D01*
X8413576D01*
Y2497746D01*
X8411219D01*
Y2500102D01*
Y2502459D01*
X8408863D01*
Y2504816D01*
Y2507172D01*
Y2509529D01*
Y2511885D01*
Y2514242D01*
Y2516598D01*
X8411219D01*
Y2518955D01*
Y2521311D01*
X8413576D01*
Y2523668D01*
X8415932D01*
Y2526025D01*
X8418289D01*
Y2528381D01*
X8420645D01*
Y2526025D01*
X8423002D01*
Y2528381D01*
X8420645D01*
Y2530738D01*
Y2533094D01*
Y2535451D01*
Y2537807D01*
X8423002D01*
Y2540164D01*
Y2542520D01*
Y2544877D01*
X8425359D01*
Y2547234D01*
Y2549590D01*
X8427715D01*
Y2551947D01*
Y2554303D01*
X8423002D01*
Y2551947D01*
X8420645D01*
Y2554303D01*
Y2556660D01*
X8415932D01*
Y2559016D01*
Y2561373D01*
X8418289D01*
Y2563729D01*
Y2566086D01*
Y2568442D01*
Y2570799D01*
Y2573156D01*
X8420645D01*
Y2575512D01*
Y2577869D01*
Y2580225D01*
X8423002D01*
Y2582582D01*
Y2584938D01*
Y2587295D01*
Y2589651D01*
X8425359D01*
Y2592008D01*
Y2594365D01*
Y2596721D01*
X8427715D01*
Y2599078D01*
Y2601434D01*
Y2603791D01*
X8430072D01*
Y2606148D01*
Y2608504D01*
Y2610860D01*
Y2613217D01*
X8432428D01*
Y2610860D01*
X8434785D01*
Y2608504D01*
Y2606148D01*
Y2603791D01*
Y2601434D01*
X8432428D01*
Y2599078D01*
Y2596721D01*
Y2594365D01*
Y2592008D01*
X8430072D01*
Y2589651D01*
Y2587295D01*
Y2584938D01*
X8427715D01*
Y2582582D01*
Y2580225D01*
Y2577869D01*
Y2575512D01*
Y2573156D01*
Y2570799D01*
Y2568442D01*
Y2566086D01*
Y2563729D01*
Y2561373D01*
Y2559016D01*
X8425359D01*
Y2556660D01*
X8430072D01*
Y2559016D01*
Y2561373D01*
Y2563729D01*
X8432428D01*
Y2566086D01*
Y2568442D01*
Y2570799D01*
Y2573156D01*
X8434785D01*
Y2575512D01*
Y2577869D01*
Y2580225D01*
Y2582582D01*
Y2584938D01*
X8437141D01*
Y2587295D01*
Y2589651D01*
Y2592008D01*
Y2594365D01*
Y2596721D01*
Y2599078D01*
Y2601434D01*
Y2603791D01*
Y2606148D01*
Y2608504D01*
Y2610860D01*
Y2613217D01*
X8434785D01*
Y2615574D01*
X8432428D01*
Y2617930D01*
Y2620287D01*
Y2622644D01*
X8434785D01*
Y2625000D01*
Y2627356D01*
Y2629713D01*
Y2632070D01*
Y2634426D01*
Y2636783D01*
Y2639140D01*
Y2641496D01*
X8437141D01*
Y2643852D01*
Y2646209D01*
Y2648566D01*
Y2650922D01*
Y2653279D01*
Y2655635D01*
Y2657992D01*
X8439498D01*
Y2660349D01*
Y2662705D01*
Y2665062D01*
Y2667418D01*
Y2669775D01*
Y2672131D01*
Y2674488D01*
Y2676844D01*
Y2679201D01*
Y2681557D01*
Y2683914D01*
Y2686271D01*
Y2688627D01*
Y2690984D01*
Y2693340D01*
Y2695697D01*
Y2698053D01*
Y2700410D01*
Y2702766D01*
X8441855D01*
Y2705123D01*
Y2707480D01*
Y2709836D01*
Y2712193D01*
Y2714549D01*
X8444211D01*
Y2716906D01*
Y2719262D01*
X8446568D01*
Y2721619D01*
Y2723975D01*
Y2726332D01*
X8448924D01*
Y2728689D01*
X8451281D01*
Y2731045D01*
Y2733402D01*
X8453637D01*
Y2735758D01*
Y2738115D01*
X8458351D01*
Y2740471D01*
Y2742828D01*
Y2745184D01*
X8460707D01*
Y2747541D01*
X8463064D01*
Y2749897D01*
X8467777D01*
Y2752254D01*
X8465420D01*
Y2754611D01*
X8467777D01*
Y2756967D01*
X8470133D01*
Y2759324D01*
Y2761680D01*
X8472490D01*
Y2764037D01*
X8474846D01*
Y2766393D01*
Y2768750D01*
X8477203D01*
Y2771106D01*
X8479559D01*
Y2773463D01*
X8481916D01*
Y2771106D01*
X8484272D01*
Y2773463D01*
X8481916D01*
Y2775820D01*
Y2778176D01*
X8484272D01*
Y2780533D01*
X8486629D01*
Y2782889D01*
X8488986D01*
Y2785246D01*
X8491343D01*
Y2787602D01*
X8498412D01*
Y2789959D01*
Y2792316D01*
X8500769D01*
Y2789959D01*
X8503125D01*
Y2792316D01*
Y2794672D01*
X8507838D01*
Y2797029D01*
X8512551D01*
Y2799385D01*
X8521978D01*
Y2801742D01*
X8529047D01*
Y2799385D01*
X8531404D01*
Y2801742D01*
X8529047D01*
Y2804099D01*
X8547900D01*
Y2806455D01*
X8604457D01*
Y2808811D01*
X8616240D01*
Y2811168D01*
X8623309D01*
Y2813525D01*
X8630379D01*
Y2815881D01*
X8637449D01*
Y2818238D01*
X8646875D01*
Y2820595D01*
X8653945D01*
Y2822951D01*
X8663371D01*
Y2825307D01*
X8668084D01*
Y2827664D01*
X8675154D01*
Y2830021D01*
X8677511D01*
Y2827664D01*
X8679867D01*
Y2830021D01*
X8682224D01*
Y2827664D01*
X8684580D01*
Y2830021D01*
X8682224D01*
Y2832377D01*
X8696363D01*
Y2830021D01*
D02*
G37*
G36*
X7761055Y2665954D02*
X7762039D01*
X7763220Y2665822D01*
X7764597Y2665691D01*
X7766106Y2665494D01*
X7767746Y2665232D01*
X7769452Y2664904D01*
X7771223Y2664510D01*
X7772994Y2663985D01*
X7774765Y2663395D01*
X7776471Y2662673D01*
X7778176Y2661821D01*
X7779685Y2660837D01*
X7781128Y2659722D01*
X7781194Y2659656D01*
X7781457Y2659459D01*
X7781784Y2659066D01*
X7782244Y2658606D01*
X7782834Y2657950D01*
X7783425Y2657229D01*
X7784081Y2656310D01*
X7784802Y2655326D01*
X7785458Y2654146D01*
X7786180Y2652899D01*
X7786770Y2651521D01*
X7787360Y2650078D01*
X7787885Y2648504D01*
X7788279Y2646798D01*
X7788607Y2644961D01*
X7788738Y2643059D01*
X7773453Y2642403D01*
Y2642469D01*
X7773388Y2642666D01*
X7773322Y2642994D01*
X7773257Y2643387D01*
X7773125Y2643846D01*
X7772994Y2644371D01*
X7772535Y2645617D01*
X7772010Y2646995D01*
X7771223Y2648438D01*
X7770305Y2649685D01*
X7769780Y2650275D01*
X7769189Y2650800D01*
X7769124D01*
X7769058Y2650931D01*
X7768861Y2651062D01*
X7768599Y2651193D01*
X7768271Y2651390D01*
X7767812Y2651587D01*
X7767352Y2651849D01*
X7766762Y2652112D01*
X7766172Y2652309D01*
X7765450Y2652571D01*
X7764663Y2652768D01*
X7763744Y2652965D01*
X7762826Y2653096D01*
X7761776Y2653227D01*
X7760727Y2653358D01*
X7758890D01*
X7758431Y2653293D01*
X7757906D01*
X7757250Y2653227D01*
X7756529Y2653162D01*
X7755741Y2653030D01*
X7754101Y2652702D01*
X7752330Y2652177D01*
X7750690Y2651521D01*
X7749837Y2651062D01*
X7749116Y2650603D01*
X7748984Y2650537D01*
X7748722Y2650275D01*
X7748394Y2649881D01*
X7747935Y2649357D01*
X7747476Y2648701D01*
X7747148Y2647848D01*
X7746885Y2646930D01*
X7746754Y2645880D01*
Y2645749D01*
X7746820Y2645421D01*
X7746885Y2644961D01*
X7747016Y2644305D01*
X7747279Y2643584D01*
X7747672Y2642797D01*
X7748263Y2642010D01*
X7748984Y2641288D01*
X7749050D01*
X7749116Y2641157D01*
X7749312Y2641026D01*
X7749641Y2640894D01*
X7749968Y2640632D01*
X7750493Y2640369D01*
X7751084Y2640107D01*
X7751805Y2639779D01*
X7752658Y2639385D01*
X7753708Y2638992D01*
X7754823Y2638598D01*
X7756135Y2638139D01*
X7757578Y2637680D01*
X7759218Y2637221D01*
X7761055Y2636696D01*
X7763023Y2636237D01*
X7763154D01*
X7763482Y2636106D01*
X7764073Y2635974D01*
X7764860Y2635778D01*
X7765778Y2635515D01*
X7766828Y2635253D01*
X7768008Y2634925D01*
X7769255Y2634597D01*
X7771944Y2633744D01*
X7774700Y2632825D01*
X7776012Y2632366D01*
X7777258Y2631841D01*
X7778439Y2631317D01*
X7779489Y2630792D01*
X7779554D01*
X7779751Y2630661D01*
X7780013Y2630530D01*
X7780407Y2630267D01*
X7780801Y2630005D01*
X7781325Y2629677D01*
X7782572Y2628758D01*
X7783884Y2627709D01*
X7785327Y2626397D01*
X7786639Y2624822D01*
X7787885Y2623117D01*
X7787951Y2623051D01*
X7788016Y2622920D01*
X7788148Y2622592D01*
X7788345Y2622264D01*
X7788607Y2621805D01*
X7788869Y2621214D01*
X7789132Y2620558D01*
X7789394Y2619771D01*
X7789657Y2618984D01*
X7789919Y2618066D01*
X7790181Y2617081D01*
X7790444Y2616032D01*
X7790641Y2614851D01*
X7790772Y2613670D01*
X7790903Y2612424D01*
Y2611112D01*
Y2611046D01*
Y2610849D01*
Y2610456D01*
X7790837Y2609997D01*
X7790772Y2609406D01*
X7790706Y2608750D01*
X7790575Y2607963D01*
X7790444Y2607176D01*
X7790247Y2606258D01*
X7789984Y2605273D01*
X7789328Y2603240D01*
X7788935Y2602190D01*
X7788476Y2601075D01*
X7787885Y2599960D01*
X7787229Y2598910D01*
X7787164Y2598845D01*
X7787033Y2598648D01*
X7786836Y2598385D01*
X7786573Y2597992D01*
X7786180Y2597533D01*
X7785721Y2597008D01*
X7785196Y2596418D01*
X7784605Y2595762D01*
X7783884Y2595106D01*
X7783162Y2594384D01*
X7782309Y2593662D01*
X7781391Y2593006D01*
X7780407Y2592285D01*
X7779357Y2591694D01*
X7778176Y2591038D01*
X7776996Y2590514D01*
X7776930D01*
X7776668Y2590382D01*
X7776340Y2590251D01*
X7775815Y2590054D01*
X7775159Y2589858D01*
X7774372Y2589661D01*
X7773519Y2589398D01*
X7772469Y2589136D01*
X7771354Y2588874D01*
X7770108Y2588611D01*
X7768730Y2588414D01*
X7767287Y2588218D01*
X7765778Y2588021D01*
X7764138Y2587890D01*
X7762432Y2587824D01*
X7760596Y2587758D01*
X7759612D01*
X7759218Y2587824D01*
X7758234Y2587890D01*
X7757053Y2587955D01*
X7755676Y2588086D01*
X7754101Y2588283D01*
X7752461Y2588611D01*
X7750690Y2588939D01*
X7748919Y2589398D01*
X7747016Y2589923D01*
X7745180Y2590579D01*
X7743408Y2591301D01*
X7741637Y2592219D01*
X7739997Y2593203D01*
X7738489Y2594384D01*
X7738423Y2594450D01*
X7738160Y2594712D01*
X7737767Y2595106D01*
X7737242Y2595630D01*
X7736652Y2596286D01*
X7735996Y2597139D01*
X7735274Y2598123D01*
X7734487Y2599304D01*
X7733700Y2600550D01*
X7732913Y2601994D01*
X7732125Y2603633D01*
X7731404Y2605339D01*
X7730748Y2607242D01*
X7730157Y2609275D01*
X7729698Y2611440D01*
X7729370Y2613736D01*
X7744261Y2615179D01*
Y2615113D01*
X7744327Y2614851D01*
X7744392Y2614457D01*
X7744524Y2613933D01*
X7744721Y2613342D01*
X7744917Y2612621D01*
X7745114Y2611834D01*
X7745442Y2610981D01*
X7746164Y2609144D01*
X7747082Y2607373D01*
X7748263Y2605602D01*
X7748919Y2604880D01*
X7749641Y2604158D01*
X7749706Y2604093D01*
X7749837Y2604027D01*
X7750100Y2603830D01*
X7750428Y2603633D01*
X7750821Y2603371D01*
X7751346Y2603043D01*
X7751936Y2602715D01*
X7752592Y2602453D01*
X7753314Y2602125D01*
X7754167Y2601797D01*
X7755085Y2601469D01*
X7756069Y2601206D01*
X7757119Y2601010D01*
X7758234Y2600813D01*
X7759480Y2600747D01*
X7760727Y2600682D01*
X7761449D01*
X7761973Y2600747D01*
X7762564D01*
X7763285Y2600878D01*
X7764073Y2600944D01*
X7764925Y2601075D01*
X7766697Y2601469D01*
X7768533Y2601994D01*
X7770305Y2602781D01*
X7771157Y2603240D01*
X7771879Y2603765D01*
X7771944Y2603830D01*
X7772010Y2603896D01*
X7772207Y2604093D01*
X7772469Y2604355D01*
X7773060Y2605011D01*
X7773781Y2605864D01*
X7774437Y2606914D01*
X7775028Y2608160D01*
X7775290Y2608816D01*
X7775487Y2609537D01*
X7775552Y2610259D01*
X7775618Y2611046D01*
Y2611177D01*
Y2611506D01*
X7775552Y2612030D01*
X7775421Y2612621D01*
X7775225Y2613342D01*
X7774962Y2614130D01*
X7774569Y2614917D01*
X7774044Y2615638D01*
X7773978Y2615704D01*
X7773716Y2615966D01*
X7773322Y2616294D01*
X7772797Y2616753D01*
X7772010Y2617278D01*
X7771026Y2617803D01*
X7769911Y2618394D01*
X7768533Y2618918D01*
X7768402Y2618984D01*
X7768205Y2619050D01*
X7767943Y2619115D01*
X7767615Y2619181D01*
X7767156Y2619312D01*
X7766631Y2619509D01*
X7765975Y2619706D01*
X7765253Y2619902D01*
X7764335Y2620099D01*
X7763351Y2620361D01*
X7762236Y2620689D01*
X7760989Y2621017D01*
X7759546Y2621411D01*
X7757972Y2621805D01*
X7756266Y2622198D01*
X7756200D01*
X7756135Y2622264D01*
X7755741Y2622329D01*
X7755085Y2622526D01*
X7754298Y2622723D01*
X7753248Y2623051D01*
X7752133Y2623379D01*
X7750887Y2623773D01*
X7749509Y2624298D01*
X7746689Y2625347D01*
X7743868Y2626659D01*
X7742490Y2627315D01*
X7741244Y2628102D01*
X7740063Y2628890D01*
X7739079Y2629677D01*
X7739013Y2629742D01*
X7738751Y2629939D01*
X7738423Y2630333D01*
X7737964Y2630792D01*
X7737439Y2631382D01*
X7736849Y2632104D01*
X7736258Y2632957D01*
X7735602Y2633941D01*
X7734946Y2634990D01*
X7734356Y2636106D01*
X7733765Y2637418D01*
X7733240Y2638729D01*
X7732781Y2640173D01*
X7732453Y2641682D01*
X7732191Y2643256D01*
X7732125Y2644896D01*
Y2644961D01*
Y2645158D01*
Y2645486D01*
X7732191Y2645880D01*
X7732257Y2646405D01*
X7732322Y2646995D01*
X7732388Y2647651D01*
X7732519Y2648438D01*
X7732913Y2650078D01*
X7733503Y2651849D01*
X7733831Y2652834D01*
X7734290Y2653752D01*
X7734749Y2654736D01*
X7735340Y2655654D01*
X7735405Y2655720D01*
X7735471Y2655851D01*
X7735668Y2656113D01*
X7735930Y2656507D01*
X7736258Y2656901D01*
X7736717Y2657425D01*
X7737176Y2657950D01*
X7737767Y2658541D01*
X7738357Y2659131D01*
X7739079Y2659722D01*
X7739866Y2660378D01*
X7740719Y2661034D01*
X7741637Y2661624D01*
X7742621Y2662280D01*
X7743671Y2662805D01*
X7744786Y2663329D01*
X7744852D01*
X7745048Y2663461D01*
X7745442Y2663592D01*
X7745901Y2663723D01*
X7746492Y2663985D01*
X7747213Y2664182D01*
X7748001Y2664445D01*
X7748984Y2664707D01*
X7749968Y2664904D01*
X7751149Y2665166D01*
X7752330Y2665429D01*
X7753642Y2665626D01*
X7755085Y2665757D01*
X7756529Y2665888D01*
X7758103Y2666019D01*
X7760661D01*
X7761055Y2665954D01*
D02*
G37*
G36*
X7920266Y2651915D02*
X7883661D01*
Y2634006D01*
X7915280D01*
Y2621214D01*
X7883661D01*
Y2589070D01*
X7868377D01*
Y2664707D01*
X7920266D01*
Y2651915D01*
D02*
G37*
G36*
X7858537D02*
X7836167D01*
Y2589070D01*
X7820882D01*
Y2651915D01*
X7798447D01*
Y2664707D01*
X7858537D01*
Y2651915D01*
D02*
G37*
G36*
X7977469Y2572565D02*
X7978453D01*
X7979634Y2572434D01*
X7980946Y2572303D01*
X7982520Y2572106D01*
X7984160Y2571909D01*
X7985866Y2571581D01*
X7987637Y2571188D01*
X7989474Y2570663D01*
X7991311Y2570138D01*
X7993148Y2569417D01*
X7994853Y2568629D01*
X7996493Y2567711D01*
X7998068Y2566661D01*
X7998133Y2566596D01*
X7998396Y2566399D01*
X7998789Y2566071D01*
X7999314Y2565612D01*
X7999970Y2564956D01*
X8000692Y2564234D01*
X8001479Y2563381D01*
X8002332Y2562397D01*
X8003185Y2561348D01*
X8004037Y2560101D01*
X8004890Y2558789D01*
X8005743Y2557281D01*
X8006530Y2555772D01*
X8007186Y2554066D01*
X8007842Y2552295D01*
X8008301Y2550393D01*
X7993148Y2547572D01*
Y2547637D01*
X7993082Y2547834D01*
X7992951Y2548097D01*
X7992820Y2548490D01*
X7992623Y2548949D01*
X7992426Y2549474D01*
X7991770Y2550721D01*
X7990983Y2552098D01*
X7989933Y2553607D01*
X7988621Y2554985D01*
X7987113Y2556297D01*
X7987047Y2556362D01*
X7986916Y2556428D01*
X7986653Y2556625D01*
X7986325Y2556821D01*
X7985866Y2557084D01*
X7985407Y2557346D01*
X7984751Y2557609D01*
X7984095Y2557937D01*
X7983308Y2558265D01*
X7982520Y2558527D01*
X7981602Y2558789D01*
X7980618Y2559052D01*
X7978453Y2559445D01*
X7977338Y2559511D01*
X7976092Y2559577D01*
X7975632Y2559577D01*
X7975108Y2559511D01*
X7974452D01*
X7973599Y2559380D01*
X7972615Y2559249D01*
X7971565Y2559052D01*
X7970385Y2558789D01*
X7969138Y2558461D01*
X7967826Y2558002D01*
X7966514Y2557543D01*
X7965202Y2556887D01*
X7963890Y2556165D01*
X7962578Y2555312D01*
X7961397Y2554329D01*
X7960217Y2553213D01*
X7960151Y2553148D01*
X7959954Y2552885D01*
X7959692Y2552557D01*
X7959298Y2552032D01*
X7958839Y2551376D01*
X7958380Y2550524D01*
X7957789Y2549605D01*
X7957265Y2548490D01*
X7956740Y2547178D01*
X7956215Y2545800D01*
X7955690Y2544226D01*
X7955231Y2542586D01*
X7954837Y2540749D01*
X7954575Y2538716D01*
X7954378Y2536617D01*
X7954312Y2534320D01*
Y2534255D01*
Y2534189D01*
Y2533992D01*
Y2533730D01*
X7954378Y2533008D01*
Y2532090D01*
X7954509Y2530975D01*
X7954641Y2529729D01*
X7954837Y2528285D01*
X7955034Y2526776D01*
X7955362Y2525137D01*
X7955756Y2523497D01*
X7956280Y2521791D01*
X7956805Y2520151D01*
X7957527Y2518511D01*
X7958314Y2516936D01*
X7959233Y2515428D01*
X7960282Y2514116D01*
X7960348Y2514050D01*
X7960544Y2513853D01*
X7960873Y2513525D01*
X7961397Y2513066D01*
X7961988Y2512541D01*
X7962709Y2512017D01*
X7963497Y2511426D01*
X7964480Y2510770D01*
X7965530Y2510180D01*
X7966711Y2509524D01*
X7968023Y2508999D01*
X7969400Y2508474D01*
X7970909Y2508015D01*
X7972484Y2507687D01*
X7974189Y2507490D01*
X7975961Y2507425D01*
X7976813Y2507425D01*
X7977207Y2507490D01*
X7977732Y2507556D01*
X7978322D01*
X7978978Y2507687D01*
X7980421Y2507884D01*
X7981996Y2508212D01*
X7983767Y2508671D01*
X7985538Y2509261D01*
X7985604D01*
X7985735Y2509327D01*
X7985997Y2509458D01*
X7986325Y2509589D01*
X7986784Y2509786D01*
X7987244Y2509983D01*
X7988425Y2510573D01*
X7989736Y2511229D01*
X7991114Y2512017D01*
X7992492Y2512869D01*
X7993869Y2513853D01*
Y2523431D01*
X7976354D01*
Y2536223D01*
X8009285D01*
Y2506047D01*
X8009220Y2505981D01*
X8009088Y2505850D01*
X8008761Y2505588D01*
X8008367Y2505260D01*
X8007908Y2504866D01*
X8007252Y2504407D01*
X8006530Y2503882D01*
X8005743Y2503292D01*
X8004759Y2502636D01*
X8003775Y2501980D01*
X8002594Y2501324D01*
X8001348Y2500602D01*
X7999970Y2499946D01*
X7998527Y2499225D01*
X7996953Y2498503D01*
X7995312Y2497847D01*
X7995181Y2497781D01*
X7994919Y2497716D01*
X7994394Y2497519D01*
X7993738Y2497322D01*
X7992951Y2497060D01*
X7991967Y2496732D01*
X7990852Y2496404D01*
X7989605Y2496141D01*
X7988293Y2495813D01*
X7986850Y2495485D01*
X7985341Y2495157D01*
X7983767Y2494895D01*
X7980421Y2494501D01*
X7978716Y2494436D01*
X7976944Y2494370D01*
X7976420D01*
X7975764Y2494436D01*
X7974976D01*
X7973927Y2494501D01*
X7972746Y2494633D01*
X7971368Y2494764D01*
X7969925Y2494961D01*
X7968351Y2495223D01*
X7966645Y2495551D01*
X7964940Y2495945D01*
X7963168Y2496469D01*
X7961397Y2496994D01*
X7959626Y2497650D01*
X7957921Y2498437D01*
X7956215Y2499290D01*
X7956149Y2499356D01*
X7955821Y2499552D01*
X7955362Y2499815D01*
X7954772Y2500209D01*
X7954050Y2500733D01*
X7953197Y2501389D01*
X7952279Y2502111D01*
X7951295Y2502964D01*
X7950180Y2503882D01*
X7949130Y2504932D01*
X7948015Y2506113D01*
X7946900Y2507425D01*
X7945850Y2508802D01*
X7944801Y2510245D01*
X7943882Y2511820D01*
X7942964Y2513525D01*
X7942898Y2513657D01*
X7942767Y2513919D01*
X7942570Y2514444D01*
X7942308Y2515165D01*
X7941914Y2516018D01*
X7941586Y2517068D01*
X7941193Y2518249D01*
X7940799Y2519561D01*
X7940340Y2521004D01*
X7939946Y2522578D01*
X7939618Y2524218D01*
X7939290Y2525989D01*
X7938962Y2527826D01*
X7938765Y2529729D01*
X7938634Y2531697D01*
X7938569Y2533730D01*
Y2533796D01*
Y2533861D01*
Y2534255D01*
X7938634Y2534911D01*
Y2535698D01*
X7938700Y2536748D01*
X7938831Y2537928D01*
X7938962Y2539306D01*
X7939159Y2540815D01*
X7939421Y2542389D01*
X7939749Y2544029D01*
X7940143Y2545800D01*
X7940668Y2547572D01*
X7941193Y2549409D01*
X7941849Y2551180D01*
X7942636Y2552951D01*
X7943489Y2554722D01*
X7943554Y2554853D01*
X7943751Y2555116D01*
X7944013Y2555575D01*
X7944407Y2556231D01*
X7944932Y2557018D01*
X7945522Y2557871D01*
X7946309Y2558855D01*
X7947162Y2559905D01*
X7948146Y2561020D01*
X7949196Y2562200D01*
X7950377Y2563381D01*
X7951689Y2564562D01*
X7953066Y2565677D01*
X7954641Y2566793D01*
X7956215Y2567842D01*
X7957986Y2568826D01*
X7958052Y2568892D01*
X7958314Y2569023D01*
X7958708Y2569154D01*
X7959298Y2569416D01*
X7960020Y2569679D01*
X7960873Y2570007D01*
X7961856Y2570401D01*
X7962972Y2570729D01*
X7964218Y2571057D01*
X7965596Y2571450D01*
X7967105Y2571778D01*
X7968679Y2572041D01*
X7970385Y2572303D01*
X7972221Y2572500D01*
X7974124Y2572565D01*
X7976092Y2572631D01*
X7977076D01*
X7977469Y2572565D01*
D02*
G37*
G36*
X8335973Y2495682D02*
X8320623D01*
X8290184Y2545079D01*
Y2495682D01*
X8276015D01*
Y2571319D01*
X8290841D01*
X8321804Y2520741D01*
Y2571319D01*
X8335973D01*
Y2495682D01*
D02*
G37*
G36*
X8179058D02*
X8163773D01*
Y2571319D01*
X8179058D01*
Y2495682D01*
D02*
G37*
G36*
X8154458Y2558527D02*
X8132088D01*
Y2495682D01*
X8116804D01*
Y2558527D01*
X8094368D01*
Y2571319D01*
X8154458D01*
Y2558527D01*
D02*
G37*
G36*
X8091613Y2495682D02*
X8074951D01*
X8068391Y2512869D01*
X8038149D01*
X8031917Y2495682D01*
X8015714D01*
X8045103Y2571319D01*
X8061372D01*
X8091613Y2495682D01*
D02*
G37*
G36*
X7926629Y2495682D02*
X7911345D01*
Y2571319D01*
X7926629D01*
Y2495682D01*
D02*
G37*
G36*
X7870672Y2571253D02*
X7871788Y2571188D01*
X7873034Y2571122D01*
X7874412Y2571057D01*
X7877298Y2570794D01*
X7880250Y2570466D01*
X7881628Y2570204D01*
X7882940Y2569941D01*
X7884186Y2569613D01*
X7885301Y2569220D01*
X7885367D01*
X7885564Y2569154D01*
X7885826Y2569023D01*
X7886220Y2568826D01*
X7886679Y2568564D01*
X7887204Y2568301D01*
X7888450Y2567580D01*
X7889893Y2566530D01*
X7890615Y2565940D01*
X7891337Y2565284D01*
X7892058Y2564562D01*
X7892780Y2563775D01*
X7893436Y2562856D01*
X7894092Y2561938D01*
X7894157Y2561872D01*
X7894223Y2561676D01*
X7894420Y2561413D01*
X7894617Y2561020D01*
X7894879Y2560561D01*
X7895141Y2559970D01*
X7895469Y2559249D01*
X7895797Y2558527D01*
X7896060Y2557674D01*
X7896388Y2556756D01*
X7896650Y2555772D01*
X7896913Y2554722D01*
X7897306Y2552492D01*
X7897372Y2551311D01*
X7897437Y2550064D01*
Y2549999D01*
Y2549671D01*
Y2549212D01*
X7897372Y2548621D01*
X7897306Y2547900D01*
X7897175Y2547047D01*
X7897044Y2546128D01*
X7896781Y2545079D01*
X7896519Y2544029D01*
X7896191Y2542849D01*
X7895797Y2541733D01*
X7895338Y2540487D01*
X7894748Y2539306D01*
X7894026Y2538191D01*
X7893305Y2537010D01*
X7892386Y2535961D01*
X7892320Y2535895D01*
X7892124Y2535698D01*
X7891861Y2535436D01*
X7891468Y2535108D01*
X7890943Y2534648D01*
X7890287Y2534124D01*
X7889500Y2533599D01*
X7888647Y2533008D01*
X7887663Y2532418D01*
X7886548Y2531828D01*
X7885367Y2531237D01*
X7883989Y2530713D01*
X7882546Y2530188D01*
X7880972Y2529729D01*
X7879266Y2529335D01*
X7877495Y2529007D01*
X7877560D01*
X7877692Y2528876D01*
X7877954Y2528744D01*
X7878348Y2528482D01*
X7878741Y2528220D01*
X7879200Y2527892D01*
X7880381Y2527104D01*
X7881628Y2526186D01*
X7883005Y2525137D01*
X7884383Y2523890D01*
X7885629Y2522644D01*
X7885695Y2522578D01*
X7885761Y2522512D01*
X7885957Y2522250D01*
X7886220Y2521988D01*
X7886548Y2521594D01*
X7886941Y2521069D01*
X7887400Y2520544D01*
X7887925Y2519823D01*
X7888516Y2519036D01*
X7889172Y2518183D01*
X7889893Y2517133D01*
X7890681Y2516018D01*
X7891533Y2514772D01*
X7892386Y2513460D01*
X7893370Y2511951D01*
X7894354Y2510376D01*
X7903604Y2495682D01*
X7885301D01*
X7874280Y2512148D01*
X7874215Y2512279D01*
X7874018Y2512541D01*
X7873756Y2513001D01*
X7873297Y2513591D01*
X7872837Y2514247D01*
X7872312Y2515034D01*
X7871722Y2515887D01*
X7871066Y2516805D01*
X7869689Y2518708D01*
X7868377Y2520544D01*
X7867786Y2521332D01*
X7867196Y2522119D01*
X7866671Y2522709D01*
X7866212Y2523234D01*
X7866146Y2523365D01*
X7865818Y2523628D01*
X7865425Y2524021D01*
X7864834Y2524481D01*
X7864113Y2525005D01*
X7863391Y2525530D01*
X7862538Y2525989D01*
X7861620Y2526383D01*
X7861489Y2526448D01*
X7861160Y2526514D01*
X7860570Y2526645D01*
X7859783Y2526842D01*
X7858668Y2526973D01*
X7857356Y2527104D01*
X7855781Y2527170D01*
X7854928Y2527236D01*
X7850861D01*
Y2495682D01*
X7835577D01*
Y2571319D01*
X7869623D01*
X7870672Y2571253D01*
D02*
G37*
G36*
X7794380D02*
X7795495Y2571188D01*
X7796741Y2571122D01*
X7798119Y2571057D01*
X7801005Y2570794D01*
X7803957Y2570466D01*
X7805335Y2570204D01*
X7806647Y2569941D01*
X7807893Y2569613D01*
X7809008Y2569220D01*
X7809074D01*
X7809271Y2569154D01*
X7809533Y2569023D01*
X7809927Y2568826D01*
X7810386Y2568564D01*
X7810911Y2568301D01*
X7812157Y2567580D01*
X7813600Y2566530D01*
X7814322Y2565940D01*
X7815044Y2565284D01*
X7815765Y2564562D01*
X7816487Y2563775D01*
X7817143Y2562856D01*
X7817799Y2561938D01*
X7817864Y2561872D01*
X7817930Y2561676D01*
X7818127Y2561413D01*
X7818324Y2561020D01*
X7818586Y2560561D01*
X7818849Y2559970D01*
X7819176Y2559249D01*
X7819505Y2558527D01*
X7819767Y2557674D01*
X7820095Y2556756D01*
X7820357Y2555772D01*
X7820620Y2554722D01*
X7821013Y2552492D01*
X7821079Y2551311D01*
X7821145Y2550064D01*
Y2549999D01*
Y2549671D01*
Y2549212D01*
X7821079Y2548621D01*
X7821013Y2547900D01*
X7820882Y2547047D01*
X7820751Y2546128D01*
X7820489Y2545079D01*
X7820226Y2544029D01*
X7819898Y2542849D01*
X7819505Y2541733D01*
X7819045Y2540487D01*
X7818455Y2539306D01*
X7817733Y2538191D01*
X7817012Y2537010D01*
X7816093Y2535961D01*
X7816028Y2535895D01*
X7815831Y2535698D01*
X7815569Y2535436D01*
X7815175Y2535108D01*
X7814650Y2534648D01*
X7813994Y2534124D01*
X7813207Y2533599D01*
X7812354Y2533008D01*
X7811370Y2532418D01*
X7810255Y2531828D01*
X7809074Y2531237D01*
X7807697Y2530713D01*
X7806253Y2530188D01*
X7804679Y2529729D01*
X7802973Y2529335D01*
X7801202Y2529007D01*
X7801268D01*
X7801399Y2528876D01*
X7801661Y2528744D01*
X7802055Y2528482D01*
X7802449Y2528220D01*
X7802908Y2527892D01*
X7804088Y2527104D01*
X7805335Y2526186D01*
X7806712Y2525137D01*
X7808090Y2523890D01*
X7809337Y2522644D01*
X7809402Y2522578D01*
X7809468Y2522512D01*
X7809664Y2522250D01*
X7809927Y2521988D01*
X7810255Y2521594D01*
X7810649Y2521069D01*
X7811108Y2520544D01*
X7811632Y2519823D01*
X7812223Y2519036D01*
X7812879Y2518183D01*
X7813600Y2517133D01*
X7814388Y2516018D01*
X7815240Y2514772D01*
X7816093Y2513460D01*
X7817077Y2511951D01*
X7818061Y2510376D01*
X7827311Y2495682D01*
X7809008D01*
X7797988Y2512148D01*
X7797922Y2512279D01*
X7797725Y2512541D01*
X7797463Y2513001D01*
X7797004Y2513591D01*
X7796544Y2514247D01*
X7796020Y2515034D01*
X7795429Y2515887D01*
X7794773Y2516805D01*
X7793396Y2518708D01*
X7792084Y2520544D01*
X7791493Y2521332D01*
X7790903Y2522119D01*
X7790378Y2522709D01*
X7789919Y2523234D01*
X7789853Y2523365D01*
X7789525Y2523628D01*
X7789132Y2524021D01*
X7788541Y2524481D01*
X7787820Y2525005D01*
X7787098Y2525530D01*
X7786245Y2525989D01*
X7785327Y2526383D01*
X7785196Y2526448D01*
X7784868Y2526514D01*
X7784277Y2526645D01*
X7783490Y2526842D01*
X7782375Y2526973D01*
X7781063Y2527104D01*
X7779489Y2527170D01*
X7778636Y2527236D01*
X7774569D01*
Y2495682D01*
X7759284D01*
Y2571319D01*
X7793330D01*
X7794380Y2571253D01*
D02*
G37*
G36*
X7744655Y2495682D02*
X7729370D01*
Y2571319D01*
X7744655D01*
Y2495682D01*
D02*
G37*
G36*
X8228192Y2572565D02*
X8228717D01*
X8229242Y2572500D01*
X8229833D01*
X8231276Y2572303D01*
X8232916Y2572106D01*
X8234753Y2571778D01*
X8236720Y2571319D01*
X8238820Y2570794D01*
X8240985Y2570073D01*
X8243215Y2569220D01*
X8245445Y2568236D01*
X8247676Y2567055D01*
X8249841Y2565677D01*
X8251874Y2564037D01*
X8253842Y2562201D01*
X8253973Y2562069D01*
X8254301Y2561741D01*
X8254761Y2561151D01*
X8255416Y2560298D01*
X8256204Y2559249D01*
X8256991Y2557937D01*
X8257909Y2556428D01*
X8258893Y2554722D01*
X8259812Y2552754D01*
X8260730Y2550589D01*
X8261583Y2548228D01*
X8262305Y2545669D01*
X8262960Y2542849D01*
X8263420Y2539897D01*
X8263748Y2536682D01*
X8263879Y2533337D01*
Y2533271D01*
Y2533140D01*
Y2532877D01*
Y2532549D01*
X8263813Y2532090D01*
Y2531565D01*
X8263748Y2530975D01*
Y2530319D01*
X8263682Y2529597D01*
X8263551Y2528810D01*
X8263354Y2526973D01*
X8263026Y2525005D01*
X8262632Y2522906D01*
X8262108Y2520610D01*
X8261452Y2518314D01*
X8260665Y2515887D01*
X8259681Y2513525D01*
X8258565Y2511164D01*
X8257188Y2508868D01*
X8255679Y2506703D01*
X8253908Y2504669D01*
X8253776Y2504538D01*
X8253449Y2504210D01*
X8252858Y2503751D01*
X8252071Y2503095D01*
X8251087Y2502308D01*
X8249906Y2501389D01*
X8248463Y2500471D01*
X8246823Y2499553D01*
X8245052Y2498569D01*
X8243018Y2497650D01*
X8240853Y2496732D01*
X8238492Y2496010D01*
X8235933Y2495354D01*
X8233178Y2494829D01*
X8230292Y2494501D01*
X8227274Y2494370D01*
X8226552D01*
X8226159Y2494436D01*
X8225634D01*
X8225109Y2494501D01*
X8224519D01*
X8223076Y2494698D01*
X8221436Y2494895D01*
X8219599Y2495223D01*
X8217631Y2495682D01*
X8215532Y2496207D01*
X8213301Y2496863D01*
X8211071Y2497716D01*
X8208841Y2498700D01*
X8206610Y2499881D01*
X8204445Y2501258D01*
X8202412Y2502833D01*
X8200444Y2504604D01*
X8200312Y2504735D01*
X8200050Y2505063D01*
X8199525Y2505653D01*
X8198869Y2506506D01*
X8198148Y2507556D01*
X8197295Y2508802D01*
X8196442Y2510311D01*
X8195524Y2512017D01*
X8194540Y2513919D01*
X8193687Y2516084D01*
X8192834Y2518380D01*
X8192112Y2520938D01*
X8191457Y2523693D01*
X8190997Y2526580D01*
X8190669Y2529729D01*
X8190538Y2533009D01*
Y2533074D01*
Y2533140D01*
Y2533533D01*
Y2534124D01*
X8190604Y2534911D01*
X8190669Y2535961D01*
X8190735Y2537076D01*
X8190801Y2538388D01*
X8190997Y2539765D01*
X8191128Y2541274D01*
X8191391Y2542849D01*
X8191981Y2546063D01*
X8192375Y2547703D01*
X8192834Y2549343D01*
X8193359Y2550917D01*
X8193949Y2552426D01*
Y2552492D01*
X8194081Y2552689D01*
X8194212Y2553017D01*
X8194408Y2553410D01*
X8194671Y2553935D01*
X8194999Y2554525D01*
X8195392Y2555181D01*
X8195786Y2555903D01*
X8196770Y2557477D01*
X8198016Y2559249D01*
X8199394Y2561020D01*
X8200969Y2562791D01*
X8201034Y2562857D01*
X8201165Y2562988D01*
X8201428Y2563250D01*
X8201756Y2563578D01*
X8202149Y2563906D01*
X8202674Y2564365D01*
X8203264Y2564825D01*
X8203921Y2565349D01*
X8205364Y2566465D01*
X8207004Y2567580D01*
X8208841Y2568695D01*
X8210743Y2569613D01*
X8210808Y2569679D01*
X8211071Y2569745D01*
X8211465Y2569876D01*
X8211989Y2570073D01*
X8212645Y2570335D01*
X8213498Y2570597D01*
X8214416Y2570860D01*
X8215466Y2571122D01*
X8216581Y2571385D01*
X8217828Y2571647D01*
X8219205Y2571909D01*
X8220648Y2572172D01*
X8222157Y2572369D01*
X8223732Y2572500D01*
X8225372Y2572631D01*
X8227799D01*
X8228192Y2572565D01*
D02*
G37*
%LPC*%
G36*
X8708146Y2818238D02*
X8705789D01*
Y2815881D01*
X8708146D01*
Y2813525D01*
X8710502D01*
Y2815881D01*
X8708146D01*
Y2818238D01*
D02*
G37*
G36*
Y2813525D02*
X8705789D01*
Y2811168D01*
X8708146D01*
Y2813525D01*
D02*
G37*
G36*
X8705789Y2811168D02*
X8703433D01*
Y2808811D01*
X8705789D01*
Y2811168D01*
D02*
G37*
G36*
X8701076D02*
X8694006D01*
Y2808811D01*
X8701076D01*
Y2811168D01*
D02*
G37*
G36*
X8694006Y2808811D02*
X8686937D01*
Y2806455D01*
X8682224D01*
Y2804099D01*
X8677511D01*
Y2801742D01*
X8675154D01*
Y2799385D01*
X8672798D01*
Y2797029D01*
X8670441D01*
Y2794672D01*
Y2792316D01*
Y2789959D01*
Y2787602D01*
Y2785246D01*
Y2782889D01*
Y2780533D01*
Y2778176D01*
Y2775820D01*
X8672798D01*
Y2773463D01*
Y2771106D01*
Y2768750D01*
Y2766393D01*
X8675154D01*
Y2764037D01*
Y2761680D01*
Y2759324D01*
X8677511D01*
Y2761680D01*
Y2764037D01*
Y2766393D01*
X8675154D01*
Y2768750D01*
Y2771106D01*
Y2773463D01*
Y2775820D01*
Y2778176D01*
X8672798D01*
Y2780533D01*
Y2782889D01*
Y2785246D01*
Y2787602D01*
Y2789959D01*
Y2792316D01*
Y2794672D01*
X8675154D01*
Y2797029D01*
X8677511D01*
Y2794672D01*
X8679867D01*
Y2797029D01*
X8677511D01*
Y2799385D01*
X8682224D01*
Y2801742D01*
X8684580D01*
Y2804099D01*
X8689293D01*
Y2806455D01*
X8694006D01*
Y2808811D01*
D02*
G37*
G36*
X8498412Y2785246D02*
X8496056D01*
Y2782889D01*
X8498412D01*
Y2785246D01*
D02*
G37*
G36*
X8797695Y2782889D02*
X8795338D01*
Y2780533D01*
X8797695D01*
Y2778176D01*
X8804764D01*
Y2775820D01*
X8807121D01*
Y2778176D01*
X8809478D01*
Y2780533D01*
X8797695D01*
Y2782889D01*
D02*
G37*
G36*
X8807121Y2787602D02*
X8800051D01*
Y2785246D01*
X8807121D01*
Y2782889D01*
X8809478D01*
Y2780533D01*
X8811834D01*
Y2778176D01*
Y2775820D01*
Y2773463D01*
X8814191D01*
Y2775820D01*
Y2778176D01*
Y2780533D01*
X8811834D01*
Y2782889D01*
X8809478D01*
Y2785246D01*
X8807121D01*
Y2787602D01*
D02*
G37*
G36*
X8668084Y2778176D02*
X8665728D01*
Y2775820D01*
Y2773463D01*
X8670441D01*
Y2775820D01*
X8668084D01*
Y2778176D01*
D02*
G37*
G36*
X8679867Y2756967D02*
X8677511D01*
Y2754611D01*
X8679867D01*
Y2756967D01*
D02*
G37*
G36*
X8686937Y2749897D02*
X8684580D01*
Y2747541D01*
X8686937D01*
Y2749897D01*
D02*
G37*
G36*
X8788269Y2747541D02*
X8785912D01*
Y2745184D01*
X8788269D01*
Y2747541D01*
D02*
G37*
G36*
X8790625Y2740471D02*
X8788269D01*
Y2738115D01*
Y2735758D01*
Y2733402D01*
X8790625D01*
Y2735758D01*
Y2738115D01*
Y2740471D01*
D02*
G37*
G36*
X8783555Y2723975D02*
X8781199D01*
Y2721619D01*
X8783555D01*
Y2723975D01*
D02*
G37*
G36*
X8788269Y2728689D02*
X8785912D01*
Y2726332D01*
Y2723975D01*
Y2721619D01*
X8788269D01*
Y2719262D01*
X8790625D01*
Y2721619D01*
X8788269D01*
Y2723975D01*
Y2726332D01*
Y2728689D01*
D02*
G37*
G36*
X8785912Y2719262D02*
X8783555D01*
Y2716906D01*
Y2714549D01*
X8785912D01*
Y2716906D01*
Y2719262D01*
D02*
G37*
G36*
X8783555Y2714549D02*
X8781199D01*
Y2712193D01*
Y2709836D01*
X8783555D01*
Y2712193D01*
Y2714549D01*
D02*
G37*
G36*
X8809478Y2700410D02*
X8807121D01*
Y2698053D01*
X8809478D01*
Y2700410D01*
D02*
G37*
G36*
X8722285D02*
X8719929D01*
Y2698053D01*
X8722285D01*
Y2700410D01*
D02*
G37*
G36*
X8759990Y2698053D02*
X8757633D01*
Y2695697D01*
X8759990D01*
Y2698053D01*
D02*
G37*
G36*
X8517265Y2667418D02*
X8514908D01*
Y2665062D01*
X8517265D01*
Y2667418D01*
D02*
G37*
G36*
X8661014Y2660349D02*
X8658658D01*
Y2657992D01*
X8661014D01*
Y2660349D01*
D02*
G37*
G36*
X8663371Y2653279D02*
X8661014D01*
Y2650922D01*
X8663371D01*
Y2653279D01*
D02*
G37*
G36*
X8517265Y2657992D02*
X8514908D01*
Y2655635D01*
Y2653279D01*
Y2650922D01*
X8517265D01*
Y2653279D01*
Y2655635D01*
Y2657992D01*
D02*
G37*
G36*
X8814191Y2643852D02*
X8809478D01*
Y2641496D01*
X8814191D01*
Y2643852D01*
D02*
G37*
G36*
X8512551Y2650922D02*
X8510195D01*
Y2648566D01*
X8512551D01*
Y2646209D01*
Y2643852D01*
Y2641496D01*
X8514908D01*
Y2643852D01*
Y2646209D01*
Y2648566D01*
X8512551D01*
Y2650922D01*
D02*
G37*
G36*
X8814191Y2636783D02*
X8811834D01*
Y2634426D01*
X8814191D01*
Y2636783D01*
D02*
G37*
G36*
X8745851Y2629713D02*
X8743494D01*
Y2627356D01*
X8745851D01*
Y2629713D01*
D02*
G37*
G36*
X8512551Y2641496D02*
X8510195D01*
Y2639140D01*
Y2636783D01*
X8507838D01*
Y2634426D01*
Y2632070D01*
X8505482D01*
Y2629713D01*
Y2627356D01*
X8503125D01*
Y2625000D01*
Y2622644D01*
X8505482D01*
Y2625000D01*
X8507838D01*
Y2627356D01*
Y2629713D01*
X8510195D01*
Y2632070D01*
Y2634426D01*
X8512551D01*
Y2636783D01*
Y2639140D01*
Y2641496D01*
D02*
G37*
G36*
X8811834Y2622644D02*
X8809478D01*
Y2620287D01*
X8811834D01*
Y2622644D01*
D02*
G37*
G36*
X8729355Y2568442D02*
X8726998D01*
Y2566086D01*
X8729355D01*
Y2568442D01*
D02*
G37*
G36*
X8764703Y2563729D02*
X8762346D01*
Y2561373D01*
X8764703D01*
Y2563729D01*
D02*
G37*
G36*
X8453637Y2559016D02*
X8451281D01*
Y2556660D01*
X8453637D01*
Y2559016D01*
D02*
G37*
G36*
X8432428Y2554303D02*
X8430072D01*
Y2551947D01*
X8432428D01*
Y2554303D01*
D02*
G37*
G36*
X8444211Y2523668D02*
X8441855D01*
Y2521311D01*
X8444211D01*
Y2523668D01*
D02*
G37*
G36*
X8425359Y2497746D02*
X8423002D01*
Y2495389D01*
X8425359D01*
Y2497746D01*
D02*
G37*
G36*
X8053041Y2553673D02*
X8042807Y2525661D01*
X8063471D01*
X8053041Y2553673D01*
D02*
G37*
G36*
X7867196Y2558527D02*
X7850861D01*
Y2539306D01*
X7864769D01*
X7865752Y2539372D01*
X7866802D01*
X7867983Y2539437D01*
X7870279Y2539503D01*
X7871460Y2539634D01*
X7872509Y2539700D01*
X7873559Y2539831D01*
X7874412Y2539896D01*
X7875199Y2540093D01*
X7875789Y2540224D01*
X7875921Y2540290D01*
X7876248Y2540421D01*
X7876773Y2540618D01*
X7877364Y2540946D01*
X7878085Y2541405D01*
X7878807Y2541930D01*
X7879463Y2542586D01*
X7880119Y2543373D01*
X7880185Y2543505D01*
X7880381Y2543767D01*
X7880644Y2544292D01*
X7880906Y2544948D01*
X7881168Y2545800D01*
X7881431Y2546785D01*
X7881628Y2547834D01*
X7881693Y2549081D01*
Y2549146D01*
Y2549277D01*
Y2549474D01*
Y2549736D01*
X7881562Y2550392D01*
X7881431Y2551311D01*
X7881168Y2552229D01*
X7880841Y2553279D01*
X7880316Y2554329D01*
X7879594Y2555247D01*
X7879529Y2555378D01*
X7879200Y2555640D01*
X7878741Y2556034D01*
X7878151Y2556493D01*
X7877298Y2557018D01*
X7876314Y2557543D01*
X7875199Y2557936D01*
X7873887Y2558265D01*
X7873690D01*
X7873428Y2558330D01*
X7872837D01*
X7872378Y2558396D01*
X7871132D01*
X7870345Y2558461D01*
X7868442D01*
X7867196Y2558527D01*
D02*
G37*
G36*
X7790903D02*
X7774569D01*
Y2539306D01*
X7788476D01*
X7789460Y2539372D01*
X7790509D01*
X7791690Y2539437D01*
X7793986Y2539503D01*
X7795167Y2539634D01*
X7796217Y2539700D01*
X7797266Y2539831D01*
X7798119Y2539896D01*
X7798906Y2540093D01*
X7799497Y2540224D01*
X7799628Y2540290D01*
X7799956Y2540421D01*
X7800480Y2540618D01*
X7801071Y2540946D01*
X7801792Y2541405D01*
X7802514Y2541930D01*
X7803170Y2542586D01*
X7803826Y2543373D01*
X7803892Y2543505D01*
X7804088Y2543767D01*
X7804351Y2544292D01*
X7804613Y2544948D01*
X7804876Y2545800D01*
X7805138Y2546785D01*
X7805335Y2547834D01*
X7805400Y2549081D01*
Y2549146D01*
Y2549277D01*
Y2549474D01*
Y2549736D01*
X7805269Y2550392D01*
X7805138Y2551311D01*
X7804876Y2552229D01*
X7804548Y2553279D01*
X7804023Y2554329D01*
X7803301Y2555247D01*
X7803236Y2555378D01*
X7802908Y2555640D01*
X7802449Y2556034D01*
X7801858Y2556493D01*
X7801005Y2557018D01*
X7800021Y2557543D01*
X7798906Y2557936D01*
X7797594Y2558265D01*
X7797397D01*
X7797135Y2558330D01*
X7796544D01*
X7796085Y2558396D01*
X7794839D01*
X7794052Y2558461D01*
X7792149D01*
X7790903Y2558527D01*
D02*
G37*
G36*
X8227274Y2559577D02*
X8226880D01*
X8226356Y2559511D01*
X8225700Y2559445D01*
X8224913Y2559380D01*
X8223994Y2559249D01*
X8222944Y2559052D01*
X8221829Y2558789D01*
X8220648Y2558396D01*
X8219402Y2558002D01*
X8218156Y2557477D01*
X8216844Y2556821D01*
X8215597Y2556100D01*
X8214351Y2555247D01*
X8213170Y2554197D01*
X8212055Y2553082D01*
X8211989Y2553017D01*
X8211792Y2552754D01*
X8211530Y2552426D01*
X8211137Y2551836D01*
X8210743Y2551180D01*
X8210218Y2550327D01*
X8209693Y2549343D01*
X8209168Y2548228D01*
X8208644Y2546916D01*
X8208119Y2545473D01*
X8207594Y2543833D01*
X8207201Y2542127D01*
X8206807Y2540159D01*
X8206544Y2538125D01*
X8206348Y2535895D01*
X8206282Y2533533D01*
Y2533468D01*
Y2533402D01*
Y2533205D01*
Y2532943D01*
X8206348Y2532287D01*
Y2531434D01*
X8206479Y2530319D01*
X8206610Y2529138D01*
X8206807Y2527761D01*
X8207004Y2526252D01*
X8207332Y2524743D01*
X8207725Y2523103D01*
X8208184Y2521529D01*
X8208775Y2519889D01*
X8209431Y2518314D01*
X8210218Y2516805D01*
X8211137Y2515362D01*
X8212186Y2514050D01*
X8212252Y2513985D01*
X8212449Y2513788D01*
X8212776Y2513460D01*
X8213236Y2513001D01*
X8213826Y2512541D01*
X8214548Y2511951D01*
X8215335Y2511361D01*
X8216319Y2510770D01*
X8217303Y2510114D01*
X8218484Y2509524D01*
X8219730Y2508933D01*
X8221042Y2508474D01*
X8222485Y2508015D01*
X8223994Y2507687D01*
X8225568Y2507490D01*
X8227274Y2507425D01*
X8227668D01*
X8228127Y2507490D01*
X8228783Y2507556D01*
X8229570Y2507621D01*
X8230488Y2507753D01*
X8231472Y2507949D01*
X8232588Y2508277D01*
X8233703Y2508605D01*
X8234949Y2508999D01*
X8236196Y2509589D01*
X8237442Y2510180D01*
X8238689Y2510967D01*
X8239935Y2511820D01*
X8241116Y2512804D01*
X8242231Y2513985D01*
X8242297Y2514050D01*
X8242493Y2514313D01*
X8242756Y2514706D01*
X8243149Y2515231D01*
X8243609Y2515887D01*
X8244133Y2516740D01*
X8244658Y2517789D01*
X8245183Y2518905D01*
X8245708Y2520217D01*
X8246298Y2521660D01*
X8246757Y2523300D01*
X8247217Y2525071D01*
X8247610Y2527039D01*
X8247872Y2529073D01*
X8248069Y2531369D01*
X8248135Y2533730D01*
Y2533796D01*
Y2533861D01*
Y2534058D01*
Y2534321D01*
X8248069Y2534977D01*
Y2535895D01*
X8247938Y2536945D01*
X8247807Y2538191D01*
X8247676Y2539569D01*
X8247413Y2541012D01*
X8247151Y2542586D01*
X8246757Y2544161D01*
X8246298Y2545801D01*
X8245708Y2547375D01*
X8245052Y2548949D01*
X8244330Y2550458D01*
X8243412Y2551901D01*
X8242428Y2553148D01*
X8242362Y2553213D01*
X8242165Y2553410D01*
X8241837Y2553738D01*
X8241378Y2554132D01*
X8240788Y2554657D01*
X8240132Y2555181D01*
X8239344Y2555772D01*
X8238426Y2556362D01*
X8237377Y2556953D01*
X8236196Y2557543D01*
X8234949Y2558068D01*
X8233637Y2558593D01*
X8232194Y2558986D01*
X8230620Y2559314D01*
X8228980Y2559511D01*
X8227274Y2559577D01*
D02*
G37*
%LPD*%
D41*
X10236206Y5866142D02*
D03*
X10196835D02*
D03*
X10157466D02*
D03*
X9881876D02*
D03*
X9921246D02*
D03*
X9960615D02*
D03*
X9999986D02*
D03*
X10039355D02*
D03*
X9842505D02*
D03*
X9803136D02*
D03*
X9763765D02*
D03*
X9724396D02*
D03*
X9685025D02*
D03*
X10118095D02*
D03*
X10078726D02*
D03*
X10236206Y39370D02*
D03*
X10196836D02*
D03*
X10157466D02*
D03*
X9881876D02*
D03*
X9921246D02*
D03*
X9960616D02*
D03*
X9999986D02*
D03*
X10039356D02*
D03*
X9842506D02*
D03*
X9803136D02*
D03*
X9763766D02*
D03*
X9724396D02*
D03*
X9685026D02*
D03*
X10118096D02*
D03*
X10078726D02*
D03*
X39370Y5354322D02*
D03*
Y5314952D02*
D03*
Y5275582D02*
D03*
Y5708651D02*
D03*
Y5669282D02*
D03*
Y5629912D02*
D03*
Y5590542D02*
D03*
Y5393691D02*
D03*
Y5433061D02*
D03*
Y5472431D02*
D03*
Y5511801D02*
D03*
Y5551172D02*
D03*
Y5236212D02*
D03*
Y4999992D02*
D03*
Y4960622D02*
D03*
Y4921252D02*
D03*
Y4881882D02*
D03*
Y4842511D02*
D03*
Y5039361D02*
D03*
Y5078731D02*
D03*
Y5118101D02*
D03*
Y5157471D02*
D03*
Y5196842D02*
D03*
Y4724401D02*
D03*
Y4763771D02*
D03*
Y4803141D02*
D03*
Y3858262D02*
D03*
Y3818892D02*
D03*
Y3779521D02*
D03*
Y4251962D02*
D03*
Y4212592D02*
D03*
Y4173221D02*
D03*
Y4133851D02*
D03*
Y4094481D02*
D03*
Y3897631D02*
D03*
Y3937001D02*
D03*
Y3976372D02*
D03*
Y4015742D02*
D03*
Y4055111D02*
D03*
Y4448811D02*
D03*
Y4409441D02*
D03*
Y4370072D02*
D03*
Y4330702D02*
D03*
Y4291332D02*
D03*
Y4488181D02*
D03*
Y4527551D02*
D03*
Y4566922D02*
D03*
Y4606292D02*
D03*
Y4685032D02*
D03*
Y4645662D02*
D03*
X10393701Y5354326D02*
D03*
Y5314956D02*
D03*
Y5275586D02*
D03*
Y5708656D02*
D03*
Y5669286D02*
D03*
Y5629916D02*
D03*
Y5590546D02*
D03*
Y5393696D02*
D03*
Y5433066D02*
D03*
Y5472436D02*
D03*
Y5511806D02*
D03*
Y5551176D02*
D03*
Y5236216D02*
D03*
Y4999996D02*
D03*
Y4960626D02*
D03*
Y4921256D02*
D03*
Y4881886D02*
D03*
Y4842516D02*
D03*
Y5039366D02*
D03*
Y5078736D02*
D03*
Y5118106D02*
D03*
Y5157476D02*
D03*
Y5196846D02*
D03*
Y4724406D02*
D03*
Y4763776D02*
D03*
Y4803146D02*
D03*
Y3858266D02*
D03*
Y3818896D02*
D03*
Y3779526D02*
D03*
Y4251966D02*
D03*
Y4212596D02*
D03*
Y4173226D02*
D03*
Y4133856D02*
D03*
Y4094486D02*
D03*
Y3897636D02*
D03*
Y3937006D02*
D03*
Y3976376D02*
D03*
Y4015746D02*
D03*
Y4055116D02*
D03*
Y4448816D02*
D03*
Y4409446D02*
D03*
Y4370076D02*
D03*
Y4330706D02*
D03*
Y4291336D02*
D03*
Y4488186D02*
D03*
Y4527556D02*
D03*
Y4566926D02*
D03*
Y4606296D02*
D03*
Y4685036D02*
D03*
Y4645666D02*
D03*
X9606286Y39370D02*
D03*
X9645656D02*
D03*
X9212586D02*
D03*
X9251956D02*
D03*
X9291326D02*
D03*
X9330696D02*
D03*
X9370066D02*
D03*
X9566916D02*
D03*
X9527546D02*
D03*
X9488176D02*
D03*
X9448806D02*
D03*
X9409436D02*
D03*
X8818886D02*
D03*
X8858256D02*
D03*
X8897626D02*
D03*
X8936996D02*
D03*
X8976366D02*
D03*
X9173216D02*
D03*
X9133846D02*
D03*
X9094476D02*
D03*
X9055106D02*
D03*
X9015736D02*
D03*
X8582666D02*
D03*
X8779516D02*
D03*
X8740146D02*
D03*
X8700776D02*
D03*
X8661406D02*
D03*
X8622036D02*
D03*
X8188966D02*
D03*
X8228336D02*
D03*
X8267706D02*
D03*
X8307076D02*
D03*
X8346446D02*
D03*
X8543296D02*
D03*
X8503926D02*
D03*
X8464556D02*
D03*
X8425186D02*
D03*
X8385816D02*
D03*
X7795266D02*
D03*
X7834636D02*
D03*
X7874006D02*
D03*
X7913376D02*
D03*
X7952746D02*
D03*
X8149596D02*
D03*
X8110226D02*
D03*
X8070856D02*
D03*
X8031486D02*
D03*
X7992116D02*
D03*
X7401566D02*
D03*
X7440936D02*
D03*
X7480306D02*
D03*
X7519676D02*
D03*
X7559046D02*
D03*
X7755896D02*
D03*
X7716526D02*
D03*
X7677156D02*
D03*
X7637786D02*
D03*
X7598416D02*
D03*
X7165346D02*
D03*
X7362196D02*
D03*
X7322826D02*
D03*
X7283456D02*
D03*
X7244086D02*
D03*
X7204716D02*
D03*
X6771646D02*
D03*
X6811016D02*
D03*
X6850386D02*
D03*
X6889756D02*
D03*
X6929126D02*
D03*
X7125976D02*
D03*
X7086606D02*
D03*
X7047236D02*
D03*
X7007866D02*
D03*
X6968496D02*
D03*
X6377946D02*
D03*
X6417316D02*
D03*
X6456686D02*
D03*
X6496056D02*
D03*
X6535426D02*
D03*
X6732276D02*
D03*
X6692906D02*
D03*
X6653536D02*
D03*
X6614166D02*
D03*
X6574796D02*
D03*
X5984246D02*
D03*
X6023616D02*
D03*
X6062986D02*
D03*
X6102356D02*
D03*
X6141726D02*
D03*
X6338576D02*
D03*
X6299206D02*
D03*
X6259836D02*
D03*
X6220466D02*
D03*
X6181096D02*
D03*
X5748026D02*
D03*
X5944876D02*
D03*
X5905506D02*
D03*
X5866136D02*
D03*
X5826766D02*
D03*
X5787396D02*
D03*
X9606285Y5866142D02*
D03*
X9645656D02*
D03*
X9212585D02*
D03*
X9251956D02*
D03*
X9291326D02*
D03*
X9330695D02*
D03*
X9370066D02*
D03*
X9566915D02*
D03*
X9527546D02*
D03*
X9488175D02*
D03*
X9448806D02*
D03*
X9409435D02*
D03*
X8818886D02*
D03*
X8858255D02*
D03*
X8897626D02*
D03*
X8936996D02*
D03*
X8976365D02*
D03*
X9173216D02*
D03*
X9133845D02*
D03*
X9094476D02*
D03*
X9055105D02*
D03*
X9015736D02*
D03*
X8582665D02*
D03*
X8779515D02*
D03*
X8740146D02*
D03*
X8700775D02*
D03*
X8661406D02*
D03*
X8622035D02*
D03*
X8188966D02*
D03*
X8228335D02*
D03*
X8267706D02*
D03*
X8307076D02*
D03*
X8346445D02*
D03*
X8543296D02*
D03*
X8503925D02*
D03*
X8464556D02*
D03*
X8425185D02*
D03*
X8385816D02*
D03*
X7795266D02*
D03*
X7834636D02*
D03*
X7874006D02*
D03*
X7913376D02*
D03*
X7952745D02*
D03*
X8149596D02*
D03*
X8110225D02*
D03*
X8070855D02*
D03*
X8031485D02*
D03*
X7992115D02*
D03*
X7401565D02*
D03*
X7440935D02*
D03*
X7480306D02*
D03*
X7519676D02*
D03*
X7559046D02*
D03*
X7755895D02*
D03*
X7716525D02*
D03*
X7677155D02*
D03*
X7637785D02*
D03*
X7598416D02*
D03*
X7165346D02*
D03*
X7362195D02*
D03*
X7322825D02*
D03*
X7283456D02*
D03*
X7244086D02*
D03*
X7204716D02*
D03*
X6771645D02*
D03*
X6811016D02*
D03*
X6850386D02*
D03*
X6889756D02*
D03*
X6929126D02*
D03*
X7125975D02*
D03*
X7086605D02*
D03*
X7047235D02*
D03*
X7007865D02*
D03*
X6968495D02*
D03*
X6377945D02*
D03*
X6417315D02*
D03*
X6456685D02*
D03*
X6496056D02*
D03*
X6535426D02*
D03*
X6732275D02*
D03*
X6692905D02*
D03*
X6653535D02*
D03*
X6614166D02*
D03*
X6574796D02*
D03*
X5984245D02*
D03*
X6023615D02*
D03*
X6062985D02*
D03*
X6102355D02*
D03*
X6141725D02*
D03*
X6338575D02*
D03*
X6299206D02*
D03*
X6259836D02*
D03*
X6220466D02*
D03*
X6181096D02*
D03*
X5748025D02*
D03*
X5944876D02*
D03*
X5905506D02*
D03*
X5866136D02*
D03*
X5826766D02*
D03*
X5787395D02*
D03*
X39370Y196851D02*
D03*
Y433072D02*
D03*
Y472442D02*
D03*
Y511812D02*
D03*
Y551182D02*
D03*
Y590552D02*
D03*
Y393702D02*
D03*
Y354332D02*
D03*
Y314962D02*
D03*
Y275591D02*
D03*
Y236221D02*
D03*
Y708662D02*
D03*
Y669292D02*
D03*
Y629922D02*
D03*
Y3543302D02*
D03*
Y3582671D02*
D03*
Y3622041D02*
D03*
Y3661412D02*
D03*
Y3700782D02*
D03*
Y3740151D02*
D03*
Y3149602D02*
D03*
Y3188972D02*
D03*
Y3228341D02*
D03*
Y3267711D02*
D03*
Y3307081D02*
D03*
Y3503932D02*
D03*
Y3464561D02*
D03*
Y3425191D02*
D03*
Y3385822D02*
D03*
Y3346452D02*
D03*
Y2755901D02*
D03*
Y2795271D02*
D03*
Y2834642D02*
D03*
Y2874012D02*
D03*
Y2913381D02*
D03*
Y3110231D02*
D03*
Y3070861D02*
D03*
Y3031492D02*
D03*
Y2992122D02*
D03*
Y2952751D02*
D03*
Y2362202D02*
D03*
Y2401572D02*
D03*
Y2440941D02*
D03*
Y2480311D02*
D03*
Y2519682D02*
D03*
Y2716532D02*
D03*
Y2677162D02*
D03*
Y2637791D02*
D03*
Y2598421D02*
D03*
Y2559052D02*
D03*
Y1968502D02*
D03*
Y2007871D02*
D03*
Y2047242D02*
D03*
Y2086611D02*
D03*
Y2125981D02*
D03*
Y2322831D02*
D03*
Y2283461D02*
D03*
Y2244091D02*
D03*
Y2204722D02*
D03*
Y2165352D02*
D03*
Y1574802D02*
D03*
Y1614171D02*
D03*
Y1653542D02*
D03*
Y1692911D02*
D03*
Y1732282D02*
D03*
Y1929131D02*
D03*
Y1889762D02*
D03*
Y1850391D02*
D03*
Y1811022D02*
D03*
Y1771651D02*
D03*
Y1181101D02*
D03*
Y1220472D02*
D03*
Y1259841D02*
D03*
Y1299211D02*
D03*
Y1338582D02*
D03*
Y1535431D02*
D03*
Y1496062D02*
D03*
Y1456691D02*
D03*
Y1417322D02*
D03*
Y1377951D02*
D03*
Y984251D02*
D03*
Y1023621D02*
D03*
Y1062992D02*
D03*
Y1102361D02*
D03*
Y1141732D02*
D03*
Y944881D02*
D03*
Y905511D02*
D03*
Y866141D02*
D03*
Y826771D02*
D03*
Y748032D02*
D03*
Y787402D02*
D03*
X10393701Y3149606D02*
D03*
Y3188976D02*
D03*
Y3110236D02*
D03*
Y3070866D02*
D03*
Y3031496D02*
D03*
Y2992126D02*
D03*
Y2795276D02*
D03*
Y2834646D02*
D03*
Y2874016D02*
D03*
Y2913386D02*
D03*
Y2952756D02*
D03*
Y2559056D02*
D03*
Y2519686D02*
D03*
Y2480316D02*
D03*
Y2440946D02*
D03*
Y2401576D02*
D03*
Y2598426D02*
D03*
Y2637796D02*
D03*
Y2677166D02*
D03*
Y2716536D02*
D03*
Y2755906D02*
D03*
Y2165356D02*
D03*
Y2125986D02*
D03*
Y2086616D02*
D03*
Y2047246D02*
D03*
Y2007876D02*
D03*
Y2204726D02*
D03*
Y2244096D02*
D03*
Y2283466D02*
D03*
Y2322836D02*
D03*
Y2362206D02*
D03*
Y1771656D02*
D03*
Y1732286D02*
D03*
Y1692916D02*
D03*
Y1653546D02*
D03*
Y1614176D02*
D03*
Y1811026D02*
D03*
Y1850396D02*
D03*
Y1889766D02*
D03*
Y1929136D02*
D03*
Y1968506D02*
D03*
Y1377956D02*
D03*
Y1338586D02*
D03*
Y1299216D02*
D03*
Y1259846D02*
D03*
Y1220476D02*
D03*
Y1417326D02*
D03*
Y1456696D02*
D03*
Y1496066D02*
D03*
Y1535436D02*
D03*
Y1574806D02*
D03*
Y984256D02*
D03*
Y944886D02*
D03*
Y905516D02*
D03*
Y866146D02*
D03*
Y826776D02*
D03*
Y1023626D02*
D03*
Y1062996D02*
D03*
Y1102366D02*
D03*
Y1141736D02*
D03*
Y1181106D02*
D03*
Y590556D02*
D03*
Y551186D02*
D03*
Y511816D02*
D03*
Y472446D02*
D03*
Y433076D02*
D03*
Y629926D02*
D03*
Y669296D02*
D03*
Y708666D02*
D03*
Y748036D02*
D03*
Y787406D02*
D03*
Y196856D02*
D03*
Y236226D02*
D03*
Y275596D02*
D03*
Y314966D02*
D03*
Y354336D02*
D03*
Y393706D02*
D03*
Y3307086D02*
D03*
Y3267716D02*
D03*
Y3228346D02*
D03*
Y3700786D02*
D03*
Y3661416D02*
D03*
Y3622046D02*
D03*
Y3582676D02*
D03*
Y3543306D02*
D03*
Y3346456D02*
D03*
Y3385826D02*
D03*
Y3425196D02*
D03*
Y3464566D02*
D03*
Y3503936D02*
D03*
Y3740156D02*
D03*
X2755905Y5866142D02*
D03*
X2716535D02*
D03*
X2795276D02*
D03*
X2834646D02*
D03*
X2874015D02*
D03*
X2913385D02*
D03*
X3110235D02*
D03*
X3070865D02*
D03*
X3031495D02*
D03*
X2992126D02*
D03*
X2952756D02*
D03*
X3346456D02*
D03*
X3385825D02*
D03*
X3425195D02*
D03*
X3464566D02*
D03*
X3503936D02*
D03*
X3307086D02*
D03*
X3267715D02*
D03*
X3228345D02*
D03*
X3188976D02*
D03*
X3149606D02*
D03*
X3740155D02*
D03*
X3779526D02*
D03*
X3818896D02*
D03*
X3858265D02*
D03*
X3897635D02*
D03*
X3700785D02*
D03*
X3661416D02*
D03*
X3622046D02*
D03*
X3582675D02*
D03*
X3543305D02*
D03*
X4133855D02*
D03*
X4173225D02*
D03*
X4212596D02*
D03*
X4251966D02*
D03*
X4291336D02*
D03*
X4094485D02*
D03*
X4055115D02*
D03*
X4015745D02*
D03*
X3976376D02*
D03*
X3937006D02*
D03*
X4527556D02*
D03*
X4566926D02*
D03*
X4606296D02*
D03*
X4645666D02*
D03*
X4685035D02*
D03*
X4488185D02*
D03*
X4448815D02*
D03*
X4409445D02*
D03*
X4370075D02*
D03*
X4330706D02*
D03*
X4921256D02*
D03*
X4960626D02*
D03*
X4999995D02*
D03*
X5039365D02*
D03*
X5078735D02*
D03*
X4881886D02*
D03*
X4842516D02*
D03*
X4803145D02*
D03*
X4763775D02*
D03*
X4724405D02*
D03*
X5314956D02*
D03*
X5354325D02*
D03*
X5393695D02*
D03*
X5433065D02*
D03*
X5472435D02*
D03*
X5275586D02*
D03*
X5236216D02*
D03*
X5196846D02*
D03*
X5157475D02*
D03*
X5118105D02*
D03*
X5708655D02*
D03*
X5669285D02*
D03*
X5629916D02*
D03*
X5590546D02*
D03*
X5551176D02*
D03*
X5511806D02*
D03*
X2598425D02*
D03*
X2637796D02*
D03*
X2677166D02*
D03*
X2204726D02*
D03*
X2244095D02*
D03*
X2283465D02*
D03*
X2322836D02*
D03*
X2362206D02*
D03*
X2559055D02*
D03*
X2519686D02*
D03*
X2480316D02*
D03*
X2440945D02*
D03*
X2401575D02*
D03*
X2007876D02*
D03*
X2047245D02*
D03*
X2086615D02*
D03*
X2125985D02*
D03*
X2165356D02*
D03*
X1968505D02*
D03*
X1929136D02*
D03*
X1889765D02*
D03*
X1850396D02*
D03*
X1771656D02*
D03*
X1811025D02*
D03*
X1653545D02*
D03*
X1692916D02*
D03*
X1732285D02*
D03*
X1259845D02*
D03*
X1299216D02*
D03*
X1338585D02*
D03*
X1377956D02*
D03*
X1417325D02*
D03*
X1614176D02*
D03*
X1574805D02*
D03*
X1535436D02*
D03*
X1496065D02*
D03*
X1456696D02*
D03*
X1062995D02*
D03*
X1102366D02*
D03*
X1141736D02*
D03*
X1181105D02*
D03*
X1220476D02*
D03*
X1023625D02*
D03*
X984255D02*
D03*
X944885D02*
D03*
X905515D02*
D03*
X826775D02*
D03*
X866145D02*
D03*
X708665D02*
D03*
X748035D02*
D03*
X787405D02*
D03*
X314966D02*
D03*
X354336D02*
D03*
X393705D02*
D03*
X433075D02*
D03*
X472445D02*
D03*
X669295D02*
D03*
X629926D02*
D03*
X590556D02*
D03*
X551186D02*
D03*
X511815D02*
D03*
X196856D02*
D03*
X236226D02*
D03*
X275596D02*
D03*
X5629916Y39370D02*
D03*
X5669286D02*
D03*
X5708656D02*
D03*
X5393696D02*
D03*
X5354326D02*
D03*
X5314956D02*
D03*
X5275586D02*
D03*
X5236216D02*
D03*
X5433066D02*
D03*
X5472436D02*
D03*
X5511806D02*
D03*
X5551176D02*
D03*
X5590546D02*
D03*
X5118106D02*
D03*
X5157476D02*
D03*
X5196846D02*
D03*
X5039366D02*
D03*
X5078736D02*
D03*
X4999996D02*
D03*
X4960626D02*
D03*
X4921256D02*
D03*
X4881886D02*
D03*
X4685036D02*
D03*
X4724406D02*
D03*
X4763776D02*
D03*
X4803146D02*
D03*
X4842516D02*
D03*
X4448816D02*
D03*
X4409446D02*
D03*
X4370076D02*
D03*
X4330706D02*
D03*
X4291336D02*
D03*
X4488186D02*
D03*
X4527556D02*
D03*
X4566926D02*
D03*
X4606296D02*
D03*
X4645666D02*
D03*
X4173226D02*
D03*
X4212596D02*
D03*
X4251966D02*
D03*
X4094486D02*
D03*
X4133856D02*
D03*
X4055116D02*
D03*
X4015746D02*
D03*
X3976376D02*
D03*
X3937006D02*
D03*
X3740156D02*
D03*
X3779526D02*
D03*
X3818896D02*
D03*
X3858266D02*
D03*
X3897636D02*
D03*
X3503936D02*
D03*
X3464566D02*
D03*
X3425196D02*
D03*
X3385826D02*
D03*
X3346456D02*
D03*
X3543306D02*
D03*
X3582676D02*
D03*
X3622046D02*
D03*
X3661416D02*
D03*
X3700786D02*
D03*
X3228346D02*
D03*
X3267716D02*
D03*
X3307086D02*
D03*
X393706D02*
D03*
X354336D02*
D03*
X314966D02*
D03*
X275596D02*
D03*
X236226D02*
D03*
X196856D02*
D03*
X787406D02*
D03*
X748036D02*
D03*
X708666D02*
D03*
X669296D02*
D03*
X629926D02*
D03*
X433076D02*
D03*
X472446D02*
D03*
X511816D02*
D03*
X551186D02*
D03*
X590556D02*
D03*
X1181106D02*
D03*
X1141736D02*
D03*
X1102366D02*
D03*
X1062996D02*
D03*
X1023626D02*
D03*
X826776D02*
D03*
X866146D02*
D03*
X905516D02*
D03*
X944886D02*
D03*
X984256D02*
D03*
X1574806D02*
D03*
X1535436D02*
D03*
X1496066D02*
D03*
X1456696D02*
D03*
X1417326D02*
D03*
X1220476D02*
D03*
X1259846D02*
D03*
X1299216D02*
D03*
X1338586D02*
D03*
X1377956D02*
D03*
X1968506D02*
D03*
X1929136D02*
D03*
X1889766D02*
D03*
X1850396D02*
D03*
X1811026D02*
D03*
X1614176D02*
D03*
X1653546D02*
D03*
X1692916D02*
D03*
X1732286D02*
D03*
X1771656D02*
D03*
X2362206D02*
D03*
X2322836D02*
D03*
X2283466D02*
D03*
X2244096D02*
D03*
X2204726D02*
D03*
X2007876D02*
D03*
X2047246D02*
D03*
X2086616D02*
D03*
X2125986D02*
D03*
X2165356D02*
D03*
X2755906D02*
D03*
X2716536D02*
D03*
X2677166D02*
D03*
X2637796D02*
D03*
X2598426D02*
D03*
X2401576D02*
D03*
X2440946D02*
D03*
X2480316D02*
D03*
X2519686D02*
D03*
X2559056D02*
D03*
X2952756D02*
D03*
X2913386D02*
D03*
X2874016D02*
D03*
X2834646D02*
D03*
X2795276D02*
D03*
X2992126D02*
D03*
X3031496D02*
D03*
X3070866D02*
D03*
X3110236D02*
D03*
X3188976D02*
D03*
X3149606D02*
D03*
D45*
X10393701Y2952756D02*
D03*
X39370D02*
D03*
D46*
X5216536Y5866142D02*
D03*
X5216535Y39370D02*
D03*
D47*
X10125984Y2657480D02*
D03*
Y3248032D02*
D03*
Y3838583D02*
D03*
Y4429134D02*
D03*
D48*
X10039370Y2767716D02*
D03*
Y2547244D02*
D03*
Y3358268D02*
D03*
Y3137795D02*
D03*
Y3948819D02*
D03*
Y3728347D02*
D03*
Y4539370D02*
D03*
Y4318898D02*
D03*
D49*
X6982283Y5196850D02*
D03*
X6116142D02*
D03*
X5231890D02*
D03*
X10053150D02*
D03*
X8468898D02*
D03*
X7366535D02*
D03*
X2799606Y1653543D02*
D03*
X4846850D02*
D03*
X6894095D02*
D03*
X8941339D02*
D03*
X752362D02*
D03*
X1697244Y5196850D02*
D03*
D50*
X6882283D02*
D03*
X6782283D02*
D03*
X6682283D02*
D03*
X6582283D02*
D03*
X6482283D02*
D03*
X6016142D02*
D03*
X5916142D02*
D03*
X5816142D02*
D03*
X5716142D02*
D03*
X5616142D02*
D03*
X5131890D02*
D03*
X5031890D02*
D03*
X4931890D02*
D03*
X4831890D02*
D03*
X4731890D02*
D03*
X4631890D02*
D03*
X4531890D02*
D03*
X9953150D02*
D03*
X9853150D02*
D03*
X9753150D02*
D03*
X9653150D02*
D03*
X9553150D02*
D03*
X8568898D02*
D03*
X8668898D02*
D03*
X8768898D02*
D03*
X8868898D02*
D03*
X8968898D02*
D03*
X9068898D02*
D03*
X9168898D02*
D03*
X7466535D02*
D03*
X7566535D02*
D03*
X7666535D02*
D03*
X7766535D02*
D03*
X7866535D02*
D03*
X7966535D02*
D03*
X8066535D02*
D03*
X2899606Y1653543D02*
D03*
X2999606D02*
D03*
X3099606D02*
D03*
X3199606D02*
D03*
X3299606D02*
D03*
X3399606D02*
D03*
X3499606D02*
D03*
X4946850D02*
D03*
X5046850D02*
D03*
X5146850D02*
D03*
X5246850D02*
D03*
X5346850D02*
D03*
X5446850D02*
D03*
X5546850D02*
D03*
X6994095D02*
D03*
X7094095D02*
D03*
X7194095D02*
D03*
X7294095D02*
D03*
X7394095D02*
D03*
X7494095D02*
D03*
X7594095D02*
D03*
X9041339D02*
D03*
X9141339D02*
D03*
X9241339D02*
D03*
X9341339D02*
D03*
X9441339D02*
D03*
X9541339D02*
D03*
X9641339D02*
D03*
X852362D02*
D03*
X952362D02*
D03*
X1052362D02*
D03*
X1152362D02*
D03*
X1252362D02*
D03*
X1352362D02*
D03*
X1452362D02*
D03*
X1797244Y5196850D02*
D03*
X1897244D02*
D03*
X1997244D02*
D03*
X2097244D02*
D03*
X2197244D02*
D03*
X2297244D02*
D03*
X2397244D02*
D03*
D51*
X590551Y5157480D02*
D03*
D52*
X452756Y5354331D02*
D03*
D53*
X10314961Y118110D02*
D03*
Y5787402D02*
D03*
X118110D02*
D03*
Y118110D02*
D03*
X3540122Y2755905D02*
D03*
Y4330709D02*
D03*
X6689728Y2755905D02*
D03*
Y4330709D02*
D03*
D61*
X6343032Y4268312D02*
D03*
X6216022D02*
D03*
X6343032Y4218312D02*
D03*
X6216022D02*
D03*
X6343032Y4168312D02*
D03*
X6216022D02*
D03*
X6343032Y4118312D02*
D03*
X6216022D02*
D03*
X6343032Y4068312D02*
D03*
X6216022D02*
D03*
X6343032Y4018312D02*
D03*
X6216022D02*
D03*
X6343032Y3968312D02*
D03*
X6216022D02*
D03*
X6343032Y3918312D02*
D03*
X6216022D02*
D03*
X6343032Y3868312D02*
D03*
X6216022D02*
D03*
X6343032Y3818312D02*
D03*
X6216022D02*
D03*
X6343032Y3768312D02*
D03*
X6216022D02*
D03*
X6343032Y3718312D02*
D03*
X6216022D02*
D03*
X6343032Y3668312D02*
D03*
X6216022D02*
D03*
X6343032Y3618312D02*
D03*
X6216022D02*
D03*
X6343032Y3568312D02*
D03*
X6216022D02*
D03*
X6343032Y3518302D02*
D03*
X6216022D02*
D03*
X6343032Y3468302D02*
D03*
X6216022D02*
D03*
X6343032Y3418302D02*
D03*
X6216022D02*
D03*
X6343032Y3368302D02*
D03*
X6216022D02*
D03*
X6343032Y3318302D02*
D03*
X6216022D02*
D03*
X6343032Y3268302D02*
D03*
X6216022D02*
D03*
X6343032Y3218302D02*
D03*
X6216022D02*
D03*
X6343032Y3168302D02*
D03*
X6216022D02*
D03*
X6343032Y3118302D02*
D03*
X6216022D02*
D03*
X6343032Y3068302D02*
D03*
X6216022D02*
D03*
X6343032Y3018302D02*
D03*
X6216022D02*
D03*
X6343032Y2968302D02*
D03*
X6216022D02*
D03*
X6343032Y2918302D02*
D03*
X6216022D02*
D03*
X6343032Y2868302D02*
D03*
X6216022D02*
D03*
X6343032Y2818302D02*
D03*
X6216022D02*
D03*
X3980826Y4268312D02*
D03*
X3853816D02*
D03*
X3980826Y4218312D02*
D03*
X3853816D02*
D03*
X3980826Y4168312D02*
D03*
X3853816D02*
D03*
X3980826Y4118312D02*
D03*
X3853816D02*
D03*
X3980826Y4068312D02*
D03*
X3853816D02*
D03*
X3980826Y4018312D02*
D03*
X3853816D02*
D03*
X3980826Y3968312D02*
D03*
X3853816D02*
D03*
X3980826Y3918312D02*
D03*
X3853816D02*
D03*
X3980826Y3868312D02*
D03*
X3853816D02*
D03*
X3980826Y3818312D02*
D03*
X3853816D02*
D03*
X3980826Y3768312D02*
D03*
X3853816D02*
D03*
X3980826Y3718312D02*
D03*
X3853816D02*
D03*
X3980826Y3668312D02*
D03*
X3853816D02*
D03*
X3980826Y3618312D02*
D03*
X3853816D02*
D03*
X3980826Y3568312D02*
D03*
X3853816D02*
D03*
X3980826Y3518302D02*
D03*
X3853816D02*
D03*
X3980826Y3468302D02*
D03*
X3853816D02*
D03*
X3980826Y3418302D02*
D03*
X3853816D02*
D03*
X3980826Y3368302D02*
D03*
X3853816D02*
D03*
X3980826Y3318302D02*
D03*
X3853816D02*
D03*
X3980826Y3268302D02*
D03*
X3853816D02*
D03*
X3980826Y3218302D02*
D03*
X3853816D02*
D03*
X3980826Y3168302D02*
D03*
X3853816D02*
D03*
X3980826Y3118302D02*
D03*
X3853816D02*
D03*
X3980826Y3068302D02*
D03*
X3853816D02*
D03*
X3980826Y3018302D02*
D03*
X3853816D02*
D03*
X3980826Y2968302D02*
D03*
X3853816D02*
D03*
X3980826Y2918302D02*
D03*
X3853816D02*
D03*
X3980826Y2868302D02*
D03*
X3853816D02*
D03*
X3980826Y2818302D02*
D03*
X3853816D02*
D03*
D62*
X5256302Y228346D02*
D03*
X5222444D02*
D03*
X5492523D02*
D03*
X5458665D02*
D03*
X5728743D02*
D03*
X5694885D02*
D03*
X5964964D02*
D03*
X5931105D02*
D03*
X6358664D02*
D03*
X6324806D02*
D03*
X6594885D02*
D03*
X6561027D02*
D03*
X6831105D02*
D03*
X6797247D02*
D03*
X7067326D02*
D03*
X7033468D02*
D03*
X7303546D02*
D03*
X7269688D02*
D03*
X7539767D02*
D03*
X7505909D02*
D03*
X7775987D02*
D03*
X7742129D02*
D03*
X8012208D02*
D03*
X7978350D02*
D03*
X10059452D02*
D03*
X10025594D02*
D03*
X9823231D02*
D03*
X9789373D02*
D03*
X9587011D02*
D03*
X9553153D02*
D03*
X9350790D02*
D03*
X9316932D02*
D03*
X9114570D02*
D03*
X9080712D02*
D03*
X8878350D02*
D03*
X8844491D02*
D03*
X8642129D02*
D03*
X8608271D02*
D03*
X8405909D02*
D03*
X8372050D02*
D03*
X1098425Y3267716D02*
D03*
X1132283D02*
D03*
X1098425Y3307087D02*
D03*
X1132283D02*
D03*
X9055512Y3661417D02*
D03*
X9021654D02*
D03*
X9055512Y4251968D02*
D03*
X9021654D02*
D03*
X9904331Y2598425D02*
D03*
X9938189D02*
D03*
Y2637795D02*
D03*
X9904331D02*
D03*
Y2677165D02*
D03*
X9938189D02*
D03*
X9904331Y2716535D02*
D03*
X9938189D02*
D03*
X9904331Y3188976D02*
D03*
X9938189D02*
D03*
Y3228347D02*
D03*
X9904331D02*
D03*
Y3267716D02*
D03*
X9938189D02*
D03*
X9904331Y3307087D02*
D03*
X9938189D02*
D03*
X9904331Y3779528D02*
D03*
X9938189D02*
D03*
Y3818898D02*
D03*
X9904331D02*
D03*
Y3858268D02*
D03*
X9938189D02*
D03*
X9904331Y3897638D02*
D03*
X9938189D02*
D03*
X9741929Y3700787D02*
D03*
X9708071D02*
D03*
X9741929Y3110236D02*
D03*
X9708071D02*
D03*
X9741929Y2519685D02*
D03*
X9708071D02*
D03*
X9741929Y2795276D02*
D03*
X9708071D02*
D03*
X9741929Y3385827D02*
D03*
X9708071D02*
D03*
X9741929Y3976378D02*
D03*
X9708071D02*
D03*
X9673898D02*
D03*
X9640039D02*
D03*
X9673898Y3385827D02*
D03*
X9640039D02*
D03*
X9673898Y2795276D02*
D03*
X9640039D02*
D03*
X9741929Y4291339D02*
D03*
X9708071D02*
D03*
X9741929Y4566929D02*
D03*
X9708071D02*
D03*
X9673898D02*
D03*
X9640039D02*
D03*
X9904331Y4370079D02*
D03*
X9938189D02*
D03*
Y4409449D02*
D03*
X9904331D02*
D03*
Y4448819D02*
D03*
X9938189D02*
D03*
X9904331Y4488189D02*
D03*
X9938189D02*
D03*
X7749606Y5103028D02*
D03*
X7783465D02*
D03*
X7849606D02*
D03*
X7883465D02*
D03*
X7949606D02*
D03*
X7983465D02*
D03*
X1680315Y5381929D02*
D03*
X1714173D02*
D03*
X1680315Y5281929D02*
D03*
X1714173D02*
D03*
X3264173Y838740D02*
D03*
X3230315D02*
D03*
X3500394D02*
D03*
X3466535D02*
D03*
X3736614D02*
D03*
X3702756D02*
D03*
X3972835D02*
D03*
X3938976D02*
D03*
X2319291D02*
D03*
X2285433D02*
D03*
X2555512D02*
D03*
X2521654D02*
D03*
X2791732D02*
D03*
X2757874D02*
D03*
X3027953D02*
D03*
X2994095D02*
D03*
X5311417D02*
D03*
X5277559D02*
D03*
X5547638D02*
D03*
X5513780D02*
D03*
X5783858D02*
D03*
X5750000D02*
D03*
X6020079D02*
D03*
X5986221D02*
D03*
X4366535D02*
D03*
X4332677D02*
D03*
X4602756D02*
D03*
X4568898D02*
D03*
X4838976D02*
D03*
X4805118D02*
D03*
X5075197D02*
D03*
X5041339D02*
D03*
X7358661D02*
D03*
X7324803D02*
D03*
X7594882D02*
D03*
X7561024D02*
D03*
X7831102D02*
D03*
X7797244D02*
D03*
X8067323D02*
D03*
X8033465D02*
D03*
X6413779D02*
D03*
X6379921D02*
D03*
X6650000D02*
D03*
X6616142D02*
D03*
X6886220D02*
D03*
X6852362D02*
D03*
X7122441D02*
D03*
X7088583D02*
D03*
X9405906D02*
D03*
X9372047D02*
D03*
X9642126D02*
D03*
X9608268D02*
D03*
X9878346D02*
D03*
X9844488D02*
D03*
X10114567D02*
D03*
X10080709D02*
D03*
X8461024D02*
D03*
X8427165D02*
D03*
X8697244D02*
D03*
X8663386D02*
D03*
X8933465D02*
D03*
X8899606D02*
D03*
X9169685D02*
D03*
X9135827D02*
D03*
X508268D02*
D03*
X474409D02*
D03*
X744488D02*
D03*
X710630D02*
D03*
X980709D02*
D03*
X946850D02*
D03*
X1216929D02*
D03*
X1183071D02*
D03*
X1453150D02*
D03*
X1419291D02*
D03*
X1689370D02*
D03*
X1655512D02*
D03*
X1925591D02*
D03*
X1891732D02*
D03*
X272835D02*
D03*
X238976D02*
D03*
X2230318Y228346D02*
D03*
X2264176D02*
D03*
X2466539D02*
D03*
X2500397D02*
D03*
X2702759D02*
D03*
X2736617D02*
D03*
X2938979D02*
D03*
X2972838D02*
D03*
X3175200D02*
D03*
X3209058D02*
D03*
X3411421D02*
D03*
X3445279D02*
D03*
X3647641D02*
D03*
X3681499D02*
D03*
X3883861D02*
D03*
X3917720D02*
D03*
X4277562D02*
D03*
X4311420D02*
D03*
X4513783D02*
D03*
X4547641D02*
D03*
X4750003D02*
D03*
X4783861D02*
D03*
X4986224D02*
D03*
X5020082D02*
D03*
X419291D02*
D03*
X453150D02*
D03*
X655512D02*
D03*
X689370D02*
D03*
X891732D02*
D03*
X925591D02*
D03*
X1127953D02*
D03*
X1161811D02*
D03*
X1364173D02*
D03*
X1398032D02*
D03*
X1600394D02*
D03*
X1634252D02*
D03*
X1836614D02*
D03*
X1870472D02*
D03*
X183071D02*
D03*
X216929D02*
D03*
X5214961Y5381929D02*
D03*
X5248819D02*
D03*
X4914961D02*
D03*
X4948819D02*
D03*
X4814961D02*
D03*
X4848819D02*
D03*
X5214961Y5281929D02*
D03*
X5248819D02*
D03*
X4914961D02*
D03*
X4948819D02*
D03*
X4814961D02*
D03*
X4848819D02*
D03*
X5014961Y5381929D02*
D03*
X5048819D02*
D03*
X5114961D02*
D03*
X5148819D02*
D03*
X5014961Y5281929D02*
D03*
X5048819D02*
D03*
X5114961D02*
D03*
X5148819D02*
D03*
X1880315Y5381929D02*
D03*
X1914173D02*
D03*
X1780315Y5381929D02*
D03*
X1814173D02*
D03*
X686220Y5000000D02*
D03*
X652362D02*
D03*
X1880315Y5281929D02*
D03*
X1914173D02*
D03*
X1780315D02*
D03*
X1814173D02*
D03*
X2180315Y5381929D02*
D03*
X2214173D02*
D03*
X2080315D02*
D03*
X2114173D02*
D03*
X1980315D02*
D03*
X2014173D02*
D03*
X2314173Y5281929D02*
D03*
X2280315D02*
D03*
X2180315D02*
D03*
X2214173D02*
D03*
X2080315D02*
D03*
X2114173D02*
D03*
X1980315D02*
D03*
X2014173D02*
D03*
X5899213Y5381929D02*
D03*
X5933071D02*
D03*
X5999213D02*
D03*
X6033071D02*
D03*
X6099213D02*
D03*
X6133071D02*
D03*
X5899213Y5281929D02*
D03*
X5933071D02*
D03*
X5999213D02*
D03*
X6033071D02*
D03*
X6099213D02*
D03*
X6133071D02*
D03*
X5599213Y5381929D02*
D03*
X5633071D02*
D03*
X5699213D02*
D03*
X5733071D02*
D03*
X5799213D02*
D03*
X5833071D02*
D03*
X5599213Y5281929D02*
D03*
X5633071D02*
D03*
X5699213D02*
D03*
X5733071D02*
D03*
X5799213D02*
D03*
X5833071D02*
D03*
X8951969Y5103028D02*
D03*
X8985827D02*
D03*
X9051969D02*
D03*
X9085827D02*
D03*
X8851969D02*
D03*
X8885827D02*
D03*
D63*
X1811024Y3352362D02*
D03*
Y3386220D02*
D03*
X1771653D02*
D03*
Y3352362D02*
D03*
X2007874Y3875197D02*
D03*
Y3841339D02*
D03*
Y4111417D02*
D03*
Y4077559D02*
D03*
X746457Y3835827D02*
D03*
Y3801968D02*
D03*
X785039D02*
D03*
Y3835827D02*
D03*
X1023622Y3428740D02*
D03*
Y3462599D02*
D03*
X7655118Y3250787D02*
D03*
Y3284646D02*
D03*
X7619685D02*
D03*
Y3250787D02*
D03*
X7655118Y3841339D02*
D03*
Y3875197D02*
D03*
X7619685D02*
D03*
Y3841339D02*
D03*
X7655118Y4431890D02*
D03*
Y4465748D02*
D03*
X7619685D02*
D03*
Y4431890D02*
D03*
X8897638Y3231102D02*
D03*
Y3264961D02*
D03*
X8976378D02*
D03*
Y3231102D02*
D03*
X8897638Y3821654D02*
D03*
Y3855512D02*
D03*
Y4412205D02*
D03*
Y4446063D02*
D03*
X9600000Y2674803D02*
D03*
Y2708661D02*
D03*
Y3265354D02*
D03*
Y3299213D02*
D03*
Y3855906D02*
D03*
Y3889764D02*
D03*
Y4446457D02*
D03*
Y4480315D02*
D03*
X3872457Y5179921D02*
D03*
Y5213780D02*
D03*
X3823244Y5179921D02*
D03*
Y5213780D02*
D03*
X3774032Y5179921D02*
D03*
Y5213780D02*
D03*
X3006315Y5179921D02*
D03*
Y5213780D02*
D03*
X2957102Y5179921D02*
D03*
Y5213780D02*
D03*
X2907890Y5179921D02*
D03*
Y5213780D02*
D03*
X1848032Y2851929D02*
D03*
Y2818071D02*
D03*
X1809449D02*
D03*
Y2851929D02*
D03*
X1114173Y5078012D02*
D03*
Y5111870D02*
D03*
X1023622D02*
D03*
Y5078012D02*
D03*
X978346D02*
D03*
Y5111870D02*
D03*
X933071Y5078012D02*
D03*
Y5111870D02*
D03*
X5551102Y3397126D02*
D03*
Y3430984D02*
D03*
X4906221Y4176654D02*
D03*
Y4210512D02*
D03*
X4995984Y4176654D02*
D03*
Y4210512D02*
D03*
X5078661Y4176654D02*
D03*
Y4210512D02*
D03*
X5206221Y4176654D02*
D03*
Y4210512D02*
D03*
X3188976Y771811D02*
D03*
Y805669D02*
D03*
X3425197Y771811D02*
D03*
Y805669D02*
D03*
X3661417Y771811D02*
D03*
Y805669D02*
D03*
X3897638Y771811D02*
D03*
Y805669D02*
D03*
X2244095Y771811D02*
D03*
Y805669D02*
D03*
X2480315Y771811D02*
D03*
Y805669D02*
D03*
X2716535Y771811D02*
D03*
Y805669D02*
D03*
X2952756Y771811D02*
D03*
Y805669D02*
D03*
X5236221Y771811D02*
D03*
Y805669D02*
D03*
X5472441Y771811D02*
D03*
Y805669D02*
D03*
X5708661Y771811D02*
D03*
Y805669D02*
D03*
X5944882Y771811D02*
D03*
Y805669D02*
D03*
X4291339Y771811D02*
D03*
Y805669D02*
D03*
X4527559Y771811D02*
D03*
Y805669D02*
D03*
X4763779Y771811D02*
D03*
Y805669D02*
D03*
X5000000Y771811D02*
D03*
Y805669D02*
D03*
X7283465Y771811D02*
D03*
Y805669D02*
D03*
X7519685Y771811D02*
D03*
Y805669D02*
D03*
X7755905Y771811D02*
D03*
Y805669D02*
D03*
X7992126Y771811D02*
D03*
Y805669D02*
D03*
X6338583Y771811D02*
D03*
Y805669D02*
D03*
X6574803Y771811D02*
D03*
Y805669D02*
D03*
X6811024Y771811D02*
D03*
Y805669D02*
D03*
X7047244Y771811D02*
D03*
Y805669D02*
D03*
X9330709Y771811D02*
D03*
Y805669D02*
D03*
X9566929Y771811D02*
D03*
Y805669D02*
D03*
X9803150Y771811D02*
D03*
Y805669D02*
D03*
X10039370Y771811D02*
D03*
Y805669D02*
D03*
X8385827Y771811D02*
D03*
Y805669D02*
D03*
X8622047Y771811D02*
D03*
Y805669D02*
D03*
X8858268Y771811D02*
D03*
Y805669D02*
D03*
X9094488Y771811D02*
D03*
Y805669D02*
D03*
X433071Y771811D02*
D03*
Y805669D02*
D03*
X669291Y771811D02*
D03*
Y805669D02*
D03*
X905512Y771811D02*
D03*
Y805669D02*
D03*
X1141732Y771811D02*
D03*
Y805669D02*
D03*
X1377953Y771811D02*
D03*
Y805669D02*
D03*
X1614173Y771811D02*
D03*
Y805669D02*
D03*
X1850394Y771811D02*
D03*
Y805669D02*
D03*
X196850Y771811D02*
D03*
Y805669D02*
D03*
X10153150Y1361024D02*
D03*
Y1394882D02*
D03*
X10053150Y1361024D02*
D03*
Y1394882D02*
D03*
X9953150Y1361024D02*
D03*
Y1394882D02*
D03*
X9853150Y1361024D02*
D03*
Y1394882D02*
D03*
X9753150Y1361024D02*
D03*
Y1394882D02*
D03*
X9653150Y1361024D02*
D03*
Y1394882D02*
D03*
X9553150Y1361024D02*
D03*
Y1394882D02*
D03*
X9453150Y1361024D02*
D03*
Y1394882D02*
D03*
X7405905Y1361024D02*
D03*
Y1394882D02*
D03*
X7505905Y1361024D02*
D03*
Y1394882D02*
D03*
X7605905Y1361024D02*
D03*
Y1394882D02*
D03*
X7705905Y1361024D02*
D03*
Y1394882D02*
D03*
X7805905Y1361024D02*
D03*
Y1394882D02*
D03*
X7905905Y1361024D02*
D03*
Y1394882D02*
D03*
X8005905Y1361024D02*
D03*
Y1394882D02*
D03*
X8105905Y1361024D02*
D03*
Y1394882D02*
D03*
X5358661Y1361024D02*
D03*
Y1394882D02*
D03*
X5458661Y1361024D02*
D03*
Y1394882D02*
D03*
X5558661Y1361024D02*
D03*
Y1394882D02*
D03*
X5658661Y1361024D02*
D03*
Y1394882D02*
D03*
X5758661Y1361024D02*
D03*
Y1394882D02*
D03*
X5858661Y1361024D02*
D03*
Y1394882D02*
D03*
X5958661Y1361024D02*
D03*
Y1394882D02*
D03*
X6058661Y1361024D02*
D03*
Y1394882D02*
D03*
X3311417Y1361024D02*
D03*
Y1394882D02*
D03*
X3411417Y1361024D02*
D03*
Y1394882D02*
D03*
X3511417Y1361024D02*
D03*
Y1394882D02*
D03*
X3611417Y1361024D02*
D03*
Y1394882D02*
D03*
X3711417Y1361024D02*
D03*
Y1394882D02*
D03*
X3811417Y1361024D02*
D03*
Y1394882D02*
D03*
X3911417Y1361024D02*
D03*
Y1394882D02*
D03*
X4011417Y1361024D02*
D03*
Y1394882D02*
D03*
X9129528Y1361024D02*
D03*
Y1394882D02*
D03*
X9029528Y1361024D02*
D03*
Y1394882D02*
D03*
X8929528Y1361024D02*
D03*
Y1394882D02*
D03*
X8829528Y1361024D02*
D03*
Y1394882D02*
D03*
X8729528Y1361024D02*
D03*
Y1394882D02*
D03*
X8629528Y1361024D02*
D03*
Y1394882D02*
D03*
X8529528Y1361024D02*
D03*
Y1394882D02*
D03*
X8429528Y1361024D02*
D03*
Y1394882D02*
D03*
X7082283Y1361024D02*
D03*
Y1394882D02*
D03*
X6982283Y1361024D02*
D03*
Y1394882D02*
D03*
X6882283Y1361024D02*
D03*
Y1394882D02*
D03*
X6782283Y1361024D02*
D03*
Y1394882D02*
D03*
X6682283Y1361024D02*
D03*
Y1394882D02*
D03*
X6582283Y1361024D02*
D03*
Y1394882D02*
D03*
X6482283Y1361024D02*
D03*
Y1394882D02*
D03*
X6382283Y1361024D02*
D03*
Y1394882D02*
D03*
X5035039Y1361024D02*
D03*
Y1394882D02*
D03*
X4935039Y1361024D02*
D03*
Y1394882D02*
D03*
X4835039Y1361024D02*
D03*
Y1394882D02*
D03*
X4735039Y1361024D02*
D03*
Y1394882D02*
D03*
X4635039Y1361024D02*
D03*
Y1394882D02*
D03*
X4535039Y1361024D02*
D03*
Y1394882D02*
D03*
X4435039Y1361024D02*
D03*
Y1394882D02*
D03*
X4335039Y1361024D02*
D03*
Y1394882D02*
D03*
X2287795Y1361024D02*
D03*
Y1394882D02*
D03*
X2387795Y1361024D02*
D03*
Y1394882D02*
D03*
X2487795Y1361024D02*
D03*
Y1394882D02*
D03*
X2587795Y1361024D02*
D03*
Y1394882D02*
D03*
X2687795Y1361024D02*
D03*
Y1394882D02*
D03*
X2787795Y1361024D02*
D03*
Y1394882D02*
D03*
X2887795Y1361024D02*
D03*
Y1394882D02*
D03*
X2987795Y1361024D02*
D03*
Y1394882D02*
D03*
X1264173Y1361024D02*
D03*
Y1394882D02*
D03*
X1364173Y1361024D02*
D03*
Y1394882D02*
D03*
X1464173Y1361024D02*
D03*
Y1394882D02*
D03*
X1564173Y1361024D02*
D03*
Y1394882D02*
D03*
X1664173Y1361024D02*
D03*
Y1394882D02*
D03*
X1764173Y1361024D02*
D03*
Y1394882D02*
D03*
X1864173Y1361024D02*
D03*
Y1394882D02*
D03*
X1964173Y1361024D02*
D03*
Y1394882D02*
D03*
X940000Y1361024D02*
D03*
Y1394882D02*
D03*
X840000Y1361024D02*
D03*
Y1394882D02*
D03*
X740000Y1361024D02*
D03*
Y1394882D02*
D03*
X640000Y1361024D02*
D03*
Y1394882D02*
D03*
X540000Y1361024D02*
D03*
Y1394882D02*
D03*
X440000Y1361024D02*
D03*
Y1394882D02*
D03*
X340000Y1361024D02*
D03*
Y1394882D02*
D03*
X240000Y1361024D02*
D03*
Y1394882D02*
D03*
D64*
X1850394Y3875197D02*
D03*
Y3839764D02*
D03*
Y4112205D02*
D03*
Y4076772D02*
D03*
X7480315Y3230315D02*
D03*
Y3265748D02*
D03*
Y3820866D02*
D03*
Y3856299D02*
D03*
Y4411417D02*
D03*
Y4446850D02*
D03*
X8740157Y3230315D02*
D03*
Y3265748D02*
D03*
Y3820866D02*
D03*
Y3856299D02*
D03*
Y4411417D02*
D03*
Y4446850D02*
D03*
X9560000Y2708661D02*
D03*
Y2673228D02*
D03*
Y3299213D02*
D03*
Y3263780D02*
D03*
Y3889764D02*
D03*
Y3854331D02*
D03*
Y4480315D02*
D03*
Y4444882D02*
D03*
X3921669Y5178347D02*
D03*
Y5213780D02*
D03*
X3055528Y5178347D02*
D03*
Y5213780D02*
D03*
X9389764Y702716D02*
D03*
Y667284D02*
D03*
X9625984Y702716D02*
D03*
Y667284D02*
D03*
X9862205Y702716D02*
D03*
Y667284D02*
D03*
X10098425Y702716D02*
D03*
Y667284D02*
D03*
X8444882Y702716D02*
D03*
Y667284D02*
D03*
X8681102Y702716D02*
D03*
Y667284D02*
D03*
X8917323Y702716D02*
D03*
Y667284D02*
D03*
X9153543Y702716D02*
D03*
Y667284D02*
D03*
X7342520Y702716D02*
D03*
Y667284D02*
D03*
X7578740Y702716D02*
D03*
Y667284D02*
D03*
X7814961Y702716D02*
D03*
Y667284D02*
D03*
X8051181Y702716D02*
D03*
Y667284D02*
D03*
X6397638Y702716D02*
D03*
Y667284D02*
D03*
X6633858Y702716D02*
D03*
Y667284D02*
D03*
X6870079Y702716D02*
D03*
Y667284D02*
D03*
X7106299Y702716D02*
D03*
Y667284D02*
D03*
X5295276Y702716D02*
D03*
Y667284D02*
D03*
X5531496Y702716D02*
D03*
Y667284D02*
D03*
X5767717Y702716D02*
D03*
Y667284D02*
D03*
X6003937Y702716D02*
D03*
Y667284D02*
D03*
X4350394Y702716D02*
D03*
Y667284D02*
D03*
X4586614Y702716D02*
D03*
Y667284D02*
D03*
X4822835Y702716D02*
D03*
Y667284D02*
D03*
X5059055Y702716D02*
D03*
Y667284D02*
D03*
X3248032Y702716D02*
D03*
Y667284D02*
D03*
X3484252Y702716D02*
D03*
Y667284D02*
D03*
X3720472Y702716D02*
D03*
Y667284D02*
D03*
X3956693Y702716D02*
D03*
Y667284D02*
D03*
X2303150Y702716D02*
D03*
Y667284D02*
D03*
X2539370Y702716D02*
D03*
Y667284D02*
D03*
X2775590Y702716D02*
D03*
Y667284D02*
D03*
X3011811Y702716D02*
D03*
Y667284D02*
D03*
X492126Y702716D02*
D03*
Y667284D02*
D03*
X728346Y702716D02*
D03*
Y667284D02*
D03*
X964567Y702716D02*
D03*
Y667284D02*
D03*
X1200787Y702716D02*
D03*
Y667284D02*
D03*
X1437008Y702716D02*
D03*
Y667284D02*
D03*
X1673228Y702716D02*
D03*
Y667284D02*
D03*
X1909449Y702716D02*
D03*
Y667284D02*
D03*
X255905Y702716D02*
D03*
Y667284D02*
D03*
D65*
X1946850Y3858268D02*
D03*
Y4094488D02*
D03*
X7655512Y3188976D02*
D03*
Y3779528D02*
D03*
Y4370079D02*
D03*
X8836614Y3248032D02*
D03*
Y3838583D02*
D03*
Y4429134D02*
D03*
X1679528Y5331929D02*
D03*
X3265748Y788740D02*
D03*
X3501968D02*
D03*
X3738189D02*
D03*
X3974409D02*
D03*
X2320866D02*
D03*
X2557087D02*
D03*
X2793307D02*
D03*
X3029528D02*
D03*
X5312992D02*
D03*
X5549213D02*
D03*
X5785433D02*
D03*
X6021654D02*
D03*
X4368110D02*
D03*
X4604331D02*
D03*
X4840551D02*
D03*
X5076772D02*
D03*
X7360236D02*
D03*
X7596457D02*
D03*
X7832677D02*
D03*
X8068898D02*
D03*
X6415354D02*
D03*
X6651575D02*
D03*
X6887795D02*
D03*
X7124016D02*
D03*
X9407480D02*
D03*
X9643701D02*
D03*
X9879921D02*
D03*
X10116142D02*
D03*
X8462598D02*
D03*
X8698819D02*
D03*
X8935039D02*
D03*
X9171260D02*
D03*
X509842D02*
D03*
X746063D02*
D03*
X982283D02*
D03*
X1218504D02*
D03*
X1454724D02*
D03*
X1690945D02*
D03*
X1927165D02*
D03*
X273622D02*
D03*
X5212323Y5331929D02*
D03*
X4914173D02*
D03*
X4814173D02*
D03*
X5014173D02*
D03*
X5114173D02*
D03*
X1879528D02*
D03*
X1779528D02*
D03*
X2179528D02*
D03*
X2079528D02*
D03*
X1979528D02*
D03*
X5898425D02*
D03*
X5998425D02*
D03*
X6098425D02*
D03*
X5598425D02*
D03*
X5698425D02*
D03*
X5798425D02*
D03*
D66*
X1911417Y3843504D02*
D03*
Y3873032D02*
D03*
Y4079724D02*
D03*
Y4109252D02*
D03*
X7620079Y3203740D02*
D03*
Y3174213D02*
D03*
Y3794291D02*
D03*
Y3764764D02*
D03*
Y4384842D02*
D03*
Y4355315D02*
D03*
X8801181Y3262795D02*
D03*
Y3233268D02*
D03*
Y3853347D02*
D03*
Y3823819D02*
D03*
Y4443898D02*
D03*
Y4414370D02*
D03*
X1714961Y5317165D02*
D03*
Y5346693D02*
D03*
X3230315Y803504D02*
D03*
Y773976D02*
D03*
X3466535Y803504D02*
D03*
Y773976D02*
D03*
X3702756Y803504D02*
D03*
Y773976D02*
D03*
X3938976Y803504D02*
D03*
Y773976D02*
D03*
X2285433Y803504D02*
D03*
Y773976D02*
D03*
X2521654Y803504D02*
D03*
Y773976D02*
D03*
X2757874Y803504D02*
D03*
Y773976D02*
D03*
X2994095Y803504D02*
D03*
Y773976D02*
D03*
X5277559Y803504D02*
D03*
Y773976D02*
D03*
X5513780Y803504D02*
D03*
Y773976D02*
D03*
X5750000Y803504D02*
D03*
Y773976D02*
D03*
X5986221Y803504D02*
D03*
Y773976D02*
D03*
X4332677Y803504D02*
D03*
Y773976D02*
D03*
X4568898Y803504D02*
D03*
Y773976D02*
D03*
X4805118Y803504D02*
D03*
Y773976D02*
D03*
X5041339Y803504D02*
D03*
Y773976D02*
D03*
X7324803Y803504D02*
D03*
Y773976D02*
D03*
X7561024Y803504D02*
D03*
Y773976D02*
D03*
X7797244Y803504D02*
D03*
Y773976D02*
D03*
X8033465Y803504D02*
D03*
Y773976D02*
D03*
X6379921Y803504D02*
D03*
Y773976D02*
D03*
X6616142Y803504D02*
D03*
Y773976D02*
D03*
X6852362Y803504D02*
D03*
Y773976D02*
D03*
X7088583Y803504D02*
D03*
Y773976D02*
D03*
X9372047Y803504D02*
D03*
Y773976D02*
D03*
X9608268Y803504D02*
D03*
Y773976D02*
D03*
X9844488Y803504D02*
D03*
Y773976D02*
D03*
X10080709Y803504D02*
D03*
Y773976D02*
D03*
X8427165Y803504D02*
D03*
Y773976D02*
D03*
X8663386Y803504D02*
D03*
Y773976D02*
D03*
X8899606Y803504D02*
D03*
Y773976D02*
D03*
X9135827Y803504D02*
D03*
Y773976D02*
D03*
X474409Y803504D02*
D03*
Y773976D02*
D03*
X710630Y803504D02*
D03*
Y773976D02*
D03*
X946850Y803504D02*
D03*
Y773976D02*
D03*
X1183071Y803504D02*
D03*
Y773976D02*
D03*
X1419291Y803504D02*
D03*
Y773976D02*
D03*
X1655512Y803504D02*
D03*
Y773976D02*
D03*
X1891732Y803504D02*
D03*
Y773976D02*
D03*
X238189Y803504D02*
D03*
Y773976D02*
D03*
X5247756Y5317165D02*
D03*
Y5346693D02*
D03*
X4949606Y5317165D02*
D03*
Y5346693D02*
D03*
X4849606Y5317165D02*
D03*
Y5346693D02*
D03*
X5049606Y5317165D02*
D03*
Y5346693D02*
D03*
X5149606Y5317165D02*
D03*
Y5346693D02*
D03*
X1914961Y5317165D02*
D03*
Y5346693D02*
D03*
X1814961Y5317165D02*
D03*
Y5346693D02*
D03*
X2214961Y5317165D02*
D03*
Y5346693D02*
D03*
X2114961Y5317165D02*
D03*
Y5346693D02*
D03*
X2014961Y5317165D02*
D03*
Y5346693D02*
D03*
X5933858Y5317165D02*
D03*
Y5346693D02*
D03*
X6033858Y5317165D02*
D03*
Y5346693D02*
D03*
X6133858Y5317165D02*
D03*
Y5346693D02*
D03*
X5633858Y5317165D02*
D03*
Y5346693D02*
D03*
X5733858Y5317165D02*
D03*
Y5346693D02*
D03*
X5833858Y5317165D02*
D03*
Y5346693D02*
D03*
D67*
X415354Y3937008D02*
D03*
X765748D02*
D03*
X7738189Y3248032D02*
D03*
X8088583D02*
D03*
X7738189Y3838583D02*
D03*
X8088583D02*
D03*
X7738189Y4429134D02*
D03*
X8088583D02*
D03*
X844488Y2731457D02*
D03*
X494094D02*
D03*
X1828740Y2710000D02*
D03*
X1478346D02*
D03*
D68*
X1185039Y3425197D02*
D03*
Y3462599D02*
D03*
Y3387795D02*
D03*
X1098425D02*
D03*
Y3425197D02*
D03*
Y3462599D02*
D03*
D69*
X9698858Y3787402D02*
D03*
X9716575D02*
D03*
X9734291D02*
D03*
X9681142D02*
D03*
X9663425D02*
D03*
X9645709D02*
D03*
X9698858Y3889764D02*
D03*
X9716575D02*
D03*
X9734291D02*
D03*
X9681142D02*
D03*
X9663425D02*
D03*
X9645709D02*
D03*
X9698858Y3196850D02*
D03*
X9716575D02*
D03*
X9734291D02*
D03*
X9681142D02*
D03*
X9663425D02*
D03*
X9645709D02*
D03*
X9698858Y3299213D02*
D03*
X9716575D02*
D03*
X9734291D02*
D03*
X9681142D02*
D03*
X9663425D02*
D03*
X9645709D02*
D03*
X9698858Y2606299D02*
D03*
X9716575D02*
D03*
X9734291D02*
D03*
X9681142D02*
D03*
X9663425D02*
D03*
X9645709D02*
D03*
X9698858Y2708661D02*
D03*
X9716575D02*
D03*
X9734291D02*
D03*
X9681142D02*
D03*
X9663425D02*
D03*
X9645709D02*
D03*
X9698858Y4377953D02*
D03*
X9716575D02*
D03*
X9734291D02*
D03*
X9681142D02*
D03*
X9663425D02*
D03*
X9645709D02*
D03*
X9698858Y4480315D02*
D03*
X9716575D02*
D03*
X9734291D02*
D03*
X9681142D02*
D03*
X9663425D02*
D03*
X9645709D02*
D03*
D70*
X9690000Y3838583D02*
D03*
Y3248032D02*
D03*
Y2657480D02*
D03*
Y4429134D02*
D03*
D71*
X10039370Y2708661D02*
D03*
Y2683071D02*
D03*
Y2606299D02*
D03*
Y2631890D02*
D03*
Y2657480D02*
D03*
Y3299213D02*
D03*
Y3273622D02*
D03*
Y3196850D02*
D03*
Y3222441D02*
D03*
Y3248032D02*
D03*
Y3889764D02*
D03*
Y3864173D02*
D03*
Y3787402D02*
D03*
Y3812992D02*
D03*
Y3838583D02*
D03*
Y4480315D02*
D03*
Y4454725D02*
D03*
Y4377953D02*
D03*
Y4403543D02*
D03*
Y4429134D02*
D03*
D72*
X4120488Y5440945D02*
D03*
X3673638D02*
D03*
X3254347D02*
D03*
X2807496D02*
D03*
X9041748D02*
D03*
X8594898D02*
D03*
X7939386D02*
D03*
X7492535D02*
D03*
D73*
X3970882Y5326771D02*
D03*
X4020095D02*
D03*
X3921669D02*
D03*
X3823244D02*
D03*
X3872457D02*
D03*
X3774032D02*
D03*
X3104740D02*
D03*
X3153953D02*
D03*
X3055528D02*
D03*
X2957102D02*
D03*
X3006315D02*
D03*
X2907890D02*
D03*
X8892142D02*
D03*
X8941354D02*
D03*
X8842929D02*
D03*
X8744504D02*
D03*
X8793717D02*
D03*
X8695291D02*
D03*
X7789779D02*
D03*
X7838992D02*
D03*
X7740567D02*
D03*
X7642142D02*
D03*
X7691354D02*
D03*
X7592929D02*
D03*
D74*
X2519685Y3864173D02*
D03*
Y4009843D02*
D03*
X2755905Y3864173D02*
D03*
Y4009843D02*
D03*
X2519685Y3076772D02*
D03*
Y3222441D02*
D03*
X2755905Y3076772D02*
D03*
Y3222441D02*
D03*
X1692913Y3498032D02*
D03*
Y3352362D02*
D03*
X1456693Y3498032D02*
D03*
Y3352362D02*
D03*
X708661Y3498032D02*
D03*
Y3352362D02*
D03*
X472441Y3498032D02*
D03*
Y3352362D02*
D03*
D75*
X1815748Y5098425D02*
D03*
X1780315D02*
D03*
X1715748D02*
D03*
X1680315D02*
D03*
X5248819D02*
D03*
X5213386D02*
D03*
X4948819D02*
D03*
X4913386D02*
D03*
X4848819D02*
D03*
X4813386D02*
D03*
X5048819D02*
D03*
X5013386D02*
D03*
X5148819D02*
D03*
X5113386D02*
D03*
X687008Y4940945D02*
D03*
X651575D02*
D03*
X1915748Y5098425D02*
D03*
X1880315D02*
D03*
X2315748D02*
D03*
X2280315D02*
D03*
X2215748D02*
D03*
X2180315D02*
D03*
X2115748D02*
D03*
X2080315D02*
D03*
X2015748D02*
D03*
X1980315D02*
D03*
X5933071D02*
D03*
X5897638D02*
D03*
X6033071D02*
D03*
X5997638D02*
D03*
X6133071D02*
D03*
X6097638D02*
D03*
X5633071D02*
D03*
X5597638D02*
D03*
X5733071D02*
D03*
X5697638D02*
D03*
X5833071D02*
D03*
X5797638D02*
D03*
D76*
X1114173Y5192913D02*
D03*
X1023622D02*
D03*
X933071D02*
D03*
D77*
X1023622Y5437008D02*
D03*
D78*
X5470000Y3905000D02*
D03*
X4794409D02*
D03*
D79*
X5206221Y4075472D02*
D03*
X4951102D02*
D03*
X5206221Y3414055D02*
D03*
X4951102D02*
D03*
D80*
X5078661Y4075472D02*
D03*
Y3414055D02*
D03*
D81*
X10171263Y275591D02*
D03*
X10025594D02*
D03*
X10171263Y511811D02*
D03*
X10025594D02*
D03*
X9935042Y275591D02*
D03*
X9789373D02*
D03*
X9935042Y511811D02*
D03*
X9789373D02*
D03*
X9698822Y275591D02*
D03*
X9553153D02*
D03*
X9698822Y511811D02*
D03*
X9553153D02*
D03*
X9462602Y275591D02*
D03*
X9316932D02*
D03*
X9462602Y511811D02*
D03*
X9316932D02*
D03*
X9226381Y275591D02*
D03*
X9080712D02*
D03*
X9226381Y511811D02*
D03*
X9080712D02*
D03*
X8990161Y275591D02*
D03*
X8844491D02*
D03*
X8990161Y511811D02*
D03*
X8844491D02*
D03*
X8753940Y275591D02*
D03*
X8608271D02*
D03*
X8753940Y511811D02*
D03*
X8608271D02*
D03*
X8517720Y275591D02*
D03*
X8372050D02*
D03*
X8517720Y511811D02*
D03*
X8372050D02*
D03*
X6470475Y275591D02*
D03*
X6324806D02*
D03*
X6470475Y511811D02*
D03*
X6324806D02*
D03*
X6706696Y275591D02*
D03*
X6561027D02*
D03*
X6706696Y511811D02*
D03*
X6561027D02*
D03*
X6942917Y275591D02*
D03*
X6797247D02*
D03*
X6942917Y511811D02*
D03*
X6797247D02*
D03*
X7179137Y275591D02*
D03*
X7033468D02*
D03*
X7179137Y511811D02*
D03*
X7033468D02*
D03*
X7415357Y275591D02*
D03*
X7269688D02*
D03*
X7415357Y511811D02*
D03*
X7269688D02*
D03*
X7651578Y275591D02*
D03*
X7505909D02*
D03*
X7651578Y511811D02*
D03*
X7505909D02*
D03*
X7887798Y275591D02*
D03*
X7742129D02*
D03*
X7887798Y511811D02*
D03*
X7742129D02*
D03*
X8124019Y275591D02*
D03*
X7978350D02*
D03*
X8124019Y511811D02*
D03*
X7978350D02*
D03*
X4423231Y275591D02*
D03*
X4277562D02*
D03*
X4423231Y511811D02*
D03*
X4277562D02*
D03*
X4659452Y275591D02*
D03*
X4513783D02*
D03*
X4659452Y511811D02*
D03*
X4513783D02*
D03*
X4895672Y275591D02*
D03*
X4750003D02*
D03*
X4895672Y511811D02*
D03*
X4750003D02*
D03*
X5131893Y275591D02*
D03*
X4986224D02*
D03*
X5131893Y511811D02*
D03*
X4986224D02*
D03*
X5368113Y275591D02*
D03*
X5222444D02*
D03*
X5368113Y511811D02*
D03*
X5222444D02*
D03*
X5604334Y275591D02*
D03*
X5458665D02*
D03*
X5604334Y511811D02*
D03*
X5458665D02*
D03*
X5840554Y275591D02*
D03*
X5694885D02*
D03*
X5840554Y511811D02*
D03*
X5694885D02*
D03*
X6076775Y275591D02*
D03*
X5931105D02*
D03*
X6076775Y511811D02*
D03*
X5931105D02*
D03*
X2375987Y275591D02*
D03*
X2230318D02*
D03*
X2375987Y511811D02*
D03*
X2230318D02*
D03*
X2612208Y275591D02*
D03*
X2466539D02*
D03*
X2612208Y511811D02*
D03*
X2466539D02*
D03*
X2848428Y275591D02*
D03*
X2702759D02*
D03*
X2848428Y511811D02*
D03*
X2702759D02*
D03*
X3084649Y275591D02*
D03*
X2938979D02*
D03*
X3084649Y511811D02*
D03*
X2938979D02*
D03*
X3320869Y275591D02*
D03*
X3175200D02*
D03*
X3320869Y511811D02*
D03*
X3175200D02*
D03*
X3557090Y275591D02*
D03*
X3411421D02*
D03*
X3557090Y511811D02*
D03*
X3411421D02*
D03*
X3793310Y275591D02*
D03*
X3647641D02*
D03*
X3793310Y511811D02*
D03*
X3647641D02*
D03*
X4029531Y275591D02*
D03*
X3883861D02*
D03*
X4029531Y511811D02*
D03*
X3883861D02*
D03*
X328740Y275591D02*
D03*
X183071D02*
D03*
X328740Y511811D02*
D03*
X183071D02*
D03*
X564961Y275591D02*
D03*
X419291D02*
D03*
X564961Y511811D02*
D03*
X419291D02*
D03*
X801181Y275591D02*
D03*
X655512D02*
D03*
X801181Y511811D02*
D03*
X655512D02*
D03*
X1037401Y275591D02*
D03*
X891732D02*
D03*
X1037401Y511811D02*
D03*
X891732D02*
D03*
X1273622Y275591D02*
D03*
X1127953D02*
D03*
X1273622Y511811D02*
D03*
X1127953D02*
D03*
X1509842Y275591D02*
D03*
X1364173D02*
D03*
X1509842Y511811D02*
D03*
X1364173D02*
D03*
X1746063Y275591D02*
D03*
X1600394D02*
D03*
X1746063Y511811D02*
D03*
X1600394D02*
D03*
X1982283Y275591D02*
D03*
X1836614D02*
D03*
X1982283Y511811D02*
D03*
X1836614D02*
D03*
X9167323Y3720472D02*
D03*
X9021654D02*
D03*
X9167323Y3956693D02*
D03*
X9021654D02*
D03*
X9167323Y4311024D02*
D03*
X9021654D02*
D03*
X9167323Y4547244D02*
D03*
X9021654D02*
D03*
D82*
X8429528Y1285433D02*
D03*
X8529528D02*
D03*
X8629528D02*
D03*
X8729528D02*
D03*
X8829528D02*
D03*
X8929528D02*
D03*
X9029528D02*
D03*
X9129528D02*
D03*
X8429528Y919291D02*
D03*
X9129528D02*
D03*
X6382283Y1285433D02*
D03*
X6482283D02*
D03*
X6582283D02*
D03*
X6682283D02*
D03*
X6782283D02*
D03*
X6882283D02*
D03*
X6982283D02*
D03*
X7082283D02*
D03*
X6382283Y919291D02*
D03*
X7082283D02*
D03*
X4335039Y1285433D02*
D03*
X4435039D02*
D03*
X4535039D02*
D03*
X4635039D02*
D03*
X4735039D02*
D03*
X4835039D02*
D03*
X4935039D02*
D03*
X5035039D02*
D03*
X4335039Y919291D02*
D03*
X5035039D02*
D03*
X5358661Y1285433D02*
D03*
X5458661D02*
D03*
X5558661D02*
D03*
X5658661D02*
D03*
X5758661D02*
D03*
X5858661D02*
D03*
X5958661D02*
D03*
X6058661D02*
D03*
X5358661Y919291D02*
D03*
X6058661D02*
D03*
X7405905Y1285433D02*
D03*
X7505905D02*
D03*
X7605905D02*
D03*
X7705905D02*
D03*
X7805905D02*
D03*
X7905905D02*
D03*
X8005905D02*
D03*
X8105905D02*
D03*
X7405905Y919291D02*
D03*
X8105905D02*
D03*
X9453149Y1285433D02*
D03*
X9553149D02*
D03*
X9653149D02*
D03*
X9753149D02*
D03*
X9853149D02*
D03*
X9953149D02*
D03*
X10053149D02*
D03*
X10153149D02*
D03*
X9453149Y919291D02*
D03*
X10153149D02*
D03*
X3311417Y1285433D02*
D03*
X3411417D02*
D03*
X3511417D02*
D03*
X3611417D02*
D03*
X3711417D02*
D03*
X3811417D02*
D03*
X3911417D02*
D03*
X4011417D02*
D03*
X3311417Y919291D02*
D03*
X4011417D02*
D03*
X2287795Y1285433D02*
D03*
X2387795D02*
D03*
X2487795D02*
D03*
X2587795D02*
D03*
X2687795D02*
D03*
X2787795D02*
D03*
X2887795D02*
D03*
X2987795D02*
D03*
X2287795Y919291D02*
D03*
X2987795D02*
D03*
X1264173Y1285433D02*
D03*
X1364173D02*
D03*
X1464173D02*
D03*
X1564173D02*
D03*
X1664173D02*
D03*
X1764173D02*
D03*
X1864173D02*
D03*
X1964173D02*
D03*
X1264173Y919291D02*
D03*
X1964173D02*
D03*
X240551Y1285433D02*
D03*
X340551D02*
D03*
X440551D02*
D03*
X540551D02*
D03*
X640551D02*
D03*
X740551D02*
D03*
X840551D02*
D03*
X940551D02*
D03*
X240551Y919291D02*
D03*
X940551D02*
D03*
D83*
X6343028Y4268307D02*
D03*
X6216028D02*
D03*
X6343028Y4218307D02*
D03*
X6216028D02*
D03*
X6343028Y4168307D02*
D03*
X6216028D02*
D03*
X6343028Y4118307D02*
D03*
X6216028D02*
D03*
X6343028Y4068307D02*
D03*
X6216028D02*
D03*
X6343028Y4018307D02*
D03*
X6216028D02*
D03*
X6343028Y3968307D02*
D03*
X6216028D02*
D03*
X6343028Y3918307D02*
D03*
X6216028D02*
D03*
X6343028Y3868307D02*
D03*
X6216028D02*
D03*
X6343028Y3818307D02*
D03*
X6216028D02*
D03*
X6343028Y3768307D02*
D03*
X6216028D02*
D03*
X6343028Y3718307D02*
D03*
X6216028D02*
D03*
X6343028Y3668307D02*
D03*
X6216028D02*
D03*
X6343028Y3618307D02*
D03*
X6216028D02*
D03*
X6343028Y3568307D02*
D03*
X6216028D02*
D03*
X6343028Y3518307D02*
D03*
X6216028D02*
D03*
X6343028Y3468307D02*
D03*
X6216028D02*
D03*
X6343028Y3418307D02*
D03*
X6216028D02*
D03*
X6343028Y3368307D02*
D03*
X6216028D02*
D03*
X6343028Y3318307D02*
D03*
X6216028D02*
D03*
X6343028Y3268307D02*
D03*
X6216028D02*
D03*
X6343028Y3218307D02*
D03*
X6216028D02*
D03*
X6343028Y3168307D02*
D03*
X6216028D02*
D03*
X6343028Y3118307D02*
D03*
X6216028D02*
D03*
X6343028Y3068307D02*
D03*
X6216028D02*
D03*
X6343028Y3018307D02*
D03*
X6216028D02*
D03*
X6343028Y2968307D02*
D03*
X6216028D02*
D03*
X6343028Y2918307D02*
D03*
X6216028D02*
D03*
X6343028Y2868307D02*
D03*
X6216028D02*
D03*
X6343028Y2818307D02*
D03*
X6216028D02*
D03*
X3980823Y4268307D02*
D03*
X3853823D02*
D03*
X3980823Y4218307D02*
D03*
X3853823D02*
D03*
X3980823Y4168307D02*
D03*
X3853823D02*
D03*
X3980823Y4118307D02*
D03*
X3853823D02*
D03*
X3980823Y4068307D02*
D03*
X3853823D02*
D03*
X3980823Y4018307D02*
D03*
X3853823D02*
D03*
X3980823Y3968307D02*
D03*
X3853823D02*
D03*
X3980823Y3918307D02*
D03*
X3853823D02*
D03*
X3980823Y3868307D02*
D03*
X3853823D02*
D03*
X3980823Y3818307D02*
D03*
X3853823D02*
D03*
X3980823Y3768307D02*
D03*
X3853823D02*
D03*
X3980823Y3718307D02*
D03*
X3853823D02*
D03*
X3980823Y3668307D02*
D03*
X3853823D02*
D03*
X3980823Y3618307D02*
D03*
X3853823D02*
D03*
X3980823Y3568307D02*
D03*
X3853823D02*
D03*
X3980823Y3518307D02*
D03*
X3853823D02*
D03*
X3980823Y3468307D02*
D03*
X3853823D02*
D03*
X3980823Y3418307D02*
D03*
X3853823D02*
D03*
X3980823Y3368307D02*
D03*
X3853823D02*
D03*
X3980823Y3318307D02*
D03*
X3853823D02*
D03*
X3980823Y3268307D02*
D03*
X3853823D02*
D03*
X3980823Y3218307D02*
D03*
X3853823D02*
D03*
X3980823Y3168307D02*
D03*
X3853823D02*
D03*
X3980823Y3118307D02*
D03*
X3853823D02*
D03*
X3980823Y3068307D02*
D03*
X3853823D02*
D03*
X3980823Y3018307D02*
D03*
X3853823D02*
D03*
X3980823Y2968307D02*
D03*
X3853823D02*
D03*
X3980823Y2918307D02*
D03*
X3853823D02*
D03*
X3980823Y2868307D02*
D03*
X3853823D02*
D03*
X3980823Y2818307D02*
D03*
X3853823D02*
D03*
%TF.MD5,3cd723314f27ab966aec69429db0b16c*%
M02*
