%TF.GenerationSoftware,Altium Limited,Altium Designer,20.0.13 (296)*%
G04 Layer_Color=8388736*
%FSLAX26Y26*%
%MOIN*%
%TF.FileFunction,Other,Top_Assembly*%
%TF.Part,Single*%
G01*
G75*
%TA.AperFunction,NonConductor*%
%ADD57C,0.001968*%
D57*
X5268901Y212599D02*
Y244095D01*
X5209846Y212599D02*
Y244095D01*
Y212599D02*
X5268901D01*
X5209846Y244095D02*
X5268901D01*
X5505121Y212599D02*
Y244095D01*
X5446066Y212599D02*
Y244095D01*
Y212599D02*
X5505121D01*
X5446066Y244095D02*
X5505121D01*
X5741342Y212599D02*
Y244095D01*
X5682287Y212599D02*
Y244095D01*
Y212599D02*
X5741342D01*
X5682287Y244095D02*
X5741342D01*
X5977562Y212599D02*
Y244095D01*
X5918507Y212599D02*
Y244095D01*
Y212599D02*
X5977562D01*
X5918507Y244095D02*
X5977562D01*
X6371263Y212599D02*
Y244095D01*
X6312208Y212599D02*
Y244095D01*
Y212599D02*
X6371263D01*
X6312208Y244095D02*
X6371263D01*
X6607484Y212599D02*
Y244095D01*
X6548428Y212599D02*
Y244095D01*
Y212599D02*
X6607484D01*
X6548428Y244095D02*
X6607484D01*
X6843704Y212599D02*
Y244095D01*
X6784649Y212599D02*
Y244095D01*
Y212599D02*
X6843704D01*
X6784649Y244095D02*
X6843704D01*
X7079924Y212599D02*
Y244095D01*
X7020869Y212599D02*
Y244095D01*
Y212599D02*
X7079924D01*
X7020869Y244095D02*
X7079924D01*
X7316145Y212599D02*
Y244095D01*
X7257090Y212599D02*
Y244095D01*
Y212599D02*
X7316145D01*
X7257090Y244095D02*
X7316145D01*
X7552365Y212599D02*
Y244095D01*
X7493310Y212599D02*
Y244095D01*
Y212599D02*
X7552365D01*
X7493310Y244095D02*
X7552365D01*
X7788586Y212599D02*
Y244095D01*
X7729531Y212599D02*
Y244095D01*
Y212599D02*
X7788586D01*
X7729531Y244095D02*
X7788586D01*
X8024806Y212599D02*
Y244095D01*
X7965751Y212599D02*
Y244095D01*
Y212599D02*
X8024806D01*
X7965751Y244095D02*
X8024806D01*
X10072050Y212599D02*
Y244095D01*
X10012995Y212599D02*
Y244095D01*
Y212599D02*
X10072050D01*
X10012995Y244095D02*
X10072050D01*
X9835830Y212599D02*
Y244095D01*
X9776775Y212599D02*
Y244095D01*
Y212599D02*
X9835830D01*
X9776775Y244095D02*
X9835830D01*
X9599610Y212599D02*
Y244095D01*
X9540554Y212599D02*
Y244095D01*
Y212599D02*
X9599610D01*
X9540554Y244095D02*
X9599610D01*
X9363389Y212599D02*
Y244095D01*
X9304334Y212599D02*
Y244095D01*
Y212599D02*
X9363389D01*
X9304334Y244095D02*
X9363389D01*
X9127168Y212599D02*
Y244095D01*
X9068113Y212599D02*
Y244095D01*
Y212599D02*
X9127168D01*
X9068113Y244095D02*
X9127168D01*
X8890948Y212599D02*
Y244095D01*
X8831893Y212599D02*
Y244095D01*
Y212599D02*
X8890948D01*
X8831893Y244095D02*
X8890948D01*
X8654728Y212599D02*
Y244095D01*
X8595672Y212599D02*
Y244095D01*
Y212599D02*
X8654728D01*
X8595672Y244095D02*
X8654728D01*
X8418507Y212599D02*
Y244095D01*
X8359452Y212599D02*
Y244095D01*
Y212599D02*
X8418507D01*
X8359452Y244095D02*
X8418507D01*
X1795276Y3339764D02*
Y3398819D01*
X1826772Y3339764D02*
Y3398819D01*
X1795276Y3339764D02*
X1826772D01*
X1795276Y3398819D02*
X1826772D01*
X1755906D02*
X1787401D01*
X1755906Y3339764D02*
X1787401D01*
Y3398819D01*
X1755906Y3339764D02*
Y3398819D01*
X1834646Y3887008D02*
X1866142D01*
X1834646Y3827953D02*
X1866142D01*
Y3887008D01*
X1834646Y3827953D02*
Y3887008D01*
X2023622Y3828740D02*
Y3887795D01*
X1992126Y3828740D02*
Y3887795D01*
X2023622D01*
X1992126Y3828740D02*
X2023622D01*
Y4064961D02*
Y4124016D01*
X1992126Y4064961D02*
Y4124016D01*
X2023622D01*
X1992126Y4064961D02*
X2023622D01*
X1834646Y4124016D02*
X1866142D01*
X1834646Y4064961D02*
X1866142D01*
Y4124016D01*
X1834646Y4064961D02*
Y4124016D01*
X762205Y3789370D02*
Y3848425D01*
X730709Y3789370D02*
Y3848425D01*
X762205D01*
X730709Y3789370D02*
X762205D01*
X769291D02*
X800787D01*
X769291Y3848425D02*
X800787D01*
X769291Y3789370D02*
Y3848425D01*
X800787Y3789370D02*
Y3848425D01*
X1085827Y3283465D02*
X1144882D01*
X1085827Y3251968D02*
X1144882D01*
X1085827D02*
Y3283465D01*
X1144882Y3251968D02*
Y3283465D01*
X1085827Y3322835D02*
X1144882D01*
X1085827Y3291339D02*
X1144882D01*
X1085827D02*
Y3322835D01*
X1144882Y3291339D02*
Y3322835D01*
X1007874Y3416142D02*
X1039370D01*
X1007874Y3475197D02*
X1039370D01*
X1007874Y3416142D02*
Y3475197D01*
X1039370Y3416142D02*
Y3475197D01*
X7639370Y3238189D02*
X7670866D01*
X7639370Y3297244D02*
X7670866D01*
X7639370Y3238189D02*
Y3297244D01*
X7670866Y3238189D02*
Y3297244D01*
X7635433Y3238189D02*
Y3297244D01*
X7603937Y3238189D02*
Y3297244D01*
X7635433D01*
X7603937Y3238189D02*
X7635433D01*
X7464567Y3218504D02*
Y3277559D01*
X7496063Y3218504D02*
Y3277559D01*
X7464567Y3218504D02*
X7496063D01*
X7464567Y3277559D02*
X7496063D01*
X7639370Y3828740D02*
X7670866D01*
X7639370Y3887795D02*
X7670866D01*
X7639370Y3828740D02*
Y3887795D01*
X7670866Y3828740D02*
Y3887795D01*
X7635433Y3828740D02*
Y3887795D01*
X7603937Y3828740D02*
Y3887795D01*
X7635433D01*
X7603937Y3828740D02*
X7635433D01*
X7464567Y3809055D02*
Y3868110D01*
X7496063Y3809055D02*
Y3868110D01*
X7464567Y3809055D02*
X7496063D01*
X7464567Y3868110D02*
X7496063D01*
X7639370Y4419291D02*
X7670866D01*
X7639370Y4478346D02*
X7670866D01*
X7639370Y4419291D02*
Y4478346D01*
X7670866Y4419291D02*
Y4478346D01*
X7635433Y4419291D02*
Y4478346D01*
X7603937Y4419291D02*
Y4478346D01*
X7635433D01*
X7603937Y4419291D02*
X7635433D01*
X7464567Y4399606D02*
Y4458662D01*
X7496063Y4399606D02*
Y4458662D01*
X7464567Y4399606D02*
X7496063D01*
X7464567Y4458662D02*
X7496063D01*
X8724409Y3218504D02*
Y3277559D01*
X8755906Y3218504D02*
Y3277559D01*
X8724409Y3218504D02*
X8755906D01*
X8724409Y3277559D02*
X8755906D01*
X8881890Y3218504D02*
X8913386D01*
X8881890Y3277559D02*
X8913386D01*
X8881890Y3218504D02*
Y3277559D01*
X8913386Y3218504D02*
Y3277559D01*
X8992126Y3218504D02*
Y3277559D01*
X8960630Y3218504D02*
Y3277559D01*
X8992126D01*
X8960630Y3218504D02*
X8992126D01*
X8881890Y3809055D02*
X8913386D01*
X8881890Y3868110D02*
X8913386D01*
X8881890Y3809055D02*
Y3868110D01*
X8913386Y3809055D02*
Y3868110D01*
X8724409Y3809055D02*
Y3868110D01*
X8755906Y3809055D02*
Y3868110D01*
X8724409Y3809055D02*
X8755906D01*
X8724409Y3868110D02*
X8755906D01*
X8881890Y4399606D02*
X8913386D01*
X8881890Y4458662D02*
X8913386D01*
X8881890Y4399606D02*
Y4458662D01*
X8913386Y4399606D02*
Y4458662D01*
X8724409Y4399606D02*
Y4458662D01*
X8755906Y4399606D02*
Y4458662D01*
X8724409Y4399606D02*
X8755906D01*
X8724409Y4458662D02*
X8755906D01*
X9009055Y3645669D02*
X9068110D01*
X9009055Y3677165D02*
X9068110D01*
Y3645669D02*
Y3677165D01*
X9009055Y3645669D02*
Y3677165D01*
Y4236221D02*
X9068110D01*
X9009055Y4267717D02*
X9068110D01*
Y4236221D02*
Y4267717D01*
X9009055Y4236221D02*
Y4267717D01*
X9891732Y2614173D02*
X9950787D01*
X9891732Y2582677D02*
X9950787D01*
X9891732D02*
Y2614173D01*
X9950787Y2582677D02*
Y2614173D01*
X9891732Y2622047D02*
X9950787D01*
X9891732Y2653543D02*
X9950787D01*
Y2622047D02*
Y2653543D01*
X9891732Y2622047D02*
Y2653543D01*
Y2692913D02*
X9950787D01*
X9891732Y2661417D02*
X9950787D01*
X9891732D02*
Y2692913D01*
X9950787Y2661417D02*
Y2692913D01*
X9891732Y2732283D02*
X9950787D01*
X9891732Y2700787D02*
X9950787D01*
X9891732D02*
Y2732283D01*
X9950787Y2700787D02*
Y2732283D01*
X9891732Y3204724D02*
X9950787D01*
X9891732Y3173228D02*
X9950787D01*
X9891732D02*
Y3204724D01*
X9950787Y3173228D02*
Y3204724D01*
X9891732Y3212599D02*
X9950787D01*
X9891732Y3244095D02*
X9950787D01*
Y3212599D02*
Y3244095D01*
X9891732Y3212599D02*
Y3244095D01*
Y3283465D02*
X9950787D01*
X9891732Y3251968D02*
X9950787D01*
X9891732D02*
Y3283465D01*
X9950787Y3251968D02*
Y3283465D01*
X9891732Y3322835D02*
X9950787D01*
X9891732Y3291339D02*
X9950787D01*
X9891732D02*
Y3322835D01*
X9950787Y3291339D02*
Y3322835D01*
X9891732Y3795276D02*
X9950787D01*
X9891732Y3763780D02*
X9950787D01*
X9891732D02*
Y3795276D01*
X9950787Y3763780D02*
Y3795276D01*
X9891732Y3803150D02*
X9950787D01*
X9891732Y3834646D02*
X9950787D01*
Y3803150D02*
Y3834646D01*
X9891732Y3803150D02*
Y3834646D01*
Y3874016D02*
X9950787D01*
X9891732Y3842520D02*
X9950787D01*
X9891732D02*
Y3874016D01*
X9950787Y3842520D02*
Y3874016D01*
X9891732Y3913386D02*
X9950787D01*
X9891732Y3881890D02*
X9950787D01*
X9891732D02*
Y3913386D01*
X9950787Y3881890D02*
Y3913386D01*
X9695472Y3685039D02*
X9754528D01*
X9695472Y3716535D02*
X9754528D01*
Y3685039D02*
Y3716535D01*
X9695472Y3685039D02*
Y3716535D01*
Y3094488D02*
X9754528D01*
X9695472Y3125984D02*
X9754528D01*
Y3094488D02*
Y3125984D01*
X9695472Y3094488D02*
Y3125984D01*
Y2503937D02*
X9754528D01*
X9695472Y2535433D02*
X9754528D01*
Y2503937D02*
Y2535433D01*
X9695472Y2503937D02*
Y2535433D01*
Y2779528D02*
X9754528D01*
X9695472Y2811024D02*
X9754528D01*
Y2779528D02*
Y2811024D01*
X9695472Y2779528D02*
Y2811024D01*
Y3370079D02*
X9754528D01*
X9695472Y3401575D02*
X9754528D01*
Y3370079D02*
Y3401575D01*
X9695472Y3370079D02*
Y3401575D01*
Y3960630D02*
X9754528D01*
X9695472Y3992126D02*
X9754528D01*
Y3960630D02*
Y3992126D01*
X9695472Y3960630D02*
Y3992126D01*
X9584252Y2662205D02*
X9615748D01*
X9584252Y2721260D02*
X9615748D01*
X9584252Y2662205D02*
Y2721260D01*
X9615748Y2662205D02*
Y2721260D01*
X9584252Y3252756D02*
X9615748D01*
X9584252Y3311811D02*
X9615748D01*
X9584252Y3252756D02*
Y3311811D01*
X9615748Y3252756D02*
Y3311811D01*
X9584252Y3843307D02*
X9615748D01*
X9584252Y3902362D02*
X9615748D01*
X9584252Y3843307D02*
Y3902362D01*
X9615748Y3843307D02*
Y3902362D01*
X9686496Y3960630D02*
Y3992126D01*
X9627441Y3960630D02*
Y3992126D01*
Y3960630D02*
X9686496D01*
X9627441Y3992126D02*
X9686496D01*
Y3370079D02*
Y3401575D01*
X9627441Y3370079D02*
Y3401575D01*
Y3370079D02*
X9686496D01*
X9627441Y3401575D02*
X9686496D01*
Y2779528D02*
Y2811024D01*
X9627441Y2779528D02*
Y2811024D01*
Y2779528D02*
X9686496D01*
X9627441Y2811024D02*
X9686496D01*
X9575748Y2661417D02*
Y2720472D01*
X9544252Y2661417D02*
Y2720472D01*
X9575748D01*
X9544252Y2661417D02*
X9575748D01*
Y3251968D02*
Y3311024D01*
X9544252Y3251968D02*
Y3311024D01*
X9575748D01*
X9544252Y3251968D02*
X9575748D01*
Y3842520D02*
Y3901575D01*
X9544252Y3842520D02*
Y3901575D01*
X9575748D01*
X9544252Y3842520D02*
X9575748D01*
Y4433071D02*
Y4492126D01*
X9544252Y4433071D02*
Y4492126D01*
X9575748D01*
X9544252Y4433071D02*
X9575748D01*
X9584252Y4433858D02*
X9615748D01*
X9584252Y4492913D02*
X9615748D01*
X9584252Y4433858D02*
Y4492913D01*
X9615748Y4433858D02*
Y4492913D01*
X9695472Y4275591D02*
X9754528D01*
X9695472Y4307087D02*
X9754528D01*
Y4275591D02*
Y4307087D01*
X9695472Y4275591D02*
Y4307087D01*
Y4551181D02*
X9754528D01*
X9695472Y4582677D02*
X9754528D01*
Y4551181D02*
Y4582677D01*
X9695472Y4551181D02*
Y4582677D01*
X9686496Y4551181D02*
Y4582677D01*
X9627441Y4551181D02*
Y4582677D01*
Y4551181D02*
X9686496D01*
X9627441Y4582677D02*
X9686496D01*
X9891732Y4385827D02*
X9950787D01*
X9891732Y4354331D02*
X9950787D01*
X9891732D02*
Y4385827D01*
X9950787Y4354331D02*
Y4385827D01*
X9891732Y4393701D02*
X9950787D01*
X9891732Y4425197D02*
X9950787D01*
Y4393701D02*
Y4425197D01*
X9891732Y4393701D02*
Y4425197D01*
Y4464567D02*
X9950787D01*
X9891732Y4433071D02*
X9950787D01*
X9891732D02*
Y4464567D01*
X9950787Y4433071D02*
Y4464567D01*
X9891732Y4503937D02*
X9950787D01*
X9891732Y4472441D02*
X9950787D01*
X9891732D02*
Y4503937D01*
X9950787Y4472441D02*
Y4503937D01*
X7032283Y5146850D02*
Y5246850D01*
X6432283Y5146850D02*
Y5246850D01*
Y5146850D02*
X7032283D01*
X6432283Y5246850D02*
X7032283D01*
X6166142Y5146850D02*
Y5246850D01*
X5566142Y5146850D02*
Y5246850D01*
Y5146850D02*
X6166142D01*
X5566142Y5246850D02*
X6166142D01*
X5281890Y5146850D02*
Y5246850D01*
X4481890Y5146850D02*
Y5246850D01*
Y5146850D02*
X5281890D01*
X4481890Y5246850D02*
X5281890D01*
X3905921Y5166535D02*
Y5225591D01*
X3937417Y5166535D02*
Y5225591D01*
X3905921Y5166535D02*
X3937417D01*
X3905921Y5225591D02*
X3937417D01*
X3856709Y5167323D02*
X3888205D01*
X3856709Y5226378D02*
X3888205D01*
X3856709Y5167323D02*
Y5226378D01*
X3888205Y5167323D02*
Y5226378D01*
X3807496Y5167323D02*
X3838992D01*
X3807496Y5226378D02*
X3838992D01*
X3807496Y5167323D02*
Y5226378D01*
X3838992Y5167323D02*
Y5226378D01*
X3758284Y5167323D02*
Y5226378D01*
X3789780Y5167323D02*
Y5226378D01*
X3758284Y5167323D02*
X3789780D01*
X3758284Y5226378D02*
X3789780D01*
X3039780Y5166535D02*
Y5225591D01*
X3071276Y5166535D02*
Y5225591D01*
X3039780Y5166535D02*
X3071276D01*
X3039780Y5225591D02*
X3071276D01*
X2990567Y5167323D02*
X3022063D01*
X2990567Y5226378D02*
X3022063D01*
X2990567Y5167323D02*
Y5226378D01*
X3022063Y5167323D02*
Y5226378D01*
X2941354Y5167323D02*
X2972850D01*
X2941354Y5226378D02*
X2972850D01*
X2941354Y5167323D02*
Y5226378D01*
X2972850Y5167323D02*
Y5226378D01*
X2892142Y5167323D02*
Y5226378D01*
X2923638Y5167323D02*
Y5226378D01*
X2892142Y5167323D02*
X2923638D01*
X2892142Y5226378D02*
X2923638D01*
X3629638Y5526575D02*
X4163638D01*
X3629638Y5323575D02*
X4163638D01*
X3629638D02*
Y5526575D01*
X4163638Y5323575D02*
Y5526575D01*
X2763496D02*
X3297496D01*
X2763496Y5323575D02*
X3297496D01*
X2763496D02*
Y5526575D01*
X3297496Y5323575D02*
Y5526575D01*
X10103150Y5146850D02*
Y5246850D01*
X9503150Y5146850D02*
Y5246850D01*
Y5146850D02*
X10103150D01*
X9503150Y5246850D02*
X10103150D01*
X8550898Y5526575D02*
X9084898D01*
X8550898Y5323575D02*
X9084898D01*
X8550898D02*
Y5526575D01*
X9084898Y5323575D02*
Y5526575D01*
X8418898Y5146850D02*
Y5246850D01*
X9218898Y5146850D02*
Y5246850D01*
X8418898D02*
X9218898D01*
X8418898Y5146850D02*
X9218898D01*
X7448535Y5526575D02*
X7982535D01*
X7448535Y5323575D02*
X7982535D01*
X7448535D02*
Y5526575D01*
X7982535Y5323575D02*
Y5526575D01*
X7737008Y5118776D02*
X7796063D01*
X7737008Y5087280D02*
X7796063D01*
X7737008D02*
Y5118776D01*
X7796063Y5087280D02*
Y5118776D01*
X7837008D02*
X7896063D01*
X7837008Y5087280D02*
X7896063D01*
X7837008D02*
Y5118776D01*
X7896063Y5087280D02*
Y5118776D01*
X7937008D02*
X7996063D01*
X7937008Y5087280D02*
X7996063D01*
X7937008D02*
Y5118776D01*
X7996063Y5087280D02*
Y5118776D01*
X7316535Y5146850D02*
Y5246850D01*
X8116535Y5146850D02*
Y5246850D01*
X7316535D02*
X8116535D01*
X7316535Y5146850D02*
X8116535D01*
X1832284Y2864528D02*
X1863780D01*
X1832284Y2805472D02*
X1863780D01*
Y2864528D01*
X1832284Y2805472D02*
Y2864528D01*
X1793701Y2805472D02*
Y2864528D01*
X1825197Y2805472D02*
Y2864528D01*
X1793701Y2805472D02*
X1825197D01*
X1793701Y2864528D02*
X1825197D01*
X2749606Y1603543D02*
Y1703543D01*
X3549606Y1603543D02*
Y1703543D01*
X2749606D02*
X3549606D01*
X2749606Y1603543D02*
X3549606D01*
X4796850D02*
Y1703543D01*
X5596850Y1603543D02*
Y1703543D01*
X4796850D02*
X5596850D01*
X4796850Y1603543D02*
X5596850D01*
X6844095D02*
Y1703543D01*
X7644095Y1603543D02*
Y1703543D01*
X6844095D02*
X7644095D01*
X6844095Y1603543D02*
X7644095D01*
X8891339D02*
Y1703543D01*
X9691339Y1603543D02*
Y1703543D01*
X8891339D02*
X9691339D01*
X8891339Y1603543D02*
X9691339D01*
X702362D02*
Y1703543D01*
X1502362Y1603543D02*
Y1703543D01*
X702362D02*
X1502362D01*
X702362Y1603543D02*
X1502362D01*
X1768504Y5082677D02*
X1827559D01*
X1768504Y5114173D02*
X1827559D01*
Y5082677D02*
Y5114173D01*
X1768504Y5082677D02*
Y5114173D01*
X1668504Y5082677D02*
X1727559D01*
X1668504Y5114173D02*
X1727559D01*
Y5082677D02*
Y5114173D01*
X1668504Y5082677D02*
Y5114173D01*
X1667717Y5366181D02*
Y5397677D01*
X1726772Y5366181D02*
Y5397677D01*
X1667717D02*
X1726772D01*
X1667717Y5366181D02*
X1726772D01*
X1667717Y5297677D02*
X1726772D01*
X1667717Y5266181D02*
X1726772D01*
X1667717D02*
Y5297677D01*
X1726772Y5266181D02*
Y5297677D01*
X1647244Y5146850D02*
Y5246850D01*
X2447244Y5146850D02*
Y5246850D01*
X1647244D02*
X2447244D01*
X1647244Y5146850D02*
X2447244D01*
X1098425Y5065413D02*
Y5124468D01*
X1129921Y5065413D02*
Y5124468D01*
X1098425Y5065413D02*
X1129921D01*
X1098425Y5124468D02*
X1129921D01*
X1039370Y5065413D02*
Y5124468D01*
X1007874Y5065413D02*
Y5124468D01*
X1039370D01*
X1007874Y5065413D02*
X1039370D01*
X962598D02*
Y5124468D01*
X994094Y5065413D02*
Y5124468D01*
X962598Y5065413D02*
X994094D01*
X962598Y5124468D02*
X994094D01*
X917323Y5065413D02*
Y5124468D01*
X948819Y5065413D02*
Y5124468D01*
X917323Y5065413D02*
X948819D01*
X917323Y5124468D02*
X948819D01*
X5535354Y3384528D02*
Y3443583D01*
X5566850Y3384528D02*
Y3443583D01*
X5535354Y3384528D02*
X5566850D01*
X5535354Y3443583D02*
X5566850D01*
X4764661Y3108472D02*
Y4120472D01*
X5500661Y3108472D02*
Y4120472D01*
X4764661Y3108472D02*
X5500661D01*
X4764661Y4120472D02*
X5500661D01*
X4890472Y4164055D02*
Y4223110D01*
X4921968Y4164055D02*
Y4223110D01*
X4890472Y4164055D02*
X4921968D01*
X4890472Y4223110D02*
X4921968D01*
X4980236Y4164055D02*
Y4223110D01*
X5011732Y4164055D02*
Y4223110D01*
X4980236Y4164055D02*
X5011732D01*
X4980236Y4223110D02*
X5011732D01*
X5062913Y4164055D02*
Y4223110D01*
X5094409Y4164055D02*
Y4223110D01*
X5062913Y4164055D02*
X5094409D01*
X5062913Y4223110D02*
X5094409D01*
X5190472Y4164055D02*
Y4223110D01*
X5221968Y4164055D02*
Y4223110D01*
X5190472Y4164055D02*
X5221968D01*
X5190472Y4223110D02*
X5221968D01*
X3173228Y759213D02*
Y818268D01*
X3204724Y759213D02*
Y818268D01*
X3173228Y759213D02*
X3204724D01*
X3173228Y818268D02*
X3204724D01*
X3409449Y759213D02*
Y818268D01*
X3440945Y759213D02*
Y818268D01*
X3409449Y759213D02*
X3440945D01*
X3409449Y818268D02*
X3440945D01*
X3645669Y759213D02*
Y818268D01*
X3677165Y759213D02*
Y818268D01*
X3645669Y759213D02*
X3677165D01*
X3645669Y818268D02*
X3677165D01*
X3881890Y759213D02*
Y818268D01*
X3913386Y759213D02*
Y818268D01*
X3881890Y759213D02*
X3913386D01*
X3881890Y818268D02*
X3913386D01*
X2228347Y759213D02*
Y818268D01*
X2259843Y759213D02*
Y818268D01*
X2228347Y759213D02*
X2259843D01*
X2228347Y818268D02*
X2259843D01*
X2464567Y759213D02*
Y818268D01*
X2496063Y759213D02*
Y818268D01*
X2464567Y759213D02*
X2496063D01*
X2464567Y818268D02*
X2496063D01*
X2700787Y759213D02*
Y818268D01*
X2732283Y759213D02*
Y818268D01*
X2700787Y759213D02*
X2732283D01*
X2700787Y818268D02*
X2732283D01*
X2937008Y759213D02*
Y818268D01*
X2968504Y759213D02*
Y818268D01*
X2937008Y759213D02*
X2968504D01*
X2937008Y818268D02*
X2968504D01*
X5220472Y759213D02*
Y818268D01*
X5251968Y759213D02*
Y818268D01*
X5220472Y759213D02*
X5251968D01*
X5220472Y818268D02*
X5251968D01*
X5456693Y759213D02*
Y818268D01*
X5488189Y759213D02*
Y818268D01*
X5456693Y759213D02*
X5488189D01*
X5456693Y818268D02*
X5488189D01*
X5692913Y759213D02*
Y818268D01*
X5724409Y759213D02*
Y818268D01*
X5692913Y759213D02*
X5724409D01*
X5692913Y818268D02*
X5724409D01*
X5929134Y759213D02*
Y818268D01*
X5960630Y759213D02*
Y818268D01*
X5929134Y759213D02*
X5960630D01*
X5929134Y818268D02*
X5960630D01*
X4275591Y759213D02*
Y818268D01*
X4307087Y759213D02*
Y818268D01*
X4275591Y759213D02*
X4307087D01*
X4275591Y818268D02*
X4307087D01*
X4511811Y759213D02*
Y818268D01*
X4543307Y759213D02*
Y818268D01*
X4511811Y759213D02*
X4543307D01*
X4511811Y818268D02*
X4543307D01*
X4748032Y759213D02*
Y818268D01*
X4779528Y759213D02*
Y818268D01*
X4748032Y759213D02*
X4779528D01*
X4748032Y818268D02*
X4779528D01*
X4984252Y759213D02*
Y818268D01*
X5015748Y759213D02*
Y818268D01*
X4984252Y759213D02*
X5015748D01*
X4984252Y818268D02*
X5015748D01*
X7267717Y759213D02*
Y818268D01*
X7299213Y759213D02*
Y818268D01*
X7267717Y759213D02*
X7299213D01*
X7267717Y818268D02*
X7299213D01*
X7503937Y759213D02*
Y818268D01*
X7535433Y759213D02*
Y818268D01*
X7503937Y759213D02*
X7535433D01*
X7503937Y818268D02*
X7535433D01*
X7740158Y759213D02*
Y818268D01*
X7771654Y759213D02*
Y818268D01*
X7740158Y759213D02*
X7771654D01*
X7740158Y818268D02*
X7771654D01*
X7976378Y759213D02*
Y818268D01*
X8007874Y759213D02*
Y818268D01*
X7976378Y759213D02*
X8007874D01*
X7976378Y818268D02*
X8007874D01*
X6322835Y759213D02*
Y818268D01*
X6354331Y759213D02*
Y818268D01*
X6322835Y759213D02*
X6354331D01*
X6322835Y818268D02*
X6354331D01*
X6559055Y759213D02*
Y818268D01*
X6590551Y759213D02*
Y818268D01*
X6559055Y759213D02*
X6590551D01*
X6559055Y818268D02*
X6590551D01*
X6795276Y759213D02*
Y818268D01*
X6826772Y759213D02*
Y818268D01*
X6795276Y759213D02*
X6826772D01*
X6795276Y818268D02*
X6826772D01*
X7031496Y759213D02*
Y818268D01*
X7062992Y759213D02*
Y818268D01*
X7031496Y759213D02*
X7062992D01*
X7031496Y818268D02*
X7062992D01*
X9314961Y759213D02*
Y818268D01*
X9346457Y759213D02*
Y818268D01*
X9314961Y759213D02*
X9346457D01*
X9314961Y818268D02*
X9346457D01*
X9551181Y759213D02*
Y818268D01*
X9582677Y759213D02*
Y818268D01*
X9551181Y759213D02*
X9582677D01*
X9551181Y818268D02*
X9582677D01*
X9787402Y759213D02*
Y818268D01*
X9818898Y759213D02*
Y818268D01*
X9787402Y759213D02*
X9818898D01*
X9787402Y818268D02*
X9818898D01*
X10023622Y759213D02*
Y818268D01*
X10055118Y759213D02*
Y818268D01*
X10023622Y759213D02*
X10055118D01*
X10023622Y818268D02*
X10055118D01*
X8370079Y759213D02*
Y818268D01*
X8401575Y759213D02*
Y818268D01*
X8370079Y759213D02*
X8401575D01*
X8370079Y818268D02*
X8401575D01*
X8606299Y759213D02*
Y818268D01*
X8637795Y759213D02*
Y818268D01*
X8606299Y759213D02*
X8637795D01*
X8606299Y818268D02*
X8637795D01*
X8842520Y759213D02*
Y818268D01*
X8874016Y759213D02*
Y818268D01*
X8842520Y759213D02*
X8874016D01*
X8842520Y818268D02*
X8874016D01*
X9078740Y759213D02*
Y818268D01*
X9110236Y759213D02*
Y818268D01*
X9078740Y759213D02*
X9110236D01*
X9078740Y818268D02*
X9110236D01*
X3276772Y822992D02*
Y854488D01*
X3217716Y822992D02*
Y854488D01*
Y822992D02*
X3276772D01*
X3217716Y854488D02*
X3276772D01*
X3512992Y822992D02*
Y854488D01*
X3453937Y822992D02*
Y854488D01*
Y822992D02*
X3512992D01*
X3453937Y854488D02*
X3512992D01*
X3749213Y822992D02*
Y854488D01*
X3690157Y822992D02*
Y854488D01*
Y822992D02*
X3749213D01*
X3690157Y854488D02*
X3749213D01*
X3985433Y822992D02*
Y854488D01*
X3926378Y822992D02*
Y854488D01*
Y822992D02*
X3985433D01*
X3926378Y854488D02*
X3985433D01*
X2331890Y822992D02*
Y854488D01*
X2272835Y822992D02*
Y854488D01*
Y822992D02*
X2331890D01*
X2272835Y854488D02*
X2331890D01*
X2568110Y822992D02*
Y854488D01*
X2509055Y822992D02*
Y854488D01*
Y822992D02*
X2568110D01*
X2509055Y854488D02*
X2568110D01*
X2804331Y822992D02*
Y854488D01*
X2745276Y822992D02*
Y854488D01*
Y822992D02*
X2804331D01*
X2745276Y854488D02*
X2804331D01*
X3040551Y822992D02*
Y854488D01*
X2981496Y822992D02*
Y854488D01*
Y822992D02*
X3040551D01*
X2981496Y854488D02*
X3040551D01*
X5324016Y822992D02*
Y854488D01*
X5264961Y822992D02*
Y854488D01*
Y822992D02*
X5324016D01*
X5264961Y854488D02*
X5324016D01*
X5560236Y822992D02*
Y854488D01*
X5501181Y822992D02*
Y854488D01*
Y822992D02*
X5560236D01*
X5501181Y854488D02*
X5560236D01*
X5796457Y822992D02*
Y854488D01*
X5737401Y822992D02*
Y854488D01*
Y822992D02*
X5796457D01*
X5737401Y854488D02*
X5796457D01*
X6032677Y822992D02*
Y854488D01*
X5973622Y822992D02*
Y854488D01*
Y822992D02*
X6032677D01*
X5973622Y854488D02*
X6032677D01*
X4379134Y822992D02*
Y854488D01*
X4320079Y822992D02*
Y854488D01*
Y822992D02*
X4379134D01*
X4320079Y854488D02*
X4379134D01*
X4615354Y822992D02*
Y854488D01*
X4556299Y822992D02*
Y854488D01*
Y822992D02*
X4615354D01*
X4556299Y854488D02*
X4615354D01*
X4851575Y822992D02*
Y854488D01*
X4792520Y822992D02*
Y854488D01*
Y822992D02*
X4851575D01*
X4792520Y854488D02*
X4851575D01*
X5087795Y822992D02*
Y854488D01*
X5028740Y822992D02*
Y854488D01*
Y822992D02*
X5087795D01*
X5028740Y854488D02*
X5087795D01*
X7371260Y822992D02*
Y854488D01*
X7312205Y822992D02*
Y854488D01*
Y822992D02*
X7371260D01*
X7312205Y854488D02*
X7371260D01*
X7607480Y822992D02*
Y854488D01*
X7548425Y822992D02*
Y854488D01*
Y822992D02*
X7607480D01*
X7548425Y854488D02*
X7607480D01*
X7843701Y822992D02*
Y854488D01*
X7784646Y822992D02*
Y854488D01*
Y822992D02*
X7843701D01*
X7784646Y854488D02*
X7843701D01*
X8079921Y822992D02*
Y854488D01*
X8020866Y822992D02*
Y854488D01*
Y822992D02*
X8079921D01*
X8020866Y854488D02*
X8079921D01*
X6426378Y822992D02*
Y854488D01*
X6367323Y822992D02*
Y854488D01*
Y822992D02*
X6426378D01*
X6367323Y854488D02*
X6426378D01*
X6662599Y822992D02*
Y854488D01*
X6603543Y822992D02*
Y854488D01*
Y822992D02*
X6662599D01*
X6603543Y854488D02*
X6662599D01*
X6898819Y822992D02*
Y854488D01*
X6839764Y822992D02*
Y854488D01*
Y822992D02*
X6898819D01*
X6839764Y854488D02*
X6898819D01*
X7135039Y822992D02*
Y854488D01*
X7075984Y822992D02*
Y854488D01*
Y822992D02*
X7135039D01*
X7075984Y854488D02*
X7135039D01*
X9418504Y822992D02*
Y854488D01*
X9359449Y822992D02*
Y854488D01*
Y822992D02*
X9418504D01*
X9359449Y854488D02*
X9418504D01*
X9654725Y822992D02*
Y854488D01*
X9595669Y822992D02*
Y854488D01*
Y822992D02*
X9654725D01*
X9595669Y854488D02*
X9654725D01*
X9890945Y822992D02*
Y854488D01*
X9831890Y822992D02*
Y854488D01*
Y822992D02*
X9890945D01*
X9831890Y854488D02*
X9890945D01*
X10127165Y822992D02*
Y854488D01*
X10068110Y822992D02*
Y854488D01*
Y822992D02*
X10127165D01*
X10068110Y854488D02*
X10127165D01*
X8473622Y822992D02*
Y854488D01*
X8414567Y822992D02*
Y854488D01*
Y822992D02*
X8473622D01*
X8414567Y854488D02*
X8473622D01*
X8709843Y822992D02*
Y854488D01*
X8650787Y822992D02*
Y854488D01*
Y822992D02*
X8709843D01*
X8650787Y854488D02*
X8709843D01*
X8946063Y822992D02*
Y854488D01*
X8887008Y822992D02*
Y854488D01*
Y822992D02*
X8946063D01*
X8887008Y854488D02*
X8946063D01*
X9182283Y822992D02*
Y854488D01*
X9123228Y822992D02*
Y854488D01*
Y822992D02*
X9182283D01*
X9123228Y854488D02*
X9182283D01*
X9405512Y655472D02*
Y714528D01*
X9374016Y655472D02*
Y714528D01*
X9405512D01*
X9374016Y655472D02*
X9405512D01*
X9641732D02*
Y714528D01*
X9610236Y655472D02*
Y714528D01*
X9641732D01*
X9610236Y655472D02*
X9641732D01*
X9877953D02*
Y714528D01*
X9846457Y655472D02*
Y714528D01*
X9877953D01*
X9846457Y655472D02*
X9877953D01*
X10114173D02*
Y714528D01*
X10082677Y655472D02*
Y714528D01*
X10114173D01*
X10082677Y655472D02*
X10114173D01*
X8460630D02*
Y714528D01*
X8429134Y655472D02*
Y714528D01*
X8460630D01*
X8429134Y655472D02*
X8460630D01*
X8696850D02*
Y714528D01*
X8665354Y655472D02*
Y714528D01*
X8696850D01*
X8665354Y655472D02*
X8696850D01*
X8933071D02*
Y714528D01*
X8901575Y655472D02*
Y714528D01*
X8933071D01*
X8901575Y655472D02*
X8933071D01*
X9169291D02*
Y714528D01*
X9137795Y655472D02*
Y714528D01*
X9169291D01*
X9137795Y655472D02*
X9169291D01*
X7358268D02*
Y714528D01*
X7326772Y655472D02*
Y714528D01*
X7358268D01*
X7326772Y655472D02*
X7358268D01*
X7594488D02*
Y714528D01*
X7562992Y655472D02*
Y714528D01*
X7594488D01*
X7562992Y655472D02*
X7594488D01*
X7830709D02*
Y714528D01*
X7799213Y655472D02*
Y714528D01*
X7830709D01*
X7799213Y655472D02*
X7830709D01*
X8066929D02*
Y714528D01*
X8035433Y655472D02*
Y714528D01*
X8066929D01*
X8035433Y655472D02*
X8066929D01*
X6413386D02*
Y714528D01*
X6381890Y655472D02*
Y714528D01*
X6413386D01*
X6381890Y655472D02*
X6413386D01*
X6649606D02*
Y714528D01*
X6618110Y655472D02*
Y714528D01*
X6649606D01*
X6618110Y655472D02*
X6649606D01*
X6885827D02*
Y714528D01*
X6854331Y655472D02*
Y714528D01*
X6885827D01*
X6854331Y655472D02*
X6885827D01*
X7122047D02*
Y714528D01*
X7090551Y655472D02*
Y714528D01*
X7122047D01*
X7090551Y655472D02*
X7122047D01*
X5311024D02*
Y714528D01*
X5279528Y655472D02*
Y714528D01*
X5311024D01*
X5279528Y655472D02*
X5311024D01*
X5547244D02*
Y714528D01*
X5515748Y655472D02*
Y714528D01*
X5547244D01*
X5515748Y655472D02*
X5547244D01*
X5783465D02*
Y714528D01*
X5751968Y655472D02*
Y714528D01*
X5783465D01*
X5751968Y655472D02*
X5783465D01*
X6019685D02*
Y714528D01*
X5988189Y655472D02*
Y714528D01*
X6019685D01*
X5988189Y655472D02*
X6019685D01*
X4366142D02*
Y714528D01*
X4334646Y655472D02*
Y714528D01*
X4366142D01*
X4334646Y655472D02*
X4366142D01*
X4602362D02*
Y714528D01*
X4570866Y655472D02*
Y714528D01*
X4602362D01*
X4570866Y655472D02*
X4602362D01*
X4838583D02*
Y714528D01*
X4807087Y655472D02*
Y714528D01*
X4838583D01*
X4807087Y655472D02*
X4838583D01*
X5074803D02*
Y714528D01*
X5043307Y655472D02*
Y714528D01*
X5074803D01*
X5043307Y655472D02*
X5074803D01*
X3263780D02*
Y714528D01*
X3232284Y655472D02*
Y714528D01*
X3263780D01*
X3232284Y655472D02*
X3263780D01*
X3500000D02*
Y714528D01*
X3468504Y655472D02*
Y714528D01*
X3500000D01*
X3468504Y655472D02*
X3500000D01*
X3736220D02*
Y714528D01*
X3704724Y655472D02*
Y714528D01*
X3736220D01*
X3704724Y655472D02*
X3736220D01*
X3972441D02*
Y714528D01*
X3940945Y655472D02*
Y714528D01*
X3972441D01*
X3940945Y655472D02*
X3972441D01*
X2318898D02*
Y714528D01*
X2287402Y655472D02*
Y714528D01*
X2318898D01*
X2287402Y655472D02*
X2318898D01*
X2555118D02*
Y714528D01*
X2523622Y655472D02*
Y714528D01*
X2555118D01*
X2523622Y655472D02*
X2555118D01*
X2791338D02*
Y714528D01*
X2759843Y655472D02*
Y714528D01*
X2791338D01*
X2759843Y655472D02*
X2791338D01*
X3027559D02*
Y714528D01*
X2996063Y655472D02*
Y714528D01*
X3027559D01*
X2996063Y655472D02*
X3027559D01*
X417323Y759213D02*
Y818268D01*
X448819Y759213D02*
Y818268D01*
X417323Y759213D02*
X448819D01*
X417323Y818268D02*
X448819D01*
X653543Y759213D02*
Y818268D01*
X685039Y759213D02*
Y818268D01*
X653543Y759213D02*
X685039D01*
X653543Y818268D02*
X685039D01*
X889764Y759213D02*
Y818268D01*
X921260Y759213D02*
Y818268D01*
X889764Y759213D02*
X921260D01*
X889764Y818268D02*
X921260D01*
X1125984Y759213D02*
Y818268D01*
X1157480Y759213D02*
Y818268D01*
X1125984Y759213D02*
X1157480D01*
X1125984Y818268D02*
X1157480D01*
X1362205Y759213D02*
Y818268D01*
X1393701Y759213D02*
Y818268D01*
X1362205Y759213D02*
X1393701D01*
X1362205Y818268D02*
X1393701D01*
X1598425Y759213D02*
Y818268D01*
X1629921Y759213D02*
Y818268D01*
X1598425Y759213D02*
X1629921D01*
X1598425Y818268D02*
X1629921D01*
X1834646Y759213D02*
Y818268D01*
X1866142Y759213D02*
Y818268D01*
X1834646Y759213D02*
X1866142D01*
X1834646Y818268D02*
X1866142D01*
X520866Y822992D02*
Y854488D01*
X461811Y822992D02*
Y854488D01*
Y822992D02*
X520866D01*
X461811Y854488D02*
X520866D01*
X757087Y822992D02*
Y854488D01*
X698032Y822992D02*
Y854488D01*
Y822992D02*
X757087D01*
X698032Y854488D02*
X757087D01*
X993307Y822992D02*
Y854488D01*
X934252Y822992D02*
Y854488D01*
Y822992D02*
X993307D01*
X934252Y854488D02*
X993307D01*
X1229528Y822992D02*
Y854488D01*
X1170472Y822992D02*
Y854488D01*
Y822992D02*
X1229528D01*
X1170472Y854488D02*
X1229528D01*
X1465748Y822992D02*
Y854488D01*
X1406693Y822992D02*
Y854488D01*
Y822992D02*
X1465748D01*
X1406693Y854488D02*
X1465748D01*
X1701968Y822992D02*
Y854488D01*
X1642913Y822992D02*
Y854488D01*
Y822992D02*
X1701968D01*
X1642913Y854488D02*
X1701968D01*
X1938189Y822992D02*
Y854488D01*
X1879134Y822992D02*
Y854488D01*
Y822992D02*
X1938189D01*
X1879134Y854488D02*
X1938189D01*
X507874Y655472D02*
Y714528D01*
X476378Y655472D02*
Y714528D01*
X507874D01*
X476378Y655472D02*
X507874D01*
X744095D02*
Y714528D01*
X712598Y655472D02*
Y714528D01*
X744095D01*
X712598Y655472D02*
X744095D01*
X980315D02*
Y714528D01*
X948819Y655472D02*
Y714528D01*
X980315D01*
X948819Y655472D02*
X980315D01*
X1216535D02*
Y714528D01*
X1185039Y655472D02*
Y714528D01*
X1216535D01*
X1185039Y655472D02*
X1216535D01*
X1452756D02*
Y714528D01*
X1421260Y655472D02*
Y714528D01*
X1452756D01*
X1421260Y655472D02*
X1452756D01*
X1688976D02*
Y714528D01*
X1657480Y655472D02*
Y714528D01*
X1688976D01*
X1657480Y655472D02*
X1688976D01*
X1925197D02*
Y714528D01*
X1893701Y655472D02*
Y714528D01*
X1925197D01*
X1893701Y655472D02*
X1925197D01*
X181102Y759213D02*
Y818268D01*
X212598Y759213D02*
Y818268D01*
X181102Y759213D02*
X212598D01*
X181102Y818268D02*
X212598D01*
X285433Y822992D02*
Y854488D01*
X226378Y822992D02*
Y854488D01*
Y822992D02*
X285433D01*
X226378Y854488D02*
X285433D01*
X271654Y655472D02*
Y714528D01*
X240157Y655472D02*
Y714528D01*
X271654D01*
X240157Y655472D02*
X271654D01*
X2217720Y244095D02*
X2276775D01*
X2217720Y212599D02*
X2276775D01*
X2217720D02*
Y244095D01*
X2276775Y212599D02*
Y244095D01*
X2453940D02*
X2512995D01*
X2453940Y212599D02*
X2512995D01*
X2453940D02*
Y244095D01*
X2512995Y212599D02*
Y244095D01*
X2690161D02*
X2749216D01*
X2690161Y212599D02*
X2749216D01*
X2690161D02*
Y244095D01*
X2749216Y212599D02*
Y244095D01*
X2926381D02*
X2985436D01*
X2926381Y212599D02*
X2985436D01*
X2926381D02*
Y244095D01*
X2985436Y212599D02*
Y244095D01*
X3162602D02*
X3221657D01*
X3162602Y212599D02*
X3221657D01*
X3162602D02*
Y244095D01*
X3221657Y212599D02*
Y244095D01*
X3398822D02*
X3457877D01*
X3398822Y212599D02*
X3457877D01*
X3398822D02*
Y244095D01*
X3457877Y212599D02*
Y244095D01*
X3635042D02*
X3694098D01*
X3635042Y212599D02*
X3694098D01*
X3635042D02*
Y244095D01*
X3694098Y212599D02*
Y244095D01*
X3871263D02*
X3930318D01*
X3871263Y212599D02*
X3930318D01*
X3871263D02*
Y244095D01*
X3930318Y212599D02*
Y244095D01*
X4264964D02*
X4324019D01*
X4264964Y212599D02*
X4324019D01*
X4264964D02*
Y244095D01*
X4324019Y212599D02*
Y244095D01*
X4501184D02*
X4560239D01*
X4501184Y212599D02*
X4560239D01*
X4501184D02*
Y244095D01*
X4560239Y212599D02*
Y244095D01*
X4737405D02*
X4796460D01*
X4737405Y212599D02*
X4796460D01*
X4737405D02*
Y244095D01*
X4796460Y212599D02*
Y244095D01*
X4973625D02*
X5032680D01*
X4973625Y212599D02*
X5032680D01*
X4973625D02*
Y244095D01*
X5032680Y212599D02*
Y244095D01*
X406693D02*
X465748D01*
X406693Y212599D02*
X465748D01*
X406693D02*
Y244095D01*
X465748Y212599D02*
Y244095D01*
X642913D02*
X701969D01*
X642913Y212599D02*
X701969D01*
X642913D02*
Y244095D01*
X701969Y212599D02*
Y244095D01*
X879134D02*
X938189D01*
X879134Y212599D02*
X938189D01*
X879134D02*
Y244095D01*
X938189Y212599D02*
Y244095D01*
X1115354D02*
X1174409D01*
X1115354Y212599D02*
X1174409D01*
X1115354D02*
Y244095D01*
X1174409Y212599D02*
Y244095D01*
X1351575D02*
X1410630D01*
X1351575Y212599D02*
X1410630D01*
X1351575D02*
Y244095D01*
X1410630Y212599D02*
Y244095D01*
X1587795D02*
X1646850D01*
X1587795Y212599D02*
X1646850D01*
X1587795D02*
Y244095D01*
X1646850Y212599D02*
Y244095D01*
X1824016D02*
X1883071D01*
X1824016Y212599D02*
X1883071D01*
X1824016D02*
Y244095D01*
X1883071Y212599D02*
Y244095D01*
X170472D02*
X229528D01*
X170472Y212599D02*
X229528D01*
X170472D02*
Y244095D01*
X229528Y212599D02*
Y244095D01*
X10137402Y1348425D02*
X10168898D01*
X10137402Y1407480D02*
X10168898D01*
X10137402Y1348425D02*
Y1407480D01*
X10168898Y1348425D02*
Y1407480D01*
X10037402Y1348425D02*
X10068898D01*
X10037402Y1407480D02*
X10068898D01*
X10037402Y1348425D02*
Y1407480D01*
X10068898Y1348425D02*
Y1407480D01*
X9937402Y1348425D02*
X9968898D01*
X9937402Y1407480D02*
X9968898D01*
X9937402Y1348425D02*
Y1407480D01*
X9968898Y1348425D02*
Y1407480D01*
X9837402Y1348425D02*
X9868898D01*
X9837402Y1407480D02*
X9868898D01*
X9837402Y1348425D02*
Y1407480D01*
X9868898Y1348425D02*
Y1407480D01*
X9737402Y1348425D02*
X9768898D01*
X9737402Y1407480D02*
X9768898D01*
X9737402Y1348425D02*
Y1407480D01*
X9768898Y1348425D02*
Y1407480D01*
X9637402Y1348425D02*
X9668898D01*
X9637402Y1407480D02*
X9668898D01*
X9637402Y1348425D02*
Y1407480D01*
X9668898Y1348425D02*
Y1407480D01*
X9537402Y1348425D02*
X9568898D01*
X9537402Y1407480D02*
X9568898D01*
X9537402Y1348425D02*
Y1407480D01*
X9568898Y1348425D02*
Y1407480D01*
X9437402Y1348425D02*
X9468898D01*
X9437402Y1407480D02*
X9468898D01*
X9437402Y1348425D02*
Y1407480D01*
X9468898Y1348425D02*
Y1407480D01*
X7390158Y1348425D02*
X7421654D01*
X7390158Y1407480D02*
X7421654D01*
X7390158Y1348425D02*
Y1407480D01*
X7421654Y1348425D02*
Y1407480D01*
X7490158Y1348425D02*
X7521654D01*
X7490158Y1407480D02*
X7521654D01*
X7490158Y1348425D02*
Y1407480D01*
X7521654Y1348425D02*
Y1407480D01*
X7590158Y1348425D02*
X7621654D01*
X7590158Y1407480D02*
X7621654D01*
X7590158Y1348425D02*
Y1407480D01*
X7621654Y1348425D02*
Y1407480D01*
X7690158Y1348425D02*
X7721654D01*
X7690158Y1407480D02*
X7721654D01*
X7690158Y1348425D02*
Y1407480D01*
X7721654Y1348425D02*
Y1407480D01*
X7790158Y1348425D02*
X7821654D01*
X7790158Y1407480D02*
X7821654D01*
X7790158Y1348425D02*
Y1407480D01*
X7821654Y1348425D02*
Y1407480D01*
X7890158Y1348425D02*
X7921654D01*
X7890158Y1407480D02*
X7921654D01*
X7890158Y1348425D02*
Y1407480D01*
X7921654Y1348425D02*
Y1407480D01*
X7990158Y1348425D02*
X8021654D01*
X7990158Y1407480D02*
X8021654D01*
X7990158Y1348425D02*
Y1407480D01*
X8021654Y1348425D02*
Y1407480D01*
X8090158Y1348425D02*
X8121654D01*
X8090158Y1407480D02*
X8121654D01*
X8090158Y1348425D02*
Y1407480D01*
X8121654Y1348425D02*
Y1407480D01*
X5342913Y1348425D02*
X5374409D01*
X5342913Y1407480D02*
X5374409D01*
X5342913Y1348425D02*
Y1407480D01*
X5374409Y1348425D02*
Y1407480D01*
X5442913Y1348425D02*
X5474409D01*
X5442913Y1407480D02*
X5474409D01*
X5442913Y1348425D02*
Y1407480D01*
X5474409Y1348425D02*
Y1407480D01*
X5542913Y1348425D02*
X5574409D01*
X5542913Y1407480D02*
X5574409D01*
X5542913Y1348425D02*
Y1407480D01*
X5574409Y1348425D02*
Y1407480D01*
X5642913Y1348425D02*
X5674409D01*
X5642913Y1407480D02*
X5674409D01*
X5642913Y1348425D02*
Y1407480D01*
X5674409Y1348425D02*
Y1407480D01*
X5742913Y1348425D02*
X5774409D01*
X5742913Y1407480D02*
X5774409D01*
X5742913Y1348425D02*
Y1407480D01*
X5774409Y1348425D02*
Y1407480D01*
X5842913Y1348425D02*
X5874409D01*
X5842913Y1407480D02*
X5874409D01*
X5842913Y1348425D02*
Y1407480D01*
X5874409Y1348425D02*
Y1407480D01*
X5942913Y1348425D02*
X5974409D01*
X5942913Y1407480D02*
X5974409D01*
X5942913Y1348425D02*
Y1407480D01*
X5974409Y1348425D02*
Y1407480D01*
X6042913Y1348425D02*
X6074409D01*
X6042913Y1407480D02*
X6074409D01*
X6042913Y1348425D02*
Y1407480D01*
X6074409Y1348425D02*
Y1407480D01*
X3295669Y1348425D02*
X3327165D01*
X3295669Y1407480D02*
X3327165D01*
X3295669Y1348425D02*
Y1407480D01*
X3327165Y1348425D02*
Y1407480D01*
X3395669Y1348425D02*
X3427165D01*
X3395669Y1407480D02*
X3427165D01*
X3395669Y1348425D02*
Y1407480D01*
X3427165Y1348425D02*
Y1407480D01*
X3495669Y1348425D02*
X3527165D01*
X3495669Y1407480D02*
X3527165D01*
X3495669Y1348425D02*
Y1407480D01*
X3527165Y1348425D02*
Y1407480D01*
X3595669Y1348425D02*
X3627165D01*
X3595669Y1407480D02*
X3627165D01*
X3595669Y1348425D02*
Y1407480D01*
X3627165Y1348425D02*
Y1407480D01*
X3695669Y1348425D02*
X3727165D01*
X3695669Y1407480D02*
X3727165D01*
X3695669Y1348425D02*
Y1407480D01*
X3727165Y1348425D02*
Y1407480D01*
X3795669Y1348425D02*
X3827165D01*
X3795669Y1407480D02*
X3827165D01*
X3795669Y1348425D02*
Y1407480D01*
X3827165Y1348425D02*
Y1407480D01*
X3895669Y1348425D02*
X3927165D01*
X3895669Y1407480D02*
X3927165D01*
X3895669Y1348425D02*
Y1407480D01*
X3927165Y1348425D02*
Y1407480D01*
X3995669Y1348425D02*
X4027165D01*
X3995669Y1407480D02*
X4027165D01*
X3995669Y1348425D02*
Y1407480D01*
X4027165Y1348425D02*
Y1407480D01*
X9113780Y1348425D02*
X9145276D01*
X9113780Y1407480D02*
X9145276D01*
X9113780Y1348425D02*
Y1407480D01*
X9145276Y1348425D02*
Y1407480D01*
X9013780Y1348425D02*
X9045276D01*
X9013780Y1407480D02*
X9045276D01*
X9013780Y1348425D02*
Y1407480D01*
X9045276Y1348425D02*
Y1407480D01*
X8913780Y1348425D02*
X8945276D01*
X8913780Y1407480D02*
X8945276D01*
X8913780Y1348425D02*
Y1407480D01*
X8945276Y1348425D02*
Y1407480D01*
X8813780Y1348425D02*
X8845276D01*
X8813780Y1407480D02*
X8845276D01*
X8813780Y1348425D02*
Y1407480D01*
X8845276Y1348425D02*
Y1407480D01*
X8713780Y1348425D02*
X8745276D01*
X8713780Y1407480D02*
X8745276D01*
X8713780Y1348425D02*
Y1407480D01*
X8745276Y1348425D02*
Y1407480D01*
X8613780Y1348425D02*
X8645276D01*
X8613780Y1407480D02*
X8645276D01*
X8613780Y1348425D02*
Y1407480D01*
X8645276Y1348425D02*
Y1407480D01*
X8513780Y1348425D02*
X8545276D01*
X8513780Y1407480D02*
X8545276D01*
X8513780Y1348425D02*
Y1407480D01*
X8545276Y1348425D02*
Y1407480D01*
X8413780Y1348425D02*
X8445276D01*
X8413780Y1407480D02*
X8445276D01*
X8413780Y1348425D02*
Y1407480D01*
X8445276Y1348425D02*
Y1407480D01*
X7066535Y1348425D02*
X7098032D01*
X7066535Y1407480D02*
X7098032D01*
X7066535Y1348425D02*
Y1407480D01*
X7098032Y1348425D02*
Y1407480D01*
X6966535Y1348425D02*
X6998032D01*
X6966535Y1407480D02*
X6998032D01*
X6966535Y1348425D02*
Y1407480D01*
X6998032Y1348425D02*
Y1407480D01*
X6866535Y1348425D02*
X6898032D01*
X6866535Y1407480D02*
X6898032D01*
X6866535Y1348425D02*
Y1407480D01*
X6898032Y1348425D02*
Y1407480D01*
X6766535Y1348425D02*
X6798032D01*
X6766535Y1407480D02*
X6798032D01*
X6766535Y1348425D02*
Y1407480D01*
X6798032Y1348425D02*
Y1407480D01*
X6666535Y1348425D02*
X6698032D01*
X6666535Y1407480D02*
X6698032D01*
X6666535Y1348425D02*
Y1407480D01*
X6698032Y1348425D02*
Y1407480D01*
X6566535Y1348425D02*
X6598032D01*
X6566535Y1407480D02*
X6598032D01*
X6566535Y1348425D02*
Y1407480D01*
X6598032Y1348425D02*
Y1407480D01*
X6466535Y1348425D02*
X6498032D01*
X6466535Y1407480D02*
X6498032D01*
X6466535Y1348425D02*
Y1407480D01*
X6498032Y1348425D02*
Y1407480D01*
X6366535Y1348425D02*
X6398032D01*
X6366535Y1407480D02*
X6398032D01*
X6366535Y1348425D02*
Y1407480D01*
X6398032Y1348425D02*
Y1407480D01*
X5019291Y1348425D02*
X5050787D01*
X5019291Y1407480D02*
X5050787D01*
X5019291Y1348425D02*
Y1407480D01*
X5050787Y1348425D02*
Y1407480D01*
X4919291Y1348425D02*
X4950787D01*
X4919291Y1407480D02*
X4950787D01*
X4919291Y1348425D02*
Y1407480D01*
X4950787Y1348425D02*
Y1407480D01*
X4819291Y1348425D02*
X4850787D01*
X4819291Y1407480D02*
X4850787D01*
X4819291Y1348425D02*
Y1407480D01*
X4850787Y1348425D02*
Y1407480D01*
X4719291Y1348425D02*
X4750787D01*
X4719291Y1407480D02*
X4750787D01*
X4719291Y1348425D02*
Y1407480D01*
X4750787Y1348425D02*
Y1407480D01*
X4619291Y1348425D02*
X4650787D01*
X4619291Y1407480D02*
X4650787D01*
X4619291Y1348425D02*
Y1407480D01*
X4650787Y1348425D02*
Y1407480D01*
X4519291Y1348425D02*
X4550787D01*
X4519291Y1407480D02*
X4550787D01*
X4519291Y1348425D02*
Y1407480D01*
X4550787Y1348425D02*
Y1407480D01*
X4419291Y1348425D02*
X4450787D01*
X4419291Y1407480D02*
X4450787D01*
X4419291Y1348425D02*
Y1407480D01*
X4450787Y1348425D02*
Y1407480D01*
X4319291Y1348425D02*
X4350787D01*
X4319291Y1407480D02*
X4350787D01*
X4319291Y1348425D02*
Y1407480D01*
X4350787Y1348425D02*
Y1407480D01*
X2272047Y1348425D02*
X2303543D01*
X2272047Y1407480D02*
X2303543D01*
X2272047Y1348425D02*
Y1407480D01*
X2303543Y1348425D02*
Y1407480D01*
X2372047Y1348425D02*
X2403543D01*
X2372047Y1407480D02*
X2403543D01*
X2372047Y1348425D02*
Y1407480D01*
X2403543Y1348425D02*
Y1407480D01*
X2472047Y1348425D02*
X2503543D01*
X2472047Y1407480D02*
X2503543D01*
X2472047Y1348425D02*
Y1407480D01*
X2503543Y1348425D02*
Y1407480D01*
X2572047Y1348425D02*
X2603543D01*
X2572047Y1407480D02*
X2603543D01*
X2572047Y1348425D02*
Y1407480D01*
X2603543Y1348425D02*
Y1407480D01*
X2672047Y1348425D02*
X2703543D01*
X2672047Y1407480D02*
X2703543D01*
X2672047Y1348425D02*
Y1407480D01*
X2703543Y1348425D02*
Y1407480D01*
X2772047Y1348425D02*
X2803543D01*
X2772047Y1407480D02*
X2803543D01*
X2772047Y1348425D02*
Y1407480D01*
X2803543Y1348425D02*
Y1407480D01*
X2872047Y1348425D02*
X2903543D01*
X2872047Y1407480D02*
X2903543D01*
X2872047Y1348425D02*
Y1407480D01*
X2903543Y1348425D02*
Y1407480D01*
X2972047Y1348425D02*
X3003543D01*
X2972047Y1407480D02*
X3003543D01*
X2972047Y1348425D02*
Y1407480D01*
X3003543Y1348425D02*
Y1407480D01*
X1248425Y1348425D02*
X1279921D01*
X1248425Y1407480D02*
X1279921D01*
X1248425Y1348425D02*
Y1407480D01*
X1279921Y1348425D02*
Y1407480D01*
X1348425Y1348425D02*
X1379921D01*
X1348425Y1407480D02*
X1379921D01*
X1348425Y1348425D02*
Y1407480D01*
X1379921Y1348425D02*
Y1407480D01*
X1448425Y1348425D02*
X1479921D01*
X1448425Y1407480D02*
X1479921D01*
X1448425Y1348425D02*
Y1407480D01*
X1479921Y1348425D02*
Y1407480D01*
X1548425Y1348425D02*
X1579921D01*
X1548425Y1407480D02*
X1579921D01*
X1548425Y1348425D02*
Y1407480D01*
X1579921Y1348425D02*
Y1407480D01*
X1648425Y1348425D02*
X1679921D01*
X1648425Y1407480D02*
X1679921D01*
X1648425Y1348425D02*
Y1407480D01*
X1679921Y1348425D02*
Y1407480D01*
X1748425Y1348425D02*
X1779921D01*
X1748425Y1407480D02*
X1779921D01*
X1748425Y1348425D02*
Y1407480D01*
X1779921Y1348425D02*
Y1407480D01*
X1848425Y1348425D02*
X1879921D01*
X1848425Y1407480D02*
X1879921D01*
X1848425Y1348425D02*
Y1407480D01*
X1879921Y1348425D02*
Y1407480D01*
X1948425Y1348425D02*
X1979921D01*
X1948425Y1407480D02*
X1979921D01*
X1948425Y1348425D02*
Y1407480D01*
X1979921Y1348425D02*
Y1407480D01*
X924252Y1348425D02*
X955748D01*
X924252Y1407480D02*
X955748D01*
X924252Y1348425D02*
Y1407480D01*
X955748Y1348425D02*
Y1407480D01*
X824252Y1348425D02*
X855748D01*
X824252Y1407480D02*
X855748D01*
X824252Y1348425D02*
Y1407480D01*
X855748Y1348425D02*
Y1407480D01*
X724252Y1348425D02*
X755748D01*
X724252Y1407480D02*
X755748D01*
X724252Y1348425D02*
Y1407480D01*
X755748Y1348425D02*
Y1407480D01*
X624252Y1348425D02*
X655748D01*
X624252Y1407480D02*
X655748D01*
X624252Y1348425D02*
Y1407480D01*
X655748Y1348425D02*
Y1407480D01*
X524252Y1348425D02*
X555748D01*
X524252Y1407480D02*
X555748D01*
X524252Y1348425D02*
Y1407480D01*
X555748Y1348425D02*
Y1407480D01*
X424252Y1348425D02*
X455748D01*
X424252Y1407480D02*
X455748D01*
X424252Y1348425D02*
Y1407480D01*
X455748Y1348425D02*
Y1407480D01*
X324252Y1348425D02*
X355748D01*
X324252Y1407480D02*
X355748D01*
X324252Y1348425D02*
Y1407480D01*
X355748Y1348425D02*
Y1407480D01*
X224252Y1348425D02*
X255748D01*
X224252Y1407480D02*
X255748D01*
X224252Y1348425D02*
Y1407480D01*
X255748Y1348425D02*
Y1407480D01*
X5202362Y5366181D02*
Y5397677D01*
X5261417Y5366181D02*
Y5397677D01*
X5202362D02*
X5261417D01*
X5202362Y5366181D02*
X5261417D01*
X4902362D02*
Y5397677D01*
X4961417Y5366181D02*
Y5397677D01*
X4902362D02*
X4961417D01*
X4902362Y5366181D02*
X4961417D01*
X4802362D02*
Y5397677D01*
X4861417Y5366181D02*
Y5397677D01*
X4802362D02*
X4861417D01*
X4802362Y5366181D02*
X4861417D01*
X5202362Y5297677D02*
X5261417D01*
X5202362Y5266181D02*
X5261417D01*
X5202362D02*
Y5297677D01*
X5261417Y5266181D02*
Y5297677D01*
X4902362D02*
X4961417D01*
X4902362Y5266181D02*
X4961417D01*
X4902362D02*
Y5297677D01*
X4961417Y5266181D02*
Y5297677D01*
X4802362D02*
X4861417D01*
X4802362Y5266181D02*
X4861417D01*
X4802362D02*
Y5297677D01*
X4861417Y5266181D02*
Y5297677D01*
X5201575Y5082677D02*
X5260630D01*
X5201575Y5114173D02*
X5260630D01*
Y5082677D02*
Y5114173D01*
X5201575Y5082677D02*
Y5114173D01*
X4901575Y5082677D02*
X4960630D01*
X4901575Y5114173D02*
X4960630D01*
Y5082677D02*
Y5114173D01*
X4901575Y5082677D02*
Y5114173D01*
X4801575Y5082677D02*
X4860630D01*
X4801575Y5114173D02*
X4860630D01*
Y5082677D02*
Y5114173D01*
X4801575Y5082677D02*
Y5114173D01*
X5002362Y5366181D02*
Y5397677D01*
X5061417Y5366181D02*
Y5397677D01*
X5002362D02*
X5061417D01*
X5002362Y5366181D02*
X5061417D01*
X5102362D02*
Y5397677D01*
X5161417Y5366181D02*
Y5397677D01*
X5102362D02*
X5161417D01*
X5102362Y5366181D02*
X5161417D01*
X5002362Y5297677D02*
X5061417D01*
X5002362Y5266181D02*
X5061417D01*
X5002362D02*
Y5297677D01*
X5061417Y5266181D02*
Y5297677D01*
X5102362D02*
X5161417D01*
X5102362Y5266181D02*
X5161417D01*
X5102362D02*
Y5297677D01*
X5161417Y5266181D02*
Y5297677D01*
X5001575Y5082677D02*
X5060630D01*
X5001575Y5114173D02*
X5060630D01*
Y5082677D02*
Y5114173D01*
X5001575Y5082677D02*
Y5114173D01*
X5101575Y5082677D02*
X5160630D01*
X5101575Y5114173D02*
X5160630D01*
Y5082677D02*
Y5114173D01*
X5101575Y5082677D02*
Y5114173D01*
X1867717Y5366181D02*
Y5397677D01*
X1926772Y5366181D02*
Y5397677D01*
X1867717D02*
X1926772D01*
X1867717Y5366181D02*
X1926772D01*
X1767717Y5366181D02*
Y5397677D01*
X1826772Y5366181D02*
Y5397677D01*
X1767717D02*
X1826772D01*
X1767717Y5366181D02*
X1826772D01*
X698819Y4984252D02*
Y5015748D01*
X639764Y4984252D02*
Y5015748D01*
Y4984252D02*
X698819D01*
X639764Y5015748D02*
X698819D01*
X639764Y4925197D02*
X698819D01*
X639764Y4956693D02*
X698819D01*
Y4925197D02*
Y4956693D01*
X639764Y4925197D02*
Y4956693D01*
X1867717Y5297677D02*
X1926772D01*
X1867717Y5266181D02*
X1926772D01*
X1867717D02*
Y5297677D01*
X1926772Y5266181D02*
Y5297677D01*
X1767717D02*
X1826772D01*
X1767717Y5266181D02*
X1826772D01*
X1767717D02*
Y5297677D01*
X1826772Y5266181D02*
Y5297677D01*
X1868504Y5082677D02*
X1927559D01*
X1868504Y5114173D02*
X1927559D01*
Y5082677D02*
Y5114173D01*
X1868504Y5082677D02*
Y5114173D01*
X2167717Y5366181D02*
Y5397677D01*
X2226772Y5366181D02*
Y5397677D01*
X2167717D02*
X2226772D01*
X2167717Y5366181D02*
X2226772D01*
X2067717D02*
Y5397677D01*
X2126772Y5366181D02*
Y5397677D01*
X2067717D02*
X2126772D01*
X2067717Y5366181D02*
X2126772D01*
X1967717D02*
Y5397677D01*
X2026772Y5366181D02*
Y5397677D01*
X1967717D02*
X2026772D01*
X1967717Y5366181D02*
X2026772D01*
X2326772Y5266181D02*
Y5297677D01*
X2267717Y5266181D02*
Y5297677D01*
Y5266181D02*
X2326772D01*
X2267717Y5297677D02*
X2326772D01*
X2268504Y5082677D02*
X2327559D01*
X2268504Y5114173D02*
X2327559D01*
Y5082677D02*
Y5114173D01*
X2268504Y5082677D02*
Y5114173D01*
X2167717Y5297677D02*
X2226772D01*
X2167717Y5266181D02*
X2226772D01*
X2167717D02*
Y5297677D01*
X2226772Y5266181D02*
Y5297677D01*
X2067717D02*
X2126772D01*
X2067717Y5266181D02*
X2126772D01*
X2067717D02*
Y5297677D01*
X2126772Y5266181D02*
Y5297677D01*
X1967717D02*
X2026772D01*
X1967717Y5266181D02*
X2026772D01*
X1967717D02*
Y5297677D01*
X2026772Y5266181D02*
Y5297677D01*
X2168504Y5082677D02*
X2227559D01*
X2168504Y5114173D02*
X2227559D01*
Y5082677D02*
Y5114173D01*
X2168504Y5082677D02*
Y5114173D01*
X2068504Y5082677D02*
X2127559D01*
X2068504Y5114173D02*
X2127559D01*
Y5082677D02*
Y5114173D01*
X2068504Y5082677D02*
Y5114173D01*
X1968504Y5082677D02*
X2027559D01*
X1968504Y5114173D02*
X2027559D01*
Y5082677D02*
Y5114173D01*
X1968504Y5082677D02*
Y5114173D01*
X5886614Y5366181D02*
Y5397677D01*
X5945669Y5366181D02*
Y5397677D01*
X5886614D02*
X5945669D01*
X5886614Y5366181D02*
X5945669D01*
X5986614D02*
Y5397677D01*
X6045669Y5366181D02*
Y5397677D01*
X5986614D02*
X6045669D01*
X5986614Y5366181D02*
X6045669D01*
X6086614D02*
Y5397677D01*
X6145669Y5366181D02*
Y5397677D01*
X6086614D02*
X6145669D01*
X6086614Y5366181D02*
X6145669D01*
X5886614Y5297677D02*
X5945669D01*
X5886614Y5266181D02*
X5945669D01*
X5886614D02*
Y5297677D01*
X5945669Y5266181D02*
Y5297677D01*
X5986614D02*
X6045669D01*
X5986614Y5266181D02*
X6045669D01*
X5986614D02*
Y5297677D01*
X6045669Y5266181D02*
Y5297677D01*
X6086614D02*
X6145669D01*
X6086614Y5266181D02*
X6145669D01*
X6086614D02*
Y5297677D01*
X6145669Y5266181D02*
Y5297677D01*
X5885827Y5082677D02*
X5944882D01*
X5885827Y5114173D02*
X5944882D01*
Y5082677D02*
Y5114173D01*
X5885827Y5082677D02*
Y5114173D01*
X5985827Y5082677D02*
X6044882D01*
X5985827Y5114173D02*
X6044882D01*
Y5082677D02*
Y5114173D01*
X5985827Y5082677D02*
Y5114173D01*
X6085827Y5082677D02*
X6144882D01*
X6085827Y5114173D02*
X6144882D01*
Y5082677D02*
Y5114173D01*
X6085827Y5082677D02*
Y5114173D01*
X5586614Y5366181D02*
Y5397677D01*
X5645669Y5366181D02*
Y5397677D01*
X5586614D02*
X5645669D01*
X5586614Y5366181D02*
X5645669D01*
X5686614D02*
Y5397677D01*
X5745669Y5366181D02*
Y5397677D01*
X5686614D02*
X5745669D01*
X5686614Y5366181D02*
X5745669D01*
X5786614D02*
Y5397677D01*
X5845669Y5366181D02*
Y5397677D01*
X5786614D02*
X5845669D01*
X5786614Y5366181D02*
X5845669D01*
X5586614Y5297677D02*
X5645669D01*
X5586614Y5266181D02*
X5645669D01*
X5586614D02*
Y5297677D01*
X5645669Y5266181D02*
Y5297677D01*
X5686614D02*
X5745669D01*
X5686614Y5266181D02*
X5745669D01*
X5686614D02*
Y5297677D01*
X5745669Y5266181D02*
Y5297677D01*
X5786614D02*
X5845669D01*
X5786614Y5266181D02*
X5845669D01*
X5786614D02*
Y5297677D01*
X5845669Y5266181D02*
Y5297677D01*
X5585827Y5082677D02*
X5644882D01*
X5585827Y5114173D02*
X5644882D01*
Y5082677D02*
Y5114173D01*
X5585827Y5082677D02*
Y5114173D01*
X5685827Y5082677D02*
X5744882D01*
X5685827Y5114173D02*
X5744882D01*
Y5082677D02*
Y5114173D01*
X5685827Y5082677D02*
Y5114173D01*
X5785827Y5082677D02*
X5844882D01*
X5785827Y5114173D02*
X5844882D01*
Y5082677D02*
Y5114173D01*
X5785827Y5082677D02*
Y5114173D01*
X8939370Y5118776D02*
X8998425D01*
X8939370Y5087280D02*
X8998425D01*
X8939370D02*
Y5118776D01*
X8998425Y5087280D02*
Y5118776D01*
X9039370D02*
X9098425D01*
X9039370Y5087280D02*
X9098425D01*
X9039370D02*
Y5118776D01*
X9098425Y5087280D02*
Y5118776D01*
X8839370D02*
X8898425D01*
X8839370Y5087280D02*
X8898425D01*
X8839370D02*
Y5118776D01*
X8898425Y5087280D02*
Y5118776D01*
%TF.MD5,c2997811028d33cf5c8a118222210b83*%
M02*
