%TF.GenerationSoftware,Altium Limited,Altium Designer,20.0.13 (296)*%
G04 Layer_Color=32896*
%FSLAX26Y26*%
%MOIN*%
%TF.FileFunction,Other,Top_Courtyard*%
%TF.Part,Single*%
G01*
G75*
%TA.AperFunction,NonConductor*%
%ADD57C,0.001968*%
D57*
X5268901Y212599D02*
Y244095D01*
X5209846Y212599D02*
Y244095D01*
Y212599D02*
X5268901D01*
X5209846Y244095D02*
X5268901D01*
X5227562Y228346D02*
X5251184D01*
X5239373Y216536D02*
Y240157D01*
X5505121Y212599D02*
Y244095D01*
X5446066Y212599D02*
Y244095D01*
Y212599D02*
X5505121D01*
X5446066Y244095D02*
X5505121D01*
X5463783Y228346D02*
X5487405D01*
X5475594Y216536D02*
Y240157D01*
X5741342Y212599D02*
Y244095D01*
X5682287Y212599D02*
Y244095D01*
Y212599D02*
X5741342D01*
X5682287Y244095D02*
X5741342D01*
X5700003Y228346D02*
X5723625D01*
X5711814Y216536D02*
Y240157D01*
X5977562Y212599D02*
Y244095D01*
X5918507Y212599D02*
Y244095D01*
Y212599D02*
X5977562D01*
X5918507Y244095D02*
X5977562D01*
X5936224Y228346D02*
X5959846D01*
X5948035Y216536D02*
Y240157D01*
X6371263Y212599D02*
Y244095D01*
X6312208Y212599D02*
Y244095D01*
Y212599D02*
X6371263D01*
X6312208Y244095D02*
X6371263D01*
X6329924Y228346D02*
X6353546D01*
X6341735Y216536D02*
Y240157D01*
X6607484Y212599D02*
Y244095D01*
X6548428Y212599D02*
Y244095D01*
Y212599D02*
X6607484D01*
X6548428Y244095D02*
X6607484D01*
X6566145Y228346D02*
X6589767D01*
X6577956Y216536D02*
Y240157D01*
X6843704Y212599D02*
Y244095D01*
X6784649Y212599D02*
Y244095D01*
Y212599D02*
X6843704D01*
X6784649Y244095D02*
X6843704D01*
X6802365Y228346D02*
X6825987D01*
X6814176Y216536D02*
Y240157D01*
X7079924Y212599D02*
Y244095D01*
X7020869Y212599D02*
Y244095D01*
Y212599D02*
X7079924D01*
X7020869Y244095D02*
X7079924D01*
X7038586Y228346D02*
X7062208D01*
X7050397Y216536D02*
Y240157D01*
X7316145Y212599D02*
Y244095D01*
X7257090Y212599D02*
Y244095D01*
Y212599D02*
X7316145D01*
X7257090Y244095D02*
X7316145D01*
X7274806Y228346D02*
X7298428D01*
X7286617Y216536D02*
Y240157D01*
X7552365Y212599D02*
Y244095D01*
X7493310Y212599D02*
Y244095D01*
Y212599D02*
X7552365D01*
X7493310Y244095D02*
X7552365D01*
X7511027Y228346D02*
X7534649D01*
X7522838Y216536D02*
Y240157D01*
X7788586Y212599D02*
Y244095D01*
X7729531Y212599D02*
Y244095D01*
Y212599D02*
X7788586D01*
X7729531Y244095D02*
X7788586D01*
X7747247Y228346D02*
X7770869D01*
X7759058Y216536D02*
Y240157D01*
X8024806Y212599D02*
Y244095D01*
X7965751Y212599D02*
Y244095D01*
Y212599D02*
X8024806D01*
X7965751Y244095D02*
X8024806D01*
X7983468Y228346D02*
X8007090D01*
X7995279Y216536D02*
Y240157D01*
X10072050Y212599D02*
Y244095D01*
X10012995Y212599D02*
Y244095D01*
Y212599D02*
X10072050D01*
X10012995Y244095D02*
X10072050D01*
X10030712Y228346D02*
X10054334D01*
X10042523Y216536D02*
Y240157D01*
X9835830Y212599D02*
Y244095D01*
X9776775Y212599D02*
Y244095D01*
Y212599D02*
X9835830D01*
X9776775Y244095D02*
X9835830D01*
X9794491Y228346D02*
X9818113D01*
X9806302Y216536D02*
Y240157D01*
X9599610Y212599D02*
Y244095D01*
X9540554Y212599D02*
Y244095D01*
Y212599D02*
X9599610D01*
X9540554Y244095D02*
X9599610D01*
X9558271Y228346D02*
X9581893D01*
X9570082Y216536D02*
Y240157D01*
X9363389Y212599D02*
Y244095D01*
X9304334Y212599D02*
Y244095D01*
Y212599D02*
X9363389D01*
X9304334Y244095D02*
X9363389D01*
X9322050Y228346D02*
X9345672D01*
X9333861Y216536D02*
Y240157D01*
X9127168Y212599D02*
Y244095D01*
X9068113Y212599D02*
Y244095D01*
Y212599D02*
X9127168D01*
X9068113Y244095D02*
X9127168D01*
X9085830Y228346D02*
X9109452D01*
X9097641Y216536D02*
Y240157D01*
X8890948Y212599D02*
Y244095D01*
X8831893Y212599D02*
Y244095D01*
Y212599D02*
X8890948D01*
X8831893Y244095D02*
X8890948D01*
X8849610Y228346D02*
X8873231D01*
X8861421Y216536D02*
Y240157D01*
X8654728Y212599D02*
Y244095D01*
X8595672Y212599D02*
Y244095D01*
Y212599D02*
X8654728D01*
X8595672Y244095D02*
X8654728D01*
X8613389Y228346D02*
X8637011D01*
X8625200Y216536D02*
Y240157D01*
X8418507Y212599D02*
Y244095D01*
X8359452Y212599D02*
Y244095D01*
Y212599D02*
X8418507D01*
X8359452Y244095D02*
X8418507D01*
X8377168Y228346D02*
X8400790D01*
X8388979Y216536D02*
Y240157D01*
X1799213Y3369291D02*
X1822835D01*
X1811024Y3357480D02*
Y3381102D01*
X1795275Y3339764D02*
Y3398819D01*
X1826772Y3339764D02*
Y3398819D01*
X1795275Y3339764D02*
X1826772D01*
X1795275Y3398819D02*
X1826772D01*
X1755905D02*
X1787401D01*
X1755905Y3339764D02*
X1787401D01*
Y3398819D01*
X1755905Y3339764D02*
Y3398819D01*
X1771653Y3357480D02*
Y3381102D01*
X1759842Y3369291D02*
X1783465D01*
X1834646Y3887008D02*
X1866142D01*
X1834646Y3827953D02*
X1866142D01*
Y3887008D01*
X1834646Y3827953D02*
Y3887008D01*
X1850394Y3845669D02*
Y3869291D01*
X1838583Y3857480D02*
X1862205D01*
X1917323Y3858268D02*
X1940945D01*
X1929134Y3846457D02*
Y3870079D01*
X1899134Y3833268D02*
Y3883268D01*
X1959134D01*
Y3833268D02*
Y3883268D01*
X1899134Y3833268D02*
X1959134D01*
X1996063Y3858268D02*
X2019685D01*
X2007874Y3846457D02*
Y3870079D01*
X2023622Y3828740D02*
Y3887795D01*
X1992126Y3828740D02*
Y3887795D01*
X2023622D01*
X1992126Y3828740D02*
X2023622D01*
X1996063Y4094488D02*
X2019685D01*
X2007874Y4082677D02*
Y4106299D01*
X2023622Y4064961D02*
Y4124016D01*
X1992126Y4064961D02*
Y4124016D01*
X2023622D01*
X1992126Y4064961D02*
X2023622D01*
X1917323Y4094488D02*
X1940945D01*
X1929134Y4082677D02*
Y4106299D01*
X1899134Y4069488D02*
Y4119488D01*
X1959134D01*
Y4069488D02*
Y4119488D01*
X1899134Y4069488D02*
X1959134D01*
X1834646Y4124016D02*
X1866142D01*
X1834646Y4064961D02*
X1866142D01*
Y4124016D01*
X1834646Y4064961D02*
Y4124016D01*
X1850394Y4082677D02*
Y4106299D01*
X1838583Y4094488D02*
X1862205D01*
X734646Y3818898D02*
X758268D01*
X746457Y3807087D02*
Y3830709D01*
X762205Y3789370D02*
Y3848425D01*
X730709Y3789370D02*
Y3848425D01*
X762205D01*
X730709Y3789370D02*
X762205D01*
X769291D02*
X800788D01*
X769291Y3848425D02*
X800788D01*
X769291Y3789370D02*
Y3848425D01*
X800788Y3789370D02*
Y3848425D01*
X785039Y3807087D02*
Y3830709D01*
X773228Y3818898D02*
X796850D01*
X1115354Y3255905D02*
Y3279528D01*
X1103543Y3267716D02*
X1127165D01*
X1085827Y3283465D02*
X1144882D01*
X1085827Y3251968D02*
X1144882D01*
X1085827D02*
Y3283465D01*
X1144882Y3251968D02*
Y3283465D01*
X1115354Y3295276D02*
Y3318898D01*
X1103543Y3307087D02*
X1127165D01*
X1085827Y3322835D02*
X1144882D01*
X1085827Y3291339D02*
X1144882D01*
X1085827D02*
Y3322835D01*
X1144882Y3291339D02*
Y3322835D01*
X1076732Y3365197D02*
Y3485197D01*
Y3365197D02*
X1205732D01*
Y3485197D01*
X1076732D02*
X1205732D01*
X1129921Y3425197D02*
X1153543D01*
X1141732Y3413386D02*
Y3437008D01*
X1007874Y3416142D02*
X1039370D01*
X1007874Y3475197D02*
X1039370D01*
X1007874Y3416142D02*
Y3475197D01*
X1039370Y3416142D02*
Y3475197D01*
X1023622Y3433858D02*
Y3457480D01*
X1011811Y3445669D02*
X1035433D01*
X7639370Y3238189D02*
X7670866D01*
X7639370Y3297244D02*
X7670866D01*
X7639370Y3238189D02*
Y3297244D01*
X7670866Y3238189D02*
Y3297244D01*
X7655118Y3255905D02*
Y3279528D01*
X7643307Y3267716D02*
X7666929D01*
X7607874D02*
X7631496D01*
X7619685Y3255905D02*
Y3279528D01*
X7635433Y3238189D02*
Y3297244D01*
X7603937Y3238189D02*
Y3297244D01*
X7635433D01*
X7603937Y3238189D02*
X7635433D01*
X7607795Y3163976D02*
X7667795D01*
Y3213976D01*
X7607795D02*
X7667795D01*
X7607795Y3163976D02*
Y3213976D01*
X7637795Y3177165D02*
Y3200787D01*
X7625984Y3188976D02*
X7649606D01*
X7468504Y3248032D02*
X7492126D01*
X7480315Y3236220D02*
Y3259843D01*
X7464567Y3218504D02*
Y3277559D01*
X7496063Y3218504D02*
Y3277559D01*
X7464567Y3218504D02*
X7496063D01*
X7464567Y3277559D02*
X7496063D01*
X7607795Y3754528D02*
X7667795D01*
Y3804528D01*
X7607795D02*
X7667795D01*
X7607795Y3754528D02*
Y3804528D01*
X7637795Y3767717D02*
Y3791339D01*
X7625984Y3779528D02*
X7649606D01*
X7639370Y3828740D02*
X7670866D01*
X7639370Y3887795D02*
X7670866D01*
X7639370Y3828740D02*
Y3887795D01*
X7670866Y3828740D02*
Y3887795D01*
X7655118Y3846457D02*
Y3870079D01*
X7643307Y3858268D02*
X7666929D01*
X7607874D02*
X7631496D01*
X7619685Y3846457D02*
Y3870079D01*
X7635433Y3828740D02*
Y3887795D01*
X7603937Y3828740D02*
Y3887795D01*
X7635433D01*
X7603937Y3828740D02*
X7635433D01*
X7468504Y3838583D02*
X7492126D01*
X7480315Y3826772D02*
Y3850394D01*
X7464567Y3809055D02*
Y3868110D01*
X7496063Y3809055D02*
Y3868110D01*
X7464567Y3809055D02*
X7496063D01*
X7464567Y3868110D02*
X7496063D01*
X7639370Y4419291D02*
X7670866D01*
X7639370Y4478346D02*
X7670866D01*
X7639370Y4419291D02*
Y4478346D01*
X7670866Y4419291D02*
Y4478346D01*
X7655118Y4437008D02*
Y4460630D01*
X7643307Y4448819D02*
X7666929D01*
X7607874D02*
X7631496D01*
X7619685Y4437008D02*
Y4460630D01*
X7635433Y4419291D02*
Y4478346D01*
X7603937Y4419291D02*
Y4478346D01*
X7635433D01*
X7603937Y4419291D02*
X7635433D01*
X7607795Y4345079D02*
X7667795D01*
Y4395079D01*
X7607795D02*
X7667795D01*
X7607795Y4345079D02*
Y4395079D01*
X7637795Y4358268D02*
Y4381890D01*
X7625984Y4370079D02*
X7649606D01*
X7468504Y4429134D02*
X7492126D01*
X7480315Y4417323D02*
Y4440945D01*
X7464567Y4399606D02*
Y4458662D01*
X7496063Y4399606D02*
Y4458662D01*
X7464567Y4399606D02*
X7496063D01*
X7464567Y4458662D02*
X7496063D01*
X8728346Y3248032D02*
X8751969D01*
X8740157Y3236220D02*
Y3259843D01*
X8724409Y3218504D02*
Y3277559D01*
X8755906Y3218504D02*
Y3277559D01*
X8724409Y3218504D02*
X8755906D01*
X8724409Y3277559D02*
X8755906D01*
X8788898Y3223032D02*
X8848898D01*
Y3273032D01*
X8788898D02*
X8848898D01*
X8788898Y3223032D02*
Y3273032D01*
X8818898Y3236220D02*
Y3259843D01*
X8807087Y3248032D02*
X8830709D01*
X8881890Y3218504D02*
X8913386D01*
X8881890Y3277559D02*
X8913386D01*
X8881890Y3218504D02*
Y3277559D01*
X8913386Y3218504D02*
Y3277559D01*
X8897638Y3236220D02*
Y3259843D01*
X8885827Y3248032D02*
X8909449D01*
X8964567D02*
X8988189D01*
X8976378Y3236220D02*
Y3259843D01*
X8992126Y3218504D02*
Y3277559D01*
X8960630Y3218504D02*
Y3277559D01*
X8992126D01*
X8960630Y3218504D02*
X8992126D01*
X8881890Y3809055D02*
X8913386D01*
X8881890Y3868110D02*
X8913386D01*
X8881890Y3809055D02*
Y3868110D01*
X8913386Y3809055D02*
Y3868110D01*
X8897638Y3826772D02*
Y3850394D01*
X8885827Y3838583D02*
X8909449D01*
X8788898Y3813583D02*
X8848898D01*
Y3863583D01*
X8788898D02*
X8848898D01*
X8788898Y3813583D02*
Y3863583D01*
X8818898Y3826772D02*
Y3850394D01*
X8807087Y3838583D02*
X8830709D01*
X8728346D02*
X8751969D01*
X8740157Y3826772D02*
Y3850394D01*
X8724409Y3809055D02*
Y3868110D01*
X8755906Y3809055D02*
Y3868110D01*
X8724409Y3809055D02*
X8755906D01*
X8724409Y3868110D02*
X8755906D01*
X8881890Y4399606D02*
X8913386D01*
X8881890Y4458662D02*
X8913386D01*
X8881890Y4399606D02*
Y4458662D01*
X8913386Y4399606D02*
Y4458662D01*
X8897638Y4417323D02*
Y4440945D01*
X8885827Y4429134D02*
X8909449D01*
X8788898Y4404134D02*
X8848898D01*
Y4454134D01*
X8788898D02*
X8848898D01*
X8788898Y4404134D02*
Y4454134D01*
X8818898Y4417323D02*
Y4440945D01*
X8807087Y4429134D02*
X8830709D01*
X8728346D02*
X8751969D01*
X8740157Y4417323D02*
Y4440945D01*
X8724409Y4399606D02*
Y4458662D01*
X8755906Y4399606D02*
Y4458662D01*
X8724409Y4399606D02*
X8755906D01*
X8724409Y4458662D02*
X8755906D01*
X9038583Y3649606D02*
Y3673228D01*
X9026772Y3661417D02*
X9050394D01*
X9009055Y3645669D02*
X9068110D01*
X9009055Y3677165D02*
X9068110D01*
Y3645669D02*
Y3677165D01*
X9009055Y3645669D02*
Y3677165D01*
X9038583Y4240158D02*
Y4263779D01*
X9026772Y4251968D02*
X9050394D01*
X9009055Y4236220D02*
X9068110D01*
X9009055Y4267717D02*
X9068110D01*
Y4236220D02*
Y4267717D01*
X9009055Y4236220D02*
Y4267717D01*
X9921260Y2586614D02*
Y2610236D01*
X9909449Y2598425D02*
X9933071D01*
X9891732Y2614173D02*
X9950787D01*
X9891732Y2582677D02*
X9950787D01*
X9891732D02*
Y2614173D01*
X9950787Y2582677D02*
Y2614173D01*
X9921260Y2625984D02*
Y2649606D01*
X9909449Y2637795D02*
X9933071D01*
X9891732Y2622047D02*
X9950787D01*
X9891732Y2653543D02*
X9950787D01*
Y2622047D02*
Y2653543D01*
X9891732Y2622047D02*
Y2653543D01*
X9921260Y2665354D02*
Y2688976D01*
X9909449Y2677165D02*
X9933071D01*
X9891732Y2692914D02*
X9950787D01*
X9891732Y2661417D02*
X9950787D01*
X9891732D02*
Y2692914D01*
X9950787Y2661417D02*
Y2692914D01*
X9921260Y2704724D02*
Y2728346D01*
X9909449Y2716535D02*
X9933071D01*
X9891732Y2732284D02*
X9950787D01*
X9891732Y2700787D02*
X9950787D01*
X9891732D02*
Y2732284D01*
X9950787Y2700787D02*
Y2732284D01*
X9921260Y3177165D02*
Y3200787D01*
X9909449Y3188976D02*
X9933071D01*
X9891732Y3204724D02*
X9950787D01*
X9891732Y3173228D02*
X9950787D01*
X9891732D02*
Y3204724D01*
X9950787Y3173228D02*
Y3204724D01*
X9921260Y3216535D02*
Y3240157D01*
X9909449Y3228347D02*
X9933071D01*
X9891732Y3212598D02*
X9950787D01*
X9891732Y3244095D02*
X9950787D01*
Y3212598D02*
Y3244095D01*
X9891732Y3212598D02*
Y3244095D01*
X9921260Y3255905D02*
Y3279528D01*
X9909449Y3267716D02*
X9933071D01*
X9891732Y3283465D02*
X9950787D01*
X9891732Y3251968D02*
X9950787D01*
X9891732D02*
Y3283465D01*
X9950787Y3251968D02*
Y3283465D01*
X9921260Y3295276D02*
Y3318898D01*
X9909449Y3307087D02*
X9933071D01*
X9891732Y3322835D02*
X9950787D01*
X9891732Y3291339D02*
X9950787D01*
X9891732D02*
Y3322835D01*
X9950787Y3291339D02*
Y3322835D01*
X9921260Y3767717D02*
Y3791339D01*
X9909449Y3779528D02*
X9933071D01*
X9891732Y3795276D02*
X9950787D01*
X9891732Y3763780D02*
X9950787D01*
X9891732D02*
Y3795276D01*
X9950787Y3763780D02*
Y3795276D01*
X9921260Y3807087D02*
Y3830709D01*
X9909449Y3818898D02*
X9933071D01*
X9891732Y3803149D02*
X9950787D01*
X9891732Y3834646D02*
X9950787D01*
Y3803149D02*
Y3834646D01*
X9891732Y3803149D02*
Y3834646D01*
X9921260Y3846457D02*
Y3870079D01*
X9909449Y3858268D02*
X9933071D01*
X9891732Y3874016D02*
X9950787D01*
X9891732Y3842520D02*
X9950787D01*
X9891732D02*
Y3874016D01*
X9950787Y3842520D02*
Y3874016D01*
X9921260Y3885827D02*
Y3909449D01*
X9909449Y3897638D02*
X9933071D01*
X9891732Y3913386D02*
X9950787D01*
X9891732Y3881890D02*
X9950787D01*
X9891732D02*
Y3913386D01*
X9950787Y3881890D02*
Y3913386D01*
X9725000Y3688976D02*
Y3712598D01*
X9713189Y3700787D02*
X9736811D01*
X9695472Y3685039D02*
X9754528D01*
X9695472Y3716535D02*
X9754528D01*
Y3685039D02*
Y3716535D01*
X9695472Y3685039D02*
Y3716535D01*
X9725000Y3098425D02*
Y3122047D01*
X9713189Y3110236D02*
X9736811D01*
X9695472Y3094488D02*
X9754528D01*
X9695472Y3125984D02*
X9754528D01*
Y3094488D02*
Y3125984D01*
X9695472Y3094488D02*
Y3125984D01*
X9725000Y2507874D02*
Y2531496D01*
X9713189Y2519685D02*
X9736811D01*
X9695472Y2503937D02*
X9754528D01*
X9695472Y2535433D02*
X9754528D01*
Y2503937D02*
Y2535433D01*
X9695472Y2503937D02*
Y2535433D01*
X9725000Y2783465D02*
Y2807087D01*
X9713189Y2795276D02*
X9736811D01*
X9695472Y2779528D02*
X9754528D01*
X9695472Y2811024D02*
X9754528D01*
Y2779528D02*
Y2811024D01*
X9695472Y2779528D02*
Y2811024D01*
X9725000Y3374016D02*
Y3397638D01*
X9713189Y3385827D02*
X9736811D01*
X9695472Y3370079D02*
X9754528D01*
X9695472Y3401575D02*
X9754528D01*
Y3370079D02*
Y3401575D01*
X9695472Y3370079D02*
Y3401575D01*
X9725000Y3964567D02*
Y3988189D01*
X9713189Y3976378D02*
X9736811D01*
X9695472Y3960630D02*
X9754528D01*
X9695472Y3992126D02*
X9754528D01*
Y3960630D02*
Y3992126D01*
X9695472Y3960630D02*
Y3992126D01*
X9584252Y2662205D02*
X9615748D01*
X9584252Y2721260D02*
X9615748D01*
X9584252Y2662205D02*
Y2721260D01*
X9615748Y2662205D02*
Y2721260D01*
X9600000Y2679921D02*
Y2703543D01*
X9588189Y2691732D02*
X9611811D01*
X9584252Y3252756D02*
X9615748D01*
X9584252Y3311811D02*
X9615748D01*
X9584252Y3252756D02*
Y3311811D01*
X9615748Y3252756D02*
Y3311811D01*
X9600000Y3270472D02*
Y3294095D01*
X9588189Y3282284D02*
X9611811D01*
X9584252Y3843307D02*
X9615748D01*
X9584252Y3902362D02*
X9615748D01*
X9584252Y3843307D02*
Y3902362D01*
X9615748Y3843307D02*
Y3902362D01*
X9600000Y3861024D02*
Y3884646D01*
X9588189Y3872835D02*
X9611811D01*
X9686496Y3960630D02*
Y3992126D01*
X9627441Y3960630D02*
Y3992126D01*
Y3960630D02*
X9686496D01*
X9627441Y3992126D02*
X9686496D01*
X9645157Y3976378D02*
X9668780D01*
X9656969Y3964567D02*
Y3988189D01*
X9686496Y3370079D02*
Y3401575D01*
X9627441Y3370079D02*
Y3401575D01*
Y3370079D02*
X9686496D01*
X9627441Y3401575D02*
X9686496D01*
X9645157Y3385827D02*
X9668780D01*
X9656969Y3374016D02*
Y3397638D01*
X9686496Y2779528D02*
Y2811024D01*
X9627441Y2779528D02*
Y2811024D01*
Y2779528D02*
X9686496D01*
X9627441Y2811024D02*
X9686496D01*
X9645157Y2795276D02*
X9668780D01*
X9656969Y2783465D02*
Y2807087D01*
X9548189Y2690945D02*
X9571811D01*
X9560000Y2679134D02*
Y2702756D01*
X9575748Y2661417D02*
Y2720472D01*
X9544252Y2661417D02*
Y2720472D01*
X9575748D01*
X9544252Y2661417D02*
X9575748D01*
X9548189Y3281496D02*
X9571811D01*
X9560000Y3269685D02*
Y3293307D01*
X9575748Y3251968D02*
Y3311024D01*
X9544252Y3251968D02*
Y3311024D01*
X9575748D01*
X9544252Y3251968D02*
X9575748D01*
X9548189Y3872047D02*
X9571811D01*
X9560000Y3860236D02*
Y3883858D01*
X9575748Y3842520D02*
Y3901575D01*
X9544252Y3842520D02*
Y3901575D01*
X9575748D01*
X9544252Y3842520D02*
X9575748D01*
X9994370Y2498480D02*
Y2816480D01*
X10171370D01*
Y2498480D02*
Y2816480D01*
X9994370Y2498480D02*
X10171370D01*
X9994370Y3089032D02*
Y3407032D01*
X10171370D01*
Y3089032D02*
Y3407032D01*
X9994370Y3089032D02*
X10171370D01*
X9994370Y3679583D02*
Y3997583D01*
X10171370D01*
Y3679583D02*
Y3997583D01*
X9994370Y3679583D02*
X10171370D01*
X9548189Y4462599D02*
X9571811D01*
X9560000Y4450788D02*
Y4474409D01*
X9575748Y4433071D02*
Y4492126D01*
X9544252Y4433071D02*
Y4492126D01*
X9575748D01*
X9544252Y4433071D02*
X9575748D01*
X9584252Y4433858D02*
X9615748D01*
X9584252Y4492913D02*
X9615748D01*
X9584252Y4433858D02*
Y4492913D01*
X9615748Y4433858D02*
Y4492913D01*
X9600000Y4451575D02*
Y4475197D01*
X9588189Y4463386D02*
X9611811D01*
X9725000Y4279528D02*
Y4303150D01*
X9713189Y4291339D02*
X9736811D01*
X9695472Y4275591D02*
X9754528D01*
X9695472Y4307087D02*
X9754528D01*
Y4275591D02*
Y4307087D01*
X9695472Y4275591D02*
Y4307087D01*
X9725000Y4555118D02*
Y4578740D01*
X9713189Y4566929D02*
X9736811D01*
X9695472Y4551181D02*
X9754528D01*
X9695472Y4582677D02*
X9754528D01*
Y4551181D02*
Y4582677D01*
X9695472Y4551181D02*
Y4582677D01*
X9686496Y4551181D02*
Y4582677D01*
X9627441Y4551181D02*
Y4582677D01*
Y4551181D02*
X9686496D01*
X9627441Y4582677D02*
X9686496D01*
X9645157Y4566929D02*
X9668780D01*
X9656969Y4555118D02*
Y4578740D01*
X9994370Y4270134D02*
Y4588134D01*
X10171370D01*
Y4270134D02*
Y4588134D01*
X9994370Y4270134D02*
X10171370D01*
X9921260Y4358268D02*
Y4381890D01*
X9909449Y4370079D02*
X9933071D01*
X9891732Y4385827D02*
X9950787D01*
X9891732Y4354331D02*
X9950787D01*
X9891732D02*
Y4385827D01*
X9950787Y4354331D02*
Y4385827D01*
X9921260Y4397638D02*
Y4421260D01*
X9909449Y4409449D02*
X9933071D01*
X9891732Y4393701D02*
X9950787D01*
X9891732Y4425197D02*
X9950787D01*
Y4393701D02*
Y4425197D01*
X9891732Y4393701D02*
Y4425197D01*
X9921260Y4437008D02*
Y4460630D01*
X9909449Y4448819D02*
X9933071D01*
X9891732Y4464567D02*
X9950787D01*
X9891732Y4433071D02*
X9950787D01*
X9891732D02*
Y4464567D01*
X9950787Y4433071D02*
Y4464567D01*
X9921260Y4476378D02*
Y4500000D01*
X9909449Y4488189D02*
X9933071D01*
X9891732Y4503937D02*
X9950787D01*
X9891732Y4472441D02*
X9950787D01*
X9891732D02*
Y4503937D01*
X9950787Y4472441D02*
Y4503937D01*
X7032283Y5146850D02*
Y5246850D01*
X6432283Y5146850D02*
Y5246850D01*
Y5146850D02*
X7032283D01*
X6432283Y5246850D02*
X7032283D01*
X6720472Y5196850D02*
X6744095D01*
X6732283Y5185039D02*
Y5208662D01*
X6166142Y5146850D02*
Y5246850D01*
X5566142Y5146850D02*
Y5246850D01*
Y5146850D02*
X6166142D01*
X5566142Y5246850D02*
X6166142D01*
X5854331Y5196850D02*
X5877953D01*
X5866142Y5185039D02*
Y5208662D01*
X5281890Y5146850D02*
Y5246850D01*
X4481887Y5146850D02*
Y5246850D01*
Y5146850D02*
X5281890D01*
X4481887Y5246850D02*
X5281890D01*
X4870079Y5196850D02*
X4893701D01*
X4881890Y5185039D02*
Y5208662D01*
X3909858Y5196063D02*
X3933480D01*
X3921669Y5184252D02*
Y5207874D01*
X3905921Y5166535D02*
Y5225591D01*
X3937417Y5166535D02*
Y5225591D01*
X3905921Y5166535D02*
X3937417D01*
X3905921Y5225591D02*
X3937417D01*
X3856709Y5167323D02*
X3888205D01*
X3856709Y5226378D02*
X3888205D01*
X3856709Y5167323D02*
Y5226378D01*
X3888205Y5167323D02*
Y5226378D01*
X3872457Y5185039D02*
Y5208662D01*
X3860646Y5196850D02*
X3884268D01*
X3807496Y5167323D02*
X3838992D01*
X3807496Y5226378D02*
X3838992D01*
X3807496Y5167323D02*
Y5226378D01*
X3838992Y5167323D02*
Y5226378D01*
X3823244Y5185039D02*
Y5208662D01*
X3811433Y5196850D02*
X3835055D01*
X3762220D02*
X3785843D01*
X3774032Y5185039D02*
Y5208662D01*
X3758283Y5167323D02*
Y5226378D01*
X3789780Y5167323D02*
Y5226378D01*
X3758283Y5167323D02*
X3789780D01*
X3758283Y5226378D02*
X3789780D01*
X3043717Y5196063D02*
X3067339D01*
X3055528Y5184252D02*
Y5207874D01*
X3039780Y5166535D02*
Y5225591D01*
X3071276Y5166535D02*
Y5225591D01*
X3039780Y5166535D02*
X3071276D01*
X3039780Y5225591D02*
X3071276D01*
X2990567Y5167323D02*
X3022063D01*
X2990567Y5226378D02*
X3022063D01*
X2990567Y5167323D02*
Y5226378D01*
X3022063Y5167323D02*
Y5226378D01*
X3006315Y5185039D02*
Y5208662D01*
X2994504Y5196850D02*
X3018126D01*
X2941354Y5167323D02*
X2972851D01*
X2941354Y5226378D02*
X2972851D01*
X2941354Y5167323D02*
Y5226378D01*
X2972851Y5167323D02*
Y5226378D01*
X2957102Y5185039D02*
Y5208662D01*
X2945291Y5196850D02*
X2968913D01*
X2896079D02*
X2919701D01*
X2907890Y5185039D02*
Y5208662D01*
X2892142Y5167323D02*
Y5226378D01*
X2923638Y5167323D02*
Y5226378D01*
X2892142Y5167323D02*
X2923638D01*
X2892142Y5226378D02*
X2923638D01*
X4163638Y5290142D02*
Y5530142D01*
X3629638D02*
X4163638D01*
X3629638Y5290142D02*
Y5530142D01*
Y5290142D02*
X4163638D01*
X3897638Y5421260D02*
Y5444882D01*
X3885827Y5433071D02*
X3909449D01*
X3297496Y5290142D02*
Y5530142D01*
X2763496D02*
X3297496D01*
X2763496Y5290142D02*
Y5530142D01*
Y5290142D02*
X3297496D01*
X3031496Y5421260D02*
Y5444882D01*
X3019685Y5433071D02*
X3043307D01*
X10103150Y5146850D02*
Y5246850D01*
X9503150Y5146850D02*
Y5246850D01*
Y5146850D02*
X10103150D01*
X9503150Y5246850D02*
X10103150D01*
X9791339Y5196850D02*
X9814961D01*
X9803150Y5185039D02*
Y5208662D01*
X9084898Y5290142D02*
Y5530142D01*
X8550898D02*
X9084898D01*
X8550898Y5290142D02*
Y5530142D01*
Y5290142D02*
X9084898D01*
X8818898Y5421260D02*
Y5444882D01*
X8807087Y5433071D02*
X8830709D01*
X8418898Y5146850D02*
Y5246850D01*
X9218901Y5146850D02*
Y5246850D01*
X8418898D02*
X9218901D01*
X8418898Y5146850D02*
X9218901D01*
X8807087Y5196850D02*
X8830709D01*
X8818898Y5185039D02*
Y5208662D01*
X7982535Y5290142D02*
Y5530142D01*
X7448535D02*
X7982535D01*
X7448535Y5290142D02*
Y5530142D01*
Y5290142D02*
X7982535D01*
X7716535Y5421260D02*
Y5444882D01*
X7704724Y5433071D02*
X7728346D01*
X7766535Y5091217D02*
Y5114839D01*
X7754724Y5103028D02*
X7778346D01*
X7737008Y5118776D02*
X7796063D01*
X7737008Y5087280D02*
X7796063D01*
X7737008D02*
Y5118776D01*
X7796063Y5087280D02*
Y5118776D01*
X7866535Y5091217D02*
Y5114839D01*
X7854724Y5103028D02*
X7878346D01*
X7837008Y5118776D02*
X7896063D01*
X7837008Y5087280D02*
X7896063D01*
X7837008D02*
Y5118776D01*
X7896063Y5087280D02*
Y5118776D01*
X7966535Y5091217D02*
Y5114839D01*
X7954724Y5103028D02*
X7978346D01*
X7937008Y5118776D02*
X7996063D01*
X7937008Y5087280D02*
X7996063D01*
X7937008D02*
Y5118776D01*
X7996063Y5087280D02*
Y5118776D01*
X7316535Y5146850D02*
Y5246850D01*
X8116539Y5146850D02*
Y5246850D01*
X7316535D02*
X8116539D01*
X7316535Y5146850D02*
X8116539D01*
X7704724Y5196850D02*
X7728346D01*
X7716535Y5185039D02*
Y5208662D01*
X1832283Y2864528D02*
X1863780D01*
X1832283Y2805472D02*
X1863780D01*
Y2864528D01*
X1832283Y2805472D02*
Y2864528D01*
X1848032Y2823189D02*
Y2846811D01*
X1836220Y2835000D02*
X1859842D01*
X1797638D02*
X1821260D01*
X1809449Y2823189D02*
Y2846811D01*
X1793701Y2805472D02*
Y2864528D01*
X1825197Y2805472D02*
Y2864528D01*
X1793701Y2805472D02*
X1825197D01*
X1793701Y2864528D02*
X1825197D01*
X2749606Y1603543D02*
Y1703543D01*
X3549610Y1603543D02*
Y1703543D01*
X2749606D02*
X3549610D01*
X2749606Y1603543D02*
X3549610D01*
X3137795Y1653543D02*
X3161417D01*
X3149606Y1641732D02*
Y1665354D01*
X4796850Y1603543D02*
Y1703543D01*
X5596854Y1603543D02*
Y1703543D01*
X4796850D02*
X5596854D01*
X4796850Y1603543D02*
X5596854D01*
X5185039Y1653543D02*
X5208661D01*
X5196850Y1641732D02*
Y1665354D01*
X6844095Y1603543D02*
Y1703543D01*
X7644098Y1603543D02*
Y1703543D01*
X6844095D02*
X7644098D01*
X6844095Y1603543D02*
X7644098D01*
X7232283Y1653543D02*
X7255905D01*
X7244095Y1641732D02*
Y1665354D01*
X8891339Y1603543D02*
Y1703543D01*
X9691342Y1603543D02*
Y1703543D01*
X8891339D02*
X9691342D01*
X8891339Y1603543D02*
X9691342D01*
X9279528Y1653543D02*
X9303150D01*
X9291339Y1641732D02*
Y1665354D01*
X702362Y1603543D02*
Y1703543D01*
X1502365Y1603543D02*
Y1703543D01*
X702362D02*
X1502365D01*
X702362Y1603543D02*
X1502365D01*
X1090551Y1653543D02*
X1114173D01*
X1102362Y1641732D02*
Y1665354D01*
X1798032Y5086614D02*
Y5110236D01*
X1786221Y5098425D02*
X1809843D01*
X1768504Y5082677D02*
X1827559D01*
X1768504Y5114173D02*
X1827559D01*
Y5082677D02*
Y5114173D01*
X1768504Y5082677D02*
Y5114173D01*
X1698032Y5086614D02*
Y5110236D01*
X1686221Y5098425D02*
X1709843D01*
X1668504Y5082677D02*
X1727559D01*
X1668504Y5114173D02*
X1727559D01*
Y5082677D02*
Y5114173D01*
X1668504Y5082677D02*
Y5114173D01*
X1667717Y5366181D02*
Y5397677D01*
X1726772Y5366181D02*
Y5397677D01*
X1667717D02*
X1726772D01*
X1667717Y5366181D02*
X1726772D01*
X1685433Y5381929D02*
X1709055D01*
X1697244Y5370118D02*
Y5393740D01*
X1667244Y5356929D02*
X1727244D01*
X1667244Y5306929D02*
Y5356929D01*
Y5306929D02*
X1727244D01*
Y5356929D01*
X1697244Y5320118D02*
Y5343740D01*
X1685433Y5331929D02*
X1709055D01*
X1697244Y5270118D02*
Y5293740D01*
X1685433Y5281929D02*
X1709055D01*
X1667717Y5297677D02*
X1726772D01*
X1667717Y5266181D02*
X1726772D01*
X1667717D02*
Y5297677D01*
X1726772Y5266181D02*
Y5297677D01*
X1647244Y5146850D02*
Y5246850D01*
X2447247Y5146850D02*
Y5246850D01*
X1647244D02*
X2447247D01*
X1647244Y5146850D02*
X2447247D01*
X2035433Y5196850D02*
X2059055D01*
X2047244Y5185039D02*
Y5208662D01*
X1102362Y5094941D02*
X1125984D01*
X1114173Y5083130D02*
Y5106752D01*
X1098425Y5065413D02*
Y5124468D01*
X1129921Y5065413D02*
Y5124468D01*
X1098425Y5065413D02*
X1129921D01*
X1098425Y5124468D02*
X1129921D01*
X1011811Y5094941D02*
X1035433D01*
X1023622Y5083130D02*
Y5106752D01*
X1039370Y5065413D02*
Y5124468D01*
X1007874Y5065413D02*
Y5124468D01*
X1039370D01*
X1007874Y5065413D02*
X1039370D01*
X966535Y5094941D02*
X990157D01*
X978346Y5083130D02*
Y5106752D01*
X962598Y5065413D02*
Y5124468D01*
X994094Y5065413D02*
Y5124468D01*
X962598Y5065413D02*
X994094D01*
X962598Y5124468D02*
X994094D01*
X921260Y5094941D02*
X944882D01*
X933071Y5083130D02*
Y5106752D01*
X917323Y5065413D02*
Y5124468D01*
X948819Y5065413D02*
Y5124468D01*
X917323Y5065413D02*
X948819D01*
X917323Y5124468D02*
X948819D01*
X5539291Y3414055D02*
X5562913D01*
X5551102Y3402244D02*
Y3425866D01*
X5535354Y3384528D02*
Y3443583D01*
X5566850Y3384528D02*
Y3443583D01*
X5535354Y3384528D02*
X5566850D01*
X5535354Y3443583D02*
X5566850D01*
X4764661Y4120472D02*
X5500661D01*
X4764661Y3108472D02*
Y4120472D01*
Y3108472D02*
X5500661D01*
Y4120472D01*
X4894409Y4193583D02*
X4918032D01*
X4906221Y4181772D02*
Y4205394D01*
X4890472Y4164055D02*
Y4223110D01*
X4921968Y4164055D02*
Y4223110D01*
X4890472Y4164055D02*
X4921968D01*
X4890472Y4223110D02*
X4921968D01*
X4984173Y4193583D02*
X5007795D01*
X4995984Y4181772D02*
Y4205394D01*
X4980236Y4164055D02*
Y4223110D01*
X5011732Y4164055D02*
Y4223110D01*
X4980236Y4164055D02*
X5011732D01*
X4980236Y4223110D02*
X5011732D01*
X5066850Y4193583D02*
X5090472D01*
X5078661Y4181772D02*
Y4205394D01*
X5062913Y4164055D02*
Y4223110D01*
X5094409Y4164055D02*
Y4223110D01*
X5062913Y4164055D02*
X5094409D01*
X5062913Y4223110D02*
X5094409D01*
X5194409Y4193583D02*
X5218032D01*
X5206221Y4181772D02*
Y4205394D01*
X5190472Y4164055D02*
Y4223110D01*
X5221968Y4164055D02*
Y4223110D01*
X5190472Y4164055D02*
X5221968D01*
X5190472Y4223110D02*
X5221968D01*
X3177165Y788740D02*
X3200787D01*
X3188976Y776929D02*
Y800551D01*
X3173228Y759213D02*
Y818268D01*
X3204724Y759213D02*
Y818268D01*
X3173228Y759213D02*
X3204724D01*
X3173228Y818268D02*
X3204724D01*
X3413386Y788740D02*
X3437008D01*
X3425197Y776929D02*
Y800551D01*
X3409449Y759213D02*
Y818268D01*
X3440945Y759213D02*
Y818268D01*
X3409449Y759213D02*
X3440945D01*
X3409449Y818268D02*
X3440945D01*
X3649606Y788740D02*
X3673228D01*
X3661417Y776929D02*
Y800551D01*
X3645669Y759213D02*
Y818268D01*
X3677165Y759213D02*
Y818268D01*
X3645669Y759213D02*
X3677165D01*
X3645669Y818268D02*
X3677165D01*
X3885827Y788740D02*
X3909449D01*
X3897638Y776929D02*
Y800551D01*
X3881890Y759213D02*
Y818268D01*
X3913386Y759213D02*
Y818268D01*
X3881890Y759213D02*
X3913386D01*
X3881890Y818268D02*
X3913386D01*
X2232284Y788740D02*
X2255905D01*
X2244095Y776929D02*
Y800551D01*
X2228346Y759213D02*
Y818268D01*
X2259843Y759213D02*
Y818268D01*
X2228346Y759213D02*
X2259843D01*
X2228346Y818268D02*
X2259843D01*
X2468504Y788740D02*
X2492126D01*
X2480315Y776929D02*
Y800551D01*
X2464567Y759213D02*
Y818268D01*
X2496063Y759213D02*
Y818268D01*
X2464567Y759213D02*
X2496063D01*
X2464567Y818268D02*
X2496063D01*
X2704724Y788740D02*
X2728346D01*
X2716535Y776929D02*
Y800551D01*
X2700787Y759213D02*
Y818268D01*
X2732283Y759213D02*
Y818268D01*
X2700787Y759213D02*
X2732283D01*
X2700787Y818268D02*
X2732283D01*
X2940945Y788740D02*
X2964567D01*
X2952756Y776929D02*
Y800551D01*
X2937008Y759213D02*
Y818268D01*
X2968504Y759213D02*
Y818268D01*
X2937008Y759213D02*
X2968504D01*
X2937008Y818268D02*
X2968504D01*
X5224409Y788740D02*
X5248032D01*
X5236221Y776929D02*
Y800551D01*
X5220472Y759213D02*
Y818268D01*
X5251968Y759213D02*
Y818268D01*
X5220472Y759213D02*
X5251968D01*
X5220472Y818268D02*
X5251968D01*
X5460630Y788740D02*
X5484252D01*
X5472441Y776929D02*
Y800551D01*
X5456693Y759213D02*
Y818268D01*
X5488189Y759213D02*
Y818268D01*
X5456693Y759213D02*
X5488189D01*
X5456693Y818268D02*
X5488189D01*
X5696850Y788740D02*
X5720472D01*
X5708661Y776929D02*
Y800551D01*
X5692913Y759213D02*
Y818268D01*
X5724409Y759213D02*
Y818268D01*
X5692913Y759213D02*
X5724409D01*
X5692913Y818268D02*
X5724409D01*
X5933071Y788740D02*
X5956693D01*
X5944882Y776929D02*
Y800551D01*
X5929134Y759213D02*
Y818268D01*
X5960630Y759213D02*
Y818268D01*
X5929134Y759213D02*
X5960630D01*
X5929134Y818268D02*
X5960630D01*
X4279528Y788740D02*
X4303150D01*
X4291339Y776929D02*
Y800551D01*
X4275591Y759213D02*
Y818268D01*
X4307087Y759213D02*
Y818268D01*
X4275591Y759213D02*
X4307087D01*
X4275591Y818268D02*
X4307087D01*
X4515748Y788740D02*
X4539370D01*
X4527559Y776929D02*
Y800551D01*
X4511811Y759213D02*
Y818268D01*
X4543307Y759213D02*
Y818268D01*
X4511811Y759213D02*
X4543307D01*
X4511811Y818268D02*
X4543307D01*
X4751968Y788740D02*
X4775591D01*
X4763779Y776929D02*
Y800551D01*
X4748031Y759213D02*
Y818268D01*
X4779528Y759213D02*
Y818268D01*
X4748031Y759213D02*
X4779528D01*
X4748031Y818268D02*
X4779528D01*
X4988189Y788740D02*
X5011811D01*
X5000000Y776929D02*
Y800551D01*
X4984252Y759213D02*
Y818268D01*
X5015748Y759213D02*
Y818268D01*
X4984252Y759213D02*
X5015748D01*
X4984252Y818268D02*
X5015748D01*
X7271654Y788740D02*
X7295276D01*
X7283465Y776929D02*
Y800551D01*
X7267717Y759213D02*
Y818268D01*
X7299213Y759213D02*
Y818268D01*
X7267717Y759213D02*
X7299213D01*
X7267717Y818268D02*
X7299213D01*
X7507874Y788740D02*
X7531496D01*
X7519685Y776929D02*
Y800551D01*
X7503937Y759213D02*
Y818268D01*
X7535433Y759213D02*
Y818268D01*
X7503937Y759213D02*
X7535433D01*
X7503937Y818268D02*
X7535433D01*
X7744095Y788740D02*
X7767717D01*
X7755905Y776929D02*
Y800551D01*
X7740157Y759213D02*
Y818268D01*
X7771654Y759213D02*
Y818268D01*
X7740157Y759213D02*
X7771654D01*
X7740157Y818268D02*
X7771654D01*
X7980315Y788740D02*
X8003937D01*
X7992126Y776929D02*
Y800551D01*
X7976378Y759213D02*
Y818268D01*
X8007874Y759213D02*
Y818268D01*
X7976378Y759213D02*
X8007874D01*
X7976378Y818268D02*
X8007874D01*
X6326772Y788740D02*
X6350394D01*
X6338583Y776929D02*
Y800551D01*
X6322835Y759213D02*
Y818268D01*
X6354331Y759213D02*
Y818268D01*
X6322835Y759213D02*
X6354331D01*
X6322835Y818268D02*
X6354331D01*
X6562992Y788740D02*
X6586614D01*
X6574803Y776929D02*
Y800551D01*
X6559055Y759213D02*
Y818268D01*
X6590551Y759213D02*
Y818268D01*
X6559055Y759213D02*
X6590551D01*
X6559055Y818268D02*
X6590551D01*
X6799213Y788740D02*
X6822835D01*
X6811024Y776929D02*
Y800551D01*
X6795275Y759213D02*
Y818268D01*
X6826772Y759213D02*
Y818268D01*
X6795275Y759213D02*
X6826772D01*
X6795275Y818268D02*
X6826772D01*
X7035433Y788740D02*
X7059055D01*
X7047244Y776929D02*
Y800551D01*
X7031496Y759213D02*
Y818268D01*
X7062992Y759213D02*
Y818268D01*
X7031496Y759213D02*
X7062992D01*
X7031496Y818268D02*
X7062992D01*
X9318898Y788740D02*
X9342520D01*
X9330709Y776929D02*
Y800551D01*
X9314961Y759213D02*
Y818268D01*
X9346457Y759213D02*
Y818268D01*
X9314961Y759213D02*
X9346457D01*
X9314961Y818268D02*
X9346457D01*
X9555118Y788740D02*
X9578740D01*
X9566929Y776929D02*
Y800551D01*
X9551181Y759213D02*
Y818268D01*
X9582677Y759213D02*
Y818268D01*
X9551181Y759213D02*
X9582677D01*
X9551181Y818268D02*
X9582677D01*
X9791339Y788740D02*
X9814961D01*
X9803150Y776929D02*
Y800551D01*
X9787401Y759213D02*
Y818268D01*
X9818898Y759213D02*
Y818268D01*
X9787401Y759213D02*
X9818898D01*
X9787401Y818268D02*
X9818898D01*
X10027559Y788740D02*
X10051181D01*
X10039370Y776929D02*
Y800551D01*
X10023622Y759213D02*
Y818268D01*
X10055118Y759213D02*
Y818268D01*
X10023622Y759213D02*
X10055118D01*
X10023622Y818268D02*
X10055118D01*
X8374016Y788740D02*
X8397638D01*
X8385827Y776929D02*
Y800551D01*
X8370079Y759213D02*
Y818268D01*
X8401575Y759213D02*
Y818268D01*
X8370079Y759213D02*
X8401575D01*
X8370079Y818268D02*
X8401575D01*
X8610236Y788740D02*
X8633858D01*
X8622047Y776929D02*
Y800551D01*
X8606299Y759213D02*
Y818268D01*
X8637795Y759213D02*
Y818268D01*
X8606299Y759213D02*
X8637795D01*
X8606299Y818268D02*
X8637795D01*
X8846457Y788740D02*
X8870079D01*
X8858268Y776929D02*
Y800551D01*
X8842520Y759213D02*
Y818268D01*
X8874016Y759213D02*
Y818268D01*
X8842520Y759213D02*
X8874016D01*
X8842520Y818268D02*
X8874016D01*
X9082677Y788740D02*
X9106299D01*
X9094488Y776929D02*
Y800551D01*
X9078740Y759213D02*
Y818268D01*
X9110236Y759213D02*
Y818268D01*
X9078740Y759213D02*
X9110236D01*
X9078740Y818268D02*
X9110236D01*
X3276772Y822992D02*
Y854488D01*
X3217716Y822992D02*
Y854488D01*
Y822992D02*
X3276772D01*
X3217716Y854488D02*
X3276772D01*
X3235433Y838740D02*
X3259055D01*
X3247244Y826929D02*
Y850551D01*
X3512992Y822992D02*
Y854488D01*
X3453937Y822992D02*
Y854488D01*
Y822992D02*
X3512992D01*
X3453937Y854488D02*
X3512992D01*
X3471654Y838740D02*
X3495276D01*
X3483465Y826929D02*
Y850551D01*
X3749213Y822992D02*
Y854488D01*
X3690157Y822992D02*
Y854488D01*
Y822992D02*
X3749213D01*
X3690157Y854488D02*
X3749213D01*
X3707874Y838740D02*
X3731496D01*
X3719685Y826929D02*
Y850551D01*
X3985433Y822992D02*
Y854488D01*
X3926378Y822992D02*
Y854488D01*
Y822992D02*
X3985433D01*
X3926378Y854488D02*
X3985433D01*
X3944095Y838740D02*
X3967716D01*
X3955905Y826929D02*
Y850551D01*
X2331890Y822992D02*
Y854488D01*
X2272835Y822992D02*
Y854488D01*
Y822992D02*
X2331890D01*
X2272835Y854488D02*
X2331890D01*
X2290551Y838740D02*
X2314173D01*
X2302362Y826929D02*
Y850551D01*
X2568110Y822992D02*
Y854488D01*
X2509055Y822992D02*
Y854488D01*
Y822992D02*
X2568110D01*
X2509055Y854488D02*
X2568110D01*
X2526772Y838740D02*
X2550394D01*
X2538583Y826929D02*
Y850551D01*
X2804331Y822992D02*
Y854488D01*
X2745276Y822992D02*
Y854488D01*
Y822992D02*
X2804331D01*
X2745276Y854488D02*
X2804331D01*
X2762992Y838740D02*
X2786614D01*
X2774803Y826929D02*
Y850551D01*
X3040551Y822992D02*
Y854488D01*
X2981496Y822992D02*
Y854488D01*
Y822992D02*
X3040551D01*
X2981496Y854488D02*
X3040551D01*
X2999213Y838740D02*
X3022835D01*
X3011024Y826929D02*
Y850551D01*
X5324016Y822992D02*
Y854488D01*
X5264961Y822992D02*
Y854488D01*
Y822992D02*
X5324016D01*
X5264961Y854488D02*
X5324016D01*
X5282677Y838740D02*
X5306299D01*
X5294488Y826929D02*
Y850551D01*
X5560236Y822992D02*
Y854488D01*
X5501181Y822992D02*
Y854488D01*
Y822992D02*
X5560236D01*
X5501181Y854488D02*
X5560236D01*
X5518898Y838740D02*
X5542520D01*
X5530709Y826929D02*
Y850551D01*
X5796457Y822992D02*
Y854488D01*
X5737401Y822992D02*
Y854488D01*
Y822992D02*
X5796457D01*
X5737401Y854488D02*
X5796457D01*
X5755118Y838740D02*
X5778740D01*
X5766929Y826929D02*
Y850551D01*
X6032677Y822992D02*
Y854488D01*
X5973622Y822992D02*
Y854488D01*
Y822992D02*
X6032677D01*
X5973622Y854488D02*
X6032677D01*
X5991339Y838740D02*
X6014961D01*
X6003150Y826929D02*
Y850551D01*
X4379134Y822992D02*
Y854488D01*
X4320079Y822992D02*
Y854488D01*
Y822992D02*
X4379134D01*
X4320079Y854488D02*
X4379134D01*
X4337795Y838740D02*
X4361417D01*
X4349606Y826929D02*
Y850551D01*
X4615354Y822992D02*
Y854488D01*
X4556299Y822992D02*
Y854488D01*
Y822992D02*
X4615354D01*
X4556299Y854488D02*
X4615354D01*
X4574016Y838740D02*
X4597638D01*
X4585827Y826929D02*
Y850551D01*
X4851575Y822992D02*
Y854488D01*
X4792520Y822992D02*
Y854488D01*
Y822992D02*
X4851575D01*
X4792520Y854488D02*
X4851575D01*
X4810236Y838740D02*
X4833858D01*
X4822047Y826929D02*
Y850551D01*
X5087795Y822992D02*
Y854488D01*
X5028740Y822992D02*
Y854488D01*
Y822992D02*
X5087795D01*
X5028740Y854488D02*
X5087795D01*
X5046457Y838740D02*
X5070079D01*
X5058268Y826929D02*
Y850551D01*
X7371260Y822992D02*
Y854488D01*
X7312205Y822992D02*
Y854488D01*
Y822992D02*
X7371260D01*
X7312205Y854488D02*
X7371260D01*
X7329921Y838740D02*
X7353543D01*
X7341732Y826929D02*
Y850551D01*
X7607480Y822992D02*
Y854488D01*
X7548425Y822992D02*
Y854488D01*
Y822992D02*
X7607480D01*
X7548425Y854488D02*
X7607480D01*
X7566142Y838740D02*
X7589764D01*
X7577953Y826929D02*
Y850551D01*
X7843701Y822992D02*
Y854488D01*
X7784646Y822992D02*
Y854488D01*
Y822992D02*
X7843701D01*
X7784646Y854488D02*
X7843701D01*
X7802362Y838740D02*
X7825984D01*
X7814173Y826929D02*
Y850551D01*
X8079921Y822992D02*
Y854488D01*
X8020866Y822992D02*
Y854488D01*
Y822992D02*
X8079921D01*
X8020866Y854488D02*
X8079921D01*
X8038583Y838740D02*
X8062205D01*
X8050394Y826929D02*
Y850551D01*
X6426378Y822992D02*
Y854488D01*
X6367323Y822992D02*
Y854488D01*
Y822992D02*
X6426378D01*
X6367323Y854488D02*
X6426378D01*
X6385039Y838740D02*
X6408661D01*
X6396850Y826929D02*
Y850551D01*
X6662599Y822992D02*
Y854488D01*
X6603543Y822992D02*
Y854488D01*
Y822992D02*
X6662599D01*
X6603543Y854488D02*
X6662599D01*
X6621260Y838740D02*
X6644882D01*
X6633071Y826929D02*
Y850551D01*
X6898819Y822992D02*
Y854488D01*
X6839764Y822992D02*
Y854488D01*
Y822992D02*
X6898819D01*
X6839764Y854488D02*
X6898819D01*
X6857480Y838740D02*
X6881102D01*
X6869291Y826929D02*
Y850551D01*
X7135039Y822992D02*
Y854488D01*
X7075984Y822992D02*
Y854488D01*
Y822992D02*
X7135039D01*
X7075984Y854488D02*
X7135039D01*
X7093701Y838740D02*
X7117323D01*
X7105512Y826929D02*
Y850551D01*
X9418504Y822992D02*
Y854488D01*
X9359449Y822992D02*
Y854488D01*
Y822992D02*
X9418504D01*
X9359449Y854488D02*
X9418504D01*
X9377165Y838740D02*
X9400787D01*
X9388976Y826929D02*
Y850551D01*
X9654725Y822992D02*
Y854488D01*
X9595669Y822992D02*
Y854488D01*
Y822992D02*
X9654725D01*
X9595669Y854488D02*
X9654725D01*
X9613386Y838740D02*
X9637008D01*
X9625197Y826929D02*
Y850551D01*
X9890945Y822992D02*
Y854488D01*
X9831890Y822992D02*
Y854488D01*
Y822992D02*
X9890945D01*
X9831890Y854488D02*
X9890945D01*
X9849606Y838740D02*
X9873228D01*
X9861417Y826929D02*
Y850551D01*
X10127165Y822992D02*
Y854488D01*
X10068110Y822992D02*
Y854488D01*
Y822992D02*
X10127165D01*
X10068110Y854488D02*
X10127165D01*
X10085827Y838740D02*
X10109449D01*
X10097638Y826929D02*
Y850551D01*
X8473622Y822992D02*
Y854488D01*
X8414567Y822992D02*
Y854488D01*
Y822992D02*
X8473622D01*
X8414567Y854488D02*
X8473622D01*
X8432283Y838740D02*
X8455906D01*
X8444094Y826929D02*
Y850551D01*
X8709843Y822992D02*
Y854488D01*
X8650787Y822992D02*
Y854488D01*
Y822992D02*
X8709843D01*
X8650787Y854488D02*
X8709843D01*
X8668504Y838740D02*
X8692126D01*
X8680315Y826929D02*
Y850551D01*
X8946063Y822992D02*
Y854488D01*
X8887008Y822992D02*
Y854488D01*
Y822992D02*
X8946063D01*
X8887008Y854488D02*
X8946063D01*
X8904724Y838740D02*
X8928346D01*
X8916535Y826929D02*
Y850551D01*
X9182283Y822992D02*
Y854488D01*
X9123228Y822992D02*
Y854488D01*
Y822992D02*
X9182283D01*
X9123228Y854488D02*
X9182283D01*
X9140945Y838740D02*
X9164567D01*
X9152756Y826929D02*
Y850551D01*
X3218032Y763740D02*
X3278032D01*
Y813740D01*
X3218032D02*
X3278032D01*
X3218032Y763740D02*
Y813740D01*
X3248032Y776929D02*
Y800551D01*
X3236220Y788740D02*
X3259843D01*
X3454252Y763740D02*
X3514252D01*
Y813740D01*
X3454252D02*
X3514252D01*
X3454252Y763740D02*
Y813740D01*
X3484252Y776929D02*
Y800551D01*
X3472441Y788740D02*
X3496063D01*
X3690472Y763740D02*
X3750472D01*
Y813740D01*
X3690472D02*
X3750472D01*
X3690472Y763740D02*
Y813740D01*
X3720472Y776929D02*
Y800551D01*
X3708662Y788740D02*
X3732284D01*
X3926693Y763740D02*
X3986693D01*
Y813740D01*
X3926693D02*
X3986693D01*
X3926693Y763740D02*
Y813740D01*
X3956693Y776929D02*
Y800551D01*
X3944882Y788740D02*
X3968504D01*
X2273150Y763740D02*
X2333150D01*
Y813740D01*
X2273150D02*
X2333150D01*
X2273150Y763740D02*
Y813740D01*
X2303150Y776929D02*
Y800551D01*
X2291339Y788740D02*
X2314961D01*
X2509370Y763740D02*
X2569370D01*
Y813740D01*
X2509370D02*
X2569370D01*
X2509370Y763740D02*
Y813740D01*
X2539370Y776929D02*
Y800551D01*
X2527559Y788740D02*
X2551181D01*
X2745590Y763740D02*
X2805590D01*
Y813740D01*
X2745590D02*
X2805590D01*
X2745590Y763740D02*
Y813740D01*
X2775590Y776929D02*
Y800551D01*
X2763780Y788740D02*
X2787401D01*
X2981811Y763740D02*
X3041811D01*
Y813740D01*
X2981811D02*
X3041811D01*
X2981811Y763740D02*
Y813740D01*
X3011811Y776929D02*
Y800551D01*
X3000000Y788740D02*
X3023622D01*
X5265276Y763740D02*
X5325276D01*
Y813740D01*
X5265276D02*
X5325276D01*
X5265276Y763740D02*
Y813740D01*
X5295276Y776929D02*
Y800551D01*
X5283465Y788740D02*
X5307087D01*
X5501496Y763740D02*
X5561496D01*
Y813740D01*
X5501496D02*
X5561496D01*
X5501496Y763740D02*
Y813740D01*
X5531496Y776929D02*
Y800551D01*
X5519685Y788740D02*
X5543307D01*
X5737717Y763740D02*
X5797717D01*
Y813740D01*
X5737717D02*
X5797717D01*
X5737717Y763740D02*
Y813740D01*
X5767717Y776929D02*
Y800551D01*
X5755905Y788740D02*
X5779528D01*
X5973937Y763740D02*
X6033937D01*
Y813740D01*
X5973937D02*
X6033937D01*
X5973937Y763740D02*
Y813740D01*
X6003937Y776929D02*
Y800551D01*
X5992126Y788740D02*
X6015748D01*
X4320394Y763740D02*
X4380394D01*
Y813740D01*
X4320394D02*
X4380394D01*
X4320394Y763740D02*
Y813740D01*
X4350394Y776929D02*
Y800551D01*
X4338583Y788740D02*
X4362205D01*
X4556614Y763740D02*
X4616614D01*
Y813740D01*
X4556614D02*
X4616614D01*
X4556614Y763740D02*
Y813740D01*
X4586614Y776929D02*
Y800551D01*
X4574803Y788740D02*
X4598425D01*
X4792835Y763740D02*
X4852835D01*
Y813740D01*
X4792835D02*
X4852835D01*
X4792835Y763740D02*
Y813740D01*
X4822835Y776929D02*
Y800551D01*
X4811024Y788740D02*
X4834646D01*
X5029055Y763740D02*
X5089055D01*
Y813740D01*
X5029055D02*
X5089055D01*
X5029055Y763740D02*
Y813740D01*
X5059055Y776929D02*
Y800551D01*
X5047244Y788740D02*
X5070866D01*
X7312520Y763740D02*
X7372520D01*
Y813740D01*
X7312520D02*
X7372520D01*
X7312520Y763740D02*
Y813740D01*
X7342520Y776929D02*
Y800551D01*
X7330709Y788740D02*
X7354331D01*
X7548740Y763740D02*
X7608740D01*
Y813740D01*
X7548740D02*
X7608740D01*
X7548740Y763740D02*
Y813740D01*
X7578740Y776929D02*
Y800551D01*
X7566929Y788740D02*
X7590551D01*
X7784961Y763740D02*
X7844961D01*
Y813740D01*
X7784961D02*
X7844961D01*
X7784961Y763740D02*
Y813740D01*
X7814961Y776929D02*
Y800551D01*
X7803150Y788740D02*
X7826772D01*
X8021181Y763740D02*
X8081181D01*
Y813740D01*
X8021181D02*
X8081181D01*
X8021181Y763740D02*
Y813740D01*
X8051181Y776929D02*
Y800551D01*
X8039370Y788740D02*
X8062992D01*
X6367638Y763740D02*
X6427638D01*
Y813740D01*
X6367638D02*
X6427638D01*
X6367638Y763740D02*
Y813740D01*
X6397638Y776929D02*
Y800551D01*
X6385827Y788740D02*
X6409449D01*
X6603858Y763740D02*
X6663858D01*
Y813740D01*
X6603858D02*
X6663858D01*
X6603858Y763740D02*
Y813740D01*
X6633858Y776929D02*
Y800551D01*
X6622047Y788740D02*
X6645669D01*
X6840079Y763740D02*
X6900079D01*
Y813740D01*
X6840079D02*
X6900079D01*
X6840079Y763740D02*
Y813740D01*
X6870079Y776929D02*
Y800551D01*
X6858268Y788740D02*
X6881890D01*
X7076299Y763740D02*
X7136299D01*
Y813740D01*
X7076299D02*
X7136299D01*
X7076299Y763740D02*
Y813740D01*
X7106299Y776929D02*
Y800551D01*
X7094488Y788740D02*
X7118110D01*
X9359764Y763740D02*
X9419764D01*
Y813740D01*
X9359764D02*
X9419764D01*
X9359764Y763740D02*
Y813740D01*
X9389764Y776929D02*
Y800551D01*
X9377953Y788740D02*
X9401575D01*
X9595984Y763740D02*
X9655984D01*
Y813740D01*
X9595984D02*
X9655984D01*
X9595984Y763740D02*
Y813740D01*
X9625984Y776929D02*
Y800551D01*
X9614173Y788740D02*
X9637795D01*
X9832205Y763740D02*
X9892205D01*
Y813740D01*
X9832205D02*
X9892205D01*
X9832205Y763740D02*
Y813740D01*
X9862205Y776929D02*
Y800551D01*
X9850394Y788740D02*
X9874016D01*
X10068425Y763740D02*
X10128425D01*
Y813740D01*
X10068425D02*
X10128425D01*
X10068425Y763740D02*
Y813740D01*
X10098425Y776929D02*
Y800551D01*
X10086614Y788740D02*
X10110236D01*
X8414882Y763740D02*
X8474882D01*
Y813740D01*
X8414882D02*
X8474882D01*
X8414882Y763740D02*
Y813740D01*
X8444882Y776929D02*
Y800551D01*
X8433071Y788740D02*
X8456693D01*
X8651102Y763740D02*
X8711102D01*
Y813740D01*
X8651102D02*
X8711102D01*
X8651102Y763740D02*
Y813740D01*
X8681102Y776929D02*
Y800551D01*
X8669291Y788740D02*
X8692913D01*
X8887323Y763740D02*
X8947323D01*
Y813740D01*
X8887323D02*
X8947323D01*
X8887323Y763740D02*
Y813740D01*
X8917323Y776929D02*
Y800551D01*
X8905512Y788740D02*
X8929134D01*
X9123543Y763740D02*
X9183543D01*
Y813740D01*
X9123543D02*
X9183543D01*
X9123543Y763740D02*
Y813740D01*
X9153543Y776929D02*
Y800551D01*
X9141732Y788740D02*
X9165354D01*
X9377953Y685000D02*
X9401575D01*
X9389764Y673189D02*
Y696811D01*
X9405512Y655472D02*
Y714528D01*
X9374016Y655472D02*
Y714528D01*
X9405512D01*
X9374016Y655472D02*
X9405512D01*
X9614173Y685000D02*
X9637795D01*
X9625984Y673189D02*
Y696811D01*
X9641732Y655472D02*
Y714528D01*
X9610236Y655472D02*
Y714528D01*
X9641732D01*
X9610236Y655472D02*
X9641732D01*
X9850394Y685000D02*
X9874016D01*
X9862205Y673189D02*
Y696811D01*
X9877953Y655472D02*
Y714528D01*
X9846457Y655472D02*
Y714528D01*
X9877953D01*
X9846457Y655472D02*
X9877953D01*
X10086614Y685000D02*
X10110236D01*
X10098425Y673189D02*
Y696811D01*
X10114173Y655472D02*
Y714528D01*
X10082677Y655472D02*
Y714528D01*
X10114173D01*
X10082677Y655472D02*
X10114173D01*
X8433071Y685000D02*
X8456693D01*
X8444882Y673189D02*
Y696811D01*
X8460630Y655472D02*
Y714528D01*
X8429134Y655472D02*
Y714528D01*
X8460630D01*
X8429134Y655472D02*
X8460630D01*
X8669291Y685000D02*
X8692913D01*
X8681102Y673189D02*
Y696811D01*
X8696851Y655472D02*
Y714528D01*
X8665354Y655472D02*
Y714528D01*
X8696851D01*
X8665354Y655472D02*
X8696851D01*
X8905512Y685000D02*
X8929134D01*
X8917323Y673189D02*
Y696811D01*
X8933071Y655472D02*
Y714528D01*
X8901575Y655472D02*
Y714528D01*
X8933071D01*
X8901575Y655472D02*
X8933071D01*
X9141732Y685000D02*
X9165354D01*
X9153543Y673189D02*
Y696811D01*
X9169291Y655472D02*
Y714528D01*
X9137795Y655472D02*
Y714528D01*
X9169291D01*
X9137795Y655472D02*
X9169291D01*
X7330709Y685000D02*
X7354331D01*
X7342520Y673189D02*
Y696811D01*
X7358268Y655472D02*
Y714528D01*
X7326772Y655472D02*
Y714528D01*
X7358268D01*
X7326772Y655472D02*
X7358268D01*
X7566929Y685000D02*
X7590551D01*
X7578740Y673189D02*
Y696811D01*
X7594488Y655472D02*
Y714528D01*
X7562992Y655472D02*
Y714528D01*
X7594488D01*
X7562992Y655472D02*
X7594488D01*
X7803150Y685000D02*
X7826772D01*
X7814961Y673189D02*
Y696811D01*
X7830709Y655472D02*
Y714528D01*
X7799213Y655472D02*
Y714528D01*
X7830709D01*
X7799213Y655472D02*
X7830709D01*
X8039370Y685000D02*
X8062992D01*
X8051181Y673189D02*
Y696811D01*
X8066929Y655472D02*
Y714528D01*
X8035433Y655472D02*
Y714528D01*
X8066929D01*
X8035433Y655472D02*
X8066929D01*
X6385827Y685000D02*
X6409449D01*
X6397638Y673189D02*
Y696811D01*
X6413386Y655472D02*
Y714528D01*
X6381890Y655472D02*
Y714528D01*
X6413386D01*
X6381890Y655472D02*
X6413386D01*
X6622047Y685000D02*
X6645669D01*
X6633858Y673189D02*
Y696811D01*
X6649606Y655472D02*
Y714528D01*
X6618110Y655472D02*
Y714528D01*
X6649606D01*
X6618110Y655472D02*
X6649606D01*
X6858268Y685000D02*
X6881890D01*
X6870079Y673189D02*
Y696811D01*
X6885827Y655472D02*
Y714528D01*
X6854331Y655472D02*
Y714528D01*
X6885827D01*
X6854331Y655472D02*
X6885827D01*
X7094488Y685000D02*
X7118110D01*
X7106299Y673189D02*
Y696811D01*
X7122047Y655472D02*
Y714528D01*
X7090551Y655472D02*
Y714528D01*
X7122047D01*
X7090551Y655472D02*
X7122047D01*
X5283465Y685000D02*
X5307087D01*
X5295276Y673189D02*
Y696811D01*
X5311024Y655472D02*
Y714528D01*
X5279528Y655472D02*
Y714528D01*
X5311024D01*
X5279528Y655472D02*
X5311024D01*
X5519685Y685000D02*
X5543307D01*
X5531496Y673189D02*
Y696811D01*
X5547244Y655472D02*
Y714528D01*
X5515748Y655472D02*
Y714528D01*
X5547244D01*
X5515748Y655472D02*
X5547244D01*
X5755905Y685000D02*
X5779528D01*
X5767717Y673189D02*
Y696811D01*
X5783465Y655472D02*
Y714528D01*
X5751968Y655472D02*
Y714528D01*
X5783465D01*
X5751968Y655472D02*
X5783465D01*
X5992126Y685000D02*
X6015748D01*
X6003937Y673189D02*
Y696811D01*
X6019685Y655472D02*
Y714528D01*
X5988189Y655472D02*
Y714528D01*
X6019685D01*
X5988189Y655472D02*
X6019685D01*
X4338583Y685000D02*
X4362205D01*
X4350394Y673189D02*
Y696811D01*
X4366142Y655472D02*
Y714528D01*
X4334646Y655472D02*
Y714528D01*
X4366142D01*
X4334646Y655472D02*
X4366142D01*
X4574803Y685000D02*
X4598425D01*
X4586614Y673189D02*
Y696811D01*
X4602362Y655472D02*
Y714528D01*
X4570866Y655472D02*
Y714528D01*
X4602362D01*
X4570866Y655472D02*
X4602362D01*
X4811024Y685000D02*
X4834646D01*
X4822835Y673189D02*
Y696811D01*
X4838583Y655472D02*
Y714528D01*
X4807087Y655472D02*
Y714528D01*
X4838583D01*
X4807087Y655472D02*
X4838583D01*
X5047244Y685000D02*
X5070866D01*
X5059055Y673189D02*
Y696811D01*
X5074803Y655472D02*
Y714528D01*
X5043307Y655472D02*
Y714528D01*
X5074803D01*
X5043307Y655472D02*
X5074803D01*
X3236220Y685000D02*
X3259843D01*
X3248032Y673189D02*
Y696811D01*
X3263780Y655472D02*
Y714528D01*
X3232284Y655472D02*
Y714528D01*
X3263780D01*
X3232284Y655472D02*
X3263780D01*
X3472441Y685000D02*
X3496063D01*
X3484252Y673189D02*
Y696811D01*
X3500000Y655472D02*
Y714528D01*
X3468504Y655472D02*
Y714528D01*
X3500000D01*
X3468504Y655472D02*
X3500000D01*
X3708662Y685000D02*
X3732284D01*
X3720472Y673189D02*
Y696811D01*
X3736221Y655472D02*
Y714528D01*
X3704724Y655472D02*
Y714528D01*
X3736221D01*
X3704724Y655472D02*
X3736221D01*
X3944882Y685000D02*
X3968504D01*
X3956693Y673189D02*
Y696811D01*
X3972441Y655472D02*
Y714528D01*
X3940945Y655472D02*
Y714528D01*
X3972441D01*
X3940945Y655472D02*
X3972441D01*
X2291339Y685000D02*
X2314961D01*
X2303150Y673189D02*
Y696811D01*
X2318898Y655472D02*
Y714528D01*
X2287402Y655472D02*
Y714528D01*
X2318898D01*
X2287402Y655472D02*
X2318898D01*
X2527559Y685000D02*
X2551181D01*
X2539370Y673189D02*
Y696811D01*
X2555118Y655472D02*
Y714528D01*
X2523622Y655472D02*
Y714528D01*
X2555118D01*
X2523622Y655472D02*
X2555118D01*
X2763780Y685000D02*
X2787401D01*
X2775590Y673189D02*
Y696811D01*
X2791339Y655472D02*
Y714528D01*
X2759843Y655472D02*
Y714528D01*
X2791339D01*
X2759843Y655472D02*
X2791339D01*
X3000000Y685000D02*
X3023622D01*
X3011811Y673189D02*
Y696811D01*
X3027559Y655472D02*
Y714528D01*
X2996063Y655472D02*
Y714528D01*
X3027559D01*
X2996063Y655472D02*
X3027559D01*
X421260Y788740D02*
X444882D01*
X433071Y776929D02*
Y800551D01*
X417323Y759213D02*
Y818268D01*
X448819Y759213D02*
Y818268D01*
X417323Y759213D02*
X448819D01*
X417323Y818268D02*
X448819D01*
X657480Y788740D02*
X681102D01*
X669291Y776929D02*
Y800551D01*
X653543Y759213D02*
Y818268D01*
X685039Y759213D02*
Y818268D01*
X653543Y759213D02*
X685039D01*
X653543Y818268D02*
X685039D01*
X893701Y788740D02*
X917323D01*
X905512Y776929D02*
Y800551D01*
X889764Y759213D02*
Y818268D01*
X921260Y759213D02*
Y818268D01*
X889764Y759213D02*
X921260D01*
X889764Y818268D02*
X921260D01*
X1129921Y788740D02*
X1153543D01*
X1141732Y776929D02*
Y800551D01*
X1125984Y759213D02*
Y818268D01*
X1157480Y759213D02*
Y818268D01*
X1125984Y759213D02*
X1157480D01*
X1125984Y818268D02*
X1157480D01*
X1366142Y788740D02*
X1389764D01*
X1377953Y776929D02*
Y800551D01*
X1362205Y759213D02*
Y818268D01*
X1393701Y759213D02*
Y818268D01*
X1362205Y759213D02*
X1393701D01*
X1362205Y818268D02*
X1393701D01*
X1602362Y788740D02*
X1625984D01*
X1614173Y776929D02*
Y800551D01*
X1598425Y759213D02*
Y818268D01*
X1629921Y759213D02*
Y818268D01*
X1598425Y759213D02*
X1629921D01*
X1598425Y818268D02*
X1629921D01*
X1838583Y788740D02*
X1862205D01*
X1850394Y776929D02*
Y800551D01*
X1834646Y759213D02*
Y818268D01*
X1866142Y759213D02*
Y818268D01*
X1834646Y759213D02*
X1866142D01*
X1834646Y818268D02*
X1866142D01*
X520866Y822992D02*
Y854488D01*
X461811Y822992D02*
Y854488D01*
Y822992D02*
X520866D01*
X461811Y854488D02*
X520866D01*
X479528Y838740D02*
X503150D01*
X491339Y826929D02*
Y850551D01*
X757087Y822992D02*
Y854488D01*
X698032Y822992D02*
Y854488D01*
Y822992D02*
X757087D01*
X698032Y854488D02*
X757087D01*
X715748Y838740D02*
X739370D01*
X727559Y826929D02*
Y850551D01*
X993307Y822992D02*
Y854488D01*
X934252Y822992D02*
Y854488D01*
Y822992D02*
X993307D01*
X934252Y854488D02*
X993307D01*
X951968Y838740D02*
X975591D01*
X963779Y826929D02*
Y850551D01*
X1229528Y822992D02*
Y854488D01*
X1170472Y822992D02*
Y854488D01*
Y822992D02*
X1229528D01*
X1170472Y854488D02*
X1229528D01*
X1188189Y838740D02*
X1211811D01*
X1200000Y826929D02*
Y850551D01*
X1465748Y822992D02*
Y854488D01*
X1406693Y822992D02*
Y854488D01*
Y822992D02*
X1465748D01*
X1406693Y854488D02*
X1465748D01*
X1424409Y838740D02*
X1448032D01*
X1436220Y826929D02*
Y850551D01*
X1701968Y822992D02*
Y854488D01*
X1642913Y822992D02*
Y854488D01*
Y822992D02*
X1701968D01*
X1642913Y854488D02*
X1701968D01*
X1660630Y838740D02*
X1684252D01*
X1672441Y826929D02*
Y850551D01*
X1938189Y822992D02*
Y854488D01*
X1879134Y822992D02*
Y854488D01*
Y822992D02*
X1938189D01*
X1879134Y854488D02*
X1938189D01*
X1896850Y838740D02*
X1920472D01*
X1908661Y826929D02*
Y850551D01*
X462126Y763740D02*
X522126D01*
Y813740D01*
X462126D02*
X522126D01*
X462126Y763740D02*
Y813740D01*
X492126Y776929D02*
Y800551D01*
X480315Y788740D02*
X503937D01*
X698346Y763740D02*
X758346D01*
Y813740D01*
X698346D02*
X758346D01*
X698346Y763740D02*
Y813740D01*
X728346Y776929D02*
Y800551D01*
X716535Y788740D02*
X740158D01*
X934567Y763740D02*
X994567D01*
Y813740D01*
X934567D02*
X994567D01*
X934567Y763740D02*
Y813740D01*
X964567Y776929D02*
Y800551D01*
X952756Y788740D02*
X976378D01*
X1170787Y763740D02*
X1230787D01*
Y813740D01*
X1170787D02*
X1230787D01*
X1170787Y763740D02*
Y813740D01*
X1200787Y776929D02*
Y800551D01*
X1188976Y788740D02*
X1212598D01*
X1407008Y763740D02*
X1467008D01*
Y813740D01*
X1407008D02*
X1467008D01*
X1407008Y763740D02*
Y813740D01*
X1437008Y776929D02*
Y800551D01*
X1425197Y788740D02*
X1448819D01*
X1643228Y763740D02*
X1703228D01*
Y813740D01*
X1643228D02*
X1703228D01*
X1643228Y763740D02*
Y813740D01*
X1673228Y776929D02*
Y800551D01*
X1661417Y788740D02*
X1685039D01*
X1879449Y763740D02*
X1939449D01*
Y813740D01*
X1879449D02*
X1939449D01*
X1879449Y763740D02*
Y813740D01*
X1909449Y776929D02*
Y800551D01*
X1897638Y788740D02*
X1921260D01*
X480315Y685000D02*
X503937D01*
X492126Y673189D02*
Y696811D01*
X507874Y655472D02*
Y714528D01*
X476378Y655472D02*
Y714528D01*
X507874D01*
X476378Y655472D02*
X507874D01*
X716535Y685000D02*
X740158D01*
X728346Y673189D02*
Y696811D01*
X744095Y655472D02*
Y714528D01*
X712598Y655472D02*
Y714528D01*
X744095D01*
X712598Y655472D02*
X744095D01*
X952756Y685000D02*
X976378D01*
X964567Y673189D02*
Y696811D01*
X980315Y655472D02*
Y714528D01*
X948819Y655472D02*
Y714528D01*
X980315D01*
X948819Y655472D02*
X980315D01*
X1188976Y685000D02*
X1212598D01*
X1200787Y673189D02*
Y696811D01*
X1216535Y655472D02*
Y714528D01*
X1185039Y655472D02*
Y714528D01*
X1216535D01*
X1185039Y655472D02*
X1216535D01*
X1425197Y685000D02*
X1448819D01*
X1437008Y673189D02*
Y696811D01*
X1452756Y655472D02*
Y714528D01*
X1421260Y655472D02*
Y714528D01*
X1452756D01*
X1421260Y655472D02*
X1452756D01*
X1661417Y685000D02*
X1685039D01*
X1673228Y673189D02*
Y696811D01*
X1688976Y655472D02*
Y714528D01*
X1657480Y655472D02*
Y714528D01*
X1688976D01*
X1657480Y655472D02*
X1688976D01*
X1897638Y685000D02*
X1921260D01*
X1909449Y673189D02*
Y696811D01*
X1925197Y655472D02*
Y714528D01*
X1893701Y655472D02*
Y714528D01*
X1925197D01*
X1893701Y655472D02*
X1925197D01*
X185039Y788740D02*
X208661D01*
X196850Y776929D02*
Y800551D01*
X181102Y759213D02*
Y818268D01*
X212598Y759213D02*
Y818268D01*
X181102Y759213D02*
X212598D01*
X181102Y818268D02*
X212598D01*
X285433Y822992D02*
Y854488D01*
X226378Y822992D02*
Y854488D01*
Y822992D02*
X285433D01*
X226378Y854488D02*
X285433D01*
X244095Y838740D02*
X267716D01*
X255905Y826929D02*
Y850551D01*
X225905Y763740D02*
X285906D01*
Y813740D01*
X225905D02*
X285906D01*
X225905Y763740D02*
Y813740D01*
X255905Y776929D02*
Y800551D01*
X244095Y788740D02*
X267716D01*
X244095Y685000D02*
X267716D01*
X255905Y673189D02*
Y696811D01*
X271654Y655472D02*
Y714528D01*
X240157Y655472D02*
Y714528D01*
X271654D01*
X240157Y655472D02*
X271654D01*
X2247247Y216536D02*
Y240157D01*
X2235436Y228346D02*
X2259058D01*
X2217720Y244095D02*
X2276775D01*
X2217720Y212599D02*
X2276775D01*
X2217720D02*
Y244095D01*
X2276775Y212599D02*
Y244095D01*
X2483468Y216536D02*
Y240157D01*
X2471657Y228346D02*
X2495279D01*
X2453940Y244095D02*
X2512995D01*
X2453940Y212599D02*
X2512995D01*
X2453940D02*
Y244095D01*
X2512995Y212599D02*
Y244095D01*
X2719688Y216536D02*
Y240157D01*
X2707877Y228346D02*
X2731499D01*
X2690161Y244095D02*
X2749216D01*
X2690161Y212599D02*
X2749216D01*
X2690161D02*
Y244095D01*
X2749216Y212599D02*
Y244095D01*
X2955909Y216536D02*
Y240157D01*
X2944098Y228346D02*
X2967720D01*
X2926381Y244095D02*
X2985436D01*
X2926381Y212599D02*
X2985436D01*
X2926381D02*
Y244095D01*
X2985436Y212599D02*
Y244095D01*
X3192129Y216536D02*
Y240157D01*
X3180318Y228346D02*
X3203940D01*
X3162602Y244095D02*
X3221657D01*
X3162602Y212599D02*
X3221657D01*
X3162602D02*
Y244095D01*
X3221657Y212599D02*
Y244095D01*
X3428350Y216536D02*
Y240157D01*
X3416539Y228346D02*
X3440161D01*
X3398822Y244095D02*
X3457877D01*
X3398822Y212599D02*
X3457877D01*
X3398822D02*
Y244095D01*
X3457877Y212599D02*
Y244095D01*
X3664570Y216536D02*
Y240157D01*
X3652759Y228346D02*
X3676381D01*
X3635042Y244095D02*
X3694098D01*
X3635042Y212599D02*
X3694098D01*
X3635042D02*
Y244095D01*
X3694098Y212599D02*
Y244095D01*
X3900791Y216536D02*
Y240157D01*
X3888979Y228346D02*
X3912602D01*
X3871263Y244095D02*
X3930318D01*
X3871263Y212599D02*
X3930318D01*
X3871263D02*
Y244095D01*
X3930318Y212599D02*
Y244095D01*
X4294491Y216536D02*
Y240157D01*
X4282680Y228346D02*
X4306302D01*
X4264964Y244095D02*
X4324019D01*
X4264964Y212599D02*
X4324019D01*
X4264964D02*
Y244095D01*
X4324019Y212599D02*
Y244095D01*
X4530712Y216536D02*
Y240157D01*
X4518901Y228346D02*
X4542523D01*
X4501184Y244095D02*
X4560239D01*
X4501184Y212599D02*
X4560239D01*
X4501184D02*
Y244095D01*
X4560239Y212599D02*
Y244095D01*
X4766932Y216536D02*
Y240157D01*
X4755121Y228346D02*
X4778743D01*
X4737405Y244095D02*
X4796460D01*
X4737405Y212599D02*
X4796460D01*
X4737405D02*
Y244095D01*
X4796460Y212599D02*
Y244095D01*
X5003153Y216536D02*
Y240157D01*
X4991342Y228346D02*
X5014964D01*
X4973625Y244095D02*
X5032680D01*
X4973625Y212599D02*
X5032680D01*
X4973625D02*
Y244095D01*
X5032680Y212599D02*
Y244095D01*
X436221Y216536D02*
Y240157D01*
X424409Y228346D02*
X448031D01*
X406693Y244095D02*
X465748D01*
X406693Y212599D02*
X465748D01*
X406693D02*
Y244095D01*
X465748Y212599D02*
Y244095D01*
X672441Y216536D02*
Y240157D01*
X660630Y228346D02*
X684252D01*
X642913Y244095D02*
X701969D01*
X642913Y212599D02*
X701969D01*
X642913D02*
Y244095D01*
X701969Y212599D02*
Y244095D01*
X908661Y216536D02*
Y240157D01*
X896850Y228346D02*
X920472D01*
X879134Y244095D02*
X938189D01*
X879134Y212599D02*
X938189D01*
X879134D02*
Y244095D01*
X938189Y212599D02*
Y244095D01*
X1144882Y216536D02*
Y240157D01*
X1133071Y228346D02*
X1156693D01*
X1115354Y244095D02*
X1174409D01*
X1115354Y212599D02*
X1174409D01*
X1115354D02*
Y244095D01*
X1174409Y212599D02*
Y244095D01*
X1381102Y216536D02*
Y240157D01*
X1369291Y228346D02*
X1392913D01*
X1351575Y244095D02*
X1410630D01*
X1351575Y212599D02*
X1410630D01*
X1351575D02*
Y244095D01*
X1410630Y212599D02*
Y244095D01*
X1617323Y216536D02*
Y240157D01*
X1605512Y228346D02*
X1629134D01*
X1587795Y244095D02*
X1646850D01*
X1587795Y212599D02*
X1646850D01*
X1587795D02*
Y244095D01*
X1646850Y212599D02*
Y244095D01*
X1853543Y216536D02*
Y240157D01*
X1841732Y228346D02*
X1865354D01*
X1824016Y244095D02*
X1883071D01*
X1824016Y212599D02*
X1883071D01*
X1824016D02*
Y244095D01*
X1883071Y212599D02*
Y244095D01*
X200000Y216536D02*
Y240157D01*
X188189Y228346D02*
X211811D01*
X170472Y244095D02*
X229528D01*
X170472Y212599D02*
X229528D01*
X170472D02*
Y244095D01*
X229528Y212599D02*
Y244095D01*
X10137402Y1348425D02*
X10168898D01*
X10137402Y1407480D02*
X10168898D01*
X10137402Y1348425D02*
Y1407480D01*
X10168898Y1348425D02*
Y1407480D01*
X10153150Y1366142D02*
Y1389764D01*
X10141339Y1377953D02*
X10164961D01*
X10037402Y1348425D02*
X10068898D01*
X10037402Y1407480D02*
X10068898D01*
X10037402Y1348425D02*
Y1407480D01*
X10068898Y1348425D02*
Y1407480D01*
X10053150Y1366142D02*
Y1389764D01*
X10041339Y1377953D02*
X10064961D01*
X9937402Y1348425D02*
X9968898D01*
X9937402Y1407480D02*
X9968898D01*
X9937402Y1348425D02*
Y1407480D01*
X9968898Y1348425D02*
Y1407480D01*
X9953150Y1366142D02*
Y1389764D01*
X9941339Y1377953D02*
X9964961D01*
X9837402Y1348425D02*
X9868898D01*
X9837402Y1407480D02*
X9868898D01*
X9837402Y1348425D02*
Y1407480D01*
X9868898Y1348425D02*
Y1407480D01*
X9853150Y1366142D02*
Y1389764D01*
X9841339Y1377953D02*
X9864961D01*
X9737402Y1348425D02*
X9768898D01*
X9737402Y1407480D02*
X9768898D01*
X9737402Y1348425D02*
Y1407480D01*
X9768898Y1348425D02*
Y1407480D01*
X9753150Y1366142D02*
Y1389764D01*
X9741339Y1377953D02*
X9764961D01*
X9637402Y1348425D02*
X9668898D01*
X9637402Y1407480D02*
X9668898D01*
X9637402Y1348425D02*
Y1407480D01*
X9668898Y1348425D02*
Y1407480D01*
X9653150Y1366142D02*
Y1389764D01*
X9641339Y1377953D02*
X9664961D01*
X9537402Y1348425D02*
X9568898D01*
X9537402Y1407480D02*
X9568898D01*
X9537402Y1348425D02*
Y1407480D01*
X9568898Y1348425D02*
Y1407480D01*
X9553150Y1366142D02*
Y1389764D01*
X9541339Y1377953D02*
X9564961D01*
X9437402Y1348425D02*
X9468898D01*
X9437402Y1407480D02*
X9468898D01*
X9437402Y1348425D02*
Y1407480D01*
X9468898Y1348425D02*
Y1407480D01*
X9453150Y1366142D02*
Y1389764D01*
X9441339Y1377953D02*
X9464961D01*
X7390158Y1348425D02*
X7421654D01*
X7390158Y1407480D02*
X7421654D01*
X7390158Y1348425D02*
Y1407480D01*
X7421654Y1348425D02*
Y1407480D01*
X7405905Y1366142D02*
Y1389764D01*
X7394095Y1377953D02*
X7417717D01*
X7490158Y1348425D02*
X7521654D01*
X7490158Y1407480D02*
X7521654D01*
X7490158Y1348425D02*
Y1407480D01*
X7521654Y1348425D02*
Y1407480D01*
X7505905Y1366142D02*
Y1389764D01*
X7494095Y1377953D02*
X7517717D01*
X7590158Y1348425D02*
X7621654D01*
X7590158Y1407480D02*
X7621654D01*
X7590158Y1348425D02*
Y1407480D01*
X7621654Y1348425D02*
Y1407480D01*
X7605905Y1366142D02*
Y1389764D01*
X7594095Y1377953D02*
X7617717D01*
X7690158Y1348425D02*
X7721654D01*
X7690158Y1407480D02*
X7721654D01*
X7690158Y1348425D02*
Y1407480D01*
X7721654Y1348425D02*
Y1407480D01*
X7705905Y1366142D02*
Y1389764D01*
X7694095Y1377953D02*
X7717717D01*
X7790158Y1348425D02*
X7821654D01*
X7790158Y1407480D02*
X7821654D01*
X7790158Y1348425D02*
Y1407480D01*
X7821654Y1348425D02*
Y1407480D01*
X7805905Y1366142D02*
Y1389764D01*
X7794095Y1377953D02*
X7817717D01*
X7890158Y1348425D02*
X7921654D01*
X7890158Y1407480D02*
X7921654D01*
X7890158Y1348425D02*
Y1407480D01*
X7921654Y1348425D02*
Y1407480D01*
X7905905Y1366142D02*
Y1389764D01*
X7894095Y1377953D02*
X7917717D01*
X7990158Y1348425D02*
X8021654D01*
X7990158Y1407480D02*
X8021654D01*
X7990158Y1348425D02*
Y1407480D01*
X8021654Y1348425D02*
Y1407480D01*
X8005905Y1366142D02*
Y1389764D01*
X7994095Y1377953D02*
X8017717D01*
X8090158Y1348425D02*
X8121654D01*
X8090158Y1407480D02*
X8121654D01*
X8090158Y1348425D02*
Y1407480D01*
X8121654Y1348425D02*
Y1407480D01*
X8105905Y1366142D02*
Y1389764D01*
X8094095Y1377953D02*
X8117717D01*
X5342913Y1348425D02*
X5374409D01*
X5342913Y1407480D02*
X5374409D01*
X5342913Y1348425D02*
Y1407480D01*
X5374409Y1348425D02*
Y1407480D01*
X5358661Y1366142D02*
Y1389764D01*
X5346850Y1377953D02*
X5370472D01*
X5442913Y1348425D02*
X5474409D01*
X5442913Y1407480D02*
X5474409D01*
X5442913Y1348425D02*
Y1407480D01*
X5474409Y1348425D02*
Y1407480D01*
X5458661Y1366142D02*
Y1389764D01*
X5446850Y1377953D02*
X5470472D01*
X5542913Y1348425D02*
X5574409D01*
X5542913Y1407480D02*
X5574409D01*
X5542913Y1348425D02*
Y1407480D01*
X5574409Y1348425D02*
Y1407480D01*
X5558661Y1366142D02*
Y1389764D01*
X5546850Y1377953D02*
X5570472D01*
X5642913Y1348425D02*
X5674409D01*
X5642913Y1407480D02*
X5674409D01*
X5642913Y1348425D02*
Y1407480D01*
X5674409Y1348425D02*
Y1407480D01*
X5658661Y1366142D02*
Y1389764D01*
X5646850Y1377953D02*
X5670472D01*
X5742913Y1348425D02*
X5774409D01*
X5742913Y1407480D02*
X5774409D01*
X5742913Y1348425D02*
Y1407480D01*
X5774409Y1348425D02*
Y1407480D01*
X5758661Y1366142D02*
Y1389764D01*
X5746850Y1377953D02*
X5770472D01*
X5842913Y1348425D02*
X5874409D01*
X5842913Y1407480D02*
X5874409D01*
X5842913Y1348425D02*
Y1407480D01*
X5874409Y1348425D02*
Y1407480D01*
X5858661Y1366142D02*
Y1389764D01*
X5846850Y1377953D02*
X5870472D01*
X5942913Y1348425D02*
X5974409D01*
X5942913Y1407480D02*
X5974409D01*
X5942913Y1348425D02*
Y1407480D01*
X5974409Y1348425D02*
Y1407480D01*
X5958661Y1366142D02*
Y1389764D01*
X5946850Y1377953D02*
X5970472D01*
X6042913Y1348425D02*
X6074409D01*
X6042913Y1407480D02*
X6074409D01*
X6042913Y1348425D02*
Y1407480D01*
X6074409Y1348425D02*
Y1407480D01*
X6058661Y1366142D02*
Y1389764D01*
X6046850Y1377953D02*
X6070472D01*
X3295669Y1348425D02*
X3327165D01*
X3295669Y1407480D02*
X3327165D01*
X3295669Y1348425D02*
Y1407480D01*
X3327165Y1348425D02*
Y1407480D01*
X3311417Y1366142D02*
Y1389764D01*
X3299606Y1377953D02*
X3323228D01*
X3395669Y1348425D02*
X3427165D01*
X3395669Y1407480D02*
X3427165D01*
X3395669Y1348425D02*
Y1407480D01*
X3427165Y1348425D02*
Y1407480D01*
X3411417Y1366142D02*
Y1389764D01*
X3399606Y1377953D02*
X3423228D01*
X3495669Y1348425D02*
X3527165D01*
X3495669Y1407480D02*
X3527165D01*
X3495669Y1348425D02*
Y1407480D01*
X3527165Y1348425D02*
Y1407480D01*
X3511417Y1366142D02*
Y1389764D01*
X3499606Y1377953D02*
X3523228D01*
X3595669Y1348425D02*
X3627165D01*
X3595669Y1407480D02*
X3627165D01*
X3595669Y1348425D02*
Y1407480D01*
X3627165Y1348425D02*
Y1407480D01*
X3611417Y1366142D02*
Y1389764D01*
X3599606Y1377953D02*
X3623228D01*
X3695669Y1348425D02*
X3727165D01*
X3695669Y1407480D02*
X3727165D01*
X3695669Y1348425D02*
Y1407480D01*
X3727165Y1348425D02*
Y1407480D01*
X3711417Y1366142D02*
Y1389764D01*
X3699606Y1377953D02*
X3723228D01*
X3795669Y1348425D02*
X3827165D01*
X3795669Y1407480D02*
X3827165D01*
X3795669Y1348425D02*
Y1407480D01*
X3827165Y1348425D02*
Y1407480D01*
X3811417Y1366142D02*
Y1389764D01*
X3799606Y1377953D02*
X3823228D01*
X3895669Y1348425D02*
X3927165D01*
X3895669Y1407480D02*
X3927165D01*
X3895669Y1348425D02*
Y1407480D01*
X3927165Y1348425D02*
Y1407480D01*
X3911417Y1366142D02*
Y1389764D01*
X3899606Y1377953D02*
X3923228D01*
X3995669Y1348425D02*
X4027165D01*
X3995669Y1407480D02*
X4027165D01*
X3995669Y1348425D02*
Y1407480D01*
X4027165Y1348425D02*
Y1407480D01*
X4011417Y1366142D02*
Y1389764D01*
X3999606Y1377953D02*
X4023228D01*
X9113780Y1348425D02*
X9145276D01*
X9113780Y1407480D02*
X9145276D01*
X9113780Y1348425D02*
Y1407480D01*
X9145276Y1348425D02*
Y1407480D01*
X9129528Y1366142D02*
Y1389764D01*
X9117717Y1377953D02*
X9141339D01*
X9013780Y1348425D02*
X9045276D01*
X9013780Y1407480D02*
X9045276D01*
X9013780Y1348425D02*
Y1407480D01*
X9045276Y1348425D02*
Y1407480D01*
X9029528Y1366142D02*
Y1389764D01*
X9017717Y1377953D02*
X9041339D01*
X8913780Y1348425D02*
X8945276D01*
X8913780Y1407480D02*
X8945276D01*
X8913780Y1348425D02*
Y1407480D01*
X8945276Y1348425D02*
Y1407480D01*
X8929528Y1366142D02*
Y1389764D01*
X8917717Y1377953D02*
X8941339D01*
X8813780Y1348425D02*
X8845276D01*
X8813780Y1407480D02*
X8845276D01*
X8813780Y1348425D02*
Y1407480D01*
X8845276Y1348425D02*
Y1407480D01*
X8829528Y1366142D02*
Y1389764D01*
X8817717Y1377953D02*
X8841339D01*
X8713780Y1348425D02*
X8745276D01*
X8713780Y1407480D02*
X8745276D01*
X8713780Y1348425D02*
Y1407480D01*
X8745276Y1348425D02*
Y1407480D01*
X8729528Y1366142D02*
Y1389764D01*
X8717717Y1377953D02*
X8741339D01*
X8613780Y1348425D02*
X8645276D01*
X8613780Y1407480D02*
X8645276D01*
X8613780Y1348425D02*
Y1407480D01*
X8645276Y1348425D02*
Y1407480D01*
X8629528Y1366142D02*
Y1389764D01*
X8617717Y1377953D02*
X8641339D01*
X8513780Y1348425D02*
X8545276D01*
X8513780Y1407480D02*
X8545276D01*
X8513780Y1348425D02*
Y1407480D01*
X8545276Y1348425D02*
Y1407480D01*
X8529528Y1366142D02*
Y1389764D01*
X8517717Y1377953D02*
X8541339D01*
X8413780Y1348425D02*
X8445276D01*
X8413780Y1407480D02*
X8445276D01*
X8413780Y1348425D02*
Y1407480D01*
X8445276Y1348425D02*
Y1407480D01*
X8429528Y1366142D02*
Y1389764D01*
X8417717Y1377953D02*
X8441339D01*
X7066535Y1348425D02*
X7098032D01*
X7066535Y1407480D02*
X7098032D01*
X7066535Y1348425D02*
Y1407480D01*
X7098032Y1348425D02*
Y1407480D01*
X7082283Y1366142D02*
Y1389764D01*
X7070472Y1377953D02*
X7094095D01*
X6966535Y1348425D02*
X6998032D01*
X6966535Y1407480D02*
X6998032D01*
X6966535Y1348425D02*
Y1407480D01*
X6998032Y1348425D02*
Y1407480D01*
X6982283Y1366142D02*
Y1389764D01*
X6970472Y1377953D02*
X6994095D01*
X6866535Y1348425D02*
X6898032D01*
X6866535Y1407480D02*
X6898032D01*
X6866535Y1348425D02*
Y1407480D01*
X6898032Y1348425D02*
Y1407480D01*
X6882283Y1366142D02*
Y1389764D01*
X6870472Y1377953D02*
X6894095D01*
X6766535Y1348425D02*
X6798032D01*
X6766535Y1407480D02*
X6798032D01*
X6766535Y1348425D02*
Y1407480D01*
X6798032Y1348425D02*
Y1407480D01*
X6782283Y1366142D02*
Y1389764D01*
X6770472Y1377953D02*
X6794095D01*
X6666535Y1348425D02*
X6698032D01*
X6666535Y1407480D02*
X6698032D01*
X6666535Y1348425D02*
Y1407480D01*
X6698032Y1348425D02*
Y1407480D01*
X6682283Y1366142D02*
Y1389764D01*
X6670472Y1377953D02*
X6694095D01*
X6566535Y1348425D02*
X6598032D01*
X6566535Y1407480D02*
X6598032D01*
X6566535Y1348425D02*
Y1407480D01*
X6598032Y1348425D02*
Y1407480D01*
X6582283Y1366142D02*
Y1389764D01*
X6570472Y1377953D02*
X6594095D01*
X6466535Y1348425D02*
X6498032D01*
X6466535Y1407480D02*
X6498032D01*
X6466535Y1348425D02*
Y1407480D01*
X6498032Y1348425D02*
Y1407480D01*
X6482283Y1366142D02*
Y1389764D01*
X6470472Y1377953D02*
X6494095D01*
X6366535Y1348425D02*
X6398032D01*
X6366535Y1407480D02*
X6398032D01*
X6366535Y1348425D02*
Y1407480D01*
X6398032Y1348425D02*
Y1407480D01*
X6382283Y1366142D02*
Y1389764D01*
X6370472Y1377953D02*
X6394095D01*
X5019291Y1348425D02*
X5050788D01*
X5019291Y1407480D02*
X5050788D01*
X5019291Y1348425D02*
Y1407480D01*
X5050788Y1348425D02*
Y1407480D01*
X5035039Y1366142D02*
Y1389764D01*
X5023228Y1377953D02*
X5046850D01*
X4919291Y1348425D02*
X4950788D01*
X4919291Y1407480D02*
X4950788D01*
X4919291Y1348425D02*
Y1407480D01*
X4950788Y1348425D02*
Y1407480D01*
X4935039Y1366142D02*
Y1389764D01*
X4923228Y1377953D02*
X4946850D01*
X4819291Y1348425D02*
X4850788D01*
X4819291Y1407480D02*
X4850788D01*
X4819291Y1348425D02*
Y1407480D01*
X4850788Y1348425D02*
Y1407480D01*
X4835039Y1366142D02*
Y1389764D01*
X4823228Y1377953D02*
X4846850D01*
X4719291Y1348425D02*
X4750788D01*
X4719291Y1407480D02*
X4750788D01*
X4719291Y1348425D02*
Y1407480D01*
X4750788Y1348425D02*
Y1407480D01*
X4735039Y1366142D02*
Y1389764D01*
X4723228Y1377953D02*
X4746850D01*
X4619291Y1348425D02*
X4650788D01*
X4619291Y1407480D02*
X4650788D01*
X4619291Y1348425D02*
Y1407480D01*
X4650788Y1348425D02*
Y1407480D01*
X4635039Y1366142D02*
Y1389764D01*
X4623228Y1377953D02*
X4646850D01*
X4519291Y1348425D02*
X4550788D01*
X4519291Y1407480D02*
X4550788D01*
X4519291Y1348425D02*
Y1407480D01*
X4550788Y1348425D02*
Y1407480D01*
X4535039Y1366142D02*
Y1389764D01*
X4523228Y1377953D02*
X4546850D01*
X4419291Y1348425D02*
X4450788D01*
X4419291Y1407480D02*
X4450788D01*
X4419291Y1348425D02*
Y1407480D01*
X4450788Y1348425D02*
Y1407480D01*
X4435039Y1366142D02*
Y1389764D01*
X4423228Y1377953D02*
X4446850D01*
X4319291Y1348425D02*
X4350788D01*
X4319291Y1407480D02*
X4350788D01*
X4319291Y1348425D02*
Y1407480D01*
X4350788Y1348425D02*
Y1407480D01*
X4335039Y1366142D02*
Y1389764D01*
X4323228Y1377953D02*
X4346850D01*
X2272047Y1348425D02*
X2303543D01*
X2272047Y1407480D02*
X2303543D01*
X2272047Y1348425D02*
Y1407480D01*
X2303543Y1348425D02*
Y1407480D01*
X2287795Y1366142D02*
Y1389764D01*
X2275984Y1377953D02*
X2299606D01*
X2372047Y1348425D02*
X2403543D01*
X2372047Y1407480D02*
X2403543D01*
X2372047Y1348425D02*
Y1407480D01*
X2403543Y1348425D02*
Y1407480D01*
X2387795Y1366142D02*
Y1389764D01*
X2375984Y1377953D02*
X2399606D01*
X2472047Y1348425D02*
X2503543D01*
X2472047Y1407480D02*
X2503543D01*
X2472047Y1348425D02*
Y1407480D01*
X2503543Y1348425D02*
Y1407480D01*
X2487795Y1366142D02*
Y1389764D01*
X2475984Y1377953D02*
X2499606D01*
X2572047Y1348425D02*
X2603543D01*
X2572047Y1407480D02*
X2603543D01*
X2572047Y1348425D02*
Y1407480D01*
X2603543Y1348425D02*
Y1407480D01*
X2587795Y1366142D02*
Y1389764D01*
X2575984Y1377953D02*
X2599606D01*
X2672047Y1348425D02*
X2703543D01*
X2672047Y1407480D02*
X2703543D01*
X2672047Y1348425D02*
Y1407480D01*
X2703543Y1348425D02*
Y1407480D01*
X2687795Y1366142D02*
Y1389764D01*
X2675984Y1377953D02*
X2699606D01*
X2772047Y1348425D02*
X2803543D01*
X2772047Y1407480D02*
X2803543D01*
X2772047Y1348425D02*
Y1407480D01*
X2803543Y1348425D02*
Y1407480D01*
X2787795Y1366142D02*
Y1389764D01*
X2775984Y1377953D02*
X2799606D01*
X2872047Y1348425D02*
X2903543D01*
X2872047Y1407480D02*
X2903543D01*
X2872047Y1348425D02*
Y1407480D01*
X2903543Y1348425D02*
Y1407480D01*
X2887795Y1366142D02*
Y1389764D01*
X2875984Y1377953D02*
X2899606D01*
X2972047Y1348425D02*
X3003543D01*
X2972047Y1407480D02*
X3003543D01*
X2972047Y1348425D02*
Y1407480D01*
X3003543Y1348425D02*
Y1407480D01*
X2987795Y1366142D02*
Y1389764D01*
X2975984Y1377953D02*
X2999606D01*
X1248425Y1348425D02*
X1279921D01*
X1248425Y1407480D02*
X1279921D01*
X1248425Y1348425D02*
Y1407480D01*
X1279921Y1348425D02*
Y1407480D01*
X1264173Y1366142D02*
Y1389764D01*
X1252362Y1377953D02*
X1275984D01*
X1348425Y1348425D02*
X1379921D01*
X1348425Y1407480D02*
X1379921D01*
X1348425Y1348425D02*
Y1407480D01*
X1379921Y1348425D02*
Y1407480D01*
X1364173Y1366142D02*
Y1389764D01*
X1352362Y1377953D02*
X1375984D01*
X1448425Y1348425D02*
X1479921D01*
X1448425Y1407480D02*
X1479921D01*
X1448425Y1348425D02*
Y1407480D01*
X1479921Y1348425D02*
Y1407480D01*
X1464173Y1366142D02*
Y1389764D01*
X1452362Y1377953D02*
X1475984D01*
X1548425Y1348425D02*
X1579921D01*
X1548425Y1407480D02*
X1579921D01*
X1548425Y1348425D02*
Y1407480D01*
X1579921Y1348425D02*
Y1407480D01*
X1564173Y1366142D02*
Y1389764D01*
X1552362Y1377953D02*
X1575984D01*
X1648425Y1348425D02*
X1679921D01*
X1648425Y1407480D02*
X1679921D01*
X1648425Y1348425D02*
Y1407480D01*
X1679921Y1348425D02*
Y1407480D01*
X1664173Y1366142D02*
Y1389764D01*
X1652362Y1377953D02*
X1675984D01*
X1748425Y1348425D02*
X1779921D01*
X1748425Y1407480D02*
X1779921D01*
X1748425Y1348425D02*
Y1407480D01*
X1779921Y1348425D02*
Y1407480D01*
X1764173Y1366142D02*
Y1389764D01*
X1752362Y1377953D02*
X1775984D01*
X1848425Y1348425D02*
X1879921D01*
X1848425Y1407480D02*
X1879921D01*
X1848425Y1348425D02*
Y1407480D01*
X1879921Y1348425D02*
Y1407480D01*
X1864173Y1366142D02*
Y1389764D01*
X1852362Y1377953D02*
X1875984D01*
X1948425Y1348425D02*
X1979921D01*
X1948425Y1407480D02*
X1979921D01*
X1948425Y1348425D02*
Y1407480D01*
X1979921Y1348425D02*
Y1407480D01*
X1964173Y1366142D02*
Y1389764D01*
X1952362Y1377953D02*
X1975984D01*
X924252Y1348425D02*
X955748D01*
X924252Y1407480D02*
X955748D01*
X924252Y1348425D02*
Y1407480D01*
X955748Y1348425D02*
Y1407480D01*
X940000Y1366142D02*
Y1389764D01*
X928189Y1377953D02*
X951811D01*
X824252Y1348425D02*
X855748D01*
X824252Y1407480D02*
X855748D01*
X824252Y1348425D02*
Y1407480D01*
X855748Y1348425D02*
Y1407480D01*
X840000Y1366142D02*
Y1389764D01*
X828189Y1377953D02*
X851811D01*
X724252Y1348425D02*
X755748D01*
X724252Y1407480D02*
X755748D01*
X724252Y1348425D02*
Y1407480D01*
X755748Y1348425D02*
Y1407480D01*
X740000Y1366142D02*
Y1389764D01*
X728189Y1377953D02*
X751811D01*
X624252Y1348425D02*
X655748D01*
X624252Y1407480D02*
X655748D01*
X624252Y1348425D02*
Y1407480D01*
X655748Y1348425D02*
Y1407480D01*
X640000Y1366142D02*
Y1389764D01*
X628189Y1377953D02*
X651811D01*
X524252Y1348425D02*
X555748D01*
X524252Y1407480D02*
X555748D01*
X524252Y1348425D02*
Y1407480D01*
X555748Y1348425D02*
Y1407480D01*
X540000Y1366142D02*
Y1389764D01*
X528189Y1377953D02*
X551811D01*
X424252Y1348425D02*
X455748D01*
X424252Y1407480D02*
X455748D01*
X424252Y1348425D02*
Y1407480D01*
X455748Y1348425D02*
Y1407480D01*
X440000Y1366142D02*
Y1389764D01*
X428189Y1377953D02*
X451811D01*
X324252Y1348425D02*
X355748D01*
X324252Y1407480D02*
X355748D01*
X324252Y1348425D02*
Y1407480D01*
X355748Y1348425D02*
Y1407480D01*
X340000Y1366142D02*
Y1389764D01*
X328189Y1377953D02*
X351811D01*
X224252Y1348425D02*
X255748D01*
X224252Y1407480D02*
X255748D01*
X224252Y1348425D02*
Y1407480D01*
X255748Y1348425D02*
Y1407480D01*
X240000Y1366142D02*
Y1389764D01*
X228189Y1377953D02*
X251811D01*
X5202362Y5366181D02*
Y5397677D01*
X5261417Y5366181D02*
Y5397677D01*
X5202362D02*
X5261417D01*
X5202362Y5366181D02*
X5261417D01*
X5220079Y5381929D02*
X5243701D01*
X5231890Y5370118D02*
Y5393740D01*
X4902362Y5366181D02*
Y5397677D01*
X4961417Y5366181D02*
Y5397677D01*
X4902362D02*
X4961417D01*
X4902362Y5366181D02*
X4961417D01*
X4920079Y5381929D02*
X4943701D01*
X4931890Y5370118D02*
Y5393740D01*
X4802362Y5366181D02*
Y5397677D01*
X4861417Y5366181D02*
Y5397677D01*
X4802362D02*
X4861417D01*
X4802362Y5366181D02*
X4861417D01*
X4820079Y5381929D02*
X4843701D01*
X4831890Y5370118D02*
Y5393740D01*
X5200039Y5356929D02*
X5260039D01*
X5200039Y5306929D02*
Y5356929D01*
Y5306929D02*
X5260039D01*
Y5356929D01*
X5230039Y5320118D02*
Y5343740D01*
X5218228Y5331929D02*
X5241850D01*
X4901890Y5356929D02*
X4961890D01*
X4901890Y5306929D02*
Y5356929D01*
Y5306929D02*
X4961890D01*
Y5356929D01*
X4931890Y5320118D02*
Y5343740D01*
X4920079Y5331929D02*
X4943701D01*
X4801890Y5356929D02*
X4861890D01*
X4801890Y5306929D02*
Y5356929D01*
Y5306929D02*
X4861890D01*
Y5356929D01*
X4831890Y5320118D02*
Y5343740D01*
X4820079Y5331929D02*
X4843701D01*
X5231890Y5270118D02*
Y5293740D01*
X5220079Y5281929D02*
X5243701D01*
X5202362Y5297677D02*
X5261417D01*
X5202362Y5266181D02*
X5261417D01*
X5202362D02*
Y5297677D01*
X5261417Y5266181D02*
Y5297677D01*
X4931890Y5270118D02*
Y5293740D01*
X4920079Y5281929D02*
X4943701D01*
X4902362Y5297677D02*
X4961417D01*
X4902362Y5266181D02*
X4961417D01*
X4902362D02*
Y5297677D01*
X4961417Y5266181D02*
Y5297677D01*
X4831890Y5270118D02*
Y5293740D01*
X4820079Y5281929D02*
X4843701D01*
X4802362Y5297677D02*
X4861417D01*
X4802362Y5266181D02*
X4861417D01*
X4802362D02*
Y5297677D01*
X4861417Y5266181D02*
Y5297677D01*
X5231102Y5086614D02*
Y5110236D01*
X5219291Y5098425D02*
X5242913D01*
X5201575Y5082677D02*
X5260630D01*
X5201575Y5114173D02*
X5260630D01*
Y5082677D02*
Y5114173D01*
X5201575Y5082677D02*
Y5114173D01*
X4931102Y5086614D02*
Y5110236D01*
X4919291Y5098425D02*
X4942913D01*
X4901575Y5082677D02*
X4960630D01*
X4901575Y5114173D02*
X4960630D01*
Y5082677D02*
Y5114173D01*
X4901575Y5082677D02*
Y5114173D01*
X4831102Y5086614D02*
Y5110236D01*
X4819291Y5098425D02*
X4842913D01*
X4801575Y5082677D02*
X4860630D01*
X4801575Y5114173D02*
X4860630D01*
Y5082677D02*
Y5114173D01*
X4801575Y5082677D02*
Y5114173D01*
X5002362Y5366181D02*
Y5397677D01*
X5061417Y5366181D02*
Y5397677D01*
X5002362D02*
X5061417D01*
X5002362Y5366181D02*
X5061417D01*
X5020079Y5381929D02*
X5043701D01*
X5031890Y5370118D02*
Y5393740D01*
X5102362Y5366181D02*
Y5397677D01*
X5161417Y5366181D02*
Y5397677D01*
X5102362D02*
X5161417D01*
X5102362Y5366181D02*
X5161417D01*
X5120079Y5381929D02*
X5143701D01*
X5131890Y5370118D02*
Y5393740D01*
X5001890Y5356929D02*
X5061890D01*
X5001890Y5306929D02*
Y5356929D01*
Y5306929D02*
X5061890D01*
Y5356929D01*
X5031890Y5320118D02*
Y5343740D01*
X5020079Y5331929D02*
X5043701D01*
X5101890Y5356929D02*
X5161890D01*
X5101890Y5306929D02*
Y5356929D01*
Y5306929D02*
X5161890D01*
Y5356929D01*
X5131890Y5320118D02*
Y5343740D01*
X5120079Y5331929D02*
X5143701D01*
X5031890Y5270118D02*
Y5293740D01*
X5020079Y5281929D02*
X5043701D01*
X5002362Y5297677D02*
X5061417D01*
X5002362Y5266181D02*
X5061417D01*
X5002362D02*
Y5297677D01*
X5061417Y5266181D02*
Y5297677D01*
X5131890Y5270118D02*
Y5293740D01*
X5120079Y5281929D02*
X5143701D01*
X5102362Y5297677D02*
X5161417D01*
X5102362Y5266181D02*
X5161417D01*
X5102362D02*
Y5297677D01*
X5161417Y5266181D02*
Y5297677D01*
X5031102Y5086614D02*
Y5110236D01*
X5019291Y5098425D02*
X5042913D01*
X5001575Y5082677D02*
X5060630D01*
X5001575Y5114173D02*
X5060630D01*
Y5082677D02*
Y5114173D01*
X5001575Y5082677D02*
Y5114173D01*
X5131102Y5086614D02*
Y5110236D01*
X5119291Y5098425D02*
X5142913D01*
X5101575Y5082677D02*
X5160630D01*
X5101575Y5114173D02*
X5160630D01*
Y5082677D02*
Y5114173D01*
X5101575Y5082677D02*
Y5114173D01*
X1867717Y5366181D02*
Y5397677D01*
X1926772Y5366181D02*
Y5397677D01*
X1867717D02*
X1926772D01*
X1867717Y5366181D02*
X1926772D01*
X1885433Y5381929D02*
X1909055D01*
X1897244Y5370118D02*
Y5393740D01*
X1767717Y5366181D02*
Y5397677D01*
X1826772Y5366181D02*
Y5397677D01*
X1767717D02*
X1826772D01*
X1767717Y5366181D02*
X1826772D01*
X1785433Y5381929D02*
X1809055D01*
X1797244Y5370118D02*
Y5393740D01*
X698819Y4984252D02*
Y5015748D01*
X639764Y4984252D02*
Y5015748D01*
Y4984252D02*
X698819D01*
X639764Y5015748D02*
X698819D01*
X657480Y5000000D02*
X681102D01*
X669291Y4988189D02*
Y5011811D01*
X1867244Y5356929D02*
X1927244D01*
X1867244Y5306929D02*
Y5356929D01*
Y5306929D02*
X1927244D01*
Y5356929D01*
X1897244Y5320118D02*
Y5343740D01*
X1885433Y5331929D02*
X1909055D01*
X1767244Y5356929D02*
X1827244D01*
X1767244Y5306929D02*
Y5356929D01*
Y5306929D02*
X1827244D01*
Y5356929D01*
X1797244Y5320118D02*
Y5343740D01*
X1785433Y5331929D02*
X1809055D01*
X669291Y4929134D02*
Y4952756D01*
X657480Y4940945D02*
X681102D01*
X639764Y4925197D02*
X698819D01*
X639764Y4956693D02*
X698819D01*
Y4925197D02*
Y4956693D01*
X639764Y4925197D02*
Y4956693D01*
X1897244Y5270118D02*
Y5293740D01*
X1885433Y5281929D02*
X1909055D01*
X1867717Y5297677D02*
X1926772D01*
X1867717Y5266181D02*
X1926772D01*
X1867717D02*
Y5297677D01*
X1926772Y5266181D02*
Y5297677D01*
X1797244Y5270118D02*
Y5293740D01*
X1785433Y5281929D02*
X1809055D01*
X1767717Y5297677D02*
X1826772D01*
X1767717Y5266181D02*
X1826772D01*
X1767717D02*
Y5297677D01*
X1826772Y5266181D02*
Y5297677D01*
X1898032Y5086614D02*
Y5110236D01*
X1886221Y5098425D02*
X1909843D01*
X1868504Y5082677D02*
X1927559D01*
X1868504Y5114173D02*
X1927559D01*
Y5082677D02*
Y5114173D01*
X1868504Y5082677D02*
Y5114173D01*
X2167717Y5366181D02*
Y5397677D01*
X2226772Y5366181D02*
Y5397677D01*
X2167717D02*
X2226772D01*
X2167717Y5366181D02*
X2226772D01*
X2185433Y5381929D02*
X2209055D01*
X2197244Y5370118D02*
Y5393740D01*
X2067717Y5366181D02*
Y5397677D01*
X2126772Y5366181D02*
Y5397677D01*
X2067717D02*
X2126772D01*
X2067717Y5366181D02*
X2126772D01*
X2085433Y5381929D02*
X2109055D01*
X2097244Y5370118D02*
Y5393740D01*
X1967717Y5366181D02*
Y5397677D01*
X2026772Y5366181D02*
Y5397677D01*
X1967717D02*
X2026772D01*
X1967717Y5366181D02*
X2026772D01*
X1985433Y5381929D02*
X2009055D01*
X1997244Y5370118D02*
Y5393740D01*
X2326772Y5266181D02*
Y5297677D01*
X2267717Y5266181D02*
Y5297677D01*
Y5266181D02*
X2326772D01*
X2267717Y5297677D02*
X2326772D01*
X2285433Y5281929D02*
X2309055D01*
X2297244Y5270118D02*
Y5293740D01*
X2167244Y5356929D02*
X2227244D01*
X2167244Y5306929D02*
Y5356929D01*
Y5306929D02*
X2227244D01*
Y5356929D01*
X2197244Y5320118D02*
Y5343740D01*
X2185433Y5331929D02*
X2209055D01*
X2067244Y5356929D02*
X2127244D01*
X2067244Y5306929D02*
Y5356929D01*
Y5306929D02*
X2127244D01*
Y5356929D01*
X2097244Y5320118D02*
Y5343740D01*
X2085433Y5331929D02*
X2109055D01*
X1967244Y5356929D02*
X2027244D01*
X1967244Y5306929D02*
Y5356929D01*
Y5306929D02*
X2027244D01*
Y5356929D01*
X1997244Y5320118D02*
Y5343740D01*
X1985433Y5331929D02*
X2009055D01*
X2298032Y5086614D02*
Y5110236D01*
X2286221Y5098425D02*
X2309843D01*
X2268504Y5082677D02*
X2327559D01*
X2268504Y5114173D02*
X2327559D01*
Y5082677D02*
Y5114173D01*
X2268504Y5082677D02*
Y5114173D01*
X2197244Y5270118D02*
Y5293740D01*
X2185433Y5281929D02*
X2209055D01*
X2167717Y5297677D02*
X2226772D01*
X2167717Y5266181D02*
X2226772D01*
X2167717D02*
Y5297677D01*
X2226772Y5266181D02*
Y5297677D01*
X2097244Y5270118D02*
Y5293740D01*
X2085433Y5281929D02*
X2109055D01*
X2067717Y5297677D02*
X2126772D01*
X2067717Y5266181D02*
X2126772D01*
X2067717D02*
Y5297677D01*
X2126772Y5266181D02*
Y5297677D01*
X1997244Y5270118D02*
Y5293740D01*
X1985433Y5281929D02*
X2009055D01*
X1967717Y5297677D02*
X2026772D01*
X1967717Y5266181D02*
X2026772D01*
X1967717D02*
Y5297677D01*
X2026772Y5266181D02*
Y5297677D01*
X2198032Y5086614D02*
Y5110236D01*
X2186221Y5098425D02*
X2209843D01*
X2168504Y5082677D02*
X2227559D01*
X2168504Y5114173D02*
X2227559D01*
Y5082677D02*
Y5114173D01*
X2168504Y5082677D02*
Y5114173D01*
X2098032Y5086614D02*
Y5110236D01*
X2086221Y5098425D02*
X2109843D01*
X2068504Y5082677D02*
X2127559D01*
X2068504Y5114173D02*
X2127559D01*
Y5082677D02*
Y5114173D01*
X2068504Y5082677D02*
Y5114173D01*
X1998032Y5086614D02*
Y5110236D01*
X1986221Y5098425D02*
X2009843D01*
X1968504Y5082677D02*
X2027559D01*
X1968504Y5114173D02*
X2027559D01*
Y5082677D02*
Y5114173D01*
X1968504Y5082677D02*
Y5114173D01*
X5886614Y5366181D02*
Y5397677D01*
X5945669Y5366181D02*
Y5397677D01*
X5886614D02*
X5945669D01*
X5886614Y5366181D02*
X5945669D01*
X5904331Y5381929D02*
X5927953D01*
X5916142Y5370118D02*
Y5393740D01*
X5986614Y5366181D02*
Y5397677D01*
X6045669Y5366181D02*
Y5397677D01*
X5986614D02*
X6045669D01*
X5986614Y5366181D02*
X6045669D01*
X6004331Y5381929D02*
X6027953D01*
X6016142Y5370118D02*
Y5393740D01*
X6086614Y5366181D02*
Y5397677D01*
X6145669Y5366181D02*
Y5397677D01*
X6086614D02*
X6145669D01*
X6086614Y5366181D02*
X6145669D01*
X6104331Y5381929D02*
X6127953D01*
X6116142Y5370118D02*
Y5393740D01*
X5886142Y5356929D02*
X5946142D01*
X5886142Y5306929D02*
Y5356929D01*
Y5306929D02*
X5946142D01*
Y5356929D01*
X5916142Y5320118D02*
Y5343740D01*
X5904331Y5331929D02*
X5927953D01*
X5986142Y5356929D02*
X6046142D01*
X5986142Y5306929D02*
Y5356929D01*
Y5306929D02*
X6046142D01*
Y5356929D01*
X6016142Y5320118D02*
Y5343740D01*
X6004331Y5331929D02*
X6027953D01*
X6086142Y5356929D02*
X6146142D01*
X6086142Y5306929D02*
Y5356929D01*
Y5306929D02*
X6146142D01*
Y5356929D01*
X6116142Y5320118D02*
Y5343740D01*
X6104331Y5331929D02*
X6127953D01*
X5916142Y5270118D02*
Y5293740D01*
X5904331Y5281929D02*
X5927953D01*
X5886614Y5297677D02*
X5945669D01*
X5886614Y5266181D02*
X5945669D01*
X5886614D02*
Y5297677D01*
X5945669Y5266181D02*
Y5297677D01*
X6016142Y5270118D02*
Y5293740D01*
X6004331Y5281929D02*
X6027953D01*
X5986614Y5297677D02*
X6045669D01*
X5986614Y5266181D02*
X6045669D01*
X5986614D02*
Y5297677D01*
X6045669Y5266181D02*
Y5297677D01*
X6116142Y5270118D02*
Y5293740D01*
X6104331Y5281929D02*
X6127953D01*
X6086614Y5297677D02*
X6145669D01*
X6086614Y5266181D02*
X6145669D01*
X6086614D02*
Y5297677D01*
X6145669Y5266181D02*
Y5297677D01*
X5915354Y5086614D02*
Y5110236D01*
X5903543Y5098425D02*
X5927165D01*
X5885827Y5082677D02*
X5944882D01*
X5885827Y5114173D02*
X5944882D01*
Y5082677D02*
Y5114173D01*
X5885827Y5082677D02*
Y5114173D01*
X6015354Y5086614D02*
Y5110236D01*
X6003543Y5098425D02*
X6027165D01*
X5985827Y5082677D02*
X6044882D01*
X5985827Y5114173D02*
X6044882D01*
Y5082677D02*
Y5114173D01*
X5985827Y5082677D02*
Y5114173D01*
X6115354Y5086614D02*
Y5110236D01*
X6103543Y5098425D02*
X6127165D01*
X6085827Y5082677D02*
X6144882D01*
X6085827Y5114173D02*
X6144882D01*
Y5082677D02*
Y5114173D01*
X6085827Y5082677D02*
Y5114173D01*
X5586614Y5366181D02*
Y5397677D01*
X5645669Y5366181D02*
Y5397677D01*
X5586614D02*
X5645669D01*
X5586614Y5366181D02*
X5645669D01*
X5604331Y5381929D02*
X5627953D01*
X5616142Y5370118D02*
Y5393740D01*
X5686614Y5366181D02*
Y5397677D01*
X5745669Y5366181D02*
Y5397677D01*
X5686614D02*
X5745669D01*
X5686614Y5366181D02*
X5745669D01*
X5704331Y5381929D02*
X5727953D01*
X5716142Y5370118D02*
Y5393740D01*
X5786614Y5366181D02*
Y5397677D01*
X5845669Y5366181D02*
Y5397677D01*
X5786614D02*
X5845669D01*
X5786614Y5366181D02*
X5845669D01*
X5804331Y5381929D02*
X5827953D01*
X5816142Y5370118D02*
Y5393740D01*
X5586142Y5356929D02*
X5646142D01*
X5586142Y5306929D02*
Y5356929D01*
Y5306929D02*
X5646142D01*
Y5356929D01*
X5616142Y5320118D02*
Y5343740D01*
X5604331Y5331929D02*
X5627953D01*
X5686142Y5356929D02*
X5746142D01*
X5686142Y5306929D02*
Y5356929D01*
Y5306929D02*
X5746142D01*
Y5356929D01*
X5716142Y5320118D02*
Y5343740D01*
X5704331Y5331929D02*
X5727953D01*
X5786142Y5356929D02*
X5846142D01*
X5786142Y5306929D02*
Y5356929D01*
Y5306929D02*
X5846142D01*
Y5356929D01*
X5816142Y5320118D02*
Y5343740D01*
X5804331Y5331929D02*
X5827953D01*
X5616142Y5270118D02*
Y5293740D01*
X5604331Y5281929D02*
X5627953D01*
X5586614Y5297677D02*
X5645669D01*
X5586614Y5266181D02*
X5645669D01*
X5586614D02*
Y5297677D01*
X5645669Y5266181D02*
Y5297677D01*
X5716142Y5270118D02*
Y5293740D01*
X5704331Y5281929D02*
X5727953D01*
X5686614Y5297677D02*
X5745669D01*
X5686614Y5266181D02*
X5745669D01*
X5686614D02*
Y5297677D01*
X5745669Y5266181D02*
Y5297677D01*
X5816142Y5270118D02*
Y5293740D01*
X5804331Y5281929D02*
X5827953D01*
X5786614Y5297677D02*
X5845669D01*
X5786614Y5266181D02*
X5845669D01*
X5786614D02*
Y5297677D01*
X5845669Y5266181D02*
Y5297677D01*
X5615354Y5086614D02*
Y5110236D01*
X5603543Y5098425D02*
X5627165D01*
X5585827Y5082677D02*
X5644882D01*
X5585827Y5114173D02*
X5644882D01*
Y5082677D02*
Y5114173D01*
X5585827Y5082677D02*
Y5114173D01*
X5715354Y5086614D02*
Y5110236D01*
X5703543Y5098425D02*
X5727165D01*
X5685827Y5082677D02*
X5744882D01*
X5685827Y5114173D02*
X5744882D01*
Y5082677D02*
Y5114173D01*
X5685827Y5082677D02*
Y5114173D01*
X5815354Y5086614D02*
Y5110236D01*
X5803543Y5098425D02*
X5827165D01*
X5785827Y5082677D02*
X5844882D01*
X5785827Y5114173D02*
X5844882D01*
Y5082677D02*
Y5114173D01*
X5785827Y5082677D02*
Y5114173D01*
X8968898Y5091217D02*
Y5114839D01*
X8957087Y5103028D02*
X8980709D01*
X8939370Y5118776D02*
X8998425D01*
X8939370Y5087280D02*
X8998425D01*
X8939370D02*
Y5118776D01*
X8998425Y5087280D02*
Y5118776D01*
X9068898Y5091217D02*
Y5114839D01*
X9057087Y5103028D02*
X9080709D01*
X9039370Y5118776D02*
X9098425D01*
X9039370Y5087280D02*
X9098425D01*
X9039370D02*
Y5118776D01*
X9098425Y5087280D02*
Y5118776D01*
X8868898Y5091217D02*
Y5114839D01*
X8857087Y5103028D02*
X8880709D01*
X8839370Y5118776D02*
X8898425D01*
X8839370Y5087280D02*
X8898425D01*
X8839370D02*
Y5118776D01*
X8898425Y5087280D02*
Y5118776D01*
%TF.MD5,f9097df3dc51081f04000c83c69e8cde*%
M02*
