%TF.GenerationSoftware,Altium Limited,Altium Designer,20.0.13 (296)*%
G04 Layer_Color=2752767*
%FSLAX26Y26*%
%MOIN*%
%TF.FileFunction,Drawing*%
%TF.Part,Single*%
G01*
G75*
%TA.AperFunction,NonConductor*%
%ADD58C,0.005000*%
%ADD897C,0.006667*%
D58*
X10105984Y2637480D02*
Y2677480D01*
X10145984D01*
Y2637480D01*
X10105984D01*
Y3228032D02*
Y3268032D01*
X10145984D01*
Y3228032D01*
X10105984D01*
Y3818583D02*
Y3858583D01*
X10145984D01*
Y3818583D01*
X10105984D01*
Y4409134D02*
Y4449134D01*
X10145984D01*
Y4409134D01*
X10105984D01*
X6982283Y5176850D02*
X6962283Y5216850D01*
X7002283D01*
X6982283Y5176850D01*
X6882283D02*
X6892283Y5186850D01*
X6902283D01*
X6892283Y5196850D01*
X6902283Y5206850D01*
X6892283D01*
X6882283Y5216850D01*
X6872283Y5206850D01*
X6862283D01*
X6872283Y5196850D01*
X6862283Y5186850D01*
X6872283D01*
X6882283Y5176850D01*
X6782283D02*
X6792283Y5186850D01*
X6802283D01*
X6792283Y5196850D01*
X6802283Y5206850D01*
X6792283D01*
X6782283Y5216850D01*
X6772283Y5206850D01*
X6762283D01*
X6772283Y5196850D01*
X6762283Y5186850D01*
X6772283D01*
X6782283Y5176850D01*
X6682283D02*
X6692283Y5186850D01*
X6702283D01*
X6692283Y5196850D01*
X6702283Y5206850D01*
X6692283D01*
X6682283Y5216850D01*
X6672283Y5206850D01*
X6662283D01*
X6672283Y5196850D01*
X6662283Y5186850D01*
X6672283D01*
X6682283Y5176850D01*
X6582283D02*
X6592283Y5186850D01*
X6602283D01*
X6592283Y5196850D01*
X6602283Y5206850D01*
X6592283D01*
X6582283Y5216850D01*
X6572283Y5206850D01*
X6562283D01*
X6572283Y5196850D01*
X6562283Y5186850D01*
X6572283D01*
X6582283Y5176850D01*
X6482283D02*
X6492283Y5186850D01*
X6502283D01*
X6492283Y5196850D01*
X6502283Y5206850D01*
X6492283D01*
X6482283Y5216850D01*
X6472283Y5206850D01*
X6462283D01*
X6472283Y5196850D01*
X6462283Y5186850D01*
X6472283D01*
X6482283Y5176850D01*
X6116142D02*
X6096142Y5216850D01*
X6136142D01*
X6116142Y5176850D01*
X6016142D02*
X6026142Y5186850D01*
X6036142D01*
X6026142Y5196850D01*
X6036142Y5206850D01*
X6026142D01*
X6016142Y5216850D01*
X6006142Y5206850D01*
X5996142D01*
X6006142Y5196850D01*
X5996142Y5186850D01*
X6006142D01*
X6016142Y5176850D01*
X5916142D02*
X5926142Y5186850D01*
X5936142D01*
X5926142Y5196850D01*
X5936142Y5206850D01*
X5926142D01*
X5916142Y5216850D01*
X5906142Y5206850D01*
X5896142D01*
X5906142Y5196850D01*
X5896142Y5186850D01*
X5906142D01*
X5916142Y5176850D01*
X5816142D02*
X5826142Y5186850D01*
X5836142D01*
X5826142Y5196850D01*
X5836142Y5206850D01*
X5826142D01*
X5816142Y5216850D01*
X5806142Y5206850D01*
X5796142D01*
X5806142Y5196850D01*
X5796142Y5186850D01*
X5806142D01*
X5816142Y5176850D01*
X5716142D02*
X5726142Y5186850D01*
X5736142D01*
X5726142Y5196850D01*
X5736142Y5206850D01*
X5726142D01*
X5716142Y5216850D01*
X5706142Y5206850D01*
X5696142D01*
X5706142Y5196850D01*
X5696142Y5186850D01*
X5706142D01*
X5716142Y5176850D01*
X5616142D02*
X5626142Y5186850D01*
X5636142D01*
X5626142Y5196850D01*
X5636142Y5206850D01*
X5626142D01*
X5616142Y5216850D01*
X5606142Y5206850D01*
X5596142D01*
X5606142Y5196850D01*
X5596142Y5186850D01*
X5606142D01*
X5616142Y5176850D01*
X5231890D02*
X5211890Y5216850D01*
X5251890D01*
X5231890Y5176850D01*
X5131890D02*
X5141890Y5186850D01*
X5151890D01*
X5141890Y5196850D01*
X5151890Y5206850D01*
X5141890D01*
X5131890Y5216850D01*
X5121890Y5206850D01*
X5111890D01*
X5121890Y5196850D01*
X5111890Y5186850D01*
X5121890D01*
X5131890Y5176850D01*
X5031890D02*
X5041890Y5186850D01*
X5051890D01*
X5041890Y5196850D01*
X5051890Y5206850D01*
X5041890D01*
X5031890Y5216850D01*
X5021890Y5206850D01*
X5011890D01*
X5021890Y5196850D01*
X5011890Y5186850D01*
X5021890D01*
X5031890Y5176850D01*
X4931890D02*
X4941890Y5186850D01*
X4951890D01*
X4941890Y5196850D01*
X4951890Y5206850D01*
X4941890D01*
X4931890Y5216850D01*
X4921890Y5206850D01*
X4911890D01*
X4921890Y5196850D01*
X4911890Y5186850D01*
X4921890D01*
X4931890Y5176850D01*
X4831890D02*
X4841890Y5186850D01*
X4851890D01*
X4841890Y5196850D01*
X4851890Y5206850D01*
X4841890D01*
X4831890Y5216850D01*
X4821890Y5206850D01*
X4811890D01*
X4821890Y5196850D01*
X4811890Y5186850D01*
X4821890D01*
X4831890Y5176850D01*
X4731890D02*
X4741890Y5186850D01*
X4751890D01*
X4741890Y5196850D01*
X4751890Y5206850D01*
X4741890D01*
X4731890Y5216850D01*
X4721890Y5206850D01*
X4711890D01*
X4721890Y5196850D01*
X4711890Y5186850D01*
X4721890D01*
X4731890Y5176850D01*
X4631890D02*
X4641890Y5186850D01*
X4651890D01*
X4641890Y5196850D01*
X4651890Y5206850D01*
X4641890D01*
X4631890Y5216850D01*
X4621890Y5206850D01*
X4611890D01*
X4621890Y5196850D01*
X4611890Y5186850D01*
X4621890D01*
X4631890Y5176850D01*
X4531890D02*
X4541890Y5186850D01*
X4551890D01*
X4541890Y5196850D01*
X4551890Y5206850D01*
X4541890D01*
X4531890Y5216850D01*
X4521890Y5206850D01*
X4511890D01*
X4521890Y5196850D01*
X4511890Y5186850D01*
X4521890D01*
X4531890Y5176850D01*
X10053150D02*
X10033150Y5216850D01*
X10073150D01*
X10053150Y5176850D01*
X9953150D02*
X9963150Y5186850D01*
X9973150D01*
X9963150Y5196850D01*
X9973150Y5206850D01*
X9963150D01*
X9953150Y5216850D01*
X9943150Y5206850D01*
X9933150D01*
X9943150Y5196850D01*
X9933150Y5186850D01*
X9943150D01*
X9953150Y5176850D01*
X9853150D02*
X9863150Y5186850D01*
X9873150D01*
X9863150Y5196850D01*
X9873150Y5206850D01*
X9863150D01*
X9853150Y5216850D01*
X9843150Y5206850D01*
X9833150D01*
X9843150Y5196850D01*
X9833150Y5186850D01*
X9843150D01*
X9853150Y5176850D01*
X9753150D02*
X9763150Y5186850D01*
X9773150D01*
X9763150Y5196850D01*
X9773150Y5206850D01*
X9763150D01*
X9753150Y5216850D01*
X9743150Y5206850D01*
X9733150D01*
X9743150Y5196850D01*
X9733150Y5186850D01*
X9743150D01*
X9753150Y5176850D01*
X9653150D02*
X9663150Y5186850D01*
X9673150D01*
X9663150Y5196850D01*
X9673150Y5206850D01*
X9663150D01*
X9653150Y5216850D01*
X9643150Y5206850D01*
X9633150D01*
X9643150Y5196850D01*
X9633150Y5186850D01*
X9643150D01*
X9653150Y5176850D01*
X9553150D02*
X9563150Y5186850D01*
X9573150D01*
X9563150Y5196850D01*
X9573150Y5206850D01*
X9563150D01*
X9553150Y5216850D01*
X9543150Y5206850D01*
X9533150D01*
X9543150Y5196850D01*
X9533150Y5186850D01*
X9543150D01*
X9553150Y5176850D01*
X8468898D02*
X8448898Y5216850D01*
X8488898D01*
X8468898Y5176850D01*
X8568898D02*
X8578898Y5186850D01*
X8588898D01*
X8578898Y5196850D01*
X8588898Y5206850D01*
X8578898D01*
X8568898Y5216850D01*
X8558898Y5206850D01*
X8548898D01*
X8558898Y5196850D01*
X8548898Y5186850D01*
X8558898D01*
X8568898Y5176850D01*
X8668898D02*
X8678898Y5186850D01*
X8688898D01*
X8678898Y5196850D01*
X8688898Y5206850D01*
X8678898D01*
X8668898Y5216850D01*
X8658898Y5206850D01*
X8648898D01*
X8658898Y5196850D01*
X8648898Y5186850D01*
X8658898D01*
X8668898Y5176850D01*
X8768898D02*
X8778898Y5186850D01*
X8788898D01*
X8778898Y5196850D01*
X8788898Y5206850D01*
X8778898D01*
X8768898Y5216850D01*
X8758898Y5206850D01*
X8748898D01*
X8758898Y5196850D01*
X8748898Y5186850D01*
X8758898D01*
X8768898Y5176850D01*
X8868898D02*
X8878898Y5186850D01*
X8888898D01*
X8878898Y5196850D01*
X8888898Y5206850D01*
X8878898D01*
X8868898Y5216850D01*
X8858898Y5206850D01*
X8848898D01*
X8858898Y5196850D01*
X8848898Y5186850D01*
X8858898D01*
X8868898Y5176850D01*
X8968898D02*
X8978898Y5186850D01*
X8988898D01*
X8978898Y5196850D01*
X8988898Y5206850D01*
X8978898D01*
X8968898Y5216850D01*
X8958898Y5206850D01*
X8948898D01*
X8958898Y5196850D01*
X8948898Y5186850D01*
X8958898D01*
X8968898Y5176850D01*
X9068898D02*
X9078898Y5186850D01*
X9088898D01*
X9078898Y5196850D01*
X9088898Y5206850D01*
X9078898D01*
X9068898Y5216850D01*
X9058898Y5206850D01*
X9048898D01*
X9058898Y5196850D01*
X9048898Y5186850D01*
X9058898D01*
X9068898Y5176850D01*
X9168898D02*
X9178898Y5186850D01*
X9188898D01*
X9178898Y5196850D01*
X9188898Y5206850D01*
X9178898D01*
X9168898Y5216850D01*
X9158898Y5206850D01*
X9148898D01*
X9158898Y5196850D01*
X9148898Y5186850D01*
X9158898D01*
X9168898Y5176850D01*
X7366535D02*
X7346535Y5216850D01*
X7386535D01*
X7366535Y5176850D01*
X7466535D02*
X7476535Y5186850D01*
X7486535D01*
X7476535Y5196850D01*
X7486535Y5206850D01*
X7476535D01*
X7466535Y5216850D01*
X7456535Y5206850D01*
X7446535D01*
X7456535Y5196850D01*
X7446535Y5186850D01*
X7456535D01*
X7466535Y5176850D01*
X7566535D02*
X7576535Y5186850D01*
X7586535D01*
X7576535Y5196850D01*
X7586535Y5206850D01*
X7576535D01*
X7566535Y5216850D01*
X7556535Y5206850D01*
X7546535D01*
X7556535Y5196850D01*
X7546535Y5186850D01*
X7556535D01*
X7566535Y5176850D01*
X7666535D02*
X7676535Y5186850D01*
X7686535D01*
X7676535Y5196850D01*
X7686535Y5206850D01*
X7676535D01*
X7666535Y5216850D01*
X7656535Y5206850D01*
X7646535D01*
X7656535Y5196850D01*
X7646535Y5186850D01*
X7656535D01*
X7666535Y5176850D01*
X7766535D02*
X7776535Y5186850D01*
X7786535D01*
X7776535Y5196850D01*
X7786535Y5206850D01*
X7776535D01*
X7766535Y5216850D01*
X7756535Y5206850D01*
X7746535D01*
X7756535Y5196850D01*
X7746535Y5186850D01*
X7756535D01*
X7766535Y5176850D01*
X7866535D02*
X7876535Y5186850D01*
X7886535D01*
X7876535Y5196850D01*
X7886535Y5206850D01*
X7876535D01*
X7866535Y5216850D01*
X7856535Y5206850D01*
X7846535D01*
X7856535Y5196850D01*
X7846535Y5186850D01*
X7856535D01*
X7866535Y5176850D01*
X7966535D02*
X7976535Y5186850D01*
X7986535D01*
X7976535Y5196850D01*
X7986535Y5206850D01*
X7976535D01*
X7966535Y5216850D01*
X7956535Y5206850D01*
X7946535D01*
X7956535Y5196850D01*
X7946535Y5186850D01*
X7956535D01*
X7966535Y5176850D01*
X8066535D02*
X8076535Y5186850D01*
X8086535D01*
X8076535Y5196850D01*
X8086535Y5206850D01*
X8076535D01*
X8066535Y5216850D01*
X8056535Y5206850D01*
X8046535D01*
X8056535Y5196850D01*
X8046535Y5186850D01*
X8056535D01*
X8066535Y5176850D01*
X570551Y5137480D02*
X580551Y5157480D01*
X570551Y5177480D01*
X590551Y5167480D01*
X610551Y5177480D01*
X600551Y5157480D01*
X610551Y5137480D01*
X590551Y5147480D01*
X570551Y5137480D01*
X432756Y5334331D02*
X442756Y5354331D01*
X432756Y5374331D01*
X452756Y5364331D01*
X472756Y5374331D01*
X462756Y5354331D01*
X472756Y5334331D01*
X452756Y5344331D01*
X432756Y5334331D01*
X2799606Y1633543D02*
X2779606Y1673543D01*
X2819606D01*
X2799606Y1633543D01*
X2899606D02*
X2909606Y1643543D01*
X2919606D01*
X2909606Y1653543D01*
X2919606Y1663543D01*
X2909606D01*
X2899606Y1673543D01*
X2889606Y1663543D01*
X2879606D01*
X2889606Y1653543D01*
X2879606Y1643543D01*
X2889606D01*
X2899606Y1633543D01*
X2999606D02*
X3009606Y1643543D01*
X3019606D01*
X3009606Y1653543D01*
X3019606Y1663543D01*
X3009606D01*
X2999606Y1673543D01*
X2989606Y1663543D01*
X2979606D01*
X2989606Y1653543D01*
X2979606Y1643543D01*
X2989606D01*
X2999606Y1633543D01*
X3099606D02*
X3109606Y1643543D01*
X3119606D01*
X3109606Y1653543D01*
X3119606Y1663543D01*
X3109606D01*
X3099606Y1673543D01*
X3089606Y1663543D01*
X3079606D01*
X3089606Y1653543D01*
X3079606Y1643543D01*
X3089606D01*
X3099606Y1633543D01*
X3199606D02*
X3209606Y1643543D01*
X3219606D01*
X3209606Y1653543D01*
X3219606Y1663543D01*
X3209606D01*
X3199606Y1673543D01*
X3189606Y1663543D01*
X3179606D01*
X3189606Y1653543D01*
X3179606Y1643543D01*
X3189606D01*
X3199606Y1633543D01*
X3299606D02*
X3309606Y1643543D01*
X3319606D01*
X3309606Y1653543D01*
X3319606Y1663543D01*
X3309606D01*
X3299606Y1673543D01*
X3289606Y1663543D01*
X3279606D01*
X3289606Y1653543D01*
X3279606Y1643543D01*
X3289606D01*
X3299606Y1633543D01*
X3399606D02*
X3409606Y1643543D01*
X3419606D01*
X3409606Y1653543D01*
X3419606Y1663543D01*
X3409606D01*
X3399606Y1673543D01*
X3389606Y1663543D01*
X3379606D01*
X3389606Y1653543D01*
X3379606Y1643543D01*
X3389606D01*
X3399606Y1633543D01*
X3499606D02*
X3509606Y1643543D01*
X3519606D01*
X3509606Y1653543D01*
X3519606Y1663543D01*
X3509606D01*
X3499606Y1673543D01*
X3489606Y1663543D01*
X3479606D01*
X3489606Y1653543D01*
X3479606Y1643543D01*
X3489606D01*
X3499606Y1633543D01*
X4846850D02*
X4826850Y1673543D01*
X4866850D01*
X4846850Y1633543D01*
X4946850D02*
X4956850Y1643543D01*
X4966850D01*
X4956850Y1653543D01*
X4966850Y1663543D01*
X4956850D01*
X4946850Y1673543D01*
X4936850Y1663543D01*
X4926850D01*
X4936850Y1653543D01*
X4926850Y1643543D01*
X4936850D01*
X4946850Y1633543D01*
X5046850D02*
X5056850Y1643543D01*
X5066850D01*
X5056850Y1653543D01*
X5066850Y1663543D01*
X5056850D01*
X5046850Y1673543D01*
X5036850Y1663543D01*
X5026850D01*
X5036850Y1653543D01*
X5026850Y1643543D01*
X5036850D01*
X5046850Y1633543D01*
X5146850D02*
X5156850Y1643543D01*
X5166850D01*
X5156850Y1653543D01*
X5166850Y1663543D01*
X5156850D01*
X5146850Y1673543D01*
X5136850Y1663543D01*
X5126850D01*
X5136850Y1653543D01*
X5126850Y1643543D01*
X5136850D01*
X5146850Y1633543D01*
X5246850D02*
X5256850Y1643543D01*
X5266850D01*
X5256850Y1653543D01*
X5266850Y1663543D01*
X5256850D01*
X5246850Y1673543D01*
X5236850Y1663543D01*
X5226850D01*
X5236850Y1653543D01*
X5226850Y1643543D01*
X5236850D01*
X5246850Y1633543D01*
X5346850D02*
X5356850Y1643543D01*
X5366850D01*
X5356850Y1653543D01*
X5366850Y1663543D01*
X5356850D01*
X5346850Y1673543D01*
X5336850Y1663543D01*
X5326850D01*
X5336850Y1653543D01*
X5326850Y1643543D01*
X5336850D01*
X5346850Y1633543D01*
X5446850D02*
X5456850Y1643543D01*
X5466850D01*
X5456850Y1653543D01*
X5466850Y1663543D01*
X5456850D01*
X5446850Y1673543D01*
X5436850Y1663543D01*
X5426850D01*
X5436850Y1653543D01*
X5426850Y1643543D01*
X5436850D01*
X5446850Y1633543D01*
X5546850D02*
X5556850Y1643543D01*
X5566850D01*
X5556850Y1653543D01*
X5566850Y1663543D01*
X5556850D01*
X5546850Y1673543D01*
X5536850Y1663543D01*
X5526850D01*
X5536850Y1653543D01*
X5526850Y1643543D01*
X5536850D01*
X5546850Y1633543D01*
X6894095D02*
X6874095Y1673543D01*
X6914095D01*
X6894095Y1633543D01*
X6994095D02*
X7004095Y1643543D01*
X7014095D01*
X7004095Y1653543D01*
X7014095Y1663543D01*
X7004095D01*
X6994095Y1673543D01*
X6984095Y1663543D01*
X6974095D01*
X6984095Y1653543D01*
X6974095Y1643543D01*
X6984095D01*
X6994095Y1633543D01*
X7094095D02*
X7104095Y1643543D01*
X7114095D01*
X7104095Y1653543D01*
X7114095Y1663543D01*
X7104095D01*
X7094095Y1673543D01*
X7084095Y1663543D01*
X7074095D01*
X7084095Y1653543D01*
X7074095Y1643543D01*
X7084095D01*
X7094095Y1633543D01*
X7194095D02*
X7204095Y1643543D01*
X7214095D01*
X7204095Y1653543D01*
X7214095Y1663543D01*
X7204095D01*
X7194095Y1673543D01*
X7184095Y1663543D01*
X7174095D01*
X7184095Y1653543D01*
X7174095Y1643543D01*
X7184095D01*
X7194095Y1633543D01*
X7294095D02*
X7304095Y1643543D01*
X7314095D01*
X7304095Y1653543D01*
X7314095Y1663543D01*
X7304095D01*
X7294095Y1673543D01*
X7284095Y1663543D01*
X7274095D01*
X7284095Y1653543D01*
X7274095Y1643543D01*
X7284095D01*
X7294095Y1633543D01*
X7394095D02*
X7404095Y1643543D01*
X7414095D01*
X7404095Y1653543D01*
X7414095Y1663543D01*
X7404095D01*
X7394095Y1673543D01*
X7384095Y1663543D01*
X7374095D01*
X7384095Y1653543D01*
X7374095Y1643543D01*
X7384095D01*
X7394095Y1633543D01*
X7494095D02*
X7504095Y1643543D01*
X7514095D01*
X7504095Y1653543D01*
X7514095Y1663543D01*
X7504095D01*
X7494095Y1673543D01*
X7484095Y1663543D01*
X7474095D01*
X7484095Y1653543D01*
X7474095Y1643543D01*
X7484095D01*
X7494095Y1633543D01*
X7594095D02*
X7604095Y1643543D01*
X7614095D01*
X7604095Y1653543D01*
X7614095Y1663543D01*
X7604095D01*
X7594095Y1673543D01*
X7584095Y1663543D01*
X7574095D01*
X7584095Y1653543D01*
X7574095Y1643543D01*
X7584095D01*
X7594095Y1633543D01*
X8941339D02*
X8921339Y1673543D01*
X8961339D01*
X8941339Y1633543D01*
X9041339D02*
X9051339Y1643543D01*
X9061339D01*
X9051339Y1653543D01*
X9061339Y1663543D01*
X9051339D01*
X9041339Y1673543D01*
X9031339Y1663543D01*
X9021339D01*
X9031339Y1653543D01*
X9021339Y1643543D01*
X9031339D01*
X9041339Y1633543D01*
X9141339D02*
X9151339Y1643543D01*
X9161339D01*
X9151339Y1653543D01*
X9161339Y1663543D01*
X9151339D01*
X9141339Y1673543D01*
X9131339Y1663543D01*
X9121339D01*
X9131339Y1653543D01*
X9121339Y1643543D01*
X9131339D01*
X9141339Y1633543D01*
X9241339D02*
X9251339Y1643543D01*
X9261339D01*
X9251339Y1653543D01*
X9261339Y1663543D01*
X9251339D01*
X9241339Y1673543D01*
X9231339Y1663543D01*
X9221339D01*
X9231339Y1653543D01*
X9221339Y1643543D01*
X9231339D01*
X9241339Y1633543D01*
X9341339D02*
X9351339Y1643543D01*
X9361339D01*
X9351339Y1653543D01*
X9361339Y1663543D01*
X9351339D01*
X9341339Y1673543D01*
X9331339Y1663543D01*
X9321339D01*
X9331339Y1653543D01*
X9321339Y1643543D01*
X9331339D01*
X9341339Y1633543D01*
X9441339D02*
X9451339Y1643543D01*
X9461339D01*
X9451339Y1653543D01*
X9461339Y1663543D01*
X9451339D01*
X9441339Y1673543D01*
X9431339Y1663543D01*
X9421339D01*
X9431339Y1653543D01*
X9421339Y1643543D01*
X9431339D01*
X9441339Y1633543D01*
X9541339D02*
X9551339Y1643543D01*
X9561339D01*
X9551339Y1653543D01*
X9561339Y1663543D01*
X9551339D01*
X9541339Y1673543D01*
X9531339Y1663543D01*
X9521339D01*
X9531339Y1653543D01*
X9521339Y1643543D01*
X9531339D01*
X9541339Y1633543D01*
X9641339D02*
X9651339Y1643543D01*
X9661339D01*
X9651339Y1653543D01*
X9661339Y1663543D01*
X9651339D01*
X9641339Y1673543D01*
X9631339Y1663543D01*
X9621339D01*
X9631339Y1653543D01*
X9621339Y1643543D01*
X9631339D01*
X9641339Y1633543D01*
X752362D02*
X732362Y1673543D01*
X772362D01*
X752362Y1633543D01*
X852362D02*
X862362Y1643543D01*
X872362D01*
X862362Y1653543D01*
X872362Y1663543D01*
X862362D01*
X852362Y1673543D01*
X842362Y1663543D01*
X832362D01*
X842362Y1653543D01*
X832362Y1643543D01*
X842362D01*
X852362Y1633543D01*
X952362D02*
X962362Y1643543D01*
X972362D01*
X962362Y1653543D01*
X972362Y1663543D01*
X962362D01*
X952362Y1673543D01*
X942362Y1663543D01*
X932362D01*
X942362Y1653543D01*
X932362Y1643543D01*
X942362D01*
X952362Y1633543D01*
X1052362D02*
X1062362Y1643543D01*
X1072362D01*
X1062362Y1653543D01*
X1072362Y1663543D01*
X1062362D01*
X1052362Y1673543D01*
X1042362Y1663543D01*
X1032362D01*
X1042362Y1653543D01*
X1032362Y1643543D01*
X1042362D01*
X1052362Y1633543D01*
X1152362D02*
X1162362Y1643543D01*
X1172362D01*
X1162362Y1653543D01*
X1172362Y1663543D01*
X1162362D01*
X1152362Y1673543D01*
X1142362Y1663543D01*
X1132362D01*
X1142362Y1653543D01*
X1132362Y1643543D01*
X1142362D01*
X1152362Y1633543D01*
X1252362D02*
X1262362Y1643543D01*
X1272362D01*
X1262362Y1653543D01*
X1272362Y1663543D01*
X1262362D01*
X1252362Y1673543D01*
X1242362Y1663543D01*
X1232362D01*
X1242362Y1653543D01*
X1232362Y1643543D01*
X1242362D01*
X1252362Y1633543D01*
X1352362D02*
X1362362Y1643543D01*
X1372362D01*
X1362362Y1653543D01*
X1372362Y1663543D01*
X1362362D01*
X1352362Y1673543D01*
X1342362Y1663543D01*
X1332362D01*
X1342362Y1653543D01*
X1332362Y1643543D01*
X1342362D01*
X1352362Y1633543D01*
X1452362D02*
X1462362Y1643543D01*
X1472362D01*
X1462362Y1653543D01*
X1472362Y1663543D01*
X1462362D01*
X1452362Y1673543D01*
X1442362Y1663543D01*
X1432362D01*
X1442362Y1653543D01*
X1432362Y1643543D01*
X1442362D01*
X1452362Y1633543D01*
X1697244Y5176850D02*
X1677244Y5216850D01*
X1717244D01*
X1697244Y5176850D01*
X1797244D02*
X1807244Y5186850D01*
X1817244D01*
X1807244Y5196850D01*
X1817244Y5206850D01*
X1807244D01*
X1797244Y5216850D01*
X1787244Y5206850D01*
X1777244D01*
X1787244Y5196850D01*
X1777244Y5186850D01*
X1787244D01*
X1797244Y5176850D01*
X1897244D02*
X1907244Y5186850D01*
X1917244D01*
X1907244Y5196850D01*
X1917244Y5206850D01*
X1907244D01*
X1897244Y5216850D01*
X1887244Y5206850D01*
X1877244D01*
X1887244Y5196850D01*
X1877244Y5186850D01*
X1887244D01*
X1897244Y5176850D01*
X1997244D02*
X2007244Y5186850D01*
X2017244D01*
X2007244Y5196850D01*
X2017244Y5206850D01*
X2007244D01*
X1997244Y5216850D01*
X1987244Y5206850D01*
X1977244D01*
X1987244Y5196850D01*
X1977244Y5186850D01*
X1987244D01*
X1997244Y5176850D01*
X2097244D02*
X2107244Y5186850D01*
X2117244D01*
X2107244Y5196850D01*
X2117244Y5206850D01*
X2107244D01*
X2097244Y5216850D01*
X2087244Y5206850D01*
X2077244D01*
X2087244Y5196850D01*
X2077244Y5186850D01*
X2087244D01*
X2097244Y5176850D01*
X2197244D02*
X2207244Y5186850D01*
X2217244D01*
X2207244Y5196850D01*
X2217244Y5206850D01*
X2207244D01*
X2197244Y5216850D01*
X2187244Y5206850D01*
X2177244D01*
X2187244Y5196850D01*
X2177244Y5186850D01*
X2187244D01*
X2197244Y5176850D01*
X2297244D02*
X2307244Y5186850D01*
X2317244D01*
X2307244Y5196850D01*
X2317244Y5206850D01*
X2307244D01*
X2297244Y5216850D01*
X2287244Y5206850D01*
X2277244D01*
X2287244Y5196850D01*
X2277244Y5186850D01*
X2287244D01*
X2297244Y5176850D01*
X2397244D02*
X2407244Y5186850D01*
X2417244D01*
X2407244Y5196850D01*
X2417244Y5206850D01*
X2407244D01*
X2397244Y5216850D01*
X2387244Y5206850D01*
X2377244D01*
X2387244Y5196850D01*
X2377244Y5186850D01*
X2387244D01*
X2397244Y5176850D01*
X10226206Y5856142D02*
Y5846142D01*
X10246206D01*
Y5856142D01*
X10256206D01*
Y5876142D01*
X10246206D01*
Y5886142D01*
X10226206D01*
Y5876142D01*
X10216206D01*
Y5856142D01*
X10226206D01*
X10186835D02*
Y5846142D01*
X10206835D01*
Y5856142D01*
X10216835D01*
Y5876142D01*
X10206835D01*
Y5886142D01*
X10186835D01*
Y5876142D01*
X10176835D01*
Y5856142D01*
X10186835D01*
X10147466D02*
Y5846142D01*
X10167466D01*
Y5856142D01*
X10177466D01*
Y5876142D01*
X10167466D01*
Y5886142D01*
X10147466D01*
Y5876142D01*
X10137466D01*
Y5856142D01*
X10147466D01*
X9871876D02*
Y5846142D01*
X9891876D01*
Y5856142D01*
X9901876D01*
Y5876142D01*
X9891876D01*
Y5886142D01*
X9871876D01*
Y5876142D01*
X9861876D01*
Y5856142D01*
X9871876D01*
X9911246D02*
Y5846142D01*
X9931246D01*
Y5856142D01*
X9941246D01*
Y5876142D01*
X9931246D01*
Y5886142D01*
X9911246D01*
Y5876142D01*
X9901246D01*
Y5856142D01*
X9911246D01*
X9950615D02*
Y5846142D01*
X9970615D01*
Y5856142D01*
X9980615D01*
Y5876142D01*
X9970615D01*
Y5886142D01*
X9950615D01*
Y5876142D01*
X9940615D01*
Y5856142D01*
X9950615D01*
X9989986D02*
Y5846142D01*
X10009986D01*
Y5856142D01*
X10019986D01*
Y5876142D01*
X10009986D01*
Y5886142D01*
X9989986D01*
Y5876142D01*
X9979986D01*
Y5856142D01*
X9989986D01*
X10029355D02*
Y5846142D01*
X10049355D01*
Y5856142D01*
X10059355D01*
Y5876142D01*
X10049355D01*
Y5886142D01*
X10029355D01*
Y5876142D01*
X10019355D01*
Y5856142D01*
X10029355D01*
X9832505D02*
Y5846142D01*
X9852505D01*
Y5856142D01*
X9862505D01*
Y5876142D01*
X9852505D01*
Y5886142D01*
X9832505D01*
Y5876142D01*
X9822505D01*
Y5856142D01*
X9832505D01*
X9793136D02*
Y5846142D01*
X9813136D01*
Y5856142D01*
X9823136D01*
Y5876142D01*
X9813136D01*
Y5886142D01*
X9793136D01*
Y5876142D01*
X9783136D01*
Y5856142D01*
X9793136D01*
X9753765D02*
Y5846142D01*
X9773765D01*
Y5856142D01*
X9783765D01*
Y5876142D01*
X9773765D01*
Y5886142D01*
X9753765D01*
Y5876142D01*
X9743765D01*
Y5856142D01*
X9753765D01*
X9714396D02*
Y5846142D01*
X9734396D01*
Y5856142D01*
X9744396D01*
Y5876142D01*
X9734396D01*
Y5886142D01*
X9714396D01*
Y5876142D01*
X9704396D01*
Y5856142D01*
X9714396D01*
X9675025D02*
Y5846142D01*
X9695025D01*
Y5856142D01*
X9705025D01*
Y5876142D01*
X9695025D01*
Y5886142D01*
X9675025D01*
Y5876142D01*
X9665025D01*
Y5856142D01*
X9675025D01*
X10108095D02*
Y5846142D01*
X10128095D01*
Y5856142D01*
X10138095D01*
Y5876142D01*
X10128095D01*
Y5886142D01*
X10108095D01*
Y5876142D01*
X10098095D01*
Y5856142D01*
X10108095D01*
X10068726D02*
Y5846142D01*
X10088726D01*
Y5856142D01*
X10098726D01*
Y5876142D01*
X10088726D01*
Y5886142D01*
X10068726D01*
Y5876142D01*
X10058726D01*
Y5856142D01*
X10068726D01*
X10226206Y29370D02*
Y19370D01*
X10246206D01*
Y29370D01*
X10256206D01*
Y49370D01*
X10246206D01*
Y59370D01*
X10226206D01*
Y49370D01*
X10216206D01*
Y29370D01*
X10226206D01*
X10186836D02*
Y19370D01*
X10206836D01*
Y29370D01*
X10216836D01*
Y49370D01*
X10206836D01*
Y59370D01*
X10186836D01*
Y49370D01*
X10176836D01*
Y29370D01*
X10186836D01*
X10147466D02*
Y19370D01*
X10167466D01*
Y29370D01*
X10177466D01*
Y49370D01*
X10167466D01*
Y59370D01*
X10147466D01*
Y49370D01*
X10137466D01*
Y29370D01*
X10147466D01*
X9871876D02*
Y19370D01*
X9891876D01*
Y29370D01*
X9901876D01*
Y49370D01*
X9891876D01*
Y59370D01*
X9871876D01*
Y49370D01*
X9861876D01*
Y29370D01*
X9871876D01*
X9911246D02*
Y19370D01*
X9931246D01*
Y29370D01*
X9941246D01*
Y49370D01*
X9931246D01*
Y59370D01*
X9911246D01*
Y49370D01*
X9901246D01*
Y29370D01*
X9911246D01*
X9950616D02*
Y19370D01*
X9970616D01*
Y29370D01*
X9980616D01*
Y49370D01*
X9970616D01*
Y59370D01*
X9950616D01*
Y49370D01*
X9940616D01*
Y29370D01*
X9950616D01*
X9989986D02*
Y19370D01*
X10009986D01*
Y29370D01*
X10019986D01*
Y49370D01*
X10009986D01*
Y59370D01*
X9989986D01*
Y49370D01*
X9979986D01*
Y29370D01*
X9989986D01*
X10029356D02*
Y19370D01*
X10049356D01*
Y29370D01*
X10059356D01*
Y49370D01*
X10049356D01*
Y59370D01*
X10029356D01*
Y49370D01*
X10019356D01*
Y29370D01*
X10029356D01*
X9832506D02*
Y19370D01*
X9852506D01*
Y29370D01*
X9862506D01*
Y49370D01*
X9852506D01*
Y59370D01*
X9832506D01*
Y49370D01*
X9822506D01*
Y29370D01*
X9832506D01*
X9793136D02*
Y19370D01*
X9813136D01*
Y29370D01*
X9823136D01*
Y49370D01*
X9813136D01*
Y59370D01*
X9793136D01*
Y49370D01*
X9783136D01*
Y29370D01*
X9793136D01*
X9753766D02*
Y19370D01*
X9773766D01*
Y29370D01*
X9783766D01*
Y49370D01*
X9773766D01*
Y59370D01*
X9753766D01*
Y49370D01*
X9743766D01*
Y29370D01*
X9753766D01*
X9714396D02*
Y19370D01*
X9734396D01*
Y29370D01*
X9744396D01*
Y49370D01*
X9734396D01*
Y59370D01*
X9714396D01*
Y49370D01*
X9704396D01*
Y29370D01*
X9714396D01*
X9675026D02*
Y19370D01*
X9695026D01*
Y29370D01*
X9705026D01*
Y49370D01*
X9695026D01*
Y59370D01*
X9675026D01*
Y49370D01*
X9665026D01*
Y29370D01*
X9675026D01*
X10108096D02*
Y19370D01*
X10128096D01*
Y29370D01*
X10138096D01*
Y49370D01*
X10128096D01*
Y59370D01*
X10108096D01*
Y49370D01*
X10098096D01*
Y29370D01*
X10108096D01*
X10068726D02*
Y19370D01*
X10088726D01*
Y29370D01*
X10098726D01*
Y49370D01*
X10088726D01*
Y59370D01*
X10068726D01*
Y49370D01*
X10058726D01*
Y29370D01*
X10068726D01*
X29370Y5344322D02*
Y5334322D01*
X49370D01*
Y5344322D01*
X59370D01*
Y5364322D01*
X49370D01*
Y5374322D01*
X29370D01*
Y5364322D01*
X19370D01*
Y5344322D01*
X29370D01*
Y5304952D02*
Y5294952D01*
X49370D01*
Y5304952D01*
X59370D01*
Y5324952D01*
X49370D01*
Y5334952D01*
X29370D01*
Y5324952D01*
X19370D01*
Y5304952D01*
X29370D01*
Y5265582D02*
Y5255582D01*
X49370D01*
Y5265582D01*
X59370D01*
Y5285582D01*
X49370D01*
Y5295582D01*
X29370D01*
Y5285582D01*
X19370D01*
Y5265582D01*
X29370D01*
Y5698651D02*
Y5688651D01*
X49370D01*
Y5698651D01*
X59370D01*
Y5718651D01*
X49370D01*
Y5728651D01*
X29370D01*
Y5718651D01*
X19370D01*
Y5698651D01*
X29370D01*
Y5659282D02*
Y5649282D01*
X49370D01*
Y5659282D01*
X59370D01*
Y5679282D01*
X49370D01*
Y5689282D01*
X29370D01*
Y5679282D01*
X19370D01*
Y5659282D01*
X29370D01*
Y5619912D02*
Y5609912D01*
X49370D01*
Y5619912D01*
X59370D01*
Y5639912D01*
X49370D01*
Y5649912D01*
X29370D01*
Y5639912D01*
X19370D01*
Y5619912D01*
X29370D01*
Y5580542D02*
Y5570542D01*
X49370D01*
Y5580542D01*
X59370D01*
Y5600542D01*
X49370D01*
Y5610542D01*
X29370D01*
Y5600542D01*
X19370D01*
Y5580542D01*
X29370D01*
Y5383691D02*
Y5373691D01*
X49370D01*
Y5383691D01*
X59370D01*
Y5403691D01*
X49370D01*
Y5413691D01*
X29370D01*
Y5403691D01*
X19370D01*
Y5383691D01*
X29370D01*
Y5423061D02*
Y5413061D01*
X49370D01*
Y5423061D01*
X59370D01*
Y5443061D01*
X49370D01*
Y5453061D01*
X29370D01*
Y5443061D01*
X19370D01*
Y5423061D01*
X29370D01*
Y5462431D02*
Y5452431D01*
X49370D01*
Y5462431D01*
X59370D01*
Y5482431D01*
X49370D01*
Y5492431D01*
X29370D01*
Y5482431D01*
X19370D01*
Y5462431D01*
X29370D01*
Y5501801D02*
Y5491801D01*
X49370D01*
Y5501801D01*
X59370D01*
Y5521801D01*
X49370D01*
Y5531801D01*
X29370D01*
Y5521801D01*
X19370D01*
Y5501801D01*
X29370D01*
Y5541172D02*
Y5531172D01*
X49370D01*
Y5541172D01*
X59370D01*
Y5561172D01*
X49370D01*
Y5571172D01*
X29370D01*
Y5561172D01*
X19370D01*
Y5541172D01*
X29370D01*
Y5226212D02*
Y5216212D01*
X49370D01*
Y5226212D01*
X59370D01*
Y5246212D01*
X49370D01*
Y5256212D01*
X29370D01*
Y5246212D01*
X19370D01*
Y5226212D01*
X29370D01*
Y4989992D02*
Y4979992D01*
X49370D01*
Y4989992D01*
X59370D01*
Y5009992D01*
X49370D01*
Y5019992D01*
X29370D01*
Y5009992D01*
X19370D01*
Y4989992D01*
X29370D01*
Y4950622D02*
Y4940622D01*
X49370D01*
Y4950622D01*
X59370D01*
Y4970622D01*
X49370D01*
Y4980622D01*
X29370D01*
Y4970622D01*
X19370D01*
Y4950622D01*
X29370D01*
Y4911252D02*
Y4901252D01*
X49370D01*
Y4911252D01*
X59370D01*
Y4931252D01*
X49370D01*
Y4941252D01*
X29370D01*
Y4931252D01*
X19370D01*
Y4911252D01*
X29370D01*
Y4871882D02*
Y4861882D01*
X49370D01*
Y4871882D01*
X59370D01*
Y4891882D01*
X49370D01*
Y4901882D01*
X29370D01*
Y4891882D01*
X19370D01*
Y4871882D01*
X29370D01*
Y4832511D02*
Y4822511D01*
X49370D01*
Y4832511D01*
X59370D01*
Y4852511D01*
X49370D01*
Y4862511D01*
X29370D01*
Y4852511D01*
X19370D01*
Y4832511D01*
X29370D01*
Y5029361D02*
Y5019361D01*
X49370D01*
Y5029361D01*
X59370D01*
Y5049361D01*
X49370D01*
Y5059361D01*
X29370D01*
Y5049361D01*
X19370D01*
Y5029361D01*
X29370D01*
Y5068731D02*
Y5058731D01*
X49370D01*
Y5068731D01*
X59370D01*
Y5088731D01*
X49370D01*
Y5098731D01*
X29370D01*
Y5088731D01*
X19370D01*
Y5068731D01*
X29370D01*
Y5108101D02*
Y5098101D01*
X49370D01*
Y5108101D01*
X59370D01*
Y5128101D01*
X49370D01*
Y5138101D01*
X29370D01*
Y5128101D01*
X19370D01*
Y5108101D01*
X29370D01*
Y5147471D02*
Y5137471D01*
X49370D01*
Y5147471D01*
X59370D01*
Y5167471D01*
X49370D01*
Y5177471D01*
X29370D01*
Y5167471D01*
X19370D01*
Y5147471D01*
X29370D01*
Y5186842D02*
Y5176842D01*
X49370D01*
Y5186842D01*
X59370D01*
Y5206842D01*
X49370D01*
Y5216842D01*
X29370D01*
Y5206842D01*
X19370D01*
Y5186842D01*
X29370D01*
Y4714401D02*
Y4704401D01*
X49370D01*
Y4714401D01*
X59370D01*
Y4734401D01*
X49370D01*
Y4744401D01*
X29370D01*
Y4734401D01*
X19370D01*
Y4714401D01*
X29370D01*
Y4753771D02*
Y4743771D01*
X49370D01*
Y4753771D01*
X59370D01*
Y4773771D01*
X49370D01*
Y4783771D01*
X29370D01*
Y4773771D01*
X19370D01*
Y4753771D01*
X29370D01*
Y4793141D02*
Y4783141D01*
X49370D01*
Y4793141D01*
X59370D01*
Y4813141D01*
X49370D01*
Y4823141D01*
X29370D01*
Y4813141D01*
X19370D01*
Y4793141D01*
X29370D01*
Y3848262D02*
Y3838262D01*
X49370D01*
Y3848262D01*
X59370D01*
Y3868262D01*
X49370D01*
Y3878262D01*
X29370D01*
Y3868262D01*
X19370D01*
Y3848262D01*
X29370D01*
Y3808892D02*
Y3798892D01*
X49370D01*
Y3808892D01*
X59370D01*
Y3828892D01*
X49370D01*
Y3838892D01*
X29370D01*
Y3828892D01*
X19370D01*
Y3808892D01*
X29370D01*
Y3769521D02*
Y3759521D01*
X49370D01*
Y3769521D01*
X59370D01*
Y3789521D01*
X49370D01*
Y3799521D01*
X29370D01*
Y3789521D01*
X19370D01*
Y3769521D01*
X29370D01*
Y4241962D02*
Y4231962D01*
X49370D01*
Y4241962D01*
X59370D01*
Y4261962D01*
X49370D01*
Y4271962D01*
X29370D01*
Y4261962D01*
X19370D01*
Y4241962D01*
X29370D01*
Y4202592D02*
Y4192592D01*
X49370D01*
Y4202592D01*
X59370D01*
Y4222592D01*
X49370D01*
Y4232592D01*
X29370D01*
Y4222592D01*
X19370D01*
Y4202592D01*
X29370D01*
Y4163221D02*
Y4153221D01*
X49370D01*
Y4163221D01*
X59370D01*
Y4183221D01*
X49370D01*
Y4193221D01*
X29370D01*
Y4183221D01*
X19370D01*
Y4163221D01*
X29370D01*
Y4123851D02*
Y4113851D01*
X49370D01*
Y4123851D01*
X59370D01*
Y4143851D01*
X49370D01*
Y4153851D01*
X29370D01*
Y4143851D01*
X19370D01*
Y4123851D01*
X29370D01*
Y4084481D02*
Y4074481D01*
X49370D01*
Y4084481D01*
X59370D01*
Y4104481D01*
X49370D01*
Y4114481D01*
X29370D01*
Y4104481D01*
X19370D01*
Y4084481D01*
X29370D01*
Y3887631D02*
Y3877631D01*
X49370D01*
Y3887631D01*
X59370D01*
Y3907631D01*
X49370D01*
Y3917631D01*
X29370D01*
Y3907631D01*
X19370D01*
Y3887631D01*
X29370D01*
Y3927001D02*
Y3917001D01*
X49370D01*
Y3927001D01*
X59370D01*
Y3947001D01*
X49370D01*
Y3957001D01*
X29370D01*
Y3947001D01*
X19370D01*
Y3927001D01*
X29370D01*
Y3966372D02*
Y3956372D01*
X49370D01*
Y3966372D01*
X59370D01*
Y3986372D01*
X49370D01*
Y3996372D01*
X29370D01*
Y3986372D01*
X19370D01*
Y3966372D01*
X29370D01*
Y4005742D02*
Y3995742D01*
X49370D01*
Y4005742D01*
X59370D01*
Y4025742D01*
X49370D01*
Y4035742D01*
X29370D01*
Y4025742D01*
X19370D01*
Y4005742D01*
X29370D01*
Y4045111D02*
Y4035111D01*
X49370D01*
Y4045111D01*
X59370D01*
Y4065111D01*
X49370D01*
Y4075111D01*
X29370D01*
Y4065111D01*
X19370D01*
Y4045111D01*
X29370D01*
Y4438811D02*
Y4428811D01*
X49370D01*
Y4438811D01*
X59370D01*
Y4458811D01*
X49370D01*
Y4468811D01*
X29370D01*
Y4458811D01*
X19370D01*
Y4438811D01*
X29370D01*
Y4399441D02*
Y4389441D01*
X49370D01*
Y4399441D01*
X59370D01*
Y4419441D01*
X49370D01*
Y4429441D01*
X29370D01*
Y4419441D01*
X19370D01*
Y4399441D01*
X29370D01*
Y4360072D02*
Y4350072D01*
X49370D01*
Y4360072D01*
X59370D01*
Y4380072D01*
X49370D01*
Y4390072D01*
X29370D01*
Y4380072D01*
X19370D01*
Y4360072D01*
X29370D01*
Y4320702D02*
Y4310702D01*
X49370D01*
Y4320702D01*
X59370D01*
Y4340702D01*
X49370D01*
Y4350702D01*
X29370D01*
Y4340702D01*
X19370D01*
Y4320702D01*
X29370D01*
Y4281332D02*
Y4271332D01*
X49370D01*
Y4281332D01*
X59370D01*
Y4301332D01*
X49370D01*
Y4311332D01*
X29370D01*
Y4301332D01*
X19370D01*
Y4281332D01*
X29370D01*
Y4478181D02*
Y4468181D01*
X49370D01*
Y4478181D01*
X59370D01*
Y4498181D01*
X49370D01*
Y4508181D01*
X29370D01*
Y4498181D01*
X19370D01*
Y4478181D01*
X29370D01*
Y4517551D02*
Y4507551D01*
X49370D01*
Y4517551D01*
X59370D01*
Y4537551D01*
X49370D01*
Y4547551D01*
X29370D01*
Y4537551D01*
X19370D01*
Y4517551D01*
X29370D01*
Y4556922D02*
Y4546922D01*
X49370D01*
Y4556922D01*
X59370D01*
Y4576922D01*
X49370D01*
Y4586922D01*
X29370D01*
Y4576922D01*
X19370D01*
Y4556922D01*
X29370D01*
Y4596292D02*
Y4586292D01*
X49370D01*
Y4596292D01*
X59370D01*
Y4616292D01*
X49370D01*
Y4626292D01*
X29370D01*
Y4616292D01*
X19370D01*
Y4596292D01*
X29370D01*
Y4675032D02*
Y4665032D01*
X49370D01*
Y4675032D01*
X59370D01*
Y4695032D01*
X49370D01*
Y4705032D01*
X29370D01*
Y4695032D01*
X19370D01*
Y4675032D01*
X29370D01*
Y4635662D02*
Y4625662D01*
X49370D01*
Y4635662D01*
X59370D01*
Y4655662D01*
X49370D01*
Y4665662D01*
X29370D01*
Y4655662D01*
X19370D01*
Y4635662D01*
X29370D01*
X10383701Y5344326D02*
Y5334326D01*
X10403701D01*
Y5344326D01*
X10413701D01*
Y5364326D01*
X10403701D01*
Y5374326D01*
X10383701D01*
Y5364326D01*
X10373701D01*
Y5344326D01*
X10383701D01*
Y5304956D02*
Y5294956D01*
X10403701D01*
Y5304956D01*
X10413701D01*
Y5324956D01*
X10403701D01*
Y5334956D01*
X10383701D01*
Y5324956D01*
X10373701D01*
Y5304956D01*
X10383701D01*
Y5265586D02*
Y5255586D01*
X10403701D01*
Y5265586D01*
X10413701D01*
Y5285586D01*
X10403701D01*
Y5295586D01*
X10383701D01*
Y5285586D01*
X10373701D01*
Y5265586D01*
X10383701D01*
Y5698656D02*
Y5688656D01*
X10403701D01*
Y5698656D01*
X10413701D01*
Y5718656D01*
X10403701D01*
Y5728656D01*
X10383701D01*
Y5718656D01*
X10373701D01*
Y5698656D01*
X10383701D01*
Y5659286D02*
Y5649286D01*
X10403701D01*
Y5659286D01*
X10413701D01*
Y5679286D01*
X10403701D01*
Y5689286D01*
X10383701D01*
Y5679286D01*
X10373701D01*
Y5659286D01*
X10383701D01*
Y5619916D02*
Y5609916D01*
X10403701D01*
Y5619916D01*
X10413701D01*
Y5639916D01*
X10403701D01*
Y5649916D01*
X10383701D01*
Y5639916D01*
X10373701D01*
Y5619916D01*
X10383701D01*
Y5580546D02*
Y5570546D01*
X10403701D01*
Y5580546D01*
X10413701D01*
Y5600546D01*
X10403701D01*
Y5610546D01*
X10383701D01*
Y5600546D01*
X10373701D01*
Y5580546D01*
X10383701D01*
Y5383696D02*
Y5373696D01*
X10403701D01*
Y5383696D01*
X10413701D01*
Y5403696D01*
X10403701D01*
Y5413696D01*
X10383701D01*
Y5403696D01*
X10373701D01*
Y5383696D01*
X10383701D01*
Y5423066D02*
Y5413066D01*
X10403701D01*
Y5423066D01*
X10413701D01*
Y5443066D01*
X10403701D01*
Y5453066D01*
X10383701D01*
Y5443066D01*
X10373701D01*
Y5423066D01*
X10383701D01*
Y5462436D02*
Y5452436D01*
X10403701D01*
Y5462436D01*
X10413701D01*
Y5482436D01*
X10403701D01*
Y5492436D01*
X10383701D01*
Y5482436D01*
X10373701D01*
Y5462436D01*
X10383701D01*
Y5501806D02*
Y5491806D01*
X10403701D01*
Y5501806D01*
X10413701D01*
Y5521806D01*
X10403701D01*
Y5531806D01*
X10383701D01*
Y5521806D01*
X10373701D01*
Y5501806D01*
X10383701D01*
Y5541176D02*
Y5531176D01*
X10403701D01*
Y5541176D01*
X10413701D01*
Y5561176D01*
X10403701D01*
Y5571176D01*
X10383701D01*
Y5561176D01*
X10373701D01*
Y5541176D01*
X10383701D01*
Y5226216D02*
Y5216216D01*
X10403701D01*
Y5226216D01*
X10413701D01*
Y5246216D01*
X10403701D01*
Y5256216D01*
X10383701D01*
Y5246216D01*
X10373701D01*
Y5226216D01*
X10383701D01*
Y4989996D02*
Y4979996D01*
X10403701D01*
Y4989996D01*
X10413701D01*
Y5009996D01*
X10403701D01*
Y5019996D01*
X10383701D01*
Y5009996D01*
X10373701D01*
Y4989996D01*
X10383701D01*
Y4950626D02*
Y4940626D01*
X10403701D01*
Y4950626D01*
X10413701D01*
Y4970626D01*
X10403701D01*
Y4980626D01*
X10383701D01*
Y4970626D01*
X10373701D01*
Y4950626D01*
X10383701D01*
Y4911256D02*
Y4901256D01*
X10403701D01*
Y4911256D01*
X10413701D01*
Y4931256D01*
X10403701D01*
Y4941256D01*
X10383701D01*
Y4931256D01*
X10373701D01*
Y4911256D01*
X10383701D01*
Y4871886D02*
Y4861886D01*
X10403701D01*
Y4871886D01*
X10413701D01*
Y4891886D01*
X10403701D01*
Y4901886D01*
X10383701D01*
Y4891886D01*
X10373701D01*
Y4871886D01*
X10383701D01*
Y4832516D02*
Y4822516D01*
X10403701D01*
Y4832516D01*
X10413701D01*
Y4852516D01*
X10403701D01*
Y4862516D01*
X10383701D01*
Y4852516D01*
X10373701D01*
Y4832516D01*
X10383701D01*
Y5029366D02*
Y5019366D01*
X10403701D01*
Y5029366D01*
X10413701D01*
Y5049366D01*
X10403701D01*
Y5059366D01*
X10383701D01*
Y5049366D01*
X10373701D01*
Y5029366D01*
X10383701D01*
Y5068736D02*
Y5058736D01*
X10403701D01*
Y5068736D01*
X10413701D01*
Y5088736D01*
X10403701D01*
Y5098736D01*
X10383701D01*
Y5088736D01*
X10373701D01*
Y5068736D01*
X10383701D01*
Y5108106D02*
Y5098106D01*
X10403701D01*
Y5108106D01*
X10413701D01*
Y5128106D01*
X10403701D01*
Y5138106D01*
X10383701D01*
Y5128106D01*
X10373701D01*
Y5108106D01*
X10383701D01*
Y5147476D02*
Y5137476D01*
X10403701D01*
Y5147476D01*
X10413701D01*
Y5167476D01*
X10403701D01*
Y5177476D01*
X10383701D01*
Y5167476D01*
X10373701D01*
Y5147476D01*
X10383701D01*
Y5186846D02*
Y5176846D01*
X10403701D01*
Y5186846D01*
X10413701D01*
Y5206846D01*
X10403701D01*
Y5216846D01*
X10383701D01*
Y5206846D01*
X10373701D01*
Y5186846D01*
X10383701D01*
Y4714406D02*
Y4704406D01*
X10403701D01*
Y4714406D01*
X10413701D01*
Y4734406D01*
X10403701D01*
Y4744406D01*
X10383701D01*
Y4734406D01*
X10373701D01*
Y4714406D01*
X10383701D01*
Y4753776D02*
Y4743776D01*
X10403701D01*
Y4753776D01*
X10413701D01*
Y4773776D01*
X10403701D01*
Y4783776D01*
X10383701D01*
Y4773776D01*
X10373701D01*
Y4753776D01*
X10383701D01*
Y4793146D02*
Y4783146D01*
X10403701D01*
Y4793146D01*
X10413701D01*
Y4813146D01*
X10403701D01*
Y4823146D01*
X10383701D01*
Y4813146D01*
X10373701D01*
Y4793146D01*
X10383701D01*
Y3848266D02*
Y3838266D01*
X10403701D01*
Y3848266D01*
X10413701D01*
Y3868266D01*
X10403701D01*
Y3878266D01*
X10383701D01*
Y3868266D01*
X10373701D01*
Y3848266D01*
X10383701D01*
Y3808896D02*
Y3798896D01*
X10403701D01*
Y3808896D01*
X10413701D01*
Y3828896D01*
X10403701D01*
Y3838896D01*
X10383701D01*
Y3828896D01*
X10373701D01*
Y3808896D01*
X10383701D01*
Y3769526D02*
Y3759526D01*
X10403701D01*
Y3769526D01*
X10413701D01*
Y3789526D01*
X10403701D01*
Y3799526D01*
X10383701D01*
Y3789526D01*
X10373701D01*
Y3769526D01*
X10383701D01*
Y4241966D02*
Y4231966D01*
X10403701D01*
Y4241966D01*
X10413701D01*
Y4261966D01*
X10403701D01*
Y4271966D01*
X10383701D01*
Y4261966D01*
X10373701D01*
Y4241966D01*
X10383701D01*
Y4202596D02*
Y4192596D01*
X10403701D01*
Y4202596D01*
X10413701D01*
Y4222596D01*
X10403701D01*
Y4232596D01*
X10383701D01*
Y4222596D01*
X10373701D01*
Y4202596D01*
X10383701D01*
Y4163226D02*
Y4153226D01*
X10403701D01*
Y4163226D01*
X10413701D01*
Y4183226D01*
X10403701D01*
Y4193226D01*
X10383701D01*
Y4183226D01*
X10373701D01*
Y4163226D01*
X10383701D01*
Y4123856D02*
Y4113856D01*
X10403701D01*
Y4123856D01*
X10413701D01*
Y4143856D01*
X10403701D01*
Y4153856D01*
X10383701D01*
Y4143856D01*
X10373701D01*
Y4123856D01*
X10383701D01*
Y4084486D02*
Y4074486D01*
X10403701D01*
Y4084486D01*
X10413701D01*
Y4104486D01*
X10403701D01*
Y4114486D01*
X10383701D01*
Y4104486D01*
X10373701D01*
Y4084486D01*
X10383701D01*
Y3887636D02*
Y3877636D01*
X10403701D01*
Y3887636D01*
X10413701D01*
Y3907636D01*
X10403701D01*
Y3917636D01*
X10383701D01*
Y3907636D01*
X10373701D01*
Y3887636D01*
X10383701D01*
Y3927006D02*
Y3917006D01*
X10403701D01*
Y3927006D01*
X10413701D01*
Y3947006D01*
X10403701D01*
Y3957006D01*
X10383701D01*
Y3947006D01*
X10373701D01*
Y3927006D01*
X10383701D01*
Y3966376D02*
Y3956376D01*
X10403701D01*
Y3966376D01*
X10413701D01*
Y3986376D01*
X10403701D01*
Y3996376D01*
X10383701D01*
Y3986376D01*
X10373701D01*
Y3966376D01*
X10383701D01*
Y4005746D02*
Y3995746D01*
X10403701D01*
Y4005746D01*
X10413701D01*
Y4025746D01*
X10403701D01*
Y4035746D01*
X10383701D01*
Y4025746D01*
X10373701D01*
Y4005746D01*
X10383701D01*
Y4045116D02*
Y4035116D01*
X10403701D01*
Y4045116D01*
X10413701D01*
Y4065116D01*
X10403701D01*
Y4075116D01*
X10383701D01*
Y4065116D01*
X10373701D01*
Y4045116D01*
X10383701D01*
Y4438816D02*
Y4428816D01*
X10403701D01*
Y4438816D01*
X10413701D01*
Y4458816D01*
X10403701D01*
Y4468816D01*
X10383701D01*
Y4458816D01*
X10373701D01*
Y4438816D01*
X10383701D01*
Y4399446D02*
Y4389446D01*
X10403701D01*
Y4399446D01*
X10413701D01*
Y4419446D01*
X10403701D01*
Y4429446D01*
X10383701D01*
Y4419446D01*
X10373701D01*
Y4399446D01*
X10383701D01*
Y4360076D02*
Y4350076D01*
X10403701D01*
Y4360076D01*
X10413701D01*
Y4380076D01*
X10403701D01*
Y4390076D01*
X10383701D01*
Y4380076D01*
X10373701D01*
Y4360076D01*
X10383701D01*
Y4320706D02*
Y4310706D01*
X10403701D01*
Y4320706D01*
X10413701D01*
Y4340706D01*
X10403701D01*
Y4350706D01*
X10383701D01*
Y4340706D01*
X10373701D01*
Y4320706D01*
X10383701D01*
Y4281336D02*
Y4271336D01*
X10403701D01*
Y4281336D01*
X10413701D01*
Y4301336D01*
X10403701D01*
Y4311336D01*
X10383701D01*
Y4301336D01*
X10373701D01*
Y4281336D01*
X10383701D01*
Y4478186D02*
Y4468186D01*
X10403701D01*
Y4478186D01*
X10413701D01*
Y4498186D01*
X10403701D01*
Y4508186D01*
X10383701D01*
Y4498186D01*
X10373701D01*
Y4478186D01*
X10383701D01*
Y4517556D02*
Y4507556D01*
X10403701D01*
Y4517556D01*
X10413701D01*
Y4537556D01*
X10403701D01*
Y4547556D01*
X10383701D01*
Y4537556D01*
X10373701D01*
Y4517556D01*
X10383701D01*
Y4556926D02*
Y4546926D01*
X10403701D01*
Y4556926D01*
X10413701D01*
Y4576926D01*
X10403701D01*
Y4586926D01*
X10383701D01*
Y4576926D01*
X10373701D01*
Y4556926D01*
X10383701D01*
Y4596296D02*
Y4586296D01*
X10403701D01*
Y4596296D01*
X10413701D01*
Y4616296D01*
X10403701D01*
Y4626296D01*
X10383701D01*
Y4616296D01*
X10373701D01*
Y4596296D01*
X10383701D01*
Y4675036D02*
Y4665036D01*
X10403701D01*
Y4675036D01*
X10413701D01*
Y4695036D01*
X10403701D01*
Y4705036D01*
X10383701D01*
Y4695036D01*
X10373701D01*
Y4675036D01*
X10383701D01*
Y4635666D02*
Y4625666D01*
X10403701D01*
Y4635666D01*
X10413701D01*
Y4655666D01*
X10403701D01*
Y4665666D01*
X10383701D01*
Y4655666D01*
X10373701D01*
Y4635666D01*
X10383701D01*
X9596286Y29370D02*
Y19370D01*
X9616286D01*
Y29370D01*
X9626286D01*
Y49370D01*
X9616286D01*
Y59370D01*
X9596286D01*
Y49370D01*
X9586286D01*
Y29370D01*
X9596286D01*
X9635656D02*
Y19370D01*
X9655656D01*
Y29370D01*
X9665656D01*
Y49370D01*
X9655656D01*
Y59370D01*
X9635656D01*
Y49370D01*
X9625656D01*
Y29370D01*
X9635656D01*
X9202586D02*
Y19370D01*
X9222586D01*
Y29370D01*
X9232586D01*
Y49370D01*
X9222586D01*
Y59370D01*
X9202586D01*
Y49370D01*
X9192586D01*
Y29370D01*
X9202586D01*
X9241956D02*
Y19370D01*
X9261956D01*
Y29370D01*
X9271956D01*
Y49370D01*
X9261956D01*
Y59370D01*
X9241956D01*
Y49370D01*
X9231956D01*
Y29370D01*
X9241956D01*
X9281326D02*
Y19370D01*
X9301326D01*
Y29370D01*
X9311326D01*
Y49370D01*
X9301326D01*
Y59370D01*
X9281326D01*
Y49370D01*
X9271326D01*
Y29370D01*
X9281326D01*
X9320696D02*
Y19370D01*
X9340696D01*
Y29370D01*
X9350696D01*
Y49370D01*
X9340696D01*
Y59370D01*
X9320696D01*
Y49370D01*
X9310696D01*
Y29370D01*
X9320696D01*
X9360066D02*
Y19370D01*
X9380066D01*
Y29370D01*
X9390066D01*
Y49370D01*
X9380066D01*
Y59370D01*
X9360066D01*
Y49370D01*
X9350066D01*
Y29370D01*
X9360066D01*
X9556916D02*
Y19370D01*
X9576916D01*
Y29370D01*
X9586916D01*
Y49370D01*
X9576916D01*
Y59370D01*
X9556916D01*
Y49370D01*
X9546916D01*
Y29370D01*
X9556916D01*
X9517546D02*
Y19370D01*
X9537546D01*
Y29370D01*
X9547546D01*
Y49370D01*
X9537546D01*
Y59370D01*
X9517546D01*
Y49370D01*
X9507546D01*
Y29370D01*
X9517546D01*
X9478176D02*
Y19370D01*
X9498176D01*
Y29370D01*
X9508176D01*
Y49370D01*
X9498176D01*
Y59370D01*
X9478176D01*
Y49370D01*
X9468176D01*
Y29370D01*
X9478176D01*
X9438806D02*
Y19370D01*
X9458806D01*
Y29370D01*
X9468806D01*
Y49370D01*
X9458806D01*
Y59370D01*
X9438806D01*
Y49370D01*
X9428806D01*
Y29370D01*
X9438806D01*
X9399436D02*
Y19370D01*
X9419436D01*
Y29370D01*
X9429436D01*
Y49370D01*
X9419436D01*
Y59370D01*
X9399436D01*
Y49370D01*
X9389436D01*
Y29370D01*
X9399436D01*
X8808886D02*
Y19370D01*
X8828886D01*
Y29370D01*
X8838886D01*
Y49370D01*
X8828886D01*
Y59370D01*
X8808886D01*
Y49370D01*
X8798886D01*
Y29370D01*
X8808886D01*
X8848256D02*
Y19370D01*
X8868256D01*
Y29370D01*
X8878256D01*
Y49370D01*
X8868256D01*
Y59370D01*
X8848256D01*
Y49370D01*
X8838256D01*
Y29370D01*
X8848256D01*
X8887626D02*
Y19370D01*
X8907626D01*
Y29370D01*
X8917626D01*
Y49370D01*
X8907626D01*
Y59370D01*
X8887626D01*
Y49370D01*
X8877626D01*
Y29370D01*
X8887626D01*
X8926996D02*
Y19370D01*
X8946996D01*
Y29370D01*
X8956996D01*
Y49370D01*
X8946996D01*
Y59370D01*
X8926996D01*
Y49370D01*
X8916996D01*
Y29370D01*
X8926996D01*
X8966366D02*
Y19370D01*
X8986366D01*
Y29370D01*
X8996366D01*
Y49370D01*
X8986366D01*
Y59370D01*
X8966366D01*
Y49370D01*
X8956366D01*
Y29370D01*
X8966366D01*
X9163216D02*
Y19370D01*
X9183216D01*
Y29370D01*
X9193216D01*
Y49370D01*
X9183216D01*
Y59370D01*
X9163216D01*
Y49370D01*
X9153216D01*
Y29370D01*
X9163216D01*
X9123846D02*
Y19370D01*
X9143846D01*
Y29370D01*
X9153846D01*
Y49370D01*
X9143846D01*
Y59370D01*
X9123846D01*
Y49370D01*
X9113846D01*
Y29370D01*
X9123846D01*
X9084476D02*
Y19370D01*
X9104476D01*
Y29370D01*
X9114476D01*
Y49370D01*
X9104476D01*
Y59370D01*
X9084476D01*
Y49370D01*
X9074476D01*
Y29370D01*
X9084476D01*
X9045106D02*
Y19370D01*
X9065106D01*
Y29370D01*
X9075106D01*
Y49370D01*
X9065106D01*
Y59370D01*
X9045106D01*
Y49370D01*
X9035106D01*
Y29370D01*
X9045106D01*
X9005736D02*
Y19370D01*
X9025736D01*
Y29370D01*
X9035736D01*
Y49370D01*
X9025736D01*
Y59370D01*
X9005736D01*
Y49370D01*
X8995736D01*
Y29370D01*
X9005736D01*
X8572666D02*
Y19370D01*
X8592666D01*
Y29370D01*
X8602666D01*
Y49370D01*
X8592666D01*
Y59370D01*
X8572666D01*
Y49370D01*
X8562666D01*
Y29370D01*
X8572666D01*
X8769516D02*
Y19370D01*
X8789516D01*
Y29370D01*
X8799516D01*
Y49370D01*
X8789516D01*
Y59370D01*
X8769516D01*
Y49370D01*
X8759516D01*
Y29370D01*
X8769516D01*
X8730146D02*
Y19370D01*
X8750146D01*
Y29370D01*
X8760146D01*
Y49370D01*
X8750146D01*
Y59370D01*
X8730146D01*
Y49370D01*
X8720146D01*
Y29370D01*
X8730146D01*
X8690776D02*
Y19370D01*
X8710776D01*
Y29370D01*
X8720776D01*
Y49370D01*
X8710776D01*
Y59370D01*
X8690776D01*
Y49370D01*
X8680776D01*
Y29370D01*
X8690776D01*
X8651406D02*
Y19370D01*
X8671406D01*
Y29370D01*
X8681406D01*
Y49370D01*
X8671406D01*
Y59370D01*
X8651406D01*
Y49370D01*
X8641406D01*
Y29370D01*
X8651406D01*
X8612036D02*
Y19370D01*
X8632036D01*
Y29370D01*
X8642036D01*
Y49370D01*
X8632036D01*
Y59370D01*
X8612036D01*
Y49370D01*
X8602036D01*
Y29370D01*
X8612036D01*
X8178966D02*
Y19370D01*
X8198966D01*
Y29370D01*
X8208966D01*
Y49370D01*
X8198966D01*
Y59370D01*
X8178966D01*
Y49370D01*
X8168966D01*
Y29370D01*
X8178966D01*
X8218336D02*
Y19370D01*
X8238336D01*
Y29370D01*
X8248336D01*
Y49370D01*
X8238336D01*
Y59370D01*
X8218336D01*
Y49370D01*
X8208336D01*
Y29370D01*
X8218336D01*
X8257706D02*
Y19370D01*
X8277706D01*
Y29370D01*
X8287706D01*
Y49370D01*
X8277706D01*
Y59370D01*
X8257706D01*
Y49370D01*
X8247706D01*
Y29370D01*
X8257706D01*
X8297076D02*
Y19370D01*
X8317076D01*
Y29370D01*
X8327076D01*
Y49370D01*
X8317076D01*
Y59370D01*
X8297076D01*
Y49370D01*
X8287076D01*
Y29370D01*
X8297076D01*
X8336446D02*
Y19370D01*
X8356446D01*
Y29370D01*
X8366446D01*
Y49370D01*
X8356446D01*
Y59370D01*
X8336446D01*
Y49370D01*
X8326446D01*
Y29370D01*
X8336446D01*
X8533296D02*
Y19370D01*
X8553296D01*
Y29370D01*
X8563296D01*
Y49370D01*
X8553296D01*
Y59370D01*
X8533296D01*
Y49370D01*
X8523296D01*
Y29370D01*
X8533296D01*
X8493926D02*
Y19370D01*
X8513926D01*
Y29370D01*
X8523926D01*
Y49370D01*
X8513926D01*
Y59370D01*
X8493926D01*
Y49370D01*
X8483926D01*
Y29370D01*
X8493926D01*
X8454556D02*
Y19370D01*
X8474556D01*
Y29370D01*
X8484556D01*
Y49370D01*
X8474556D01*
Y59370D01*
X8454556D01*
Y49370D01*
X8444556D01*
Y29370D01*
X8454556D01*
X8415186D02*
Y19370D01*
X8435186D01*
Y29370D01*
X8445186D01*
Y49370D01*
X8435186D01*
Y59370D01*
X8415186D01*
Y49370D01*
X8405186D01*
Y29370D01*
X8415186D01*
X8375816D02*
Y19370D01*
X8395816D01*
Y29370D01*
X8405816D01*
Y49370D01*
X8395816D01*
Y59370D01*
X8375816D01*
Y49370D01*
X8365816D01*
Y29370D01*
X8375816D01*
X7785266D02*
Y19370D01*
X7805266D01*
Y29370D01*
X7815266D01*
Y49370D01*
X7805266D01*
Y59370D01*
X7785266D01*
Y49370D01*
X7775266D01*
Y29370D01*
X7785266D01*
X7824636D02*
Y19370D01*
X7844636D01*
Y29370D01*
X7854636D01*
Y49370D01*
X7844636D01*
Y59370D01*
X7824636D01*
Y49370D01*
X7814636D01*
Y29370D01*
X7824636D01*
X7864006D02*
Y19370D01*
X7884006D01*
Y29370D01*
X7894006D01*
Y49370D01*
X7884006D01*
Y59370D01*
X7864006D01*
Y49370D01*
X7854006D01*
Y29370D01*
X7864006D01*
X7903376D02*
Y19370D01*
X7923376D01*
Y29370D01*
X7933376D01*
Y49370D01*
X7923376D01*
Y59370D01*
X7903376D01*
Y49370D01*
X7893376D01*
Y29370D01*
X7903376D01*
X7942746D02*
Y19370D01*
X7962746D01*
Y29370D01*
X7972746D01*
Y49370D01*
X7962746D01*
Y59370D01*
X7942746D01*
Y49370D01*
X7932746D01*
Y29370D01*
X7942746D01*
X8139596D02*
Y19370D01*
X8159596D01*
Y29370D01*
X8169596D01*
Y49370D01*
X8159596D01*
Y59370D01*
X8139596D01*
Y49370D01*
X8129596D01*
Y29370D01*
X8139596D01*
X8100226D02*
Y19370D01*
X8120226D01*
Y29370D01*
X8130226D01*
Y49370D01*
X8120226D01*
Y59370D01*
X8100226D01*
Y49370D01*
X8090226D01*
Y29370D01*
X8100226D01*
X8060856D02*
Y19370D01*
X8080856D01*
Y29370D01*
X8090856D01*
Y49370D01*
X8080856D01*
Y59370D01*
X8060856D01*
Y49370D01*
X8050856D01*
Y29370D01*
X8060856D01*
X8021486D02*
Y19370D01*
X8041486D01*
Y29370D01*
X8051486D01*
Y49370D01*
X8041486D01*
Y59370D01*
X8021486D01*
Y49370D01*
X8011486D01*
Y29370D01*
X8021486D01*
X7982116D02*
Y19370D01*
X8002116D01*
Y29370D01*
X8012116D01*
Y49370D01*
X8002116D01*
Y59370D01*
X7982116D01*
Y49370D01*
X7972116D01*
Y29370D01*
X7982116D01*
X7391566D02*
Y19370D01*
X7411566D01*
Y29370D01*
X7421566D01*
Y49370D01*
X7411566D01*
Y59370D01*
X7391566D01*
Y49370D01*
X7381566D01*
Y29370D01*
X7391566D01*
X7430936D02*
Y19370D01*
X7450936D01*
Y29370D01*
X7460936D01*
Y49370D01*
X7450936D01*
Y59370D01*
X7430936D01*
Y49370D01*
X7420936D01*
Y29370D01*
X7430936D01*
X7470306D02*
Y19370D01*
X7490306D01*
Y29370D01*
X7500306D01*
Y49370D01*
X7490306D01*
Y59370D01*
X7470306D01*
Y49370D01*
X7460306D01*
Y29370D01*
X7470306D01*
X7509676D02*
Y19370D01*
X7529676D01*
Y29370D01*
X7539676D01*
Y49370D01*
X7529676D01*
Y59370D01*
X7509676D01*
Y49370D01*
X7499676D01*
Y29370D01*
X7509676D01*
X7549046D02*
Y19370D01*
X7569046D01*
Y29370D01*
X7579046D01*
Y49370D01*
X7569046D01*
Y59370D01*
X7549046D01*
Y49370D01*
X7539046D01*
Y29370D01*
X7549046D01*
X7745896D02*
Y19370D01*
X7765896D01*
Y29370D01*
X7775896D01*
Y49370D01*
X7765896D01*
Y59370D01*
X7745896D01*
Y49370D01*
X7735896D01*
Y29370D01*
X7745896D01*
X7706526D02*
Y19370D01*
X7726526D01*
Y29370D01*
X7736526D01*
Y49370D01*
X7726526D01*
Y59370D01*
X7706526D01*
Y49370D01*
X7696526D01*
Y29370D01*
X7706526D01*
X7667156D02*
Y19370D01*
X7687156D01*
Y29370D01*
X7697156D01*
Y49370D01*
X7687156D01*
Y59370D01*
X7667156D01*
Y49370D01*
X7657156D01*
Y29370D01*
X7667156D01*
X7627786D02*
Y19370D01*
X7647786D01*
Y29370D01*
X7657786D01*
Y49370D01*
X7647786D01*
Y59370D01*
X7627786D01*
Y49370D01*
X7617786D01*
Y29370D01*
X7627786D01*
X7588416D02*
Y19370D01*
X7608416D01*
Y29370D01*
X7618416D01*
Y49370D01*
X7608416D01*
Y59370D01*
X7588416D01*
Y49370D01*
X7578416D01*
Y29370D01*
X7588416D01*
X7155346D02*
Y19370D01*
X7175346D01*
Y29370D01*
X7185346D01*
Y49370D01*
X7175346D01*
Y59370D01*
X7155346D01*
Y49370D01*
X7145346D01*
Y29370D01*
X7155346D01*
X7352196D02*
Y19370D01*
X7372196D01*
Y29370D01*
X7382196D01*
Y49370D01*
X7372196D01*
Y59370D01*
X7352196D01*
Y49370D01*
X7342196D01*
Y29370D01*
X7352196D01*
X7312826D02*
Y19370D01*
X7332826D01*
Y29370D01*
X7342826D01*
Y49370D01*
X7332826D01*
Y59370D01*
X7312826D01*
Y49370D01*
X7302826D01*
Y29370D01*
X7312826D01*
X7273456D02*
Y19370D01*
X7293456D01*
Y29370D01*
X7303456D01*
Y49370D01*
X7293456D01*
Y59370D01*
X7273456D01*
Y49370D01*
X7263456D01*
Y29370D01*
X7273456D01*
X7234086D02*
Y19370D01*
X7254086D01*
Y29370D01*
X7264086D01*
Y49370D01*
X7254086D01*
Y59370D01*
X7234086D01*
Y49370D01*
X7224086D01*
Y29370D01*
X7234086D01*
X7194716D02*
Y19370D01*
X7214716D01*
Y29370D01*
X7224716D01*
Y49370D01*
X7214716D01*
Y59370D01*
X7194716D01*
Y49370D01*
X7184716D01*
Y29370D01*
X7194716D01*
X6761646D02*
Y19370D01*
X6781646D01*
Y29370D01*
X6791646D01*
Y49370D01*
X6781646D01*
Y59370D01*
X6761646D01*
Y49370D01*
X6751646D01*
Y29370D01*
X6761646D01*
X6801016D02*
Y19370D01*
X6821016D01*
Y29370D01*
X6831016D01*
Y49370D01*
X6821016D01*
Y59370D01*
X6801016D01*
Y49370D01*
X6791016D01*
Y29370D01*
X6801016D01*
X6840386D02*
Y19370D01*
X6860386D01*
Y29370D01*
X6870386D01*
Y49370D01*
X6860386D01*
Y59370D01*
X6840386D01*
Y49370D01*
X6830386D01*
Y29370D01*
X6840386D01*
X6879756D02*
Y19370D01*
X6899756D01*
Y29370D01*
X6909756D01*
Y49370D01*
X6899756D01*
Y59370D01*
X6879756D01*
Y49370D01*
X6869756D01*
Y29370D01*
X6879756D01*
X6919126D02*
Y19370D01*
X6939126D01*
Y29370D01*
X6949126D01*
Y49370D01*
X6939126D01*
Y59370D01*
X6919126D01*
Y49370D01*
X6909126D01*
Y29370D01*
X6919126D01*
X7115976D02*
Y19370D01*
X7135976D01*
Y29370D01*
X7145976D01*
Y49370D01*
X7135976D01*
Y59370D01*
X7115976D01*
Y49370D01*
X7105976D01*
Y29370D01*
X7115976D01*
X7076606D02*
Y19370D01*
X7096606D01*
Y29370D01*
X7106606D01*
Y49370D01*
X7096606D01*
Y59370D01*
X7076606D01*
Y49370D01*
X7066606D01*
Y29370D01*
X7076606D01*
X7037236D02*
Y19370D01*
X7057236D01*
Y29370D01*
X7067236D01*
Y49370D01*
X7057236D01*
Y59370D01*
X7037236D01*
Y49370D01*
X7027236D01*
Y29370D01*
X7037236D01*
X6997866D02*
Y19370D01*
X7017866D01*
Y29370D01*
X7027866D01*
Y49370D01*
X7017866D01*
Y59370D01*
X6997866D01*
Y49370D01*
X6987866D01*
Y29370D01*
X6997866D01*
X6958496D02*
Y19370D01*
X6978496D01*
Y29370D01*
X6988496D01*
Y49370D01*
X6978496D01*
Y59370D01*
X6958496D01*
Y49370D01*
X6948496D01*
Y29370D01*
X6958496D01*
X6367946D02*
Y19370D01*
X6387946D01*
Y29370D01*
X6397946D01*
Y49370D01*
X6387946D01*
Y59370D01*
X6367946D01*
Y49370D01*
X6357946D01*
Y29370D01*
X6367946D01*
X6407316D02*
Y19370D01*
X6427316D01*
Y29370D01*
X6437316D01*
Y49370D01*
X6427316D01*
Y59370D01*
X6407316D01*
Y49370D01*
X6397316D01*
Y29370D01*
X6407316D01*
X6446686D02*
Y19370D01*
X6466686D01*
Y29370D01*
X6476686D01*
Y49370D01*
X6466686D01*
Y59370D01*
X6446686D01*
Y49370D01*
X6436686D01*
Y29370D01*
X6446686D01*
X6486056D02*
Y19370D01*
X6506056D01*
Y29370D01*
X6516056D01*
Y49370D01*
X6506056D01*
Y59370D01*
X6486056D01*
Y49370D01*
X6476056D01*
Y29370D01*
X6486056D01*
X6525426D02*
Y19370D01*
X6545426D01*
Y29370D01*
X6555426D01*
Y49370D01*
X6545426D01*
Y59370D01*
X6525426D01*
Y49370D01*
X6515426D01*
Y29370D01*
X6525426D01*
X6722276D02*
Y19370D01*
X6742276D01*
Y29370D01*
X6752276D01*
Y49370D01*
X6742276D01*
Y59370D01*
X6722276D01*
Y49370D01*
X6712276D01*
Y29370D01*
X6722276D01*
X6682906D02*
Y19370D01*
X6702906D01*
Y29370D01*
X6712906D01*
Y49370D01*
X6702906D01*
Y59370D01*
X6682906D01*
Y49370D01*
X6672906D01*
Y29370D01*
X6682906D01*
X6643536D02*
Y19370D01*
X6663536D01*
Y29370D01*
X6673536D01*
Y49370D01*
X6663536D01*
Y59370D01*
X6643536D01*
Y49370D01*
X6633536D01*
Y29370D01*
X6643536D01*
X6604166D02*
Y19370D01*
X6624166D01*
Y29370D01*
X6634166D01*
Y49370D01*
X6624166D01*
Y59370D01*
X6604166D01*
Y49370D01*
X6594166D01*
Y29370D01*
X6604166D01*
X6564796D02*
Y19370D01*
X6584796D01*
Y29370D01*
X6594796D01*
Y49370D01*
X6584796D01*
Y59370D01*
X6564796D01*
Y49370D01*
X6554796D01*
Y29370D01*
X6564796D01*
X5974246D02*
Y19370D01*
X5994246D01*
Y29370D01*
X6004246D01*
Y49370D01*
X5994246D01*
Y59370D01*
X5974246D01*
Y49370D01*
X5964246D01*
Y29370D01*
X5974246D01*
X6013616D02*
Y19370D01*
X6033616D01*
Y29370D01*
X6043616D01*
Y49370D01*
X6033616D01*
Y59370D01*
X6013616D01*
Y49370D01*
X6003616D01*
Y29370D01*
X6013616D01*
X6052986D02*
Y19370D01*
X6072986D01*
Y29370D01*
X6082986D01*
Y49370D01*
X6072986D01*
Y59370D01*
X6052986D01*
Y49370D01*
X6042986D01*
Y29370D01*
X6052986D01*
X6092356D02*
Y19370D01*
X6112356D01*
Y29370D01*
X6122356D01*
Y49370D01*
X6112356D01*
Y59370D01*
X6092356D01*
Y49370D01*
X6082356D01*
Y29370D01*
X6092356D01*
X6131726D02*
Y19370D01*
X6151726D01*
Y29370D01*
X6161726D01*
Y49370D01*
X6151726D01*
Y59370D01*
X6131726D01*
Y49370D01*
X6121726D01*
Y29370D01*
X6131726D01*
X6328576D02*
Y19370D01*
X6348576D01*
Y29370D01*
X6358576D01*
Y49370D01*
X6348576D01*
Y59370D01*
X6328576D01*
Y49370D01*
X6318576D01*
Y29370D01*
X6328576D01*
X6289206D02*
Y19370D01*
X6309206D01*
Y29370D01*
X6319206D01*
Y49370D01*
X6309206D01*
Y59370D01*
X6289206D01*
Y49370D01*
X6279206D01*
Y29370D01*
X6289206D01*
X6249836D02*
Y19370D01*
X6269836D01*
Y29370D01*
X6279836D01*
Y49370D01*
X6269836D01*
Y59370D01*
X6249836D01*
Y49370D01*
X6239836D01*
Y29370D01*
X6249836D01*
X6210466D02*
Y19370D01*
X6230466D01*
Y29370D01*
X6240466D01*
Y49370D01*
X6230466D01*
Y59370D01*
X6210466D01*
Y49370D01*
X6200466D01*
Y29370D01*
X6210466D01*
X6171096D02*
Y19370D01*
X6191096D01*
Y29370D01*
X6201096D01*
Y49370D01*
X6191096D01*
Y59370D01*
X6171096D01*
Y49370D01*
X6161096D01*
Y29370D01*
X6171096D01*
X5738026D02*
Y19370D01*
X5758026D01*
Y29370D01*
X5768026D01*
Y49370D01*
X5758026D01*
Y59370D01*
X5738026D01*
Y49370D01*
X5728026D01*
Y29370D01*
X5738026D01*
X5934876D02*
Y19370D01*
X5954876D01*
Y29370D01*
X5964876D01*
Y49370D01*
X5954876D01*
Y59370D01*
X5934876D01*
Y49370D01*
X5924876D01*
Y29370D01*
X5934876D01*
X5895506D02*
Y19370D01*
X5915506D01*
Y29370D01*
X5925506D01*
Y49370D01*
X5915506D01*
Y59370D01*
X5895506D01*
Y49370D01*
X5885506D01*
Y29370D01*
X5895506D01*
X5856136D02*
Y19370D01*
X5876136D01*
Y29370D01*
X5886136D01*
Y49370D01*
X5876136D01*
Y59370D01*
X5856136D01*
Y49370D01*
X5846136D01*
Y29370D01*
X5856136D01*
X5816766D02*
Y19370D01*
X5836766D01*
Y29370D01*
X5846766D01*
Y49370D01*
X5836766D01*
Y59370D01*
X5816766D01*
Y49370D01*
X5806766D01*
Y29370D01*
X5816766D01*
X5777396D02*
Y19370D01*
X5797396D01*
Y29370D01*
X5807396D01*
Y49370D01*
X5797396D01*
Y59370D01*
X5777396D01*
Y49370D01*
X5767396D01*
Y29370D01*
X5777396D01*
X9596285Y5856142D02*
Y5846142D01*
X9616285D01*
Y5856142D01*
X9626285D01*
Y5876142D01*
X9616285D01*
Y5886142D01*
X9596285D01*
Y5876142D01*
X9586285D01*
Y5856142D01*
X9596285D01*
X9635656D02*
Y5846142D01*
X9655656D01*
Y5856142D01*
X9665656D01*
Y5876142D01*
X9655656D01*
Y5886142D01*
X9635656D01*
Y5876142D01*
X9625656D01*
Y5856142D01*
X9635656D01*
X9202585D02*
Y5846142D01*
X9222585D01*
Y5856142D01*
X9232585D01*
Y5876142D01*
X9222585D01*
Y5886142D01*
X9202585D01*
Y5876142D01*
X9192585D01*
Y5856142D01*
X9202585D01*
X9241956D02*
Y5846142D01*
X9261956D01*
Y5856142D01*
X9271956D01*
Y5876142D01*
X9261956D01*
Y5886142D01*
X9241956D01*
Y5876142D01*
X9231956D01*
Y5856142D01*
X9241956D01*
X9281326D02*
Y5846142D01*
X9301326D01*
Y5856142D01*
X9311326D01*
Y5876142D01*
X9301326D01*
Y5886142D01*
X9281326D01*
Y5876142D01*
X9271326D01*
Y5856142D01*
X9281326D01*
X9320695D02*
Y5846142D01*
X9340695D01*
Y5856142D01*
X9350695D01*
Y5876142D01*
X9340695D01*
Y5886142D01*
X9320695D01*
Y5876142D01*
X9310695D01*
Y5856142D01*
X9320695D01*
X9360066D02*
Y5846142D01*
X9380066D01*
Y5856142D01*
X9390066D01*
Y5876142D01*
X9380066D01*
Y5886142D01*
X9360066D01*
Y5876142D01*
X9350066D01*
Y5856142D01*
X9360066D01*
X9556915D02*
Y5846142D01*
X9576915D01*
Y5856142D01*
X9586915D01*
Y5876142D01*
X9576915D01*
Y5886142D01*
X9556915D01*
Y5876142D01*
X9546915D01*
Y5856142D01*
X9556915D01*
X9517546D02*
Y5846142D01*
X9537546D01*
Y5856142D01*
X9547546D01*
Y5876142D01*
X9537546D01*
Y5886142D01*
X9517546D01*
Y5876142D01*
X9507546D01*
Y5856142D01*
X9517546D01*
X9478175D02*
Y5846142D01*
X9498175D01*
Y5856142D01*
X9508175D01*
Y5876142D01*
X9498175D01*
Y5886142D01*
X9478175D01*
Y5876142D01*
X9468175D01*
Y5856142D01*
X9478175D01*
X9438806D02*
Y5846142D01*
X9458806D01*
Y5856142D01*
X9468806D01*
Y5876142D01*
X9458806D01*
Y5886142D01*
X9438806D01*
Y5876142D01*
X9428806D01*
Y5856142D01*
X9438806D01*
X9399435D02*
Y5846142D01*
X9419435D01*
Y5856142D01*
X9429435D01*
Y5876142D01*
X9419435D01*
Y5886142D01*
X9399435D01*
Y5876142D01*
X9389435D01*
Y5856142D01*
X9399435D01*
X8808886D02*
Y5846142D01*
X8828886D01*
Y5856142D01*
X8838886D01*
Y5876142D01*
X8828886D01*
Y5886142D01*
X8808886D01*
Y5876142D01*
X8798886D01*
Y5856142D01*
X8808886D01*
X8848255D02*
Y5846142D01*
X8868255D01*
Y5856142D01*
X8878255D01*
Y5876142D01*
X8868255D01*
Y5886142D01*
X8848255D01*
Y5876142D01*
X8838255D01*
Y5856142D01*
X8848255D01*
X8887626D02*
Y5846142D01*
X8907626D01*
Y5856142D01*
X8917626D01*
Y5876142D01*
X8907626D01*
Y5886142D01*
X8887626D01*
Y5876142D01*
X8877626D01*
Y5856142D01*
X8887626D01*
X8926996D02*
Y5846142D01*
X8946996D01*
Y5856142D01*
X8956996D01*
Y5876142D01*
X8946996D01*
Y5886142D01*
X8926996D01*
Y5876142D01*
X8916996D01*
Y5856142D01*
X8926996D01*
X8966365D02*
Y5846142D01*
X8986365D01*
Y5856142D01*
X8996365D01*
Y5876142D01*
X8986365D01*
Y5886142D01*
X8966365D01*
Y5876142D01*
X8956365D01*
Y5856142D01*
X8966365D01*
X9163216D02*
Y5846142D01*
X9183216D01*
Y5856142D01*
X9193216D01*
Y5876142D01*
X9183216D01*
Y5886142D01*
X9163216D01*
Y5876142D01*
X9153216D01*
Y5856142D01*
X9163216D01*
X9123845D02*
Y5846142D01*
X9143845D01*
Y5856142D01*
X9153845D01*
Y5876142D01*
X9143845D01*
Y5886142D01*
X9123845D01*
Y5876142D01*
X9113845D01*
Y5856142D01*
X9123845D01*
X9084476D02*
Y5846142D01*
X9104476D01*
Y5856142D01*
X9114476D01*
Y5876142D01*
X9104476D01*
Y5886142D01*
X9084476D01*
Y5876142D01*
X9074476D01*
Y5856142D01*
X9084476D01*
X9045105D02*
Y5846142D01*
X9065105D01*
Y5856142D01*
X9075105D01*
Y5876142D01*
X9065105D01*
Y5886142D01*
X9045105D01*
Y5876142D01*
X9035105D01*
Y5856142D01*
X9045105D01*
X9005736D02*
Y5846142D01*
X9025736D01*
Y5856142D01*
X9035736D01*
Y5876142D01*
X9025736D01*
Y5886142D01*
X9005736D01*
Y5876142D01*
X8995736D01*
Y5856142D01*
X9005736D01*
X8572665D02*
Y5846142D01*
X8592665D01*
Y5856142D01*
X8602665D01*
Y5876142D01*
X8592665D01*
Y5886142D01*
X8572665D01*
Y5876142D01*
X8562665D01*
Y5856142D01*
X8572665D01*
X8769515D02*
Y5846142D01*
X8789515D01*
Y5856142D01*
X8799515D01*
Y5876142D01*
X8789515D01*
Y5886142D01*
X8769515D01*
Y5876142D01*
X8759515D01*
Y5856142D01*
X8769515D01*
X8730146D02*
Y5846142D01*
X8750146D01*
Y5856142D01*
X8760146D01*
Y5876142D01*
X8750146D01*
Y5886142D01*
X8730146D01*
Y5876142D01*
X8720146D01*
Y5856142D01*
X8730146D01*
X8690775D02*
Y5846142D01*
X8710775D01*
Y5856142D01*
X8720775D01*
Y5876142D01*
X8710775D01*
Y5886142D01*
X8690775D01*
Y5876142D01*
X8680775D01*
Y5856142D01*
X8690775D01*
X8651406D02*
Y5846142D01*
X8671406D01*
Y5856142D01*
X8681406D01*
Y5876142D01*
X8671406D01*
Y5886142D01*
X8651406D01*
Y5876142D01*
X8641406D01*
Y5856142D01*
X8651406D01*
X8612035D02*
Y5846142D01*
X8632035D01*
Y5856142D01*
X8642035D01*
Y5876142D01*
X8632035D01*
Y5886142D01*
X8612035D01*
Y5876142D01*
X8602035D01*
Y5856142D01*
X8612035D01*
X8178966D02*
Y5846142D01*
X8198966D01*
Y5856142D01*
X8208966D01*
Y5876142D01*
X8198966D01*
Y5886142D01*
X8178966D01*
Y5876142D01*
X8168966D01*
Y5856142D01*
X8178966D01*
X8218335D02*
Y5846142D01*
X8238335D01*
Y5856142D01*
X8248335D01*
Y5876142D01*
X8238335D01*
Y5886142D01*
X8218335D01*
Y5876142D01*
X8208335D01*
Y5856142D01*
X8218335D01*
X8257706D02*
Y5846142D01*
X8277706D01*
Y5856142D01*
X8287706D01*
Y5876142D01*
X8277706D01*
Y5886142D01*
X8257706D01*
Y5876142D01*
X8247706D01*
Y5856142D01*
X8257706D01*
X8297076D02*
Y5846142D01*
X8317076D01*
Y5856142D01*
X8327076D01*
Y5876142D01*
X8317076D01*
Y5886142D01*
X8297076D01*
Y5876142D01*
X8287076D01*
Y5856142D01*
X8297076D01*
X8336445D02*
Y5846142D01*
X8356445D01*
Y5856142D01*
X8366445D01*
Y5876142D01*
X8356445D01*
Y5886142D01*
X8336445D01*
Y5876142D01*
X8326445D01*
Y5856142D01*
X8336445D01*
X8533296D02*
Y5846142D01*
X8553296D01*
Y5856142D01*
X8563296D01*
Y5876142D01*
X8553296D01*
Y5886142D01*
X8533296D01*
Y5876142D01*
X8523296D01*
Y5856142D01*
X8533296D01*
X8493925D02*
Y5846142D01*
X8513925D01*
Y5856142D01*
X8523925D01*
Y5876142D01*
X8513925D01*
Y5886142D01*
X8493925D01*
Y5876142D01*
X8483925D01*
Y5856142D01*
X8493925D01*
X8454556D02*
Y5846142D01*
X8474556D01*
Y5856142D01*
X8484556D01*
Y5876142D01*
X8474556D01*
Y5886142D01*
X8454556D01*
Y5876142D01*
X8444556D01*
Y5856142D01*
X8454556D01*
X8415185D02*
Y5846142D01*
X8435185D01*
Y5856142D01*
X8445185D01*
Y5876142D01*
X8435185D01*
Y5886142D01*
X8415185D01*
Y5876142D01*
X8405185D01*
Y5856142D01*
X8415185D01*
X8375816D02*
Y5846142D01*
X8395816D01*
Y5856142D01*
X8405816D01*
Y5876142D01*
X8395816D01*
Y5886142D01*
X8375816D01*
Y5876142D01*
X8365816D01*
Y5856142D01*
X8375816D01*
X7785266D02*
Y5846142D01*
X7805266D01*
Y5856142D01*
X7815266D01*
Y5876142D01*
X7805266D01*
Y5886142D01*
X7785266D01*
Y5876142D01*
X7775266D01*
Y5856142D01*
X7785266D01*
X7824636D02*
Y5846142D01*
X7844636D01*
Y5856142D01*
X7854636D01*
Y5876142D01*
X7844636D01*
Y5886142D01*
X7824636D01*
Y5876142D01*
X7814636D01*
Y5856142D01*
X7824636D01*
X7864006D02*
Y5846142D01*
X7884006D01*
Y5856142D01*
X7894006D01*
Y5876142D01*
X7884006D01*
Y5886142D01*
X7864006D01*
Y5876142D01*
X7854006D01*
Y5856142D01*
X7864006D01*
X7903376D02*
Y5846142D01*
X7923376D01*
Y5856142D01*
X7933376D01*
Y5876142D01*
X7923376D01*
Y5886142D01*
X7903376D01*
Y5876142D01*
X7893376D01*
Y5856142D01*
X7903376D01*
X7942745D02*
Y5846142D01*
X7962745D01*
Y5856142D01*
X7972745D01*
Y5876142D01*
X7962745D01*
Y5886142D01*
X7942745D01*
Y5876142D01*
X7932745D01*
Y5856142D01*
X7942745D01*
X8139596D02*
Y5846142D01*
X8159596D01*
Y5856142D01*
X8169596D01*
Y5876142D01*
X8159596D01*
Y5886142D01*
X8139596D01*
Y5876142D01*
X8129596D01*
Y5856142D01*
X8139596D01*
X8100225D02*
Y5846142D01*
X8120225D01*
Y5856142D01*
X8130225D01*
Y5876142D01*
X8120225D01*
Y5886142D01*
X8100225D01*
Y5876142D01*
X8090225D01*
Y5856142D01*
X8100225D01*
X8060855D02*
Y5846142D01*
X8080855D01*
Y5856142D01*
X8090855D01*
Y5876142D01*
X8080855D01*
Y5886142D01*
X8060855D01*
Y5876142D01*
X8050855D01*
Y5856142D01*
X8060855D01*
X8021485D02*
Y5846142D01*
X8041485D01*
Y5856142D01*
X8051485D01*
Y5876142D01*
X8041485D01*
Y5886142D01*
X8021485D01*
Y5876142D01*
X8011485D01*
Y5856142D01*
X8021485D01*
X7982115D02*
Y5846142D01*
X8002115D01*
Y5856142D01*
X8012115D01*
Y5876142D01*
X8002115D01*
Y5886142D01*
X7982115D01*
Y5876142D01*
X7972115D01*
Y5856142D01*
X7982115D01*
X7391565D02*
Y5846142D01*
X7411565D01*
Y5856142D01*
X7421565D01*
Y5876142D01*
X7411565D01*
Y5886142D01*
X7391565D01*
Y5876142D01*
X7381565D01*
Y5856142D01*
X7391565D01*
X7430935D02*
Y5846142D01*
X7450935D01*
Y5856142D01*
X7460935D01*
Y5876142D01*
X7450935D01*
Y5886142D01*
X7430935D01*
Y5876142D01*
X7420935D01*
Y5856142D01*
X7430935D01*
X7470306D02*
Y5846142D01*
X7490306D01*
Y5856142D01*
X7500306D01*
Y5876142D01*
X7490306D01*
Y5886142D01*
X7470306D01*
Y5876142D01*
X7460306D01*
Y5856142D01*
X7470306D01*
X7509676D02*
Y5846142D01*
X7529676D01*
Y5856142D01*
X7539676D01*
Y5876142D01*
X7529676D01*
Y5886142D01*
X7509676D01*
Y5876142D01*
X7499676D01*
Y5856142D01*
X7509676D01*
X7549046D02*
Y5846142D01*
X7569046D01*
Y5856142D01*
X7579046D01*
Y5876142D01*
X7569046D01*
Y5886142D01*
X7549046D01*
Y5876142D01*
X7539046D01*
Y5856142D01*
X7549046D01*
X7745895D02*
Y5846142D01*
X7765895D01*
Y5856142D01*
X7775895D01*
Y5876142D01*
X7765895D01*
Y5886142D01*
X7745895D01*
Y5876142D01*
X7735895D01*
Y5856142D01*
X7745895D01*
X7706525D02*
Y5846142D01*
X7726525D01*
Y5856142D01*
X7736525D01*
Y5876142D01*
X7726525D01*
Y5886142D01*
X7706525D01*
Y5876142D01*
X7696525D01*
Y5856142D01*
X7706525D01*
X7667155D02*
Y5846142D01*
X7687155D01*
Y5856142D01*
X7697155D01*
Y5876142D01*
X7687155D01*
Y5886142D01*
X7667155D01*
Y5876142D01*
X7657155D01*
Y5856142D01*
X7667155D01*
X7627785D02*
Y5846142D01*
X7647785D01*
Y5856142D01*
X7657785D01*
Y5876142D01*
X7647785D01*
Y5886142D01*
X7627785D01*
Y5876142D01*
X7617785D01*
Y5856142D01*
X7627785D01*
X7588416D02*
Y5846142D01*
X7608416D01*
Y5856142D01*
X7618416D01*
Y5876142D01*
X7608416D01*
Y5886142D01*
X7588416D01*
Y5876142D01*
X7578416D01*
Y5856142D01*
X7588416D01*
X7155346D02*
Y5846142D01*
X7175346D01*
Y5856142D01*
X7185346D01*
Y5876142D01*
X7175346D01*
Y5886142D01*
X7155346D01*
Y5876142D01*
X7145346D01*
Y5856142D01*
X7155346D01*
X7352195D02*
Y5846142D01*
X7372195D01*
Y5856142D01*
X7382195D01*
Y5876142D01*
X7372195D01*
Y5886142D01*
X7352195D01*
Y5876142D01*
X7342195D01*
Y5856142D01*
X7352195D01*
X7312825D02*
Y5846142D01*
X7332825D01*
Y5856142D01*
X7342825D01*
Y5876142D01*
X7332825D01*
Y5886142D01*
X7312825D01*
Y5876142D01*
X7302825D01*
Y5856142D01*
X7312825D01*
X7273456D02*
Y5846142D01*
X7293456D01*
Y5856142D01*
X7303456D01*
Y5876142D01*
X7293456D01*
Y5886142D01*
X7273456D01*
Y5876142D01*
X7263456D01*
Y5856142D01*
X7273456D01*
X7234086D02*
Y5846142D01*
X7254086D01*
Y5856142D01*
X7264086D01*
Y5876142D01*
X7254086D01*
Y5886142D01*
X7234086D01*
Y5876142D01*
X7224086D01*
Y5856142D01*
X7234086D01*
X7194716D02*
Y5846142D01*
X7214716D01*
Y5856142D01*
X7224716D01*
Y5876142D01*
X7214716D01*
Y5886142D01*
X7194716D01*
Y5876142D01*
X7184716D01*
Y5856142D01*
X7194716D01*
X6761645D02*
Y5846142D01*
X6781645D01*
Y5856142D01*
X6791645D01*
Y5876142D01*
X6781645D01*
Y5886142D01*
X6761645D01*
Y5876142D01*
X6751645D01*
Y5856142D01*
X6761645D01*
X6801016D02*
Y5846142D01*
X6821016D01*
Y5856142D01*
X6831016D01*
Y5876142D01*
X6821016D01*
Y5886142D01*
X6801016D01*
Y5876142D01*
X6791016D01*
Y5856142D01*
X6801016D01*
X6840386D02*
Y5846142D01*
X6860386D01*
Y5856142D01*
X6870386D01*
Y5876142D01*
X6860386D01*
Y5886142D01*
X6840386D01*
Y5876142D01*
X6830386D01*
Y5856142D01*
X6840386D01*
X6879756D02*
Y5846142D01*
X6899756D01*
Y5856142D01*
X6909756D01*
Y5876142D01*
X6899756D01*
Y5886142D01*
X6879756D01*
Y5876142D01*
X6869756D01*
Y5856142D01*
X6879756D01*
X6919126D02*
Y5846142D01*
X6939126D01*
Y5856142D01*
X6949126D01*
Y5876142D01*
X6939126D01*
Y5886142D01*
X6919126D01*
Y5876142D01*
X6909126D01*
Y5856142D01*
X6919126D01*
X7115975D02*
Y5846142D01*
X7135975D01*
Y5856142D01*
X7145975D01*
Y5876142D01*
X7135975D01*
Y5886142D01*
X7115975D01*
Y5876142D01*
X7105975D01*
Y5856142D01*
X7115975D01*
X7076605D02*
Y5846142D01*
X7096605D01*
Y5856142D01*
X7106605D01*
Y5876142D01*
X7096605D01*
Y5886142D01*
X7076605D01*
Y5876142D01*
X7066605D01*
Y5856142D01*
X7076605D01*
X7037235D02*
Y5846142D01*
X7057235D01*
Y5856142D01*
X7067235D01*
Y5876142D01*
X7057235D01*
Y5886142D01*
X7037235D01*
Y5876142D01*
X7027235D01*
Y5856142D01*
X7037235D01*
X6997865D02*
Y5846142D01*
X7017865D01*
Y5856142D01*
X7027865D01*
Y5876142D01*
X7017865D01*
Y5886142D01*
X6997865D01*
Y5876142D01*
X6987865D01*
Y5856142D01*
X6997865D01*
X6958495D02*
Y5846142D01*
X6978495D01*
Y5856142D01*
X6988495D01*
Y5876142D01*
X6978495D01*
Y5886142D01*
X6958495D01*
Y5876142D01*
X6948495D01*
Y5856142D01*
X6958495D01*
X6367945D02*
Y5846142D01*
X6387945D01*
Y5856142D01*
X6397945D01*
Y5876142D01*
X6387945D01*
Y5886142D01*
X6367945D01*
Y5876142D01*
X6357945D01*
Y5856142D01*
X6367945D01*
X6407315D02*
Y5846142D01*
X6427315D01*
Y5856142D01*
X6437315D01*
Y5876142D01*
X6427315D01*
Y5886142D01*
X6407315D01*
Y5876142D01*
X6397315D01*
Y5856142D01*
X6407315D01*
X6446685D02*
Y5846142D01*
X6466685D01*
Y5856142D01*
X6476685D01*
Y5876142D01*
X6466685D01*
Y5886142D01*
X6446685D01*
Y5876142D01*
X6436685D01*
Y5856142D01*
X6446685D01*
X6486056D02*
Y5846142D01*
X6506056D01*
Y5856142D01*
X6516056D01*
Y5876142D01*
X6506056D01*
Y5886142D01*
X6486056D01*
Y5876142D01*
X6476056D01*
Y5856142D01*
X6486056D01*
X6525426D02*
Y5846142D01*
X6545426D01*
Y5856142D01*
X6555426D01*
Y5876142D01*
X6545426D01*
Y5886142D01*
X6525426D01*
Y5876142D01*
X6515426D01*
Y5856142D01*
X6525426D01*
X6722275D02*
Y5846142D01*
X6742275D01*
Y5856142D01*
X6752275D01*
Y5876142D01*
X6742275D01*
Y5886142D01*
X6722275D01*
Y5876142D01*
X6712275D01*
Y5856142D01*
X6722275D01*
X6682905D02*
Y5846142D01*
X6702905D01*
Y5856142D01*
X6712905D01*
Y5876142D01*
X6702905D01*
Y5886142D01*
X6682905D01*
Y5876142D01*
X6672905D01*
Y5856142D01*
X6682905D01*
X6643535D02*
Y5846142D01*
X6663535D01*
Y5856142D01*
X6673535D01*
Y5876142D01*
X6663535D01*
Y5886142D01*
X6643535D01*
Y5876142D01*
X6633535D01*
Y5856142D01*
X6643535D01*
X6604166D02*
Y5846142D01*
X6624166D01*
Y5856142D01*
X6634166D01*
Y5876142D01*
X6624166D01*
Y5886142D01*
X6604166D01*
Y5876142D01*
X6594166D01*
Y5856142D01*
X6604166D01*
X6564796D02*
Y5846142D01*
X6584796D01*
Y5856142D01*
X6594796D01*
Y5876142D01*
X6584796D01*
Y5886142D01*
X6564796D01*
Y5876142D01*
X6554796D01*
Y5856142D01*
X6564796D01*
X5974245D02*
Y5846142D01*
X5994245D01*
Y5856142D01*
X6004245D01*
Y5876142D01*
X5994245D01*
Y5886142D01*
X5974245D01*
Y5876142D01*
X5964245D01*
Y5856142D01*
X5974245D01*
X6013615D02*
Y5846142D01*
X6033615D01*
Y5856142D01*
X6043615D01*
Y5876142D01*
X6033615D01*
Y5886142D01*
X6013615D01*
Y5876142D01*
X6003615D01*
Y5856142D01*
X6013615D01*
X6052985D02*
Y5846142D01*
X6072985D01*
Y5856142D01*
X6082985D01*
Y5876142D01*
X6072985D01*
Y5886142D01*
X6052985D01*
Y5876142D01*
X6042985D01*
Y5856142D01*
X6052985D01*
X6092355D02*
Y5846142D01*
X6112355D01*
Y5856142D01*
X6122355D01*
Y5876142D01*
X6112355D01*
Y5886142D01*
X6092355D01*
Y5876142D01*
X6082355D01*
Y5856142D01*
X6092355D01*
X6131725D02*
Y5846142D01*
X6151725D01*
Y5856142D01*
X6161725D01*
Y5876142D01*
X6151725D01*
Y5886142D01*
X6131725D01*
Y5876142D01*
X6121725D01*
Y5856142D01*
X6131725D01*
X6328575D02*
Y5846142D01*
X6348575D01*
Y5856142D01*
X6358575D01*
Y5876142D01*
X6348575D01*
Y5886142D01*
X6328575D01*
Y5876142D01*
X6318575D01*
Y5856142D01*
X6328575D01*
X6289206D02*
Y5846142D01*
X6309206D01*
Y5856142D01*
X6319206D01*
Y5876142D01*
X6309206D01*
Y5886142D01*
X6289206D01*
Y5876142D01*
X6279206D01*
Y5856142D01*
X6289206D01*
X6249836D02*
Y5846142D01*
X6269836D01*
Y5856142D01*
X6279836D01*
Y5876142D01*
X6269836D01*
Y5886142D01*
X6249836D01*
Y5876142D01*
X6239836D01*
Y5856142D01*
X6249836D01*
X6210466D02*
Y5846142D01*
X6230466D01*
Y5856142D01*
X6240466D01*
Y5876142D01*
X6230466D01*
Y5886142D01*
X6210466D01*
Y5876142D01*
X6200466D01*
Y5856142D01*
X6210466D01*
X6171096D02*
Y5846142D01*
X6191096D01*
Y5856142D01*
X6201096D01*
Y5876142D01*
X6191096D01*
Y5886142D01*
X6171096D01*
Y5876142D01*
X6161096D01*
Y5856142D01*
X6171096D01*
X5738025D02*
Y5846142D01*
X5758025D01*
Y5856142D01*
X5768025D01*
Y5876142D01*
X5758025D01*
Y5886142D01*
X5738025D01*
Y5876142D01*
X5728025D01*
Y5856142D01*
X5738025D01*
X5934876D02*
Y5846142D01*
X5954876D01*
Y5856142D01*
X5964876D01*
Y5876142D01*
X5954876D01*
Y5886142D01*
X5934876D01*
Y5876142D01*
X5924876D01*
Y5856142D01*
X5934876D01*
X5895506D02*
Y5846142D01*
X5915506D01*
Y5856142D01*
X5925506D01*
Y5876142D01*
X5915506D01*
Y5886142D01*
X5895506D01*
Y5876142D01*
X5885506D01*
Y5856142D01*
X5895506D01*
X5856136D02*
Y5846142D01*
X5876136D01*
Y5856142D01*
X5886136D01*
Y5876142D01*
X5876136D01*
Y5886142D01*
X5856136D01*
Y5876142D01*
X5846136D01*
Y5856142D01*
X5856136D01*
X5816766D02*
Y5846142D01*
X5836766D01*
Y5856142D01*
X5846766D01*
Y5876142D01*
X5836766D01*
Y5886142D01*
X5816766D01*
Y5876142D01*
X5806766D01*
Y5856142D01*
X5816766D01*
X5777395D02*
Y5846142D01*
X5797395D01*
Y5856142D01*
X5807395D01*
Y5876142D01*
X5797395D01*
Y5886142D01*
X5777395D01*
Y5876142D01*
X5767395D01*
Y5856142D01*
X5777395D01*
X29370Y186851D02*
Y176851D01*
X49370D01*
Y186851D01*
X59370D01*
Y206851D01*
X49370D01*
Y216851D01*
X29370D01*
Y206851D01*
X19370D01*
Y186851D01*
X29370D01*
Y423072D02*
Y413072D01*
X49370D01*
Y423072D01*
X59370D01*
Y443072D01*
X49370D01*
Y453072D01*
X29370D01*
Y443072D01*
X19370D01*
Y423072D01*
X29370D01*
Y462442D02*
Y452442D01*
X49370D01*
Y462442D01*
X59370D01*
Y482442D01*
X49370D01*
Y492442D01*
X29370D01*
Y482442D01*
X19370D01*
Y462442D01*
X29370D01*
Y501812D02*
Y491812D01*
X49370D01*
Y501812D01*
X59370D01*
Y521812D01*
X49370D01*
Y531812D01*
X29370D01*
Y521812D01*
X19370D01*
Y501812D01*
X29370D01*
Y541182D02*
Y531182D01*
X49370D01*
Y541182D01*
X59370D01*
Y561182D01*
X49370D01*
Y571182D01*
X29370D01*
Y561182D01*
X19370D01*
Y541182D01*
X29370D01*
Y580552D02*
Y570552D01*
X49370D01*
Y580552D01*
X59370D01*
Y600552D01*
X49370D01*
Y610552D01*
X29370D01*
Y600552D01*
X19370D01*
Y580552D01*
X29370D01*
Y383702D02*
Y373702D01*
X49370D01*
Y383702D01*
X59370D01*
Y403702D01*
X49370D01*
Y413702D01*
X29370D01*
Y403702D01*
X19370D01*
Y383702D01*
X29370D01*
Y344332D02*
Y334332D01*
X49370D01*
Y344332D01*
X59370D01*
Y364332D01*
X49370D01*
Y374332D01*
X29370D01*
Y364332D01*
X19370D01*
Y344332D01*
X29370D01*
Y304962D02*
Y294962D01*
X49370D01*
Y304962D01*
X59370D01*
Y324962D01*
X49370D01*
Y334962D01*
X29370D01*
Y324962D01*
X19370D01*
Y304962D01*
X29370D01*
Y265591D02*
Y255591D01*
X49370D01*
Y265591D01*
X59370D01*
Y285591D01*
X49370D01*
Y295591D01*
X29370D01*
Y285591D01*
X19370D01*
Y265591D01*
X29370D01*
Y226221D02*
Y216221D01*
X49370D01*
Y226221D01*
X59370D01*
Y246221D01*
X49370D01*
Y256221D01*
X29370D01*
Y246221D01*
X19370D01*
Y226221D01*
X29370D01*
Y698662D02*
Y688662D01*
X49370D01*
Y698662D01*
X59370D01*
Y718662D01*
X49370D01*
Y728662D01*
X29370D01*
Y718662D01*
X19370D01*
Y698662D01*
X29370D01*
Y659292D02*
Y649292D01*
X49370D01*
Y659292D01*
X59370D01*
Y679292D01*
X49370D01*
Y689292D01*
X29370D01*
Y679292D01*
X19370D01*
Y659292D01*
X29370D01*
Y619922D02*
Y609922D01*
X49370D01*
Y619922D01*
X59370D01*
Y639922D01*
X49370D01*
Y649922D01*
X29370D01*
Y639922D01*
X19370D01*
Y619922D01*
X29370D01*
Y3533302D02*
Y3523302D01*
X49370D01*
Y3533302D01*
X59370D01*
Y3553302D01*
X49370D01*
Y3563302D01*
X29370D01*
Y3553302D01*
X19370D01*
Y3533302D01*
X29370D01*
Y3572671D02*
Y3562671D01*
X49370D01*
Y3572671D01*
X59370D01*
Y3592671D01*
X49370D01*
Y3602671D01*
X29370D01*
Y3592671D01*
X19370D01*
Y3572671D01*
X29370D01*
Y3612041D02*
Y3602041D01*
X49370D01*
Y3612041D01*
X59370D01*
Y3632041D01*
X49370D01*
Y3642041D01*
X29370D01*
Y3632041D01*
X19370D01*
Y3612041D01*
X29370D01*
Y3651412D02*
Y3641412D01*
X49370D01*
Y3651412D01*
X59370D01*
Y3671412D01*
X49370D01*
Y3681412D01*
X29370D01*
Y3671412D01*
X19370D01*
Y3651412D01*
X29370D01*
Y3690782D02*
Y3680782D01*
X49370D01*
Y3690782D01*
X59370D01*
Y3710782D01*
X49370D01*
Y3720782D01*
X29370D01*
Y3710782D01*
X19370D01*
Y3690782D01*
X29370D01*
Y3730151D02*
Y3720151D01*
X49370D01*
Y3730151D01*
X59370D01*
Y3750151D01*
X49370D01*
Y3760151D01*
X29370D01*
Y3750151D01*
X19370D01*
Y3730151D01*
X29370D01*
Y3139602D02*
Y3129602D01*
X49370D01*
Y3139602D01*
X59370D01*
Y3159602D01*
X49370D01*
Y3169602D01*
X29370D01*
Y3159602D01*
X19370D01*
Y3139602D01*
X29370D01*
Y3178972D02*
Y3168972D01*
X49370D01*
Y3178972D01*
X59370D01*
Y3198972D01*
X49370D01*
Y3208972D01*
X29370D01*
Y3198972D01*
X19370D01*
Y3178972D01*
X29370D01*
Y3218341D02*
Y3208341D01*
X49370D01*
Y3218341D01*
X59370D01*
Y3238341D01*
X49370D01*
Y3248341D01*
X29370D01*
Y3238341D01*
X19370D01*
Y3218341D01*
X29370D01*
Y3257711D02*
Y3247711D01*
X49370D01*
Y3257711D01*
X59370D01*
Y3277711D01*
X49370D01*
Y3287711D01*
X29370D01*
Y3277711D01*
X19370D01*
Y3257711D01*
X29370D01*
Y3297081D02*
Y3287081D01*
X49370D01*
Y3297081D01*
X59370D01*
Y3317081D01*
X49370D01*
Y3327081D01*
X29370D01*
Y3317081D01*
X19370D01*
Y3297081D01*
X29370D01*
Y3493932D02*
Y3483932D01*
X49370D01*
Y3493932D01*
X59370D01*
Y3513932D01*
X49370D01*
Y3523932D01*
X29370D01*
Y3513932D01*
X19370D01*
Y3493932D01*
X29370D01*
Y3454561D02*
Y3444561D01*
X49370D01*
Y3454561D01*
X59370D01*
Y3474561D01*
X49370D01*
Y3484561D01*
X29370D01*
Y3474561D01*
X19370D01*
Y3454561D01*
X29370D01*
Y3415191D02*
Y3405191D01*
X49370D01*
Y3415191D01*
X59370D01*
Y3435191D01*
X49370D01*
Y3445191D01*
X29370D01*
Y3435191D01*
X19370D01*
Y3415191D01*
X29370D01*
Y3375822D02*
Y3365822D01*
X49370D01*
Y3375822D01*
X59370D01*
Y3395822D01*
X49370D01*
Y3405822D01*
X29370D01*
Y3395822D01*
X19370D01*
Y3375822D01*
X29370D01*
Y3336452D02*
Y3326452D01*
X49370D01*
Y3336452D01*
X59370D01*
Y3356452D01*
X49370D01*
Y3366452D01*
X29370D01*
Y3356452D01*
X19370D01*
Y3336452D01*
X29370D01*
Y2745901D02*
Y2735901D01*
X49370D01*
Y2745901D01*
X59370D01*
Y2765901D01*
X49370D01*
Y2775901D01*
X29370D01*
Y2765901D01*
X19370D01*
Y2745901D01*
X29370D01*
Y2785271D02*
Y2775271D01*
X49370D01*
Y2785271D01*
X59370D01*
Y2805271D01*
X49370D01*
Y2815271D01*
X29370D01*
Y2805271D01*
X19370D01*
Y2785271D01*
X29370D01*
Y2824642D02*
Y2814642D01*
X49370D01*
Y2824642D01*
X59370D01*
Y2844642D01*
X49370D01*
Y2854642D01*
X29370D01*
Y2844642D01*
X19370D01*
Y2824642D01*
X29370D01*
Y2864012D02*
Y2854012D01*
X49370D01*
Y2864012D01*
X59370D01*
Y2884012D01*
X49370D01*
Y2894012D01*
X29370D01*
Y2884012D01*
X19370D01*
Y2864012D01*
X29370D01*
Y2903381D02*
Y2893381D01*
X49370D01*
Y2903381D01*
X59370D01*
Y2923381D01*
X49370D01*
Y2933381D01*
X29370D01*
Y2923381D01*
X19370D01*
Y2903381D01*
X29370D01*
Y3100231D02*
Y3090231D01*
X49370D01*
Y3100231D01*
X59370D01*
Y3120231D01*
X49370D01*
Y3130231D01*
X29370D01*
Y3120231D01*
X19370D01*
Y3100231D01*
X29370D01*
Y3060861D02*
Y3050861D01*
X49370D01*
Y3060861D01*
X59370D01*
Y3080861D01*
X49370D01*
Y3090861D01*
X29370D01*
Y3080861D01*
X19370D01*
Y3060861D01*
X29370D01*
Y3021492D02*
Y3011492D01*
X49370D01*
Y3021492D01*
X59370D01*
Y3041492D01*
X49370D01*
Y3051492D01*
X29370D01*
Y3041492D01*
X19370D01*
Y3021492D01*
X29370D01*
Y2982122D02*
Y2972122D01*
X49370D01*
Y2982122D01*
X59370D01*
Y3002122D01*
X49370D01*
Y3012122D01*
X29370D01*
Y3002122D01*
X19370D01*
Y2982122D01*
X29370D01*
Y2942751D02*
Y2932751D01*
X49370D01*
Y2942751D01*
X59370D01*
Y2962751D01*
X49370D01*
Y2972751D01*
X29370D01*
Y2962751D01*
X19370D01*
Y2942751D01*
X29370D01*
Y2352202D02*
Y2342202D01*
X49370D01*
Y2352202D01*
X59370D01*
Y2372202D01*
X49370D01*
Y2382202D01*
X29370D01*
Y2372202D01*
X19370D01*
Y2352202D01*
X29370D01*
Y2391572D02*
Y2381572D01*
X49370D01*
Y2391572D01*
X59370D01*
Y2411572D01*
X49370D01*
Y2421572D01*
X29370D01*
Y2411572D01*
X19370D01*
Y2391572D01*
X29370D01*
Y2430941D02*
Y2420941D01*
X49370D01*
Y2430941D01*
X59370D01*
Y2450941D01*
X49370D01*
Y2460941D01*
X29370D01*
Y2450941D01*
X19370D01*
Y2430941D01*
X29370D01*
Y2470311D02*
Y2460311D01*
X49370D01*
Y2470311D01*
X59370D01*
Y2490311D01*
X49370D01*
Y2500311D01*
X29370D01*
Y2490311D01*
X19370D01*
Y2470311D01*
X29370D01*
Y2509682D02*
Y2499682D01*
X49370D01*
Y2509682D01*
X59370D01*
Y2529682D01*
X49370D01*
Y2539682D01*
X29370D01*
Y2529682D01*
X19370D01*
Y2509682D01*
X29370D01*
Y2706532D02*
Y2696532D01*
X49370D01*
Y2706532D01*
X59370D01*
Y2726532D01*
X49370D01*
Y2736532D01*
X29370D01*
Y2726532D01*
X19370D01*
Y2706532D01*
X29370D01*
Y2667162D02*
Y2657162D01*
X49370D01*
Y2667162D01*
X59370D01*
Y2687162D01*
X49370D01*
Y2697162D01*
X29370D01*
Y2687162D01*
X19370D01*
Y2667162D01*
X29370D01*
Y2627791D02*
Y2617791D01*
X49370D01*
Y2627791D01*
X59370D01*
Y2647791D01*
X49370D01*
Y2657791D01*
X29370D01*
Y2647791D01*
X19370D01*
Y2627791D01*
X29370D01*
Y2588421D02*
Y2578421D01*
X49370D01*
Y2588421D01*
X59370D01*
Y2608421D01*
X49370D01*
Y2618421D01*
X29370D01*
Y2608421D01*
X19370D01*
Y2588421D01*
X29370D01*
Y2549052D02*
Y2539052D01*
X49370D01*
Y2549052D01*
X59370D01*
Y2569052D01*
X49370D01*
Y2579052D01*
X29370D01*
Y2569052D01*
X19370D01*
Y2549052D01*
X29370D01*
Y1958502D02*
Y1948502D01*
X49370D01*
Y1958502D01*
X59370D01*
Y1978502D01*
X49370D01*
Y1988502D01*
X29370D01*
Y1978502D01*
X19370D01*
Y1958502D01*
X29370D01*
Y1997871D02*
Y1987871D01*
X49370D01*
Y1997871D01*
X59370D01*
Y2017871D01*
X49370D01*
Y2027871D01*
X29370D01*
Y2017871D01*
X19370D01*
Y1997871D01*
X29370D01*
Y2037242D02*
Y2027242D01*
X49370D01*
Y2037242D01*
X59370D01*
Y2057242D01*
X49370D01*
Y2067242D01*
X29370D01*
Y2057242D01*
X19370D01*
Y2037242D01*
X29370D01*
Y2076611D02*
Y2066611D01*
X49370D01*
Y2076611D01*
X59370D01*
Y2096611D01*
X49370D01*
Y2106611D01*
X29370D01*
Y2096611D01*
X19370D01*
Y2076611D01*
X29370D01*
Y2115981D02*
Y2105981D01*
X49370D01*
Y2115981D01*
X59370D01*
Y2135981D01*
X49370D01*
Y2145981D01*
X29370D01*
Y2135981D01*
X19370D01*
Y2115981D01*
X29370D01*
Y2312831D02*
Y2302831D01*
X49370D01*
Y2312831D01*
X59370D01*
Y2332831D01*
X49370D01*
Y2342831D01*
X29370D01*
Y2332831D01*
X19370D01*
Y2312831D01*
X29370D01*
Y2273461D02*
Y2263461D01*
X49370D01*
Y2273461D01*
X59370D01*
Y2293461D01*
X49370D01*
Y2303461D01*
X29370D01*
Y2293461D01*
X19370D01*
Y2273461D01*
X29370D01*
Y2234091D02*
Y2224091D01*
X49370D01*
Y2234091D01*
X59370D01*
Y2254091D01*
X49370D01*
Y2264091D01*
X29370D01*
Y2254091D01*
X19370D01*
Y2234091D01*
X29370D01*
Y2194722D02*
Y2184722D01*
X49370D01*
Y2194722D01*
X59370D01*
Y2214722D01*
X49370D01*
Y2224722D01*
X29370D01*
Y2214722D01*
X19370D01*
Y2194722D01*
X29370D01*
Y2155352D02*
Y2145352D01*
X49370D01*
Y2155352D01*
X59370D01*
Y2175352D01*
X49370D01*
Y2185352D01*
X29370D01*
Y2175352D01*
X19370D01*
Y2155352D01*
X29370D01*
Y1564802D02*
Y1554802D01*
X49370D01*
Y1564802D01*
X59370D01*
Y1584802D01*
X49370D01*
Y1594802D01*
X29370D01*
Y1584802D01*
X19370D01*
Y1564802D01*
X29370D01*
Y1604171D02*
Y1594171D01*
X49370D01*
Y1604171D01*
X59370D01*
Y1624171D01*
X49370D01*
Y1634171D01*
X29370D01*
Y1624171D01*
X19370D01*
Y1604171D01*
X29370D01*
Y1643542D02*
Y1633542D01*
X49370D01*
Y1643542D01*
X59370D01*
Y1663542D01*
X49370D01*
Y1673542D01*
X29370D01*
Y1663542D01*
X19370D01*
Y1643542D01*
X29370D01*
Y1682911D02*
Y1672911D01*
X49370D01*
Y1682911D01*
X59370D01*
Y1702911D01*
X49370D01*
Y1712911D01*
X29370D01*
Y1702911D01*
X19370D01*
Y1682911D01*
X29370D01*
Y1722282D02*
Y1712282D01*
X49370D01*
Y1722282D01*
X59370D01*
Y1742282D01*
X49370D01*
Y1752282D01*
X29370D01*
Y1742282D01*
X19370D01*
Y1722282D01*
X29370D01*
Y1919131D02*
Y1909131D01*
X49370D01*
Y1919131D01*
X59370D01*
Y1939131D01*
X49370D01*
Y1949131D01*
X29370D01*
Y1939131D01*
X19370D01*
Y1919131D01*
X29370D01*
Y1879762D02*
Y1869762D01*
X49370D01*
Y1879762D01*
X59370D01*
Y1899762D01*
X49370D01*
Y1909762D01*
X29370D01*
Y1899762D01*
X19370D01*
Y1879762D01*
X29370D01*
Y1840391D02*
Y1830391D01*
X49370D01*
Y1840391D01*
X59370D01*
Y1860391D01*
X49370D01*
Y1870391D01*
X29370D01*
Y1860391D01*
X19370D01*
Y1840391D01*
X29370D01*
Y1801022D02*
Y1791022D01*
X49370D01*
Y1801022D01*
X59370D01*
Y1821022D01*
X49370D01*
Y1831022D01*
X29370D01*
Y1821022D01*
X19370D01*
Y1801022D01*
X29370D01*
Y1761651D02*
Y1751651D01*
X49370D01*
Y1761651D01*
X59370D01*
Y1781651D01*
X49370D01*
Y1791651D01*
X29370D01*
Y1781651D01*
X19370D01*
Y1761651D01*
X29370D01*
Y1171101D02*
Y1161101D01*
X49370D01*
Y1171101D01*
X59370D01*
Y1191101D01*
X49370D01*
Y1201101D01*
X29370D01*
Y1191101D01*
X19370D01*
Y1171101D01*
X29370D01*
Y1210472D02*
Y1200472D01*
X49370D01*
Y1210472D01*
X59370D01*
Y1230472D01*
X49370D01*
Y1240472D01*
X29370D01*
Y1230472D01*
X19370D01*
Y1210472D01*
X29370D01*
Y1249841D02*
Y1239841D01*
X49370D01*
Y1249841D01*
X59370D01*
Y1269841D01*
X49370D01*
Y1279841D01*
X29370D01*
Y1269841D01*
X19370D01*
Y1249841D01*
X29370D01*
Y1289211D02*
Y1279211D01*
X49370D01*
Y1289211D01*
X59370D01*
Y1309211D01*
X49370D01*
Y1319211D01*
X29370D01*
Y1309211D01*
X19370D01*
Y1289211D01*
X29370D01*
Y1328582D02*
Y1318582D01*
X49370D01*
Y1328582D01*
X59370D01*
Y1348582D01*
X49370D01*
Y1358582D01*
X29370D01*
Y1348582D01*
X19370D01*
Y1328582D01*
X29370D01*
Y1525431D02*
Y1515431D01*
X49370D01*
Y1525431D01*
X59370D01*
Y1545431D01*
X49370D01*
Y1555431D01*
X29370D01*
Y1545431D01*
X19370D01*
Y1525431D01*
X29370D01*
Y1486062D02*
Y1476062D01*
X49370D01*
Y1486062D01*
X59370D01*
Y1506062D01*
X49370D01*
Y1516062D01*
X29370D01*
Y1506062D01*
X19370D01*
Y1486062D01*
X29370D01*
Y1446691D02*
Y1436691D01*
X49370D01*
Y1446691D01*
X59370D01*
Y1466691D01*
X49370D01*
Y1476691D01*
X29370D01*
Y1466691D01*
X19370D01*
Y1446691D01*
X29370D01*
Y1407322D02*
Y1397322D01*
X49370D01*
Y1407322D01*
X59370D01*
Y1427322D01*
X49370D01*
Y1437322D01*
X29370D01*
Y1427322D01*
X19370D01*
Y1407322D01*
X29370D01*
Y1367951D02*
Y1357951D01*
X49370D01*
Y1367951D01*
X59370D01*
Y1387951D01*
X49370D01*
Y1397951D01*
X29370D01*
Y1387951D01*
X19370D01*
Y1367951D01*
X29370D01*
Y974251D02*
Y964251D01*
X49370D01*
Y974251D01*
X59370D01*
Y994251D01*
X49370D01*
Y1004251D01*
X29370D01*
Y994251D01*
X19370D01*
Y974251D01*
X29370D01*
Y1013621D02*
Y1003621D01*
X49370D01*
Y1013621D01*
X59370D01*
Y1033621D01*
X49370D01*
Y1043621D01*
X29370D01*
Y1033621D01*
X19370D01*
Y1013621D01*
X29370D01*
Y1052992D02*
Y1042992D01*
X49370D01*
Y1052992D01*
X59370D01*
Y1072992D01*
X49370D01*
Y1082992D01*
X29370D01*
Y1072992D01*
X19370D01*
Y1052992D01*
X29370D01*
Y1092361D02*
Y1082361D01*
X49370D01*
Y1092361D01*
X59370D01*
Y1112361D01*
X49370D01*
Y1122361D01*
X29370D01*
Y1112361D01*
X19370D01*
Y1092361D01*
X29370D01*
Y1131732D02*
Y1121732D01*
X49370D01*
Y1131732D01*
X59370D01*
Y1151732D01*
X49370D01*
Y1161732D01*
X29370D01*
Y1151732D01*
X19370D01*
Y1131732D01*
X29370D01*
Y934881D02*
Y924881D01*
X49370D01*
Y934881D01*
X59370D01*
Y954881D01*
X49370D01*
Y964881D01*
X29370D01*
Y954881D01*
X19370D01*
Y934881D01*
X29370D01*
Y895511D02*
Y885511D01*
X49370D01*
Y895511D01*
X59370D01*
Y915511D01*
X49370D01*
Y925511D01*
X29370D01*
Y915511D01*
X19370D01*
Y895511D01*
X29370D01*
Y856141D02*
Y846141D01*
X49370D01*
Y856141D01*
X59370D01*
Y876141D01*
X49370D01*
Y886141D01*
X29370D01*
Y876141D01*
X19370D01*
Y856141D01*
X29370D01*
Y816771D02*
Y806771D01*
X49370D01*
Y816771D01*
X59370D01*
Y836771D01*
X49370D01*
Y846771D01*
X29370D01*
Y836771D01*
X19370D01*
Y816771D01*
X29370D01*
Y738032D02*
Y728032D01*
X49370D01*
Y738032D01*
X59370D01*
Y758032D01*
X49370D01*
Y768032D01*
X29370D01*
Y758032D01*
X19370D01*
Y738032D01*
X29370D01*
Y777402D02*
Y767402D01*
X49370D01*
Y777402D01*
X59370D01*
Y797402D01*
X49370D01*
Y807402D01*
X29370D01*
Y797402D01*
X19370D01*
Y777402D01*
X29370D01*
X10383701Y3139606D02*
Y3129606D01*
X10403701D01*
Y3139606D01*
X10413701D01*
Y3159606D01*
X10403701D01*
Y3169606D01*
X10383701D01*
Y3159606D01*
X10373701D01*
Y3139606D01*
X10383701D01*
Y3178976D02*
Y3168976D01*
X10403701D01*
Y3178976D01*
X10413701D01*
Y3198976D01*
X10403701D01*
Y3208976D01*
X10383701D01*
Y3198976D01*
X10373701D01*
Y3178976D01*
X10383701D01*
Y3100236D02*
Y3090236D01*
X10403701D01*
Y3100236D01*
X10413701D01*
Y3120236D01*
X10403701D01*
Y3130236D01*
X10383701D01*
Y3120236D01*
X10373701D01*
Y3100236D01*
X10383701D01*
Y3060866D02*
Y3050866D01*
X10403701D01*
Y3060866D01*
X10413701D01*
Y3080866D01*
X10403701D01*
Y3090866D01*
X10383701D01*
Y3080866D01*
X10373701D01*
Y3060866D01*
X10383701D01*
Y3021496D02*
Y3011496D01*
X10403701D01*
Y3021496D01*
X10413701D01*
Y3041496D01*
X10403701D01*
Y3051496D01*
X10383701D01*
Y3041496D01*
X10373701D01*
Y3021496D01*
X10383701D01*
Y2982126D02*
Y2972126D01*
X10403701D01*
Y2982126D01*
X10413701D01*
Y3002126D01*
X10403701D01*
Y3012126D01*
X10383701D01*
Y3002126D01*
X10373701D01*
Y2982126D01*
X10383701D01*
Y2785276D02*
Y2775276D01*
X10403701D01*
Y2785276D01*
X10413701D01*
Y2805276D01*
X10403701D01*
Y2815276D01*
X10383701D01*
Y2805276D01*
X10373701D01*
Y2785276D01*
X10383701D01*
Y2824646D02*
Y2814646D01*
X10403701D01*
Y2824646D01*
X10413701D01*
Y2844646D01*
X10403701D01*
Y2854646D01*
X10383701D01*
Y2844646D01*
X10373701D01*
Y2824646D01*
X10383701D01*
Y2864016D02*
Y2854016D01*
X10403701D01*
Y2864016D01*
X10413701D01*
Y2884016D01*
X10403701D01*
Y2894016D01*
X10383701D01*
Y2884016D01*
X10373701D01*
Y2864016D01*
X10383701D01*
Y2903386D02*
Y2893386D01*
X10403701D01*
Y2903386D01*
X10413701D01*
Y2923386D01*
X10403701D01*
Y2933386D01*
X10383701D01*
Y2923386D01*
X10373701D01*
Y2903386D01*
X10383701D01*
Y2942756D02*
Y2932756D01*
X10403701D01*
Y2942756D01*
X10413701D01*
Y2962756D01*
X10403701D01*
Y2972756D01*
X10383701D01*
Y2962756D01*
X10373701D01*
Y2942756D01*
X10383701D01*
Y2549056D02*
Y2539056D01*
X10403701D01*
Y2549056D01*
X10413701D01*
Y2569056D01*
X10403701D01*
Y2579056D01*
X10383701D01*
Y2569056D01*
X10373701D01*
Y2549056D01*
X10383701D01*
Y2509686D02*
Y2499686D01*
X10403701D01*
Y2509686D01*
X10413701D01*
Y2529686D01*
X10403701D01*
Y2539686D01*
X10383701D01*
Y2529686D01*
X10373701D01*
Y2509686D01*
X10383701D01*
Y2470316D02*
Y2460316D01*
X10403701D01*
Y2470316D01*
X10413701D01*
Y2490316D01*
X10403701D01*
Y2500316D01*
X10383701D01*
Y2490316D01*
X10373701D01*
Y2470316D01*
X10383701D01*
Y2430946D02*
Y2420946D01*
X10403701D01*
Y2430946D01*
X10413701D01*
Y2450946D01*
X10403701D01*
Y2460946D01*
X10383701D01*
Y2450946D01*
X10373701D01*
Y2430946D01*
X10383701D01*
Y2391576D02*
Y2381576D01*
X10403701D01*
Y2391576D01*
X10413701D01*
Y2411576D01*
X10403701D01*
Y2421576D01*
X10383701D01*
Y2411576D01*
X10373701D01*
Y2391576D01*
X10383701D01*
Y2588426D02*
Y2578426D01*
X10403701D01*
Y2588426D01*
X10413701D01*
Y2608426D01*
X10403701D01*
Y2618426D01*
X10383701D01*
Y2608426D01*
X10373701D01*
Y2588426D01*
X10383701D01*
Y2627796D02*
Y2617796D01*
X10403701D01*
Y2627796D01*
X10413701D01*
Y2647796D01*
X10403701D01*
Y2657796D01*
X10383701D01*
Y2647796D01*
X10373701D01*
Y2627796D01*
X10383701D01*
Y2667166D02*
Y2657166D01*
X10403701D01*
Y2667166D01*
X10413701D01*
Y2687166D01*
X10403701D01*
Y2697166D01*
X10383701D01*
Y2687166D01*
X10373701D01*
Y2667166D01*
X10383701D01*
Y2706536D02*
Y2696536D01*
X10403701D01*
Y2706536D01*
X10413701D01*
Y2726536D01*
X10403701D01*
Y2736536D01*
X10383701D01*
Y2726536D01*
X10373701D01*
Y2706536D01*
X10383701D01*
Y2745906D02*
Y2735906D01*
X10403701D01*
Y2745906D01*
X10413701D01*
Y2765906D01*
X10403701D01*
Y2775906D01*
X10383701D01*
Y2765906D01*
X10373701D01*
Y2745906D01*
X10383701D01*
Y2155356D02*
Y2145356D01*
X10403701D01*
Y2155356D01*
X10413701D01*
Y2175356D01*
X10403701D01*
Y2185356D01*
X10383701D01*
Y2175356D01*
X10373701D01*
Y2155356D01*
X10383701D01*
Y2115986D02*
Y2105986D01*
X10403701D01*
Y2115986D01*
X10413701D01*
Y2135986D01*
X10403701D01*
Y2145986D01*
X10383701D01*
Y2135986D01*
X10373701D01*
Y2115986D01*
X10383701D01*
Y2076616D02*
Y2066616D01*
X10403701D01*
Y2076616D01*
X10413701D01*
Y2096616D01*
X10403701D01*
Y2106616D01*
X10383701D01*
Y2096616D01*
X10373701D01*
Y2076616D01*
X10383701D01*
Y2037246D02*
Y2027246D01*
X10403701D01*
Y2037246D01*
X10413701D01*
Y2057246D01*
X10403701D01*
Y2067246D01*
X10383701D01*
Y2057246D01*
X10373701D01*
Y2037246D01*
X10383701D01*
Y1997876D02*
Y1987876D01*
X10403701D01*
Y1997876D01*
X10413701D01*
Y2017876D01*
X10403701D01*
Y2027876D01*
X10383701D01*
Y2017876D01*
X10373701D01*
Y1997876D01*
X10383701D01*
Y2194726D02*
Y2184726D01*
X10403701D01*
Y2194726D01*
X10413701D01*
Y2214726D01*
X10403701D01*
Y2224726D01*
X10383701D01*
Y2214726D01*
X10373701D01*
Y2194726D01*
X10383701D01*
Y2234096D02*
Y2224096D01*
X10403701D01*
Y2234096D01*
X10413701D01*
Y2254096D01*
X10403701D01*
Y2264096D01*
X10383701D01*
Y2254096D01*
X10373701D01*
Y2234096D01*
X10383701D01*
Y2273466D02*
Y2263466D01*
X10403701D01*
Y2273466D01*
X10413701D01*
Y2293466D01*
X10403701D01*
Y2303466D01*
X10383701D01*
Y2293466D01*
X10373701D01*
Y2273466D01*
X10383701D01*
Y2312836D02*
Y2302836D01*
X10403701D01*
Y2312836D01*
X10413701D01*
Y2332836D01*
X10403701D01*
Y2342836D01*
X10383701D01*
Y2332836D01*
X10373701D01*
Y2312836D01*
X10383701D01*
Y2352206D02*
Y2342206D01*
X10403701D01*
Y2352206D01*
X10413701D01*
Y2372206D01*
X10403701D01*
Y2382206D01*
X10383701D01*
Y2372206D01*
X10373701D01*
Y2352206D01*
X10383701D01*
Y1761656D02*
Y1751656D01*
X10403701D01*
Y1761656D01*
X10413701D01*
Y1781656D01*
X10403701D01*
Y1791656D01*
X10383701D01*
Y1781656D01*
X10373701D01*
Y1761656D01*
X10383701D01*
Y1722286D02*
Y1712286D01*
X10403701D01*
Y1722286D01*
X10413701D01*
Y1742286D01*
X10403701D01*
Y1752286D01*
X10383701D01*
Y1742286D01*
X10373701D01*
Y1722286D01*
X10383701D01*
Y1682916D02*
Y1672916D01*
X10403701D01*
Y1682916D01*
X10413701D01*
Y1702916D01*
X10403701D01*
Y1712916D01*
X10383701D01*
Y1702916D01*
X10373701D01*
Y1682916D01*
X10383701D01*
Y1643546D02*
Y1633546D01*
X10403701D01*
Y1643546D01*
X10413701D01*
Y1663546D01*
X10403701D01*
Y1673546D01*
X10383701D01*
Y1663546D01*
X10373701D01*
Y1643546D01*
X10383701D01*
Y1604176D02*
Y1594176D01*
X10403701D01*
Y1604176D01*
X10413701D01*
Y1624176D01*
X10403701D01*
Y1634176D01*
X10383701D01*
Y1624176D01*
X10373701D01*
Y1604176D01*
X10383701D01*
Y1801026D02*
Y1791026D01*
X10403701D01*
Y1801026D01*
X10413701D01*
Y1821026D01*
X10403701D01*
Y1831026D01*
X10383701D01*
Y1821026D01*
X10373701D01*
Y1801026D01*
X10383701D01*
Y1840396D02*
Y1830396D01*
X10403701D01*
Y1840396D01*
X10413701D01*
Y1860396D01*
X10403701D01*
Y1870396D01*
X10383701D01*
Y1860396D01*
X10373701D01*
Y1840396D01*
X10383701D01*
Y1879766D02*
Y1869766D01*
X10403701D01*
Y1879766D01*
X10413701D01*
Y1899766D01*
X10403701D01*
Y1909766D01*
X10383701D01*
Y1899766D01*
X10373701D01*
Y1879766D01*
X10383701D01*
Y1919136D02*
Y1909136D01*
X10403701D01*
Y1919136D01*
X10413701D01*
Y1939136D01*
X10403701D01*
Y1949136D01*
X10383701D01*
Y1939136D01*
X10373701D01*
Y1919136D01*
X10383701D01*
Y1958506D02*
Y1948506D01*
X10403701D01*
Y1958506D01*
X10413701D01*
Y1978506D01*
X10403701D01*
Y1988506D01*
X10383701D01*
Y1978506D01*
X10373701D01*
Y1958506D01*
X10383701D01*
Y1367956D02*
Y1357956D01*
X10403701D01*
Y1367956D01*
X10413701D01*
Y1387956D01*
X10403701D01*
Y1397956D01*
X10383701D01*
Y1387956D01*
X10373701D01*
Y1367956D01*
X10383701D01*
Y1328586D02*
Y1318586D01*
X10403701D01*
Y1328586D01*
X10413701D01*
Y1348586D01*
X10403701D01*
Y1358586D01*
X10383701D01*
Y1348586D01*
X10373701D01*
Y1328586D01*
X10383701D01*
Y1289216D02*
Y1279216D01*
X10403701D01*
Y1289216D01*
X10413701D01*
Y1309216D01*
X10403701D01*
Y1319216D01*
X10383701D01*
Y1309216D01*
X10373701D01*
Y1289216D01*
X10383701D01*
Y1249846D02*
Y1239846D01*
X10403701D01*
Y1249846D01*
X10413701D01*
Y1269846D01*
X10403701D01*
Y1279846D01*
X10383701D01*
Y1269846D01*
X10373701D01*
Y1249846D01*
X10383701D01*
Y1210476D02*
Y1200476D01*
X10403701D01*
Y1210476D01*
X10413701D01*
Y1230476D01*
X10403701D01*
Y1240476D01*
X10383701D01*
Y1230476D01*
X10373701D01*
Y1210476D01*
X10383701D01*
Y1407326D02*
Y1397326D01*
X10403701D01*
Y1407326D01*
X10413701D01*
Y1427326D01*
X10403701D01*
Y1437326D01*
X10383701D01*
Y1427326D01*
X10373701D01*
Y1407326D01*
X10383701D01*
Y1446696D02*
Y1436696D01*
X10403701D01*
Y1446696D01*
X10413701D01*
Y1466696D01*
X10403701D01*
Y1476696D01*
X10383701D01*
Y1466696D01*
X10373701D01*
Y1446696D01*
X10383701D01*
Y1486066D02*
Y1476066D01*
X10403701D01*
Y1486066D01*
X10413701D01*
Y1506066D01*
X10403701D01*
Y1516066D01*
X10383701D01*
Y1506066D01*
X10373701D01*
Y1486066D01*
X10383701D01*
Y1525436D02*
Y1515436D01*
X10403701D01*
Y1525436D01*
X10413701D01*
Y1545436D01*
X10403701D01*
Y1555436D01*
X10383701D01*
Y1545436D01*
X10373701D01*
Y1525436D01*
X10383701D01*
Y1564806D02*
Y1554806D01*
X10403701D01*
Y1564806D01*
X10413701D01*
Y1584806D01*
X10403701D01*
Y1594806D01*
X10383701D01*
Y1584806D01*
X10373701D01*
Y1564806D01*
X10383701D01*
Y974256D02*
Y964256D01*
X10403701D01*
Y974256D01*
X10413701D01*
Y994256D01*
X10403701D01*
Y1004256D01*
X10383701D01*
Y994256D01*
X10373701D01*
Y974256D01*
X10383701D01*
Y934886D02*
Y924886D01*
X10403701D01*
Y934886D01*
X10413701D01*
Y954886D01*
X10403701D01*
Y964886D01*
X10383701D01*
Y954886D01*
X10373701D01*
Y934886D01*
X10383701D01*
Y895516D02*
Y885516D01*
X10403701D01*
Y895516D01*
X10413701D01*
Y915516D01*
X10403701D01*
Y925516D01*
X10383701D01*
Y915516D01*
X10373701D01*
Y895516D01*
X10383701D01*
Y856146D02*
Y846146D01*
X10403701D01*
Y856146D01*
X10413701D01*
Y876146D01*
X10403701D01*
Y886146D01*
X10383701D01*
Y876146D01*
X10373701D01*
Y856146D01*
X10383701D01*
Y816776D02*
Y806776D01*
X10403701D01*
Y816776D01*
X10413701D01*
Y836776D01*
X10403701D01*
Y846776D01*
X10383701D01*
Y836776D01*
X10373701D01*
Y816776D01*
X10383701D01*
Y1013626D02*
Y1003626D01*
X10403701D01*
Y1013626D01*
X10413701D01*
Y1033626D01*
X10403701D01*
Y1043626D01*
X10383701D01*
Y1033626D01*
X10373701D01*
Y1013626D01*
X10383701D01*
Y1052996D02*
Y1042996D01*
X10403701D01*
Y1052996D01*
X10413701D01*
Y1072996D01*
X10403701D01*
Y1082996D01*
X10383701D01*
Y1072996D01*
X10373701D01*
Y1052996D01*
X10383701D01*
Y1092366D02*
Y1082366D01*
X10403701D01*
Y1092366D01*
X10413701D01*
Y1112366D01*
X10403701D01*
Y1122366D01*
X10383701D01*
Y1112366D01*
X10373701D01*
Y1092366D01*
X10383701D01*
Y1131736D02*
Y1121736D01*
X10403701D01*
Y1131736D01*
X10413701D01*
Y1151736D01*
X10403701D01*
Y1161736D01*
X10383701D01*
Y1151736D01*
X10373701D01*
Y1131736D01*
X10383701D01*
Y1171106D02*
Y1161106D01*
X10403701D01*
Y1171106D01*
X10413701D01*
Y1191106D01*
X10403701D01*
Y1201106D01*
X10383701D01*
Y1191106D01*
X10373701D01*
Y1171106D01*
X10383701D01*
Y580556D02*
Y570556D01*
X10403701D01*
Y580556D01*
X10413701D01*
Y600556D01*
X10403701D01*
Y610556D01*
X10383701D01*
Y600556D01*
X10373701D01*
Y580556D01*
X10383701D01*
Y541186D02*
Y531186D01*
X10403701D01*
Y541186D01*
X10413701D01*
Y561186D01*
X10403701D01*
Y571186D01*
X10383701D01*
Y561186D01*
X10373701D01*
Y541186D01*
X10383701D01*
Y501816D02*
Y491816D01*
X10403701D01*
Y501816D01*
X10413701D01*
Y521816D01*
X10403701D01*
Y531816D01*
X10383701D01*
Y521816D01*
X10373701D01*
Y501816D01*
X10383701D01*
Y462446D02*
Y452446D01*
X10403701D01*
Y462446D01*
X10413701D01*
Y482446D01*
X10403701D01*
Y492446D01*
X10383701D01*
Y482446D01*
X10373701D01*
Y462446D01*
X10383701D01*
Y423076D02*
Y413076D01*
X10403701D01*
Y423076D01*
X10413701D01*
Y443076D01*
X10403701D01*
Y453076D01*
X10383701D01*
Y443076D01*
X10373701D01*
Y423076D01*
X10383701D01*
Y619926D02*
Y609926D01*
X10403701D01*
Y619926D01*
X10413701D01*
Y639926D01*
X10403701D01*
Y649926D01*
X10383701D01*
Y639926D01*
X10373701D01*
Y619926D01*
X10383701D01*
Y659296D02*
Y649296D01*
X10403701D01*
Y659296D01*
X10413701D01*
Y679296D01*
X10403701D01*
Y689296D01*
X10383701D01*
Y679296D01*
X10373701D01*
Y659296D01*
X10383701D01*
Y698666D02*
Y688666D01*
X10403701D01*
Y698666D01*
X10413701D01*
Y718666D01*
X10403701D01*
Y728666D01*
X10383701D01*
Y718666D01*
X10373701D01*
Y698666D01*
X10383701D01*
Y738036D02*
Y728036D01*
X10403701D01*
Y738036D01*
X10413701D01*
Y758036D01*
X10403701D01*
Y768036D01*
X10383701D01*
Y758036D01*
X10373701D01*
Y738036D01*
X10383701D01*
Y777406D02*
Y767406D01*
X10403701D01*
Y777406D01*
X10413701D01*
Y797406D01*
X10403701D01*
Y807406D01*
X10383701D01*
Y797406D01*
X10373701D01*
Y777406D01*
X10383701D01*
Y186856D02*
Y176856D01*
X10403701D01*
Y186856D01*
X10413701D01*
Y206856D01*
X10403701D01*
Y216856D01*
X10383701D01*
Y206856D01*
X10373701D01*
Y186856D01*
X10383701D01*
Y226226D02*
Y216226D01*
X10403701D01*
Y226226D01*
X10413701D01*
Y246226D01*
X10403701D01*
Y256226D01*
X10383701D01*
Y246226D01*
X10373701D01*
Y226226D01*
X10383701D01*
Y265596D02*
Y255596D01*
X10403701D01*
Y265596D01*
X10413701D01*
Y285596D01*
X10403701D01*
Y295596D01*
X10383701D01*
Y285596D01*
X10373701D01*
Y265596D01*
X10383701D01*
Y304966D02*
Y294966D01*
X10403701D01*
Y304966D01*
X10413701D01*
Y324966D01*
X10403701D01*
Y334966D01*
X10383701D01*
Y324966D01*
X10373701D01*
Y304966D01*
X10383701D01*
Y344336D02*
Y334336D01*
X10403701D01*
Y344336D01*
X10413701D01*
Y364336D01*
X10403701D01*
Y374336D01*
X10383701D01*
Y364336D01*
X10373701D01*
Y344336D01*
X10383701D01*
Y383706D02*
Y373706D01*
X10403701D01*
Y383706D01*
X10413701D01*
Y403706D01*
X10403701D01*
Y413706D01*
X10383701D01*
Y403706D01*
X10373701D01*
Y383706D01*
X10383701D01*
Y3297086D02*
Y3287086D01*
X10403701D01*
Y3297086D01*
X10413701D01*
Y3317086D01*
X10403701D01*
Y3327086D01*
X10383701D01*
Y3317086D01*
X10373701D01*
Y3297086D01*
X10383701D01*
Y3257716D02*
Y3247716D01*
X10403701D01*
Y3257716D01*
X10413701D01*
Y3277716D01*
X10403701D01*
Y3287716D01*
X10383701D01*
Y3277716D01*
X10373701D01*
Y3257716D01*
X10383701D01*
Y3218346D02*
Y3208346D01*
X10403701D01*
Y3218346D01*
X10413701D01*
Y3238346D01*
X10403701D01*
Y3248346D01*
X10383701D01*
Y3238346D01*
X10373701D01*
Y3218346D01*
X10383701D01*
Y3690786D02*
Y3680786D01*
X10403701D01*
Y3690786D01*
X10413701D01*
Y3710786D01*
X10403701D01*
Y3720786D01*
X10383701D01*
Y3710786D01*
X10373701D01*
Y3690786D01*
X10383701D01*
Y3651416D02*
Y3641416D01*
X10403701D01*
Y3651416D01*
X10413701D01*
Y3671416D01*
X10403701D01*
Y3681416D01*
X10383701D01*
Y3671416D01*
X10373701D01*
Y3651416D01*
X10383701D01*
Y3612046D02*
Y3602046D01*
X10403701D01*
Y3612046D01*
X10413701D01*
Y3632046D01*
X10403701D01*
Y3642046D01*
X10383701D01*
Y3632046D01*
X10373701D01*
Y3612046D01*
X10383701D01*
Y3572676D02*
Y3562676D01*
X10403701D01*
Y3572676D01*
X10413701D01*
Y3592676D01*
X10403701D01*
Y3602676D01*
X10383701D01*
Y3592676D01*
X10373701D01*
Y3572676D01*
X10383701D01*
Y3533306D02*
Y3523306D01*
X10403701D01*
Y3533306D01*
X10413701D01*
Y3553306D01*
X10403701D01*
Y3563306D01*
X10383701D01*
Y3553306D01*
X10373701D01*
Y3533306D01*
X10383701D01*
Y3336456D02*
Y3326456D01*
X10403701D01*
Y3336456D01*
X10413701D01*
Y3356456D01*
X10403701D01*
Y3366456D01*
X10383701D01*
Y3356456D01*
X10373701D01*
Y3336456D01*
X10383701D01*
Y3375826D02*
Y3365826D01*
X10403701D01*
Y3375826D01*
X10413701D01*
Y3395826D01*
X10403701D01*
Y3405826D01*
X10383701D01*
Y3395826D01*
X10373701D01*
Y3375826D01*
X10383701D01*
Y3415196D02*
Y3405196D01*
X10403701D01*
Y3415196D01*
X10413701D01*
Y3435196D01*
X10403701D01*
Y3445196D01*
X10383701D01*
Y3435196D01*
X10373701D01*
Y3415196D01*
X10383701D01*
Y3454566D02*
Y3444566D01*
X10403701D01*
Y3454566D01*
X10413701D01*
Y3474566D01*
X10403701D01*
Y3484566D01*
X10383701D01*
Y3474566D01*
X10373701D01*
Y3454566D01*
X10383701D01*
Y3493936D02*
Y3483936D01*
X10403701D01*
Y3493936D01*
X10413701D01*
Y3513936D01*
X10403701D01*
Y3523936D01*
X10383701D01*
Y3513936D01*
X10373701D01*
Y3493936D01*
X10383701D01*
Y3730156D02*
Y3720156D01*
X10403701D01*
Y3730156D01*
X10413701D01*
Y3750156D01*
X10403701D01*
Y3760156D01*
X10383701D01*
Y3750156D01*
X10373701D01*
Y3730156D01*
X10383701D01*
X2745905Y5856142D02*
Y5846142D01*
X2765905D01*
Y5856142D01*
X2775905D01*
Y5876142D01*
X2765905D01*
Y5886142D01*
X2745905D01*
Y5876142D01*
X2735905D01*
Y5856142D01*
X2745905D01*
X2706535D02*
Y5846142D01*
X2726535D01*
Y5856142D01*
X2736535D01*
Y5876142D01*
X2726535D01*
Y5886142D01*
X2706535D01*
Y5876142D01*
X2696535D01*
Y5856142D01*
X2706535D01*
X2785276D02*
Y5846142D01*
X2805276D01*
Y5856142D01*
X2815276D01*
Y5876142D01*
X2805276D01*
Y5886142D01*
X2785276D01*
Y5876142D01*
X2775276D01*
Y5856142D01*
X2785276D01*
X2824646D02*
Y5846142D01*
X2844646D01*
Y5856142D01*
X2854646D01*
Y5876142D01*
X2844646D01*
Y5886142D01*
X2824646D01*
Y5876142D01*
X2814646D01*
Y5856142D01*
X2824646D01*
X2864015D02*
Y5846142D01*
X2884015D01*
Y5856142D01*
X2894015D01*
Y5876142D01*
X2884015D01*
Y5886142D01*
X2864015D01*
Y5876142D01*
X2854015D01*
Y5856142D01*
X2864015D01*
X2903385D02*
Y5846142D01*
X2923385D01*
Y5856142D01*
X2933385D01*
Y5876142D01*
X2923385D01*
Y5886142D01*
X2903385D01*
Y5876142D01*
X2893385D01*
Y5856142D01*
X2903385D01*
X3100235D02*
Y5846142D01*
X3120235D01*
Y5856142D01*
X3130235D01*
Y5876142D01*
X3120235D01*
Y5886142D01*
X3100235D01*
Y5876142D01*
X3090235D01*
Y5856142D01*
X3100235D01*
X3060865D02*
Y5846142D01*
X3080865D01*
Y5856142D01*
X3090865D01*
Y5876142D01*
X3080865D01*
Y5886142D01*
X3060865D01*
Y5876142D01*
X3050865D01*
Y5856142D01*
X3060865D01*
X3021495D02*
Y5846142D01*
X3041495D01*
Y5856142D01*
X3051495D01*
Y5876142D01*
X3041495D01*
Y5886142D01*
X3021495D01*
Y5876142D01*
X3011495D01*
Y5856142D01*
X3021495D01*
X2982126D02*
Y5846142D01*
X3002126D01*
Y5856142D01*
X3012126D01*
Y5876142D01*
X3002126D01*
Y5886142D01*
X2982126D01*
Y5876142D01*
X2972126D01*
Y5856142D01*
X2982126D01*
X2942756D02*
Y5846142D01*
X2962756D01*
Y5856142D01*
X2972756D01*
Y5876142D01*
X2962756D01*
Y5886142D01*
X2942756D01*
Y5876142D01*
X2932756D01*
Y5856142D01*
X2942756D01*
X3336456D02*
Y5846142D01*
X3356456D01*
Y5856142D01*
X3366456D01*
Y5876142D01*
X3356456D01*
Y5886142D01*
X3336456D01*
Y5876142D01*
X3326456D01*
Y5856142D01*
X3336456D01*
X3375825D02*
Y5846142D01*
X3395825D01*
Y5856142D01*
X3405825D01*
Y5876142D01*
X3395825D01*
Y5886142D01*
X3375825D01*
Y5876142D01*
X3365825D01*
Y5856142D01*
X3375825D01*
X3415195D02*
Y5846142D01*
X3435195D01*
Y5856142D01*
X3445195D01*
Y5876142D01*
X3435195D01*
Y5886142D01*
X3415195D01*
Y5876142D01*
X3405195D01*
Y5856142D01*
X3415195D01*
X3454566D02*
Y5846142D01*
X3474566D01*
Y5856142D01*
X3484566D01*
Y5876142D01*
X3474566D01*
Y5886142D01*
X3454566D01*
Y5876142D01*
X3444566D01*
Y5856142D01*
X3454566D01*
X3493936D02*
Y5846142D01*
X3513936D01*
Y5856142D01*
X3523936D01*
Y5876142D01*
X3513936D01*
Y5886142D01*
X3493936D01*
Y5876142D01*
X3483936D01*
Y5856142D01*
X3493936D01*
X3297086D02*
Y5846142D01*
X3317086D01*
Y5856142D01*
X3327086D01*
Y5876142D01*
X3317086D01*
Y5886142D01*
X3297086D01*
Y5876142D01*
X3287086D01*
Y5856142D01*
X3297086D01*
X3257715D02*
Y5846142D01*
X3277715D01*
Y5856142D01*
X3287715D01*
Y5876142D01*
X3277715D01*
Y5886142D01*
X3257715D01*
Y5876142D01*
X3247715D01*
Y5856142D01*
X3257715D01*
X3218345D02*
Y5846142D01*
X3238345D01*
Y5856142D01*
X3248345D01*
Y5876142D01*
X3238345D01*
Y5886142D01*
X3218345D01*
Y5876142D01*
X3208345D01*
Y5856142D01*
X3218345D01*
X3178976D02*
Y5846142D01*
X3198976D01*
Y5856142D01*
X3208976D01*
Y5876142D01*
X3198976D01*
Y5886142D01*
X3178976D01*
Y5876142D01*
X3168976D01*
Y5856142D01*
X3178976D01*
X3139606D02*
Y5846142D01*
X3159606D01*
Y5856142D01*
X3169606D01*
Y5876142D01*
X3159606D01*
Y5886142D01*
X3139606D01*
Y5876142D01*
X3129606D01*
Y5856142D01*
X3139606D01*
X3730155D02*
Y5846142D01*
X3750155D01*
Y5856142D01*
X3760155D01*
Y5876142D01*
X3750155D01*
Y5886142D01*
X3730155D01*
Y5876142D01*
X3720155D01*
Y5856142D01*
X3730155D01*
X3769526D02*
Y5846142D01*
X3789526D01*
Y5856142D01*
X3799526D01*
Y5876142D01*
X3789526D01*
Y5886142D01*
X3769526D01*
Y5876142D01*
X3759526D01*
Y5856142D01*
X3769526D01*
X3808896D02*
Y5846142D01*
X3828896D01*
Y5856142D01*
X3838896D01*
Y5876142D01*
X3828896D01*
Y5886142D01*
X3808896D01*
Y5876142D01*
X3798896D01*
Y5856142D01*
X3808896D01*
X3848265D02*
Y5846142D01*
X3868265D01*
Y5856142D01*
X3878265D01*
Y5876142D01*
X3868265D01*
Y5886142D01*
X3848265D01*
Y5876142D01*
X3838265D01*
Y5856142D01*
X3848265D01*
X3887635D02*
Y5846142D01*
X3907635D01*
Y5856142D01*
X3917635D01*
Y5876142D01*
X3907635D01*
Y5886142D01*
X3887635D01*
Y5876142D01*
X3877635D01*
Y5856142D01*
X3887635D01*
X3690785D02*
Y5846142D01*
X3710785D01*
Y5856142D01*
X3720785D01*
Y5876142D01*
X3710785D01*
Y5886142D01*
X3690785D01*
Y5876142D01*
X3680785D01*
Y5856142D01*
X3690785D01*
X3651416D02*
Y5846142D01*
X3671416D01*
Y5856142D01*
X3681416D01*
Y5876142D01*
X3671416D01*
Y5886142D01*
X3651416D01*
Y5876142D01*
X3641416D01*
Y5856142D01*
X3651416D01*
X3612046D02*
Y5846142D01*
X3632046D01*
Y5856142D01*
X3642046D01*
Y5876142D01*
X3632046D01*
Y5886142D01*
X3612046D01*
Y5876142D01*
X3602046D01*
Y5856142D01*
X3612046D01*
X3572675D02*
Y5846142D01*
X3592675D01*
Y5856142D01*
X3602675D01*
Y5876142D01*
X3592675D01*
Y5886142D01*
X3572675D01*
Y5876142D01*
X3562675D01*
Y5856142D01*
X3572675D01*
X3533305D02*
Y5846142D01*
X3553305D01*
Y5856142D01*
X3563305D01*
Y5876142D01*
X3553305D01*
Y5886142D01*
X3533305D01*
Y5876142D01*
X3523305D01*
Y5856142D01*
X3533305D01*
X4123855D02*
Y5846142D01*
X4143855D01*
Y5856142D01*
X4153855D01*
Y5876142D01*
X4143855D01*
Y5886142D01*
X4123855D01*
Y5876142D01*
X4113855D01*
Y5856142D01*
X4123855D01*
X4163225D02*
Y5846142D01*
X4183225D01*
Y5856142D01*
X4193225D01*
Y5876142D01*
X4183225D01*
Y5886142D01*
X4163225D01*
Y5876142D01*
X4153225D01*
Y5856142D01*
X4163225D01*
X4202596D02*
Y5846142D01*
X4222596D01*
Y5856142D01*
X4232596D01*
Y5876142D01*
X4222596D01*
Y5886142D01*
X4202596D01*
Y5876142D01*
X4192596D01*
Y5856142D01*
X4202596D01*
X4241966D02*
Y5846142D01*
X4261966D01*
Y5856142D01*
X4271966D01*
Y5876142D01*
X4261966D01*
Y5886142D01*
X4241966D01*
Y5876142D01*
X4231966D01*
Y5856142D01*
X4241966D01*
X4281336D02*
Y5846142D01*
X4301336D01*
Y5856142D01*
X4311336D01*
Y5876142D01*
X4301336D01*
Y5886142D01*
X4281336D01*
Y5876142D01*
X4271336D01*
Y5856142D01*
X4281336D01*
X4084485D02*
Y5846142D01*
X4104485D01*
Y5856142D01*
X4114485D01*
Y5876142D01*
X4104485D01*
Y5886142D01*
X4084485D01*
Y5876142D01*
X4074485D01*
Y5856142D01*
X4084485D01*
X4045115D02*
Y5846142D01*
X4065115D01*
Y5856142D01*
X4075115D01*
Y5876142D01*
X4065115D01*
Y5886142D01*
X4045115D01*
Y5876142D01*
X4035115D01*
Y5856142D01*
X4045115D01*
X4005745D02*
Y5846142D01*
X4025745D01*
Y5856142D01*
X4035745D01*
Y5876142D01*
X4025745D01*
Y5886142D01*
X4005745D01*
Y5876142D01*
X3995745D01*
Y5856142D01*
X4005745D01*
X3966376D02*
Y5846142D01*
X3986376D01*
Y5856142D01*
X3996376D01*
Y5876142D01*
X3986376D01*
Y5886142D01*
X3966376D01*
Y5876142D01*
X3956376D01*
Y5856142D01*
X3966376D01*
X3927006D02*
Y5846142D01*
X3947006D01*
Y5856142D01*
X3957006D01*
Y5876142D01*
X3947006D01*
Y5886142D01*
X3927006D01*
Y5876142D01*
X3917006D01*
Y5856142D01*
X3927006D01*
X4517556D02*
Y5846142D01*
X4537556D01*
Y5856142D01*
X4547556D01*
Y5876142D01*
X4537556D01*
Y5886142D01*
X4517556D01*
Y5876142D01*
X4507556D01*
Y5856142D01*
X4517556D01*
X4556926D02*
Y5846142D01*
X4576926D01*
Y5856142D01*
X4586926D01*
Y5876142D01*
X4576926D01*
Y5886142D01*
X4556926D01*
Y5876142D01*
X4546926D01*
Y5856142D01*
X4556926D01*
X4596296D02*
Y5846142D01*
X4616296D01*
Y5856142D01*
X4626296D01*
Y5876142D01*
X4616296D01*
Y5886142D01*
X4596296D01*
Y5876142D01*
X4586296D01*
Y5856142D01*
X4596296D01*
X4635666D02*
Y5846142D01*
X4655666D01*
Y5856142D01*
X4665666D01*
Y5876142D01*
X4655666D01*
Y5886142D01*
X4635666D01*
Y5876142D01*
X4625666D01*
Y5856142D01*
X4635666D01*
X4675035D02*
Y5846142D01*
X4695035D01*
Y5856142D01*
X4705035D01*
Y5876142D01*
X4695035D01*
Y5886142D01*
X4675035D01*
Y5876142D01*
X4665035D01*
Y5856142D01*
X4675035D01*
X4478185D02*
Y5846142D01*
X4498185D01*
Y5856142D01*
X4508185D01*
Y5876142D01*
X4498185D01*
Y5886142D01*
X4478185D01*
Y5876142D01*
X4468185D01*
Y5856142D01*
X4478185D01*
X4438815D02*
Y5846142D01*
X4458815D01*
Y5856142D01*
X4468815D01*
Y5876142D01*
X4458815D01*
Y5886142D01*
X4438815D01*
Y5876142D01*
X4428815D01*
Y5856142D01*
X4438815D01*
X4399445D02*
Y5846142D01*
X4419445D01*
Y5856142D01*
X4429445D01*
Y5876142D01*
X4419445D01*
Y5886142D01*
X4399445D01*
Y5876142D01*
X4389445D01*
Y5856142D01*
X4399445D01*
X4360075D02*
Y5846142D01*
X4380075D01*
Y5856142D01*
X4390075D01*
Y5876142D01*
X4380075D01*
Y5886142D01*
X4360075D01*
Y5876142D01*
X4350075D01*
Y5856142D01*
X4360075D01*
X4320706D02*
Y5846142D01*
X4340706D01*
Y5856142D01*
X4350706D01*
Y5876142D01*
X4340706D01*
Y5886142D01*
X4320706D01*
Y5876142D01*
X4310706D01*
Y5856142D01*
X4320706D01*
X4911256D02*
Y5846142D01*
X4931256D01*
Y5856142D01*
X4941256D01*
Y5876142D01*
X4931256D01*
Y5886142D01*
X4911256D01*
Y5876142D01*
X4901256D01*
Y5856142D01*
X4911256D01*
X4950626D02*
Y5846142D01*
X4970626D01*
Y5856142D01*
X4980626D01*
Y5876142D01*
X4970626D01*
Y5886142D01*
X4950626D01*
Y5876142D01*
X4940626D01*
Y5856142D01*
X4950626D01*
X4989995D02*
Y5846142D01*
X5009995D01*
Y5856142D01*
X5019995D01*
Y5876142D01*
X5009995D01*
Y5886142D01*
X4989995D01*
Y5876142D01*
X4979995D01*
Y5856142D01*
X4989995D01*
X5029365D02*
Y5846142D01*
X5049365D01*
Y5856142D01*
X5059365D01*
Y5876142D01*
X5049365D01*
Y5886142D01*
X5029365D01*
Y5876142D01*
X5019365D01*
Y5856142D01*
X5029365D01*
X5068735D02*
Y5846142D01*
X5088735D01*
Y5856142D01*
X5098735D01*
Y5876142D01*
X5088735D01*
Y5886142D01*
X5068735D01*
Y5876142D01*
X5058735D01*
Y5856142D01*
X5068735D01*
X4871886D02*
Y5846142D01*
X4891886D01*
Y5856142D01*
X4901886D01*
Y5876142D01*
X4891886D01*
Y5886142D01*
X4871886D01*
Y5876142D01*
X4861886D01*
Y5856142D01*
X4871886D01*
X4832516D02*
Y5846142D01*
X4852516D01*
Y5856142D01*
X4862516D01*
Y5876142D01*
X4852516D01*
Y5886142D01*
X4832516D01*
Y5876142D01*
X4822516D01*
Y5856142D01*
X4832516D01*
X4793145D02*
Y5846142D01*
X4813145D01*
Y5856142D01*
X4823145D01*
Y5876142D01*
X4813145D01*
Y5886142D01*
X4793145D01*
Y5876142D01*
X4783145D01*
Y5856142D01*
X4793145D01*
X4753775D02*
Y5846142D01*
X4773775D01*
Y5856142D01*
X4783775D01*
Y5876142D01*
X4773775D01*
Y5886142D01*
X4753775D01*
Y5876142D01*
X4743775D01*
Y5856142D01*
X4753775D01*
X4714405D02*
Y5846142D01*
X4734405D01*
Y5856142D01*
X4744405D01*
Y5876142D01*
X4734405D01*
Y5886142D01*
X4714405D01*
Y5876142D01*
X4704405D01*
Y5856142D01*
X4714405D01*
X5304956D02*
Y5846142D01*
X5324956D01*
Y5856142D01*
X5334956D01*
Y5876142D01*
X5324956D01*
Y5886142D01*
X5304956D01*
Y5876142D01*
X5294956D01*
Y5856142D01*
X5304956D01*
X5344325D02*
Y5846142D01*
X5364325D01*
Y5856142D01*
X5374325D01*
Y5876142D01*
X5364325D01*
Y5886142D01*
X5344325D01*
Y5876142D01*
X5334325D01*
Y5856142D01*
X5344325D01*
X5383695D02*
Y5846142D01*
X5403695D01*
Y5856142D01*
X5413695D01*
Y5876142D01*
X5403695D01*
Y5886142D01*
X5383695D01*
Y5876142D01*
X5373695D01*
Y5856142D01*
X5383695D01*
X5423065D02*
Y5846142D01*
X5443065D01*
Y5856142D01*
X5453065D01*
Y5876142D01*
X5443065D01*
Y5886142D01*
X5423065D01*
Y5876142D01*
X5413065D01*
Y5856142D01*
X5423065D01*
X5462435D02*
Y5846142D01*
X5482435D01*
Y5856142D01*
X5492435D01*
Y5876142D01*
X5482435D01*
Y5886142D01*
X5462435D01*
Y5876142D01*
X5452435D01*
Y5856142D01*
X5462435D01*
X5265586D02*
Y5846142D01*
X5285586D01*
Y5856142D01*
X5295586D01*
Y5876142D01*
X5285586D01*
Y5886142D01*
X5265586D01*
Y5876142D01*
X5255586D01*
Y5856142D01*
X5265586D01*
X5226216D02*
Y5846142D01*
X5246216D01*
Y5856142D01*
X5256216D01*
Y5876142D01*
X5246216D01*
Y5886142D01*
X5226216D01*
Y5876142D01*
X5216216D01*
Y5856142D01*
X5226216D01*
X5186846D02*
Y5846142D01*
X5206846D01*
Y5856142D01*
X5216846D01*
Y5876142D01*
X5206846D01*
Y5886142D01*
X5186846D01*
Y5876142D01*
X5176846D01*
Y5856142D01*
X5186846D01*
X5147475D02*
Y5846142D01*
X5167475D01*
Y5856142D01*
X5177475D01*
Y5876142D01*
X5167475D01*
Y5886142D01*
X5147475D01*
Y5876142D01*
X5137475D01*
Y5856142D01*
X5147475D01*
X5108105D02*
Y5846142D01*
X5128105D01*
Y5856142D01*
X5138105D01*
Y5876142D01*
X5128105D01*
Y5886142D01*
X5108105D01*
Y5876142D01*
X5098105D01*
Y5856142D01*
X5108105D01*
X5698655D02*
Y5846142D01*
X5718655D01*
Y5856142D01*
X5728655D01*
Y5876142D01*
X5718655D01*
Y5886142D01*
X5698655D01*
Y5876142D01*
X5688655D01*
Y5856142D01*
X5698655D01*
X5659285D02*
Y5846142D01*
X5679285D01*
Y5856142D01*
X5689285D01*
Y5876142D01*
X5679285D01*
Y5886142D01*
X5659285D01*
Y5876142D01*
X5649285D01*
Y5856142D01*
X5659285D01*
X5619916D02*
Y5846142D01*
X5639916D01*
Y5856142D01*
X5649916D01*
Y5876142D01*
X5639916D01*
Y5886142D01*
X5619916D01*
Y5876142D01*
X5609916D01*
Y5856142D01*
X5619916D01*
X5580546D02*
Y5846142D01*
X5600546D01*
Y5856142D01*
X5610546D01*
Y5876142D01*
X5600546D01*
Y5886142D01*
X5580546D01*
Y5876142D01*
X5570546D01*
Y5856142D01*
X5580546D01*
X5541176D02*
Y5846142D01*
X5561176D01*
Y5856142D01*
X5571176D01*
Y5876142D01*
X5561176D01*
Y5886142D01*
X5541176D01*
Y5876142D01*
X5531176D01*
Y5856142D01*
X5541176D01*
X5501806D02*
Y5846142D01*
X5521806D01*
Y5856142D01*
X5531806D01*
Y5876142D01*
X5521806D01*
Y5886142D01*
X5501806D01*
Y5876142D01*
X5491806D01*
Y5856142D01*
X5501806D01*
X2588425D02*
Y5846142D01*
X2608425D01*
Y5856142D01*
X2618425D01*
Y5876142D01*
X2608425D01*
Y5886142D01*
X2588425D01*
Y5876142D01*
X2578425D01*
Y5856142D01*
X2588425D01*
X2627796D02*
Y5846142D01*
X2647796D01*
Y5856142D01*
X2657796D01*
Y5876142D01*
X2647796D01*
Y5886142D01*
X2627796D01*
Y5876142D01*
X2617796D01*
Y5856142D01*
X2627796D01*
X2667166D02*
Y5846142D01*
X2687166D01*
Y5856142D01*
X2697166D01*
Y5876142D01*
X2687166D01*
Y5886142D01*
X2667166D01*
Y5876142D01*
X2657166D01*
Y5856142D01*
X2667166D01*
X2194726D02*
Y5846142D01*
X2214726D01*
Y5856142D01*
X2224726D01*
Y5876142D01*
X2214726D01*
Y5886142D01*
X2194726D01*
Y5876142D01*
X2184726D01*
Y5856142D01*
X2194726D01*
X2234095D02*
Y5846142D01*
X2254095D01*
Y5856142D01*
X2264095D01*
Y5876142D01*
X2254095D01*
Y5886142D01*
X2234095D01*
Y5876142D01*
X2224095D01*
Y5856142D01*
X2234095D01*
X2273465D02*
Y5846142D01*
X2293465D01*
Y5856142D01*
X2303465D01*
Y5876142D01*
X2293465D01*
Y5886142D01*
X2273465D01*
Y5876142D01*
X2263465D01*
Y5856142D01*
X2273465D01*
X2312836D02*
Y5846142D01*
X2332836D01*
Y5856142D01*
X2342836D01*
Y5876142D01*
X2332836D01*
Y5886142D01*
X2312836D01*
Y5876142D01*
X2302836D01*
Y5856142D01*
X2312836D01*
X2352206D02*
Y5846142D01*
X2372206D01*
Y5856142D01*
X2382206D01*
Y5876142D01*
X2372206D01*
Y5886142D01*
X2352206D01*
Y5876142D01*
X2342206D01*
Y5856142D01*
X2352206D01*
X2549055D02*
Y5846142D01*
X2569055D01*
Y5856142D01*
X2579055D01*
Y5876142D01*
X2569055D01*
Y5886142D01*
X2549055D01*
Y5876142D01*
X2539055D01*
Y5856142D01*
X2549055D01*
X2509686D02*
Y5846142D01*
X2529686D01*
Y5856142D01*
X2539686D01*
Y5876142D01*
X2529686D01*
Y5886142D01*
X2509686D01*
Y5876142D01*
X2499686D01*
Y5856142D01*
X2509686D01*
X2470316D02*
Y5846142D01*
X2490316D01*
Y5856142D01*
X2500316D01*
Y5876142D01*
X2490316D01*
Y5886142D01*
X2470316D01*
Y5876142D01*
X2460316D01*
Y5856142D01*
X2470316D01*
X2430945D02*
Y5846142D01*
X2450945D01*
Y5856142D01*
X2460945D01*
Y5876142D01*
X2450945D01*
Y5886142D01*
X2430945D01*
Y5876142D01*
X2420945D01*
Y5856142D01*
X2430945D01*
X2391575D02*
Y5846142D01*
X2411575D01*
Y5856142D01*
X2421575D01*
Y5876142D01*
X2411575D01*
Y5886142D01*
X2391575D01*
Y5876142D01*
X2381575D01*
Y5856142D01*
X2391575D01*
X1997876D02*
Y5846142D01*
X2017876D01*
Y5856142D01*
X2027876D01*
Y5876142D01*
X2017876D01*
Y5886142D01*
X1997876D01*
Y5876142D01*
X1987876D01*
Y5856142D01*
X1997876D01*
X2037245D02*
Y5846142D01*
X2057245D01*
Y5856142D01*
X2067245D01*
Y5876142D01*
X2057245D01*
Y5886142D01*
X2037245D01*
Y5876142D01*
X2027245D01*
Y5856142D01*
X2037245D01*
X2076615D02*
Y5846142D01*
X2096615D01*
Y5856142D01*
X2106615D01*
Y5876142D01*
X2096615D01*
Y5886142D01*
X2076615D01*
Y5876142D01*
X2066615D01*
Y5856142D01*
X2076615D01*
X2115985D02*
Y5846142D01*
X2135985D01*
Y5856142D01*
X2145985D01*
Y5876142D01*
X2135985D01*
Y5886142D01*
X2115985D01*
Y5876142D01*
X2105985D01*
Y5856142D01*
X2115985D01*
X2155356D02*
Y5846142D01*
X2175356D01*
Y5856142D01*
X2185356D01*
Y5876142D01*
X2175356D01*
Y5886142D01*
X2155356D01*
Y5876142D01*
X2145356D01*
Y5856142D01*
X2155356D01*
X1958505D02*
Y5846142D01*
X1978505D01*
Y5856142D01*
X1988505D01*
Y5876142D01*
X1978505D01*
Y5886142D01*
X1958505D01*
Y5876142D01*
X1948505D01*
Y5856142D01*
X1958505D01*
X1919136D02*
Y5846142D01*
X1939136D01*
Y5856142D01*
X1949136D01*
Y5876142D01*
X1939136D01*
Y5886142D01*
X1919136D01*
Y5876142D01*
X1909136D01*
Y5856142D01*
X1919136D01*
X1879765D02*
Y5846142D01*
X1899765D01*
Y5856142D01*
X1909765D01*
Y5876142D01*
X1899765D01*
Y5886142D01*
X1879765D01*
Y5876142D01*
X1869765D01*
Y5856142D01*
X1879765D01*
X1840396D02*
Y5846142D01*
X1860396D01*
Y5856142D01*
X1870396D01*
Y5876142D01*
X1860396D01*
Y5886142D01*
X1840396D01*
Y5876142D01*
X1830396D01*
Y5856142D01*
X1840396D01*
X1761656D02*
Y5846142D01*
X1781656D01*
Y5856142D01*
X1791656D01*
Y5876142D01*
X1781656D01*
Y5886142D01*
X1761656D01*
Y5876142D01*
X1751656D01*
Y5856142D01*
X1761656D01*
X1801025D02*
Y5846142D01*
X1821025D01*
Y5856142D01*
X1831025D01*
Y5876142D01*
X1821025D01*
Y5886142D01*
X1801025D01*
Y5876142D01*
X1791025D01*
Y5856142D01*
X1801025D01*
X1643545D02*
Y5846142D01*
X1663545D01*
Y5856142D01*
X1673545D01*
Y5876142D01*
X1663545D01*
Y5886142D01*
X1643545D01*
Y5876142D01*
X1633545D01*
Y5856142D01*
X1643545D01*
X1682916D02*
Y5846142D01*
X1702916D01*
Y5856142D01*
X1712916D01*
Y5876142D01*
X1702916D01*
Y5886142D01*
X1682916D01*
Y5876142D01*
X1672916D01*
Y5856142D01*
X1682916D01*
X1722285D02*
Y5846142D01*
X1742285D01*
Y5856142D01*
X1752285D01*
Y5876142D01*
X1742285D01*
Y5886142D01*
X1722285D01*
Y5876142D01*
X1712285D01*
Y5856142D01*
X1722285D01*
X1249845D02*
Y5846142D01*
X1269845D01*
Y5856142D01*
X1279845D01*
Y5876142D01*
X1269845D01*
Y5886142D01*
X1249845D01*
Y5876142D01*
X1239845D01*
Y5856142D01*
X1249845D01*
X1289216D02*
Y5846142D01*
X1309216D01*
Y5856142D01*
X1319216D01*
Y5876142D01*
X1309216D01*
Y5886142D01*
X1289216D01*
Y5876142D01*
X1279216D01*
Y5856142D01*
X1289216D01*
X1328585D02*
Y5846142D01*
X1348585D01*
Y5856142D01*
X1358585D01*
Y5876142D01*
X1348585D01*
Y5886142D01*
X1328585D01*
Y5876142D01*
X1318585D01*
Y5856142D01*
X1328585D01*
X1367956D02*
Y5846142D01*
X1387956D01*
Y5856142D01*
X1397956D01*
Y5876142D01*
X1387956D01*
Y5886142D01*
X1367956D01*
Y5876142D01*
X1357956D01*
Y5856142D01*
X1367956D01*
X1407325D02*
Y5846142D01*
X1427325D01*
Y5856142D01*
X1437325D01*
Y5876142D01*
X1427325D01*
Y5886142D01*
X1407325D01*
Y5876142D01*
X1397325D01*
Y5856142D01*
X1407325D01*
X1604176D02*
Y5846142D01*
X1624176D01*
Y5856142D01*
X1634176D01*
Y5876142D01*
X1624176D01*
Y5886142D01*
X1604176D01*
Y5876142D01*
X1594176D01*
Y5856142D01*
X1604176D01*
X1564805D02*
Y5846142D01*
X1584805D01*
Y5856142D01*
X1594805D01*
Y5876142D01*
X1584805D01*
Y5886142D01*
X1564805D01*
Y5876142D01*
X1554805D01*
Y5856142D01*
X1564805D01*
X1525436D02*
Y5846142D01*
X1545436D01*
Y5856142D01*
X1555436D01*
Y5876142D01*
X1545436D01*
Y5886142D01*
X1525436D01*
Y5876142D01*
X1515436D01*
Y5856142D01*
X1525436D01*
X1486065D02*
Y5846142D01*
X1506065D01*
Y5856142D01*
X1516065D01*
Y5876142D01*
X1506065D01*
Y5886142D01*
X1486065D01*
Y5876142D01*
X1476065D01*
Y5856142D01*
X1486065D01*
X1446696D02*
Y5846142D01*
X1466696D01*
Y5856142D01*
X1476696D01*
Y5876142D01*
X1466696D01*
Y5886142D01*
X1446696D01*
Y5876142D01*
X1436696D01*
Y5856142D01*
X1446696D01*
X1052995D02*
Y5846142D01*
X1072995D01*
Y5856142D01*
X1082995D01*
Y5876142D01*
X1072995D01*
Y5886142D01*
X1052995D01*
Y5876142D01*
X1042995D01*
Y5856142D01*
X1052995D01*
X1092366D02*
Y5846142D01*
X1112366D01*
Y5856142D01*
X1122366D01*
Y5876142D01*
X1112366D01*
Y5886142D01*
X1092366D01*
Y5876142D01*
X1082366D01*
Y5856142D01*
X1092366D01*
X1131736D02*
Y5846142D01*
X1151736D01*
Y5856142D01*
X1161736D01*
Y5876142D01*
X1151736D01*
Y5886142D01*
X1131736D01*
Y5876142D01*
X1121736D01*
Y5856142D01*
X1131736D01*
X1171105D02*
Y5846142D01*
X1191105D01*
Y5856142D01*
X1201105D01*
Y5876142D01*
X1191105D01*
Y5886142D01*
X1171105D01*
Y5876142D01*
X1161105D01*
Y5856142D01*
X1171105D01*
X1210476D02*
Y5846142D01*
X1230476D01*
Y5856142D01*
X1240476D01*
Y5876142D01*
X1230476D01*
Y5886142D01*
X1210476D01*
Y5876142D01*
X1200476D01*
Y5856142D01*
X1210476D01*
X1013625D02*
Y5846142D01*
X1033626D01*
Y5856142D01*
X1043626D01*
Y5876142D01*
X1033626D01*
Y5886142D01*
X1013625D01*
Y5876142D01*
X1003625D01*
Y5856142D01*
X1013625D01*
X974255D02*
Y5846142D01*
X994255D01*
Y5856142D01*
X1004255D01*
Y5876142D01*
X994255D01*
Y5886142D01*
X974255D01*
Y5876142D01*
X964255D01*
Y5856142D01*
X974255D01*
X934885D02*
Y5846142D01*
X954885D01*
Y5856142D01*
X964885D01*
Y5876142D01*
X954885D01*
Y5886142D01*
X934885D01*
Y5876142D01*
X924885D01*
Y5856142D01*
X934885D01*
X895515D02*
Y5846142D01*
X915515D01*
Y5856142D01*
X925515D01*
Y5876142D01*
X915515D01*
Y5886142D01*
X895515D01*
Y5876142D01*
X885515D01*
Y5856142D01*
X895515D01*
X816775D02*
Y5846142D01*
X836775D01*
Y5856142D01*
X846775D01*
Y5876142D01*
X836775D01*
Y5886142D01*
X816775D01*
Y5876142D01*
X806775D01*
Y5856142D01*
X816775D01*
X856145D02*
Y5846142D01*
X876145D01*
Y5856142D01*
X886145D01*
Y5876142D01*
X876145D01*
Y5886142D01*
X856145D01*
Y5876142D01*
X846145D01*
Y5856142D01*
X856145D01*
X698665D02*
Y5846142D01*
X718665D01*
Y5856142D01*
X728665D01*
Y5876142D01*
X718665D01*
Y5886142D01*
X698665D01*
Y5876142D01*
X688665D01*
Y5856142D01*
X698665D01*
X738035D02*
Y5846142D01*
X758035D01*
Y5856142D01*
X768035D01*
Y5876142D01*
X758035D01*
Y5886142D01*
X738035D01*
Y5876142D01*
X728035D01*
Y5856142D01*
X738035D01*
X777405D02*
Y5846142D01*
X797405D01*
Y5856142D01*
X807405D01*
Y5876142D01*
X797405D01*
Y5886142D01*
X777405D01*
Y5876142D01*
X767405D01*
Y5856142D01*
X777405D01*
X304966D02*
Y5846142D01*
X324966D01*
Y5856142D01*
X334966D01*
Y5876142D01*
X324966D01*
Y5886142D01*
X304966D01*
Y5876142D01*
X294966D01*
Y5856142D01*
X304966D01*
X344336D02*
Y5846142D01*
X364336D01*
Y5856142D01*
X374336D01*
Y5876142D01*
X364336D01*
Y5886142D01*
X344336D01*
Y5876142D01*
X334336D01*
Y5856142D01*
X344336D01*
X383705D02*
Y5846142D01*
X403705D01*
Y5856142D01*
X413705D01*
Y5876142D01*
X403705D01*
Y5886142D01*
X383705D01*
Y5876142D01*
X373705D01*
Y5856142D01*
X383705D01*
X423075D02*
Y5846142D01*
X443075D01*
Y5856142D01*
X453075D01*
Y5876142D01*
X443075D01*
Y5886142D01*
X423075D01*
Y5876142D01*
X413075D01*
Y5856142D01*
X423075D01*
X462445D02*
Y5846142D01*
X482445D01*
Y5856142D01*
X492445D01*
Y5876142D01*
X482445D01*
Y5886142D01*
X462445D01*
Y5876142D01*
X452445D01*
Y5856142D01*
X462445D01*
X659295D02*
Y5846142D01*
X679295D01*
Y5856142D01*
X689295D01*
Y5876142D01*
X679295D01*
Y5886142D01*
X659295D01*
Y5876142D01*
X649295D01*
Y5856142D01*
X659295D01*
X619926D02*
Y5846142D01*
X639926D01*
Y5856142D01*
X649926D01*
Y5876142D01*
X639926D01*
Y5886142D01*
X619926D01*
Y5876142D01*
X609926D01*
Y5856142D01*
X619926D01*
X580556D02*
Y5846142D01*
X600556D01*
Y5856142D01*
X610556D01*
Y5876142D01*
X600556D01*
Y5886142D01*
X580556D01*
Y5876142D01*
X570556D01*
Y5856142D01*
X580556D01*
X541186D02*
Y5846142D01*
X561186D01*
Y5856142D01*
X571186D01*
Y5876142D01*
X561186D01*
Y5886142D01*
X541186D01*
Y5876142D01*
X531186D01*
Y5856142D01*
X541186D01*
X501815D02*
Y5846142D01*
X521816D01*
Y5856142D01*
X531816D01*
Y5876142D01*
X521816D01*
Y5886142D01*
X501815D01*
Y5876142D01*
X491815D01*
Y5856142D01*
X501815D01*
X186856D02*
Y5846142D01*
X206856D01*
Y5856142D01*
X216856D01*
Y5876142D01*
X206856D01*
Y5886142D01*
X186856D01*
Y5876142D01*
X176856D01*
Y5856142D01*
X186856D01*
X226226D02*
Y5846142D01*
X246226D01*
Y5856142D01*
X256226D01*
Y5876142D01*
X246226D01*
Y5886142D01*
X226226D01*
Y5876142D01*
X216226D01*
Y5856142D01*
X226226D01*
X265596D02*
Y5846142D01*
X285596D01*
Y5856142D01*
X295596D01*
Y5876142D01*
X285596D01*
Y5886142D01*
X265596D01*
Y5876142D01*
X255595D01*
Y5856142D01*
X265596D01*
X5619916Y29370D02*
Y19370D01*
X5639916D01*
Y29370D01*
X5649916D01*
Y49370D01*
X5639916D01*
Y59370D01*
X5619916D01*
Y49370D01*
X5609916D01*
Y29370D01*
X5619916D01*
X5659286D02*
Y19370D01*
X5679286D01*
Y29370D01*
X5689286D01*
Y49370D01*
X5679286D01*
Y59370D01*
X5659286D01*
Y49370D01*
X5649286D01*
Y29370D01*
X5659286D01*
X5698656D02*
Y19370D01*
X5718656D01*
Y29370D01*
X5728656D01*
Y49370D01*
X5718656D01*
Y59370D01*
X5698656D01*
Y49370D01*
X5688656D01*
Y29370D01*
X5698656D01*
X5383696D02*
Y19370D01*
X5403696D01*
Y29370D01*
X5413696D01*
Y49370D01*
X5403696D01*
Y59370D01*
X5383696D01*
Y49370D01*
X5373696D01*
Y29370D01*
X5383696D01*
X5344326D02*
Y19370D01*
X5364326D01*
Y29370D01*
X5374326D01*
Y49370D01*
X5364326D01*
Y59370D01*
X5344326D01*
Y49370D01*
X5334326D01*
Y29370D01*
X5344326D01*
X5304956D02*
Y19370D01*
X5324956D01*
Y29370D01*
X5334956D01*
Y49370D01*
X5324956D01*
Y59370D01*
X5304956D01*
Y49370D01*
X5294956D01*
Y29370D01*
X5304956D01*
X5265586D02*
Y19370D01*
X5285586D01*
Y29370D01*
X5295586D01*
Y49370D01*
X5285586D01*
Y59370D01*
X5265586D01*
Y49370D01*
X5255586D01*
Y29370D01*
X5265586D01*
X5226216D02*
Y19370D01*
X5246216D01*
Y29370D01*
X5256216D01*
Y49370D01*
X5246216D01*
Y59370D01*
X5226216D01*
Y49370D01*
X5216216D01*
Y29370D01*
X5226216D01*
X5423066D02*
Y19370D01*
X5443066D01*
Y29370D01*
X5453066D01*
Y49370D01*
X5443066D01*
Y59370D01*
X5423066D01*
Y49370D01*
X5413066D01*
Y29370D01*
X5423066D01*
X5462436D02*
Y19370D01*
X5482436D01*
Y29370D01*
X5492436D01*
Y49370D01*
X5482436D01*
Y59370D01*
X5462436D01*
Y49370D01*
X5452436D01*
Y29370D01*
X5462436D01*
X5501806D02*
Y19370D01*
X5521806D01*
Y29370D01*
X5531806D01*
Y49370D01*
X5521806D01*
Y59370D01*
X5501806D01*
Y49370D01*
X5491806D01*
Y29370D01*
X5501806D01*
X5541176D02*
Y19370D01*
X5561176D01*
Y29370D01*
X5571176D01*
Y49370D01*
X5561176D01*
Y59370D01*
X5541176D01*
Y49370D01*
X5531176D01*
Y29370D01*
X5541176D01*
X5580546D02*
Y19370D01*
X5600546D01*
Y29370D01*
X5610546D01*
Y49370D01*
X5600546D01*
Y59370D01*
X5580546D01*
Y49370D01*
X5570546D01*
Y29370D01*
X5580546D01*
X5108106D02*
Y19370D01*
X5128106D01*
Y29370D01*
X5138106D01*
Y49370D01*
X5128106D01*
Y59370D01*
X5108106D01*
Y49370D01*
X5098106D01*
Y29370D01*
X5108106D01*
X5147476D02*
Y19370D01*
X5167476D01*
Y29370D01*
X5177476D01*
Y49370D01*
X5167476D01*
Y59370D01*
X5147476D01*
Y49370D01*
X5137476D01*
Y29370D01*
X5147476D01*
X5186846D02*
Y19370D01*
X5206846D01*
Y29370D01*
X5216846D01*
Y49370D01*
X5206846D01*
Y59370D01*
X5186846D01*
Y49370D01*
X5176846D01*
Y29370D01*
X5186846D01*
X5029366D02*
Y19370D01*
X5049366D01*
Y29370D01*
X5059366D01*
Y49370D01*
X5049366D01*
Y59370D01*
X5029366D01*
Y49370D01*
X5019366D01*
Y29370D01*
X5029366D01*
X5068736D02*
Y19370D01*
X5088736D01*
Y29370D01*
X5098736D01*
Y49370D01*
X5088736D01*
Y59370D01*
X5068736D01*
Y49370D01*
X5058736D01*
Y29370D01*
X5068736D01*
X4989996D02*
Y19370D01*
X5009996D01*
Y29370D01*
X5019996D01*
Y49370D01*
X5009996D01*
Y59370D01*
X4989996D01*
Y49370D01*
X4979996D01*
Y29370D01*
X4989996D01*
X4950626D02*
Y19370D01*
X4970626D01*
Y29370D01*
X4980626D01*
Y49370D01*
X4970626D01*
Y59370D01*
X4950626D01*
Y49370D01*
X4940626D01*
Y29370D01*
X4950626D01*
X4911256D02*
Y19370D01*
X4931256D01*
Y29370D01*
X4941256D01*
Y49370D01*
X4931256D01*
Y59370D01*
X4911256D01*
Y49370D01*
X4901256D01*
Y29370D01*
X4911256D01*
X4871886D02*
Y19370D01*
X4891886D01*
Y29370D01*
X4901886D01*
Y49370D01*
X4891886D01*
Y59370D01*
X4871886D01*
Y49370D01*
X4861886D01*
Y29370D01*
X4871886D01*
X4675036D02*
Y19370D01*
X4695036D01*
Y29370D01*
X4705036D01*
Y49370D01*
X4695036D01*
Y59370D01*
X4675036D01*
Y49370D01*
X4665036D01*
Y29370D01*
X4675036D01*
X4714406D02*
Y19370D01*
X4734406D01*
Y29370D01*
X4744406D01*
Y49370D01*
X4734406D01*
Y59370D01*
X4714406D01*
Y49370D01*
X4704406D01*
Y29370D01*
X4714406D01*
X4753776D02*
Y19370D01*
X4773776D01*
Y29370D01*
X4783776D01*
Y49370D01*
X4773776D01*
Y59370D01*
X4753776D01*
Y49370D01*
X4743776D01*
Y29370D01*
X4753776D01*
X4793146D02*
Y19370D01*
X4813146D01*
Y29370D01*
X4823146D01*
Y49370D01*
X4813146D01*
Y59370D01*
X4793146D01*
Y49370D01*
X4783146D01*
Y29370D01*
X4793146D01*
X4832516D02*
Y19370D01*
X4852516D01*
Y29370D01*
X4862516D01*
Y49370D01*
X4852516D01*
Y59370D01*
X4832516D01*
Y49370D01*
X4822516D01*
Y29370D01*
X4832516D01*
X4438816D02*
Y19370D01*
X4458816D01*
Y29370D01*
X4468816D01*
Y49370D01*
X4458816D01*
Y59370D01*
X4438816D01*
Y49370D01*
X4428816D01*
Y29370D01*
X4438816D01*
X4399446D02*
Y19370D01*
X4419446D01*
Y29370D01*
X4429446D01*
Y49370D01*
X4419446D01*
Y59370D01*
X4399446D01*
Y49370D01*
X4389446D01*
Y29370D01*
X4399446D01*
X4360076D02*
Y19370D01*
X4380076D01*
Y29370D01*
X4390076D01*
Y49370D01*
X4380076D01*
Y59370D01*
X4360076D01*
Y49370D01*
X4350076D01*
Y29370D01*
X4360076D01*
X4320706D02*
Y19370D01*
X4340706D01*
Y29370D01*
X4350706D01*
Y49370D01*
X4340706D01*
Y59370D01*
X4320706D01*
Y49370D01*
X4310706D01*
Y29370D01*
X4320706D01*
X4281336D02*
Y19370D01*
X4301336D01*
Y29370D01*
X4311336D01*
Y49370D01*
X4301336D01*
Y59370D01*
X4281336D01*
Y49370D01*
X4271336D01*
Y29370D01*
X4281336D01*
X4478186D02*
Y19370D01*
X4498186D01*
Y29370D01*
X4508186D01*
Y49370D01*
X4498186D01*
Y59370D01*
X4478186D01*
Y49370D01*
X4468186D01*
Y29370D01*
X4478186D01*
X4517556D02*
Y19370D01*
X4537556D01*
Y29370D01*
X4547556D01*
Y49370D01*
X4537556D01*
Y59370D01*
X4517556D01*
Y49370D01*
X4507556D01*
Y29370D01*
X4517556D01*
X4556926D02*
Y19370D01*
X4576926D01*
Y29370D01*
X4586926D01*
Y49370D01*
X4576926D01*
Y59370D01*
X4556926D01*
Y49370D01*
X4546926D01*
Y29370D01*
X4556926D01*
X4596296D02*
Y19370D01*
X4616296D01*
Y29370D01*
X4626296D01*
Y49370D01*
X4616296D01*
Y59370D01*
X4596296D01*
Y49370D01*
X4586296D01*
Y29370D01*
X4596296D01*
X4635666D02*
Y19370D01*
X4655666D01*
Y29370D01*
X4665666D01*
Y49370D01*
X4655666D01*
Y59370D01*
X4635666D01*
Y49370D01*
X4625666D01*
Y29370D01*
X4635666D01*
X4163226D02*
Y19370D01*
X4183226D01*
Y29370D01*
X4193226D01*
Y49370D01*
X4183226D01*
Y59370D01*
X4163226D01*
Y49370D01*
X4153226D01*
Y29370D01*
X4163226D01*
X4202596D02*
Y19370D01*
X4222596D01*
Y29370D01*
X4232596D01*
Y49370D01*
X4222596D01*
Y59370D01*
X4202596D01*
Y49370D01*
X4192596D01*
Y29370D01*
X4202596D01*
X4241966D02*
Y19370D01*
X4261966D01*
Y29370D01*
X4271966D01*
Y49370D01*
X4261966D01*
Y59370D01*
X4241966D01*
Y49370D01*
X4231966D01*
Y29370D01*
X4241966D01*
X4084486D02*
Y19370D01*
X4104486D01*
Y29370D01*
X4114486D01*
Y49370D01*
X4104486D01*
Y59370D01*
X4084486D01*
Y49370D01*
X4074486D01*
Y29370D01*
X4084486D01*
X4123856D02*
Y19370D01*
X4143856D01*
Y29370D01*
X4153856D01*
Y49370D01*
X4143856D01*
Y59370D01*
X4123856D01*
Y49370D01*
X4113856D01*
Y29370D01*
X4123856D01*
X4045116D02*
Y19370D01*
X4065116D01*
Y29370D01*
X4075116D01*
Y49370D01*
X4065116D01*
Y59370D01*
X4045116D01*
Y49370D01*
X4035116D01*
Y29370D01*
X4045116D01*
X4005746D02*
Y19370D01*
X4025746D01*
Y29370D01*
X4035746D01*
Y49370D01*
X4025746D01*
Y59370D01*
X4005746D01*
Y49370D01*
X3995746D01*
Y29370D01*
X4005746D01*
X3966376D02*
Y19370D01*
X3986376D01*
Y29370D01*
X3996376D01*
Y49370D01*
X3986376D01*
Y59370D01*
X3966376D01*
Y49370D01*
X3956376D01*
Y29370D01*
X3966376D01*
X3927006D02*
Y19370D01*
X3947006D01*
Y29370D01*
X3957006D01*
Y49370D01*
X3947006D01*
Y59370D01*
X3927006D01*
Y49370D01*
X3917006D01*
Y29370D01*
X3927006D01*
X3730156D02*
Y19370D01*
X3750156D01*
Y29370D01*
X3760156D01*
Y49370D01*
X3750156D01*
Y59370D01*
X3730156D01*
Y49370D01*
X3720156D01*
Y29370D01*
X3730156D01*
X3769526D02*
Y19370D01*
X3789526D01*
Y29370D01*
X3799526D01*
Y49370D01*
X3789526D01*
Y59370D01*
X3769526D01*
Y49370D01*
X3759526D01*
Y29370D01*
X3769526D01*
X3808896D02*
Y19370D01*
X3828896D01*
Y29370D01*
X3838896D01*
Y49370D01*
X3828896D01*
Y59370D01*
X3808896D01*
Y49370D01*
X3798896D01*
Y29370D01*
X3808896D01*
X3848266D02*
Y19370D01*
X3868266D01*
Y29370D01*
X3878266D01*
Y49370D01*
X3868266D01*
Y59370D01*
X3848266D01*
Y49370D01*
X3838266D01*
Y29370D01*
X3848266D01*
X3887636D02*
Y19370D01*
X3907636D01*
Y29370D01*
X3917636D01*
Y49370D01*
X3907636D01*
Y59370D01*
X3887636D01*
Y49370D01*
X3877636D01*
Y29370D01*
X3887636D01*
X3493936D02*
Y19370D01*
X3513936D01*
Y29370D01*
X3523936D01*
Y49370D01*
X3513936D01*
Y59370D01*
X3493936D01*
Y49370D01*
X3483936D01*
Y29370D01*
X3493936D01*
X3454566D02*
Y19370D01*
X3474566D01*
Y29370D01*
X3484566D01*
Y49370D01*
X3474566D01*
Y59370D01*
X3454566D01*
Y49370D01*
X3444566D01*
Y29370D01*
X3454566D01*
X3415196D02*
Y19370D01*
X3435196D01*
Y29370D01*
X3445196D01*
Y49370D01*
X3435196D01*
Y59370D01*
X3415196D01*
Y49370D01*
X3405196D01*
Y29370D01*
X3415196D01*
X3375826D02*
Y19370D01*
X3395826D01*
Y29370D01*
X3405826D01*
Y49370D01*
X3395826D01*
Y59370D01*
X3375826D01*
Y49370D01*
X3365826D01*
Y29370D01*
X3375826D01*
X3336456D02*
Y19370D01*
X3356456D01*
Y29370D01*
X3366456D01*
Y49370D01*
X3356456D01*
Y59370D01*
X3336456D01*
Y49370D01*
X3326456D01*
Y29370D01*
X3336456D01*
X3533306D02*
Y19370D01*
X3553306D01*
Y29370D01*
X3563306D01*
Y49370D01*
X3553306D01*
Y59370D01*
X3533306D01*
Y49370D01*
X3523306D01*
Y29370D01*
X3533306D01*
X3572676D02*
Y19370D01*
X3592676D01*
Y29370D01*
X3602676D01*
Y49370D01*
X3592676D01*
Y59370D01*
X3572676D01*
Y49370D01*
X3562676D01*
Y29370D01*
X3572676D01*
X3612046D02*
Y19370D01*
X3632046D01*
Y29370D01*
X3642046D01*
Y49370D01*
X3632046D01*
Y59370D01*
X3612046D01*
Y49370D01*
X3602046D01*
Y29370D01*
X3612046D01*
X3651416D02*
Y19370D01*
X3671416D01*
Y29370D01*
X3681416D01*
Y49370D01*
X3671416D01*
Y59370D01*
X3651416D01*
Y49370D01*
X3641416D01*
Y29370D01*
X3651416D01*
X3690786D02*
Y19370D01*
X3710786D01*
Y29370D01*
X3720786D01*
Y49370D01*
X3710786D01*
Y59370D01*
X3690786D01*
Y49370D01*
X3680786D01*
Y29370D01*
X3690786D01*
X3218346D02*
Y19370D01*
X3238346D01*
Y29370D01*
X3248346D01*
Y49370D01*
X3238346D01*
Y59370D01*
X3218346D01*
Y49370D01*
X3208346D01*
Y29370D01*
X3218346D01*
X3257716D02*
Y19370D01*
X3277716D01*
Y29370D01*
X3287716D01*
Y49370D01*
X3277716D01*
Y59370D01*
X3257716D01*
Y49370D01*
X3247716D01*
Y29370D01*
X3257716D01*
X3297086D02*
Y19370D01*
X3317086D01*
Y29370D01*
X3327086D01*
Y49370D01*
X3317086D01*
Y59370D01*
X3297086D01*
Y49370D01*
X3287086D01*
Y29370D01*
X3297086D01*
X383706D02*
Y19370D01*
X403706D01*
Y29370D01*
X413706D01*
Y49370D01*
X403706D01*
Y59370D01*
X383706D01*
Y49370D01*
X373706D01*
Y29370D01*
X383706D01*
X344336D02*
Y19370D01*
X364336D01*
Y29370D01*
X374336D01*
Y49370D01*
X364336D01*
Y59370D01*
X344336D01*
Y49370D01*
X334336D01*
Y29370D01*
X344336D01*
X304966D02*
Y19370D01*
X324966D01*
Y29370D01*
X334966D01*
Y49370D01*
X324966D01*
Y59370D01*
X304966D01*
Y49370D01*
X294966D01*
Y29370D01*
X304966D01*
X265596D02*
Y19370D01*
X285596D01*
Y29370D01*
X295596D01*
Y49370D01*
X285596D01*
Y59370D01*
X265596D01*
Y49370D01*
X255596D01*
Y29370D01*
X265596D01*
X226226D02*
Y19370D01*
X246226D01*
Y29370D01*
X256226D01*
Y49370D01*
X246226D01*
Y59370D01*
X226226D01*
Y49370D01*
X216226D01*
Y29370D01*
X226226D01*
X186856D02*
Y19370D01*
X206856D01*
Y29370D01*
X216856D01*
Y49370D01*
X206856D01*
Y59370D01*
X186856D01*
Y49370D01*
X176856D01*
Y29370D01*
X186856D01*
X777406D02*
Y19370D01*
X797406D01*
Y29370D01*
X807406D01*
Y49370D01*
X797406D01*
Y59370D01*
X777406D01*
Y49370D01*
X767406D01*
Y29370D01*
X777406D01*
X738036D02*
Y19370D01*
X758036D01*
Y29370D01*
X768036D01*
Y49370D01*
X758036D01*
Y59370D01*
X738036D01*
Y49370D01*
X728036D01*
Y29370D01*
X738036D01*
X698666D02*
Y19370D01*
X718666D01*
Y29370D01*
X728666D01*
Y49370D01*
X718666D01*
Y59370D01*
X698666D01*
Y49370D01*
X688666D01*
Y29370D01*
X698666D01*
X659296D02*
Y19370D01*
X679296D01*
Y29370D01*
X689296D01*
Y49370D01*
X679296D01*
Y59370D01*
X659296D01*
Y49370D01*
X649296D01*
Y29370D01*
X659296D01*
X619926D02*
Y19370D01*
X639926D01*
Y29370D01*
X649926D01*
Y49370D01*
X639926D01*
Y59370D01*
X619926D01*
Y49370D01*
X609926D01*
Y29370D01*
X619926D01*
X423076D02*
Y19370D01*
X443076D01*
Y29370D01*
X453076D01*
Y49370D01*
X443076D01*
Y59370D01*
X423076D01*
Y49370D01*
X413076D01*
Y29370D01*
X423076D01*
X462446D02*
Y19370D01*
X482446D01*
Y29370D01*
X492446D01*
Y49370D01*
X482446D01*
Y59370D01*
X462446D01*
Y49370D01*
X452446D01*
Y29370D01*
X462446D01*
X501816D02*
Y19370D01*
X521816D01*
Y29370D01*
X531816D01*
Y49370D01*
X521816D01*
Y59370D01*
X501816D01*
Y49370D01*
X491816D01*
Y29370D01*
X501816D01*
X541186D02*
Y19370D01*
X561186D01*
Y29370D01*
X571186D01*
Y49370D01*
X561186D01*
Y59370D01*
X541186D01*
Y49370D01*
X531186D01*
Y29370D01*
X541186D01*
X580556D02*
Y19370D01*
X600556D01*
Y29370D01*
X610556D01*
Y49370D01*
X600556D01*
Y59370D01*
X580556D01*
Y49370D01*
X570556D01*
Y29370D01*
X580556D01*
X1171106D02*
Y19370D01*
X1191106D01*
Y29370D01*
X1201106D01*
Y49370D01*
X1191106D01*
Y59370D01*
X1171106D01*
Y49370D01*
X1161106D01*
Y29370D01*
X1171106D01*
X1131736D02*
Y19370D01*
X1151736D01*
Y29370D01*
X1161736D01*
Y49370D01*
X1151736D01*
Y59370D01*
X1131736D01*
Y49370D01*
X1121736D01*
Y29370D01*
X1131736D01*
X1092366D02*
Y19370D01*
X1112366D01*
Y29370D01*
X1122366D01*
Y49370D01*
X1112366D01*
Y59370D01*
X1092366D01*
Y49370D01*
X1082366D01*
Y29370D01*
X1092366D01*
X1052996D02*
Y19370D01*
X1072996D01*
Y29370D01*
X1082996D01*
Y49370D01*
X1072996D01*
Y59370D01*
X1052996D01*
Y49370D01*
X1042996D01*
Y29370D01*
X1052996D01*
X1013626D02*
Y19370D01*
X1033626D01*
Y29370D01*
X1043626D01*
Y49370D01*
X1033626D01*
Y59370D01*
X1013626D01*
Y49370D01*
X1003626D01*
Y29370D01*
X1013626D01*
X816776D02*
Y19370D01*
X836776D01*
Y29370D01*
X846776D01*
Y49370D01*
X836776D01*
Y59370D01*
X816776D01*
Y49370D01*
X806776D01*
Y29370D01*
X816776D01*
X856146D02*
Y19370D01*
X876146D01*
Y29370D01*
X886146D01*
Y49370D01*
X876146D01*
Y59370D01*
X856146D01*
Y49370D01*
X846146D01*
Y29370D01*
X856146D01*
X895516D02*
Y19370D01*
X915516D01*
Y29370D01*
X925516D01*
Y49370D01*
X915516D01*
Y59370D01*
X895516D01*
Y49370D01*
X885516D01*
Y29370D01*
X895516D01*
X934886D02*
Y19370D01*
X954886D01*
Y29370D01*
X964886D01*
Y49370D01*
X954886D01*
Y59370D01*
X934886D01*
Y49370D01*
X924886D01*
Y29370D01*
X934886D01*
X974256D02*
Y19370D01*
X994256D01*
Y29370D01*
X1004256D01*
Y49370D01*
X994256D01*
Y59370D01*
X974256D01*
Y49370D01*
X964256D01*
Y29370D01*
X974256D01*
X1564806D02*
Y19370D01*
X1584806D01*
Y29370D01*
X1594806D01*
Y49370D01*
X1584806D01*
Y59370D01*
X1564806D01*
Y49370D01*
X1554806D01*
Y29370D01*
X1564806D01*
X1525436D02*
Y19370D01*
X1545436D01*
Y29370D01*
X1555436D01*
Y49370D01*
X1545436D01*
Y59370D01*
X1525436D01*
Y49370D01*
X1515436D01*
Y29370D01*
X1525436D01*
X1486066D02*
Y19370D01*
X1506066D01*
Y29370D01*
X1516066D01*
Y49370D01*
X1506066D01*
Y59370D01*
X1486066D01*
Y49370D01*
X1476066D01*
Y29370D01*
X1486066D01*
X1446696D02*
Y19370D01*
X1466696D01*
Y29370D01*
X1476696D01*
Y49370D01*
X1466696D01*
Y59370D01*
X1446696D01*
Y49370D01*
X1436696D01*
Y29370D01*
X1446696D01*
X1407326D02*
Y19370D01*
X1427326D01*
Y29370D01*
X1437326D01*
Y49370D01*
X1427326D01*
Y59370D01*
X1407326D01*
Y49370D01*
X1397326D01*
Y29370D01*
X1407326D01*
X1210476D02*
Y19370D01*
X1230476D01*
Y29370D01*
X1240476D01*
Y49370D01*
X1230476D01*
Y59370D01*
X1210476D01*
Y49370D01*
X1200476D01*
Y29370D01*
X1210476D01*
X1249846D02*
Y19370D01*
X1269846D01*
Y29370D01*
X1279846D01*
Y49370D01*
X1269846D01*
Y59370D01*
X1249846D01*
Y49370D01*
X1239846D01*
Y29370D01*
X1249846D01*
X1289216D02*
Y19370D01*
X1309216D01*
Y29370D01*
X1319216D01*
Y49370D01*
X1309216D01*
Y59370D01*
X1289216D01*
Y49370D01*
X1279216D01*
Y29370D01*
X1289216D01*
X1328586D02*
Y19370D01*
X1348586D01*
Y29370D01*
X1358586D01*
Y49370D01*
X1348586D01*
Y59370D01*
X1328586D01*
Y49370D01*
X1318586D01*
Y29370D01*
X1328586D01*
X1367956D02*
Y19370D01*
X1387956D01*
Y29370D01*
X1397956D01*
Y49370D01*
X1387956D01*
Y59370D01*
X1367956D01*
Y49370D01*
X1357956D01*
Y29370D01*
X1367956D01*
X1958506D02*
Y19370D01*
X1978506D01*
Y29370D01*
X1988506D01*
Y49370D01*
X1978506D01*
Y59370D01*
X1958506D01*
Y49370D01*
X1948506D01*
Y29370D01*
X1958506D01*
X1919136D02*
Y19370D01*
X1939136D01*
Y29370D01*
X1949136D01*
Y49370D01*
X1939136D01*
Y59370D01*
X1919136D01*
Y49370D01*
X1909136D01*
Y29370D01*
X1919136D01*
X1879766D02*
Y19370D01*
X1899766D01*
Y29370D01*
X1909766D01*
Y49370D01*
X1899766D01*
Y59370D01*
X1879766D01*
Y49370D01*
X1869766D01*
Y29370D01*
X1879766D01*
X1840396D02*
Y19370D01*
X1860396D01*
Y29370D01*
X1870396D01*
Y49370D01*
X1860396D01*
Y59370D01*
X1840396D01*
Y49370D01*
X1830396D01*
Y29370D01*
X1840396D01*
X1801026D02*
Y19370D01*
X1821026D01*
Y29370D01*
X1831026D01*
Y49370D01*
X1821026D01*
Y59370D01*
X1801026D01*
Y49370D01*
X1791026D01*
Y29370D01*
X1801026D01*
X1604176D02*
Y19370D01*
X1624176D01*
Y29370D01*
X1634176D01*
Y49370D01*
X1624176D01*
Y59370D01*
X1604176D01*
Y49370D01*
X1594176D01*
Y29370D01*
X1604176D01*
X1643546D02*
Y19370D01*
X1663546D01*
Y29370D01*
X1673546D01*
Y49370D01*
X1663546D01*
Y59370D01*
X1643546D01*
Y49370D01*
X1633546D01*
Y29370D01*
X1643546D01*
X1682916D02*
Y19370D01*
X1702916D01*
Y29370D01*
X1712916D01*
Y49370D01*
X1702916D01*
Y59370D01*
X1682916D01*
Y49370D01*
X1672916D01*
Y29370D01*
X1682916D01*
X1722286D02*
Y19370D01*
X1742286D01*
Y29370D01*
X1752286D01*
Y49370D01*
X1742286D01*
Y59370D01*
X1722286D01*
Y49370D01*
X1712286D01*
Y29370D01*
X1722286D01*
X1761656D02*
Y19370D01*
X1781656D01*
Y29370D01*
X1791656D01*
Y49370D01*
X1781656D01*
Y59370D01*
X1761656D01*
Y49370D01*
X1751656D01*
Y29370D01*
X1761656D01*
X2352206D02*
Y19370D01*
X2372206D01*
Y29370D01*
X2382206D01*
Y49370D01*
X2372206D01*
Y59370D01*
X2352206D01*
Y49370D01*
X2342206D01*
Y29370D01*
X2352206D01*
X2312836D02*
Y19370D01*
X2332836D01*
Y29370D01*
X2342836D01*
Y49370D01*
X2332836D01*
Y59370D01*
X2312836D01*
Y49370D01*
X2302836D01*
Y29370D01*
X2312836D01*
X2273466D02*
Y19370D01*
X2293466D01*
Y29370D01*
X2303466D01*
Y49370D01*
X2293466D01*
Y59370D01*
X2273466D01*
Y49370D01*
X2263466D01*
Y29370D01*
X2273466D01*
X2234096D02*
Y19370D01*
X2254096D01*
Y29370D01*
X2264096D01*
Y49370D01*
X2254096D01*
Y59370D01*
X2234096D01*
Y49370D01*
X2224096D01*
Y29370D01*
X2234096D01*
X2194726D02*
Y19370D01*
X2214726D01*
Y29370D01*
X2224726D01*
Y49370D01*
X2214726D01*
Y59370D01*
X2194726D01*
Y49370D01*
X2184726D01*
Y29370D01*
X2194726D01*
X1997876D02*
Y19370D01*
X2017876D01*
Y29370D01*
X2027876D01*
Y49370D01*
X2017876D01*
Y59370D01*
X1997876D01*
Y49370D01*
X1987876D01*
Y29370D01*
X1997876D01*
X2037246D02*
Y19370D01*
X2057246D01*
Y29370D01*
X2067246D01*
Y49370D01*
X2057246D01*
Y59370D01*
X2037246D01*
Y49370D01*
X2027246D01*
Y29370D01*
X2037246D01*
X2076616D02*
Y19370D01*
X2096616D01*
Y29370D01*
X2106616D01*
Y49370D01*
X2096616D01*
Y59370D01*
X2076616D01*
Y49370D01*
X2066616D01*
Y29370D01*
X2076616D01*
X2115986D02*
Y19370D01*
X2135986D01*
Y29370D01*
X2145986D01*
Y49370D01*
X2135986D01*
Y59370D01*
X2115986D01*
Y49370D01*
X2105986D01*
Y29370D01*
X2115986D01*
X2155356D02*
Y19370D01*
X2175356D01*
Y29370D01*
X2185356D01*
Y49370D01*
X2175356D01*
Y59370D01*
X2155356D01*
Y49370D01*
X2145356D01*
Y29370D01*
X2155356D01*
X2745906D02*
Y19370D01*
X2765906D01*
Y29370D01*
X2775906D01*
Y49370D01*
X2765906D01*
Y59370D01*
X2745906D01*
Y49370D01*
X2735906D01*
Y29370D01*
X2745906D01*
X2706536D02*
Y19370D01*
X2726536D01*
Y29370D01*
X2736536D01*
Y49370D01*
X2726536D01*
Y59370D01*
X2706536D01*
Y49370D01*
X2696536D01*
Y29370D01*
X2706536D01*
X2667166D02*
Y19370D01*
X2687166D01*
Y29370D01*
X2697166D01*
Y49370D01*
X2687166D01*
Y59370D01*
X2667166D01*
Y49370D01*
X2657166D01*
Y29370D01*
X2667166D01*
X2627796D02*
Y19370D01*
X2647796D01*
Y29370D01*
X2657796D01*
Y49370D01*
X2647796D01*
Y59370D01*
X2627796D01*
Y49370D01*
X2617796D01*
Y29370D01*
X2627796D01*
X2588426D02*
Y19370D01*
X2608426D01*
Y29370D01*
X2618426D01*
Y49370D01*
X2608426D01*
Y59370D01*
X2588426D01*
Y49370D01*
X2578426D01*
Y29370D01*
X2588426D01*
X2391576D02*
Y19370D01*
X2411576D01*
Y29370D01*
X2421576D01*
Y49370D01*
X2411576D01*
Y59370D01*
X2391576D01*
Y49370D01*
X2381576D01*
Y29370D01*
X2391576D01*
X2430946D02*
Y19370D01*
X2450946D01*
Y29370D01*
X2460946D01*
Y49370D01*
X2450946D01*
Y59370D01*
X2430946D01*
Y49370D01*
X2420946D01*
Y29370D01*
X2430946D01*
X2470316D02*
Y19370D01*
X2490316D01*
Y29370D01*
X2500316D01*
Y49370D01*
X2490316D01*
Y59370D01*
X2470316D01*
Y49370D01*
X2460316D01*
Y29370D01*
X2470316D01*
X2509686D02*
Y19370D01*
X2529686D01*
Y29370D01*
X2539686D01*
Y49370D01*
X2529686D01*
Y59370D01*
X2509686D01*
Y49370D01*
X2499686D01*
Y29370D01*
X2509686D01*
X2549056D02*
Y19370D01*
X2569056D01*
Y29370D01*
X2579056D01*
Y49370D01*
X2569056D01*
Y59370D01*
X2549056D01*
Y49370D01*
X2539056D01*
Y29370D01*
X2549056D01*
X2942756D02*
Y19370D01*
X2962756D01*
Y29370D01*
X2972756D01*
Y49370D01*
X2962756D01*
Y59370D01*
X2942756D01*
Y49370D01*
X2932756D01*
Y29370D01*
X2942756D01*
X2903386D02*
Y19370D01*
X2923386D01*
Y29370D01*
X2933386D01*
Y49370D01*
X2923386D01*
Y59370D01*
X2903386D01*
Y49370D01*
X2893386D01*
Y29370D01*
X2903386D01*
X2864016D02*
Y19370D01*
X2884016D01*
Y29370D01*
X2894016D01*
Y49370D01*
X2884016D01*
Y59370D01*
X2864016D01*
Y49370D01*
X2854016D01*
Y29370D01*
X2864016D01*
X2824646D02*
Y19370D01*
X2844646D01*
Y29370D01*
X2854646D01*
Y49370D01*
X2844646D01*
Y59370D01*
X2824646D01*
Y49370D01*
X2814646D01*
Y29370D01*
X2824646D01*
X2785276D02*
Y19370D01*
X2805276D01*
Y29370D01*
X2815276D01*
Y49370D01*
X2805276D01*
Y59370D01*
X2785276D01*
Y49370D01*
X2775276D01*
Y29370D01*
X2785276D01*
X2982126D02*
Y19370D01*
X3002126D01*
Y29370D01*
X3012126D01*
Y49370D01*
X3002126D01*
Y59370D01*
X2982126D01*
Y49370D01*
X2972126D01*
Y29370D01*
X2982126D01*
X3021496D02*
Y19370D01*
X3041496D01*
Y29370D01*
X3051496D01*
Y49370D01*
X3041496D01*
Y59370D01*
X3021496D01*
Y49370D01*
X3011496D01*
Y29370D01*
X3021496D01*
X3060866D02*
Y19370D01*
X3080866D01*
Y29370D01*
X3090866D01*
Y49370D01*
X3080866D01*
Y59370D01*
X3060866D01*
Y49370D01*
X3050866D01*
Y29370D01*
X3060866D01*
X3100236D02*
Y19370D01*
X3120236D01*
Y29370D01*
X3130236D01*
Y49370D01*
X3120236D01*
Y59370D01*
X3100236D01*
Y49370D01*
X3090236D01*
Y29370D01*
X3100236D01*
X3178976D02*
Y19370D01*
X3198976D01*
Y29370D01*
X3208976D01*
Y49370D01*
X3198976D01*
Y59370D01*
X3178976D01*
Y49370D01*
X3168976D01*
Y29370D01*
X3178976D01*
X3139606D02*
Y19370D01*
X3159606D01*
Y29370D01*
X3169606D01*
Y49370D01*
X3159606D01*
Y59370D01*
X3139606D01*
Y49370D01*
X3129606D01*
Y29370D01*
X3139606D01*
X10294961Y98110D02*
X10304961D01*
X10314961Y108110D01*
X10324961Y98110D01*
X10334961D01*
Y108110D01*
X10324961Y118110D01*
X10334961Y128110D01*
Y138110D01*
X10324961D01*
X10314961Y128110D01*
X10304961Y138110D01*
X10294961D01*
Y128110D01*
X10304961Y118110D01*
X10294961Y108110D01*
Y98110D01*
Y5767402D02*
X10304961D01*
X10314961Y5777402D01*
X10324961Y5767402D01*
X10334961D01*
Y5777402D01*
X10324961Y5787402D01*
X10334961Y5797402D01*
Y5807402D01*
X10324961D01*
X10314961Y5797402D01*
X10304961Y5807402D01*
X10294961D01*
Y5797402D01*
X10304961Y5787402D01*
X10294961Y5777402D01*
Y5767402D01*
X98110D02*
X108110D01*
X118110Y5777402D01*
X128110Y5767402D01*
X138110D01*
Y5777402D01*
X128110Y5787402D01*
X138110Y5797402D01*
Y5807402D01*
X128110D01*
X118110Y5797402D01*
X108110Y5807402D01*
X98110D01*
Y5797402D01*
X108110Y5787402D01*
X98110Y5777402D01*
Y5767402D01*
Y98110D02*
X108110D01*
X118110Y108110D01*
X128110Y98110D01*
X138110D01*
Y108110D01*
X128110Y118110D01*
X138110Y128110D01*
Y138110D01*
X128110D01*
X118110Y128110D01*
X108110Y138110D01*
X98110D01*
Y128110D01*
X108110Y118110D01*
X98110Y108110D01*
Y98110D01*
X3520122Y2735905D02*
X3530122D01*
X3540122Y2745905D01*
X3550122Y2735905D01*
X3560122D01*
Y2745905D01*
X3550122Y2755905D01*
X3560122Y2765905D01*
Y2775905D01*
X3550122D01*
X3540122Y2765905D01*
X3530122Y2775905D01*
X3520122D01*
Y2765905D01*
X3530122Y2755905D01*
X3520122Y2745905D01*
Y2735905D01*
Y4310709D02*
X3530122D01*
X3540122Y4320709D01*
X3550122Y4310709D01*
X3560122D01*
Y4320709D01*
X3550122Y4330709D01*
X3560122Y4340709D01*
Y4350709D01*
X3550122D01*
X3540122Y4340709D01*
X3530122Y4350709D01*
X3520122D01*
Y4340709D01*
X3530122Y4330709D01*
X3520122Y4320709D01*
Y4310709D01*
X6669728Y2735905D02*
X6679728D01*
X6689728Y2745905D01*
X6699728Y2735905D01*
X6709728D01*
Y2745905D01*
X6699728Y2755905D01*
X6709728Y2765905D01*
Y2775905D01*
X6699728D01*
X6689728Y2765905D01*
X6679728Y2775905D01*
X6669728D01*
Y2765905D01*
X6679728Y2755905D01*
X6669728Y2745905D01*
Y2735905D01*
Y4310709D02*
X6679728D01*
X6689728Y4320709D01*
X6699728Y4310709D01*
X6709728D01*
Y4320709D01*
X6699728Y4330709D01*
X6709728Y4340709D01*
Y4350709D01*
X6699728D01*
X6689728Y4340709D01*
X6679728Y4350709D01*
X6669728D01*
Y4340709D01*
X6679728Y4330709D01*
X6669728Y4320709D01*
Y4310709D01*
X6141417Y4218307D02*
X6161417Y4238307D01*
X6181417Y4218307D01*
X6161417Y4198307D01*
X6141417Y4218307D01*
X3935000Y4820000D02*
X3955000Y4840000D01*
X3975000Y4820000D01*
X3955000Y4800000D01*
X3935000Y4820000D01*
X4886221Y4144764D02*
X4906221Y4164764D01*
X4926221Y4144764D01*
X4906221Y4124764D01*
X4886221Y4144764D01*
X6377638Y3118307D02*
X6397638Y3138307D01*
X6417638Y3118307D01*
X6397638Y3098307D01*
X6377638Y3118307D01*
Y2918307D02*
X6397638Y2938307D01*
X6417638Y2918307D01*
X6397638Y2898307D01*
X6377638Y2918307D01*
X8920000Y3231102D02*
X8940000Y3251102D01*
X8960000Y3231102D01*
X8940000Y3211102D01*
X8920000Y3231102D01*
X9001654Y3838583D02*
X9021654Y3858583D01*
X9041654Y3838583D01*
X9021654Y3818583D01*
X9001654Y3838583D01*
X8123193Y4429134D02*
X8143193Y4449134D01*
X8163193Y4429134D01*
X8143193Y4409134D01*
X8123193Y4429134D01*
X7772799Y3248032D02*
X7792799Y3268032D01*
X7812799Y3248032D01*
X7792799Y3228032D01*
X7772799Y3248032D01*
Y3838583D02*
X7792799Y3858583D01*
X7812799Y3838583D01*
X7792799Y3818583D01*
X7772799Y3838583D01*
Y4429134D02*
X7792799Y4449134D01*
X7812799Y4429134D01*
X7792799Y4409134D01*
X7772799Y4429134D01*
X9625709Y2566929D02*
X9645709Y2586929D01*
X9665709Y2566929D01*
X9645709Y2546929D01*
X9625709Y2566929D01*
Y3157480D02*
X9645709Y3177480D01*
X9665709Y3157480D01*
X9645709Y3137480D01*
X9625709Y3157480D01*
X3602047Y3818307D02*
X3622047Y3838307D01*
X3642047Y3818307D01*
X3622047Y3798307D01*
X3602047Y3818307D01*
X9696575Y3153898D02*
X9716575Y3173898D01*
X9736575Y3153898D01*
X9716575Y3133898D01*
X9696575Y3153898D01*
X3602047Y3868307D02*
X3622047Y3888307D01*
X3642047Y3868307D01*
X3622047Y3848307D01*
X3602047Y3868307D01*
X9625709Y3748032D02*
X9645709Y3768032D01*
X9665709Y3748032D01*
X9645709Y3728032D01*
X9625709Y3748032D01*
X3602047Y3918307D02*
X3622047Y3938307D01*
X3642047Y3918307D01*
X3622047Y3898307D01*
X3602047Y3918307D01*
X9696575Y3744449D02*
X9716575Y3764449D01*
X9736575Y3744449D01*
X9716575Y3724449D01*
X9696575Y3744449D01*
X3602047Y3968307D02*
X3622047Y3988307D01*
X3642047Y3968307D01*
X3622047Y3948307D01*
X3602047Y3968307D01*
X9625709Y4338583D02*
X9645709Y4358583D01*
X9665709Y4338583D01*
X9645709Y4318583D01*
X9625709Y4338583D01*
X3602047Y4018307D02*
X3622047Y4038307D01*
X3642047Y4018307D01*
X3622047Y3998307D01*
X3602047Y4018307D01*
X9696575Y4335000D02*
X9716575Y4355000D01*
X9736575Y4335000D01*
X9716575Y4315000D01*
X9696575Y4335000D01*
X3602047Y4068307D02*
X3622047Y4088307D01*
X3642047Y4068307D01*
X3622047Y4048307D01*
X3602047Y4068307D01*
X9696575Y2563346D02*
X9716575Y2583346D01*
X9736575Y2563346D01*
X9716575Y2543346D01*
X9696575Y2563346D01*
X9753661Y2606299D02*
X9773661Y2626299D01*
X9793661Y2606299D01*
X9773661Y2586299D01*
X9753661Y2606299D01*
X9580000Y2738346D02*
X9600000Y2758346D01*
X9620000Y2738346D01*
X9600000Y2718346D01*
X9580000Y2738346D01*
X9643425D02*
X9663425Y2758346D01*
X9683425Y2738346D01*
X9663425Y2718346D01*
X9643425Y2738346D01*
X9753661Y2708661D02*
X9773661Y2728661D01*
X9793661Y2708661D01*
X9773661Y2688661D01*
X9753661Y2708661D01*
X9661142Y2565298D02*
X9681142Y2585298D01*
X9701142Y2565298D01*
X9681142Y2545298D01*
X9661142Y2565298D01*
X10058740Y2606299D02*
X10078740Y2626299D01*
X10098740Y2606299D01*
X10078740Y2586299D01*
X10058740Y2606299D01*
Y2631890D02*
X10078740Y2651890D01*
X10098740Y2631890D01*
X10078740Y2611890D01*
X10058740Y2631890D01*
Y2657480D02*
X10078740Y2677480D01*
X10098740Y2657480D01*
X10078740Y2637480D01*
X10058740Y2657480D01*
X9753661Y3196850D02*
X9773661Y3216850D01*
X9793661Y3196850D01*
X9773661Y3176850D01*
X9753661Y3196850D01*
X9580000Y3328898D02*
X9600000Y3348898D01*
X9620000Y3328898D01*
X9600000Y3308898D01*
X9580000Y3328898D01*
X9643425D02*
X9663425Y3348898D01*
X9683425Y3328898D01*
X9663425Y3308898D01*
X9643425Y3328898D01*
X9753661Y3299213D02*
X9773661Y3319213D01*
X9793661Y3299213D01*
X9773661Y3279213D01*
X9753661Y3299213D01*
X9661142Y3155849D02*
X9681142Y3175849D01*
X9701142Y3155849D01*
X9681142Y3135849D01*
X9661142Y3155849D01*
X10058740Y3196850D02*
X10078740Y3216850D01*
X10098740Y3196850D01*
X10078740Y3176850D01*
X10058740Y3196850D01*
Y3222441D02*
X10078740Y3242441D01*
X10098740Y3222441D01*
X10078740Y3202441D01*
X10058740Y3222441D01*
Y3248032D02*
X10078740Y3268032D01*
X10098740Y3248032D01*
X10078740Y3228032D01*
X10058740Y3248032D01*
Y3838583D02*
X10078740Y3858583D01*
X10098740Y3838583D01*
X10078740Y3818583D01*
X10058740Y3838583D01*
Y3812992D02*
X10078740Y3832992D01*
X10098740Y3812992D01*
X10078740Y3792992D01*
X10058740Y3812992D01*
Y3787402D02*
X10078740Y3807402D01*
X10098740Y3787402D01*
X10078740Y3767402D01*
X10058740Y3787402D01*
X9661142Y3746401D02*
X9681142Y3766401D01*
X9701142Y3746401D01*
X9681142Y3726401D01*
X9661142Y3746401D01*
X9753661Y3889764D02*
X9773661Y3909764D01*
X9793661Y3889764D01*
X9773661Y3869764D01*
X9753661Y3889764D01*
X9643425Y3919449D02*
X9663425Y3939449D01*
X9683425Y3919449D01*
X9663425Y3899449D01*
X9643425Y3919449D01*
X9580000D02*
X9600000Y3939449D01*
X9620000Y3919449D01*
X9600000Y3899449D01*
X9580000Y3919449D01*
X9753661Y3787402D02*
X9773661Y3807402D01*
X9793661Y3787402D01*
X9773661Y3767402D01*
X9753661Y3787402D01*
Y4377953D02*
X9773661Y4397953D01*
X9793661Y4377953D01*
X9773661Y4357953D01*
X9753661Y4377953D01*
X9580000Y4510000D02*
X9600000Y4530000D01*
X9620000Y4510000D01*
X9600000Y4490000D01*
X9580000Y4510000D01*
X9643425D02*
X9663425Y4530000D01*
X9683425Y4510000D01*
X9663425Y4490000D01*
X9643425Y4510000D01*
X9753661Y4480315D02*
X9773661Y4500315D01*
X9793661Y4480315D01*
X9773661Y4460315D01*
X9753661Y4480315D01*
X9661142Y4336952D02*
X9681142Y4356952D01*
X9701142Y4336952D01*
X9681142Y4316952D01*
X9661142Y4336952D01*
X10058740Y4377953D02*
X10078740Y4397953D01*
X10098740Y4377953D01*
X10078740Y4357953D01*
X10058740Y4377953D01*
Y4403543D02*
X10078740Y4423543D01*
X10098740Y4403543D01*
X10078740Y4383543D01*
X10058740Y4403543D01*
Y4429134D02*
X10078740Y4449134D01*
X10098740Y4429134D01*
X10078740Y4409134D01*
X10058740Y4429134D01*
X5128819Y5436539D02*
X5148819Y5456539D01*
X5168819Y5436539D01*
X5148819Y5416539D01*
X5128819Y5436539D01*
X4928819D02*
X4948819Y5456539D01*
X4968819Y5436539D01*
X4948819Y5416539D01*
X4928819Y5436539D01*
X5713071D02*
X5733071Y5456539D01*
X5753071Y5436539D01*
X5733071Y5416539D01*
X5713071Y5436539D01*
X5028819D02*
X5048819Y5456539D01*
X5068819Y5436539D01*
X5048819Y5416539D01*
X5028819Y5436539D01*
X4828819D02*
X4848819Y5456539D01*
X4868819Y5436539D01*
X4848819Y5416539D01*
X4828819Y5436539D01*
X5228819D02*
X5248819Y5456539D01*
X5268819Y5436539D01*
X5248819Y5416539D01*
X5228819Y5436539D01*
X5613071D02*
X5633071Y5456539D01*
X5653071Y5436539D01*
X5633071Y5416539D01*
X5613071Y5436539D01*
X4153228Y4168307D02*
X4173228Y4188307D01*
X4193228Y4168307D01*
X4173228Y4148307D01*
X4153228Y4168307D01*
X4000095Y5381382D02*
X4020095Y5401382D01*
X4040095Y5381382D01*
X4020095Y5361382D01*
X4000095Y5381382D01*
X6141417Y4018307D02*
X6161417Y4038307D01*
X6181417Y4018307D01*
X6161417Y3998307D01*
X6141417Y4018307D01*
Y4068307D02*
X6161417Y4088307D01*
X6181417Y4068307D01*
X6161417Y4048307D01*
X6141417Y4068307D01*
Y4118307D02*
X6161417Y4138307D01*
X6181417Y4118307D01*
X6161417Y4098307D01*
X6141417Y4118307D01*
Y3968307D02*
X6161417Y3988307D01*
X6181417Y3968307D01*
X6161417Y3948307D01*
X6141417Y3968307D01*
Y3918307D02*
X6161417Y3938307D01*
X6181417Y3918307D01*
X6161417Y3898307D01*
X6141417Y3918307D01*
Y3868307D02*
X6161417Y3888307D01*
X6181417Y3868307D01*
X6161417Y3848307D01*
X6141417Y3868307D01*
Y3768307D02*
X6161417Y3788307D01*
X6181417Y3768307D01*
X6161417Y3748307D01*
X6141417Y3768307D01*
Y3818307D02*
X6161417Y3838307D01*
X6181417Y3818307D01*
X6161417Y3798307D01*
X6141417Y3818307D01*
Y4168307D02*
X6161417Y4188307D01*
X6181417Y4168307D01*
X6161417Y4148307D01*
X6141417Y4168307D01*
X1512957Y2710000D02*
X1532957Y2730000D01*
X1552957Y2710000D01*
X1532957Y2690000D01*
X1512957Y2710000D01*
X3779213Y2868307D02*
X3799213Y2888307D01*
X3819213Y2868307D01*
X3799213Y2848307D01*
X3779213Y2868307D01*
X3133953Y5381382D02*
X3153953Y5401382D01*
X3173953Y5381382D01*
X3153953Y5361382D01*
X3133953Y5381382D01*
X3084740D02*
X3104740Y5401382D01*
X3124740Y5381382D01*
X3104740Y5361382D01*
X3084740Y5381382D01*
X2986315D02*
X3006315Y5401382D01*
X3026315Y5381382D01*
X3006315Y5361382D01*
X2986315Y5381382D01*
X1789449Y2772894D02*
X1809449Y2792894D01*
X1829449Y2772894D01*
X1809449Y2752894D01*
X1789449Y2772894D01*
X1860906Y3873032D02*
X1880906Y3893032D01*
X1900906Y3873032D01*
X1880906Y3853032D01*
X1860906Y3873032D01*
Y4109252D02*
X1880906Y4129252D01*
X1900906Y4109252D01*
X1880906Y4089252D01*
X1860906Y4109252D01*
X1121732Y3387795D02*
X1141732Y3407795D01*
X1161732Y3387795D01*
X1141732Y3367795D01*
X1121732Y3387795D01*
Y3425197D02*
X1141732Y3445197D01*
X1161732Y3425197D01*
X1141732Y3405197D01*
X1121732Y3425197D01*
X1694173Y5436539D02*
X1714173Y5456539D01*
X1734173Y5436539D01*
X1714173Y5416539D01*
X1694173Y5436539D01*
X1003622Y5314961D02*
X1023622Y5334961D01*
X1043622Y5314961D01*
X1023622Y5294961D01*
X1003622Y5314961D01*
X528705Y2731457D02*
X548705Y2751457D01*
X568705Y2731457D01*
X548705Y2711457D01*
X528705Y2731457D01*
X449965Y3937008D02*
X469965Y3957008D01*
X489965Y3937008D01*
X469965Y3917008D01*
X449965Y3937008D01*
X1554803Y3352362D02*
X1574803Y3372362D01*
X1594803Y3352362D01*
X1574803Y3332362D01*
X1554803Y3352362D01*
Y3498032D02*
X1574803Y3518032D01*
X1594803Y3498032D01*
X1574803Y3478032D01*
X1554803Y3498032D01*
X1121732Y3462599D02*
X1141732Y3482599D01*
X1161732Y3462599D01*
X1141732Y3442599D01*
X1121732Y3462599D01*
X1078425Y3352362D02*
X1098425Y3372362D01*
X1118425Y3352362D01*
X1098425Y3332362D01*
X1078425Y3352362D01*
X570551D02*
X590551Y3372362D01*
X610551Y3352362D01*
X590551Y3332362D01*
X570551Y3352362D01*
Y3498032D02*
X590551Y3518032D01*
X610551Y3498032D01*
X590551Y3478032D01*
X570551Y3498032D01*
X692712Y3937008D02*
X712712Y3957008D01*
X732712Y3937008D01*
X712712Y3917008D01*
X692712Y3937008D01*
X1094173Y5145000D02*
X1114173Y5165000D01*
X1134173Y5145000D01*
X1114173Y5125000D01*
X1094173Y5145000D01*
X8781181Y3317406D02*
X8801181Y3337406D01*
X8821181Y3317406D01*
X8801181Y3297406D01*
X8781181Y3317406D01*
X6377638Y2968307D02*
X6397638Y2988307D01*
X6417638Y2968307D01*
X6397638Y2948307D01*
X6377638Y2968307D01*
X8932248Y4446063D02*
X8952248Y4466063D01*
X8972248Y4446063D01*
X8952248Y4426063D01*
X8932248Y4446063D01*
Y3855512D02*
X8952248Y3875512D01*
X8972248Y3855512D01*
X8952248Y3835512D01*
X8932248Y3855512D01*
X8781181Y4498508D02*
X8801181Y4518508D01*
X8821181Y4498508D01*
X8801181Y4478508D01*
X8781181Y4498508D01*
Y3907957D02*
X8801181Y3927957D01*
X8821181Y3907957D01*
X8801181Y3887957D01*
X8781181Y3907957D01*
X6141417Y3518307D02*
X6161417Y3538307D01*
X6181417Y3518307D01*
X6161417Y3498307D01*
X6141417Y3518307D01*
Y3568307D02*
X6161417Y3588307D01*
X6181417Y3568307D01*
X6161417Y3548307D01*
X6141417Y3568307D01*
X2617795Y3076772D02*
X2637795Y3096772D01*
X2657795Y3076772D01*
X2637795Y3056772D01*
X2617795Y3076772D01*
Y3864173D02*
X2637795Y3884173D01*
X2657795Y3864173D01*
X2637795Y3844173D01*
X2617795Y3864173D01*
X8877638Y3319571D02*
X8897638Y3339571D01*
X8917638Y3319571D01*
X8897638Y3299571D01*
X8877638Y3319571D01*
X2042484Y4111417D02*
X2062484Y4131417D01*
X2082484Y4111417D01*
X2062484Y4091417D01*
X2042484Y4111417D01*
Y3875197D02*
X2062484Y3895197D01*
X2082484Y3875197D01*
X2062484Y3855197D01*
X2042484Y3875197D01*
X7635118Y3339256D02*
X7655118Y3359256D01*
X7675118Y3339256D01*
X7655118Y3319256D01*
X7635118Y3339256D01*
Y3929807D02*
X7655118Y3949807D01*
X7675118Y3929807D01*
X7655118Y3909807D01*
X7635118Y3929807D01*
Y4520358D02*
X7655118Y4540358D01*
X7675118Y4520358D01*
X7655118Y4500358D01*
X7635118Y4520358D01*
X769878Y2731457D02*
X789878Y2751457D01*
X809878Y2731457D01*
X789878Y2711457D01*
X769878Y2731457D01*
X8724504Y5433071D02*
X8744504Y5453071D01*
X8764504Y5433071D01*
X8744504Y5413071D01*
X8724504Y5433071D01*
X8773717D02*
X8793717Y5453071D01*
X8813717Y5433071D01*
X8793717Y5413071D01*
X8773717Y5433071D01*
X8921354D02*
X8941354Y5453071D01*
X8961354Y5433071D01*
X8941354Y5413071D01*
X8921354Y5433071D01*
X8872142D02*
X8892142Y5453071D01*
X8912142Y5433071D01*
X8892142Y5413071D01*
X8872142Y5433071D01*
X8822929D02*
X8842929Y5453071D01*
X8862929Y5433071D01*
X8842929Y5413071D01*
X8822929Y5433071D01*
X6377638Y3368307D02*
X6397638Y3388307D01*
X6417638Y3368307D01*
X6397638Y3348307D01*
X6377638Y3368307D01*
X6141417D02*
X6161417Y3388307D01*
X6181417Y3368307D01*
X6161417Y3348307D01*
X6141417Y3368307D01*
X5367126Y3397126D02*
X5387126Y3417126D01*
X5407126Y3397126D01*
X5387126Y3377126D01*
X5367126Y3397126D01*
X6141417Y3268307D02*
X6161417Y3288307D01*
X6181417Y3268307D01*
X6161417Y3248307D01*
X6141417Y3268307D01*
X6377638Y3418307D02*
X6397638Y3438307D01*
X6417638Y3418307D01*
X6397638Y3398307D01*
X6377638Y3418307D01*
X6141417Y3218307D02*
X6161417Y3238307D01*
X6181417Y3218307D01*
X6161417Y3198307D01*
X6141417Y3218307D01*
Y3168307D02*
X6161417Y3188307D01*
X6181417Y3168307D01*
X6161417Y3148307D01*
X6141417Y3168307D01*
Y3318307D02*
X6161417Y3338307D01*
X6181417Y3318307D01*
X6161417Y3298307D01*
X6141417Y3318307D01*
X5186221Y4144764D02*
X5206221Y4164764D01*
X5226221Y4144764D01*
X5206221Y4124764D01*
X5186221Y4144764D01*
X5058661D02*
X5078661Y4164764D01*
X5098661Y4144764D01*
X5078661Y4124764D01*
X5058661Y4144764D01*
X7720567Y5433071D02*
X7740567Y5453071D01*
X7760567Y5433071D01*
X7740567Y5413071D01*
X7720567Y5433071D01*
X7769779D02*
X7789779Y5453071D01*
X7809779Y5433071D01*
X7789779Y5413071D01*
X7769779Y5433071D01*
X7818992D02*
X7838992Y5453071D01*
X7858992Y5433071D01*
X7838992Y5413071D01*
X7818992Y5433071D01*
X7671354D02*
X7691354Y5453071D01*
X7711354Y5433071D01*
X7691354Y5413071D01*
X7671354Y5433071D01*
X7622142D02*
X7642142Y5453071D01*
X7662142Y5433071D01*
X7642142Y5413071D01*
X7622142Y5433071D01*
X3779213Y2818307D02*
X3799213Y2838307D01*
X3819213Y2818307D01*
X3799213Y2798307D01*
X3779213Y2818307D01*
X4015433Y4068307D02*
X4035433Y4088307D01*
X4055433Y4068307D01*
X4035433Y4048307D01*
X4015433Y4068307D01*
Y3568307D02*
X4035433Y3588307D01*
X4055433Y3568307D01*
X4035433Y3548307D01*
X4015433Y3568307D01*
Y3618307D02*
X4035433Y3638307D01*
X4055433Y3618307D01*
X4035433Y3598307D01*
X4015433Y3618307D01*
Y3668307D02*
X4035433Y3688307D01*
X4055433Y3668307D01*
X4035433Y3648307D01*
X4015433Y3668307D01*
X6141417D02*
X6161417Y3688307D01*
X6181417Y3668307D01*
X6161417Y3648307D01*
X6141417Y3668307D01*
X6113071Y5436539D02*
X6133071Y5456539D01*
X6153071Y5436539D01*
X6133071Y5416539D01*
X6113071Y5436539D01*
X5813071D02*
X5833071Y5456539D01*
X5853071Y5436539D01*
X5833071Y5416539D01*
X5813071Y5436539D01*
X6377638Y4218307D02*
X6397638Y4238307D01*
X6417638Y4218307D01*
X6397638Y4198307D01*
X6377638Y4218307D01*
Y4268307D02*
X6397638Y4288307D01*
X6417638Y4268307D01*
X6397638Y4248307D01*
X6377638Y4268307D01*
X5913071Y5436539D02*
X5933071Y5456539D01*
X5953071Y5436539D01*
X5933071Y5416539D01*
X5913071Y5436539D01*
X6013071D02*
X6033071Y5456539D01*
X6053071Y5436539D01*
X6033071Y5416539D01*
X6013071Y5436539D01*
X3779213Y3418307D02*
X3799213Y3438307D01*
X3819213Y3418307D01*
X3799213Y3398307D01*
X3779213Y3418307D01*
X7599882Y3227264D02*
X7619882Y3247264D01*
X7639882Y3227264D01*
X7619882Y3207264D01*
X7599882Y3227264D01*
X6377638Y3318307D02*
X6397638Y3338307D01*
X6417638Y3318307D01*
X6397638Y3298307D01*
X6377638Y3318307D01*
Y3468307D02*
X6397638Y3488307D01*
X6417638Y3468307D01*
X6397638Y3448307D01*
X6377638Y3468307D01*
X6141417Y3618307D02*
X6161417Y3638307D01*
X6181417Y3618307D01*
X6161417Y3598307D01*
X6141417Y3618307D01*
Y3068307D02*
X6161417Y3088307D01*
X6181417Y3068307D01*
X6161417Y3048307D01*
X6141417Y3068307D01*
Y3118307D02*
X6161417Y3138307D01*
X6181417Y3118307D01*
X6161417Y3098307D01*
X6141417Y3118307D01*
X2260315Y5336539D02*
X2280315Y5356539D01*
X2300315Y5336539D01*
X2280315Y5316539D01*
X2260315Y5336539D01*
X2194173Y5436539D02*
X2214173Y5456539D01*
X2234173Y5436539D01*
X2214173Y5416539D01*
X2194173Y5436539D01*
X2094173D02*
X2114173Y5456539D01*
X2134173Y5436539D01*
X2114173Y5416539D01*
X2094173Y5436539D01*
X1994173D02*
X2014173Y5456539D01*
X2034173Y5436539D01*
X2014173Y5416539D01*
X1994173Y5436539D01*
X1894173D02*
X1914173Y5456539D01*
X1934173Y5436539D01*
X1914173Y5416539D01*
X1894173Y5436539D01*
X1794173Y5436539D02*
X1814173Y5456539D01*
X1834173Y5436539D01*
X1814173Y5416539D01*
X1794173Y5436539D01*
X3035528Y5381382D02*
X3055528Y5401382D01*
X3075528Y5381382D01*
X3055528Y5361382D01*
X3035528Y5381382D01*
X3950882D02*
X3970882Y5401382D01*
X3990882Y5381382D01*
X3970882Y5361382D01*
X3950882Y5381382D01*
X3901669D02*
X3921669Y5401382D01*
X3941669Y5381382D01*
X3921669Y5361382D01*
X3901669Y5381382D01*
X3852457D02*
X3872457Y5401382D01*
X3892457Y5381382D01*
X3872457Y5361382D01*
X3852457Y5381382D01*
X9147323Y4429134D02*
X9167323Y4449134D01*
X9187323Y4429134D01*
X9167323Y4409134D01*
X9147323Y4429134D01*
X9001654D02*
X9021654Y4449134D01*
X9041654Y4429134D01*
X9021654Y4409134D01*
X9001654Y4429134D01*
X9147323Y3838583D02*
X9167323Y3858583D01*
X9187323Y3838583D01*
X9167323Y3818583D01*
X9147323Y3838583D01*
X7599882Y4408366D02*
X7619882Y4428366D01*
X7639882Y4408366D01*
X7619882Y4388366D01*
X7599882Y4408366D01*
Y3817815D02*
X7619882Y3837815D01*
X7639882Y3817815D01*
X7619882Y3797815D01*
X7599882Y3817815D01*
X1614842Y804587D02*
X1634842Y824587D01*
X1654842Y804587D01*
X1634842Y784587D01*
X1614842Y804587D01*
X1580394Y393701D02*
X1600394Y413701D01*
X1620394Y393701D01*
X1600394Y373701D01*
X1580394Y393701D01*
X1378622Y804587D02*
X1398622Y824587D01*
X1418622Y804587D01*
X1398622Y784587D01*
X1378622Y804587D01*
X1344173Y393701D02*
X1364173Y413701D01*
X1384173Y393701D01*
X1364173Y373701D01*
X1344173Y393701D01*
X1142402Y804587D02*
X1162402Y824587D01*
X1182402Y804587D01*
X1162402Y784587D01*
X1142402Y804587D01*
X1107953Y393701D02*
X1127953Y413701D01*
X1147953Y393701D01*
X1127953Y373701D01*
X1107953Y393701D01*
X906181Y804587D02*
X926181Y824587D01*
X946181Y804587D01*
X926181Y784587D01*
X906181Y804587D01*
X871732Y393701D02*
X891732Y413701D01*
X911732Y393701D01*
X891732Y373701D01*
X871732Y393701D01*
X669961Y804587D02*
X689961Y824587D01*
X709961Y804587D01*
X689961Y784587D01*
X669961Y804587D01*
X635512Y393701D02*
X655512Y413701D01*
X675512Y393701D01*
X655512Y373701D01*
X635512Y393701D01*
X433740Y804587D02*
X453740Y824587D01*
X473740Y804587D01*
X453740Y784587D01*
X433740Y804587D01*
X399291Y393701D02*
X419291Y413701D01*
X439291Y393701D01*
X419291Y373701D01*
X399291Y393701D01*
X197520Y804587D02*
X217520Y824587D01*
X237520Y804587D01*
X217520Y784587D01*
X197520Y804587D01*
X163071Y393701D02*
X183071Y413701D01*
X203071Y393701D01*
X183071Y373701D01*
X163071Y393701D01*
X6377638Y4018307D02*
X6397638Y4038307D01*
X6417638Y4018307D01*
X6397638Y3998307D01*
X6377638Y4018307D01*
Y3968307D02*
X6397638Y3988307D01*
X6417638Y3968307D01*
X6397638Y3948307D01*
X6377638Y3968307D01*
Y3918307D02*
X6397638Y3938307D01*
X6417638Y3918307D01*
X6397638Y3898307D01*
X6377638Y3918307D01*
Y3868307D02*
X6397638Y3888307D01*
X6417638Y3868307D01*
X6397638Y3848307D01*
X6377638Y3868307D01*
Y3818307D02*
X6397638Y3838307D01*
X6417638Y3818307D01*
X6397638Y3798307D01*
X6377638Y3818307D01*
Y3768307D02*
X6397638Y3788307D01*
X6417638Y3768307D01*
X6397638Y3748307D01*
X6377638Y3768307D01*
Y3718307D02*
X6397638Y3738307D01*
X6417638Y3718307D01*
X6397638Y3698307D01*
X6377638Y3718307D01*
X4015433Y3268307D02*
X4035433Y3288307D01*
X4055433Y3268307D01*
X4035433Y3248307D01*
X4015433Y3268307D01*
X3779213Y3118307D02*
X3799213Y3138307D01*
X3819213Y3118307D01*
X3799213Y3098307D01*
X3779213Y3118307D01*
Y3318307D02*
X3799213Y3338307D01*
X3819213Y3318307D01*
X3799213Y3298307D01*
X3779213Y3318307D01*
X3602047Y2968307D02*
X3622047Y2988307D01*
X3642047Y2968307D01*
X3622047Y2948307D01*
X3602047Y2968307D01*
Y3018307D02*
X3622047Y3038307D01*
X3642047Y3018307D01*
X3622047Y2998307D01*
X3602047Y3018307D01*
X4015433Y2918307D02*
X4035433Y2938307D01*
X4055433Y2918307D01*
X4035433Y2898307D01*
X4015433Y2918307D01*
X6141417Y2818307D02*
X6161417Y2838307D01*
X6181417Y2818307D01*
X6161417Y2798307D01*
X6141417Y2818307D01*
Y2868307D02*
X6161417Y2888307D01*
X6181417Y2868307D01*
X6161417Y2848307D01*
X6141417Y2868307D01*
Y2968307D02*
X6161417Y2988307D01*
X6181417Y2968307D01*
X6161417Y2948307D01*
X6141417Y2968307D01*
Y3018307D02*
X6161417Y3038307D01*
X6181417Y3018307D01*
X6161417Y2998307D01*
X6141417Y3018307D01*
Y3418307D02*
X6161417Y3438307D01*
X6181417Y3418307D01*
X6161417Y3398307D01*
X6141417Y3418307D01*
Y3468307D02*
X6161417Y3488307D01*
X6181417Y3468307D01*
X6161417Y3448307D01*
X6141417Y3468307D01*
Y3718307D02*
X6161417Y3738307D01*
X6181417Y3718307D01*
X6161417Y3698307D01*
X6141417Y3718307D01*
X6377638Y4168307D02*
X6397638Y4188307D01*
X6417638Y4168307D01*
X6397638Y4148307D01*
X6377638Y4168307D01*
Y3668307D02*
X6397638Y3688307D01*
X6417638Y3668307D01*
X6397638Y3648307D01*
X6377638Y3668307D01*
Y3618307D02*
X6397638Y3638307D01*
X6417638Y3618307D01*
X6397638Y3598307D01*
X6377638Y3618307D01*
Y3568307D02*
X6397638Y3588307D01*
X6417638Y3568307D01*
X6397638Y3548307D01*
X6377638Y3568307D01*
Y3518307D02*
X6397638Y3538307D01*
X6417638Y3518307D01*
X6397638Y3498307D01*
X6377638Y3518307D01*
Y3268307D02*
X6397638Y3288307D01*
X6417638Y3268307D01*
X6397638Y3248307D01*
X6377638Y3268307D01*
Y3218307D02*
X6397638Y3238307D01*
X6417638Y3218307D01*
X6397638Y3198307D01*
X6377638Y3218307D01*
Y3168307D02*
X6397638Y3188307D01*
X6417638Y3168307D01*
X6397638Y3148307D01*
X6377638Y3168307D01*
Y3068307D02*
X6397638Y3088307D01*
X6417638Y3068307D01*
X6397638Y3048307D01*
X6377638Y3068307D01*
Y3018307D02*
X6397638Y3038307D01*
X6417638Y3018307D01*
X6397638Y2998307D01*
X6377638Y3018307D01*
Y2868307D02*
X6397638Y2888307D01*
X6417638Y2868307D01*
X6397638Y2848307D01*
X6377638Y2868307D01*
X3602047D02*
X3622047Y2888307D01*
X3642047Y2868307D01*
X3622047Y2848307D01*
X3602047Y2868307D01*
X4015433Y3468307D02*
X4035433Y3488307D01*
X4055433Y3468307D01*
X4035433Y3448307D01*
X4015433Y3468307D01*
Y3518307D02*
X4035433Y3538307D01*
X4055433Y3518307D01*
X4035433Y3498307D01*
X4015433Y3518307D01*
Y4268307D02*
X4035433Y4288307D01*
X4055433Y4268307D01*
X4035433Y4248307D01*
X4015433Y4268307D01*
Y4218307D02*
X4035433Y4238307D01*
X4055433Y4218307D01*
X4035433Y4198307D01*
X4015433Y4218307D01*
X3602047D02*
X3622047Y4238307D01*
X3642047Y4218307D01*
X3622047Y4198307D01*
X3602047Y4218307D01*
Y4168307D02*
X3622047Y4188307D01*
X3642047Y4168307D01*
X3622047Y4148307D01*
X3602047Y4168307D01*
Y4118307D02*
X3622047Y4138307D01*
X3642047Y4118307D01*
X3622047Y4098307D01*
X3602047Y4118307D01*
X3779213Y3768307D02*
X3799213Y3788307D01*
X3819213Y3768307D01*
X3799213Y3748307D01*
X3779213Y3768307D01*
Y3718307D02*
X3799213Y3738307D01*
X3819213Y3718307D01*
X3799213Y3698307D01*
X3779213Y3718307D01*
X3602047Y3668307D02*
X3622047Y3688307D01*
X3642047Y3668307D01*
X3622047Y3648307D01*
X3602047Y3668307D01*
Y3618307D02*
X3622047Y3638307D01*
X3642047Y3618307D01*
X3622047Y3598307D01*
X3602047Y3618307D01*
X3779213Y3568307D02*
X3799213Y3588307D01*
X3819213Y3568307D01*
X3799213Y3548307D01*
X3779213Y3568307D01*
Y3518307D02*
X3799213Y3538307D01*
X3819213Y3518307D01*
X3799213Y3498307D01*
X3779213Y3518307D01*
Y3468307D02*
X3799213Y3488307D01*
X3819213Y3468307D01*
X3799213Y3448307D01*
X3779213Y3468307D01*
Y3368307D02*
X3799213Y3388307D01*
X3819213Y3368307D01*
X3799213Y3348307D01*
X3779213Y3368307D01*
Y2968307D02*
X3799213Y2988307D01*
X3819213Y2968307D01*
X3799213Y2948307D01*
X3779213Y2968307D01*
Y3018307D02*
X3799213Y3038307D01*
X3819213Y3018307D01*
X3799213Y2998307D01*
X3779213Y3018307D01*
Y3068307D02*
X3799213Y3088307D01*
X3819213Y3068307D01*
X3799213Y3048307D01*
X3779213Y3068307D01*
Y3168307D02*
X3799213Y3188307D01*
X3819213Y3168307D01*
X3799213Y3148307D01*
X3779213Y3168307D01*
Y3218307D02*
X3799213Y3238307D01*
X3819213Y3218307D01*
X3799213Y3198307D01*
X3779213Y3218307D01*
Y3268307D02*
X3799213Y3288307D01*
X3819213Y3268307D01*
X3799213Y3248307D01*
X3779213Y3268307D01*
X6377638Y4068307D02*
X6397638Y4088307D01*
X6417638Y4068307D01*
X6397638Y4048307D01*
X6377638Y4068307D01*
X4015433Y3068307D02*
X4035433Y3088307D01*
X4055433Y3068307D01*
X4035433Y3048307D01*
X4015433Y3068307D01*
Y3118307D02*
X4035433Y3138307D01*
X4055433Y3118307D01*
X4035433Y3098307D01*
X4015433Y3118307D01*
Y3168307D02*
X4035433Y3188307D01*
X4055433Y3168307D01*
X4035433Y3148307D01*
X4015433Y3168307D01*
Y3218307D02*
X4035433Y3238307D01*
X4055433Y3218307D01*
X4035433Y3198307D01*
X4015433Y3218307D01*
Y3318307D02*
X4035433Y3338307D01*
X4055433Y3318307D01*
X4035433Y3298307D01*
X4015433Y3318307D01*
Y3368307D02*
X4035433Y3388307D01*
X4055433Y3368307D01*
X4035433Y3348307D01*
X4015433Y3368307D01*
Y3418307D02*
X4035433Y3438307D01*
X4055433Y3418307D01*
X4035433Y3398307D01*
X4015433Y3418307D01*
Y3718307D02*
X4035433Y3738307D01*
X4055433Y3718307D01*
X4035433Y3698307D01*
X4015433Y3718307D01*
Y3768307D02*
X4035433Y3788307D01*
X4055433Y3768307D01*
X4035433Y3748307D01*
X4015433Y3768307D01*
Y3818307D02*
X4035433Y3838307D01*
X4055433Y3818307D01*
X4035433Y3798307D01*
X4015433Y3818307D01*
Y3868307D02*
X4035433Y3888307D01*
X4055433Y3868307D01*
X4035433Y3848307D01*
X4015433Y3868307D01*
Y3918307D02*
X4035433Y3938307D01*
X4055433Y3918307D01*
X4035433Y3898307D01*
X4015433Y3918307D01*
Y3968307D02*
X4035433Y3988307D01*
X4055433Y3968307D01*
X4035433Y3948307D01*
X4015433Y3968307D01*
Y4018307D02*
X4035433Y4038307D01*
X4055433Y4018307D01*
X4035433Y3998307D01*
X4015433Y4018307D01*
X9633149Y1425000D02*
X9653149Y1445000D01*
X9673149Y1425000D01*
X9653149Y1405000D01*
X9633149Y1425000D01*
X8386496Y804587D02*
X8406496Y824587D01*
X8426496Y804587D01*
X8406496Y784587D01*
X8386496Y804587D01*
X8622717D02*
X8642717Y824587D01*
X8662717Y804587D01*
X8642717Y784587D01*
X8622717Y804587D01*
X8858937D02*
X8878937Y824587D01*
X8898937Y804587D01*
X8878937Y784587D01*
X8858937Y804587D01*
X9095157D02*
X9115157Y824587D01*
X9135157Y804587D01*
X9115157Y784587D01*
X9095157Y804587D01*
X9331378D02*
X9351378Y824587D01*
X9371378Y804587D01*
X9351378Y784587D01*
X9331378Y804587D01*
X9567598D02*
X9587598Y824587D01*
X9607598Y804587D01*
X9587598Y784587D01*
X9567598Y804587D01*
X9803819D02*
X9823819Y824587D01*
X9843819Y804587D01*
X9823819Y784587D01*
X9803819Y804587D01*
X8352047Y393701D02*
X8372047Y413701D01*
X8392047Y393701D01*
X8372047Y373701D01*
X8352047Y393701D01*
X8588268D02*
X8608268Y413701D01*
X8628268Y393701D01*
X8608268Y373701D01*
X8588268Y393701D01*
X8824488D02*
X8844488Y413701D01*
X8864488Y393701D01*
X8844488Y373701D01*
X8824488Y393701D01*
X9060709D02*
X9080709Y413701D01*
X9100709Y393701D01*
X9080709Y373701D01*
X9060709Y393701D01*
X9296929D02*
X9316929Y413701D01*
X9336929Y393701D01*
X9316929Y373701D01*
X9296929Y393701D01*
X10005591D02*
X10025591Y413701D01*
X10045591Y393701D01*
X10025591Y373701D01*
X10005591Y393701D01*
X9433149Y1425000D02*
X9453149Y1445000D01*
X9473149Y1425000D01*
X9453149Y1405000D01*
X9433149Y1425000D01*
X9733149D02*
X9753149Y1445000D01*
X9773149Y1425000D01*
X9753149Y1405000D01*
X9733149Y1425000D01*
X9833149D02*
X9853149Y1445000D01*
X9873149Y1425000D01*
X9853149Y1405000D01*
X9833149Y1425000D01*
X9933149D02*
X9953149Y1445000D01*
X9973149Y1425000D01*
X9953149Y1405000D01*
X9933149Y1425000D01*
X10033149D02*
X10053149Y1445000D01*
X10073149Y1425000D01*
X10053149Y1405000D01*
X10033149Y1425000D01*
X10133149D02*
X10153149Y1445000D01*
X10173149Y1425000D01*
X10153149Y1405000D01*
X10133149Y1425000D01*
X8497716Y393701D02*
X8517716Y413701D01*
X8537716Y393701D01*
X8517716Y373701D01*
X8497716Y393701D01*
X8733937D02*
X8753937Y413701D01*
X8773937Y393701D01*
X8753937Y373701D01*
X8733937Y393701D01*
X8970157D02*
X8990157Y413701D01*
X9010157Y393701D01*
X8990157Y373701D01*
X8970157Y393701D01*
X9206378D02*
X9226378Y413701D01*
X9246378Y393701D01*
X9226378Y373701D01*
X9206378Y393701D01*
X9678819D02*
X9698819Y413701D01*
X9718819Y393701D01*
X9698819Y373701D01*
X9678819Y393701D01*
X9915039D02*
X9935039Y413701D01*
X9955039Y393701D01*
X9935039Y373701D01*
X9915039Y393701D01*
X10151260D02*
X10171260Y413701D01*
X10191260Y393701D01*
X10171260Y373701D01*
X10151260Y393701D01*
X9533149Y1425000D02*
X9553149Y1445000D01*
X9573149Y1425000D01*
X9553149Y1405000D01*
X9533149Y1425000D01*
X9442598Y393701D02*
X9462598Y413701D01*
X9482598Y393701D01*
X9462598Y373701D01*
X9442598Y393701D01*
X9533150D02*
X9553150Y413701D01*
X9573150Y393701D01*
X9553150Y373701D01*
X9533150Y393701D01*
X9769370D02*
X9789370Y413701D01*
X9809370Y393701D01*
X9789370Y373701D01*
X9769370Y393701D01*
X10040039Y804587D02*
X10060039Y824587D01*
X10080039Y804587D01*
X10060039Y784587D01*
X10040039Y804587D01*
X8409528Y1023622D02*
X8429528Y1043622D01*
X8449528Y1023622D01*
X8429528Y1003622D01*
X8409528Y1023622D01*
X9433149D02*
X9453149Y1043622D01*
X9473149Y1023622D01*
X9453149Y1003622D01*
X9433149Y1023622D01*
X8365827Y838740D02*
X8385827Y858740D01*
X8405827Y838740D01*
X8385827Y818740D01*
X8365827Y838740D01*
X8601260D02*
X8621260Y858740D01*
X8641260Y838740D01*
X8621260Y818740D01*
X8601260Y838740D01*
X8837480D02*
X8857480Y858740D01*
X8877480Y838740D01*
X8857480Y818740D01*
X8837480Y838740D01*
X9073701D02*
X9093701Y858740D01*
X9113701Y838740D01*
X9093701Y818740D01*
X9073701Y838740D01*
X9309921D02*
X9329921Y858740D01*
X9349921Y838740D01*
X9329921Y818740D01*
X9309921Y838740D01*
X9546142D02*
X9566142Y858740D01*
X9586142Y838740D01*
X9566142Y818740D01*
X9546142Y838740D01*
X9782362D02*
X9802362Y858740D01*
X9822362Y838740D01*
X9802362Y818740D01*
X9782362Y838740D01*
X10018583D02*
X10038583Y858740D01*
X10058583Y838740D01*
X10038583Y818740D01*
X10018583Y838740D01*
X7585905Y1425000D02*
X7605905Y1445000D01*
X7625905Y1425000D01*
X7605905Y1405000D01*
X7585905Y1425000D01*
X6339252Y804587D02*
X6359252Y824587D01*
X6379252Y804587D01*
X6359252Y784587D01*
X6339252Y804587D01*
X6575472D02*
X6595472Y824587D01*
X6615472Y804587D01*
X6595472Y784587D01*
X6575472Y804587D01*
X6811693D02*
X6831693Y824587D01*
X6851693Y804587D01*
X6831693Y784587D01*
X6811693Y804587D01*
X7047913D02*
X7067913Y824587D01*
X7087913Y804587D01*
X7067913Y784587D01*
X7047913Y804587D01*
X7284134D02*
X7304134Y824587D01*
X7324134Y804587D01*
X7304134Y784587D01*
X7284134Y804587D01*
X7520354D02*
X7540354Y824587D01*
X7560354Y804587D01*
X7540354Y784587D01*
X7520354Y804587D01*
X7756575D02*
X7776575Y824587D01*
X7796575Y804587D01*
X7776575Y784587D01*
X7756575Y804587D01*
X6304803Y393701D02*
X6324803Y413701D01*
X6344803Y393701D01*
X6324803Y373701D01*
X6304803Y393701D01*
X6541024D02*
X6561024Y413701D01*
X6581024Y393701D01*
X6561024Y373701D01*
X6541024Y393701D01*
X6777244D02*
X6797244Y413701D01*
X6817244Y393701D01*
X6797244Y373701D01*
X6777244Y393701D01*
X7013465D02*
X7033465Y413701D01*
X7053465Y393701D01*
X7033465Y373701D01*
X7013465Y393701D01*
X7249685D02*
X7269685Y413701D01*
X7289685Y393701D01*
X7269685Y373701D01*
X7249685Y393701D01*
X7958346D02*
X7978346Y413701D01*
X7998346Y393701D01*
X7978346Y373701D01*
X7958346Y393701D01*
X7385905Y1425000D02*
X7405905Y1445000D01*
X7425905Y1425000D01*
X7405905Y1405000D01*
X7385905Y1425000D01*
X7685905D02*
X7705905Y1445000D01*
X7725905Y1425000D01*
X7705905Y1405000D01*
X7685905Y1425000D01*
X7785905D02*
X7805905Y1445000D01*
X7825905Y1425000D01*
X7805905Y1405000D01*
X7785905Y1425000D01*
X7885905D02*
X7905905Y1445000D01*
X7925905Y1425000D01*
X7905905Y1405000D01*
X7885905Y1425000D01*
X7985905D02*
X8005905Y1445000D01*
X8025905Y1425000D01*
X8005905Y1405000D01*
X7985905Y1425000D01*
X8085905D02*
X8105905Y1445000D01*
X8125905Y1425000D01*
X8105905Y1405000D01*
X8085905Y1425000D01*
X6450472Y393701D02*
X6470472Y413701D01*
X6490472Y393701D01*
X6470472Y373701D01*
X6450472Y393701D01*
X6686693D02*
X6706693Y413701D01*
X6726693Y393701D01*
X6706693Y373701D01*
X6686693Y393701D01*
X6922913D02*
X6942913Y413701D01*
X6962913Y393701D01*
X6942913Y373701D01*
X6922913Y393701D01*
X7159134D02*
X7179134Y413701D01*
X7199134Y393701D01*
X7179134Y373701D01*
X7159134Y393701D01*
X7631575D02*
X7651575Y413701D01*
X7671575Y393701D01*
X7651575Y373701D01*
X7631575Y393701D01*
X7867795D02*
X7887795Y413701D01*
X7907795Y393701D01*
X7887795Y373701D01*
X7867795Y393701D01*
X8104016D02*
X8124016Y413701D01*
X8144016Y393701D01*
X8124016Y373701D01*
X8104016Y393701D01*
X7485905Y1425000D02*
X7505905Y1445000D01*
X7525905Y1425000D01*
X7505905Y1405000D01*
X7485905Y1425000D01*
X7395354Y393701D02*
X7415354Y413701D01*
X7435354Y393701D01*
X7415354Y373701D01*
X7395354Y393701D01*
X7485905D02*
X7505905Y413701D01*
X7525905Y393701D01*
X7505905Y373701D01*
X7485905Y393701D01*
X7722126D02*
X7742126Y413701D01*
X7762126Y393701D01*
X7742126Y373701D01*
X7722126Y393701D01*
X7992795Y804587D02*
X8012795Y824587D01*
X8032795Y804587D01*
X8012795Y784587D01*
X7992795Y804587D01*
X6362283Y1023622D02*
X6382283Y1043622D01*
X6402283Y1023622D01*
X6382283Y1003622D01*
X6362283Y1023622D01*
X7385905D02*
X7405905Y1043622D01*
X7425905Y1023622D01*
X7405905Y1003622D01*
X7385905Y1023622D01*
X6318583Y838740D02*
X6338583Y858740D01*
X6358583Y838740D01*
X6338583Y818740D01*
X6318583Y838740D01*
X6554016D02*
X6574016Y858740D01*
X6594016Y838740D01*
X6574016Y818740D01*
X6554016Y838740D01*
X6790236D02*
X6810236Y858740D01*
X6830236Y838740D01*
X6810236Y818740D01*
X6790236Y838740D01*
X7026457D02*
X7046457Y858740D01*
X7066457Y838740D01*
X7046457Y818740D01*
X7026457Y838740D01*
X7262677D02*
X7282677Y858740D01*
X7302677Y838740D01*
X7282677Y818740D01*
X7262677Y838740D01*
X7498898D02*
X7518898Y858740D01*
X7538898Y838740D01*
X7518898Y818740D01*
X7498898Y838740D01*
X7735118D02*
X7755118Y858740D01*
X7775118Y838740D01*
X7755118Y818740D01*
X7735118Y838740D01*
X7971338D02*
X7991338Y858740D01*
X8011338Y838740D01*
X7991338Y818740D01*
X7971338Y838740D01*
X5924094D02*
X5944094Y858740D01*
X5964094Y838740D01*
X5944094Y818740D01*
X5924094Y838740D01*
X5687874D02*
X5707874Y858740D01*
X5727874Y838740D01*
X5707874Y818740D01*
X5687874Y838740D01*
X5451654D02*
X5471654Y858740D01*
X5491654Y838740D01*
X5471654Y818740D01*
X5451654Y838740D01*
X5215433D02*
X5235433Y858740D01*
X5255433Y838740D01*
X5235433Y818740D01*
X5215433Y838740D01*
X4979212D02*
X4999212Y858740D01*
X5019212Y838740D01*
X4999212Y818740D01*
X4979212Y838740D01*
X4742992D02*
X4762992Y858740D01*
X4782992Y838740D01*
X4762992Y818740D01*
X4742992Y838740D01*
X4506772D02*
X4526772Y858740D01*
X4546772Y838740D01*
X4526772Y818740D01*
X4506772Y838740D01*
X4271338D02*
X4291338Y858740D01*
X4311338Y838740D01*
X4291338Y818740D01*
X4271338Y838740D01*
X5338661Y1023622D02*
X5358661Y1043622D01*
X5378661Y1023622D01*
X5358661Y1003622D01*
X5338661Y1023622D01*
X4315039D02*
X4335039Y1043622D01*
X4355039Y1023622D01*
X4335039Y1003622D01*
X4315039Y1023622D01*
X5945551Y804587D02*
X5965551Y824587D01*
X5985551Y804587D01*
X5965551Y784587D01*
X5945551Y804587D01*
X5674882Y393701D02*
X5694882Y413701D01*
X5714882Y393701D01*
X5694882Y373701D01*
X5674882Y393701D01*
X5438661D02*
X5458661Y413701D01*
X5478661Y393701D01*
X5458661Y373701D01*
X5438661Y393701D01*
X5348110D02*
X5368110Y413701D01*
X5388110Y393701D01*
X5368110Y373701D01*
X5348110Y393701D01*
X5438661Y1425000D02*
X5458661Y1445000D01*
X5478661Y1425000D01*
X5458661Y1405000D01*
X5438661Y1425000D01*
X6056771Y393701D02*
X6076771Y413701D01*
X6096771Y393701D01*
X6076771Y373701D01*
X6056771Y393701D01*
X5820551D02*
X5840551Y413701D01*
X5860551Y393701D01*
X5840551Y373701D01*
X5820551Y393701D01*
X5584331D02*
X5604331Y413701D01*
X5624331Y393701D01*
X5604331Y373701D01*
X5584331Y393701D01*
X5111890D02*
X5131890Y413701D01*
X5151890Y393701D01*
X5131890Y373701D01*
X5111890Y393701D01*
X4875669D02*
X4895669Y413701D01*
X4915669Y393701D01*
X4895669Y373701D01*
X4875669Y393701D01*
X4639449D02*
X4659449Y413701D01*
X4679449Y393701D01*
X4659449Y373701D01*
X4639449Y393701D01*
X4403228D02*
X4423228Y413701D01*
X4443228Y393701D01*
X4423228Y373701D01*
X4403228Y393701D01*
X6038661Y1425000D02*
X6058661Y1445000D01*
X6078661Y1425000D01*
X6058661Y1405000D01*
X6038661Y1425000D01*
X5938661D02*
X5958661Y1445000D01*
X5978661Y1425000D01*
X5958661Y1405000D01*
X5938661Y1425000D01*
X5838661D02*
X5858661Y1445000D01*
X5878661Y1425000D01*
X5858661Y1405000D01*
X5838661Y1425000D01*
X5738661D02*
X5758661Y1445000D01*
X5778661Y1425000D01*
X5758661Y1405000D01*
X5738661Y1425000D01*
X5638661D02*
X5658661Y1445000D01*
X5678661Y1425000D01*
X5658661Y1405000D01*
X5638661Y1425000D01*
X5338661D02*
X5358661Y1445000D01*
X5378661Y1425000D01*
X5358661Y1405000D01*
X5338661Y1425000D01*
X5911102Y393701D02*
X5931102Y413701D01*
X5951102Y393701D01*
X5931102Y373701D01*
X5911102Y393701D01*
X5202441D02*
X5222441Y413701D01*
X5242441Y393701D01*
X5222441Y373701D01*
X5202441Y393701D01*
X4966220D02*
X4986220Y413701D01*
X5006220Y393701D01*
X4986220Y373701D01*
X4966220Y393701D01*
X4730000D02*
X4750000Y413701D01*
X4770000Y393701D01*
X4750000Y373701D01*
X4730000Y393701D01*
X4493779D02*
X4513779Y413701D01*
X4533779Y393701D01*
X4513779Y373701D01*
X4493779Y393701D01*
X4257559D02*
X4277559Y413701D01*
X4297559Y393701D01*
X4277559Y373701D01*
X4257559Y393701D01*
X5709331Y804587D02*
X5729331Y824587D01*
X5749331Y804587D01*
X5729331Y784587D01*
X5709331Y804587D01*
X5473110D02*
X5493110Y824587D01*
X5513110Y804587D01*
X5493110Y784587D01*
X5473110Y804587D01*
X5236890D02*
X5256890Y824587D01*
X5276890Y804587D01*
X5256890Y784587D01*
X5236890Y804587D01*
X5000669D02*
X5020669Y824587D01*
X5040669Y804587D01*
X5020669Y784587D01*
X5000669Y804587D01*
X4764449D02*
X4784449Y824587D01*
X4804449Y804587D01*
X4784449Y784587D01*
X4764449Y804587D01*
X4528228D02*
X4548228Y824587D01*
X4568228Y804587D01*
X4548228Y784587D01*
X4528228Y804587D01*
X4292008D02*
X4312008Y824587D01*
X4332008Y804587D01*
X4312008Y784587D01*
X4292008Y804587D01*
X5538661Y1425000D02*
X5558661Y1445000D01*
X5578661Y1425000D01*
X5558661Y1405000D01*
X5538661Y1425000D01*
X3491417D02*
X3511417Y1445000D01*
X3531417Y1425000D01*
X3511417Y1405000D01*
X3491417Y1425000D01*
X2244764Y804587D02*
X2264764Y824587D01*
X2284764Y804587D01*
X2264764Y784587D01*
X2244764Y804587D01*
X2480984D02*
X2500984Y824587D01*
X2520984Y804587D01*
X2500984Y784587D01*
X2480984Y804587D01*
X2717205D02*
X2737205Y824587D01*
X2757205Y804587D01*
X2737205Y784587D01*
X2717205Y804587D01*
X2953425D02*
X2973425Y824587D01*
X2993425Y804587D01*
X2973425Y784587D01*
X2953425Y804587D01*
X3189646D02*
X3209646Y824587D01*
X3229646Y804587D01*
X3209646Y784587D01*
X3189646Y804587D01*
X3425866D02*
X3445866Y824587D01*
X3465866Y804587D01*
X3445866Y784587D01*
X3425866Y804587D01*
X3662087D02*
X3682087Y824587D01*
X3702087Y804587D01*
X3682087Y784587D01*
X3662087Y804587D01*
X2210315Y393701D02*
X2230315Y413701D01*
X2250315Y393701D01*
X2230315Y373701D01*
X2210315Y393701D01*
X2446535D02*
X2466535Y413701D01*
X2486535Y393701D01*
X2466535Y373701D01*
X2446535Y393701D01*
X2682756D02*
X2702756Y413701D01*
X2722756Y393701D01*
X2702756Y373701D01*
X2682756Y393701D01*
X2918976D02*
X2938976Y413701D01*
X2958976Y393701D01*
X2938976Y373701D01*
X2918976Y393701D01*
X3155197D02*
X3175197Y413701D01*
X3195197Y393701D01*
X3175197Y373701D01*
X3155197Y393701D01*
X3863858D02*
X3883858Y413701D01*
X3903858Y393701D01*
X3883858Y373701D01*
X3863858Y393701D01*
X3291417Y1425000D02*
X3311417Y1445000D01*
X3331417Y1425000D01*
X3311417Y1405000D01*
X3291417Y1425000D01*
X3591417D02*
X3611417Y1445000D01*
X3631417Y1425000D01*
X3611417Y1405000D01*
X3591417Y1425000D01*
X3691417D02*
X3711417Y1445000D01*
X3731417Y1425000D01*
X3711417Y1405000D01*
X3691417Y1425000D01*
X3791417D02*
X3811417Y1445000D01*
X3831417Y1425000D01*
X3811417Y1405000D01*
X3791417Y1425000D01*
X3891417D02*
X3911417Y1445000D01*
X3931417Y1425000D01*
X3911417Y1405000D01*
X3891417Y1425000D01*
X3991417D02*
X4011417Y1445000D01*
X4031417Y1425000D01*
X4011417Y1405000D01*
X3991417Y1425000D01*
X2355984Y393701D02*
X2375984Y413701D01*
X2395984Y393701D01*
X2375984Y373701D01*
X2355984Y393701D01*
X2592205D02*
X2612205Y413701D01*
X2632205Y393701D01*
X2612205Y373701D01*
X2592205Y393701D01*
X2828425D02*
X2848425Y413701D01*
X2868425Y393701D01*
X2848425Y373701D01*
X2828425Y393701D01*
X3064646D02*
X3084646Y413701D01*
X3104646Y393701D01*
X3084646Y373701D01*
X3064646Y393701D01*
X3537087D02*
X3557087Y413701D01*
X3577087Y393701D01*
X3557087Y373701D01*
X3537087Y393701D01*
X3773307D02*
X3793307Y413701D01*
X3813307Y393701D01*
X3793307Y373701D01*
X3773307Y393701D01*
X4009528D02*
X4029528Y413701D01*
X4049528Y393701D01*
X4029528Y373701D01*
X4009528Y393701D01*
X3391417Y1425000D02*
X3411417Y1445000D01*
X3431417Y1425000D01*
X3411417Y1405000D01*
X3391417Y1425000D01*
X3300866Y393701D02*
X3320866Y413701D01*
X3340866Y393701D01*
X3320866Y373701D01*
X3300866Y393701D01*
X3391417D02*
X3411417Y413701D01*
X3431417Y393701D01*
X3411417Y373701D01*
X3391417Y393701D01*
X3627638D02*
X3647638Y413701D01*
X3667638Y393701D01*
X3647638Y373701D01*
X3627638Y393701D01*
X3898307Y804587D02*
X3918307Y824587D01*
X3938307Y804587D01*
X3918307Y784587D01*
X3898307Y804587D01*
X2267795Y1023622D02*
X2287795Y1043622D01*
X2307795Y1023622D01*
X2287795Y1003622D01*
X2267795Y1023622D01*
X3291417D02*
X3311417Y1043622D01*
X3331417Y1023622D01*
X3311417Y1003622D01*
X3291417Y1023622D01*
X2224095Y838740D02*
X2244095Y858740D01*
X2264095Y838740D01*
X2244095Y818740D01*
X2224095Y838740D01*
X2459528D02*
X2479528Y858740D01*
X2499528Y838740D01*
X2479528Y818740D01*
X2459528Y838740D01*
X2695748D02*
X2715748Y858740D01*
X2735748Y838740D01*
X2715748Y818740D01*
X2695748Y838740D01*
X2931968D02*
X2951968Y858740D01*
X2971968Y838740D01*
X2951968Y818740D01*
X2931968Y838740D01*
X3168189D02*
X3188189Y858740D01*
X3208189Y838740D01*
X3188189Y818740D01*
X3168189Y838740D01*
X3404410D02*
X3424410Y858740D01*
X3444410Y838740D01*
X3424410Y818740D01*
X3404410Y838740D01*
X3640630D02*
X3660630Y858740D01*
X3680630Y838740D01*
X3660630Y818740D01*
X3640630Y838740D01*
X3876850D02*
X3896850Y858740D01*
X3916850Y838740D01*
X3896850Y818740D01*
X3876850Y838740D01*
X1829606D02*
X1849606Y858740D01*
X1869606Y838740D01*
X1849606Y818740D01*
X1829606Y838740D01*
X1593386D02*
X1613386Y858740D01*
X1633386Y838740D01*
X1613386Y818740D01*
X1593386Y838740D01*
X1357165D02*
X1377165Y858740D01*
X1397165Y838740D01*
X1377165Y818740D01*
X1357165Y838740D01*
X1120945D02*
X1140945Y858740D01*
X1160945Y838740D01*
X1140945Y818740D01*
X1120945Y838740D01*
X884724D02*
X904724Y858740D01*
X924724Y838740D01*
X904724Y818740D01*
X884724Y838740D01*
X648504D02*
X668504Y858740D01*
X688504Y838740D01*
X668504Y818740D01*
X648504Y838740D01*
X412284D02*
X432284Y858740D01*
X452284Y838740D01*
X432284Y818740D01*
X412284Y838740D01*
X176850D02*
X196850Y858740D01*
X216850Y838740D01*
X196850Y818740D01*
X176850Y838740D01*
X1244173Y1023622D02*
X1264173Y1043622D01*
X1284173Y1023622D01*
X1264173Y1003622D01*
X1244173Y1023622D01*
X220551D02*
X240551Y1043622D01*
X260551Y1023622D01*
X240551Y1003622D01*
X220551Y1023622D01*
X1851063Y804587D02*
X1871063Y824587D01*
X1891063Y804587D01*
X1871063Y784587D01*
X1851063Y804587D01*
X1253622Y393701D02*
X1273622Y413701D01*
X1293622Y393701D01*
X1273622Y373701D01*
X1253622Y393701D01*
X1344173Y1425000D02*
X1364173Y1445000D01*
X1384173Y1425000D01*
X1364173Y1405000D01*
X1344173Y1425000D01*
X1962283Y393701D02*
X1982283Y413701D01*
X2002283Y393701D01*
X1982283Y373701D01*
X1962283Y393701D01*
X1726063D02*
X1746063Y413701D01*
X1766063Y393701D01*
X1746063Y373701D01*
X1726063Y393701D01*
X1489842D02*
X1509842Y413701D01*
X1529842Y393701D01*
X1509842Y373701D01*
X1489842Y393701D01*
X1017402D02*
X1037401Y413701D01*
X1057401Y393701D01*
X1037401Y373701D01*
X1017402Y393701D01*
X781181D02*
X801181Y413701D01*
X821181Y393701D01*
X801181Y373701D01*
X781181Y393701D01*
X544961D02*
X564961Y413701D01*
X584961Y393701D01*
X564961Y373701D01*
X544961Y393701D01*
X308740D02*
X328740Y413701D01*
X348740Y393701D01*
X328740Y373701D01*
X308740Y393701D01*
X1944173Y1425000D02*
X1964173Y1445000D01*
X1984173Y1425000D01*
X1964173Y1405000D01*
X1944173Y1425000D01*
X1844173D02*
X1864173Y1445000D01*
X1884173Y1425000D01*
X1864173Y1405000D01*
X1844173Y1425000D01*
X1744173D02*
X1764173Y1445000D01*
X1784173Y1425000D01*
X1764173Y1405000D01*
X1744173Y1425000D01*
X1644173D02*
X1664173Y1445000D01*
X1684173Y1425000D01*
X1664173Y1405000D01*
X1644173Y1425000D01*
X1544173D02*
X1564173Y1445000D01*
X1584173Y1425000D01*
X1564173Y1405000D01*
X1544173Y1425000D01*
X1444173D02*
X1464173Y1445000D01*
X1484173Y1425000D01*
X1464173Y1405000D01*
X1444173Y1425000D01*
X1244173D02*
X1264173Y1445000D01*
X1284173Y1425000D01*
X1264173Y1405000D01*
X1244173Y1425000D01*
X1816614Y393701D02*
X1836614Y413701D01*
X1856614Y393701D01*
X1836614Y373701D01*
X1816614Y393701D01*
D897*
X10059370Y2767716D02*
G03*
X10059370Y2767716I-20000J0D01*
G01*
Y2547244D02*
G03*
X10059370Y2547244I-20000J0D01*
G01*
Y3358268D02*
G03*
X10059370Y3358268I-20000J0D01*
G01*
Y3137795D02*
G03*
X10059370Y3137795I-20000J0D01*
G01*
Y3948819D02*
G03*
X10059370Y3948819I-20000J0D01*
G01*
Y3728347D02*
G03*
X10059370Y3728347I-20000J0D01*
G01*
Y4539370D02*
G03*
X10059370Y4539370I-20000J0D01*
G01*
Y4318898D02*
G03*
X10059370Y4318898I-20000J0D01*
G01*
%TF.MD5,7bc34cd1152f5919e3d6f162c763d2e4*%
M02*
