%TF.GenerationSoftware,Altium Limited,Altium Designer,20.0.13 (296)*%
G04 Layer_Color=0*
%FSLAX26Y26*%
%MOIN*%
%TF.FileFunction,Other,Mechanical_16*%
%TF.Part,Single*%
G01*
G75*
%TA.AperFunction,NonConductor*%
%ADD84C,0.003940*%
D84*
X6219528Y4243307D02*
Y4301807D01*
X6339528D01*
Y4243307D02*
Y4301807D01*
X6244528Y4278307D02*
X6264528D01*
X6244528Y4258307D02*
Y4278307D01*
Y4258307D02*
X6264528D01*
Y4278307D01*
X6194528Y4260317D02*
Y4276297D01*
Y4260317D02*
X6219528D01*
X6194528Y4276297D02*
X6219528D01*
Y4193307D02*
Y4243307D01*
X6194528Y4226297D02*
X6219528D01*
X6194528Y4210317D02*
X6219528D01*
X6194528D02*
Y4226297D01*
X6264528Y4208307D02*
Y4228307D01*
X6244528Y4208307D02*
X6264528D01*
X6244528D02*
Y4228307D01*
X6264528D01*
X6219528Y4143307D02*
Y4193307D01*
X6194528Y4176297D02*
X6219528D01*
X6194528Y4160317D02*
Y4176297D01*
X6264528Y4158307D02*
Y4178307D01*
X6244528Y4158307D02*
Y4178307D01*
X6264528D01*
X6294528Y4278307D02*
X6314528D01*
X6294528Y4258307D02*
Y4278307D01*
Y4258307D02*
X6314528D01*
Y4278307D01*
X6364528Y4260317D02*
Y4276297D01*
X6339528Y4260317D02*
X6364528D01*
X6339528Y4276297D02*
X6364528D01*
X6339528Y4193307D02*
Y4243307D01*
Y4210317D02*
X6364528D01*
X6339528Y4226297D02*
X6364528D01*
Y4210317D02*
Y4226297D01*
X6314528Y4208307D02*
Y4228307D01*
X6294528Y4208307D02*
X6314528D01*
X6294528D02*
Y4228307D01*
X6314528D01*
X6339528Y4143307D02*
Y4193307D01*
Y4176297D02*
X6364528D01*
Y4160317D02*
Y4176297D01*
X6314528Y4158307D02*
Y4178307D01*
X6294528Y4158307D02*
Y4178307D01*
X6314528D01*
X6194528Y4160317D02*
X6219528D01*
X6244528Y4158307D02*
X6264528D01*
X6219528Y4093307D02*
Y4143307D01*
X6194528Y4126297D02*
X6219528D01*
X6194528Y4110317D02*
X6219528D01*
X6194528D02*
Y4126297D01*
X6264528Y4108307D02*
Y4128307D01*
X6244528Y4108307D02*
X6264528D01*
X6244528D02*
Y4128307D01*
X6264528D01*
X6219528Y4043307D02*
Y4093307D01*
X6194528Y4076297D02*
X6219528D01*
X6194528Y4060317D02*
X6219528D01*
X6194528D02*
Y4076297D01*
X6264528Y4058307D02*
Y4078307D01*
X6244528Y4058307D02*
X6264528D01*
X6244528D02*
Y4078307D01*
X6264528D01*
X6219528Y3993307D02*
Y4043307D01*
X6339528Y4160317D02*
X6364528D01*
X6294528Y4158307D02*
X6314528D01*
X6339528Y4093307D02*
Y4143307D01*
Y4110317D02*
X6364528D01*
X6339528Y4126297D02*
X6364528D01*
Y4110317D02*
Y4126297D01*
X6314528Y4108307D02*
Y4128307D01*
X6294528Y4108307D02*
X6314528D01*
X6294528D02*
Y4128307D01*
X6314528D01*
X6339528Y4043307D02*
Y4093307D01*
Y4060317D02*
X6364528D01*
X6339528Y4076297D02*
X6364528D01*
Y4060317D02*
Y4076297D01*
X6314528Y4058307D02*
Y4078307D01*
X6294528Y4058307D02*
X6314528D01*
X6294528D02*
Y4078307D01*
X6314528D01*
X6339528Y3993307D02*
Y4043307D01*
X6194528Y4026297D02*
X6219528D01*
X6194528Y4010317D02*
X6219528D01*
X6194528D02*
Y4026297D01*
X6264528Y4008307D02*
Y4028307D01*
X6244528Y4008307D02*
X6264528D01*
X6244528D02*
Y4028307D01*
X6264528D01*
X6219528Y3943307D02*
Y3993307D01*
X6194528Y3976297D02*
X6219528D01*
X6194528Y3960317D02*
X6219528D01*
X6194528D02*
Y3976297D01*
X6264528Y3958307D02*
Y3978307D01*
X6244528Y3958307D02*
X6264528D01*
X6244528D02*
Y3978307D01*
X6264528D01*
X6219528Y3893307D02*
Y3943307D01*
X6194528Y3926297D02*
X6219528D01*
X6194528Y3910317D02*
X6219528D01*
X6194528D02*
Y3926297D01*
X6264528Y3908307D02*
Y3928307D01*
X6244528Y3908307D02*
X6264528D01*
X6244528D02*
Y3928307D01*
X6264528D01*
X6339528Y4010317D02*
X6364528D01*
X6339528Y4026297D02*
X6364528D01*
Y4010317D02*
Y4026297D01*
X6314528Y4008307D02*
Y4028307D01*
X6294528Y4008307D02*
X6314528D01*
X6294528D02*
Y4028307D01*
X6314528D01*
X6339528Y3943307D02*
Y3993307D01*
Y3960317D02*
X6364528D01*
X6339528Y3976297D02*
X6364528D01*
Y3960317D02*
Y3976297D01*
X6314528Y3958307D02*
Y3978307D01*
X6294528Y3958307D02*
X6314528D01*
X6294528D02*
Y3978307D01*
X6314528D01*
X6339528Y3893307D02*
Y3943307D01*
Y3910317D02*
X6364528D01*
X6339528Y3926297D02*
X6364528D01*
Y3910317D02*
Y3926297D01*
X6314528Y3908307D02*
Y3928307D01*
X6294528Y3908307D02*
X6314528D01*
X6294528D02*
Y3928307D01*
X6314528D01*
X6219528Y3843307D02*
Y3893307D01*
X6194528Y3876297D02*
X6219528D01*
X6194528Y3860317D02*
X6219528D01*
X6194528D02*
Y3876297D01*
X6264528Y3858307D02*
Y3878307D01*
X6244528Y3858307D02*
X6264528D01*
X6244528D02*
Y3878307D01*
X6264528D01*
X6219528Y3793307D02*
Y3843307D01*
X6194528Y3826297D02*
X6219528D01*
X6194528Y3810317D02*
X6219528D01*
X6194528D02*
Y3826297D01*
X6264528Y3808307D02*
Y3828307D01*
X6244528Y3808307D02*
X6264528D01*
X6244528D02*
Y3828307D01*
X6264528D01*
X6219528Y3743307D02*
Y3793307D01*
X6194528Y3776297D02*
X6219528D01*
X6194528Y3760317D02*
Y3776297D01*
X6264528Y3758307D02*
Y3778307D01*
X6244528Y3758307D02*
Y3778307D01*
X6264528D01*
X6339528Y3843307D02*
Y3893307D01*
Y3860317D02*
X6364528D01*
X6339528Y3876297D02*
X6364528D01*
Y3860317D02*
Y3876297D01*
X6314528Y3858307D02*
Y3878307D01*
X6294528Y3858307D02*
X6314528D01*
X6294528D02*
Y3878307D01*
X6314528D01*
X6339528Y3793307D02*
Y3843307D01*
Y3810317D02*
X6364528D01*
X6339528Y3826297D02*
X6364528D01*
Y3810317D02*
Y3826297D01*
X6314528Y3808307D02*
Y3828307D01*
X6294528Y3808307D02*
X6314528D01*
X6294528D02*
Y3828307D01*
X6314528D01*
X6339528Y3743307D02*
Y3793307D01*
Y3776297D02*
X6364528D01*
Y3760317D02*
Y3776297D01*
X6314528Y3758307D02*
Y3778307D01*
X6294528Y3758307D02*
Y3778307D01*
X6314528D01*
X6194528Y3760317D02*
X6219528D01*
X6244528Y3758307D02*
X6264528D01*
X6219528Y3693307D02*
Y3743307D01*
X6194528Y3726297D02*
X6219528D01*
X6194528Y3710317D02*
X6219528D01*
X6194528D02*
Y3726297D01*
X6264528Y3708307D02*
Y3728307D01*
X6244528Y3708307D02*
X6264528D01*
X6244528D02*
Y3728307D01*
X6264528D01*
X6219528Y3643307D02*
Y3693307D01*
X6194528Y3676297D02*
X6219528D01*
X6194528Y3660317D02*
X6219528D01*
X6194528D02*
Y3676297D01*
X6264528Y3658307D02*
Y3678307D01*
X6244528Y3658307D02*
X6264528D01*
X6244528D02*
Y3678307D01*
X6264528D01*
X6219528Y3593307D02*
Y3643307D01*
X6339528Y3760317D02*
X6364528D01*
X6294528Y3758307D02*
X6314528D01*
X6339528Y3693307D02*
Y3743307D01*
Y3710317D02*
X6364528D01*
X6339528Y3726297D02*
X6364528D01*
Y3710317D02*
Y3726297D01*
X6314528Y3708307D02*
Y3728307D01*
X6294528Y3708307D02*
X6314528D01*
X6294528D02*
Y3728307D01*
X6314528D01*
X6339528Y3643307D02*
Y3693307D01*
Y3660317D02*
X6364528D01*
X6339528Y3676297D02*
X6364528D01*
Y3660317D02*
Y3676297D01*
X6314528Y3658307D02*
Y3678307D01*
X6294528Y3658307D02*
X6314528D01*
X6294528D02*
Y3678307D01*
X6314528D01*
X6339528Y3593307D02*
Y3643307D01*
X6194528Y3626297D02*
X6219528D01*
X6194528Y3610317D02*
X6219528D01*
X6194528D02*
Y3626297D01*
X6264528Y3608307D02*
Y3628307D01*
X6244528Y3608307D02*
X6264528D01*
X6244528D02*
Y3628307D01*
X6264528D01*
X6219528Y3543307D02*
Y3593307D01*
X6194528Y3576297D02*
X6219528D01*
X6194528Y3560317D02*
X6219528D01*
X6194528D02*
Y3576297D01*
X6264528Y3558307D02*
Y3578307D01*
X6244528Y3558307D02*
X6264528D01*
X6244528D02*
Y3578307D01*
X6264528D01*
X6219528Y3493307D02*
Y3543307D01*
X6194528Y3526297D02*
X6219528D01*
X6194528Y3510317D02*
X6219528D01*
X6194528D02*
Y3526297D01*
X6264528Y3508307D02*
Y3528307D01*
X6244528Y3508307D02*
X6264528D01*
X6244528D02*
Y3528307D01*
X6264528D01*
X6339528Y3610317D02*
X6364528D01*
X6339528Y3626297D02*
X6364528D01*
Y3610317D02*
Y3626297D01*
X6314528Y3608307D02*
Y3628307D01*
X6294528Y3608307D02*
X6314528D01*
X6294528D02*
Y3628307D01*
X6314528D01*
X6339528Y3543307D02*
Y3593307D01*
Y3560317D02*
X6364528D01*
X6339528Y3576297D02*
X6364528D01*
Y3560317D02*
Y3576297D01*
X6314528Y3558307D02*
Y3578307D01*
X6294528Y3558307D02*
X6314528D01*
X6294528D02*
Y3578307D01*
X6314528D01*
X6339528Y3493307D02*
Y3543307D01*
Y3510317D02*
X6364528D01*
X6339528Y3526297D02*
X6364528D01*
Y3510317D02*
Y3526297D01*
X6314528Y3508307D02*
Y3528307D01*
X6294528Y3508307D02*
X6314528D01*
X6294528D02*
Y3528307D01*
X6314528D01*
X6219528Y3443307D02*
Y3493307D01*
X6194528Y3476297D02*
X6219528D01*
X6194528Y3460317D02*
X6219528D01*
X6194528D02*
Y3476297D01*
X6264528Y3458307D02*
Y3478307D01*
X6244528Y3458307D02*
X6264528D01*
X6244528D02*
Y3478307D01*
X6264528D01*
X6219528Y3393307D02*
Y3443307D01*
X6194528Y3426297D02*
X6219528D01*
X6194528Y3410317D02*
X6219528D01*
X6194528D02*
Y3426297D01*
X6264528Y3408307D02*
Y3428307D01*
X6244528Y3408307D02*
X6264528D01*
X6244528D02*
Y3428307D01*
X6264528D01*
X6219528Y3343307D02*
Y3393307D01*
X6194528Y3376297D02*
X6219528D01*
X6194528Y3360317D02*
Y3376297D01*
X6264528Y3358307D02*
Y3378307D01*
X6244528Y3358307D02*
Y3378307D01*
X6264528D01*
X6339528Y3443307D02*
Y3493307D01*
Y3460317D02*
X6364528D01*
X6339528Y3476297D02*
X6364528D01*
Y3460317D02*
Y3476297D01*
X6314528Y3458307D02*
Y3478307D01*
X6294528Y3458307D02*
X6314528D01*
X6294528D02*
Y3478307D01*
X6314528D01*
X6339528Y3393307D02*
Y3443307D01*
Y3410317D02*
X6364528D01*
X6339528Y3426297D02*
X6364528D01*
Y3410317D02*
Y3426297D01*
X6314528Y3408307D02*
Y3428307D01*
X6294528Y3408307D02*
X6314528D01*
X6294528D02*
Y3428307D01*
X6314528D01*
X6339528Y3343307D02*
Y3393307D01*
Y3376297D02*
X6364528D01*
Y3360317D02*
Y3376297D01*
X6314528Y3358307D02*
Y3378307D01*
X6294528Y3358307D02*
Y3378307D01*
X6314528D01*
X6194528Y3360317D02*
X6219528D01*
X6244528Y3358307D02*
X6264528D01*
X6219528Y3293307D02*
Y3343307D01*
X6194528Y3326297D02*
X6219528D01*
X6194528Y3310317D02*
X6219528D01*
X6194528D02*
Y3326297D01*
X6264528Y3308307D02*
Y3328307D01*
X6244528Y3308307D02*
X6264528D01*
X6244528D02*
Y3328307D01*
X6264528D01*
X6219528Y3243307D02*
Y3293307D01*
X6194528Y3276297D02*
X6219528D01*
X6194528Y3260317D02*
X6219528D01*
X6194528D02*
Y3276297D01*
X6264528Y3258307D02*
Y3278307D01*
X6244528Y3258307D02*
X6264528D01*
X6244528D02*
Y3278307D01*
X6264528D01*
X6219528Y3193307D02*
Y3243307D01*
X6339528Y3360317D02*
X6364528D01*
X6294528Y3358307D02*
X6314528D01*
X6339528Y3293307D02*
Y3343307D01*
Y3310317D02*
X6364528D01*
X6339528Y3326297D02*
X6364528D01*
Y3310317D02*
Y3326297D01*
X6314528Y3308307D02*
Y3328307D01*
X6294528Y3308307D02*
X6314528D01*
X6294528D02*
Y3328307D01*
X6314528D01*
X6339528Y3243307D02*
Y3293307D01*
Y3260317D02*
X6364528D01*
X6339528Y3276297D02*
X6364528D01*
Y3260317D02*
Y3276297D01*
X6314528Y3258307D02*
Y3278307D01*
X6294528Y3258307D02*
X6314528D01*
X6294528D02*
Y3278307D01*
X6314528D01*
X6339528Y3193307D02*
Y3243307D01*
X6194528Y3226297D02*
X6219528D01*
X6194528Y3210317D02*
X6219528D01*
X6194528D02*
Y3226297D01*
X6264528Y3208307D02*
Y3228307D01*
X6244528Y3208307D02*
X6264528D01*
X6244528D02*
Y3228307D01*
X6264528D01*
X6219528Y3143307D02*
Y3193307D01*
X6194528Y3176297D02*
X6219528D01*
X6194528Y3160317D02*
X6219528D01*
X6194528D02*
Y3176297D01*
X6264528Y3158307D02*
Y3178307D01*
X6244528Y3158307D02*
X6264528D01*
X6244528D02*
Y3178307D01*
X6264528D01*
X6219528Y3093307D02*
Y3143307D01*
X6194528Y3126297D02*
X6219528D01*
X6194528Y3110317D02*
X6219528D01*
X6194528D02*
Y3126297D01*
X6264528Y3108307D02*
Y3128307D01*
X6244528Y3108307D02*
Y3128307D01*
X6264528D01*
X6339528Y3210317D02*
X6364528D01*
X6339528Y3226297D02*
X6364528D01*
Y3210317D02*
Y3226297D01*
X6314528Y3208307D02*
Y3228307D01*
X6294528Y3208307D02*
X6314528D01*
X6294528D02*
Y3228307D01*
X6314528D01*
X6339528Y3143307D02*
Y3193307D01*
Y3160317D02*
X6364528D01*
X6339528Y3176297D02*
X6364528D01*
Y3160317D02*
Y3176297D01*
X6314528Y3158307D02*
Y3178307D01*
X6294528Y3158307D02*
X6314528D01*
X6294528D02*
Y3178307D01*
X6314528D01*
X6339528Y3093307D02*
Y3143307D01*
Y3110317D02*
X6364528D01*
X6339528Y3126297D02*
X6364528D01*
Y3110317D02*
Y3126297D01*
X6314528Y3108307D02*
Y3128307D01*
X6294528Y3108307D02*
Y3128307D01*
X6314528D01*
X6244528Y3108307D02*
X6264528D01*
X6219528Y3043307D02*
Y3093307D01*
X6194528Y3076297D02*
X6219528D01*
X6194528Y3060317D02*
X6219528D01*
X6194528D02*
Y3076297D01*
X6264528Y3058307D02*
Y3078307D01*
X6244528Y3058307D02*
X6264528D01*
X6244528D02*
Y3078307D01*
X6264528D01*
X6219528Y2993307D02*
Y3043307D01*
X6194528Y3026297D02*
X6219528D01*
X6194528Y3010317D02*
X6219528D01*
X6194528D02*
Y3026297D01*
X6264528Y3008307D02*
Y3028307D01*
X6244528Y3008307D02*
X6264528D01*
X6244528D02*
Y3028307D01*
X6264528D01*
X6219528Y2943307D02*
Y2993307D01*
X6264528Y2958307D02*
Y2978307D01*
X6244528Y2958307D02*
Y2978307D01*
X6264528D01*
X6294528Y3108307D02*
X6314528D01*
X6339528Y3043307D02*
Y3093307D01*
Y3060317D02*
X6364528D01*
X6339528Y3076297D02*
X6364528D01*
Y3060317D02*
Y3076297D01*
X6314528Y3058307D02*
Y3078307D01*
X6294528Y3058307D02*
X6314528D01*
X6294528D02*
Y3078307D01*
X6314528D01*
X6339528Y2993307D02*
Y3043307D01*
Y3010317D02*
X6364528D01*
X6339528Y3026297D02*
X6364528D01*
Y3010317D02*
Y3026297D01*
X6314528Y3008307D02*
Y3028307D01*
X6294528Y3008307D02*
X6314528D01*
X6294528D02*
Y3028307D01*
X6314528D01*
X6339528Y2943307D02*
Y2993307D01*
X6314528Y2958307D02*
Y2978307D01*
X6294528Y2958307D02*
Y2978307D01*
X6314528D01*
X6194528Y2976297D02*
X6219528D01*
X6194528Y2960317D02*
X6219528D01*
X6194528D02*
Y2976297D01*
X6244528Y2958307D02*
X6264528D01*
X6219528Y2893307D02*
Y2943307D01*
X6194528Y2926297D02*
X6219528D01*
X6194528Y2910317D02*
X6219528D01*
X6194528D02*
Y2926297D01*
X6264528Y2908307D02*
Y2928307D01*
X6244528Y2908307D02*
X6264528D01*
X6244528D02*
Y2928307D01*
X6264528D01*
X6219528Y2843307D02*
Y2893307D01*
X6194528Y2876297D02*
X6219528D01*
X6194528Y2860317D02*
X6219528D01*
X6194528D02*
Y2876297D01*
X6264528Y2858307D02*
Y2878307D01*
X6244528Y2858307D02*
X6264528D01*
X6244528D02*
Y2878307D01*
X6264528D01*
X6339528Y2960317D02*
X6364528D01*
X6339528Y2976297D02*
X6364528D01*
Y2960317D02*
Y2976297D01*
X6294528Y2958307D02*
X6314528D01*
X6339528Y2893307D02*
Y2943307D01*
Y2910317D02*
X6364528D01*
X6339528Y2926297D02*
X6364528D01*
Y2910317D02*
Y2926297D01*
X6314528Y2908307D02*
Y2928307D01*
X6294528Y2908307D02*
X6314528D01*
X6294528D02*
Y2928307D01*
X6314528D01*
X6339528Y2843307D02*
Y2893307D01*
Y2860317D02*
X6364528D01*
X6339528Y2876297D02*
X6364528D01*
Y2860317D02*
Y2876297D01*
X6314528Y2858307D02*
Y2878307D01*
X6294528Y2858307D02*
X6314528D01*
X6294528D02*
Y2878307D01*
X6314528D01*
X6219528Y2784807D02*
Y2843307D01*
X6194528Y2810317D02*
Y2826297D01*
X6219528Y2784807D02*
X6339528D01*
X6244528Y2828307D02*
X6264528D01*
X6244528Y2808307D02*
Y2828307D01*
Y2808307D02*
X6264528D01*
Y2828307D01*
X6194528Y2826297D02*
X6219528D01*
X6194528Y2810317D02*
X6219528D01*
X6339528Y2784807D02*
Y2843307D01*
X6294528Y2828307D02*
X6314528D01*
X6294528Y2808307D02*
Y2828307D01*
Y2808307D02*
X6314528D01*
Y2828307D01*
X6364528Y2810317D02*
Y2826297D01*
X6339528D02*
X6364528D01*
X6339528Y2810317D02*
X6364528D01*
X3857323Y4243307D02*
Y4301807D01*
X3977323D01*
Y4243307D02*
Y4301807D01*
X3882323Y4278307D02*
X3902323D01*
X3882323Y4258307D02*
Y4278307D01*
Y4258307D02*
X3902323D01*
Y4278307D01*
X3832323Y4260317D02*
Y4276297D01*
Y4260317D02*
X3857323D01*
X3832323Y4276297D02*
X3857323D01*
Y4193307D02*
Y4243307D01*
X3832323Y4226297D02*
X3857323D01*
X3832323Y4210317D02*
X3857323D01*
X3832323D02*
Y4226297D01*
X3902323Y4208307D02*
Y4228307D01*
X3882323Y4208307D02*
X3902323D01*
X3882323D02*
Y4228307D01*
X3902323D01*
X3857323Y4143307D02*
Y4193307D01*
X3832323Y4176297D02*
X3857323D01*
X3832323Y4160317D02*
Y4176297D01*
X3902323Y4158307D02*
Y4178307D01*
X3882323Y4158307D02*
Y4178307D01*
X3902323D01*
X3932323Y4278307D02*
X3952323D01*
X3932323Y4258307D02*
Y4278307D01*
Y4258307D02*
X3952323D01*
Y4278307D01*
X4002323Y4260317D02*
Y4276297D01*
X3977323Y4260317D02*
X4002323D01*
X3977323Y4276297D02*
X4002323D01*
X3977323Y4193307D02*
Y4243307D01*
Y4210317D02*
X4002323D01*
X3977323Y4226297D02*
X4002323D01*
Y4210317D02*
Y4226297D01*
X3952323Y4208307D02*
Y4228307D01*
X3932323Y4208307D02*
X3952323D01*
X3932323D02*
Y4228307D01*
X3952323D01*
X3977323Y4143307D02*
Y4193307D01*
Y4176297D02*
X4002323D01*
Y4160317D02*
Y4176297D01*
X3952323Y4158307D02*
Y4178307D01*
X3932323Y4158307D02*
Y4178307D01*
X3952323D01*
X3832323Y4160317D02*
X3857323D01*
X3882323Y4158307D02*
X3902323D01*
X3857323Y4093307D02*
Y4143307D01*
X3832323Y4126297D02*
X3857323D01*
X3832323Y4110317D02*
X3857323D01*
X3832323D02*
Y4126297D01*
X3902323Y4108307D02*
Y4128307D01*
X3882323Y4108307D02*
X3902323D01*
X3882323D02*
Y4128307D01*
X3902323D01*
X3857323Y4043307D02*
Y4093307D01*
X3832323Y4076297D02*
X3857323D01*
X3832323Y4060317D02*
X3857323D01*
X3832323D02*
Y4076297D01*
X3902323Y4058307D02*
Y4078307D01*
X3882323Y4058307D02*
X3902323D01*
X3882323D02*
Y4078307D01*
X3902323D01*
X3857323Y3993307D02*
Y4043307D01*
X3977323Y4160317D02*
X4002323D01*
X3932323Y4158307D02*
X3952323D01*
X3977323Y4093307D02*
Y4143307D01*
Y4110317D02*
X4002323D01*
X3977323Y4126297D02*
X4002323D01*
Y4110317D02*
Y4126297D01*
X3952323Y4108307D02*
Y4128307D01*
X3932323Y4108307D02*
X3952323D01*
X3932323D02*
Y4128307D01*
X3952323D01*
X3977323Y4043307D02*
Y4093307D01*
Y4060317D02*
X4002323D01*
X3977323Y4076297D02*
X4002323D01*
Y4060317D02*
Y4076297D01*
X3952323Y4058307D02*
Y4078307D01*
X3932323Y4058307D02*
X3952323D01*
X3932323D02*
Y4078307D01*
X3952323D01*
X3977323Y3993307D02*
Y4043307D01*
X3832323Y4026297D02*
X3857323D01*
X3832323Y4010317D02*
X3857323D01*
X3832323D02*
Y4026297D01*
X3902323Y4008307D02*
Y4028307D01*
X3882323Y4008307D02*
X3902323D01*
X3882323D02*
Y4028307D01*
X3902323D01*
X3857323Y3943307D02*
Y3993307D01*
X3832323Y3976297D02*
X3857323D01*
X3832323Y3960317D02*
X3857323D01*
X3832323D02*
Y3976297D01*
X3902323Y3958307D02*
Y3978307D01*
X3882323Y3958307D02*
X3902323D01*
X3882323D02*
Y3978307D01*
X3902323D01*
X3857323Y3893307D02*
Y3943307D01*
X3832323Y3926297D02*
X3857323D01*
X3832323Y3910317D02*
X3857323D01*
X3832323D02*
Y3926297D01*
X3902323Y3908307D02*
Y3928307D01*
X3882323Y3908307D02*
X3902323D01*
X3882323D02*
Y3928307D01*
X3902323D01*
X3977323Y4010317D02*
X4002323D01*
X3977323Y4026297D02*
X4002323D01*
Y4010317D02*
Y4026297D01*
X3952323Y4008307D02*
Y4028307D01*
X3932323Y4008307D02*
X3952323D01*
X3932323D02*
Y4028307D01*
X3952323D01*
X3977323Y3943307D02*
Y3993307D01*
Y3960317D02*
X4002323D01*
X3977323Y3976297D02*
X4002323D01*
Y3960317D02*
Y3976297D01*
X3952323Y3958307D02*
Y3978307D01*
X3932323Y3958307D02*
X3952323D01*
X3932323D02*
Y3978307D01*
X3952323D01*
X3977323Y3893307D02*
Y3943307D01*
Y3910317D02*
X4002323D01*
X3977323Y3926297D02*
X4002323D01*
Y3910317D02*
Y3926297D01*
X3952323Y3908307D02*
Y3928307D01*
X3932323Y3908307D02*
X3952323D01*
X3932323D02*
Y3928307D01*
X3952323D01*
X3857323Y3843307D02*
Y3893307D01*
X3832323Y3876297D02*
X3857323D01*
X3832323Y3860317D02*
X3857323D01*
X3832323D02*
Y3876297D01*
X3902323Y3858307D02*
Y3878307D01*
X3882323Y3858307D02*
X3902323D01*
X3882323D02*
Y3878307D01*
X3902323D01*
X3857323Y3793307D02*
Y3843307D01*
X3832323Y3826297D02*
X3857323D01*
X3832323Y3810317D02*
X3857323D01*
X3832323D02*
Y3826297D01*
X3902323Y3808307D02*
Y3828307D01*
X3882323Y3808307D02*
X3902323D01*
X3882323D02*
Y3828307D01*
X3902323D01*
X3857323Y3743307D02*
Y3793307D01*
X3832323Y3776297D02*
X3857323D01*
X3832323Y3760317D02*
Y3776297D01*
X3902323Y3758307D02*
Y3778307D01*
X3882323Y3758307D02*
Y3778307D01*
X3902323D01*
X3977323Y3843307D02*
Y3893307D01*
Y3860317D02*
X4002323D01*
X3977323Y3876297D02*
X4002323D01*
Y3860317D02*
Y3876297D01*
X3952323Y3858307D02*
Y3878307D01*
X3932323Y3858307D02*
X3952323D01*
X3932323D02*
Y3878307D01*
X3952323D01*
X3977323Y3793307D02*
Y3843307D01*
Y3810317D02*
X4002323D01*
X3977323Y3826297D02*
X4002323D01*
Y3810317D02*
Y3826297D01*
X3952323Y3808307D02*
Y3828307D01*
X3932323Y3808307D02*
X3952323D01*
X3932323D02*
Y3828307D01*
X3952323D01*
X3977323Y3743307D02*
Y3793307D01*
Y3776297D02*
X4002323D01*
Y3760317D02*
Y3776297D01*
X3952323Y3758307D02*
Y3778307D01*
X3932323Y3758307D02*
Y3778307D01*
X3952323D01*
X3832323Y3760317D02*
X3857323D01*
X3882323Y3758307D02*
X3902323D01*
X3857323Y3693307D02*
Y3743307D01*
X3832323Y3726297D02*
X3857323D01*
X3832323Y3710317D02*
X3857323D01*
X3832323D02*
Y3726297D01*
X3902323Y3708307D02*
Y3728307D01*
X3882323Y3708307D02*
X3902323D01*
X3882323D02*
Y3728307D01*
X3902323D01*
X3857323Y3643307D02*
Y3693307D01*
X3832323Y3676297D02*
X3857323D01*
X3832323Y3660317D02*
X3857323D01*
X3832323D02*
Y3676297D01*
X3902323Y3658307D02*
Y3678307D01*
X3882323Y3658307D02*
X3902323D01*
X3882323D02*
Y3678307D01*
X3902323D01*
X3857323Y3593307D02*
Y3643307D01*
X3977323Y3760317D02*
X4002323D01*
X3932323Y3758307D02*
X3952323D01*
X3977323Y3693307D02*
Y3743307D01*
Y3710317D02*
X4002323D01*
X3977323Y3726297D02*
X4002323D01*
Y3710317D02*
Y3726297D01*
X3952323Y3708307D02*
Y3728307D01*
X3932323Y3708307D02*
X3952323D01*
X3932323D02*
Y3728307D01*
X3952323D01*
X3977323Y3643307D02*
Y3693307D01*
Y3660317D02*
X4002323D01*
X3977323Y3676297D02*
X4002323D01*
Y3660317D02*
Y3676297D01*
X3952323Y3658307D02*
Y3678307D01*
X3932323Y3658307D02*
X3952323D01*
X3932323D02*
Y3678307D01*
X3952323D01*
X3977323Y3593307D02*
Y3643307D01*
X3832323Y3626297D02*
X3857323D01*
X3832323Y3610317D02*
X3857323D01*
X3832323D02*
Y3626297D01*
X3902323Y3608307D02*
Y3628307D01*
X3882323Y3608307D02*
X3902323D01*
X3882323D02*
Y3628307D01*
X3902323D01*
X3857323Y3543307D02*
Y3593307D01*
X3832323Y3576297D02*
X3857323D01*
X3832323Y3560317D02*
X3857323D01*
X3832323D02*
Y3576297D01*
X3902323Y3558307D02*
Y3578307D01*
X3882323Y3558307D02*
X3902323D01*
X3882323D02*
Y3578307D01*
X3902323D01*
X3857323Y3493307D02*
Y3543307D01*
X3832323Y3526297D02*
X3857323D01*
X3832323Y3510317D02*
X3857323D01*
X3832323D02*
Y3526297D01*
X3902323Y3508307D02*
Y3528307D01*
X3882323Y3508307D02*
X3902323D01*
X3882323D02*
Y3528307D01*
X3902323D01*
X3977323Y3610317D02*
X4002323D01*
X3977323Y3626297D02*
X4002323D01*
Y3610317D02*
Y3626297D01*
X3952323Y3608307D02*
Y3628307D01*
X3932323Y3608307D02*
X3952323D01*
X3932323D02*
Y3628307D01*
X3952323D01*
X3977323Y3543307D02*
Y3593307D01*
Y3560317D02*
X4002323D01*
X3977323Y3576297D02*
X4002323D01*
Y3560317D02*
Y3576297D01*
X3952323Y3558307D02*
Y3578307D01*
X3932323Y3558307D02*
X3952323D01*
X3932323D02*
Y3578307D01*
X3952323D01*
X3977323Y3493307D02*
Y3543307D01*
Y3510317D02*
X4002323D01*
X3977323Y3526297D02*
X4002323D01*
Y3510317D02*
Y3526297D01*
X3952323Y3508307D02*
Y3528307D01*
X3932323Y3508307D02*
X3952323D01*
X3932323D02*
Y3528307D01*
X3952323D01*
X3857323Y3443307D02*
Y3493307D01*
X3832323Y3476297D02*
X3857323D01*
X3832323Y3460317D02*
X3857323D01*
X3832323D02*
Y3476297D01*
X3902323Y3458307D02*
Y3478307D01*
X3882323Y3458307D02*
X3902323D01*
X3882323D02*
Y3478307D01*
X3902323D01*
X3857323Y3393307D02*
Y3443307D01*
X3832323Y3426297D02*
X3857323D01*
X3832323Y3410317D02*
X3857323D01*
X3832323D02*
Y3426297D01*
X3902323Y3408307D02*
Y3428307D01*
X3882323Y3408307D02*
X3902323D01*
X3882323D02*
Y3428307D01*
X3902323D01*
X3857323Y3343307D02*
Y3393307D01*
X3832323Y3376297D02*
X3857323D01*
X3832323Y3360317D02*
Y3376297D01*
X3902323Y3358307D02*
Y3378307D01*
X3882323Y3358307D02*
Y3378307D01*
X3902323D01*
X3977323Y3443307D02*
Y3493307D01*
Y3460317D02*
X4002323D01*
X3977323Y3476297D02*
X4002323D01*
Y3460317D02*
Y3476297D01*
X3952323Y3458307D02*
Y3478307D01*
X3932323Y3458307D02*
X3952323D01*
X3932323D02*
Y3478307D01*
X3952323D01*
X3977323Y3393307D02*
Y3443307D01*
Y3410317D02*
X4002323D01*
X3977323Y3426297D02*
X4002323D01*
Y3410317D02*
Y3426297D01*
X3952323Y3408307D02*
Y3428307D01*
X3932323Y3408307D02*
X3952323D01*
X3932323D02*
Y3428307D01*
X3952323D01*
X3977323Y3343307D02*
Y3393307D01*
Y3376297D02*
X4002323D01*
Y3360317D02*
Y3376297D01*
X3952323Y3358307D02*
Y3378307D01*
X3932323Y3358307D02*
Y3378307D01*
X3952323D01*
X3832323Y3360317D02*
X3857323D01*
X3882323Y3358307D02*
X3902323D01*
X3857323Y3293307D02*
Y3343307D01*
X3832323Y3326297D02*
X3857323D01*
X3832323Y3310317D02*
X3857323D01*
X3832323D02*
Y3326297D01*
X3902323Y3308307D02*
Y3328307D01*
X3882323Y3308307D02*
X3902323D01*
X3882323D02*
Y3328307D01*
X3902323D01*
X3857323Y3243307D02*
Y3293307D01*
X3832323Y3276297D02*
X3857323D01*
X3832323Y3260317D02*
X3857323D01*
X3832323D02*
Y3276297D01*
X3902323Y3258307D02*
Y3278307D01*
X3882323Y3258307D02*
X3902323D01*
X3882323D02*
Y3278307D01*
X3902323D01*
X3857323Y3193307D02*
Y3243307D01*
X3977323Y3360317D02*
X4002323D01*
X3932323Y3358307D02*
X3952323D01*
X3977323Y3293307D02*
Y3343307D01*
Y3310317D02*
X4002323D01*
X3977323Y3326297D02*
X4002323D01*
Y3310317D02*
Y3326297D01*
X3952323Y3308307D02*
Y3328307D01*
X3932323Y3308307D02*
X3952323D01*
X3932323D02*
Y3328307D01*
X3952323D01*
X3977323Y3243307D02*
Y3293307D01*
Y3260317D02*
X4002323D01*
X3977323Y3276297D02*
X4002323D01*
Y3260317D02*
Y3276297D01*
X3952323Y3258307D02*
Y3278307D01*
X3932323Y3258307D02*
X3952323D01*
X3932323D02*
Y3278307D01*
X3952323D01*
X3977323Y3193307D02*
Y3243307D01*
X3832323Y3226297D02*
X3857323D01*
X3832323Y3210317D02*
X3857323D01*
X3832323D02*
Y3226297D01*
X3902323Y3208307D02*
Y3228307D01*
X3882323Y3208307D02*
X3902323D01*
X3882323D02*
Y3228307D01*
X3902323D01*
X3857323Y3143307D02*
Y3193307D01*
X3832323Y3176297D02*
X3857323D01*
X3832323Y3160317D02*
X3857323D01*
X3832323D02*
Y3176297D01*
X3902323Y3158307D02*
Y3178307D01*
X3882323Y3158307D02*
X3902323D01*
X3882323D02*
Y3178307D01*
X3902323D01*
X3857323Y3093307D02*
Y3143307D01*
X3832323Y3126297D02*
X3857323D01*
X3832323Y3110317D02*
X3857323D01*
X3832323D02*
Y3126297D01*
X3902323Y3108307D02*
Y3128307D01*
X3882323Y3108307D02*
Y3128307D01*
X3902323D01*
X3977323Y3210317D02*
X4002323D01*
X3977323Y3226297D02*
X4002323D01*
Y3210317D02*
Y3226297D01*
X3952323Y3208307D02*
Y3228307D01*
X3932323Y3208307D02*
X3952323D01*
X3932323D02*
Y3228307D01*
X3952323D01*
X3977323Y3143307D02*
Y3193307D01*
Y3160317D02*
X4002323D01*
X3977323Y3176297D02*
X4002323D01*
Y3160317D02*
Y3176297D01*
X3952323Y3158307D02*
Y3178307D01*
X3932323Y3158307D02*
X3952323D01*
X3932323D02*
Y3178307D01*
X3952323D01*
X3977323Y3093307D02*
Y3143307D01*
Y3110317D02*
X4002323D01*
X3977323Y3126297D02*
X4002323D01*
Y3110317D02*
Y3126297D01*
X3952323Y3108307D02*
Y3128307D01*
X3932323Y3108307D02*
Y3128307D01*
X3952323D01*
X3882323Y3108307D02*
X3902323D01*
X3857323Y3043307D02*
Y3093307D01*
X3832323Y3076297D02*
X3857323D01*
X3832323Y3060317D02*
X3857323D01*
X3832323D02*
Y3076297D01*
X3902323Y3058307D02*
Y3078307D01*
X3882323Y3058307D02*
X3902323D01*
X3882323D02*
Y3078307D01*
X3902323D01*
X3857323Y2993307D02*
Y3043307D01*
X3832323Y3026297D02*
X3857323D01*
X3832323Y3010317D02*
X3857323D01*
X3832323D02*
Y3026297D01*
X3902323Y3008307D02*
Y3028307D01*
X3882323Y3008307D02*
X3902323D01*
X3882323D02*
Y3028307D01*
X3902323D01*
X3857323Y2943307D02*
Y2993307D01*
X3902323Y2958307D02*
Y2978307D01*
X3882323Y2958307D02*
Y2978307D01*
X3902323D01*
X3932323Y3108307D02*
X3952323D01*
X3977323Y3043307D02*
Y3093307D01*
Y3060317D02*
X4002323D01*
X3977323Y3076297D02*
X4002323D01*
Y3060317D02*
Y3076297D01*
X3952323Y3058307D02*
Y3078307D01*
X3932323Y3058307D02*
X3952323D01*
X3932323D02*
Y3078307D01*
X3952323D01*
X3977323Y2993307D02*
Y3043307D01*
Y3010317D02*
X4002323D01*
X3977323Y3026297D02*
X4002323D01*
Y3010317D02*
Y3026297D01*
X3952323Y3008307D02*
Y3028307D01*
X3932323Y3008307D02*
X3952323D01*
X3932323D02*
Y3028307D01*
X3952323D01*
X3977323Y2943307D02*
Y2993307D01*
X3952323Y2958307D02*
Y2978307D01*
X3932323Y2958307D02*
Y2978307D01*
X3952323D01*
X3832323Y2976297D02*
X3857323D01*
X3832323Y2960317D02*
X3857323D01*
X3832323D02*
Y2976297D01*
X3882323Y2958307D02*
X3902323D01*
X3857323Y2893307D02*
Y2943307D01*
X3832323Y2926297D02*
X3857323D01*
X3832323Y2910317D02*
X3857323D01*
X3832323D02*
Y2926297D01*
X3902323Y2908307D02*
Y2928307D01*
X3882323Y2908307D02*
X3902323D01*
X3882323D02*
Y2928307D01*
X3902323D01*
X3857323Y2843307D02*
Y2893307D01*
X3832323Y2876297D02*
X3857323D01*
X3832323Y2860317D02*
X3857323D01*
X3832323D02*
Y2876297D01*
X3902323Y2858307D02*
Y2878307D01*
X3882323Y2858307D02*
X3902323D01*
X3882323D02*
Y2878307D01*
X3902323D01*
X3977323Y2960317D02*
X4002323D01*
X3977323Y2976297D02*
X4002323D01*
Y2960317D02*
Y2976297D01*
X3932323Y2958307D02*
X3952323D01*
X3977323Y2893307D02*
Y2943307D01*
Y2910317D02*
X4002323D01*
X3977323Y2926297D02*
X4002323D01*
Y2910317D02*
Y2926297D01*
X3952323Y2908307D02*
Y2928307D01*
X3932323Y2908307D02*
X3952323D01*
X3932323D02*
Y2928307D01*
X3952323D01*
X3977323Y2843307D02*
Y2893307D01*
Y2860317D02*
X4002323D01*
X3977323Y2876297D02*
X4002323D01*
Y2860317D02*
Y2876297D01*
X3952323Y2858307D02*
Y2878307D01*
X3932323Y2858307D02*
X3952323D01*
X3932323D02*
Y2878307D01*
X3952323D01*
X3857323Y2784807D02*
Y2843307D01*
X3832323Y2810317D02*
Y2826297D01*
X3857323Y2784807D02*
X3977323D01*
X3882323Y2828307D02*
X3902323D01*
X3882323Y2808307D02*
Y2828307D01*
Y2808307D02*
X3902323D01*
Y2828307D01*
X3832323Y2826297D02*
X3857323D01*
X3832323Y2810317D02*
X3857323D01*
X3977323Y2784807D02*
Y2843307D01*
X3932323Y2828307D02*
X3952323D01*
X3932323Y2808307D02*
Y2828307D01*
Y2808307D02*
X3952323D01*
Y2828307D01*
X4002323Y2810317D02*
Y2826297D01*
X3977323D02*
X4002323D01*
X3977323Y2810317D02*
X4002323D01*
%TF.MD5,f38190d59471cca88c5d107022b275a8*%
M02*
