%TF.GenerationSoftware,Altium Limited,Altium Designer,20.0.13 (296)*%
G04 Layer_Color=16711935*
%FSLAX26Y26*%
%MOIN*%
%TF.FileFunction,Other,Mechanical_13*%
%TF.Part,Single*%
G01*
G75*
%TA.AperFunction,NonConductor*%
%ADD54C,0.003937*%
%ADD55C,0.039370*%
%ADD58C,0.005000*%
%ADD86C,0.007874*%
D54*
X1909449Y3836614D02*
X1948819D01*
Y3879921D01*
X1909449D02*
X1948819D01*
X1909449Y3836614D02*
Y3879921D01*
Y4072835D02*
X1948819D01*
Y4116142D01*
X1909449D02*
X1948819D01*
X1909449Y4072835D02*
Y4116142D01*
X1110236Y3444882D02*
X1147638Y3482284D01*
X1110236Y3368110D02*
Y3482284D01*
Y3368110D02*
X1173228D01*
Y3482284D01*
X1110236D02*
X1173228D01*
X7618110Y3167323D02*
Y3210630D01*
X7657480D01*
Y3167323D02*
Y3210630D01*
X7618110Y3167323D02*
X7657480D01*
X7618110Y3757874D02*
Y3801181D01*
X7657480D01*
Y3757874D02*
Y3801181D01*
X7618110Y3757874D02*
X7657480D01*
X7618110Y4348425D02*
Y4391732D01*
X7657480D01*
Y4348425D02*
Y4391732D01*
X7618110Y4348425D02*
X7657480D01*
X8799213Y3226378D02*
Y3269685D01*
X8838583D01*
Y3226378D02*
Y3269685D01*
X8799213Y3226378D02*
X8838583D01*
X8799213Y3816929D02*
Y3860236D01*
X8838583D01*
Y3816929D02*
Y3860236D01*
X8799213Y3816929D02*
X8838583D01*
X8799213Y4407480D02*
Y4450787D01*
X8838583D01*
Y4407480D02*
Y4450787D01*
X8799213Y4407480D02*
X8838583D01*
X9749000Y3774583D02*
Y3902583D01*
X9631000Y3774583D02*
X9749000D01*
X9631000D02*
Y3902583D01*
X9749000D01*
Y3184032D02*
Y3312032D01*
X9631000Y3184032D02*
X9749000D01*
X9631000D02*
Y3312032D01*
X9749000D01*
Y2593480D02*
Y2721480D01*
X9631000Y2593480D02*
X9749000D01*
X9631000D02*
Y2721480D01*
X9749000D01*
X9991370Y2819480D02*
X10174370D01*
Y2495480D02*
Y2819480D01*
X9991370Y2495480D02*
X10174370D01*
X9991370D02*
Y2819480D01*
Y3410032D02*
X10174370D01*
Y3086032D02*
Y3410032D01*
X9991370Y3086032D02*
X10174370D01*
X9991370D02*
Y3410032D01*
Y4000583D02*
X10174370D01*
Y3676583D02*
Y4000583D01*
X9991370Y3676583D02*
X10174370D01*
X9991370D02*
Y4000583D01*
X9749000Y4365134D02*
Y4493134D01*
X9631000Y4365134D02*
X9749000D01*
X9631000D02*
Y4493134D01*
X9749000D01*
X9991370Y4591134D02*
X10174370D01*
Y4267134D02*
Y4591134D01*
X9991370Y4267134D02*
X10174370D01*
X9991370D02*
Y4591134D01*
X1716929Y5310276D02*
Y5353583D01*
X1677559Y5310276D02*
X1716929D01*
X1677559D02*
Y5353583D01*
X1716929D01*
X966622Y5259961D02*
X1080622D01*
Y5369961D01*
X966622D02*
X1080622D01*
X966622Y5259961D02*
Y5369961D01*
X3228347Y767087D02*
Y810394D01*
X3267716D01*
Y767087D02*
Y810394D01*
X3228347Y767087D02*
X3267716D01*
X3464567D02*
Y810394D01*
X3503937D01*
Y767087D02*
Y810394D01*
X3464567Y767087D02*
X3503937D01*
X3700787D02*
Y810394D01*
X3740157D01*
Y767087D02*
Y810394D01*
X3700787Y767087D02*
X3740157D01*
X3937008D02*
Y810394D01*
X3976378D01*
Y767087D02*
Y810394D01*
X3937008Y767087D02*
X3976378D01*
X2283465D02*
Y810394D01*
X2322835D01*
Y767087D02*
Y810394D01*
X2283465Y767087D02*
X2322835D01*
X2519685D02*
Y810394D01*
X2559055D01*
Y767087D02*
Y810394D01*
X2519685Y767087D02*
X2559055D01*
X2755905D02*
Y810394D01*
X2795276D01*
Y767087D02*
Y810394D01*
X2755905Y767087D02*
X2795276D01*
X2992126D02*
Y810394D01*
X3031496D01*
Y767087D02*
Y810394D01*
X2992126Y767087D02*
X3031496D01*
X5275591D02*
Y810394D01*
X5314961D01*
Y767087D02*
Y810394D01*
X5275591Y767087D02*
X5314961D01*
X5511811D02*
Y810394D01*
X5551181D01*
Y767087D02*
Y810394D01*
X5511811Y767087D02*
X5551181D01*
X5748032D02*
Y810394D01*
X5787401D01*
Y767087D02*
Y810394D01*
X5748032Y767087D02*
X5787401D01*
X5984252D02*
Y810394D01*
X6023622D01*
Y767087D02*
Y810394D01*
X5984252Y767087D02*
X6023622D01*
X4330709D02*
Y810394D01*
X4370079D01*
Y767087D02*
Y810394D01*
X4330709Y767087D02*
X4370079D01*
X4566929D02*
Y810394D01*
X4606299D01*
Y767087D02*
Y810394D01*
X4566929Y767087D02*
X4606299D01*
X4803150D02*
Y810394D01*
X4842520D01*
Y767087D02*
Y810394D01*
X4803150Y767087D02*
X4842520D01*
X5039370D02*
Y810394D01*
X5078740D01*
Y767087D02*
Y810394D01*
X5039370Y767087D02*
X5078740D01*
X7322835D02*
Y810394D01*
X7362205D01*
Y767087D02*
Y810394D01*
X7322835Y767087D02*
X7362205D01*
X7559055D02*
Y810394D01*
X7598425D01*
Y767087D02*
Y810394D01*
X7559055Y767087D02*
X7598425D01*
X7795276D02*
Y810394D01*
X7834646D01*
Y767087D02*
Y810394D01*
X7795276Y767087D02*
X7834646D01*
X8031496D02*
Y810394D01*
X8070866D01*
Y767087D02*
Y810394D01*
X8031496Y767087D02*
X8070866D01*
X6377953D02*
Y810394D01*
X6417323D01*
Y767087D02*
Y810394D01*
X6377953Y767087D02*
X6417323D01*
X6614173D02*
Y810394D01*
X6653543D01*
Y767087D02*
Y810394D01*
X6614173Y767087D02*
X6653543D01*
X6850394D02*
Y810394D01*
X6889764D01*
Y767087D02*
Y810394D01*
X6850394Y767087D02*
X6889764D01*
X7086614D02*
Y810394D01*
X7125984D01*
Y767087D02*
Y810394D01*
X7086614Y767087D02*
X7125984D01*
X9370079D02*
Y810394D01*
X9409449D01*
Y767087D02*
Y810394D01*
X9370079Y767087D02*
X9409449D01*
X9606299D02*
Y810394D01*
X9645669D01*
Y767087D02*
Y810394D01*
X9606299Y767087D02*
X9645669D01*
X9842520D02*
Y810394D01*
X9881890D01*
Y767087D02*
Y810394D01*
X9842520Y767087D02*
X9881890D01*
X10078740D02*
Y810394D01*
X10118110D01*
Y767087D02*
Y810394D01*
X10078740Y767087D02*
X10118110D01*
X8425197D02*
Y810394D01*
X8464567D01*
Y767087D02*
Y810394D01*
X8425197Y767087D02*
X8464567D01*
X8661417D02*
Y810394D01*
X8700787D01*
Y767087D02*
Y810394D01*
X8661417Y767087D02*
X8700787D01*
X8897638D02*
Y810394D01*
X8937008D01*
Y767087D02*
Y810394D01*
X8897638Y767087D02*
X8937008D01*
X9133858D02*
Y810394D01*
X9173228D01*
Y767087D02*
Y810394D01*
X9133858Y767087D02*
X9173228D01*
X472441D02*
Y810394D01*
X511811D01*
Y767087D02*
Y810394D01*
X472441Y767087D02*
X511811D01*
X708662D02*
Y810394D01*
X748032D01*
Y767087D02*
Y810394D01*
X708662Y767087D02*
X748032D01*
X944882D02*
Y810394D01*
X984252D01*
Y767087D02*
Y810394D01*
X944882Y767087D02*
X984252D01*
X1181102D02*
Y810394D01*
X1220472D01*
Y767087D02*
Y810394D01*
X1181102Y767087D02*
X1220472D01*
X1417323D02*
Y810394D01*
X1456693D01*
Y767087D02*
Y810394D01*
X1417323Y767087D02*
X1456693D01*
X1653543D02*
Y810394D01*
X1692913D01*
Y767087D02*
Y810394D01*
X1653543Y767087D02*
X1692913D01*
X1889764D02*
Y810394D01*
X1929134D01*
Y767087D02*
Y810394D01*
X1889764Y767087D02*
X1929134D01*
X236220D02*
Y810394D01*
X275591D01*
Y767087D02*
Y810394D01*
X236220Y767087D02*
X275591D01*
X5249724Y5310276D02*
Y5353583D01*
X5210354Y5310276D02*
X5249724D01*
X5210354D02*
Y5353583D01*
X5249724D01*
X4951575Y5310276D02*
Y5353583D01*
X4912205Y5310276D02*
X4951575D01*
X4912205D02*
Y5353583D01*
X4951575D01*
X4851575Y5310276D02*
Y5353583D01*
X4812205Y5310276D02*
X4851575D01*
X4812205D02*
Y5353583D01*
X4851575D01*
X5051575Y5310276D02*
Y5353583D01*
X5012205Y5310276D02*
X5051575D01*
X5012205D02*
Y5353583D01*
X5051575D01*
X5151575Y5310276D02*
Y5353583D01*
X5112205Y5310276D02*
X5151575D01*
X5112205D02*
Y5353583D01*
X5151575D01*
X1916929Y5310276D02*
Y5353583D01*
X1877559Y5310276D02*
X1916929D01*
X1877559D02*
Y5353583D01*
X1916929D01*
X1816929Y5310276D02*
Y5353583D01*
X1777559Y5310276D02*
X1816929D01*
X1777559D02*
Y5353583D01*
X1816929D01*
X2216929Y5310276D02*
Y5353583D01*
X2177559Y5310276D02*
X2216929D01*
X2177559D02*
Y5353583D01*
X2216929D01*
X2116929Y5310276D02*
Y5353583D01*
X2077559Y5310276D02*
X2116929D01*
X2077559D02*
Y5353583D01*
X2116929D01*
X2016929Y5310276D02*
Y5353583D01*
X1977559Y5310276D02*
X2016929D01*
X1977559D02*
Y5353583D01*
X2016929D01*
X5935827Y5310276D02*
Y5353583D01*
X5896457Y5310276D02*
X5935827D01*
X5896457D02*
Y5353583D01*
X5935827D01*
X6035827Y5310276D02*
Y5353583D01*
X5996457Y5310276D02*
X6035827D01*
X5996457D02*
Y5353583D01*
X6035827D01*
X6135827Y5310276D02*
Y5353583D01*
X6096457Y5310276D02*
X6135827D01*
X6096457D02*
Y5353583D01*
X6135827D01*
X5635827Y5310276D02*
Y5353583D01*
X5596457Y5310276D02*
X5635827D01*
X5596457D02*
Y5353583D01*
X5635827D01*
X5735827Y5310276D02*
Y5353583D01*
X5696457Y5310276D02*
X5735827D01*
X5696457D02*
Y5353583D01*
X5735827D01*
X5835827Y5310276D02*
Y5353583D01*
X5796457Y5310276D02*
X5835827D01*
X5796457D02*
Y5353583D01*
X5835827D01*
D55*
X761488Y5157480D02*
G03*
X761488Y5157480I-3937J0D01*
G01*
D58*
X712598Y3867323D02*
Y4006693D01*
X468504D02*
X712598D01*
X468504Y3867323D02*
Y4006693D01*
Y3867323D02*
X712598D01*
X7791339Y3317716D02*
X8035433D01*
Y3178347D02*
Y3317716D01*
X7791339Y3178347D02*
X8035433D01*
X7791339D02*
Y3317716D01*
Y3908268D02*
X8035433D01*
Y3768898D02*
Y3908268D01*
X7791339Y3768898D02*
X8035433D01*
X7791339D02*
Y3908268D01*
Y4498819D02*
X8035433D01*
Y4359449D02*
Y4498819D01*
X7791339Y4359449D02*
X8035433D01*
X7791339D02*
Y4498819D01*
X547244Y2661772D02*
X791338D01*
X547244D02*
Y2801142D01*
X791338D01*
Y2661772D02*
Y2801142D01*
X383858Y5066929D02*
X718504D01*
X383858D02*
Y5539370D01*
X718504D01*
Y5066929D02*
Y5539370D01*
X1531496Y2640315D02*
X1775591D01*
X1531496D02*
Y2779685D01*
X1775591D01*
Y2640315D02*
Y2779685D01*
D86*
X4166638Y5323142D02*
Y5521496D01*
X3627638D02*
X4166638D01*
X3627638Y5323142D02*
Y5521496D01*
Y5323142D02*
X4166638D01*
X3300496D02*
Y5521496D01*
X2761496D02*
X3300496D01*
X2761496Y5323142D02*
Y5521496D01*
Y5323142D02*
X3300496D01*
X9087898D02*
Y5521496D01*
X8548898D02*
X9087898D01*
X8548898Y5323142D02*
Y5521496D01*
Y5323142D02*
X9087898D01*
X7985535D02*
Y5521496D01*
X7446535D02*
X7985535D01*
X7446535Y5323142D02*
Y5521496D01*
Y5323142D02*
X7985535D01*
X4758661Y4125472D02*
X5505661D01*
X4758661Y3102472D02*
Y4125472D01*
Y3102472D02*
X5505661D01*
Y4125472D01*
%TF.MD5,f146049c4761b83974ce636d76b8fcf0*%
M02*
