%TF.GenerationSoftware,Altium Limited,Altium Designer,20.0.13 (296)*%
G04 Layer_Color=16711935*
%FSLAX26Y26*%
%MOIN*%
%TF.FileFunction,Soldermask,Bot*%
%TF.Part,Single*%
G01*
G75*
%TA.AperFunction,ViaPad*%
%ADD41C,0.029528*%
%TA.AperFunction,NonConductor*%
%ADD45R,0.039370X5.669291*%
%ADD46R,10.196850X0.039370*%
%TA.AperFunction,ComponentPad*%
%ADD47O,0.044094X0.079528*%
%ADD48O,0.032283X0.063779*%
%ADD49R,0.060787X0.060787*%
%ADD50C,0.060787*%
%ADD51R,0.071653X0.071653*%
%ADD52C,0.071653*%
%TA.AperFunction,ViaPad*%
%ADD53C,0.197638*%
D41*
X10236206Y5866142D02*
D03*
X10196835D02*
D03*
X10157466D02*
D03*
X9881876D02*
D03*
X9921246D02*
D03*
X9960615D02*
D03*
X9999986D02*
D03*
X10039355D02*
D03*
X9842505D02*
D03*
X9803136D02*
D03*
X9763765D02*
D03*
X9724396D02*
D03*
X9685025D02*
D03*
X10118095D02*
D03*
X10078726D02*
D03*
X10236206Y39370D02*
D03*
X10196836D02*
D03*
X10157466D02*
D03*
X9881876D02*
D03*
X9921246D02*
D03*
X9960616D02*
D03*
X9999986D02*
D03*
X10039356D02*
D03*
X9842506D02*
D03*
X9803136D02*
D03*
X9763766D02*
D03*
X9724396D02*
D03*
X9685026D02*
D03*
X10118096D02*
D03*
X10078726D02*
D03*
X39370Y5354322D02*
D03*
Y5314952D02*
D03*
Y5275582D02*
D03*
Y5708651D02*
D03*
Y5669282D02*
D03*
Y5629912D02*
D03*
Y5590542D02*
D03*
Y5393691D02*
D03*
Y5433061D02*
D03*
Y5472431D02*
D03*
Y5511801D02*
D03*
Y5551172D02*
D03*
Y5236212D02*
D03*
Y4999992D02*
D03*
Y4960622D02*
D03*
Y4921252D02*
D03*
Y4881882D02*
D03*
Y4842511D02*
D03*
Y5039361D02*
D03*
Y5078731D02*
D03*
Y5118101D02*
D03*
Y5157471D02*
D03*
Y5196842D02*
D03*
Y4724401D02*
D03*
Y4763771D02*
D03*
Y4803141D02*
D03*
Y3858262D02*
D03*
Y3818892D02*
D03*
Y3779521D02*
D03*
Y4251962D02*
D03*
Y4212592D02*
D03*
Y4173221D02*
D03*
Y4133851D02*
D03*
Y4094481D02*
D03*
Y3897631D02*
D03*
Y3937001D02*
D03*
Y3976372D02*
D03*
Y4015742D02*
D03*
Y4055111D02*
D03*
Y4448811D02*
D03*
Y4409441D02*
D03*
Y4370072D02*
D03*
Y4330702D02*
D03*
Y4291332D02*
D03*
Y4488181D02*
D03*
Y4527551D02*
D03*
Y4566922D02*
D03*
Y4606292D02*
D03*
Y4685032D02*
D03*
Y4645662D02*
D03*
X10393701Y5354326D02*
D03*
Y5314956D02*
D03*
Y5275586D02*
D03*
Y5708656D02*
D03*
Y5669286D02*
D03*
Y5629916D02*
D03*
Y5590546D02*
D03*
Y5393696D02*
D03*
Y5433066D02*
D03*
Y5472436D02*
D03*
Y5511806D02*
D03*
Y5551176D02*
D03*
Y5236216D02*
D03*
Y4999996D02*
D03*
Y4960626D02*
D03*
Y4921256D02*
D03*
Y4881886D02*
D03*
Y4842516D02*
D03*
Y5039366D02*
D03*
Y5078736D02*
D03*
Y5118106D02*
D03*
Y5157476D02*
D03*
Y5196846D02*
D03*
Y4724406D02*
D03*
Y4763776D02*
D03*
Y4803146D02*
D03*
Y3858266D02*
D03*
Y3818896D02*
D03*
Y3779526D02*
D03*
Y4251966D02*
D03*
Y4212596D02*
D03*
Y4173226D02*
D03*
Y4133856D02*
D03*
Y4094486D02*
D03*
Y3897636D02*
D03*
Y3937006D02*
D03*
Y3976376D02*
D03*
Y4015746D02*
D03*
Y4055116D02*
D03*
Y4448816D02*
D03*
Y4409446D02*
D03*
Y4370076D02*
D03*
Y4330706D02*
D03*
Y4291336D02*
D03*
Y4488186D02*
D03*
Y4527556D02*
D03*
Y4566926D02*
D03*
Y4606296D02*
D03*
Y4685036D02*
D03*
Y4645666D02*
D03*
X9606286Y39370D02*
D03*
X9645656D02*
D03*
X9212586D02*
D03*
X9251956D02*
D03*
X9291326D02*
D03*
X9330696D02*
D03*
X9370066D02*
D03*
X9566916D02*
D03*
X9527546D02*
D03*
X9488176D02*
D03*
X9448806D02*
D03*
X9409436D02*
D03*
X8818886D02*
D03*
X8858256D02*
D03*
X8897626D02*
D03*
X8936996D02*
D03*
X8976366D02*
D03*
X9173216D02*
D03*
X9133846D02*
D03*
X9094476D02*
D03*
X9055106D02*
D03*
X9015736D02*
D03*
X8582666D02*
D03*
X8779516D02*
D03*
X8740146D02*
D03*
X8700776D02*
D03*
X8661406D02*
D03*
X8622036D02*
D03*
X8188966D02*
D03*
X8228336D02*
D03*
X8267706D02*
D03*
X8307076D02*
D03*
X8346446D02*
D03*
X8543296D02*
D03*
X8503926D02*
D03*
X8464556D02*
D03*
X8425186D02*
D03*
X8385816D02*
D03*
X7795266D02*
D03*
X7834636D02*
D03*
X7874006D02*
D03*
X7913376D02*
D03*
X7952746D02*
D03*
X8149596D02*
D03*
X8110226D02*
D03*
X8070856D02*
D03*
X8031486D02*
D03*
X7992116D02*
D03*
X7401566D02*
D03*
X7440936D02*
D03*
X7480306D02*
D03*
X7519676D02*
D03*
X7559046D02*
D03*
X7755896D02*
D03*
X7716526D02*
D03*
X7677156D02*
D03*
X7637786D02*
D03*
X7598416D02*
D03*
X7165346D02*
D03*
X7362196D02*
D03*
X7322826D02*
D03*
X7283456D02*
D03*
X7244086D02*
D03*
X7204716D02*
D03*
X6771646D02*
D03*
X6811016D02*
D03*
X6850386D02*
D03*
X6889756D02*
D03*
X6929126D02*
D03*
X7125976D02*
D03*
X7086606D02*
D03*
X7047236D02*
D03*
X7007866D02*
D03*
X6968496D02*
D03*
X6377946D02*
D03*
X6417316D02*
D03*
X6456686D02*
D03*
X6496056D02*
D03*
X6535426D02*
D03*
X6732276D02*
D03*
X6692906D02*
D03*
X6653536D02*
D03*
X6614166D02*
D03*
X6574796D02*
D03*
X5984246D02*
D03*
X6023616D02*
D03*
X6062986D02*
D03*
X6102356D02*
D03*
X6141726D02*
D03*
X6338576D02*
D03*
X6299206D02*
D03*
X6259836D02*
D03*
X6220466D02*
D03*
X6181096D02*
D03*
X5748026D02*
D03*
X5944876D02*
D03*
X5905506D02*
D03*
X5866136D02*
D03*
X5826766D02*
D03*
X5787396D02*
D03*
X9606285Y5866142D02*
D03*
X9645656D02*
D03*
X9212585D02*
D03*
X9251956D02*
D03*
X9291326D02*
D03*
X9330695D02*
D03*
X9370066D02*
D03*
X9566915D02*
D03*
X9527546D02*
D03*
X9488175D02*
D03*
X9448806D02*
D03*
X9409435D02*
D03*
X8818886D02*
D03*
X8858255D02*
D03*
X8897626D02*
D03*
X8936996D02*
D03*
X8976365D02*
D03*
X9173216D02*
D03*
X9133845D02*
D03*
X9094476D02*
D03*
X9055105D02*
D03*
X9015736D02*
D03*
X8582665D02*
D03*
X8779515D02*
D03*
X8740146D02*
D03*
X8700775D02*
D03*
X8661406D02*
D03*
X8622035D02*
D03*
X8188966D02*
D03*
X8228335D02*
D03*
X8267706D02*
D03*
X8307076D02*
D03*
X8346445D02*
D03*
X8543296D02*
D03*
X8503925D02*
D03*
X8464556D02*
D03*
X8425185D02*
D03*
X8385816D02*
D03*
X7795266D02*
D03*
X7834636D02*
D03*
X7874006D02*
D03*
X7913376D02*
D03*
X7952745D02*
D03*
X8149596D02*
D03*
X8110225D02*
D03*
X8070855D02*
D03*
X8031485D02*
D03*
X7992115D02*
D03*
X7401565D02*
D03*
X7440935D02*
D03*
X7480306D02*
D03*
X7519676D02*
D03*
X7559046D02*
D03*
X7755895D02*
D03*
X7716525D02*
D03*
X7677155D02*
D03*
X7637785D02*
D03*
X7598416D02*
D03*
X7165346D02*
D03*
X7362195D02*
D03*
X7322825D02*
D03*
X7283456D02*
D03*
X7244086D02*
D03*
X7204716D02*
D03*
X6771645D02*
D03*
X6811016D02*
D03*
X6850386D02*
D03*
X6889756D02*
D03*
X6929126D02*
D03*
X7125975D02*
D03*
X7086605D02*
D03*
X7047235D02*
D03*
X7007865D02*
D03*
X6968495D02*
D03*
X6377945D02*
D03*
X6417315D02*
D03*
X6456685D02*
D03*
X6496056D02*
D03*
X6535426D02*
D03*
X6732275D02*
D03*
X6692905D02*
D03*
X6653535D02*
D03*
X6614166D02*
D03*
X6574796D02*
D03*
X5984245D02*
D03*
X6023615D02*
D03*
X6062985D02*
D03*
X6102355D02*
D03*
X6141725D02*
D03*
X6338575D02*
D03*
X6299206D02*
D03*
X6259836D02*
D03*
X6220466D02*
D03*
X6181096D02*
D03*
X5748025D02*
D03*
X5944876D02*
D03*
X5905506D02*
D03*
X5866136D02*
D03*
X5826766D02*
D03*
X5787395D02*
D03*
X39370Y196851D02*
D03*
Y433072D02*
D03*
Y472442D02*
D03*
Y511812D02*
D03*
Y551182D02*
D03*
Y590552D02*
D03*
Y393702D02*
D03*
Y354332D02*
D03*
Y314962D02*
D03*
Y275591D02*
D03*
Y236221D02*
D03*
Y708662D02*
D03*
Y669292D02*
D03*
Y629922D02*
D03*
Y3543302D02*
D03*
Y3582671D02*
D03*
Y3622041D02*
D03*
Y3661412D02*
D03*
Y3700782D02*
D03*
Y3740151D02*
D03*
Y3149602D02*
D03*
Y3188972D02*
D03*
Y3228341D02*
D03*
Y3267711D02*
D03*
Y3307081D02*
D03*
Y3503932D02*
D03*
Y3464561D02*
D03*
Y3425191D02*
D03*
Y3385822D02*
D03*
Y3346452D02*
D03*
Y2755901D02*
D03*
Y2795271D02*
D03*
Y2834642D02*
D03*
Y2874012D02*
D03*
Y2913381D02*
D03*
Y3110231D02*
D03*
Y3070861D02*
D03*
Y3031492D02*
D03*
Y2992122D02*
D03*
Y2952751D02*
D03*
Y2362202D02*
D03*
Y2401572D02*
D03*
Y2440941D02*
D03*
Y2480311D02*
D03*
Y2519682D02*
D03*
Y2716532D02*
D03*
Y2677162D02*
D03*
Y2637791D02*
D03*
Y2598421D02*
D03*
Y2559052D02*
D03*
Y1968502D02*
D03*
Y2007871D02*
D03*
Y2047242D02*
D03*
Y2086611D02*
D03*
Y2125981D02*
D03*
Y2322831D02*
D03*
Y2283461D02*
D03*
Y2244091D02*
D03*
Y2204722D02*
D03*
Y2165352D02*
D03*
Y1574802D02*
D03*
Y1614171D02*
D03*
Y1653542D02*
D03*
Y1692911D02*
D03*
Y1732282D02*
D03*
Y1929131D02*
D03*
Y1889762D02*
D03*
Y1850391D02*
D03*
Y1811022D02*
D03*
Y1771651D02*
D03*
Y1181101D02*
D03*
Y1220472D02*
D03*
Y1259841D02*
D03*
Y1299211D02*
D03*
Y1338582D02*
D03*
Y1535431D02*
D03*
Y1496062D02*
D03*
Y1456691D02*
D03*
Y1417322D02*
D03*
Y1377951D02*
D03*
Y984251D02*
D03*
Y1023621D02*
D03*
Y1062992D02*
D03*
Y1102361D02*
D03*
Y1141732D02*
D03*
Y944881D02*
D03*
Y905511D02*
D03*
Y866141D02*
D03*
Y826771D02*
D03*
Y748032D02*
D03*
Y787402D02*
D03*
X10393701Y3149606D02*
D03*
Y3188976D02*
D03*
Y3110236D02*
D03*
Y3070866D02*
D03*
Y3031496D02*
D03*
Y2992126D02*
D03*
Y2795276D02*
D03*
Y2834646D02*
D03*
Y2874016D02*
D03*
Y2913386D02*
D03*
Y2952756D02*
D03*
Y2559056D02*
D03*
Y2519686D02*
D03*
Y2480316D02*
D03*
Y2440946D02*
D03*
Y2401576D02*
D03*
Y2598426D02*
D03*
Y2637796D02*
D03*
Y2677166D02*
D03*
Y2716536D02*
D03*
Y2755906D02*
D03*
Y2165356D02*
D03*
Y2125986D02*
D03*
Y2086616D02*
D03*
Y2047246D02*
D03*
Y2007876D02*
D03*
Y2204726D02*
D03*
Y2244096D02*
D03*
Y2283466D02*
D03*
Y2322836D02*
D03*
Y2362206D02*
D03*
Y1771656D02*
D03*
Y1732286D02*
D03*
Y1692916D02*
D03*
Y1653546D02*
D03*
Y1614176D02*
D03*
Y1811026D02*
D03*
Y1850396D02*
D03*
Y1889766D02*
D03*
Y1929136D02*
D03*
Y1968506D02*
D03*
Y1377956D02*
D03*
Y1338586D02*
D03*
Y1299216D02*
D03*
Y1259846D02*
D03*
Y1220476D02*
D03*
Y1417326D02*
D03*
Y1456696D02*
D03*
Y1496066D02*
D03*
Y1535436D02*
D03*
Y1574806D02*
D03*
Y984256D02*
D03*
Y944886D02*
D03*
Y905516D02*
D03*
Y866146D02*
D03*
Y826776D02*
D03*
Y1023626D02*
D03*
Y1062996D02*
D03*
Y1102366D02*
D03*
Y1141736D02*
D03*
Y1181106D02*
D03*
Y590556D02*
D03*
Y551186D02*
D03*
Y511816D02*
D03*
Y472446D02*
D03*
Y433076D02*
D03*
Y629926D02*
D03*
Y669296D02*
D03*
Y708666D02*
D03*
Y748036D02*
D03*
Y787406D02*
D03*
Y196856D02*
D03*
Y236226D02*
D03*
Y275596D02*
D03*
Y314966D02*
D03*
Y354336D02*
D03*
Y393706D02*
D03*
Y3307086D02*
D03*
Y3267716D02*
D03*
Y3228346D02*
D03*
Y3700786D02*
D03*
Y3661416D02*
D03*
Y3622046D02*
D03*
Y3582676D02*
D03*
Y3543306D02*
D03*
Y3346456D02*
D03*
Y3385826D02*
D03*
Y3425196D02*
D03*
Y3464566D02*
D03*
Y3503936D02*
D03*
Y3740156D02*
D03*
X2755905Y5866142D02*
D03*
X2716535D02*
D03*
X2795276D02*
D03*
X2834646D02*
D03*
X2874015D02*
D03*
X2913385D02*
D03*
X3110235D02*
D03*
X3070865D02*
D03*
X3031495D02*
D03*
X2992126D02*
D03*
X2952756D02*
D03*
X3346456D02*
D03*
X3385825D02*
D03*
X3425195D02*
D03*
X3464566D02*
D03*
X3503936D02*
D03*
X3307086D02*
D03*
X3267715D02*
D03*
X3228345D02*
D03*
X3188976D02*
D03*
X3149606D02*
D03*
X3740155D02*
D03*
X3779526D02*
D03*
X3818896D02*
D03*
X3858265D02*
D03*
X3897635D02*
D03*
X3700785D02*
D03*
X3661416D02*
D03*
X3622046D02*
D03*
X3582675D02*
D03*
X3543305D02*
D03*
X4133855D02*
D03*
X4173225D02*
D03*
X4212596D02*
D03*
X4251966D02*
D03*
X4291336D02*
D03*
X4094485D02*
D03*
X4055115D02*
D03*
X4015745D02*
D03*
X3976376D02*
D03*
X3937006D02*
D03*
X4527556D02*
D03*
X4566926D02*
D03*
X4606296D02*
D03*
X4645666D02*
D03*
X4685035D02*
D03*
X4488185D02*
D03*
X4448815D02*
D03*
X4409445D02*
D03*
X4370075D02*
D03*
X4330706D02*
D03*
X4921256D02*
D03*
X4960626D02*
D03*
X4999995D02*
D03*
X5039365D02*
D03*
X5078735D02*
D03*
X4881886D02*
D03*
X4842516D02*
D03*
X4803145D02*
D03*
X4763775D02*
D03*
X4724405D02*
D03*
X5314956D02*
D03*
X5354325D02*
D03*
X5393695D02*
D03*
X5433065D02*
D03*
X5472435D02*
D03*
X5275586D02*
D03*
X5236216D02*
D03*
X5196846D02*
D03*
X5157475D02*
D03*
X5118105D02*
D03*
X5708655D02*
D03*
X5669285D02*
D03*
X5629916D02*
D03*
X5590546D02*
D03*
X5551176D02*
D03*
X5511806D02*
D03*
X2598425D02*
D03*
X2637796D02*
D03*
X2677166D02*
D03*
X2204726D02*
D03*
X2244095D02*
D03*
X2283465D02*
D03*
X2322836D02*
D03*
X2362206D02*
D03*
X2559055D02*
D03*
X2519686D02*
D03*
X2480316D02*
D03*
X2440945D02*
D03*
X2401575D02*
D03*
X2007876D02*
D03*
X2047245D02*
D03*
X2086615D02*
D03*
X2125985D02*
D03*
X2165356D02*
D03*
X1968505D02*
D03*
X1929136D02*
D03*
X1889765D02*
D03*
X1850396D02*
D03*
X1771656D02*
D03*
X1811025D02*
D03*
X1653545D02*
D03*
X1692916D02*
D03*
X1732285D02*
D03*
X1259845D02*
D03*
X1299216D02*
D03*
X1338585D02*
D03*
X1377956D02*
D03*
X1417325D02*
D03*
X1614176D02*
D03*
X1574805D02*
D03*
X1535436D02*
D03*
X1496065D02*
D03*
X1456696D02*
D03*
X1062995D02*
D03*
X1102366D02*
D03*
X1141736D02*
D03*
X1181105D02*
D03*
X1220476D02*
D03*
X1023625D02*
D03*
X984255D02*
D03*
X944885D02*
D03*
X905515D02*
D03*
X826775D02*
D03*
X866145D02*
D03*
X708665D02*
D03*
X748035D02*
D03*
X787405D02*
D03*
X314966D02*
D03*
X354336D02*
D03*
X393705D02*
D03*
X433075D02*
D03*
X472445D02*
D03*
X669295D02*
D03*
X629926D02*
D03*
X590556D02*
D03*
X551186D02*
D03*
X511815D02*
D03*
X196856D02*
D03*
X236226D02*
D03*
X275596D02*
D03*
X5629916Y39370D02*
D03*
X5669286D02*
D03*
X5708656D02*
D03*
X5393696D02*
D03*
X5354326D02*
D03*
X5314956D02*
D03*
X5275586D02*
D03*
X5236216D02*
D03*
X5433066D02*
D03*
X5472436D02*
D03*
X5511806D02*
D03*
X5551176D02*
D03*
X5590546D02*
D03*
X5118106D02*
D03*
X5157476D02*
D03*
X5196846D02*
D03*
X5039366D02*
D03*
X5078736D02*
D03*
X4999996D02*
D03*
X4960626D02*
D03*
X4921256D02*
D03*
X4881886D02*
D03*
X4685036D02*
D03*
X4724406D02*
D03*
X4763776D02*
D03*
X4803146D02*
D03*
X4842516D02*
D03*
X4448816D02*
D03*
X4409446D02*
D03*
X4370076D02*
D03*
X4330706D02*
D03*
X4291336D02*
D03*
X4488186D02*
D03*
X4527556D02*
D03*
X4566926D02*
D03*
X4606296D02*
D03*
X4645666D02*
D03*
X4173226D02*
D03*
X4212596D02*
D03*
X4251966D02*
D03*
X4094486D02*
D03*
X4133856D02*
D03*
X4055116D02*
D03*
X4015746D02*
D03*
X3976376D02*
D03*
X3937006D02*
D03*
X3740156D02*
D03*
X3779526D02*
D03*
X3818896D02*
D03*
X3858266D02*
D03*
X3897636D02*
D03*
X3503936D02*
D03*
X3464566D02*
D03*
X3425196D02*
D03*
X3385826D02*
D03*
X3346456D02*
D03*
X3543306D02*
D03*
X3582676D02*
D03*
X3622046D02*
D03*
X3661416D02*
D03*
X3700786D02*
D03*
X3228346D02*
D03*
X3267716D02*
D03*
X3307086D02*
D03*
X393706D02*
D03*
X354336D02*
D03*
X314966D02*
D03*
X275596D02*
D03*
X236226D02*
D03*
X196856D02*
D03*
X787406D02*
D03*
X748036D02*
D03*
X708666D02*
D03*
X669296D02*
D03*
X629926D02*
D03*
X433076D02*
D03*
X472446D02*
D03*
X511816D02*
D03*
X551186D02*
D03*
X590556D02*
D03*
X1181106D02*
D03*
X1141736D02*
D03*
X1102366D02*
D03*
X1062996D02*
D03*
X1023626D02*
D03*
X826776D02*
D03*
X866146D02*
D03*
X905516D02*
D03*
X944886D02*
D03*
X984256D02*
D03*
X1574806D02*
D03*
X1535436D02*
D03*
X1496066D02*
D03*
X1456696D02*
D03*
X1417326D02*
D03*
X1220476D02*
D03*
X1259846D02*
D03*
X1299216D02*
D03*
X1338586D02*
D03*
X1377956D02*
D03*
X1968506D02*
D03*
X1929136D02*
D03*
X1889766D02*
D03*
X1850396D02*
D03*
X1811026D02*
D03*
X1614176D02*
D03*
X1653546D02*
D03*
X1692916D02*
D03*
X1732286D02*
D03*
X1771656D02*
D03*
X2362206D02*
D03*
X2322836D02*
D03*
X2283466D02*
D03*
X2244096D02*
D03*
X2204726D02*
D03*
X2007876D02*
D03*
X2047246D02*
D03*
X2086616D02*
D03*
X2125986D02*
D03*
X2165356D02*
D03*
X2755906D02*
D03*
X2716536D02*
D03*
X2677166D02*
D03*
X2637796D02*
D03*
X2598426D02*
D03*
X2401576D02*
D03*
X2440946D02*
D03*
X2480316D02*
D03*
X2519686D02*
D03*
X2559056D02*
D03*
X2952756D02*
D03*
X2913386D02*
D03*
X2874016D02*
D03*
X2834646D02*
D03*
X2795276D02*
D03*
X2992126D02*
D03*
X3031496D02*
D03*
X3070866D02*
D03*
X3110236D02*
D03*
X3188976D02*
D03*
X3149606D02*
D03*
D45*
X10393701Y2952756D02*
D03*
X39370D02*
D03*
D46*
X5216732Y5866142D02*
D03*
X5216339Y39370D02*
D03*
D47*
X10125984Y2657480D02*
D03*
Y3248032D02*
D03*
Y3838583D02*
D03*
Y4429134D02*
D03*
D48*
X10039370Y2767716D02*
D03*
Y2547244D02*
D03*
Y3358268D02*
D03*
Y3137795D02*
D03*
Y3948819D02*
D03*
Y3728347D02*
D03*
Y4539370D02*
D03*
Y4318898D02*
D03*
D49*
X6982283Y5196850D02*
D03*
X6116142D02*
D03*
X5231890D02*
D03*
X10053150D02*
D03*
X8468898D02*
D03*
X7366535D02*
D03*
X2799606Y1653543D02*
D03*
X4846850D02*
D03*
X6894095D02*
D03*
X8941339D02*
D03*
X752362D02*
D03*
X1697244Y5196850D02*
D03*
D50*
X6882283D02*
D03*
X6782283D02*
D03*
X6682283D02*
D03*
X6582283D02*
D03*
X6482283D02*
D03*
X6016142D02*
D03*
X5916142D02*
D03*
X5816142D02*
D03*
X5716142D02*
D03*
X5616142D02*
D03*
X5131890D02*
D03*
X5031890D02*
D03*
X4931890D02*
D03*
X4831890D02*
D03*
X4731890D02*
D03*
X4631890D02*
D03*
X4531890D02*
D03*
X9953150D02*
D03*
X9853150D02*
D03*
X9753150D02*
D03*
X9653150D02*
D03*
X9553150D02*
D03*
X8568898D02*
D03*
X8668898D02*
D03*
X8768898D02*
D03*
X8868898D02*
D03*
X8968898D02*
D03*
X9068898D02*
D03*
X9168898D02*
D03*
X7466535D02*
D03*
X7566535D02*
D03*
X7666535D02*
D03*
X7766535D02*
D03*
X7866535D02*
D03*
X7966535D02*
D03*
X8066535D02*
D03*
X2899606Y1653543D02*
D03*
X2999606D02*
D03*
X3099606D02*
D03*
X3199606D02*
D03*
X3299606D02*
D03*
X3399606D02*
D03*
X3499606D02*
D03*
X4946850D02*
D03*
X5046850D02*
D03*
X5146850D02*
D03*
X5246850D02*
D03*
X5346850D02*
D03*
X5446850D02*
D03*
X5546850D02*
D03*
X6994095D02*
D03*
X7094095D02*
D03*
X7194095D02*
D03*
X7294095D02*
D03*
X7394095D02*
D03*
X7494095D02*
D03*
X7594095D02*
D03*
X9041339D02*
D03*
X9141339D02*
D03*
X9241339D02*
D03*
X9341339D02*
D03*
X9441339D02*
D03*
X9541339D02*
D03*
X9641339D02*
D03*
X852362D02*
D03*
X952362D02*
D03*
X1052362D02*
D03*
X1152362D02*
D03*
X1252362D02*
D03*
X1352362D02*
D03*
X1452362D02*
D03*
X1797244Y5196850D02*
D03*
X1897244D02*
D03*
X1997244D02*
D03*
X2097244D02*
D03*
X2197244D02*
D03*
X2297244D02*
D03*
X2397244D02*
D03*
D51*
X590551Y5157480D02*
D03*
D52*
X452756Y5354331D02*
D03*
D53*
X10314961Y118110D02*
D03*
Y5787402D02*
D03*
X118110D02*
D03*
Y118110D02*
D03*
X3540122Y2755905D02*
D03*
Y4330709D02*
D03*
X6689728Y2755905D02*
D03*
Y4330709D02*
D03*
%TF.MD5,bfdeeca7f19de3674b227f114eb52de1*%
M02*
