%TF.GenerationSoftware,Altium Limited,Altium Designer,20.0.13 (296)*%
G04 Layer_Color=255*
%FSLAX26Y26*%
%MOIN*%
%TF.FileFunction,Pads,Top*%
%TF.Part,Single*%
G01*
G75*
%TA.AperFunction,SMDPad,CuDef*%
%ADD10R,0.018504X0.020472*%
%ADD11R,0.020472X0.018504*%
%ADD12R,0.023622X0.019685*%
%ADD13R,0.015748X0.015748*%
%ADD14R,0.015748X0.015748*%
%ADD15R,0.059055X0.043307*%
%ADD16R,0.031496X0.019685*%
%ADD17R,0.009842X0.019685*%
%ADD18R,0.098425X0.062992*%
%TA.AperFunction,ConnectorPad*%
%ADD19R,0.059055X0.017716*%
%TA.AperFunction,SMDPad,CuDef*%
%ADD20R,0.082677X0.118110*%
G04:AMPARAMS|DCode=21|XSize=62.992mil|YSize=31.89mil|CornerRadius=3.189mil|HoleSize=0mil|Usage=FLASHONLY|Rotation=270.000|XOffset=0mil|YOffset=0mil|HoleType=Round|Shape=RoundedRectangle|*
%AMROUNDEDRECTD21*
21,1,0.062992,0.025512,0,0,270.0*
21,1,0.056614,0.031890,0,0,270.0*
1,1,0.006378,-0.012756,-0.028307*
1,1,0.006378,-0.012756,0.028307*
1,1,0.006378,0.012756,0.028307*
1,1,0.006378,0.012756,-0.028307*
%
%ADD21ROUNDEDRECTD21*%
%ADD22R,0.039370X0.019685*%
%ADD23R,0.019685X0.023622*%
%ADD24R,0.037402X0.059055*%
%ADD25R,0.127953X0.059055*%
%ADD26R,0.057087X0.076772*%
%ADD27R,0.110236X0.086614*%
%ADD28R,0.047244X0.086614*%
%ADD29R,0.019685X0.039370*%
%TA.AperFunction,BGAPad,CuDef*%
%ADD30R,0.043307X0.043307*%
%TA.AperFunction,SMDPad,CuDef*%
%ADD31R,0.057870X0.029130*%
%TA.AperFunction,ComponentPad*%
%ADD35O,0.043307X0.078740*%
%ADD36O,0.031496X0.062992*%
%ADD37R,0.060000X0.060000*%
%ADD38C,0.060000*%
%ADD39R,0.070866X0.070866*%
%ADD40C,0.070866*%
%TA.AperFunction,ViaPad*%
%ADD41C,0.029528*%
%ADD42C,0.196850*%
D10*
X5256302Y228346D02*
D03*
X5222444D02*
D03*
X5492523D02*
D03*
X5458665D02*
D03*
X5728743D02*
D03*
X5694885D02*
D03*
X5964964D02*
D03*
X5931105D02*
D03*
X6358664D02*
D03*
X6324806D02*
D03*
X6594885D02*
D03*
X6561027D02*
D03*
X6831105D02*
D03*
X6797247D02*
D03*
X7067326D02*
D03*
X7033468D02*
D03*
X7303546D02*
D03*
X7269688D02*
D03*
X7539767D02*
D03*
X7505909D02*
D03*
X7775987D02*
D03*
X7742129D02*
D03*
X8012208D02*
D03*
X7978350D02*
D03*
X10059452D02*
D03*
X10025594D02*
D03*
X9823231D02*
D03*
X9789373D02*
D03*
X9587011D02*
D03*
X9553153D02*
D03*
X9350790D02*
D03*
X9316932D02*
D03*
X9114570D02*
D03*
X9080712D02*
D03*
X8878350D02*
D03*
X8844491D02*
D03*
X8642129D02*
D03*
X8608271D02*
D03*
X8405909D02*
D03*
X8372050D02*
D03*
X1098425Y3267716D02*
D03*
X1132283D02*
D03*
X1098425Y3307087D02*
D03*
X1132283D02*
D03*
X9055512Y3661417D02*
D03*
X9021654D02*
D03*
X9055512Y4251968D02*
D03*
X9021654D02*
D03*
X9904331Y2598425D02*
D03*
X9938189D02*
D03*
Y2637795D02*
D03*
X9904331D02*
D03*
Y2677165D02*
D03*
X9938189D02*
D03*
X9904331Y2716535D02*
D03*
X9938189D02*
D03*
X9904331Y3188976D02*
D03*
X9938189D02*
D03*
Y3228347D02*
D03*
X9904331D02*
D03*
Y3267716D02*
D03*
X9938189D02*
D03*
X9904331Y3307087D02*
D03*
X9938189D02*
D03*
X9904331Y3779528D02*
D03*
X9938189D02*
D03*
Y3818898D02*
D03*
X9904331D02*
D03*
Y3858268D02*
D03*
X9938189D02*
D03*
X9904331Y3897638D02*
D03*
X9938189D02*
D03*
X9741929Y3700787D02*
D03*
X9708071D02*
D03*
X9741929Y3110236D02*
D03*
X9708071D02*
D03*
X9741929Y2519685D02*
D03*
X9708071D02*
D03*
X9741929Y2795276D02*
D03*
X9708071D02*
D03*
X9741929Y3385827D02*
D03*
X9708071D02*
D03*
X9741929Y3976378D02*
D03*
X9708071D02*
D03*
X9673898D02*
D03*
X9640039D02*
D03*
X9673898Y3385827D02*
D03*
X9640039D02*
D03*
X9673898Y2795276D02*
D03*
X9640039D02*
D03*
X9741929Y4291339D02*
D03*
X9708071D02*
D03*
X9741929Y4566929D02*
D03*
X9708071D02*
D03*
X9673898D02*
D03*
X9640039D02*
D03*
X9904331Y4370079D02*
D03*
X9938189D02*
D03*
Y4409449D02*
D03*
X9904331D02*
D03*
Y4448819D02*
D03*
X9938189D02*
D03*
X9904331Y4488189D02*
D03*
X9938189D02*
D03*
X7749606Y5103028D02*
D03*
X7783465D02*
D03*
X7849606D02*
D03*
X7883465D02*
D03*
X7949606D02*
D03*
X7983465D02*
D03*
X1680315Y5381929D02*
D03*
X1714173D02*
D03*
X1680315Y5281929D02*
D03*
X1714173D02*
D03*
X3264173Y838740D02*
D03*
X3230315D02*
D03*
X3500394D02*
D03*
X3466535D02*
D03*
X3736614D02*
D03*
X3702756D02*
D03*
X3972835D02*
D03*
X3938976D02*
D03*
X2319291D02*
D03*
X2285433D02*
D03*
X2555512D02*
D03*
X2521654D02*
D03*
X2791732D02*
D03*
X2757874D02*
D03*
X3027953D02*
D03*
X2994095D02*
D03*
X5311417D02*
D03*
X5277559D02*
D03*
X5547638D02*
D03*
X5513780D02*
D03*
X5783858D02*
D03*
X5750000D02*
D03*
X6020079D02*
D03*
X5986221D02*
D03*
X4366535D02*
D03*
X4332677D02*
D03*
X4602756D02*
D03*
X4568898D02*
D03*
X4838976D02*
D03*
X4805118D02*
D03*
X5075197D02*
D03*
X5041339D02*
D03*
X7358661D02*
D03*
X7324803D02*
D03*
X7594882D02*
D03*
X7561024D02*
D03*
X7831102D02*
D03*
X7797244D02*
D03*
X8067323D02*
D03*
X8033465D02*
D03*
X6413779D02*
D03*
X6379921D02*
D03*
X6650000D02*
D03*
X6616142D02*
D03*
X6886220D02*
D03*
X6852362D02*
D03*
X7122441D02*
D03*
X7088583D02*
D03*
X9405906D02*
D03*
X9372047D02*
D03*
X9642126D02*
D03*
X9608268D02*
D03*
X9878346D02*
D03*
X9844488D02*
D03*
X10114567D02*
D03*
X10080709D02*
D03*
X8461024D02*
D03*
X8427165D02*
D03*
X8697244D02*
D03*
X8663386D02*
D03*
X8933465D02*
D03*
X8899606D02*
D03*
X9169685D02*
D03*
X9135827D02*
D03*
X508268D02*
D03*
X474409D02*
D03*
X744488D02*
D03*
X710630D02*
D03*
X980709D02*
D03*
X946850D02*
D03*
X1216929D02*
D03*
X1183071D02*
D03*
X1453150D02*
D03*
X1419291D02*
D03*
X1689370D02*
D03*
X1655512D02*
D03*
X1925591D02*
D03*
X1891732D02*
D03*
X272835D02*
D03*
X238976D02*
D03*
X2230318Y228346D02*
D03*
X2264176D02*
D03*
X2466539D02*
D03*
X2500397D02*
D03*
X2702759D02*
D03*
X2736617D02*
D03*
X2938979D02*
D03*
X2972838D02*
D03*
X3175200D02*
D03*
X3209058D02*
D03*
X3411421D02*
D03*
X3445279D02*
D03*
X3647641D02*
D03*
X3681499D02*
D03*
X3883861D02*
D03*
X3917720D02*
D03*
X4277562D02*
D03*
X4311420D02*
D03*
X4513783D02*
D03*
X4547641D02*
D03*
X4750003D02*
D03*
X4783861D02*
D03*
X4986224D02*
D03*
X5020082D02*
D03*
X419291D02*
D03*
X453150D02*
D03*
X655512D02*
D03*
X689370D02*
D03*
X891732D02*
D03*
X925591D02*
D03*
X1127953D02*
D03*
X1161811D02*
D03*
X1364173D02*
D03*
X1398032D02*
D03*
X1600394D02*
D03*
X1634252D02*
D03*
X1836614D02*
D03*
X1870472D02*
D03*
X183071D02*
D03*
X216929D02*
D03*
X5214961Y5381929D02*
D03*
X5248819D02*
D03*
X4914961D02*
D03*
X4948819D02*
D03*
X4814961D02*
D03*
X4848819D02*
D03*
X5214961Y5281929D02*
D03*
X5248819D02*
D03*
X4914961D02*
D03*
X4948819D02*
D03*
X4814961D02*
D03*
X4848819D02*
D03*
X5014961Y5381929D02*
D03*
X5048819D02*
D03*
X5114961D02*
D03*
X5148819D02*
D03*
X5014961Y5281929D02*
D03*
X5048819D02*
D03*
X5114961D02*
D03*
X5148819D02*
D03*
X1880315Y5381929D02*
D03*
X1914173D02*
D03*
X1780315Y5381929D02*
D03*
X1814173D02*
D03*
X686220Y5000000D02*
D03*
X652362D02*
D03*
X1880315Y5281929D02*
D03*
X1914173D02*
D03*
X1780315D02*
D03*
X1814173D02*
D03*
X2180315Y5381929D02*
D03*
X2214173D02*
D03*
X2080315D02*
D03*
X2114173D02*
D03*
X1980315D02*
D03*
X2014173D02*
D03*
X2314173Y5281929D02*
D03*
X2280315D02*
D03*
X2180315D02*
D03*
X2214173D02*
D03*
X2080315D02*
D03*
X2114173D02*
D03*
X1980315D02*
D03*
X2014173D02*
D03*
X5899213Y5381929D02*
D03*
X5933071D02*
D03*
X5999213D02*
D03*
X6033071D02*
D03*
X6099213D02*
D03*
X6133071D02*
D03*
X5899213Y5281929D02*
D03*
X5933071D02*
D03*
X5999213D02*
D03*
X6033071D02*
D03*
X6099213D02*
D03*
X6133071D02*
D03*
X5599213Y5381929D02*
D03*
X5633071D02*
D03*
X5699213D02*
D03*
X5733071D02*
D03*
X5799213D02*
D03*
X5833071D02*
D03*
X5599213Y5281929D02*
D03*
X5633071D02*
D03*
X5699213D02*
D03*
X5733071D02*
D03*
X5799213D02*
D03*
X5833071D02*
D03*
X8951969Y5103028D02*
D03*
X8985827D02*
D03*
X9051969D02*
D03*
X9085827D02*
D03*
X8851969D02*
D03*
X8885827D02*
D03*
D11*
X1811024Y3352362D02*
D03*
Y3386220D02*
D03*
X1771653D02*
D03*
Y3352362D02*
D03*
X2007874Y3875197D02*
D03*
Y3841339D02*
D03*
Y4111417D02*
D03*
Y4077559D02*
D03*
X746457Y3835827D02*
D03*
Y3801968D02*
D03*
X785039D02*
D03*
Y3835827D02*
D03*
X1023622Y3428740D02*
D03*
Y3462599D02*
D03*
X7655118Y3250787D02*
D03*
Y3284646D02*
D03*
X7619685D02*
D03*
Y3250787D02*
D03*
X7655118Y3841339D02*
D03*
Y3875197D02*
D03*
X7619685D02*
D03*
Y3841339D02*
D03*
X7655118Y4431890D02*
D03*
Y4465748D02*
D03*
X7619685D02*
D03*
Y4431890D02*
D03*
X8897638Y3231102D02*
D03*
Y3264961D02*
D03*
X8976378D02*
D03*
Y3231102D02*
D03*
X8897638Y3821654D02*
D03*
Y3855512D02*
D03*
Y4412205D02*
D03*
Y4446063D02*
D03*
X9600000Y2674803D02*
D03*
Y2708661D02*
D03*
Y3265354D02*
D03*
Y3299213D02*
D03*
Y3855906D02*
D03*
Y3889764D02*
D03*
Y4446457D02*
D03*
Y4480315D02*
D03*
X3872457Y5179921D02*
D03*
Y5213780D02*
D03*
X3823244Y5179921D02*
D03*
Y5213780D02*
D03*
X3774032Y5179921D02*
D03*
Y5213780D02*
D03*
X3006315Y5179921D02*
D03*
Y5213780D02*
D03*
X2957102Y5179921D02*
D03*
Y5213780D02*
D03*
X2907890Y5179921D02*
D03*
Y5213780D02*
D03*
X1848032Y2851929D02*
D03*
Y2818071D02*
D03*
X1809449D02*
D03*
Y2851929D02*
D03*
X1114173Y5078012D02*
D03*
Y5111870D02*
D03*
X1023622D02*
D03*
Y5078012D02*
D03*
X978346D02*
D03*
Y5111870D02*
D03*
X933071Y5078012D02*
D03*
Y5111870D02*
D03*
X5551102Y3397126D02*
D03*
Y3430984D02*
D03*
X4906221Y4176654D02*
D03*
Y4210512D02*
D03*
X4995984Y4176654D02*
D03*
Y4210512D02*
D03*
X5078661Y4176654D02*
D03*
Y4210512D02*
D03*
X5206221Y4176654D02*
D03*
Y4210512D02*
D03*
X3188976Y771811D02*
D03*
Y805669D02*
D03*
X3425197Y771811D02*
D03*
Y805669D02*
D03*
X3661417Y771811D02*
D03*
Y805669D02*
D03*
X3897638Y771811D02*
D03*
Y805669D02*
D03*
X2244095Y771811D02*
D03*
Y805669D02*
D03*
X2480315Y771811D02*
D03*
Y805669D02*
D03*
X2716535Y771811D02*
D03*
Y805669D02*
D03*
X2952756Y771811D02*
D03*
Y805669D02*
D03*
X5236221Y771811D02*
D03*
Y805669D02*
D03*
X5472441Y771811D02*
D03*
Y805669D02*
D03*
X5708661Y771811D02*
D03*
Y805669D02*
D03*
X5944882Y771811D02*
D03*
Y805669D02*
D03*
X4291339Y771811D02*
D03*
Y805669D02*
D03*
X4527559Y771811D02*
D03*
Y805669D02*
D03*
X4763779Y771811D02*
D03*
Y805669D02*
D03*
X5000000Y771811D02*
D03*
Y805669D02*
D03*
X7283465Y771811D02*
D03*
Y805669D02*
D03*
X7519685Y771811D02*
D03*
Y805669D02*
D03*
X7755905Y771811D02*
D03*
Y805669D02*
D03*
X7992126Y771811D02*
D03*
Y805669D02*
D03*
X6338583Y771811D02*
D03*
Y805669D02*
D03*
X6574803Y771811D02*
D03*
Y805669D02*
D03*
X6811024Y771811D02*
D03*
Y805669D02*
D03*
X7047244Y771811D02*
D03*
Y805669D02*
D03*
X9330709Y771811D02*
D03*
Y805669D02*
D03*
X9566929Y771811D02*
D03*
Y805669D02*
D03*
X9803150Y771811D02*
D03*
Y805669D02*
D03*
X10039370Y771811D02*
D03*
Y805669D02*
D03*
X8385827Y771811D02*
D03*
Y805669D02*
D03*
X8622047Y771811D02*
D03*
Y805669D02*
D03*
X8858268Y771811D02*
D03*
Y805669D02*
D03*
X9094488Y771811D02*
D03*
Y805669D02*
D03*
X433071Y771811D02*
D03*
Y805669D02*
D03*
X669291Y771811D02*
D03*
Y805669D02*
D03*
X905512Y771811D02*
D03*
Y805669D02*
D03*
X1141732Y771811D02*
D03*
Y805669D02*
D03*
X1377953Y771811D02*
D03*
Y805669D02*
D03*
X1614173Y771811D02*
D03*
Y805669D02*
D03*
X1850394Y771811D02*
D03*
Y805669D02*
D03*
X196850Y771811D02*
D03*
Y805669D02*
D03*
X10153150Y1361024D02*
D03*
Y1394882D02*
D03*
X10053150Y1361024D02*
D03*
Y1394882D02*
D03*
X9953150Y1361024D02*
D03*
Y1394882D02*
D03*
X9853150Y1361024D02*
D03*
Y1394882D02*
D03*
X9753150Y1361024D02*
D03*
Y1394882D02*
D03*
X9653150Y1361024D02*
D03*
Y1394882D02*
D03*
X9553150Y1361024D02*
D03*
Y1394882D02*
D03*
X9453150Y1361024D02*
D03*
Y1394882D02*
D03*
X7405905Y1361024D02*
D03*
Y1394882D02*
D03*
X7505905Y1361024D02*
D03*
Y1394882D02*
D03*
X7605905Y1361024D02*
D03*
Y1394882D02*
D03*
X7705905Y1361024D02*
D03*
Y1394882D02*
D03*
X7805905Y1361024D02*
D03*
Y1394882D02*
D03*
X7905905Y1361024D02*
D03*
Y1394882D02*
D03*
X8005905Y1361024D02*
D03*
Y1394882D02*
D03*
X8105905Y1361024D02*
D03*
Y1394882D02*
D03*
X5358661Y1361024D02*
D03*
Y1394882D02*
D03*
X5458661Y1361024D02*
D03*
Y1394882D02*
D03*
X5558661Y1361024D02*
D03*
Y1394882D02*
D03*
X5658661Y1361024D02*
D03*
Y1394882D02*
D03*
X5758661Y1361024D02*
D03*
Y1394882D02*
D03*
X5858661Y1361024D02*
D03*
Y1394882D02*
D03*
X5958661Y1361024D02*
D03*
Y1394882D02*
D03*
X6058661Y1361024D02*
D03*
Y1394882D02*
D03*
X3311417Y1361024D02*
D03*
Y1394882D02*
D03*
X3411417Y1361024D02*
D03*
Y1394882D02*
D03*
X3511417Y1361024D02*
D03*
Y1394882D02*
D03*
X3611417Y1361024D02*
D03*
Y1394882D02*
D03*
X3711417Y1361024D02*
D03*
Y1394882D02*
D03*
X3811417Y1361024D02*
D03*
Y1394882D02*
D03*
X3911417Y1361024D02*
D03*
Y1394882D02*
D03*
X4011417Y1361024D02*
D03*
Y1394882D02*
D03*
X9129528Y1361024D02*
D03*
Y1394882D02*
D03*
X9029528Y1361024D02*
D03*
Y1394882D02*
D03*
X8929528Y1361024D02*
D03*
Y1394882D02*
D03*
X8829528Y1361024D02*
D03*
Y1394882D02*
D03*
X8729528Y1361024D02*
D03*
Y1394882D02*
D03*
X8629528Y1361024D02*
D03*
Y1394882D02*
D03*
X8529528Y1361024D02*
D03*
Y1394882D02*
D03*
X8429528Y1361024D02*
D03*
Y1394882D02*
D03*
X7082283Y1361024D02*
D03*
Y1394882D02*
D03*
X6982283Y1361024D02*
D03*
Y1394882D02*
D03*
X6882283Y1361024D02*
D03*
Y1394882D02*
D03*
X6782283Y1361024D02*
D03*
Y1394882D02*
D03*
X6682283Y1361024D02*
D03*
Y1394882D02*
D03*
X6582283Y1361024D02*
D03*
Y1394882D02*
D03*
X6482283Y1361024D02*
D03*
Y1394882D02*
D03*
X6382283Y1361024D02*
D03*
Y1394882D02*
D03*
X5035039Y1361024D02*
D03*
Y1394882D02*
D03*
X4935039Y1361024D02*
D03*
Y1394882D02*
D03*
X4835039Y1361024D02*
D03*
Y1394882D02*
D03*
X4735039Y1361024D02*
D03*
Y1394882D02*
D03*
X4635039Y1361024D02*
D03*
Y1394882D02*
D03*
X4535039Y1361024D02*
D03*
Y1394882D02*
D03*
X4435039Y1361024D02*
D03*
Y1394882D02*
D03*
X4335039Y1361024D02*
D03*
Y1394882D02*
D03*
X2287795Y1361024D02*
D03*
Y1394882D02*
D03*
X2387795Y1361024D02*
D03*
Y1394882D02*
D03*
X2487795Y1361024D02*
D03*
Y1394882D02*
D03*
X2587795Y1361024D02*
D03*
Y1394882D02*
D03*
X2687795Y1361024D02*
D03*
Y1394882D02*
D03*
X2787795Y1361024D02*
D03*
Y1394882D02*
D03*
X2887795Y1361024D02*
D03*
Y1394882D02*
D03*
X2987795Y1361024D02*
D03*
Y1394882D02*
D03*
X1264173Y1361024D02*
D03*
Y1394882D02*
D03*
X1364173Y1361024D02*
D03*
Y1394882D02*
D03*
X1464173Y1361024D02*
D03*
Y1394882D02*
D03*
X1564173Y1361024D02*
D03*
Y1394882D02*
D03*
X1664173Y1361024D02*
D03*
Y1394882D02*
D03*
X1764173Y1361024D02*
D03*
Y1394882D02*
D03*
X1864173Y1361024D02*
D03*
Y1394882D02*
D03*
X1964173Y1361024D02*
D03*
Y1394882D02*
D03*
X940000Y1361024D02*
D03*
Y1394882D02*
D03*
X840000Y1361024D02*
D03*
Y1394882D02*
D03*
X740000Y1361024D02*
D03*
Y1394882D02*
D03*
X640000Y1361024D02*
D03*
Y1394882D02*
D03*
X540000Y1361024D02*
D03*
Y1394882D02*
D03*
X440000Y1361024D02*
D03*
Y1394882D02*
D03*
X340000Y1361024D02*
D03*
Y1394882D02*
D03*
X240000Y1361024D02*
D03*
Y1394882D02*
D03*
D12*
X1850394Y3875197D02*
D03*
Y3839764D02*
D03*
Y4112205D02*
D03*
Y4076772D02*
D03*
X7480315Y3230315D02*
D03*
Y3265748D02*
D03*
Y3820866D02*
D03*
Y3856299D02*
D03*
Y4411417D02*
D03*
Y4446850D02*
D03*
X8740157Y3230315D02*
D03*
Y3265748D02*
D03*
Y3820866D02*
D03*
Y3856299D02*
D03*
Y4411417D02*
D03*
Y4446850D02*
D03*
X9560000Y2708661D02*
D03*
Y2673228D02*
D03*
Y3299213D02*
D03*
Y3263780D02*
D03*
Y3889764D02*
D03*
Y3854331D02*
D03*
Y4480315D02*
D03*
Y4444882D02*
D03*
X3921669Y5178347D02*
D03*
Y5213780D02*
D03*
X3055528Y5178347D02*
D03*
Y5213780D02*
D03*
X9389764Y702716D02*
D03*
Y667284D02*
D03*
X9625984Y702716D02*
D03*
Y667284D02*
D03*
X9862205Y702716D02*
D03*
Y667284D02*
D03*
X10098425Y702716D02*
D03*
Y667284D02*
D03*
X8444882Y702716D02*
D03*
Y667284D02*
D03*
X8681102Y702716D02*
D03*
Y667284D02*
D03*
X8917323Y702716D02*
D03*
Y667284D02*
D03*
X9153543Y702716D02*
D03*
Y667284D02*
D03*
X7342520Y702716D02*
D03*
Y667284D02*
D03*
X7578740Y702716D02*
D03*
Y667284D02*
D03*
X7814961Y702716D02*
D03*
Y667284D02*
D03*
X8051181Y702716D02*
D03*
Y667284D02*
D03*
X6397638Y702716D02*
D03*
Y667284D02*
D03*
X6633858Y702716D02*
D03*
Y667284D02*
D03*
X6870079Y702716D02*
D03*
Y667284D02*
D03*
X7106299Y702716D02*
D03*
Y667284D02*
D03*
X5295276Y702716D02*
D03*
Y667284D02*
D03*
X5531496Y702716D02*
D03*
Y667284D02*
D03*
X5767717Y702716D02*
D03*
Y667284D02*
D03*
X6003937Y702716D02*
D03*
Y667284D02*
D03*
X4350394Y702716D02*
D03*
Y667284D02*
D03*
X4586614Y702716D02*
D03*
Y667284D02*
D03*
X4822835Y702716D02*
D03*
Y667284D02*
D03*
X5059055Y702716D02*
D03*
Y667284D02*
D03*
X3248032Y702716D02*
D03*
Y667284D02*
D03*
X3484252Y702716D02*
D03*
Y667284D02*
D03*
X3720472Y702716D02*
D03*
Y667284D02*
D03*
X3956693Y702716D02*
D03*
Y667284D02*
D03*
X2303150Y702716D02*
D03*
Y667284D02*
D03*
X2539370Y702716D02*
D03*
Y667284D02*
D03*
X2775590Y702716D02*
D03*
Y667284D02*
D03*
X3011811Y702716D02*
D03*
Y667284D02*
D03*
X492126Y702716D02*
D03*
Y667284D02*
D03*
X728346Y702716D02*
D03*
Y667284D02*
D03*
X964567Y702716D02*
D03*
Y667284D02*
D03*
X1200787Y702716D02*
D03*
Y667284D02*
D03*
X1437008Y702716D02*
D03*
Y667284D02*
D03*
X1673228Y702716D02*
D03*
Y667284D02*
D03*
X1909449Y702716D02*
D03*
Y667284D02*
D03*
X255905Y702716D02*
D03*
Y667284D02*
D03*
D13*
X1946850Y3858268D02*
D03*
Y4094488D02*
D03*
X7655512Y3188976D02*
D03*
Y3779528D02*
D03*
Y4370079D02*
D03*
X8836614Y3248032D02*
D03*
Y3838583D02*
D03*
Y4429134D02*
D03*
X1679528Y5331929D02*
D03*
X3265748Y788740D02*
D03*
X3501968D02*
D03*
X3738189D02*
D03*
X3974409D02*
D03*
X2320866D02*
D03*
X2557087D02*
D03*
X2793307D02*
D03*
X3029528D02*
D03*
X5312992D02*
D03*
X5549213D02*
D03*
X5785433D02*
D03*
X6021654D02*
D03*
X4368110D02*
D03*
X4604331D02*
D03*
X4840551D02*
D03*
X5076772D02*
D03*
X7360236D02*
D03*
X7596457D02*
D03*
X7832677D02*
D03*
X8068898D02*
D03*
X6415354D02*
D03*
X6651575D02*
D03*
X6887795D02*
D03*
X7124016D02*
D03*
X9407480D02*
D03*
X9643701D02*
D03*
X9879921D02*
D03*
X10116142D02*
D03*
X8462598D02*
D03*
X8698819D02*
D03*
X8935039D02*
D03*
X9171260D02*
D03*
X509842D02*
D03*
X746063D02*
D03*
X982283D02*
D03*
X1218504D02*
D03*
X1454724D02*
D03*
X1690945D02*
D03*
X1927165D02*
D03*
X273622D02*
D03*
X5212323Y5331929D02*
D03*
X4914173D02*
D03*
X4814173D02*
D03*
X5014173D02*
D03*
X5114173D02*
D03*
X1879528D02*
D03*
X1779528D02*
D03*
X2179528D02*
D03*
X2079528D02*
D03*
X1979528D02*
D03*
X5898425D02*
D03*
X5998425D02*
D03*
X6098425D02*
D03*
X5598425D02*
D03*
X5698425D02*
D03*
X5798425D02*
D03*
D14*
X1911417Y3843504D02*
D03*
Y3873032D02*
D03*
Y4079724D02*
D03*
Y4109252D02*
D03*
X7620079Y3203740D02*
D03*
Y3174213D02*
D03*
Y3794291D02*
D03*
Y3764764D02*
D03*
Y4384842D02*
D03*
Y4355315D02*
D03*
X8801181Y3262795D02*
D03*
Y3233268D02*
D03*
Y3853347D02*
D03*
Y3823819D02*
D03*
Y4443898D02*
D03*
Y4414370D02*
D03*
X1714961Y5317165D02*
D03*
Y5346693D02*
D03*
X3230315Y803504D02*
D03*
Y773976D02*
D03*
X3466535Y803504D02*
D03*
Y773976D02*
D03*
X3702756Y803504D02*
D03*
Y773976D02*
D03*
X3938976Y803504D02*
D03*
Y773976D02*
D03*
X2285433Y803504D02*
D03*
Y773976D02*
D03*
X2521654Y803504D02*
D03*
Y773976D02*
D03*
X2757874Y803504D02*
D03*
Y773976D02*
D03*
X2994095Y803504D02*
D03*
Y773976D02*
D03*
X5277559Y803504D02*
D03*
Y773976D02*
D03*
X5513780Y803504D02*
D03*
Y773976D02*
D03*
X5750000Y803504D02*
D03*
Y773976D02*
D03*
X5986221Y803504D02*
D03*
Y773976D02*
D03*
X4332677Y803504D02*
D03*
Y773976D02*
D03*
X4568898Y803504D02*
D03*
Y773976D02*
D03*
X4805118Y803504D02*
D03*
Y773976D02*
D03*
X5041339Y803504D02*
D03*
Y773976D02*
D03*
X7324803Y803504D02*
D03*
Y773976D02*
D03*
X7561024Y803504D02*
D03*
Y773976D02*
D03*
X7797244Y803504D02*
D03*
Y773976D02*
D03*
X8033465Y803504D02*
D03*
Y773976D02*
D03*
X6379921Y803504D02*
D03*
Y773976D02*
D03*
X6616142Y803504D02*
D03*
Y773976D02*
D03*
X6852362Y803504D02*
D03*
Y773976D02*
D03*
X7088583Y803504D02*
D03*
Y773976D02*
D03*
X9372047Y803504D02*
D03*
Y773976D02*
D03*
X9608268Y803504D02*
D03*
Y773976D02*
D03*
X9844488Y803504D02*
D03*
Y773976D02*
D03*
X10080709Y803504D02*
D03*
Y773976D02*
D03*
X8427165Y803504D02*
D03*
Y773976D02*
D03*
X8663386Y803504D02*
D03*
Y773976D02*
D03*
X8899606Y803504D02*
D03*
Y773976D02*
D03*
X9135827Y803504D02*
D03*
Y773976D02*
D03*
X474409Y803504D02*
D03*
Y773976D02*
D03*
X710630Y803504D02*
D03*
Y773976D02*
D03*
X946850Y803504D02*
D03*
Y773976D02*
D03*
X1183071Y803504D02*
D03*
Y773976D02*
D03*
X1419291Y803504D02*
D03*
Y773976D02*
D03*
X1655512Y803504D02*
D03*
Y773976D02*
D03*
X1891732Y803504D02*
D03*
Y773976D02*
D03*
X238189Y803504D02*
D03*
Y773976D02*
D03*
X5247756Y5317165D02*
D03*
Y5346693D02*
D03*
X4949606Y5317165D02*
D03*
Y5346693D02*
D03*
X4849606Y5317165D02*
D03*
Y5346693D02*
D03*
X5049606Y5317165D02*
D03*
Y5346693D02*
D03*
X5149606Y5317165D02*
D03*
Y5346693D02*
D03*
X1914961Y5317165D02*
D03*
Y5346693D02*
D03*
X1814961Y5317165D02*
D03*
Y5346693D02*
D03*
X2214961Y5317165D02*
D03*
Y5346693D02*
D03*
X2114961Y5317165D02*
D03*
Y5346693D02*
D03*
X2014961Y5317165D02*
D03*
Y5346693D02*
D03*
X5933858Y5317165D02*
D03*
Y5346693D02*
D03*
X6033858Y5317165D02*
D03*
Y5346693D02*
D03*
X6133858Y5317165D02*
D03*
Y5346693D02*
D03*
X5633858Y5317165D02*
D03*
Y5346693D02*
D03*
X5733858Y5317165D02*
D03*
Y5346693D02*
D03*
X5833858Y5317165D02*
D03*
Y5346693D02*
D03*
D15*
X415354Y3937008D02*
D03*
X765748D02*
D03*
X7738189Y3248032D02*
D03*
X8088583D02*
D03*
X7738189Y3838583D02*
D03*
X8088583D02*
D03*
X7738189Y4429134D02*
D03*
X8088583D02*
D03*
X844488Y2731457D02*
D03*
X494094D02*
D03*
X1828740Y2710000D02*
D03*
X1478346D02*
D03*
D16*
X1185039Y3425197D02*
D03*
Y3462599D02*
D03*
Y3387795D02*
D03*
X1098425D02*
D03*
Y3425197D02*
D03*
Y3462599D02*
D03*
D17*
X9698858Y3787402D02*
D03*
X9716575D02*
D03*
X9734291D02*
D03*
X9681142D02*
D03*
X9663425D02*
D03*
X9645709D02*
D03*
X9698858Y3889764D02*
D03*
X9716575D02*
D03*
X9734291D02*
D03*
X9681142D02*
D03*
X9663425D02*
D03*
X9645709D02*
D03*
X9698858Y3196850D02*
D03*
X9716575D02*
D03*
X9734291D02*
D03*
X9681142D02*
D03*
X9663425D02*
D03*
X9645709D02*
D03*
X9698858Y3299213D02*
D03*
X9716575D02*
D03*
X9734291D02*
D03*
X9681142D02*
D03*
X9663425D02*
D03*
X9645709D02*
D03*
X9698858Y2606299D02*
D03*
X9716575D02*
D03*
X9734291D02*
D03*
X9681142D02*
D03*
X9663425D02*
D03*
X9645709D02*
D03*
X9698858Y2708661D02*
D03*
X9716575D02*
D03*
X9734291D02*
D03*
X9681142D02*
D03*
X9663425D02*
D03*
X9645709D02*
D03*
X9698858Y4377953D02*
D03*
X9716575D02*
D03*
X9734291D02*
D03*
X9681142D02*
D03*
X9663425D02*
D03*
X9645709D02*
D03*
X9698858Y4480315D02*
D03*
X9716575D02*
D03*
X9734291D02*
D03*
X9681142D02*
D03*
X9663425D02*
D03*
X9645709D02*
D03*
D18*
X9690000Y3838583D02*
D03*
Y3248032D02*
D03*
Y2657480D02*
D03*
Y4429134D02*
D03*
D19*
X10039370Y2708661D02*
D03*
Y2683071D02*
D03*
Y2606299D02*
D03*
Y2631890D02*
D03*
Y2657480D02*
D03*
Y3299213D02*
D03*
Y3273622D02*
D03*
Y3196850D02*
D03*
Y3222441D02*
D03*
Y3248032D02*
D03*
Y3889764D02*
D03*
Y3864173D02*
D03*
Y3787402D02*
D03*
Y3812992D02*
D03*
Y3838583D02*
D03*
Y4480315D02*
D03*
Y4454725D02*
D03*
Y4377953D02*
D03*
Y4403543D02*
D03*
Y4429134D02*
D03*
D20*
X4120488Y5440945D02*
D03*
X3673638D02*
D03*
X3254347D02*
D03*
X2807496D02*
D03*
X9041748D02*
D03*
X8594898D02*
D03*
X7939386D02*
D03*
X7492535D02*
D03*
D21*
X3970882Y5326771D02*
D03*
X4020095D02*
D03*
X3921669D02*
D03*
X3823244D02*
D03*
X3872457D02*
D03*
X3774032D02*
D03*
X3104740D02*
D03*
X3153953D02*
D03*
X3055528D02*
D03*
X2957102D02*
D03*
X3006315D02*
D03*
X2907890D02*
D03*
X8892142D02*
D03*
X8941354D02*
D03*
X8842929D02*
D03*
X8744504D02*
D03*
X8793717D02*
D03*
X8695291D02*
D03*
X7789779D02*
D03*
X7838992D02*
D03*
X7740567D02*
D03*
X7642142D02*
D03*
X7691354D02*
D03*
X7592929D02*
D03*
D22*
X2519685Y3864173D02*
D03*
Y4009843D02*
D03*
X2755905Y3864173D02*
D03*
Y4009843D02*
D03*
X2519685Y3076772D02*
D03*
Y3222441D02*
D03*
X2755905Y3076772D02*
D03*
Y3222441D02*
D03*
X1692913Y3498032D02*
D03*
Y3352362D02*
D03*
X1456693Y3498032D02*
D03*
Y3352362D02*
D03*
X708661Y3498032D02*
D03*
Y3352362D02*
D03*
X472441Y3498032D02*
D03*
Y3352362D02*
D03*
D23*
X1815748Y5098425D02*
D03*
X1780315D02*
D03*
X1715748D02*
D03*
X1680315D02*
D03*
X5248819D02*
D03*
X5213386D02*
D03*
X4948819D02*
D03*
X4913386D02*
D03*
X4848819D02*
D03*
X4813386D02*
D03*
X5048819D02*
D03*
X5013386D02*
D03*
X5148819D02*
D03*
X5113386D02*
D03*
X687008Y4940945D02*
D03*
X651575D02*
D03*
X1915748Y5098425D02*
D03*
X1880315D02*
D03*
X2315748D02*
D03*
X2280315D02*
D03*
X2215748D02*
D03*
X2180315D02*
D03*
X2115748D02*
D03*
X2080315D02*
D03*
X2015748D02*
D03*
X1980315D02*
D03*
X5933071D02*
D03*
X5897638D02*
D03*
X6033071D02*
D03*
X5997638D02*
D03*
X6133071D02*
D03*
X6097638D02*
D03*
X5633071D02*
D03*
X5597638D02*
D03*
X5733071D02*
D03*
X5697638D02*
D03*
X5833071D02*
D03*
X5797638D02*
D03*
D24*
X1114173Y5192913D02*
D03*
X1023622D02*
D03*
X933071D02*
D03*
D25*
X1023622Y5437008D02*
D03*
D26*
X5470000Y3905000D02*
D03*
X4794409D02*
D03*
D27*
X5206221Y4075472D02*
D03*
X4951102D02*
D03*
X5206221Y3414055D02*
D03*
X4951102D02*
D03*
D28*
X5078661Y4075472D02*
D03*
Y3414055D02*
D03*
D29*
X10171263Y275591D02*
D03*
X10025594D02*
D03*
X10171263Y511811D02*
D03*
X10025594D02*
D03*
X9935042Y275591D02*
D03*
X9789373D02*
D03*
X9935042Y511811D02*
D03*
X9789373D02*
D03*
X9698822Y275591D02*
D03*
X9553153D02*
D03*
X9698822Y511811D02*
D03*
X9553153D02*
D03*
X9462602Y275591D02*
D03*
X9316932D02*
D03*
X9462602Y511811D02*
D03*
X9316932D02*
D03*
X9226381Y275591D02*
D03*
X9080712D02*
D03*
X9226381Y511811D02*
D03*
X9080712D02*
D03*
X8990161Y275591D02*
D03*
X8844491D02*
D03*
X8990161Y511811D02*
D03*
X8844491D02*
D03*
X8753940Y275591D02*
D03*
X8608271D02*
D03*
X8753940Y511811D02*
D03*
X8608271D02*
D03*
X8517720Y275591D02*
D03*
X8372050D02*
D03*
X8517720Y511811D02*
D03*
X8372050D02*
D03*
X6470475Y275591D02*
D03*
X6324806D02*
D03*
X6470475Y511811D02*
D03*
X6324806D02*
D03*
X6706696Y275591D02*
D03*
X6561027D02*
D03*
X6706696Y511811D02*
D03*
X6561027D02*
D03*
X6942917Y275591D02*
D03*
X6797247D02*
D03*
X6942917Y511811D02*
D03*
X6797247D02*
D03*
X7179137Y275591D02*
D03*
X7033468D02*
D03*
X7179137Y511811D02*
D03*
X7033468D02*
D03*
X7415357Y275591D02*
D03*
X7269688D02*
D03*
X7415357Y511811D02*
D03*
X7269688D02*
D03*
X7651578Y275591D02*
D03*
X7505909D02*
D03*
X7651578Y511811D02*
D03*
X7505909D02*
D03*
X7887798Y275591D02*
D03*
X7742129D02*
D03*
X7887798Y511811D02*
D03*
X7742129D02*
D03*
X8124019Y275591D02*
D03*
X7978350D02*
D03*
X8124019Y511811D02*
D03*
X7978350D02*
D03*
X4423231Y275591D02*
D03*
X4277562D02*
D03*
X4423231Y511811D02*
D03*
X4277562D02*
D03*
X4659452Y275591D02*
D03*
X4513783D02*
D03*
X4659452Y511811D02*
D03*
X4513783D02*
D03*
X4895672Y275591D02*
D03*
X4750003D02*
D03*
X4895672Y511811D02*
D03*
X4750003D02*
D03*
X5131893Y275591D02*
D03*
X4986224D02*
D03*
X5131893Y511811D02*
D03*
X4986224D02*
D03*
X5368113Y275591D02*
D03*
X5222444D02*
D03*
X5368113Y511811D02*
D03*
X5222444D02*
D03*
X5604334Y275591D02*
D03*
X5458665D02*
D03*
X5604334Y511811D02*
D03*
X5458665D02*
D03*
X5840554Y275591D02*
D03*
X5694885D02*
D03*
X5840554Y511811D02*
D03*
X5694885D02*
D03*
X6076775Y275591D02*
D03*
X5931105D02*
D03*
X6076775Y511811D02*
D03*
X5931105D02*
D03*
X2375987Y275591D02*
D03*
X2230318D02*
D03*
X2375987Y511811D02*
D03*
X2230318D02*
D03*
X2612208Y275591D02*
D03*
X2466539D02*
D03*
X2612208Y511811D02*
D03*
X2466539D02*
D03*
X2848428Y275591D02*
D03*
X2702759D02*
D03*
X2848428Y511811D02*
D03*
X2702759D02*
D03*
X3084649Y275591D02*
D03*
X2938979D02*
D03*
X3084649Y511811D02*
D03*
X2938979D02*
D03*
X3320869Y275591D02*
D03*
X3175200D02*
D03*
X3320869Y511811D02*
D03*
X3175200D02*
D03*
X3557090Y275591D02*
D03*
X3411421D02*
D03*
X3557090Y511811D02*
D03*
X3411421D02*
D03*
X3793310Y275591D02*
D03*
X3647641D02*
D03*
X3793310Y511811D02*
D03*
X3647641D02*
D03*
X4029531Y275591D02*
D03*
X3883861D02*
D03*
X4029531Y511811D02*
D03*
X3883861D02*
D03*
X328740Y275591D02*
D03*
X183071D02*
D03*
X328740Y511811D02*
D03*
X183071D02*
D03*
X564961Y275591D02*
D03*
X419291D02*
D03*
X564961Y511811D02*
D03*
X419291D02*
D03*
X801181Y275591D02*
D03*
X655512D02*
D03*
X801181Y511811D02*
D03*
X655512D02*
D03*
X1037401Y275591D02*
D03*
X891732D02*
D03*
X1037401Y511811D02*
D03*
X891732D02*
D03*
X1273622Y275591D02*
D03*
X1127953D02*
D03*
X1273622Y511811D02*
D03*
X1127953D02*
D03*
X1509842Y275591D02*
D03*
X1364173D02*
D03*
X1509842Y511811D02*
D03*
X1364173D02*
D03*
X1746063Y275591D02*
D03*
X1600394D02*
D03*
X1746063Y511811D02*
D03*
X1600394D02*
D03*
X1982283Y275591D02*
D03*
X1836614D02*
D03*
X1982283Y511811D02*
D03*
X1836614D02*
D03*
X9167323Y3720472D02*
D03*
X9021654D02*
D03*
X9167323Y3956693D02*
D03*
X9021654D02*
D03*
X9167323Y4311024D02*
D03*
X9021654D02*
D03*
X9167323Y4547244D02*
D03*
X9021654D02*
D03*
D30*
X8429528Y1285433D02*
D03*
X8529528D02*
D03*
X8629528D02*
D03*
X8729528D02*
D03*
X8829528D02*
D03*
X8929528D02*
D03*
X9029528D02*
D03*
X9129528D02*
D03*
X8429528Y919291D02*
D03*
X9129528D02*
D03*
X6382283Y1285433D02*
D03*
X6482283D02*
D03*
X6582283D02*
D03*
X6682283D02*
D03*
X6782283D02*
D03*
X6882283D02*
D03*
X6982283D02*
D03*
X7082283D02*
D03*
X6382283Y919291D02*
D03*
X7082283D02*
D03*
X4335039Y1285433D02*
D03*
X4435039D02*
D03*
X4535039D02*
D03*
X4635039D02*
D03*
X4735039D02*
D03*
X4835039D02*
D03*
X4935039D02*
D03*
X5035039D02*
D03*
X4335039Y919291D02*
D03*
X5035039D02*
D03*
X5358661Y1285433D02*
D03*
X5458661D02*
D03*
X5558661D02*
D03*
X5658661D02*
D03*
X5758661D02*
D03*
X5858661D02*
D03*
X5958661D02*
D03*
X6058661D02*
D03*
X5358661Y919291D02*
D03*
X6058661D02*
D03*
X7405905Y1285433D02*
D03*
X7505905D02*
D03*
X7605905D02*
D03*
X7705905D02*
D03*
X7805905D02*
D03*
X7905905D02*
D03*
X8005905D02*
D03*
X8105905D02*
D03*
X7405905Y919291D02*
D03*
X8105905D02*
D03*
X9453149Y1285433D02*
D03*
X9553149D02*
D03*
X9653149D02*
D03*
X9753149D02*
D03*
X9853149D02*
D03*
X9953149D02*
D03*
X10053149D02*
D03*
X10153149D02*
D03*
X9453149Y919291D02*
D03*
X10153149D02*
D03*
X3311417Y1285433D02*
D03*
X3411417D02*
D03*
X3511417D02*
D03*
X3611417D02*
D03*
X3711417D02*
D03*
X3811417D02*
D03*
X3911417D02*
D03*
X4011417D02*
D03*
X3311417Y919291D02*
D03*
X4011417D02*
D03*
X2287795Y1285433D02*
D03*
X2387795D02*
D03*
X2487795D02*
D03*
X2587795D02*
D03*
X2687795D02*
D03*
X2787795D02*
D03*
X2887795D02*
D03*
X2987795D02*
D03*
X2287795Y919291D02*
D03*
X2987795D02*
D03*
X1264173Y1285433D02*
D03*
X1364173D02*
D03*
X1464173D02*
D03*
X1564173D02*
D03*
X1664173D02*
D03*
X1764173D02*
D03*
X1864173D02*
D03*
X1964173D02*
D03*
X1264173Y919291D02*
D03*
X1964173D02*
D03*
X240551Y1285433D02*
D03*
X340551D02*
D03*
X440551D02*
D03*
X540551D02*
D03*
X640551D02*
D03*
X740551D02*
D03*
X840551D02*
D03*
X940551D02*
D03*
X240551Y919291D02*
D03*
X940551D02*
D03*
D31*
X6343028Y4268307D02*
D03*
X6216028D02*
D03*
X6343028Y4218307D02*
D03*
X6216028D02*
D03*
X6343028Y4168307D02*
D03*
X6216028D02*
D03*
X6343028Y4118307D02*
D03*
X6216028D02*
D03*
X6343028Y4068307D02*
D03*
X6216028D02*
D03*
X6343028Y4018307D02*
D03*
X6216028D02*
D03*
X6343028Y3968307D02*
D03*
X6216028D02*
D03*
X6343028Y3918307D02*
D03*
X6216028D02*
D03*
X6343028Y3868307D02*
D03*
X6216028D02*
D03*
X6343028Y3818307D02*
D03*
X6216028D02*
D03*
X6343028Y3768307D02*
D03*
X6216028D02*
D03*
X6343028Y3718307D02*
D03*
X6216028D02*
D03*
X6343028Y3668307D02*
D03*
X6216028D02*
D03*
X6343028Y3618307D02*
D03*
X6216028D02*
D03*
X6343028Y3568307D02*
D03*
X6216028D02*
D03*
X6343028Y3518307D02*
D03*
X6216028D02*
D03*
X6343028Y3468307D02*
D03*
X6216028D02*
D03*
X6343028Y3418307D02*
D03*
X6216028D02*
D03*
X6343028Y3368307D02*
D03*
X6216028D02*
D03*
X6343028Y3318307D02*
D03*
X6216028D02*
D03*
X6343028Y3268307D02*
D03*
X6216028D02*
D03*
X6343028Y3218307D02*
D03*
X6216028D02*
D03*
X6343028Y3168307D02*
D03*
X6216028D02*
D03*
X6343028Y3118307D02*
D03*
X6216028D02*
D03*
X6343028Y3068307D02*
D03*
X6216028D02*
D03*
X6343028Y3018307D02*
D03*
X6216028D02*
D03*
X6343028Y2968307D02*
D03*
X6216028D02*
D03*
X6343028Y2918307D02*
D03*
X6216028D02*
D03*
X6343028Y2868307D02*
D03*
X6216028D02*
D03*
X6343028Y2818307D02*
D03*
X6216028D02*
D03*
X3980823Y4268307D02*
D03*
X3853823D02*
D03*
X3980823Y4218307D02*
D03*
X3853823D02*
D03*
X3980823Y4168307D02*
D03*
X3853823D02*
D03*
X3980823Y4118307D02*
D03*
X3853823D02*
D03*
X3980823Y4068307D02*
D03*
X3853823D02*
D03*
X3980823Y4018307D02*
D03*
X3853823D02*
D03*
X3980823Y3968307D02*
D03*
X3853823D02*
D03*
X3980823Y3918307D02*
D03*
X3853823D02*
D03*
X3980823Y3868307D02*
D03*
X3853823D02*
D03*
X3980823Y3818307D02*
D03*
X3853823D02*
D03*
X3980823Y3768307D02*
D03*
X3853823D02*
D03*
X3980823Y3718307D02*
D03*
X3853823D02*
D03*
X3980823Y3668307D02*
D03*
X3853823D02*
D03*
X3980823Y3618307D02*
D03*
X3853823D02*
D03*
X3980823Y3568307D02*
D03*
X3853823D02*
D03*
X3980823Y3518307D02*
D03*
X3853823D02*
D03*
X3980823Y3468307D02*
D03*
X3853823D02*
D03*
X3980823Y3418307D02*
D03*
X3853823D02*
D03*
X3980823Y3368307D02*
D03*
X3853823D02*
D03*
X3980823Y3318307D02*
D03*
X3853823D02*
D03*
X3980823Y3268307D02*
D03*
X3853823D02*
D03*
X3980823Y3218307D02*
D03*
X3853823D02*
D03*
X3980823Y3168307D02*
D03*
X3853823D02*
D03*
X3980823Y3118307D02*
D03*
X3853823D02*
D03*
X3980823Y3068307D02*
D03*
X3853823D02*
D03*
X3980823Y3018307D02*
D03*
X3853823D02*
D03*
X3980823Y2968307D02*
D03*
X3853823D02*
D03*
X3980823Y2918307D02*
D03*
X3853823D02*
D03*
X3980823Y2868307D02*
D03*
X3853823D02*
D03*
X3980823Y2818307D02*
D03*
X3853823D02*
D03*
D35*
X10125984Y2657480D02*
D03*
Y3248032D02*
D03*
Y3838583D02*
D03*
Y4429134D02*
D03*
D36*
X10039370Y2767716D02*
D03*
Y2547244D02*
D03*
Y3358268D02*
D03*
Y3137795D02*
D03*
Y3948819D02*
D03*
Y3728347D02*
D03*
Y4539370D02*
D03*
Y4318898D02*
D03*
D37*
X6982283Y5196850D02*
D03*
X6116142D02*
D03*
X5231890D02*
D03*
X10053150D02*
D03*
X8468898D02*
D03*
X7366535D02*
D03*
X2799606Y1653543D02*
D03*
X4846850D02*
D03*
X6894095D02*
D03*
X8941339D02*
D03*
X752362D02*
D03*
X1697244Y5196850D02*
D03*
D38*
X6882283D02*
D03*
X6782283D02*
D03*
X6682283D02*
D03*
X6582283D02*
D03*
X6482283D02*
D03*
X6016142D02*
D03*
X5916142D02*
D03*
X5816142D02*
D03*
X5716142D02*
D03*
X5616142D02*
D03*
X5131890D02*
D03*
X5031890D02*
D03*
X4931890D02*
D03*
X4831890D02*
D03*
X4731890D02*
D03*
X4631890D02*
D03*
X4531890D02*
D03*
X9953150D02*
D03*
X9853150D02*
D03*
X9753150D02*
D03*
X9653150D02*
D03*
X9553150D02*
D03*
X8568898D02*
D03*
X8668898D02*
D03*
X8768898D02*
D03*
X8868898D02*
D03*
X8968898D02*
D03*
X9068898D02*
D03*
X9168898D02*
D03*
X7466535D02*
D03*
X7566535D02*
D03*
X7666535D02*
D03*
X7766535D02*
D03*
X7866535D02*
D03*
X7966535D02*
D03*
X8066535D02*
D03*
X2899606Y1653543D02*
D03*
X2999606D02*
D03*
X3099606D02*
D03*
X3199606D02*
D03*
X3299606D02*
D03*
X3399606D02*
D03*
X3499606D02*
D03*
X4946850D02*
D03*
X5046850D02*
D03*
X5146850D02*
D03*
X5246850D02*
D03*
X5346850D02*
D03*
X5446850D02*
D03*
X5546850D02*
D03*
X6994095D02*
D03*
X7094095D02*
D03*
X7194095D02*
D03*
X7294095D02*
D03*
X7394095D02*
D03*
X7494095D02*
D03*
X7594095D02*
D03*
X9041339D02*
D03*
X9141339D02*
D03*
X9241339D02*
D03*
X9341339D02*
D03*
X9441339D02*
D03*
X9541339D02*
D03*
X9641339D02*
D03*
X852362D02*
D03*
X952362D02*
D03*
X1052362D02*
D03*
X1152362D02*
D03*
X1252362D02*
D03*
X1352362D02*
D03*
X1452362D02*
D03*
X1797244Y5196850D02*
D03*
X1897244D02*
D03*
X1997244D02*
D03*
X2097244D02*
D03*
X2197244D02*
D03*
X2297244D02*
D03*
X2397244D02*
D03*
D39*
X590551Y5157480D02*
D03*
D40*
X452756Y5354331D02*
D03*
D41*
X10236206Y5866142D02*
D03*
X10196835D02*
D03*
X10157466D02*
D03*
X9881876D02*
D03*
X9921246D02*
D03*
X9960615D02*
D03*
X9999986D02*
D03*
X10039355D02*
D03*
X9842505D02*
D03*
X9803136D02*
D03*
X9763765D02*
D03*
X9724396D02*
D03*
X9685025D02*
D03*
X10118095D02*
D03*
X10078726D02*
D03*
X10236206Y39370D02*
D03*
X10196836D02*
D03*
X10157466D02*
D03*
X9881876D02*
D03*
X9921246D02*
D03*
X9960616D02*
D03*
X9999986D02*
D03*
X10039356D02*
D03*
X9842506D02*
D03*
X9803136D02*
D03*
X9763766D02*
D03*
X9724396D02*
D03*
X9685026D02*
D03*
X10118096D02*
D03*
X10078726D02*
D03*
X39370Y5354322D02*
D03*
Y5314952D02*
D03*
Y5275582D02*
D03*
Y5708651D02*
D03*
Y5669282D02*
D03*
Y5629912D02*
D03*
Y5590542D02*
D03*
Y5393691D02*
D03*
Y5433061D02*
D03*
Y5472431D02*
D03*
Y5511801D02*
D03*
Y5551172D02*
D03*
Y5236212D02*
D03*
Y4999992D02*
D03*
Y4960622D02*
D03*
Y4921252D02*
D03*
Y4881882D02*
D03*
Y4842511D02*
D03*
Y5039361D02*
D03*
Y5078731D02*
D03*
Y5118101D02*
D03*
Y5157471D02*
D03*
Y5196842D02*
D03*
Y4724401D02*
D03*
Y4763771D02*
D03*
Y4803141D02*
D03*
Y3858262D02*
D03*
Y3818892D02*
D03*
Y3779521D02*
D03*
Y4251962D02*
D03*
Y4212592D02*
D03*
Y4173221D02*
D03*
Y4133851D02*
D03*
Y4094481D02*
D03*
Y3897631D02*
D03*
Y3937001D02*
D03*
Y3976372D02*
D03*
Y4015742D02*
D03*
Y4055111D02*
D03*
Y4448811D02*
D03*
Y4409441D02*
D03*
Y4370072D02*
D03*
Y4330702D02*
D03*
Y4291332D02*
D03*
Y4488181D02*
D03*
Y4527551D02*
D03*
Y4566922D02*
D03*
Y4606292D02*
D03*
Y4685032D02*
D03*
Y4645662D02*
D03*
X10393701Y5354326D02*
D03*
Y5314956D02*
D03*
Y5275586D02*
D03*
Y5708656D02*
D03*
Y5669286D02*
D03*
Y5629916D02*
D03*
Y5590546D02*
D03*
Y5393696D02*
D03*
Y5433066D02*
D03*
Y5472436D02*
D03*
Y5511806D02*
D03*
Y5551176D02*
D03*
Y5236216D02*
D03*
Y4999996D02*
D03*
Y4960626D02*
D03*
Y4921256D02*
D03*
Y4881886D02*
D03*
Y4842516D02*
D03*
Y5039366D02*
D03*
Y5078736D02*
D03*
Y5118106D02*
D03*
Y5157476D02*
D03*
Y5196846D02*
D03*
Y4724406D02*
D03*
Y4763776D02*
D03*
Y4803146D02*
D03*
Y3858266D02*
D03*
Y3818896D02*
D03*
Y3779526D02*
D03*
Y4251966D02*
D03*
Y4212596D02*
D03*
Y4173226D02*
D03*
Y4133856D02*
D03*
Y4094486D02*
D03*
Y3897636D02*
D03*
Y3937006D02*
D03*
Y3976376D02*
D03*
Y4015746D02*
D03*
Y4055116D02*
D03*
Y4448816D02*
D03*
Y4409446D02*
D03*
Y4370076D02*
D03*
Y4330706D02*
D03*
Y4291336D02*
D03*
Y4488186D02*
D03*
Y4527556D02*
D03*
Y4566926D02*
D03*
Y4606296D02*
D03*
Y4685036D02*
D03*
Y4645666D02*
D03*
X9606286Y39370D02*
D03*
X9645656D02*
D03*
X9212586D02*
D03*
X9251956D02*
D03*
X9291326D02*
D03*
X9330696D02*
D03*
X9370066D02*
D03*
X9566916D02*
D03*
X9527546D02*
D03*
X9488176D02*
D03*
X9448806D02*
D03*
X9409436D02*
D03*
X8818886D02*
D03*
X8858256D02*
D03*
X8897626D02*
D03*
X8936996D02*
D03*
X8976366D02*
D03*
X9173216D02*
D03*
X9133846D02*
D03*
X9094476D02*
D03*
X9055106D02*
D03*
X9015736D02*
D03*
X8582666D02*
D03*
X8779516D02*
D03*
X8740146D02*
D03*
X8700776D02*
D03*
X8661406D02*
D03*
X8622036D02*
D03*
X8188966D02*
D03*
X8228336D02*
D03*
X8267706D02*
D03*
X8307076D02*
D03*
X8346446D02*
D03*
X8543296D02*
D03*
X8503926D02*
D03*
X8464556D02*
D03*
X8425186D02*
D03*
X8385816D02*
D03*
X7795266D02*
D03*
X7834636D02*
D03*
X7874006D02*
D03*
X7913376D02*
D03*
X7952746D02*
D03*
X8149596D02*
D03*
X8110226D02*
D03*
X8070856D02*
D03*
X8031486D02*
D03*
X7992116D02*
D03*
X7401566D02*
D03*
X7440936D02*
D03*
X7480306D02*
D03*
X7519676D02*
D03*
X7559046D02*
D03*
X7755896D02*
D03*
X7716526D02*
D03*
X7677156D02*
D03*
X7637786D02*
D03*
X7598416D02*
D03*
X7165346D02*
D03*
X7362196D02*
D03*
X7322826D02*
D03*
X7283456D02*
D03*
X7244086D02*
D03*
X7204716D02*
D03*
X6771646D02*
D03*
X6811016D02*
D03*
X6850386D02*
D03*
X6889756D02*
D03*
X6929126D02*
D03*
X7125976D02*
D03*
X7086606D02*
D03*
X7047236D02*
D03*
X7007866D02*
D03*
X6968496D02*
D03*
X6377946D02*
D03*
X6417316D02*
D03*
X6456686D02*
D03*
X6496056D02*
D03*
X6535426D02*
D03*
X6732276D02*
D03*
X6692906D02*
D03*
X6653536D02*
D03*
X6614166D02*
D03*
X6574796D02*
D03*
X5984246D02*
D03*
X6023616D02*
D03*
X6062986D02*
D03*
X6102356D02*
D03*
X6141726D02*
D03*
X6338576D02*
D03*
X6299206D02*
D03*
X6259836D02*
D03*
X6220466D02*
D03*
X6181096D02*
D03*
X5748026D02*
D03*
X5944876D02*
D03*
X5905506D02*
D03*
X5866136D02*
D03*
X5826766D02*
D03*
X5787396D02*
D03*
X9606285Y5866142D02*
D03*
X9645656D02*
D03*
X9212585D02*
D03*
X9251956D02*
D03*
X9291326D02*
D03*
X9330695D02*
D03*
X9370066D02*
D03*
X9566915D02*
D03*
X9527546D02*
D03*
X9488175D02*
D03*
X9448806D02*
D03*
X9409435D02*
D03*
X8818886D02*
D03*
X8858255D02*
D03*
X8897626D02*
D03*
X8936996D02*
D03*
X8976365D02*
D03*
X9173216D02*
D03*
X9133845D02*
D03*
X9094476D02*
D03*
X9055105D02*
D03*
X9015736D02*
D03*
X8582665D02*
D03*
X8779515D02*
D03*
X8740146D02*
D03*
X8700775D02*
D03*
X8661406D02*
D03*
X8622035D02*
D03*
X8188966D02*
D03*
X8228335D02*
D03*
X8267706D02*
D03*
X8307076D02*
D03*
X8346445D02*
D03*
X8543296D02*
D03*
X8503925D02*
D03*
X8464556D02*
D03*
X8425185D02*
D03*
X8385816D02*
D03*
X7795266D02*
D03*
X7834636D02*
D03*
X7874006D02*
D03*
X7913376D02*
D03*
X7952745D02*
D03*
X8149596D02*
D03*
X8110225D02*
D03*
X8070855D02*
D03*
X8031485D02*
D03*
X7992115D02*
D03*
X7401565D02*
D03*
X7440935D02*
D03*
X7480306D02*
D03*
X7519676D02*
D03*
X7559046D02*
D03*
X7755895D02*
D03*
X7716525D02*
D03*
X7677155D02*
D03*
X7637785D02*
D03*
X7598416D02*
D03*
X7165346D02*
D03*
X7362195D02*
D03*
X7322825D02*
D03*
X7283456D02*
D03*
X7244086D02*
D03*
X7204716D02*
D03*
X6771645D02*
D03*
X6811016D02*
D03*
X6850386D02*
D03*
X6889756D02*
D03*
X6929126D02*
D03*
X7125975D02*
D03*
X7086605D02*
D03*
X7047235D02*
D03*
X7007865D02*
D03*
X6968495D02*
D03*
X6377945D02*
D03*
X6417315D02*
D03*
X6456685D02*
D03*
X6496056D02*
D03*
X6535426D02*
D03*
X6732275D02*
D03*
X6692905D02*
D03*
X6653535D02*
D03*
X6614166D02*
D03*
X6574796D02*
D03*
X5984245D02*
D03*
X6023615D02*
D03*
X6062985D02*
D03*
X6102355D02*
D03*
X6141725D02*
D03*
X6338575D02*
D03*
X6299206D02*
D03*
X6259836D02*
D03*
X6220466D02*
D03*
X6181096D02*
D03*
X5748025D02*
D03*
X5944876D02*
D03*
X5905506D02*
D03*
X5866136D02*
D03*
X5826766D02*
D03*
X5787395D02*
D03*
X39370Y196851D02*
D03*
Y433072D02*
D03*
Y472442D02*
D03*
Y511812D02*
D03*
Y551182D02*
D03*
Y590552D02*
D03*
Y393702D02*
D03*
Y354332D02*
D03*
Y314962D02*
D03*
Y275591D02*
D03*
Y236221D02*
D03*
Y708662D02*
D03*
Y669292D02*
D03*
Y629922D02*
D03*
Y3543302D02*
D03*
Y3582671D02*
D03*
Y3622041D02*
D03*
Y3661412D02*
D03*
Y3700782D02*
D03*
Y3740151D02*
D03*
Y3149602D02*
D03*
Y3188972D02*
D03*
Y3228341D02*
D03*
Y3267711D02*
D03*
Y3307081D02*
D03*
Y3503932D02*
D03*
Y3464561D02*
D03*
Y3425191D02*
D03*
Y3385822D02*
D03*
Y3346452D02*
D03*
Y2755901D02*
D03*
Y2795271D02*
D03*
Y2834642D02*
D03*
Y2874012D02*
D03*
Y2913381D02*
D03*
Y3110231D02*
D03*
Y3070861D02*
D03*
Y3031492D02*
D03*
Y2992122D02*
D03*
Y2952751D02*
D03*
Y2362202D02*
D03*
Y2401572D02*
D03*
Y2440941D02*
D03*
Y2480311D02*
D03*
Y2519682D02*
D03*
Y2716532D02*
D03*
Y2677162D02*
D03*
Y2637791D02*
D03*
Y2598421D02*
D03*
Y2559052D02*
D03*
Y1968502D02*
D03*
Y2007871D02*
D03*
Y2047242D02*
D03*
Y2086611D02*
D03*
Y2125981D02*
D03*
Y2322831D02*
D03*
Y2283461D02*
D03*
Y2244091D02*
D03*
Y2204722D02*
D03*
Y2165352D02*
D03*
Y1574802D02*
D03*
Y1614171D02*
D03*
Y1653542D02*
D03*
Y1692911D02*
D03*
Y1732282D02*
D03*
Y1929131D02*
D03*
Y1889762D02*
D03*
Y1850391D02*
D03*
Y1811022D02*
D03*
Y1771651D02*
D03*
Y1181101D02*
D03*
Y1220472D02*
D03*
Y1259841D02*
D03*
Y1299211D02*
D03*
Y1338582D02*
D03*
Y1535431D02*
D03*
Y1496062D02*
D03*
Y1456691D02*
D03*
Y1417322D02*
D03*
Y1377951D02*
D03*
Y984251D02*
D03*
Y1023621D02*
D03*
Y1062992D02*
D03*
Y1102361D02*
D03*
Y1141732D02*
D03*
Y944881D02*
D03*
Y905511D02*
D03*
Y866141D02*
D03*
Y826771D02*
D03*
Y748032D02*
D03*
Y787402D02*
D03*
X10393701Y3149606D02*
D03*
Y3188976D02*
D03*
Y3110236D02*
D03*
Y3070866D02*
D03*
Y3031496D02*
D03*
Y2992126D02*
D03*
Y2795276D02*
D03*
Y2834646D02*
D03*
Y2874016D02*
D03*
Y2913386D02*
D03*
Y2952756D02*
D03*
Y2559056D02*
D03*
Y2519686D02*
D03*
Y2480316D02*
D03*
Y2440946D02*
D03*
Y2401576D02*
D03*
Y2598426D02*
D03*
Y2637796D02*
D03*
Y2677166D02*
D03*
Y2716536D02*
D03*
Y2755906D02*
D03*
Y2165356D02*
D03*
Y2125986D02*
D03*
Y2086616D02*
D03*
Y2047246D02*
D03*
Y2007876D02*
D03*
Y2204726D02*
D03*
Y2244096D02*
D03*
Y2283466D02*
D03*
Y2322836D02*
D03*
Y2362206D02*
D03*
Y1771656D02*
D03*
Y1732286D02*
D03*
Y1692916D02*
D03*
Y1653546D02*
D03*
Y1614176D02*
D03*
Y1811026D02*
D03*
Y1850396D02*
D03*
Y1889766D02*
D03*
Y1929136D02*
D03*
Y1968506D02*
D03*
Y1377956D02*
D03*
Y1338586D02*
D03*
Y1299216D02*
D03*
Y1259846D02*
D03*
Y1220476D02*
D03*
Y1417326D02*
D03*
Y1456696D02*
D03*
Y1496066D02*
D03*
Y1535436D02*
D03*
Y1574806D02*
D03*
Y984256D02*
D03*
Y944886D02*
D03*
Y905516D02*
D03*
Y866146D02*
D03*
Y826776D02*
D03*
Y1023626D02*
D03*
Y1062996D02*
D03*
Y1102366D02*
D03*
Y1141736D02*
D03*
Y1181106D02*
D03*
Y590556D02*
D03*
Y551186D02*
D03*
Y511816D02*
D03*
Y472446D02*
D03*
Y433076D02*
D03*
Y629926D02*
D03*
Y669296D02*
D03*
Y708666D02*
D03*
Y748036D02*
D03*
Y787406D02*
D03*
Y196856D02*
D03*
Y236226D02*
D03*
Y275596D02*
D03*
Y314966D02*
D03*
Y354336D02*
D03*
Y393706D02*
D03*
Y3307086D02*
D03*
Y3267716D02*
D03*
Y3228346D02*
D03*
Y3700786D02*
D03*
Y3661416D02*
D03*
Y3622046D02*
D03*
Y3582676D02*
D03*
Y3543306D02*
D03*
Y3346456D02*
D03*
Y3385826D02*
D03*
Y3425196D02*
D03*
Y3464566D02*
D03*
Y3503936D02*
D03*
Y3740156D02*
D03*
X2755905Y5866142D02*
D03*
X2716535D02*
D03*
X2795276D02*
D03*
X2834646D02*
D03*
X2874015D02*
D03*
X2913385D02*
D03*
X3110235D02*
D03*
X3070865D02*
D03*
X3031495D02*
D03*
X2992126D02*
D03*
X2952756D02*
D03*
X3346456D02*
D03*
X3385825D02*
D03*
X3425195D02*
D03*
X3464566D02*
D03*
X3503936D02*
D03*
X3307086D02*
D03*
X3267715D02*
D03*
X3228345D02*
D03*
X3188976D02*
D03*
X3149606D02*
D03*
X3740155D02*
D03*
X3779526D02*
D03*
X3818896D02*
D03*
X3858265D02*
D03*
X3897635D02*
D03*
X3700785D02*
D03*
X3661416D02*
D03*
X3622046D02*
D03*
X3582675D02*
D03*
X3543305D02*
D03*
X4133855D02*
D03*
X4173225D02*
D03*
X4212596D02*
D03*
X4251966D02*
D03*
X4291336D02*
D03*
X4094485D02*
D03*
X4055115D02*
D03*
X4015745D02*
D03*
X3976376D02*
D03*
X3937006D02*
D03*
X4527556D02*
D03*
X4566926D02*
D03*
X4606296D02*
D03*
X4645666D02*
D03*
X4685035D02*
D03*
X4488185D02*
D03*
X4448815D02*
D03*
X4409445D02*
D03*
X4370075D02*
D03*
X4330706D02*
D03*
X4921256D02*
D03*
X4960626D02*
D03*
X4999995D02*
D03*
X5039365D02*
D03*
X5078735D02*
D03*
X4881886D02*
D03*
X4842516D02*
D03*
X4803145D02*
D03*
X4763775D02*
D03*
X4724405D02*
D03*
X5314956D02*
D03*
X5354325D02*
D03*
X5393695D02*
D03*
X5433065D02*
D03*
X5472435D02*
D03*
X5275586D02*
D03*
X5236216D02*
D03*
X5196846D02*
D03*
X5157475D02*
D03*
X5118105D02*
D03*
X5708655D02*
D03*
X5669285D02*
D03*
X5629916D02*
D03*
X5590546D02*
D03*
X5551176D02*
D03*
X5511806D02*
D03*
X2598425D02*
D03*
X2637796D02*
D03*
X2677166D02*
D03*
X2204726D02*
D03*
X2244095D02*
D03*
X2283465D02*
D03*
X2322836D02*
D03*
X2362206D02*
D03*
X2559055D02*
D03*
X2519686D02*
D03*
X2480316D02*
D03*
X2440945D02*
D03*
X2401575D02*
D03*
X2007876D02*
D03*
X2047245D02*
D03*
X2086615D02*
D03*
X2125985D02*
D03*
X2165356D02*
D03*
X1968505D02*
D03*
X1929136D02*
D03*
X1889765D02*
D03*
X1850396D02*
D03*
X1771656D02*
D03*
X1811025D02*
D03*
X1653545D02*
D03*
X1692916D02*
D03*
X1732285D02*
D03*
X1259845D02*
D03*
X1299216D02*
D03*
X1338585D02*
D03*
X1377956D02*
D03*
X1417325D02*
D03*
X1614176D02*
D03*
X1574805D02*
D03*
X1535436D02*
D03*
X1496065D02*
D03*
X1456696D02*
D03*
X1062995D02*
D03*
X1102366D02*
D03*
X1141736D02*
D03*
X1181105D02*
D03*
X1220476D02*
D03*
X1023625D02*
D03*
X984255D02*
D03*
X944885D02*
D03*
X905515D02*
D03*
X826775D02*
D03*
X866145D02*
D03*
X708665D02*
D03*
X748035D02*
D03*
X787405D02*
D03*
X314966D02*
D03*
X354336D02*
D03*
X393705D02*
D03*
X433075D02*
D03*
X472445D02*
D03*
X669295D02*
D03*
X629926D02*
D03*
X590556D02*
D03*
X551186D02*
D03*
X511815D02*
D03*
X196856D02*
D03*
X236226D02*
D03*
X275596D02*
D03*
X5629916Y39370D02*
D03*
X5669286D02*
D03*
X5708656D02*
D03*
X5393696D02*
D03*
X5354326D02*
D03*
X5314956D02*
D03*
X5275586D02*
D03*
X5236216D02*
D03*
X5433066D02*
D03*
X5472436D02*
D03*
X5511806D02*
D03*
X5551176D02*
D03*
X5590546D02*
D03*
X5118106D02*
D03*
X5157476D02*
D03*
X5196846D02*
D03*
X5039366D02*
D03*
X5078736D02*
D03*
X4999996D02*
D03*
X4960626D02*
D03*
X4921256D02*
D03*
X4881886D02*
D03*
X4685036D02*
D03*
X4724406D02*
D03*
X4763776D02*
D03*
X4803146D02*
D03*
X4842516D02*
D03*
X4448816D02*
D03*
X4409446D02*
D03*
X4370076D02*
D03*
X4330706D02*
D03*
X4291336D02*
D03*
X4488186D02*
D03*
X4527556D02*
D03*
X4566926D02*
D03*
X4606296D02*
D03*
X4645666D02*
D03*
X4173226D02*
D03*
X4212596D02*
D03*
X4251966D02*
D03*
X4094486D02*
D03*
X4133856D02*
D03*
X4055116D02*
D03*
X4015746D02*
D03*
X3976376D02*
D03*
X3937006D02*
D03*
X3740156D02*
D03*
X3779526D02*
D03*
X3818896D02*
D03*
X3858266D02*
D03*
X3897636D02*
D03*
X3503936D02*
D03*
X3464566D02*
D03*
X3425196D02*
D03*
X3385826D02*
D03*
X3346456D02*
D03*
X3543306D02*
D03*
X3582676D02*
D03*
X3622046D02*
D03*
X3661416D02*
D03*
X3700786D02*
D03*
X3228346D02*
D03*
X3267716D02*
D03*
X3307086D02*
D03*
X393706D02*
D03*
X354336D02*
D03*
X314966D02*
D03*
X275596D02*
D03*
X236226D02*
D03*
X196856D02*
D03*
X787406D02*
D03*
X748036D02*
D03*
X708666D02*
D03*
X669296D02*
D03*
X629926D02*
D03*
X433076D02*
D03*
X472446D02*
D03*
X511816D02*
D03*
X551186D02*
D03*
X590556D02*
D03*
X1181106D02*
D03*
X1141736D02*
D03*
X1102366D02*
D03*
X1062996D02*
D03*
X1023626D02*
D03*
X826776D02*
D03*
X866146D02*
D03*
X905516D02*
D03*
X944886D02*
D03*
X984256D02*
D03*
X1574806D02*
D03*
X1535436D02*
D03*
X1496066D02*
D03*
X1456696D02*
D03*
X1417326D02*
D03*
X1220476D02*
D03*
X1259846D02*
D03*
X1299216D02*
D03*
X1338586D02*
D03*
X1377956D02*
D03*
X1968506D02*
D03*
X1929136D02*
D03*
X1889766D02*
D03*
X1850396D02*
D03*
X1811026D02*
D03*
X1614176D02*
D03*
X1653546D02*
D03*
X1692916D02*
D03*
X1732286D02*
D03*
X1771656D02*
D03*
X2362206D02*
D03*
X2322836D02*
D03*
X2283466D02*
D03*
X2244096D02*
D03*
X2204726D02*
D03*
X2007876D02*
D03*
X2047246D02*
D03*
X2086616D02*
D03*
X2125986D02*
D03*
X2165356D02*
D03*
X2755906D02*
D03*
X2716536D02*
D03*
X2677166D02*
D03*
X2637796D02*
D03*
X2598426D02*
D03*
X2401576D02*
D03*
X2440946D02*
D03*
X2480316D02*
D03*
X2519686D02*
D03*
X2559056D02*
D03*
X2952756D02*
D03*
X2913386D02*
D03*
X2874016D02*
D03*
X2834646D02*
D03*
X2795276D02*
D03*
X2992126D02*
D03*
X3031496D02*
D03*
X3070866D02*
D03*
X3110236D02*
D03*
X3188976D02*
D03*
X3149606D02*
D03*
D42*
X10314961Y118110D02*
D03*
Y5787402D02*
D03*
X118110D02*
D03*
Y118110D02*
D03*
X3540122Y2755905D02*
D03*
Y4330709D02*
D03*
X6689728Y2755905D02*
D03*
Y4330709D02*
D03*
%TF.MD5,74c7bce64508041127750b2d7e2828c2*%
M02*
