G04*
G04 #@! TF.GenerationSoftware,Altium Limited,Altium Designer,20.0.13 (296)*
G04*
G04 Layer_Color=32896*
%FSLAX25Y25*%
%MOIN*%
G70*
G01*
G75*
%ADD13C,0.00197*%
D13*
X526890Y21260D02*
Y24409D01*
X520985Y21260D02*
Y24409D01*
Y21260D02*
X526890D01*
X520985Y24409D02*
X526890D01*
X522756Y22835D02*
X525118D01*
X523937Y21654D02*
Y24016D01*
X550512Y21260D02*
Y24409D01*
X544607Y21260D02*
Y24409D01*
Y21260D02*
X550512D01*
X544607Y24409D02*
X550512D01*
X546378Y22835D02*
X548740D01*
X547559Y21654D02*
Y24016D01*
X574134Y21260D02*
Y24409D01*
X568229Y21260D02*
Y24409D01*
Y21260D02*
X574134D01*
X568229Y24409D02*
X574134D01*
X570000Y22835D02*
X572363D01*
X571181Y21654D02*
Y24016D01*
X597756Y21260D02*
Y24409D01*
X591851Y21260D02*
Y24409D01*
Y21260D02*
X597756D01*
X591851Y24409D02*
X597756D01*
X593622Y22835D02*
X595985D01*
X594803Y21654D02*
Y24016D01*
X637126Y21260D02*
Y24409D01*
X631221Y21260D02*
Y24409D01*
Y21260D02*
X637126D01*
X631221Y24409D02*
X637126D01*
X632992Y22835D02*
X635355D01*
X634173Y21654D02*
Y24016D01*
X660748Y21260D02*
Y24409D01*
X654843Y21260D02*
Y24409D01*
Y21260D02*
X660748D01*
X654843Y24409D02*
X660748D01*
X656614Y22835D02*
X658977D01*
X657796Y21654D02*
Y24016D01*
X684370Y21260D02*
Y24409D01*
X678465Y21260D02*
Y24409D01*
Y21260D02*
X684370D01*
X678465Y24409D02*
X684370D01*
X680236Y22835D02*
X682599D01*
X681418Y21654D02*
Y24016D01*
X707992Y21260D02*
Y24409D01*
X702087Y21260D02*
Y24409D01*
Y21260D02*
X707992D01*
X702087Y24409D02*
X707992D01*
X703859Y22835D02*
X706221D01*
X705040Y21654D02*
Y24016D01*
X731614Y21260D02*
Y24409D01*
X725709Y21260D02*
Y24409D01*
Y21260D02*
X731614D01*
X725709Y24409D02*
X731614D01*
X727481Y22835D02*
X729843D01*
X728662Y21654D02*
Y24016D01*
X755236Y21260D02*
Y24409D01*
X749331Y21260D02*
Y24409D01*
Y21260D02*
X755236D01*
X749331Y24409D02*
X755236D01*
X751103Y22835D02*
X753465D01*
X752284Y21654D02*
Y24016D01*
X778859Y21260D02*
Y24409D01*
X772953Y21260D02*
Y24409D01*
Y21260D02*
X778859D01*
X772953Y24409D02*
X778859D01*
X774725Y22835D02*
X777087D01*
X775906Y21654D02*
Y24016D01*
X802481Y21260D02*
Y24409D01*
X796575Y21260D02*
Y24409D01*
Y21260D02*
X802481D01*
X796575Y24409D02*
X802481D01*
X798347Y22835D02*
X800709D01*
X799528Y21654D02*
Y24016D01*
X1007205Y21260D02*
Y24409D01*
X1001299Y21260D02*
Y24409D01*
Y21260D02*
X1007205D01*
X1001299Y24409D02*
X1007205D01*
X1003071Y22835D02*
X1005433D01*
X1004252Y21654D02*
Y24016D01*
X983583Y21260D02*
Y24409D01*
X977678Y21260D02*
Y24409D01*
Y21260D02*
X983583D01*
X977678Y24409D02*
X983583D01*
X979449Y22835D02*
X981811D01*
X980630Y21654D02*
Y24016D01*
X959961Y21260D02*
Y24409D01*
X954055Y21260D02*
Y24409D01*
Y21260D02*
X959961D01*
X954055Y24409D02*
X959961D01*
X955827Y22835D02*
X958189D01*
X957008Y21654D02*
Y24016D01*
X936339Y21260D02*
Y24409D01*
X930433Y21260D02*
Y24409D01*
Y21260D02*
X936339D01*
X930433Y24409D02*
X936339D01*
X932205Y22835D02*
X934567D01*
X933386Y21654D02*
Y24016D01*
X912717Y21260D02*
Y24409D01*
X906811Y21260D02*
Y24409D01*
Y21260D02*
X912717D01*
X906811Y24409D02*
X912717D01*
X908583Y22835D02*
X910945D01*
X909764Y21654D02*
Y24016D01*
X889095Y21260D02*
Y24409D01*
X883189Y21260D02*
Y24409D01*
Y21260D02*
X889095D01*
X883189Y24409D02*
X889095D01*
X884961Y22835D02*
X887323D01*
X886142Y21654D02*
Y24016D01*
X865473Y21260D02*
Y24409D01*
X859567Y21260D02*
Y24409D01*
Y21260D02*
X865473D01*
X859567Y24409D02*
X865473D01*
X861339Y22835D02*
X863701D01*
X862520Y21654D02*
Y24016D01*
X841851Y21260D02*
Y24409D01*
X835945Y21260D02*
Y24409D01*
Y21260D02*
X841851D01*
X835945Y24409D02*
X841851D01*
X837717Y22835D02*
X840079D01*
X838898Y21654D02*
Y24016D01*
X179921Y336929D02*
X182283D01*
X181102Y335748D02*
Y338110D01*
X179527Y333976D02*
Y339882D01*
X182677Y333976D02*
Y339882D01*
X179527Y333976D02*
X182677D01*
X179527Y339882D02*
X182677D01*
X175591D02*
X178740D01*
X175591Y333976D02*
X178740D01*
Y339882D01*
X175591Y333976D02*
Y339882D01*
X177165Y335748D02*
Y338110D01*
X175984Y336929D02*
X178347D01*
X183465Y388701D02*
X186614D01*
X183465Y382795D02*
X186614D01*
Y388701D01*
X183465Y382795D02*
Y388701D01*
X185039Y384567D02*
Y386929D01*
X183858Y385748D02*
X186221D01*
X191732Y385827D02*
X194095D01*
X192913Y384646D02*
Y387008D01*
X189913Y383327D02*
Y388327D01*
X195913D01*
Y383327D02*
Y388327D01*
X189913Y383327D02*
X195913D01*
X199606Y385827D02*
X201969D01*
X200787Y384646D02*
Y387008D01*
X202362Y382874D02*
Y388779D01*
X199213Y382874D02*
Y388779D01*
X202362D01*
X199213Y382874D02*
X202362D01*
X199606Y409449D02*
X201969D01*
X200787Y408268D02*
Y410630D01*
X202362Y406496D02*
Y412402D01*
X199213Y406496D02*
Y412402D01*
X202362D01*
X199213Y406496D02*
X202362D01*
X191732Y409449D02*
X194095D01*
X192913Y408268D02*
Y410630D01*
X189913Y406949D02*
Y411949D01*
X195913D01*
Y406949D02*
Y411949D01*
X189913Y406949D02*
X195913D01*
X183465Y412402D02*
X186614D01*
X183465Y406496D02*
X186614D01*
Y412402D01*
X183465Y406496D02*
Y412402D01*
X185039Y408268D02*
Y410630D01*
X183858Y409449D02*
X186221D01*
X73465Y381890D02*
X75827D01*
X74646Y380709D02*
Y383071D01*
X76221Y378937D02*
Y384842D01*
X73071Y378937D02*
Y384842D01*
X76221D01*
X73071Y378937D02*
X76221D01*
X76929D02*
X80079D01*
X76929Y384842D02*
X80079D01*
X76929Y378937D02*
Y384842D01*
X80079Y378937D02*
Y384842D01*
X78504Y380709D02*
Y383071D01*
X77323Y381890D02*
X79685D01*
X111535Y325590D02*
Y327953D01*
X110354Y326772D02*
X112716D01*
X108583Y328346D02*
X114488D01*
X108583Y325197D02*
X114488D01*
X108583D02*
Y328346D01*
X114488Y325197D02*
Y328346D01*
X111535Y329528D02*
Y331890D01*
X110354Y330709D02*
X112716D01*
X108583Y332283D02*
X114488D01*
X108583Y329134D02*
X114488D01*
X108583D02*
Y332283D01*
X114488Y329134D02*
Y332283D01*
X107673Y336520D02*
Y348520D01*
Y336520D02*
X120573D01*
Y348520D01*
X107673D02*
X120573D01*
X112992Y342520D02*
X115354D01*
X114173Y341339D02*
Y343701D01*
X100787Y341614D02*
X103937D01*
X100787Y347520D02*
X103937D01*
X100787Y341614D02*
Y347520D01*
X103937Y341614D02*
Y347520D01*
X102362Y343386D02*
Y345748D01*
X101181Y344567D02*
X103543D01*
X763937Y323819D02*
X767087D01*
X763937Y329724D02*
X767087D01*
X763937Y323819D02*
Y329724D01*
X767087Y323819D02*
Y329724D01*
X765512Y325590D02*
Y327953D01*
X764331Y326772D02*
X766693D01*
X760787D02*
X763150D01*
X761969Y325590D02*
Y327953D01*
X763543Y323819D02*
Y329724D01*
X760394Y323819D02*
Y329724D01*
X763543D01*
X760394Y323819D02*
X763543D01*
X760779Y316398D02*
X766780D01*
Y321398D01*
X760779D02*
X766780D01*
X760779Y316398D02*
Y321398D01*
X763779Y317717D02*
Y320079D01*
X762598Y318898D02*
X764961D01*
X746850Y324803D02*
X749213D01*
X748032Y323622D02*
Y325984D01*
X746457Y321850D02*
Y327756D01*
X749606Y321850D02*
Y327756D01*
X746457Y321850D02*
X749606D01*
X746457Y327756D02*
X749606D01*
X760779Y375453D02*
X766780D01*
Y380453D01*
X760779D02*
X766780D01*
X760779Y375453D02*
Y380453D01*
X763779Y376772D02*
Y379134D01*
X762598Y377953D02*
X764961D01*
X763937Y382874D02*
X767087D01*
X763937Y388779D02*
X767087D01*
X763937Y382874D02*
Y388779D01*
X767087Y382874D02*
Y388779D01*
X765512Y384646D02*
Y387008D01*
X764331Y385827D02*
X766693D01*
X760787D02*
X763150D01*
X761969Y384646D02*
Y387008D01*
X763543Y382874D02*
Y388779D01*
X760394Y382874D02*
Y388779D01*
X763543D01*
X760394Y382874D02*
X763543D01*
X746850Y383858D02*
X749213D01*
X748032Y382677D02*
Y385039D01*
X746457Y380906D02*
Y386811D01*
X749606Y380906D02*
Y386811D01*
X746457Y380906D02*
X749606D01*
X746457Y386811D02*
X749606D01*
X763937Y441929D02*
X767087D01*
X763937Y447835D02*
X767087D01*
X763937Y441929D02*
Y447835D01*
X767087Y441929D02*
Y447835D01*
X765512Y443701D02*
Y446063D01*
X764331Y444882D02*
X766693D01*
X760787D02*
X763150D01*
X761969Y443701D02*
Y446063D01*
X763543Y441929D02*
Y447835D01*
X760394Y441929D02*
Y447835D01*
X763543D01*
X760394Y441929D02*
X763543D01*
X760779Y434508D02*
X766780D01*
Y439508D01*
X760779D02*
X766780D01*
X760779Y434508D02*
Y439508D01*
X763779Y435827D02*
Y438189D01*
X762598Y437008D02*
X764961D01*
X746850Y442913D02*
X749213D01*
X748032Y441732D02*
Y444095D01*
X746457Y439961D02*
Y445866D01*
X749606Y439961D02*
Y445866D01*
X746457Y439961D02*
X749606D01*
X746457Y445866D02*
X749606D01*
X872835Y324803D02*
X875197D01*
X874016Y323622D02*
Y325984D01*
X872441Y321850D02*
Y327756D01*
X875591Y321850D02*
Y327756D01*
X872441Y321850D02*
X875591D01*
X872441Y327756D02*
X875591D01*
X878890Y322303D02*
X884890D01*
Y327303D01*
X878890D02*
X884890D01*
X878890Y322303D02*
Y327303D01*
X881890Y323622D02*
Y325984D01*
X880709Y324803D02*
X883071D01*
X888189Y321850D02*
X891339D01*
X888189Y327756D02*
X891339D01*
X888189Y321850D02*
Y327756D01*
X891339Y321850D02*
Y327756D01*
X889764Y323622D02*
Y325984D01*
X888583Y324803D02*
X890945D01*
X896457D02*
X898819D01*
X897638Y323622D02*
Y325984D01*
X899213Y321850D02*
Y327756D01*
X896063Y321850D02*
Y327756D01*
X899213D01*
X896063Y321850D02*
X899213D01*
X888189Y380906D02*
X891339D01*
X888189Y386811D02*
X891339D01*
X888189Y380906D02*
Y386811D01*
X891339Y380906D02*
Y386811D01*
X889764Y382677D02*
Y385039D01*
X888583Y383858D02*
X890945D01*
X878890Y381358D02*
X884890D01*
Y386358D01*
X878890D02*
X884890D01*
X878890Y381358D02*
Y386358D01*
X881890Y382677D02*
Y385039D01*
X880709Y383858D02*
X883071D01*
X872835D02*
X875197D01*
X874016Y382677D02*
Y385039D01*
X872441Y380906D02*
Y386811D01*
X875591Y380906D02*
Y386811D01*
X872441Y380906D02*
X875591D01*
X872441Y386811D02*
X875591D01*
X888189Y439961D02*
X891339D01*
X888189Y445866D02*
X891339D01*
X888189Y439961D02*
Y445866D01*
X891339Y439961D02*
Y445866D01*
X889764Y441732D02*
Y444095D01*
X888583Y442913D02*
X890945D01*
X878890Y440413D02*
X884890D01*
Y445413D01*
X878890D02*
X884890D01*
X878890Y440413D02*
Y445413D01*
X881890Y441732D02*
Y444095D01*
X880709Y442913D02*
X883071D01*
X872835D02*
X875197D01*
X874016Y441732D02*
Y444095D01*
X872441Y439961D02*
Y445866D01*
X875591Y439961D02*
Y445866D01*
X872441Y439961D02*
X875591D01*
X872441Y445866D02*
X875591D01*
X903858Y364961D02*
Y367323D01*
X902677Y366142D02*
X905039D01*
X900906Y364567D02*
X906811D01*
X900906Y367717D02*
X906811D01*
Y364567D02*
Y367717D01*
X900906Y364567D02*
Y367717D01*
X903858Y424016D02*
Y426378D01*
X902677Y425197D02*
X905039D01*
X900906Y423622D02*
X906811D01*
X900906Y426772D02*
X906811D01*
Y423622D02*
Y426772D01*
X900906Y423622D02*
Y426772D01*
X992126Y258661D02*
Y261024D01*
X990945Y259842D02*
X993307D01*
X989173Y261417D02*
X995079D01*
X989173Y258268D02*
X995079D01*
X989173D02*
Y261417D01*
X995079Y258268D02*
Y261417D01*
X992126Y262598D02*
Y264961D01*
X990945Y263779D02*
X993307D01*
X989173Y262205D02*
X995079D01*
X989173Y265354D02*
X995079D01*
Y262205D02*
Y265354D01*
X989173Y262205D02*
Y265354D01*
X992126Y266535D02*
Y268898D01*
X990945Y267717D02*
X993307D01*
X989173Y269291D02*
X995079D01*
X989173Y266142D02*
X995079D01*
X989173D02*
Y269291D01*
X995079Y266142D02*
Y269291D01*
X992126Y270472D02*
Y272835D01*
X990945Y271654D02*
X993307D01*
X989173Y273228D02*
X995079D01*
X989173Y270079D02*
X995079D01*
X989173D02*
Y273228D01*
X995079Y270079D02*
Y273228D01*
X992126Y317717D02*
Y320079D01*
X990945Y318898D02*
X993307D01*
X989173Y320472D02*
X995079D01*
X989173Y317323D02*
X995079D01*
X989173D02*
Y320472D01*
X995079Y317323D02*
Y320472D01*
X992126Y321654D02*
Y324016D01*
X990945Y322835D02*
X993307D01*
X989173Y321260D02*
X995079D01*
X989173Y324410D02*
X995079D01*
Y321260D02*
Y324410D01*
X989173Y321260D02*
Y324410D01*
X992126Y325590D02*
Y327953D01*
X990945Y326772D02*
X993307D01*
X989173Y328346D02*
X995079D01*
X989173Y325197D02*
X995079D01*
X989173D02*
Y328346D01*
X995079Y325197D02*
Y328346D01*
X992126Y329528D02*
Y331890D01*
X990945Y330709D02*
X993307D01*
X989173Y332283D02*
X995079D01*
X989173Y329134D02*
X995079D01*
X989173D02*
Y332283D01*
X995079Y329134D02*
Y332283D01*
X992126Y376772D02*
Y379134D01*
X990945Y377953D02*
X993307D01*
X989173Y379528D02*
X995079D01*
X989173Y376378D02*
X995079D01*
X989173D02*
Y379528D01*
X995079Y376378D02*
Y379528D01*
X992126Y380709D02*
Y383071D01*
X990945Y381890D02*
X993307D01*
X989173Y380315D02*
X995079D01*
X989173Y383465D02*
X995079D01*
Y380315D02*
Y383465D01*
X989173Y380315D02*
Y383465D01*
X992126Y384646D02*
Y387008D01*
X990945Y385827D02*
X993307D01*
X989173Y387402D02*
X995079D01*
X989173Y384252D02*
X995079D01*
X989173D02*
Y387402D01*
X995079Y384252D02*
Y387402D01*
X992126Y388583D02*
Y390945D01*
X990945Y389764D02*
X993307D01*
X989173Y391339D02*
X995079D01*
X989173Y388189D02*
X995079D01*
X989173D02*
Y391339D01*
X995079Y388189D02*
Y391339D01*
X972500Y368898D02*
Y371260D01*
X971319Y370079D02*
X973681D01*
X969547Y368504D02*
X975453D01*
X969547Y371654D02*
X975453D01*
Y368504D02*
Y371654D01*
X969547Y368504D02*
Y371654D01*
X972500Y309842D02*
Y312205D01*
X971319Y311024D02*
X973681D01*
X969547Y309449D02*
X975453D01*
X969547Y312598D02*
X975453D01*
Y309449D02*
Y312598D01*
X969547Y309449D02*
Y312598D01*
X972500Y250787D02*
Y253150D01*
X971319Y251969D02*
X973681D01*
X969547Y250394D02*
X975453D01*
X969547Y253543D02*
X975453D01*
Y250394D02*
Y253543D01*
X969547Y250394D02*
Y253543D01*
X972500Y278346D02*
Y280709D01*
X971319Y279528D02*
X973681D01*
X969547Y277953D02*
X975453D01*
X969547Y281102D02*
X975453D01*
Y277953D02*
Y281102D01*
X969547Y277953D02*
Y281102D01*
X972500Y337402D02*
Y339764D01*
X971319Y338583D02*
X973681D01*
X969547Y337008D02*
X975453D01*
X969547Y340158D02*
X975453D01*
Y337008D02*
Y340158D01*
X969547Y337008D02*
Y340158D01*
X972500Y396457D02*
Y398819D01*
X971319Y397638D02*
X973681D01*
X969547Y396063D02*
X975453D01*
X969547Y399213D02*
X975453D01*
Y396063D02*
Y399213D01*
X969547Y396063D02*
Y399213D01*
X958425Y266220D02*
X961575D01*
X958425Y272126D02*
X961575D01*
X958425Y266220D02*
Y272126D01*
X961575Y266220D02*
Y272126D01*
X960000Y267992D02*
Y270354D01*
X958819Y269173D02*
X961181D01*
X958425Y325276D02*
X961575D01*
X958425Y331181D02*
X961575D01*
X958425Y325276D02*
Y331181D01*
X961575Y325276D02*
Y331181D01*
X960000Y327047D02*
Y329410D01*
X958819Y328228D02*
X961181D01*
X958425Y384331D02*
X961575D01*
X958425Y390236D02*
X961575D01*
X958425Y384331D02*
Y390236D01*
X961575Y384331D02*
Y390236D01*
X960000Y386102D02*
Y388465D01*
X958819Y387283D02*
X961181D01*
X968650Y396063D02*
Y399213D01*
X962744Y396063D02*
Y399213D01*
Y396063D02*
X968650D01*
X962744Y399213D02*
X968650D01*
X964516Y397638D02*
X966878D01*
X965697Y396457D02*
Y398819D01*
X968650Y337008D02*
Y340158D01*
X962744Y337008D02*
Y340158D01*
Y337008D02*
X968650D01*
X962744Y340158D02*
X968650D01*
X964516Y338583D02*
X966878D01*
X965697Y337402D02*
Y339764D01*
X968650Y277953D02*
Y281102D01*
X962744Y277953D02*
Y281102D01*
Y277953D02*
X968650D01*
X962744Y281102D02*
X968650D01*
X964516Y279528D02*
X966878D01*
X965697Y278346D02*
Y280709D01*
X954819Y269094D02*
X957181D01*
X956000Y267913D02*
Y270276D01*
X957575Y266142D02*
Y272047D01*
X954425Y266142D02*
Y272047D01*
X957575D01*
X954425Y266142D02*
X957575D01*
X954819Y328150D02*
X957181D01*
X956000Y326969D02*
Y329331D01*
X957575Y325197D02*
Y331102D01*
X954425Y325197D02*
Y331102D01*
X957575D01*
X954425Y325197D02*
X957575D01*
X954819Y387205D02*
X957181D01*
X956000Y386024D02*
Y388386D01*
X957575Y384252D02*
Y390158D01*
X954425Y384252D02*
Y390158D01*
X957575D01*
X954425Y384252D02*
X957575D01*
X999437Y249848D02*
Y281648D01*
X1017137D01*
Y249848D02*
Y281648D01*
X999437Y249848D02*
X1017137D01*
X999437Y308903D02*
Y340703D01*
X1017137D01*
Y308903D02*
Y340703D01*
X999437Y308903D02*
X1017137D01*
X999437Y367958D02*
Y399758D01*
X1017137D01*
Y367958D02*
Y399758D01*
X999437Y367958D02*
X1017137D01*
X954819Y446260D02*
X957181D01*
X956000Y445079D02*
Y447441D01*
X957575Y443307D02*
Y449213D01*
X954425Y443307D02*
Y449213D01*
X957575D01*
X954425Y443307D02*
X957575D01*
X958425Y443386D02*
X961575D01*
X958425Y449291D02*
X961575D01*
X958425Y443386D02*
Y449291D01*
X961575Y443386D02*
Y449291D01*
X960000Y445157D02*
Y447520D01*
X958819Y446339D02*
X961181D01*
X972500Y427953D02*
Y430315D01*
X971319Y429134D02*
X973681D01*
X969547Y427559D02*
X975453D01*
X969547Y430709D02*
X975453D01*
Y427559D02*
Y430709D01*
X969547Y427559D02*
Y430709D01*
X972500Y455512D02*
Y457874D01*
X971319Y456693D02*
X973681D01*
X969547Y455118D02*
X975453D01*
X969547Y458268D02*
X975453D01*
Y455118D02*
Y458268D01*
X969547Y455118D02*
Y458268D01*
X968650Y455118D02*
Y458268D01*
X962744Y455118D02*
Y458268D01*
Y455118D02*
X968650D01*
X962744Y458268D02*
X968650D01*
X964516Y456693D02*
X966878D01*
X965697Y455512D02*
Y457874D01*
X999437Y427013D02*
Y458813D01*
X1017137D01*
Y427013D02*
Y458813D01*
X999437Y427013D02*
X1017137D01*
X992126Y435827D02*
Y438189D01*
X990945Y437008D02*
X993307D01*
X989173Y438583D02*
X995079D01*
X989173Y435433D02*
X995079D01*
X989173D02*
Y438583D01*
X995079Y435433D02*
Y438583D01*
X992126Y439764D02*
Y442126D01*
X990945Y440945D02*
X993307D01*
X989173Y439370D02*
X995079D01*
X989173Y442520D02*
X995079D01*
Y439370D02*
Y442520D01*
X989173Y439370D02*
Y442520D01*
X992126Y443701D02*
Y446063D01*
X990945Y444882D02*
X993307D01*
X989173Y446457D02*
X995079D01*
X989173Y443307D02*
X995079D01*
X989173D02*
Y446457D01*
X995079Y443307D02*
Y446457D01*
X992126Y447638D02*
Y450000D01*
X990945Y448819D02*
X993307D01*
X989173Y450394D02*
X995079D01*
X989173Y447244D02*
X995079D01*
X989173D02*
Y450394D01*
X995079Y447244D02*
Y450394D01*
X703228Y514685D02*
Y524685D01*
X643228Y514685D02*
Y524685D01*
Y514685D02*
X703228D01*
X643228Y524685D02*
X703228D01*
X672047Y519685D02*
X674409D01*
X673228Y518504D02*
Y520866D01*
X616614Y514685D02*
Y524685D01*
X556614Y514685D02*
Y524685D01*
Y514685D02*
X616614D01*
X556614Y524685D02*
X616614D01*
X585433Y519685D02*
X587795D01*
X586614Y518504D02*
Y520866D01*
X528189Y514685D02*
Y524685D01*
X448189Y514685D02*
Y524685D01*
Y514685D02*
X528189D01*
X448189Y524685D02*
X528189D01*
X487008Y519685D02*
X489370D01*
X488189Y518504D02*
Y520866D01*
X390986Y519606D02*
X393348D01*
X392167Y518425D02*
Y520787D01*
X390592Y516653D02*
Y522559D01*
X393742Y516653D02*
Y522559D01*
X390592Y516653D02*
X393742D01*
X390592Y522559D02*
X393742D01*
X385671Y516732D02*
X388821D01*
X385671Y522638D02*
X388821D01*
X385671Y516732D02*
Y522638D01*
X388821Y516732D02*
Y522638D01*
X387246Y518504D02*
Y520866D01*
X386065Y519685D02*
X388427D01*
X380750Y516732D02*
X383899D01*
X380750Y522638D02*
X383899D01*
X380750Y516732D02*
Y522638D01*
X383899Y516732D02*
Y522638D01*
X382324Y518504D02*
Y520866D01*
X381143Y519685D02*
X383506D01*
X376222D02*
X378584D01*
X377403Y518504D02*
Y520866D01*
X375828Y516732D02*
Y522638D01*
X378978Y516732D02*
Y522638D01*
X375828Y516732D02*
X378978D01*
X375828Y522638D02*
X378978D01*
X304372Y519606D02*
X306734D01*
X305553Y518425D02*
Y520787D01*
X303978Y516653D02*
Y522559D01*
X307128Y516653D02*
Y522559D01*
X303978Y516653D02*
X307128D01*
X303978Y522559D02*
X307128D01*
X299057Y516732D02*
X302206D01*
X299057Y522638D02*
X302206D01*
X299057Y516732D02*
Y522638D01*
X302206Y516732D02*
Y522638D01*
X300631Y518504D02*
Y520866D01*
X299450Y519685D02*
X301813D01*
X294135Y516732D02*
X297285D01*
X294135Y522638D02*
X297285D01*
X294135Y516732D02*
Y522638D01*
X297285Y516732D02*
Y522638D01*
X295710Y518504D02*
Y520866D01*
X294529Y519685D02*
X296891D01*
X289608D02*
X291970D01*
X290789Y518504D02*
Y520866D01*
X289214Y516732D02*
Y522638D01*
X292364Y516732D02*
Y522638D01*
X289214Y516732D02*
X292364D01*
X289214Y522638D02*
X292364D01*
X416364Y529014D02*
Y553014D01*
X362964D02*
X416364D01*
X362964Y529014D02*
Y553014D01*
Y529014D02*
X416364D01*
X389764Y542126D02*
Y544488D01*
X388583Y543307D02*
X390945D01*
X329750Y529014D02*
Y553014D01*
X276350D02*
X329750D01*
X276350Y529014D02*
Y553014D01*
Y529014D02*
X329750D01*
X303150Y542126D02*
Y544488D01*
X301969Y543307D02*
X304331D01*
X1010315Y514685D02*
Y524685D01*
X950315Y514685D02*
Y524685D01*
Y514685D02*
X1010315D01*
X950315Y524685D02*
X1010315D01*
X979134Y519685D02*
X981496D01*
X980315Y518504D02*
Y520866D01*
X908490Y529014D02*
Y553014D01*
X855090D02*
X908490D01*
X855090Y529014D02*
Y553014D01*
Y529014D02*
X908490D01*
X881890Y542126D02*
Y544488D01*
X880709Y543307D02*
X883071D01*
X841890Y514685D02*
Y524685D01*
X921890Y514685D02*
Y524685D01*
X841890D02*
X921890D01*
X841890Y514685D02*
X921890D01*
X880709Y519685D02*
X883071D01*
X881890Y518504D02*
Y520866D01*
X798253Y529014D02*
Y553014D01*
X744853D02*
X798253D01*
X744853Y529014D02*
Y553014D01*
Y529014D02*
X798253D01*
X771654Y542126D02*
Y544488D01*
X770472Y543307D02*
X772835D01*
X776653Y509122D02*
Y511484D01*
X775472Y510303D02*
X777835D01*
X773701Y511878D02*
X779606D01*
X773701Y508728D02*
X779606D01*
X773701D02*
Y511878D01*
X779606Y508728D02*
Y511878D01*
X786654Y509122D02*
Y511484D01*
X785472Y510303D02*
X787835D01*
X783701Y511878D02*
X789606D01*
X783701Y508728D02*
X789606D01*
X783701D02*
Y511878D01*
X789606Y508728D02*
Y511878D01*
X796654Y509122D02*
Y511484D01*
X795472Y510303D02*
X797835D01*
X793701Y511878D02*
X799606D01*
X793701Y508728D02*
X799606D01*
X793701D02*
Y511878D01*
X799606Y508728D02*
Y511878D01*
X731653Y514685D02*
Y524685D01*
X811654Y514685D02*
Y524685D01*
X731653D02*
X811654D01*
X731653Y514685D02*
X811654D01*
X770472Y519685D02*
X772835D01*
X771654Y518504D02*
Y520866D01*
X183228Y286453D02*
X186378D01*
X183228Y280547D02*
X186378D01*
Y286453D01*
X183228Y280547D02*
Y286453D01*
X184803Y282319D02*
Y284681D01*
X183622Y283500D02*
X185984D01*
X179764D02*
X182126D01*
X180945Y282319D02*
Y284681D01*
X179370Y280547D02*
Y286453D01*
X182520Y280547D02*
Y286453D01*
X179370Y280547D02*
X182520D01*
X179370Y286453D02*
X182520D01*
X274961Y160354D02*
Y170354D01*
X354961Y160354D02*
Y170354D01*
X274961D02*
X354961D01*
X274961Y160354D02*
X354961D01*
X313779Y165354D02*
X316142D01*
X314961Y164173D02*
Y166535D01*
X479685Y160354D02*
Y170354D01*
X559685Y160354D02*
Y170354D01*
X479685D02*
X559685D01*
X479685Y160354D02*
X559685D01*
X518504Y165354D02*
X520866D01*
X519685Y164173D02*
Y166535D01*
X684410Y160354D02*
Y170354D01*
X764410Y160354D02*
Y170354D01*
X684410D02*
X764410D01*
X684410Y160354D02*
X764410D01*
X723228Y165354D02*
X725591D01*
X724409Y164173D02*
Y166535D01*
X889134Y160354D02*
Y170354D01*
X969134Y160354D02*
Y170354D01*
X889134D02*
X969134D01*
X889134Y160354D02*
X969134D01*
X927953Y165354D02*
X930315D01*
X929134Y164173D02*
Y166535D01*
X70236Y160354D02*
Y170354D01*
X150236Y160354D02*
Y170354D01*
X70236D02*
X150236D01*
X70236Y160354D02*
X150236D01*
X109055Y165354D02*
X111417D01*
X110236Y164173D02*
Y166535D01*
X179803Y508661D02*
Y511024D01*
X178622Y509842D02*
X180984D01*
X176850Y508268D02*
X182756D01*
X176850Y511417D02*
X182756D01*
Y508268D02*
Y511417D01*
X176850Y508268D02*
Y511417D01*
X169803Y508661D02*
Y511024D01*
X168622Y509842D02*
X170984D01*
X166850Y508268D02*
X172756D01*
X166850Y511417D02*
X172756D01*
Y508268D02*
Y511417D01*
X166850Y508268D02*
Y511417D01*
X166772Y536618D02*
Y539768D01*
X172677Y536618D02*
Y539768D01*
X166772D02*
X172677D01*
X166772Y536618D02*
X172677D01*
X168543Y538193D02*
X170905D01*
X169724Y537012D02*
Y539374D01*
X166724Y535693D02*
X172724D01*
X166724Y530693D02*
Y535693D01*
Y530693D02*
X172724D01*
Y535693D01*
X169724Y532012D02*
Y534374D01*
X168543Y533193D02*
X170905D01*
X169724Y527012D02*
Y529374D01*
X168543Y528193D02*
X170905D01*
X166772Y529768D02*
X172677D01*
X166772Y526618D02*
X172677D01*
X166772D02*
Y529768D01*
X172677Y526618D02*
Y529768D01*
X164724Y514685D02*
Y524685D01*
X244725Y514685D02*
Y524685D01*
X164724D02*
X244725D01*
X164724Y514685D02*
X244725D01*
X203543Y519685D02*
X205906D01*
X204724Y518504D02*
Y520866D01*
X110236Y509494D02*
X112598D01*
X111417Y508313D02*
Y510675D01*
X109843Y506541D02*
Y512447D01*
X112992Y506541D02*
Y512447D01*
X109843Y506541D02*
X112992D01*
X109843Y512447D02*
X112992D01*
X101181Y509494D02*
X103543D01*
X102362Y508313D02*
Y510675D01*
X103937Y506541D02*
Y512447D01*
X100787Y506541D02*
Y512447D01*
X103937D01*
X100787Y506541D02*
X103937D01*
X96653Y509494D02*
X99016D01*
X97835Y508313D02*
Y510675D01*
X96260Y506541D02*
Y512447D01*
X99409Y506541D02*
Y512447D01*
X96260Y506541D02*
X99409D01*
X96260Y512447D02*
X99409D01*
X92126Y509494D02*
X94488D01*
X93307Y508313D02*
Y510675D01*
X91732Y506541D02*
Y512447D01*
X94882Y506541D02*
Y512447D01*
X91732Y506541D02*
X94882D01*
X91732Y512447D02*
X94882D01*
X553929Y341406D02*
X556291D01*
X555110Y340224D02*
Y342587D01*
X553535Y338453D02*
Y344358D01*
X556685Y338453D02*
Y344358D01*
X553535Y338453D02*
X556685D01*
X553535Y344358D02*
X556685D01*
X476466Y412047D02*
X550066D01*
X476466Y310847D02*
Y412047D01*
Y310847D02*
X550066D01*
Y412047D01*
X489441Y419358D02*
X491803D01*
X490622Y418177D02*
Y420539D01*
X489047Y416405D02*
Y422311D01*
X492197Y416405D02*
Y422311D01*
X489047Y416405D02*
X492197D01*
X489047Y422311D02*
X492197D01*
X498417Y419358D02*
X500779D01*
X499598Y418177D02*
Y420539D01*
X498024Y416405D02*
Y422311D01*
X501173Y416405D02*
Y422311D01*
X498024Y416405D02*
X501173D01*
X498024Y422311D02*
X501173D01*
X506685Y419358D02*
X509047D01*
X507866Y418177D02*
Y420539D01*
X506291Y416405D02*
Y422311D01*
X509441Y416405D02*
Y422311D01*
X506291Y416405D02*
X509441D01*
X506291Y422311D02*
X509441D01*
X519441Y419358D02*
X521803D01*
X520622Y418177D02*
Y420539D01*
X519047Y416405D02*
Y422311D01*
X522197Y416405D02*
Y422311D01*
X519047Y416405D02*
X522197D01*
X519047Y422311D02*
X522197D01*
X317717Y78874D02*
X320079D01*
X318898Y77693D02*
Y80055D01*
X317323Y75921D02*
Y81827D01*
X320472Y75921D02*
Y81827D01*
X317323Y75921D02*
X320472D01*
X317323Y81827D02*
X320472D01*
X341339Y78874D02*
X343701D01*
X342520Y77693D02*
Y80055D01*
X340945Y75921D02*
Y81827D01*
X344094Y75921D02*
Y81827D01*
X340945Y75921D02*
X344094D01*
X340945Y81827D02*
X344094D01*
X364961Y78874D02*
X367323D01*
X366142Y77693D02*
Y80055D01*
X364567Y75921D02*
Y81827D01*
X367717Y75921D02*
Y81827D01*
X364567Y75921D02*
X367717D01*
X364567Y81827D02*
X367717D01*
X388583Y78874D02*
X390945D01*
X389764Y77693D02*
Y80055D01*
X388189Y75921D02*
Y81827D01*
X391339Y75921D02*
Y81827D01*
X388189Y75921D02*
X391339D01*
X388189Y81827D02*
X391339D01*
X223228Y78874D02*
X225590D01*
X224410Y77693D02*
Y80055D01*
X222835Y75921D02*
Y81827D01*
X225984Y75921D02*
Y81827D01*
X222835Y75921D02*
X225984D01*
X222835Y81827D02*
X225984D01*
X246850Y78874D02*
X249213D01*
X248031Y77693D02*
Y80055D01*
X246457Y75921D02*
Y81827D01*
X249606Y75921D02*
Y81827D01*
X246457Y75921D02*
X249606D01*
X246457Y81827D02*
X249606D01*
X270472Y78874D02*
X272835D01*
X271654Y77693D02*
Y80055D01*
X270079Y75921D02*
Y81827D01*
X273228Y75921D02*
Y81827D01*
X270079Y75921D02*
X273228D01*
X270079Y81827D02*
X273228D01*
X294094Y78874D02*
X296457D01*
X295276Y77693D02*
Y80055D01*
X293701Y75921D02*
Y81827D01*
X296850Y75921D02*
Y81827D01*
X293701Y75921D02*
X296850D01*
X293701Y81827D02*
X296850D01*
X522441Y78874D02*
X524803D01*
X523622Y77693D02*
Y80055D01*
X522047Y75921D02*
Y81827D01*
X525197Y75921D02*
Y81827D01*
X522047Y75921D02*
X525197D01*
X522047Y81827D02*
X525197D01*
X546063Y78874D02*
X548425D01*
X547244Y77693D02*
Y80055D01*
X545669Y75921D02*
Y81827D01*
X548819Y75921D02*
Y81827D01*
X545669Y75921D02*
X548819D01*
X545669Y81827D02*
X548819D01*
X569685Y78874D02*
X572047D01*
X570866Y77693D02*
Y80055D01*
X569291Y75921D02*
Y81827D01*
X572441Y75921D02*
Y81827D01*
X569291Y75921D02*
X572441D01*
X569291Y81827D02*
X572441D01*
X593307Y78874D02*
X595669D01*
X594488Y77693D02*
Y80055D01*
X592913Y75921D02*
Y81827D01*
X596063Y75921D02*
Y81827D01*
X592913Y75921D02*
X596063D01*
X592913Y81827D02*
X596063D01*
X427953Y78874D02*
X430315D01*
X429134Y77693D02*
Y80055D01*
X427559Y75921D02*
Y81827D01*
X430709Y75921D02*
Y81827D01*
X427559Y75921D02*
X430709D01*
X427559Y81827D02*
X430709D01*
X451575Y78874D02*
X453937D01*
X452756Y77693D02*
Y80055D01*
X451181Y75921D02*
Y81827D01*
X454331Y75921D02*
Y81827D01*
X451181Y75921D02*
X454331D01*
X451181Y81827D02*
X454331D01*
X475197Y78874D02*
X477559D01*
X476378Y77693D02*
Y80055D01*
X474803Y75921D02*
Y81827D01*
X477953Y75921D02*
Y81827D01*
X474803Y75921D02*
X477953D01*
X474803Y81827D02*
X477953D01*
X498819Y78874D02*
X501181D01*
X500000Y77693D02*
Y80055D01*
X498425Y75921D02*
Y81827D01*
X501575Y75921D02*
Y81827D01*
X498425Y75921D02*
X501575D01*
X498425Y81827D02*
X501575D01*
X727165Y78874D02*
X729528D01*
X728346Y77693D02*
Y80055D01*
X726772Y75921D02*
Y81827D01*
X729921Y75921D02*
Y81827D01*
X726772Y75921D02*
X729921D01*
X726772Y81827D02*
X729921D01*
X750787Y78874D02*
X753150D01*
X751968Y77693D02*
Y80055D01*
X750394Y75921D02*
Y81827D01*
X753543Y75921D02*
Y81827D01*
X750394Y75921D02*
X753543D01*
X750394Y81827D02*
X753543D01*
X774409Y78874D02*
X776772D01*
X775591Y77693D02*
Y80055D01*
X774016Y75921D02*
Y81827D01*
X777165Y75921D02*
Y81827D01*
X774016Y75921D02*
X777165D01*
X774016Y81827D02*
X777165D01*
X798032Y78874D02*
X800394D01*
X799213Y77693D02*
Y80055D01*
X797638Y75921D02*
Y81827D01*
X800787Y75921D02*
Y81827D01*
X797638Y75921D02*
X800787D01*
X797638Y81827D02*
X800787D01*
X632677Y78874D02*
X635039D01*
X633858Y77693D02*
Y80055D01*
X632283Y75921D02*
Y81827D01*
X635433Y75921D02*
Y81827D01*
X632283Y75921D02*
X635433D01*
X632283Y81827D02*
X635433D01*
X656299Y78874D02*
X658661D01*
X657480Y77693D02*
Y80055D01*
X655905Y75921D02*
Y81827D01*
X659055Y75921D02*
Y81827D01*
X655905Y75921D02*
X659055D01*
X655905Y81827D02*
X659055D01*
X679921Y78874D02*
X682283D01*
X681102Y77693D02*
Y80055D01*
X679528Y75921D02*
Y81827D01*
X682677Y75921D02*
Y81827D01*
X679528Y75921D02*
X682677D01*
X679528Y81827D02*
X682677D01*
X703543Y78874D02*
X705905D01*
X704724Y77693D02*
Y80055D01*
X703150Y75921D02*
Y81827D01*
X706299Y75921D02*
Y81827D01*
X703150Y75921D02*
X706299D01*
X703150Y81827D02*
X706299D01*
X931890Y78874D02*
X934252D01*
X933071Y77693D02*
Y80055D01*
X931496Y75921D02*
Y81827D01*
X934646Y75921D02*
Y81827D01*
X931496Y75921D02*
X934646D01*
X931496Y81827D02*
X934646D01*
X955512Y78874D02*
X957874D01*
X956693Y77693D02*
Y80055D01*
X955118Y75921D02*
Y81827D01*
X958268Y75921D02*
Y81827D01*
X955118Y75921D02*
X958268D01*
X955118Y81827D02*
X958268D01*
X979134Y78874D02*
X981496D01*
X980315Y77693D02*
Y80055D01*
X978740Y75921D02*
Y81827D01*
X981890Y75921D02*
Y81827D01*
X978740Y75921D02*
X981890D01*
X978740Y81827D02*
X981890D01*
X1002756Y78874D02*
X1005118D01*
X1003937Y77693D02*
Y80055D01*
X1002362Y75921D02*
Y81827D01*
X1005512Y75921D02*
Y81827D01*
X1002362Y75921D02*
X1005512D01*
X1002362Y81827D02*
X1005512D01*
X837402Y78874D02*
X839764D01*
X838583Y77693D02*
Y80055D01*
X837008Y75921D02*
Y81827D01*
X840158Y75921D02*
Y81827D01*
X837008Y75921D02*
X840158D01*
X837008Y81827D02*
X840158D01*
X861024Y78874D02*
X863386D01*
X862205Y77693D02*
Y80055D01*
X860630Y75921D02*
Y81827D01*
X863780Y75921D02*
Y81827D01*
X860630Y75921D02*
X863780D01*
X860630Y81827D02*
X863780D01*
X884646Y78874D02*
X887008D01*
X885827Y77693D02*
Y80055D01*
X884252Y75921D02*
Y81827D01*
X887402Y75921D02*
Y81827D01*
X884252Y75921D02*
X887402D01*
X884252Y81827D02*
X887402D01*
X908268Y78874D02*
X910630D01*
X909449Y77693D02*
Y80055D01*
X907874Y75921D02*
Y81827D01*
X911024Y75921D02*
Y81827D01*
X907874Y75921D02*
X911024D01*
X907874Y81827D02*
X911024D01*
X327677Y82299D02*
Y85449D01*
X321772Y82299D02*
Y85449D01*
Y82299D02*
X327677D01*
X321772Y85449D02*
X327677D01*
X323543Y83874D02*
X325905D01*
X324724Y82693D02*
Y85055D01*
X351299Y82299D02*
Y85449D01*
X345394Y82299D02*
Y85449D01*
Y82299D02*
X351299D01*
X345394Y85449D02*
X351299D01*
X347165Y83874D02*
X349528D01*
X348346Y82693D02*
Y85055D01*
X374921Y82299D02*
Y85449D01*
X369016Y82299D02*
Y85449D01*
Y82299D02*
X374921D01*
X369016Y85449D02*
X374921D01*
X370787Y83874D02*
X373150D01*
X371969Y82693D02*
Y85055D01*
X398543Y82299D02*
Y85449D01*
X392638Y82299D02*
Y85449D01*
Y82299D02*
X398543D01*
X392638Y85449D02*
X398543D01*
X394409Y83874D02*
X396772D01*
X395590Y82693D02*
Y85055D01*
X233189Y82299D02*
Y85449D01*
X227284Y82299D02*
Y85449D01*
Y82299D02*
X233189D01*
X227284Y85449D02*
X233189D01*
X229055Y83874D02*
X231417D01*
X230236Y82693D02*
Y85055D01*
X256811Y82299D02*
Y85449D01*
X250905Y82299D02*
Y85449D01*
Y82299D02*
X256811D01*
X250905Y85449D02*
X256811D01*
X252677Y83874D02*
X255039D01*
X253858Y82693D02*
Y85055D01*
X280433Y82299D02*
Y85449D01*
X274528Y82299D02*
Y85449D01*
Y82299D02*
X280433D01*
X274528Y85449D02*
X280433D01*
X276299Y83874D02*
X278661D01*
X277480Y82693D02*
Y85055D01*
X304055Y82299D02*
Y85449D01*
X298150Y82299D02*
Y85449D01*
Y82299D02*
X304055D01*
X298150Y85449D02*
X304055D01*
X299921Y83874D02*
X302284D01*
X301102Y82693D02*
Y85055D01*
X532402Y82299D02*
Y85449D01*
X526496Y82299D02*
Y85449D01*
Y82299D02*
X532402D01*
X526496Y85449D02*
X532402D01*
X528268Y83874D02*
X530630D01*
X529449Y82693D02*
Y85055D01*
X556024Y82299D02*
Y85449D01*
X550118Y82299D02*
Y85449D01*
Y82299D02*
X556024D01*
X550118Y85449D02*
X556024D01*
X551890Y83874D02*
X554252D01*
X553071Y82693D02*
Y85055D01*
X579646Y82299D02*
Y85449D01*
X573740Y82299D02*
Y85449D01*
Y82299D02*
X579646D01*
X573740Y85449D02*
X579646D01*
X575512Y83874D02*
X577874D01*
X576693Y82693D02*
Y85055D01*
X603268Y82299D02*
Y85449D01*
X597362Y82299D02*
Y85449D01*
Y82299D02*
X603268D01*
X597362Y85449D02*
X603268D01*
X599134Y83874D02*
X601496D01*
X600315Y82693D02*
Y85055D01*
X437913Y82299D02*
Y85449D01*
X432008Y82299D02*
Y85449D01*
Y82299D02*
X437913D01*
X432008Y85449D02*
X437913D01*
X433779Y83874D02*
X436142D01*
X434961Y82693D02*
Y85055D01*
X461535Y82299D02*
Y85449D01*
X455630Y82299D02*
Y85449D01*
Y82299D02*
X461535D01*
X455630Y85449D02*
X461535D01*
X457402Y83874D02*
X459764D01*
X458583Y82693D02*
Y85055D01*
X485157Y82299D02*
Y85449D01*
X479252Y82299D02*
Y85449D01*
Y82299D02*
X485157D01*
X479252Y85449D02*
X485157D01*
X481024Y83874D02*
X483386D01*
X482205Y82693D02*
Y85055D01*
X508779Y82299D02*
Y85449D01*
X502874Y82299D02*
Y85449D01*
Y82299D02*
X508779D01*
X502874Y85449D02*
X508779D01*
X504646Y83874D02*
X507008D01*
X505827Y82693D02*
Y85055D01*
X737126Y82299D02*
Y85449D01*
X731220Y82299D02*
Y85449D01*
Y82299D02*
X737126D01*
X731220Y85449D02*
X737126D01*
X732992Y83874D02*
X735354D01*
X734173Y82693D02*
Y85055D01*
X760748Y82299D02*
Y85449D01*
X754843Y82299D02*
Y85449D01*
Y82299D02*
X760748D01*
X754843Y85449D02*
X760748D01*
X756614Y83874D02*
X758976D01*
X757795Y82693D02*
Y85055D01*
X784370Y82299D02*
Y85449D01*
X778465Y82299D02*
Y85449D01*
Y82299D02*
X784370D01*
X778465Y85449D02*
X784370D01*
X780236Y83874D02*
X782598D01*
X781417Y82693D02*
Y85055D01*
X807992Y82299D02*
Y85449D01*
X802087Y82299D02*
Y85449D01*
Y82299D02*
X807992D01*
X802087Y85449D02*
X807992D01*
X803858Y83874D02*
X806221D01*
X805039Y82693D02*
Y85055D01*
X642638Y82299D02*
Y85449D01*
X636732Y82299D02*
Y85449D01*
Y82299D02*
X642638D01*
X636732Y85449D02*
X642638D01*
X638504Y83874D02*
X640866D01*
X639685Y82693D02*
Y85055D01*
X666260Y82299D02*
Y85449D01*
X660354Y82299D02*
Y85449D01*
Y82299D02*
X666260D01*
X660354Y85449D02*
X666260D01*
X662126Y83874D02*
X664488D01*
X663307Y82693D02*
Y85055D01*
X689882Y82299D02*
Y85449D01*
X683976Y82299D02*
Y85449D01*
Y82299D02*
X689882D01*
X683976Y85449D02*
X689882D01*
X685748Y83874D02*
X688110D01*
X686929Y82693D02*
Y85055D01*
X713504Y82299D02*
Y85449D01*
X707598Y82299D02*
Y85449D01*
Y82299D02*
X713504D01*
X707598Y85449D02*
X713504D01*
X709370Y83874D02*
X711732D01*
X710551Y82693D02*
Y85055D01*
X941850Y82299D02*
Y85449D01*
X935945Y82299D02*
Y85449D01*
Y82299D02*
X941850D01*
X935945Y85449D02*
X941850D01*
X937716Y83874D02*
X940079D01*
X938898Y82693D02*
Y85055D01*
X965473Y82299D02*
Y85449D01*
X959567Y82299D02*
Y85449D01*
Y82299D02*
X965473D01*
X959567Y85449D02*
X965473D01*
X961339Y83874D02*
X963701D01*
X962520Y82693D02*
Y85055D01*
X989095Y82299D02*
Y85449D01*
X983189Y82299D02*
Y85449D01*
Y82299D02*
X989095D01*
X983189Y85449D02*
X989095D01*
X984961Y83874D02*
X987323D01*
X986142Y82693D02*
Y85055D01*
X1012716Y82299D02*
Y85449D01*
X1006811Y82299D02*
Y85449D01*
Y82299D02*
X1012716D01*
X1006811Y85449D02*
X1012716D01*
X1008583Y83874D02*
X1010945D01*
X1009764Y82693D02*
Y85055D01*
X847362Y82299D02*
Y85449D01*
X841457Y82299D02*
Y85449D01*
Y82299D02*
X847362D01*
X841457Y85449D02*
X847362D01*
X843228Y83874D02*
X845591D01*
X844409Y82693D02*
Y85055D01*
X870984Y82299D02*
Y85449D01*
X865079Y82299D02*
Y85449D01*
Y82299D02*
X870984D01*
X865079Y85449D02*
X870984D01*
X866850Y83874D02*
X869213D01*
X868032Y82693D02*
Y85055D01*
X894606Y82299D02*
Y85449D01*
X888701Y82299D02*
Y85449D01*
Y82299D02*
X894606D01*
X888701Y85449D02*
X894606D01*
X890472Y83874D02*
X892835D01*
X891654Y82693D02*
Y85055D01*
X918228Y82299D02*
Y85449D01*
X912323Y82299D02*
Y85449D01*
Y82299D02*
X918228D01*
X912323Y85449D02*
X918228D01*
X914095Y83874D02*
X916457D01*
X915276Y82693D02*
Y85055D01*
X321803Y76374D02*
X327803D01*
Y81374D01*
X321803D02*
X327803D01*
X321803Y76374D02*
Y81374D01*
X324803Y77693D02*
Y80055D01*
X323622Y78874D02*
X325984D01*
X345425Y76374D02*
X351425D01*
Y81374D01*
X345425D02*
X351425D01*
X345425Y76374D02*
Y81374D01*
X348425Y77693D02*
Y80055D01*
X347244Y78874D02*
X349606D01*
X369047Y76374D02*
X375047D01*
Y81374D01*
X369047D02*
X375047D01*
X369047Y76374D02*
Y81374D01*
X372047Y77693D02*
Y80055D01*
X370866Y78874D02*
X373228D01*
X392669Y76374D02*
X398669D01*
Y81374D01*
X392669D02*
X398669D01*
X392669Y76374D02*
Y81374D01*
X395669Y77693D02*
Y80055D01*
X394488Y78874D02*
X396850D01*
X227315Y76374D02*
X233315D01*
Y81374D01*
X227315D02*
X233315D01*
X227315Y76374D02*
Y81374D01*
X230315Y77693D02*
Y80055D01*
X229134Y78874D02*
X231496D01*
X250937Y76374D02*
X256937D01*
Y81374D01*
X250937D02*
X256937D01*
X250937Y76374D02*
Y81374D01*
X253937Y77693D02*
Y80055D01*
X252756Y78874D02*
X255118D01*
X274559Y76374D02*
X280559D01*
Y81374D01*
X274559D02*
X280559D01*
X274559Y76374D02*
Y81374D01*
X277559Y77693D02*
Y80055D01*
X276378Y78874D02*
X278740D01*
X298181Y76374D02*
X304181D01*
Y81374D01*
X298181D02*
X304181D01*
X298181Y76374D02*
Y81374D01*
X301181Y77693D02*
Y80055D01*
X300000Y78874D02*
X302362D01*
X526528Y76374D02*
X532528D01*
Y81374D01*
X526528D02*
X532528D01*
X526528Y76374D02*
Y81374D01*
X529528Y77693D02*
Y80055D01*
X528346Y78874D02*
X530709D01*
X550150Y76374D02*
X556150D01*
Y81374D01*
X550150D02*
X556150D01*
X550150Y76374D02*
Y81374D01*
X553150Y77693D02*
Y80055D01*
X551968Y78874D02*
X554331D01*
X573772Y76374D02*
X579772D01*
Y81374D01*
X573772D02*
X579772D01*
X573772Y76374D02*
Y81374D01*
X576772Y77693D02*
Y80055D01*
X575591Y78874D02*
X577953D01*
X597394Y76374D02*
X603394D01*
Y81374D01*
X597394D02*
X603394D01*
X597394Y76374D02*
Y81374D01*
X600394Y77693D02*
Y80055D01*
X599213Y78874D02*
X601575D01*
X432039Y76374D02*
X438039D01*
Y81374D01*
X432039D02*
X438039D01*
X432039Y76374D02*
Y81374D01*
X435039Y77693D02*
Y80055D01*
X433858Y78874D02*
X436221D01*
X455661Y76374D02*
X461661D01*
Y81374D01*
X455661D02*
X461661D01*
X455661Y76374D02*
Y81374D01*
X458661Y77693D02*
Y80055D01*
X457480Y78874D02*
X459842D01*
X479284Y76374D02*
X485284D01*
Y81374D01*
X479284D02*
X485284D01*
X479284Y76374D02*
Y81374D01*
X482283Y77693D02*
Y80055D01*
X481102Y78874D02*
X483465D01*
X502906Y76374D02*
X508906D01*
Y81374D01*
X502906D02*
X508906D01*
X502906Y76374D02*
Y81374D01*
X505905Y77693D02*
Y80055D01*
X504724Y78874D02*
X507087D01*
X731252Y76374D02*
X737252D01*
Y81374D01*
X731252D02*
X737252D01*
X731252Y76374D02*
Y81374D01*
X734252Y77693D02*
Y80055D01*
X733071Y78874D02*
X735433D01*
X754874Y76374D02*
X760874D01*
Y81374D01*
X754874D02*
X760874D01*
X754874Y76374D02*
Y81374D01*
X757874Y77693D02*
Y80055D01*
X756693Y78874D02*
X759055D01*
X778496Y76374D02*
X784496D01*
Y81374D01*
X778496D02*
X784496D01*
X778496Y76374D02*
Y81374D01*
X781496Y77693D02*
Y80055D01*
X780315Y78874D02*
X782677D01*
X802118Y76374D02*
X808118D01*
Y81374D01*
X802118D02*
X808118D01*
X802118Y76374D02*
Y81374D01*
X805118Y77693D02*
Y80055D01*
X803937Y78874D02*
X806299D01*
X636764Y76374D02*
X642764D01*
Y81374D01*
X636764D02*
X642764D01*
X636764Y76374D02*
Y81374D01*
X639764Y77693D02*
Y80055D01*
X638583Y78874D02*
X640945D01*
X660386Y76374D02*
X666386D01*
Y81374D01*
X660386D02*
X666386D01*
X660386Y76374D02*
Y81374D01*
X663386Y77693D02*
Y80055D01*
X662205Y78874D02*
X664567D01*
X684008Y76374D02*
X690008D01*
Y81374D01*
X684008D02*
X690008D01*
X684008Y76374D02*
Y81374D01*
X687008Y77693D02*
Y80055D01*
X685827Y78874D02*
X688189D01*
X707630Y76374D02*
X713630D01*
Y81374D01*
X707630D02*
X713630D01*
X707630Y76374D02*
Y81374D01*
X710630Y77693D02*
Y80055D01*
X709449Y78874D02*
X711811D01*
X935976Y76374D02*
X941976D01*
Y81374D01*
X935976D02*
X941976D01*
X935976Y76374D02*
Y81374D01*
X938976Y77693D02*
Y80055D01*
X937795Y78874D02*
X940158D01*
X959598Y76374D02*
X965598D01*
Y81374D01*
X959598D02*
X965598D01*
X959598Y76374D02*
Y81374D01*
X962598Y77693D02*
Y80055D01*
X961417Y78874D02*
X963780D01*
X983220Y76374D02*
X989221D01*
Y81374D01*
X983220D02*
X989221D01*
X983220Y76374D02*
Y81374D01*
X986220Y77693D02*
Y80055D01*
X985039Y78874D02*
X987402D01*
X1006843Y76374D02*
X1012842D01*
Y81374D01*
X1006843D02*
X1012842D01*
X1006843Y76374D02*
Y81374D01*
X1009842Y77693D02*
Y80055D01*
X1008661Y78874D02*
X1011024D01*
X841488Y76374D02*
X847488D01*
Y81374D01*
X841488D02*
X847488D01*
X841488Y76374D02*
Y81374D01*
X844488Y77693D02*
Y80055D01*
X843307Y78874D02*
X845669D01*
X865110Y76374D02*
X871110D01*
Y81374D01*
X865110D02*
X871110D01*
X865110Y76374D02*
Y81374D01*
X868110Y77693D02*
Y80055D01*
X866929Y78874D02*
X869291D01*
X888732Y76374D02*
X894732D01*
Y81374D01*
X888732D02*
X894732D01*
X888732Y76374D02*
Y81374D01*
X891732Y77693D02*
Y80055D01*
X890551Y78874D02*
X892913D01*
X912354Y76374D02*
X918354D01*
Y81374D01*
X912354D02*
X918354D01*
X912354Y76374D02*
Y81374D01*
X915354Y77693D02*
Y80055D01*
X914173Y78874D02*
X916535D01*
X937795Y68500D02*
X940158D01*
X938976Y67319D02*
Y69681D01*
X940551Y65547D02*
Y71453D01*
X937402Y65547D02*
Y71453D01*
X940551D01*
X937402Y65547D02*
X940551D01*
X961417Y68500D02*
X963780D01*
X962598Y67319D02*
Y69681D01*
X964173Y65547D02*
Y71453D01*
X961024Y65547D02*
Y71453D01*
X964173D01*
X961024Y65547D02*
X964173D01*
X985039Y68500D02*
X987402D01*
X986220Y67319D02*
Y69681D01*
X987795Y65547D02*
Y71453D01*
X984646Y65547D02*
Y71453D01*
X987795D01*
X984646Y65547D02*
X987795D01*
X1008661Y68500D02*
X1011024D01*
X1009842Y67319D02*
Y69681D01*
X1011417Y65547D02*
Y71453D01*
X1008268Y65547D02*
Y71453D01*
X1011417D01*
X1008268Y65547D02*
X1011417D01*
X843307Y68500D02*
X845669D01*
X844488Y67319D02*
Y69681D01*
X846063Y65547D02*
Y71453D01*
X842913Y65547D02*
Y71453D01*
X846063D01*
X842913Y65547D02*
X846063D01*
X866929Y68500D02*
X869291D01*
X868110Y67319D02*
Y69681D01*
X869685Y65547D02*
Y71453D01*
X866535Y65547D02*
Y71453D01*
X869685D01*
X866535Y65547D02*
X869685D01*
X890551Y68500D02*
X892913D01*
X891732Y67319D02*
Y69681D01*
X893307Y65547D02*
Y71453D01*
X890158Y65547D02*
Y71453D01*
X893307D01*
X890158Y65547D02*
X893307D01*
X914173Y68500D02*
X916535D01*
X915354Y67319D02*
Y69681D01*
X916929Y65547D02*
Y71453D01*
X913780Y65547D02*
Y71453D01*
X916929D01*
X913780Y65547D02*
X916929D01*
X733071Y68500D02*
X735433D01*
X734252Y67319D02*
Y69681D01*
X735827Y65547D02*
Y71453D01*
X732677Y65547D02*
Y71453D01*
X735827D01*
X732677Y65547D02*
X735827D01*
X756693Y68500D02*
X759055D01*
X757874Y67319D02*
Y69681D01*
X759449Y65547D02*
Y71453D01*
X756299Y65547D02*
Y71453D01*
X759449D01*
X756299Y65547D02*
X759449D01*
X780315Y68500D02*
X782677D01*
X781496Y67319D02*
Y69681D01*
X783071Y65547D02*
Y71453D01*
X779921Y65547D02*
Y71453D01*
X783071D01*
X779921Y65547D02*
X783071D01*
X803937Y68500D02*
X806299D01*
X805118Y67319D02*
Y69681D01*
X806693Y65547D02*
Y71453D01*
X803543Y65547D02*
Y71453D01*
X806693D01*
X803543Y65547D02*
X806693D01*
X638583Y68500D02*
X640945D01*
X639764Y67319D02*
Y69681D01*
X641339Y65547D02*
Y71453D01*
X638189Y65547D02*
Y71453D01*
X641339D01*
X638189Y65547D02*
X641339D01*
X662205Y68500D02*
X664567D01*
X663386Y67319D02*
Y69681D01*
X664961Y65547D02*
Y71453D01*
X661811Y65547D02*
Y71453D01*
X664961D01*
X661811Y65547D02*
X664961D01*
X685827Y68500D02*
X688189D01*
X687008Y67319D02*
Y69681D01*
X688583Y65547D02*
Y71453D01*
X685433Y65547D02*
Y71453D01*
X688583D01*
X685433Y65547D02*
X688583D01*
X709449Y68500D02*
X711811D01*
X710630Y67319D02*
Y69681D01*
X712205Y65547D02*
Y71453D01*
X709055Y65547D02*
Y71453D01*
X712205D01*
X709055Y65547D02*
X712205D01*
X528346Y68500D02*
X530709D01*
X529528Y67319D02*
Y69681D01*
X531102Y65547D02*
Y71453D01*
X527953Y65547D02*
Y71453D01*
X531102D01*
X527953Y65547D02*
X531102D01*
X551968Y68500D02*
X554331D01*
X553150Y67319D02*
Y69681D01*
X554724Y65547D02*
Y71453D01*
X551575Y65547D02*
Y71453D01*
X554724D01*
X551575Y65547D02*
X554724D01*
X575591Y68500D02*
X577953D01*
X576772Y67319D02*
Y69681D01*
X578346Y65547D02*
Y71453D01*
X575197Y65547D02*
Y71453D01*
X578346D01*
X575197Y65547D02*
X578346D01*
X599213Y68500D02*
X601575D01*
X600394Y67319D02*
Y69681D01*
X601968Y65547D02*
Y71453D01*
X598819Y65547D02*
Y71453D01*
X601968D01*
X598819Y65547D02*
X601968D01*
X433858Y68500D02*
X436221D01*
X435039Y67319D02*
Y69681D01*
X436614Y65547D02*
Y71453D01*
X433465Y65547D02*
Y71453D01*
X436614D01*
X433465Y65547D02*
X436614D01*
X457480Y68500D02*
X459842D01*
X458661Y67319D02*
Y69681D01*
X460236Y65547D02*
Y71453D01*
X457087Y65547D02*
Y71453D01*
X460236D01*
X457087Y65547D02*
X460236D01*
X481102Y68500D02*
X483465D01*
X482283Y67319D02*
Y69681D01*
X483858Y65547D02*
Y71453D01*
X480709Y65547D02*
Y71453D01*
X483858D01*
X480709Y65547D02*
X483858D01*
X504724Y68500D02*
X507087D01*
X505905Y67319D02*
Y69681D01*
X507480Y65547D02*
Y71453D01*
X504331Y65547D02*
Y71453D01*
X507480D01*
X504331Y65547D02*
X507480D01*
X323622Y68500D02*
X325984D01*
X324803Y67319D02*
Y69681D01*
X326378Y65547D02*
Y71453D01*
X323228Y65547D02*
Y71453D01*
X326378D01*
X323228Y65547D02*
X326378D01*
X347244Y68500D02*
X349606D01*
X348425Y67319D02*
Y69681D01*
X350000Y65547D02*
Y71453D01*
X346850Y65547D02*
Y71453D01*
X350000D01*
X346850Y65547D02*
X350000D01*
X370866Y68500D02*
X373228D01*
X372047Y67319D02*
Y69681D01*
X373622Y65547D02*
Y71453D01*
X370472Y65547D02*
Y71453D01*
X373622D01*
X370472Y65547D02*
X373622D01*
X394488Y68500D02*
X396850D01*
X395669Y67319D02*
Y69681D01*
X397244Y65547D02*
Y71453D01*
X394094Y65547D02*
Y71453D01*
X397244D01*
X394094Y65547D02*
X397244D01*
X229134Y68500D02*
X231496D01*
X230315Y67319D02*
Y69681D01*
X231890Y65547D02*
Y71453D01*
X228740Y65547D02*
Y71453D01*
X231890D01*
X228740Y65547D02*
X231890D01*
X252756Y68500D02*
X255118D01*
X253937Y67319D02*
Y69681D01*
X255512Y65547D02*
Y71453D01*
X252362Y65547D02*
Y71453D01*
X255512D01*
X252362Y65547D02*
X255512D01*
X276378Y68500D02*
X278740D01*
X277559Y67319D02*
Y69681D01*
X279134Y65547D02*
Y71453D01*
X275984Y65547D02*
Y71453D01*
X279134D01*
X275984Y65547D02*
X279134D01*
X300000Y68500D02*
X302362D01*
X301181Y67319D02*
Y69681D01*
X302756Y65547D02*
Y71453D01*
X299606Y65547D02*
Y71453D01*
X302756D01*
X299606Y65547D02*
X302756D01*
X42126Y78874D02*
X44488D01*
X43307Y77693D02*
Y80055D01*
X41732Y75921D02*
Y81827D01*
X44882Y75921D02*
Y81827D01*
X41732Y75921D02*
X44882D01*
X41732Y81827D02*
X44882D01*
X65748Y78874D02*
X68110D01*
X66929Y77693D02*
Y80055D01*
X65354Y75921D02*
Y81827D01*
X68504Y75921D02*
Y81827D01*
X65354Y75921D02*
X68504D01*
X65354Y81827D02*
X68504D01*
X89370Y78874D02*
X91732D01*
X90551Y77693D02*
Y80055D01*
X88976Y75921D02*
Y81827D01*
X92126Y75921D02*
Y81827D01*
X88976Y75921D02*
X92126D01*
X88976Y81827D02*
X92126D01*
X112992Y78874D02*
X115354D01*
X114173Y77693D02*
Y80055D01*
X112598Y75921D02*
Y81827D01*
X115748Y75921D02*
Y81827D01*
X112598Y75921D02*
X115748D01*
X112598Y81827D02*
X115748D01*
X136614Y78874D02*
X138976D01*
X137795Y77693D02*
Y80055D01*
X136221Y75921D02*
Y81827D01*
X139370Y75921D02*
Y81827D01*
X136221Y75921D02*
X139370D01*
X136221Y81827D02*
X139370D01*
X160236Y78874D02*
X162598D01*
X161417Y77693D02*
Y80055D01*
X159843Y75921D02*
Y81827D01*
X162992Y75921D02*
Y81827D01*
X159843Y75921D02*
X162992D01*
X159843Y81827D02*
X162992D01*
X183858Y78874D02*
X186221D01*
X185039Y77693D02*
Y80055D01*
X183465Y75921D02*
Y81827D01*
X186614Y75921D02*
Y81827D01*
X183465Y75921D02*
X186614D01*
X183465Y81827D02*
X186614D01*
X52087Y82299D02*
Y85449D01*
X46181Y82299D02*
Y85449D01*
Y82299D02*
X52087D01*
X46181Y85449D02*
X52087D01*
X47953Y83874D02*
X50315D01*
X49134Y82693D02*
Y85055D01*
X75709Y82299D02*
Y85449D01*
X69803Y82299D02*
Y85449D01*
Y82299D02*
X75709D01*
X69803Y85449D02*
X75709D01*
X71575Y83874D02*
X73937D01*
X72756Y82693D02*
Y85055D01*
X99331Y82299D02*
Y85449D01*
X93425Y82299D02*
Y85449D01*
Y82299D02*
X99331D01*
X93425Y85449D02*
X99331D01*
X95197Y83874D02*
X97559D01*
X96378Y82693D02*
Y85055D01*
X122953Y82299D02*
Y85449D01*
X117047Y82299D02*
Y85449D01*
Y82299D02*
X122953D01*
X117047Y85449D02*
X122953D01*
X118819Y83874D02*
X121181D01*
X120000Y82693D02*
Y85055D01*
X146575Y82299D02*
Y85449D01*
X140669Y82299D02*
Y85449D01*
Y82299D02*
X146575D01*
X140669Y85449D02*
X146575D01*
X142441Y83874D02*
X144803D01*
X143622Y82693D02*
Y85055D01*
X170197Y82299D02*
Y85449D01*
X164291Y82299D02*
Y85449D01*
Y82299D02*
X170197D01*
X164291Y85449D02*
X170197D01*
X166063Y83874D02*
X168425D01*
X167244Y82693D02*
Y85055D01*
X193819Y82299D02*
Y85449D01*
X187913Y82299D02*
Y85449D01*
Y82299D02*
X193819D01*
X187913Y85449D02*
X193819D01*
X189685Y83874D02*
X192047D01*
X190866Y82693D02*
Y85055D01*
X46213Y76374D02*
X52213D01*
Y81374D01*
X46213D02*
X52213D01*
X46213Y76374D02*
Y81374D01*
X49213Y77693D02*
Y80055D01*
X48031Y78874D02*
X50394D01*
X69835Y76374D02*
X75835D01*
Y81374D01*
X69835D02*
X75835D01*
X69835Y76374D02*
Y81374D01*
X72835Y77693D02*
Y80055D01*
X71653Y78874D02*
X74016D01*
X93457Y76374D02*
X99457D01*
Y81374D01*
X93457D02*
X99457D01*
X93457Y76374D02*
Y81374D01*
X96457Y77693D02*
Y80055D01*
X95276Y78874D02*
X97638D01*
X117079Y76374D02*
X123079D01*
Y81374D01*
X117079D02*
X123079D01*
X117079Y76374D02*
Y81374D01*
X120079Y77693D02*
Y80055D01*
X118898Y78874D02*
X121260D01*
X140701Y76374D02*
X146701D01*
Y81374D01*
X140701D02*
X146701D01*
X140701Y76374D02*
Y81374D01*
X143701Y77693D02*
Y80055D01*
X142520Y78874D02*
X144882D01*
X164323Y76374D02*
X170323D01*
Y81374D01*
X164323D02*
X170323D01*
X164323Y76374D02*
Y81374D01*
X167323Y77693D02*
Y80055D01*
X166142Y78874D02*
X168504D01*
X187945Y76374D02*
X193945D01*
Y81374D01*
X187945D02*
X193945D01*
X187945Y76374D02*
Y81374D01*
X190945Y77693D02*
Y80055D01*
X189764Y78874D02*
X192126D01*
X48031Y68500D02*
X50394D01*
X49213Y67319D02*
Y69681D01*
X50787Y65547D02*
Y71453D01*
X47638Y65547D02*
Y71453D01*
X50787D01*
X47638Y65547D02*
X50787D01*
X71653Y68500D02*
X74016D01*
X72835Y67319D02*
Y69681D01*
X74410Y65547D02*
Y71453D01*
X71260Y65547D02*
Y71453D01*
X74410D01*
X71260Y65547D02*
X74410D01*
X95276Y68500D02*
X97638D01*
X96457Y67319D02*
Y69681D01*
X98032Y65547D02*
Y71453D01*
X94882Y65547D02*
Y71453D01*
X98032D01*
X94882Y65547D02*
X98032D01*
X118898Y68500D02*
X121260D01*
X120079Y67319D02*
Y69681D01*
X121653Y65547D02*
Y71453D01*
X118504Y65547D02*
Y71453D01*
X121653D01*
X118504Y65547D02*
X121653D01*
X142520Y68500D02*
X144882D01*
X143701Y67319D02*
Y69681D01*
X145276Y65547D02*
Y71453D01*
X142126Y65547D02*
Y71453D01*
X145276D01*
X142126Y65547D02*
X145276D01*
X166142Y68500D02*
X168504D01*
X167323Y67319D02*
Y69681D01*
X168898Y65547D02*
Y71453D01*
X165748Y65547D02*
Y71453D01*
X168898D01*
X165748Y65547D02*
X168898D01*
X189764Y68500D02*
X192126D01*
X190945Y67319D02*
Y69681D01*
X192520Y65547D02*
Y71453D01*
X189370Y65547D02*
Y71453D01*
X192520D01*
X189370Y65547D02*
X192520D01*
X18504Y78874D02*
X20866D01*
X19685Y77693D02*
Y80055D01*
X18110Y75921D02*
Y81827D01*
X21260Y75921D02*
Y81827D01*
X18110Y75921D02*
X21260D01*
X18110Y81827D02*
X21260D01*
X28543Y82299D02*
Y85449D01*
X22638Y82299D02*
Y85449D01*
Y82299D02*
X28543D01*
X22638Y85449D02*
X28543D01*
X24409Y83874D02*
X26772D01*
X25591Y82693D02*
Y85055D01*
X22591Y76374D02*
X28591D01*
Y81374D01*
X22591D02*
X28591D01*
X22591Y76374D02*
Y81374D01*
X25591Y77693D02*
Y80055D01*
X24409Y78874D02*
X26772D01*
X24409Y68500D02*
X26772D01*
X25591Y67319D02*
Y69681D01*
X27165Y65547D02*
Y71453D01*
X24016Y65547D02*
Y71453D01*
X27165D01*
X24016Y65547D02*
X27165D01*
X224725Y21654D02*
Y24016D01*
X223544Y22835D02*
X225906D01*
X221772Y24409D02*
X227677D01*
X221772Y21260D02*
X227677D01*
X221772D02*
Y24409D01*
X227677Y21260D02*
Y24409D01*
X248347Y21654D02*
Y24016D01*
X247166Y22835D02*
X249528D01*
X245394Y24409D02*
X251300D01*
X245394Y21260D02*
X251300D01*
X245394D02*
Y24409D01*
X251300Y21260D02*
Y24409D01*
X271969Y21654D02*
Y24016D01*
X270788Y22835D02*
X273150D01*
X269016Y24409D02*
X274922D01*
X269016Y21260D02*
X274922D01*
X269016D02*
Y24409D01*
X274922Y21260D02*
Y24409D01*
X295591Y21654D02*
Y24016D01*
X294410Y22835D02*
X296772D01*
X292638Y24409D02*
X298544D01*
X292638Y21260D02*
X298544D01*
X292638D02*
Y24409D01*
X298544Y21260D02*
Y24409D01*
X319213Y21654D02*
Y24016D01*
X318032Y22835D02*
X320394D01*
X316260Y24409D02*
X322166D01*
X316260Y21260D02*
X322166D01*
X316260D02*
Y24409D01*
X322166Y21260D02*
Y24409D01*
X342835Y21654D02*
Y24016D01*
X341654Y22835D02*
X344016D01*
X339882Y24409D02*
X345788D01*
X339882Y21260D02*
X345788D01*
X339882D02*
Y24409D01*
X345788Y21260D02*
Y24409D01*
X366457Y21654D02*
Y24016D01*
X365276Y22835D02*
X367638D01*
X363504Y24409D02*
X369410D01*
X363504Y21260D02*
X369410D01*
X363504D02*
Y24409D01*
X369410Y21260D02*
Y24409D01*
X390079Y21654D02*
Y24016D01*
X388898Y22835D02*
X391260D01*
X387126Y24409D02*
X393032D01*
X387126Y21260D02*
X393032D01*
X387126D02*
Y24409D01*
X393032Y21260D02*
Y24409D01*
X429449Y21654D02*
Y24016D01*
X428268Y22835D02*
X430630D01*
X426496Y24409D02*
X432402D01*
X426496Y21260D02*
X432402D01*
X426496D02*
Y24409D01*
X432402Y21260D02*
Y24409D01*
X453071Y21654D02*
Y24016D01*
X451890Y22835D02*
X454252D01*
X450118Y24409D02*
X456024D01*
X450118Y21260D02*
X456024D01*
X450118D02*
Y24409D01*
X456024Y21260D02*
Y24409D01*
X476693Y21654D02*
Y24016D01*
X475512Y22835D02*
X477874D01*
X473740Y24409D02*
X479646D01*
X473740Y21260D02*
X479646D01*
X473740D02*
Y24409D01*
X479646Y21260D02*
Y24409D01*
X500315Y21654D02*
Y24016D01*
X499134Y22835D02*
X501496D01*
X497363Y24409D02*
X503268D01*
X497363Y21260D02*
X503268D01*
X497363D02*
Y24409D01*
X503268Y21260D02*
Y24409D01*
X43622Y21654D02*
Y24016D01*
X42441Y22835D02*
X44803D01*
X40669Y24409D02*
X46575D01*
X40669Y21260D02*
X46575D01*
X40669D02*
Y24409D01*
X46575Y21260D02*
Y24409D01*
X67244Y21654D02*
Y24016D01*
X66063Y22835D02*
X68425D01*
X64291Y24409D02*
X70197D01*
X64291Y21260D02*
X70197D01*
X64291D02*
Y24409D01*
X70197Y21260D02*
Y24409D01*
X90866Y21654D02*
Y24016D01*
X89685Y22835D02*
X92047D01*
X87913Y24409D02*
X93819D01*
X87913Y21260D02*
X93819D01*
X87913D02*
Y24409D01*
X93819Y21260D02*
Y24409D01*
X114488Y21654D02*
Y24016D01*
X113307Y22835D02*
X115669D01*
X111535Y24409D02*
X117441D01*
X111535Y21260D02*
X117441D01*
X111535D02*
Y24409D01*
X117441Y21260D02*
Y24409D01*
X138110Y21654D02*
Y24016D01*
X136929Y22835D02*
X139291D01*
X135158Y24409D02*
X141063D01*
X135158Y21260D02*
X141063D01*
X135158D02*
Y24409D01*
X141063Y21260D02*
Y24409D01*
X161732Y21654D02*
Y24016D01*
X160551Y22835D02*
X162913D01*
X158780Y24409D02*
X164685D01*
X158780Y21260D02*
X164685D01*
X158780D02*
Y24409D01*
X164685Y21260D02*
Y24409D01*
X185354Y21654D02*
Y24016D01*
X184173Y22835D02*
X186535D01*
X182402Y24409D02*
X188307D01*
X182402Y21260D02*
X188307D01*
X182402D02*
Y24409D01*
X188307Y21260D02*
Y24409D01*
X20000Y21654D02*
Y24016D01*
X18819Y22835D02*
X21181D01*
X17047Y24409D02*
X22953D01*
X17047Y21260D02*
X22953D01*
X17047D02*
Y24409D01*
X22953Y21260D02*
Y24409D01*
X1013740Y134843D02*
X1016890D01*
X1013740Y140748D02*
X1016890D01*
X1013740Y134843D02*
Y140748D01*
X1016890Y134843D02*
Y140748D01*
X1015315Y136614D02*
Y138976D01*
X1014134Y137795D02*
X1016496D01*
X1003740Y134843D02*
X1006890D01*
X1003740Y140748D02*
X1006890D01*
X1003740Y134843D02*
Y140748D01*
X1006890Y134843D02*
Y140748D01*
X1005315Y136614D02*
Y138976D01*
X1004134Y137795D02*
X1006496D01*
X993740Y134843D02*
X996890D01*
X993740Y140748D02*
X996890D01*
X993740Y134843D02*
Y140748D01*
X996890Y134843D02*
Y140748D01*
X995315Y136614D02*
Y138976D01*
X994134Y137795D02*
X996496D01*
X983740Y134843D02*
X986890D01*
X983740Y140748D02*
X986890D01*
X983740Y134843D02*
Y140748D01*
X986890Y134843D02*
Y140748D01*
X985315Y136614D02*
Y138976D01*
X984134Y137795D02*
X986496D01*
X973740Y134843D02*
X976890D01*
X973740Y140748D02*
X976890D01*
X973740Y134843D02*
Y140748D01*
X976890Y134843D02*
Y140748D01*
X975315Y136614D02*
Y138976D01*
X974134Y137795D02*
X976496D01*
X963740Y134843D02*
X966890D01*
X963740Y140748D02*
X966890D01*
X963740Y134843D02*
Y140748D01*
X966890Y134843D02*
Y140748D01*
X965315Y136614D02*
Y138976D01*
X964134Y137795D02*
X966496D01*
X953740Y134843D02*
X956890D01*
X953740Y140748D02*
X956890D01*
X953740Y134843D02*
Y140748D01*
X956890Y134843D02*
Y140748D01*
X955315Y136614D02*
Y138976D01*
X954134Y137795D02*
X956496D01*
X943740Y134843D02*
X946890D01*
X943740Y140748D02*
X946890D01*
X943740Y134843D02*
Y140748D01*
X946890Y134843D02*
Y140748D01*
X945315Y136614D02*
Y138976D01*
X944134Y137795D02*
X946496D01*
X739016Y134843D02*
X742165D01*
X739016Y140748D02*
X742165D01*
X739016Y134843D02*
Y140748D01*
X742165Y134843D02*
Y140748D01*
X740590Y136614D02*
Y138976D01*
X739409Y137795D02*
X741772D01*
X749016Y134843D02*
X752165D01*
X749016Y140748D02*
X752165D01*
X749016Y134843D02*
Y140748D01*
X752165Y134843D02*
Y140748D01*
X750591Y136614D02*
Y138976D01*
X749409Y137795D02*
X751772D01*
X759016Y134843D02*
X762165D01*
X759016Y140748D02*
X762165D01*
X759016Y134843D02*
Y140748D01*
X762165Y134843D02*
Y140748D01*
X760591Y136614D02*
Y138976D01*
X759410Y137795D02*
X761772D01*
X769016Y134843D02*
X772165D01*
X769016Y140748D02*
X772165D01*
X769016Y134843D02*
Y140748D01*
X772165Y134843D02*
Y140748D01*
X770590Y136614D02*
Y138976D01*
X769410Y137795D02*
X771772D01*
X779016Y134843D02*
X782165D01*
X779016Y140748D02*
X782165D01*
X779016Y134843D02*
Y140748D01*
X782165Y134843D02*
Y140748D01*
X780590Y136614D02*
Y138976D01*
X779410Y137795D02*
X781772D01*
X789016Y134843D02*
X792165D01*
X789016Y140748D02*
X792165D01*
X789016Y134843D02*
Y140748D01*
X792165Y134843D02*
Y140748D01*
X790590Y136614D02*
Y138976D01*
X789409Y137795D02*
X791772D01*
X799016Y134843D02*
X802165D01*
X799016Y140748D02*
X802165D01*
X799016Y134843D02*
Y140748D01*
X802165Y134843D02*
Y140748D01*
X800591Y136614D02*
Y138976D01*
X799409Y137795D02*
X801772D01*
X809016Y134843D02*
X812165D01*
X809016Y140748D02*
X812165D01*
X809016Y134843D02*
Y140748D01*
X812165Y134843D02*
Y140748D01*
X810590Y136614D02*
Y138976D01*
X809410Y137795D02*
X811772D01*
X534291Y134843D02*
X537441D01*
X534291Y140748D02*
X537441D01*
X534291Y134843D02*
Y140748D01*
X537441Y134843D02*
Y140748D01*
X535866Y136614D02*
Y138976D01*
X534685Y137795D02*
X537047D01*
X544291Y134843D02*
X547441D01*
X544291Y140748D02*
X547441D01*
X544291Y134843D02*
Y140748D01*
X547441Y134843D02*
Y140748D01*
X545866Y136614D02*
Y138976D01*
X544685Y137795D02*
X547047D01*
X554291Y134843D02*
X557441D01*
X554291Y140748D02*
X557441D01*
X554291Y134843D02*
Y140748D01*
X557441Y134843D02*
Y140748D01*
X555866Y136614D02*
Y138976D01*
X554685Y137795D02*
X557047D01*
X564291Y134843D02*
X567441D01*
X564291Y140748D02*
X567441D01*
X564291Y134843D02*
Y140748D01*
X567441Y134843D02*
Y140748D01*
X565866Y136614D02*
Y138976D01*
X564685Y137795D02*
X567047D01*
X574291Y134843D02*
X577441D01*
X574291Y140748D02*
X577441D01*
X574291Y134843D02*
Y140748D01*
X577441Y134843D02*
Y140748D01*
X575866Y136614D02*
Y138976D01*
X574685Y137795D02*
X577047D01*
X584291Y134843D02*
X587441D01*
X584291Y140748D02*
X587441D01*
X584291Y134843D02*
Y140748D01*
X587441Y134843D02*
Y140748D01*
X585866Y136614D02*
Y138976D01*
X584685Y137795D02*
X587047D01*
X594291Y134843D02*
X597441D01*
X594291Y140748D02*
X597441D01*
X594291Y134843D02*
Y140748D01*
X597441Y134843D02*
Y140748D01*
X595866Y136614D02*
Y138976D01*
X594685Y137795D02*
X597047D01*
X604291Y134843D02*
X607441D01*
X604291Y140748D02*
X607441D01*
X604291Y134843D02*
Y140748D01*
X607441Y134843D02*
Y140748D01*
X605866Y136614D02*
Y138976D01*
X604685Y137795D02*
X607047D01*
X329567Y134843D02*
X332716D01*
X329567Y140748D02*
X332716D01*
X329567Y134843D02*
Y140748D01*
X332716Y134843D02*
Y140748D01*
X331142Y136614D02*
Y138976D01*
X329961Y137795D02*
X332323D01*
X339567Y134843D02*
X342717D01*
X339567Y140748D02*
X342717D01*
X339567Y134843D02*
Y140748D01*
X342717Y134843D02*
Y140748D01*
X341142Y136614D02*
Y138976D01*
X339961Y137795D02*
X342323D01*
X349567Y134843D02*
X352716D01*
X349567Y140748D02*
X352716D01*
X349567Y134843D02*
Y140748D01*
X352716Y134843D02*
Y140748D01*
X351142Y136614D02*
Y138976D01*
X349961Y137795D02*
X352323D01*
X359567Y134843D02*
X362717D01*
X359567Y140748D02*
X362717D01*
X359567Y134843D02*
Y140748D01*
X362717Y134843D02*
Y140748D01*
X361142Y136614D02*
Y138976D01*
X359961Y137795D02*
X362323D01*
X369567Y134843D02*
X372716D01*
X369567Y140748D02*
X372716D01*
X369567Y134843D02*
Y140748D01*
X372716Y134843D02*
Y140748D01*
X371142Y136614D02*
Y138976D01*
X369961Y137795D02*
X372323D01*
X379567Y134843D02*
X382716D01*
X379567Y140748D02*
X382716D01*
X379567Y134843D02*
Y140748D01*
X382716Y134843D02*
Y140748D01*
X381142Y136614D02*
Y138976D01*
X379961Y137795D02*
X382323D01*
X389567Y134843D02*
X392717D01*
X389567Y140748D02*
X392717D01*
X389567Y134843D02*
Y140748D01*
X392717Y134843D02*
Y140748D01*
X391142Y136614D02*
Y138976D01*
X389961Y137795D02*
X392323D01*
X399567Y134843D02*
X402716D01*
X399567Y140748D02*
X402716D01*
X399567Y134843D02*
Y140748D01*
X402716Y134843D02*
Y140748D01*
X401142Y136614D02*
Y138976D01*
X399961Y137795D02*
X402323D01*
X911378Y134843D02*
X914528D01*
X911378Y140748D02*
X914528D01*
X911378Y134843D02*
Y140748D01*
X914528Y134843D02*
Y140748D01*
X912953Y136614D02*
Y138976D01*
X911772Y137795D02*
X914134D01*
X901378Y134843D02*
X904528D01*
X901378Y140748D02*
X904528D01*
X901378Y134843D02*
Y140748D01*
X904528Y134843D02*
Y140748D01*
X902953Y136614D02*
Y138976D01*
X901772Y137795D02*
X904134D01*
X891378Y134843D02*
X894528D01*
X891378Y140748D02*
X894528D01*
X891378Y134843D02*
Y140748D01*
X894528Y134843D02*
Y140748D01*
X892953Y136614D02*
Y138976D01*
X891772Y137795D02*
X894134D01*
X881378Y134843D02*
X884528D01*
X881378Y140748D02*
X884528D01*
X881378Y134843D02*
Y140748D01*
X884528Y134843D02*
Y140748D01*
X882953Y136614D02*
Y138976D01*
X881772Y137795D02*
X884134D01*
X871378Y134843D02*
X874528D01*
X871378Y140748D02*
X874528D01*
X871378Y134843D02*
Y140748D01*
X874528Y134843D02*
Y140748D01*
X872953Y136614D02*
Y138976D01*
X871772Y137795D02*
X874134D01*
X861378Y134843D02*
X864528D01*
X861378Y140748D02*
X864528D01*
X861378Y134843D02*
Y140748D01*
X864528Y134843D02*
Y140748D01*
X862953Y136614D02*
Y138976D01*
X861772Y137795D02*
X864134D01*
X851378Y134843D02*
X854528D01*
X851378Y140748D02*
X854528D01*
X851378Y134843D02*
Y140748D01*
X854528Y134843D02*
Y140748D01*
X852953Y136614D02*
Y138976D01*
X851772Y137795D02*
X854134D01*
X841378Y134843D02*
X844528D01*
X841378Y140748D02*
X844528D01*
X841378Y134843D02*
Y140748D01*
X844528Y134843D02*
Y140748D01*
X842953Y136614D02*
Y138976D01*
X841772Y137795D02*
X844134D01*
X706653Y134843D02*
X709803D01*
X706653Y140748D02*
X709803D01*
X706653Y134843D02*
Y140748D01*
X709803Y134843D02*
Y140748D01*
X708228Y136614D02*
Y138976D01*
X707047Y137795D02*
X709410D01*
X696654Y134843D02*
X699803D01*
X696654Y140748D02*
X699803D01*
X696654Y134843D02*
Y140748D01*
X699803Y134843D02*
Y140748D01*
X698228Y136614D02*
Y138976D01*
X697047Y137795D02*
X699409D01*
X686654Y134843D02*
X689803D01*
X686654Y140748D02*
X689803D01*
X686654Y134843D02*
Y140748D01*
X689803Y134843D02*
Y140748D01*
X688228Y136614D02*
Y138976D01*
X687047Y137795D02*
X689409D01*
X676653Y134843D02*
X679803D01*
X676653Y140748D02*
X679803D01*
X676653Y134843D02*
Y140748D01*
X679803Y134843D02*
Y140748D01*
X678228Y136614D02*
Y138976D01*
X677047Y137795D02*
X679410D01*
X666653Y134843D02*
X669803D01*
X666653Y140748D02*
X669803D01*
X666653Y134843D02*
Y140748D01*
X669803Y134843D02*
Y140748D01*
X668228Y136614D02*
Y138976D01*
X667047Y137795D02*
X669410D01*
X656653Y134843D02*
X659803D01*
X656653Y140748D02*
X659803D01*
X656653Y134843D02*
Y140748D01*
X659803Y134843D02*
Y140748D01*
X658228Y136614D02*
Y138976D01*
X657047Y137795D02*
X659410D01*
X646654Y134843D02*
X649803D01*
X646654Y140748D02*
X649803D01*
X646654Y134843D02*
Y140748D01*
X649803Y134843D02*
Y140748D01*
X648228Y136614D02*
Y138976D01*
X647047Y137795D02*
X649409D01*
X636654Y134843D02*
X639803D01*
X636654Y140748D02*
X639803D01*
X636654Y134843D02*
Y140748D01*
X639803Y134843D02*
Y140748D01*
X638228Y136614D02*
Y138976D01*
X637047Y137795D02*
X639409D01*
X501929Y134843D02*
X505079D01*
X501929Y140748D02*
X505079D01*
X501929Y134843D02*
Y140748D01*
X505079Y134843D02*
Y140748D01*
X503504Y136614D02*
Y138976D01*
X502323Y137795D02*
X504685D01*
X491929Y134843D02*
X495079D01*
X491929Y140748D02*
X495079D01*
X491929Y134843D02*
Y140748D01*
X495079Y134843D02*
Y140748D01*
X493504Y136614D02*
Y138976D01*
X492323Y137795D02*
X494685D01*
X481929Y134843D02*
X485079D01*
X481929Y140748D02*
X485079D01*
X481929Y134843D02*
Y140748D01*
X485079Y134843D02*
Y140748D01*
X483504Y136614D02*
Y138976D01*
X482323Y137795D02*
X484685D01*
X471929Y134843D02*
X475079D01*
X471929Y140748D02*
X475079D01*
X471929Y134843D02*
Y140748D01*
X475079Y134843D02*
Y140748D01*
X473504Y136614D02*
Y138976D01*
X472323Y137795D02*
X474685D01*
X461929Y134843D02*
X465079D01*
X461929Y140748D02*
X465079D01*
X461929Y134843D02*
Y140748D01*
X465079Y134843D02*
Y140748D01*
X463504Y136614D02*
Y138976D01*
X462323Y137795D02*
X464685D01*
X451929Y134843D02*
X455079D01*
X451929Y140748D02*
X455079D01*
X451929Y134843D02*
Y140748D01*
X455079Y134843D02*
Y140748D01*
X453504Y136614D02*
Y138976D01*
X452323Y137795D02*
X454685D01*
X441929Y134843D02*
X445079D01*
X441929Y140748D02*
X445079D01*
X441929Y134843D02*
Y140748D01*
X445079Y134843D02*
Y140748D01*
X443504Y136614D02*
Y138976D01*
X442323Y137795D02*
X444685D01*
X431929Y134843D02*
X435079D01*
X431929Y140748D02*
X435079D01*
X431929Y134843D02*
Y140748D01*
X435079Y134843D02*
Y140748D01*
X433504Y136614D02*
Y138976D01*
X432323Y137795D02*
X434685D01*
X227205Y134843D02*
X230354D01*
X227205Y140748D02*
X230354D01*
X227205Y134843D02*
Y140748D01*
X230354Y134843D02*
Y140748D01*
X228780Y136614D02*
Y138976D01*
X227598Y137795D02*
X229961D01*
X237205Y134843D02*
X240354D01*
X237205Y140748D02*
X240354D01*
X237205Y134843D02*
Y140748D01*
X240354Y134843D02*
Y140748D01*
X238779Y136614D02*
Y138976D01*
X237598Y137795D02*
X239961D01*
X247205Y134843D02*
X250354D01*
X247205Y140748D02*
X250354D01*
X247205Y134843D02*
Y140748D01*
X250354Y134843D02*
Y140748D01*
X248780Y136614D02*
Y138976D01*
X247598Y137795D02*
X249961D01*
X257205Y134843D02*
X260354D01*
X257205Y140748D02*
X260354D01*
X257205Y134843D02*
Y140748D01*
X260354Y134843D02*
Y140748D01*
X258780Y136614D02*
Y138976D01*
X257598Y137795D02*
X259961D01*
X267205Y134843D02*
X270354D01*
X267205Y140748D02*
X270354D01*
X267205Y134843D02*
Y140748D01*
X270354Y134843D02*
Y140748D01*
X268779Y136614D02*
Y138976D01*
X267598Y137795D02*
X269961D01*
X277205Y134843D02*
X280354D01*
X277205Y140748D02*
X280354D01*
X277205Y134843D02*
Y140748D01*
X280354Y134843D02*
Y140748D01*
X278780Y136614D02*
Y138976D01*
X277598Y137795D02*
X279961D01*
X287205Y134843D02*
X290354D01*
X287205Y140748D02*
X290354D01*
X287205Y134843D02*
Y140748D01*
X290354Y134843D02*
Y140748D01*
X288779Y136614D02*
Y138976D01*
X287598Y137795D02*
X289961D01*
X297205Y134843D02*
X300354D01*
X297205Y140748D02*
X300354D01*
X297205Y134843D02*
Y140748D01*
X300354Y134843D02*
Y140748D01*
X298780Y136614D02*
Y138976D01*
X297598Y137795D02*
X299961D01*
X124843Y134843D02*
X127992D01*
X124843Y140748D02*
X127992D01*
X124843Y134843D02*
Y140748D01*
X127992Y134843D02*
Y140748D01*
X126417Y136614D02*
Y138976D01*
X125236Y137795D02*
X127598D01*
X134843Y134843D02*
X137992D01*
X134843Y140748D02*
X137992D01*
X134843Y134843D02*
Y140748D01*
X137992Y134843D02*
Y140748D01*
X136417Y136614D02*
Y138976D01*
X135236Y137795D02*
X137598D01*
X144843Y134843D02*
X147992D01*
X144843Y140748D02*
X147992D01*
X144843Y134843D02*
Y140748D01*
X147992Y134843D02*
Y140748D01*
X146417Y136614D02*
Y138976D01*
X145236Y137795D02*
X147598D01*
X154842Y134843D02*
X157992D01*
X154842Y140748D02*
X157992D01*
X154842Y134843D02*
Y140748D01*
X157992Y134843D02*
Y140748D01*
X156417Y136614D02*
Y138976D01*
X155236Y137795D02*
X157598D01*
X164842Y134843D02*
X167992D01*
X164842Y140748D02*
X167992D01*
X164842Y134843D02*
Y140748D01*
X167992Y134843D02*
Y140748D01*
X166417Y136614D02*
Y138976D01*
X165236Y137795D02*
X167598D01*
X174843Y134843D02*
X177992D01*
X174843Y140748D02*
X177992D01*
X174843Y134843D02*
Y140748D01*
X177992Y134843D02*
Y140748D01*
X176417Y136614D02*
Y138976D01*
X175236Y137795D02*
X177598D01*
X184843Y134843D02*
X187992D01*
X184843Y140748D02*
X187992D01*
X184843Y134843D02*
Y140748D01*
X187992Y134843D02*
Y140748D01*
X186417Y136614D02*
Y138976D01*
X185236Y137795D02*
X187598D01*
X194843Y134843D02*
X197992D01*
X194843Y140748D02*
X197992D01*
X194843Y134843D02*
Y140748D01*
X197992Y134843D02*
Y140748D01*
X196417Y136614D02*
Y138976D01*
X195236Y137795D02*
X197598D01*
X92425Y134843D02*
X95575D01*
X92425Y140748D02*
X95575D01*
X92425Y134843D02*
Y140748D01*
X95575Y134843D02*
Y140748D01*
X94000Y136614D02*
Y138976D01*
X92819Y137795D02*
X95181D01*
X82425Y134843D02*
X85575D01*
X82425Y140748D02*
X85575D01*
X82425Y134843D02*
Y140748D01*
X85575Y134843D02*
Y140748D01*
X84000Y136614D02*
Y138976D01*
X82819Y137795D02*
X85181D01*
X72425Y134843D02*
X75575D01*
X72425Y140748D02*
X75575D01*
X72425Y134843D02*
Y140748D01*
X75575Y134843D02*
Y140748D01*
X74000Y136614D02*
Y138976D01*
X72819Y137795D02*
X75181D01*
X62425Y134843D02*
X65575D01*
X62425Y140748D02*
X65575D01*
X62425Y134843D02*
Y140748D01*
X65575Y134843D02*
Y140748D01*
X64000Y136614D02*
Y138976D01*
X62819Y137795D02*
X65181D01*
X52425Y134843D02*
X55575D01*
X52425Y140748D02*
X55575D01*
X52425Y134843D02*
Y140748D01*
X55575Y134843D02*
Y140748D01*
X54000Y136614D02*
Y138976D01*
X52819Y137795D02*
X55181D01*
X42425Y134843D02*
X45575D01*
X42425Y140748D02*
X45575D01*
X42425Y134843D02*
Y140748D01*
X45575Y134843D02*
Y140748D01*
X44000Y136614D02*
Y138976D01*
X42819Y137795D02*
X45181D01*
X32425Y134843D02*
X35575D01*
X32425Y140748D02*
X35575D01*
X32425Y134843D02*
Y140748D01*
X35575Y134843D02*
Y140748D01*
X34000Y136614D02*
Y138976D01*
X32819Y137795D02*
X35181D01*
X22425Y134843D02*
X25575D01*
X22425Y140748D02*
X25575D01*
X22425Y134843D02*
Y140748D01*
X25575Y134843D02*
Y140748D01*
X24000Y136614D02*
Y138976D01*
X22819Y137795D02*
X25181D01*
X520236Y536618D02*
Y539768D01*
X526142Y536618D02*
Y539768D01*
X520236D02*
X526142D01*
X520236Y536618D02*
X526142D01*
X522008Y538193D02*
X524370D01*
X523189Y537012D02*
Y539374D01*
X490236Y536618D02*
Y539768D01*
X496142Y536618D02*
Y539768D01*
X490236D02*
X496142D01*
X490236Y536618D02*
X496142D01*
X492008Y538193D02*
X494370D01*
X493189Y537012D02*
Y539374D01*
X480236Y536618D02*
Y539768D01*
X486142Y536618D02*
Y539768D01*
X480236D02*
X486142D01*
X480236Y536618D02*
X486142D01*
X482008Y538193D02*
X484370D01*
X483189Y537012D02*
Y539374D01*
X520004Y535693D02*
X526004D01*
X520004Y530693D02*
Y535693D01*
Y530693D02*
X526004D01*
Y535693D01*
X523004Y532012D02*
Y534374D01*
X521823Y533193D02*
X524185D01*
X490189Y535693D02*
X496189D01*
X490189Y530693D02*
Y535693D01*
Y530693D02*
X496189D01*
Y535693D01*
X493189Y532012D02*
Y534374D01*
X492008Y533193D02*
X494370D01*
X480189Y535693D02*
X486189D01*
X480189Y530693D02*
Y535693D01*
Y530693D02*
X486189D01*
Y535693D01*
X483189Y532012D02*
Y534374D01*
X482008Y533193D02*
X484370D01*
X523189Y527012D02*
Y529374D01*
X522008Y528193D02*
X524370D01*
X520236Y529768D02*
X526142D01*
X520236Y526618D02*
X526142D01*
X520236D02*
Y529768D01*
X526142Y526618D02*
Y529768D01*
X493189Y527012D02*
Y529374D01*
X492008Y528193D02*
X494370D01*
X490236Y529768D02*
X496142D01*
X490236Y526618D02*
X496142D01*
X490236D02*
Y529768D01*
X496142Y526618D02*
Y529768D01*
X483189Y527012D02*
Y529374D01*
X482008Y528193D02*
X484370D01*
X480236Y529768D02*
X486142D01*
X480236Y526618D02*
X486142D01*
X480236D02*
Y529768D01*
X486142Y526618D02*
Y529768D01*
X523110Y508661D02*
Y511024D01*
X521929Y509842D02*
X524291D01*
X520157Y508268D02*
X526063D01*
X520157Y511417D02*
X526063D01*
Y508268D02*
Y511417D01*
X520157Y508268D02*
Y511417D01*
X493110Y508661D02*
Y511024D01*
X491929Y509842D02*
X494291D01*
X490158Y508268D02*
X496063D01*
X490158Y511417D02*
X496063D01*
Y508268D02*
Y511417D01*
X490158Y508268D02*
Y511417D01*
X483110Y508661D02*
Y511024D01*
X481929Y509842D02*
X484291D01*
X480158Y508268D02*
X486063D01*
X480158Y511417D02*
X486063D01*
Y508268D02*
Y511417D01*
X480158Y508268D02*
Y511417D01*
X500236Y536618D02*
Y539768D01*
X506142Y536618D02*
Y539768D01*
X500236D02*
X506142D01*
X500236Y536618D02*
X506142D01*
X502008Y538193D02*
X504370D01*
X503189Y537012D02*
Y539374D01*
X510236Y536618D02*
Y539768D01*
X516142Y536618D02*
Y539768D01*
X510236D02*
X516142D01*
X510236Y536618D02*
X516142D01*
X512008Y538193D02*
X514370D01*
X513189Y537012D02*
Y539374D01*
X500189Y535693D02*
X506189D01*
X500189Y530693D02*
Y535693D01*
Y530693D02*
X506189D01*
Y535693D01*
X503189Y532012D02*
Y534374D01*
X502008Y533193D02*
X504370D01*
X510189Y535693D02*
X516189D01*
X510189Y530693D02*
Y535693D01*
Y530693D02*
X516189D01*
Y535693D01*
X513189Y532012D02*
Y534374D01*
X512008Y533193D02*
X514370D01*
X503189Y527012D02*
Y529374D01*
X502008Y528193D02*
X504370D01*
X500236Y529768D02*
X506142D01*
X500236Y526618D02*
X506142D01*
X500236D02*
Y529768D01*
X506142Y526618D02*
Y529768D01*
X513189Y527012D02*
Y529374D01*
X512008Y528193D02*
X514370D01*
X510236Y529768D02*
X516142D01*
X510236Y526618D02*
X516142D01*
X510236D02*
Y529768D01*
X516142Y526618D02*
Y529768D01*
X503110Y508661D02*
Y511024D01*
X501929Y509842D02*
X504291D01*
X500157Y508268D02*
X506063D01*
X500157Y511417D02*
X506063D01*
Y508268D02*
Y511417D01*
X500157Y508268D02*
Y511417D01*
X513110Y508661D02*
Y511024D01*
X511929Y509842D02*
X514291D01*
X510157Y508268D02*
X516063D01*
X510157Y511417D02*
X516063D01*
Y508268D02*
Y511417D01*
X510157Y508268D02*
Y511417D01*
X186772Y536618D02*
Y539768D01*
X192677Y536618D02*
Y539768D01*
X186772D02*
X192677D01*
X186772Y536618D02*
X192677D01*
X188543Y538193D02*
X190905D01*
X189724Y537012D02*
Y539374D01*
X176772Y536618D02*
Y539768D01*
X182677Y536618D02*
Y539768D01*
X176772D02*
X182677D01*
X176772Y536618D02*
X182677D01*
X178543Y538193D02*
X180905D01*
X179724Y537012D02*
Y539374D01*
X69882Y498425D02*
Y501575D01*
X63976Y498425D02*
Y501575D01*
Y498425D02*
X69882D01*
X63976Y501575D02*
X69882D01*
X65748Y500000D02*
X68110D01*
X66929Y498819D02*
Y501181D01*
X186724Y535693D02*
X192724D01*
X186724Y530693D02*
Y535693D01*
Y530693D02*
X192724D01*
Y535693D01*
X189724Y532012D02*
Y534374D01*
X188543Y533193D02*
X190905D01*
X176724Y535693D02*
X182724D01*
X176724Y530693D02*
Y535693D01*
Y530693D02*
X182724D01*
Y535693D01*
X179724Y532012D02*
Y534374D01*
X178543Y533193D02*
X180905D01*
X66929Y492913D02*
Y495276D01*
X65748Y494095D02*
X68110D01*
X63976Y492520D02*
X69882D01*
X63976Y495669D02*
X69882D01*
Y492520D02*
Y495669D01*
X63976Y492520D02*
Y495669D01*
X189724Y527012D02*
Y529374D01*
X188543Y528193D02*
X190905D01*
X186772Y529768D02*
X192677D01*
X186772Y526618D02*
X192677D01*
X186772D02*
Y529768D01*
X192677Y526618D02*
Y529768D01*
X179724Y527012D02*
Y529374D01*
X178543Y528193D02*
X180905D01*
X176772Y529768D02*
X182677D01*
X176772Y526618D02*
X182677D01*
X176772D02*
Y529768D01*
X182677Y526618D02*
Y529768D01*
X189803Y508661D02*
Y511024D01*
X188622Y509842D02*
X190984D01*
X186850Y508268D02*
X192756D01*
X186850Y511417D02*
X192756D01*
Y508268D02*
Y511417D01*
X186850Y508268D02*
Y511417D01*
X216772Y536618D02*
Y539768D01*
X222677Y536618D02*
Y539768D01*
X216772D02*
X222677D01*
X216772Y536618D02*
X222677D01*
X218543Y538193D02*
X220905D01*
X219724Y537012D02*
Y539374D01*
X206772Y536618D02*
Y539768D01*
X212677Y536618D02*
Y539768D01*
X206772D02*
X212677D01*
X206772Y536618D02*
X212677D01*
X208543Y538193D02*
X210906D01*
X209724Y537012D02*
Y539374D01*
X196772Y536618D02*
Y539768D01*
X202677Y536618D02*
Y539768D01*
X196772D02*
X202677D01*
X196772Y536618D02*
X202677D01*
X198543Y538193D02*
X200905D01*
X199724Y537012D02*
Y539374D01*
X232677Y526618D02*
Y529768D01*
X226772Y526618D02*
Y529768D01*
Y526618D02*
X232677D01*
X226772Y529768D02*
X232677D01*
X228543Y528193D02*
X230906D01*
X229724Y527012D02*
Y529374D01*
X216724Y535693D02*
X222724D01*
X216724Y530693D02*
Y535693D01*
Y530693D02*
X222724D01*
Y535693D01*
X219724Y532012D02*
Y534374D01*
X218543Y533193D02*
X220905D01*
X206724Y535693D02*
X212724D01*
X206724Y530693D02*
Y535693D01*
Y530693D02*
X212724D01*
Y535693D01*
X209724Y532012D02*
Y534374D01*
X208543Y533193D02*
X210906D01*
X196724Y535693D02*
X202724D01*
X196724Y530693D02*
Y535693D01*
Y530693D02*
X202724D01*
Y535693D01*
X199724Y532012D02*
Y534374D01*
X198543Y533193D02*
X200905D01*
X229803Y508661D02*
Y511024D01*
X228622Y509842D02*
X230984D01*
X226850Y508268D02*
X232756D01*
X226850Y511417D02*
X232756D01*
Y508268D02*
Y511417D01*
X226850Y508268D02*
Y511417D01*
X219724Y527012D02*
Y529374D01*
X218543Y528193D02*
X220905D01*
X216772Y529768D02*
X222677D01*
X216772Y526618D02*
X222677D01*
X216772D02*
Y529768D01*
X222677Y526618D02*
Y529768D01*
X209724Y527012D02*
Y529374D01*
X208543Y528193D02*
X210906D01*
X206772Y529768D02*
X212677D01*
X206772Y526618D02*
X212677D01*
X206772D02*
Y529768D01*
X212677Y526618D02*
Y529768D01*
X199724Y527012D02*
Y529374D01*
X198543Y528193D02*
X200905D01*
X196772Y529768D02*
X202677D01*
X196772Y526618D02*
X202677D01*
X196772D02*
Y529768D01*
X202677Y526618D02*
Y529768D01*
X219803Y508661D02*
Y511024D01*
X218622Y509842D02*
X220984D01*
X216850Y508268D02*
X222756D01*
X216850Y511417D02*
X222756D01*
Y508268D02*
Y511417D01*
X216850Y508268D02*
Y511417D01*
X209803Y508661D02*
Y511024D01*
X208622Y509842D02*
X210984D01*
X206850Y508268D02*
X212756D01*
X206850Y511417D02*
X212756D01*
Y508268D02*
Y511417D01*
X206850Y508268D02*
Y511417D01*
X199803Y508661D02*
Y511024D01*
X198622Y509842D02*
X200984D01*
X196850Y508268D02*
X202756D01*
X196850Y511417D02*
X202756D01*
Y508268D02*
Y511417D01*
X196850Y508268D02*
Y511417D01*
X588661Y536618D02*
Y539768D01*
X594567Y536618D02*
Y539768D01*
X588661D02*
X594567D01*
X588661Y536618D02*
X594567D01*
X590433Y538193D02*
X592795D01*
X591614Y537012D02*
Y539374D01*
X598661Y536618D02*
Y539768D01*
X604567Y536618D02*
Y539768D01*
X598661D02*
X604567D01*
X598661Y536618D02*
X604567D01*
X600433Y538193D02*
X602795D01*
X601614Y537012D02*
Y539374D01*
X608661Y536618D02*
Y539768D01*
X614567Y536618D02*
Y539768D01*
X608661D02*
X614567D01*
X608661Y536618D02*
X614567D01*
X610433Y538193D02*
X612795D01*
X611614Y537012D02*
Y539374D01*
X588614Y535693D02*
X594614D01*
X588614Y530693D02*
Y535693D01*
Y530693D02*
X594614D01*
Y535693D01*
X591614Y532012D02*
Y534374D01*
X590433Y533193D02*
X592795D01*
X598614Y535693D02*
X604614D01*
X598614Y530693D02*
Y535693D01*
Y530693D02*
X604614D01*
Y535693D01*
X601614Y532012D02*
Y534374D01*
X600433Y533193D02*
X602795D01*
X608614Y535693D02*
X614614D01*
X608614Y530693D02*
Y535693D01*
Y530693D02*
X614614D01*
Y535693D01*
X611614Y532012D02*
Y534374D01*
X610433Y533193D02*
X612795D01*
X591614Y527012D02*
Y529374D01*
X590433Y528193D02*
X592795D01*
X588661Y529768D02*
X594567D01*
X588661Y526618D02*
X594567D01*
X588661D02*
Y529768D01*
X594567Y526618D02*
Y529768D01*
X601614Y527012D02*
Y529374D01*
X600433Y528193D02*
X602795D01*
X598661Y529768D02*
X604567D01*
X598661Y526618D02*
X604567D01*
X598661D02*
Y529768D01*
X604567Y526618D02*
Y529768D01*
X611614Y527012D02*
Y529374D01*
X610433Y528193D02*
X612795D01*
X608661Y529768D02*
X614567D01*
X608661Y526618D02*
X614567D01*
X608661D02*
Y529768D01*
X614567Y526618D02*
Y529768D01*
X591535Y508661D02*
Y511024D01*
X590354Y509842D02*
X592717D01*
X588583Y508268D02*
X594488D01*
X588583Y511417D02*
X594488D01*
Y508268D02*
Y511417D01*
X588583Y508268D02*
Y511417D01*
X601535Y508661D02*
Y511024D01*
X600354Y509842D02*
X602716D01*
X598583Y508268D02*
X604488D01*
X598583Y511417D02*
X604488D01*
Y508268D02*
Y511417D01*
X598583Y508268D02*
Y511417D01*
X611535Y508661D02*
Y511024D01*
X610354Y509842D02*
X612716D01*
X608583Y508268D02*
X614488D01*
X608583Y511417D02*
X614488D01*
Y508268D02*
Y511417D01*
X608583Y508268D02*
Y511417D01*
X558661Y536618D02*
Y539768D01*
X564567Y536618D02*
Y539768D01*
X558661D02*
X564567D01*
X558661Y536618D02*
X564567D01*
X560433Y538193D02*
X562795D01*
X561614Y537012D02*
Y539374D01*
X568661Y536618D02*
Y539768D01*
X574567Y536618D02*
Y539768D01*
X568661D02*
X574567D01*
X568661Y536618D02*
X574567D01*
X570433Y538193D02*
X572795D01*
X571614Y537012D02*
Y539374D01*
X578661Y536618D02*
Y539768D01*
X584567Y536618D02*
Y539768D01*
X578661D02*
X584567D01*
X578661Y536618D02*
X584567D01*
X580433Y538193D02*
X582795D01*
X581614Y537012D02*
Y539374D01*
X558614Y535693D02*
X564614D01*
X558614Y530693D02*
Y535693D01*
Y530693D02*
X564614D01*
Y535693D01*
X561614Y532012D02*
Y534374D01*
X560433Y533193D02*
X562795D01*
X568614Y535693D02*
X574614D01*
X568614Y530693D02*
Y535693D01*
Y530693D02*
X574614D01*
Y535693D01*
X571614Y532012D02*
Y534374D01*
X570433Y533193D02*
X572795D01*
X578614Y535693D02*
X584614D01*
X578614Y530693D02*
Y535693D01*
Y530693D02*
X584614D01*
Y535693D01*
X581614Y532012D02*
Y534374D01*
X580433Y533193D02*
X582795D01*
X561614Y527012D02*
Y529374D01*
X560433Y528193D02*
X562795D01*
X558661Y529768D02*
X564567D01*
X558661Y526618D02*
X564567D01*
X558661D02*
Y529768D01*
X564567Y526618D02*
Y529768D01*
X571614Y527012D02*
Y529374D01*
X570433Y528193D02*
X572795D01*
X568661Y529768D02*
X574567D01*
X568661Y526618D02*
X574567D01*
X568661D02*
Y529768D01*
X574567Y526618D02*
Y529768D01*
X581614Y527012D02*
Y529374D01*
X580433Y528193D02*
X582795D01*
X578661Y529768D02*
X584567D01*
X578661Y526618D02*
X584567D01*
X578661D02*
Y529768D01*
X584567Y526618D02*
Y529768D01*
X561535Y508661D02*
Y511024D01*
X560354Y509842D02*
X562716D01*
X558583Y508268D02*
X564488D01*
X558583Y511417D02*
X564488D01*
Y508268D02*
Y511417D01*
X558583Y508268D02*
Y511417D01*
X571535Y508661D02*
Y511024D01*
X570354Y509842D02*
X572717D01*
X568583Y508268D02*
X574488D01*
X568583Y511417D02*
X574488D01*
Y508268D02*
Y511417D01*
X568583Y508268D02*
Y511417D01*
X581535Y508661D02*
Y511024D01*
X580354Y509842D02*
X582717D01*
X578583Y508268D02*
X584488D01*
X578583Y511417D02*
X584488D01*
Y508268D02*
Y511417D01*
X578583Y508268D02*
Y511417D01*
X896890Y509122D02*
Y511484D01*
X895709Y510303D02*
X898071D01*
X893937Y511878D02*
X899842D01*
X893937Y508728D02*
X899842D01*
X893937D02*
Y511878D01*
X899842Y508728D02*
Y511878D01*
X906890Y509122D02*
Y511484D01*
X905709Y510303D02*
X908071D01*
X903937Y511878D02*
X909842D01*
X903937Y508728D02*
X909842D01*
X903937D02*
Y511878D01*
X909842Y508728D02*
Y511878D01*
X886890Y509122D02*
Y511484D01*
X885709Y510303D02*
X888071D01*
X883937Y511878D02*
X889843D01*
X883937Y508728D02*
X889843D01*
X883937D02*
Y511878D01*
X889843Y508728D02*
Y511878D01*
M02*
