G04*
G04 #@! TF.GenerationSoftware,Altium Limited,Altium Designer,20.0.13 (296)*
G04*
G04 Layer_Color=8421504*
%FSLAX25Y25*%
%MOIN*%
G70*
G01*
G75*
%ADD16R,0.05787X0.02914*%
%ADD17R,0.01850X0.02047*%
%ADD18R,0.02047X0.01850*%
%ADD19R,0.02362X0.01968*%
%ADD20R,0.01575X0.01575*%
%ADD21R,0.01575X0.01575*%
%ADD22R,0.05906X0.04331*%
%ADD23R,0.03150X0.01968*%
%ADD24R,0.00984X0.01968*%
%ADD25R,0.09843X0.06299*%
%ADD26R,0.05906X0.01772*%
%ADD27R,0.08268X0.11811*%
G04:AMPARAMS|DCode=28|XSize=62.99mil|YSize=31.89mil|CornerRadius=3.19mil|HoleSize=0mil|Usage=FLASHONLY|Rotation=270.000|XOffset=0mil|YOffset=0mil|HoleType=Round|Shape=RoundedRectangle|*
%AMROUNDEDRECTD28*
21,1,0.06299,0.02551,0,0,270.0*
21,1,0.05661,0.03189,0,0,270.0*
1,1,0.00638,-0.01276,-0.02831*
1,1,0.00638,-0.01276,0.02831*
1,1,0.00638,0.01276,0.02831*
1,1,0.00638,0.01276,-0.02831*
%
%ADD28ROUNDEDRECTD28*%
%ADD29R,0.03937X0.01968*%
%ADD30R,0.01968X0.02362*%
%ADD31R,0.03740X0.05906*%
%ADD32R,0.12795X0.05906*%
%ADD33R,0.05709X0.07677*%
%ADD34R,0.11024X0.08661*%
%ADD35R,0.04724X0.08661*%
%ADD36R,0.01968X0.03937*%
%ADD37R,0.04331X0.04331*%
%ADD38R,0.05787X0.02913*%
D16*
X634303Y426831D02*
D03*
X621602D02*
D03*
X634303Y421831D02*
D03*
X621602D02*
D03*
X634303Y416831D02*
D03*
X621602D02*
D03*
X634303Y411831D02*
D03*
X621602D02*
D03*
X634303Y406831D02*
D03*
X621602D02*
D03*
X634303Y401831D02*
D03*
X621602D02*
D03*
X634303Y396831D02*
D03*
X621602D02*
D03*
X634303Y391831D02*
D03*
X621602D02*
D03*
X634303Y386831D02*
D03*
X621602D02*
D03*
X634303Y381831D02*
D03*
X621602D02*
D03*
X634303Y376831D02*
D03*
X621602D02*
D03*
X634303Y371831D02*
D03*
X621602D02*
D03*
X634303Y366831D02*
D03*
X621602D02*
D03*
X634303Y361831D02*
D03*
X621602D02*
D03*
X634303Y356831D02*
D03*
X621602D02*
D03*
X634303Y351831D02*
D03*
X621602D02*
D03*
X634303Y346831D02*
D03*
X621602D02*
D03*
X634303Y341831D02*
D03*
X621602D02*
D03*
X634303Y336831D02*
D03*
X621602D02*
D03*
X634303Y331831D02*
D03*
X621602D02*
D03*
X634303Y326831D02*
D03*
X621602D02*
D03*
X634303Y321831D02*
D03*
X621602D02*
D03*
X634303Y316831D02*
D03*
X621602D02*
D03*
X634303Y311831D02*
D03*
X621602D02*
D03*
X634303Y306831D02*
D03*
X621602D02*
D03*
X634303Y301831D02*
D03*
X621602D02*
D03*
X634303Y296831D02*
D03*
X621602D02*
D03*
X634303Y291831D02*
D03*
X621602D02*
D03*
X634303Y286831D02*
D03*
X621602D02*
D03*
X634303Y281831D02*
D03*
X621602D02*
D03*
X398083Y426831D02*
D03*
X385382D02*
D03*
X398083Y421831D02*
D03*
X385382D02*
D03*
X398083Y416831D02*
D03*
X385382D02*
D03*
X398083Y411831D02*
D03*
X385382D02*
D03*
X398083Y406831D02*
D03*
X385382D02*
D03*
X398083Y401831D02*
D03*
X385382D02*
D03*
X398083Y396831D02*
D03*
X385382D02*
D03*
X398083Y391831D02*
D03*
X385382D02*
D03*
X398083Y386831D02*
D03*
X385382D02*
D03*
X398083Y381831D02*
D03*
X385382D02*
D03*
X398083Y376831D02*
D03*
X385382D02*
D03*
X398083Y371831D02*
D03*
X385382D02*
D03*
X398083Y366831D02*
D03*
X385382D02*
D03*
X398083Y361831D02*
D03*
X385382D02*
D03*
X398083Y356831D02*
D03*
X385382D02*
D03*
X398083Y351831D02*
D03*
X385382D02*
D03*
X398083Y346831D02*
D03*
X385382D02*
D03*
X398083Y341831D02*
D03*
X385382D02*
D03*
X398083Y336831D02*
D03*
X385382D02*
D03*
X398083Y331831D02*
D03*
X385382D02*
D03*
X398083Y326831D02*
D03*
X385382D02*
D03*
X398083Y321831D02*
D03*
X385382D02*
D03*
X398083Y316831D02*
D03*
X385382D02*
D03*
X398083Y311831D02*
D03*
X385382D02*
D03*
X398083Y306831D02*
D03*
X385382D02*
D03*
X398083Y301831D02*
D03*
X385382D02*
D03*
X398083Y296831D02*
D03*
X385382D02*
D03*
X398083Y291831D02*
D03*
X385382D02*
D03*
X398083Y286831D02*
D03*
X385382D02*
D03*
X398083Y281831D02*
D03*
X385382D02*
D03*
D17*
X525630Y22835D02*
D03*
X522244D02*
D03*
X549252D02*
D03*
X545866D02*
D03*
X572874D02*
D03*
X569488D02*
D03*
X596496D02*
D03*
X593111D02*
D03*
X635866D02*
D03*
X632481D02*
D03*
X659488D02*
D03*
X656103D02*
D03*
X683111D02*
D03*
X679725D02*
D03*
X706733D02*
D03*
X703347D02*
D03*
X730355D02*
D03*
X726969D02*
D03*
X753977D02*
D03*
X750591D02*
D03*
X777599D02*
D03*
X774213D02*
D03*
X801221D02*
D03*
X797835D02*
D03*
X1005945D02*
D03*
X1002559D02*
D03*
X982323D02*
D03*
X978937D02*
D03*
X958701D02*
D03*
X955315D02*
D03*
X935079D02*
D03*
X931693D02*
D03*
X911457D02*
D03*
X908071D02*
D03*
X887835D02*
D03*
X884449D02*
D03*
X864213D02*
D03*
X860827D02*
D03*
X840591D02*
D03*
X837205D02*
D03*
X109843Y326772D02*
D03*
X113228D02*
D03*
X109843Y330709D02*
D03*
X113228D02*
D03*
X905551Y366142D02*
D03*
X902165D02*
D03*
X905551Y425197D02*
D03*
X902165D02*
D03*
X990433Y259842D02*
D03*
X993819D02*
D03*
Y263779D02*
D03*
X990433D02*
D03*
Y267717D02*
D03*
X993819D02*
D03*
X990433Y271654D02*
D03*
X993819D02*
D03*
X990433Y318898D02*
D03*
X993819D02*
D03*
Y322835D02*
D03*
X990433D02*
D03*
Y326772D02*
D03*
X993819D02*
D03*
X990433Y330709D02*
D03*
X993819D02*
D03*
X990433Y377953D02*
D03*
X993819D02*
D03*
Y381890D02*
D03*
X990433D02*
D03*
Y385827D02*
D03*
X993819D02*
D03*
X990433Y389764D02*
D03*
X993819D02*
D03*
X974193Y370079D02*
D03*
X970807D02*
D03*
X974193Y311024D02*
D03*
X970807D02*
D03*
X974193Y251969D02*
D03*
X970807D02*
D03*
X974193Y279528D02*
D03*
X970807D02*
D03*
X974193Y338583D02*
D03*
X970807D02*
D03*
X974193Y397638D02*
D03*
X970807D02*
D03*
X967390D02*
D03*
X964004D02*
D03*
X967390Y338583D02*
D03*
X964004D02*
D03*
X967390Y279528D02*
D03*
X964004D02*
D03*
X974193Y429134D02*
D03*
X970807D02*
D03*
X974193Y456693D02*
D03*
X970807D02*
D03*
X967390D02*
D03*
X964004D02*
D03*
X990433Y437008D02*
D03*
X993819D02*
D03*
Y440945D02*
D03*
X990433D02*
D03*
Y444882D02*
D03*
X993819D02*
D03*
X990433Y448819D02*
D03*
X993819D02*
D03*
X774961Y510303D02*
D03*
X778346D02*
D03*
X784961D02*
D03*
X788346D02*
D03*
X794961D02*
D03*
X798347D02*
D03*
X168032Y538193D02*
D03*
X171417D02*
D03*
X168032Y528193D02*
D03*
X171417D02*
D03*
X326417Y83874D02*
D03*
X323031D02*
D03*
X350039D02*
D03*
X346654D02*
D03*
X373661D02*
D03*
X370276D02*
D03*
X397284D02*
D03*
X393898D02*
D03*
X231929D02*
D03*
X228543D02*
D03*
X255551D02*
D03*
X252165D02*
D03*
X279173D02*
D03*
X275787D02*
D03*
X302795D02*
D03*
X299410D02*
D03*
X531142D02*
D03*
X527756D02*
D03*
X554764D02*
D03*
X551378D02*
D03*
X578386D02*
D03*
X575000D02*
D03*
X602008D02*
D03*
X598622D02*
D03*
X436654D02*
D03*
X433268D02*
D03*
X460276D02*
D03*
X456890D02*
D03*
X483898D02*
D03*
X480512D02*
D03*
X507520D02*
D03*
X504134D02*
D03*
X735866D02*
D03*
X732480D02*
D03*
X759488D02*
D03*
X756102D02*
D03*
X783110D02*
D03*
X779724D02*
D03*
X806732D02*
D03*
X803347D02*
D03*
X641378D02*
D03*
X637992D02*
D03*
X665000D02*
D03*
X661614D02*
D03*
X688622D02*
D03*
X685236D02*
D03*
X712244D02*
D03*
X708858D02*
D03*
X940591D02*
D03*
X937205D02*
D03*
X964213D02*
D03*
X960827D02*
D03*
X987835D02*
D03*
X984449D02*
D03*
X1011457D02*
D03*
X1008071D02*
D03*
X846102D02*
D03*
X842717D02*
D03*
X869724D02*
D03*
X866339D02*
D03*
X893347D02*
D03*
X889961D02*
D03*
X916969D02*
D03*
X913583D02*
D03*
X50827D02*
D03*
X47441D02*
D03*
X74449D02*
D03*
X71063D02*
D03*
X98071D02*
D03*
X94685D02*
D03*
X121693D02*
D03*
X118307D02*
D03*
X145315D02*
D03*
X141929D02*
D03*
X168937D02*
D03*
X165551D02*
D03*
X192559D02*
D03*
X189173D02*
D03*
X27283D02*
D03*
X23898D02*
D03*
X223032Y22835D02*
D03*
X226418D02*
D03*
X246654D02*
D03*
X250040D02*
D03*
X270276D02*
D03*
X273662D02*
D03*
X293898D02*
D03*
X297284D02*
D03*
X317520D02*
D03*
X320906D02*
D03*
X341142D02*
D03*
X344528D02*
D03*
X364764D02*
D03*
X368150D02*
D03*
X388386D02*
D03*
X391772D02*
D03*
X427756D02*
D03*
X431142D02*
D03*
X451378D02*
D03*
X454764D02*
D03*
X475000D02*
D03*
X478386D02*
D03*
X498622D02*
D03*
X502008D02*
D03*
X41929D02*
D03*
X45315D02*
D03*
X65551D02*
D03*
X68937D02*
D03*
X89173D02*
D03*
X92559D02*
D03*
X112795D02*
D03*
X116181D02*
D03*
X136417D02*
D03*
X139803D02*
D03*
X160039D02*
D03*
X163425D02*
D03*
X183661D02*
D03*
X187047D02*
D03*
X18307D02*
D03*
X21693D02*
D03*
X521496Y538193D02*
D03*
X524882D02*
D03*
X491496D02*
D03*
X494882D02*
D03*
X481496D02*
D03*
X484882D02*
D03*
X521496Y528193D02*
D03*
X524882D02*
D03*
X491496D02*
D03*
X494882D02*
D03*
X481496D02*
D03*
X484882D02*
D03*
X501496Y538193D02*
D03*
X504882D02*
D03*
X511496D02*
D03*
X514882D02*
D03*
X501496Y528193D02*
D03*
X504882D02*
D03*
X511496D02*
D03*
X514882D02*
D03*
X188031Y538193D02*
D03*
X191417D02*
D03*
X178032Y538193D02*
D03*
X181417D02*
D03*
X68622Y500000D02*
D03*
X65236D02*
D03*
X188031Y528193D02*
D03*
X191417D02*
D03*
X178032D02*
D03*
X181417D02*
D03*
X218032Y538193D02*
D03*
X221417D02*
D03*
X208032D02*
D03*
X211417D02*
D03*
X198031D02*
D03*
X201417D02*
D03*
X231417Y528193D02*
D03*
X228031D02*
D03*
X218032D02*
D03*
X221417D02*
D03*
X208032D02*
D03*
X211417D02*
D03*
X198031D02*
D03*
X201417D02*
D03*
X589921Y538193D02*
D03*
X593307D02*
D03*
X599921D02*
D03*
X603307D02*
D03*
X609921D02*
D03*
X613307D02*
D03*
X589921Y528193D02*
D03*
X593307D02*
D03*
X599921D02*
D03*
X603307D02*
D03*
X609921D02*
D03*
X613307D02*
D03*
X559921Y538193D02*
D03*
X563307D02*
D03*
X569921D02*
D03*
X573307D02*
D03*
X579921D02*
D03*
X583307D02*
D03*
X559921Y528193D02*
D03*
X563307D02*
D03*
X569921D02*
D03*
X573307D02*
D03*
X579921D02*
D03*
X583307D02*
D03*
X895197Y510303D02*
D03*
X898583D02*
D03*
X905197D02*
D03*
X908583D02*
D03*
X885197D02*
D03*
X888583D02*
D03*
D18*
X181102Y335236D02*
D03*
Y338622D02*
D03*
X177165D02*
D03*
Y335236D02*
D03*
X200787Y387520D02*
D03*
Y384134D02*
D03*
Y411142D02*
D03*
Y407756D02*
D03*
X74646Y383583D02*
D03*
Y380197D02*
D03*
X78504D02*
D03*
Y383583D02*
D03*
X102362Y342874D02*
D03*
Y346260D02*
D03*
X765512Y325079D02*
D03*
Y328465D02*
D03*
X761969D02*
D03*
Y325079D02*
D03*
X765512Y384134D02*
D03*
Y387520D02*
D03*
X761969D02*
D03*
Y384134D02*
D03*
X765512Y443189D02*
D03*
Y446575D02*
D03*
X761969D02*
D03*
Y443189D02*
D03*
X889764Y323110D02*
D03*
Y326496D02*
D03*
X897638D02*
D03*
Y323110D02*
D03*
X889764Y382165D02*
D03*
Y385551D02*
D03*
Y441221D02*
D03*
Y444606D02*
D03*
X960000Y267480D02*
D03*
Y270866D02*
D03*
Y326535D02*
D03*
Y329921D02*
D03*
Y385591D02*
D03*
Y388976D02*
D03*
Y444646D02*
D03*
Y448032D02*
D03*
X387246Y517992D02*
D03*
Y521378D02*
D03*
X382324Y517992D02*
D03*
Y521378D02*
D03*
X377403Y517992D02*
D03*
Y521378D02*
D03*
X300631Y517992D02*
D03*
Y521378D02*
D03*
X295710Y517992D02*
D03*
Y521378D02*
D03*
X290789Y517992D02*
D03*
Y521378D02*
D03*
X184803Y285193D02*
D03*
Y281807D02*
D03*
X180945D02*
D03*
Y285193D02*
D03*
X111417Y507801D02*
D03*
Y511187D02*
D03*
X102362D02*
D03*
Y507801D02*
D03*
X97835D02*
D03*
Y511187D02*
D03*
X93307Y507801D02*
D03*
Y511187D02*
D03*
X555110Y339713D02*
D03*
Y343098D02*
D03*
X490622Y417665D02*
D03*
Y421051D02*
D03*
X499598Y417665D02*
D03*
Y421051D02*
D03*
X507866Y417665D02*
D03*
Y421051D02*
D03*
X520622Y417665D02*
D03*
Y421051D02*
D03*
X318898Y77181D02*
D03*
Y80567D02*
D03*
X342520Y77181D02*
D03*
Y80567D02*
D03*
X366142Y77181D02*
D03*
Y80567D02*
D03*
X389764Y77181D02*
D03*
Y80567D02*
D03*
X224410Y77181D02*
D03*
Y80567D02*
D03*
X248031Y77181D02*
D03*
Y80567D02*
D03*
X271654Y77181D02*
D03*
Y80567D02*
D03*
X295276Y77181D02*
D03*
Y80567D02*
D03*
X523622Y77181D02*
D03*
Y80567D02*
D03*
X547244Y77181D02*
D03*
Y80567D02*
D03*
X570866Y77181D02*
D03*
Y80567D02*
D03*
X594488Y77181D02*
D03*
Y80567D02*
D03*
X429134Y77181D02*
D03*
Y80567D02*
D03*
X452756Y77181D02*
D03*
Y80567D02*
D03*
X476378Y77181D02*
D03*
Y80567D02*
D03*
X500000Y77181D02*
D03*
Y80567D02*
D03*
X728346Y77181D02*
D03*
Y80567D02*
D03*
X751968Y77181D02*
D03*
Y80567D02*
D03*
X775591Y77181D02*
D03*
Y80567D02*
D03*
X799213Y77181D02*
D03*
Y80567D02*
D03*
X633858Y77181D02*
D03*
Y80567D02*
D03*
X657480Y77181D02*
D03*
Y80567D02*
D03*
X681102Y77181D02*
D03*
Y80567D02*
D03*
X704724Y77181D02*
D03*
Y80567D02*
D03*
X933071Y77181D02*
D03*
Y80567D02*
D03*
X956693Y77181D02*
D03*
Y80567D02*
D03*
X980315Y77181D02*
D03*
Y80567D02*
D03*
X1003937Y77181D02*
D03*
Y80567D02*
D03*
X838583Y77181D02*
D03*
Y80567D02*
D03*
X862205Y77181D02*
D03*
Y80567D02*
D03*
X885827Y77181D02*
D03*
Y80567D02*
D03*
X909449Y77181D02*
D03*
Y80567D02*
D03*
X43307Y77181D02*
D03*
Y80567D02*
D03*
X66929Y77181D02*
D03*
Y80567D02*
D03*
X90551Y77181D02*
D03*
Y80567D02*
D03*
X114173Y77181D02*
D03*
Y80567D02*
D03*
X137795Y77181D02*
D03*
Y80567D02*
D03*
X161417Y77181D02*
D03*
Y80567D02*
D03*
X185039Y77181D02*
D03*
Y80567D02*
D03*
X19685Y77181D02*
D03*
Y80567D02*
D03*
X1015315Y136102D02*
D03*
Y139488D02*
D03*
X1005315Y136102D02*
D03*
Y139488D02*
D03*
X995315Y136102D02*
D03*
Y139488D02*
D03*
X985315Y136102D02*
D03*
Y139488D02*
D03*
X975315Y136102D02*
D03*
Y139488D02*
D03*
X965315Y136102D02*
D03*
Y139488D02*
D03*
X955315Y136102D02*
D03*
Y139488D02*
D03*
X945315Y136102D02*
D03*
Y139488D02*
D03*
X740590Y136102D02*
D03*
Y139488D02*
D03*
X750591Y136102D02*
D03*
Y139488D02*
D03*
X760591Y136102D02*
D03*
Y139488D02*
D03*
X770590Y136102D02*
D03*
Y139488D02*
D03*
X780590Y136102D02*
D03*
Y139488D02*
D03*
X790590Y136102D02*
D03*
Y139488D02*
D03*
X800591Y136102D02*
D03*
Y139488D02*
D03*
X810590Y136102D02*
D03*
Y139488D02*
D03*
X535866Y136102D02*
D03*
Y139488D02*
D03*
X545866Y136102D02*
D03*
Y139488D02*
D03*
X555866Y136102D02*
D03*
Y139488D02*
D03*
X565866Y136102D02*
D03*
Y139488D02*
D03*
X575866Y136102D02*
D03*
Y139488D02*
D03*
X585866Y136102D02*
D03*
Y139488D02*
D03*
X595866Y136102D02*
D03*
Y139488D02*
D03*
X605866Y136102D02*
D03*
Y139488D02*
D03*
X331142Y136102D02*
D03*
Y139488D02*
D03*
X341142Y136102D02*
D03*
Y139488D02*
D03*
X351142Y136102D02*
D03*
Y139488D02*
D03*
X361142Y136102D02*
D03*
Y139488D02*
D03*
X371142Y136102D02*
D03*
Y139488D02*
D03*
X381142Y136102D02*
D03*
Y139488D02*
D03*
X391142Y136102D02*
D03*
Y139488D02*
D03*
X401142Y136102D02*
D03*
Y139488D02*
D03*
X912953Y136102D02*
D03*
Y139488D02*
D03*
X902953Y136102D02*
D03*
Y139488D02*
D03*
X892953Y136102D02*
D03*
Y139488D02*
D03*
X882953Y136102D02*
D03*
Y139488D02*
D03*
X872953Y136102D02*
D03*
Y139488D02*
D03*
X862953Y136102D02*
D03*
Y139488D02*
D03*
X852953Y136102D02*
D03*
Y139488D02*
D03*
X842953Y136102D02*
D03*
Y139488D02*
D03*
X708228Y136102D02*
D03*
Y139488D02*
D03*
X698228Y136102D02*
D03*
Y139488D02*
D03*
X688228Y136102D02*
D03*
Y139488D02*
D03*
X678228Y136102D02*
D03*
Y139488D02*
D03*
X668228Y136102D02*
D03*
Y139488D02*
D03*
X658228Y136102D02*
D03*
Y139488D02*
D03*
X648228Y136102D02*
D03*
Y139488D02*
D03*
X638228Y136102D02*
D03*
Y139488D02*
D03*
X503504Y136102D02*
D03*
Y139488D02*
D03*
X493504Y136102D02*
D03*
Y139488D02*
D03*
X483504Y136102D02*
D03*
Y139488D02*
D03*
X473504Y136102D02*
D03*
Y139488D02*
D03*
X463504Y136102D02*
D03*
Y139488D02*
D03*
X453504Y136102D02*
D03*
Y139488D02*
D03*
X443504Y136102D02*
D03*
Y139488D02*
D03*
X433504Y136102D02*
D03*
Y139488D02*
D03*
X228780Y136102D02*
D03*
Y139488D02*
D03*
X238779Y136102D02*
D03*
Y139488D02*
D03*
X248780Y136102D02*
D03*
Y139488D02*
D03*
X258780Y136102D02*
D03*
Y139488D02*
D03*
X268779Y136102D02*
D03*
Y139488D02*
D03*
X278780Y136102D02*
D03*
Y139488D02*
D03*
X288779Y136102D02*
D03*
Y139488D02*
D03*
X298780Y136102D02*
D03*
Y139488D02*
D03*
X126417Y136102D02*
D03*
Y139488D02*
D03*
X136417Y136102D02*
D03*
Y139488D02*
D03*
X146417Y136102D02*
D03*
Y139488D02*
D03*
X156417Y136102D02*
D03*
Y139488D02*
D03*
X166417Y136102D02*
D03*
Y139488D02*
D03*
X176417Y136102D02*
D03*
Y139488D02*
D03*
X186417Y136102D02*
D03*
Y139488D02*
D03*
X196417Y136102D02*
D03*
Y139488D02*
D03*
X94000Y136102D02*
D03*
Y139488D02*
D03*
X84000Y136102D02*
D03*
Y139488D02*
D03*
X74000Y136102D02*
D03*
Y139488D02*
D03*
X64000Y136102D02*
D03*
Y139488D02*
D03*
X54000Y136102D02*
D03*
Y139488D02*
D03*
X44000Y136102D02*
D03*
Y139488D02*
D03*
X34000Y136102D02*
D03*
Y139488D02*
D03*
X24000Y136102D02*
D03*
Y139488D02*
D03*
D19*
X185039Y387520D02*
D03*
Y383976D02*
D03*
Y411221D02*
D03*
Y407677D02*
D03*
X748032Y323031D02*
D03*
Y326575D02*
D03*
Y382087D02*
D03*
Y385630D02*
D03*
Y441142D02*
D03*
Y444685D02*
D03*
X874016Y323031D02*
D03*
Y326575D02*
D03*
Y382087D02*
D03*
Y385630D02*
D03*
Y441142D02*
D03*
Y444685D02*
D03*
X956000Y270866D02*
D03*
Y267323D02*
D03*
Y329921D02*
D03*
Y326378D02*
D03*
Y388976D02*
D03*
Y385433D02*
D03*
Y448032D02*
D03*
Y444488D02*
D03*
X392167Y517835D02*
D03*
Y521378D02*
D03*
X305553Y517835D02*
D03*
Y521378D02*
D03*
X938976Y70272D02*
D03*
Y66728D02*
D03*
X962598Y70272D02*
D03*
Y66728D02*
D03*
X986220Y70272D02*
D03*
Y66728D02*
D03*
X1009842Y70272D02*
D03*
Y66728D02*
D03*
X844488Y70272D02*
D03*
Y66728D02*
D03*
X868110Y70272D02*
D03*
Y66728D02*
D03*
X891732Y70272D02*
D03*
Y66728D02*
D03*
X915354Y70272D02*
D03*
Y66728D02*
D03*
X734252Y70272D02*
D03*
Y66728D02*
D03*
X757874Y70272D02*
D03*
Y66728D02*
D03*
X781496Y70272D02*
D03*
Y66728D02*
D03*
X805118Y70272D02*
D03*
Y66728D02*
D03*
X639764Y70272D02*
D03*
Y66728D02*
D03*
X663386Y70272D02*
D03*
Y66728D02*
D03*
X687008Y70272D02*
D03*
Y66728D02*
D03*
X710630Y70272D02*
D03*
Y66728D02*
D03*
X529528Y70272D02*
D03*
Y66728D02*
D03*
X553150Y70272D02*
D03*
Y66728D02*
D03*
X576772Y70272D02*
D03*
Y66728D02*
D03*
X600394Y70272D02*
D03*
Y66728D02*
D03*
X435039Y70272D02*
D03*
Y66728D02*
D03*
X458661Y70272D02*
D03*
Y66728D02*
D03*
X482283Y70272D02*
D03*
Y66728D02*
D03*
X505905Y70272D02*
D03*
Y66728D02*
D03*
X324803Y70272D02*
D03*
Y66728D02*
D03*
X348425Y70272D02*
D03*
Y66728D02*
D03*
X372047Y70272D02*
D03*
Y66728D02*
D03*
X395669Y70272D02*
D03*
Y66728D02*
D03*
X230315Y70272D02*
D03*
Y66728D02*
D03*
X253937Y70272D02*
D03*
Y66728D02*
D03*
X277559Y70272D02*
D03*
Y66728D02*
D03*
X301181Y70272D02*
D03*
Y66728D02*
D03*
X49213Y70272D02*
D03*
Y66728D02*
D03*
X72835Y70272D02*
D03*
Y66728D02*
D03*
X96457Y70272D02*
D03*
Y66728D02*
D03*
X120079Y70272D02*
D03*
Y66728D02*
D03*
X143701Y70272D02*
D03*
Y66728D02*
D03*
X167323Y70272D02*
D03*
Y66728D02*
D03*
X190945Y70272D02*
D03*
Y66728D02*
D03*
X25591Y70272D02*
D03*
Y66728D02*
D03*
D20*
X194685Y385827D02*
D03*
Y409449D02*
D03*
X765551Y318898D02*
D03*
Y377953D02*
D03*
Y437008D02*
D03*
X883661Y324803D02*
D03*
Y383858D02*
D03*
Y442913D02*
D03*
X167953Y533193D02*
D03*
X326575Y78874D02*
D03*
X350197D02*
D03*
X373819D02*
D03*
X397441D02*
D03*
X232087D02*
D03*
X255709D02*
D03*
X279331D02*
D03*
X302953D02*
D03*
X531299D02*
D03*
X554921D02*
D03*
X578543D02*
D03*
X602165D02*
D03*
X436811D02*
D03*
X460433D02*
D03*
X484055D02*
D03*
X507677D02*
D03*
X736024D02*
D03*
X759646D02*
D03*
X783268D02*
D03*
X806890D02*
D03*
X641535D02*
D03*
X665158D02*
D03*
X688779D02*
D03*
X712402D02*
D03*
X940748D02*
D03*
X964370D02*
D03*
X987992D02*
D03*
X1011614D02*
D03*
X846260D02*
D03*
X869882D02*
D03*
X893504D02*
D03*
X917126D02*
D03*
X50984D02*
D03*
X74606D02*
D03*
X98228D02*
D03*
X121850D02*
D03*
X145472D02*
D03*
X169095D02*
D03*
X192717D02*
D03*
X27362D02*
D03*
X521232Y533193D02*
D03*
X491417D02*
D03*
X481417D02*
D03*
X501417D02*
D03*
X511417D02*
D03*
X187953D02*
D03*
X177953D02*
D03*
X217953D02*
D03*
X207953D02*
D03*
X197953D02*
D03*
X589843D02*
D03*
X599843D02*
D03*
X609842D02*
D03*
X559842D02*
D03*
X569842D02*
D03*
X579843D02*
D03*
D21*
X191142Y384350D02*
D03*
Y387303D02*
D03*
Y407972D02*
D03*
Y410925D02*
D03*
X762008Y320374D02*
D03*
Y317421D02*
D03*
Y379429D02*
D03*
Y376476D02*
D03*
Y438484D02*
D03*
Y435532D02*
D03*
X880118Y326279D02*
D03*
Y323327D02*
D03*
Y385335D02*
D03*
Y382382D02*
D03*
Y444390D02*
D03*
Y441437D02*
D03*
X171496Y531716D02*
D03*
Y534669D02*
D03*
X323031Y80350D02*
D03*
Y77398D02*
D03*
X346654Y80350D02*
D03*
Y77398D02*
D03*
X370276Y80350D02*
D03*
Y77398D02*
D03*
X393898Y80350D02*
D03*
Y77398D02*
D03*
X228543Y80350D02*
D03*
Y77398D02*
D03*
X252165Y80350D02*
D03*
Y77398D02*
D03*
X275787Y80350D02*
D03*
Y77398D02*
D03*
X299410Y80350D02*
D03*
Y77398D02*
D03*
X527756Y80350D02*
D03*
Y77398D02*
D03*
X551378Y80350D02*
D03*
Y77398D02*
D03*
X575000Y80350D02*
D03*
Y77398D02*
D03*
X598622Y80350D02*
D03*
Y77398D02*
D03*
X433268Y80350D02*
D03*
Y77398D02*
D03*
X456890Y80350D02*
D03*
Y77398D02*
D03*
X480512Y80350D02*
D03*
Y77398D02*
D03*
X504134Y80350D02*
D03*
Y77398D02*
D03*
X732480Y80350D02*
D03*
Y77398D02*
D03*
X756102Y80350D02*
D03*
Y77398D02*
D03*
X779724Y80350D02*
D03*
Y77398D02*
D03*
X803347Y80350D02*
D03*
Y77398D02*
D03*
X637992Y80350D02*
D03*
Y77398D02*
D03*
X661614Y80350D02*
D03*
Y77398D02*
D03*
X685236Y80350D02*
D03*
Y77398D02*
D03*
X708858Y80350D02*
D03*
Y77398D02*
D03*
X937205Y80350D02*
D03*
Y77398D02*
D03*
X960827Y80350D02*
D03*
Y77398D02*
D03*
X984449Y80350D02*
D03*
Y77398D02*
D03*
X1008071Y80350D02*
D03*
Y77398D02*
D03*
X842717Y80350D02*
D03*
Y77398D02*
D03*
X866339Y80350D02*
D03*
Y77398D02*
D03*
X889961Y80350D02*
D03*
Y77398D02*
D03*
X913583Y80350D02*
D03*
Y77398D02*
D03*
X47441Y80350D02*
D03*
Y77398D02*
D03*
X71063Y80350D02*
D03*
Y77398D02*
D03*
X94685Y80350D02*
D03*
Y77398D02*
D03*
X118307Y80350D02*
D03*
Y77398D02*
D03*
X141929Y80350D02*
D03*
Y77398D02*
D03*
X165551Y80350D02*
D03*
Y77398D02*
D03*
X189173Y80350D02*
D03*
Y77398D02*
D03*
X23819Y80350D02*
D03*
Y77398D02*
D03*
X524776Y531716D02*
D03*
Y534669D02*
D03*
X494961Y531716D02*
D03*
Y534669D02*
D03*
X484961Y531716D02*
D03*
Y534669D02*
D03*
X504961Y531716D02*
D03*
Y534669D02*
D03*
X514961Y531716D02*
D03*
Y534669D02*
D03*
X191496Y531716D02*
D03*
Y534669D02*
D03*
X181496Y531716D02*
D03*
Y534669D02*
D03*
X221496Y531716D02*
D03*
Y534669D02*
D03*
X211496Y531716D02*
D03*
Y534669D02*
D03*
X201496Y531716D02*
D03*
Y534669D02*
D03*
X593386Y531716D02*
D03*
Y534669D02*
D03*
X603386Y531716D02*
D03*
Y534669D02*
D03*
X613386Y531716D02*
D03*
Y534669D02*
D03*
X563386Y531716D02*
D03*
Y534669D02*
D03*
X573386Y531716D02*
D03*
Y534669D02*
D03*
X583386Y531716D02*
D03*
Y534669D02*
D03*
D22*
X41535Y393701D02*
D03*
X76575D02*
D03*
X773819Y324803D02*
D03*
X808858D02*
D03*
X773819Y383858D02*
D03*
X808858D02*
D03*
X773819Y442913D02*
D03*
X808858D02*
D03*
X84449Y273146D02*
D03*
X49409D02*
D03*
X182874Y271000D02*
D03*
X147835D02*
D03*
D23*
X118504Y342520D02*
D03*
Y346260D02*
D03*
Y338779D02*
D03*
X109843D02*
D03*
Y342520D02*
D03*
Y346260D02*
D03*
D24*
X969886Y378740D02*
D03*
X971657D02*
D03*
X973429D02*
D03*
X968114D02*
D03*
X966343D02*
D03*
X964571D02*
D03*
X969886Y388976D02*
D03*
X971657D02*
D03*
X973429D02*
D03*
X968114D02*
D03*
X966343D02*
D03*
X964571D02*
D03*
X969886Y319685D02*
D03*
X971657D02*
D03*
X973429D02*
D03*
X968114D02*
D03*
X966343D02*
D03*
X964571D02*
D03*
X969886Y329921D02*
D03*
X971657D02*
D03*
X973429D02*
D03*
X968114D02*
D03*
X966343D02*
D03*
X964571D02*
D03*
X969886Y260630D02*
D03*
X971657D02*
D03*
X973429D02*
D03*
X968114D02*
D03*
X966343D02*
D03*
X964571D02*
D03*
X969886Y270866D02*
D03*
X971657D02*
D03*
X973429D02*
D03*
X968114D02*
D03*
X966343D02*
D03*
X964571D02*
D03*
X969886Y437795D02*
D03*
X971657D02*
D03*
X973429D02*
D03*
X968114D02*
D03*
X966343D02*
D03*
X964571D02*
D03*
X969886Y448032D02*
D03*
X971657D02*
D03*
X973429D02*
D03*
X968114D02*
D03*
X966343D02*
D03*
X964571D02*
D03*
D25*
X969000Y383858D02*
D03*
Y324803D02*
D03*
Y265748D02*
D03*
Y442913D02*
D03*
D26*
X1003937Y270866D02*
D03*
Y268307D02*
D03*
Y260630D02*
D03*
Y263189D02*
D03*
Y265748D02*
D03*
Y329921D02*
D03*
Y327362D02*
D03*
Y319685D02*
D03*
Y322244D02*
D03*
Y324803D02*
D03*
Y388976D02*
D03*
Y386417D02*
D03*
Y378740D02*
D03*
Y381299D02*
D03*
Y383858D02*
D03*
Y448032D02*
D03*
Y445472D02*
D03*
Y437795D02*
D03*
Y440354D02*
D03*
Y442913D02*
D03*
D27*
X412049Y544095D02*
D03*
X367364D02*
D03*
X325435D02*
D03*
X280750D02*
D03*
X904175D02*
D03*
X859490D02*
D03*
X793939D02*
D03*
X749254D02*
D03*
D28*
X397088Y532677D02*
D03*
X402009D02*
D03*
X392167D02*
D03*
X382324D02*
D03*
X387246D02*
D03*
X377403D02*
D03*
X310474D02*
D03*
X315395D02*
D03*
X305553D02*
D03*
X295710D02*
D03*
X300631D02*
D03*
X290789D02*
D03*
X889214D02*
D03*
X894135D02*
D03*
X884293D02*
D03*
X874450D02*
D03*
X879372D02*
D03*
X869529D02*
D03*
X778978D02*
D03*
X783899D02*
D03*
X774057D02*
D03*
X764214D02*
D03*
X769135D02*
D03*
X759293D02*
D03*
D29*
X251969Y386417D02*
D03*
Y400984D02*
D03*
X275590Y386417D02*
D03*
Y400984D02*
D03*
X251969Y307677D02*
D03*
Y322244D02*
D03*
X275590Y307677D02*
D03*
Y322244D02*
D03*
X169291Y349803D02*
D03*
Y335236D02*
D03*
X145669Y349803D02*
D03*
Y335236D02*
D03*
X70866Y349803D02*
D03*
Y335236D02*
D03*
X47244Y349803D02*
D03*
Y335236D02*
D03*
D30*
X181575Y509842D02*
D03*
X178032D02*
D03*
X171575D02*
D03*
X168032D02*
D03*
X524882D02*
D03*
X521339D02*
D03*
X494882D02*
D03*
X491339D02*
D03*
X484882D02*
D03*
X481339D02*
D03*
X504882D02*
D03*
X501339D02*
D03*
X514882D02*
D03*
X511339D02*
D03*
X68701Y494095D02*
D03*
X65158D02*
D03*
X191575Y509842D02*
D03*
X188031D02*
D03*
X231575D02*
D03*
X228031D02*
D03*
X221575D02*
D03*
X218032D02*
D03*
X211575D02*
D03*
X208032D02*
D03*
X201575D02*
D03*
X198031D02*
D03*
X593307D02*
D03*
X589764D02*
D03*
X603307D02*
D03*
X599764D02*
D03*
X613307D02*
D03*
X609764D02*
D03*
X563307D02*
D03*
X559764D02*
D03*
X573307D02*
D03*
X569764D02*
D03*
X583307D02*
D03*
X579764D02*
D03*
D31*
X111417Y519291D02*
D03*
X102362D02*
D03*
X93307D02*
D03*
D32*
X102362Y543701D02*
D03*
D33*
X547000Y390500D02*
D03*
X479441D02*
D03*
D34*
X520622Y407547D02*
D03*
X495110D02*
D03*
X520622Y341406D02*
D03*
X495110D02*
D03*
D35*
X507866Y407547D02*
D03*
Y341406D02*
D03*
D36*
X1017126Y27559D02*
D03*
X1002559D02*
D03*
X1017126Y51181D02*
D03*
X1002559D02*
D03*
X993504Y27559D02*
D03*
X978937D02*
D03*
X993504Y51181D02*
D03*
X978937D02*
D03*
X969882Y27559D02*
D03*
X955315D02*
D03*
X969882Y51181D02*
D03*
X955315D02*
D03*
X946260Y27559D02*
D03*
X931693D02*
D03*
X946260Y51181D02*
D03*
X931693D02*
D03*
X922638Y27559D02*
D03*
X908071D02*
D03*
X922638Y51181D02*
D03*
X908071D02*
D03*
X899016Y27559D02*
D03*
X884449D02*
D03*
X899016Y51181D02*
D03*
X884449D02*
D03*
X875394Y27559D02*
D03*
X860827D02*
D03*
X875394Y51181D02*
D03*
X860827D02*
D03*
X851772Y27559D02*
D03*
X837205D02*
D03*
X851772Y51181D02*
D03*
X837205D02*
D03*
X647048Y27559D02*
D03*
X632481D02*
D03*
X647048Y51181D02*
D03*
X632481D02*
D03*
X670670Y27559D02*
D03*
X656103D02*
D03*
X670670Y51181D02*
D03*
X656103D02*
D03*
X694292Y27559D02*
D03*
X679725D02*
D03*
X694292Y51181D02*
D03*
X679725D02*
D03*
X717914Y27559D02*
D03*
X703347D02*
D03*
X717914Y51181D02*
D03*
X703347D02*
D03*
X741536Y27559D02*
D03*
X726969D02*
D03*
X741536Y51181D02*
D03*
X726969D02*
D03*
X765158Y27559D02*
D03*
X750591D02*
D03*
X765158Y51181D02*
D03*
X750591D02*
D03*
X788780Y27559D02*
D03*
X774213D02*
D03*
X788780Y51181D02*
D03*
X774213D02*
D03*
X812402Y27559D02*
D03*
X797835D02*
D03*
X812402Y51181D02*
D03*
X797835D02*
D03*
X442323Y27559D02*
D03*
X427756D02*
D03*
X442323Y51181D02*
D03*
X427756D02*
D03*
X465945Y27559D02*
D03*
X451378D02*
D03*
X465945Y51181D02*
D03*
X451378D02*
D03*
X489567Y27559D02*
D03*
X475000D02*
D03*
X489567Y51181D02*
D03*
X475000D02*
D03*
X513189Y27559D02*
D03*
X498622D02*
D03*
X513189Y51181D02*
D03*
X498622D02*
D03*
X536811Y27559D02*
D03*
X522244D02*
D03*
X536811Y51181D02*
D03*
X522244D02*
D03*
X560433Y27559D02*
D03*
X545866D02*
D03*
X560433Y51181D02*
D03*
X545866D02*
D03*
X584055Y27559D02*
D03*
X569488D02*
D03*
X584055Y51181D02*
D03*
X569488D02*
D03*
X607678Y27559D02*
D03*
X593111D02*
D03*
X607678Y51181D02*
D03*
X593111D02*
D03*
X237599Y27559D02*
D03*
X223032D02*
D03*
X237599Y51181D02*
D03*
X223032D02*
D03*
X261221Y27559D02*
D03*
X246654D02*
D03*
X261221Y51181D02*
D03*
X246654D02*
D03*
X284843Y27559D02*
D03*
X270276D02*
D03*
X284843Y51181D02*
D03*
X270276D02*
D03*
X308465Y27559D02*
D03*
X293898D02*
D03*
X308465Y51181D02*
D03*
X293898D02*
D03*
X332087Y27559D02*
D03*
X317520D02*
D03*
X332087Y51181D02*
D03*
X317520D02*
D03*
X355709Y27559D02*
D03*
X341142D02*
D03*
X355709Y51181D02*
D03*
X341142D02*
D03*
X379331Y27559D02*
D03*
X364764D02*
D03*
X379331Y51181D02*
D03*
X364764D02*
D03*
X402953Y27559D02*
D03*
X388386D02*
D03*
X402953Y51181D02*
D03*
X388386D02*
D03*
X32874Y27559D02*
D03*
X18307D02*
D03*
X32874Y51181D02*
D03*
X18307D02*
D03*
X56496Y27559D02*
D03*
X41929D02*
D03*
X56496Y51181D02*
D03*
X41929D02*
D03*
X80118Y27559D02*
D03*
X65551D02*
D03*
X80118Y51181D02*
D03*
X65551D02*
D03*
X103740Y27559D02*
D03*
X89173D02*
D03*
X103740Y51181D02*
D03*
X89173D02*
D03*
X127362Y27559D02*
D03*
X112795D02*
D03*
X127362Y51181D02*
D03*
X112795D02*
D03*
X150984Y27559D02*
D03*
X136417D02*
D03*
X150984Y51181D02*
D03*
X136417D02*
D03*
X174606Y27559D02*
D03*
X160039D02*
D03*
X174606Y51181D02*
D03*
X160039D02*
D03*
X198228Y27559D02*
D03*
X183661D02*
D03*
X198228Y51181D02*
D03*
X183661D02*
D03*
X916732Y372047D02*
D03*
X902165D02*
D03*
X916732Y395669D02*
D03*
X902165D02*
D03*
X916732Y431102D02*
D03*
X902165D02*
D03*
X916732Y454724D02*
D03*
X902165D02*
D03*
D37*
X842953Y128543D02*
D03*
X852953D02*
D03*
X862953D02*
D03*
X872953D02*
D03*
X882953D02*
D03*
X892953D02*
D03*
X902953D02*
D03*
X912953D02*
D03*
X842953Y91929D02*
D03*
X912953D02*
D03*
X638228Y128543D02*
D03*
X648228D02*
D03*
X658228D02*
D03*
X668228D02*
D03*
X678228D02*
D03*
X688228D02*
D03*
X698228D02*
D03*
X708228D02*
D03*
X638228Y91929D02*
D03*
X708228D02*
D03*
X433504Y128543D02*
D03*
X443504D02*
D03*
X453504D02*
D03*
X463504D02*
D03*
X473504D02*
D03*
X483504D02*
D03*
X493504D02*
D03*
X503504D02*
D03*
X433504Y91929D02*
D03*
X503504D02*
D03*
X535866Y128543D02*
D03*
X545866D02*
D03*
X555866D02*
D03*
X565866D02*
D03*
X575866D02*
D03*
X585866D02*
D03*
X595866D02*
D03*
X605866D02*
D03*
X535866Y91929D02*
D03*
X605866D02*
D03*
X740590Y128543D02*
D03*
X750591D02*
D03*
X760591D02*
D03*
X770590D02*
D03*
X780590D02*
D03*
X790590D02*
D03*
X800591D02*
D03*
X810590D02*
D03*
X740590Y91929D02*
D03*
X810590D02*
D03*
X945315Y128543D02*
D03*
X955315D02*
D03*
X965315D02*
D03*
X975315D02*
D03*
X985315D02*
D03*
X995315D02*
D03*
X1005315D02*
D03*
X1015315D02*
D03*
X945315Y91929D02*
D03*
X1015315D02*
D03*
X331142Y128543D02*
D03*
X341142D02*
D03*
X351142D02*
D03*
X361142D02*
D03*
X371142D02*
D03*
X381142D02*
D03*
X391142D02*
D03*
X401142D02*
D03*
X331142Y91929D02*
D03*
X401142D02*
D03*
X228780Y128543D02*
D03*
X238779D02*
D03*
X248780D02*
D03*
X258780D02*
D03*
X268779D02*
D03*
X278780D02*
D03*
X288779D02*
D03*
X298780D02*
D03*
X228780Y91929D02*
D03*
X298780D02*
D03*
X126417Y128543D02*
D03*
X136417D02*
D03*
X146417D02*
D03*
X156417D02*
D03*
X166417D02*
D03*
X176417D02*
D03*
X186417D02*
D03*
X196417D02*
D03*
X126417Y91929D02*
D03*
X196417D02*
D03*
X24055Y128543D02*
D03*
X34055D02*
D03*
X44055D02*
D03*
X54055D02*
D03*
X64055D02*
D03*
X74055D02*
D03*
X84055D02*
D03*
X94055D02*
D03*
X24055Y91929D02*
D03*
X94055D02*
D03*
D38*
X634303Y426831D02*
D03*
X621603D02*
D03*
X634303Y421831D02*
D03*
X621603D02*
D03*
X634303Y416831D02*
D03*
X621603D02*
D03*
X634303Y411831D02*
D03*
X621603D02*
D03*
X634303Y406831D02*
D03*
X621603D02*
D03*
X634303Y401831D02*
D03*
X621603D02*
D03*
X634303Y396831D02*
D03*
X621603D02*
D03*
X634303Y391831D02*
D03*
X621603D02*
D03*
X634303Y386831D02*
D03*
X621603D02*
D03*
X634303Y381831D02*
D03*
X621603D02*
D03*
X634303Y376831D02*
D03*
X621603D02*
D03*
X634303Y371831D02*
D03*
X621603D02*
D03*
X634303Y366831D02*
D03*
X621603D02*
D03*
X634303Y361831D02*
D03*
X621603D02*
D03*
X634303Y356831D02*
D03*
X621603D02*
D03*
X634303Y351831D02*
D03*
X621603D02*
D03*
X634303Y346831D02*
D03*
X621603D02*
D03*
X634303Y341831D02*
D03*
X621603D02*
D03*
X634303Y336831D02*
D03*
X621603D02*
D03*
X634303Y331831D02*
D03*
X621603D02*
D03*
X634303Y326831D02*
D03*
X621603D02*
D03*
X634303Y321831D02*
D03*
X621603D02*
D03*
X634303Y316831D02*
D03*
X621603D02*
D03*
X634303Y311831D02*
D03*
X621603D02*
D03*
X634303Y306831D02*
D03*
X621603D02*
D03*
X634303Y301831D02*
D03*
X621603D02*
D03*
X634303Y296831D02*
D03*
X621603D02*
D03*
X634303Y291831D02*
D03*
X621603D02*
D03*
X634303Y286831D02*
D03*
X621603D02*
D03*
X634303Y281831D02*
D03*
X621603D02*
D03*
X398082Y426831D02*
D03*
X385382D02*
D03*
X398082Y421831D02*
D03*
X385382D02*
D03*
X398082Y416831D02*
D03*
X385382D02*
D03*
X398082Y411831D02*
D03*
X385382D02*
D03*
X398082Y406831D02*
D03*
X385382D02*
D03*
X398082Y401831D02*
D03*
X385382D02*
D03*
X398082Y396831D02*
D03*
X385382D02*
D03*
X398082Y391831D02*
D03*
X385382D02*
D03*
X398082Y386831D02*
D03*
X385382D02*
D03*
X398082Y381831D02*
D03*
X385382D02*
D03*
X398082Y376831D02*
D03*
X385382D02*
D03*
X398082Y371831D02*
D03*
X385382D02*
D03*
X398082Y366831D02*
D03*
X385382D02*
D03*
X398082Y361831D02*
D03*
X385382D02*
D03*
X398082Y356831D02*
D03*
X385382D02*
D03*
X398082Y351831D02*
D03*
X385382D02*
D03*
X398082Y346831D02*
D03*
X385382D02*
D03*
X398082Y341831D02*
D03*
X385382D02*
D03*
X398082Y336831D02*
D03*
X385382D02*
D03*
X398082Y331831D02*
D03*
X385382D02*
D03*
X398082Y326831D02*
D03*
X385382D02*
D03*
X398082Y321831D02*
D03*
X385382D02*
D03*
X398082Y316831D02*
D03*
X385382D02*
D03*
X398082Y311831D02*
D03*
X385382D02*
D03*
X398082Y306831D02*
D03*
X385382D02*
D03*
X398082Y301831D02*
D03*
X385382D02*
D03*
X398082Y296831D02*
D03*
X385382D02*
D03*
X398082Y291831D02*
D03*
X385382D02*
D03*
X398082Y286831D02*
D03*
X385382D02*
D03*
X398082Y281831D02*
D03*
X385382D02*
D03*
M02*
