G04*
G04 #@! TF.GenerationSoftware,Altium Limited,Altium Designer,20.0.13 (296)*
G04*
G04 Layer_Color=16711935*
%FSLAX25Y25*%
%MOIN*%
G70*
G01*
G75*
%ADD10C,0.00394*%
%ADD11C,0.03937*%
%ADD14C,0.00500*%
%ADD72C,0.00787*%
D10*
X190945Y383661D02*
X194882D01*
Y387992D01*
X190945D02*
X194882D01*
X190945Y383661D02*
Y387992D01*
Y407283D02*
X194882D01*
Y411614D01*
X190945D02*
X194882D01*
X190945Y407283D02*
Y411614D01*
X111024Y344488D02*
X114764Y348228D01*
X111024Y336811D02*
Y348228D01*
Y336811D02*
X117323D01*
Y348228D01*
X111024D02*
X117323D01*
X761811Y316732D02*
Y321063D01*
X765748D01*
Y316732D02*
Y321063D01*
X761811Y316732D02*
X765748D01*
X761811Y375787D02*
Y380118D01*
X765748D01*
Y375787D02*
Y380118D01*
X761811Y375787D02*
X765748D01*
X761811Y434842D02*
Y439173D01*
X765748D01*
Y434842D02*
Y439173D01*
X761811Y434842D02*
X765748D01*
X879921Y322638D02*
Y326969D01*
X883858D01*
Y322638D02*
Y326969D01*
X879921Y322638D02*
X883858D01*
X879921Y381693D02*
Y386024D01*
X883858D01*
Y381693D02*
Y386024D01*
X879921Y381693D02*
X883858D01*
X879921Y440748D02*
Y445079D01*
X883858D01*
Y440748D02*
Y445079D01*
X879921Y440748D02*
X883858D01*
X974900Y377458D02*
Y390258D01*
X963100Y377458D02*
X974900D01*
X963100D02*
Y390258D01*
X974900D01*
Y318403D02*
Y331203D01*
X963100Y318403D02*
X974900D01*
X963100D02*
Y331203D01*
X974900D01*
Y259348D02*
Y272148D01*
X963100Y259348D02*
X974900D01*
X963100D02*
Y272148D01*
X974900D01*
X999137Y281948D02*
X1017437D01*
Y249548D02*
Y281948D01*
X999137Y249548D02*
X1017437D01*
X999137D02*
Y281948D01*
Y341003D02*
X1017437D01*
Y308603D02*
Y341003D01*
X999137Y308603D02*
X1017437D01*
X999137D02*
Y341003D01*
Y400058D02*
X1017437D01*
Y367658D02*
Y400058D01*
X999137Y367658D02*
X1017437D01*
X999137D02*
Y400058D01*
X974900Y436513D02*
Y449313D01*
X963100Y436513D02*
X974900D01*
X963100D02*
Y449313D01*
X974900D01*
X999137Y459113D02*
X1017437D01*
Y426713D02*
Y459113D01*
X999137Y426713D02*
X1017437D01*
X999137D02*
Y459113D01*
X171693Y531028D02*
Y535358D01*
X167756Y531028D02*
X171693D01*
X167756D02*
Y535358D01*
X171693D01*
X96662Y525996D02*
X108062D01*
Y536996D01*
X96662D02*
X108062D01*
X96662Y525996D02*
Y536996D01*
X322835Y76709D02*
Y81039D01*
X326772D01*
Y76709D02*
Y81039D01*
X322835Y76709D02*
X326772D01*
X346457D02*
Y81039D01*
X350394D01*
Y76709D02*
Y81039D01*
X346457Y76709D02*
X350394D01*
X370079D02*
Y81039D01*
X374016D01*
Y76709D02*
Y81039D01*
X370079Y76709D02*
X374016D01*
X393701D02*
Y81039D01*
X397638D01*
Y76709D02*
Y81039D01*
X393701Y76709D02*
X397638D01*
X228346D02*
Y81039D01*
X232283D01*
Y76709D02*
Y81039D01*
X228346Y76709D02*
X232283D01*
X251969D02*
Y81039D01*
X255906D01*
Y76709D02*
Y81039D01*
X251969Y76709D02*
X255906D01*
X275590D02*
Y81039D01*
X279528D01*
Y76709D02*
Y81039D01*
X275590Y76709D02*
X279528D01*
X299213D02*
Y81039D01*
X303150D01*
Y76709D02*
Y81039D01*
X299213Y76709D02*
X303150D01*
X527559D02*
Y81039D01*
X531496D01*
Y76709D02*
Y81039D01*
X527559Y76709D02*
X531496D01*
X551181D02*
Y81039D01*
X555118D01*
Y76709D02*
Y81039D01*
X551181Y76709D02*
X555118D01*
X574803D02*
Y81039D01*
X578740D01*
Y76709D02*
Y81039D01*
X574803Y76709D02*
X578740D01*
X598425D02*
Y81039D01*
X602362D01*
Y76709D02*
Y81039D01*
X598425Y76709D02*
X602362D01*
X433071D02*
Y81039D01*
X437008D01*
Y76709D02*
Y81039D01*
X433071Y76709D02*
X437008D01*
X456693D02*
Y81039D01*
X460630D01*
Y76709D02*
Y81039D01*
X456693Y76709D02*
X460630D01*
X480315D02*
Y81039D01*
X484252D01*
Y76709D02*
Y81039D01*
X480315Y76709D02*
X484252D01*
X503937D02*
Y81039D01*
X507874D01*
Y76709D02*
Y81039D01*
X503937Y76709D02*
X507874D01*
X732283D02*
Y81039D01*
X736221D01*
Y76709D02*
Y81039D01*
X732283Y76709D02*
X736221D01*
X755905D02*
Y81039D01*
X759842D01*
Y76709D02*
Y81039D01*
X755905Y76709D02*
X759842D01*
X779528D02*
Y81039D01*
X783465D01*
Y76709D02*
Y81039D01*
X779528Y76709D02*
X783465D01*
X803150D02*
Y81039D01*
X807087D01*
Y76709D02*
Y81039D01*
X803150Y76709D02*
X807087D01*
X637795D02*
Y81039D01*
X641732D01*
Y76709D02*
Y81039D01*
X637795Y76709D02*
X641732D01*
X661417D02*
Y81039D01*
X665354D01*
Y76709D02*
Y81039D01*
X661417Y76709D02*
X665354D01*
X685039D02*
Y81039D01*
X688976D01*
Y76709D02*
Y81039D01*
X685039Y76709D02*
X688976D01*
X708661D02*
Y81039D01*
X712598D01*
Y76709D02*
Y81039D01*
X708661Y76709D02*
X712598D01*
X937008D02*
Y81039D01*
X940945D01*
Y76709D02*
Y81039D01*
X937008Y76709D02*
X940945D01*
X960630D02*
Y81039D01*
X964567D01*
Y76709D02*
Y81039D01*
X960630Y76709D02*
X964567D01*
X984252D02*
Y81039D01*
X988189D01*
Y76709D02*
Y81039D01*
X984252Y76709D02*
X988189D01*
X1007874D02*
Y81039D01*
X1011811D01*
Y76709D02*
Y81039D01*
X1007874Y76709D02*
X1011811D01*
X842520D02*
Y81039D01*
X846457D01*
Y76709D02*
Y81039D01*
X842520Y76709D02*
X846457D01*
X866142D02*
Y81039D01*
X870079D01*
Y76709D02*
Y81039D01*
X866142Y76709D02*
X870079D01*
X889764D02*
Y81039D01*
X893701D01*
Y76709D02*
Y81039D01*
X889764Y76709D02*
X893701D01*
X913386D02*
Y81039D01*
X917323D01*
Y76709D02*
Y81039D01*
X913386Y76709D02*
X917323D01*
X47244D02*
Y81039D01*
X51181D01*
Y76709D02*
Y81039D01*
X47244Y76709D02*
X51181D01*
X70866D02*
Y81039D01*
X74803D01*
Y76709D02*
Y81039D01*
X70866Y76709D02*
X74803D01*
X94488D02*
Y81039D01*
X98425D01*
Y76709D02*
Y81039D01*
X94488Y76709D02*
X98425D01*
X118110D02*
Y81039D01*
X122047D01*
Y76709D02*
Y81039D01*
X118110Y76709D02*
X122047D01*
X141732D02*
Y81039D01*
X145669D01*
Y76709D02*
Y81039D01*
X141732Y76709D02*
X145669D01*
X165354D02*
Y81039D01*
X169291D01*
Y76709D02*
Y81039D01*
X165354Y76709D02*
X169291D01*
X188976D02*
Y81039D01*
X192913D01*
Y76709D02*
Y81039D01*
X188976Y76709D02*
X192913D01*
X23622D02*
Y81039D01*
X27559D01*
Y76709D02*
Y81039D01*
X23622Y76709D02*
X27559D01*
X524972Y531028D02*
Y535358D01*
X521035Y531028D02*
X524972D01*
X521035D02*
Y535358D01*
X524972D01*
X495157Y531028D02*
Y535358D01*
X491221Y531028D02*
X495157D01*
X491221D02*
Y535358D01*
X495157D01*
X485157Y531028D02*
Y535358D01*
X481220Y531028D02*
X485157D01*
X481220D02*
Y535358D01*
X485157D01*
X505158Y531028D02*
Y535358D01*
X501221Y531028D02*
X505158D01*
X501221D02*
Y535358D01*
X505158D01*
X515158Y531028D02*
Y535358D01*
X511221Y531028D02*
X515158D01*
X511221D02*
Y535358D01*
X515158D01*
X191693Y531028D02*
Y535358D01*
X187756Y531028D02*
X191693D01*
X187756D02*
Y535358D01*
X191693D01*
X181693Y531028D02*
Y535358D01*
X177756Y531028D02*
X181693D01*
X177756D02*
Y535358D01*
X181693D01*
X221693Y531028D02*
Y535358D01*
X217756Y531028D02*
X221693D01*
X217756D02*
Y535358D01*
X221693D01*
X211693Y531028D02*
Y535358D01*
X207756Y531028D02*
X211693D01*
X207756D02*
Y535358D01*
X211693D01*
X201693Y531028D02*
Y535358D01*
X197756Y531028D02*
X201693D01*
X197756D02*
Y535358D01*
X201693D01*
X593583Y531028D02*
Y535358D01*
X589646Y531028D02*
X593583D01*
X589646D02*
Y535358D01*
X593583D01*
X603583Y531028D02*
Y535358D01*
X599646Y531028D02*
X603583D01*
X599646D02*
Y535358D01*
X603583D01*
X613583Y531028D02*
Y535358D01*
X609646Y531028D02*
X613583D01*
X609646D02*
Y535358D01*
X613583D01*
X563583Y531028D02*
Y535358D01*
X559646Y531028D02*
X563583D01*
X559646D02*
Y535358D01*
X563583D01*
X573583Y531028D02*
Y535358D01*
X569646Y531028D02*
X573583D01*
X569646D02*
Y535358D01*
X573583D01*
X583583Y531028D02*
Y535358D01*
X579646Y531028D02*
X583583D01*
X579646D02*
Y535358D01*
X583583D01*
D11*
X76149Y515748D02*
G03*
X76149Y515748I-394J0D01*
G01*
D14*
X71260Y386732D02*
Y400669D01*
X46850D02*
X71260D01*
X46850Y386732D02*
Y400669D01*
Y386732D02*
X71260D01*
X779134Y331772D02*
X803543D01*
Y317835D02*
Y331772D01*
X779134Y317835D02*
X803543D01*
X779134D02*
Y331772D01*
Y390827D02*
X803543D01*
Y376890D02*
Y390827D01*
X779134Y376890D02*
X803543D01*
X779134D02*
Y390827D01*
Y449882D02*
X803543D01*
Y435945D02*
Y449882D01*
X779134Y435945D02*
X803543D01*
X779134D02*
Y449882D01*
X54724Y266177D02*
X79134D01*
X54724D02*
Y280114D01*
X79134D01*
Y266177D02*
Y280114D01*
X38386Y506693D02*
X71850D01*
X38386D02*
Y553937D01*
X71850D01*
Y506693D02*
Y553937D01*
X153150Y264032D02*
X177559D01*
X153150D02*
Y277969D01*
X177559D01*
Y264032D02*
Y277969D01*
D72*
X416664Y532314D02*
Y552150D01*
X362764D02*
X416664D01*
X362764Y532314D02*
Y552150D01*
Y532314D02*
X416664D01*
X330050D02*
Y552150D01*
X276150D02*
X330050D01*
X276150Y532314D02*
Y552150D01*
Y532314D02*
X330050D01*
X908790D02*
Y552150D01*
X854890D02*
X908790D01*
X854890Y532314D02*
Y552150D01*
Y532314D02*
X908790D01*
X798554D02*
Y552150D01*
X744654D02*
X798554D01*
X744654Y532314D02*
Y552150D01*
Y532314D02*
X798554D01*
X475866Y412547D02*
X550566D01*
X475866Y310247D02*
Y412547D01*
Y310247D02*
X550566D01*
Y412547D01*
M02*
