G04*
G04 #@! TF.GenerationSoftware,Altium Limited,Altium Designer,20.0.13 (296)*
G04*
G04 Layer_Color=16711935*
%FSLAX25Y25*%
%MOIN*%
G70*
G01*
G75*
%ADD39R,0.03937X5.66929*%
%ADD40R,10.19685X0.03937*%
%ADD64O,0.04409X0.07953*%
%ADD65O,0.03228X0.06378*%
%ADD66R,0.06079X0.06079*%
%ADD67C,0.06079*%
%ADD68R,0.07165X0.07165*%
%ADD69C,0.07165*%
%ADD70C,0.02953*%
%ADD71C,0.19764*%
D39*
X1039370Y295276D02*
D03*
X3937D02*
D03*
D40*
X521673Y586614D02*
D03*
X521634Y3937D02*
D03*
D64*
X1012598Y265748D02*
D03*
Y324803D02*
D03*
Y383858D02*
D03*
Y442913D02*
D03*
D65*
X1003937Y276772D02*
D03*
Y254724D02*
D03*
Y335827D02*
D03*
Y313779D02*
D03*
Y394882D02*
D03*
Y372835D02*
D03*
Y453937D02*
D03*
Y431890D02*
D03*
D66*
X698228Y519685D02*
D03*
X611614D02*
D03*
X523189D02*
D03*
X1005315D02*
D03*
X846890D02*
D03*
X736654D02*
D03*
X279961Y165354D02*
D03*
X484685D02*
D03*
X689409D02*
D03*
X894134D02*
D03*
X75236D02*
D03*
X169724Y519685D02*
D03*
D67*
X688228D02*
D03*
X678228D02*
D03*
X668228D02*
D03*
X658228D02*
D03*
X648228D02*
D03*
X601614D02*
D03*
X591614D02*
D03*
X581614D02*
D03*
X571614D02*
D03*
X561614D02*
D03*
X513189D02*
D03*
X503189D02*
D03*
X493189D02*
D03*
X483189D02*
D03*
X473189D02*
D03*
X463189D02*
D03*
X453189D02*
D03*
X995315D02*
D03*
X985315D02*
D03*
X975315D02*
D03*
X965315D02*
D03*
X955315D02*
D03*
X856890D02*
D03*
X866890D02*
D03*
X876890D02*
D03*
X886890D02*
D03*
X896890D02*
D03*
X906890D02*
D03*
X916890D02*
D03*
X746654D02*
D03*
X756653D02*
D03*
X766653D02*
D03*
X776653D02*
D03*
X786654D02*
D03*
X796654D02*
D03*
X806653D02*
D03*
X289961Y165354D02*
D03*
X299961D02*
D03*
X309961D02*
D03*
X319961D02*
D03*
X329961D02*
D03*
X339961D02*
D03*
X349961D02*
D03*
X494685D02*
D03*
X504685D02*
D03*
X514685D02*
D03*
X524685D02*
D03*
X534685D02*
D03*
X544685D02*
D03*
X554685D02*
D03*
X699409D02*
D03*
X709410D02*
D03*
X719410D02*
D03*
X729410D02*
D03*
X739409D02*
D03*
X749409D02*
D03*
X759410D02*
D03*
X904134D02*
D03*
X914134D02*
D03*
X924134D02*
D03*
X934134D02*
D03*
X944134D02*
D03*
X954134D02*
D03*
X964134D02*
D03*
X85236D02*
D03*
X95236D02*
D03*
X105236D02*
D03*
X115236D02*
D03*
X125236D02*
D03*
X135236D02*
D03*
X145236D02*
D03*
X179724Y519685D02*
D03*
X189724D02*
D03*
X199724D02*
D03*
X209724D02*
D03*
X219724D02*
D03*
X229724D02*
D03*
X239724D02*
D03*
D68*
X59055Y515748D02*
D03*
D69*
X45276Y535433D02*
D03*
D70*
X1023621Y586614D02*
D03*
X1019683D02*
D03*
X1015747D02*
D03*
X988188D02*
D03*
X992125D02*
D03*
X996062D02*
D03*
X999999D02*
D03*
X1003936D02*
D03*
X984251D02*
D03*
X980314D02*
D03*
X976377D02*
D03*
X972440D02*
D03*
X968503D02*
D03*
X1011810D02*
D03*
X1007873D02*
D03*
X1023621Y3937D02*
D03*
X1019684D02*
D03*
X1015747D02*
D03*
X988188D02*
D03*
X992125D02*
D03*
X996062D02*
D03*
X999999D02*
D03*
X1003936D02*
D03*
X984251D02*
D03*
X980314D02*
D03*
X976377D02*
D03*
X972440D02*
D03*
X968503D02*
D03*
X1011810D02*
D03*
X1007873D02*
D03*
X3937Y535432D02*
D03*
Y531495D02*
D03*
Y527558D02*
D03*
Y570865D02*
D03*
Y566928D02*
D03*
Y562991D02*
D03*
Y559054D02*
D03*
Y539369D02*
D03*
Y543306D02*
D03*
Y547243D02*
D03*
Y551180D02*
D03*
Y555117D02*
D03*
Y523621D02*
D03*
Y499999D02*
D03*
Y496062D02*
D03*
Y492125D02*
D03*
Y488188D02*
D03*
Y484251D02*
D03*
Y503936D02*
D03*
Y507873D02*
D03*
Y511810D02*
D03*
Y515747D02*
D03*
Y519684D02*
D03*
Y472440D02*
D03*
Y476377D02*
D03*
Y480314D02*
D03*
Y385826D02*
D03*
Y381889D02*
D03*
Y377952D02*
D03*
Y425196D02*
D03*
Y421259D02*
D03*
Y417322D02*
D03*
Y413385D02*
D03*
Y409448D02*
D03*
Y389763D02*
D03*
Y393700D02*
D03*
Y397637D02*
D03*
Y401574D02*
D03*
Y405511D02*
D03*
Y444881D02*
D03*
Y440944D02*
D03*
Y437007D02*
D03*
Y433070D02*
D03*
Y429133D02*
D03*
Y448818D02*
D03*
Y452755D02*
D03*
Y456692D02*
D03*
Y460629D02*
D03*
Y468503D02*
D03*
Y464566D02*
D03*
X1039370Y535433D02*
D03*
Y531496D02*
D03*
Y527559D02*
D03*
Y570866D02*
D03*
Y566929D02*
D03*
Y562992D02*
D03*
Y559055D02*
D03*
Y539370D02*
D03*
Y543307D02*
D03*
Y547244D02*
D03*
Y551181D02*
D03*
Y555118D02*
D03*
Y523622D02*
D03*
Y500000D02*
D03*
Y496063D02*
D03*
Y492126D02*
D03*
Y488189D02*
D03*
Y484252D02*
D03*
Y503937D02*
D03*
Y507874D02*
D03*
Y511811D02*
D03*
Y515748D02*
D03*
Y519685D02*
D03*
Y472441D02*
D03*
Y476378D02*
D03*
Y480315D02*
D03*
Y385827D02*
D03*
Y381890D02*
D03*
Y377953D02*
D03*
Y425197D02*
D03*
Y421260D02*
D03*
Y417323D02*
D03*
Y413386D02*
D03*
Y409449D02*
D03*
Y389764D02*
D03*
Y393701D02*
D03*
Y397638D02*
D03*
Y401575D02*
D03*
Y405512D02*
D03*
Y444882D02*
D03*
Y440945D02*
D03*
Y437008D02*
D03*
Y433071D02*
D03*
Y429134D02*
D03*
Y448819D02*
D03*
Y452756D02*
D03*
Y456693D02*
D03*
Y460630D02*
D03*
Y468504D02*
D03*
Y464567D02*
D03*
X960629Y3937D02*
D03*
X964566D02*
D03*
X921259D02*
D03*
X925196D02*
D03*
X929133D02*
D03*
X933070D02*
D03*
X937007D02*
D03*
X956692D02*
D03*
X952755D02*
D03*
X948818D02*
D03*
X944881D02*
D03*
X940944D02*
D03*
X881889D02*
D03*
X885826D02*
D03*
X889763D02*
D03*
X893700D02*
D03*
X897637D02*
D03*
X917322D02*
D03*
X913385D02*
D03*
X909448D02*
D03*
X905511D02*
D03*
X901574D02*
D03*
X858267D02*
D03*
X877952D02*
D03*
X874015D02*
D03*
X870078D02*
D03*
X866141D02*
D03*
X862204D02*
D03*
X818897D02*
D03*
X822834D02*
D03*
X826771D02*
D03*
X830708D02*
D03*
X834645D02*
D03*
X854330D02*
D03*
X850393D02*
D03*
X846456D02*
D03*
X842519D02*
D03*
X838582D02*
D03*
X779527D02*
D03*
X783464D02*
D03*
X787401D02*
D03*
X791338D02*
D03*
X795275D02*
D03*
X814960D02*
D03*
X811023D02*
D03*
X807086D02*
D03*
X803149D02*
D03*
X799212D02*
D03*
X740157D02*
D03*
X744094D02*
D03*
X748031D02*
D03*
X751968D02*
D03*
X755905D02*
D03*
X775590D02*
D03*
X771653D02*
D03*
X767716D02*
D03*
X763779D02*
D03*
X759842D02*
D03*
X716535D02*
D03*
X736220D02*
D03*
X732283D02*
D03*
X728346D02*
D03*
X724409D02*
D03*
X720472D02*
D03*
X677165D02*
D03*
X681102D02*
D03*
X685039D02*
D03*
X688976D02*
D03*
X692913D02*
D03*
X712598D02*
D03*
X708661D02*
D03*
X704724D02*
D03*
X700787D02*
D03*
X696850D02*
D03*
X637795D02*
D03*
X641732D02*
D03*
X645669D02*
D03*
X649606D02*
D03*
X653543D02*
D03*
X673228D02*
D03*
X669291D02*
D03*
X665354D02*
D03*
X661417D02*
D03*
X657480D02*
D03*
X598425D02*
D03*
X602362D02*
D03*
X606299D02*
D03*
X610236D02*
D03*
X614173D02*
D03*
X633858D02*
D03*
X629921D02*
D03*
X625984D02*
D03*
X622047D02*
D03*
X618110D02*
D03*
X574803D02*
D03*
X594488D02*
D03*
X590551D02*
D03*
X586614D02*
D03*
X582677D02*
D03*
X578740D02*
D03*
X960629Y586614D02*
D03*
X964566D02*
D03*
X921259D02*
D03*
X925196D02*
D03*
X929133D02*
D03*
X933070D02*
D03*
X937007D02*
D03*
X956691D02*
D03*
X952755D02*
D03*
X948818D02*
D03*
X944881D02*
D03*
X940944D02*
D03*
X881889D02*
D03*
X885826D02*
D03*
X889763D02*
D03*
X893700D02*
D03*
X897637D02*
D03*
X917322D02*
D03*
X913385D02*
D03*
X909448D02*
D03*
X905511D02*
D03*
X901574D02*
D03*
X858267D02*
D03*
X877952D02*
D03*
X874015D02*
D03*
X870078D02*
D03*
X866141D02*
D03*
X862204D02*
D03*
X818897D02*
D03*
X822834D02*
D03*
X826771D02*
D03*
X830708D02*
D03*
X834645D02*
D03*
X854330D02*
D03*
X850393D02*
D03*
X846456D02*
D03*
X842519D02*
D03*
X838582D02*
D03*
X779527D02*
D03*
X783464D02*
D03*
X787401D02*
D03*
X791338D02*
D03*
X795274D02*
D03*
X814960D02*
D03*
X811022D02*
D03*
X807086D02*
D03*
X803148D02*
D03*
X799212D02*
D03*
X740157D02*
D03*
X744094D02*
D03*
X748031D02*
D03*
X751968D02*
D03*
X755905D02*
D03*
X775590D02*
D03*
X771653D02*
D03*
X767716D02*
D03*
X763778D02*
D03*
X759842D02*
D03*
X716535D02*
D03*
X736220D02*
D03*
X732282D02*
D03*
X728346D02*
D03*
X724409D02*
D03*
X720472D02*
D03*
X677165D02*
D03*
X681102D02*
D03*
X685039D02*
D03*
X688976D02*
D03*
X692913D02*
D03*
X712598D02*
D03*
X708661D02*
D03*
X704724D02*
D03*
X700786D02*
D03*
X696849D02*
D03*
X637794D02*
D03*
X641732D02*
D03*
X645669D02*
D03*
X649606D02*
D03*
X653543D02*
D03*
X673228D02*
D03*
X669290D02*
D03*
X665353D02*
D03*
X661417D02*
D03*
X657480D02*
D03*
X598424D02*
D03*
X602361D02*
D03*
X606298D02*
D03*
X610236D02*
D03*
X614173D02*
D03*
X633857D02*
D03*
X629921D02*
D03*
X625984D02*
D03*
X622047D02*
D03*
X618110D02*
D03*
X574802D02*
D03*
X594488D02*
D03*
X590551D02*
D03*
X586614D02*
D03*
X582677D02*
D03*
X578740D02*
D03*
X3937Y19685D02*
D03*
Y43307D02*
D03*
Y47244D02*
D03*
Y51181D02*
D03*
Y55118D02*
D03*
Y59055D02*
D03*
Y39370D02*
D03*
Y35433D02*
D03*
Y31496D02*
D03*
Y27559D02*
D03*
Y23622D02*
D03*
Y70866D02*
D03*
Y66929D02*
D03*
Y62992D02*
D03*
Y354330D02*
D03*
Y358267D02*
D03*
Y362204D02*
D03*
Y366141D02*
D03*
Y370078D02*
D03*
Y374015D02*
D03*
Y314960D02*
D03*
Y318897D02*
D03*
Y322834D02*
D03*
Y326771D02*
D03*
Y330708D02*
D03*
Y350393D02*
D03*
Y346456D02*
D03*
Y342519D02*
D03*
Y338582D02*
D03*
Y334645D02*
D03*
Y275590D02*
D03*
Y279527D02*
D03*
Y283464D02*
D03*
Y287401D02*
D03*
Y291338D02*
D03*
Y311023D02*
D03*
Y307086D02*
D03*
Y303149D02*
D03*
Y299212D02*
D03*
Y295275D02*
D03*
Y236220D02*
D03*
Y240157D02*
D03*
Y244094D02*
D03*
Y248031D02*
D03*
Y251968D02*
D03*
Y271653D02*
D03*
Y267716D02*
D03*
Y263779D02*
D03*
Y259842D02*
D03*
Y255905D02*
D03*
Y196850D02*
D03*
Y200787D02*
D03*
Y204724D02*
D03*
Y208661D02*
D03*
Y212598D02*
D03*
Y232283D02*
D03*
Y228346D02*
D03*
Y224409D02*
D03*
Y220472D02*
D03*
Y216535D02*
D03*
Y157480D02*
D03*
Y161417D02*
D03*
Y165354D02*
D03*
Y169291D02*
D03*
Y173228D02*
D03*
Y192913D02*
D03*
Y188976D02*
D03*
Y185039D02*
D03*
Y181102D02*
D03*
Y177165D02*
D03*
Y118110D02*
D03*
Y122047D02*
D03*
Y125984D02*
D03*
Y129921D02*
D03*
Y133858D02*
D03*
Y153543D02*
D03*
Y149606D02*
D03*
Y145669D02*
D03*
Y141732D02*
D03*
Y137795D02*
D03*
Y98425D02*
D03*
Y102362D02*
D03*
Y106299D02*
D03*
Y110236D02*
D03*
Y114173D02*
D03*
Y94488D02*
D03*
Y90551D02*
D03*
Y86614D02*
D03*
Y82677D02*
D03*
Y74803D02*
D03*
Y78740D02*
D03*
X1039370Y314961D02*
D03*
Y318898D02*
D03*
Y311024D02*
D03*
Y307087D02*
D03*
Y303150D02*
D03*
Y299213D02*
D03*
Y279528D02*
D03*
Y283465D02*
D03*
Y287402D02*
D03*
Y291339D02*
D03*
Y295276D02*
D03*
Y255906D02*
D03*
Y251969D02*
D03*
Y248032D02*
D03*
Y244095D02*
D03*
Y240158D02*
D03*
Y259843D02*
D03*
Y263780D02*
D03*
Y267717D02*
D03*
Y271654D02*
D03*
Y275591D02*
D03*
Y216536D02*
D03*
Y212599D02*
D03*
Y208662D02*
D03*
Y204725D02*
D03*
Y200788D02*
D03*
Y220473D02*
D03*
Y224410D02*
D03*
Y228347D02*
D03*
Y232284D02*
D03*
Y236221D02*
D03*
Y177166D02*
D03*
Y173229D02*
D03*
Y169292D02*
D03*
Y165355D02*
D03*
Y161418D02*
D03*
Y181103D02*
D03*
Y185040D02*
D03*
Y188977D02*
D03*
Y192914D02*
D03*
Y196851D02*
D03*
Y137796D02*
D03*
Y133859D02*
D03*
Y129922D02*
D03*
Y125985D02*
D03*
Y122048D02*
D03*
Y141733D02*
D03*
Y145670D02*
D03*
Y149607D02*
D03*
Y153544D02*
D03*
Y157481D02*
D03*
Y98426D02*
D03*
Y94489D02*
D03*
Y90552D02*
D03*
Y86615D02*
D03*
Y82678D02*
D03*
Y102363D02*
D03*
Y106300D02*
D03*
Y110237D02*
D03*
Y114174D02*
D03*
Y118111D02*
D03*
Y59056D02*
D03*
Y55119D02*
D03*
Y51182D02*
D03*
Y47245D02*
D03*
Y43308D02*
D03*
Y62993D02*
D03*
Y66930D02*
D03*
Y70867D02*
D03*
Y74804D02*
D03*
Y78741D02*
D03*
Y19686D02*
D03*
Y23623D02*
D03*
Y27560D02*
D03*
Y31497D02*
D03*
Y35434D02*
D03*
Y39371D02*
D03*
Y330709D02*
D03*
Y326772D02*
D03*
Y322835D02*
D03*
Y370079D02*
D03*
Y366142D02*
D03*
Y362205D02*
D03*
Y358268D02*
D03*
Y354331D02*
D03*
Y334646D02*
D03*
Y338583D02*
D03*
Y342520D02*
D03*
Y346457D02*
D03*
Y350394D02*
D03*
Y374016D02*
D03*
X275590Y586614D02*
D03*
X271654D02*
D03*
X279528D02*
D03*
X283465D02*
D03*
X287402D02*
D03*
X291338D02*
D03*
X311023D02*
D03*
X307086D02*
D03*
X303150D02*
D03*
X299213D02*
D03*
X295276D02*
D03*
X334646D02*
D03*
X338582D02*
D03*
X342519D02*
D03*
X346457D02*
D03*
X350394D02*
D03*
X330709D02*
D03*
X326771D02*
D03*
X322834D02*
D03*
X318898D02*
D03*
X314961D02*
D03*
X374015D02*
D03*
X377953D02*
D03*
X381890D02*
D03*
X385826D02*
D03*
X389763D02*
D03*
X370078D02*
D03*
X366142D02*
D03*
X362205D02*
D03*
X358267D02*
D03*
X354330D02*
D03*
X413385D02*
D03*
X417322D02*
D03*
X421260D02*
D03*
X425197D02*
D03*
X429134D02*
D03*
X409448D02*
D03*
X405512D02*
D03*
X401575D02*
D03*
X397638D02*
D03*
X393701D02*
D03*
X452756D02*
D03*
X456693D02*
D03*
X460630D02*
D03*
X464567D02*
D03*
X468504D02*
D03*
X448818D02*
D03*
X444881D02*
D03*
X440944D02*
D03*
X437008D02*
D03*
X433071D02*
D03*
X492126D02*
D03*
X496063D02*
D03*
X500000D02*
D03*
X503936D02*
D03*
X507873D02*
D03*
X488189D02*
D03*
X484252D02*
D03*
X480314D02*
D03*
X476377D02*
D03*
X472440D02*
D03*
X531496D02*
D03*
X535432D02*
D03*
X539369D02*
D03*
X543306D02*
D03*
X547243D02*
D03*
X527559D02*
D03*
X523622D02*
D03*
X519685D02*
D03*
X515747D02*
D03*
X511810D02*
D03*
X570865D02*
D03*
X566928D02*
D03*
X562992D02*
D03*
X559055D02*
D03*
X555118D02*
D03*
X551181D02*
D03*
X259842D02*
D03*
X263780D02*
D03*
X267717D02*
D03*
X220473D02*
D03*
X224410D02*
D03*
X228346D02*
D03*
X232284D02*
D03*
X236221D02*
D03*
X255906D02*
D03*
X251969D02*
D03*
X248032D02*
D03*
X244094D02*
D03*
X240158D02*
D03*
X200788D02*
D03*
X204725D02*
D03*
X208662D02*
D03*
X212598D02*
D03*
X216536D02*
D03*
X196851D02*
D03*
X192914D02*
D03*
X188977D02*
D03*
X185040D02*
D03*
X177166D02*
D03*
X181103D02*
D03*
X165355D02*
D03*
X169292D02*
D03*
X173229D02*
D03*
X125985D02*
D03*
X129922D02*
D03*
X133859D02*
D03*
X137796D02*
D03*
X141733D02*
D03*
X161418D02*
D03*
X157481D02*
D03*
X153544D02*
D03*
X149607D02*
D03*
X145670D02*
D03*
X106299D02*
D03*
X110237D02*
D03*
X114174D02*
D03*
X118111D02*
D03*
X122048D02*
D03*
X102363D02*
D03*
X98426D02*
D03*
X94489D02*
D03*
X90552D02*
D03*
X82678D02*
D03*
X86615D02*
D03*
X70867D02*
D03*
X74804D02*
D03*
X78741D02*
D03*
X31497D02*
D03*
X35434D02*
D03*
X39371D02*
D03*
X43308D02*
D03*
X47245D02*
D03*
X66930D02*
D03*
X62993D02*
D03*
X59056D02*
D03*
X55119D02*
D03*
X51182D02*
D03*
X19686D02*
D03*
X23623D02*
D03*
X27560D02*
D03*
X562992Y3937D02*
D03*
X566929D02*
D03*
X570866D02*
D03*
X539370D02*
D03*
X535433D02*
D03*
X531496D02*
D03*
X527559D02*
D03*
X523622D02*
D03*
X543307D02*
D03*
X547244D02*
D03*
X551181D02*
D03*
X555118D02*
D03*
X559055D02*
D03*
X511811D02*
D03*
X515748D02*
D03*
X519685D02*
D03*
X503937D02*
D03*
X507874D02*
D03*
X500000D02*
D03*
X496063D02*
D03*
X492126D02*
D03*
X488189D02*
D03*
X468504D02*
D03*
X472441D02*
D03*
X476378D02*
D03*
X480315D02*
D03*
X484252D02*
D03*
X444882D02*
D03*
X440945D02*
D03*
X437008D02*
D03*
X433071D02*
D03*
X429134D02*
D03*
X448819D02*
D03*
X452756D02*
D03*
X456693D02*
D03*
X460630D02*
D03*
X464567D02*
D03*
X417323D02*
D03*
X421260D02*
D03*
X425197D02*
D03*
X409449D02*
D03*
X413386D02*
D03*
X405512D02*
D03*
X401575D02*
D03*
X397638D02*
D03*
X393701D02*
D03*
X374016D02*
D03*
X377953D02*
D03*
X381890D02*
D03*
X385827D02*
D03*
X389764D02*
D03*
X350394D02*
D03*
X346457D02*
D03*
X342520D02*
D03*
X338583D02*
D03*
X334646D02*
D03*
X354331D02*
D03*
X358268D02*
D03*
X362205D02*
D03*
X366142D02*
D03*
X370079D02*
D03*
X322835D02*
D03*
X326772D02*
D03*
X330709D02*
D03*
X39371D02*
D03*
X35434D02*
D03*
X31497D02*
D03*
X27560D02*
D03*
X23623D02*
D03*
X19686D02*
D03*
X78741D02*
D03*
X74804D02*
D03*
X70867D02*
D03*
X66930D02*
D03*
X62993D02*
D03*
X43308D02*
D03*
X47245D02*
D03*
X51182D02*
D03*
X55119D02*
D03*
X59056D02*
D03*
X118111D02*
D03*
X114174D02*
D03*
X110237D02*
D03*
X106300D02*
D03*
X102363D02*
D03*
X82678D02*
D03*
X86615D02*
D03*
X90552D02*
D03*
X94489D02*
D03*
X98426D02*
D03*
X157481D02*
D03*
X153544D02*
D03*
X149607D02*
D03*
X145670D02*
D03*
X141733D02*
D03*
X122048D02*
D03*
X125985D02*
D03*
X129922D02*
D03*
X133859D02*
D03*
X137796D02*
D03*
X196851D02*
D03*
X192914D02*
D03*
X188977D02*
D03*
X185040D02*
D03*
X181103D02*
D03*
X161418D02*
D03*
X165355D02*
D03*
X169292D02*
D03*
X173229D02*
D03*
X177166D02*
D03*
X236221D02*
D03*
X232284D02*
D03*
X228347D02*
D03*
X224410D02*
D03*
X220473D02*
D03*
X200788D02*
D03*
X204725D02*
D03*
X208662D02*
D03*
X212599D02*
D03*
X216536D02*
D03*
X275591D02*
D03*
X271654D02*
D03*
X267717D02*
D03*
X263780D02*
D03*
X259843D02*
D03*
X240158D02*
D03*
X244095D02*
D03*
X248032D02*
D03*
X251969D02*
D03*
X255906D02*
D03*
X295276D02*
D03*
X291339D02*
D03*
X287402D02*
D03*
X283465D02*
D03*
X279528D02*
D03*
X299213D02*
D03*
X303150D02*
D03*
X307087D02*
D03*
X311024D02*
D03*
X318898D02*
D03*
X314961D02*
D03*
D71*
X1031496Y11811D02*
D03*
Y578740D02*
D03*
X11811D02*
D03*
Y11811D02*
D03*
X354012Y275590D02*
D03*
Y433071D02*
D03*
X668973Y275590D02*
D03*
Y433071D02*
D03*
M02*
