M48
;Layer_Color=9474304
;FILE_FORMAT=2:5
INCH,LZ
;TYPE=PLATED
T1F00S00C0.00787
T2F00S00C0.01968
T3F00S00C0.04724
T4F00S00C0.11811
%
T01
X0640882Y0006535
Y0026221
X0660567
Y0045906
Y0065591
X0648142Y0059055
X0640882Y0045906
X0641339Y009252
X0638583
Y0095669
X0641339
X0635039
Y009252
X0660567Y0085276
X0632677Y009252
Y0095669
X0627953
X0625197
Y009252
X0627953
X0621197Y0085276
Y0065591
Y0045906
Y0026221
Y0006535
X0601512
Y0026221
Y0045906
Y0065591
Y0085276
X0588209Y0080709
X0578209
X0573209Y0084646
X056065Y0080709
X055065
X054565Y0084646
X053309Y0080709
X0523091
X051809Y0084646
X0505532Y0080709
X0495532
X0490531Y0084646
X0477972Y0080709
X0483402Y0065591
X0503087
X0522772
X0542457
Y0045906
X0522772
Y0026221
X0515748Y0019685
X0504134
X0503087Y0026221
Y0045906
X0483402
Y0026221
X0488189Y0019685
X0483402Y0006535
X0542457
X0543307Y0019685
X0531693
X0559252
X0570866
X0586811
X0581827Y0026221
Y0045906
Y0065591
X0583209Y0101772
X0578209
X0573209
X055565
X055065
X054565
X0528091
X0523091
X051809
X0500531
X0495532
X0490531
X0581827Y0006535
X0476575Y0019685
X046063
X0463717Y0026221
X0444031
X0449016Y0019685
X0433071
X0421457
X0405512
X0393898
X0384976Y0026221
X0377953Y0019685
X0365291Y0026221
Y0045906
X0384976
X0404661
Y0065591
X0384976
X0385295Y0080709
X0380295Y0084646
Y0101772
X0385295
X0390295
X0407854
X0412854
X0417854
X0435413
X0440413
X0445413
X0462972
X0467973
X0472972
X0467972Y0080709
X0462972Y0084646
X0450413Y0080709
X0440413
X0435413Y0084646
X0422854Y0080709
X0412854
X0407854Y0084646
X0395295Y0080709
X0365291Y0065591
X0345606
X0342146Y0080709
X0332146
X0327146Y0084646
Y0101772
X0332146
X0337146
X0325921Y0065591
X0345606Y0045906
Y0026221
X0340748Y0019685
X0324803
X0325921Y0006535
X0345606
X0404661
X0444031
Y0045906
Y0065591
X0306236
X0304587Y0080709
X0299587Y0084646
X0287028Y0080709
X0277028
X0272028Y0084646
X0259469Y0080709
X0249468
X0244468Y0084646
X0231909Y0080709
X0221909
X021691Y0084646
X020435Y0080709
X019435
X018935Y0084646
X0176791Y0080709
X0166791
X0168441Y0065591
X0188126
X0207811
X0227496
Y0045906
X0247181
X0266866
Y0065591
Y0026221
X0269685Y0019685
X0258071
X0242126
X0247181Y0026221
X0227496
X0230512Y0019685
X0214567
X0202953
X0207811Y0026221
Y0045906
Y0006535
X0188126
X0187008Y0019685
X0175394
X0168441Y0026221
Y0045906
X0166791Y0101772
X0171791
X018935
X019435
X019935
X021691
X0221909
X0226909
X0244468
X0249468
X0254468
X0272028
X0277028
X0282028
X0299587
X0304587
X0309587
X0314587Y0080709
X0306236Y0045906
Y0026221
X0313189Y0019685
X0297244
X028563
X0266866Y0006535
X0159449Y0019685
X0147835
X013189
X0129071Y0026221
Y0045906
Y0065591
Y0085276
X0134232Y0084646
X0139232Y0080709
X0149232
X0161791Y0084646
Y0101772
X0144232
X0139232
X0134252
X0109386Y0085276
Y0065591
Y0045906
Y0026221
Y0006535
X0129071
X0089701
Y0026221
Y0045906
Y0065591
Y0085276
X0070016
Y0065591
Y0045906
X0050331
Y0065591
Y0085276
X0030646
Y0065591
Y0045906
X0010961
Y0065591
Y0085276
Y0006535
X0030646
X0050331
X0070016
X0001378Y0177953
X0023622Y0180098
Y0185099
Y0190099
Y0195098
X0021063Y0201772
X0020669Y0214567
X0023622Y0225098
Y0230099
Y0235099
Y0240099
Y0245098
Y0250098
Y0255099
X0051819
X0055118Y0250098
Y0245098
Y0240099
Y0235099
X0050331Y0242756
X0070016
X0089701
Y0223071
X0109386
X0129071
X0148756
X0144272Y0244
X0129071Y0242756
X0112992Y0244
X0109386Y0183701
X0129071
X0148756
Y0164016
Y0144331
X0129071
Y0164016
X0109386
Y0144331
X0089701
Y0164016
X0070016
X0055118Y0165099
Y0160099
Y0155098
Y0150099
Y0145098
X0070016Y0144331
Y0183701
X0055118Y0185099
Y0180098
Y0170098
X0023622
Y0175099
Y0165099
Y0160099
X0018799Y0165551
X0023622Y0145098
Y0140099
X0010961Y0144331
Y0124646
X0030646
Y0104961
X0050331
X0010961
X0038189Y0190099
Y0200098
X0037697Y0220079
X0055169Y0215099
X0055118Y0210099
X0070016Y0203386
X0089701
X0070016Y0223071
X0168441
X0188126
Y0242756
X0207811
X0208244Y0226339
X0227496Y0242756
X0247181
X0259842Y0240099
Y0235099
Y0230099
Y0225098
X0259449Y0199311
X0259842Y0195098
Y0190099
Y0185099
Y0180098
Y0175099
Y0170098
Y0165099
Y0160099
X0255512Y0154921
X0259842Y0150099
Y0145098
Y0140099
X0247181Y0144331
Y0164016
Y0183701
X0254724Y018189
X0273917Y0190157
X027441Y0195098
X02875Y0199409
X0288039Y0190099
Y0185099
Y0180098
Y0175099
Y0170098
Y0165099
Y0160099
Y0155098
Y0150099
Y0145098
X0287366Y0136267
X0306236Y0144331
X0309055Y0157382
Y0163779
X0306236Y0183701
Y0223071
Y0242756
X0286551
Y0223071
X0290256Y0212992
X0227496Y0183701
Y0164016
Y0144331
X0207811
Y0164016
Y0183701
X0188126
Y0164016
Y0144331
X0168441
Y0164016
Y0183701
Y0242756
X0207811Y0104961
X0266866
Y0124646
X0247181
X0325921Y0144331
X0345606
X0365291
Y0183701
X0384976
X0404661
X0424346
X0444031
X0463717
Y0223071
Y0242756
X0454035Y0245965
X0441339Y0243406
Y0240846
Y0238287
X0432677Y0240846
Y0243406
Y0245965
X0429626Y0253937
X044439
X0444031Y0223071
X0432087Y0222835
X0424346Y0223071
X0431496Y0212402
X0431791Y0234252
X0404661Y0242756
Y0223071
X0384976
X0385138Y0242126
X0374606Y0237795
X0365291Y0242756
Y0223071
X0345606
Y0242756
X0325921
Y0223071
Y0183701
X0345606
Y0104961
X0404661
X0377658Y0250842
X0483402Y0242756
Y0223071
X0503087
X0504724Y0226811
X0509449Y0229055
X0505512Y0238898
X0504724Y021752
X0507205Y0214134
X0513386Y0204724
X0509449Y019685
X0503087Y0183701
X0522772
X0542457
X0562142
X0581827
X0582087Y0192913
X0573819Y020248
X0562142Y0203386
X0558095Y0209449
X055315Y0204724
X0546283Y0209449
X053937Y0204724
X0534472Y0209449
X0522661
X0525613Y0226356
X0537402Y0220472
X0543307
Y0226378
Y0232283
X0561024
X0552165Y0220472
X0581827Y0223071
X0601512
X0611024Y0218228
X0614173Y0211949
X0608661Y0209055
X0601512Y0203386
X0614173Y0196732
X0617323
X0621197Y0203386
X0622835Y0183071
X0627244
X0631654
X0624213Y016437
Y0160433
X0622047Y0158465
X0621197Y0144331
X063189Y0145016
X0629646Y0138791
X0621197Y0124646
X0601512
Y0144331
Y0164016
Y0183701
X0611024Y019122
X06125Y0175492
X0581827Y0164016
Y0144331
X0572835Y0142028
Y013855
Y0135072
Y0131595
X0581827Y0124646
X0562142
X0542457
X0548032Y0132165
X0522772Y0124646
Y0164016
X0542457
X0553642Y0168799
X0562142Y0164016
X05Y0163386
X0496063
Y015748
X05
X0483402Y0183701
Y0104961
X0581827Y0242756
X0621197
X0628346Y0243996
Y0241437
Y0238878
X0627244Y0226378
X0631653
X0622835
X0636063
X0640472
X0644882
X063937Y0236319
Y0238878
Y0241437
X0649606Y0243996
X0660567Y0242756
Y0223071
Y0203386
Y0183701
X0644882Y0183071
X0640473
X0636063
X0640882Y0203386
X0644134Y0154527
Y0150591
X0653543
X0660567Y0144331
Y0164016
Y0124646
X0643701Y012185
X0639764
X0635827
X0644488Y0108268
X0644488Y0104331
X0660567Y0104961
X0635827Y0145016
X0640882Y0262441
X0660567
Y0282126
Y0301811
X0640882
Y0282126
X0621197
Y0301811
Y0262441
X0581827
Y0282126
X0562142Y0301811
X0542457
Y0282126
Y0262441
X0522772
Y0282126
Y0301811
X0503087
Y0282126
Y0262441
X0483402
X0482776Y0275465
X0477854
X0483402Y0282126
Y0301811
X0463717
X0444031
Y0282126
X044439Y0275465
X0439468
X0434547
X0448228Y0269193
X0463717Y0262441
X0424346
X0404661
X0386319Y0264713
X039124Y0275465
X0396161
X038937Y0283268
X0384976Y0301811
X0374311Y0297342
X0356791Y0283437
Y02795
Y0275465
X035187
Y0279528
Y0283465
X0345606Y0262441
X0365291
X0325921
Y0282126
X0404661Y0301811
X0424346
X0306236Y0282126
Y0262441
X0288039Y0280099
Y0285099
X02875Y0298622
X0273819Y0293504
X0259842Y0275098
X0247181Y0262441
X0227496
X0207811
X0208244Y0279528
X0221
X0233756
X0245374Y0298819
X0188126Y0282126
Y0262441
X0168441
Y0282126
X0148756
X0141516Y02865
X0127484
X0129071Y0282126
X01345Y02765
X0138976Y0271555
X0141516Y02665
X0148756Y0262441
X0127484Y02665
X0089701Y0282126
X0070016
X0055118Y0285138
X0051819Y0280099
Y0270098
Y0265099
X0050331Y0262441
X0051819Y0260099
X0023622
X0020079Y0266634
X0023622Y0275098
X0030646Y0301811
X0010961
X005748Y0297342
X0007597Y0280377
T02
X0633732Y-0007874
X0637669
X0641606
X0645543
X064948
X0653417
X067126Y0007874
Y0011811
Y0015748
Y0019685
Y0023622
Y0027559
Y0031496
Y0035433
Y003937
Y0043307
Y0047244
Y0051181
Y0055118
Y0059055
Y0062992
Y0066929
Y0070866
Y0074803
Y007874
Y0082677
Y0086614
Y0090551
Y0094488
Y0098425
Y0102362
X0629795Y-0007874
X0625858
X0621921
X0617984
X0614047
X061011
X0606173
X0602236
X0598299
X0594362
X0590425
X0586488
X0582551
X0578614
X0574677
X057074
X0566803
X0562866
X0558929
X0554992
X0551055
X0547118
X0543181
X0539244
X0535307
X053137
X0527433
X0523496
X0519559
X0515622
X0511685
X0507748
X0503811
X0499874
X0495937
X0492
X0488063
X0484126
X0480189
X0476252
X0472315
X0468378
X0464441
X0460504
X0456567
X045263
X0448693
X0444756
X0440819
X0436882
X0432945
X0429008
X0425071
X0421134
X0417197
X041326
X0409323
X0405386
X0401449
X0397512
X0393575
X0389638
X0385701
X0381764
X0377827
X037389
X0369953
X0350268
X0346331
X0342394
X0338457
X033452
X0330583
X0326646
X0322709
X0318772
X0314835
X0310898
X0306961
X0303024
X0299087
X029515
X0291213
X0287276
X0283339
X0279402
X0275465
X0271528
X026759
X0263653
X0259717
X025578
X0251842
X0247905
X0243969
X0240032
X0236094
X0232157
X0228221
X0224284
X0220346
X0216409
X0212472
X0208535
X0204598
X0200661
X0196724
X0192787
X018885
X0184913
X0180976
X0177039
X0173102
X0169165
X0165228
X0161291
X0157354
X0153417
X014948
X0145543
X0141606
X0137669
X0133732
X0129795
X0125858
X0121921
X0117984
X0114047
X011011
X0106173
X0102236
X0098299
X0094362
X0090425
X0086488
X0082551
X0078614
X0074677
X007074
X0066803
X0062866
X0058929
X0054992
X0051055
X0047118
X0043181
X0039244
X0035307
X003137
X0027433
X0023496
X0019559
X0015622
X0011685
X0007748
X-0007874Y0007874
Y0011811
Y0015748
Y0019685
Y0023622
Y0027559
Y0031496
Y0035433
Y003937
Y0043307
Y0047244
Y0051181
Y0055118
Y0059055
Y0062992
Y0066929
Y0070866
Y0074803
Y007874
Y0082677
Y0086614
Y0090551
Y0094488
Y0098425
Y0102362
Y0106299
Y0110236
Y0114173
Y011811
Y0122047
Y0125984
Y0129921
Y0133858
Y0137795
Y0141732
Y0145669
Y0149606
Y0153543
Y015748
Y0161417
Y0165354
Y0169291
Y0173228
Y0177165
Y0181102
Y0185039
Y0188976
Y0192913
Y019685
Y0200787
Y0204724
Y0208661
Y0212598
Y0216535
Y0220472
Y022441
Y0228346
Y0232283
Y0236221
Y0240158
Y0244094
Y0248031
Y0251969
Y0255906
X067126Y0255906
Y0251969
Y0248031
Y0244094
Y0240158
Y0236221
Y0232283
Y0228346
Y022441
Y0220472
Y0216535
Y0212598
Y0208661
Y0204724
Y0200787
Y019685
Y0192913
Y0188976
Y0185039
Y0181102
Y0177165
Y0173228
Y0169291
Y0165354
Y0161417
Y015748
Y0153543
Y0149606
Y0145669
Y0141732
Y0137795
Y0133858
Y0129921
Y0125984
Y0122047
Y011811
Y0114173
Y0110236
Y0106299
Y0259842
Y0263779
Y0267717
Y0271654
Y027559
Y0279528
Y0283465
Y0287402
Y0291339
Y0295276
Y0299213
Y030315
Y0307087
X0655638Y0322835
X0651701
X0647764
X0643827
X063989
X0635953
X0632016
X0628079
X0624142
X0620205
X0616268
X0612331
X0608394
X0604457
X060052
X0596583
X0592646
X0588709
X0584772
X0580835
X0576898
X0572961
X0569024
X0565087
X056115
X0557213
X0553276
X0549339
X0545402
X0541465
X0537528
X0533591
X0529654
X0525716
X0521779
X0517842
X0513905
X0509969
X0506032
X0502095
X0498158
X049422
X0490283
X0486346
X0482409
X0478473
X0474536
X0470598
X0466661
X0462724
X0458787
X045485
X0450913
X0446976
X0443039
X0439102
X0435165
X0431228
X0427291
X0423354
X0419417
X041548
X0411543
X0407606
X0403669
X0399732
X0395795
X0391858
X0387921
X0383984
X0380047
X037611
X0372173
X0368236
X0364299
X0360362
X0356425
X0352488
X0348551
X0344614
X0340677
X033674
X0332803
X0328866
X0324929
X0320992
X0317055
X0313118
X0309181
X0305244
X0301307
X029737
X0293433
X0289496
X0285559
X0281622
X0277685
X0273748
X0269811
X0265874
X0261937
X0258
X0254063
X0250126
X0246189
X0242252
X0238315
X0234378
X0230441
X0226504
X0222567
X021863
X0214693
X0210756
X0206819
X0202882
X0198945
X0195008
X0191071
X0187134
X0183197
X017926
X0175323
X0171386
X0167449
X0163512
X0159575
X0155638
X0151701
X0147764
X0143827
X013989
X0135953
X0132016
X0128079
X0124142
X0120205
X0116268
X0112331
X0108394
X0104457
X010052
X0096583
X0092646
X0088709
X0084772
X0080835
X0076898
X0072961
X0069024
X0065087
X006115
X0057213
X0053276
X0049338
X0045401
X0041464
X0037527
X003359
X0029653
X0025717
X0021779
X0017842
X0013905
X0009968
X-0007874Y0307087
Y030315
Y0299213
Y0295276
Y0291339
Y0287402
Y0283465
Y0279528
Y0275591
Y0271654
Y0267717
Y0263779
Y0259842
T03
X0641732Y003937
X0627953Y0059055
X0574803
X0547244
X0519685
X0492126
X0478346Y003937
X0505905
X0533465
X0561024
X0588583
X0450787
X0423228
X0395669
X038189Y0059055
X0409449
X0437008
X0464567
X032874
X034252Y003937
X0314961
X0287402
X0259842
X0232283
X0204724
X0177165
X0190945Y0059055
X0218504
X0246063
X0273622
X0301181
X0163386
X0135827
X0149606Y003937
X0096457
X0068898
X0041339
X0055118Y0059055
X0082677
X0027559
T04
X0663386Y0
X0360236
X0
X0663386Y0314961
X0
M30
