G04*
G04 #@! TF.GenerationSoftware,Altium Limited,Altium Designer,20.0.13 (296)*
G04*
G04 Layer_Color=16711935*
%FSLAX25Y25*%
%MOIN*%
G70*
G01*
G75*
%ADD10C,0.00394*%
%ADD11C,0.00787*%
%ADD15C,0.00197*%
D10*
X49718Y33270D02*
Y45470D01*
X60518D01*
Y33270D02*
Y45470D01*
X49718Y33270D02*
X60518D01*
X287303Y5020D02*
Y18602D01*
X271752D02*
X287303D01*
X271752Y5020D02*
Y18602D01*
Y5020D02*
X287303D01*
X155891Y10322D02*
X182691D01*
Y37022D01*
X155891D02*
X182691D01*
X155891Y10322D02*
Y37022D01*
Y116199D02*
X182691D01*
X155891Y96399D02*
Y116199D01*
Y96399D02*
X182691D01*
Y116199D01*
X198819Y33268D02*
X201969Y36417D01*
X198819D02*
X226378D01*
Y8858D02*
Y36417D01*
X198819Y8858D02*
X226378D01*
X198819D02*
Y36417D01*
X182677Y67716D02*
Y74016D01*
X171260D02*
X182677D01*
X171260Y67716D02*
Y74016D01*
Y67716D02*
X182677D01*
X178937D02*
X182677Y71457D01*
X171811Y90433D02*
X178110D01*
X171811Y79016D02*
Y90433D01*
Y79016D02*
X178110D01*
Y90433D01*
X174370D02*
X178110Y86693D01*
X201083Y87402D02*
Y91339D01*
X205413D01*
Y87402D02*
Y91339D01*
X201083Y87402D02*
X205413D01*
X157191Y120021D02*
Y139821D01*
Y120021D02*
X181391D01*
Y139821D01*
X157191D02*
X181391D01*
X179232Y139780D02*
X181350Y137662D01*
X109303Y29344D02*
X145203D01*
X109303D02*
Y65244D01*
X145203D01*
Y29344D02*
Y65244D01*
X30670Y30670D02*
Y48070D01*
X48070D01*
X30670Y30670D02*
X48070D01*
Y48070D01*
X89661Y53944D02*
X97661D01*
Y40644D02*
Y53944D01*
X89661Y40644D02*
X97661D01*
X89661D02*
Y53944D01*
X191968Y146776D02*
X204173D01*
Y157012D01*
X191968D02*
X204173D01*
X191968Y146776D02*
Y157012D01*
X3347Y40748D02*
Y61614D01*
X18996D01*
X24213Y56398D01*
Y45965D02*
Y56398D01*
X18996Y40748D02*
X24213Y45965D01*
X3347Y40748D02*
X18996D01*
X109847Y71240D02*
X134347D01*
Y86240D01*
X109847D02*
X134347D01*
X109847Y71240D02*
Y86240D01*
X3347Y95866D02*
Y116732D01*
X18996D01*
X24213Y111516D01*
Y101083D02*
Y111516D01*
X18996Y95866D02*
X24213Y101083D01*
X3347Y95866D02*
X18996D01*
X3347Y119488D02*
Y140354D01*
X18996D01*
X24213Y135138D01*
Y124705D02*
Y135138D01*
X18996Y119488D02*
X24213Y124705D01*
X3347Y119488D02*
X18996D01*
X3347Y17126D02*
Y37992D01*
X18996D01*
X24213Y32776D01*
Y22343D02*
Y32776D01*
X18996Y17126D02*
X24213Y22343D01*
X3347Y17126D02*
X18996D01*
X30670Y109410D02*
Y126810D01*
X48070D01*
X30670Y109410D02*
X48070D01*
Y126810D01*
X311409Y48106D02*
Y52043D01*
X307079D02*
X311409D01*
X307079Y48106D02*
Y52043D01*
Y48106D02*
X311409D01*
X304634D02*
Y52043D01*
X300303D02*
X304634D01*
X300303Y48106D02*
Y52043D01*
Y48106D02*
X304634D01*
X143898Y122047D02*
Y125984D01*
X139567D02*
X143898D01*
X139567Y122047D02*
Y125984D01*
Y122047D02*
X143898D01*
X128150D02*
Y125984D01*
X123819D02*
X128150D01*
X123819Y122047D02*
Y125984D01*
Y122047D02*
X128150D01*
X112402D02*
Y125984D01*
X108071D02*
X112402D01*
X108071Y122047D02*
Y125984D01*
Y122047D02*
X112402D01*
X96653D02*
Y125984D01*
X92323D02*
X96653D01*
X92323Y122047D02*
Y125984D01*
Y122047D02*
X96653D01*
X208465Y130453D02*
Y134390D01*
X212795D01*
Y130453D02*
Y134390D01*
X208465Y130453D02*
X212795D01*
X192717D02*
Y134390D01*
X197047D01*
Y130453D02*
Y134390D01*
X192717Y130453D02*
X197047D01*
X224213Y130748D02*
Y134685D01*
X228543D01*
Y130748D02*
Y134685D01*
X224213Y130748D02*
X228543D01*
X108071Y86614D02*
Y90551D01*
Y86614D02*
X112402D01*
Y90551D01*
X108071D02*
X112402D01*
X123819Y86614D02*
Y90551D01*
Y86614D02*
X128150D01*
Y90551D01*
X123819D02*
X128150D01*
X92323Y86614D02*
Y90551D01*
Y86614D02*
X96653D01*
Y90551D01*
X92323D02*
X96653D01*
X49718Y112010D02*
Y124210D01*
X60518D01*
Y112010D02*
Y124210D01*
X49718Y112010D02*
X60518D01*
X299213Y73965D02*
Y80264D01*
X310630D01*
Y73965D02*
Y80264D01*
X299213Y73965D02*
X310630D01*
X299213Y77705D02*
X302953Y73965D01*
X51968Y84449D02*
X58268D01*
Y73032D02*
Y84449D01*
X51968Y73032D02*
X58268D01*
X51968D02*
Y84449D01*
Y80709D02*
X55709Y84449D01*
X8661Y80709D02*
X12402Y84449D01*
X8661Y73032D02*
Y84449D01*
Y73032D02*
X14961D01*
Y84449D01*
X8661D02*
X14961D01*
X192815Y5020D02*
Y18602D01*
X177264D02*
X192815D01*
X177264Y5020D02*
Y18602D01*
Y5020D02*
X192815D01*
X240059D02*
Y18602D01*
X224508D02*
X240059D01*
X224508Y5020D02*
Y18602D01*
Y5020D02*
X240059D01*
X167323Y67716D02*
Y74016D01*
X155905D02*
X167323D01*
X155905Y67716D02*
Y74016D01*
Y67716D02*
X167323D01*
X163583D02*
X167323Y71457D01*
X182691Y41281D02*
Y61081D01*
X155891Y41281D02*
X182691D01*
X155891D02*
Y61081D01*
X182691D01*
X224798Y51555D02*
Y66555D01*
X200298Y51555D02*
X224798D01*
X200298D02*
Y66555D01*
X224798D01*
D11*
X200624Y85140D02*
X208624D01*
Y72240D02*
Y85140D01*
X200624Y72240D02*
X208624D01*
X200624D02*
Y85140D01*
X144073Y92005D02*
Y149105D01*
X84273Y92005D02*
X144073D01*
X84273D02*
Y149105D01*
X144073D01*
D15*
X136832Y77409D02*
X146632D01*
X136832D02*
Y84009D01*
X146632D01*
Y77409D02*
Y84009D01*
X125721Y23885D02*
X134121D01*
X125721Y15485D02*
Y23885D01*
Y16485D02*
X126721Y15485D01*
X125721D02*
X134121D01*
Y23885D01*
X136832Y91188D02*
X146632D01*
X136832D02*
Y97788D01*
X146632D01*
Y91188D02*
Y97788D01*
X164800Y150100D02*
Y159900D01*
X158200D02*
X164800D01*
X158200Y150100D02*
Y159900D01*
Y150100D02*
X164800D01*
M02*
