G04*
G04 #@! TF.GenerationSoftware,Altium Limited,Altium Designer,20.0.13 (296)*
G04*
G04 Layer_Color=128*
%FSLAX25Y25*%
%MOIN*%
G70*
G01*
G75*
%ADD111C,0.00200*%
D111*
X262008Y21752D02*
X262795D01*
X262402Y21358D02*
Y22146D01*
X262205Y10335D02*
X262992D01*
X262598Y9941D02*
Y10728D01*
X289961Y-1378D02*
X290748D01*
X290354Y-1772D02*
Y-984D01*
X308366Y24311D02*
X309154D01*
X308760Y23917D02*
Y24705D01*
X298228Y46752D02*
X299016D01*
X298622Y46358D02*
Y47146D01*
X311417Y58563D02*
X312205D01*
X311811Y58169D02*
Y58957D01*
X206988Y130610D02*
X207776D01*
X207382Y130217D02*
Y131004D01*
X122047Y146555D02*
X122835D01*
X122441Y146161D02*
Y146949D01*
X140945Y104528D02*
X141732D01*
X141339Y104134D02*
Y104921D01*
X161909Y85236D02*
X162697D01*
X162303Y84842D02*
Y85630D01*
X210531Y109449D02*
X211319D01*
X210925Y109055D02*
Y109843D01*
X210138Y99114D02*
X210925D01*
X210531Y98721D02*
Y99508D01*
X232972Y92716D02*
X233760D01*
X233366Y92323D02*
Y93110D01*
X283563Y134646D02*
X284350D01*
X283957Y134252D02*
Y135039D01*
X298130Y123721D02*
X298917D01*
X298524Y123327D02*
Y124114D01*
X284744Y58957D02*
X285531D01*
X285138Y58563D02*
Y59350D01*
X285630Y87205D02*
X286417D01*
X286024Y86811D02*
Y87598D01*
X285531Y94882D02*
X286319D01*
X285925Y94488D02*
Y95276D01*
X260335Y104921D02*
X261122D01*
X260728Y104528D02*
Y105315D01*
X260630Y86516D02*
X261417D01*
X261024Y86122D02*
Y86910D01*
X260728Y69587D02*
X261516D01*
X261122Y69193D02*
Y69980D01*
X263484Y53248D02*
X264272D01*
X263878Y52854D02*
Y53642D01*
X282972Y33661D02*
X283760D01*
X283366Y33268D02*
Y34055D01*
X269193Y18799D02*
X269980D01*
X269587Y18406D02*
Y19193D01*
X270965Y5709D02*
X271752D01*
X271358Y5315D02*
Y6102D01*
X191831Y3051D02*
X192618D01*
X192224Y2657D02*
Y3445D01*
Y11811D02*
X193012D01*
X192618Y11417D02*
Y12205D01*
X241929Y2362D02*
X242717D01*
X242323Y1969D02*
Y2756D01*
X214075Y20177D02*
X214862D01*
X214469Y19783D02*
Y20571D01*
X213779Y7677D02*
X214567D01*
X214173Y7283D02*
Y8071D01*
X117126Y24409D02*
X117913D01*
X117520Y24016D02*
Y24803D01*
X120472Y8661D02*
X121260D01*
X120866Y8268D02*
Y9055D01*
X142815Y9744D02*
X143602D01*
X143209Y9350D02*
Y10138D01*
X156102Y19488D02*
X156890D01*
X156496Y19094D02*
Y19882D01*
X172933Y72244D02*
X173721D01*
X173327Y71850D02*
Y72638D01*
X101772Y125295D02*
X102559D01*
X102165Y124902D02*
Y125689D01*
X117520Y125591D02*
X118307D01*
X117913Y125197D02*
Y125984D01*
X131693Y125492D02*
X132480D01*
X132087Y125098D02*
Y125886D01*
X151279Y123130D02*
X152067D01*
X151673Y122736D02*
Y123524D01*
X153150Y95276D02*
X153937D01*
X153543Y94882D02*
Y95669D01*
X114961Y75000D02*
X115748D01*
X115354Y74606D02*
Y75394D01*
X130512Y74803D02*
X131299D01*
X130905Y74410D02*
Y75197D01*
X131201Y66634D02*
X131988D01*
X131595Y66240D02*
Y67028D01*
X110236Y66929D02*
X111024D01*
X110630Y66535D02*
Y67323D01*
X100197Y75492D02*
X100984D01*
X100591Y75098D02*
Y75886D01*
X54528Y79134D02*
X55315D01*
X54921Y78740D02*
Y79528D01*
X84153Y62500D02*
X84941D01*
X84547Y62106D02*
Y62894D01*
X84941Y40650D02*
X85728D01*
X85335Y40256D02*
Y41043D01*
X69784Y33957D02*
X70571D01*
X70177Y33563D02*
Y34350D01*
X63779Y26280D02*
X64567D01*
X64173Y25886D02*
Y26673D01*
X77362Y12894D02*
X78150D01*
X77756Y12500D02*
Y13287D01*
X34843Y153248D02*
X35630D01*
X35236Y152854D02*
Y153642D01*
X65158Y145177D02*
X65945D01*
X65551Y144783D02*
Y145571D01*
X79921Y130610D02*
X80709D01*
X80315Y130217D02*
Y131004D01*
X72342Y108957D02*
X73130D01*
X72736Y108563D02*
Y109350D01*
X47933Y99213D02*
X48720D01*
X48327Y98819D02*
Y99606D01*
X47146Y90453D02*
X47933D01*
X47539Y90059D02*
Y90847D01*
X77953Y89961D02*
X78740D01*
X78347Y89567D02*
Y90354D01*
X71949Y53150D02*
X72736D01*
X72342Y52756D02*
Y53543D01*
X77461Y70374D02*
X78248D01*
X77854Y69980D02*
Y70768D01*
X34154Y63878D02*
X34941D01*
X34547Y63484D02*
Y64272D01*
X48819Y63484D02*
X49606D01*
X49213Y63090D02*
Y63878D01*
X42323Y39370D02*
X43110D01*
X42717Y38976D02*
Y39764D01*
X306437Y116339D02*
X307224D01*
X306831Y115945D02*
Y116732D01*
X301437Y116339D02*
X302224D01*
X301831Y115945D02*
Y116732D01*
X270866Y131240D02*
X271654D01*
X271260Y130846D02*
Y131634D01*
X260236Y131240D02*
X261024D01*
X260630Y130846D02*
Y131634D01*
X133071Y27608D02*
X133858D01*
X133465Y27215D02*
Y28002D01*
X109744Y37992D02*
X110531D01*
X110138Y37598D02*
Y38386D01*
X108150Y75000D02*
X108937D01*
X108543Y74606D02*
Y75394D01*
X123898Y75000D02*
X124685D01*
X124291Y74606D02*
Y75394D01*
X138189Y75197D02*
X138976D01*
X138583Y74803D02*
Y75590D01*
X148228Y75197D02*
X149016D01*
X148622Y74803D02*
Y75590D01*
X144488Y75197D02*
X145276D01*
X144882Y74803D02*
Y75590D01*
X92402Y75000D02*
X93189D01*
X92795Y74606D02*
Y75394D01*
X185827Y39114D02*
X186614D01*
X186221Y38721D02*
Y39508D01*
X125984Y13453D02*
X126772D01*
X126378Y13060D02*
Y13847D01*
X92402Y35433D02*
X93189D01*
X92795Y35039D02*
Y35827D01*
X192913Y81634D02*
X193701D01*
X193307Y81240D02*
Y82028D01*
X252953Y-984D02*
X253740D01*
X253346Y-1378D02*
Y-591D01*
X237795Y-984D02*
X238583D01*
X238189Y-1378D02*
Y-591D01*
X232874Y2435D02*
X233661D01*
X233268Y2042D02*
Y2829D01*
X230118Y2435D02*
X230906D01*
X230512Y2042D02*
Y2829D01*
X226969Y2435D02*
X227756D01*
X227362Y2042D02*
Y2829D01*
X197441Y-984D02*
X198228D01*
X197835Y-1378D02*
Y-591D01*
X195561Y14764D02*
X196348D01*
X195955Y14370D02*
Y15157D01*
X195561Y8858D02*
X196348D01*
X195955Y8465D02*
Y9252D01*
X287008Y5020D02*
X287795D01*
X287402Y4626D02*
Y5413D01*
X242805Y14764D02*
X243593D01*
X243199Y14370D02*
Y15157D01*
X246012Y3851D02*
X246800D01*
X246406Y3457D02*
Y4245D01*
X242805Y9874D02*
X243593D01*
X243199Y9480D02*
Y10268D01*
X308268Y76531D02*
X309055D01*
X308661Y76138D02*
Y76925D01*
X61949Y82579D02*
X62736D01*
X62343Y82185D02*
Y82972D01*
X105709Y41535D02*
X106496D01*
X106102Y41142D02*
Y41929D01*
X102638Y57087D02*
X103425D01*
X103032Y56693D02*
Y57480D01*
X96220Y55000D02*
X97008D01*
X96614Y54606D02*
Y55394D01*
X47500Y74902D02*
X48287D01*
X47894Y74508D02*
Y75295D01*
X181693Y2756D02*
X182480D01*
X182087Y2362D02*
Y3150D01*
X176634Y5020D02*
X177421D01*
X177028Y4626D02*
Y5413D01*
X286220Y63917D02*
X287008D01*
X286614Y63524D02*
Y64311D01*
X130915Y90463D02*
X131703D01*
X131309Y90069D02*
Y90856D01*
X290177Y7874D02*
X290965D01*
X290571Y7480D02*
Y8268D01*
X178740Y49744D02*
X179528D01*
X179134Y49350D02*
Y50138D01*
X78347Y39370D02*
X79134D01*
X78740Y38976D02*
Y39764D01*
X78347Y59055D02*
X79134D01*
X78740Y58661D02*
Y59449D01*
X78347Y35433D02*
X79134D01*
X78740Y35039D02*
Y35827D01*
X78347Y55118D02*
X79134D01*
X78740Y54724D02*
Y55512D01*
X133071Y16142D02*
X133858D01*
X133465Y15748D02*
Y16535D01*
X136161Y18110D02*
X136949D01*
X136555Y17717D02*
Y18504D01*
X109843Y14902D02*
X110630D01*
X110236Y14508D02*
Y15295D01*
X113779Y14902D02*
X114567D01*
X114173Y14508D02*
Y15295D01*
X135551Y82441D02*
X136339D01*
X135945Y82047D02*
Y82835D01*
X30413Y129921D02*
X31201D01*
X30807Y129528D02*
Y130315D01*
X38976Y106299D02*
X39764D01*
X39370Y105905D02*
Y106693D01*
X310543Y32685D02*
X311331D01*
X310937Y32291D02*
Y33079D01*
X303768Y32677D02*
X304555D01*
X304161Y32283D02*
Y33071D01*
X2559Y82480D02*
X3347D01*
X2953Y82087D02*
Y82874D01*
X143012Y120276D02*
X143799D01*
X143405Y119882D02*
Y120669D01*
X38976Y27559D02*
X39764D01*
X39370Y27165D02*
Y27953D01*
X290177Y14000D02*
X290965D01*
X290571Y13606D02*
Y14394D01*
X300787Y69890D02*
X301575D01*
X301181Y69496D02*
Y70284D01*
X51772Y48094D02*
X52559D01*
X52165Y47701D02*
Y48488D01*
X47500Y82579D02*
X48287D01*
X47894Y82185D02*
Y82972D01*
X33858Y81840D02*
X34646D01*
X34252Y81447D02*
Y82234D01*
X226969Y20965D02*
X227756D01*
X227362Y20571D02*
Y21358D01*
X232972Y20965D02*
X233760D01*
X233366Y20571D02*
Y21358D01*
X229528Y20965D02*
X230315D01*
X229921Y20571D02*
Y21358D01*
X278649Y21012D02*
X279437D01*
X279043Y20619D02*
Y21406D01*
X282087Y21181D02*
X282874D01*
X282480Y20787D02*
Y21575D01*
X276181Y20965D02*
X276969D01*
X276575Y20571D02*
Y21358D01*
X272462Y20965D02*
X273249D01*
X272855Y20571D02*
Y21358D01*
X58386Y31309D02*
X59173D01*
X58780Y30915D02*
Y31703D01*
X179737Y20997D02*
X180524D01*
X180131Y20603D02*
Y21391D01*
X182493Y20984D02*
X183281D01*
X182887Y20591D02*
Y21378D01*
X138189Y88976D02*
X138976D01*
X138583Y88583D02*
Y89370D01*
X277953Y46201D02*
X278740D01*
X278346Y45807D02*
Y46595D01*
X256693Y46201D02*
X257480D01*
X257087Y45807D02*
Y46595D01*
X270866Y39114D02*
X271654D01*
X271260Y38721D02*
Y39508D01*
X263779Y39114D02*
X264567D01*
X264173Y38721D02*
Y39508D01*
X279084Y2461D02*
X279871D01*
X279478Y2067D02*
Y2854D01*
X273273Y2372D02*
X274061D01*
X273667Y1978D02*
Y2766D01*
X276181Y2372D02*
X276969D01*
X276575Y1978D02*
Y2766D01*
X284055Y2372D02*
X284842D01*
X284449Y1978D02*
Y2766D01*
X185827Y124153D02*
X186614D01*
X186221Y123760D02*
Y124547D01*
X186417Y109350D02*
X187205D01*
X186811Y108957D02*
Y109744D01*
X185827Y102894D02*
X186614D01*
X186221Y102500D02*
Y103287D01*
X185827Y95807D02*
X186614D01*
X186221Y95413D02*
Y96201D01*
X192913Y39114D02*
X193701D01*
X193307Y38721D02*
Y39508D01*
X200000Y39114D02*
X200787D01*
X200394Y38721D02*
Y39508D01*
X207087Y39114D02*
X207874D01*
X207480Y38721D02*
Y39508D01*
X214173Y39114D02*
X214961D01*
X214567Y38721D02*
Y39508D01*
X263779Y46201D02*
X264567D01*
X264173Y45807D02*
Y46595D01*
X270866Y46201D02*
X271654D01*
X271260Y45807D02*
Y46595D01*
X285039Y46201D02*
X285827D01*
X285433Y45807D02*
Y46595D01*
X277953Y39114D02*
X278740D01*
X278346Y38721D02*
Y39508D01*
X131024Y129921D02*
X131811D01*
X131417Y129528D02*
Y130315D01*
X144488Y88976D02*
X145276D01*
X144882Y88583D02*
Y89370D01*
X144488Y100000D02*
X145276D01*
X144882Y99606D02*
Y100394D01*
X115276Y129871D02*
X116063D01*
X115669Y129477D02*
Y130264D01*
X138189Y100000D02*
X138976D01*
X138583Y99606D02*
Y100394D01*
X115167Y90463D02*
X115955D01*
X115561Y90069D02*
Y90856D01*
X99311Y90354D02*
X100098D01*
X99705Y89961D02*
Y90748D01*
X146772Y110236D02*
X147559D01*
X147165Y109843D02*
Y110630D01*
X137598Y125787D02*
X138386D01*
X137992Y125394D02*
Y126181D01*
X131024Y118110D02*
X131811D01*
X131417Y117717D02*
Y118504D01*
X115276Y118110D02*
X116063D01*
X115669Y117717D02*
Y118504D01*
X99528Y129921D02*
X100315D01*
X99921Y129528D02*
Y130315D01*
X99528Y118110D02*
X100315D01*
X99921Y117717D02*
Y118504D01*
M02*
