G04*
G04 #@! TF.GenerationSoftware,Altium Limited,Altium Designer,20.0.13 (296)*
G04*
G04 Layer_Color=2752767*
%FSLAX25Y25*%
%MOIN*%
G70*
G01*
G75*
%ADD111C,0.00200*%
D111*
X159941Y135322D02*
X159141Y136922D01*
X160741D01*
X159941Y135322D01*
X81988Y104810D02*
X81188Y106410D01*
X82788D01*
X81988Y104810D01*
X42421Y138078D02*
X41621Y139678D01*
X43221D01*
X42421Y138078D01*
X19980Y116129D02*
X19180Y117729D01*
X20780D01*
X19980Y116129D01*
X19587Y81779D02*
X18787Y83379D01*
X20387D01*
X19587Y81779D01*
X32677Y15539D02*
X31877Y17139D01*
X33477D01*
X32677Y15539D01*
X66732Y33353D02*
X65932Y34953D01*
X67532D01*
X66732Y33353D01*
X75000Y56484D02*
X74200Y58083D01*
X75800D01*
X75000Y56484D01*
X146457Y69771D02*
X145657Y71371D01*
X147257D01*
X146457Y69771D01*
X165945Y109043D02*
X165145Y110643D01*
X166745D01*
X165945Y109043D01*
X145866Y103629D02*
X145066Y105229D01*
X146666D01*
X145866Y103629D01*
X178543Y70066D02*
X177743Y71666D01*
X179343D01*
X178543Y70066D01*
X184449Y83846D02*
X183649Y85446D01*
X185249D01*
X184449Y83846D01*
X184843Y93196D02*
X184043Y94796D01*
X185643D01*
X184843Y93196D01*
X193602Y94574D02*
X192802Y96174D01*
X194402D01*
X193602Y94574D01*
X210236Y112192D02*
X209436Y113792D01*
X211036D01*
X210236Y112192D01*
X237205Y112684D02*
X236405Y114284D01*
X238005D01*
X237205Y112684D01*
X282579Y131483D02*
X281779Y133083D01*
X283379D01*
X282579Y131483D01*
X263976Y116621D02*
X263176Y118221D01*
X264776D01*
X263976Y116621D01*
X270768Y97035D02*
X269968Y98635D01*
X271568D01*
X270768Y97035D01*
X271358Y74003D02*
X270558Y75603D01*
X272158D01*
X271358Y74003D01*
X284744Y13570D02*
X283944Y15170D01*
X285544D01*
X284744Y13570D01*
X264173Y56582D02*
X263373Y58182D01*
X264973D01*
X264173Y56582D01*
X267224Y39751D02*
X266424Y41351D01*
X268024D01*
X267224Y39751D01*
X240158Y12094D02*
X239357Y13694D01*
X240957D01*
X240158Y12094D01*
X251083Y11405D02*
X250283Y13005D01*
X251883D01*
X251083Y11405D01*
X210925Y7172D02*
X210125Y8772D01*
X211725D01*
X210925Y7172D01*
X178051Y16621D02*
X177251Y18221D01*
X178851D01*
X178051Y16621D01*
X156398Y15440D02*
X155598Y17040D01*
X157198D01*
X156398Y15440D01*
X144685Y3039D02*
X143885Y4639D01*
X145485D01*
X144685Y3039D01*
X117126Y20263D02*
X116326Y21863D01*
X117926D01*
X117126Y20263D01*
X222441Y32812D02*
X221641Y34412D01*
X223241D01*
X222441Y32812D01*
X155709Y70361D02*
X154909Y71961D01*
X156509D01*
X155709Y70361D01*
X112324Y54048D02*
X111524Y55648D01*
X113124D01*
X112324Y54048D01*
X122047Y55893D02*
X121247Y57493D01*
X122847D01*
X122047Y55893D01*
X110236D02*
X109436Y57493D01*
X111036D01*
X110236Y55893D01*
X114123D02*
X113323Y57493D01*
X114923D01*
X114123Y55893D01*
X118110D02*
X117310Y57493D01*
X118910D01*
X118110Y55893D01*
X98425Y23314D02*
X97625Y24914D01*
X99225D01*
X98425Y23314D01*
X110236D02*
X109436Y24914D01*
X111036D01*
X110236Y23314D01*
X253150Y55440D02*
X252350Y57040D01*
X253950D01*
X253150Y55440D01*
X222441Y20558D02*
X221641Y22158D01*
X223241D01*
X222441Y20558D01*
X227801Y5105D02*
X227001Y6706D01*
X228601D01*
X227801Y5105D01*
X283661Y25440D02*
X282861Y27040D01*
X284461D01*
X283661Y25440D01*
X283465Y30440D02*
X282665Y32040D01*
X284265D01*
X283465Y30440D01*
Y60440D02*
X282665Y62040D01*
X284265D01*
X283465Y60440D01*
X218898Y49397D02*
X218098Y50997D01*
X219698D01*
X218898Y49397D01*
X222933Y56779D02*
X222133Y58379D01*
X223733D01*
X222933Y56779D01*
Y49200D02*
X222133Y50800D01*
X223733D01*
X222933Y49200D01*
X211614D02*
X210814Y50800D01*
X212414D01*
X211614Y49200D01*
X181988Y56779D02*
X181188Y58379D01*
X182788D01*
X181988Y56779D01*
X164764Y34338D02*
X163964Y35938D01*
X165564D01*
X164764Y34338D01*
X216339Y52350D02*
X215539Y53950D01*
X217139D01*
X216339Y52350D01*
X161614Y49200D02*
X160814Y50800D01*
X162414D01*
X161614Y49200D01*
X101349Y34658D02*
X100549Y36258D01*
X102149D01*
X101349Y34658D01*
X145890Y18885D02*
X145090Y20485D01*
X146690D01*
X145890Y18885D01*
Y14948D02*
X145090Y16548D01*
X146690D01*
X145890Y14948D01*
X283472Y20324D02*
X282672Y21924D01*
X284272D01*
X283472Y20324D01*
X283465Y35440D02*
X282665Y37040D01*
X284265D01*
X283465Y35440D01*
Y50440D02*
X282665Y52040D01*
X284265D01*
X283465Y50440D01*
Y55440D02*
X282665Y57040D01*
X284265D01*
X283465Y55440D01*
Y40440D02*
X282665Y42040D01*
X284265D01*
X283465Y40440D01*
Y45440D02*
X282665Y47040D01*
X284265D01*
X283465Y45440D01*
X116142Y53928D02*
X115342Y55528D01*
X116942D01*
X116142Y53928D01*
X120079D02*
X119279Y55528D01*
X120879D01*
X120079Y53928D01*
X108268D02*
X107468Y55528D01*
X109068D01*
X108268Y53928D01*
X31496Y55440D02*
X30696Y57040D01*
X32296D01*
X31496Y55440D01*
Y40440D02*
X30696Y42040D01*
X32296D01*
X31496Y40440D01*
X47244Y100440D02*
X46444Y102040D01*
X48044D01*
X47244Y100440D01*
X143705Y54318D02*
X142905Y55918D01*
X144505D01*
X143705Y54318D01*
X253150Y25440D02*
X252350Y27040D01*
X253950D01*
X253150Y25440D01*
Y30440D02*
X252350Y32040D01*
X253950D01*
X253150Y30440D01*
Y35440D02*
X252350Y37040D01*
X253950D01*
X253150Y35440D01*
Y40440D02*
X252350Y42040D01*
X253950D01*
X253150Y40440D01*
Y45440D02*
X252350Y47040D01*
X253950D01*
X253150Y45440D01*
Y50440D02*
X252350Y52040D01*
X253950D01*
X253150Y50440D01*
Y60440D02*
X252350Y62040D01*
X253950D01*
X253150Y60440D01*
X66142Y45440D02*
X65342Y47040D01*
X66942D01*
X66142Y45440D01*
X99384Y32690D02*
X98584Y34290D01*
X100184D01*
X99384Y32690D01*
X66142Y50440D02*
X65342Y52040D01*
X66942D01*
X66142Y50440D01*
X47343Y105558D02*
X46543Y107158D01*
X48142D01*
X47343Y105558D01*
X108268Y21350D02*
X107468Y22950D01*
X109068D01*
X108268Y21350D01*
X106299Y23314D02*
X105499Y24914D01*
X107099D01*
X106299Y23314D01*
X104381Y21350D02*
X103581Y22950D01*
X105181D01*
X104381Y21350D01*
X102362Y23314D02*
X101562Y24914D01*
X103162D01*
X102362Y23314D01*
X100394Y21350D02*
X99594Y22950D01*
X101194D01*
X100394Y21350D01*
X96457D02*
X95657Y22950D01*
X97257D01*
X96457Y21350D01*
X143705Y46444D02*
X142905Y48044D01*
X144505D01*
X143705Y46444D01*
Y50381D02*
X142905Y51981D01*
X144505D01*
X143705Y50381D01*
X31496Y90440D02*
X30696Y92040D01*
X32296D01*
X31496Y90440D01*
Y95440D02*
X30696Y97040D01*
X32296D01*
X31496Y95440D01*
Y100440D02*
X30696Y102040D01*
X32296D01*
X31496Y100440D01*
X31496Y105440D02*
X30696Y107040D01*
X32296D01*
X31496Y105440D01*
X31496Y110440D02*
X30696Y112040D01*
X32296D01*
X31496Y110440D01*
Y115440D02*
X30696Y117040D01*
X32296D01*
X31496Y115440D01*
Y120440D02*
X30696Y122040D01*
X32296D01*
X31496Y120440D01*
Y125440D02*
X30696Y127040D01*
X32296D01*
X31496Y125440D01*
X125984Y15338D02*
X125184Y16938D01*
X126784D01*
X125984Y15338D01*
X124016Y13373D02*
X123216Y14973D01*
X124816D01*
X124016Y13373D01*
X122047Y15338D02*
X121247Y16938D01*
X122847D01*
X122047Y15338D01*
X120129Y13373D02*
X119329Y14973D01*
X120929D01*
X120129Y13373D01*
X118110Y15338D02*
X117310Y16938D01*
X118910D01*
X118110Y15338D01*
X116142Y13373D02*
X115342Y14973D01*
X116942D01*
X116142Y13373D01*
X114173Y15338D02*
X113373Y16938D01*
X114973D01*
X114173Y15338D01*
X112205Y13373D02*
X111405Y14973D01*
X113005D01*
X112205Y13373D01*
X145890Y11011D02*
X145090Y12611D01*
X146690D01*
X145890Y11011D01*
X133858Y2916D02*
X133058Y4516D01*
X134658D01*
X133858Y2916D01*
X137795D02*
X136995Y4516D01*
X138595D01*
X137795Y2916D01*
X31496Y60440D02*
X30696Y62040D01*
X32296D01*
X31496Y60440D01*
X31496Y50440D02*
X30696Y52040D01*
X32296D01*
X31496Y50440D01*
X31496Y45440D02*
X30696Y47040D01*
X32296D01*
X31496Y45440D01*
Y35440D02*
X30696Y37040D01*
X32296D01*
X31496Y35440D01*
Y30440D02*
X30696Y32040D01*
X32296D01*
X31496Y30440D01*
X31496Y25440D02*
X30696Y27040D01*
X32296D01*
X31496Y25440D01*
X143705Y16917D02*
X142905Y18517D01*
X144505D01*
X143705Y16917D01*
Y12979D02*
X142905Y14580D01*
X144505D01*
X143705Y12979D01*
X135827Y5102D02*
X135027Y6702D01*
X136627D01*
X135827Y5102D01*
X145669Y40539D02*
X144869Y42139D01*
X146469D01*
X145669Y40539D01*
X143705Y42507D02*
X142905Y44107D01*
X144505D01*
X143705Y42507D01*
X145669Y44476D02*
X144869Y46076D01*
X146469D01*
X145669Y44476D01*
Y48463D02*
X144869Y50063D01*
X146469D01*
X145669Y48463D01*
Y52350D02*
X144869Y53950D01*
X146469D01*
X145669Y52350D01*
X47244Y110440D02*
X46444Y112040D01*
X48044D01*
X47244Y110440D01*
Y115440D02*
X46444Y117040D01*
X48044D01*
X47244Y115440D01*
Y120440D02*
X46444Y122040D01*
X48044D01*
X47244Y120440D01*
Y125440D02*
X46444Y127040D01*
X48044D01*
X47244Y125440D01*
X47244Y130440D02*
X46444Y132040D01*
X48044D01*
X47244Y130440D01*
X47244Y135440D02*
X46444Y137040D01*
X48044D01*
X47244Y135440D01*
M02*
