G04*
G04 #@! TF.GenerationSoftware,Altium Limited,Altium Designer,20.0.13 (296)*
G04*
G04 Layer_Color=2752767*
%FSLAX25Y25*%
%MOIN*%
G70*
G01*
G75*
%ADD111C,0.00200*%
D111*
X39272Y5440D02*
X38472Y7040D01*
X40072D01*
X39272Y5440D01*
X248622Y9824D02*
X247822Y11424D01*
X249422D01*
X248622Y9824D01*
X139764Y15342D02*
X138964Y16942D01*
X140564D01*
X139764Y15342D01*
X114173Y10898D02*
X113373Y12498D01*
X114973D01*
X114173Y10898D01*
X195955Y20583D02*
X195155Y22184D01*
X196755D01*
X195955Y20583D01*
X39272Y29619D02*
X38472Y31219D01*
X40072D01*
X39272Y29619D01*
X106102Y44082D02*
X105302Y45682D01*
X106902D01*
X106102Y44082D01*
X131417Y112389D02*
X130617Y113989D01*
X132217D01*
X131417Y112389D01*
X92520Y53629D02*
X91720Y55229D01*
X93320D01*
X92520Y53629D01*
X179134Y43728D02*
X178334Y45328D01*
X179934D01*
X179134Y43728D01*
X200394Y33098D02*
X199594Y34698D01*
X201194D01*
X200394Y33098D01*
X193307D02*
X192507Y34698D01*
X194107D01*
X193307Y33098D01*
X39272Y108353D02*
X38472Y109953D01*
X40072D01*
X39272Y108353D01*
X214567Y33098D02*
X213767Y34698D01*
X215367D01*
X214567Y33098D01*
X207480D02*
X206680Y34698D01*
X208280D01*
X207480Y33098D01*
M02*
