G04*
G04 #@! TF.GenerationSoftware,Altium Limited,Altium Designer,20.0.13 (296)*
G04*
G04 Layer_Color=8388736*
%FSLAX25Y25*%
%MOIN*%
G70*
G01*
G75*
%ADD15C,0.00197*%
D15*
X146632Y77409D02*
Y84009D01*
X136832D02*
X146632D01*
X136832Y77409D02*
Y84009D01*
Y77409D02*
X146632D01*
X91535Y116535D02*
Y119685D01*
X97441Y116535D02*
Y119685D01*
X91535D02*
X97441D01*
X91535Y116535D02*
X97441D01*
X208591Y157087D02*
X211740D01*
X208591Y151181D02*
X211740D01*
Y157087D01*
X208591Y151181D02*
Y157087D01*
X299481Y101599D02*
X302881D01*
X299481Y91999D02*
Y101599D01*
X302881Y91999D02*
Y101599D01*
X299481Y91999D02*
X302881D01*
X204171Y146094D02*
Y157794D01*
X191971Y146094D02*
Y157794D01*
X204171D01*
X191971Y146094D02*
X204171D01*
X21922Y73940D02*
X25322D01*
Y83540D01*
X21922Y73940D02*
Y83540D01*
X25322D01*
X39764Y101378D02*
X42913D01*
X39764Y107283D02*
X42913D01*
X39764Y101378D02*
Y107283D01*
X42913Y101378D02*
Y107283D01*
X43701D02*
X46850D01*
X43701Y101378D02*
X46850D01*
Y107283D01*
X43701Y101378D02*
Y107283D01*
Y128937D02*
X46850D01*
X43701Y134843D02*
X46850D01*
X43701Y128937D02*
Y134843D01*
X46850Y128937D02*
Y134843D01*
X39764D02*
X42913D01*
X39764Y128937D02*
X42913D01*
Y134843D01*
X39764Y128937D02*
Y134843D01*
X39764Y22638D02*
X42913D01*
X39764Y28543D02*
X42913D01*
X39764Y22638D02*
Y28543D01*
X42913Y22638D02*
Y28543D01*
X43701D02*
X46850D01*
X43701Y22638D02*
X46850D01*
Y28543D01*
X43701Y22638D02*
Y28543D01*
X39764Y50197D02*
X42913D01*
X39764Y56102D02*
X42913D01*
X39764Y50197D02*
Y56102D01*
X42913Y50197D02*
Y56102D01*
X43701D02*
X46850D01*
X43701Y50197D02*
X46850D01*
Y56102D01*
X43701Y50197D02*
Y56102D01*
X54134Y22323D02*
Y25472D01*
X60039Y22323D02*
Y25472D01*
X54134D02*
X60039D01*
X54134Y22323D02*
X60039D01*
X315381Y102973D02*
Y106373D01*
X305781D02*
X315381D01*
X305781Y102973D02*
X315381D01*
X305781D02*
Y106373D01*
X311476Y107035D02*
Y110185D01*
X305571Y107035D02*
Y110185D01*
Y107035D02*
X311476D01*
X305571Y110185D02*
X311476D01*
Y110972D02*
Y114122D01*
X305571Y110972D02*
Y114122D01*
Y110972D02*
X311476D01*
X305571Y114122D02*
X311476D01*
X307087Y62350D02*
X310236D01*
X307087Y68256D02*
X310236D01*
X307087Y62350D02*
Y68256D01*
X310236Y62350D02*
Y68256D01*
X299606D02*
X302756D01*
X299606Y62350D02*
X302756D01*
Y68256D01*
X299606Y62350D02*
Y68256D01*
X294925Y87760D02*
X298075D01*
X294925Y81854D02*
X298075D01*
Y87760D01*
X294925Y81854D02*
Y87760D01*
X293281Y102973D02*
Y106373D01*
Y102973D02*
X302881D01*
X293281Y106373D02*
X302881D01*
Y102973D02*
Y106373D01*
X297185Y107035D02*
Y110185D01*
X303091Y107035D02*
Y110185D01*
X297185D02*
X303091D01*
X297185Y107035D02*
X303091D01*
X297185Y110972D02*
Y114122D01*
X303091Y110972D02*
Y114122D01*
X297185D02*
X303091D01*
X297185Y110972D02*
X303091D01*
X63976Y81102D02*
Y84252D01*
X69882Y81102D02*
Y84252D01*
X63976D02*
X69882D01*
X63976Y81102D02*
X69882D01*
X40354Y73228D02*
Y76378D01*
X46260Y73228D02*
Y76378D01*
X40354D02*
X46260D01*
X40354Y73228D02*
X46260D01*
Y81102D02*
Y84252D01*
X40354Y81102D02*
Y84252D01*
Y81102D02*
X46260D01*
X40354Y84252D02*
X46260D01*
X-1575Y83740D02*
X1575D01*
X-1575Y77835D02*
X1575D01*
Y83740D01*
X-1575Y77835D02*
Y83740D01*
X25984Y77195D02*
X29134D01*
X25984Y83100D02*
X29134D01*
X25984Y77195D02*
Y83100D01*
X29134Y77195D02*
Y83100D01*
X29921D02*
X33071D01*
X29921Y77195D02*
X33071D01*
Y83100D01*
X29921Y77195D02*
Y83100D01*
X289764Y59272D02*
X292913D01*
X289764Y65177D02*
X292913D01*
X289764Y59272D02*
Y65177D01*
X292913Y59272D02*
Y65177D01*
X223976Y157087D02*
X227126D01*
X223976Y151181D02*
X227126D01*
Y157087D01*
X223976Y151181D02*
Y157087D01*
X213090D02*
X216240D01*
X213090Y151181D02*
X216240D01*
Y157087D01*
X213090Y151181D02*
Y157087D01*
X306291Y42724D02*
Y45874D01*
X312197Y42724D02*
Y45874D01*
X306291D02*
X312197D01*
X306291Y42724D02*
X312197D01*
X299516D02*
Y45874D01*
X305421Y42724D02*
Y45874D01*
X299516D02*
X305421D01*
X299516Y42724D02*
X305421D01*
X203740Y13189D02*
Y16339D01*
X197835Y13189D02*
Y16339D01*
Y13189D02*
X203740D01*
X197835Y16339D02*
X203740D01*
Y9252D02*
Y12402D01*
X197835Y9252D02*
Y12402D01*
Y9252D02*
X203740D01*
X197835Y12402D02*
X203740D01*
Y5315D02*
Y8465D01*
X197835Y5315D02*
Y8465D01*
Y5315D02*
X203740D01*
X197835Y8465D02*
X203740D01*
X178543Y27756D02*
X181693D01*
X178543Y21850D02*
X181693D01*
Y27756D01*
X178543Y21850D02*
Y27756D01*
X182480D02*
X185630D01*
X182480Y21850D02*
X185630D01*
Y27756D01*
X182480Y21850D02*
Y27756D01*
X180512Y-4921D02*
X183661D01*
X180512Y984D02*
X183661D01*
X180512Y-4921D02*
Y984D01*
X183661Y-4921D02*
Y984D01*
X250984Y17126D02*
Y20276D01*
X245079Y17126D02*
Y20276D01*
Y17126D02*
X250984D01*
X245079Y20276D02*
X250984D01*
Y13189D02*
Y16339D01*
X245079Y13189D02*
Y16339D01*
Y13189D02*
X250984D01*
X245079Y16339D02*
X250984D01*
Y9252D02*
Y12402D01*
X245079Y9252D02*
Y12402D01*
Y9252D02*
X250984D01*
X245079Y12402D02*
X250984D01*
X225787Y27756D02*
X228937D01*
X225787Y21850D02*
X228937D01*
Y27756D01*
X225787Y21850D02*
Y27756D01*
X229724D02*
X232874D01*
X229724Y21850D02*
X232874D01*
Y27756D01*
X229724Y21850D02*
Y27756D01*
X233661D02*
X236811D01*
X233661Y21850D02*
X236811D01*
Y27756D01*
X233661Y21850D02*
Y27756D01*
X225787Y-4921D02*
X228937D01*
X225787Y984D02*
X228937D01*
X225787Y-4921D02*
Y984D01*
X228937Y-4921D02*
Y984D01*
X229724Y-4921D02*
X232874D01*
X229724Y984D02*
X232874D01*
X229724Y-4921D02*
Y984D01*
X232874Y-4921D02*
Y984D01*
X233661Y-4921D02*
X236811D01*
X233661Y984D02*
X236811D01*
X233661Y-4921D02*
Y984D01*
X236811Y-4921D02*
Y984D01*
X298228Y13189D02*
Y16339D01*
X292323Y13189D02*
Y16339D01*
Y13189D02*
X298228D01*
X292323Y16339D02*
X298228D01*
Y9252D02*
Y12402D01*
X292323Y9252D02*
Y12402D01*
Y9252D02*
X298228D01*
X292323Y12402D02*
X298228D01*
Y5315D02*
Y8465D01*
X292323Y5315D02*
Y8465D01*
Y5315D02*
X298228D01*
X292323Y8465D02*
X298228D01*
X271063Y27756D02*
X274213D01*
X271063Y21850D02*
X274213D01*
Y27756D01*
X271063Y21850D02*
Y27756D01*
X275000D02*
X278150D01*
X275000Y21850D02*
X278150D01*
Y27756D01*
X275000Y21850D02*
Y27756D01*
X278937D02*
X282087D01*
X278937Y21850D02*
X282087D01*
Y27756D01*
X278937Y21850D02*
Y27756D01*
X282874D02*
X286024D01*
X282874Y21850D02*
X286024D01*
Y27756D01*
X282874Y21850D02*
Y27756D01*
X271063Y-4921D02*
X274213D01*
X271063Y984D02*
X274213D01*
X271063Y-4921D02*
Y984D01*
X274213Y-4921D02*
Y984D01*
X275000Y-4921D02*
X278150D01*
X275000Y984D02*
X278150D01*
X275000Y-4921D02*
Y984D01*
X278150Y-4921D02*
Y984D01*
X278937Y-4921D02*
X282087D01*
X278937Y984D02*
X282087D01*
X278937Y-4921D02*
Y984D01*
X282087Y-4921D02*
Y984D01*
X282874Y-4921D02*
X286024D01*
X282874Y984D02*
X286024D01*
X282874Y-4921D02*
Y984D01*
X286024Y-4921D02*
Y984D01*
X138779Y112598D02*
Y115748D01*
X144685Y112598D02*
Y115748D01*
X138779D02*
X144685D01*
X138779Y112598D02*
X144685D01*
Y128347D02*
Y131496D01*
X138779Y128347D02*
Y131496D01*
Y128347D02*
X144685D01*
X138779Y131496D02*
X144685D01*
X128937Y132283D02*
Y135433D01*
X123031Y132283D02*
Y135433D01*
Y132283D02*
X128937D01*
X123031Y135433D02*
X128937D01*
X107283Y112598D02*
Y115748D01*
X113189Y112598D02*
Y115748D01*
X107283D02*
X113189D01*
X107283Y112598D02*
X113189D01*
Y132283D02*
Y135433D01*
X107283Y132283D02*
Y135433D01*
Y132283D02*
X113189D01*
X107283Y135433D02*
X113189D01*
X91535Y112598D02*
Y115748D01*
X97441Y112598D02*
Y115748D01*
X91535D02*
X97441D01*
X91535Y112598D02*
X97441D01*
Y132283D02*
Y135433D01*
X91535Y132283D02*
Y135433D01*
Y132283D02*
X97441D01*
X91535Y135433D02*
X97441D01*
X112598Y22638D02*
X115748D01*
X112598Y16732D02*
X115748D01*
Y22638D01*
X112598Y16732D02*
Y22638D01*
X116535D02*
X119685D01*
X116535Y16732D02*
X119685D01*
Y22638D01*
X116535Y16732D02*
Y22638D01*
X144685Y16142D02*
Y19291D01*
X138779Y16142D02*
Y19291D01*
Y16142D02*
X144685D01*
X138779Y19291D02*
X144685D01*
X108661Y16732D02*
X111811D01*
X108661Y22638D02*
X111811D01*
X108661Y16732D02*
Y22638D01*
X111811Y16732D02*
Y22638D01*
X104724D02*
X107874D01*
X104724Y16732D02*
X107874D01*
Y22638D01*
X104724Y16732D02*
Y22638D01*
X113189Y96850D02*
Y100000D01*
X107283Y96850D02*
Y100000D01*
Y96850D02*
X113189D01*
X107283Y100000D02*
X113189D01*
Y81102D02*
Y84252D01*
X107283Y81102D02*
Y84252D01*
Y81102D02*
X113189D01*
X107283Y84252D02*
X113189D01*
X132283Y83661D02*
X135433D01*
X132283Y77756D02*
X135433D01*
Y83661D01*
X132283Y77756D02*
Y83661D01*
X128937Y96850D02*
Y100000D01*
X123031Y96850D02*
Y100000D01*
Y96850D02*
X128937D01*
X123031Y100000D02*
X128937D01*
Y81102D02*
Y84252D01*
X123031Y81102D02*
Y84252D01*
Y81102D02*
X128937D01*
X123031Y84252D02*
X128937D01*
X97441Y96850D02*
Y100000D01*
X91535Y96850D02*
Y100000D01*
Y96850D02*
X97441D01*
X91535Y100000D02*
X97441D01*
Y81102D02*
Y84252D01*
X91535Y81102D02*
Y84252D01*
Y81102D02*
X97441D01*
X91535Y84252D02*
X97441D01*
X101378Y31890D02*
Y35039D01*
X95472Y31890D02*
Y35039D01*
Y31890D02*
X101378D01*
X95472Y35039D02*
X101378D01*
X146632Y91188D02*
Y97788D01*
X136832D02*
X146632D01*
X136832Y91188D02*
Y97788D01*
Y91188D02*
X146632D01*
X305780Y101599D02*
X309180D01*
X305780Y91999D02*
Y101599D01*
X309180Y91999D02*
Y101599D01*
X305780Y91999D02*
X309180D01*
X228976Y157087D02*
X232126D01*
X228976Y151181D02*
X232126D01*
Y157087D01*
X228976Y151181D02*
Y157087D01*
X60039Y125236D02*
Y128386D01*
X54134Y125236D02*
Y128386D01*
Y125236D02*
X60039D01*
X54134Y128386D02*
X60039D01*
Y128622D02*
Y131772D01*
X54134Y128622D02*
Y131772D01*
Y128622D02*
X60039D01*
X54134Y131772D02*
X60039D01*
X54134Y132008D02*
Y135158D01*
X60039Y132008D02*
Y135158D01*
X54134D02*
X60039D01*
X54134Y132008D02*
X60039D01*
Y46496D02*
Y49646D01*
X54134Y46496D02*
Y49646D01*
Y46496D02*
X60039D01*
X54134Y49646D02*
X60039D01*
Y49882D02*
Y53031D01*
X54134Y49882D02*
Y53031D01*
Y49882D02*
X60039D01*
X54134Y53031D02*
X60039D01*
X54134Y25709D02*
Y28858D01*
X60039Y25709D02*
Y28858D01*
X54134D02*
X60039D01*
X54134Y25709D02*
X60039D01*
X54134Y53268D02*
Y56417D01*
X60039Y53268D02*
Y56417D01*
X54134D02*
X60039D01*
X54134Y53268D02*
X60039D01*
X299921Y84925D02*
Y88075D01*
X305827Y84925D02*
Y88075D01*
X299921D02*
X305827D01*
X299921Y84925D02*
X305827D01*
X303346Y62350D02*
X306496D01*
X303346Y68256D02*
X306496D01*
X303346Y62350D02*
Y68256D01*
X306496Y62350D02*
Y68256D01*
X69882Y77165D02*
Y80315D01*
X63976Y77165D02*
Y80315D01*
Y77165D02*
X69882D01*
X63976Y80315D02*
X69882D01*
X40354Y77165D02*
Y80315D01*
X46260Y77165D02*
Y80315D01*
X40354D02*
X46260D01*
X40354Y77165D02*
X46260D01*
X174803Y112264D02*
Y118169D01*
X171653Y112264D02*
Y118169D01*
X174803D01*
X171653Y112264D02*
X174803D01*
Y48484D02*
Y54390D01*
X171653Y48484D02*
Y54390D01*
X174803D01*
X171653Y48484D02*
X174803D01*
X216905Y150319D02*
Y153469D01*
X222811Y150319D02*
Y153469D01*
X216905D02*
X222811D01*
X216905Y150319D02*
X222811D01*
X306291Y34850D02*
Y38000D01*
X312197Y34850D02*
Y38000D01*
X306291D02*
X312197D01*
X306291Y34850D02*
X312197D01*
X299516D02*
Y38000D01*
X305421Y34850D02*
Y38000D01*
X299516D02*
X305421D01*
X299516Y34850D02*
X305421D01*
X312197Y38787D02*
Y41937D01*
X306291Y38787D02*
Y41937D01*
Y38787D02*
X312197D01*
X306291Y41937D02*
X312197D01*
X305421Y38787D02*
Y41937D01*
X299516Y38787D02*
Y41937D01*
Y38787D02*
X305421D01*
X299516Y41937D02*
X305421D01*
X197835Y17126D02*
Y20276D01*
X203740Y17126D02*
Y20276D01*
X197835D02*
X203740D01*
X197835Y17126D02*
X203740D01*
X245079Y5315D02*
Y8465D01*
X250984Y5315D02*
Y8465D01*
X245079D02*
X250984D01*
X245079Y5315D02*
X250984D01*
X237598Y21850D02*
X240748D01*
X237598Y27756D02*
X240748D01*
X237598Y21850D02*
Y27756D01*
X240748Y21850D02*
Y27756D01*
X286811Y21850D02*
X289961D01*
X286811Y27756D02*
X289961D01*
X286811Y21850D02*
Y27756D01*
X289961Y21850D02*
Y27756D01*
X292323Y17126D02*
Y20276D01*
X298228Y17126D02*
Y20276D01*
X292323D02*
X298228D01*
X292323Y17126D02*
X298228D01*
X138779Y116535D02*
Y119685D01*
X144685Y116535D02*
Y119685D01*
X138779D02*
X144685D01*
X138779Y116535D02*
X144685D01*
X138779Y108661D02*
Y111811D01*
X144685Y108661D02*
Y111811D01*
X138779D02*
X144685D01*
X138779Y108661D02*
X144685D01*
X123031Y128347D02*
Y131496D01*
X128937Y128347D02*
Y131496D01*
X123031D02*
X128937D01*
X123031Y128347D02*
X128937D01*
X107283D02*
Y131496D01*
X113189Y128347D02*
Y131496D01*
X107283D02*
X113189D01*
X107283Y128347D02*
X113189D01*
Y108661D02*
Y111811D01*
X107283Y108661D02*
Y111811D01*
Y108661D02*
X113189D01*
X107283Y111811D02*
X113189D01*
X97441Y108661D02*
Y111811D01*
X91535Y108661D02*
Y111811D01*
Y108661D02*
X97441D01*
X91535Y111811D02*
X97441D01*
X144685Y20079D02*
Y23228D01*
X138779Y20079D02*
Y23228D01*
Y20079D02*
X144685D01*
X138779Y23228D02*
X144685D01*
X113189Y77165D02*
Y80315D01*
X107283Y77165D02*
Y80315D01*
Y77165D02*
X113189D01*
X107283Y80315D02*
X113189D01*
X107283Y92913D02*
Y96063D01*
X113189Y92913D02*
Y96063D01*
X107283D02*
X113189D01*
X107283Y92913D02*
X113189D01*
X128937Y77165D02*
Y80315D01*
X123031Y77165D02*
Y80315D01*
Y77165D02*
X128937D01*
X123031Y80315D02*
X128937D01*
X123031Y92913D02*
Y96063D01*
X128937Y92913D02*
Y96063D01*
X123031D02*
X128937D01*
X123031Y92913D02*
X128937D01*
X97441Y77165D02*
Y80315D01*
X91535Y77165D02*
Y80315D01*
Y77165D02*
X97441D01*
X91535Y80315D02*
X97441D01*
X91535Y92913D02*
Y96063D01*
X97441Y92913D02*
Y96063D01*
X91535D02*
X97441D01*
X91535Y92913D02*
X97441D01*
X95472Y55512D02*
Y58661D01*
X101378Y55512D02*
Y58661D01*
X95472D02*
X101378D01*
X95472Y55512D02*
X101378D01*
Y35827D02*
Y38976D01*
X95472Y35827D02*
Y38976D01*
Y35827D02*
X101378D01*
X95472Y38976D02*
X101378D01*
X91535Y128347D02*
Y131496D01*
X97441Y128347D02*
Y131496D01*
X91535D02*
X97441D01*
X91535Y128347D02*
X97441D01*
X123031Y116535D02*
Y119685D01*
X128937Y116535D02*
Y119685D01*
X123031D02*
X128937D01*
X123031Y116535D02*
X128937D01*
X107283D02*
Y119685D01*
X113189Y116535D02*
Y119685D01*
X107283D02*
X113189D01*
X107283Y116535D02*
X113189D01*
M02*
