G04*
G04 #@! TF.GenerationSoftware,Altium Limited,Altium Designer,20.0.13 (296)*
G04*
G04 Layer_Color=2752767*
%FSLAX25Y25*%
%MOIN*%
G70*
G01*
G75*
%ADD111C,0.00200*%
%ADD112C,0.00267*%
D111*
X302350Y-8674D02*
Y-7074D01*
X303950D01*
Y-8674D01*
X302350D01*
X306287D02*
Y-7074D01*
X307887D01*
Y-8674D01*
X306287D01*
X298413D02*
Y-7074D01*
X300013D01*
Y-8674D01*
X298413D01*
X294476D02*
Y-7074D01*
X296076D01*
Y-8674D01*
X294476D01*
X290539D02*
Y-7074D01*
X292139D01*
Y-8674D01*
X290539D01*
X286602D02*
Y-7074D01*
X288202D01*
Y-8674D01*
X286602D01*
X266917D02*
Y-7074D01*
X268517D01*
Y-8674D01*
X266917D01*
X270854D02*
Y-7074D01*
X272454D01*
Y-8674D01*
X270854D01*
X274791D02*
Y-7074D01*
X276391D01*
Y-8674D01*
X274791D01*
X278728D02*
Y-7074D01*
X280328D01*
Y-8674D01*
X278728D01*
X282665D02*
Y-7074D01*
X284265D01*
Y-8674D01*
X282665D01*
X243295D02*
Y-7074D01*
X244895D01*
Y-8674D01*
X243295D01*
X239358D02*
Y-7074D01*
X240958D01*
Y-8674D01*
X239358D01*
X235421D02*
Y-7074D01*
X237021D01*
Y-8674D01*
X235421D01*
X231484D02*
Y-7074D01*
X233084D01*
Y-8674D01*
X231484D01*
X227547D02*
Y-7074D01*
X229147D01*
Y-8674D01*
X227547D01*
X247232D02*
Y-7074D01*
X248832D01*
Y-8674D01*
X247232D01*
X251169D02*
Y-7074D01*
X252769D01*
Y-8674D01*
X251169D01*
X255106D02*
Y-7074D01*
X256706D01*
Y-8674D01*
X255106D01*
X259043D02*
Y-7074D01*
X260643D01*
Y-8674D01*
X259043D01*
X262980D02*
Y-7074D01*
X264580D01*
Y-8674D01*
X262980D01*
X203925D02*
Y-7074D01*
X205525D01*
Y-8674D01*
X203925D01*
X199988D02*
Y-7074D01*
X201588D01*
Y-8674D01*
X199988D01*
X196051D02*
Y-7074D01*
X197651D01*
Y-8674D01*
X196051D01*
X192114D02*
Y-7074D01*
X193714D01*
Y-8674D01*
X192114D01*
X188177D02*
Y-7074D01*
X189777D01*
Y-8674D01*
X188177D01*
X207862D02*
Y-7074D01*
X209462D01*
Y-8674D01*
X207862D01*
X211799D02*
Y-7074D01*
X213399D01*
Y-8674D01*
X211799D01*
X215736D02*
Y-7074D01*
X217336D01*
Y-8674D01*
X215736D01*
X219673D02*
Y-7074D01*
X221273D01*
Y-8674D01*
X219673D01*
X223610D02*
Y-7074D01*
X225210D01*
Y-8674D01*
X223610D01*
X164555D02*
Y-7074D01*
X166155D01*
Y-8674D01*
X164555D01*
X160618D02*
Y-7074D01*
X162218D01*
Y-8674D01*
X160618D01*
X156681D02*
Y-7074D01*
X158281D01*
Y-8674D01*
X156681D01*
X152744D02*
Y-7074D01*
X154344D01*
Y-8674D01*
X152744D01*
X148807D02*
Y-7074D01*
X150407D01*
Y-8674D01*
X148807D01*
X168492D02*
Y-7074D01*
X170092D01*
Y-8674D01*
X168492D01*
X172429D02*
Y-7074D01*
X174029D01*
Y-8674D01*
X172429D01*
X176366D02*
Y-7074D01*
X177966D01*
Y-8674D01*
X176366D01*
X180303D02*
Y-7074D01*
X181903D01*
Y-8674D01*
X180303D01*
X184240D02*
Y-7074D01*
X185840D01*
Y-8674D01*
X184240D01*
X125185D02*
Y-7074D01*
X126785D01*
Y-8674D01*
X125185D01*
X121248D02*
Y-7074D01*
X122848D01*
Y-8674D01*
X121248D01*
X117311D02*
Y-7074D01*
X118911D01*
Y-8674D01*
X117311D01*
X113374D02*
Y-7074D01*
X114974D01*
Y-8674D01*
X113374D01*
X109437D02*
Y-7074D01*
X111037D01*
Y-8674D01*
X109437D01*
X129122D02*
Y-7074D01*
X130722D01*
Y-8674D01*
X129122D01*
X133059D02*
Y-7074D01*
X134659D01*
Y-8674D01*
X133059D01*
X136996D02*
Y-7074D01*
X138596D01*
Y-8674D01*
X136996D01*
X140933D02*
Y-7074D01*
X142533D01*
Y-8674D01*
X140933D01*
X144870D02*
Y-7074D01*
X146470D01*
Y-8674D01*
X144870D01*
X85815D02*
Y-7074D01*
X87415D01*
Y-8674D01*
X85815D01*
X81878D02*
Y-7074D01*
X83478D01*
Y-8674D01*
X81878D01*
X77941D02*
Y-7074D01*
X79541D01*
Y-8674D01*
X77941D01*
X74004D02*
Y-7074D01*
X75604D01*
Y-8674D01*
X74004D01*
X70067D02*
Y-7074D01*
X71667D01*
Y-8674D01*
X70067D01*
X89752D02*
Y-7074D01*
X91352D01*
Y-8674D01*
X89752D01*
X93689D02*
Y-7074D01*
X95289D01*
Y-8674D01*
X93689D01*
X97626D02*
Y-7074D01*
X99226D01*
Y-8674D01*
X97626D01*
X101563D02*
Y-7074D01*
X103163D01*
Y-8674D01*
X101563D01*
X105500D02*
Y-7074D01*
X107100D01*
Y-8674D01*
X105500D01*
X46445D02*
Y-7074D01*
X48045D01*
Y-8674D01*
X46445D01*
X42508D02*
Y-7074D01*
X44108D01*
Y-8674D01*
X42508D01*
X38571D02*
Y-7074D01*
X40171D01*
Y-8674D01*
X38571D01*
X34634D02*
Y-7074D01*
X36234D01*
Y-8674D01*
X34634D01*
X30697D02*
Y-7074D01*
X32297D01*
Y-8674D01*
X30697D01*
X50382D02*
Y-7074D01*
X51982D01*
Y-8674D01*
X50382D01*
X54319D02*
Y-7074D01*
X55919D01*
Y-8674D01*
X54319D01*
X58256D02*
Y-7074D01*
X59856D01*
Y-8674D01*
X58256D01*
X62193D02*
Y-7074D01*
X63793D01*
Y-8674D01*
X62193D01*
X66130D02*
Y-7074D01*
X67730D01*
Y-8674D01*
X66130D01*
X7075D02*
Y-7074D01*
X8675D01*
Y-8674D01*
X7075D01*
X11012D02*
Y-7074D01*
X12612D01*
Y-8674D01*
X11012D01*
X14949D02*
Y-7074D01*
X16549D01*
Y-8674D01*
X14949D01*
X18886D02*
Y-7074D01*
X20486D01*
Y-8674D01*
X18886D01*
X22823D02*
Y-7074D01*
X24423D01*
Y-8674D01*
X22823D01*
X26760D02*
Y-7074D01*
X28360D01*
Y-8674D01*
X26760D01*
X286601Y164554D02*
Y166154D01*
X288201D01*
Y164554D01*
X286601D01*
X290538D02*
Y166154D01*
X292138D01*
Y164554D01*
X290538D01*
X294475D02*
Y166154D01*
X296075D01*
Y164554D01*
X294475D01*
X298412D02*
Y166154D01*
X300012D01*
Y164554D01*
X298412D01*
X302349D02*
Y166154D01*
X303949D01*
Y164554D01*
X302349D01*
X306286D02*
Y166154D01*
X307886D01*
Y164554D01*
X306286D01*
X247231D02*
Y166154D01*
X248831D01*
Y164554D01*
X247231D01*
X251168D02*
Y166154D01*
X252768D01*
Y164554D01*
X251168D01*
X255105D02*
Y166154D01*
X256705D01*
Y164554D01*
X255105D01*
X259042D02*
Y166154D01*
X260642D01*
Y164554D01*
X259042D01*
X262979D02*
Y166154D01*
X264579D01*
Y164554D01*
X262979D01*
X282664D02*
Y166154D01*
X284264D01*
Y164554D01*
X282664D01*
X278727D02*
Y166154D01*
X280327D01*
Y164554D01*
X278727D01*
X274790D02*
Y166154D01*
X276390D01*
Y164554D01*
X274790D01*
X270853D02*
Y166154D01*
X272453D01*
Y164554D01*
X270853D01*
X266916D02*
Y166154D01*
X268516D01*
Y164554D01*
X266916D01*
X207861D02*
Y166154D01*
X209461D01*
Y164554D01*
X207861D01*
X211798D02*
Y166154D01*
X213398D01*
Y164554D01*
X211798D01*
X215735D02*
Y166154D01*
X217335D01*
Y164554D01*
X215735D01*
X219672D02*
Y166154D01*
X221272D01*
Y164554D01*
X219672D01*
X223609D02*
Y166154D01*
X225209D01*
Y164554D01*
X223609D01*
X243294D02*
Y166154D01*
X244894D01*
Y164554D01*
X243294D01*
X239357D02*
Y166154D01*
X240957D01*
Y164554D01*
X239357D01*
X235420D02*
Y166154D01*
X237020D01*
Y164554D01*
X235420D01*
X231483D02*
Y166154D01*
X233083D01*
Y164554D01*
X231483D01*
X227546D02*
Y166154D01*
X229146D01*
Y164554D01*
X227546D01*
X168491D02*
Y166154D01*
X170091D01*
Y164554D01*
X168491D01*
X172428D02*
Y166154D01*
X174028D01*
Y164554D01*
X172428D01*
X176365D02*
Y166154D01*
X177965D01*
Y164554D01*
X176365D01*
X180302D02*
Y166154D01*
X181902D01*
Y164554D01*
X180302D01*
X184239D02*
Y166154D01*
X185839D01*
Y164554D01*
X184239D01*
X203924D02*
Y166154D01*
X205524D01*
Y164554D01*
X203924D01*
X199987D02*
Y166154D01*
X201587D01*
Y164554D01*
X199987D01*
X196050D02*
Y166154D01*
X197650D01*
Y164554D01*
X196050D01*
X192113D02*
Y166154D01*
X193713D01*
Y164554D01*
X192113D01*
X188176D02*
Y166154D01*
X189776D01*
Y164554D01*
X188176D01*
X129121D02*
Y166154D01*
X130721D01*
Y164554D01*
X129121D01*
X133058D02*
Y166154D01*
X134658D01*
Y164554D01*
X133058D01*
X136995D02*
Y166154D01*
X138595D01*
Y164554D01*
X136995D01*
X140932D02*
Y166154D01*
X142532D01*
Y164554D01*
X140932D01*
X144869D02*
Y166154D01*
X146469D01*
Y164554D01*
X144869D01*
X164554D02*
Y166154D01*
X166154D01*
Y164554D01*
X164554D01*
X160617D02*
Y166154D01*
X162217D01*
Y164554D01*
X160617D01*
X156680D02*
Y166154D01*
X158280D01*
Y164554D01*
X156680D01*
X152743D02*
Y166154D01*
X154343D01*
Y164554D01*
X152743D01*
X148806D02*
Y166154D01*
X150406D01*
Y164554D01*
X148806D01*
X89751D02*
Y166154D01*
X91351D01*
Y164554D01*
X89751D01*
X93688D02*
Y166154D01*
X95288D01*
Y164554D01*
X93688D01*
X97625D02*
Y166154D01*
X99225D01*
Y164554D01*
X97625D01*
X101562D02*
Y166154D01*
X103162D01*
Y164554D01*
X101562D01*
X105499D02*
Y166154D01*
X107099D01*
Y164554D01*
X105499D01*
X125184D02*
Y166154D01*
X126784D01*
Y164554D01*
X125184D01*
X121247D02*
Y166154D01*
X122847D01*
Y164554D01*
X121247D01*
X117310D02*
Y166154D01*
X118910D01*
Y164554D01*
X117310D01*
X113373D02*
Y166154D01*
X114973D01*
Y164554D01*
X113373D01*
X109436D02*
Y166154D01*
X111036D01*
Y164554D01*
X109436D01*
X50381D02*
Y166154D01*
X51981D01*
Y164554D01*
X50381D01*
X54318D02*
Y166154D01*
X55918D01*
Y164554D01*
X54318D01*
X58255D02*
Y166154D01*
X59855D01*
Y164554D01*
X58255D01*
X62192D02*
Y166154D01*
X63792D01*
Y164554D01*
X62192D01*
X66129D02*
Y166154D01*
X67729D01*
Y164554D01*
X66129D01*
X85814D02*
Y166154D01*
X87414D01*
Y164554D01*
X85814D01*
X81877D02*
Y166154D01*
X83477D01*
Y164554D01*
X81877D01*
X77940D02*
Y166154D01*
X79540D01*
Y164554D01*
X77940D01*
X74003D02*
Y166154D01*
X75603D01*
Y164554D01*
X74003D01*
X70066D02*
Y166154D01*
X71666D01*
Y164554D01*
X70066D01*
X30696D02*
Y166154D01*
X32296D01*
Y164554D01*
X30696D01*
X34633D02*
Y166154D01*
X36233D01*
Y164554D01*
X34633D01*
X38570D02*
Y166154D01*
X40170D01*
Y164554D01*
X38570D01*
X42507D02*
Y166154D01*
X44107D01*
Y164554D01*
X42507D01*
X46444D02*
Y166154D01*
X48044D01*
Y164554D01*
X46444D01*
X26759D02*
Y166154D01*
X28359D01*
Y164554D01*
X26759D01*
X22822D02*
Y166154D01*
X24422D01*
Y164554D01*
X22822D01*
X18885D02*
Y166154D01*
X20485D01*
Y164554D01*
X18885D01*
X14948D02*
Y166154D01*
X16548D01*
Y164554D01*
X14948D01*
X7074D02*
Y166154D01*
X8674D01*
Y164554D01*
X7074D01*
X11011D02*
Y166154D01*
X12611D01*
Y164554D01*
X11011D01*
X322035Y129121D02*
Y130721D01*
X323635D01*
Y129121D01*
X322035D01*
Y125184D02*
Y126784D01*
X323635D01*
Y125184D01*
X322035D01*
Y121247D02*
Y122847D01*
X323635D01*
Y121247D01*
X322035D01*
Y117310D02*
Y118910D01*
X323635D01*
Y117310D01*
X322035D01*
Y113373D02*
Y114973D01*
X323635D01*
Y113373D01*
X322035D01*
Y109436D02*
Y111036D01*
X323635D01*
Y109436D01*
X322035D01*
Y105499D02*
Y107099D01*
X323635D01*
Y105499D01*
X322035D01*
Y101562D02*
Y103162D01*
X323635D01*
Y101562D01*
X322035D01*
Y97625D02*
Y99225D01*
X323635D01*
Y97625D01*
X322035D01*
Y93688D02*
Y95288D01*
X323635D01*
Y93688D01*
X322035D01*
Y89751D02*
Y91351D01*
X323635D01*
Y89751D01*
X322035D01*
Y85814D02*
Y87414D01*
X323635D01*
Y85814D01*
X322035D01*
Y81877D02*
Y83477D01*
X323635D01*
Y81877D01*
X322035D01*
Y77940D02*
Y79540D01*
X323635D01*
Y77940D01*
X322035D01*
Y74003D02*
Y75603D01*
X323635D01*
Y74003D01*
X322035D01*
Y70066D02*
Y71666D01*
X323635D01*
Y70066D01*
X322035D01*
Y66129D02*
Y67729D01*
X323635D01*
Y66129D01*
X322035D01*
Y62192D02*
Y63792D01*
X323635D01*
Y62192D01*
X322035D01*
Y58255D02*
Y59855D01*
X323635D01*
Y58255D01*
X322035D01*
Y54318D02*
Y55918D01*
X323635D01*
Y54318D01*
X322035D01*
Y7074D02*
Y8674D01*
X323635D01*
Y7074D01*
X322035D01*
Y11011D02*
Y12611D01*
X323635D01*
Y11011D01*
X322035D01*
Y14948D02*
Y16548D01*
X323635D01*
Y14948D01*
X322035D01*
Y18885D02*
Y20485D01*
X323635D01*
Y18885D01*
X322035D01*
Y22822D02*
Y24422D01*
X323635D01*
Y22822D01*
X322035D01*
Y26759D02*
Y28359D01*
X323635D01*
Y26759D01*
X322035D01*
Y30696D02*
Y32296D01*
X323635D01*
Y30696D01*
X322035D01*
Y34633D02*
Y36233D01*
X323635D01*
Y34633D01*
X322035D01*
Y38570D02*
Y40170D01*
X323635D01*
Y38570D01*
X322035D01*
Y42507D02*
Y44107D01*
X323635D01*
Y42507D01*
X322035D01*
Y46444D02*
Y48044D01*
X323635D01*
Y46444D01*
X322035D01*
Y50381D02*
Y51981D01*
X323635D01*
Y50381D01*
X322035D01*
Y133058D02*
Y134658D01*
X323635D01*
Y133058D01*
X322035D01*
Y136995D02*
Y138595D01*
X323635D01*
Y136995D01*
X322035D01*
Y140932D02*
Y142532D01*
X323635D01*
Y140932D01*
X322035D01*
Y144869D02*
Y146469D01*
X323635D01*
Y144869D01*
X322035D01*
Y148806D02*
Y150406D01*
X323635D01*
Y148806D01*
X322035D01*
X-8674Y7074D02*
Y8674D01*
X-7074D01*
Y7074D01*
X-8674D01*
Y11011D02*
Y12611D01*
X-7074D01*
Y11011D01*
X-8674D01*
Y14948D02*
Y16548D01*
X-7074D01*
Y14948D01*
X-8674D01*
Y18885D02*
Y20485D01*
X-7074D01*
Y18885D01*
X-8674D01*
Y22822D02*
Y24422D01*
X-7074D01*
Y22822D01*
X-8674D01*
Y105499D02*
Y107099D01*
X-7074D01*
Y105499D01*
X-8674D01*
Y109436D02*
Y111036D01*
X-7074D01*
Y109436D01*
X-8674D01*
Y113373D02*
Y114973D01*
X-7074D01*
Y113373D01*
X-8674D01*
Y117310D02*
Y118910D01*
X-7074D01*
Y117310D01*
X-8674D01*
Y121247D02*
Y122847D01*
X-7074D01*
Y121247D01*
X-8674D01*
Y125184D02*
Y126784D01*
X-7074D01*
Y125184D01*
X-8674D01*
Y129121D02*
Y130721D01*
X-7074D01*
Y129121D01*
X-8674D01*
Y133058D02*
Y134658D01*
X-7074D01*
Y133058D01*
X-8674D01*
Y136995D02*
Y138595D01*
X-7074D01*
Y136995D01*
X-8674D01*
Y140932D02*
Y142532D01*
X-7074D01*
Y140932D01*
X-8674D01*
Y144869D02*
Y146469D01*
X-7074D01*
Y144869D01*
X-8674D01*
Y148806D02*
Y150406D01*
X-7074D01*
Y148806D01*
X-8674D01*
Y101562D02*
Y103162D01*
X-7074D01*
Y101562D01*
X-8674D01*
Y97625D02*
Y99225D01*
X-7074D01*
Y97625D01*
X-8674D01*
Y93688D02*
Y95288D01*
X-7074D01*
Y93688D01*
X-8674D01*
Y89751D02*
Y91351D01*
X-7074D01*
Y89751D01*
X-8674D01*
Y85814D02*
Y87414D01*
X-7074D01*
Y85814D01*
X-8674D01*
Y81877D02*
Y83477D01*
X-7074D01*
Y81877D01*
X-8674D01*
Y77940D02*
Y79540D01*
X-7074D01*
Y77940D01*
X-8674D01*
Y74003D02*
Y75603D01*
X-7074D01*
Y74003D01*
X-8674D01*
Y70066D02*
Y71666D01*
X-7074D01*
Y70066D01*
X-8674D01*
Y66129D02*
Y67729D01*
X-7074D01*
Y66129D01*
X-8674D01*
Y62192D02*
Y63792D01*
X-7074D01*
Y62192D01*
X-8674D01*
Y58255D02*
Y59855D01*
X-7074D01*
Y58255D01*
X-8674D01*
Y54318D02*
Y55918D01*
X-7074D01*
Y54318D01*
X-8674D01*
Y50381D02*
Y51981D01*
X-7074D01*
Y50381D01*
X-8674D01*
Y46444D02*
Y48044D01*
X-7074D01*
Y46444D01*
X-8674D01*
Y42507D02*
Y44107D01*
X-7074D01*
Y42507D01*
X-8674D01*
Y38570D02*
Y40170D01*
X-7074D01*
Y38570D01*
X-8674D01*
Y34633D02*
Y36233D01*
X-7074D01*
Y34633D01*
X-8674D01*
Y30696D02*
Y32296D01*
X-7074D01*
Y30696D01*
X-8674D01*
Y26759D02*
Y28359D01*
X-7074D01*
Y26759D01*
X-8674D01*
X210039Y146936D02*
X209239Y148536D01*
X210839D01*
X210039Y146936D01*
X213976D02*
X213176Y148536D01*
X214776D01*
X213976Y146936D01*
X217913D02*
X217113Y148536D01*
X218713D01*
X217913Y146936D01*
X221850D02*
X221050Y148536D01*
X222650D01*
X221850Y146936D01*
X225787D02*
X224987Y148536D01*
X226587D01*
X225787Y146936D01*
X229724D02*
X228924Y148536D01*
X230524D01*
X229724Y146936D01*
X233661D02*
X232861Y148536D01*
X234461D01*
X233661Y146936D01*
Y154810D02*
X232861Y156410D01*
X234461D01*
X233661Y154810D01*
X221850D02*
X221050Y156410D01*
X222650D01*
X221850Y154810D01*
X217913D02*
X217113Y156410D01*
X218713D01*
X217913Y154810D01*
X206102Y146936D02*
X205302Y148536D01*
X206902D01*
X206102Y146936D01*
Y154810D02*
X205302Y156410D01*
X206902D01*
X206102Y154810D01*
D112*
X315761Y157480D02*
G03*
X315761Y157480I-800J0D01*
G01*
Y0D02*
G03*
X315761Y0I-800J0D01*
G01*
X800Y157480D02*
G03*
X800Y157480I-800J0D01*
G01*
Y0D02*
G03*
X800Y0I-800J0D01*
G01*
M02*
