G04*
G04 #@! TF.GenerationSoftware,Altium Limited,Altium Designer,20.0.13 (296)*
G04*
G04 Layer_Color=16711935*
%FSLAX25Y25*%
%MOIN*%
G70*
G01*
G75*
%ADD39R,0.03937X1.57480*%
%ADD40R,0.03228X0.02047*%
%ADD46R,0.01929X0.02126*%
%ADD52R,0.02126X0.01929*%
%ADD59R,0.01654X0.01654*%
%ADD60R,0.01654X0.01654*%
%ADD61R,0.02047X0.03228*%
%ADD62C,0.02953*%
%ADD63C,0.19764*%
%ADD84R,0.11386X0.03315*%
%ADD85R,3.15000X0.03937*%
%ADD86R,3.15000X0.03937*%
%ADD87R,0.04016X0.01850*%
%ADD88R,0.02047X0.05197*%
%ADD89R,0.05197X0.02047*%
%ADD90R,0.04016X0.01260*%
%ADD91R,0.01260X0.04016*%
%ADD92C,0.04016*%
%ADD93R,0.06181X0.02441*%
%ADD94R,0.11378X0.03307*%
%ADD95R,0.02835X0.02047*%
%ADD96R,0.16614X0.13465*%
%ADD97R,0.02441X0.01654*%
%ADD98R,0.02047X0.02441*%
%ADD99R,0.03228X0.05984*%
%ADD100R,0.05787X0.07953*%
%ADD101R,0.07165X0.05591*%
%ADD102R,0.01732X0.01732*%
%ADD103R,0.01732X0.01732*%
D39*
X322835Y78740D02*
D03*
X-7874D02*
D03*
D40*
X169843Y88465D02*
D03*
Y80984D02*
D03*
X180079D02*
D03*
Y84724D02*
D03*
Y88465D02*
D03*
D46*
X21378Y61240D02*
D03*
X17992D02*
D03*
X196850Y98799D02*
D03*
X193465D02*
D03*
X196850Y103799D02*
D03*
X193465D02*
D03*
X196850Y113799D02*
D03*
X193465D02*
D03*
X196850Y108799D02*
D03*
X193465D02*
D03*
X207638Y45276D02*
D03*
X211024D02*
D03*
X213937D02*
D03*
X217323D02*
D03*
X217087Y0D02*
D03*
X220472D02*
D03*
X208937Y127421D02*
D03*
X212323D02*
D03*
X208937Y137421D02*
D03*
X212323D02*
D03*
X193189Y127421D02*
D03*
X196575D02*
D03*
X193189Y137421D02*
D03*
X196575D02*
D03*
X224685Y127717D02*
D03*
X228071D02*
D03*
X224685Y137717D02*
D03*
X228071D02*
D03*
X129921Y0D02*
D03*
X126535D02*
D03*
X60748Y11240D02*
D03*
X57362D02*
D03*
X60748Y16240D02*
D03*
X57362D02*
D03*
X60748Y21240D02*
D03*
X57362D02*
D03*
X17992Y6240D02*
D03*
X21378D02*
D03*
X17992Y11240D02*
D03*
X21378D02*
D03*
X17992Y16240D02*
D03*
X21378D02*
D03*
X296969Y11240D02*
D03*
X293583D02*
D03*
X296969Y16240D02*
D03*
X293583D02*
D03*
X254213Y6240D02*
D03*
X257598D02*
D03*
X254213Y11240D02*
D03*
X257598D02*
D03*
X254213Y16240D02*
D03*
X257598D02*
D03*
X60748Y146240D02*
D03*
X57362D02*
D03*
X60748Y151240D02*
D03*
X57362D02*
D03*
X17992Y141240D02*
D03*
X21378D02*
D03*
X17992Y146240D02*
D03*
X21378D02*
D03*
X296969Y146240D02*
D03*
X293583D02*
D03*
X296969Y151240D02*
D03*
X293583D02*
D03*
X254213Y141240D02*
D03*
X257598D02*
D03*
X254213Y146240D02*
D03*
X257598D02*
D03*
X153543Y115256D02*
D03*
X150157D02*
D03*
X196850Y77047D02*
D03*
X193465D02*
D03*
X196850Y80984D02*
D03*
X193465D02*
D03*
X217323Y80512D02*
D03*
X213937D02*
D03*
X217323Y87598D02*
D03*
X213937D02*
D03*
X153543Y137421D02*
D03*
X150157D02*
D03*
X17992Y66240D02*
D03*
X21378D02*
D03*
X17992Y71240D02*
D03*
X21378D02*
D03*
X17992Y76240D02*
D03*
X21378D02*
D03*
X17992Y81240D02*
D03*
X21378D02*
D03*
X17992Y86240D02*
D03*
X21378D02*
D03*
X17992Y91240D02*
D03*
X21378D02*
D03*
X17992Y96240D02*
D03*
X21378D02*
D03*
X17992Y101240D02*
D03*
X21378D02*
D03*
X17992Y106240D02*
D03*
X21378D02*
D03*
X17992Y111240D02*
D03*
X21378D02*
D03*
X17992Y116240D02*
D03*
X21378D02*
D03*
X17992Y121240D02*
D03*
X21378D02*
D03*
X17992Y126240D02*
D03*
X21378D02*
D03*
X254213Y26240D02*
D03*
X257598D02*
D03*
X254213Y31240D02*
D03*
X257598D02*
D03*
X254213Y36240D02*
D03*
X257598D02*
D03*
X254213Y41240D02*
D03*
X257598D02*
D03*
X254213Y46240D02*
D03*
X257598D02*
D03*
X254213Y51240D02*
D03*
X257598D02*
D03*
X254213Y56240D02*
D03*
X257598D02*
D03*
X254213Y61240D02*
D03*
X257598D02*
D03*
X254213Y66240D02*
D03*
X257598D02*
D03*
X254213Y71240D02*
D03*
X257598D02*
D03*
X254213Y76240D02*
D03*
X257598D02*
D03*
X254213Y81240D02*
D03*
X257598D02*
D03*
X254213Y86240D02*
D03*
X257598D02*
D03*
X254213Y91240D02*
D03*
X257598D02*
D03*
X254213Y96240D02*
D03*
X257598D02*
D03*
X254213Y101240D02*
D03*
X257598D02*
D03*
X254213Y106240D02*
D03*
X257598D02*
D03*
X254213Y111240D02*
D03*
X257598D02*
D03*
X254213Y116240D02*
D03*
X257598D02*
D03*
X254213Y121240D02*
D03*
X257598D02*
D03*
X254213Y126240D02*
D03*
X257598D02*
D03*
X254213Y131240D02*
D03*
X257598D02*
D03*
X254213Y136240D02*
D03*
X257598D02*
D03*
X296969Y21240D02*
D03*
X293583D02*
D03*
X296969Y26240D02*
D03*
X293583D02*
D03*
X296969Y31240D02*
D03*
X293583D02*
D03*
X296969Y36240D02*
D03*
X293583D02*
D03*
X296969Y41240D02*
D03*
X293583D02*
D03*
X296969Y46240D02*
D03*
X293583D02*
D03*
X296969Y51240D02*
D03*
X293583D02*
D03*
X296969Y56240D02*
D03*
X293583D02*
D03*
X296969Y81240D02*
D03*
X293583D02*
D03*
X296969Y76240D02*
D03*
X293583D02*
D03*
X296969Y71240D02*
D03*
X293583D02*
D03*
X296969Y66240D02*
D03*
X293583D02*
D03*
X296969Y136240D02*
D03*
X293583D02*
D03*
X296969Y131240D02*
D03*
X293583D02*
D03*
X296969Y126240D02*
D03*
X293583D02*
D03*
X296969Y121240D02*
D03*
X293583D02*
D03*
X296969Y116240D02*
D03*
X293583D02*
D03*
X296969Y111240D02*
D03*
X293583D02*
D03*
X296969Y106240D02*
D03*
X293583D02*
D03*
X296969Y101240D02*
D03*
X293583D02*
D03*
X60748Y136240D02*
D03*
X57362D02*
D03*
X60748Y131240D02*
D03*
X57362D02*
D03*
X60748Y126240D02*
D03*
X57362D02*
D03*
X60748Y121240D02*
D03*
X57362D02*
D03*
X60748Y116240D02*
D03*
X57362D02*
D03*
X60748Y111240D02*
D03*
X57362D02*
D03*
X60748Y106240D02*
D03*
X57362D02*
D03*
X60748Y101240D02*
D03*
X57362D02*
D03*
X60748Y31240D02*
D03*
X57362D02*
D03*
X60748Y26240D02*
D03*
X57362D02*
D03*
X60748Y41240D02*
D03*
X57362D02*
D03*
X60748Y36240D02*
D03*
X57362D02*
D03*
X60748Y51240D02*
D03*
X57362D02*
D03*
X60748Y46240D02*
D03*
X57362D02*
D03*
X60748Y61240D02*
D03*
X57362D02*
D03*
X60748Y56240D02*
D03*
X57362D02*
D03*
X60748Y71240D02*
D03*
X57362D02*
D03*
X60748Y66240D02*
D03*
X57362D02*
D03*
X60748Y81240D02*
D03*
X57362D02*
D03*
X60748Y76240D02*
D03*
X57362D02*
D03*
X60748Y86240D02*
D03*
X57362D02*
D03*
X60748Y91240D02*
D03*
X57362D02*
D03*
X60748Y96240D02*
D03*
X57362D02*
D03*
X17992Y131240D02*
D03*
X21378D02*
D03*
X17992Y136240D02*
D03*
X21378D02*
D03*
X296969Y61240D02*
D03*
X293583D02*
D03*
X296969Y86240D02*
D03*
X293583D02*
D03*
X296969Y91240D02*
D03*
X293583D02*
D03*
X296969Y96240D02*
D03*
X293583D02*
D03*
X178268Y155207D02*
D03*
X181653D02*
D03*
X178268Y151240D02*
D03*
X181653D02*
D03*
X212323Y122421D02*
D03*
X208937D02*
D03*
X178268Y159173D02*
D03*
X181653D02*
D03*
X196575Y122421D02*
D03*
X193189D02*
D03*
X228071Y122716D02*
D03*
X224685D02*
D03*
X153543Y107382D02*
D03*
X150157D02*
D03*
X153543Y111319D02*
D03*
X150157D02*
D03*
X217323Y76968D02*
D03*
X213937D02*
D03*
X217323Y73425D02*
D03*
X213937D02*
D03*
X217323Y84055D02*
D03*
X213937D02*
D03*
X217323Y91142D02*
D03*
X213937D02*
D03*
X188425Y88465D02*
D03*
X185039D02*
D03*
X188425Y80984D02*
D03*
X185039D02*
D03*
X150157Y127421D02*
D03*
X153543D02*
D03*
X150157Y122421D02*
D03*
X153543D02*
D03*
X21378Y26240D02*
D03*
X17992D02*
D03*
X21378Y31240D02*
D03*
X17992D02*
D03*
X21378Y36240D02*
D03*
X17992D02*
D03*
X21378Y41240D02*
D03*
X17992D02*
D03*
X21378Y46240D02*
D03*
X17992D02*
D03*
X21378Y51240D02*
D03*
X17992D02*
D03*
X21378Y56240D02*
D03*
X17992D02*
D03*
D52*
X228346Y103799D02*
D03*
Y107185D02*
D03*
X169291Y69272D02*
D03*
Y65886D02*
D03*
X185039D02*
D03*
Y69272D02*
D03*
X153543Y72461D02*
D03*
Y75846D02*
D03*
X161614Y84370D02*
D03*
Y80984D02*
D03*
X153543Y155413D02*
D03*
Y158799D02*
D03*
X196850Y62087D02*
D03*
Y65472D02*
D03*
X228346Y52638D02*
D03*
Y56024D02*
D03*
X188976Y20827D02*
D03*
Y24213D02*
D03*
X114547Y159173D02*
D03*
Y155787D02*
D03*
X153543Y60138D02*
D03*
Y56752D02*
D03*
X185039D02*
D03*
Y60138D02*
D03*
Y11280D02*
D03*
Y14665D02*
D03*
X153543Y11280D02*
D03*
Y14665D02*
D03*
Y35138D02*
D03*
Y31752D02*
D03*
X100394Y74252D02*
D03*
Y70866D02*
D03*
X78740Y32913D02*
D03*
Y29528D02*
D03*
X137795Y75709D02*
D03*
Y72323D02*
D03*
X106299Y85158D02*
D03*
Y81772D02*
D03*
X149606Y39370D02*
D03*
Y42756D02*
D03*
X92520Y70866D02*
D03*
Y74252D02*
D03*
X165354Y84370D02*
D03*
Y80984D02*
D03*
X185039Y75846D02*
D03*
Y72461D02*
D03*
X153543Y69272D02*
D03*
Y65886D02*
D03*
X153543Y84370D02*
D03*
Y80984D02*
D03*
X157874Y84370D02*
D03*
Y80984D02*
D03*
X185039Y24213D02*
D03*
Y20827D02*
D03*
X110216Y155787D02*
D03*
Y159173D02*
D03*
X127539Y155787D02*
D03*
Y159173D02*
D03*
X118878Y155787D02*
D03*
Y159173D02*
D03*
X105886Y155787D02*
D03*
Y159173D02*
D03*
X188976Y56752D02*
D03*
Y60138D02*
D03*
X149606Y31752D02*
D03*
Y35138D02*
D03*
X96457Y74252D02*
D03*
Y70866D02*
D03*
D59*
X204724Y87598D02*
D03*
X201772D02*
D03*
D60*
X203248Y91142D02*
D03*
X210630Y134193D02*
D03*
D61*
X176969Y75197D02*
D03*
X180709D02*
D03*
X173228D02*
D03*
Y66535D02*
D03*
X176969D02*
D03*
X180709D02*
D03*
X163272Y151850D02*
D03*
Y158150D02*
D03*
X159728D02*
D03*
Y151850D02*
D03*
X161614Y75197D02*
D03*
X165354D02*
D03*
X157874D02*
D03*
Y66535D02*
D03*
X161614D02*
D03*
X165354D02*
D03*
D62*
X303150Y-7874D02*
D03*
X307087D02*
D03*
X299213D02*
D03*
X295276D02*
D03*
X291339D02*
D03*
X287402D02*
D03*
X267717D02*
D03*
X271654D02*
D03*
X275591D02*
D03*
X279528D02*
D03*
X283465D02*
D03*
X244095D02*
D03*
X240158D02*
D03*
X236221D02*
D03*
X232284D02*
D03*
X228347D02*
D03*
X248032D02*
D03*
X251969D02*
D03*
X255906D02*
D03*
X259843D02*
D03*
X263780D02*
D03*
X204725D02*
D03*
X200788D02*
D03*
X196851D02*
D03*
X192914D02*
D03*
X188977D02*
D03*
X208662D02*
D03*
X212599D02*
D03*
X216536D02*
D03*
X220473D02*
D03*
X224410D02*
D03*
X165355D02*
D03*
X161418D02*
D03*
X157481D02*
D03*
X153544D02*
D03*
X149607D02*
D03*
X169292D02*
D03*
X173229D02*
D03*
X177166D02*
D03*
X181103D02*
D03*
X185040D02*
D03*
X125985D02*
D03*
X122048D02*
D03*
X118111D02*
D03*
X114174D02*
D03*
X110237D02*
D03*
X129922D02*
D03*
X133859D02*
D03*
X137796D02*
D03*
X141733D02*
D03*
X145670D02*
D03*
X86615D02*
D03*
X82678D02*
D03*
X78741D02*
D03*
X74804D02*
D03*
X70867D02*
D03*
X90552D02*
D03*
X94489D02*
D03*
X98426D02*
D03*
X102363D02*
D03*
X106300D02*
D03*
X47245D02*
D03*
X43308D02*
D03*
X39371D02*
D03*
X35434D02*
D03*
X31497D02*
D03*
X51182D02*
D03*
X55119D02*
D03*
X59056D02*
D03*
X62993D02*
D03*
X66930D02*
D03*
X7875D02*
D03*
X11812D02*
D03*
X15749D02*
D03*
X19686D02*
D03*
X23623D02*
D03*
X27560D02*
D03*
X287401Y165354D02*
D03*
X291338D02*
D03*
X295275D02*
D03*
X299212D02*
D03*
X303149D02*
D03*
X307086D02*
D03*
X248031D02*
D03*
X251968D02*
D03*
X255905D02*
D03*
X259842D02*
D03*
X263779D02*
D03*
X283464D02*
D03*
X279527D02*
D03*
X275590D02*
D03*
X271653D02*
D03*
X267716D02*
D03*
X208661D02*
D03*
X212598D02*
D03*
X216535D02*
D03*
X220472D02*
D03*
X224409D02*
D03*
X244094D02*
D03*
X240157D02*
D03*
X236220D02*
D03*
X232283D02*
D03*
X228346D02*
D03*
X169291D02*
D03*
X173228D02*
D03*
X177165D02*
D03*
X181102D02*
D03*
X185039D02*
D03*
X204724D02*
D03*
X200787D02*
D03*
X196850D02*
D03*
X192913D02*
D03*
X188976D02*
D03*
X129921D02*
D03*
X133858D02*
D03*
X137795D02*
D03*
X141732D02*
D03*
X145669D02*
D03*
X165354D02*
D03*
X161417D02*
D03*
X157480D02*
D03*
X153543D02*
D03*
X149606D02*
D03*
X90551D02*
D03*
X94488D02*
D03*
X98425D02*
D03*
X102362D02*
D03*
X106299D02*
D03*
X125984D02*
D03*
X122047D02*
D03*
X118110D02*
D03*
X114173D02*
D03*
X110236D02*
D03*
X51181D02*
D03*
X55118D02*
D03*
X59055D02*
D03*
X62992D02*
D03*
X66929D02*
D03*
X86614D02*
D03*
X82677D02*
D03*
X78740D02*
D03*
X74803D02*
D03*
X70866D02*
D03*
X31496D02*
D03*
X35433D02*
D03*
X39370D02*
D03*
X43307D02*
D03*
X47244D02*
D03*
X27559D02*
D03*
X23622D02*
D03*
X19685D02*
D03*
X15748D02*
D03*
X7874D02*
D03*
X11811D02*
D03*
X322835Y129921D02*
D03*
Y125984D02*
D03*
Y122047D02*
D03*
Y118110D02*
D03*
Y114173D02*
D03*
Y110236D02*
D03*
Y106299D02*
D03*
Y102362D02*
D03*
Y98425D02*
D03*
Y94488D02*
D03*
Y90551D02*
D03*
Y86614D02*
D03*
Y82677D02*
D03*
Y78740D02*
D03*
Y74803D02*
D03*
Y70866D02*
D03*
Y66929D02*
D03*
Y62992D02*
D03*
Y59055D02*
D03*
Y55118D02*
D03*
Y7874D02*
D03*
Y11811D02*
D03*
Y15748D02*
D03*
Y19685D02*
D03*
Y23622D02*
D03*
Y27559D02*
D03*
Y31496D02*
D03*
Y35433D02*
D03*
Y39370D02*
D03*
Y43307D02*
D03*
Y47244D02*
D03*
Y51181D02*
D03*
Y133858D02*
D03*
Y137795D02*
D03*
Y141732D02*
D03*
Y145669D02*
D03*
Y149606D02*
D03*
X-7874Y7874D02*
D03*
Y11811D02*
D03*
Y15748D02*
D03*
Y19685D02*
D03*
Y23622D02*
D03*
Y106299D02*
D03*
Y110236D02*
D03*
Y114173D02*
D03*
Y118110D02*
D03*
Y122047D02*
D03*
Y125984D02*
D03*
Y129921D02*
D03*
Y133858D02*
D03*
Y137795D02*
D03*
Y141732D02*
D03*
Y145669D02*
D03*
Y149606D02*
D03*
Y102362D02*
D03*
Y98425D02*
D03*
Y94488D02*
D03*
Y90551D02*
D03*
Y86614D02*
D03*
Y82677D02*
D03*
Y78740D02*
D03*
Y74803D02*
D03*
Y70866D02*
D03*
Y66929D02*
D03*
Y62992D02*
D03*
Y59055D02*
D03*
Y55118D02*
D03*
Y51181D02*
D03*
Y47244D02*
D03*
Y43307D02*
D03*
Y39370D02*
D03*
Y35433D02*
D03*
Y31496D02*
D03*
Y27559D02*
D03*
D63*
X314961Y157480D02*
D03*
Y0D02*
D03*
X0Y157480D02*
D03*
Y0D02*
D03*
D84*
X283590Y151240D02*
D03*
X267591Y151240D02*
D03*
X283590Y146240D02*
D03*
X267591Y146240D02*
D03*
X283590Y141240D02*
D03*
X267591Y141240D02*
D03*
X283590Y136240D02*
D03*
X267591Y136240D02*
D03*
X283590Y131240D02*
D03*
X267591Y131240D02*
D03*
X283590Y126240D02*
D03*
X267591Y126240D02*
D03*
X283590Y121240D02*
D03*
X267591Y121240D02*
D03*
X283590Y116240D02*
D03*
X267591Y116240D02*
D03*
X283590Y111240D02*
D03*
X267591Y111240D02*
D03*
X283590Y106240D02*
D03*
X267591Y106240D02*
D03*
X283590Y101240D02*
D03*
X267591Y101240D02*
D03*
X283590Y96240D02*
D03*
X267591Y96240D02*
D03*
X283590Y91240D02*
D03*
X267591Y91240D02*
D03*
X283590Y86240D02*
D03*
X267591Y86240D02*
D03*
X283590Y81241D02*
D03*
X267591Y81241D02*
D03*
X283590Y76242D02*
D03*
X267591Y76242D02*
D03*
X283590Y71241D02*
D03*
X267591Y71240D02*
D03*
X283590Y66241D02*
D03*
X267591Y66240D02*
D03*
X283590Y61241D02*
D03*
X267591Y61240D02*
D03*
X283590Y56240D02*
D03*
X267591Y56240D02*
D03*
X283590Y51240D02*
D03*
X267591Y51240D02*
D03*
X283590Y46240D02*
D03*
X267591Y46240D02*
D03*
X283590Y41241D02*
D03*
X267591Y41240D02*
D03*
X283590Y36241D02*
D03*
X267591Y36240D02*
D03*
X283590Y31240D02*
D03*
X267591Y31240D02*
D03*
X283590Y26241D02*
D03*
X267591Y26240D02*
D03*
X283590Y21240D02*
D03*
X267591Y21240D02*
D03*
X283590Y16240D02*
D03*
X267591Y16240D02*
D03*
X283590Y11241D02*
D03*
X267591Y11240D02*
D03*
X283590Y6241D02*
D03*
X267591Y6240D02*
D03*
X47370Y151241D02*
D03*
X31370D02*
D03*
X47370Y146241D02*
D03*
X31370D02*
D03*
X47370Y141241D02*
D03*
X31370D02*
D03*
X47370Y136241D02*
D03*
X31370D02*
D03*
X47370Y131241D02*
D03*
X31370D02*
D03*
X47370Y126241D02*
D03*
X31370D02*
D03*
X47370Y121241D02*
D03*
X31370D02*
D03*
X47370Y116241D02*
D03*
X31370D02*
D03*
X47370Y111241D02*
D03*
X31370D02*
D03*
X47370Y106241D02*
D03*
X31370D02*
D03*
X47370Y101241D02*
D03*
X31370D02*
D03*
X47370Y96241D02*
D03*
X31370D02*
D03*
X47370Y91241D02*
D03*
X31370D02*
D03*
X47370Y86241D02*
D03*
X31370D02*
D03*
X47370Y81241D02*
D03*
X31370D02*
D03*
X47370Y76240D02*
D03*
X31370D02*
D03*
X47370Y71240D02*
D03*
X31370D02*
D03*
X47370Y66240D02*
D03*
X31370D02*
D03*
X47370Y61240D02*
D03*
X31370D02*
D03*
X47370Y56240D02*
D03*
X31370D02*
D03*
X47370Y51240D02*
D03*
X31370D02*
D03*
X47370Y46240D02*
D03*
X31370D02*
D03*
X47370Y41240D02*
D03*
X31370D02*
D03*
X47370Y36240D02*
D03*
X31370D02*
D03*
X47370Y31240D02*
D03*
X31370D02*
D03*
X47370Y26240D02*
D03*
X31370D02*
D03*
X47370Y21240D02*
D03*
X31370D02*
D03*
X47370Y16240D02*
D03*
X31370D02*
D03*
X47370Y11240D02*
D03*
X31370D02*
D03*
X47370Y6240D02*
D03*
X31370D02*
D03*
D85*
X157480Y-7874D02*
D03*
D86*
X157500Y165354D02*
D03*
D87*
X180709Y22343D02*
D03*
Y19783D02*
D03*
Y17224D02*
D03*
Y24902D02*
D03*
Y27461D02*
D03*
Y30020D02*
D03*
Y32579D02*
D03*
Y14665D02*
D03*
X157874Y22343D02*
D03*
Y19783D02*
D03*
Y17224D02*
D03*
Y24902D02*
D03*
Y27461D02*
D03*
Y30020D02*
D03*
Y32579D02*
D03*
Y14665D02*
D03*
Y12106D02*
D03*
X180709D02*
D03*
X157874Y35138D02*
D03*
X180709D02*
D03*
X157874Y107579D02*
D03*
Y110138D02*
D03*
Y112697D02*
D03*
Y105020D02*
D03*
Y102461D02*
D03*
Y99902D02*
D03*
Y97342D02*
D03*
Y115256D02*
D03*
X180709Y107579D02*
D03*
Y110138D02*
D03*
Y112697D02*
D03*
Y105020D02*
D03*
Y102461D02*
D03*
Y99902D02*
D03*
Y97342D02*
D03*
Y115256D02*
D03*
Y60138D02*
D03*
Y42224D02*
D03*
Y44783D02*
D03*
Y47343D02*
D03*
Y49902D02*
D03*
Y57579D02*
D03*
Y55020D02*
D03*
Y52461D02*
D03*
X157874Y60138D02*
D03*
Y42224D02*
D03*
Y44783D02*
D03*
Y47343D02*
D03*
Y49902D02*
D03*
Y57579D02*
D03*
Y55020D02*
D03*
Y52461D02*
D03*
D88*
X201575Y39370D02*
D03*
X204724D02*
D03*
X207874D02*
D03*
X211024D02*
D03*
X214173D02*
D03*
X217323D02*
D03*
X220472D02*
D03*
X223622D02*
D03*
Y5906D02*
D03*
X220472D02*
D03*
X217323D02*
D03*
X214173D02*
D03*
X211024D02*
D03*
X207874D02*
D03*
X204724D02*
D03*
X201575D02*
D03*
D89*
X229331Y33661D02*
D03*
Y30512D02*
D03*
Y27362D02*
D03*
Y24213D02*
D03*
Y21063D02*
D03*
Y17913D02*
D03*
Y14764D02*
D03*
Y11614D02*
D03*
X195866D02*
D03*
Y14764D02*
D03*
Y17913D02*
D03*
Y21063D02*
D03*
Y24213D02*
D03*
Y27362D02*
D03*
Y30512D02*
D03*
Y33661D02*
D03*
D90*
X84055Y11811D02*
D03*
Y13780D02*
D03*
Y15748D02*
D03*
Y17717D02*
D03*
Y19685D02*
D03*
Y21654D02*
D03*
Y23622D02*
D03*
Y25591D02*
D03*
Y27559D02*
D03*
Y29528D02*
D03*
Y31496D02*
D03*
Y33465D02*
D03*
Y35433D02*
D03*
Y37402D02*
D03*
Y39370D02*
D03*
Y41339D02*
D03*
Y43307D02*
D03*
Y45276D02*
D03*
Y47244D02*
D03*
Y49213D02*
D03*
Y51181D02*
D03*
Y53150D02*
D03*
Y55118D02*
D03*
Y57087D02*
D03*
Y59055D02*
D03*
X144291D02*
D03*
Y57087D02*
D03*
Y55118D02*
D03*
Y53150D02*
D03*
Y51181D02*
D03*
Y49213D02*
D03*
Y47244D02*
D03*
Y45276D02*
D03*
Y43307D02*
D03*
Y41339D02*
D03*
Y39370D02*
D03*
Y37402D02*
D03*
Y35433D02*
D03*
Y33465D02*
D03*
Y31496D02*
D03*
Y29528D02*
D03*
Y27559D02*
D03*
Y25591D02*
D03*
Y23622D02*
D03*
Y21654D02*
D03*
Y19685D02*
D03*
Y17717D02*
D03*
Y15748D02*
D03*
Y13780D02*
D03*
Y11811D02*
D03*
D91*
X90551Y65551D02*
D03*
X92520D02*
D03*
X94488D02*
D03*
X96457D02*
D03*
X98425D02*
D03*
X100394D02*
D03*
X102362D02*
D03*
X104331D02*
D03*
X106299D02*
D03*
X108268D02*
D03*
X110236D02*
D03*
X112205D02*
D03*
X114173D02*
D03*
X116142D02*
D03*
X118110D02*
D03*
X120079D02*
D03*
X122047D02*
D03*
X124016D02*
D03*
X125984D02*
D03*
X127953D02*
D03*
X129921D02*
D03*
X131890D02*
D03*
X133858D02*
D03*
X135827D02*
D03*
X137795D02*
D03*
Y5315D02*
D03*
X135827D02*
D03*
X133858D02*
D03*
X131890D02*
D03*
X129921D02*
D03*
X127953D02*
D03*
X125984D02*
D03*
X124016D02*
D03*
X122047D02*
D03*
X120079D02*
D03*
X118110D02*
D03*
X116142D02*
D03*
X114173D02*
D03*
X112205D02*
D03*
X110236D02*
D03*
X108268D02*
D03*
X106299D02*
D03*
X104331D02*
D03*
X102362D02*
D03*
X100394D02*
D03*
X98425D02*
D03*
X96457D02*
D03*
X94488D02*
D03*
X92520D02*
D03*
X90551D02*
D03*
D92*
X153543Y3937D02*
D03*
X177165D02*
D03*
X185039D02*
D03*
X169291D02*
D03*
X161417D02*
D03*
D93*
X179921Y137421D02*
D03*
Y132421D02*
D03*
Y127421D02*
D03*
Y122421D02*
D03*
X158661D02*
D03*
Y127421D02*
D03*
Y132421D02*
D03*
Y137421D02*
D03*
D94*
X283591Y151240D02*
D03*
X267590D02*
D03*
X283591Y146240D02*
D03*
X267590D02*
D03*
X283591Y141240D02*
D03*
X267590D02*
D03*
X283591Y136240D02*
D03*
X267590D02*
D03*
X283591Y131240D02*
D03*
X267590D02*
D03*
X283591Y126240D02*
D03*
X267590D02*
D03*
X283591Y121240D02*
D03*
X267590D02*
D03*
X283591Y116240D02*
D03*
X267590D02*
D03*
X283591Y111240D02*
D03*
X267590D02*
D03*
X283591Y106240D02*
D03*
X267590D02*
D03*
X283591Y101240D02*
D03*
X267590D02*
D03*
X283591Y96240D02*
D03*
X267590D02*
D03*
X283591Y91240D02*
D03*
X267590D02*
D03*
X283591Y86240D02*
D03*
X267590D02*
D03*
X283591Y81240D02*
D03*
X267590D02*
D03*
X283591Y76240D02*
D03*
X267590D02*
D03*
X283591Y71240D02*
D03*
X267590D02*
D03*
X283591Y66240D02*
D03*
X267590D02*
D03*
X283591Y61240D02*
D03*
X267590D02*
D03*
X283591Y56240D02*
D03*
X267590D02*
D03*
X283591Y51240D02*
D03*
X267590D02*
D03*
X283591Y46240D02*
D03*
X267590D02*
D03*
X283591Y41240D02*
D03*
X267590D02*
D03*
X283591Y36240D02*
D03*
X267590D02*
D03*
X283591Y31240D02*
D03*
X267590D02*
D03*
X283591Y26240D02*
D03*
X267590D02*
D03*
X283591Y21240D02*
D03*
X267590D02*
D03*
X283591Y16240D02*
D03*
X267590D02*
D03*
X283591Y11240D02*
D03*
X267590D02*
D03*
X283591Y6240D02*
D03*
X267590D02*
D03*
X47370Y151240D02*
D03*
X31370D02*
D03*
X47370Y146240D02*
D03*
X31370D02*
D03*
X47370Y141240D02*
D03*
X31370D02*
D03*
X47370Y136240D02*
D03*
X31370D02*
D03*
X47370Y131240D02*
D03*
X31370D02*
D03*
X47370Y126240D02*
D03*
X31370D02*
D03*
X47370Y121240D02*
D03*
X31370D02*
D03*
X47370Y116240D02*
D03*
X31370D02*
D03*
X47370Y111240D02*
D03*
X31370D02*
D03*
X47370Y106240D02*
D03*
X31370D02*
D03*
X47370Y101240D02*
D03*
X31370D02*
D03*
X47370Y96240D02*
D03*
X31370D02*
D03*
X47370Y91240D02*
D03*
X31370D02*
D03*
X47370Y86240D02*
D03*
X31370D02*
D03*
X47370Y81240D02*
D03*
X31370D02*
D03*
X47370Y76240D02*
D03*
X31370D02*
D03*
X47370Y71240D02*
D03*
X31370D02*
D03*
X47370Y66240D02*
D03*
X31370D02*
D03*
X47370Y61240D02*
D03*
X31370D02*
D03*
X47370Y56240D02*
D03*
X31370D02*
D03*
X47370Y51240D02*
D03*
X31370D02*
D03*
X47370Y46240D02*
D03*
X31370D02*
D03*
X47370Y41240D02*
D03*
X31370D02*
D03*
X47370Y36240D02*
D03*
X31370D02*
D03*
X47370Y31240D02*
D03*
X31370D02*
D03*
X47370Y26240D02*
D03*
X31370D02*
D03*
X47370Y21240D02*
D03*
X31370D02*
D03*
X47370Y16240D02*
D03*
X31370D02*
D03*
X47370Y11240D02*
D03*
X31370D02*
D03*
X47370Y6240D02*
D03*
X31370D02*
D03*
D95*
X207087Y84055D02*
D03*
Y80512D02*
D03*
Y76968D02*
D03*
Y73425D02*
D03*
X202362D02*
D03*
Y76968D02*
D03*
Y80512D02*
D03*
Y84055D02*
D03*
D96*
X212598Y106299D02*
D03*
D97*
X201969Y98799D02*
D03*
Y103799D02*
D03*
Y108799D02*
D03*
Y113799D02*
D03*
X223228D02*
D03*
Y108799D02*
D03*
Y103799D02*
D03*
Y98799D02*
D03*
D98*
X193465Y88465D02*
D03*
X197008D02*
D03*
D99*
X114547Y112205D02*
D03*
X118878D02*
D03*
X110216D02*
D03*
X105886D02*
D03*
X101555D02*
D03*
X123209D02*
D03*
X127539D02*
D03*
X131870D02*
D03*
D100*
X87106Y134646D02*
D03*
X141240D02*
D03*
Y101969D02*
D03*
X87106D02*
D03*
D101*
X113386Y74016D02*
D03*
X130709D02*
D03*
Y83465D02*
D03*
X113386D02*
D03*
X221260Y54331D02*
D03*
X203937D02*
D03*
Y63779D02*
D03*
X221260D02*
D03*
D102*
X212106Y130650D02*
D03*
X209154D02*
D03*
X196358D02*
D03*
X193405D02*
D03*
X227854Y130945D02*
D03*
X224902D02*
D03*
D103*
X194882Y134193D02*
D03*
X226378Y134488D02*
D03*
M02*
