G04*
G04 #@! TF.GenerationSoftware,Altium Limited,Altium Designer,20.0.13 (296)*
G04*
G04 Layer_Color=16776960*
%FSLAX25Y25*%
%MOIN*%
G70*
G01*
G75*
%ADD109C,0.00394*%
D109*
X282339Y148740D02*
Y153740D01*
X278890Y150441D02*
Y152039D01*
X287090Y150441D02*
Y152039D01*
X282339D02*
X287090D01*
X282339Y150441D02*
X287090D01*
X278890Y145441D02*
Y147039D01*
X287090Y145441D02*
Y147039D01*
X282339D02*
X287090D01*
X282339Y145441D02*
X287090D01*
X272240Y150441D02*
Y152039D01*
X272292D02*
X273890D01*
X277292Y150441D02*
X278890D01*
X272292D02*
X273890D01*
X277292Y152039D02*
X278890D01*
X273890Y150441D02*
Y152039D01*
X272292Y150441D02*
Y152039D01*
X277292Y150441D02*
Y152039D01*
X268843Y148740D02*
Y153740D01*
X282339D01*
X272240Y145441D02*
Y147039D01*
X272292D02*
X273890D01*
X277292Y145441D02*
X278890D01*
X272292D02*
X273890D01*
X277292Y147039D02*
X278890D01*
X273890Y145441D02*
Y147039D01*
X272292Y145441D02*
Y147039D01*
X277292Y145441D02*
Y147039D01*
X264090Y150441D02*
Y152039D01*
X268843D01*
X264090Y150441D02*
X268843D01*
X264090Y145441D02*
Y147039D01*
X268843D01*
X264090Y145441D02*
X268843D01*
X282339Y143740D02*
Y148740D01*
Y138740D02*
Y143740D01*
X278890Y140441D02*
Y142039D01*
X287090Y140441D02*
Y142039D01*
X282339D02*
X287090D01*
X282339Y140441D02*
X287090D01*
X282339Y133740D02*
Y138740D01*
X278890Y135441D02*
Y137039D01*
X287090Y135441D02*
Y137039D01*
X282339D02*
X287090D01*
X282339Y135441D02*
X287090D01*
X282339Y132039D02*
X287090D01*
X268843Y143740D02*
Y148740D01*
X272240Y140441D02*
Y142039D01*
X272292D02*
X273890D01*
X277292Y140441D02*
X278890D01*
X272292D02*
X273890D01*
X277292Y142039D02*
X278890D01*
X273890Y140441D02*
Y142039D01*
X272292Y140441D02*
Y142039D01*
X277292Y140441D02*
Y142039D01*
X268843Y138740D02*
Y143740D01*
X272240Y135441D02*
Y137039D01*
X272292D02*
X273890D01*
X277292Y135441D02*
X278890D01*
X272292D02*
X273890D01*
X277292Y137039D02*
X278890D01*
X273890Y135441D02*
Y137039D01*
X272292Y135441D02*
Y137039D01*
X277292Y135441D02*
Y137039D01*
X268843Y133740D02*
Y138740D01*
X272292Y132039D02*
X273890D01*
X277292D02*
X278890D01*
X264090Y140441D02*
Y142039D01*
X268843D01*
X264090Y140441D02*
X268843D01*
X264090Y135441D02*
Y137039D01*
X268843D01*
X264090Y135441D02*
X268843D01*
X264090Y132039D02*
X268843D01*
X282339Y128740D02*
Y133740D01*
X278890Y130441D02*
Y132039D01*
X287090Y130441D02*
Y132039D01*
X282339Y130441D02*
X287090D01*
X282339Y123740D02*
Y128740D01*
X278890Y125441D02*
Y127039D01*
X287090Y125441D02*
Y127039D01*
X282339D02*
X287090D01*
X282339Y125441D02*
X287090D01*
X282339Y118740D02*
Y123740D01*
X278890Y120441D02*
Y122039D01*
X287090Y120441D02*
Y122039D01*
X282339D02*
X287090D01*
X282339Y120441D02*
X287090D01*
X272240Y130441D02*
Y132039D01*
X277292Y130441D02*
X278890D01*
X272292D02*
X273890D01*
Y132039D01*
X272292Y130441D02*
Y132039D01*
X277292Y130441D02*
Y132039D01*
X268843Y128740D02*
Y133740D01*
X272240Y125441D02*
Y127039D01*
X272292D02*
X273890D01*
X277292Y125441D02*
X278890D01*
X272292D02*
X273890D01*
X277292Y127039D02*
X278890D01*
X273890Y125441D02*
Y127039D01*
X272292Y125441D02*
Y127039D01*
X277292Y125441D02*
Y127039D01*
X268843Y123740D02*
Y128740D01*
X272240Y120441D02*
Y122039D01*
X272292D02*
X273890D01*
X277292Y120441D02*
X278890D01*
X272292D02*
X273890D01*
X277292Y122039D02*
X278890D01*
X273890Y120441D02*
Y122039D01*
X272292Y120441D02*
Y122039D01*
X277292Y120441D02*
Y122039D01*
X268843Y118740D02*
Y123740D01*
X264090Y130441D02*
Y132039D01*
Y130441D02*
X268843D01*
X264090Y125441D02*
Y127039D01*
X268843D01*
X264090Y125441D02*
X268843D01*
X264090Y120441D02*
Y122039D01*
X268843D01*
X264090Y120441D02*
X268843D01*
X282339Y113740D02*
Y118740D01*
X278890Y115441D02*
Y117039D01*
X287090Y115441D02*
Y117039D01*
X282339D02*
X287090D01*
X282339Y115441D02*
X287090D01*
X282339Y108740D02*
Y113740D01*
X278890Y110441D02*
Y112039D01*
X287090Y110441D02*
Y112039D01*
X282339D02*
X287090D01*
X282339Y110441D02*
X287090D01*
X278890Y105441D02*
Y107039D01*
X287090Y105441D02*
Y107039D01*
X282339D02*
X287090D01*
X282339Y105441D02*
X287090D01*
X272240Y115441D02*
Y117039D01*
X272292D02*
X273890D01*
X277292Y115441D02*
X278890D01*
X272292D02*
X273890D01*
X277292Y117039D02*
X278890D01*
X273890Y115441D02*
Y117039D01*
X272292Y115441D02*
Y117039D01*
X277292Y115441D02*
Y117039D01*
X268843Y113740D02*
Y118740D01*
X272240Y110441D02*
Y112039D01*
X272292D02*
X273890D01*
X277292Y110441D02*
X278890D01*
X272292D02*
X273890D01*
X277292Y112039D02*
X278890D01*
X273890Y110441D02*
Y112039D01*
X272292Y110441D02*
Y112039D01*
X277292Y110441D02*
Y112039D01*
X268843Y108740D02*
Y113740D01*
X272240Y105441D02*
Y107039D01*
X272292D02*
X273890D01*
X277292Y105441D02*
X278890D01*
X272292D02*
X273890D01*
X277292Y107039D02*
X278890D01*
X273890Y105441D02*
Y107039D01*
X272292Y105441D02*
Y107039D01*
X277292Y105441D02*
Y107039D01*
X264090Y115441D02*
Y117039D01*
X268843D01*
X264090Y115441D02*
X268843D01*
X264090Y110441D02*
Y112039D01*
X268843D01*
X264090Y110441D02*
X268843D01*
X264090Y105441D02*
Y107039D01*
X268843D01*
X264090Y105441D02*
X268843D01*
X282339Y103740D02*
Y108740D01*
Y98740D02*
Y103740D01*
X278890Y100441D02*
Y102039D01*
X287090Y100441D02*
Y102039D01*
X282339D02*
X287090D01*
X282339Y100441D02*
X287090D01*
X282339Y93740D02*
Y98740D01*
X278890Y95441D02*
Y97039D01*
X287090Y95441D02*
Y97039D01*
X282339D02*
X287090D01*
X282339Y95441D02*
X287090D01*
X282339Y92039D02*
X287090D01*
X268843Y103740D02*
Y108740D01*
X272240Y100441D02*
Y102039D01*
X272292D02*
X273890D01*
X277292Y100441D02*
X278890D01*
X272292D02*
X273890D01*
X277292Y102039D02*
X278890D01*
X273890Y100441D02*
Y102039D01*
X272292Y100441D02*
Y102039D01*
X277292Y100441D02*
Y102039D01*
X268843Y98740D02*
Y103740D01*
X272240Y95441D02*
Y97039D01*
X272292D02*
X273890D01*
X277292Y95441D02*
X278890D01*
X272292D02*
X273890D01*
X277292Y97039D02*
X278890D01*
X273890Y95441D02*
Y97039D01*
X272292Y95441D02*
Y97039D01*
X277292Y95441D02*
Y97039D01*
X268843Y93740D02*
Y98740D01*
X272292Y92039D02*
X273890D01*
X277292D02*
X278890D01*
X264090Y100441D02*
Y102039D01*
X268843D01*
X264090Y100441D02*
X268843D01*
X264090Y95441D02*
Y97039D01*
X268843D01*
X264090Y95441D02*
X268843D01*
X264090Y92039D02*
X268843D01*
X282339Y88740D02*
Y93740D01*
X278890Y90441D02*
Y92039D01*
X287090Y90441D02*
Y92039D01*
X282339Y90441D02*
X287090D01*
X282339Y83740D02*
Y88740D01*
X278890Y85441D02*
Y87039D01*
X287090Y85441D02*
Y87039D01*
X282339D02*
X287090D01*
X282339Y85441D02*
X287090D01*
X282339Y78740D02*
Y83740D01*
X278890Y80441D02*
Y82039D01*
X287090Y80441D02*
Y82039D01*
X282339D02*
X287090D01*
X282339Y80441D02*
X287090D01*
X272240Y90441D02*
Y92039D01*
X277292Y90441D02*
X278890D01*
X272292D02*
X273890D01*
Y92039D01*
X272292Y90441D02*
Y92039D01*
X277292Y90441D02*
Y92039D01*
X268843Y88740D02*
Y93740D01*
X272240Y85441D02*
Y87039D01*
X272292D02*
X273890D01*
X277292Y85441D02*
X278890D01*
X272292D02*
X273890D01*
X277292Y87039D02*
X278890D01*
X273890Y85441D02*
Y87039D01*
X272292Y85441D02*
Y87039D01*
X277292Y85441D02*
Y87039D01*
X268843Y83740D02*
Y88740D01*
X272240Y80441D02*
Y82039D01*
X272292D02*
X273890D01*
X277292Y80441D02*
X278890D01*
X272292D02*
X273890D01*
X277292Y82039D02*
X278890D01*
X273890Y80441D02*
Y82039D01*
X272292Y80441D02*
Y82039D01*
X277292Y80441D02*
Y82039D01*
X268843Y78740D02*
Y83740D01*
X264090Y90441D02*
Y92039D01*
Y90441D02*
X268843D01*
X264090Y85441D02*
Y87039D01*
X268843D01*
X264090Y85441D02*
X268843D01*
X264090Y80441D02*
Y82039D01*
X268843D01*
X264090Y80441D02*
X268843D01*
X282339Y73740D02*
Y78740D01*
X278890Y75441D02*
Y77039D01*
X287090Y75441D02*
Y77039D01*
X282339D02*
X287090D01*
X282339Y75441D02*
X287090D01*
X282339Y68740D02*
Y73740D01*
X278890Y70441D02*
Y72039D01*
X287090Y70441D02*
Y72039D01*
X282339D02*
X287090D01*
X282339Y70441D02*
X287090D01*
X278890Y65441D02*
Y67039D01*
X287090Y65441D02*
Y67039D01*
X282339D02*
X287090D01*
X282339Y65441D02*
X287090D01*
X272240Y75441D02*
Y77039D01*
X272292D02*
X273890D01*
X277292Y75441D02*
X278890D01*
X272292D02*
X273890D01*
X277292Y77039D02*
X278890D01*
X273890Y75441D02*
Y77039D01*
X272292Y75441D02*
Y77039D01*
X277292Y75441D02*
Y77039D01*
X268843Y73740D02*
Y78740D01*
X272240Y70441D02*
Y72039D01*
X272292D02*
X273890D01*
X277292Y70441D02*
X278890D01*
X272292D02*
X273890D01*
X277292Y72039D02*
X278890D01*
X273890Y70441D02*
Y72039D01*
X272292Y70441D02*
Y72039D01*
X277292Y70441D02*
Y72039D01*
X268843Y68740D02*
Y73740D01*
X272240Y65441D02*
Y67039D01*
X272292D02*
X273890D01*
X277292Y65441D02*
X278890D01*
X272292D02*
X273890D01*
X277292Y67039D02*
X278890D01*
X273890Y65441D02*
Y67039D01*
X272292Y65441D02*
Y67039D01*
X277292Y65441D02*
Y67039D01*
X264090Y75441D02*
Y77039D01*
X268843D01*
X264090Y75441D02*
X268843D01*
X264090Y70441D02*
Y72039D01*
X268843D01*
X264090Y70441D02*
X268843D01*
X264090Y65441D02*
Y67039D01*
X268843D01*
X264090Y65441D02*
X268843D01*
X282339Y63740D02*
Y68740D01*
Y58740D02*
Y63740D01*
X278890Y60441D02*
Y62039D01*
X287090Y60441D02*
Y62039D01*
X282339D02*
X287090D01*
X282339Y60441D02*
X287090D01*
X282339Y53740D02*
Y58740D01*
X278890Y55441D02*
Y57039D01*
X287090Y55441D02*
Y57039D01*
X282339D02*
X287090D01*
X282339Y55441D02*
X287090D01*
X278890Y50441D02*
Y52039D01*
X287090Y50441D02*
Y52039D01*
X282339D02*
X287090D01*
X282339Y50441D02*
X287090D01*
X268843Y63740D02*
Y68740D01*
X272240Y60441D02*
Y62039D01*
X272292D02*
X273890D01*
X277292Y60441D02*
X278890D01*
X272292D02*
X273890D01*
X277292Y62039D02*
X278890D01*
X273890Y60441D02*
Y62039D01*
X272292Y60441D02*
Y62039D01*
X277292Y60441D02*
Y62039D01*
X268843Y58740D02*
Y63740D01*
X272240Y55441D02*
Y57039D01*
X272292D02*
X273890D01*
X277292Y55441D02*
X278890D01*
X272292D02*
X273890D01*
X277292Y57039D02*
X278890D01*
X273890Y55441D02*
Y57039D01*
X272292Y55441D02*
Y57039D01*
X277292Y55441D02*
Y57039D01*
X268843Y53740D02*
Y58740D01*
X272240Y50441D02*
Y52039D01*
X272292D02*
X273890D01*
X277292Y50441D02*
X278890D01*
X272292D02*
X273890D01*
X277292Y52039D02*
X278890D01*
X273890Y50441D02*
Y52039D01*
X272292Y50441D02*
Y52039D01*
X277292Y50441D02*
Y52039D01*
X264090Y60441D02*
Y62039D01*
X268843D01*
X264090Y60441D02*
X268843D01*
X264090Y55441D02*
Y57039D01*
X268843D01*
X264090Y55441D02*
X268843D01*
X264090Y50441D02*
Y52039D01*
X268843D01*
X264090Y50441D02*
X268843D01*
X282339Y48740D02*
Y53740D01*
Y43740D02*
Y48740D01*
X278890Y45441D02*
Y47039D01*
X287090Y45441D02*
Y47039D01*
X282339D02*
X287090D01*
X282339Y45441D02*
X287090D01*
X282339Y38740D02*
Y43740D01*
X278890Y40441D02*
Y42039D01*
X287090Y40441D02*
Y42039D01*
X282339D02*
X287090D01*
X282339Y40441D02*
X287090D01*
X282339Y37039D02*
X287090D01*
X268843Y48740D02*
Y53740D01*
X272240Y45441D02*
Y47039D01*
X272292D02*
X273890D01*
X277292Y45441D02*
X278890D01*
X272292D02*
X273890D01*
X277292Y47039D02*
X278890D01*
X273890Y45441D02*
Y47039D01*
X272292Y45441D02*
Y47039D01*
X277292Y45441D02*
Y47039D01*
X268843Y43740D02*
Y48740D01*
X272240Y40441D02*
Y42039D01*
X272292D02*
X273890D01*
X277292Y40441D02*
X278890D01*
X272292D02*
X273890D01*
X277292Y42039D02*
X278890D01*
X273890Y40441D02*
Y42039D01*
X272292Y40441D02*
Y42039D01*
X277292Y40441D02*
Y42039D01*
X268843Y38740D02*
Y43740D01*
X272292Y37039D02*
X273890D01*
X277292D02*
X278890D01*
X264090Y45441D02*
Y47039D01*
X268843D01*
X264090Y45441D02*
X268843D01*
X264090Y40441D02*
Y42039D01*
X268843D01*
X264090Y40441D02*
X268843D01*
X264090Y37039D02*
X268843D01*
X282339Y33740D02*
Y38740D01*
X278890Y35441D02*
Y37039D01*
X287090Y35441D02*
Y37039D01*
X282339Y35441D02*
X287090D01*
X282339Y28740D02*
Y33740D01*
X278890Y30441D02*
Y32039D01*
X287090Y30441D02*
Y32039D01*
X282339D02*
X287090D01*
X282339Y30441D02*
X287090D01*
X282339Y23740D02*
Y28740D01*
X278890Y25441D02*
Y27039D01*
X287090Y25441D02*
Y27039D01*
X282339D02*
X287090D01*
X282339Y25441D02*
X287090D01*
X272240Y35441D02*
Y37039D01*
X277292Y35441D02*
X278890D01*
X272292D02*
X273890D01*
Y37039D01*
X272292Y35441D02*
Y37039D01*
X277292Y35441D02*
Y37039D01*
X268843Y33740D02*
Y38740D01*
X272240Y30441D02*
Y32039D01*
X272292D02*
X273890D01*
X277292Y30441D02*
X278890D01*
X272292D02*
X273890D01*
X277292Y32039D02*
X278890D01*
X273890Y30441D02*
Y32039D01*
X272292Y30441D02*
Y32039D01*
X277292Y30441D02*
Y32039D01*
X268843Y28740D02*
Y33740D01*
X272240Y25441D02*
Y27039D01*
X272292D02*
X273890D01*
X277292Y25441D02*
X278890D01*
X272292D02*
X273890D01*
X277292Y27039D02*
X278890D01*
X273890Y25441D02*
Y27039D01*
X272292Y25441D02*
Y27039D01*
X277292Y25441D02*
Y27039D01*
X268843Y23740D02*
Y28740D01*
X264090Y35441D02*
Y37039D01*
Y35441D02*
X268843D01*
X264090Y30441D02*
Y32039D01*
X268843D01*
X264090Y30441D02*
X268843D01*
X264090Y25441D02*
Y27039D01*
X268843D01*
X264090Y25441D02*
X268843D01*
X282339Y18740D02*
Y23740D01*
X278890Y20441D02*
Y22039D01*
X287090Y20441D02*
Y22039D01*
X282339D02*
X287090D01*
X282339Y20441D02*
X287090D01*
X282339Y13740D02*
Y18740D01*
X278890Y15441D02*
Y17039D01*
X287090Y15441D02*
Y17039D01*
X282339D02*
X287090D01*
X282339Y15441D02*
X287090D01*
X278890Y10441D02*
Y12039D01*
X287090Y10441D02*
Y12039D01*
X282339D02*
X287090D01*
X282339Y10441D02*
X287090D01*
X272240Y20441D02*
Y22039D01*
X272292D02*
X273890D01*
X277292Y20441D02*
X278890D01*
X272292D02*
X273890D01*
X277292Y22039D02*
X278890D01*
X273890Y20441D02*
Y22039D01*
X272292Y20441D02*
Y22039D01*
X277292Y20441D02*
Y22039D01*
X268843Y18740D02*
Y23740D01*
X272240Y15441D02*
Y17039D01*
X272292D02*
X273890D01*
X277292Y15441D02*
X278890D01*
X272292D02*
X273890D01*
X277292Y17039D02*
X278890D01*
X273890Y15441D02*
Y17039D01*
X272292Y15441D02*
Y17039D01*
X277292Y15441D02*
Y17039D01*
X268843Y13740D02*
Y18740D01*
X272240Y10441D02*
Y12039D01*
X272292D02*
X273890D01*
X277292Y10441D02*
X278890D01*
X272292D02*
X273890D01*
X277292Y12039D02*
X278890D01*
X273890Y10441D02*
Y12039D01*
X272292Y10441D02*
Y12039D01*
X277292Y10441D02*
Y12039D01*
X264090Y20441D02*
Y22039D01*
X268843D01*
X264090Y20441D02*
X268843D01*
X264090Y15441D02*
Y17039D01*
X268843D01*
X264090Y15441D02*
X268843D01*
X264090Y10441D02*
Y12039D01*
X268843D01*
X264090Y10441D02*
X268843D01*
X282339Y8740D02*
Y13740D01*
Y3740D02*
Y8740D01*
X278890Y5441D02*
Y7039D01*
X287090Y5441D02*
Y7039D01*
X282339D02*
X287090D01*
X282339Y5441D02*
X287090D01*
X268843Y8740D02*
Y13740D01*
X272240Y5441D02*
Y7039D01*
X268843Y3740D02*
X282339D01*
X272292Y7039D02*
X273890D01*
X277292Y5441D02*
X278890D01*
X272292D02*
X273890D01*
X277292Y7039D02*
X278890D01*
X273890Y5441D02*
Y7039D01*
X272292Y5441D02*
Y7039D01*
X277292Y5441D02*
Y7039D01*
X268843Y3740D02*
Y8740D01*
X264090Y5441D02*
Y7039D01*
X268843D01*
X264090Y5441D02*
X268843D01*
X46118Y148740D02*
Y153740D01*
X42669Y150441D02*
Y152039D01*
X50870Y150441D02*
Y152039D01*
X46118D02*
X50870D01*
X46118Y150441D02*
X50870D01*
X42669Y145441D02*
Y147039D01*
X50870Y145441D02*
Y147039D01*
X46118D02*
X50870D01*
X46118Y145441D02*
X50870D01*
X36020Y150441D02*
Y152039D01*
X36071D02*
X37669D01*
X41071Y150441D02*
X42669D01*
X36071D02*
X37669D01*
X41071Y152039D02*
X42669D01*
X37669Y150441D02*
Y152039D01*
X36071Y150441D02*
Y152039D01*
X41071Y150441D02*
Y152039D01*
X32622Y148740D02*
Y153740D01*
X46118D01*
X36020Y145441D02*
Y147039D01*
X36071D02*
X37669D01*
X41071Y145441D02*
X42669D01*
X36071D02*
X37669D01*
X41071Y147039D02*
X42669D01*
X37669Y145441D02*
Y147039D01*
X36071Y145441D02*
Y147039D01*
X41071Y145441D02*
Y147039D01*
X27870Y150441D02*
Y152039D01*
X32622D01*
X27870Y150441D02*
X32622D01*
X27870Y145441D02*
Y147039D01*
X32622D01*
X27870Y145441D02*
X32622D01*
X46118Y143740D02*
Y148740D01*
Y138740D02*
Y143740D01*
X42669Y140441D02*
Y142039D01*
X50870Y140441D02*
Y142039D01*
X46118D02*
X50870D01*
X46118Y140441D02*
X50870D01*
X46118Y133740D02*
Y138740D01*
X42669Y135441D02*
Y137039D01*
X50870Y135441D02*
Y137039D01*
X46118D02*
X50870D01*
X46118Y135441D02*
X50870D01*
X46118Y132039D02*
X50870D01*
X32622Y143740D02*
Y148740D01*
X36020Y140441D02*
Y142039D01*
X36071D02*
X37669D01*
X41071Y140441D02*
X42669D01*
X36071D02*
X37669D01*
X41071Y142039D02*
X42669D01*
X37669Y140441D02*
Y142039D01*
X36071Y140441D02*
Y142039D01*
X41071Y140441D02*
Y142039D01*
X32622Y138740D02*
Y143740D01*
X36020Y135441D02*
Y137039D01*
X36071D02*
X37669D01*
X41071Y135441D02*
X42669D01*
X36071D02*
X37669D01*
X41071Y137039D02*
X42669D01*
X37669Y135441D02*
Y137039D01*
X36071Y135441D02*
Y137039D01*
X41071Y135441D02*
Y137039D01*
X32622Y133740D02*
Y138740D01*
X36071Y132039D02*
X37669D01*
X41071D02*
X42669D01*
X27870Y140441D02*
Y142039D01*
X32622D01*
X27870Y140441D02*
X32622D01*
X27870Y135441D02*
Y137039D01*
X32622D01*
X27870Y135441D02*
X32622D01*
X27870Y132039D02*
X32622D01*
X46118Y128740D02*
Y133740D01*
X42669Y130441D02*
Y132039D01*
X50870Y130441D02*
Y132039D01*
X46118Y130441D02*
X50870D01*
X46118Y123740D02*
Y128740D01*
X42669Y125441D02*
Y127039D01*
X50870Y125441D02*
Y127039D01*
X46118D02*
X50870D01*
X46118Y125441D02*
X50870D01*
X46118Y118740D02*
Y123740D01*
X42669Y120441D02*
Y122039D01*
X50870Y120441D02*
Y122039D01*
X46118D02*
X50870D01*
X46118Y120441D02*
X50870D01*
X36020Y130441D02*
Y132039D01*
X41071Y130441D02*
X42669D01*
X36071D02*
X37669D01*
Y132039D01*
X36071Y130441D02*
Y132039D01*
X41071Y130441D02*
Y132039D01*
X32622Y128740D02*
Y133740D01*
X36020Y125441D02*
Y127039D01*
X36071D02*
X37669D01*
X41071Y125441D02*
X42669D01*
X36071D02*
X37669D01*
X41071Y127039D02*
X42669D01*
X37669Y125441D02*
Y127039D01*
X36071Y125441D02*
Y127039D01*
X41071Y125441D02*
Y127039D01*
X32622Y123740D02*
Y128740D01*
X36020Y120441D02*
Y122039D01*
X36071D02*
X37669D01*
X41071Y120441D02*
X42669D01*
X36071D02*
X37669D01*
X41071Y122039D02*
X42669D01*
X37669Y120441D02*
Y122039D01*
X36071Y120441D02*
Y122039D01*
X41071Y120441D02*
Y122039D01*
X32622Y118740D02*
Y123740D01*
X27870Y130441D02*
Y132039D01*
Y130441D02*
X32622D01*
X27870Y125441D02*
Y127039D01*
X32622D01*
X27870Y125441D02*
X32622D01*
X27870Y120441D02*
Y122039D01*
X32622D01*
X27870Y120441D02*
X32622D01*
X46118Y113740D02*
Y118740D01*
X42669Y115441D02*
Y117039D01*
X50870Y115441D02*
Y117039D01*
X46118D02*
X50870D01*
X46118Y115441D02*
X50870D01*
X46118Y108740D02*
Y113740D01*
X42669Y110441D02*
Y112039D01*
X50870Y110441D02*
Y112039D01*
X46118D02*
X50870D01*
X46118Y110441D02*
X50870D01*
X42669Y105441D02*
Y107039D01*
X50870Y105441D02*
Y107039D01*
X46118D02*
X50870D01*
X46118Y105441D02*
X50870D01*
X36020Y115441D02*
Y117039D01*
X36071D02*
X37669D01*
X41071Y115441D02*
X42669D01*
X36071D02*
X37669D01*
X41071Y117039D02*
X42669D01*
X37669Y115441D02*
Y117039D01*
X36071Y115441D02*
Y117039D01*
X41071Y115441D02*
Y117039D01*
X32622Y113740D02*
Y118740D01*
X36020Y110441D02*
Y112039D01*
X36071D02*
X37669D01*
X41071Y110441D02*
X42669D01*
X36071D02*
X37669D01*
X41071Y112039D02*
X42669D01*
X37669Y110441D02*
Y112039D01*
X36071Y110441D02*
Y112039D01*
X41071Y110441D02*
Y112039D01*
X32622Y108740D02*
Y113740D01*
X36020Y105441D02*
Y107039D01*
X36071D02*
X37669D01*
X41071Y105441D02*
X42669D01*
X36071D02*
X37669D01*
X41071Y107039D02*
X42669D01*
X37669Y105441D02*
Y107039D01*
X36071Y105441D02*
Y107039D01*
X41071Y105441D02*
Y107039D01*
X27870Y115441D02*
Y117039D01*
X32622D01*
X27870Y115441D02*
X32622D01*
X27870Y110441D02*
Y112039D01*
X32622D01*
X27870Y110441D02*
X32622D01*
X27870Y105441D02*
Y107039D01*
X32622D01*
X27870Y105441D02*
X32622D01*
X46118Y103740D02*
Y108740D01*
Y98740D02*
Y103740D01*
X42669Y100441D02*
Y102039D01*
X50870Y100441D02*
Y102039D01*
X46118D02*
X50870D01*
X46118Y100441D02*
X50870D01*
X46118Y93740D02*
Y98740D01*
X42669Y95441D02*
Y97039D01*
X50870Y95441D02*
Y97039D01*
X46118D02*
X50870D01*
X46118Y95441D02*
X50870D01*
X46118Y92039D02*
X50870D01*
X32622Y103740D02*
Y108740D01*
X36020Y100441D02*
Y102039D01*
X36071D02*
X37669D01*
X41071Y100441D02*
X42669D01*
X36071D02*
X37669D01*
X41071Y102039D02*
X42669D01*
X37669Y100441D02*
Y102039D01*
X36071Y100441D02*
Y102039D01*
X41071Y100441D02*
Y102039D01*
X32622Y98740D02*
Y103740D01*
X36020Y95441D02*
Y97039D01*
X36071D02*
X37669D01*
X41071Y95441D02*
X42669D01*
X36071D02*
X37669D01*
X41071Y97039D02*
X42669D01*
X37669Y95441D02*
Y97039D01*
X36071Y95441D02*
Y97039D01*
X41071Y95441D02*
Y97039D01*
X32622Y93740D02*
Y98740D01*
X36071Y92039D02*
X37669D01*
X41071D02*
X42669D01*
X27870Y100441D02*
Y102039D01*
X32622D01*
X27870Y100441D02*
X32622D01*
X27870Y95441D02*
Y97039D01*
X32622D01*
X27870Y95441D02*
X32622D01*
X27870Y92039D02*
X32622D01*
X46118Y88740D02*
Y93740D01*
X42669Y90441D02*
Y92039D01*
X50870Y90441D02*
Y92039D01*
X46118Y90441D02*
X50870D01*
X46118Y83740D02*
Y88740D01*
X42669Y85441D02*
Y87039D01*
X50870Y85441D02*
Y87039D01*
X46118D02*
X50870D01*
X46118Y85441D02*
X50870D01*
X46118Y78740D02*
Y83740D01*
X42669Y80441D02*
Y82039D01*
X50870Y80441D02*
Y82039D01*
X46118D02*
X50870D01*
X46118Y80441D02*
X50870D01*
X36020Y90441D02*
Y92039D01*
X41071Y90441D02*
X42669D01*
X36071D02*
X37669D01*
Y92039D01*
X36071Y90441D02*
Y92039D01*
X41071Y90441D02*
Y92039D01*
X32622Y88740D02*
Y93740D01*
X36020Y85441D02*
Y87039D01*
X36071D02*
X37669D01*
X41071Y85441D02*
X42669D01*
X36071D02*
X37669D01*
X41071Y87039D02*
X42669D01*
X37669Y85441D02*
Y87039D01*
X36071Y85441D02*
Y87039D01*
X41071Y85441D02*
Y87039D01*
X32622Y83740D02*
Y88740D01*
X36020Y80441D02*
Y82039D01*
X36071D02*
X37669D01*
X41071Y80441D02*
X42669D01*
X36071D02*
X37669D01*
X41071Y82039D02*
X42669D01*
X37669Y80441D02*
Y82039D01*
X36071Y80441D02*
Y82039D01*
X41071Y80441D02*
Y82039D01*
X32622Y78740D02*
Y83740D01*
X27870Y90441D02*
Y92039D01*
Y90441D02*
X32622D01*
X27870Y85441D02*
Y87039D01*
X32622D01*
X27870Y85441D02*
X32622D01*
X27870Y80441D02*
Y82039D01*
X32622D01*
X27870Y80441D02*
X32622D01*
X46118Y73740D02*
Y78740D01*
X42669Y75441D02*
Y77039D01*
X50870Y75441D02*
Y77039D01*
X46118D02*
X50870D01*
X46118Y75441D02*
X50870D01*
X46118Y68740D02*
Y73740D01*
X42669Y70441D02*
Y72039D01*
X50870Y70441D02*
Y72039D01*
X46118D02*
X50870D01*
X46118Y70441D02*
X50870D01*
X42669Y65441D02*
Y67039D01*
X50870Y65441D02*
Y67039D01*
X46118D02*
X50870D01*
X46118Y65441D02*
X50870D01*
X36020Y75441D02*
Y77039D01*
X36071D02*
X37669D01*
X41071Y75441D02*
X42669D01*
X36071D02*
X37669D01*
X41071Y77039D02*
X42669D01*
X37669Y75441D02*
Y77039D01*
X36071Y75441D02*
Y77039D01*
X41071Y75441D02*
Y77039D01*
X32622Y73740D02*
Y78740D01*
X36020Y70441D02*
Y72039D01*
X36071D02*
X37669D01*
X41071Y70441D02*
X42669D01*
X36071D02*
X37669D01*
X41071Y72039D02*
X42669D01*
X37669Y70441D02*
Y72039D01*
X36071Y70441D02*
Y72039D01*
X41071Y70441D02*
Y72039D01*
X32622Y68740D02*
Y73740D01*
X36020Y65441D02*
Y67039D01*
X36071D02*
X37669D01*
X41071Y65441D02*
X42669D01*
X36071D02*
X37669D01*
X41071Y67039D02*
X42669D01*
X37669Y65441D02*
Y67039D01*
X36071Y65441D02*
Y67039D01*
X41071Y65441D02*
Y67039D01*
X27870Y75441D02*
Y77039D01*
X32622D01*
X27870Y75441D02*
X32622D01*
X27870Y70441D02*
Y72039D01*
X32622D01*
X27870Y70441D02*
X32622D01*
X27870Y65441D02*
Y67039D01*
X32622D01*
X27870Y65441D02*
X32622D01*
X46118Y63740D02*
Y68740D01*
Y58740D02*
Y63740D01*
X42669Y60441D02*
Y62039D01*
X50870Y60441D02*
Y62039D01*
X46118D02*
X50870D01*
X46118Y60441D02*
X50870D01*
X46118Y53740D02*
Y58740D01*
X42669Y55441D02*
Y57039D01*
X50870Y55441D02*
Y57039D01*
X46118D02*
X50870D01*
X46118Y55441D02*
X50870D01*
X42669Y50441D02*
Y52039D01*
X50870Y50441D02*
Y52039D01*
X46118D02*
X50870D01*
X46118Y50441D02*
X50870D01*
X32622Y63740D02*
Y68740D01*
X36020Y60441D02*
Y62039D01*
X36071D02*
X37669D01*
X41071Y60441D02*
X42669D01*
X36071D02*
X37669D01*
X41071Y62039D02*
X42669D01*
X37669Y60441D02*
Y62039D01*
X36071Y60441D02*
Y62039D01*
X41071Y60441D02*
Y62039D01*
X32622Y58740D02*
Y63740D01*
X36020Y55441D02*
Y57039D01*
X36071D02*
X37669D01*
X41071Y55441D02*
X42669D01*
X36071D02*
X37669D01*
X41071Y57039D02*
X42669D01*
X37669Y55441D02*
Y57039D01*
X36071Y55441D02*
Y57039D01*
X41071Y55441D02*
Y57039D01*
X32622Y53740D02*
Y58740D01*
X36020Y50441D02*
Y52039D01*
X36071D02*
X37669D01*
X41071Y50441D02*
X42669D01*
X36071D02*
X37669D01*
X41071Y52039D02*
X42669D01*
X37669Y50441D02*
Y52039D01*
X36071Y50441D02*
Y52039D01*
X41071Y50441D02*
Y52039D01*
X27870Y60441D02*
Y62039D01*
X32622D01*
X27870Y60441D02*
X32622D01*
X27870Y55441D02*
Y57039D01*
X32622D01*
X27870Y55441D02*
X32622D01*
X27870Y50441D02*
Y52039D01*
X32622D01*
X27870Y50441D02*
X32622D01*
X46118Y48740D02*
Y53740D01*
Y43740D02*
Y48740D01*
X42669Y45441D02*
Y47039D01*
X50870Y45441D02*
Y47039D01*
X46118D02*
X50870D01*
X46118Y45441D02*
X50870D01*
X46118Y38740D02*
Y43740D01*
X42669Y40441D02*
Y42039D01*
X50870Y40441D02*
Y42039D01*
X46118D02*
X50870D01*
X46118Y40441D02*
X50870D01*
X46118Y37039D02*
X50870D01*
X32622Y48740D02*
Y53740D01*
X36020Y45441D02*
Y47039D01*
X36071D02*
X37669D01*
X41071Y45441D02*
X42669D01*
X36071D02*
X37669D01*
X41071Y47039D02*
X42669D01*
X37669Y45441D02*
Y47039D01*
X36071Y45441D02*
Y47039D01*
X41071Y45441D02*
Y47039D01*
X32622Y43740D02*
Y48740D01*
X36020Y40441D02*
Y42039D01*
X36071D02*
X37669D01*
X41071Y40441D02*
X42669D01*
X36071D02*
X37669D01*
X41071Y42039D02*
X42669D01*
X37669Y40441D02*
Y42039D01*
X36071Y40441D02*
Y42039D01*
X41071Y40441D02*
Y42039D01*
X32622Y38740D02*
Y43740D01*
X36071Y37039D02*
X37669D01*
X41071D02*
X42669D01*
X27870Y45441D02*
Y47039D01*
X32622D01*
X27870Y45441D02*
X32622D01*
X27870Y40441D02*
Y42039D01*
X32622D01*
X27870Y40441D02*
X32622D01*
X27870Y37039D02*
X32622D01*
X46118Y33740D02*
Y38740D01*
X42669Y35441D02*
Y37039D01*
X50870Y35441D02*
Y37039D01*
X46118Y35441D02*
X50870D01*
X46118Y28740D02*
Y33740D01*
X42669Y30441D02*
Y32039D01*
X50870Y30441D02*
Y32039D01*
X46118D02*
X50870D01*
X46118Y30441D02*
X50870D01*
X46118Y23740D02*
Y28740D01*
X42669Y25441D02*
Y27039D01*
X50870Y25441D02*
Y27039D01*
X46118D02*
X50870D01*
X46118Y25441D02*
X50870D01*
X36020Y35441D02*
Y37039D01*
X41071Y35441D02*
X42669D01*
X36071D02*
X37669D01*
Y37039D01*
X36071Y35441D02*
Y37039D01*
X41071Y35441D02*
Y37039D01*
X32622Y33740D02*
Y38740D01*
X36020Y30441D02*
Y32039D01*
X36071D02*
X37669D01*
X41071Y30441D02*
X42669D01*
X36071D02*
X37669D01*
X41071Y32039D02*
X42669D01*
X37669Y30441D02*
Y32039D01*
X36071Y30441D02*
Y32039D01*
X41071Y30441D02*
Y32039D01*
X32622Y28740D02*
Y33740D01*
X36020Y25441D02*
Y27039D01*
X36071D02*
X37669D01*
X41071Y25441D02*
X42669D01*
X36071D02*
X37669D01*
X41071Y27039D02*
X42669D01*
X37669Y25441D02*
Y27039D01*
X36071Y25441D02*
Y27039D01*
X41071Y25441D02*
Y27039D01*
X32622Y23740D02*
Y28740D01*
X27870Y35441D02*
Y37039D01*
Y35441D02*
X32622D01*
X27870Y30441D02*
Y32039D01*
X32622D01*
X27870Y30441D02*
X32622D01*
X27870Y25441D02*
Y27039D01*
X32622D01*
X27870Y25441D02*
X32622D01*
X46118Y18740D02*
Y23740D01*
X42669Y20441D02*
Y22039D01*
X50870Y20441D02*
Y22039D01*
X46118D02*
X50870D01*
X46118Y20441D02*
X50870D01*
X46118Y13740D02*
Y18740D01*
X42669Y15441D02*
Y17039D01*
X50870Y15441D02*
Y17039D01*
X46118D02*
X50870D01*
X46118Y15441D02*
X50870D01*
X42669Y10441D02*
Y12039D01*
X50870Y10441D02*
Y12039D01*
X46118D02*
X50870D01*
X46118Y10441D02*
X50870D01*
X36020Y20441D02*
Y22039D01*
X36071D02*
X37669D01*
X41071Y20441D02*
X42669D01*
X36071D02*
X37669D01*
X41071Y22039D02*
X42669D01*
X37669Y20441D02*
Y22039D01*
X36071Y20441D02*
Y22039D01*
X41071Y20441D02*
Y22039D01*
X32622Y18740D02*
Y23740D01*
X36020Y15441D02*
Y17039D01*
X36071D02*
X37669D01*
X41071Y15441D02*
X42669D01*
X36071D02*
X37669D01*
X41071Y17039D02*
X42669D01*
X37669Y15441D02*
Y17039D01*
X36071Y15441D02*
Y17039D01*
X41071Y15441D02*
Y17039D01*
X32622Y13740D02*
Y18740D01*
X36020Y10441D02*
Y12039D01*
X36071D02*
X37669D01*
X41071Y10441D02*
X42669D01*
X36071D02*
X37669D01*
X41071Y12039D02*
X42669D01*
X37669Y10441D02*
Y12039D01*
X36071Y10441D02*
Y12039D01*
X41071Y10441D02*
Y12039D01*
X27870Y20441D02*
Y22039D01*
X32622D01*
X27870Y20441D02*
X32622D01*
X27870Y15441D02*
Y17039D01*
X32622D01*
X27870Y15441D02*
X32622D01*
X27870Y10441D02*
Y12039D01*
X32622D01*
X27870Y10441D02*
X32622D01*
X46118Y8740D02*
Y13740D01*
Y3740D02*
Y8740D01*
X42669Y5441D02*
Y7039D01*
X50870Y5441D02*
Y7039D01*
X46118D02*
X50870D01*
X46118Y5441D02*
X50870D01*
X32622Y8740D02*
Y13740D01*
X36020Y5441D02*
Y7039D01*
X32622Y3740D02*
X46118D01*
X36071Y7039D02*
X37669D01*
X41071Y5441D02*
X42669D01*
X36071D02*
X37669D01*
X41071Y7039D02*
X42669D01*
X37669Y5441D02*
Y7039D01*
X36071Y5441D02*
Y7039D01*
X41071Y5441D02*
Y7039D01*
X32622Y3740D02*
Y8740D01*
X27870Y5441D02*
Y7039D01*
X32622D01*
X27870Y5441D02*
X32622D01*
M02*
