G04*
G04 #@! TF.GenerationSoftware,Altium Limited,Altium Designer,20.0.13 (296)*
G04*
G04 Layer_Color=32896*
%FSLAX25Y25*%
%MOIN*%
G70*
G01*
G75*
%ADD15C,0.00197*%
D15*
X146632Y77409D02*
Y84009D01*
X136832D02*
X146632D01*
X136832Y77409D02*
Y84009D01*
Y77409D02*
X146632D01*
X140551Y80809D02*
X142913D01*
X141732Y79628D02*
Y81990D01*
X279528Y10730D02*
Y13092D01*
X278346Y11911D02*
X280709D01*
X269628Y2911D02*
X289428D01*
X269628D02*
Y20711D01*
X289428D01*
Y2911D02*
Y20711D01*
X94488Y116929D02*
Y119291D01*
X93307Y118110D02*
X95669D01*
X91535Y116535D02*
X97441D01*
X91535Y119685D02*
X97441D01*
Y116535D02*
Y119685D01*
X91535Y116535D02*
Y119685D01*
X208984Y154134D02*
X211346D01*
X210165Y152953D02*
Y155315D01*
X208591Y151181D02*
Y157087D01*
X211740Y151181D02*
Y157087D01*
X208591Y151181D02*
X211740D01*
X208591Y157087D02*
X211740D01*
X303081Y91799D02*
Y101799D01*
X299281D02*
X303081D01*
X299281Y91799D02*
X303081D01*
X299281D02*
Y101799D01*
X301181Y95618D02*
Y97980D01*
X300000Y96799D02*
X302362D01*
X176784Y29677D02*
Y140677D01*
Y29677D02*
X287784D01*
Y140677D01*
X176784D02*
X287784D01*
X231102Y85177D02*
X233465D01*
X232283Y83996D02*
Y86358D01*
X196890Y151894D02*
X199252D01*
X198071Y150713D02*
Y153075D01*
X191971Y142494D02*
Y161294D01*
X207671D01*
Y142494D02*
Y161294D01*
X191971Y142494D02*
X207671D01*
X21722Y73740D02*
Y83740D01*
Y73740D02*
X25522D01*
X21722Y83740D02*
X25522D01*
Y73740D02*
Y83740D01*
X23622Y77559D02*
Y79921D01*
X22441Y78740D02*
X24803D01*
X40157Y104331D02*
X42520D01*
X41339Y103150D02*
Y105512D01*
X42913Y101378D02*
Y107283D01*
X39764Y101378D02*
Y107283D01*
X42913D01*
X39764Y101378D02*
X42913D01*
X44094Y104331D02*
X46457D01*
X45276Y103150D02*
Y105512D01*
X43701Y101378D02*
Y107283D01*
X46850Y101378D02*
Y107283D01*
X43701Y101378D02*
X46850D01*
X43701Y107283D02*
X46850D01*
X44094Y131890D02*
X46457D01*
X45276Y130709D02*
Y133071D01*
X46850Y128937D02*
Y134843D01*
X43701Y128937D02*
Y134843D01*
X46850D01*
X43701Y128937D02*
X46850D01*
X40157Y131890D02*
X42520D01*
X41339Y130709D02*
Y133071D01*
X39764Y128937D02*
Y134843D01*
X42913Y128937D02*
Y134843D01*
X39764Y128937D02*
X42913D01*
X39764Y134843D02*
X42913D01*
X40157Y25591D02*
X42520D01*
X41339Y24409D02*
Y26772D01*
X42913Y22638D02*
Y28543D01*
X39764Y22638D02*
Y28543D01*
X42913D01*
X39764Y22638D02*
X42913D01*
X44094Y25591D02*
X46457D01*
X45276Y24409D02*
Y26772D01*
X43701Y22638D02*
Y28543D01*
X46850Y22638D02*
Y28543D01*
X43701Y22638D02*
X46850D01*
X43701Y28543D02*
X46850D01*
X40157Y53150D02*
X42520D01*
X41339Y51968D02*
Y54331D01*
X42913Y50197D02*
Y56102D01*
X39764Y50197D02*
Y56102D01*
X42913D01*
X39764Y50197D02*
X42913D01*
X44094Y53150D02*
X46457D01*
X45276Y51968D02*
Y54331D01*
X43701Y50197D02*
Y56102D01*
X46850Y50197D02*
Y56102D01*
X43701Y50197D02*
X46850D01*
X43701Y56102D02*
X46850D01*
X57087Y22716D02*
Y25079D01*
X55905Y23898D02*
X58268D01*
X54134Y22323D02*
X60039D01*
X54134Y25472D02*
X60039D01*
Y22323D02*
Y25472D01*
X54134Y22323D02*
Y25472D01*
X305581Y102773D02*
X315581D01*
Y106573D01*
X305581Y102773D02*
Y106573D01*
X315581D01*
X309400Y104673D02*
X311762D01*
X310581Y103492D02*
Y105854D01*
X308524Y107429D02*
Y109791D01*
X307343Y108610D02*
X309705D01*
X305571Y110185D02*
X311476D01*
X305571Y107035D02*
X311476D01*
X305571D02*
Y110185D01*
X311476Y107035D02*
Y110185D01*
X308524Y111366D02*
Y113728D01*
X307343Y112547D02*
X309705D01*
X305571Y114122D02*
X311476D01*
X305571Y110972D02*
X311476D01*
X305571D02*
Y114122D01*
X311476Y110972D02*
Y114122D01*
X307480Y65303D02*
X309842D01*
X308661Y64122D02*
Y66484D01*
X310236Y62350D02*
Y68256D01*
X307087Y62350D02*
Y68256D01*
X310236D01*
X307087Y62350D02*
X310236D01*
X300000Y65303D02*
X302362D01*
X301181Y64122D02*
Y66484D01*
X299606Y62350D02*
Y68256D01*
X302756Y62350D02*
Y68256D01*
X299606Y62350D02*
X302756D01*
X299606Y68256D02*
X302756D01*
X295319Y84807D02*
X297681D01*
X296500Y83626D02*
Y85988D01*
X294925Y81854D02*
Y87760D01*
X298075Y81854D02*
Y87760D01*
X294925Y81854D02*
X298075D01*
X294925Y87760D02*
X298075D01*
X293081Y106573D02*
X303081D01*
X293081Y102773D02*
Y106573D01*
X303081Y102773D02*
Y106573D01*
X293081Y102773D02*
X303081D01*
X296900Y104673D02*
X299262D01*
X298081Y103492D02*
Y105854D01*
X300138Y107429D02*
Y109791D01*
X298957Y108610D02*
X301319D01*
X297185Y107035D02*
X303091D01*
X297185Y110185D02*
X303091D01*
Y107035D02*
Y110185D01*
X297185Y107035D02*
Y110185D01*
X300138Y111366D02*
Y113728D01*
X298957Y112547D02*
X301319D01*
X297185Y110972D02*
X303091D01*
X297185Y114122D02*
X303091D01*
Y110972D02*
Y114122D01*
X297185Y110972D02*
Y114122D01*
X66929Y81496D02*
Y83858D01*
X65748Y82677D02*
X68110D01*
X63976Y81102D02*
X69882D01*
X63976Y84252D02*
X69882D01*
Y81102D02*
Y84252D01*
X63976Y81102D02*
Y84252D01*
X43307Y73622D02*
Y75984D01*
X42126Y74803D02*
X44488D01*
X40354Y73228D02*
X46260D01*
X40354Y76378D02*
X46260D01*
Y73228D02*
Y76378D01*
X40354Y73228D02*
Y76378D01*
X43307Y81496D02*
Y83858D01*
X42126Y82677D02*
X44488D01*
X40354Y84252D02*
X46260D01*
X40354Y81102D02*
X46260D01*
X40354D02*
Y84252D01*
X46260Y81102D02*
Y84252D01*
X-1181Y80787D02*
X1181D01*
X0Y79606D02*
Y81968D01*
X-1575Y77835D02*
Y83740D01*
X1575Y77835D02*
Y83740D01*
X-1575Y77835D02*
X1575D01*
X-1575Y83740D02*
X1575D01*
X26378Y80148D02*
X28740D01*
X27559Y78966D02*
Y81329D01*
X29134Y77195D02*
Y83100D01*
X25984Y77195D02*
Y83100D01*
X29134D01*
X25984Y77195D02*
X29134D01*
X30315Y80148D02*
X32677D01*
X31496Y78966D02*
Y81329D01*
X29921Y77195D02*
Y83100D01*
X33071Y77195D02*
Y83100D01*
X29921Y77195D02*
X33071D01*
X29921Y83100D02*
X33071D01*
X290158Y62224D02*
X292520D01*
X291339Y61043D02*
Y63406D01*
X292913Y59272D02*
Y65177D01*
X289764Y59272D02*
Y65177D01*
X292913D01*
X289764Y59272D02*
X292913D01*
X224370Y154134D02*
X226732D01*
X225551Y152953D02*
Y155315D01*
X223976Y151181D02*
Y157087D01*
X227126Y151181D02*
Y157087D01*
X223976Y151181D02*
X227126D01*
X223976Y157087D02*
X227126D01*
X213484Y154134D02*
X215846D01*
X214665Y152953D02*
Y155315D01*
X213090Y151181D02*
Y157087D01*
X216240Y151181D02*
Y157087D01*
X213090Y151181D02*
X216240D01*
X213090Y157087D02*
X216240D01*
X309244Y43118D02*
Y45480D01*
X308063Y44299D02*
X310425D01*
X306291Y42724D02*
X312197D01*
X306291Y45874D02*
X312197D01*
Y42724D02*
Y45874D01*
X306291Y42724D02*
Y45874D01*
X302468Y43118D02*
Y45480D01*
X301287Y44299D02*
X303650D01*
X299516Y42724D02*
X305421D01*
X299516Y45874D02*
X305421D01*
Y42724D02*
Y45874D01*
X299516Y42724D02*
Y45874D01*
X200787Y13583D02*
Y15945D01*
X199606Y14764D02*
X201969D01*
X197835Y16339D02*
X203740D01*
X197835Y13189D02*
X203740D01*
X197835D02*
Y16339D01*
X203740Y13189D02*
Y16339D01*
X200787Y9646D02*
Y12008D01*
X199606Y10827D02*
X201969D01*
X197835Y12402D02*
X203740D01*
X197835Y9252D02*
X203740D01*
X197835D02*
Y12402D01*
X203740Y9252D02*
Y12402D01*
X200787Y5709D02*
Y8071D01*
X199606Y6890D02*
X201969D01*
X197835Y8465D02*
X203740D01*
X197835Y5315D02*
X203740D01*
X197835D02*
Y8465D01*
X203740Y5315D02*
Y8465D01*
X178937Y24803D02*
X181299D01*
X180118Y23622D02*
Y25984D01*
X178543Y21850D02*
Y27756D01*
X181693Y21850D02*
Y27756D01*
X178543Y21850D02*
X181693D01*
X178543Y27756D02*
X181693D01*
X182874Y24803D02*
X185236D01*
X184055Y23622D02*
Y25984D01*
X182480Y21850D02*
Y27756D01*
X185630Y21850D02*
Y27756D01*
X182480Y21850D02*
X185630D01*
X182480Y27756D02*
X185630D01*
X180905Y-1969D02*
X183268D01*
X182087Y-3150D02*
Y-787D01*
X183661Y-4921D02*
Y984D01*
X180512Y-4921D02*
Y984D01*
X183661D01*
X180512Y-4921D02*
X183661D01*
X248031Y17520D02*
Y19882D01*
X246850Y18701D02*
X249213D01*
X245079Y20276D02*
X250984D01*
X245079Y17126D02*
X250984D01*
X245079D02*
Y20276D01*
X250984Y17126D02*
Y20276D01*
X248031Y13583D02*
Y15945D01*
X246850Y14764D02*
X249213D01*
X245079Y16339D02*
X250984D01*
X245079Y13189D02*
X250984D01*
X245079D02*
Y16339D01*
X250984Y13189D02*
Y16339D01*
X248031Y9646D02*
Y12008D01*
X246850Y10827D02*
X249213D01*
X245079Y12402D02*
X250984D01*
X245079Y9252D02*
X250984D01*
X245079D02*
Y12402D01*
X250984Y9252D02*
Y12402D01*
X226181Y24803D02*
X228543D01*
X227362Y23622D02*
Y25984D01*
X225787Y21850D02*
Y27756D01*
X228937Y21850D02*
Y27756D01*
X225787Y21850D02*
X228937D01*
X225787Y27756D02*
X228937D01*
X230118Y24803D02*
X232480D01*
X231299Y23622D02*
Y25984D01*
X229724Y21850D02*
Y27756D01*
X232874Y21850D02*
Y27756D01*
X229724Y21850D02*
X232874D01*
X229724Y27756D02*
X232874D01*
X234055Y24803D02*
X236417D01*
X235236Y23622D02*
Y25984D01*
X233661Y21850D02*
Y27756D01*
X236811Y21850D02*
Y27756D01*
X233661Y21850D02*
X236811D01*
X233661Y27756D02*
X236811D01*
X226181Y-1969D02*
X228543D01*
X227362Y-3150D02*
Y-787D01*
X228937Y-4921D02*
Y984D01*
X225787Y-4921D02*
Y984D01*
X228937D01*
X225787Y-4921D02*
X228937D01*
X230118Y-1969D02*
X232480D01*
X231299Y-3150D02*
Y-787D01*
X232874Y-4921D02*
Y984D01*
X229724Y-4921D02*
Y984D01*
X232874D01*
X229724Y-4921D02*
X232874D01*
X234055Y-1969D02*
X236417D01*
X235236Y-3150D02*
Y-787D01*
X236811Y-4921D02*
Y984D01*
X233661Y-4921D02*
Y984D01*
X236811D01*
X233661Y-4921D02*
X236811D01*
X295276Y13583D02*
Y15945D01*
X294094Y14764D02*
X296457D01*
X292323Y16339D02*
X298228D01*
X292323Y13189D02*
X298228D01*
X292323D02*
Y16339D01*
X298228Y13189D02*
Y16339D01*
X295276Y9646D02*
Y12008D01*
X294094Y10827D02*
X296457D01*
X292323Y12402D02*
X298228D01*
X292323Y9252D02*
X298228D01*
X292323D02*
Y12402D01*
X298228Y9252D02*
Y12402D01*
X295276Y5709D02*
Y8071D01*
X294094Y6890D02*
X296457D01*
X292323Y8465D02*
X298228D01*
X292323Y5315D02*
X298228D01*
X292323D02*
Y8465D01*
X298228Y5315D02*
Y8465D01*
X271457Y24803D02*
X273819D01*
X272638Y23622D02*
Y25984D01*
X271063Y21850D02*
Y27756D01*
X274213Y21850D02*
Y27756D01*
X271063Y21850D02*
X274213D01*
X271063Y27756D02*
X274213D01*
X275394Y24803D02*
X277756D01*
X276575Y23622D02*
Y25984D01*
X275000Y21850D02*
Y27756D01*
X278150Y21850D02*
Y27756D01*
X275000Y21850D02*
X278150D01*
X275000Y27756D02*
X278150D01*
X279331Y24803D02*
X281693D01*
X280512Y23622D02*
Y25984D01*
X278937Y21850D02*
Y27756D01*
X282087Y21850D02*
Y27756D01*
X278937Y21850D02*
X282087D01*
X278937Y27756D02*
X282087D01*
X283268Y24803D02*
X285630D01*
X284449Y23622D02*
Y25984D01*
X282874Y21850D02*
Y27756D01*
X286024Y21850D02*
Y27756D01*
X282874Y21850D02*
X286024D01*
X282874Y27756D02*
X286024D01*
X271457Y-1969D02*
X273819D01*
X272638Y-3150D02*
Y-787D01*
X274213Y-4921D02*
Y984D01*
X271063Y-4921D02*
Y984D01*
X274213D01*
X271063Y-4921D02*
X274213D01*
X275394Y-1969D02*
X277756D01*
X276575Y-3150D02*
Y-787D01*
X278150Y-4921D02*
Y984D01*
X275000Y-4921D02*
Y984D01*
X278150D01*
X275000Y-4921D02*
X278150D01*
X279331Y-1969D02*
X281693D01*
X280512Y-3150D02*
Y-787D01*
X282087Y-4921D02*
Y984D01*
X278937Y-4921D02*
Y984D01*
X282087D01*
X278937Y-4921D02*
X282087D01*
X283268Y-1969D02*
X285630D01*
X284449Y-3150D02*
Y-787D01*
X286024Y-4921D02*
Y984D01*
X282874Y-4921D02*
Y984D01*
X286024D01*
X282874Y-4921D02*
X286024D01*
X141732Y112992D02*
Y115354D01*
X140551Y114173D02*
X142913D01*
X138779Y112598D02*
X144685D01*
X138779Y115748D02*
X144685D01*
Y112598D02*
Y115748D01*
X138779Y112598D02*
Y115748D01*
X141732Y128740D02*
Y131102D01*
X140551Y129921D02*
X142913D01*
X138779Y131496D02*
X144685D01*
X138779Y128347D02*
X144685D01*
X138779D02*
Y131496D01*
X144685Y128347D02*
Y131496D01*
X125984Y132677D02*
Y135039D01*
X124803Y133858D02*
X127165D01*
X123031Y135433D02*
X128937D01*
X123031Y132283D02*
X128937D01*
X123031D02*
Y135433D01*
X128937Y132283D02*
Y135433D01*
X110236Y112992D02*
Y115354D01*
X109055Y114173D02*
X111417D01*
X107283Y112598D02*
X113189D01*
X107283Y115748D02*
X113189D01*
Y112598D02*
Y115748D01*
X107283Y112598D02*
Y115748D01*
X110236Y132677D02*
Y135039D01*
X109055Y133858D02*
X111417D01*
X107283Y135433D02*
X113189D01*
X107283Y132283D02*
X113189D01*
X107283D02*
Y135433D01*
X113189Y132283D02*
Y135433D01*
X94488Y112992D02*
Y115354D01*
X93307Y114173D02*
X95669D01*
X91535Y112598D02*
X97441D01*
X91535Y115748D02*
X97441D01*
Y112598D02*
Y115748D01*
X91535Y112598D02*
Y115748D01*
X94488Y132677D02*
Y135039D01*
X93307Y133858D02*
X95669D01*
X91535Y135433D02*
X97441D01*
X91535Y132283D02*
X97441D01*
X91535D02*
Y135433D01*
X97441Y132283D02*
Y135433D01*
X112992Y19685D02*
X115354D01*
X114173Y18504D02*
Y20866D01*
X112598Y16732D02*
Y22638D01*
X115748Y16732D02*
Y22638D01*
X112598Y16732D02*
X115748D01*
X112598Y22638D02*
X115748D01*
X116929Y19685D02*
X119291D01*
X118110Y18504D02*
Y20866D01*
X116535Y16732D02*
Y22638D01*
X119685Y16732D02*
Y22638D01*
X116535Y16732D02*
X119685D01*
X116535Y22638D02*
X119685D01*
X141732Y16535D02*
Y18898D01*
X140551Y17717D02*
X142913D01*
X138779Y19291D02*
X144685D01*
X138779Y16142D02*
X144685D01*
X138779D02*
Y19291D01*
X144685Y16142D02*
Y19291D01*
X109055Y19685D02*
X111417D01*
X110236Y18504D02*
Y20866D01*
X111811Y16732D02*
Y22638D01*
X108661Y16732D02*
Y22638D01*
X111811D01*
X108661Y16732D02*
X111811D01*
X105118Y19685D02*
X107480D01*
X106299Y18504D02*
Y20866D01*
X104724Y16732D02*
Y22638D01*
X107874Y16732D02*
Y22638D01*
X104724Y16732D02*
X107874D01*
X104724Y22638D02*
X107874D01*
X110236Y97244D02*
Y99606D01*
X109055Y98425D02*
X111417D01*
X107283Y100000D02*
X113189D01*
X107283Y96850D02*
X113189D01*
X107283D02*
Y100000D01*
X113189Y96850D02*
Y100000D01*
X110236Y81496D02*
Y83858D01*
X109055Y82677D02*
X111417D01*
X107283Y84252D02*
X113189D01*
X107283Y81102D02*
X113189D01*
X107283D02*
Y84252D01*
X113189Y81102D02*
Y84252D01*
X132677Y80709D02*
X135039D01*
X133858Y79528D02*
Y81890D01*
X132283Y77756D02*
Y83661D01*
X135433Y77756D02*
Y83661D01*
X132283Y77756D02*
X135433D01*
X132283Y83661D02*
X135433D01*
X125984Y97244D02*
Y99606D01*
X124803Y98425D02*
X127165D01*
X123031Y100000D02*
X128937D01*
X123031Y96850D02*
X128937D01*
X123031D02*
Y100000D01*
X128937Y96850D02*
Y100000D01*
X125984Y81496D02*
Y83858D01*
X124803Y82677D02*
X127165D01*
X123031Y84252D02*
X128937D01*
X123031Y81102D02*
X128937D01*
X123031D02*
Y84252D01*
X128937Y81102D02*
Y84252D01*
X94488Y97244D02*
Y99606D01*
X93307Y98425D02*
X95669D01*
X91535Y100000D02*
X97441D01*
X91535Y96850D02*
X97441D01*
X91535D02*
Y100000D01*
X97441Y96850D02*
Y100000D01*
X94488Y81496D02*
Y83858D01*
X93307Y82677D02*
X95669D01*
X91535Y84252D02*
X97441D01*
X91535Y81102D02*
X97441D01*
X91535D02*
Y84252D01*
X97441Y81102D02*
Y84252D01*
X98425Y32283D02*
Y34646D01*
X97244Y33465D02*
X99606D01*
X95472Y35039D02*
X101378D01*
X95472Y31890D02*
X101378D01*
X95472D02*
Y35039D01*
X101378Y31890D02*
Y35039D01*
X146632Y91188D02*
Y97788D01*
X136832D02*
X146632D01*
X136832Y91188D02*
Y97788D01*
Y91188D02*
X146632D01*
X140551Y94588D02*
X142913D01*
X141732Y93407D02*
Y95769D01*
X309380Y91799D02*
Y101799D01*
X305580D02*
X309380D01*
X305580Y91799D02*
X309380D01*
X305580D02*
Y101799D01*
X307480Y95618D02*
Y97980D01*
X306299Y96799D02*
X308661D01*
X229370Y154134D02*
X231732D01*
X230551Y152953D02*
Y155315D01*
X228976Y151181D02*
Y157087D01*
X232126Y151181D02*
Y157087D01*
X228976Y151181D02*
X232126D01*
X228976Y157087D02*
X232126D01*
X311744Y47075D02*
Y53075D01*
X306744D02*
X311744D01*
X306744Y47075D02*
Y53075D01*
Y47075D02*
X311744D01*
X308063Y50075D02*
X310425D01*
X309244Y48894D02*
Y51256D01*
X304969Y47075D02*
Y53075D01*
X299969D02*
X304969D01*
X299969Y47075D02*
Y53075D01*
Y47075D02*
X304969D01*
X301287Y50075D02*
X303650D01*
X302468Y48894D02*
Y51256D01*
X144232Y121016D02*
Y127016D01*
X139232D02*
X144232D01*
X139232Y121016D02*
Y127016D01*
Y121016D02*
X144232D01*
X140551Y124016D02*
X142913D01*
X141732Y122835D02*
Y125197D01*
X128484Y121016D02*
Y127016D01*
X123484D02*
X128484D01*
X123484Y121016D02*
Y127016D01*
Y121016D02*
X128484D01*
X124803Y124016D02*
X127165D01*
X125984Y122835D02*
Y125197D01*
X112736Y121016D02*
Y127016D01*
X107736D02*
X112736D01*
X107736Y121016D02*
Y127016D01*
Y121016D02*
X112736D01*
X109055Y124016D02*
X111417D01*
X110236Y122835D02*
Y125197D01*
X96988Y121016D02*
Y127016D01*
X91988D02*
X96988D01*
X91988Y121016D02*
Y127016D01*
Y121016D02*
X96988D01*
X93307Y124016D02*
X95669D01*
X94488Y122835D02*
Y125197D01*
X107736Y85583D02*
Y91583D01*
Y85583D02*
X112736D01*
Y91583D01*
X107736D02*
X112736D01*
X109055Y88583D02*
X111417D01*
X110236Y87402D02*
Y89764D01*
X123484Y85583D02*
Y91583D01*
Y85583D02*
X128484D01*
Y91583D01*
X123484D02*
X128484D01*
X124803Y88583D02*
X127165D01*
X125984Y87402D02*
Y89764D01*
X91988Y85583D02*
Y91583D01*
Y85583D02*
X96988D01*
Y91583D01*
X91988D02*
X96988D01*
X93307Y88583D02*
X95669D01*
X94488Y87402D02*
Y89764D01*
X57087Y125630D02*
Y127992D01*
X55905Y126811D02*
X58268D01*
X54134Y128386D02*
X60039D01*
X54134Y125236D02*
X60039D01*
X54134D02*
Y128386D01*
X60039Y125236D02*
Y128386D01*
X57087Y129016D02*
Y131378D01*
X55905Y130197D02*
X58268D01*
X54134Y131772D02*
X60039D01*
X54134Y128622D02*
X60039D01*
X54134D02*
Y131772D01*
X60039Y128622D02*
Y131772D01*
X57087Y132402D02*
Y134764D01*
X55905Y133583D02*
X58268D01*
X54134Y132008D02*
X60039D01*
X54134Y135158D02*
X60039D01*
Y132008D02*
Y135158D01*
X54134Y132008D02*
Y135158D01*
X57087Y46890D02*
Y49252D01*
X55905Y48071D02*
X58268D01*
X54134Y49646D02*
X60039D01*
X54134Y46496D02*
X60039D01*
X54134D02*
Y49646D01*
X60039Y46496D02*
Y49646D01*
X57087Y50276D02*
Y52638D01*
X55905Y51457D02*
X58268D01*
X54134Y53031D02*
X60039D01*
X54134Y49882D02*
X60039D01*
X54134D02*
Y53031D01*
X60039Y49882D02*
Y53031D01*
X57087Y26102D02*
Y28465D01*
X55905Y27283D02*
X58268D01*
X54134Y25709D02*
X60039D01*
X54134Y28858D02*
X60039D01*
Y25709D02*
Y28858D01*
X54134Y25709D02*
Y28858D01*
X57087Y53661D02*
Y56024D01*
X55905Y54843D02*
X58268D01*
X54134Y53268D02*
X60039D01*
X54134Y56417D02*
X60039D01*
Y53268D02*
Y56417D01*
X54134Y53268D02*
Y56417D01*
X302874Y85319D02*
Y87681D01*
X301693Y86500D02*
X304055D01*
X299921Y84925D02*
X305827D01*
X299921Y88075D02*
X305827D01*
Y84925D02*
Y88075D01*
X299921Y84925D02*
Y88075D01*
X303740Y65303D02*
X306102D01*
X304921Y64122D02*
Y66484D01*
X306496Y62350D02*
Y68256D01*
X303346Y62350D02*
Y68256D01*
X306496D01*
X303346Y62350D02*
X306496D01*
X66929Y77559D02*
Y79921D01*
X65748Y78740D02*
X68110D01*
X63976Y80315D02*
X69882D01*
X63976Y77165D02*
X69882D01*
X63976D02*
Y80315D01*
X69882Y77165D02*
Y80315D01*
X43307Y77559D02*
Y79921D01*
X42126Y78740D02*
X44488D01*
X40354Y77165D02*
X46260D01*
X40354Y80315D02*
X46260D01*
Y77165D02*
Y80315D01*
X40354Y77165D02*
Y80315D01*
X171653Y112264D02*
X174803D01*
X171653Y118169D02*
X174803D01*
X171653Y112264D02*
Y118169D01*
X174803Y112264D02*
Y118169D01*
X173228Y114035D02*
Y116398D01*
X172047Y115217D02*
X174409D01*
X171653Y48484D02*
X174803D01*
X171653Y54390D02*
X174803D01*
X171653Y48484D02*
Y54390D01*
X174803Y48484D02*
Y54390D01*
X173228Y50256D02*
Y52618D01*
X172047Y51437D02*
X174409D01*
X219858Y150713D02*
Y153075D01*
X218677Y151894D02*
X221039D01*
X216905Y150319D02*
X222811D01*
X216905Y153469D02*
X222811D01*
Y150319D02*
Y153469D01*
X216905Y150319D02*
Y153469D01*
X309244Y35244D02*
Y37606D01*
X308063Y36425D02*
X310425D01*
X306291Y34850D02*
X312197D01*
X306291Y38000D02*
X312197D01*
Y34850D02*
Y38000D01*
X306291Y34850D02*
Y38000D01*
X302468Y35244D02*
Y37606D01*
X301287Y36425D02*
X303650D01*
X299516Y34850D02*
X305421D01*
X299516Y38000D02*
X305421D01*
Y34850D02*
Y38000D01*
X299516Y34850D02*
Y38000D01*
X309244Y39181D02*
Y41543D01*
X308063Y40362D02*
X310425D01*
X306291Y41937D02*
X312197D01*
X306291Y38787D02*
X312197D01*
X306291D02*
Y41937D01*
X312197Y38787D02*
Y41937D01*
X302468Y39181D02*
Y41543D01*
X301287Y40362D02*
X303650D01*
X299516Y41937D02*
X305421D01*
X299516Y38787D02*
X305421D01*
X299516D02*
Y41937D01*
X305421Y38787D02*
Y41937D01*
X200787Y17520D02*
Y19882D01*
X199606Y18701D02*
X201969D01*
X197835Y17126D02*
X203740D01*
X197835Y20276D02*
X203740D01*
Y17126D02*
Y20276D01*
X197835Y17126D02*
Y20276D01*
X248031Y5709D02*
Y8071D01*
X246850Y6890D02*
X249213D01*
X245079Y5315D02*
X250984D01*
X245079Y8465D02*
X250984D01*
Y5315D02*
Y8465D01*
X245079Y5315D02*
Y8465D01*
X237992Y24803D02*
X240354D01*
X239173Y23622D02*
Y25984D01*
X240748Y21850D02*
Y27756D01*
X237598Y21850D02*
Y27756D01*
X240748D01*
X237598Y21850D02*
X240748D01*
X287205Y24803D02*
X289567D01*
X288386Y23622D02*
Y25984D01*
X289961Y21850D02*
Y27756D01*
X286811Y21850D02*
Y27756D01*
X289961D01*
X286811Y21850D02*
X289961D01*
X295276Y17520D02*
Y19882D01*
X294094Y18701D02*
X296457D01*
X292323Y17126D02*
X298228D01*
X292323Y20276D02*
X298228D01*
Y17126D02*
Y20276D01*
X292323Y17126D02*
Y20276D01*
X141732Y116929D02*
Y119291D01*
X140551Y118110D02*
X142913D01*
X138779Y116535D02*
X144685D01*
X138779Y119685D02*
X144685D01*
Y116535D02*
Y119685D01*
X138779Y116535D02*
Y119685D01*
X141732Y109055D02*
Y111417D01*
X140551Y110236D02*
X142913D01*
X138779Y108661D02*
X144685D01*
X138779Y111811D02*
X144685D01*
Y108661D02*
Y111811D01*
X138779Y108661D02*
Y111811D01*
X125984Y128740D02*
Y131102D01*
X124803Y129921D02*
X127165D01*
X123031Y128347D02*
X128937D01*
X123031Y131496D02*
X128937D01*
Y128347D02*
Y131496D01*
X123031Y128347D02*
Y131496D01*
X110236Y128740D02*
Y131102D01*
X109055Y129921D02*
X111417D01*
X107283Y128347D02*
X113189D01*
X107283Y131496D02*
X113189D01*
Y128347D02*
Y131496D01*
X107283Y128347D02*
Y131496D01*
X110236Y109055D02*
Y111417D01*
X109055Y110236D02*
X111417D01*
X107283Y111811D02*
X113189D01*
X107283Y108661D02*
X113189D01*
X107283D02*
Y111811D01*
X113189Y108661D02*
Y111811D01*
X94488Y109055D02*
Y111417D01*
X93307Y110236D02*
X95669D01*
X91535Y111811D02*
X97441D01*
X91535Y108661D02*
X97441D01*
X91535D02*
Y111811D01*
X97441Y108661D02*
Y111811D01*
X141732Y20472D02*
Y22835D01*
X140551Y21654D02*
X142913D01*
X138779Y23228D02*
X144685D01*
X138779Y20079D02*
X144685D01*
X138779D02*
Y23228D01*
X144685Y20079D02*
Y23228D01*
X110236Y77559D02*
Y79921D01*
X109055Y78740D02*
X111417D01*
X107283Y80315D02*
X113189D01*
X107283Y77165D02*
X113189D01*
X107283D02*
Y80315D01*
X113189Y77165D02*
Y80315D01*
X110236Y93307D02*
Y95669D01*
X109055Y94488D02*
X111417D01*
X107283Y92913D02*
X113189D01*
X107283Y96063D02*
X113189D01*
Y92913D02*
Y96063D01*
X107283Y92913D02*
Y96063D01*
X125984Y77559D02*
Y79921D01*
X124803Y78740D02*
X127165D01*
X123031Y80315D02*
X128937D01*
X123031Y77165D02*
X128937D01*
X123031D02*
Y80315D01*
X128937Y77165D02*
Y80315D01*
X125984Y93307D02*
Y95669D01*
X124803Y94488D02*
X127165D01*
X123031Y92913D02*
X128937D01*
X123031Y96063D02*
X128937D01*
Y92913D02*
Y96063D01*
X123031Y92913D02*
Y96063D01*
X94488Y77559D02*
Y79921D01*
X93307Y78740D02*
X95669D01*
X91535Y80315D02*
X97441D01*
X91535Y77165D02*
X97441D01*
X91535D02*
Y80315D01*
X97441Y77165D02*
Y80315D01*
X94488Y93307D02*
Y95669D01*
X93307Y94488D02*
X95669D01*
X91535Y92913D02*
X97441D01*
X91535Y96063D02*
X97441D01*
Y92913D02*
Y96063D01*
X91535Y92913D02*
Y96063D01*
X98425Y55905D02*
Y58268D01*
X97244Y57087D02*
X99606D01*
X95472Y55512D02*
X101378D01*
X95472Y58661D02*
X101378D01*
Y55512D02*
Y58661D01*
X95472Y55512D02*
Y58661D01*
X98425Y36220D02*
Y38583D01*
X97244Y37402D02*
X99606D01*
X95472Y38976D02*
X101378D01*
X95472Y35827D02*
X101378D01*
X95472D02*
Y38976D01*
X101378Y35827D02*
Y38976D01*
X298921Y70614D02*
X310921D01*
Y83514D01*
X298921D02*
X310921D01*
X298921Y70614D02*
Y83514D01*
X304921Y75933D02*
Y78295D01*
X303740Y77114D02*
X306102D01*
X48618Y72740D02*
Y84740D01*
Y72740D02*
X61518D01*
Y84740D01*
X48618D02*
X61518D01*
X53937Y78740D02*
X56299D01*
X55118Y77559D02*
Y79921D01*
X11811Y77559D02*
Y79921D01*
X10630Y78740D02*
X12992D01*
X4811Y84740D02*
X18811D01*
Y72740D02*
Y84740D01*
X4811Y72740D02*
X18811D01*
X4811D02*
Y84740D01*
X185039Y10730D02*
Y13092D01*
X183858Y11911D02*
X186221D01*
X175139Y2911D02*
X194939D01*
X175139D02*
Y20711D01*
X194939D01*
Y2911D02*
Y20711D01*
X232283Y10730D02*
Y13092D01*
X231102Y11911D02*
X233465D01*
X222383Y2911D02*
X242183D01*
X222383D02*
Y20711D01*
X242183D01*
Y2911D02*
Y20711D01*
X94488Y128740D02*
Y131102D01*
X93307Y129921D02*
X95669D01*
X91535Y128347D02*
X97441D01*
X91535Y131496D02*
X97441D01*
Y128347D02*
Y131496D01*
X91535Y128347D02*
Y131496D01*
X125984Y116929D02*
Y119291D01*
X124803Y118110D02*
X127165D01*
X123031Y116535D02*
X128937D01*
X123031Y119685D02*
X128937D01*
Y116535D02*
Y119685D01*
X123031Y116535D02*
Y119685D01*
X110236Y116929D02*
Y119291D01*
X109055Y118110D02*
X111417D01*
X107283Y116535D02*
X113189D01*
X107283Y119685D02*
X113189D01*
Y116535D02*
Y119685D01*
X107283Y116535D02*
Y119685D01*
M02*
