G04*
G04 #@! TF.GenerationSoftware,Altium Limited,Altium Designer,20.0.13 (296)*
G04*
G04 Layer_Physical_Order=6*
G04 Layer_Color=16711680*
%FSLAX24Y24*%
%MOIN*%
G70*
G01*
G75*
%ADD11C,0.0079*%
%ADD13C,0.0157*%
%ADD19R,0.0185X0.0205*%
%ADD20R,0.0205X0.0185*%
%ADD24R,0.0315X0.0197*%
%ADD26R,0.0157X0.0157*%
%ADD27R,0.0157X0.0157*%
%ADD35R,0.0197X0.0315*%
%ADD62C,0.0295*%
%ADD65C,0.1969*%
%ADD66C,0.0197*%
%ADD67R,0.0236X0.0157*%
%ADD68R,0.1654X0.1339*%
%ADD69R,0.0571X0.0787*%
%ADD70R,0.0315X0.0591*%
%ADD71R,0.0197X0.0236*%
%ADD72R,0.0276X0.0197*%
%ADD73C,0.0394*%
%ADD74R,0.0610X0.0236*%
%ADD75R,0.0394X0.0177*%
%ADD76R,0.0709X0.0551*%
%ADD77R,0.0512X0.0197*%
%ADD78R,0.0197X0.0512*%
%ADD79R,0.0118X0.0394*%
%ADD80R,0.0394X0.0118*%
%ADD81R,0.1098X0.0291*%
G36*
X31567Y16829D02*
X31707Y16810D01*
X31844Y16774D01*
X31975Y16719D01*
X32098Y16649D01*
X32210Y16562D01*
X32310Y16462D01*
X32397Y16350D01*
X32467Y16227D01*
X32522Y16096D01*
X32558Y15959D01*
X32577Y15819D01*
Y15748D01*
Y0D01*
Y-71D01*
X32558Y-211D01*
X32522Y-348D01*
X32467Y-479D01*
X32397Y-602D01*
X32310Y-714D01*
X32210Y-814D01*
X32098Y-901D01*
X31975Y-971D01*
X31844Y-1026D01*
X31707Y-1062D01*
X31567Y-1081D01*
X31496D01*
X-0Y-1081D01*
X-71D01*
X-211Y-1062D01*
X-348Y-1026D01*
X-479Y-971D01*
X-602Y-901D01*
X-714Y-814D01*
X-814Y-714D01*
X-901Y-602D01*
X-971Y-479D01*
X-1026Y-348D01*
X-1062Y-211D01*
X-1081Y-71D01*
Y-0D01*
Y15748D01*
Y15819D01*
X-1062Y15959D01*
X-1026Y16096D01*
X-971Y16227D01*
X-901Y16350D01*
X-814Y16462D01*
X-714Y16562D01*
X-602Y16649D01*
X-479Y16719D01*
X-348Y16774D01*
X-211Y16810D01*
X-71Y16829D01*
X0Y16829D01*
X31496D01*
X31567Y16829D01*
D02*
G37*
%LPC*%
G36*
X12896Y16049D02*
X12612D01*
Y15998D01*
X12030D01*
Y16049D01*
X11746D01*
Y15899D01*
X11646Y15799D01*
X11596Y15820D01*
Y15878D01*
X11455D01*
X11313D01*
Y15820D01*
X11263Y15799D01*
X11163Y15899D01*
Y16049D01*
X10880D01*
Y15998D01*
X10730D01*
Y16049D01*
X10447D01*
Y15785D01*
X10730D01*
Y15837D01*
X10880D01*
Y15785D01*
X11042D01*
X11063Y15759D01*
X11041Y15711D01*
X10880D01*
Y15472D01*
X10830Y15451D01*
X10730Y15551D01*
Y15711D01*
X10447D01*
Y15447D01*
X10607D01*
X11024Y15030D01*
X11024Y15030D01*
X11050Y15012D01*
X11081Y15006D01*
X11328D01*
X11445Y14889D01*
Y12100D01*
X11424Y12078D01*
X10827D01*
X10827Y12078D01*
X10796Y12072D01*
X10770Y12055D01*
X10770Y12055D01*
X10532Y11817D01*
X10514Y11791D01*
X10508Y11760D01*
Y11555D01*
X10402D01*
X10392Y11555D01*
X10352D01*
X10342Y11555D01*
X9959D01*
Y10886D01*
X10342D01*
X10352Y10886D01*
X10392D01*
X10402Y10886D01*
X10508D01*
Y10762D01*
X10489Y10749D01*
X10459Y10704D01*
X10448Y10650D01*
X10459Y10596D01*
X10489Y10551D01*
X10535Y10520D01*
X10589Y10510D01*
X10642Y10520D01*
X10688Y10551D01*
X10718Y10596D01*
X10729Y10650D01*
X10718Y10704D01*
X10688Y10749D01*
X10669Y10762D01*
Y10886D01*
X10785D01*
Y10886D01*
X10825D01*
Y10886D01*
X10941D01*
Y10762D01*
X10922Y10749D01*
X10892Y10704D01*
X10881Y10650D01*
X10892Y10596D01*
X10922Y10551D01*
X10968Y10520D01*
X11022Y10510D01*
X11075Y10520D01*
X11121Y10551D01*
X11151Y10596D01*
X11162Y10650D01*
X11151Y10704D01*
X11121Y10749D01*
X11102Y10762D01*
Y10886D01*
X11219D01*
Y10886D01*
X11258D01*
Y10886D01*
X11374D01*
Y10762D01*
X11355Y10749D01*
X11325Y10704D01*
X11314Y10650D01*
X11325Y10596D01*
X11355Y10551D01*
X11401Y10520D01*
X11455Y10510D01*
X11508Y10520D01*
X11554Y10551D01*
X11585Y10596D01*
X11595Y10650D01*
X11585Y10704D01*
X11554Y10749D01*
X11535Y10762D01*
Y10886D01*
X11652D01*
Y10886D01*
X11691D01*
Y10886D01*
X11800D01*
Y10770D01*
X11781Y10757D01*
X11750Y10712D01*
X11739Y10658D01*
X11750Y10604D01*
X11781Y10559D01*
X11826Y10528D01*
X11880Y10517D01*
X11934Y10528D01*
X11979Y10559D01*
X12010Y10604D01*
X12020Y10658D01*
X12010Y10712D01*
X11979Y10757D01*
X11960Y10770D01*
Y10886D01*
X12074D01*
X12085Y10886D01*
X12124D01*
X12135Y10886D01*
X12282D01*
Y11220D01*
X12360D01*
Y10886D01*
X12507D01*
X12518Y10886D01*
X12557D01*
X12568Y10886D01*
X12674D01*
Y10762D01*
X12655Y10749D01*
X12624Y10704D01*
X12613Y10650D01*
X12624Y10596D01*
X12655Y10551D01*
X12700Y10520D01*
X12754Y10510D01*
X12808Y10520D01*
X12853Y10551D01*
X12884Y10596D01*
X12894Y10650D01*
X12884Y10704D01*
X12853Y10749D01*
X12834Y10762D01*
Y10886D01*
X12940D01*
X12951Y10886D01*
X12990D01*
X13001Y10886D01*
X13384D01*
Y11555D01*
X13001D01*
X12990Y11555D01*
X12951D01*
X12940Y11555D01*
X12834D01*
Y11813D01*
X12834Y11813D01*
X12828Y11844D01*
X12811Y11870D01*
X12811Y11870D01*
X12695Y11986D01*
X12669Y12003D01*
X12638Y12009D01*
X12159D01*
X12078Y12090D01*
Y14514D01*
X12811Y15246D01*
X12828Y15272D01*
X12834Y15303D01*
Y15447D01*
X12896D01*
Y15711D01*
X12612D01*
Y15447D01*
X12674D01*
Y15336D01*
X12006Y14669D01*
X11960Y14688D01*
Y15447D01*
X12030D01*
Y15711D01*
X11868D01*
X11847Y15759D01*
X11868Y15785D01*
X12030D01*
Y15837D01*
X12612D01*
Y15785D01*
X12896D01*
Y16049D01*
D02*
G37*
G36*
X17959Y16059D02*
X17695D01*
Y15998D01*
X17334D01*
X17334Y15998D01*
X17304Y15991D01*
X17278Y15974D01*
X17199Y15895D01*
X16465D01*
Y16012D01*
X16189D01*
X16189Y15644D01*
X16144Y15618D01*
X16114Y15632D01*
X16111Y15650D01*
Y16012D01*
X15835D01*
Y15960D01*
X15746D01*
X15733Y15979D01*
X15688Y16010D01*
X15634Y16020D01*
X15580Y16010D01*
X15546Y15987D01*
X15507Y16001D01*
X15496Y16009D01*
Y16012D01*
X15213D01*
Y15748D01*
X15496D01*
Y15751D01*
X15507Y15759D01*
X15546Y15773D01*
X15580Y15750D01*
X15634Y15739D01*
X15688Y15750D01*
X15733Y15781D01*
X15746Y15800D01*
X15835D01*
Y15618D01*
X16036D01*
X16045Y15605D01*
X16055Y15568D01*
X15955Y15468D01*
X15938Y15442D01*
X15932Y15411D01*
Y15382D01*
X15835D01*
Y14988D01*
X16111D01*
Y15382D01*
X16111Y15382D01*
X16111D01*
X16135Y15421D01*
X16154Y15440D01*
X17695D01*
Y15379D01*
X17959D01*
Y15662D01*
X17695D01*
Y15601D01*
X16508D01*
X16465Y15618D01*
X16465Y15651D01*
Y15735D01*
X17232D01*
X17263Y15741D01*
X17289Y15758D01*
X17368Y15837D01*
X17695D01*
Y15776D01*
X17959D01*
Y16059D01*
D02*
G37*
G36*
X11596Y16049D02*
X11494D01*
Y15957D01*
X11596D01*
Y16049D01*
D02*
G37*
G36*
X11415D02*
X11313D01*
Y15957D01*
X11415D01*
Y16049D01*
D02*
G37*
G36*
X15496Y15673D02*
X15394D01*
Y15581D01*
X15496D01*
Y15673D01*
D02*
G37*
G36*
X15315D02*
X15213D01*
Y15581D01*
X15315D01*
Y15673D01*
D02*
G37*
G36*
X18297Y16059D02*
X18033D01*
Y15776D01*
X18297D01*
Y15837D01*
X18420D01*
X18650Y15607D01*
Y15456D01*
X18604Y15437D01*
X18463Y15577D01*
X18437Y15595D01*
X18406Y15601D01*
X18297D01*
Y15662D01*
X18033D01*
Y15379D01*
X18297D01*
Y15440D01*
X18373D01*
X18532Y15282D01*
Y15121D01*
X18486Y15102D01*
X18407Y15181D01*
X18381Y15198D01*
X18350Y15204D01*
X18297D01*
Y15266D01*
X18033D01*
Y14982D01*
X18297D01*
Y14993D01*
X18347Y15014D01*
X18414Y14947D01*
Y14242D01*
X18420Y14211D01*
X18437Y14185D01*
X18693Y13929D01*
X18693Y13929D01*
X18719Y13912D01*
X18750Y13906D01*
X19146D01*
X19187Y13884D01*
X19187Y13856D01*
Y13781D01*
X19319D01*
X19451D01*
Y13871D01*
X19488Y13892D01*
X19526Y13871D01*
Y13600D01*
X19526Y13600D01*
X19526D01*
X19511Y13555D01*
X19493Y13537D01*
X19370D01*
Y13301D01*
X19606D01*
Y13424D01*
X19696Y13513D01*
X19696Y13513D01*
X19713Y13539D01*
X19719Y13570D01*
Y13600D01*
X19789D01*
Y13884D01*
X19772D01*
X19726Y13898D01*
X19720Y13928D01*
X19702Y13954D01*
X19679Y13978D01*
X19698Y14024D01*
X21079D01*
X21152Y13951D01*
Y13884D01*
X21100D01*
Y13600D01*
X21100Y13600D01*
X21100D01*
X21086Y13555D01*
X21068Y13537D01*
X20945D01*
Y13301D01*
X21181D01*
Y13424D01*
X21270Y13513D01*
X21270Y13513D01*
X21288Y13539D01*
X21294Y13570D01*
Y13600D01*
X21364D01*
Y13884D01*
X21313D01*
Y13984D01*
X21313Y13984D01*
X21306Y14015D01*
X21289Y14041D01*
X21234Y14096D01*
X21253Y14142D01*
X22614D01*
X22735Y14022D01*
Y13913D01*
X22675D01*
Y13630D01*
X22675Y13630D01*
X22675D01*
X22660Y13585D01*
X22642Y13567D01*
X22520D01*
Y13331D01*
X22756D01*
Y13453D01*
X22845Y13543D01*
X22845Y13543D01*
X22863Y13569D01*
X22869Y13600D01*
Y13630D01*
X22939D01*
Y13913D01*
X22895D01*
Y14055D01*
X22889Y14086D01*
X22872Y14112D01*
X22704Y14279D01*
X22678Y14297D01*
X22648Y14303D01*
X18881D01*
X18811Y14373D01*
Y15640D01*
X18811Y15640D01*
X18804Y15670D01*
X18787Y15697D01*
X18510Y15974D01*
X18483Y15991D01*
X18453Y15998D01*
X18297D01*
Y16059D01*
D02*
G37*
G36*
X15496Y15502D02*
X15394D01*
Y15409D01*
X15496D01*
Y15502D01*
D02*
G37*
G36*
X15315D02*
X15213D01*
Y15409D01*
X15315D01*
Y15502D01*
D02*
G37*
G36*
X29829Y15266D02*
X29736D01*
Y15163D01*
X29829D01*
Y15266D01*
D02*
G37*
G36*
X29657D02*
X29565D01*
Y15163D01*
X29657D01*
Y15266D01*
D02*
G37*
G36*
X3726Y15309D02*
X3176D01*
Y15163D01*
X3726D01*
Y15309D01*
D02*
G37*
G36*
X3098D02*
X2548D01*
Y15163D01*
X3098D01*
Y15309D01*
D02*
G37*
G36*
X27348D02*
X26798D01*
Y15163D01*
X27348D01*
Y15309D01*
D02*
G37*
G36*
X6207Y15266D02*
X6114D01*
Y15163D01*
X6207D01*
Y15266D01*
D02*
G37*
G36*
X6035D02*
X5943D01*
Y15163D01*
X6035D01*
Y15266D01*
D02*
G37*
G36*
X26720Y15309D02*
X26170D01*
Y15163D01*
X26720D01*
Y15309D01*
D02*
G37*
G36*
X29829Y15085D02*
X29736D01*
Y14982D01*
X29829D01*
Y15085D01*
D02*
G37*
G36*
X29657D02*
X29565D01*
Y14982D01*
X29657D01*
Y15085D01*
D02*
G37*
G36*
X28948Y15309D02*
X27770D01*
Y14939D01*
X28948D01*
Y14983D01*
X28998Y15010D01*
X29021Y14994D01*
X29075Y14984D01*
X29129Y14994D01*
X29174Y15025D01*
X29176Y15028D01*
X29226Y15013D01*
Y14982D01*
X29490D01*
Y15266D01*
X29226D01*
Y15235D01*
X29176Y15220D01*
X29174Y15223D01*
X29129Y15254D01*
X29075Y15265D01*
X29021Y15254D01*
X28998Y15238D01*
X28948Y15265D01*
Y15309D01*
D02*
G37*
G36*
X16465Y15382D02*
X16189D01*
Y14988D01*
X16465D01*
Y15044D01*
X17695D01*
Y14982D01*
X17959D01*
Y15266D01*
X17695D01*
Y15204D01*
X16465D01*
Y15382D01*
D02*
G37*
G36*
X6207Y15085D02*
X6114D01*
Y14982D01*
X6207D01*
Y15085D01*
D02*
G37*
G36*
X6035D02*
X5943D01*
Y14982D01*
X6035D01*
Y15085D01*
D02*
G37*
G36*
X5326Y15309D02*
X4148D01*
Y14939D01*
X5326D01*
Y14983D01*
X5376Y15010D01*
X5399Y14994D01*
X5453Y14984D01*
X5507Y14994D01*
X5552Y15025D01*
X5554Y15028D01*
X5604Y15013D01*
Y14982D01*
X5868D01*
Y15266D01*
X5604D01*
Y15235D01*
X5554Y15220D01*
X5552Y15223D01*
X5507Y15254D01*
X5453Y15265D01*
X5399Y15254D01*
X5376Y15238D01*
X5326Y15265D01*
Y15309D01*
D02*
G37*
G36*
X27348Y15085D02*
X26798D01*
Y14939D01*
X27348D01*
Y15085D01*
D02*
G37*
G36*
X26720D02*
X26170D01*
Y14939D01*
X26720D01*
Y15085D01*
D02*
G37*
G36*
X3726Y15085D02*
X3176D01*
Y14939D01*
X3726D01*
Y15085D01*
D02*
G37*
G36*
X3098D02*
X2548D01*
Y14939D01*
X3098D01*
Y15085D01*
D02*
G37*
G36*
X27348Y14809D02*
X26170D01*
Y14765D01*
X26120Y14738D01*
X26097Y14754D01*
X26043Y14765D01*
X25990Y14754D01*
X25944Y14723D01*
X25942Y14720D01*
X25892Y14735D01*
Y14766D01*
X25628D01*
Y14482D01*
X25892D01*
Y14513D01*
X25942Y14528D01*
X25944Y14525D01*
X25990Y14494D01*
X26043Y14484D01*
X26097Y14494D01*
X26120Y14510D01*
X26170Y14483D01*
Y14439D01*
X27348D01*
Y14809D01*
D02*
G37*
G36*
X3726D02*
X2548D01*
Y14765D01*
X2498Y14738D01*
X2475Y14754D01*
X2421Y14765D01*
X2367Y14754D01*
X2322Y14723D01*
X2320Y14720D01*
X2270Y14735D01*
Y14766D01*
X2006D01*
Y14482D01*
X2270D01*
Y14513D01*
X2320Y14528D01*
X2322Y14525D01*
X2367Y14494D01*
X2421Y14484D01*
X2475Y14494D01*
X2498Y14510D01*
X2548Y14483D01*
Y14439D01*
X3726D01*
Y14809D01*
D02*
G37*
G36*
X29829Y14766D02*
X29736D01*
Y14663D01*
X29829D01*
Y14766D01*
D02*
G37*
G36*
X29657D02*
X29565D01*
Y14663D01*
X29657D01*
Y14766D01*
D02*
G37*
G36*
X25553Y14766D02*
X25461D01*
Y14663D01*
X25553D01*
Y14766D01*
D02*
G37*
G36*
X1931D02*
X1839D01*
Y14663D01*
X1931D01*
Y14766D01*
D02*
G37*
G36*
X25382D02*
X25289D01*
Y14663D01*
X25382D01*
Y14766D01*
D02*
G37*
G36*
X1760D02*
X1667D01*
Y14663D01*
X1760D01*
Y14766D01*
D02*
G37*
G36*
X6207Y14766D02*
X6114D01*
Y14663D01*
X6207D01*
Y14766D01*
D02*
G37*
G36*
X6035D02*
X5943D01*
Y14663D01*
X6035D01*
Y14766D01*
D02*
G37*
G36*
X29829Y14585D02*
X29736D01*
Y14482D01*
X29829D01*
Y14585D01*
D02*
G37*
G36*
X29657D02*
X29565D01*
Y14482D01*
X29657D01*
Y14585D01*
D02*
G37*
G36*
X28948Y14809D02*
X27770D01*
Y14439D01*
X28948D01*
Y14483D01*
X28998Y14510D01*
X29021Y14494D01*
X29075Y14484D01*
X29129Y14494D01*
X29174Y14525D01*
X29176Y14528D01*
X29226Y14513D01*
Y14482D01*
X29490D01*
Y14766D01*
X29226D01*
Y14735D01*
X29176Y14720D01*
X29174Y14723D01*
X29129Y14754D01*
X29075Y14765D01*
X29021Y14754D01*
X28998Y14738D01*
X28948Y14765D01*
Y14809D01*
D02*
G37*
G36*
X6207Y14585D02*
X6114D01*
Y14482D01*
X6207D01*
Y14585D01*
D02*
G37*
G36*
X6035D02*
X5943D01*
Y14482D01*
X6035D01*
Y14585D01*
D02*
G37*
G36*
X5326Y14809D02*
X4148D01*
Y14439D01*
X5326D01*
Y14483D01*
X5376Y14510D01*
X5399Y14494D01*
X5453Y14484D01*
X5507Y14494D01*
X5552Y14525D01*
X5554Y14528D01*
X5604Y14513D01*
Y14482D01*
X5868D01*
Y14766D01*
X5604D01*
Y14735D01*
X5554Y14720D01*
X5552Y14723D01*
X5507Y14754D01*
X5453Y14765D01*
X5399Y14754D01*
X5376Y14738D01*
X5326Y14765D01*
Y14809D01*
D02*
G37*
G36*
X25553Y14585D02*
X25461D01*
Y14482D01*
X25553D01*
Y14585D01*
D02*
G37*
G36*
X25382D02*
X25289D01*
Y14482D01*
X25382D01*
Y14585D01*
D02*
G37*
G36*
X1931D02*
X1839D01*
Y14482D01*
X1931D01*
Y14585D01*
D02*
G37*
G36*
X1760D02*
X1667D01*
Y14482D01*
X1760D01*
Y14585D01*
D02*
G37*
G36*
X27348Y14309D02*
X26170D01*
Y14265D01*
X26120Y14238D01*
X26097Y14254D01*
X26043Y14265D01*
X25990Y14254D01*
X25944Y14223D01*
X25942Y14220D01*
X25892Y14235D01*
Y14266D01*
X25628D01*
Y13982D01*
X25892D01*
Y14013D01*
X25942Y14028D01*
X25944Y14025D01*
X25990Y13994D01*
X26043Y13984D01*
X26097Y13994D01*
X26120Y14010D01*
X26170Y13983D01*
Y13939D01*
X27348D01*
Y14309D01*
D02*
G37*
G36*
X3726D02*
X2548D01*
Y14265D01*
X2498Y14238D01*
X2475Y14254D01*
X2421Y14265D01*
X2367Y14254D01*
X2322Y14223D01*
X2320Y14220D01*
X2270Y14235D01*
Y14266D01*
X2006D01*
Y13982D01*
X2270D01*
Y14013D01*
X2320Y14028D01*
X2322Y14025D01*
X2367Y13994D01*
X2421Y13984D01*
X2475Y13994D01*
X2498Y14010D01*
X2548Y13983D01*
Y13939D01*
X3726D01*
Y14309D01*
D02*
G37*
G36*
X5326D02*
X4776D01*
Y14163D01*
X5326D01*
Y14309D01*
D02*
G37*
G36*
X25553Y14266D02*
X25461D01*
Y14163D01*
X25553D01*
Y14266D01*
D02*
G37*
G36*
X1931D02*
X1839D01*
Y14163D01*
X1931D01*
Y14266D01*
D02*
G37*
G36*
X25382D02*
X25289D01*
Y14163D01*
X25382D01*
Y14266D01*
D02*
G37*
G36*
X1760D02*
X1667D01*
Y14163D01*
X1760D01*
Y14266D01*
D02*
G37*
G36*
X4698Y14309D02*
X4148D01*
Y14163D01*
X4698D01*
Y14309D01*
D02*
G37*
G36*
X28948D02*
X28398D01*
Y14163D01*
X28948D01*
Y14309D01*
D02*
G37*
G36*
X28320D02*
X27770D01*
Y14163D01*
X28320D01*
Y14309D01*
D02*
G37*
G36*
X25553Y14085D02*
X25461D01*
Y13982D01*
X25553D01*
Y14085D01*
D02*
G37*
G36*
X25382D02*
X25289D01*
Y13982D01*
X25382D01*
Y14085D01*
D02*
G37*
G36*
X1931D02*
X1839D01*
Y13982D01*
X1931D01*
Y14085D01*
D02*
G37*
G36*
X1760D02*
X1667D01*
Y13982D01*
X1760D01*
Y14085D01*
D02*
G37*
G36*
X28948Y14085D02*
X28398D01*
Y13939D01*
X28948D01*
Y14085D01*
D02*
G37*
G36*
X28320D02*
X27770D01*
Y13939D01*
X28320D01*
Y14085D01*
D02*
G37*
G36*
X5326Y14085D02*
X4776D01*
Y13939D01*
X5326D01*
Y14085D01*
D02*
G37*
G36*
X4698D02*
X4148D01*
Y13939D01*
X4698D01*
Y14085D01*
D02*
G37*
G36*
X22600Y13913D02*
X22508D01*
Y13811D01*
X22600D01*
Y13913D01*
D02*
G37*
G36*
X22429D02*
X22337D01*
Y13811D01*
X22429D01*
Y13913D01*
D02*
G37*
G36*
X21026Y13884D02*
X20933D01*
Y13781D01*
X21026D01*
Y13884D01*
D02*
G37*
G36*
X20854D02*
X20762D01*
Y13781D01*
X20854D01*
Y13884D01*
D02*
G37*
G36*
X18337Y13900D02*
X18031D01*
Y13781D01*
X18337D01*
Y13900D01*
D02*
G37*
G36*
X15148Y13884D02*
X15055D01*
Y13781D01*
X15148D01*
Y13884D01*
D02*
G37*
G36*
X14976D02*
X14884D01*
Y13781D01*
X14976D01*
Y13884D01*
D02*
G37*
G36*
X17953Y13900D02*
X17648D01*
Y13781D01*
X17953D01*
Y13900D01*
D02*
G37*
G36*
X27348Y13809D02*
X26170D01*
Y13765D01*
X26120Y13738D01*
X26097Y13754D01*
X26043Y13765D01*
X25990Y13754D01*
X25944Y13723D01*
X25942Y13720D01*
X25892Y13735D01*
Y13766D01*
X25628D01*
Y13482D01*
X25892D01*
Y13513D01*
X25942Y13528D01*
X25944Y13525D01*
X25990Y13494D01*
X26043Y13484D01*
X26097Y13494D01*
X26120Y13510D01*
X26170Y13483D01*
Y13439D01*
X27348D01*
Y13809D01*
D02*
G37*
G36*
X3726D02*
X2548D01*
Y13765D01*
X2498Y13738D01*
X2475Y13754D01*
X2421Y13765D01*
X2367Y13754D01*
X2322Y13723D01*
X2320Y13720D01*
X2270Y13735D01*
Y13766D01*
X2006D01*
Y13482D01*
X2270D01*
Y13513D01*
X2320Y13528D01*
X2322Y13525D01*
X2367Y13494D01*
X2421Y13484D01*
X2475Y13494D01*
X2498Y13510D01*
X2548Y13483D01*
Y13439D01*
X3726D01*
Y13809D01*
D02*
G37*
G36*
X29829Y13766D02*
X29736D01*
Y13663D01*
X29829D01*
Y13766D01*
D02*
G37*
G36*
X29657D02*
X29565D01*
Y13663D01*
X29657D01*
Y13766D01*
D02*
G37*
G36*
X25553Y13766D02*
X25461D01*
Y13663D01*
X25553D01*
Y13766D01*
D02*
G37*
G36*
X1931D02*
X1839D01*
Y13663D01*
X1931D01*
Y13766D01*
D02*
G37*
G36*
X25382D02*
X25289D01*
Y13663D01*
X25382D01*
Y13766D01*
D02*
G37*
G36*
X1760D02*
X1667D01*
Y13663D01*
X1760D01*
Y13766D01*
D02*
G37*
G36*
X6207Y13766D02*
X6114D01*
Y13663D01*
X6207D01*
Y13766D01*
D02*
G37*
G36*
X6035D02*
X5943D01*
Y13663D01*
X6035D01*
Y13766D01*
D02*
G37*
G36*
X22600Y13732D02*
X22508D01*
Y13630D01*
X22600D01*
Y13732D01*
D02*
G37*
G36*
X22429D02*
X22337D01*
Y13630D01*
X22429D01*
Y13732D01*
D02*
G37*
G36*
X21026Y13703D02*
X20933D01*
Y13600D01*
X21026D01*
Y13703D01*
D02*
G37*
G36*
X20854D02*
X20762D01*
Y13600D01*
X20854D01*
Y13703D01*
D02*
G37*
G36*
X19451Y13703D02*
X19358D01*
Y13600D01*
X19451D01*
Y13703D01*
D02*
G37*
G36*
X19280D02*
X19187D01*
Y13600D01*
X19280D01*
Y13703D01*
D02*
G37*
G36*
X15148D02*
X15055D01*
Y13600D01*
X15148D01*
Y13703D01*
D02*
G37*
G36*
X14976D02*
X14884D01*
Y13600D01*
X14976D01*
Y13703D01*
D02*
G37*
G36*
X18337D02*
X18031D01*
Y13585D01*
X18337D01*
Y13703D01*
D02*
G37*
G36*
X17953D02*
X17648D01*
Y13585D01*
X17953D01*
Y13703D01*
D02*
G37*
G36*
X15522Y13900D02*
X15486Y13884D01*
X15222D01*
Y13600D01*
X15274D01*
Y13488D01*
X14959Y13173D01*
X14942Y13147D01*
X14935Y13116D01*
Y12884D01*
X14884D01*
Y12600D01*
X14935D01*
Y12384D01*
X14884D01*
Y12100D01*
X14935D01*
Y11874D01*
X14942Y11843D01*
X14959Y11817D01*
X15063Y11714D01*
X15055Y11695D01*
Y11526D01*
Y11384D01*
X15079D01*
X15098Y11338D01*
X15034Y11274D01*
X14884D01*
Y10990D01*
X14935D01*
Y10880D01*
X14884D01*
Y10596D01*
X15148D01*
Y10880D01*
X15096D01*
Y10990D01*
X15148D01*
Y11152D01*
X15174Y11173D01*
X15222Y11151D01*
Y10990D01*
X15418D01*
X15437Y10944D01*
X15373Y10880D01*
X15222D01*
Y10596D01*
X15486D01*
Y10739D01*
X15501Y10750D01*
X15551Y10725D01*
X15551Y10630D01*
X15551Y10580D01*
Y10424D01*
X15551Y10374D01*
X15551D01*
Y10374D01*
X15551D01*
Y10168D01*
X15551Y10118D01*
X15551D01*
Y10118D01*
X15551D01*
Y9912D01*
X15551Y9862D01*
X15551D01*
Y9862D01*
X15551D01*
Y9606D01*
X16024D01*
Y9606D01*
X16066Y9624D01*
X16074Y9627D01*
X16108Y9604D01*
X16161Y9594D01*
X16215Y9604D01*
X16261Y9635D01*
X16291Y9680D01*
X16302Y9734D01*
X16291Y9788D01*
X16261Y9834D01*
X16255Y9837D01*
Y9887D01*
X16261Y9891D01*
X16291Y9936D01*
X16302Y9990D01*
X16291Y10044D01*
X16261Y10089D01*
X16255Y10093D01*
Y10143D01*
X16261Y10147D01*
X16291Y10192D01*
X16302Y10246D01*
X16291Y10300D01*
X16261Y10345D01*
X16255Y10349D01*
Y10399D01*
X16261Y10403D01*
X16291Y10448D01*
X16302Y10502D01*
X16291Y10556D01*
X16261Y10601D01*
X16215Y10632D01*
X16161Y10642D01*
X16108Y10632D01*
X16074Y10609D01*
X16033Y10624D01*
X16024Y10631D01*
X16024Y10680D01*
Y10718D01*
X15787D01*
Y10797D01*
X16024D01*
Y10885D01*
X16033Y10892D01*
X16074Y10907D01*
X16108Y10884D01*
X16161Y10873D01*
X16215Y10884D01*
X16261Y10914D01*
X16291Y10960D01*
X16302Y11014D01*
X16291Y11068D01*
X16261Y11113D01*
X16255Y11117D01*
Y11167D01*
X16261Y11170D01*
X16291Y11216D01*
X16302Y11270D01*
X16291Y11323D01*
X16261Y11369D01*
X16256Y11372D01*
Y11433D01*
X16261Y11436D01*
X16291Y11482D01*
X16302Y11535D01*
X16291Y11589D01*
X16261Y11635D01*
X16215Y11665D01*
X16161Y11676D01*
X16108Y11665D01*
X16074Y11642D01*
X16024Y11654D01*
Y11654D01*
X15551D01*
Y11606D01*
X15486D01*
Y11667D01*
X15336D01*
X15096Y11907D01*
Y12100D01*
X15148D01*
Y12384D01*
X15096D01*
Y12600D01*
X15148D01*
Y12884D01*
X15096D01*
Y13083D01*
X15411Y13398D01*
X15411Y13398D01*
X15429Y13424D01*
X15435Y13455D01*
Y13600D01*
X15486D01*
X15522Y13585D01*
Y13585D01*
X16211D01*
Y13900D01*
X15522D01*
Y13900D01*
D02*
G37*
G36*
X29829Y13585D02*
X29736D01*
Y13482D01*
X29829D01*
Y13585D01*
D02*
G37*
G36*
X29657D02*
X29565D01*
Y13482D01*
X29657D01*
Y13585D01*
D02*
G37*
G36*
X28948Y13809D02*
X27770D01*
Y13439D01*
X28948D01*
Y13483D01*
X28998Y13510D01*
X29021Y13494D01*
X29075Y13484D01*
X29129Y13494D01*
X29174Y13525D01*
X29176Y13528D01*
X29226Y13513D01*
Y13482D01*
X29490D01*
Y13766D01*
X29226D01*
Y13735D01*
X29176Y13720D01*
X29174Y13723D01*
X29129Y13754D01*
X29075Y13765D01*
X29021Y13754D01*
X28998Y13738D01*
X28948Y13765D01*
Y13809D01*
D02*
G37*
G36*
X25553Y13585D02*
X25461D01*
Y13482D01*
X25553D01*
Y13585D01*
D02*
G37*
G36*
X25382D02*
X25289D01*
Y13482D01*
X25382D01*
Y13585D01*
D02*
G37*
G36*
X1931D02*
X1839D01*
Y13482D01*
X1931D01*
Y13585D01*
D02*
G37*
G36*
X1760D02*
X1667D01*
Y13482D01*
X1760D01*
Y13585D01*
D02*
G37*
G36*
X6207Y13585D02*
X6114D01*
Y13482D01*
X6207D01*
Y13585D01*
D02*
G37*
G36*
X6035D02*
X5943D01*
Y13482D01*
X6035D01*
Y13585D01*
D02*
G37*
G36*
X5326Y13809D02*
X4148D01*
Y13439D01*
X5326D01*
Y13483D01*
X5376Y13510D01*
X5399Y13494D01*
X5453Y13484D01*
X5507Y13494D01*
X5552Y13525D01*
X5554Y13528D01*
X5604Y13513D01*
Y13482D01*
X5868D01*
Y13766D01*
X5604D01*
Y13735D01*
X5554Y13720D01*
X5552Y13723D01*
X5507Y13754D01*
X5453Y13764D01*
X5399Y13754D01*
X5376Y13738D01*
X5326Y13765D01*
Y13809D01*
D02*
G37*
G36*
X18337Y13400D02*
X18031D01*
Y13282D01*
X18337D01*
Y13400D01*
D02*
G37*
G36*
X16211D02*
X15906D01*
Y13282D01*
X16211D01*
Y13400D01*
D02*
G37*
G36*
X17953D02*
X17648D01*
Y13282D01*
X17953D01*
Y13400D01*
D02*
G37*
G36*
X15827D02*
X15522D01*
Y13282D01*
X15827D01*
Y13400D01*
D02*
G37*
G36*
X3726Y13309D02*
X2548D01*
Y13265D01*
X2498Y13238D01*
X2475Y13254D01*
X2421Y13265D01*
X2368Y13254D01*
X2322Y13223D01*
X2320Y13220D01*
X2270Y13235D01*
Y13266D01*
X2006D01*
Y12982D01*
X2270D01*
Y13013D01*
X2320Y13028D01*
X2322Y13025D01*
X2368Y12994D01*
X2421Y12984D01*
X2475Y12994D01*
X2498Y13010D01*
X2548Y12983D01*
Y12939D01*
X3726D01*
Y13309D01*
D02*
G37*
G36*
X27348D02*
X26170D01*
Y13265D01*
X26120Y13238D01*
X26097Y13254D01*
X26043Y13265D01*
X25990Y13254D01*
X25944Y13223D01*
X25942Y13220D01*
X25892Y13235D01*
Y13266D01*
X25628D01*
Y12982D01*
X25892D01*
Y13013D01*
X25942Y13028D01*
X25944Y13025D01*
X25990Y12994D01*
X26043Y12984D01*
X26097Y12994D01*
X26120Y13010D01*
X26170Y12983D01*
Y12939D01*
X27348D01*
Y13309D01*
D02*
G37*
G36*
X29829Y13266D02*
X29736D01*
Y13163D01*
X29829D01*
Y13266D01*
D02*
G37*
G36*
X29657D02*
X29565D01*
Y13163D01*
X29657D01*
Y13266D01*
D02*
G37*
G36*
X1931Y13266D02*
X1839D01*
Y13163D01*
X1931D01*
Y13266D01*
D02*
G37*
G36*
X25553D02*
X25461D01*
Y13163D01*
X25553D01*
Y13266D01*
D02*
G37*
G36*
X1760D02*
X1667D01*
Y13163D01*
X1760D01*
Y13266D01*
D02*
G37*
G36*
X25382D02*
X25289D01*
Y13163D01*
X25382D01*
Y13266D01*
D02*
G37*
G36*
X6207Y13266D02*
X6114D01*
Y13163D01*
X6207D01*
Y13266D01*
D02*
G37*
G36*
X6035D02*
X5943D01*
Y13163D01*
X6035D01*
Y13266D01*
D02*
G37*
G36*
X22608Y13213D02*
X22530D01*
Y13134D01*
X22608D01*
Y13213D01*
D02*
G37*
G36*
X22451D02*
X22372D01*
Y13134D01*
X22451D01*
Y13213D01*
D02*
G37*
G36*
X19459Y13183D02*
X19380D01*
Y13104D01*
X19459D01*
Y13183D01*
D02*
G37*
G36*
X19301D02*
X19222D01*
Y13104D01*
X19301D01*
Y13183D01*
D02*
G37*
G36*
X21033D02*
X20955D01*
Y13104D01*
X21033D01*
Y13183D01*
D02*
G37*
G36*
X20876D02*
X20797D01*
Y13104D01*
X20876D01*
Y13183D01*
D02*
G37*
G36*
X18337Y13203D02*
X18031D01*
Y13085D01*
X18337D01*
Y13203D01*
D02*
G37*
G36*
X17953D02*
X17648D01*
Y13085D01*
X17953D01*
Y13203D01*
D02*
G37*
G36*
X16211D02*
X15906D01*
Y13085D01*
X16211D01*
Y13203D01*
D02*
G37*
G36*
X15827D02*
X15522D01*
Y13085D01*
X15827D01*
Y13203D01*
D02*
G37*
G36*
X14449Y13898D02*
X13799D01*
Y13031D01*
X14449D01*
Y13898D01*
D02*
G37*
G36*
X9035D02*
X8386D01*
Y13031D01*
X9035D01*
Y13898D01*
D02*
G37*
G36*
X29829Y13085D02*
X29736D01*
Y12982D01*
X29829D01*
Y13085D01*
D02*
G37*
G36*
X29657D02*
X29565D01*
Y12982D01*
X29657D01*
Y13085D01*
D02*
G37*
G36*
X28948Y13309D02*
X27770D01*
Y12939D01*
X28948D01*
Y12983D01*
X28998Y13010D01*
X29021Y12994D01*
X29075Y12984D01*
X29129Y12994D01*
X29174Y13025D01*
X29176Y13028D01*
X29226Y13013D01*
Y12982D01*
X29490D01*
Y13266D01*
X29226D01*
Y13235D01*
X29176Y13220D01*
X29174Y13223D01*
X29129Y13254D01*
X29075Y13265D01*
X29021Y13254D01*
X28998Y13238D01*
X28948Y13265D01*
Y13309D01*
D02*
G37*
G36*
X25553Y13085D02*
X25461D01*
Y12982D01*
X25553D01*
Y13085D01*
D02*
G37*
G36*
X25382D02*
X25289D01*
Y12982D01*
X25382D01*
Y13085D01*
D02*
G37*
G36*
X1931D02*
X1839D01*
Y12982D01*
X1931D01*
Y13085D01*
D02*
G37*
G36*
X1760D02*
X1667D01*
Y12982D01*
X1760D01*
Y13085D01*
D02*
G37*
G36*
X6207Y13085D02*
X6114D01*
Y12982D01*
X6207D01*
Y13085D01*
D02*
G37*
G36*
X6035D02*
X5943D01*
Y12982D01*
X6035D01*
Y13085D01*
D02*
G37*
G36*
X5326Y13309D02*
X4148D01*
Y12939D01*
X5326D01*
Y12983D01*
X5376Y13010D01*
X5399Y12994D01*
X5453Y12984D01*
X5507Y12994D01*
X5552Y13025D01*
X5554Y13028D01*
X5604Y13013D01*
Y12982D01*
X5868D01*
Y13266D01*
X5604D01*
Y13235D01*
X5554Y13220D01*
X5552Y13223D01*
X5507Y13254D01*
X5453Y13264D01*
X5399Y13254D01*
X5376Y13238D01*
X5326Y13265D01*
Y13309D01*
D02*
G37*
G36*
X22608Y13055D02*
X22530D01*
Y12976D01*
X22608D01*
Y13055D01*
D02*
G37*
G36*
X22451D02*
X22372D01*
Y12976D01*
X22451D01*
Y13055D01*
D02*
G37*
G36*
X21033Y13026D02*
X20955D01*
Y12947D01*
X21033D01*
Y13026D01*
D02*
G37*
G36*
X20876D02*
X20797D01*
Y12947D01*
X20876D01*
Y13026D01*
D02*
G37*
G36*
X19459Y13026D02*
X19380D01*
Y12947D01*
X19459D01*
Y13026D01*
D02*
G37*
G36*
X19301D02*
X19222D01*
Y12947D01*
X19301D01*
Y13026D01*
D02*
G37*
G36*
X22600Y12913D02*
X22508D01*
Y12811D01*
X22600D01*
Y12913D01*
D02*
G37*
G36*
X22429D02*
X22337D01*
Y12811D01*
X22429D01*
Y12913D01*
D02*
G37*
G36*
X21026Y12884D02*
X20933D01*
Y12781D01*
X21026D01*
Y12884D01*
D02*
G37*
G36*
X20854D02*
X20762D01*
Y12781D01*
X20854D01*
Y12884D01*
D02*
G37*
G36*
X19451D02*
X19358D01*
Y12781D01*
X19451D01*
Y12884D01*
D02*
G37*
G36*
X18337Y12900D02*
X18031D01*
Y12781D01*
X18337D01*
Y12900D01*
D02*
G37*
G36*
X17953D02*
X17648D01*
Y12781D01*
X17953D01*
Y12900D01*
D02*
G37*
G36*
X19280Y12884D02*
X19187D01*
Y12781D01*
X19280D01*
Y12884D01*
D02*
G37*
G36*
X27348Y12809D02*
X26170D01*
Y12765D01*
X26120Y12738D01*
X26097Y12754D01*
X26043Y12765D01*
X25990Y12754D01*
X25944Y12723D01*
X25942Y12720D01*
X25892Y12735D01*
Y12766D01*
X25628D01*
Y12482D01*
X25892D01*
Y12513D01*
X25942Y12528D01*
X25944Y12525D01*
X25990Y12494D01*
X26043Y12484D01*
X26097Y12494D01*
X26120Y12510D01*
X26170Y12483D01*
Y12439D01*
X27348D01*
Y12809D01*
D02*
G37*
G36*
X3726D02*
X2548D01*
Y12765D01*
X2498Y12738D01*
X2475Y12754D01*
X2421Y12765D01*
X2367Y12754D01*
X2322Y12723D01*
X2320Y12720D01*
X2270Y12735D01*
Y12766D01*
X2006D01*
Y12482D01*
X2270D01*
Y12513D01*
X2320Y12528D01*
X2322Y12525D01*
X2367Y12494D01*
X2421Y12484D01*
X2475Y12494D01*
X2498Y12510D01*
X2548Y12483D01*
Y12439D01*
X3726D01*
Y12809D01*
D02*
G37*
G36*
X29829Y12766D02*
X29736D01*
Y12663D01*
X29829D01*
Y12766D01*
D02*
G37*
G36*
X29657D02*
X29565D01*
Y12663D01*
X29657D01*
Y12766D01*
D02*
G37*
G36*
X25553Y12766D02*
X25461D01*
Y12663D01*
X25553D01*
Y12766D01*
D02*
G37*
G36*
X1931D02*
X1839D01*
Y12663D01*
X1931D01*
Y12766D01*
D02*
G37*
G36*
X25382D02*
X25289D01*
Y12663D01*
X25382D01*
Y12766D01*
D02*
G37*
G36*
X1760D02*
X1667D01*
Y12663D01*
X1760D01*
Y12766D01*
D02*
G37*
G36*
X6207Y12766D02*
X6114D01*
Y12663D01*
X6207D01*
Y12766D01*
D02*
G37*
G36*
X6035D02*
X5943D01*
Y12663D01*
X6035D01*
Y12766D01*
D02*
G37*
G36*
X22600Y12732D02*
X22508D01*
Y12630D01*
X22600D01*
Y12732D01*
D02*
G37*
G36*
X22429D02*
X22337D01*
Y12630D01*
X22429D01*
Y12732D01*
D02*
G37*
G36*
X15522Y12900D02*
X15486Y12884D01*
X15222D01*
Y12600D01*
X15486D01*
X15522Y12585D01*
Y12585D01*
X16211D01*
Y12666D01*
X16305D01*
X16318Y12647D01*
X16364Y12616D01*
X16417Y12606D01*
X16471Y12616D01*
X16517Y12647D01*
X16547Y12692D01*
X16558Y12746D01*
X16547Y12800D01*
X16517Y12845D01*
X16471Y12876D01*
X16417Y12887D01*
X16364Y12876D01*
X16318Y12845D01*
X16305Y12826D01*
X16211D01*
Y12900D01*
X15522D01*
Y12900D01*
D02*
G37*
G36*
X21026Y12703D02*
X20933D01*
Y12600D01*
X21026D01*
Y12703D01*
D02*
G37*
G36*
X20854D02*
X20762D01*
Y12600D01*
X20854D01*
Y12703D01*
D02*
G37*
G36*
X19451Y12703D02*
X19358D01*
Y12600D01*
X19451D01*
Y12703D01*
D02*
G37*
G36*
X19280D02*
X19187D01*
Y12600D01*
X19280D01*
Y12703D01*
D02*
G37*
G36*
X18337D02*
X18031D01*
Y12585D01*
X18337D01*
Y12703D01*
D02*
G37*
G36*
X17953D02*
X17648D01*
Y12585D01*
X17953D01*
Y12703D01*
D02*
G37*
G36*
X29829Y12585D02*
X29736D01*
Y12482D01*
X29829D01*
Y12585D01*
D02*
G37*
G36*
X29657D02*
X29565D01*
Y12482D01*
X29657D01*
Y12585D01*
D02*
G37*
G36*
X28948Y12809D02*
X27770D01*
Y12439D01*
X28948D01*
Y12483D01*
X28998Y12510D01*
X29021Y12494D01*
X29075Y12484D01*
X29129Y12494D01*
X29174Y12525D01*
X29176Y12528D01*
X29226Y12513D01*
Y12482D01*
X29490D01*
Y12766D01*
X29226D01*
Y12735D01*
X29176Y12720D01*
X29174Y12723D01*
X29129Y12754D01*
X29075Y12765D01*
X29021Y12754D01*
X28998Y12738D01*
X28948Y12765D01*
Y12809D01*
D02*
G37*
G36*
X25553Y12585D02*
X25461D01*
Y12482D01*
X25553D01*
Y12585D01*
D02*
G37*
G36*
X25382D02*
X25289D01*
Y12482D01*
X25382D01*
Y12585D01*
D02*
G37*
G36*
X1931D02*
X1839D01*
Y12482D01*
X1931D01*
Y12585D01*
D02*
G37*
G36*
X1760D02*
X1667D01*
Y12482D01*
X1760D01*
Y12585D01*
D02*
G37*
G36*
X6207Y12585D02*
X6114D01*
Y12482D01*
X6207D01*
Y12585D01*
D02*
G37*
G36*
X6035D02*
X5943D01*
Y12482D01*
X6035D01*
Y12585D01*
D02*
G37*
G36*
X5326Y12809D02*
X4148D01*
Y12439D01*
X5326D01*
Y12483D01*
X5376Y12510D01*
X5399Y12494D01*
X5453Y12484D01*
X5507Y12494D01*
X5552Y12525D01*
X5554Y12528D01*
X5604Y12513D01*
Y12482D01*
X5868D01*
Y12766D01*
X5604D01*
Y12735D01*
X5554Y12720D01*
X5552Y12723D01*
X5507Y12754D01*
X5453Y12765D01*
X5399Y12754D01*
X5376Y12738D01*
X5326Y12765D01*
Y12809D01*
D02*
G37*
G36*
X22600Y12413D02*
X22508D01*
Y12311D01*
X22600D01*
Y12413D01*
D02*
G37*
G36*
X22429D02*
X22337D01*
Y12311D01*
X22429D01*
Y12413D01*
D02*
G37*
G36*
X18337Y12400D02*
X18031D01*
Y12282D01*
X18337D01*
Y12400D01*
D02*
G37*
G36*
X17953D02*
X17648D01*
Y12282D01*
X17953D01*
Y12400D01*
D02*
G37*
G36*
X19451Y12384D02*
X19358D01*
Y12281D01*
X19451D01*
Y12384D01*
D02*
G37*
G36*
X19280D02*
X19187D01*
Y12281D01*
X19280D01*
Y12384D01*
D02*
G37*
G36*
X21026D02*
X20933D01*
Y12281D01*
X21026D01*
Y12384D01*
D02*
G37*
G36*
X20854D02*
X20762D01*
Y12281D01*
X20854D01*
Y12384D01*
D02*
G37*
G36*
X27348Y12309D02*
X26170D01*
Y12265D01*
X26120Y12238D01*
X26097Y12254D01*
X26043Y12265D01*
X25990Y12254D01*
X25944Y12223D01*
X25942Y12220D01*
X25892Y12235D01*
Y12266D01*
X25628D01*
Y11982D01*
X25892D01*
Y12013D01*
X25942Y12028D01*
X25944Y12025D01*
X25990Y11994D01*
X26043Y11984D01*
X26097Y11994D01*
X26120Y12010D01*
X26170Y11983D01*
Y11939D01*
X27348D01*
Y12309D01*
D02*
G37*
G36*
X3726D02*
X2548D01*
Y12265D01*
X2498Y12238D01*
X2475Y12254D01*
X2421Y12265D01*
X2367Y12254D01*
X2322Y12223D01*
X2320Y12220D01*
X2270Y12235D01*
Y12266D01*
X2006D01*
Y11982D01*
X2270D01*
Y12013D01*
X2320Y12028D01*
X2322Y12025D01*
X2367Y11994D01*
X2421Y11984D01*
X2475Y11994D01*
X2498Y12010D01*
X2548Y11983D01*
Y11939D01*
X3726D01*
Y12309D01*
D02*
G37*
G36*
X29829Y12266D02*
X29736D01*
Y12163D01*
X29829D01*
Y12266D01*
D02*
G37*
G36*
X29657D02*
X29565D01*
Y12163D01*
X29657D01*
Y12266D01*
D02*
G37*
G36*
X25553Y12266D02*
X25461D01*
Y12163D01*
X25553D01*
Y12266D01*
D02*
G37*
G36*
X1931D02*
X1839D01*
Y12163D01*
X1931D01*
Y12266D01*
D02*
G37*
G36*
X25382D02*
X25289D01*
Y12163D01*
X25382D01*
Y12266D01*
D02*
G37*
G36*
X1760D02*
X1667D01*
Y12163D01*
X1760D01*
Y12266D01*
D02*
G37*
G36*
X6207Y12266D02*
X6114D01*
Y12163D01*
X6207D01*
Y12266D01*
D02*
G37*
G36*
X6035D02*
X5943D01*
Y12163D01*
X6035D01*
Y12266D01*
D02*
G37*
G36*
X22600Y12232D02*
X22508D01*
Y12130D01*
X22600D01*
Y12232D01*
D02*
G37*
G36*
X22429D02*
X22337D01*
Y12130D01*
X22429D01*
Y12232D01*
D02*
G37*
G36*
X15522Y12400D02*
X15486Y12384D01*
X15222D01*
Y12100D01*
X15486D01*
X15522Y12085D01*
Y12085D01*
X16211D01*
Y12162D01*
X16305D01*
X16318Y12143D01*
X16364Y12112D01*
X16417Y12102D01*
X16471Y12112D01*
X16517Y12143D01*
X16547Y12188D01*
X16558Y12242D01*
X16547Y12296D01*
X16517Y12341D01*
X16471Y12372D01*
X16417Y12383D01*
X16364Y12372D01*
X16318Y12341D01*
X16305Y12322D01*
X16211D01*
Y12400D01*
X15522D01*
Y12400D01*
D02*
G37*
G36*
X21026Y12203D02*
X20933D01*
Y12100D01*
X21026D01*
Y12203D01*
D02*
G37*
G36*
X20854D02*
X20762D01*
Y12100D01*
X20854D01*
Y12203D01*
D02*
G37*
G36*
X19451Y12203D02*
X19358D01*
Y12100D01*
X19451D01*
Y12203D01*
D02*
G37*
G36*
X19280D02*
X19187D01*
Y12100D01*
X19280D01*
Y12203D01*
D02*
G37*
G36*
X18337Y12203D02*
X18031D01*
Y12085D01*
X18337D01*
Y12203D01*
D02*
G37*
G36*
X17953D02*
X17648D01*
Y12085D01*
X17953D01*
Y12203D01*
D02*
G37*
G36*
X29829Y12085D02*
X29736D01*
Y11982D01*
X29829D01*
Y12085D01*
D02*
G37*
G36*
X29657D02*
X29565D01*
Y11982D01*
X29657D01*
Y12085D01*
D02*
G37*
G36*
X28948Y12309D02*
X27770D01*
Y11939D01*
X28948D01*
Y11983D01*
X28998Y12010D01*
X29021Y11994D01*
X29075Y11984D01*
X29129Y11994D01*
X29174Y12025D01*
X29176Y12028D01*
X29226Y12013D01*
Y11982D01*
X29490D01*
Y12266D01*
X29226D01*
Y12235D01*
X29176Y12220D01*
X29174Y12223D01*
X29129Y12254D01*
X29075Y12265D01*
X29021Y12254D01*
X28998Y12238D01*
X28948Y12265D01*
Y12309D01*
D02*
G37*
G36*
X25553Y12085D02*
X25461D01*
Y11982D01*
X25553D01*
Y12085D01*
D02*
G37*
G36*
X25382D02*
X25289D01*
Y11982D01*
X25382D01*
Y12085D01*
D02*
G37*
G36*
X1931D02*
X1839D01*
Y11982D01*
X1931D01*
Y12085D01*
D02*
G37*
G36*
X1760D02*
X1667D01*
Y11982D01*
X1760D01*
Y12085D01*
D02*
G37*
G36*
X6207Y12085D02*
X6114D01*
Y11982D01*
X6207D01*
Y12085D01*
D02*
G37*
G36*
X6035D02*
X5943D01*
Y11982D01*
X6035D01*
Y12085D01*
D02*
G37*
G36*
X5326Y12309D02*
X4148D01*
Y11939D01*
X5326D01*
Y11983D01*
X5376Y12010D01*
X5399Y11994D01*
X5453Y11984D01*
X5507Y11994D01*
X5552Y12025D01*
X5554Y12028D01*
X5604Y12013D01*
Y11982D01*
X5868D01*
Y12266D01*
X5604D01*
Y12235D01*
X5554Y12220D01*
X5552Y12223D01*
X5507Y12254D01*
X5453Y12265D01*
X5399Y12254D01*
X5376Y12238D01*
X5326Y12265D01*
Y12309D01*
D02*
G37*
G36*
X22904Y13213D02*
X22667D01*
Y12976D01*
X22716D01*
Y12913D01*
X22675D01*
Y12630D01*
X22716D01*
Y12413D01*
X22675D01*
Y12130D01*
X22732D01*
Y12004D01*
X22713Y11992D01*
X22683Y11946D01*
X22672Y11892D01*
X22683Y11838D01*
X22713Y11793D01*
X22759Y11762D01*
X22812Y11752D01*
X22866Y11762D01*
X22912Y11793D01*
X22942Y11838D01*
X22953Y11892D01*
X22942Y11946D01*
X22912Y11992D01*
X22893Y12004D01*
Y12130D01*
X22939D01*
Y12413D01*
X22877D01*
Y12630D01*
X22939D01*
Y12913D01*
X22877D01*
Y12976D01*
X22904D01*
Y13213D01*
D02*
G37*
G36*
X27348Y11809D02*
X26170D01*
Y11765D01*
X26120Y11738D01*
X26097Y11754D01*
X26043Y11765D01*
X25990Y11754D01*
X25944Y11723D01*
X25942Y11720D01*
X25892Y11735D01*
Y11766D01*
X25628D01*
Y11482D01*
X25892D01*
Y11513D01*
X25942Y11528D01*
X25944Y11525D01*
X25990Y11494D01*
X26043Y11484D01*
X26097Y11494D01*
X26120Y11510D01*
X26170Y11483D01*
Y11439D01*
X27348D01*
Y11809D01*
D02*
G37*
G36*
X3726D02*
X2548D01*
Y11765D01*
X2498Y11738D01*
X2475Y11754D01*
X2421Y11765D01*
X2367Y11754D01*
X2322Y11723D01*
X2320Y11720D01*
X2270Y11735D01*
Y11766D01*
X2006D01*
Y11482D01*
X2270D01*
Y11513D01*
X2320Y11528D01*
X2322Y11525D01*
X2367Y11494D01*
X2421Y11484D01*
X2475Y11494D01*
X2498Y11510D01*
X2548Y11483D01*
Y11439D01*
X3726D01*
Y11809D01*
D02*
G37*
G36*
X19754Y13183D02*
X19518D01*
Y12947D01*
X19566D01*
Y12884D01*
X19526D01*
Y12600D01*
X19566D01*
Y12384D01*
X19526D01*
Y12100D01*
X19577D01*
Y11980D01*
X19558Y11967D01*
X19528Y11922D01*
X19517Y11868D01*
X19528Y11814D01*
X19558Y11769D01*
X19604Y11738D01*
X19657Y11728D01*
X19711Y11738D01*
X19757Y11769D01*
X19787Y11814D01*
X19798Y11868D01*
X19787Y11922D01*
X19757Y11967D01*
X19738Y11980D01*
Y12100D01*
X19789D01*
Y12384D01*
X19727D01*
Y12600D01*
X19789D01*
Y12884D01*
X19727D01*
Y12947D01*
X19754D01*
Y13183D01*
D02*
G37*
G36*
X21329D02*
X21093D01*
Y12947D01*
X21141D01*
Y12884D01*
X21100D01*
Y12600D01*
X21141D01*
Y12384D01*
X21100D01*
Y12100D01*
X21157D01*
Y11975D01*
X21138Y11962D01*
X21108Y11916D01*
X21097Y11863D01*
X21108Y11809D01*
X21138Y11763D01*
X21184Y11733D01*
X21238Y11722D01*
X21291Y11733D01*
X21337Y11763D01*
X21367Y11809D01*
X21378Y11863D01*
X21367Y11916D01*
X21337Y11962D01*
X21318Y11975D01*
Y12100D01*
X21364D01*
Y12384D01*
X21302D01*
Y12600D01*
X21364D01*
Y12884D01*
X21302D01*
Y12947D01*
X21329D01*
Y13183D01*
D02*
G37*
G36*
X29829Y11766D02*
X29736D01*
Y11663D01*
X29829D01*
Y11766D01*
D02*
G37*
G36*
X29657D02*
X29565D01*
Y11663D01*
X29657D01*
Y11766D01*
D02*
G37*
G36*
X1931Y11766D02*
X1839D01*
Y11663D01*
X1931D01*
Y11766D01*
D02*
G37*
G36*
X25553D02*
X25461D01*
Y11663D01*
X25553D01*
Y11766D01*
D02*
G37*
G36*
X1760D02*
X1667D01*
Y11663D01*
X1760D01*
Y11766D01*
D02*
G37*
G36*
X25382D02*
X25289D01*
Y11663D01*
X25382D01*
Y11766D01*
D02*
G37*
G36*
X6207Y11766D02*
X6114D01*
Y11663D01*
X6207D01*
Y11766D01*
D02*
G37*
G36*
X6035D02*
X5943D01*
Y11663D01*
X6035D01*
Y11766D01*
D02*
G37*
G36*
X18307Y11654D02*
X18110D01*
Y11565D01*
X18307D01*
Y11654D01*
D02*
G37*
G36*
X18032D02*
X17835D01*
Y11565D01*
X18032D01*
Y11654D01*
D02*
G37*
G36*
X14976Y11667D02*
X14884D01*
Y11565D01*
X14976D01*
Y11667D01*
D02*
G37*
G36*
X29829Y11585D02*
X29736D01*
Y11482D01*
X29829D01*
Y11585D01*
D02*
G37*
G36*
X29657D02*
X29565D01*
Y11482D01*
X29657D01*
Y11585D01*
D02*
G37*
G36*
X28948Y11809D02*
X27770D01*
Y11439D01*
X28948D01*
Y11483D01*
X28998Y11510D01*
X29021Y11494D01*
X29075Y11484D01*
X29129Y11494D01*
X29174Y11525D01*
X29176Y11528D01*
X29226Y11513D01*
Y11482D01*
X29490D01*
Y11766D01*
X29226D01*
Y11735D01*
X29176Y11720D01*
X29174Y11723D01*
X29129Y11754D01*
X29075Y11765D01*
X29021Y11754D01*
X28998Y11738D01*
X28948Y11765D01*
Y11809D01*
D02*
G37*
G36*
X25553Y11585D02*
X25461D01*
Y11482D01*
X25553D01*
Y11585D01*
D02*
G37*
G36*
X25382D02*
X25289D01*
Y11482D01*
X25382D01*
Y11585D01*
D02*
G37*
G36*
X1931D02*
X1839D01*
Y11482D01*
X1931D01*
Y11585D01*
D02*
G37*
G36*
X1760D02*
X1667D01*
Y11482D01*
X1760D01*
Y11585D01*
D02*
G37*
G36*
X6207Y11585D02*
X6114D01*
Y11482D01*
X6207D01*
Y11585D01*
D02*
G37*
G36*
X6035D02*
X5943D01*
Y11482D01*
X6035D01*
Y11585D01*
D02*
G37*
G36*
X5326Y11809D02*
X4148D01*
Y11439D01*
X5326D01*
Y11483D01*
X5376Y11510D01*
X5399Y11494D01*
X5453Y11484D01*
X5507Y11494D01*
X5552Y11525D01*
X5554Y11528D01*
X5604Y11513D01*
Y11482D01*
X5868D01*
Y11766D01*
X5604D01*
Y11735D01*
X5554Y11720D01*
X5552Y11723D01*
X5507Y11754D01*
X5453Y11765D01*
X5399Y11754D01*
X5376Y11738D01*
X5326Y11765D01*
Y11809D01*
D02*
G37*
G36*
X22480Y11498D02*
X22362D01*
Y11419D01*
X22480D01*
Y11498D01*
D02*
G37*
G36*
X22283D02*
X22165D01*
Y11419D01*
X22283D01*
Y11498D01*
D02*
G37*
G36*
X19478Y11522D02*
X19386D01*
Y11419D01*
X19478D01*
Y11522D01*
D02*
G37*
G36*
X19307D02*
X19215D01*
Y11419D01*
X19307D01*
Y11522D01*
D02*
G37*
G36*
X14976Y11486D02*
X14884D01*
Y11384D01*
X14976D01*
Y11486D01*
D02*
G37*
G36*
X22283Y11341D02*
X22129D01*
X22126Y11339D01*
X22115Y11339D01*
X21299D01*
Y10669D01*
X22126D01*
Y10736D01*
X22165Y10762D01*
X22176Y10762D01*
X22480D01*
Y10998D01*
X22176D01*
X22165Y10998D01*
X22126Y11024D01*
Y11236D01*
X22165Y11262D01*
X22176Y11262D01*
X22283D01*
Y11341D01*
D02*
G37*
G36*
X18307Y11486D02*
X18071D01*
X17835D01*
Y11398D01*
X17835Y11348D01*
Y11309D01*
X18071D01*
X18307D01*
Y11398D01*
X18307Y11448D01*
Y11486D01*
D02*
G37*
G36*
X22480Y11341D02*
X22362D01*
Y11262D01*
X22480D01*
Y11341D01*
D02*
G37*
G36*
X19478Y11341D02*
X19386D01*
Y11238D01*
X19478D01*
Y11341D01*
D02*
G37*
G36*
X19307D02*
X19215D01*
Y11238D01*
X19307D01*
Y11341D01*
D02*
G37*
G36*
X27348Y11309D02*
X26170D01*
Y11265D01*
X26120Y11238D01*
X26097Y11254D01*
X26043Y11265D01*
X25990Y11254D01*
X25944Y11223D01*
X25942Y11220D01*
X25892Y11235D01*
Y11266D01*
X25628D01*
Y10982D01*
X25892D01*
Y11013D01*
X25942Y11028D01*
X25944Y11025D01*
X25990Y10994D01*
X26043Y10984D01*
X26097Y10994D01*
X26120Y11010D01*
X26170Y10983D01*
Y10939D01*
X27348D01*
Y11309D01*
D02*
G37*
G36*
X3726D02*
X2548D01*
Y11265D01*
X2498Y11238D01*
X2475Y11254D01*
X2421Y11265D01*
X2367Y11254D01*
X2322Y11223D01*
X2320Y11220D01*
X2270Y11235D01*
Y11266D01*
X2006D01*
Y10982D01*
X2270D01*
Y11013D01*
X2320Y11028D01*
X2322Y11025D01*
X2367Y10994D01*
X2421Y10984D01*
X2475Y10994D01*
X2498Y11010D01*
X2548Y10983D01*
Y10939D01*
X3726D01*
Y11309D01*
D02*
G37*
G36*
X29829Y11266D02*
X29736D01*
Y11163D01*
X29829D01*
Y11266D01*
D02*
G37*
G36*
X29657D02*
X29565D01*
Y11163D01*
X29657D01*
Y11266D01*
D02*
G37*
G36*
X25553Y11266D02*
X25461D01*
Y11163D01*
X25553D01*
Y11266D01*
D02*
G37*
G36*
X1931D02*
X1839D01*
Y11163D01*
X1931D01*
Y11266D01*
D02*
G37*
G36*
X25382D02*
X25289D01*
Y11163D01*
X25382D01*
Y11266D01*
D02*
G37*
G36*
X1760D02*
X1667D01*
Y11163D01*
X1760D01*
Y11266D01*
D02*
G37*
G36*
X6207Y11266D02*
X6114D01*
Y11163D01*
X6207D01*
Y11266D01*
D02*
G37*
G36*
X6035D02*
X5943D01*
Y11163D01*
X6035D01*
Y11266D01*
D02*
G37*
G36*
X29829Y11085D02*
X29736D01*
Y10982D01*
X29829D01*
Y11085D01*
D02*
G37*
G36*
X29657D02*
X29565D01*
Y10982D01*
X29657D01*
Y11085D01*
D02*
G37*
G36*
X28948Y11309D02*
X27770D01*
Y10939D01*
X28948D01*
Y10983D01*
X28998Y11010D01*
X29021Y10994D01*
X29075Y10984D01*
X29129Y10994D01*
X29174Y11025D01*
X29176Y11028D01*
X29226Y11013D01*
Y10982D01*
X29490D01*
Y11266D01*
X29226D01*
Y11235D01*
X29176Y11220D01*
X29174Y11223D01*
X29129Y11254D01*
X29075Y11265D01*
X29021Y11254D01*
X28998Y11238D01*
X28948Y11265D01*
Y11309D01*
D02*
G37*
G36*
X25553Y11085D02*
X25461D01*
Y10982D01*
X25553D01*
Y11085D01*
D02*
G37*
G36*
X25382D02*
X25289D01*
Y10982D01*
X25382D01*
Y11085D01*
D02*
G37*
G36*
X1931D02*
X1839D01*
Y10982D01*
X1931D01*
Y11085D01*
D02*
G37*
G36*
X1760D02*
X1667D01*
Y10982D01*
X1760D01*
Y11085D01*
D02*
G37*
G36*
X6207Y11085D02*
X6114D01*
Y10982D01*
X6207D01*
Y11085D01*
D02*
G37*
G36*
X6035D02*
X5943D01*
Y10982D01*
X6035D01*
Y11085D01*
D02*
G37*
G36*
X5326Y11309D02*
X4148D01*
Y10939D01*
X5326D01*
Y10983D01*
X5376Y11010D01*
X5399Y10994D01*
X5453Y10984D01*
X5507Y10994D01*
X5552Y11025D01*
X5554Y11028D01*
X5604Y11013D01*
Y10982D01*
X5868D01*
Y11266D01*
X5604D01*
Y11235D01*
X5554Y11220D01*
X5552Y11223D01*
X5507Y11254D01*
X5453Y11265D01*
X5399Y11254D01*
X5376Y11238D01*
X5326Y11265D01*
Y11309D01*
D02*
G37*
G36*
X19478Y11022D02*
X19386D01*
Y10919D01*
X19478D01*
Y11022D01*
D02*
G37*
G36*
X19307D02*
X19215D01*
Y10919D01*
X19307D01*
Y11022D01*
D02*
G37*
G36*
X22976Y10850D02*
X22874D01*
Y10758D01*
X22976D01*
Y10850D01*
D02*
G37*
G36*
X22795D02*
X22693D01*
Y10758D01*
X22795D01*
Y10850D01*
D02*
G37*
G36*
X19478Y10841D02*
X19386D01*
Y10738D01*
X19478D01*
Y10841D01*
D02*
G37*
G36*
X19307D02*
X19215D01*
Y10738D01*
X19307D01*
Y10841D01*
D02*
G37*
G36*
X3726Y10809D02*
X2548D01*
Y10765D01*
X2498Y10738D01*
X2475Y10754D01*
X2421Y10765D01*
X2368Y10754D01*
X2322Y10723D01*
X2320Y10720D01*
X2270Y10735D01*
Y10766D01*
X2006D01*
Y10482D01*
X2270D01*
Y10513D01*
X2320Y10528D01*
X2322Y10525D01*
X2368Y10494D01*
X2421Y10484D01*
X2475Y10494D01*
X2498Y10510D01*
X2548Y10483D01*
Y10439D01*
X3726D01*
Y10809D01*
D02*
G37*
G36*
X27348D02*
X26170D01*
Y10765D01*
X26120Y10738D01*
X26097Y10754D01*
X26043Y10765D01*
X25990Y10754D01*
X25944Y10723D01*
X25942Y10720D01*
X25892Y10735D01*
Y10766D01*
X25628D01*
Y10482D01*
X25892D01*
Y10513D01*
X25942Y10528D01*
X25944Y10525D01*
X25990Y10494D01*
X26043Y10484D01*
X26097Y10494D01*
X26120Y10510D01*
X26170Y10483D01*
Y10439D01*
X27348D01*
Y10809D01*
D02*
G37*
G36*
X29829Y10766D02*
X29736D01*
Y10663D01*
X29829D01*
Y10766D01*
D02*
G37*
G36*
X29657D02*
X29565D01*
Y10663D01*
X29657D01*
Y10766D01*
D02*
G37*
G36*
X25553Y10766D02*
X25461D01*
Y10663D01*
X25553D01*
Y10766D01*
D02*
G37*
G36*
X1931D02*
X1839D01*
Y10663D01*
X1931D01*
Y10766D01*
D02*
G37*
G36*
X25382D02*
X25289D01*
Y10663D01*
X25382D01*
Y10766D01*
D02*
G37*
G36*
X1760D02*
X1667D01*
Y10663D01*
X1760D01*
Y10766D01*
D02*
G37*
G36*
X6207D02*
X6114D01*
Y10663D01*
X6207D01*
Y10766D01*
D02*
G37*
G36*
X6035D02*
X5943D01*
Y10663D01*
X6035D01*
Y10766D01*
D02*
G37*
G36*
X22976Y10679D02*
X22874D01*
Y10587D01*
X22976D01*
Y10679D01*
D02*
G37*
G36*
X22795D02*
X22693D01*
Y10587D01*
X22795D01*
Y10679D01*
D02*
G37*
G36*
X29829Y10585D02*
X29736D01*
Y10482D01*
X29829D01*
Y10585D01*
D02*
G37*
G36*
X29657D02*
X29565D01*
Y10482D01*
X29657D01*
Y10585D01*
D02*
G37*
G36*
X28948Y10809D02*
X27770D01*
Y10439D01*
X28948D01*
Y10483D01*
X28998Y10510D01*
X29021Y10494D01*
X29075Y10484D01*
X29129Y10494D01*
X29174Y10525D01*
X29176Y10528D01*
X29226Y10513D01*
Y10482D01*
X29490D01*
Y10766D01*
X29226D01*
Y10735D01*
X29176Y10720D01*
X29174Y10723D01*
X29129Y10754D01*
X29075Y10765D01*
X29021Y10754D01*
X28998Y10738D01*
X28948Y10765D01*
Y10809D01*
D02*
G37*
G36*
X25553Y10585D02*
X25461D01*
Y10482D01*
X25553D01*
Y10585D01*
D02*
G37*
G36*
X25382D02*
X25289D01*
Y10482D01*
X25382D01*
Y10585D01*
D02*
G37*
G36*
X6207Y10585D02*
X6114D01*
Y10482D01*
X6207D01*
Y10585D01*
D02*
G37*
G36*
X6035D02*
X5943D01*
Y10482D01*
X6035D01*
Y10585D01*
D02*
G37*
G36*
X5326Y10809D02*
X4148D01*
Y10439D01*
X5326D01*
Y10508D01*
X5339Y10517D01*
X5376Y10530D01*
X5411Y10506D01*
X5465Y10495D01*
X5518Y10506D01*
X5554Y10530D01*
X5589Y10519D01*
X5604Y10508D01*
Y10482D01*
X5868D01*
Y10766D01*
X5604D01*
Y10764D01*
X5589Y10753D01*
X5554Y10742D01*
X5518Y10766D01*
X5465Y10776D01*
X5411Y10766D01*
X5376Y10742D01*
X5339Y10754D01*
X5326Y10764D01*
Y10809D01*
D02*
G37*
G36*
X1931Y10585D02*
X1839D01*
Y10482D01*
X1931D01*
Y10585D01*
D02*
G37*
G36*
X1760D02*
X1667D01*
Y10482D01*
X1760D01*
Y10585D01*
D02*
G37*
G36*
X19478Y10522D02*
X19386D01*
Y10419D01*
X19478D01*
Y10522D01*
D02*
G37*
G36*
X19307D02*
X19215D01*
Y10419D01*
X19307D01*
Y10522D01*
D02*
G37*
G36*
X22126Y10591D02*
X21299D01*
Y9921D01*
X22115D01*
X22126Y9921D01*
X22165Y9896D01*
Y9762D01*
X22480D01*
Y9998D01*
X22176D01*
X22165Y9998D01*
X22126Y10024D01*
Y10236D01*
X22165Y10262D01*
X22176Y10262D01*
X22439D01*
X22476Y10262D01*
X22525Y10250D01*
X22525Y10250D01*
X22579Y10239D01*
X22633Y10250D01*
X22643Y10257D01*
X22693Y10248D01*
Y10248D01*
X22693Y10248D01*
X22976D01*
Y10512D01*
X22693D01*
X22693Y10512D01*
Y10512D01*
X22643Y10503D01*
X22633Y10510D01*
X22579Y10520D01*
X22525Y10510D01*
X22525Y10510D01*
X22476Y10498D01*
X22439Y10498D01*
X22176D01*
X22165Y10498D01*
X22126Y10524D01*
Y10591D01*
D02*
G37*
G36*
X19478Y10341D02*
X19386D01*
Y10238D01*
X19478D01*
Y10341D01*
D02*
G37*
G36*
X19307D02*
X19215D01*
Y10238D01*
X19307D01*
Y10341D01*
D02*
G37*
G36*
X27348Y10309D02*
X26170D01*
Y10265D01*
X26120Y10238D01*
X26097Y10254D01*
X26043Y10265D01*
X25990Y10254D01*
X25944Y10223D01*
X25942Y10220D01*
X25892Y10235D01*
Y10266D01*
X25628D01*
Y9982D01*
X25892D01*
Y10013D01*
X25942Y10028D01*
X25944Y10025D01*
X25990Y9994D01*
X26043Y9984D01*
X26097Y9994D01*
X26120Y10010D01*
X26170Y9983D01*
Y9939D01*
X27348D01*
Y10309D01*
D02*
G37*
G36*
X3726D02*
X2548D01*
Y10265D01*
X2498Y10238D01*
X2475Y10254D01*
X2421Y10265D01*
X2367Y10254D01*
X2322Y10223D01*
X2320Y10220D01*
X2270Y10235D01*
Y10266D01*
X2006D01*
Y9982D01*
X2270D01*
Y10013D01*
X2320Y10028D01*
X2322Y10025D01*
X2367Y9994D01*
X2421Y9984D01*
X2475Y9994D01*
X2498Y10010D01*
X2548Y9983D01*
Y9939D01*
X3726D01*
Y10309D01*
D02*
G37*
G36*
X29829Y10266D02*
X29736D01*
Y10163D01*
X29829D01*
Y10266D01*
D02*
G37*
G36*
X29657D02*
X29565D01*
Y10163D01*
X29657D01*
Y10266D01*
D02*
G37*
G36*
X1931Y10266D02*
X1839D01*
Y10163D01*
X1931D01*
Y10266D01*
D02*
G37*
G36*
X25553D02*
X25461D01*
Y10163D01*
X25553D01*
Y10266D01*
D02*
G37*
G36*
X1760D02*
X1667D01*
Y10163D01*
X1760D01*
Y10266D01*
D02*
G37*
G36*
X25382D02*
X25289D01*
Y10163D01*
X25382D01*
Y10266D01*
D02*
G37*
G36*
X6207Y10266D02*
X6114D01*
Y10163D01*
X6207D01*
Y10266D01*
D02*
G37*
G36*
X6035D02*
X5943D01*
Y10163D01*
X6035D01*
Y10266D01*
D02*
G37*
G36*
X29829Y10085D02*
X29736D01*
Y9982D01*
X29829D01*
Y10085D01*
D02*
G37*
G36*
X29657D02*
X29565D01*
Y9982D01*
X29657D01*
Y10085D01*
D02*
G37*
G36*
X28948Y10309D02*
X27770D01*
Y9939D01*
X28948D01*
Y9983D01*
X28998Y10010D01*
X29021Y9994D01*
X29075Y9984D01*
X29129Y9994D01*
X29174Y10025D01*
X29176Y10028D01*
X29226Y10013D01*
Y9982D01*
X29490D01*
Y10266D01*
X29226D01*
Y10235D01*
X29176Y10220D01*
X29174Y10223D01*
X29129Y10254D01*
X29075Y10265D01*
X29021Y10254D01*
X28998Y10238D01*
X28948Y10265D01*
Y10309D01*
D02*
G37*
G36*
X6207Y10085D02*
X6114D01*
Y9982D01*
X6207D01*
Y10085D01*
D02*
G37*
G36*
X6035D02*
X5943D01*
Y9982D01*
X6035D01*
Y10085D01*
D02*
G37*
G36*
X5326Y10309D02*
X4148D01*
Y9939D01*
X5326D01*
Y9983D01*
X5376Y10010D01*
X5399Y9994D01*
X5453Y9984D01*
X5507Y9994D01*
X5552Y10025D01*
X5554Y10028D01*
X5604Y10013D01*
Y9982D01*
X5868D01*
Y10266D01*
X5604D01*
Y10235D01*
X5554Y10220D01*
X5552Y10223D01*
X5507Y10254D01*
X5453Y10265D01*
X5399Y10254D01*
X5376Y10238D01*
X5326Y10265D01*
Y10309D01*
D02*
G37*
G36*
X25553Y10085D02*
X25461D01*
Y9982D01*
X25553D01*
Y10085D01*
D02*
G37*
G36*
X25382D02*
X25289D01*
Y9982D01*
X25382D01*
Y10085D01*
D02*
G37*
G36*
X1931D02*
X1839D01*
Y9982D01*
X1931D01*
Y10085D01*
D02*
G37*
G36*
X1760D02*
X1667D01*
Y9982D01*
X1760D01*
Y10085D01*
D02*
G37*
G36*
X19817Y11522D02*
Y11522D01*
X19553D01*
Y11238D01*
X19605D01*
Y11022D01*
X19553D01*
Y10738D01*
X19774D01*
X19785Y10729D01*
X19808Y10688D01*
X19800Y10650D01*
X19806Y10624D01*
X19703Y10522D01*
X19553D01*
Y10238D01*
X19776D01*
X19787Y10227D01*
X19809Y10188D01*
X19800Y10148D01*
X19805Y10124D01*
X19703Y10022D01*
X19553D01*
Y9738D01*
X19817D01*
Y9908D01*
X19920Y10011D01*
X19941Y10007D01*
X19995Y10018D01*
X19996Y10019D01*
X19999Y10020D01*
X20039Y9988D01*
X20039Y9955D01*
Y9762D01*
X20354D01*
Y9896D01*
X20394Y9921D01*
X20404Y9921D01*
X21220D01*
Y10630D01*
Y11339D01*
X20404D01*
X20394Y11339D01*
X20354Y11364D01*
Y11498D01*
X20039D01*
X20039Y11498D01*
X19995Y11510D01*
X19995Y11510D01*
X19995Y11510D01*
X19941Y11520D01*
X19887Y11510D01*
X19867Y11496D01*
X19817Y11522D01*
D02*
G37*
G36*
X19478Y10022D02*
X19386D01*
Y9919D01*
X19478D01*
Y10022D01*
D02*
G37*
G36*
X19307D02*
X19215D01*
Y9919D01*
X19307D01*
Y10022D01*
D02*
G37*
G36*
X14449Y10630D02*
X13799D01*
Y9764D01*
X14449D01*
Y10630D01*
D02*
G37*
G36*
X9035D02*
X8386D01*
Y9764D01*
X9035D01*
Y10630D01*
D02*
G37*
G36*
X19478Y9841D02*
X19386D01*
Y9738D01*
X19478D01*
Y9841D01*
D02*
G37*
G36*
X19307D02*
X19215D01*
Y9738D01*
X19307D01*
Y9841D01*
D02*
G37*
G36*
X27348Y9809D02*
X26170D01*
Y9765D01*
X26120Y9738D01*
X26097Y9754D01*
X26043Y9765D01*
X25990Y9754D01*
X25944Y9723D01*
X25942Y9720D01*
X25892Y9735D01*
Y9766D01*
X25628D01*
Y9482D01*
X25892D01*
Y9513D01*
X25942Y9528D01*
X25944Y9525D01*
X25990Y9494D01*
X26043Y9484D01*
X26097Y9494D01*
X26120Y9510D01*
X26170Y9483D01*
Y9439D01*
X27348D01*
Y9809D01*
D02*
G37*
G36*
X3726D02*
X2548D01*
Y9765D01*
X2498Y9738D01*
X2475Y9754D01*
X2421Y9765D01*
X2367Y9754D01*
X2322Y9723D01*
X2320Y9720D01*
X2270Y9735D01*
Y9766D01*
X2006D01*
Y9482D01*
X2270D01*
Y9513D01*
X2320Y9528D01*
X2322Y9525D01*
X2367Y9494D01*
X2421Y9484D01*
X2475Y9494D01*
X2498Y9510D01*
X2548Y9483D01*
Y9439D01*
X3726D01*
Y9809D01*
D02*
G37*
G36*
X29829Y9766D02*
X29736D01*
Y9663D01*
X29829D01*
Y9766D01*
D02*
G37*
G36*
X29657D02*
X29565D01*
Y9663D01*
X29657D01*
Y9766D01*
D02*
G37*
G36*
X25553Y9766D02*
X25461D01*
Y9663D01*
X25553D01*
Y9766D01*
D02*
G37*
G36*
X1931D02*
X1839D01*
Y9663D01*
X1931D01*
Y9766D01*
D02*
G37*
G36*
X25382D02*
X25289D01*
Y9663D01*
X25382D01*
Y9766D01*
D02*
G37*
G36*
X1760D02*
X1667D01*
Y9663D01*
X1760D01*
Y9766D01*
D02*
G37*
G36*
X6207Y9766D02*
X6114D01*
Y9663D01*
X6207D01*
Y9766D01*
D02*
G37*
G36*
X6035D02*
X5943D01*
Y9663D01*
X6035D01*
Y9766D01*
D02*
G37*
G36*
X18307Y9695D02*
X18110D01*
Y9606D01*
X18307D01*
Y9695D01*
D02*
G37*
G36*
X18032D02*
X17835D01*
Y9606D01*
X18032D01*
Y9695D01*
D02*
G37*
G36*
X29829Y9585D02*
X29736D01*
Y9482D01*
X29829D01*
Y9585D01*
D02*
G37*
G36*
X29657D02*
X29565D01*
Y9482D01*
X29657D01*
Y9585D01*
D02*
G37*
G36*
X28948Y9809D02*
X27770D01*
Y9439D01*
X28948D01*
Y9483D01*
X28998Y9510D01*
X29021Y9494D01*
X29075Y9484D01*
X29129Y9494D01*
X29174Y9525D01*
X29176Y9528D01*
X29226Y9513D01*
Y9482D01*
X29490D01*
Y9766D01*
X29226D01*
Y9735D01*
X29176Y9720D01*
X29174Y9723D01*
X29129Y9754D01*
X29075Y9765D01*
X29021Y9754D01*
X28998Y9738D01*
X28948Y9765D01*
Y9809D01*
D02*
G37*
G36*
X6207Y9585D02*
X6114D01*
Y9482D01*
X6207D01*
Y9585D01*
D02*
G37*
G36*
X6035D02*
X5943D01*
Y9482D01*
X6035D01*
Y9585D01*
D02*
G37*
G36*
X5326Y9809D02*
X4148D01*
Y9439D01*
X5326D01*
Y9483D01*
X5376Y9510D01*
X5399Y9494D01*
X5453Y9484D01*
X5507Y9494D01*
X5552Y9525D01*
X5554Y9528D01*
X5604Y9513D01*
Y9482D01*
X5868D01*
Y9766D01*
X5604D01*
Y9735D01*
X5554Y9720D01*
X5552Y9723D01*
X5507Y9754D01*
X5453Y9765D01*
X5399Y9754D01*
X5376Y9738D01*
X5326Y9765D01*
Y9809D01*
D02*
G37*
G36*
X25553Y9585D02*
X25461D01*
Y9482D01*
X25553D01*
Y9585D01*
D02*
G37*
G36*
X25382D02*
X25289D01*
Y9482D01*
X25382D01*
Y9585D01*
D02*
G37*
G36*
X1931D02*
X1839D01*
Y9482D01*
X1931D01*
Y9585D01*
D02*
G37*
G36*
X1760D02*
X1667D01*
Y9482D01*
X1760D01*
Y9585D01*
D02*
G37*
G36*
X27348Y9309D02*
X26170D01*
Y9265D01*
X26120Y9238D01*
X26097Y9254D01*
X26043Y9265D01*
X25990Y9254D01*
X25944Y9223D01*
X25942Y9220D01*
X25892Y9235D01*
Y9266D01*
X25628D01*
Y8982D01*
X25892D01*
Y9013D01*
X25942Y9028D01*
X25944Y9025D01*
X25990Y8994D01*
X26043Y8984D01*
X26097Y8994D01*
X26120Y9010D01*
X26170Y8983D01*
Y8939D01*
X27348D01*
Y9309D01*
D02*
G37*
G36*
X3726D02*
X2548D01*
Y9265D01*
X2498Y9238D01*
X2475Y9254D01*
X2421Y9265D01*
X2367Y9254D01*
X2322Y9223D01*
X2320Y9220D01*
X2270Y9235D01*
Y9266D01*
X2006D01*
Y8982D01*
X2270D01*
Y9013D01*
X2320Y9028D01*
X2322Y9025D01*
X2367Y8994D01*
X2421Y8984D01*
X2475Y8994D01*
X2498Y9010D01*
X2548Y8983D01*
Y8939D01*
X3726D01*
Y9309D01*
D02*
G37*
G36*
X21526Y9256D02*
X21262D01*
Y9194D01*
X20443D01*
Y9232D01*
X20207D01*
Y8996D01*
X20443D01*
Y9034D01*
X21262D01*
Y8972D01*
X21526D01*
Y9256D01*
D02*
G37*
G36*
X29829Y9266D02*
X29736D01*
Y9163D01*
X29829D01*
Y9266D01*
D02*
G37*
G36*
X29657D02*
X29565D01*
Y9163D01*
X29657D01*
Y9266D01*
D02*
G37*
G36*
X25553Y9266D02*
X25461D01*
Y9163D01*
X25553D01*
Y9266D01*
D02*
G37*
G36*
X1931D02*
X1839D01*
Y9163D01*
X1931D01*
Y9266D01*
D02*
G37*
G36*
X25382D02*
X25289D01*
Y9163D01*
X25382D01*
Y9266D01*
D02*
G37*
G36*
X1760D02*
X1667D01*
Y9163D01*
X1760D01*
Y9266D01*
D02*
G37*
G36*
X6207Y9266D02*
X6114D01*
Y9163D01*
X6207D01*
Y9266D01*
D02*
G37*
G36*
X6035D02*
X5943D01*
Y9163D01*
X6035D01*
Y9266D01*
D02*
G37*
G36*
X29829Y9085D02*
X29736D01*
Y8982D01*
X29829D01*
Y9085D01*
D02*
G37*
G36*
X29657D02*
X29565D01*
Y8982D01*
X29657D01*
Y9085D01*
D02*
G37*
G36*
X28948Y9309D02*
X27770D01*
Y8939D01*
X28948D01*
Y8983D01*
X28998Y9010D01*
X29021Y8994D01*
X29075Y8984D01*
X29129Y8994D01*
X29174Y9025D01*
X29176Y9028D01*
X29226Y9013D01*
Y8982D01*
X29490D01*
Y9266D01*
X29226D01*
Y9235D01*
X29176Y9220D01*
X29174Y9223D01*
X29129Y9254D01*
X29075Y9265D01*
X29021Y9254D01*
X28998Y9238D01*
X28948Y9265D01*
Y9309D01*
D02*
G37*
G36*
X6207Y9085D02*
X6114D01*
Y8982D01*
X6207D01*
Y9085D01*
D02*
G37*
G36*
X6035D02*
X5943D01*
Y8982D01*
X6035D01*
Y9085D01*
D02*
G37*
G36*
X5326Y9309D02*
X4148D01*
Y8939D01*
X5326D01*
Y8983D01*
X5376Y9010D01*
X5399Y8994D01*
X5453Y8984D01*
X5507Y8994D01*
X5552Y9025D01*
X5554Y9028D01*
X5604Y9013D01*
Y8982D01*
X5868D01*
Y9266D01*
X5604D01*
Y9235D01*
X5554Y9220D01*
X5552Y9223D01*
X5507Y9254D01*
X5453Y9265D01*
X5399Y9254D01*
X5376Y9238D01*
X5326Y9265D01*
Y9309D01*
D02*
G37*
G36*
X25553Y9085D02*
X25461D01*
Y8982D01*
X25553D01*
Y9085D01*
D02*
G37*
G36*
X25382D02*
X25289D01*
Y8982D01*
X25382D01*
Y9085D01*
D02*
G37*
G36*
X1931D02*
X1839D01*
Y8982D01*
X1931D01*
Y9085D01*
D02*
G37*
G36*
X1760D02*
X1667D01*
Y8982D01*
X1760D01*
Y9085D01*
D02*
G37*
G36*
X18372Y8988D02*
X18322Y8981D01*
X18291Y8987D01*
X18255Y8980D01*
X18205Y8984D01*
X18205Y8984D01*
X18205Y8984D01*
X17811D01*
Y8709D01*
X18205D01*
X18205Y8709D01*
X18255Y8713D01*
X18291Y8706D01*
X18322Y8712D01*
X18372Y8705D01*
Y8705D01*
X18372Y8705D01*
X18636D01*
Y8988D01*
X18372D01*
X18372Y8988D01*
D02*
G37*
G36*
X21864Y9256D02*
X21600D01*
Y8972D01*
X21864D01*
Y9034D01*
X21925D01*
X21938Y9015D01*
X21984Y8984D01*
X22037Y8974D01*
X22091Y8984D01*
X22137Y9015D01*
X22167Y9060D01*
X22178Y9114D01*
X22167Y9168D01*
X22137Y9214D01*
X22091Y9244D01*
X22037Y9255D01*
X21984Y9244D01*
X21938Y9214D01*
X21925Y9194D01*
X21864D01*
Y9256D01*
D02*
G37*
G36*
X19484Y9004D02*
X19386D01*
Y8886D01*
X19484D01*
Y9004D01*
D02*
G37*
G36*
X19307D02*
X19209D01*
Y8886D01*
X19307D01*
Y9004D01*
D02*
G37*
G36*
X17181Y8984D02*
X16787D01*
Y8927D01*
X16671D01*
X16641Y8921D01*
X16614Y8903D01*
X16614Y8903D01*
X16558Y8847D01*
X16535Y8851D01*
X16482Y8840D01*
X16436Y8810D01*
X16406Y8764D01*
X16395Y8711D01*
X16406Y8657D01*
X16431Y8619D01*
X16422Y8589D01*
X16410Y8569D01*
X16394D01*
Y8305D01*
X16677D01*
Y8569D01*
X16661D01*
X16648Y8589D01*
X16640Y8619D01*
X16665Y8657D01*
X16676Y8711D01*
X16672Y8730D01*
X16705Y8766D01*
X16787D01*
Y8709D01*
X17181D01*
Y8984D01*
D02*
G37*
G36*
X21864Y8902D02*
X21772D01*
Y8799D01*
X21864D01*
Y8902D01*
D02*
G37*
G36*
X21693D02*
X21600D01*
Y8799D01*
X21693D01*
Y8902D01*
D02*
G37*
G36*
X27348Y8809D02*
X26170D01*
Y8765D01*
X26120Y8738D01*
X26097Y8754D01*
X26043Y8765D01*
X25990Y8754D01*
X25944Y8723D01*
X25942Y8720D01*
X25892Y8735D01*
Y8766D01*
X25628D01*
Y8482D01*
X25892D01*
Y8513D01*
X25942Y8528D01*
X25944Y8525D01*
X25990Y8494D01*
X26043Y8484D01*
X26097Y8494D01*
X26120Y8510D01*
X26170Y8483D01*
Y8439D01*
X27348D01*
Y8809D01*
D02*
G37*
G36*
X3726D02*
X2548D01*
Y8765D01*
X2498Y8738D01*
X2475Y8754D01*
X2421Y8765D01*
X2367Y8754D01*
X2322Y8723D01*
X2320Y8720D01*
X2270Y8735D01*
Y8766D01*
X2006D01*
Y8482D01*
X2270D01*
Y8513D01*
X2320Y8528D01*
X2322Y8525D01*
X2367Y8494D01*
X2421Y8484D01*
X2475Y8494D01*
X2498Y8510D01*
X2548Y8483D01*
Y8439D01*
X3726D01*
Y8809D01*
D02*
G37*
G36*
X19484Y8807D02*
X19386D01*
Y8689D01*
X19484D01*
Y8807D01*
D02*
G37*
G36*
X19307D02*
X19209D01*
Y8689D01*
X19307D01*
Y8807D01*
D02*
G37*
G36*
X21526Y8902D02*
X21262D01*
Y8840D01*
X20910D01*
X20879Y8834D01*
X20853Y8817D01*
X20853Y8817D01*
X20743Y8707D01*
X20726Y8681D01*
X20712Y8676D01*
X20673Y8673D01*
X20591Y8755D01*
Y8878D01*
X20354D01*
Y8642D01*
X20477D01*
X20527Y8592D01*
X20531Y8543D01*
X20531D01*
Y8268D01*
X20886D01*
Y8543D01*
X20880D01*
Y8617D01*
X20943Y8680D01*
X21262D01*
Y8618D01*
X21526D01*
Y8902D01*
D02*
G37*
G36*
X29829Y8766D02*
X29736D01*
Y8663D01*
X29829D01*
Y8766D01*
D02*
G37*
G36*
X29657D02*
X29565D01*
Y8663D01*
X29657D01*
Y8766D01*
D02*
G37*
G36*
X25553Y8766D02*
X25461D01*
Y8663D01*
X25553D01*
Y8766D01*
D02*
G37*
G36*
X1931D02*
X1839D01*
Y8663D01*
X1931D01*
Y8766D01*
D02*
G37*
G36*
X25382D02*
X25289D01*
Y8663D01*
X25382D01*
Y8766D01*
D02*
G37*
G36*
X1760D02*
X1667D01*
Y8663D01*
X1760D01*
Y8766D01*
D02*
G37*
G36*
X6207Y8766D02*
X6114D01*
Y8663D01*
X6207D01*
Y8766D01*
D02*
G37*
G36*
X6035D02*
X5943D01*
Y8663D01*
X6035D01*
Y8766D01*
D02*
G37*
G36*
X19839Y9004D02*
X19563D01*
Y8689D01*
X19732D01*
X19737Y8686D01*
X19768Y8680D01*
X20059D01*
Y8642D01*
X20295D01*
Y8878D01*
X20059D01*
Y8840D01*
X19839D01*
Y9004D01*
D02*
G37*
G36*
X21864Y8720D02*
X21772D01*
Y8618D01*
X21864D01*
Y8720D01*
D02*
G37*
G36*
X21693D02*
X21600D01*
Y8618D01*
X21693D01*
Y8720D01*
D02*
G37*
G36*
X10772Y8648D02*
X10669D01*
Y8555D01*
X10772D01*
Y8648D01*
D02*
G37*
G36*
X10591D02*
X10488D01*
Y8555D01*
X10591D01*
Y8648D01*
D02*
G37*
G36*
X18205Y8610D02*
X18047D01*
Y8512D01*
X18205D01*
Y8610D01*
D02*
G37*
G36*
X17968D02*
X17811D01*
Y8512D01*
X17968D01*
Y8610D01*
D02*
G37*
G36*
X29829Y8585D02*
X29736D01*
Y8482D01*
X29829D01*
Y8585D01*
D02*
G37*
G36*
X29657D02*
X29565D01*
Y8482D01*
X29657D01*
Y8585D01*
D02*
G37*
G36*
X28948Y8809D02*
X27770D01*
Y8439D01*
X28948D01*
Y8483D01*
X28998Y8510D01*
X29021Y8494D01*
X29075Y8484D01*
X29129Y8494D01*
X29174Y8525D01*
X29176Y8528D01*
X29226Y8513D01*
Y8482D01*
X29490D01*
Y8766D01*
X29226D01*
Y8735D01*
X29176Y8720D01*
X29174Y8723D01*
X29129Y8754D01*
X29075Y8765D01*
X29021Y8754D01*
X28998Y8738D01*
X28948Y8765D01*
Y8809D01*
D02*
G37*
G36*
X6207Y8585D02*
X6114D01*
Y8482D01*
X6207D01*
Y8585D01*
D02*
G37*
G36*
X6035D02*
X5943D01*
Y8482D01*
X6035D01*
Y8585D01*
D02*
G37*
G36*
X5326Y8809D02*
X4148D01*
Y8439D01*
X5326D01*
Y8483D01*
X5376Y8510D01*
X5399Y8494D01*
X5453Y8484D01*
X5507Y8494D01*
X5552Y8525D01*
X5554Y8528D01*
X5604Y8513D01*
Y8482D01*
X5868D01*
Y8766D01*
X5604D01*
Y8735D01*
X5554Y8720D01*
X5552Y8723D01*
X5507Y8754D01*
X5453Y8765D01*
X5399Y8754D01*
X5376Y8738D01*
X5326Y8765D01*
Y8809D01*
D02*
G37*
G36*
X25553Y8585D02*
X25461D01*
Y8482D01*
X25553D01*
Y8585D01*
D02*
G37*
G36*
X25382D02*
X25289D01*
Y8482D01*
X25382D01*
Y8585D01*
D02*
G37*
G36*
X1931D02*
X1839D01*
Y8482D01*
X1931D01*
Y8585D01*
D02*
G37*
G36*
X1760D02*
X1667D01*
Y8482D01*
X1760D01*
Y8585D01*
D02*
G37*
G36*
X16303Y8569D02*
X16201D01*
Y8476D01*
X16303D01*
Y8569D01*
D02*
G37*
G36*
X15496D02*
X15394D01*
Y8476D01*
X15496D01*
Y8569D01*
D02*
G37*
G36*
X15929D02*
X15827D01*
Y8476D01*
X15929D01*
Y8569D01*
D02*
G37*
G36*
X16122D02*
X16020D01*
Y8476D01*
X16122D01*
Y8569D01*
D02*
G37*
G36*
X15315D02*
X15213D01*
Y8476D01*
X15315D01*
Y8569D01*
D02*
G37*
G36*
X15748D02*
X15646D01*
Y8476D01*
X15748D01*
Y8569D01*
D02*
G37*
G36*
X13465Y8661D02*
X13110D01*
Y8386D01*
X13465D01*
Y8661D01*
D02*
G37*
G36*
X13032D02*
X12677D01*
Y8386D01*
X13032D01*
Y8661D01*
D02*
G37*
G36*
X10772Y8476D02*
X10669D01*
Y8384D01*
X10772D01*
Y8476D01*
D02*
G37*
G36*
X10591D02*
X10488D01*
Y8384D01*
X10591D01*
Y8476D01*
D02*
G37*
G36*
X18205Y8433D02*
X18047D01*
Y8335D01*
X18205D01*
Y8433D01*
D02*
G37*
G36*
X17968D02*
X17811D01*
Y8335D01*
X17968D01*
Y8433D01*
D02*
G37*
G36*
X16303Y8398D02*
X16201D01*
Y8305D01*
X16303D01*
Y8398D01*
D02*
G37*
G36*
X16122D02*
X16020D01*
Y8305D01*
X16122D01*
Y8398D01*
D02*
G37*
G36*
X15929D02*
X15827D01*
Y8305D01*
X15929D01*
Y8398D01*
D02*
G37*
G36*
X15748D02*
X15646D01*
Y8305D01*
X15748D01*
Y8398D01*
D02*
G37*
G36*
X15496D02*
X15394D01*
Y8305D01*
X15496D01*
Y8398D01*
D02*
G37*
G36*
X15315D02*
X15213D01*
Y8305D01*
X15315D01*
Y8398D01*
D02*
G37*
G36*
X20413Y8543D02*
X20059D01*
Y8268D01*
X20413D01*
Y8543D01*
D02*
G37*
G36*
X21864Y8547D02*
X21600D01*
Y8264D01*
X21864D01*
Y8325D01*
X21925D01*
X21938Y8306D01*
X21984Y8276D01*
X22037Y8265D01*
X22091Y8276D01*
X22137Y8306D01*
X22167Y8352D01*
X22178Y8406D01*
X22167Y8459D01*
X22137Y8505D01*
X22091Y8535D01*
X22037Y8546D01*
X21984Y8535D01*
X21938Y8505D01*
X21925Y8486D01*
X21864D01*
Y8547D01*
D02*
G37*
G36*
X11732Y8661D02*
X10945D01*
Y8257D01*
X10772D01*
Y8309D01*
X10488D01*
Y8159D01*
X10376Y8047D01*
X10359Y8021D01*
X10353Y7990D01*
Y6791D01*
X10276D01*
Y6555D01*
Y6319D01*
X10678D01*
X10728Y6319D01*
X10746Y6276D01*
Y6097D01*
X10727Y6084D01*
X10697Y6038D01*
X10686Y5985D01*
X10697Y5931D01*
X10727Y5885D01*
X10773Y5855D01*
X10827Y5844D01*
X10881Y5855D01*
X10926Y5885D01*
X10957Y5931D01*
X10967Y5985D01*
X10965Y5996D01*
X10998Y6033D01*
X11049D01*
X11082Y5996D01*
X11080Y5985D01*
X11091Y5931D01*
X11121Y5885D01*
X11167Y5855D01*
X11220Y5844D01*
X11274Y5855D01*
X11320Y5885D01*
X11350Y5931D01*
X11361Y5985D01*
X11358Y6000D01*
X11400Y6043D01*
X11412Y6041D01*
X11435Y6045D01*
X11477Y6003D01*
X11474Y5985D01*
X11484Y5931D01*
X11515Y5885D01*
X11560Y5855D01*
X11614Y5844D01*
X11668Y5855D01*
X11714Y5885D01*
X11744Y5931D01*
X11755Y5985D01*
X11753Y5996D01*
X11786Y6033D01*
X11836D01*
X11870Y5996D01*
X11867Y5985D01*
X11878Y5931D01*
X11909Y5885D01*
X11954Y5855D01*
X12008Y5844D01*
X12062Y5855D01*
X12107Y5885D01*
X12138Y5931D01*
X12148Y5985D01*
X12146Y5996D01*
X12180Y6033D01*
X12230D01*
X12263Y5996D01*
X12261Y5985D01*
X12272Y5931D01*
X12302Y5885D01*
X12348Y5855D01*
X12402Y5844D01*
X12455Y5855D01*
X12501Y5885D01*
X12531Y5931D01*
X12542Y5985D01*
X12539Y6001D01*
X12581Y6044D01*
X12598Y6041D01*
X12616Y6044D01*
X12658Y6001D01*
X12655Y5985D01*
X12665Y5931D01*
X12696Y5885D01*
X12742Y5855D01*
X12795Y5844D01*
X12849Y5855D01*
X12895Y5885D01*
X12925Y5931D01*
X12936Y5985D01*
X12934Y5996D01*
X12967Y6033D01*
X13017D01*
X13051Y5996D01*
X13048Y5985D01*
X13059Y5931D01*
X13090Y5885D01*
X13135Y5855D01*
X13189Y5844D01*
X13243Y5855D01*
X13288Y5885D01*
X13319Y5931D01*
X13329Y5985D01*
X13326Y6001D01*
X13369Y6044D01*
X13386Y6041D01*
X13403Y6044D01*
X13446Y6001D01*
X13442Y5985D01*
X13453Y5931D01*
X13483Y5885D01*
X13529Y5855D01*
X13583Y5844D01*
X13636Y5855D01*
X13682Y5885D01*
X13712Y5931D01*
X13723Y5985D01*
X13712Y6038D01*
X13682Y6084D01*
X13663Y6097D01*
Y6276D01*
X13681Y6319D01*
X13731Y6319D01*
X13878D01*
Y6791D01*
X13681Y6791D01*
X13631Y6791D01*
X13141D01*
X13091Y6791D01*
Y6791D01*
X13091D01*
Y6791D01*
X12747D01*
X12697Y6791D01*
Y6791D01*
X12697D01*
Y6791D01*
X12156D01*
X12106Y6791D01*
Y6791D01*
X12106D01*
Y6791D01*
X11763D01*
X11713Y6791D01*
Y6791D01*
X11713D01*
Y6791D01*
X11172D01*
X11122Y6791D01*
Y6791D01*
X11122D01*
Y6791D01*
X10778D01*
X10728Y6791D01*
X10710Y6834D01*
Y7831D01*
X10742Y7863D01*
X11689D01*
X12207Y7345D01*
X12207Y7345D01*
X12233Y7327D01*
X12264Y7321D01*
X12264Y7321D01*
X12677D01*
Y7087D01*
X13465D01*
Y7152D01*
X13638D01*
Y7100D01*
X13921D01*
Y7364D01*
X13638D01*
Y7313D01*
X13465D01*
Y7717D01*
X12677D01*
Y7482D01*
X12297D01*
X11779Y8000D01*
X11771Y8005D01*
X11732Y8031D01*
Y8661D01*
D02*
G37*
G36*
X27348Y8309D02*
X26170D01*
Y8265D01*
X26120Y8238D01*
X26097Y8254D01*
X26043Y8265D01*
X25990Y8254D01*
X25944Y8223D01*
X25942Y8220D01*
X25892Y8235D01*
Y8266D01*
X25628D01*
Y7982D01*
X25892D01*
Y8013D01*
X25942Y8028D01*
X25944Y8025D01*
X25990Y7994D01*
X26043Y7984D01*
X26097Y7994D01*
X26120Y8010D01*
X26170Y7983D01*
Y7939D01*
X27348D01*
Y8309D01*
D02*
G37*
G36*
X3726D02*
X2548D01*
Y8265D01*
X2498Y8238D01*
X2475Y8254D01*
X2421Y8265D01*
X2367Y8254D01*
X2322Y8223D01*
X2320Y8220D01*
X2270Y8235D01*
Y8266D01*
X2006D01*
Y7982D01*
X2270D01*
Y8013D01*
X2320Y8028D01*
X2322Y8025D01*
X2367Y7994D01*
X2421Y7984D01*
X2475Y7994D01*
X2498Y8010D01*
X2548Y7983D01*
Y7939D01*
X3726D01*
Y8309D01*
D02*
G37*
G36*
X18372Y8240D02*
X18322Y8233D01*
X18291Y8239D01*
X18255Y8232D01*
X18205Y8236D01*
X18205Y8236D01*
X18205Y8236D01*
X17811D01*
Y7961D01*
X18205D01*
X18205Y7961D01*
X18255Y7965D01*
X18291Y7958D01*
X18322Y7964D01*
X18372Y7957D01*
Y7957D01*
X18372Y7957D01*
X18636D01*
Y8240D01*
X18372D01*
X18372Y8240D01*
D02*
G37*
G36*
X16303Y8230D02*
X16020D01*
Y8179D01*
X15929D01*
Y8230D01*
X15646D01*
Y7967D01*
X15929D01*
Y8018D01*
X16020D01*
Y7967D01*
X16081D01*
Y7717D01*
X16024D01*
Y7323D01*
X16070D01*
Y7250D01*
X16076Y7219D01*
X16093Y7193D01*
X16193Y7093D01*
X16193Y7093D01*
X16219Y7076D01*
X16250Y7070D01*
X16742D01*
X16787Y7059D01*
X16787Y7020D01*
Y6967D01*
X16929D01*
X17071D01*
Y7059D01*
X17116Y7070D01*
X17117D01*
X17243Y6944D01*
Y6850D01*
X17185D01*
Y6457D01*
X17461D01*
Y6850D01*
X17403D01*
Y6977D01*
X17397Y7008D01*
X17380Y7034D01*
X17207Y7207D01*
X17181Y7224D01*
X17150Y7230D01*
X16283D01*
X16241Y7273D01*
X16255Y7323D01*
X16299D01*
Y7717D01*
X16242D01*
Y7967D01*
X16303D01*
Y8230D01*
D02*
G37*
G36*
X29829Y8266D02*
X29736D01*
Y8163D01*
X29829D01*
Y8266D01*
D02*
G37*
G36*
X29657D02*
X29565D01*
Y8163D01*
X29657D01*
Y8266D01*
D02*
G37*
G36*
X1931Y8266D02*
X1839D01*
Y8163D01*
X1931D01*
Y8266D01*
D02*
G37*
G36*
X25553D02*
X25461D01*
Y8163D01*
X25553D01*
Y8266D01*
D02*
G37*
G36*
X1760D02*
X1667D01*
Y8163D01*
X1760D01*
Y8266D01*
D02*
G37*
G36*
X25382D02*
X25289D01*
Y8163D01*
X25382D01*
Y8266D01*
D02*
G37*
G36*
X6207Y8266D02*
X6114D01*
Y8163D01*
X6207D01*
Y8266D01*
D02*
G37*
G36*
X6035D02*
X5943D01*
Y8163D01*
X6035D01*
Y8266D01*
D02*
G37*
G36*
X16677Y8230D02*
X16575D01*
Y8138D01*
X16677D01*
Y8230D01*
D02*
G37*
G36*
X16496D02*
X16394D01*
Y8138D01*
X16496D01*
Y8230D01*
D02*
G37*
G36*
X19478Y8240D02*
X19386D01*
Y8138D01*
X19478D01*
Y8240D01*
D02*
G37*
G36*
X19307D02*
X19215D01*
Y8138D01*
X19307D01*
Y8240D01*
D02*
G37*
G36*
X21526Y8547D02*
X21262D01*
Y8264D01*
X21313D01*
Y8193D01*
X21262D01*
Y8131D01*
X21163D01*
X21151Y8151D01*
X21105Y8181D01*
X21051Y8192D01*
X20997Y8181D01*
X20952Y8151D01*
X20939Y8131D01*
X20886D01*
Y8189D01*
X20531D01*
Y7913D01*
X20886D01*
Y7971D01*
X20939D01*
X20952Y7952D01*
X20997Y7921D01*
X21051Y7911D01*
X21105Y7921D01*
X21151Y7952D01*
X21163Y7971D01*
X21262D01*
Y7909D01*
X21526D01*
Y8193D01*
X21474D01*
Y8264D01*
X21526D01*
Y8547D01*
D02*
G37*
G36*
X21864Y8193D02*
X21772D01*
Y8091D01*
X21864D01*
Y8193D01*
D02*
G37*
G36*
X21693D02*
X21600D01*
Y8091D01*
X21693D01*
Y8193D01*
D02*
G37*
G36*
X13465Y8307D02*
X13110D01*
Y8031D01*
X13465D01*
Y8307D01*
D02*
G37*
G36*
X13032D02*
X12677D01*
Y8031D01*
X13032D01*
Y8307D01*
D02*
G37*
G36*
X29829Y8085D02*
X29736D01*
Y7982D01*
X29829D01*
Y8085D01*
D02*
G37*
G36*
X29657D02*
X29565D01*
Y7982D01*
X29657D01*
Y8085D01*
D02*
G37*
G36*
X28948Y8309D02*
X27770D01*
Y7939D01*
X28948D01*
Y7983D01*
X28998Y8010D01*
X29021Y7994D01*
X29075Y7984D01*
X29129Y7994D01*
X29174Y8025D01*
X29176Y8028D01*
X29226Y8013D01*
Y7982D01*
X29490D01*
Y8266D01*
X29226D01*
Y8235D01*
X29176Y8220D01*
X29174Y8223D01*
X29129Y8254D01*
X29075Y8265D01*
X29021Y8254D01*
X28998Y8238D01*
X28948Y8265D01*
Y8309D01*
D02*
G37*
G36*
X6207Y8085D02*
X6114D01*
Y7982D01*
X6207D01*
Y8085D01*
D02*
G37*
G36*
X6035D02*
X5943D01*
Y7982D01*
X6035D01*
Y8085D01*
D02*
G37*
G36*
X5326Y8309D02*
X4148D01*
Y7939D01*
X5326D01*
Y7983D01*
X5376Y8010D01*
X5399Y7994D01*
X5453Y7984D01*
X5507Y7994D01*
X5552Y8025D01*
X5554Y8028D01*
X5604Y8013D01*
Y7982D01*
X5868D01*
Y8266D01*
X5604D01*
Y8235D01*
X5554Y8220D01*
X5552Y8223D01*
X5507Y8254D01*
X5453Y8265D01*
X5399Y8254D01*
X5376Y8238D01*
X5326Y8265D01*
Y8309D01*
D02*
G37*
G36*
X25553Y8085D02*
X25461D01*
Y7982D01*
X25553D01*
Y8085D01*
D02*
G37*
G36*
X25382D02*
X25289D01*
Y7982D01*
X25382D01*
Y8085D01*
D02*
G37*
G36*
X1931D02*
X1839D01*
Y7982D01*
X1931D01*
Y8085D01*
D02*
G37*
G36*
X1760D02*
X1667D01*
Y7982D01*
X1760D01*
Y8085D01*
D02*
G37*
G36*
X16677Y8059D02*
X16575D01*
Y7967D01*
X16677D01*
Y8059D01*
D02*
G37*
G36*
X16496D02*
X16394D01*
Y7967D01*
X16496D01*
Y8059D01*
D02*
G37*
G36*
X17181Y8236D02*
X16787D01*
Y7961D01*
X17181D01*
Y8236D01*
D02*
G37*
G36*
X18307Y11230D02*
X18071D01*
X17835D01*
Y11142D01*
X17835Y11092D01*
Y10936D01*
X17835Y10886D01*
X17835D01*
Y10886D01*
X17835D01*
Y10680D01*
X17835Y10630D01*
X17835D01*
Y10630D01*
X17835D01*
Y10424D01*
X17835Y10374D01*
X17835D01*
Y10374D01*
X17835D01*
Y10168D01*
X17835Y10118D01*
X17835D01*
Y10118D01*
X17835D01*
X17835Y9862D01*
X17835Y9812D01*
Y9774D01*
X18071D01*
X18307D01*
Y9861D01*
X18316Y9868D01*
X18357Y9883D01*
X18391Y9860D01*
X18445Y9850D01*
X18499Y9860D01*
X18544Y9891D01*
X18575Y9936D01*
X18585Y9990D01*
X18575Y10044D01*
X18544Y10089D01*
X18539Y10093D01*
Y10143D01*
X18544Y10147D01*
X18575Y10192D01*
X18585Y10246D01*
X18575Y10300D01*
X18544Y10345D01*
X18539Y10349D01*
Y10399D01*
X18544Y10403D01*
X18575Y10448D01*
X18585Y10502D01*
X18575Y10556D01*
X18544Y10601D01*
X18539Y10605D01*
Y10655D01*
X18544Y10659D01*
X18575Y10704D01*
X18585Y10758D01*
X18575Y10812D01*
X18544Y10857D01*
X18552Y10905D01*
X18579Y10934D01*
X18658D01*
X18778Y10813D01*
Y8988D01*
X18711D01*
Y8705D01*
X18762D01*
Y8585D01*
X18743Y8572D01*
X18713Y8526D01*
X18702Y8472D01*
X18713Y8419D01*
X18743Y8373D01*
X18762Y8360D01*
Y8240D01*
X18711D01*
Y7957D01*
X18974D01*
Y8240D01*
X18923D01*
Y8360D01*
X18942Y8373D01*
X18972Y8419D01*
X18983Y8472D01*
X18972Y8526D01*
X18942Y8572D01*
X18923Y8585D01*
Y8705D01*
X18974D01*
Y8988D01*
X18939D01*
Y10846D01*
X18932Y10877D01*
X18915Y10903D01*
X18748Y11071D01*
X18722Y11088D01*
X18691Y11094D01*
X18557D01*
X18544Y11113D01*
X18499Y11144D01*
X18445Y11154D01*
X18391Y11144D01*
X18357Y11121D01*
X18316Y11135D01*
X18307Y11143D01*
X18307Y11192D01*
Y11230D01*
D02*
G37*
G36*
X19478Y8059D02*
X19386D01*
Y7957D01*
X19478D01*
Y8059D01*
D02*
G37*
G36*
X19307D02*
X19215D01*
Y7957D01*
X19307D01*
Y8059D01*
D02*
G37*
G36*
X19817Y8240D02*
X19553D01*
Y7957D01*
X19817D01*
Y7957D01*
X19861Y7970D01*
X19867Y7972D01*
X19907Y7945D01*
X19961Y7934D01*
X20009Y7944D01*
X20024Y7941D01*
X20059Y7922D01*
Y7913D01*
X20413D01*
Y8189D01*
X20059D01*
Y8189D01*
X20047Y8183D01*
X20014Y8205D01*
X19961Y8215D01*
X19907Y8205D01*
X19867Y8178D01*
X19842Y8184D01*
X19817Y8198D01*
Y8240D01*
D02*
G37*
G36*
X21864Y8012D02*
X21772D01*
Y7909D01*
X21864D01*
Y8012D01*
D02*
G37*
G36*
X21693D02*
X21600D01*
Y7909D01*
X21693D01*
Y8012D01*
D02*
G37*
G36*
X21526Y7839D02*
X21262D01*
Y7777D01*
X21163D01*
X21151Y7796D01*
X21105Y7827D01*
X21051Y7837D01*
X20997Y7827D01*
X20952Y7796D01*
X20939Y7777D01*
X20886D01*
Y7835D01*
X20531D01*
Y7559D01*
X20886D01*
Y7617D01*
X20939D01*
X20952Y7598D01*
X20997Y7567D01*
X21051Y7556D01*
X21105Y7567D01*
X21151Y7598D01*
X21163Y7617D01*
X21262D01*
Y7555D01*
X21526D01*
Y7839D01*
D02*
G37*
G36*
X19478Y7846D02*
X19386D01*
Y7744D01*
X19478D01*
Y7846D01*
D02*
G37*
G36*
X19307D02*
X19215D01*
Y7744D01*
X19307D01*
Y7846D01*
D02*
G37*
G36*
X27348Y7809D02*
X26170D01*
Y7765D01*
X26120Y7738D01*
X26097Y7754D01*
X26043Y7765D01*
X25990Y7754D01*
X25944Y7723D01*
X25942Y7720D01*
X25892Y7735D01*
Y7766D01*
X25628D01*
Y7482D01*
X25892D01*
Y7513D01*
X25942Y7528D01*
X25944Y7525D01*
X25990Y7494D01*
X26043Y7484D01*
X26097Y7494D01*
X26120Y7510D01*
X26170Y7483D01*
Y7439D01*
X27348D01*
Y7809D01*
D02*
G37*
G36*
X3726D02*
X2548D01*
Y7764D01*
X2498Y7738D01*
X2475Y7754D01*
X2421Y7764D01*
X2367Y7754D01*
X2322Y7723D01*
X2320Y7720D01*
X2270Y7735D01*
Y7766D01*
X2006D01*
Y7482D01*
X2270D01*
Y7512D01*
X2320Y7527D01*
X2322Y7524D01*
X2367Y7494D01*
X2421Y7483D01*
X2475Y7494D01*
X2498Y7510D01*
X2548Y7483D01*
Y7439D01*
X3726D01*
Y7809D01*
D02*
G37*
G36*
X29829Y7766D02*
X29736D01*
Y7663D01*
X29829D01*
Y7766D01*
D02*
G37*
G36*
X29657D02*
X29565D01*
Y7663D01*
X29657D01*
Y7766D01*
D02*
G37*
G36*
X25553Y7766D02*
X25461D01*
Y7663D01*
X25553D01*
Y7766D01*
D02*
G37*
G36*
X1931D02*
X1839D01*
Y7663D01*
X1931D01*
Y7766D01*
D02*
G37*
G36*
X25382D02*
X25289D01*
Y7663D01*
X25382D01*
Y7766D01*
D02*
G37*
G36*
X1760D02*
X1667D01*
Y7663D01*
X1760D01*
Y7766D01*
D02*
G37*
G36*
X6207Y7766D02*
X6114D01*
Y7663D01*
X6207D01*
Y7766D01*
D02*
G37*
G36*
X6035D02*
X5943D01*
Y7663D01*
X6035D01*
Y7766D01*
D02*
G37*
G36*
X13921Y7703D02*
X13819D01*
Y7610D01*
X13921D01*
Y7703D01*
D02*
G37*
G36*
X13740D02*
X13638D01*
Y7610D01*
X13740D01*
Y7703D01*
D02*
G37*
G36*
X19478Y7665D02*
X19386D01*
Y7563D01*
X19478D01*
Y7665D01*
D02*
G37*
G36*
X19307D02*
X19215D01*
Y7563D01*
X19307D01*
Y7665D01*
D02*
G37*
G36*
X19817Y7846D02*
X19553D01*
Y7563D01*
X19817D01*
Y7578D01*
X19842Y7591D01*
X19867Y7598D01*
X19907Y7571D01*
X19961Y7560D01*
X20009Y7570D01*
X20059Y7559D01*
Y7559D01*
X20413D01*
Y7835D01*
X20059D01*
X20059Y7835D01*
X20009Y7832D01*
X19961Y7841D01*
X19907Y7831D01*
X19867Y7804D01*
X19842Y7810D01*
X19817Y7824D01*
Y7846D01*
D02*
G37*
G36*
X16673Y7717D02*
X16575D01*
Y7559D01*
X16673D01*
Y7717D01*
D02*
G37*
G36*
X16496D02*
X16398D01*
Y7559D01*
X16496D01*
Y7717D01*
D02*
G37*
G36*
X21864Y7839D02*
X21600D01*
Y7555D01*
X21652D01*
Y7484D01*
X21600D01*
Y7201D01*
X21864D01*
Y7484D01*
X21813D01*
Y7555D01*
X21864D01*
Y7617D01*
X21925D01*
X21938Y7598D01*
X21984Y7567D01*
X22037Y7556D01*
X22091Y7567D01*
X22137Y7598D01*
X22167Y7643D01*
X22178Y7697D01*
X22167Y7751D01*
X22137Y7796D01*
X22091Y7827D01*
X22037Y7837D01*
X21984Y7827D01*
X21938Y7796D01*
X21925Y7777D01*
X21864D01*
Y7839D01*
D02*
G37*
G36*
X29829Y7585D02*
X29736D01*
Y7482D01*
X29829D01*
Y7585D01*
D02*
G37*
G36*
X29657D02*
X29565D01*
Y7482D01*
X29657D01*
Y7585D01*
D02*
G37*
G36*
X28948Y7809D02*
X27770D01*
Y7439D01*
X28948D01*
Y7483D01*
X28998Y7510D01*
X29021Y7494D01*
X29075Y7484D01*
X29129Y7494D01*
X29174Y7525D01*
X29176Y7528D01*
X29226Y7513D01*
Y7482D01*
X29490D01*
Y7766D01*
X29226D01*
Y7735D01*
X29176Y7720D01*
X29174Y7723D01*
X29129Y7754D01*
X29075Y7765D01*
X29021Y7754D01*
X28998Y7738D01*
X28948Y7765D01*
Y7809D01*
D02*
G37*
G36*
X6207Y7585D02*
X6114D01*
Y7482D01*
X6207D01*
Y7585D01*
D02*
G37*
G36*
X6035D02*
X5943D01*
Y7482D01*
X6035D01*
Y7585D01*
D02*
G37*
G36*
X5326Y7809D02*
X4148D01*
Y7439D01*
X5326D01*
Y7483D01*
X5376Y7510D01*
X5399Y7494D01*
X5453Y7484D01*
X5507Y7494D01*
X5552Y7525D01*
X5554Y7528D01*
X5604Y7513D01*
Y7482D01*
X5868D01*
Y7766D01*
X5604D01*
Y7735D01*
X5554Y7720D01*
X5552Y7723D01*
X5507Y7754D01*
X5453Y7765D01*
X5399Y7754D01*
X5376Y7738D01*
X5326Y7765D01*
Y7809D01*
D02*
G37*
G36*
X25553Y7585D02*
X25461D01*
Y7482D01*
X25553D01*
Y7585D01*
D02*
G37*
G36*
X25382D02*
X25289D01*
Y7482D01*
X25382D01*
Y7585D01*
D02*
G37*
G36*
X1931D02*
X1839D01*
Y7482D01*
X1931D01*
Y7585D01*
D02*
G37*
G36*
X1760D02*
X1667D01*
Y7482D01*
X1760D01*
Y7585D01*
D02*
G37*
G36*
X10181Y7557D02*
X10079D01*
Y7465D01*
X10181D01*
Y7557D01*
D02*
G37*
G36*
X9394D02*
X9291D01*
Y7465D01*
X9394D01*
Y7557D01*
D02*
G37*
G36*
X9213D02*
X9110D01*
Y7465D01*
X9213D01*
Y7557D01*
D02*
G37*
G36*
X10000D02*
X9898D01*
Y7465D01*
X10000D01*
Y7557D01*
D02*
G37*
G36*
X13921Y7531D02*
X13819D01*
Y7439D01*
X13921D01*
Y7531D01*
D02*
G37*
G36*
X13740D02*
X13638D01*
Y7439D01*
X13740D01*
Y7531D01*
D02*
G37*
G36*
X21526Y7484D02*
X21262D01*
Y7423D01*
X21163D01*
X21151Y7442D01*
X21105Y7472D01*
X21051Y7483D01*
X20997Y7472D01*
X20952Y7442D01*
X20939Y7423D01*
X20886D01*
Y7480D01*
X20531D01*
Y7205D01*
X20886D01*
Y7262D01*
X20939D01*
X20952Y7243D01*
X20997Y7213D01*
X21051Y7202D01*
X21105Y7213D01*
X21151Y7243D01*
X21163Y7262D01*
X21262D01*
Y7201D01*
X21526D01*
Y7484D01*
D02*
G37*
G36*
X18287Y7759D02*
X18234Y7748D01*
X18188Y7717D01*
X18187Y7717D01*
X17933D01*
Y7403D01*
X17887Y7384D01*
X17835Y7436D01*
Y7717D01*
X17559D01*
Y7323D01*
X17721D01*
X17855Y7189D01*
X17855Y7189D01*
X17881Y7172D01*
X17911Y7166D01*
X17911Y7166D01*
X18362D01*
Y7114D01*
X18646D01*
Y7378D01*
X18362D01*
Y7326D01*
X18209D01*
Y7449D01*
X18259Y7483D01*
X18287Y7478D01*
X18312Y7483D01*
X18362Y7453D01*
Y7453D01*
X18646D01*
Y7717D01*
X18387D01*
X18387Y7717D01*
X18341Y7748D01*
X18287Y7759D01*
D02*
G37*
G36*
X20413Y7480D02*
X20276D01*
Y7382D01*
X20413D01*
Y7480D01*
D02*
G37*
G36*
X20197D02*
X20059D01*
Y7382D01*
X20197D01*
Y7480D01*
D02*
G37*
G36*
X17461Y7717D02*
X17185D01*
Y7323D01*
X17461D01*
Y7717D01*
D02*
G37*
G36*
X16673Y7480D02*
X16575D01*
Y7323D01*
X16673D01*
Y7480D01*
D02*
G37*
G36*
X16496D02*
X16398D01*
Y7323D01*
X16496D01*
Y7480D01*
D02*
G37*
G36*
X15496Y8230D02*
X15213D01*
Y7967D01*
X15274D01*
Y7717D01*
X15213D01*
Y7453D01*
X15496D01*
X15496Y7453D01*
X15545Y7449D01*
X15571Y7444D01*
X15600Y7450D01*
X15650Y7416D01*
Y7323D01*
X15925D01*
Y7717D01*
X15650D01*
X15650Y7717D01*
X15601Y7719D01*
X15571Y7725D01*
X15545Y7720D01*
X15496Y7717D01*
X15496Y7717D01*
X15496Y7717D01*
X15435D01*
Y7967D01*
X15496D01*
Y8230D01*
D02*
G37*
G36*
X10181Y7386D02*
X10079D01*
Y7293D01*
X10181D01*
Y7386D01*
D02*
G37*
G36*
X9394D02*
X9291D01*
Y7293D01*
X9394D01*
Y7386D01*
D02*
G37*
G36*
X9213D02*
X9110D01*
Y7293D01*
X9213D01*
Y7386D01*
D02*
G37*
G36*
X15496Y7378D02*
X15394D01*
Y7285D01*
X15496D01*
Y7378D01*
D02*
G37*
G36*
X15315D02*
X15213D01*
Y7285D01*
X15315D01*
Y7378D01*
D02*
G37*
G36*
X27348Y7309D02*
X26170D01*
Y7265D01*
X26120Y7238D01*
X26097Y7254D01*
X26043Y7265D01*
X25990Y7254D01*
X25944Y7223D01*
X25942Y7220D01*
X25892Y7235D01*
Y7266D01*
X25628D01*
Y6982D01*
X25892D01*
Y7013D01*
X25942Y7028D01*
X25944Y7025D01*
X25990Y6994D01*
X26043Y6984D01*
X26097Y6994D01*
X26120Y7010D01*
X26170Y6983D01*
Y6939D01*
X27348D01*
Y7309D01*
D02*
G37*
G36*
X3726D02*
X2548D01*
Y7265D01*
X2498Y7238D01*
X2475Y7254D01*
X2421Y7265D01*
X2367Y7254D01*
X2322Y7223D01*
X2320Y7220D01*
X2270Y7235D01*
Y7266D01*
X2006D01*
Y6982D01*
X2270D01*
Y7013D01*
X2320Y7028D01*
X2322Y7025D01*
X2367Y6994D01*
X2421Y6984D01*
X2475Y6994D01*
X2498Y7010D01*
X2548Y6983D01*
Y6939D01*
X3726D01*
Y7309D01*
D02*
G37*
G36*
X20413Y7303D02*
X20276D01*
Y7205D01*
X20413D01*
Y7303D01*
D02*
G37*
G36*
X20197D02*
X20059D01*
Y7205D01*
X20197D01*
Y7303D01*
D02*
G37*
G36*
X9787Y7557D02*
X9504D01*
Y7293D01*
X9666D01*
X9687Y7267D01*
X9665Y7218D01*
X9504D01*
Y7167D01*
X9394D01*
Y7218D01*
X9110D01*
Y6955D01*
X9394D01*
Y7006D01*
X9504D01*
Y6955D01*
X9674D01*
X9762Y6866D01*
Y6834D01*
X9744Y6791D01*
X9694Y6791D01*
X9204D01*
X9154Y6791D01*
X9104Y6791D01*
X8957D01*
Y6319D01*
X9123Y6319D01*
X9131Y6309D01*
X9145Y6269D01*
X9122Y6235D01*
X9111Y6181D01*
X9122Y6127D01*
X9153Y6082D01*
X9198Y6051D01*
X9252Y6041D01*
X9306Y6051D01*
X9351Y6082D01*
X9382Y6127D01*
X9392Y6181D01*
X9382Y6235D01*
X9359Y6269D01*
X9373Y6309D01*
X9381Y6319D01*
X9713Y6319D01*
X9721Y6309D01*
X9735Y6269D01*
X9713Y6235D01*
X9702Y6181D01*
X9713Y6127D01*
X9743Y6082D01*
X9789Y6051D01*
X9843Y6041D01*
X9860Y6044D01*
X9902Y6001D01*
X9899Y5985D01*
X9910Y5931D01*
X9940Y5885D01*
X9986Y5855D01*
X10039Y5844D01*
X10093Y5855D01*
X10139Y5885D01*
X10169Y5931D01*
X10180Y5985D01*
X10169Y6038D01*
X10139Y6084D01*
X10120Y6097D01*
Y6276D01*
X10138Y6319D01*
X10188Y6319D01*
X10197D01*
Y6555D01*
Y6791D01*
X10138D01*
X10120Y6834D01*
Y6955D01*
X10181D01*
Y7218D01*
X9994D01*
X9986Y7220D01*
X9985D01*
X9967Y7243D01*
X9990Y7293D01*
X10000D01*
Y7386D01*
X9898D01*
Y7362D01*
X9851Y7343D01*
X9787Y7407D01*
Y7557D01*
D02*
G37*
G36*
X29829Y7266D02*
X29736D01*
Y7163D01*
X29829D01*
Y7266D01*
D02*
G37*
G36*
X29657D02*
X29565D01*
Y7163D01*
X29657D01*
Y7266D01*
D02*
G37*
G36*
X25553Y7266D02*
X25461D01*
Y7163D01*
X25553D01*
Y7266D01*
D02*
G37*
G36*
X1931D02*
X1839D01*
Y7163D01*
X1931D01*
Y7266D01*
D02*
G37*
G36*
X1760D02*
X1667D01*
Y7163D01*
X1760D01*
Y7266D01*
D02*
G37*
G36*
X25382D02*
X25289D01*
Y7163D01*
X25382D01*
Y7266D01*
D02*
G37*
G36*
X6207Y7266D02*
X6114D01*
Y7163D01*
X6207D01*
Y7266D01*
D02*
G37*
G36*
X6035D02*
X5943D01*
Y7163D01*
X6035D01*
Y7266D01*
D02*
G37*
G36*
X15496Y7207D02*
X15394D01*
Y7114D01*
X15496D01*
Y7207D01*
D02*
G37*
G36*
X15315D02*
X15213D01*
Y7114D01*
X15315D01*
Y7207D01*
D02*
G37*
G36*
X11732Y7717D02*
X10945D01*
Y7087D01*
X11732D01*
Y7717D01*
D02*
G37*
G36*
X29829Y7085D02*
X29736D01*
Y6982D01*
X29829D01*
Y7085D01*
D02*
G37*
G36*
X29657D02*
X29565D01*
Y6982D01*
X29657D01*
Y7085D01*
D02*
G37*
G36*
X28948Y7309D02*
X27770D01*
Y6939D01*
X28948D01*
Y6983D01*
X28998Y7010D01*
X29021Y6994D01*
X29075Y6984D01*
X29129Y6994D01*
X29174Y7025D01*
X29176Y7028D01*
X29226Y7013D01*
Y6982D01*
X29490D01*
Y7266D01*
X29226D01*
Y7235D01*
X29176Y7220D01*
X29174Y7223D01*
X29129Y7254D01*
X29075Y7265D01*
X29021Y7254D01*
X28998Y7238D01*
X28948Y7265D01*
Y7309D01*
D02*
G37*
G36*
X6207Y7085D02*
X6114D01*
Y6982D01*
X6207D01*
Y7085D01*
D02*
G37*
G36*
X6035D02*
X5943D01*
Y6982D01*
X6035D01*
Y7085D01*
D02*
G37*
G36*
X5326Y7309D02*
X4148D01*
Y6939D01*
X5326D01*
Y6983D01*
X5376Y7010D01*
X5399Y6994D01*
X5453Y6984D01*
X5507Y6994D01*
X5552Y7025D01*
X5554Y7028D01*
X5604Y7013D01*
Y6982D01*
X5868D01*
Y7266D01*
X5604D01*
Y7235D01*
X5554Y7220D01*
X5552Y7223D01*
X5507Y7254D01*
X5453Y7265D01*
X5399Y7254D01*
X5376Y7238D01*
X5326Y7265D01*
Y7309D01*
D02*
G37*
G36*
X25553Y7085D02*
X25461D01*
Y6982D01*
X25553D01*
Y7085D01*
D02*
G37*
G36*
X25382D02*
X25289D01*
Y6982D01*
X25382D01*
Y7085D01*
D02*
G37*
G36*
X1931D02*
X1839D01*
Y6982D01*
X1931D01*
Y7085D01*
D02*
G37*
G36*
X1760D02*
X1667D01*
Y6982D01*
X1760D01*
Y7085D01*
D02*
G37*
G36*
X15496Y7059D02*
X15394D01*
Y6967D01*
X15496D01*
Y7059D01*
D02*
G37*
G36*
X18646D02*
X18543D01*
Y6967D01*
X18646D01*
Y7059D01*
D02*
G37*
G36*
X18465D02*
X18362D01*
Y6967D01*
X18465D01*
Y7059D01*
D02*
G37*
G36*
X15315D02*
X15213D01*
Y6967D01*
X15315D01*
Y7059D01*
D02*
G37*
G36*
X18646Y6888D02*
X18543D01*
Y6795D01*
X18646D01*
Y6888D01*
D02*
G37*
G36*
X18465D02*
X18362D01*
Y6795D01*
X18465D01*
Y6888D01*
D02*
G37*
G36*
X17071D02*
X16968D01*
Y6795D01*
X17071D01*
Y6888D01*
D02*
G37*
G36*
X16890D02*
X16787D01*
Y6795D01*
X16890D01*
Y6888D01*
D02*
G37*
G36*
X15496D02*
X15394D01*
Y6795D01*
X15496D01*
Y6888D01*
D02*
G37*
G36*
X15315D02*
X15213D01*
Y6795D01*
X15315D01*
Y6888D01*
D02*
G37*
G36*
X27348Y6809D02*
X26170D01*
Y6765D01*
X26120Y6738D01*
X26097Y6754D01*
X26043Y6765D01*
X25990Y6754D01*
X25944Y6723D01*
X25942Y6720D01*
X25892Y6735D01*
Y6766D01*
X25628D01*
Y6482D01*
X25892D01*
Y6513D01*
X25942Y6528D01*
X25944Y6525D01*
X25990Y6494D01*
X26043Y6484D01*
X26097Y6494D01*
X26120Y6510D01*
X26170Y6483D01*
Y6439D01*
X27348D01*
Y6809D01*
D02*
G37*
G36*
X3726D02*
X2548D01*
Y6765D01*
X2498Y6738D01*
X2475Y6754D01*
X2421Y6765D01*
X2367Y6754D01*
X2322Y6723D01*
X2320Y6720D01*
X2270Y6735D01*
Y6766D01*
X2006D01*
Y6482D01*
X2270D01*
Y6513D01*
X2320Y6528D01*
X2322Y6525D01*
X2367Y6494D01*
X2421Y6484D01*
X2475Y6494D01*
X2498Y6510D01*
X2548Y6483D01*
Y6439D01*
X3726D01*
Y6809D01*
D02*
G37*
G36*
X17835Y6850D02*
X17736D01*
Y6693D01*
X17835D01*
Y6850D01*
D02*
G37*
G36*
X16299D02*
X16201D01*
Y6693D01*
X16299D01*
Y6850D01*
D02*
G37*
G36*
X16122D02*
X16024D01*
Y6693D01*
X16122D01*
Y6850D01*
D02*
G37*
G36*
X17657D02*
X17559D01*
Y6693D01*
X17657D01*
Y6850D01*
D02*
G37*
G36*
X15925D02*
X15650D01*
Y6669D01*
X15496D01*
Y6720D01*
X15213D01*
Y6457D01*
X15496D01*
Y6508D01*
X15650D01*
Y6457D01*
X15650D01*
X15665Y6407D01*
X15658Y6396D01*
X15647Y6343D01*
X15658Y6289D01*
X15688Y6243D01*
X15734Y6213D01*
X15787Y6202D01*
X15841Y6213D01*
X15887Y6243D01*
X15917Y6289D01*
X15928Y6343D01*
X15917Y6396D01*
X15910Y6407D01*
X15925Y6457D01*
X15925D01*
Y6850D01*
D02*
G37*
G36*
X29829Y6766D02*
X29736D01*
Y6663D01*
X29829D01*
Y6766D01*
D02*
G37*
G36*
X29657D02*
X29565D01*
Y6663D01*
X29657D01*
Y6766D01*
D02*
G37*
G36*
X1931Y6766D02*
X1839D01*
Y6663D01*
X1931D01*
Y6766D01*
D02*
G37*
G36*
X25553D02*
X25461D01*
Y6663D01*
X25553D01*
Y6766D01*
D02*
G37*
G36*
X1760D02*
X1667D01*
Y6663D01*
X1760D01*
Y6766D01*
D02*
G37*
G36*
X25382D02*
X25289D01*
Y6663D01*
X25382D01*
Y6766D01*
D02*
G37*
G36*
X6207Y6766D02*
X6114D01*
Y6663D01*
X6207D01*
Y6766D01*
D02*
G37*
G36*
X6035D02*
X5943D01*
Y6663D01*
X6035D01*
Y6766D01*
D02*
G37*
G36*
X20787Y6693D02*
X20000D01*
Y6628D01*
X19827D01*
Y6679D01*
X19543D01*
Y6415D01*
X19827D01*
Y6467D01*
X20000D01*
Y6063D01*
X20787D01*
Y6298D01*
X20990D01*
X21180Y6108D01*
Y5118D01*
X21186Y5087D01*
X21203Y5061D01*
X21321Y4943D01*
X21347Y4926D01*
X21378Y4920D01*
X21378Y4920D01*
X21827D01*
X21967Y4780D01*
Y4268D01*
X21934Y4235D01*
X21917Y4232D01*
X21870Y4232D01*
X21863Y4232D01*
X21813Y4240D01*
Y4386D01*
X21864D01*
Y4669D01*
X21600D01*
Y4386D01*
X21652D01*
Y4268D01*
X21619Y4235D01*
X21602Y4232D01*
X21555Y4232D01*
X21544Y4232D01*
X21457D01*
Y3937D01*
X21378D01*
Y4232D01*
X21290D01*
X21280Y4232D01*
X21240D01*
X21233Y4232D01*
X21183Y4240D01*
Y4350D01*
X21218Y4386D01*
X21248Y4386D01*
X21284Y4386D01*
X21354D01*
Y4528D01*
Y4669D01*
X21248D01*
X21212Y4669D01*
X20970D01*
Y4386D01*
X21022D01*
Y4268D01*
X20989Y4235D01*
X20972Y4232D01*
X20925Y4232D01*
X20915Y4232D01*
X20827D01*
Y3937D01*
Y3642D01*
X20915D01*
X20925Y3642D01*
X20965D01*
X20972Y3642D01*
X21022Y3634D01*
Y3567D01*
X21003Y3554D01*
X20973Y3508D01*
X20962Y3455D01*
X20973Y3401D01*
X21003Y3355D01*
X21049Y3325D01*
X21102Y3314D01*
X21156Y3325D01*
X21202Y3355D01*
X21208Y3365D01*
X21634D01*
X21665Y3371D01*
X21691Y3388D01*
X21789Y3487D01*
X21789Y3487D01*
X21806Y3513D01*
X21813Y3543D01*
Y3606D01*
X21845Y3639D01*
X21863Y3642D01*
X21909Y3642D01*
X21920Y3642D01*
X22174D01*
X22185Y3642D01*
X22224D01*
X22235Y3642D01*
X22500D01*
Y4232D01*
X22442D01*
Y5118D01*
X22520D01*
Y5522D01*
X22693D01*
Y5470D01*
X22976D01*
Y5734D01*
X22693D01*
Y5683D01*
X22520D01*
Y5748D01*
X21732D01*
Y5130D01*
X21732Y5118D01*
X21703Y5080D01*
X21411D01*
X21340Y5151D01*
Y6142D01*
X21340Y6142D01*
X21334Y6172D01*
X21317Y6198D01*
X21317Y6198D01*
X21080Y6435D01*
X21054Y6452D01*
X21024Y6458D01*
X20787D01*
Y6693D01*
D02*
G37*
G36*
X29829Y6585D02*
X29736D01*
Y6482D01*
X29829D01*
Y6585D01*
D02*
G37*
G36*
X29657D02*
X29565D01*
Y6482D01*
X29657D01*
Y6585D01*
D02*
G37*
G36*
X28948Y6809D02*
X27770D01*
Y6439D01*
X28948D01*
Y6483D01*
X28998Y6510D01*
X29021Y6494D01*
X29075Y6484D01*
X29129Y6494D01*
X29174Y6525D01*
X29176Y6528D01*
X29226Y6513D01*
Y6482D01*
X29490D01*
Y6766D01*
X29226D01*
Y6735D01*
X29176Y6720D01*
X29174Y6723D01*
X29129Y6754D01*
X29075Y6765D01*
X29021Y6754D01*
X28998Y6738D01*
X28948Y6765D01*
Y6809D01*
D02*
G37*
G36*
X6207Y6585D02*
X6114D01*
Y6482D01*
X6207D01*
Y6585D01*
D02*
G37*
G36*
X6035D02*
X5943D01*
Y6482D01*
X6035D01*
Y6585D01*
D02*
G37*
G36*
X5326Y6809D02*
X4148D01*
Y6439D01*
X5326D01*
Y6483D01*
X5376Y6510D01*
X5399Y6494D01*
X5453Y6484D01*
X5507Y6494D01*
X5552Y6525D01*
X5554Y6528D01*
X5604Y6513D01*
Y6482D01*
X5868D01*
Y6766D01*
X5604D01*
Y6735D01*
X5554Y6720D01*
X5552Y6723D01*
X5507Y6754D01*
X5453Y6765D01*
X5399Y6754D01*
X5376Y6738D01*
X5326Y6765D01*
Y6809D01*
D02*
G37*
G36*
X25553Y6585D02*
X25461D01*
Y6482D01*
X25553D01*
Y6585D01*
D02*
G37*
G36*
X25382D02*
X25289D01*
Y6482D01*
X25382D01*
Y6585D01*
D02*
G37*
G36*
X1931D02*
X1839D01*
Y6482D01*
X1931D01*
Y6585D01*
D02*
G37*
G36*
X1760D02*
X1667D01*
Y6482D01*
X1760D01*
Y6585D01*
D02*
G37*
G36*
X17835Y6614D02*
X17736D01*
Y6457D01*
X17835D01*
Y6614D01*
D02*
G37*
G36*
X17657D02*
X17559D01*
Y6457D01*
X17657D01*
Y6614D01*
D02*
G37*
G36*
X16299D02*
X16201D01*
Y6457D01*
X16299D01*
Y6614D01*
D02*
G37*
G36*
X16122D02*
X16024D01*
Y6457D01*
X16122D01*
Y6614D01*
D02*
G37*
G36*
X16673Y6850D02*
X16398D01*
Y6457D01*
X16673D01*
X16673Y6457D01*
X16721Y6450D01*
X16732Y6448D01*
X16740Y6450D01*
X16787Y6457D01*
X16787Y6457D01*
X16787Y6457D01*
X17071D01*
Y6720D01*
X16787D01*
X16787Y6720D01*
Y6720D01*
X16738Y6728D01*
X16732Y6729D01*
X16723Y6727D01*
X16673Y6768D01*
Y6850D01*
D02*
G37*
G36*
X18209D02*
X17933D01*
Y6457D01*
X18209D01*
X18209Y6457D01*
X18258Y6454D01*
X18287Y6448D01*
X18314Y6453D01*
X18362Y6457D01*
X18362Y6457D01*
X18362Y6457D01*
X18646D01*
Y6720D01*
X18362D01*
X18362Y6720D01*
X18314Y6724D01*
X18287Y6729D01*
X18259Y6723D01*
X18209Y6757D01*
Y6850D01*
D02*
G37*
G36*
X19827Y6341D02*
X19724D01*
Y6248D01*
X19827D01*
Y6341D01*
D02*
G37*
G36*
X19646D02*
X19543D01*
Y6248D01*
X19646D01*
Y6341D01*
D02*
G37*
G36*
X27348Y6309D02*
X26170D01*
Y6265D01*
X26120Y6238D01*
X26097Y6254D01*
X26043Y6265D01*
X25990Y6254D01*
X25944Y6223D01*
X25942Y6220D01*
X25892Y6235D01*
Y6266D01*
X25628D01*
Y5982D01*
X25892D01*
Y6013D01*
X25942Y6028D01*
X25944Y6025D01*
X25990Y5994D01*
X26043Y5984D01*
X26097Y5994D01*
X26120Y6010D01*
X26170Y5983D01*
Y5939D01*
X27348D01*
Y6309D01*
D02*
G37*
G36*
X3726D02*
X2548D01*
Y6265D01*
X2498Y6238D01*
X2475Y6254D01*
X2421Y6265D01*
X2367Y6254D01*
X2322Y6223D01*
X2320Y6220D01*
X2270Y6235D01*
Y6266D01*
X2006D01*
Y5982D01*
X2270D01*
Y6013D01*
X2320Y6028D01*
X2322Y6025D01*
X2367Y5994D01*
X2421Y5984D01*
X2475Y5994D01*
X2498Y6010D01*
X2548Y5983D01*
Y5939D01*
X3726D01*
Y6309D01*
D02*
G37*
G36*
X29829Y6266D02*
X29736D01*
Y6163D01*
X29829D01*
Y6266D01*
D02*
G37*
G36*
X29657D02*
X29565D01*
Y6163D01*
X29657D01*
Y6266D01*
D02*
G37*
G36*
X25553Y6266D02*
X25461D01*
Y6163D01*
X25553D01*
Y6266D01*
D02*
G37*
G36*
X1931D02*
X1839D01*
Y6163D01*
X1931D01*
Y6266D01*
D02*
G37*
G36*
X25382D02*
X25289D01*
Y6163D01*
X25382D01*
Y6266D01*
D02*
G37*
G36*
X1760D02*
X1667D01*
Y6163D01*
X1760D01*
Y6266D01*
D02*
G37*
G36*
X6207Y6266D02*
X6114D01*
Y6163D01*
X6207D01*
Y6266D01*
D02*
G37*
G36*
X6035D02*
X5943D01*
Y6163D01*
X6035D01*
Y6266D01*
D02*
G37*
G36*
X19827Y6169D02*
X19724D01*
Y6077D01*
X19827D01*
Y6169D01*
D02*
G37*
G36*
X19646D02*
X19543D01*
Y6077D01*
X19646D01*
Y6169D01*
D02*
G37*
G36*
X22520Y6693D02*
X21732D01*
Y6063D01*
X22520D01*
Y6693D01*
D02*
G37*
G36*
X29829Y6085D02*
X29736D01*
Y5982D01*
X29829D01*
Y6085D01*
D02*
G37*
G36*
X29657D02*
X29565D01*
Y5982D01*
X29657D01*
Y6085D01*
D02*
G37*
G36*
X28948Y6309D02*
X27770D01*
Y5939D01*
X28948D01*
Y5983D01*
X28998Y6010D01*
X29021Y5994D01*
X29075Y5984D01*
X29129Y5994D01*
X29174Y6025D01*
X29176Y6028D01*
X29226Y6013D01*
Y5982D01*
X29490D01*
Y6266D01*
X29226D01*
Y6235D01*
X29176Y6220D01*
X29174Y6223D01*
X29129Y6254D01*
X29075Y6265D01*
X29021Y6254D01*
X28998Y6238D01*
X28948Y6265D01*
Y6309D01*
D02*
G37*
G36*
X6207Y6085D02*
X6114D01*
Y5982D01*
X6207D01*
Y6085D01*
D02*
G37*
G36*
X6035D02*
X5943D01*
Y5982D01*
X6035D01*
Y6085D01*
D02*
G37*
G36*
X5326Y6309D02*
X4148D01*
Y5939D01*
X5326D01*
Y5983D01*
X5376Y6010D01*
X5399Y5994D01*
X5453Y5984D01*
X5507Y5994D01*
X5552Y6025D01*
X5554Y6028D01*
X5604Y6013D01*
Y5982D01*
X5868D01*
Y6266D01*
X5604D01*
Y6235D01*
X5554Y6220D01*
X5552Y6223D01*
X5507Y6254D01*
X5453Y6265D01*
X5399Y6254D01*
X5376Y6238D01*
X5326Y6265D01*
Y6309D01*
D02*
G37*
G36*
X25553Y6085D02*
X25461D01*
Y5982D01*
X25553D01*
Y6085D01*
D02*
G37*
G36*
X25382D02*
X25289D01*
Y5982D01*
X25382D01*
Y6085D01*
D02*
G37*
G36*
X1931D02*
X1839D01*
Y5982D01*
X1931D01*
Y6085D01*
D02*
G37*
G36*
X1760D02*
X1667D01*
Y5982D01*
X1760D01*
Y6085D01*
D02*
G37*
G36*
X17697Y6154D02*
X17643Y6144D01*
X17598Y6113D01*
X17567Y6068D01*
X17556Y6014D01*
X17567Y5960D01*
X17598Y5914D01*
X17603Y5911D01*
Y5861D01*
X17598Y5857D01*
X17567Y5812D01*
X17556Y5758D01*
X17567Y5704D01*
X17598Y5659D01*
X17637Y5632D01*
X17637Y5608D01*
X17629Y5582D01*
X17061D01*
X17048Y5601D01*
X17003Y5632D01*
X16949Y5642D01*
X16895Y5632D01*
X16849Y5601D01*
X16819Y5556D01*
X16808Y5502D01*
X16819Y5448D01*
X16849Y5403D01*
X16895Y5372D01*
X16949Y5361D01*
X17003Y5372D01*
X17048Y5403D01*
X17061Y5422D01*
X17629D01*
X17637Y5396D01*
X17637Y5372D01*
X17598Y5345D01*
X17567Y5300D01*
X17556Y5246D01*
X17567Y5192D01*
X17598Y5147D01*
X17603Y5143D01*
Y5093D01*
X17598Y5089D01*
X17567Y5044D01*
X17556Y4990D01*
X17567Y4936D01*
X17598Y4891D01*
X17637Y4865D01*
X17637Y4840D01*
X17629Y4815D01*
X17061D01*
X17048Y4834D01*
X17003Y4864D01*
X16949Y4875D01*
X16895Y4864D01*
X16849Y4834D01*
X16819Y4788D01*
X16808Y4734D01*
X16819Y4680D01*
X16849Y4635D01*
X16895Y4604D01*
X16949Y4594D01*
X17003Y4604D01*
X17048Y4635D01*
X17061Y4654D01*
X17629D01*
X17637Y4628D01*
X17637Y4604D01*
X17598Y4578D01*
X17567Y4532D01*
X17556Y4478D01*
X17567Y4425D01*
X17598Y4379D01*
X17643Y4349D01*
X17697Y4338D01*
X17751Y4349D01*
X17785Y4371D01*
X17826Y4357D01*
X17835Y4349D01*
X17835Y4300D01*
Y4262D01*
X18071D01*
X18307D01*
Y4350D01*
X18307Y4400D01*
X18307Y4606D01*
X18307Y4656D01*
X18307Y4862D01*
X18307Y4912D01*
Y5068D01*
X18307Y5118D01*
X18307D01*
Y5118D01*
X18307D01*
X18307Y5374D01*
X18307Y5424D01*
X18307Y5630D01*
X18307Y5680D01*
Y5880D01*
X18325Y5928D01*
X18362Y5926D01*
Y5882D01*
X18646D01*
Y5933D01*
X18756D01*
Y5882D01*
X19039D01*
Y6146D01*
X18756D01*
Y6094D01*
X18646D01*
Y6146D01*
X18362D01*
Y6094D01*
X18307D01*
Y6142D01*
X17835D01*
Y6142D01*
X17792Y6124D01*
X17785Y6121D01*
X17751Y6144D01*
X17697Y6154D01*
D02*
G37*
G36*
X15049D02*
X14995Y6144D01*
X14950Y6113D01*
X14919Y6068D01*
X14909Y6014D01*
X14919Y5960D01*
X14950Y5914D01*
X14995Y5884D01*
X15049Y5873D01*
X15103Y5884D01*
X15149Y5914D01*
X15161Y5933D01*
X15213D01*
Y5882D01*
X15496D01*
Y5926D01*
X15533Y5928D01*
X15551Y5880D01*
X15551Y5836D01*
Y5797D01*
X15787D01*
X16024D01*
Y5886D01*
X16024Y5936D01*
Y6142D01*
X15551D01*
Y6094D01*
X15496D01*
Y6146D01*
X15213D01*
Y6094D01*
X15161D01*
X15149Y6113D01*
X15103Y6144D01*
X15049Y6154D01*
D02*
G37*
G36*
X27348Y5809D02*
X26170D01*
Y5765D01*
X26120Y5738D01*
X26097Y5754D01*
X26043Y5765D01*
X25990Y5754D01*
X25944Y5723D01*
X25942Y5720D01*
X25892Y5735D01*
Y5766D01*
X25628D01*
Y5482D01*
X25892D01*
Y5513D01*
X25942Y5528D01*
X25944Y5525D01*
X25990Y5494D01*
X26043Y5484D01*
X26097Y5494D01*
X26120Y5510D01*
X26170Y5483D01*
Y5439D01*
X27348D01*
Y5809D01*
D02*
G37*
G36*
X3726D02*
X2548D01*
Y5765D01*
X2498Y5738D01*
X2475Y5754D01*
X2421Y5765D01*
X2367Y5754D01*
X2322Y5723D01*
X2320Y5720D01*
X2270Y5735D01*
Y5766D01*
X2006D01*
Y5482D01*
X2270D01*
Y5513D01*
X2320Y5528D01*
X2322Y5525D01*
X2367Y5494D01*
X2421Y5484D01*
X2475Y5494D01*
X2498Y5510D01*
X2548Y5483D01*
Y5439D01*
X3726D01*
Y5809D01*
D02*
G37*
G36*
X19039Y5807D02*
X18937D01*
Y5715D01*
X19039D01*
Y5807D01*
D02*
G37*
G36*
X18858D02*
X18756D01*
Y5715D01*
X18858D01*
Y5807D01*
D02*
G37*
G36*
X18646D02*
X18543D01*
Y5715D01*
X18646D01*
Y5807D01*
D02*
G37*
G36*
X18465D02*
X18362D01*
Y5715D01*
X18465D01*
Y5807D01*
D02*
G37*
G36*
X15496D02*
X15394D01*
Y5715D01*
X15496D01*
Y5807D01*
D02*
G37*
G36*
X15315D02*
X15213D01*
Y5715D01*
X15315D01*
Y5807D01*
D02*
G37*
G36*
X29829Y5766D02*
X29736D01*
Y5663D01*
X29829D01*
Y5766D01*
D02*
G37*
G36*
X29657D02*
X29565D01*
Y5663D01*
X29657D01*
Y5766D01*
D02*
G37*
G36*
X25553Y5766D02*
X25461D01*
Y5663D01*
X25553D01*
Y5766D01*
D02*
G37*
G36*
X1931D02*
X1839D01*
Y5663D01*
X1931D01*
Y5766D01*
D02*
G37*
G36*
X25382D02*
X25289D01*
Y5663D01*
X25382D01*
Y5766D01*
D02*
G37*
G36*
X1760D02*
X1667D01*
Y5663D01*
X1760D01*
Y5766D01*
D02*
G37*
G36*
X6207Y5766D02*
X6114D01*
Y5663D01*
X6207D01*
Y5766D01*
D02*
G37*
G36*
X6035D02*
X5943D01*
Y5663D01*
X6035D01*
Y5766D01*
D02*
G37*
G36*
X14665Y6004D02*
X14193D01*
X14193Y5807D01*
X14193Y5757D01*
Y5592D01*
X13971D01*
X13958Y5611D01*
X13912Y5642D01*
X13859Y5652D01*
X13805Y5642D01*
X13759Y5611D01*
X13729Y5566D01*
X13718Y5512D01*
X13729Y5458D01*
X13759Y5412D01*
X13805Y5382D01*
X13859Y5371D01*
X13870Y5373D01*
X13907Y5340D01*
Y5290D01*
X13870Y5256D01*
X13859Y5259D01*
X13805Y5248D01*
X13759Y5217D01*
X13729Y5172D01*
X13718Y5118D01*
X13729Y5064D01*
X13759Y5019D01*
X13805Y4988D01*
X13859Y4978D01*
X13874Y4981D01*
X13917Y4938D01*
X13915Y4926D01*
X13919Y4904D01*
X13877Y4861D01*
X13859Y4865D01*
X13805Y4854D01*
X13759Y4824D01*
X13729Y4778D01*
X13718Y4724D01*
X13729Y4671D01*
X13759Y4625D01*
X13805Y4595D01*
X13859Y4584D01*
X13870Y4586D01*
X13907Y4553D01*
Y4502D01*
X13870Y4469D01*
X13859Y4471D01*
X13805Y4461D01*
X13759Y4430D01*
X13729Y4384D01*
X13718Y4331D01*
X13729Y4277D01*
X13759Y4231D01*
X13805Y4201D01*
X13859Y4190D01*
X13870Y4192D01*
X13907Y4159D01*
Y4109D01*
X13870Y4075D01*
X13859Y4078D01*
X13805Y4067D01*
X13759Y4036D01*
X13729Y3991D01*
X13718Y3937D01*
X13729Y3883D01*
X13759Y3838D01*
X13805Y3807D01*
X13859Y3797D01*
X13912Y3807D01*
X13958Y3838D01*
X13971Y3857D01*
X14150D01*
X14193Y3839D01*
X14193Y3789D01*
Y3780D01*
X14429D01*
X14665D01*
Y3839D01*
X14708Y3857D01*
X14819D01*
Y3805D01*
X15102D01*
Y4069D01*
X14819D01*
Y4017D01*
X14665D01*
Y4182D01*
X14665Y4232D01*
X14665D01*
Y4232D01*
X14665D01*
Y4429D01*
Y4773D01*
X14665Y4823D01*
X14665D01*
Y4823D01*
X14665D01*
Y5167D01*
X14665Y5217D01*
X14665D01*
Y5217D01*
X14665D01*
Y5610D01*
X14665Y5807D01*
X14665Y5857D01*
Y6004D01*
D02*
G37*
G36*
X19039Y5636D02*
X18937D01*
Y5543D01*
X19039D01*
Y5636D01*
D02*
G37*
G36*
X18858D02*
X18756D01*
Y5543D01*
X18858D01*
Y5636D01*
D02*
G37*
G36*
X18646D02*
X18543D01*
Y5543D01*
X18646D01*
Y5636D01*
D02*
G37*
G36*
X18465D02*
X18362D01*
Y5543D01*
X18465D01*
Y5636D01*
D02*
G37*
G36*
X15496Y5636D02*
X15394D01*
Y5543D01*
X15496D01*
Y5636D01*
D02*
G37*
G36*
X15315D02*
X15213D01*
Y5543D01*
X15315D01*
Y5636D01*
D02*
G37*
G36*
X29829Y5585D02*
X29736D01*
Y5482D01*
X29829D01*
Y5585D01*
D02*
G37*
G36*
X29657D02*
X29565D01*
Y5482D01*
X29657D01*
Y5585D01*
D02*
G37*
G36*
X28948Y5809D02*
X27770D01*
Y5439D01*
X28948D01*
Y5483D01*
X28998Y5510D01*
X29021Y5494D01*
X29075Y5484D01*
X29129Y5494D01*
X29174Y5525D01*
X29176Y5528D01*
X29226Y5513D01*
Y5482D01*
X29490D01*
Y5766D01*
X29226D01*
Y5735D01*
X29176Y5720D01*
X29174Y5723D01*
X29129Y5754D01*
X29075Y5765D01*
X29021Y5754D01*
X28998Y5738D01*
X28948Y5765D01*
Y5809D01*
D02*
G37*
G36*
X6207Y5585D02*
X6114D01*
Y5482D01*
X6207D01*
Y5585D01*
D02*
G37*
G36*
X6035D02*
X5943D01*
Y5482D01*
X6035D01*
Y5585D01*
D02*
G37*
G36*
X5326Y5809D02*
X4148D01*
Y5439D01*
X5326D01*
Y5483D01*
X5376Y5510D01*
X5399Y5494D01*
X5453Y5484D01*
X5507Y5494D01*
X5552Y5525D01*
X5554Y5528D01*
X5604Y5513D01*
Y5482D01*
X5868D01*
Y5766D01*
X5604D01*
Y5735D01*
X5554Y5720D01*
X5552Y5723D01*
X5507Y5754D01*
X5453Y5765D01*
X5399Y5754D01*
X5376Y5738D01*
X5326Y5765D01*
Y5809D01*
D02*
G37*
G36*
X25553Y5585D02*
X25461D01*
Y5482D01*
X25553D01*
Y5585D01*
D02*
G37*
G36*
X25382D02*
X25289D01*
Y5482D01*
X25382D01*
Y5585D01*
D02*
G37*
G36*
X1931D02*
X1839D01*
Y5482D01*
X1931D01*
Y5585D01*
D02*
G37*
G36*
X1760D02*
X1667D01*
Y5482D01*
X1760D01*
Y5585D01*
D02*
G37*
G36*
X20787Y5748D02*
X20433D01*
Y5472D01*
X20787D01*
Y5748D01*
D02*
G37*
G36*
X20354D02*
X20000D01*
Y5472D01*
X20354D01*
Y5748D01*
D02*
G37*
G36*
X22976Y5396D02*
X22874D01*
Y5303D01*
X22976D01*
Y5396D01*
D02*
G37*
G36*
X22795D02*
X22693D01*
Y5303D01*
X22795D01*
Y5396D01*
D02*
G37*
G36*
X3726Y5309D02*
X2548D01*
Y5265D01*
X2498Y5238D01*
X2475Y5254D01*
X2421Y5265D01*
X2368Y5254D01*
X2322Y5223D01*
X2320Y5220D01*
X2270Y5235D01*
Y5266D01*
X2006D01*
Y4982D01*
X2270D01*
Y5013D01*
X2320Y5028D01*
X2322Y5025D01*
X2368Y4994D01*
X2421Y4984D01*
X2475Y4994D01*
X2498Y5010D01*
X2548Y4983D01*
Y4939D01*
X3726D01*
Y5309D01*
D02*
G37*
G36*
X27348D02*
X26170D01*
Y5265D01*
X26120Y5238D01*
X26097Y5254D01*
X26043Y5265D01*
X25990Y5254D01*
X25944Y5223D01*
X25942Y5220D01*
X25892Y5235D01*
Y5266D01*
X25628D01*
Y4982D01*
X25892D01*
Y5013D01*
X25942Y5028D01*
X25944Y5025D01*
X25990Y4994D01*
X26043Y4984D01*
X26097Y4994D01*
X26120Y5010D01*
X26170Y4983D01*
Y4939D01*
X27348D01*
Y5309D01*
D02*
G37*
G36*
X29829Y5266D02*
X29736D01*
Y5163D01*
X29829D01*
Y5266D01*
D02*
G37*
G36*
X29657D02*
X29565D01*
Y5163D01*
X29657D01*
Y5266D01*
D02*
G37*
G36*
X1931Y5266D02*
X1839D01*
Y5163D01*
X1931D01*
Y5266D01*
D02*
G37*
G36*
X25553D02*
X25461D01*
Y5163D01*
X25553D01*
Y5266D01*
D02*
G37*
G36*
X1760D02*
X1667D01*
Y5163D01*
X1760D01*
Y5266D01*
D02*
G37*
G36*
X25382D02*
X25289D01*
Y5163D01*
X25382D01*
Y5266D01*
D02*
G37*
G36*
X6207Y5266D02*
X6114D01*
Y5163D01*
X6207D01*
Y5266D01*
D02*
G37*
G36*
X6035D02*
X5943D01*
Y5163D01*
X6035D01*
Y5266D01*
D02*
G37*
G36*
X22976Y5224D02*
X22874D01*
Y5132D01*
X22976D01*
Y5224D01*
D02*
G37*
G36*
X22795D02*
X22693D01*
Y5132D01*
X22795D01*
Y5224D01*
D02*
G37*
G36*
X20787Y5394D02*
X20433D01*
Y5118D01*
X20787D01*
Y5394D01*
D02*
G37*
G36*
X20354D02*
X20000D01*
Y5118D01*
X20354D01*
Y5394D01*
D02*
G37*
G36*
X16024Y5719D02*
X15787D01*
X15551D01*
Y5630D01*
X15551Y5580D01*
X15551Y5374D01*
X15551Y5324D01*
X15551Y5119D01*
X15542Y5112D01*
X15501Y5097D01*
X15467Y5120D01*
X15413Y5131D01*
X15360Y5120D01*
X15314Y5089D01*
X15284Y5044D01*
X15273Y4990D01*
X15284Y4936D01*
X15314Y4891D01*
X15319Y4887D01*
Y4837D01*
X15314Y4834D01*
X15284Y4788D01*
X15273Y4734D01*
X15284Y4680D01*
X15314Y4635D01*
X15360Y4604D01*
X15413Y4594D01*
X15467Y4604D01*
X15501Y4627D01*
X15542Y4613D01*
X15551Y4605D01*
X15551Y4556D01*
X15551Y4352D01*
X15542Y4344D01*
X15501Y4329D01*
X15467Y4352D01*
X15413Y4363D01*
X15360Y4352D01*
X15314Y4322D01*
X15284Y4276D01*
X15273Y4222D01*
X15284Y4169D01*
X15314Y4123D01*
X15360Y4093D01*
X15413Y4082D01*
X15467Y4093D01*
X15501Y4115D01*
X15508Y4113D01*
X15551Y4094D01*
X15551Y4094D01*
X15551Y4094D01*
X16024D01*
X16024Y4350D01*
X16029Y4398D01*
X16246D01*
X16259Y4379D01*
X16304Y4349D01*
X16358Y4338D01*
X16412Y4349D01*
X16457Y4379D01*
X16488Y4425D01*
X16498Y4478D01*
X16488Y4532D01*
X16457Y4578D01*
X16412Y4608D01*
X16358Y4619D01*
X16304Y4608D01*
X16259Y4578D01*
X16246Y4559D01*
X16029D01*
X16024Y4606D01*
X16024Y4656D01*
Y4812D01*
X16024Y4862D01*
X16024D01*
Y4862D01*
X16024D01*
X16024Y5118D01*
X16029Y5166D01*
X16246D01*
X16259Y5147D01*
X16304Y5116D01*
X16358Y5106D01*
X16412Y5116D01*
X16457Y5147D01*
X16488Y5192D01*
X16498Y5246D01*
X16488Y5300D01*
X16457Y5345D01*
X16412Y5376D01*
X16358Y5387D01*
X16304Y5376D01*
X16294Y5369D01*
X16261Y5403D01*
X16291Y5448D01*
X16302Y5502D01*
X16291Y5556D01*
X16261Y5601D01*
X16215Y5632D01*
X16161Y5642D01*
X16108Y5632D01*
X16074Y5609D01*
X16033Y5624D01*
X16024Y5631D01*
X16024Y5680D01*
Y5719D01*
D02*
G37*
G36*
X29829Y5085D02*
X29736D01*
Y4982D01*
X29829D01*
Y5085D01*
D02*
G37*
G36*
X29657D02*
X29565D01*
Y4982D01*
X29657D01*
Y5085D01*
D02*
G37*
G36*
X28948Y5309D02*
X27770D01*
Y4939D01*
X28948D01*
Y4983D01*
X28998Y5010D01*
X29021Y4994D01*
X29075Y4984D01*
X29129Y4994D01*
X29174Y5025D01*
X29176Y5028D01*
X29226Y5013D01*
Y4982D01*
X29490D01*
Y5266D01*
X29226D01*
Y5235D01*
X29176Y5220D01*
X29174Y5223D01*
X29129Y5254D01*
X29075Y5265D01*
X29021Y5254D01*
X28998Y5238D01*
X28948Y5265D01*
Y5309D01*
D02*
G37*
G36*
X6207Y5085D02*
X6114D01*
Y4982D01*
X6207D01*
Y5085D01*
D02*
G37*
G36*
X6035D02*
X5943D01*
Y4982D01*
X6035D01*
Y5085D01*
D02*
G37*
G36*
X5326Y5309D02*
X4148D01*
Y4939D01*
X5326D01*
Y4983D01*
X5376Y5010D01*
X5399Y4994D01*
X5453Y4984D01*
X5507Y4994D01*
X5552Y5025D01*
X5554Y5028D01*
X5604Y5013D01*
Y4982D01*
X5868D01*
Y5266D01*
X5604D01*
Y5235D01*
X5554Y5220D01*
X5552Y5223D01*
X5507Y5254D01*
X5453Y5265D01*
X5399Y5254D01*
X5376Y5238D01*
X5326Y5265D01*
Y5309D01*
D02*
G37*
G36*
X25553Y5085D02*
X25461D01*
Y4982D01*
X25553D01*
Y5085D01*
D02*
G37*
G36*
X25382D02*
X25289D01*
Y4982D01*
X25382D01*
Y5085D01*
D02*
G37*
G36*
X1931D02*
X1839D01*
Y4982D01*
X1931D01*
Y5085D01*
D02*
G37*
G36*
X1760D02*
X1667D01*
Y4982D01*
X1760D01*
Y5085D01*
D02*
G37*
G36*
X8642Y6004D02*
X8169D01*
X8169Y5807D01*
X8169Y5757D01*
Y5267D01*
X8169Y5217D01*
X8169D01*
Y5217D01*
X8169D01*
Y4873D01*
X8169Y4823D01*
X8169D01*
Y4823D01*
X8169D01*
Y4626D01*
Y4282D01*
X8169Y4232D01*
X8169D01*
Y4232D01*
X8169D01*
Y3889D01*
X8169Y3839D01*
X8169D01*
Y3839D01*
X8169D01*
Y3445D01*
X8169Y3248D01*
X8169Y3198D01*
Y3189D01*
X8406D01*
X8642D01*
Y3218D01*
X8646Y3222D01*
X8692Y3240D01*
X8723Y3219D01*
X8777Y3208D01*
X8831Y3219D01*
X8876Y3250D01*
X8907Y3295D01*
X8917Y3349D01*
X8914Y3366D01*
X8957Y3409D01*
X8973Y3405D01*
X9027Y3416D01*
X9073Y3446D01*
X9103Y3492D01*
X9114Y3546D01*
X9103Y3600D01*
X9073Y3645D01*
X9027Y3676D01*
X8973Y3686D01*
X8958Y3683D01*
X8915Y3726D01*
X8917Y3738D01*
X8913Y3758D01*
X8956Y3801D01*
X8976Y3797D01*
X9030Y3807D01*
X9075Y3838D01*
X9106Y3883D01*
X9116Y3937D01*
X9106Y3991D01*
X9075Y4036D01*
X9030Y4067D01*
X8976Y4078D01*
X8965Y4075D01*
X8928Y4109D01*
Y4159D01*
X8965Y4192D01*
X8976Y4190D01*
X9030Y4201D01*
X9075Y4231D01*
X9106Y4277D01*
X9116Y4331D01*
X9106Y4384D01*
X9075Y4430D01*
X9030Y4461D01*
X8976Y4471D01*
X8960Y4468D01*
X8918Y4511D01*
X8920Y4522D01*
X8916Y4545D01*
X8957Y4588D01*
X8976Y4584D01*
X9030Y4595D01*
X9075Y4625D01*
X9106Y4671D01*
X9116Y4724D01*
X9106Y4778D01*
X9075Y4824D01*
X9030Y4854D01*
X8976Y4865D01*
X8965Y4863D01*
X8928Y4896D01*
Y4946D01*
X8965Y4980D01*
X8976Y4978D01*
X9030Y4988D01*
X9075Y5019D01*
X9106Y5064D01*
X9116Y5118D01*
X9106Y5172D01*
X9075Y5217D01*
X9030Y5248D01*
X8976Y5259D01*
X8959Y5255D01*
X8917Y5298D01*
X8920Y5315D01*
X8909Y5369D01*
X8879Y5414D01*
X8833Y5445D01*
X8780Y5455D01*
X8726Y5445D01*
X8692Y5422D01*
X8652Y5436D01*
X8642Y5444D01*
Y5610D01*
X8642Y5807D01*
X8642Y5857D01*
Y6004D01*
D02*
G37*
G36*
X27348Y4809D02*
X26170D01*
Y4765D01*
X26120Y4738D01*
X26097Y4754D01*
X26043Y4765D01*
X25990Y4754D01*
X25944Y4723D01*
X25942Y4720D01*
X25892Y4735D01*
Y4766D01*
X25628D01*
Y4482D01*
X25892D01*
Y4513D01*
X25942Y4528D01*
X25944Y4525D01*
X25990Y4494D01*
X26043Y4484D01*
X26097Y4494D01*
X26120Y4510D01*
X26170Y4483D01*
Y4439D01*
X27348D01*
Y4809D01*
D02*
G37*
G36*
X3726D02*
X2548D01*
Y4765D01*
X2498Y4738D01*
X2475Y4754D01*
X2421Y4765D01*
X2367Y4754D01*
X2322Y4723D01*
X2320Y4720D01*
X2270Y4735D01*
Y4766D01*
X2006D01*
Y4482D01*
X2270D01*
Y4513D01*
X2320Y4528D01*
X2322Y4525D01*
X2367Y4494D01*
X2421Y4484D01*
X2475Y4494D01*
X2498Y4510D01*
X2548Y4483D01*
Y4439D01*
X3726D01*
Y4809D01*
D02*
G37*
G36*
X29829Y4766D02*
X29736D01*
Y4663D01*
X29829D01*
Y4766D01*
D02*
G37*
G36*
X29657D02*
X29565D01*
Y4663D01*
X29657D01*
Y4766D01*
D02*
G37*
G36*
X25553Y4766D02*
X25461D01*
Y4663D01*
X25553D01*
Y4766D01*
D02*
G37*
G36*
X1931D02*
X1839D01*
Y4663D01*
X1931D01*
Y4766D01*
D02*
G37*
G36*
X1760D02*
X1667D01*
Y4663D01*
X1760D01*
Y4766D01*
D02*
G37*
G36*
X25382D02*
X25289D01*
Y4663D01*
X25382D01*
Y4766D01*
D02*
G37*
G36*
X6207Y4766D02*
X6114D01*
Y4663D01*
X6207D01*
Y4766D01*
D02*
G37*
G36*
X6035D02*
X5943D01*
Y4663D01*
X6035D01*
Y4766D01*
D02*
G37*
G36*
X21433Y4669D02*
Y4567D01*
X21526D01*
Y4669D01*
X21433D01*
D02*
G37*
G36*
X20896D02*
X20803D01*
Y4567D01*
X20896D01*
Y4669D01*
D02*
G37*
G36*
X20724D02*
X20632D01*
Y4567D01*
X20724D01*
Y4669D01*
D02*
G37*
G36*
X29829Y4585D02*
X29736D01*
Y4482D01*
X29829D01*
Y4585D01*
D02*
G37*
G36*
X29657D02*
X29565D01*
Y4482D01*
X29657D01*
Y4585D01*
D02*
G37*
G36*
X28948Y4809D02*
X27770D01*
Y4439D01*
X28948D01*
Y4483D01*
X28998Y4510D01*
X29021Y4494D01*
X29075Y4484D01*
X29129Y4494D01*
X29174Y4525D01*
X29176Y4528D01*
X29226Y4513D01*
Y4482D01*
X29490D01*
Y4766D01*
X29226D01*
Y4735D01*
X29176Y4720D01*
X29174Y4723D01*
X29129Y4754D01*
X29075Y4765D01*
X29021Y4754D01*
X28998Y4738D01*
X28948Y4765D01*
Y4809D01*
D02*
G37*
G36*
X6207Y4585D02*
X6114D01*
Y4482D01*
X6207D01*
Y4585D01*
D02*
G37*
G36*
X6035D02*
X5943D01*
Y4482D01*
X6035D01*
Y4585D01*
D02*
G37*
G36*
X5326Y4809D02*
X4148D01*
Y4439D01*
X5326D01*
Y4483D01*
X5376Y4510D01*
X5399Y4494D01*
X5453Y4484D01*
X5507Y4494D01*
X5552Y4525D01*
X5554Y4528D01*
X5604Y4513D01*
Y4482D01*
X5868D01*
Y4766D01*
X5604D01*
Y4735D01*
X5554Y4720D01*
X5552Y4723D01*
X5507Y4754D01*
X5453Y4765D01*
X5399Y4754D01*
X5376Y4738D01*
X5326Y4765D01*
Y4809D01*
D02*
G37*
G36*
X25553Y4585D02*
X25461D01*
Y4482D01*
X25553D01*
Y4585D01*
D02*
G37*
G36*
X25382D02*
X25289D01*
Y4482D01*
X25382D01*
Y4585D01*
D02*
G37*
G36*
X1931D02*
X1839D01*
Y4482D01*
X1931D01*
Y4585D01*
D02*
G37*
G36*
X1760D02*
X1667D01*
Y4482D01*
X1760D01*
Y4585D01*
D02*
G37*
G36*
X21526Y4488D02*
X21433D01*
Y4386D01*
X21526D01*
Y4488D01*
D02*
G37*
G36*
X20896Y4488D02*
X20803D01*
Y4386D01*
X20896D01*
Y4488D01*
D02*
G37*
G36*
X20724D02*
X20632D01*
Y4386D01*
X20724D01*
Y4488D01*
D02*
G37*
G36*
X15102Y4407D02*
X15000D01*
Y4315D01*
X15102D01*
Y4407D01*
D02*
G37*
G36*
X14921D02*
X14819D01*
Y4315D01*
X14921D01*
Y4407D01*
D02*
G37*
G36*
X27348Y4309D02*
X26170D01*
Y4265D01*
X26120Y4238D01*
X26097Y4254D01*
X26043Y4265D01*
X25990Y4254D01*
X25944Y4223D01*
X25942Y4220D01*
X25892Y4235D01*
Y4266D01*
X25628D01*
Y3982D01*
X25892D01*
Y4013D01*
X25942Y4028D01*
X25944Y4025D01*
X25990Y3994D01*
X26043Y3984D01*
X26097Y3994D01*
X26120Y4010D01*
X26170Y3983D01*
Y3939D01*
X27348D01*
Y4309D01*
D02*
G37*
G36*
X3726D02*
X2548D01*
Y4265D01*
X2498Y4238D01*
X2475Y4254D01*
X2421Y4265D01*
X2367Y4254D01*
X2322Y4223D01*
X2320Y4220D01*
X2270Y4235D01*
Y4266D01*
X2006D01*
Y3982D01*
X2270D01*
Y4013D01*
X2320Y4028D01*
X2322Y4025D01*
X2367Y3994D01*
X2421Y3984D01*
X2475Y3994D01*
X2498Y4010D01*
X2548Y3983D01*
Y3939D01*
X3726D01*
Y4309D01*
D02*
G37*
G36*
X29829Y4266D02*
X29736D01*
Y4163D01*
X29829D01*
Y4266D01*
D02*
G37*
G36*
X29657D02*
X29565D01*
Y4163D01*
X29657D01*
Y4266D01*
D02*
G37*
G36*
X25553Y4266D02*
X25461D01*
Y4163D01*
X25553D01*
Y4266D01*
D02*
G37*
G36*
X1931D02*
X1839D01*
Y4163D01*
X1931D01*
Y4266D01*
D02*
G37*
G36*
X1760D02*
X1667D01*
Y4163D01*
X1760D01*
Y4266D01*
D02*
G37*
G36*
X25382D02*
X25289D01*
Y4163D01*
X25382D01*
Y4266D01*
D02*
G37*
G36*
X6207Y4266D02*
X6114D01*
Y4163D01*
X6207D01*
Y4266D01*
D02*
G37*
G36*
X6035D02*
X5943D01*
Y4163D01*
X6035D01*
Y4266D01*
D02*
G37*
G36*
X15102Y4236D02*
X15000D01*
Y4144D01*
X15102D01*
Y4236D01*
D02*
G37*
G36*
X14921D02*
X14819D01*
Y4144D01*
X14921D01*
Y4236D01*
D02*
G37*
G36*
X18307Y4183D02*
X18110D01*
Y4094D01*
X18307D01*
Y4183D01*
D02*
G37*
G36*
X18032D02*
X17835D01*
Y4094D01*
X18032D01*
Y4183D01*
D02*
G37*
G36*
X29829Y4085D02*
X29736D01*
Y3982D01*
X29829D01*
Y4085D01*
D02*
G37*
G36*
X29657D02*
X29565D01*
Y3982D01*
X29657D01*
Y4085D01*
D02*
G37*
G36*
X28948Y4309D02*
X27770D01*
Y3939D01*
X28948D01*
Y3983D01*
X28998Y4010D01*
X29021Y3994D01*
X29075Y3984D01*
X29129Y3994D01*
X29174Y4025D01*
X29176Y4028D01*
X29226Y4013D01*
Y3982D01*
X29490D01*
Y4266D01*
X29226D01*
Y4235D01*
X29176Y4220D01*
X29174Y4223D01*
X29129Y4254D01*
X29075Y4265D01*
X29021Y4254D01*
X28998Y4238D01*
X28948Y4265D01*
Y4309D01*
D02*
G37*
G36*
X6207Y4085D02*
X6114D01*
Y3982D01*
X6207D01*
Y4085D01*
D02*
G37*
G36*
X6035D02*
X5943D01*
Y3982D01*
X6035D01*
Y4085D01*
D02*
G37*
G36*
X5326Y4309D02*
X4148D01*
Y3939D01*
X5326D01*
Y3983D01*
X5376Y4010D01*
X5399Y3994D01*
X5453Y3984D01*
X5507Y3994D01*
X5552Y4025D01*
X5554Y4028D01*
X5604Y4013D01*
Y3982D01*
X5868D01*
Y4266D01*
X5604D01*
Y4235D01*
X5554Y4220D01*
X5552Y4223D01*
X5507Y4254D01*
X5453Y4265D01*
X5399Y4254D01*
X5376Y4238D01*
X5326Y4265D01*
Y4309D01*
D02*
G37*
G36*
X25553Y4085D02*
X25461D01*
Y3982D01*
X25553D01*
Y4085D01*
D02*
G37*
G36*
X25382D02*
X25289D01*
Y3982D01*
X25382D01*
Y4085D01*
D02*
G37*
G36*
X1931D02*
X1839D01*
Y3982D01*
X1931D01*
Y4085D01*
D02*
G37*
G36*
X1760D02*
X1667D01*
Y3982D01*
X1760D01*
Y4085D01*
D02*
G37*
G36*
X27348Y3809D02*
X26170D01*
Y3765D01*
X26120Y3738D01*
X26097Y3754D01*
X26043Y3765D01*
X25990Y3754D01*
X25944Y3723D01*
X25942Y3720D01*
X25892Y3735D01*
Y3766D01*
X25628D01*
Y3482D01*
X25892D01*
Y3513D01*
X25942Y3528D01*
X25944Y3525D01*
X25990Y3494D01*
X26043Y3484D01*
X26097Y3494D01*
X26120Y3510D01*
X26170Y3483D01*
Y3439D01*
X27348D01*
Y3809D01*
D02*
G37*
G36*
X3726D02*
X2548D01*
Y3765D01*
X2498Y3738D01*
X2475Y3754D01*
X2421Y3765D01*
X2367Y3754D01*
X2322Y3723D01*
X2320Y3720D01*
X2270Y3735D01*
Y3766D01*
X2006D01*
Y3482D01*
X2270D01*
Y3513D01*
X2320Y3528D01*
X2322Y3525D01*
X2367Y3494D01*
X2421Y3484D01*
X2475Y3494D01*
X2498Y3510D01*
X2548Y3483D01*
Y3439D01*
X3726D01*
Y3809D01*
D02*
G37*
G36*
X29829Y3766D02*
X29736D01*
Y3663D01*
X29829D01*
Y3766D01*
D02*
G37*
G36*
X29657D02*
X29565D01*
Y3663D01*
X29657D01*
Y3766D01*
D02*
G37*
G36*
X25553Y3766D02*
X25461D01*
Y3663D01*
X25553D01*
Y3766D01*
D02*
G37*
G36*
X1931D02*
X1839D01*
Y3663D01*
X1931D01*
Y3766D01*
D02*
G37*
G36*
X1760D02*
X1667D01*
Y3663D01*
X1760D01*
Y3766D01*
D02*
G37*
G36*
X25382D02*
X25289D01*
Y3663D01*
X25382D01*
Y3766D01*
D02*
G37*
G36*
X6207Y3766D02*
X6114D01*
Y3663D01*
X6207D01*
Y3766D01*
D02*
G37*
G36*
X6035D02*
X5943D01*
Y3663D01*
X6035D01*
Y3766D01*
D02*
G37*
G36*
X20157Y4442D02*
X20104Y4431D01*
X20058Y4401D01*
X20028Y4355D01*
X20017Y4301D01*
X20021Y4282D01*
X20020Y4232D01*
X20020Y4232D01*
X20020Y4232D01*
Y3642D01*
X20285D01*
X20295Y3642D01*
X20335D01*
X20345Y3642D01*
X20600D01*
X20610Y3642D01*
X20650D01*
X20660Y3642D01*
X20748D01*
Y3937D01*
Y4232D01*
X20660D01*
X20650Y4232D01*
X20610D01*
X20600Y4232D01*
X20345D01*
X20335Y4232D01*
X20295D01*
X20294Y4282D01*
X20298Y4301D01*
X20287Y4355D01*
X20257Y4401D01*
X20211Y4431D01*
X20157Y4442D01*
D02*
G37*
G36*
X14665Y3701D02*
X14429D01*
X14193D01*
Y3624D01*
X13971D01*
X13958Y3643D01*
X13912Y3673D01*
X13859Y3684D01*
X13805Y3673D01*
X13759Y3643D01*
X13729Y3597D01*
X13718Y3543D01*
X13729Y3490D01*
X13759Y3444D01*
X13805Y3414D01*
X13859Y3403D01*
X13870Y3405D01*
X13907Y3372D01*
Y3321D01*
X13870Y3288D01*
X13859Y3290D01*
X13805Y3279D01*
X13759Y3249D01*
X13729Y3203D01*
X13718Y3150D01*
X13729Y3096D01*
X13759Y3050D01*
X13805Y3020D01*
X13859Y3009D01*
X13874Y3012D01*
X13917Y2970D01*
X13915Y2958D01*
X13919Y2935D01*
X13877Y2893D01*
X13859Y2896D01*
X13805Y2886D01*
X13759Y2855D01*
X13729Y2810D01*
X13718Y2756D01*
X13729Y2702D01*
X13759Y2657D01*
X13805Y2626D01*
X13859Y2615D01*
X13870Y2618D01*
X13907Y2584D01*
Y2534D01*
X13870Y2501D01*
X13859Y2503D01*
X13805Y2492D01*
X13759Y2462D01*
X13729Y2416D01*
X13718Y2362D01*
X13729Y2308D01*
X13759Y2263D01*
X13805Y2232D01*
X13859Y2222D01*
X13912Y2232D01*
X13958Y2263D01*
X13971Y2282D01*
X14150D01*
X14193Y2264D01*
X14193Y2214D01*
Y2117D01*
X14143Y2090D01*
X14131Y2098D01*
X14077Y2109D01*
X14023Y2098D01*
X13978Y2068D01*
X13947Y2022D01*
X13937Y1969D01*
X13942Y1942D01*
X13932Y1929D01*
X13899Y1904D01*
X13859Y1912D01*
X13805Y1901D01*
X13759Y1871D01*
X13729Y1825D01*
X13718Y1772D01*
X13729Y1718D01*
X13759Y1672D01*
X13805Y1642D01*
X13859Y1631D01*
X13899Y1639D01*
X13932Y1615D01*
X13942Y1601D01*
X13937Y1575D01*
X13942Y1548D01*
X13932Y1535D01*
X13899Y1510D01*
X13859Y1518D01*
X13805Y1508D01*
X13759Y1477D01*
X13729Y1432D01*
X13718Y1378D01*
X13729Y1324D01*
X13759Y1279D01*
X13805Y1248D01*
X13859Y1237D01*
X13899Y1245D01*
X13932Y1221D01*
X13942Y1208D01*
X13937Y1181D01*
X13947Y1127D01*
X13978Y1082D01*
X14023Y1051D01*
X14077Y1041D01*
X14131Y1051D01*
X14149Y1064D01*
X14193Y1083D01*
X14193Y1083D01*
X14193Y1083D01*
X14665D01*
Y1230D01*
X14665Y1280D01*
X14665D01*
Y1280D01*
X14665D01*
Y1476D01*
Y1820D01*
X14665Y1870D01*
X14665D01*
Y1870D01*
X14665D01*
Y2067D01*
X14665Y2264D01*
X14665Y2314D01*
Y2804D01*
X14665Y2854D01*
X14665D01*
Y2854D01*
X14665D01*
Y3198D01*
X14665Y3248D01*
X14665D01*
Y3248D01*
X14665D01*
Y3642D01*
Y3701D01*
D02*
G37*
G36*
X16161Y3654D02*
X16108Y3644D01*
X16074Y3621D01*
X16067Y3623D01*
X16024Y3642D01*
X16024Y3642D01*
X16024Y3642D01*
X15551D01*
Y3594D01*
X15496D01*
Y3646D01*
X15213D01*
Y3594D01*
X15102D01*
Y3646D01*
X14819D01*
Y3382D01*
X15102D01*
Y3433D01*
X15213D01*
Y3382D01*
X15496D01*
Y3426D01*
X15533Y3428D01*
X15551Y3380D01*
Y3180D01*
X15551Y3130D01*
X15551D01*
Y3130D01*
X15551D01*
Y2924D01*
X15551Y2874D01*
X15551D01*
Y2874D01*
X15551D01*
Y2668D01*
X15551Y2618D01*
X15551D01*
Y2618D01*
X15551D01*
X15551Y2362D01*
X15551Y2312D01*
X15551Y2106D01*
X15551Y2056D01*
X15551Y1850D01*
X15551Y1800D01*
X15551Y1600D01*
X15533Y1552D01*
X15496Y1554D01*
Y1598D01*
X15213D01*
X15213Y1598D01*
Y1598D01*
X15163Y1589D01*
X15152Y1596D01*
X15098Y1607D01*
X15045Y1596D01*
X14999Y1566D01*
X14969Y1520D01*
X14958Y1467D01*
X14969Y1413D01*
X14999Y1367D01*
X15045Y1337D01*
X15098Y1326D01*
X15152Y1337D01*
X15163Y1344D01*
X15213Y1335D01*
Y1335D01*
X15213Y1335D01*
X15496D01*
Y1379D01*
X15533Y1381D01*
X15551Y1333D01*
X15551Y1289D01*
Y1083D01*
X16024D01*
X16024Y1339D01*
X16024Y1389D01*
X16024Y1594D01*
X16024Y1644D01*
X16024Y1850D01*
X16024Y1900D01*
X16024Y2106D01*
X16024Y2156D01*
X16024Y2361D01*
X16033Y2368D01*
X16074Y2383D01*
X16108Y2360D01*
X16161Y2350D01*
X16215Y2360D01*
X16261Y2391D01*
X16291Y2436D01*
X16302Y2490D01*
X16291Y2544D01*
X16261Y2589D01*
X16255Y2593D01*
Y2643D01*
X16261Y2647D01*
X16291Y2692D01*
X16302Y2746D01*
X16291Y2800D01*
X16261Y2845D01*
X16255Y2849D01*
Y2899D01*
X16261Y2903D01*
X16291Y2948D01*
X16302Y3002D01*
X16291Y3056D01*
X16261Y3101D01*
X16255Y3105D01*
Y3155D01*
X16261Y3159D01*
X16291Y3204D01*
X16302Y3258D01*
X16291Y3312D01*
X16261Y3357D01*
X16255Y3361D01*
Y3411D01*
X16261Y3414D01*
X16291Y3460D01*
X16302Y3514D01*
X16291Y3568D01*
X16261Y3613D01*
X16215Y3644D01*
X16161Y3654D01*
D02*
G37*
G36*
X18307Y3642D02*
X18110D01*
Y3553D01*
X18307D01*
Y3642D01*
D02*
G37*
G36*
X18032D02*
X17835D01*
Y3553D01*
X18032D01*
Y3642D01*
D02*
G37*
G36*
X29829Y3585D02*
X29736D01*
Y3482D01*
X29829D01*
Y3585D01*
D02*
G37*
G36*
X29657D02*
X29565D01*
Y3482D01*
X29657D01*
Y3585D01*
D02*
G37*
G36*
X28948Y3809D02*
X27770D01*
Y3439D01*
X28948D01*
Y3483D01*
X28998Y3510D01*
X29021Y3494D01*
X29075Y3484D01*
X29129Y3494D01*
X29174Y3525D01*
X29176Y3528D01*
X29226Y3513D01*
Y3482D01*
X29490D01*
Y3766D01*
X29226D01*
Y3735D01*
X29176Y3720D01*
X29174Y3723D01*
X29129Y3754D01*
X29075Y3765D01*
X29021Y3754D01*
X28998Y3738D01*
X28948Y3765D01*
Y3809D01*
D02*
G37*
G36*
X6207Y3585D02*
X6114D01*
Y3482D01*
X6207D01*
Y3585D01*
D02*
G37*
G36*
X6035D02*
X5943D01*
Y3482D01*
X6035D01*
Y3585D01*
D02*
G37*
G36*
X5326Y3809D02*
X4148D01*
Y3439D01*
X5326D01*
Y3483D01*
X5376Y3510D01*
X5399Y3494D01*
X5453Y3484D01*
X5507Y3494D01*
X5552Y3525D01*
X5554Y3528D01*
X5604Y3513D01*
Y3482D01*
X5868D01*
Y3766D01*
X5604D01*
Y3735D01*
X5554Y3720D01*
X5552Y3723D01*
X5507Y3754D01*
X5453Y3765D01*
X5399Y3754D01*
X5376Y3738D01*
X5326Y3765D01*
Y3809D01*
D02*
G37*
G36*
X25553Y3585D02*
X25461D01*
Y3482D01*
X25553D01*
Y3585D01*
D02*
G37*
G36*
X25382D02*
X25289D01*
Y3482D01*
X25382D01*
Y3585D01*
D02*
G37*
G36*
X1931D02*
X1839D01*
Y3482D01*
X1931D01*
Y3585D01*
D02*
G37*
G36*
X1760D02*
X1667D01*
Y3482D01*
X1760D01*
Y3585D01*
D02*
G37*
G36*
X20157Y3507D02*
X20103Y3496D01*
X20058Y3465D01*
X20045Y3446D01*
X19882D01*
Y3504D01*
X19291D01*
Y3239D01*
X19291Y3228D01*
Y3189D01*
X19291Y3178D01*
Y2924D01*
X19291Y2913D01*
Y2874D01*
X19291Y2863D01*
Y2609D01*
X19291Y2598D01*
Y2559D01*
X19291Y2552D01*
X19284Y2502D01*
X19039D01*
Y2553D01*
X18756D01*
Y2502D01*
X18646D01*
Y2553D01*
X18362D01*
Y2289D01*
X18646D01*
Y2341D01*
X18756D01*
Y2289D01*
X19039D01*
Y2341D01*
X19256D01*
X19289Y2308D01*
X19291Y2291D01*
X19291Y2244D01*
X19291Y2233D01*
Y1979D01*
X19291Y1969D01*
Y1929D01*
X19291Y1919D01*
Y1664D01*
X19291Y1654D01*
Y1614D01*
X19291Y1604D01*
Y1349D01*
X19291Y1339D01*
Y1299D01*
X19291Y1289D01*
Y1024D01*
X19882D01*
X19882Y1024D01*
X19932Y1027D01*
X19961Y1021D01*
X19978Y1024D01*
X20020Y982D01*
X20017Y965D01*
X20023Y936D01*
X20020Y886D01*
X20020Y886D01*
X20020Y886D01*
Y295D01*
X20285D01*
X20295Y295D01*
X20335D01*
X20345Y295D01*
X20600D01*
X20610Y295D01*
X20650D01*
X20660Y295D01*
X20915D01*
X20925Y295D01*
X20965D01*
X20975Y295D01*
X21063D01*
Y591D01*
Y886D01*
X20975D01*
X20965Y886D01*
X20925D01*
X20915Y886D01*
X20660D01*
X20650Y886D01*
X20610D01*
X20607Y936D01*
X20613Y965D01*
X20602Y1018D01*
X20572Y1064D01*
X20526Y1094D01*
X20472Y1105D01*
X20419Y1094D01*
X20373Y1064D01*
X20343Y1018D01*
X20340Y1007D01*
X20289D01*
X20287Y1018D01*
X20257Y1064D01*
X20211Y1094D01*
X20157Y1105D01*
X20140Y1102D01*
X20098Y1144D01*
X20101Y1161D01*
X20090Y1215D01*
X20060Y1261D01*
X20014Y1291D01*
X19961Y1302D01*
X19932Y1296D01*
X19882Y1299D01*
Y1339D01*
X19882Y1349D01*
Y1604D01*
X19882Y1614D01*
Y1654D01*
X19882Y1664D01*
Y1919D01*
X19882Y1929D01*
Y1969D01*
X19882Y1979D01*
Y2233D01*
X19882Y2244D01*
Y2283D01*
X19882Y2291D01*
X19889Y2341D01*
X20951D01*
X20964Y2322D01*
X21009Y2291D01*
X21063Y2281D01*
X21117Y2291D01*
X21162Y2322D01*
X21193Y2367D01*
X21203Y2421D01*
X21193Y2475D01*
X21162Y2521D01*
X21117Y2551D01*
X21063Y2562D01*
X21009Y2551D01*
X20964Y2521D01*
X20951Y2502D01*
X19917D01*
X19884Y2534D01*
X19882Y2552D01*
X19882Y2598D01*
X19882Y2606D01*
X19889Y2656D01*
X20045D01*
X20058Y2637D01*
X20103Y2606D01*
X20157Y2596D01*
X20211Y2606D01*
X20256Y2637D01*
X20287Y2682D01*
X20298Y2736D01*
X20287Y2790D01*
X20256Y2836D01*
X20211Y2866D01*
X20200Y2868D01*
Y2919D01*
X20211Y2921D01*
X20256Y2952D01*
X20287Y2997D01*
X20298Y3051D01*
X20287Y3105D01*
X20256Y3151D01*
X20211Y3181D01*
X20200Y3183D01*
Y3234D01*
X20211Y3236D01*
X20256Y3267D01*
X20287Y3312D01*
X20298Y3366D01*
X20287Y3420D01*
X20256Y3465D01*
X20211Y3496D01*
X20157Y3507D01*
D02*
G37*
G36*
X18307Y3474D02*
X17835D01*
Y3387D01*
X17826Y3380D01*
X17785Y3365D01*
X17751Y3388D01*
X17697Y3398D01*
X17643Y3388D01*
X17598Y3357D01*
X17567Y3312D01*
X17556Y3258D01*
X17567Y3204D01*
X17598Y3159D01*
X17603Y3155D01*
Y3105D01*
X17598Y3101D01*
X17567Y3056D01*
X17556Y3002D01*
X17567Y2948D01*
X17598Y2903D01*
X17603Y2899D01*
Y2849D01*
X17598Y2845D01*
X17567Y2800D01*
X17556Y2746D01*
X17567Y2692D01*
X17598Y2647D01*
X17603Y2643D01*
Y2593D01*
X17598Y2589D01*
X17567Y2544D01*
X17556Y2490D01*
X17567Y2436D01*
X17598Y2391D01*
X17643Y2360D01*
X17697Y2350D01*
X17751Y2360D01*
X17785Y2383D01*
X17826Y2368D01*
X17835Y2361D01*
X17835Y2312D01*
X17835Y2106D01*
X17835Y2056D01*
X17835Y1850D01*
X17835Y1800D01*
X17835Y1594D01*
X17835Y1544D01*
X17835Y1339D01*
X17835Y1289D01*
Y1083D01*
X18307D01*
X18307Y1333D01*
X18325Y1381D01*
X18362Y1379D01*
Y1335D01*
X18646D01*
Y1598D01*
X18584D01*
Y1663D01*
X18603Y1675D01*
X18634Y1721D01*
X18644Y1775D01*
X18634Y1828D01*
X18603Y1874D01*
X18584Y1887D01*
Y1951D01*
X18646D01*
Y2215D01*
X18362D01*
Y1951D01*
X18424D01*
Y1887D01*
X18405Y1874D01*
X18374Y1828D01*
X18363Y1775D01*
X18374Y1721D01*
X18405Y1675D01*
X18424Y1663D01*
Y1598D01*
X18362D01*
Y1554D01*
X18325Y1552D01*
X18307Y1600D01*
X18307Y1644D01*
X18307Y1850D01*
X18307Y1900D01*
X18307Y2106D01*
X18307Y2156D01*
X18307Y2362D01*
X18307Y2412D01*
Y2568D01*
X18307Y2618D01*
X18307D01*
Y2618D01*
X18307D01*
Y2824D01*
X18307Y2874D01*
X18307D01*
Y2874D01*
X18307D01*
Y3080D01*
X18307Y3130D01*
X18307D01*
Y3130D01*
X18307D01*
X18307Y3386D01*
X18307Y3436D01*
Y3474D01*
D02*
G37*
G36*
X8016Y3423D02*
X7913D01*
Y3331D01*
X8016D01*
Y3423D01*
D02*
G37*
G36*
X7835D02*
X7732D01*
Y3331D01*
X7835D01*
Y3423D01*
D02*
G37*
G36*
X27348Y3309D02*
X26170D01*
Y3265D01*
X26120Y3238D01*
X26097Y3254D01*
X26043Y3265D01*
X25990Y3254D01*
X25944Y3223D01*
X25942Y3220D01*
X25892Y3235D01*
Y3266D01*
X25628D01*
Y2982D01*
X25892D01*
Y3013D01*
X25942Y3028D01*
X25944Y3025D01*
X25990Y2994D01*
X26043Y2984D01*
X26097Y2994D01*
X26120Y3010D01*
X26170Y2983D01*
Y2939D01*
X27348D01*
Y3309D01*
D02*
G37*
G36*
X3726D02*
X2548D01*
Y3265D01*
X2498Y3238D01*
X2475Y3254D01*
X2421Y3265D01*
X2367Y3254D01*
X2322Y3223D01*
X2320Y3220D01*
X2270Y3235D01*
Y3266D01*
X2006D01*
Y2982D01*
X2270D01*
Y3013D01*
X2320Y3028D01*
X2322Y3025D01*
X2367Y2994D01*
X2421Y2984D01*
X2475Y2994D01*
X2498Y3010D01*
X2548Y2983D01*
Y2939D01*
X3726D01*
Y3309D01*
D02*
G37*
G36*
X15496Y3307D02*
X15394D01*
Y3215D01*
X15496D01*
Y3307D01*
D02*
G37*
G36*
X15102D02*
X15000D01*
Y3215D01*
X15102D01*
Y3307D01*
D02*
G37*
G36*
X14921D02*
X14819D01*
Y3215D01*
X14921D01*
Y3307D01*
D02*
G37*
G36*
X15315D02*
X15213D01*
Y3215D01*
X15315D01*
Y3307D01*
D02*
G37*
G36*
X29829Y3266D02*
X29736D01*
Y3163D01*
X29829D01*
Y3266D01*
D02*
G37*
G36*
X29657D02*
X29565D01*
Y3163D01*
X29657D01*
Y3266D01*
D02*
G37*
G36*
X25553Y3266D02*
X25461D01*
Y3163D01*
X25553D01*
Y3266D01*
D02*
G37*
G36*
X1931D02*
X1839D01*
Y3163D01*
X1931D01*
Y3266D01*
D02*
G37*
G36*
X1760D02*
X1667D01*
Y3163D01*
X1760D01*
Y3266D01*
D02*
G37*
G36*
X25382D02*
X25289D01*
Y3163D01*
X25382D01*
Y3266D01*
D02*
G37*
G36*
X6207Y3266D02*
X6114D01*
Y3163D01*
X6207D01*
Y3266D01*
D02*
G37*
G36*
X6035D02*
X5943D01*
Y3163D01*
X6035D01*
Y3266D01*
D02*
G37*
G36*
X8016Y3252D02*
X7913D01*
Y3159D01*
X8016D01*
Y3252D01*
D02*
G37*
G36*
X7835D02*
X7732D01*
Y3159D01*
X7835D01*
Y3252D01*
D02*
G37*
G36*
X15496Y3136D02*
X15394D01*
Y3043D01*
X15496D01*
Y3136D01*
D02*
G37*
G36*
X15315D02*
X15213D01*
Y3043D01*
X15315D01*
Y3136D01*
D02*
G37*
G36*
X15102D02*
X15000D01*
Y3043D01*
X15102D01*
Y3136D01*
D02*
G37*
G36*
X14921D02*
X14819D01*
Y3043D01*
X14921D01*
Y3136D01*
D02*
G37*
G36*
X8642Y3110D02*
X8406D01*
X8169D01*
Y3033D01*
X8016D01*
Y3085D01*
X7732D01*
Y2821D01*
X8016D01*
Y2872D01*
X8127D01*
X8169Y2854D01*
Y2442D01*
X7199D01*
X7186Y2462D01*
X7140Y2492D01*
X7087Y2503D01*
X7033Y2492D01*
X6987Y2462D01*
X6957Y2416D01*
X6946Y2362D01*
X6957Y2308D01*
X6987Y2263D01*
X7033Y2232D01*
X7087Y2222D01*
X7104Y2225D01*
X7146Y2183D01*
X7143Y2165D01*
X7154Y2112D01*
X7184Y2066D01*
X7230Y2036D01*
X7283Y2025D01*
X7337Y2036D01*
X7383Y2066D01*
X7396Y2085D01*
X8169D01*
X8169Y1870D01*
X8127Y1852D01*
X7671D01*
X7658Y1871D01*
X7613Y1901D01*
X7559Y1912D01*
X7505Y1901D01*
X7460Y1871D01*
X7429Y1825D01*
X7419Y1772D01*
X7429Y1718D01*
X7438Y1705D01*
X7411Y1655D01*
X6805D01*
X6792Y1674D01*
X6747Y1705D01*
X6693Y1715D01*
X6639Y1705D01*
X6594Y1674D01*
X6563Y1629D01*
X6552Y1575D01*
X6563Y1521D01*
X6594Y1475D01*
X6639Y1445D01*
X6693Y1434D01*
X6710Y1438D01*
X6753Y1395D01*
X6749Y1378D01*
X6760Y1324D01*
X6790Y1279D01*
X6836Y1248D01*
X6890Y1237D01*
X6944Y1248D01*
X6989Y1279D01*
X7002Y1298D01*
X8127D01*
X8169Y1280D01*
X8169Y1230D01*
Y1083D01*
X8642D01*
X8642Y1280D01*
X8642Y1330D01*
X8642Y1834D01*
X8652Y1842D01*
X8692Y1856D01*
X8726Y1834D01*
X8780Y1823D01*
X8833Y1834D01*
X8879Y1864D01*
X8909Y1910D01*
X8920Y1963D01*
X8909Y2017D01*
X8879Y2063D01*
X8833Y2093D01*
X8780Y2104D01*
X8726Y2093D01*
X8692Y2070D01*
X8652Y2085D01*
X8642Y2093D01*
Y2214D01*
X8642Y2264D01*
X8642D01*
Y2264D01*
X8642D01*
Y2479D01*
X8864D01*
X8877Y2460D01*
X8923Y2429D01*
X8976Y2419D01*
X9030Y2429D01*
X9076Y2460D01*
X9106Y2505D01*
X9117Y2559D01*
X9115Y2568D01*
X9134Y2615D01*
X9188Y2626D01*
X9233Y2657D01*
X9264Y2702D01*
X9274Y2756D01*
X9264Y2810D01*
X9255Y2822D01*
X9282Y2872D01*
X9337D01*
X9349Y2853D01*
X9395Y2823D01*
X9449Y2812D01*
X9503Y2823D01*
X9548Y2853D01*
X9579Y2899D01*
X9589Y2953D01*
X9579Y3007D01*
X9548Y3052D01*
X9503Y3083D01*
X9449Y3093D01*
X9395Y3083D01*
X9349Y3052D01*
X9337Y3033D01*
X8642D01*
Y3110D01*
D02*
G37*
G36*
X29829Y3085D02*
X29736D01*
Y2982D01*
X29829D01*
Y3085D01*
D02*
G37*
G36*
X29657D02*
X29565D01*
Y2982D01*
X29657D01*
Y3085D01*
D02*
G37*
G36*
X28948Y3309D02*
X27770D01*
Y2939D01*
X28948D01*
Y2983D01*
X28998Y3010D01*
X29021Y2994D01*
X29075Y2984D01*
X29129Y2994D01*
X29174Y3025D01*
X29176Y3028D01*
X29226Y3013D01*
Y2982D01*
X29490D01*
Y3266D01*
X29226D01*
Y3235D01*
X29176Y3220D01*
X29174Y3223D01*
X29129Y3254D01*
X29075Y3265D01*
X29021Y3254D01*
X28998Y3238D01*
X28948Y3265D01*
Y3309D01*
D02*
G37*
G36*
X6207Y3085D02*
X6114D01*
Y2982D01*
X6207D01*
Y3085D01*
D02*
G37*
G36*
X6035D02*
X5943D01*
Y2982D01*
X6035D01*
Y3085D01*
D02*
G37*
G36*
X5326Y3309D02*
X4148D01*
Y2939D01*
X5326D01*
Y2983D01*
X5376Y3010D01*
X5399Y2994D01*
X5453Y2984D01*
X5507Y2994D01*
X5552Y3025D01*
X5554Y3028D01*
X5604Y3013D01*
Y2982D01*
X5868D01*
Y3266D01*
X5604D01*
Y3235D01*
X5554Y3220D01*
X5552Y3223D01*
X5507Y3254D01*
X5453Y3265D01*
X5399Y3254D01*
X5376Y3238D01*
X5326Y3265D01*
Y3309D01*
D02*
G37*
G36*
X25553Y3085D02*
X25461D01*
Y2982D01*
X25553D01*
Y3085D01*
D02*
G37*
G36*
X25382D02*
X25289D01*
Y2982D01*
X25382D01*
Y3085D01*
D02*
G37*
G36*
X1931D02*
X1839D01*
Y2982D01*
X1931D01*
Y3085D01*
D02*
G37*
G36*
X1760D02*
X1667D01*
Y2982D01*
X1760D01*
Y3085D01*
D02*
G37*
G36*
X3726Y2809D02*
X2548D01*
Y2765D01*
X2498Y2738D01*
X2475Y2754D01*
X2421Y2765D01*
X2368Y2754D01*
X2322Y2723D01*
X2320Y2720D01*
X2270Y2735D01*
Y2766D01*
X2006D01*
Y2482D01*
X2270D01*
Y2513D01*
X2320Y2528D01*
X2322Y2525D01*
X2368Y2494D01*
X2421Y2484D01*
X2475Y2494D01*
X2498Y2510D01*
X2548Y2483D01*
Y2439D01*
X3726D01*
Y2809D01*
D02*
G37*
G36*
X27348D02*
X26170D01*
Y2765D01*
X26120Y2738D01*
X26097Y2754D01*
X26043Y2765D01*
X25990Y2754D01*
X25944Y2723D01*
X25942Y2720D01*
X25892Y2735D01*
Y2766D01*
X25628D01*
Y2482D01*
X25892D01*
Y2513D01*
X25942Y2528D01*
X25944Y2525D01*
X25990Y2494D01*
X26043Y2484D01*
X26097Y2494D01*
X26120Y2510D01*
X26170Y2483D01*
Y2439D01*
X27348D01*
Y2809D01*
D02*
G37*
G36*
X29829Y2766D02*
X29736D01*
Y2663D01*
X29829D01*
Y2766D01*
D02*
G37*
G36*
X29657D02*
X29565D01*
Y2663D01*
X29657D01*
Y2766D01*
D02*
G37*
G36*
X25553Y2766D02*
X25461D01*
Y2663D01*
X25553D01*
Y2766D01*
D02*
G37*
G36*
X1931D02*
X1839D01*
Y2663D01*
X1931D01*
Y2766D01*
D02*
G37*
G36*
X25382D02*
X25289D01*
Y2663D01*
X25382D01*
Y2766D01*
D02*
G37*
G36*
X1760D02*
X1667D01*
Y2663D01*
X1760D01*
Y2766D01*
D02*
G37*
G36*
X6207Y2766D02*
X6114D01*
Y2663D01*
X6207D01*
Y2766D01*
D02*
G37*
G36*
X6035D02*
X5943D01*
Y2663D01*
X6035D01*
Y2766D01*
D02*
G37*
G36*
X23228Y3504D02*
X22638D01*
Y3239D01*
X22638Y3228D01*
Y3189D01*
X22638Y3178D01*
Y2924D01*
X22638Y2913D01*
Y2874D01*
X22638Y2863D01*
Y2609D01*
X22638Y2598D01*
Y2559D01*
X22588Y2556D01*
X22559Y2562D01*
X22505Y2551D01*
X22460Y2521D01*
X22429Y2475D01*
X22419Y2421D01*
X22429Y2367D01*
X22460Y2322D01*
X22505Y2291D01*
X22516Y2289D01*
Y2238D01*
X22505Y2236D01*
X22460Y2206D01*
X22429Y2160D01*
X22419Y2106D01*
X22429Y2053D01*
X22460Y2007D01*
X22505Y1977D01*
X22516Y1974D01*
Y1923D01*
X22505Y1921D01*
X22460Y1891D01*
X22429Y1845D01*
X22419Y1791D01*
X22429Y1738D01*
X22460Y1692D01*
X22505Y1662D01*
X22516Y1659D01*
Y1608D01*
X22505Y1606D01*
X22460Y1576D01*
X22429Y1530D01*
X22419Y1476D01*
X22429Y1423D01*
X22460Y1377D01*
X22505Y1347D01*
X22516Y1344D01*
Y1293D01*
X22505Y1291D01*
X22460Y1261D01*
X22429Y1215D01*
X22419Y1161D01*
X22422Y1144D01*
X22379Y1102D01*
X22362Y1105D01*
X22308Y1094D01*
X22263Y1064D01*
X22232Y1018D01*
X22222Y965D01*
X22227Y936D01*
X22224Y886D01*
X22185D01*
X22174Y886D01*
X21920D01*
X21909Y886D01*
X21870D01*
X21859Y886D01*
X21605D01*
X21594Y886D01*
X21555D01*
X21544Y886D01*
X21290D01*
X21280Y886D01*
X21240D01*
X21230Y886D01*
X21142D01*
Y591D01*
Y295D01*
X21230D01*
X21240Y295D01*
X21280D01*
X21290Y295D01*
X21544D01*
X21555Y295D01*
X21594D01*
X21605Y295D01*
X21859D01*
X21870Y295D01*
X21909D01*
X21912Y245D01*
X21907Y217D01*
X21912Y190D01*
X21915Y142D01*
X21915Y142D01*
X21915Y142D01*
Y-142D01*
X22179D01*
Y142D01*
X22179Y142D01*
X22183Y190D01*
X22188Y217D01*
X22182Y245D01*
X22185Y295D01*
X22224D01*
X22235Y295D01*
X22500D01*
Y886D01*
X22500Y886D01*
X22497Y936D01*
X22503Y965D01*
X22499Y982D01*
X22542Y1024D01*
X22559Y1021D01*
X22588Y1027D01*
X22638Y1024D01*
X22638Y1024D01*
X22638Y1024D01*
X23228D01*
Y1289D01*
X23228Y1299D01*
Y1339D01*
X23228Y1349D01*
Y1604D01*
X23228Y1614D01*
Y1654D01*
X23228Y1664D01*
Y1919D01*
X23228Y1929D01*
Y1969D01*
X23228Y1979D01*
Y2233D01*
X23228Y2244D01*
Y2283D01*
X23228Y2294D01*
Y2548D01*
X23228Y2559D01*
Y2598D01*
X23228Y2609D01*
Y2863D01*
X23228Y2874D01*
Y2913D01*
X23228Y2924D01*
Y3178D01*
X23228Y3189D01*
Y3228D01*
X23228Y3239D01*
Y3504D01*
D02*
G37*
G36*
X29829Y2585D02*
X29736D01*
Y2482D01*
X29829D01*
Y2585D01*
D02*
G37*
G36*
X29657D02*
X29565D01*
Y2482D01*
X29657D01*
Y2585D01*
D02*
G37*
G36*
X28948Y2809D02*
X27770D01*
Y2439D01*
X28948D01*
Y2506D01*
X28984Y2520D01*
X28998Y2523D01*
X29041Y2494D01*
X29094Y2484D01*
X29148Y2494D01*
X29176Y2513D01*
X29226Y2490D01*
Y2482D01*
X29490D01*
Y2766D01*
X29226D01*
Y2758D01*
X29176Y2735D01*
X29148Y2754D01*
X29094Y2765D01*
X29041Y2754D01*
X28998Y2725D01*
X28984Y2728D01*
X28948Y2742D01*
Y2809D01*
D02*
G37*
G36*
X6207Y2585D02*
X6114D01*
Y2482D01*
X6207D01*
Y2585D01*
D02*
G37*
G36*
X6035D02*
X5943D01*
Y2482D01*
X6035D01*
Y2585D01*
D02*
G37*
G36*
X5326Y2809D02*
X4148D01*
Y2439D01*
X5326D01*
Y2483D01*
X5376Y2509D01*
X5399Y2494D01*
X5452Y2483D01*
X5506Y2494D01*
X5552Y2524D01*
X5554Y2528D01*
X5604Y2513D01*
Y2482D01*
X5868D01*
Y2766D01*
X5604D01*
Y2734D01*
X5554Y2719D01*
X5552Y2723D01*
X5506Y2754D01*
X5452Y2764D01*
X5399Y2754D01*
X5376Y2738D01*
X5326Y2765D01*
Y2809D01*
D02*
G37*
G36*
X25553Y2585D02*
X25461D01*
Y2482D01*
X25553D01*
Y2585D01*
D02*
G37*
G36*
X25382D02*
X25289D01*
Y2482D01*
X25382D01*
Y2585D01*
D02*
G37*
G36*
X1931D02*
X1839D01*
Y2482D01*
X1931D01*
Y2585D01*
D02*
G37*
G36*
X1760D02*
X1667D01*
Y2482D01*
X1760D01*
Y2585D01*
D02*
G37*
G36*
X29829Y2266D02*
X29736D01*
Y2163D01*
X29829D01*
Y2266D01*
D02*
G37*
G36*
X29657D02*
X29565D01*
Y2163D01*
X29657D01*
Y2266D01*
D02*
G37*
G36*
X3726Y2309D02*
X3176D01*
Y2163D01*
X3726D01*
Y2309D01*
D02*
G37*
G36*
X3098D02*
X2548D01*
Y2163D01*
X3098D01*
Y2309D01*
D02*
G37*
G36*
X27348D02*
X26798D01*
Y2163D01*
X27348D01*
Y2309D01*
D02*
G37*
G36*
X6207Y2266D02*
X6114D01*
Y2163D01*
X6207D01*
Y2266D01*
D02*
G37*
G36*
X6035D02*
X5943D01*
Y2163D01*
X6035D01*
Y2266D01*
D02*
G37*
G36*
X26720Y2309D02*
X26170D01*
Y2163D01*
X26720D01*
Y2309D01*
D02*
G37*
G36*
X19039Y2215D02*
X18937D01*
Y2122D01*
X19039D01*
Y2215D01*
D02*
G37*
G36*
X18858D02*
X18756D01*
Y2122D01*
X18858D01*
Y2215D01*
D02*
G37*
G36*
X29829Y2085D02*
X29736D01*
Y1982D01*
X29829D01*
Y2085D01*
D02*
G37*
G36*
X29657D02*
X29565D01*
Y1982D01*
X29657D01*
Y2085D01*
D02*
G37*
G36*
X28948Y2309D02*
X27770D01*
Y1939D01*
X28948D01*
Y1983D01*
X28998Y2010D01*
X29021Y1994D01*
X29075Y1984D01*
X29129Y1994D01*
X29174Y2025D01*
X29176Y2028D01*
X29226Y2013D01*
Y1982D01*
X29490D01*
Y2266D01*
X29226D01*
Y2235D01*
X29176Y2220D01*
X29174Y2223D01*
X29129Y2254D01*
X29075Y2265D01*
X29021Y2254D01*
X28998Y2238D01*
X28948Y2265D01*
Y2309D01*
D02*
G37*
G36*
X6207Y2085D02*
X6114D01*
Y1982D01*
X6207D01*
Y2085D01*
D02*
G37*
G36*
X6035D02*
X5943D01*
Y1982D01*
X6035D01*
Y2085D01*
D02*
G37*
G36*
X5326Y2309D02*
X4148D01*
Y1939D01*
X5326D01*
Y1983D01*
X5376Y2010D01*
X5399Y1994D01*
X5453Y1984D01*
X5507Y1994D01*
X5552Y2025D01*
X5554Y2028D01*
X5604Y2013D01*
Y1982D01*
X5868D01*
Y2266D01*
X5604D01*
Y2235D01*
X5554Y2220D01*
X5552Y2223D01*
X5507Y2254D01*
X5453Y2265D01*
X5399Y2254D01*
X5376Y2238D01*
X5326Y2265D01*
Y2309D01*
D02*
G37*
G36*
X19039Y2043D02*
X18937D01*
Y1951D01*
X19039D01*
Y2043D01*
D02*
G37*
G36*
X18858D02*
X18756D01*
Y1951D01*
X18858D01*
Y2043D01*
D02*
G37*
G36*
X27348Y2085D02*
X26798D01*
Y1939D01*
X27348D01*
Y2085D01*
D02*
G37*
G36*
X26720D02*
X26170D01*
Y1939D01*
X26720D01*
Y2085D01*
D02*
G37*
G36*
X3726Y2085D02*
X3176D01*
Y1939D01*
X3726D01*
Y2085D01*
D02*
G37*
G36*
X3098D02*
X2548D01*
Y1939D01*
X3098D01*
Y2085D01*
D02*
G37*
G36*
X3726Y1809D02*
X2548D01*
Y1765D01*
X2498Y1738D01*
X2475Y1754D01*
X2421Y1765D01*
X2368Y1754D01*
X2322Y1723D01*
X2320Y1720D01*
X2270Y1735D01*
Y1766D01*
X2006D01*
Y1482D01*
X2270D01*
Y1513D01*
X2320Y1528D01*
X2322Y1525D01*
X2368Y1494D01*
X2421Y1484D01*
X2475Y1494D01*
X2498Y1510D01*
X2548Y1483D01*
Y1439D01*
X3726D01*
Y1809D01*
D02*
G37*
G36*
X27348D02*
X26170D01*
Y1765D01*
X26120Y1738D01*
X26097Y1754D01*
X26043Y1765D01*
X25990Y1754D01*
X25944Y1723D01*
X25942Y1720D01*
X25892Y1735D01*
Y1766D01*
X25628D01*
Y1482D01*
X25892D01*
Y1513D01*
X25942Y1528D01*
X25944Y1525D01*
X25990Y1494D01*
X26043Y1484D01*
X26097Y1494D01*
X26120Y1510D01*
X26170Y1483D01*
Y1439D01*
X27348D01*
Y1809D01*
D02*
G37*
G36*
X29829Y1766D02*
X29736D01*
Y1663D01*
X29829D01*
Y1766D01*
D02*
G37*
G36*
X29657D02*
X29565D01*
Y1663D01*
X29657D01*
Y1766D01*
D02*
G37*
G36*
X25553Y1766D02*
X25461D01*
Y1663D01*
X25553D01*
Y1766D01*
D02*
G37*
G36*
X1931D02*
X1839D01*
Y1663D01*
X1931D01*
Y1766D01*
D02*
G37*
G36*
X1760D02*
X1667D01*
Y1663D01*
X1760D01*
Y1766D01*
D02*
G37*
G36*
X25382D02*
X25289D01*
Y1663D01*
X25382D01*
Y1766D01*
D02*
G37*
G36*
X6207Y1766D02*
X6114D01*
Y1663D01*
X6207D01*
Y1766D01*
D02*
G37*
G36*
X6035D02*
X5943D01*
Y1663D01*
X6035D01*
Y1766D01*
D02*
G37*
G36*
X29829Y1585D02*
X29736D01*
Y1482D01*
X29829D01*
Y1585D01*
D02*
G37*
G36*
X29657D02*
X29565D01*
Y1482D01*
X29657D01*
Y1585D01*
D02*
G37*
G36*
X28948Y1809D02*
X27770D01*
Y1439D01*
X28948D01*
Y1483D01*
X28998Y1510D01*
X29021Y1494D01*
X29075Y1484D01*
X29129Y1494D01*
X29174Y1525D01*
X29176Y1528D01*
X29226Y1513D01*
Y1482D01*
X29490D01*
Y1766D01*
X29226D01*
Y1735D01*
X29176Y1720D01*
X29174Y1723D01*
X29129Y1754D01*
X29075Y1765D01*
X29021Y1754D01*
X28998Y1738D01*
X28948Y1765D01*
Y1809D01*
D02*
G37*
G36*
X6207Y1585D02*
X6114D01*
Y1482D01*
X6207D01*
Y1585D01*
D02*
G37*
G36*
X6035D02*
X5943D01*
Y1482D01*
X6035D01*
Y1585D01*
D02*
G37*
G36*
X5326Y1809D02*
X4148D01*
Y1439D01*
X5326D01*
Y1483D01*
X5376Y1510D01*
X5399Y1494D01*
X5453Y1484D01*
X5507Y1494D01*
X5552Y1525D01*
X5554Y1528D01*
X5604Y1513D01*
Y1482D01*
X5868D01*
Y1766D01*
X5604D01*
Y1735D01*
X5554Y1720D01*
X5552Y1723D01*
X5507Y1754D01*
X5453Y1765D01*
X5399Y1754D01*
X5376Y1738D01*
X5326Y1765D01*
Y1809D01*
D02*
G37*
G36*
X25553Y1585D02*
X25461D01*
Y1482D01*
X25553D01*
Y1585D01*
D02*
G37*
G36*
X25382D02*
X25289D01*
Y1482D01*
X25382D01*
Y1585D01*
D02*
G37*
G36*
X1931D02*
X1839D01*
Y1482D01*
X1931D01*
Y1585D01*
D02*
G37*
G36*
X1760D02*
X1667D01*
Y1482D01*
X1760D01*
Y1585D01*
D02*
G37*
G36*
X3726Y1309D02*
X2548D01*
Y1265D01*
X2498Y1238D01*
X2475Y1254D01*
X2421Y1265D01*
X2368Y1254D01*
X2322Y1223D01*
X2320Y1220D01*
X2270Y1235D01*
Y1266D01*
X2006D01*
Y982D01*
X2270D01*
Y1013D01*
X2320Y1028D01*
X2322Y1025D01*
X2368Y994D01*
X2421Y984D01*
X2475Y994D01*
X2498Y1010D01*
X2548Y983D01*
Y939D01*
X3726D01*
Y1309D01*
D02*
G37*
G36*
X27348D02*
X26170D01*
Y1265D01*
X26120Y1238D01*
X26097Y1254D01*
X26043Y1265D01*
X25990Y1254D01*
X25944Y1223D01*
X25942Y1220D01*
X25892Y1235D01*
Y1266D01*
X25628D01*
Y982D01*
X25892D01*
Y1013D01*
X25942Y1028D01*
X25944Y1025D01*
X25990Y994D01*
X26043Y984D01*
X26097Y994D01*
X26120Y1010D01*
X26170Y983D01*
Y939D01*
X27348D01*
Y1309D01*
D02*
G37*
G36*
X18646Y1260D02*
X18543D01*
Y1167D01*
X18646D01*
Y1260D01*
D02*
G37*
G36*
X18465D02*
X18362D01*
Y1167D01*
X18465D01*
Y1260D01*
D02*
G37*
G36*
X15496D02*
X15394D01*
Y1167D01*
X15496D01*
Y1260D01*
D02*
G37*
G36*
X15315D02*
X15213D01*
Y1167D01*
X15315D01*
Y1260D01*
D02*
G37*
G36*
X29829Y1266D02*
X29736D01*
Y1163D01*
X29829D01*
Y1266D01*
D02*
G37*
G36*
X29657D02*
X29565D01*
Y1163D01*
X29657D01*
Y1266D01*
D02*
G37*
G36*
X25553Y1266D02*
X25461D01*
Y1163D01*
X25553D01*
Y1266D01*
D02*
G37*
G36*
X1931D02*
X1839D01*
Y1163D01*
X1931D01*
Y1266D01*
D02*
G37*
G36*
X1760D02*
X1667D01*
Y1163D01*
X1760D01*
Y1266D01*
D02*
G37*
G36*
X25382D02*
X25289D01*
Y1163D01*
X25382D01*
Y1266D01*
D02*
G37*
G36*
X6207Y1266D02*
X6114D01*
Y1163D01*
X6207D01*
Y1266D01*
D02*
G37*
G36*
X6035D02*
X5943D01*
Y1163D01*
X6035D01*
Y1266D01*
D02*
G37*
G36*
X12598Y1242D02*
X12545Y1232D01*
X12499Y1201D01*
X12469Y1156D01*
X12458Y1102D01*
X12460Y1091D01*
X12427Y1054D01*
X12376D01*
X12343Y1091D01*
X12345Y1102D01*
X12335Y1156D01*
X12304Y1201D01*
X12258Y1232D01*
X12205Y1242D01*
X12151Y1232D01*
X12105Y1201D01*
X12075Y1156D01*
X12064Y1102D01*
X12067Y1086D01*
X12025Y1044D01*
X12013Y1046D01*
X11990Y1042D01*
X11948Y1083D01*
X11952Y1102D01*
X11941Y1156D01*
X11910Y1201D01*
X11865Y1232D01*
X11811Y1242D01*
X11757Y1232D01*
X11712Y1201D01*
X11681Y1156D01*
X11671Y1102D01*
X11673Y1091D01*
X11639Y1054D01*
X11589D01*
X11556Y1091D01*
X11558Y1102D01*
X11547Y1156D01*
X11517Y1201D01*
X11471Y1232D01*
X11417Y1242D01*
X11364Y1232D01*
X11318Y1201D01*
X11288Y1156D01*
X11277Y1102D01*
X11279Y1091D01*
X11246Y1054D01*
X11195D01*
X11162Y1091D01*
X11164Y1102D01*
X11153Y1156D01*
X11123Y1201D01*
X11077Y1232D01*
X11024Y1242D01*
X10970Y1232D01*
X10924Y1201D01*
X10894Y1156D01*
X10883Y1102D01*
X10885Y1091D01*
X10852Y1054D01*
X10802D01*
X10768Y1091D01*
X10770Y1102D01*
X10760Y1156D01*
X10729Y1201D01*
X10684Y1232D01*
X10630Y1242D01*
X10576Y1232D01*
X10531Y1201D01*
X10500Y1156D01*
X10489Y1102D01*
X10493Y1086D01*
X10450Y1044D01*
X10438Y1046D01*
X10416Y1042D01*
X10373Y1083D01*
X10377Y1102D01*
X10366Y1156D01*
X10336Y1201D01*
X10290Y1232D01*
X10236Y1242D01*
X10182Y1232D01*
X10137Y1201D01*
X10106Y1156D01*
X10096Y1102D01*
X10098Y1091D01*
X10065Y1054D01*
X10014D01*
X9981Y1091D01*
X9983Y1102D01*
X9972Y1156D01*
X9942Y1201D01*
X9896Y1232D01*
X9843Y1242D01*
X9789Y1232D01*
X9743Y1201D01*
X9713Y1156D01*
X9702Y1102D01*
X9705Y1085D01*
X9663Y1043D01*
X9646Y1046D01*
X9592Y1035D01*
X9546Y1005D01*
X9516Y959D01*
X9505Y906D01*
X9516Y852D01*
X9539Y818D01*
X9524Y778D01*
X9516Y768D01*
X9291D01*
Y531D01*
Y295D01*
X9694D01*
X9744Y295D01*
Y295D01*
X9744D01*
Y295D01*
X10088D01*
X10138Y295D01*
Y295D01*
X10138D01*
Y295D01*
X10678D01*
X10728Y295D01*
Y295D01*
X10728D01*
Y295D01*
X11072D01*
X11122Y295D01*
Y295D01*
X11122D01*
Y295D01*
X11663D01*
X11713Y295D01*
Y295D01*
X11713D01*
Y295D01*
X12056D01*
X12106Y295D01*
Y295D01*
X12106D01*
Y295D01*
X12647D01*
X12697Y295D01*
X12747Y295D01*
X12756D01*
Y531D01*
Y768D01*
X12697D01*
X12679Y810D01*
Y990D01*
X12698Y1003D01*
X12728Y1048D01*
X12739Y1102D01*
X12728Y1156D01*
X12698Y1201D01*
X12652Y1232D01*
X12598Y1242D01*
D02*
G37*
G36*
X13583D02*
X13529Y1232D01*
X13483Y1201D01*
X13453Y1156D01*
X13442Y1102D01*
X13450Y1062D01*
X13426Y1028D01*
X13412Y1019D01*
X13386Y1024D01*
X13359Y1019D01*
X13346Y1028D01*
X13321Y1062D01*
X13329Y1102D01*
X13319Y1156D01*
X13288Y1201D01*
X13243Y1232D01*
X13189Y1242D01*
X13135Y1232D01*
X13090Y1201D01*
X13059Y1156D01*
X13048Y1102D01*
X13056Y1062D01*
X13032Y1028D01*
X13019Y1019D01*
X12992Y1024D01*
X12938Y1013D01*
X12893Y983D01*
X12862Y937D01*
X12852Y883D01*
X12862Y830D01*
X12870Y818D01*
X12844Y768D01*
X12835D01*
Y531D01*
Y295D01*
X12912D01*
Y142D01*
X12860D01*
Y-142D01*
X13124D01*
Y142D01*
X13072D01*
Y253D01*
X13091Y295D01*
X13631D01*
X13681Y295D01*
Y295D01*
X13681D01*
Y295D01*
X13878D01*
Y768D01*
X13878Y768D01*
X13896Y810D01*
X13909Y830D01*
X13920Y883D01*
X13909Y937D01*
X13879Y983D01*
X13833Y1013D01*
X13780Y1024D01*
X13753Y1019D01*
X13740Y1028D01*
X13715Y1062D01*
X13723Y1102D01*
X13712Y1156D01*
X13682Y1201D01*
X13636Y1232D01*
X13583Y1242D01*
D02*
G37*
G36*
X18646Y1089D02*
X18543D01*
Y996D01*
X18646D01*
Y1089D01*
D02*
G37*
G36*
X18465D02*
X18362D01*
Y996D01*
X18465D01*
Y1089D01*
D02*
G37*
G36*
X15496D02*
X15394D01*
Y996D01*
X15496D01*
Y1089D01*
D02*
G37*
G36*
X15315D02*
X15213D01*
Y996D01*
X15315D01*
Y1089D01*
D02*
G37*
G36*
X29829Y1085D02*
X29736D01*
Y982D01*
X29829D01*
Y1085D01*
D02*
G37*
G36*
X29657D02*
X29565D01*
Y982D01*
X29657D01*
Y1085D01*
D02*
G37*
G36*
X28948Y1309D02*
X27770D01*
Y939D01*
X28948D01*
Y983D01*
X28998Y1010D01*
X29021Y994D01*
X29075Y984D01*
X29129Y994D01*
X29174Y1025D01*
X29176Y1028D01*
X29226Y1013D01*
Y982D01*
X29490D01*
Y1266D01*
X29226D01*
Y1235D01*
X29176Y1220D01*
X29174Y1223D01*
X29129Y1254D01*
X29075Y1265D01*
X29021Y1254D01*
X28998Y1238D01*
X28948Y1265D01*
Y1309D01*
D02*
G37*
G36*
X6207Y1085D02*
X6114D01*
Y982D01*
X6207D01*
Y1085D01*
D02*
G37*
G36*
X6035D02*
X5943D01*
Y982D01*
X6035D01*
Y1085D01*
D02*
G37*
G36*
X5326Y1309D02*
X4148D01*
Y939D01*
X5326D01*
Y983D01*
X5376Y1010D01*
X5399Y994D01*
X5453Y984D01*
X5507Y994D01*
X5552Y1025D01*
X5554Y1028D01*
X5604Y1013D01*
Y982D01*
X5868D01*
Y1266D01*
X5604D01*
Y1235D01*
X5554Y1220D01*
X5552Y1223D01*
X5507Y1254D01*
X5453Y1265D01*
X5399Y1254D01*
X5376Y1238D01*
X5326Y1265D01*
Y1309D01*
D02*
G37*
G36*
X25553Y1085D02*
X25461D01*
Y982D01*
X25553D01*
Y1085D01*
D02*
G37*
G36*
X25382D02*
X25289D01*
Y982D01*
X25382D01*
Y1085D01*
D02*
G37*
G36*
X1931D02*
X1839D01*
Y982D01*
X1931D01*
Y1085D01*
D02*
G37*
G36*
X1760D02*
X1667D01*
Y982D01*
X1760D01*
Y1085D01*
D02*
G37*
G36*
X3726Y809D02*
X2548D01*
Y765D01*
X2498Y738D01*
X2475Y754D01*
X2421Y765D01*
X2368Y754D01*
X2322Y723D01*
X2320Y720D01*
X2270Y735D01*
Y766D01*
X2006D01*
Y482D01*
X2270D01*
Y513D01*
X2320Y528D01*
X2322Y525D01*
X2368Y494D01*
X2421Y484D01*
X2475Y494D01*
X2498Y510D01*
X2548Y483D01*
Y439D01*
X3726D01*
Y809D01*
D02*
G37*
G36*
X27348D02*
X26170D01*
Y765D01*
X26120Y738D01*
X26097Y754D01*
X26043Y765D01*
X25990Y754D01*
X25944Y723D01*
X25942Y720D01*
X25892Y735D01*
Y766D01*
X25628D01*
Y482D01*
X25892D01*
Y513D01*
X25942Y528D01*
X25944Y525D01*
X25990Y494D01*
X26043Y484D01*
X26097Y494D01*
X26120Y510D01*
X26170Y483D01*
Y439D01*
X27348D01*
Y809D01*
D02*
G37*
G36*
X5326D02*
X4776D01*
Y663D01*
X5326D01*
Y809D01*
D02*
G37*
G36*
X25553Y766D02*
X25461D01*
Y663D01*
X25553D01*
Y766D01*
D02*
G37*
G36*
X1931D02*
X1839D01*
Y663D01*
X1931D01*
Y766D01*
D02*
G37*
G36*
X1760D02*
X1667D01*
Y663D01*
X1760D01*
Y766D01*
D02*
G37*
G36*
X25382D02*
X25289D01*
Y663D01*
X25382D01*
Y766D01*
D02*
G37*
G36*
X4698Y809D02*
X4148D01*
Y663D01*
X4698D01*
Y809D01*
D02*
G37*
G36*
X28948D02*
X28398D01*
Y663D01*
X28948D01*
Y809D01*
D02*
G37*
G36*
X28320D02*
X27770D01*
Y663D01*
X28320D01*
Y809D01*
D02*
G37*
G36*
X25553Y585D02*
X25461D01*
Y482D01*
X25553D01*
Y585D01*
D02*
G37*
G36*
X25382D02*
X25289D01*
Y482D01*
X25382D01*
Y585D01*
D02*
G37*
G36*
X1931D02*
X1839D01*
Y482D01*
X1931D01*
Y585D01*
D02*
G37*
G36*
X1760D02*
X1667D01*
Y482D01*
X1760D01*
Y585D01*
D02*
G37*
G36*
X28948Y585D02*
X28398D01*
Y439D01*
X28948D01*
Y585D01*
D02*
G37*
G36*
X28320D02*
X27770D01*
Y439D01*
X28320D01*
Y585D01*
D02*
G37*
G36*
X5326Y585D02*
X4776D01*
Y439D01*
X5326D01*
Y585D01*
D02*
G37*
G36*
X4698D02*
X4148D01*
Y439D01*
X4698D01*
Y585D01*
D02*
G37*
G36*
X9055Y1242D02*
X9001Y1232D01*
X8956Y1201D01*
X8925Y1156D01*
X8915Y1102D01*
X8925Y1048D01*
X8956Y1003D01*
X8975Y990D01*
Y768D01*
X8957D01*
Y295D01*
X9154Y295D01*
X9204Y295D01*
X9213D01*
Y531D01*
Y768D01*
X9204D01*
X9154Y768D01*
X9135Y810D01*
Y990D01*
X9154Y1003D01*
X9185Y1048D01*
X9196Y1102D01*
X9185Y1156D01*
X9154Y1201D01*
X9109Y1232D01*
X9055Y1242D01*
D02*
G37*
G36*
X18504Y886D02*
X18450Y875D01*
X18405Y845D01*
X18374Y799D01*
X18363Y746D01*
X18374Y692D01*
X18395Y661D01*
X18402Y641D01*
X18386Y599D01*
X18334Y564D01*
X18281Y486D01*
X18263Y394D01*
X18281Y302D01*
X18334Y223D01*
X18412Y171D01*
X18504Y153D01*
X18596Y171D01*
X18674Y223D01*
X18726Y302D01*
X18745Y394D01*
X18726Y486D01*
X18674Y564D01*
X18622Y599D01*
X18605Y641D01*
X18613Y661D01*
X18634Y692D01*
X18644Y746D01*
X18634Y799D01*
X18603Y845D01*
X18558Y875D01*
X18504Y886D01*
D02*
G37*
G36*
X17717D02*
X17663Y875D01*
X17617Y845D01*
X17587Y799D01*
X17576Y746D01*
X17587Y692D01*
X17608Y661D01*
X17615Y641D01*
X17598Y599D01*
X17546Y564D01*
X17494Y486D01*
X17476Y394D01*
X17494Y302D01*
X17546Y223D01*
X17624Y171D01*
X17717Y153D01*
X17809Y171D01*
X17887Y223D01*
X17939Y302D01*
X17957Y394D01*
X17939Y486D01*
X17887Y564D01*
X17835Y599D01*
X17818Y641D01*
X17825Y661D01*
X17846Y692D01*
X17857Y746D01*
X17846Y799D01*
X17816Y845D01*
X17770Y875D01*
X17717Y886D01*
D02*
G37*
G36*
X16929D02*
X16875Y875D01*
X16830Y845D01*
X16799Y799D01*
X16789Y746D01*
X16799Y692D01*
X16820Y661D01*
X16828Y641D01*
X16811Y599D01*
X16759Y564D01*
X16707Y486D01*
X16688Y394D01*
X16707Y302D01*
X16759Y223D01*
X16837Y171D01*
X16929Y153D01*
X17021Y171D01*
X17099Y223D01*
X17152Y302D01*
X17170Y394D01*
X17152Y486D01*
X17099Y564D01*
X17047Y599D01*
X17031Y641D01*
X17038Y661D01*
X17059Y692D01*
X17070Y746D01*
X17059Y799D01*
X17028Y845D01*
X16983Y875D01*
X16929Y886D01*
D02*
G37*
G36*
X16142D02*
X16088Y875D01*
X16042Y845D01*
X16012Y799D01*
X16001Y746D01*
X16012Y692D01*
X16033Y661D01*
X16040Y641D01*
X16024Y599D01*
X15971Y564D01*
X15919Y486D01*
X15901Y394D01*
X15919Y302D01*
X15971Y223D01*
X16050Y171D01*
X16142Y153D01*
X16234Y171D01*
X16312Y223D01*
X16364Y302D01*
X16383Y394D01*
X16364Y486D01*
X16312Y564D01*
X16260Y599D01*
X16243Y641D01*
X16251Y661D01*
X16272Y692D01*
X16282Y746D01*
X16272Y799D01*
X16241Y845D01*
X16195Y875D01*
X16142Y886D01*
D02*
G37*
G36*
X15354D02*
X15301Y875D01*
X15255Y845D01*
X15225Y799D01*
X15214Y746D01*
X15225Y692D01*
X15245Y661D01*
X15253Y641D01*
X15236Y599D01*
X15184Y564D01*
X15132Y486D01*
X15113Y394D01*
X15132Y302D01*
X15184Y223D01*
X15262Y171D01*
X15354Y153D01*
X15446Y171D01*
X15525Y223D01*
X15577Y302D01*
X15595Y394D01*
X15577Y486D01*
X15525Y564D01*
X15473Y599D01*
X15456Y641D01*
X15463Y661D01*
X15484Y692D01*
X15495Y746D01*
X15484Y799D01*
X15454Y845D01*
X15408Y875D01*
X15354Y886D01*
D02*
G37*
G36*
X21841Y142D02*
X21748D01*
Y39D01*
X21841D01*
Y142D01*
D02*
G37*
G36*
X21669D02*
X21577D01*
Y39D01*
X21669D01*
Y142D01*
D02*
G37*
G36*
X12785D02*
X12693D01*
Y39D01*
X12785D01*
Y142D01*
D02*
G37*
G36*
X12614D02*
X12522D01*
Y39D01*
X12614D01*
Y142D01*
D02*
G37*
G36*
X21841Y-39D02*
X21748D01*
Y-142D01*
X21841D01*
Y-39D01*
D02*
G37*
G36*
X21669D02*
X21577D01*
Y-142D01*
X21669D01*
Y-39D01*
D02*
G37*
G36*
X12785Y-39D02*
X12693D01*
Y-142D01*
X12785D01*
Y-39D01*
D02*
G37*
G36*
X12614D02*
X12522D01*
Y-142D01*
X12614D01*
Y-39D01*
D02*
G37*
G36*
X16594Y-135D02*
X16541Y-146D01*
X16495Y-176D01*
X16465Y-222D01*
X16454Y-276D01*
X16465Y-329D01*
X16495Y-375D01*
X16541Y-405D01*
X16594Y-416D01*
X16648Y-405D01*
X16694Y-375D01*
X16724Y-329D01*
X16735Y-276D01*
X16724Y-222D01*
X16694Y-176D01*
X16648Y-146D01*
X16594Y-135D01*
D02*
G37*
%LPD*%
D11*
X21051Y8051D02*
X21394D01*
X20709D02*
X21051D01*
X15571Y7585D02*
X15728D01*
X15354D02*
X15571D01*
X13583Y5985D02*
Y6555D01*
X16929Y394D02*
Y746D01*
X15413Y4990D02*
X15787D01*
X15413Y4222D02*
X15787D01*
X15413Y4734D02*
X15787D01*
Y6343D02*
Y6648D01*
X29075Y6124D02*
X29358D01*
X28359D02*
X29075D01*
X16121Y15521D02*
X17827D01*
X15973Y15185D02*
X16012Y15224D01*
Y15411D01*
X16121Y15521D01*
X16386Y15124D02*
X17827D01*
X16327Y15183D02*
X16386Y15124D01*
X16327Y15183D02*
Y15185D01*
X17232Y15815D02*
X17334Y15917D01*
X16327Y15815D02*
X17232D01*
X17334Y15917D02*
X17827D01*
X11880Y11228D02*
X11888Y11220D01*
X11880Y11228D02*
X11880Y11228D01*
Y11228D01*
Y10658D02*
Y11228D01*
X11361Y15086D02*
X11526Y14922D01*
Y12066D02*
Y14922D01*
X11081Y15086D02*
X11361D01*
X11457Y11998D02*
X11526Y12066D01*
X10827Y11998D02*
X11457D01*
X10589Y15579D02*
X11081Y15086D01*
X10589Y11760D02*
X10827Y11998D01*
X10589Y11220D02*
Y11760D01*
X10589Y10650D02*
Y11220D01*
X11880Y15571D02*
X11888Y15579D01*
X11880Y11228D02*
Y15571D01*
X12126Y11929D02*
X12638D01*
X11998Y12057D02*
Y14547D01*
Y12057D02*
X12126Y11929D01*
X12638D02*
X12754Y11813D01*
Y11387D02*
Y11813D01*
X12636Y11339D02*
Y11476D01*
X12754Y10650D02*
Y11220D01*
X11455Y10650D02*
Y11220D01*
X11022Y10650D02*
Y11220D01*
X15866Y12746D02*
X16417D01*
X15866Y12242D02*
X16417D01*
X22047Y0D02*
Y217D01*
X22559Y1161D02*
X22933D01*
X17697Y4478D02*
X18071D01*
X17697Y4990D02*
X18071D01*
X17697Y5246D02*
X18071D01*
X17697Y6014D02*
X18071D01*
X17697Y5758D02*
X18071D01*
Y7520D02*
Y7559D01*
X18130Y7618D01*
X18287D01*
X18487Y7601D02*
X18504Y7585D01*
X18304Y7601D02*
X18487D01*
X18287Y7618D02*
X18304Y7601D01*
X29075Y1124D02*
X29358D01*
X28359D02*
X29075D01*
X15354Y6014D02*
X15787D01*
X15049D02*
X15354D01*
X15787Y11526D02*
X16161D01*
X15354D02*
X15787D01*
X14077Y1575D02*
X14429D01*
X13859Y1772D02*
X14429D01*
X14077Y1969D02*
X14429D01*
X13859Y2362D02*
X14429D01*
X13859Y2756D02*
X14429D01*
X15354Y1467D02*
X15787D01*
X15098D02*
X15354D01*
X29075Y14624D02*
X29358D01*
X28359D02*
X29075D01*
X19961Y8075D02*
X20213D01*
X19709D02*
X19961D01*
X18843Y8472D02*
Y8846D01*
Y8098D02*
Y8472D01*
Y8846D02*
X18858Y8862D01*
Y10846D01*
X18445Y11014D02*
X18691D01*
X18858Y10846D01*
X18504Y1775D02*
Y2083D01*
Y1467D02*
Y1775D01*
X22047Y217D02*
Y591D01*
X9646Y7425D02*
X9656D01*
X9941Y7140D01*
X9986D01*
X10039Y7087D01*
X15354Y15880D02*
X15914D01*
X15973Y15821D01*
Y15815D02*
Y15821D01*
X18071Y11014D02*
X18445D01*
X18130Y6589D02*
X18504D01*
X18071Y6648D02*
X18130Y6589D01*
X18071Y6648D02*
Y6654D01*
X21102Y3455D02*
X21112Y3445D01*
X21634D01*
X21732Y3543D02*
Y3937D01*
X21634Y3445D02*
X21732Y3543D01*
X21102Y3455D02*
Y3760D01*
X21732Y9114D02*
X22037D01*
X21732Y8406D02*
X22037D01*
X21732Y7697D02*
X22037D01*
X15016Y11874D02*
Y12242D01*
Y11874D02*
X15354Y11535D01*
Y11526D02*
Y11535D01*
X8406Y2953D02*
X9449D01*
X9055Y531D02*
Y1102D01*
X10589Y15917D02*
X11022D01*
X15787Y5502D02*
X16161D01*
X21260Y5118D02*
Y6142D01*
X20394Y6378D02*
X21024D01*
X21260Y6142D01*
X20224Y6547D02*
X20394Y6378D01*
X21260Y5118D02*
X21378Y5000D01*
X21860D01*
X22047Y4813D01*
Y3937D02*
Y4813D01*
X22362Y3937D02*
Y5197D01*
X22126Y5433D02*
X22362Y5197D01*
X29075Y10124D02*
X29358D01*
X28359D02*
X29075D01*
Y10624D02*
X29358D01*
X28359D02*
X29075D01*
Y12124D02*
X29358D01*
X28359D02*
X29075D01*
Y11124D02*
X29358D01*
X28359D02*
X29075D01*
X14055Y2559D02*
X14429D01*
X29075Y13624D02*
X29358D01*
X28359D02*
X29075D01*
Y12624D02*
X29358D01*
X28359D02*
X29075D01*
X18504Y394D02*
Y746D01*
X19567Y3032D02*
X19587Y3051D01*
X20157D01*
X19587Y2736D02*
X20157D01*
X18071Y2490D02*
X18120Y2539D01*
X17697Y2746D02*
X18071D01*
X17697Y3002D02*
X18071D01*
X18291Y8846D02*
X18504D01*
X18008D02*
X18291D01*
Y8098D02*
X18504D01*
X18008D02*
X18291D01*
X18071Y9990D02*
X18445D01*
X18071Y10246D02*
X18445D01*
X18071Y10502D02*
X18445D01*
X18071Y10758D02*
X18445D01*
X21051Y7343D02*
X21394D01*
X20709D02*
X21051D01*
Y7697D02*
X21394D01*
X20709D02*
X21051D01*
X17717Y394D02*
Y746D01*
X16142Y394D02*
Y746D01*
X15354Y394D02*
Y746D01*
X22559Y2106D02*
X22933D01*
X26043Y11124D02*
X26759D01*
X25760D02*
X26043D01*
Y11624D02*
X26759D01*
X25760D02*
X26043D01*
Y12124D02*
X26759D01*
X25760D02*
X26043D01*
X15354Y10738D02*
Y10748D01*
X15571Y10965D01*
X15738D01*
X15787Y11014D01*
X15354Y11132D02*
Y11142D01*
X15482Y11270D01*
X15787D01*
X16949Y4734D02*
X18071D01*
X4737Y8124D02*
X5453D01*
X12598Y6181D02*
Y6555D01*
X4737Y8624D02*
X5453D01*
X8389Y1772D02*
X8397Y1763D01*
X7559Y1772D02*
X8389D01*
X8397Y1763D02*
X8406Y1772D01*
X6890Y1378D02*
X8406D01*
X6693Y1575D02*
X8406D01*
X4737Y1124D02*
X5453D01*
X4737Y3124D02*
X5453D01*
X4737Y2124D02*
X5453D01*
Y7124D02*
X5736D01*
X4737Y7624D02*
X5453D01*
X4737Y1624D02*
X5453D01*
X7087Y2362D02*
X8406D01*
X7283Y2165D02*
X8406D01*
X5453Y2624D02*
X5736D01*
X2138Y13124D02*
X2138Y13124D01*
X2421D01*
X19685Y10390D02*
X20118Y10823D01*
X19685Y9890D02*
X20118Y10323D01*
X12992Y6181D02*
Y6555D01*
X12795Y5985D02*
Y6555D01*
X13859Y5512D02*
X14429D01*
X13189Y5985D02*
Y6555D01*
X12402Y5985D02*
Y6555D01*
X16949Y5502D02*
X18071D01*
X15016Y11132D02*
Y11142D01*
X15301Y11427D01*
Y11472D01*
X15354Y11526D01*
X15016Y10738D02*
Y11132D01*
X15787Y9734D02*
X16161D01*
X15787Y9990D02*
X16161D01*
X15787Y10246D02*
X16161D01*
X15787Y10502D02*
X16161D01*
X15787Y11014D02*
X16161D01*
X15787Y11270D02*
X16161D01*
X15787Y4478D02*
X16358D01*
X15787Y5246D02*
X16358D01*
X20157Y3937D02*
Y4301D01*
X17697Y3258D02*
X18071D01*
X17697Y2490D02*
X18071D01*
X15787D02*
X16161D01*
X15787Y2746D02*
X16161D01*
X15787Y3002D02*
X16161D01*
X15787Y3514D02*
X16161D01*
X15787Y3258D02*
X16161D01*
X25760Y10124D02*
X26043D01*
X25760Y9624D02*
X25760Y9624D01*
X25760Y10124D02*
X25760Y10124D01*
X26043Y9624D02*
X26759D01*
X22323Y10380D02*
X22579D01*
X19941Y11380D02*
X20197D01*
X19685D02*
X19941D01*
X22579Y10380D02*
X22835D01*
X4737Y2624D02*
X4737Y2624D01*
X5452D01*
X21238Y11863D02*
Y12237D01*
X21221Y12253D02*
Y13054D01*
X19657Y11868D02*
Y12242D01*
X19647Y12253D02*
Y13054D01*
X22812Y11892D02*
Y12266D01*
X19587Y1161D02*
X19961D01*
X22807Y13772D02*
X22815Y13780D01*
Y14055D01*
X22648Y14222D02*
X22815Y14055D01*
X18848Y14222D02*
X22648D01*
X18799Y14104D02*
X21112D01*
X21232Y13742D02*
Y13984D01*
X21112Y14104D02*
X21232Y13984D01*
X18730Y14340D02*
X18848Y14222D01*
X18730Y14340D02*
Y15640D01*
X18453Y15917D02*
X18730Y15640D01*
X18406Y15521D02*
X18612Y15315D01*
Y14291D02*
Y15315D01*
X18165Y15917D02*
X18453D01*
X18494Y14242D02*
X18750Y13986D01*
X19646Y13754D02*
Y13898D01*
X19557Y13986D02*
X19646Y13898D01*
Y13754D02*
X19657Y13742D01*
X18750Y13986D02*
X19557D01*
X18612Y14291D02*
X18799Y14104D01*
X18350Y15124D02*
X18494Y14980D01*
Y14242D02*
Y14980D01*
X18165Y15521D02*
X18406D01*
X18165Y15124D02*
X18350D01*
X22796Y12282D02*
X22807Y12272D01*
X22785Y13094D02*
X22796Y13084D01*
Y12282D02*
Y13084D01*
X21221Y12253D02*
X21232Y12242D01*
X21211Y13065D02*
X21221Y13054D01*
X22789Y13753D02*
X22807Y13772D01*
X22789Y13600D02*
Y13753D01*
X22638Y13449D02*
X22789Y13600D01*
X21214Y13724D02*
X21232Y13742D01*
X21214Y13570D02*
Y13724D01*
X21063Y13419D02*
X21214Y13570D01*
X19488Y13419D02*
X19639Y13570D01*
Y13724D01*
X19657Y13742D01*
X19636Y13065D02*
X19647Y13054D01*
Y12253D02*
X19657Y12242D01*
X19587Y2421D02*
X21063D01*
X25760Y7624D02*
X25760Y7624D01*
X19587Y3366D02*
X20157D01*
X29075Y9624D02*
X29358D01*
X28359D02*
X29075D01*
X22559Y1791D02*
X22933D01*
X22559Y1476D02*
X22933D01*
X25760Y624D02*
X25760Y624D01*
X26043D01*
X25760Y1124D02*
X26043D01*
X25760Y1624D02*
X25760Y1624D01*
X26043D01*
X20472Y591D02*
Y965D01*
X20157Y591D02*
Y965D01*
X22559Y2421D02*
X22933D01*
X25760Y7124D02*
X26043D01*
X25760Y6624D02*
X26043D01*
X28359Y7624D02*
X29075D01*
X29358D01*
X28359Y7124D02*
X29358D01*
X22362Y591D02*
Y965D01*
X8777Y4525D02*
X8780Y4522D01*
X8408Y4525D02*
X8777D01*
X2138Y7124D02*
X2421D01*
X2138Y7624D02*
X2138Y7624D01*
X2421D01*
X2421Y7624D01*
X8406Y4921D02*
X8780D01*
X4737Y7124D02*
X5453D01*
X9252Y6181D02*
Y6555D01*
X5453Y8124D02*
X5736D01*
X4737Y10624D02*
X5465D01*
X5736D01*
X10827Y531D02*
Y906D01*
X10630Y531D02*
Y1102D01*
X10436Y903D02*
X10438Y906D01*
X10436Y534D02*
Y903D01*
X10236Y531D02*
Y1102D01*
X10039Y531D02*
Y906D01*
X9843Y531D02*
Y1102D01*
X9646Y531D02*
Y906D01*
X2421Y9124D02*
X3137D01*
X2138D02*
X2421D01*
X2138Y9124D02*
X2138Y9124D01*
X2421Y9624D02*
X3137D01*
X2138D02*
X2421D01*
X2138Y9624D02*
X2138Y9624D01*
X2421Y10124D02*
X3137D01*
X2138D02*
X2421D01*
X2138Y10124D02*
X2138Y10124D01*
X2421Y10624D02*
X3137D01*
X2138D02*
X2421D01*
X2138Y10624D02*
X2138Y10624D01*
X2421Y11124D02*
X3137D01*
X2138D02*
X2421D01*
X2138Y11124D02*
X2138Y11124D01*
X2421Y11624D02*
X3137D01*
X2138D02*
X2421D01*
X2138Y11624D02*
X2138Y11624D01*
X2421Y12124D02*
X3137D01*
X2138D02*
X2421D01*
X2138Y12124D02*
X2138Y12124D01*
X2421Y12624D02*
X3137D01*
X2138D02*
X2421D01*
X2138Y12624D02*
X2138Y12624D01*
X12598Y531D02*
Y1102D01*
X12402Y531D02*
Y906D01*
X12203Y533D02*
X12205Y531D01*
Y1102D01*
X12010Y903D02*
X12013Y906D01*
X12010Y534D02*
Y903D01*
X11811Y531D02*
Y1102D01*
X26043Y6124D02*
X26759D01*
X25760Y6124D02*
X25760Y6124D01*
X26043D01*
X26053Y5634D02*
X26749D01*
X26043Y5624D02*
X26053Y5634D01*
X26749D02*
X26759Y5624D01*
X25760D02*
X26043D01*
X26749Y4134D02*
X26759Y4124D01*
X26053Y4134D02*
X26749D01*
X26043Y4124D02*
X26053Y4134D01*
X25760Y4124D02*
X26043D01*
Y4624D02*
X26759D01*
X25760Y4624D02*
X25760Y4624D01*
X26043D01*
X26749Y5134D02*
X26759Y5124D01*
X26053Y5134D02*
X26749D01*
X26043Y5124D02*
X26053Y5134D01*
X25760Y5124D02*
X26043D01*
X29075Y2124D02*
X29358D01*
X28359D02*
X29075D01*
X28359Y2624D02*
X29094D01*
X29358D01*
X29075Y3124D02*
X29358D01*
X28359D02*
X29075D01*
Y3624D02*
X29358D01*
X28359D02*
X29075D01*
Y4124D02*
X29358D01*
X28359D02*
X29075D01*
Y4624D02*
X29358D01*
X28359D02*
X29075D01*
X28359Y5124D02*
X29075D01*
X29358D01*
X28359Y5624D02*
X29075D01*
X29358D01*
X10039Y5985D02*
Y6555D01*
X13859Y3937D02*
X14429D01*
X9843Y6181D02*
Y6555D01*
X13386Y6181D02*
Y6555D01*
X13859Y1378D02*
X14429D01*
X14077Y1181D02*
X14429D01*
X14058Y2955D02*
X14427D01*
X14055Y2958D02*
X14058Y2955D01*
X13859Y3150D02*
X14429D01*
X14055Y3346D02*
X14429D01*
X13859Y3543D02*
X14429D01*
X8406Y3740D02*
X8774D01*
X8777Y3738D01*
X8403Y3546D02*
X8973D01*
X8403Y3349D02*
X8777D01*
X8406Y3937D02*
X8976D01*
X8406Y4134D02*
X8780D01*
X8406Y4331D02*
X8976D01*
X8406Y4724D02*
X8976D01*
X8406Y5118D02*
X8976D01*
X8406Y5315D02*
X8780D01*
X8777Y1966D02*
X8780Y1963D01*
X8408Y1966D02*
X8777D01*
X8406Y2559D02*
X8976D01*
X8406Y2756D02*
X9134D01*
X11614Y531D02*
Y906D01*
X11417Y531D02*
Y1102D01*
X11220Y531D02*
Y906D01*
X11024Y531D02*
Y1102D01*
X14055Y5315D02*
X14429D01*
X13859Y5118D02*
X14429D01*
X14055Y4926D02*
X14058Y4924D01*
X14427D01*
X13859Y4724D02*
X14429D01*
X14055Y4528D02*
X14429D01*
X13859Y4331D02*
X14429D01*
X14055Y4134D02*
X14429D01*
X12205Y6181D02*
Y6555D01*
X12008Y5985D02*
Y6555D01*
X11811Y6181D02*
Y6555D01*
X11614Y5985D02*
Y6555D01*
X11415Y6553D02*
X11417Y6555D01*
X11415Y6184D02*
Y6553D01*
X11412Y6181D02*
X11415Y6184D01*
X11220Y5985D02*
Y6555D01*
X11024Y6181D02*
Y6555D01*
X10827Y5985D02*
Y6555D01*
X2138Y624D02*
X2421D01*
X3137D01*
X2138Y1124D02*
X2421D01*
X3137D01*
X2138Y1624D02*
X2421D01*
X3137D01*
X5453Y1124D02*
X5736D01*
X5453Y1624D02*
X5736D01*
X5453Y2124D02*
X5736D01*
X5453Y3124D02*
X5736D01*
X5453Y3624D02*
X5736D01*
X4737D02*
X5453D01*
Y4124D02*
X5736D01*
X4737D02*
X5453D01*
Y4624D02*
X5736D01*
X4737D02*
X5453D01*
Y5124D02*
X5736D01*
X4737D02*
X5453D01*
Y5624D02*
X5736D01*
X4737D02*
X5453D01*
Y11624D02*
X5736D01*
X4737D02*
X5453D01*
Y12124D02*
X5736D01*
X4737D02*
X5453D01*
Y12624D02*
X5736D01*
X4737D02*
X5453D01*
X4737Y13124D02*
X5453D01*
X5736D02*
X5736Y13124D01*
X5453Y13124D02*
X5736D01*
X2421Y2624D02*
X3137D01*
X2138Y2624D02*
X2138Y2624D01*
X2421D01*
Y5124D02*
X3137D01*
X2138Y5124D02*
X2138Y5124D01*
X2421D01*
Y13124D02*
X3137D01*
X25760Y3124D02*
X25760Y3124D01*
X26043D01*
X26759D01*
X26043Y13624D02*
X26759D01*
X25760D02*
X26043D01*
Y12624D02*
X26759D01*
X25760D02*
X26043D01*
X25760Y3624D02*
X26043D01*
X26053Y3634D02*
X26749D01*
X26759Y3624D01*
X26043D02*
X26053Y3634D01*
X26043Y6624D02*
X26053Y6634D01*
X26749D02*
X26759Y6624D01*
X26053Y6634D02*
X26749D01*
X10709Y7943D02*
X11722D01*
X12264Y7402D02*
X13071D01*
X11722Y7943D02*
X12264Y7402D01*
X13071D02*
X13240Y7232D01*
X10630Y7864D02*
X10709Y7943D01*
X10630Y6555D02*
Y7864D01*
X10433Y6555D02*
Y7990D01*
X10620Y8177D01*
X10630D01*
X21732Y7343D02*
Y7697D01*
X16671Y8846D02*
X16984D01*
X16535Y8711D02*
X16671Y8846D01*
X16535Y8437D02*
Y8711D01*
X15354Y12242D02*
X15866D01*
X15016D02*
Y12742D01*
X15354Y13455D02*
Y13742D01*
X15016Y13116D02*
X15354Y13455D01*
X15016Y12742D02*
Y13116D01*
X15354Y12742D02*
X15866D01*
X15354Y13742D02*
X15866D01*
X11022Y15313D02*
X11130Y15205D01*
X11410D01*
X11644Y12017D02*
Y14971D01*
X11410Y15205D02*
X11644Y14971D01*
X11455Y15327D02*
X11762Y15020D01*
Y11968D02*
Y15020D01*
X11455Y15327D02*
Y15579D01*
X11501Y11875D02*
X11644Y12017D01*
X11216Y11875D02*
X11501D01*
X11022Y11681D02*
X11216Y11875D01*
X11022Y11220D02*
Y11681D01*
X11455Y11220D02*
Y11661D01*
X11762Y11968D01*
X11022Y15313D02*
Y15579D01*
X11998Y14547D02*
X12754Y15303D01*
Y15579D01*
X11022Y15917D02*
X11031D01*
X11317Y15632D01*
X11402D01*
X11455Y15579D01*
X11878Y15917D02*
X11888D01*
X11593Y15632D02*
X11878Y15917D01*
X11508Y15632D02*
X11593D01*
X11455Y15579D02*
X11508Y15632D01*
X11888Y15917D02*
X12754D01*
X13780Y531D02*
Y883D01*
X13386Y531D02*
Y883D01*
X13583Y531D02*
Y1102D01*
X5453Y11124D02*
X5736D01*
X5465Y10624D02*
Y10636D01*
X4737Y11124D02*
X5453D01*
X2138Y3124D02*
X2138Y3124D01*
X2421D01*
X3137D01*
X2421Y3624D02*
X3137D01*
X2138Y3624D02*
X2138Y3624D01*
X2421D01*
Y4124D02*
X3137D01*
X2138Y4124D02*
X2138Y4124D01*
X2421D01*
Y4624D02*
X3137D01*
X2138D02*
X2421D01*
X2138Y4624D02*
X2138Y4624D01*
X13189Y531D02*
Y1102D01*
X12992Y531D02*
Y883D01*
X5453Y6124D02*
X5736D01*
X4737D02*
X5453D01*
Y6624D02*
X5736D01*
X4737D02*
X5453D01*
Y7624D02*
X5736D01*
X5453Y8624D02*
X5736D01*
X5453Y9124D02*
X5736D01*
X4737D02*
X5453D01*
Y9624D02*
X5736D01*
X4737D02*
X5453D01*
Y10124D02*
X5736D01*
X4737D02*
X5453D01*
Y13624D02*
X5736D01*
X4737D02*
X5453D01*
X4737Y14624D02*
X5453D01*
X5736D01*
X5453Y15124D02*
X5736D01*
X4737D02*
X5453D01*
X2138Y14624D02*
X2421D01*
X2138Y14624D02*
X2138Y14624D01*
X2421D02*
X3137D01*
X2138Y14124D02*
X2421D01*
X2138Y14124D02*
X2138Y14124D01*
X2421D02*
X3137D01*
X2138Y13624D02*
X2421D01*
X2138Y13624D02*
X2138Y13624D01*
X2421D02*
X3137D01*
X2138Y8624D02*
X2421D01*
X2138Y8624D02*
X2138Y8624D01*
X2421D02*
X3137D01*
X2138Y8124D02*
X2421D01*
X2138Y8124D02*
X2138Y8124D01*
X2421D02*
X3137D01*
X2421Y7624D02*
X3137D01*
X2421Y7124D02*
X3137D01*
X2138Y6624D02*
X2421D01*
X2138Y6624D02*
X2138Y6624D01*
X2421D02*
X3137D01*
X2138Y6124D02*
X2421D01*
X2138Y6124D02*
X2138Y6124D01*
X2421D02*
X3137D01*
X2138Y5624D02*
X2421D01*
X2138Y5624D02*
X2138Y5624D01*
X2421D02*
X3137D01*
X26043Y624D02*
X26759D01*
X26043Y1124D02*
X26759D01*
X26043Y1624D02*
X26759D01*
X25760Y2624D02*
X26043D01*
X25760Y2624D02*
X25760Y2624D01*
X26043D02*
X26759D01*
X26043Y7124D02*
X26759D01*
X25760Y7624D02*
X26043D01*
X26759D01*
X25760Y8124D02*
X26043D01*
X25760Y8124D02*
X25760Y8124D01*
X26043D02*
X26759D01*
X25760Y8624D02*
X26043D01*
X25760Y8624D02*
X25760Y8624D01*
X26043D02*
X26759D01*
X25760Y9124D02*
X26043D01*
X25760Y9124D02*
X25760Y9124D01*
X26043D02*
X26759D01*
X25760Y9624D02*
X26043D01*
Y10124D02*
X26759D01*
X25760Y10624D02*
X26043D01*
X25760Y10624D02*
X25760Y10624D01*
X26043D02*
X26759D01*
X25760Y13124D02*
X26043D01*
X25760Y13124D02*
X25760Y13124D01*
X26043D02*
X26759D01*
X25760Y14124D02*
X26043D01*
X25760Y14124D02*
X25760Y14124D01*
X26043D02*
X26759D01*
X25760Y14624D02*
X26043D01*
X25760Y14624D02*
X25760Y14624D01*
X26043D02*
X26759D01*
X28359Y1624D02*
X29358D01*
X28359Y6624D02*
X29358D01*
X28359Y8124D02*
X29358D01*
X28359Y8624D02*
X29358D01*
X28359Y9124D02*
X29358D01*
X28359Y11624D02*
X29358D01*
X28359Y13124D02*
X29358D01*
X28359Y15124D02*
X29075D01*
X29358D02*
X29358Y15124D01*
X29075Y15124D02*
X29358D01*
X9843Y6555D02*
Y6900D01*
X9656Y7087D02*
X9843Y6900D01*
X9646Y7087D02*
X9656D01*
X9252D02*
X9646D01*
X19685Y9880D02*
Y9890D01*
X20118Y10323D02*
Y10341D01*
X20157Y10380D01*
X20197D01*
X19685D02*
Y10390D01*
X20118Y10823D02*
Y10841D01*
X20157Y10880D01*
X20197D01*
X19685D02*
Y11380D01*
X22295Y5602D02*
X22835D01*
X22126Y5433D02*
X22295Y5602D01*
X19685Y6547D02*
X20224D01*
X13240Y7232D02*
X13780D01*
X10630Y8177D02*
X11169D01*
X11339Y8346D01*
X10039Y6555D02*
Y7087D01*
X7874Y2953D02*
X8406D01*
X12992Y0D02*
Y531D01*
X14429Y3937D02*
X14961D01*
X15354Y3514D02*
X15787D01*
X14961D02*
X15354D01*
X18504Y6014D02*
X18898D01*
X18071D02*
X18504D01*
X16150Y7508D02*
X16161Y7520D01*
X16150Y7250D02*
Y7508D01*
Y7250D02*
X16250Y7150D01*
X17150D01*
X17323Y6654D02*
Y6977D01*
X17150Y7150D02*
X17323Y6977D01*
X15354Y6589D02*
X15728D01*
X15787Y6648D01*
Y6654D01*
Y8098D02*
X16161D01*
Y7520D02*
Y8098D01*
X15728Y7585D02*
X15787Y7526D01*
Y7520D02*
Y7526D01*
X15354Y7585D02*
Y8098D01*
X17697Y7461D02*
Y7520D01*
Y7461D02*
X17911Y7246D01*
X18504D01*
X20232Y7701D02*
X20236Y7697D01*
X19689Y7701D02*
X20232D01*
X19685Y7705D02*
X19689Y7701D01*
X20213Y8075D02*
X20236Y8051D01*
X19685Y8098D02*
X19709Y8075D01*
X19768Y8760D02*
X20177D01*
X19701Y8827D02*
X19768Y8760D01*
X19701Y8827D02*
Y8846D01*
X20325Y9114D02*
X21394D01*
X20709Y8406D02*
X20741D01*
X20800Y8465D01*
Y8650D01*
X20910Y8760D02*
X21394D01*
X20800Y8650D02*
X20910Y8760D01*
X20682Y8406D02*
X20709D01*
X20623Y8465D02*
X20682Y8406D01*
X20623Y8465D02*
Y8609D01*
X20472Y8760D02*
X20623Y8609D01*
X21394Y8051D02*
Y8406D01*
X21732Y3937D02*
Y4528D01*
X21102Y3937D02*
Y4528D01*
X18071Y1467D02*
X18504D01*
X18504Y1467D02*
X18504Y1467D01*
X18898Y2421D02*
X19587D01*
X18504D02*
X18898D01*
D13*
X16732Y6589D02*
X16929D01*
X16555D02*
X16732D01*
X16535Y6608D02*
X16555Y6589D01*
X16535Y6608D02*
Y6654D01*
D19*
X15016Y11132D02*
D03*
X15354D02*
D03*
X15016Y10738D02*
D03*
X15354D02*
D03*
X19319Y12242D02*
D03*
X19657D02*
D03*
X22807Y13772D02*
D03*
X22469D02*
D03*
X22807Y12772D02*
D03*
X22469D02*
D03*
X18165Y15521D02*
D03*
X17827D02*
D03*
X18165Y15124D02*
D03*
X17827D02*
D03*
X21232Y13742D02*
D03*
X20894D02*
D03*
X21232Y12742D02*
D03*
X20894D02*
D03*
Y12242D02*
D03*
X21232D02*
D03*
X18165Y15917D02*
D03*
X17827D02*
D03*
X19657Y13742D02*
D03*
X19319D02*
D03*
X19657Y12742D02*
D03*
X19319D02*
D03*
X22469Y12272D02*
D03*
X22807D02*
D03*
X19346Y11380D02*
D03*
X19685D02*
D03*
X19346Y10880D02*
D03*
X19685D02*
D03*
X19346Y10380D02*
D03*
X19685D02*
D03*
X19346Y9880D02*
D03*
X19685D02*
D03*
X19346Y8098D02*
D03*
X19685D02*
D03*
X18504Y8098D02*
D03*
X18843D02*
D03*
X21394Y7343D02*
D03*
X21732D02*
D03*
X21394Y7697D02*
D03*
X21732D02*
D03*
X21394Y8760D02*
D03*
X21732D02*
D03*
X19346Y7705D02*
D03*
X19685D02*
D03*
X21394Y9114D02*
D03*
X21732D02*
D03*
X15016Y11526D02*
D03*
X15354D02*
D03*
X18504Y8846D02*
D03*
X18843D02*
D03*
X21394Y8406D02*
D03*
X21732D02*
D03*
X15016Y13742D02*
D03*
X15354D02*
D03*
Y12242D02*
D03*
X15016D02*
D03*
X15354Y12742D02*
D03*
X15016D02*
D03*
X21394Y8051D02*
D03*
X21732D02*
D03*
X12654Y0D02*
D03*
X12992D02*
D03*
X1799Y6124D02*
D03*
X2138D02*
D03*
X1799Y5624D02*
D03*
X2138D02*
D03*
X1799Y5124D02*
D03*
X2138D02*
D03*
X1799Y4624D02*
D03*
X2138D02*
D03*
X1799Y4124D02*
D03*
X2138D02*
D03*
X1799Y3624D02*
D03*
X2138D02*
D03*
X1799Y3124D02*
D03*
X2138D02*
D03*
X1799Y2624D02*
D03*
X2138D02*
D03*
X21102Y4528D02*
D03*
X20764D02*
D03*
X21732D02*
D03*
X21394D02*
D03*
X22047Y0D02*
D03*
X21709D02*
D03*
X29358Y1124D02*
D03*
X29697D02*
D03*
X29358Y1624D02*
D03*
X29697D02*
D03*
X29358Y2124D02*
D03*
X29697D02*
D03*
X29358Y2624D02*
D03*
X29697D02*
D03*
X29358Y3124D02*
D03*
X29697D02*
D03*
X29358Y3624D02*
D03*
X29697D02*
D03*
X29358Y4124D02*
D03*
X29697D02*
D03*
X29358Y4624D02*
D03*
X29697D02*
D03*
X29358Y5124D02*
D03*
X29697D02*
D03*
X29358Y5624D02*
D03*
X29697D02*
D03*
X29358Y6124D02*
D03*
X29697D02*
D03*
X29358Y6624D02*
D03*
X29697D02*
D03*
X29358Y7124D02*
D03*
X29697D02*
D03*
X29358Y7624D02*
D03*
X29697D02*
D03*
X29358Y8124D02*
D03*
X29697D02*
D03*
X29358Y8624D02*
D03*
X29697D02*
D03*
X29358Y9124D02*
D03*
X29697D02*
D03*
X29358Y9624D02*
D03*
X29697D02*
D03*
X29358Y10124D02*
D03*
X29697D02*
D03*
X29358Y10624D02*
D03*
X29697D02*
D03*
X29358Y11124D02*
D03*
X29697D02*
D03*
X29358Y11624D02*
D03*
X29697D02*
D03*
X29358Y12124D02*
D03*
X29697D02*
D03*
X29358Y12624D02*
D03*
X29697D02*
D03*
X29358Y13124D02*
D03*
X29697D02*
D03*
X29358Y13624D02*
D03*
X29697D02*
D03*
X29358Y14624D02*
D03*
X29697D02*
D03*
X29358Y15124D02*
D03*
X29697D02*
D03*
X25760Y624D02*
D03*
X25421D02*
D03*
X25760Y1124D02*
D03*
X25421D02*
D03*
X25760Y1624D02*
D03*
X25421D02*
D03*
X25760Y2624D02*
D03*
X25421D02*
D03*
X25760Y3124D02*
D03*
X25421D02*
D03*
X25760Y3624D02*
D03*
X25421D02*
D03*
X25760Y4124D02*
D03*
X25421D02*
D03*
X25760Y4624D02*
D03*
X25421D02*
D03*
X25760Y5124D02*
D03*
X25421D02*
D03*
X25760Y5624D02*
D03*
X25421D02*
D03*
X25760Y6124D02*
D03*
X25421D02*
D03*
X25760Y6624D02*
D03*
X25421D02*
D03*
X25760Y7124D02*
D03*
X25421D02*
D03*
X25760Y7624D02*
D03*
X25421D02*
D03*
X25760Y8124D02*
D03*
X25421D02*
D03*
X25760Y8624D02*
D03*
X25421D02*
D03*
X25760Y9124D02*
D03*
X25421D02*
D03*
X25760Y9624D02*
D03*
X25421D02*
D03*
X25760Y10124D02*
D03*
X25421D02*
D03*
X25760Y10624D02*
D03*
X25421D02*
D03*
X25760Y11124D02*
D03*
X25421D02*
D03*
X25760Y11624D02*
D03*
X25421D02*
D03*
X25760Y12124D02*
D03*
X25421D02*
D03*
X25760Y12624D02*
D03*
X25421D02*
D03*
X25760Y13124D02*
D03*
X25421D02*
D03*
X25760Y13624D02*
D03*
X25421D02*
D03*
X25760Y14124D02*
D03*
X25421D02*
D03*
X25760Y14624D02*
D03*
X25421D02*
D03*
X5736Y1124D02*
D03*
X6075D02*
D03*
X5736Y1624D02*
D03*
X6075D02*
D03*
X5736Y2124D02*
D03*
X6075D02*
D03*
X5736Y2624D02*
D03*
X6075D02*
D03*
X5736Y3124D02*
D03*
X6075D02*
D03*
X5736Y3624D02*
D03*
X6075D02*
D03*
X5736Y4124D02*
D03*
X6075D02*
D03*
X5736Y4624D02*
D03*
X6075D02*
D03*
X5736Y5124D02*
D03*
X6075D02*
D03*
X5736Y5624D02*
D03*
X6075D02*
D03*
X5736Y6124D02*
D03*
X6075D02*
D03*
X5736Y6624D02*
D03*
X6075D02*
D03*
X5736Y7124D02*
D03*
X6075D02*
D03*
X5736Y8624D02*
D03*
X6075D02*
D03*
X5736Y9124D02*
D03*
X6075D02*
D03*
X5736Y9624D02*
D03*
X6075D02*
D03*
X5736Y14624D02*
D03*
X6075D02*
D03*
X5736Y15124D02*
D03*
X6075D02*
D03*
X2138Y624D02*
D03*
X1799D02*
D03*
X2138Y1124D02*
D03*
X1799D02*
D03*
X2138Y1624D02*
D03*
X1799D02*
D03*
X2138Y6624D02*
D03*
X1799D02*
D03*
X2138Y7124D02*
D03*
X1799D02*
D03*
X2138Y7624D02*
D03*
X1799D02*
D03*
X2138Y8124D02*
D03*
X1799D02*
D03*
X2138Y8624D02*
D03*
X1799D02*
D03*
X2138Y14624D02*
D03*
X1799D02*
D03*
X2138Y14124D02*
D03*
X1799D02*
D03*
X2138Y13624D02*
D03*
X1799D02*
D03*
X2138Y13124D02*
D03*
X1799D02*
D03*
X5736Y8124D02*
D03*
X6075D02*
D03*
X5736Y7624D02*
D03*
X6075D02*
D03*
X2138Y12624D02*
D03*
X1799D02*
D03*
X2138Y12124D02*
D03*
X1799D02*
D03*
X2138Y11624D02*
D03*
X1799D02*
D03*
X2138Y11124D02*
D03*
X1799D02*
D03*
X2138Y10624D02*
D03*
X1799D02*
D03*
X2138Y10124D02*
D03*
X1799D02*
D03*
X2138Y9624D02*
D03*
X1799D02*
D03*
X2138Y9124D02*
D03*
X1799D02*
D03*
X5736Y13124D02*
D03*
X6075D02*
D03*
X5736Y12624D02*
D03*
X6075D02*
D03*
X5736Y12124D02*
D03*
X6075D02*
D03*
X5736Y11624D02*
D03*
X6075D02*
D03*
X5736Y11124D02*
D03*
X6075D02*
D03*
X5736Y10624D02*
D03*
X6075D02*
D03*
X5736Y10124D02*
D03*
X6075D02*
D03*
X5736Y13624D02*
D03*
X6075D02*
D03*
D20*
X15354Y15880D02*
D03*
Y15541D02*
D03*
X10589Y15917D02*
D03*
Y15579D02*
D03*
X11455D02*
D03*
Y15917D02*
D03*
X12754D02*
D03*
Y15579D02*
D03*
X11888Y15917D02*
D03*
Y15579D02*
D03*
X11022Y15917D02*
D03*
Y15579D02*
D03*
X22835Y10718D02*
D03*
Y10380D02*
D03*
X16535Y8098D02*
D03*
Y8437D02*
D03*
X9646Y7087D02*
D03*
Y7425D02*
D03*
X9252D02*
D03*
Y7087D02*
D03*
X7874Y2953D02*
D03*
Y3291D02*
D03*
X14961Y4276D02*
D03*
Y3937D02*
D03*
X18504Y1467D02*
D03*
Y1128D02*
D03*
X15354Y1467D02*
D03*
Y1128D02*
D03*
Y3175D02*
D03*
Y3514D02*
D03*
X14961D02*
D03*
Y3175D02*
D03*
X15354Y5675D02*
D03*
Y6014D02*
D03*
X18504D02*
D03*
Y5675D02*
D03*
X18898Y6014D02*
D03*
Y5675D02*
D03*
X19685Y6547D02*
D03*
Y6209D02*
D03*
X22835Y5602D02*
D03*
Y5264D02*
D03*
X18898Y2421D02*
D03*
Y2083D02*
D03*
X18504D02*
D03*
Y2421D02*
D03*
X16929Y6589D02*
D03*
Y6927D02*
D03*
X18504D02*
D03*
Y6589D02*
D03*
X15354Y7585D02*
D03*
Y7246D02*
D03*
X16161Y8098D02*
D03*
Y8437D02*
D03*
X18504Y7246D02*
D03*
Y7585D02*
D03*
X15354Y6589D02*
D03*
Y6927D02*
D03*
X15354Y8098D02*
D03*
Y8437D02*
D03*
X15787Y8098D02*
D03*
Y8437D02*
D03*
X10039Y7087D02*
D03*
Y7425D02*
D03*
X13780Y7232D02*
D03*
Y7571D02*
D03*
X10630Y8177D02*
D03*
Y8516D02*
D03*
D24*
X18008Y8846D02*
D03*
Y8472D02*
D03*
Y8098D02*
D03*
X16984D02*
D03*
Y8846D02*
D03*
D26*
X21063Y13419D02*
D03*
X19488D02*
D03*
X22638Y13449D02*
D03*
X20325Y9114D02*
D03*
D27*
X20915Y13065D02*
D03*
X21211D02*
D03*
X19341D02*
D03*
X19636D02*
D03*
X22490Y13094D02*
D03*
X22785D02*
D03*
X20177Y8760D02*
D03*
X20472D02*
D03*
D35*
X15973Y15185D02*
D03*
Y15815D02*
D03*
X16327D02*
D03*
Y15185D02*
D03*
X18071Y6654D02*
D03*
X17697D02*
D03*
X17323D02*
D03*
Y7520D02*
D03*
X18071D02*
D03*
X17697D02*
D03*
X16535Y6654D02*
D03*
X16161D02*
D03*
X15787D02*
D03*
Y7520D02*
D03*
X16535D02*
D03*
X16161D02*
D03*
D62*
X16523Y-787D02*
D03*
X16917D02*
D03*
X17310D02*
D03*
X17704D02*
D03*
X18098D02*
D03*
X26365D02*
D03*
X26759D02*
D03*
X27153D02*
D03*
X27546D02*
D03*
X27940D02*
D03*
X28334D02*
D03*
X28728D02*
D03*
X29121D02*
D03*
X29515D02*
D03*
X29909D02*
D03*
X30302D02*
D03*
X30696D02*
D03*
X25972D02*
D03*
X25578D02*
D03*
X25184D02*
D03*
X24791D02*
D03*
X24397D02*
D03*
X24003D02*
D03*
X23609D02*
D03*
X23216D02*
D03*
X22822D02*
D03*
X22428D02*
D03*
X22035D02*
D03*
X21641D02*
D03*
X21247D02*
D03*
X20854D02*
D03*
X20460D02*
D03*
X20066D02*
D03*
X19672D02*
D03*
X19279D02*
D03*
X18885D02*
D03*
X18491D02*
D03*
X2350D02*
D03*
X2743D02*
D03*
X3137D02*
D03*
X3531D02*
D03*
X3924D02*
D03*
X12192D02*
D03*
X12586D02*
D03*
X12980D02*
D03*
X13373D02*
D03*
X13767D02*
D03*
X14161D02*
D03*
X14554D02*
D03*
X14948D02*
D03*
X15342D02*
D03*
X15735D02*
D03*
X16129D02*
D03*
X11798D02*
D03*
X11405D02*
D03*
X11011D02*
D03*
X10617D02*
D03*
X10224D02*
D03*
X9830D02*
D03*
X9436D02*
D03*
X9043D02*
D03*
X8649D02*
D03*
X8255D02*
D03*
X7861D02*
D03*
X7468D02*
D03*
X7074D02*
D03*
X6680D02*
D03*
X6287D02*
D03*
X5893D02*
D03*
X5499D02*
D03*
X5106D02*
D03*
X4712D02*
D03*
X4318D02*
D03*
X1169D02*
D03*
X1562D02*
D03*
X1956D02*
D03*
X775D02*
D03*
X30721Y16535D02*
D03*
X29540D02*
D03*
X29934D02*
D03*
X30328D02*
D03*
X27178D02*
D03*
X26784D02*
D03*
X26391D02*
D03*
X25997D02*
D03*
X25603D02*
D03*
X25209D02*
D03*
X24816D02*
D03*
X24422D02*
D03*
X24028D02*
D03*
X23635D02*
D03*
X23241D02*
D03*
X22847D02*
D03*
X22454D02*
D03*
X22060D02*
D03*
X21666D02*
D03*
X21272D02*
D03*
X20879D02*
D03*
X20485D02*
D03*
X20091D02*
D03*
X19698D02*
D03*
X15367D02*
D03*
X15761D02*
D03*
X16154D02*
D03*
X16548D02*
D03*
X16942D02*
D03*
X17335D02*
D03*
X17729D02*
D03*
X18123D02*
D03*
X18517D02*
D03*
X18910D02*
D03*
X19304D02*
D03*
X27572D02*
D03*
X27965D02*
D03*
X28359D02*
D03*
X28753D02*
D03*
X29146D02*
D03*
X13005D02*
D03*
X12611D02*
D03*
X12217D02*
D03*
X11824D02*
D03*
X11430D02*
D03*
X11036D02*
D03*
X10643D02*
D03*
X10249D02*
D03*
X9855D02*
D03*
X9461D02*
D03*
X9068D02*
D03*
X8674D02*
D03*
X8280D02*
D03*
X7887D02*
D03*
X7493D02*
D03*
X7099D02*
D03*
X6706D02*
D03*
X6312D02*
D03*
X5918D02*
D03*
X5524D02*
D03*
X800D02*
D03*
X1194D02*
D03*
X1587D02*
D03*
X1981D02*
D03*
X2375D02*
D03*
X2768D02*
D03*
X3162D02*
D03*
X3556D02*
D03*
X3950D02*
D03*
X4343D02*
D03*
X4737D02*
D03*
X5131D02*
D03*
X13398D02*
D03*
X13792D02*
D03*
X14186D02*
D03*
X14580D02*
D03*
X14973D02*
D03*
X32283Y12992D02*
D03*
Y12598D02*
D03*
Y12205D02*
D03*
Y11811D02*
D03*
Y11417D02*
D03*
Y11024D02*
D03*
Y10630D02*
D03*
Y10236D02*
D03*
Y9843D02*
D03*
Y9449D02*
D03*
Y9055D02*
D03*
Y8661D02*
D03*
Y8268D02*
D03*
Y7874D02*
D03*
Y7480D02*
D03*
Y7087D02*
D03*
Y6693D02*
D03*
Y6299D02*
D03*
Y5906D02*
D03*
Y5512D02*
D03*
Y787D02*
D03*
Y1181D02*
D03*
Y1575D02*
D03*
Y1969D02*
D03*
Y2362D02*
D03*
Y2756D02*
D03*
Y3150D02*
D03*
Y3543D02*
D03*
Y3937D02*
D03*
Y4331D02*
D03*
Y4724D02*
D03*
Y5118D02*
D03*
Y13386D02*
D03*
Y13780D02*
D03*
Y14173D02*
D03*
Y14567D02*
D03*
Y14961D02*
D03*
X-787Y787D02*
D03*
Y1181D02*
D03*
Y1575D02*
D03*
Y1969D02*
D03*
Y2362D02*
D03*
Y10630D02*
D03*
Y11024D02*
D03*
Y11417D02*
D03*
Y11811D02*
D03*
Y12205D02*
D03*
Y12598D02*
D03*
Y12992D02*
D03*
Y13386D02*
D03*
Y13780D02*
D03*
Y14173D02*
D03*
Y14567D02*
D03*
Y14961D02*
D03*
Y10236D02*
D03*
Y9843D02*
D03*
Y9449D02*
D03*
Y9055D02*
D03*
Y8661D02*
D03*
Y8268D02*
D03*
Y7874D02*
D03*
Y7480D02*
D03*
Y7087D02*
D03*
Y6693D02*
D03*
Y6299D02*
D03*
Y5906D02*
D03*
Y5512D02*
D03*
Y5118D02*
D03*
Y4724D02*
D03*
Y4331D02*
D03*
Y3937D02*
D03*
Y3543D02*
D03*
Y3150D02*
D03*
Y2756D02*
D03*
D65*
X31496Y15748D02*
D03*
Y0D02*
D03*
X0Y15748D02*
D03*
Y0D02*
D03*
D66*
X21004Y14774D02*
D03*
X21398D02*
D03*
X21791D02*
D03*
X22185D02*
D03*
X22579D02*
D03*
X22972D02*
D03*
X23366D02*
D03*
Y15561D02*
D03*
X22185D02*
D03*
X21791D02*
D03*
X20610Y14774D02*
D03*
Y15561D02*
D03*
X21051Y8051D02*
D03*
X13583Y5985D02*
D03*
X15571Y7585D02*
D03*
X16594Y-276D02*
D03*
X16929Y746D02*
D03*
X15413Y4990D02*
D03*
Y4734D02*
D03*
Y4222D02*
D03*
X15787Y6343D02*
D03*
X10589Y10650D02*
D03*
X11880Y10658D02*
D03*
X12754Y10650D02*
D03*
X11455D02*
D03*
X11022D02*
D03*
X16417Y12242D02*
D03*
Y12746D02*
D03*
X22047Y217D02*
D03*
X22362Y965D02*
D03*
X22559Y1161D02*
D03*
X21063Y2421D02*
D03*
X17697Y4478D02*
D03*
Y4990D02*
D03*
Y5246D02*
D03*
Y6014D02*
D03*
Y5758D02*
D03*
X18287Y7618D02*
D03*
X14077Y1969D02*
D03*
X13859Y2362D02*
D03*
X14077Y1575D02*
D03*
X13859Y2756D02*
D03*
X15634Y15880D02*
D03*
X18445Y11014D02*
D03*
X16161Y11535D02*
D03*
X16732Y6589D02*
D03*
X16535Y8711D02*
D03*
X18843Y8472D02*
D03*
X18287Y6589D02*
D03*
X15049Y6014D02*
D03*
X15098Y1467D02*
D03*
X18504Y1775D02*
D03*
X21102Y3455D02*
D03*
X22037Y9114D02*
D03*
Y8406D02*
D03*
Y7697D02*
D03*
X19961Y7701D02*
D03*
Y8075D02*
D03*
X9449Y2953D02*
D03*
X9055Y1102D02*
D03*
X16161Y5502D02*
D03*
X14055Y2559D02*
D03*
X18504Y746D02*
D03*
X18291Y8098D02*
D03*
Y8846D02*
D03*
X18445Y9990D02*
D03*
Y10246D02*
D03*
Y10502D02*
D03*
Y10758D02*
D03*
X21051Y7343D02*
D03*
Y7697D02*
D03*
X17717Y746D02*
D03*
X16142D02*
D03*
X15354D02*
D03*
X22559Y2106D02*
D03*
X26043Y11124D02*
D03*
Y11624D02*
D03*
Y12124D02*
D03*
X16949Y4734D02*
D03*
X5453Y8124D02*
D03*
X12598Y6181D02*
D03*
X5453Y8624D02*
D03*
X7559Y1772D02*
D03*
X6890Y1378D02*
D03*
X6693Y1575D02*
D03*
X5453Y1124D02*
D03*
X5452Y2624D02*
D03*
X5453Y2124D02*
D03*
Y7124D02*
D03*
Y7624D02*
D03*
Y1624D02*
D03*
X7087Y2362D02*
D03*
X7283Y2165D02*
D03*
X2421Y13124D02*
D03*
X29075Y13624D02*
D03*
Y14624D02*
D03*
X12992Y6181D02*
D03*
X12795Y5985D02*
D03*
X13859Y5512D02*
D03*
X13189Y5985D02*
D03*
X12402D02*
D03*
X16949Y5502D02*
D03*
X16161Y9734D02*
D03*
Y9990D02*
D03*
Y10246D02*
D03*
Y10502D02*
D03*
Y11014D02*
D03*
Y11270D02*
D03*
X16358Y4478D02*
D03*
Y5246D02*
D03*
X20157Y4301D02*
D03*
X17697Y2746D02*
D03*
Y3002D02*
D03*
Y3258D02*
D03*
X20157Y3051D02*
D03*
X17697Y2490D02*
D03*
X16161D02*
D03*
Y2746D02*
D03*
Y3002D02*
D03*
Y3514D02*
D03*
Y3258D02*
D03*
X26043Y9624D02*
D03*
Y10124D02*
D03*
X22579Y10380D02*
D03*
X19941Y10148D02*
D03*
Y10650D02*
D03*
Y11380D02*
D03*
X21238Y11863D02*
D03*
X19657Y11868D02*
D03*
X22812Y11892D02*
D03*
X19961Y1161D02*
D03*
X26043Y7624D02*
D03*
X20157Y3366D02*
D03*
Y2736D02*
D03*
X22559Y1791D02*
D03*
Y1476D02*
D03*
X26043Y6624D02*
D03*
Y624D02*
D03*
Y1124D02*
D03*
Y1624D02*
D03*
X20472Y965D02*
D03*
X20157D02*
D03*
X22559Y2421D02*
D03*
X26043Y7124D02*
D03*
X29075Y7624D02*
D03*
Y7124D02*
D03*
X8780Y4522D02*
D03*
X2421Y7124D02*
D03*
X2421Y7624D02*
D03*
X8780Y4921D02*
D03*
X9252Y6181D02*
D03*
X10827Y906D02*
D03*
X10630Y1102D02*
D03*
X10438Y906D02*
D03*
X10236Y1102D02*
D03*
X10039Y906D02*
D03*
X9843Y1102D02*
D03*
X9646Y906D02*
D03*
X2421Y9124D02*
D03*
Y9624D02*
D03*
Y10124D02*
D03*
X2421Y10624D02*
D03*
X2421Y11124D02*
D03*
Y11624D02*
D03*
Y12124D02*
D03*
Y12624D02*
D03*
X12598Y1102D02*
D03*
X12402Y906D02*
D03*
X12205Y1102D02*
D03*
X12013Y906D02*
D03*
X11811Y1102D02*
D03*
X26043Y6124D02*
D03*
Y5624D02*
D03*
Y4124D02*
D03*
Y4624D02*
D03*
Y5124D02*
D03*
X29075Y2124D02*
D03*
X29094Y2624D02*
D03*
X29075Y3124D02*
D03*
Y3624D02*
D03*
Y4124D02*
D03*
Y4624D02*
D03*
Y5124D02*
D03*
Y5624D02*
D03*
X10039Y5985D02*
D03*
X13859Y3937D02*
D03*
X9843Y6181D02*
D03*
X13386D02*
D03*
X13859Y1378D02*
D03*
X14077Y1181D02*
D03*
X13859Y1772D02*
D03*
Y3150D02*
D03*
Y3543D02*
D03*
X14055Y2958D02*
D03*
Y3346D02*
D03*
X8973Y3546D02*
D03*
X8777Y3738D02*
D03*
Y3349D02*
D03*
X8780Y4134D02*
D03*
Y5315D02*
D03*
X8976Y3937D02*
D03*
Y4331D02*
D03*
Y4724D02*
D03*
Y5118D02*
D03*
X8780Y1963D02*
D03*
X9134Y2756D02*
D03*
X8976Y2559D02*
D03*
X11220Y906D02*
D03*
X11417Y1102D02*
D03*
X11614Y906D02*
D03*
X11024Y1102D02*
D03*
X14055Y5315D02*
D03*
Y4926D02*
D03*
Y4134D02*
D03*
X13859Y5118D02*
D03*
Y4724D02*
D03*
Y4331D02*
D03*
X14055Y4528D02*
D03*
X11811Y6181D02*
D03*
X12008Y5985D02*
D03*
X11614D02*
D03*
X11220D02*
D03*
X10827D02*
D03*
X2421Y624D02*
D03*
Y1124D02*
D03*
Y1624D02*
D03*
X5453Y3124D02*
D03*
Y3624D02*
D03*
Y4124D02*
D03*
Y4624D02*
D03*
Y5124D02*
D03*
Y5624D02*
D03*
Y11624D02*
D03*
Y12124D02*
D03*
Y12624D02*
D03*
X5453Y13124D02*
D03*
X2421Y2624D02*
D03*
Y5124D02*
D03*
X26043Y3124D02*
D03*
Y3624D02*
D03*
Y13624D02*
D03*
Y12624D02*
D03*
X29075Y6124D02*
D03*
X12205Y6181D02*
D03*
X11412D02*
D03*
X11024D02*
D03*
X13780Y883D02*
D03*
X13386D02*
D03*
X13583Y1102D02*
D03*
X5453Y11124D02*
D03*
X5465Y10636D02*
D03*
X2421Y3124D02*
D03*
X13189Y1102D02*
D03*
X12992Y883D02*
D03*
X5453Y6124D02*
D03*
Y6624D02*
D03*
Y9124D02*
D03*
Y9624D02*
D03*
Y10124D02*
D03*
Y13624D02*
D03*
Y14624D02*
D03*
Y15124D02*
D03*
X2421Y14624D02*
D03*
Y14124D02*
D03*
Y13624D02*
D03*
Y8624D02*
D03*
Y8124D02*
D03*
Y6624D02*
D03*
Y6124D02*
D03*
Y5624D02*
D03*
Y4624D02*
D03*
Y4124D02*
D03*
Y3624D02*
D03*
X26043Y2624D02*
D03*
Y8124D02*
D03*
Y8624D02*
D03*
Y9124D02*
D03*
Y10624D02*
D03*
Y13124D02*
D03*
Y14124D02*
D03*
Y14624D02*
D03*
X29075Y15124D02*
D03*
Y1124D02*
D03*
Y1624D02*
D03*
Y6624D02*
D03*
Y8124D02*
D03*
Y8624D02*
D03*
Y9124D02*
D03*
Y9624D02*
D03*
Y10124D02*
D03*
Y10624D02*
D03*
Y11124D02*
D03*
Y11624D02*
D03*
Y12124D02*
D03*
Y12624D02*
D03*
Y13124D02*
D03*
D67*
X22323Y9880D02*
D03*
Y10380D02*
D03*
Y10880D02*
D03*
Y11380D02*
D03*
X20197D02*
D03*
Y10880D02*
D03*
Y10380D02*
D03*
Y9880D02*
D03*
D68*
X21260Y10630D02*
D03*
D69*
X8711Y10197D02*
D03*
X14124D02*
D03*
Y13465D02*
D03*
X8711D02*
D03*
D70*
X13187Y11220D02*
D03*
X12754D02*
D03*
X12321D02*
D03*
X10156D02*
D03*
X10589D02*
D03*
X11022D02*
D03*
X11888D02*
D03*
X11455D02*
D03*
D71*
X19701Y8846D02*
D03*
X19346D02*
D03*
D72*
X20236Y8406D02*
D03*
Y8051D02*
D03*
Y7697D02*
D03*
Y7343D02*
D03*
X20709D02*
D03*
Y7697D02*
D03*
Y8051D02*
D03*
Y8406D02*
D03*
D73*
X18504Y394D02*
D03*
X16929D02*
D03*
X17717D02*
D03*
X15354D02*
D03*
X16142D02*
D03*
D74*
X15866Y13742D02*
D03*
Y13242D02*
D03*
Y12742D02*
D03*
Y12242D02*
D03*
X17992D02*
D03*
Y12742D02*
D03*
Y13242D02*
D03*
Y13742D02*
D03*
D75*
X18071Y11526D02*
D03*
Y9734D02*
D03*
Y9990D02*
D03*
Y10246D02*
D03*
Y10502D02*
D03*
Y11270D02*
D03*
Y11014D02*
D03*
Y10758D02*
D03*
X15787Y11526D02*
D03*
Y9734D02*
D03*
Y9990D02*
D03*
Y10246D02*
D03*
Y10502D02*
D03*
Y11270D02*
D03*
Y11014D02*
D03*
Y10758D02*
D03*
Y5246D02*
D03*
Y5502D02*
D03*
Y5758D02*
D03*
Y4990D02*
D03*
Y4734D02*
D03*
Y4478D02*
D03*
Y4222D02*
D03*
Y6014D02*
D03*
X18071Y5246D02*
D03*
Y5502D02*
D03*
Y5758D02*
D03*
Y4990D02*
D03*
Y4734D02*
D03*
Y4478D02*
D03*
Y4222D02*
D03*
Y6014D02*
D03*
Y3514D02*
D03*
X15787D02*
D03*
X18071Y1211D02*
D03*
X15787D02*
D03*
Y1467D02*
D03*
Y3258D02*
D03*
Y3002D02*
D03*
Y2746D02*
D03*
Y2490D02*
D03*
Y1722D02*
D03*
Y1978D02*
D03*
Y2234D02*
D03*
X18071Y1467D02*
D03*
Y3258D02*
D03*
Y3002D02*
D03*
Y2746D02*
D03*
Y2490D02*
D03*
Y1722D02*
D03*
Y1978D02*
D03*
Y2234D02*
D03*
D76*
X22126Y6378D02*
D03*
X20394D02*
D03*
Y5433D02*
D03*
X22126D02*
D03*
X11339Y8346D02*
D03*
X13071D02*
D03*
Y7402D02*
D03*
X11339D02*
D03*
D77*
X19587Y3366D02*
D03*
Y3051D02*
D03*
Y2736D02*
D03*
Y2421D02*
D03*
Y2106D02*
D03*
Y1791D02*
D03*
Y1476D02*
D03*
Y1161D02*
D03*
X22933D02*
D03*
Y1476D02*
D03*
Y1791D02*
D03*
Y2106D02*
D03*
Y2421D02*
D03*
Y2736D02*
D03*
Y3051D02*
D03*
Y3366D02*
D03*
D78*
X20157Y591D02*
D03*
X20472D02*
D03*
X20787D02*
D03*
X21102D02*
D03*
X21417D02*
D03*
X21732D02*
D03*
X22047D02*
D03*
X22362D02*
D03*
Y3937D02*
D03*
X22047D02*
D03*
X21732D02*
D03*
X21417D02*
D03*
X21102D02*
D03*
X20787D02*
D03*
X20472D02*
D03*
X20157D02*
D03*
D79*
X9055Y531D02*
D03*
X9252D02*
D03*
X9449D02*
D03*
X9646D02*
D03*
X9843D02*
D03*
X10039D02*
D03*
X10236D02*
D03*
X10433D02*
D03*
X10630D02*
D03*
X10827D02*
D03*
X11024D02*
D03*
X11220D02*
D03*
X11417D02*
D03*
X11614D02*
D03*
X11811D02*
D03*
X12008D02*
D03*
X12205D02*
D03*
X12402D02*
D03*
X12598D02*
D03*
X12795D02*
D03*
X12992D02*
D03*
X13189D02*
D03*
X13386D02*
D03*
X13583D02*
D03*
X13780D02*
D03*
Y6555D02*
D03*
X13583D02*
D03*
X13386D02*
D03*
X13189D02*
D03*
X12992D02*
D03*
X12795D02*
D03*
X12598D02*
D03*
X12402D02*
D03*
X12205D02*
D03*
X12008D02*
D03*
X11811D02*
D03*
X11614D02*
D03*
X11417D02*
D03*
X11220D02*
D03*
X11024D02*
D03*
X10827D02*
D03*
X10630D02*
D03*
X10433D02*
D03*
X10236D02*
D03*
X10039D02*
D03*
X9843D02*
D03*
X9646D02*
D03*
X9449D02*
D03*
X9252D02*
D03*
X9055D02*
D03*
D80*
X14429Y1181D02*
D03*
Y1378D02*
D03*
Y1575D02*
D03*
Y1772D02*
D03*
Y1969D02*
D03*
Y2165D02*
D03*
Y2362D02*
D03*
Y2559D02*
D03*
Y2756D02*
D03*
Y2953D02*
D03*
Y3150D02*
D03*
Y3346D02*
D03*
Y3543D02*
D03*
Y3740D02*
D03*
Y3937D02*
D03*
Y4134D02*
D03*
Y4331D02*
D03*
Y4528D02*
D03*
Y4724D02*
D03*
Y4921D02*
D03*
Y5118D02*
D03*
Y5315D02*
D03*
Y5512D02*
D03*
Y5709D02*
D03*
Y5906D02*
D03*
X8406D02*
D03*
Y5709D02*
D03*
Y5512D02*
D03*
Y5315D02*
D03*
Y5118D02*
D03*
Y4921D02*
D03*
Y4724D02*
D03*
Y4528D02*
D03*
Y4331D02*
D03*
Y4134D02*
D03*
Y3937D02*
D03*
Y3740D02*
D03*
Y3543D02*
D03*
Y3346D02*
D03*
Y3150D02*
D03*
Y2953D02*
D03*
Y2756D02*
D03*
Y2559D02*
D03*
Y2362D02*
D03*
Y2165D02*
D03*
Y1969D02*
D03*
Y1772D02*
D03*
Y1575D02*
D03*
Y1378D02*
D03*
Y1181D02*
D03*
D81*
X28359Y15124D02*
D03*
X26759D02*
D03*
X28359Y14624D02*
D03*
X26759D02*
D03*
X28359Y14124D02*
D03*
X26759D02*
D03*
X28359Y13624D02*
D03*
X26759D02*
D03*
X28359Y13124D02*
D03*
X26759D02*
D03*
X28359Y12624D02*
D03*
X26759D02*
D03*
X28359Y12124D02*
D03*
X26759D02*
D03*
X28359Y11624D02*
D03*
X26759D02*
D03*
X28359Y11124D02*
D03*
X26759D02*
D03*
X28359Y10624D02*
D03*
X26759D02*
D03*
X28359Y10124D02*
D03*
X26759D02*
D03*
X28359Y9624D02*
D03*
X26759D02*
D03*
X28359Y9124D02*
D03*
X26759D02*
D03*
X28359Y8624D02*
D03*
X26759D02*
D03*
X28359Y8124D02*
D03*
X26759D02*
D03*
X28359Y7624D02*
D03*
X26759D02*
D03*
X28359Y7124D02*
D03*
X26759D02*
D03*
X28359Y6624D02*
D03*
X26759D02*
D03*
X28359Y6124D02*
D03*
X26759D02*
D03*
X28359Y5624D02*
D03*
X26759D02*
D03*
X28359Y5124D02*
D03*
X26759D02*
D03*
X28359Y4624D02*
D03*
X26759D02*
D03*
X28359Y4124D02*
D03*
X26759D02*
D03*
X28359Y3624D02*
D03*
X26759D02*
D03*
X28359Y3124D02*
D03*
X26759D02*
D03*
X28359Y2624D02*
D03*
X26759D02*
D03*
X28359Y2124D02*
D03*
X26759D02*
D03*
X28359Y1624D02*
D03*
X26759D02*
D03*
X28359Y1124D02*
D03*
X26759D02*
D03*
X28359Y624D02*
D03*
X26759D02*
D03*
X4737Y15124D02*
D03*
X3137D02*
D03*
X4737Y14624D02*
D03*
X3137D02*
D03*
X4737Y14124D02*
D03*
X3137D02*
D03*
X4737Y13624D02*
D03*
X3137D02*
D03*
X4737Y13124D02*
D03*
X3137D02*
D03*
X4737Y12624D02*
D03*
X3137D02*
D03*
X4737Y12124D02*
D03*
X3137D02*
D03*
X4737Y11624D02*
D03*
X3137D02*
D03*
X4737Y11124D02*
D03*
X3137D02*
D03*
X4737Y10624D02*
D03*
X3137D02*
D03*
X4737Y10124D02*
D03*
X3137D02*
D03*
X4737Y9624D02*
D03*
X3137D02*
D03*
X4737Y9124D02*
D03*
X3137D02*
D03*
X4737Y8624D02*
D03*
X3137D02*
D03*
X4737Y8124D02*
D03*
X3137D02*
D03*
X4737Y7624D02*
D03*
X3137D02*
D03*
X4737Y7124D02*
D03*
X3137D02*
D03*
X4737Y6624D02*
D03*
X3137D02*
D03*
X4737Y6124D02*
D03*
X3137D02*
D03*
X4737Y5624D02*
D03*
X3137D02*
D03*
X4737Y5124D02*
D03*
X3137D02*
D03*
X4737Y4624D02*
D03*
X3137D02*
D03*
X4737Y4124D02*
D03*
X3137D02*
D03*
X4737Y3624D02*
D03*
X3137D02*
D03*
X4737Y3124D02*
D03*
X3137D02*
D03*
X4737Y2624D02*
D03*
X3137D02*
D03*
X4737Y2124D02*
D03*
X3137D02*
D03*
X4737Y1624D02*
D03*
X3137D02*
D03*
X4737Y1124D02*
D03*
X3137D02*
D03*
X4737Y624D02*
D03*
X3137D02*
D03*
M02*
