G04*
G04 #@! TF.GenerationSoftware,Altium Limited,Altium Designer,20.0.13 (296)*
G04*
G04 Layer_Color=8421504*
%FSLAX24Y24*%
%MOIN*%
G70*
G01*
G75*
%ADD16R,0.0512X0.1339*%
%ADD17R,0.0571X0.0689*%
%ADD18R,0.0098X0.0197*%
%ADD19R,0.0185X0.0205*%
%ADD20R,0.0205X0.0185*%
%ADD21R,0.1004X0.0807*%
%ADD22R,0.0236X0.0098*%
%ADD23R,0.0098X0.0236*%
%ADD24R,0.0315X0.0197*%
%ADD25R,0.0315X0.0315*%
%ADD26R,0.0157X0.0157*%
%ADD27R,0.0157X0.0157*%
%ADD28R,0.0394X0.0394*%
%ADD29R,0.0197X0.0098*%
%ADD30R,0.0354X0.0098*%
%ADD31R,0.0512X0.0098*%
%ADD32R,0.1339X0.0386*%
%ADD33R,0.0787X0.0394*%
%ADD34R,0.0315X0.0315*%
%ADD35R,0.0197X0.0315*%
%ADD36R,0.0236X0.0394*%
G04:AMPARAMS|DCode=37|XSize=27.6mil|YSize=27.6mil|CornerRadius=2.8mil|HoleSize=0mil|Usage=FLASHONLY|Rotation=0.000|XOffset=0mil|YOffset=0mil|HoleType=Round|Shape=RoundedRectangle|*
%AMROUNDEDRECTD37*
21,1,0.0276,0.0220,0,0,0.0*
21,1,0.0220,0.0276,0,0,0.0*
1,1,0.0055,0.0110,-0.0110*
1,1,0.0055,-0.0110,-0.0110*
1,1,0.0055,-0.0110,0.0110*
1,1,0.0055,0.0110,0.0110*
%
%ADD37ROUNDEDRECTD37*%
D16*
X14443Y4724D02*
D03*
X11018D02*
D03*
D17*
X9366D02*
D03*
D18*
X9465Y5295D02*
D03*
X9268D02*
D03*
X9071D02*
D03*
X9661D02*
D03*
X9465Y4154D02*
D03*
X9268D02*
D03*
X9071D02*
D03*
X9661D02*
D03*
X12835Y2323D02*
D03*
X12992D02*
D03*
X13150D02*
D03*
Y1614D02*
D03*
X12992D02*
D03*
X12835D02*
D03*
D19*
X24634Y689D02*
D03*
X24972D02*
D03*
X29697Y689D02*
D03*
X29358D02*
D03*
X29697Y1083D02*
D03*
X29358D02*
D03*
X29697Y1476D02*
D03*
X29358D02*
D03*
Y1870D02*
D03*
X29697D02*
D03*
X24972Y1870D02*
D03*
X24634D02*
D03*
X24972Y1476D02*
D03*
X24634D02*
D03*
X24972Y1083D02*
D03*
X24634D02*
D03*
X19909Y1870D02*
D03*
X20248D02*
D03*
Y1476D02*
D03*
X19909D02*
D03*
X20248Y1083D02*
D03*
X19909D02*
D03*
X20248Y689D02*
D03*
X19909D02*
D03*
X4500Y8268D02*
D03*
X4161D02*
D03*
Y7874D02*
D03*
X4500D02*
D03*
X4161Y7480D02*
D03*
X4500D02*
D03*
X6524Y8268D02*
D03*
X6862D02*
D03*
Y7874D02*
D03*
X6524D02*
D03*
X9618Y9843D02*
D03*
X9280D02*
D03*
Y9449D02*
D03*
X9618D02*
D03*
X11193Y9843D02*
D03*
X10854D02*
D03*
Y9449D02*
D03*
X11193D02*
D03*
X12768Y9843D02*
D03*
X12429D02*
D03*
Y9449D02*
D03*
X12768D02*
D03*
X9618Y8268D02*
D03*
X9280D02*
D03*
X11193D02*
D03*
X10854D02*
D03*
X12768D02*
D03*
X12429D02*
D03*
X9618Y7874D02*
D03*
X9280D02*
D03*
X11193D02*
D03*
X10854D02*
D03*
X12768D02*
D03*
X12429D02*
D03*
X30078Y3643D02*
D03*
X30416D02*
D03*
Y4036D02*
D03*
X30078D02*
D03*
Y4430D02*
D03*
X30416D02*
D03*
X30755D02*
D03*
X31094D02*
D03*
Y4036D02*
D03*
X30755D02*
D03*
Y3643D02*
D03*
X31094D02*
D03*
X14343Y1772D02*
D03*
X14004D02*
D03*
X14343Y2165D02*
D03*
X14004D02*
D03*
X10012Y3740D02*
D03*
X9673D02*
D03*
X10012Y3346D02*
D03*
X9673D02*
D03*
Y5709D02*
D03*
X10012D02*
D03*
X5539Y2390D02*
D03*
X5878D02*
D03*
X5539Y2728D02*
D03*
X5878D02*
D03*
Y4807D02*
D03*
X5539D02*
D03*
X5878Y5146D02*
D03*
X5539D02*
D03*
Y5484D02*
D03*
X5878D02*
D03*
X5539Y13358D02*
D03*
X5878D02*
D03*
Y13020D02*
D03*
X5539D02*
D03*
X5878Y12681D02*
D03*
X5539D02*
D03*
X29844Y11255D02*
D03*
X30183D02*
D03*
X29844Y10861D02*
D03*
X30183D02*
D03*
X31022Y11255D02*
D03*
X30683D02*
D03*
X31022Y10861D02*
D03*
X30683D02*
D03*
X30118Y8650D02*
D03*
X30457D02*
D03*
X21817Y15189D02*
D03*
X22155D02*
D03*
X14343Y12992D02*
D03*
X14004D02*
D03*
Y11811D02*
D03*
X14343D02*
D03*
X14004Y11417D02*
D03*
X14343D02*
D03*
X14004Y11024D02*
D03*
X14343D02*
D03*
X12768Y13386D02*
D03*
X12429D02*
D03*
Y12992D02*
D03*
X12768D02*
D03*
X12429Y11811D02*
D03*
X12768D02*
D03*
X11193Y13386D02*
D03*
X10854D02*
D03*
Y12992D02*
D03*
X11193D02*
D03*
X10854Y11811D02*
D03*
X11193D02*
D03*
X10854Y11417D02*
D03*
X11193D02*
D03*
Y11024D02*
D03*
X10854D02*
D03*
X9618Y13386D02*
D03*
X9280D02*
D03*
Y12992D02*
D03*
X9618D02*
D03*
X9280Y11811D02*
D03*
X9618D02*
D03*
X9280Y11417D02*
D03*
X9618D02*
D03*
Y11024D02*
D03*
X9280D02*
D03*
D20*
X28839Y2311D02*
D03*
Y2650D02*
D03*
X28445D02*
D03*
Y2311D02*
D03*
X28051Y2650D02*
D03*
Y2311D02*
D03*
X27657Y2650D02*
D03*
Y2311D02*
D03*
X27264Y2650D02*
D03*
Y2311D02*
D03*
X27264Y-366D02*
D03*
Y-28D02*
D03*
X28445Y-366D02*
D03*
Y-28D02*
D03*
X28051Y-366D02*
D03*
Y-28D02*
D03*
X27657Y-366D02*
D03*
Y-28D02*
D03*
X23524Y-366D02*
D03*
Y-28D02*
D03*
X23130Y-366D02*
D03*
Y-28D02*
D03*
X22736Y-366D02*
D03*
Y-28D02*
D03*
X23524Y2650D02*
D03*
Y2311D02*
D03*
X23130Y2650D02*
D03*
Y2311D02*
D03*
X22736Y2650D02*
D03*
Y2311D02*
D03*
X23917D02*
D03*
Y2650D02*
D03*
X18209Y-366D02*
D03*
Y-28D02*
D03*
X18012Y2650D02*
D03*
Y2311D02*
D03*
X18406Y2650D02*
D03*
Y2311D02*
D03*
X3150Y8184D02*
D03*
Y7845D02*
D03*
X2756D02*
D03*
Y8184D02*
D03*
X0Y8248D02*
D03*
Y7909D02*
D03*
X13386Y8240D02*
D03*
Y7902D02*
D03*
X11024Y1799D02*
D03*
Y2138D02*
D03*
X10630D02*
D03*
Y1799D02*
D03*
X11811Y2138D02*
D03*
Y1799D02*
D03*
X11417Y2138D02*
D03*
Y1799D02*
D03*
X4528Y5484D02*
D03*
Y5146D02*
D03*
X4134D02*
D03*
Y5484D02*
D03*
X4528Y2728D02*
D03*
Y2390D02*
D03*
X4134D02*
D03*
Y2728D02*
D03*
X4528Y13020D02*
D03*
Y13358D02*
D03*
X4134D02*
D03*
Y13020D02*
D03*
X4528Y10602D02*
D03*
Y10264D02*
D03*
X4134D02*
D03*
Y10602D02*
D03*
X29650Y8650D02*
D03*
Y8311D02*
D03*
X29134Y6053D02*
D03*
Y6392D02*
D03*
X30866Y6361D02*
D03*
Y6700D02*
D03*
X30492Y6361D02*
D03*
Y6700D02*
D03*
X30118D02*
D03*
Y6361D02*
D03*
X21467Y15528D02*
D03*
Y15189D02*
D03*
X21017Y15528D02*
D03*
Y15189D02*
D03*
X23055Y15528D02*
D03*
Y15189D02*
D03*
X22555Y15528D02*
D03*
Y15189D02*
D03*
X17323Y5313D02*
D03*
Y4974D02*
D03*
Y11691D02*
D03*
Y11352D02*
D03*
D21*
X27953Y1181D02*
D03*
X23228D02*
D03*
X18504D02*
D03*
D22*
X28730Y886D02*
D03*
X27175D02*
D03*
Y1476D02*
D03*
X28730D02*
D03*
X24006Y886D02*
D03*
X22451D02*
D03*
Y1476D02*
D03*
X24006D02*
D03*
X19282Y886D02*
D03*
X17726D02*
D03*
Y1476D02*
D03*
X19282D02*
D03*
X5866Y4331D02*
D03*
Y4134D02*
D03*
Y3937D02*
D03*
Y3740D02*
D03*
Y3543D02*
D03*
Y12205D02*
D03*
Y12008D02*
D03*
Y11811D02*
D03*
Y11614D02*
D03*
Y11417D02*
D03*
D23*
X28445Y502D02*
D03*
X28248D02*
D03*
X28051D02*
D03*
X27854D02*
D03*
X27657D02*
D03*
X27461D02*
D03*
Y1860D02*
D03*
X27657D02*
D03*
X27854D02*
D03*
X28051D02*
D03*
X28248D02*
D03*
X28445D02*
D03*
X23720Y502D02*
D03*
X23524D02*
D03*
X23327D02*
D03*
X23130D02*
D03*
X22933D02*
D03*
X22736D02*
D03*
Y1860D02*
D03*
X22933D02*
D03*
X23130D02*
D03*
X23327D02*
D03*
X23524D02*
D03*
X23720D02*
D03*
X18996Y502D02*
D03*
X18799D02*
D03*
X18602D02*
D03*
X18406D02*
D03*
X18209D02*
D03*
X18012D02*
D03*
Y1860D02*
D03*
X18209D02*
D03*
X18406D02*
D03*
X18602D02*
D03*
X18799D02*
D03*
X18996D02*
D03*
D24*
X5079Y8248D02*
D03*
Y7874D02*
D03*
Y7500D02*
D03*
X5945D02*
D03*
Y8248D02*
D03*
Y7874D02*
D03*
X1693Y8248D02*
D03*
Y7500D02*
D03*
X669D02*
D03*
Y7874D02*
D03*
Y8248D02*
D03*
X14488Y8248D02*
D03*
X13858D02*
D03*
Y7894D02*
D03*
X14488D02*
D03*
Y9626D02*
D03*
X13858D02*
D03*
Y9272D02*
D03*
X14488D02*
D03*
D25*
X2362Y8184D02*
D03*
Y7564D02*
D03*
X30118Y9370D02*
D03*
Y9990D02*
D03*
X30748Y9370D02*
D03*
Y9990D02*
D03*
D26*
X9449Y8681D02*
D03*
X11024D02*
D03*
X12598D02*
D03*
X30247Y5185D02*
D03*
X30924D02*
D03*
X14173Y12579D02*
D03*
X12598D02*
D03*
X11024D02*
D03*
X9449D02*
D03*
D27*
X9301Y9035D02*
D03*
X9596D02*
D03*
X10876D02*
D03*
X11171D02*
D03*
X12451D02*
D03*
X12746D02*
D03*
X30394Y4830D02*
D03*
X30099D02*
D03*
X31072D02*
D03*
X30777D02*
D03*
X14321Y12224D02*
D03*
X14026D02*
D03*
X12746D02*
D03*
X12451D02*
D03*
X11171D02*
D03*
X10876D02*
D03*
X9596D02*
D03*
X9301D02*
D03*
D28*
X12992Y1969D02*
D03*
D29*
X12638Y1811D02*
D03*
Y1969D02*
D03*
Y2126D02*
D03*
X13346D02*
D03*
Y1969D02*
D03*
Y1811D02*
D03*
D30*
X5217Y3543D02*
D03*
Y3740D02*
D03*
Y4134D02*
D03*
Y4331D02*
D03*
Y11417D02*
D03*
Y11614D02*
D03*
Y12008D02*
D03*
Y12205D02*
D03*
D31*
X5295Y3937D02*
D03*
Y11811D02*
D03*
D32*
X3937Y3470D02*
D03*
Y4404D02*
D03*
Y11344D02*
D03*
Y12278D02*
D03*
D33*
X394Y5118D02*
D03*
X2362D02*
D03*
X394Y2756D02*
D03*
X2362D02*
D03*
X394Y10630D02*
D03*
X2362D02*
D03*
X394Y12992D02*
D03*
X2362D02*
D03*
X19807Y15701D02*
D03*
Y14678D02*
D03*
D34*
X30118Y10467D02*
D03*
X29498D02*
D03*
X30748D02*
D03*
X31368D02*
D03*
D35*
X30118Y7278D02*
D03*
X30492D02*
D03*
X30866D02*
D03*
Y8144D02*
D03*
X30118D02*
D03*
X30492D02*
D03*
D36*
X20398Y15189D02*
D03*
D37*
X18268Y4266D02*
D03*
X18976D02*
D03*
X18268Y5683D02*
D03*
Y4974D02*
D03*
X18976Y3557D02*
D03*
X19685D02*
D03*
X18976Y4974D02*
D03*
X19685Y4266D02*
D03*
Y4974D02*
D03*
X18268Y7809D02*
D03*
Y6392D02*
D03*
Y7100D02*
D03*
X18976Y6392D02*
D03*
Y5683D02*
D03*
Y7809D02*
D03*
X19685Y6392D02*
D03*
X18976Y7100D02*
D03*
X20394Y4266D02*
D03*
Y3557D02*
D03*
X21102D02*
D03*
X21811D02*
D03*
X21102Y4266D02*
D03*
X22520Y3557D02*
D03*
X21811Y4266D02*
D03*
X19685Y7100D02*
D03*
X20394Y4974D02*
D03*
X19685Y5683D02*
D03*
X21102Y4974D02*
D03*
X22520Y4266D02*
D03*
X20394Y5683D02*
D03*
X22520Y4974D02*
D03*
X21811D02*
D03*
X18268Y9226D02*
D03*
Y8518D02*
D03*
Y10644D02*
D03*
Y9935D02*
D03*
X18976Y8518D02*
D03*
X19685Y7809D02*
D03*
X18976Y10644D02*
D03*
Y9226D02*
D03*
Y9935D02*
D03*
X18268Y11352D02*
D03*
X18976D02*
D03*
X18268Y12061D02*
D03*
Y12770D02*
D03*
X19685Y11352D02*
D03*
Y10644D02*
D03*
X18976Y13478D02*
D03*
Y12061D02*
D03*
Y12770D02*
D03*
X19685Y9226D02*
D03*
Y8518D02*
D03*
Y12770D02*
D03*
Y9935D02*
D03*
Y12061D02*
D03*
X20394D02*
D03*
Y11352D02*
D03*
X21102Y12061D02*
D03*
X22520D02*
D03*
X21811D02*
D03*
X19685Y13478D02*
D03*
X20394Y12770D02*
D03*
Y13478D02*
D03*
X21102Y12770D02*
D03*
X21811D02*
D03*
X21102Y13478D02*
D03*
X22520D02*
D03*
X21811D02*
D03*
X23228Y3557D02*
D03*
X23937D02*
D03*
X23228Y4266D02*
D03*
X23937D02*
D03*
X24646Y3557D02*
D03*
X25354D02*
D03*
X24646Y4266D02*
D03*
X26063Y3557D02*
D03*
X26772Y4266D02*
D03*
X23937Y4974D02*
D03*
X25354Y4266D02*
D03*
X23228Y4974D02*
D03*
X25354D02*
D03*
X24646D02*
D03*
X26063D02*
D03*
Y4266D02*
D03*
Y5683D02*
D03*
X26772Y4974D02*
D03*
Y7809D02*
D03*
Y3557D02*
D03*
X27480Y4266D02*
D03*
X26772Y6392D02*
D03*
X27480Y4974D02*
D03*
X26772Y5683D02*
D03*
X27480Y3557D02*
D03*
X28189Y4266D02*
D03*
X27480Y5683D02*
D03*
X28189Y4974D02*
D03*
Y5683D02*
D03*
X26772Y7100D02*
D03*
X27480Y6392D02*
D03*
Y8518D02*
D03*
Y7100D02*
D03*
Y7809D02*
D03*
X28189D02*
D03*
Y6392D02*
D03*
Y7100D02*
D03*
X23228Y12061D02*
D03*
X23937D02*
D03*
X23228Y12770D02*
D03*
X24646Y12061D02*
D03*
X26772Y9226D02*
D03*
Y8518D02*
D03*
X25354Y12061D02*
D03*
X26063Y11352D02*
D03*
Y12061D02*
D03*
X22520Y12770D02*
D03*
X23937D02*
D03*
X23228Y13478D02*
D03*
X24646Y12770D02*
D03*
X23937Y13478D02*
D03*
X25354Y12770D02*
D03*
X26063D02*
D03*
X24646Y13478D02*
D03*
X26063D02*
D03*
X25354D02*
D03*
X26772Y9935D02*
D03*
X27480Y9226D02*
D03*
X26772Y11352D02*
D03*
X27480Y9935D02*
D03*
X26772Y10644D02*
D03*
X28189Y9226D02*
D03*
Y8518D02*
D03*
X27480Y10644D02*
D03*
X28189Y9935D02*
D03*
Y10644D02*
D03*
X26772Y12061D02*
D03*
X27480Y11352D02*
D03*
X26772Y13478D02*
D03*
X27480Y12061D02*
D03*
X26772Y12770D02*
D03*
X28189Y12061D02*
D03*
Y11352D02*
D03*
X27480Y12770D02*
D03*
X28189D02*
D03*
X27480Y13478D02*
D03*
M02*
