G04*
G04 #@! TF.GenerationSoftware,Altium Limited,Altium Designer,20.0.13 (296)*
G04*
G04 Layer_Color=128*
%FSLAX24Y24*%
%MOIN*%
G70*
G01*
G75*
%ADD14C,0.0050*%
D14*
X7047Y2598D02*
X7126D01*
X7087Y2559D02*
Y2638D01*
X20374Y7701D02*
X20453D01*
X20413Y7661D02*
Y7740D01*
X10000Y6654D02*
X10079D01*
X10039Y6614D02*
Y6693D01*
X21386Y8051D02*
X21465D01*
X21425Y8012D02*
Y8091D01*
X15199Y11033D02*
X15278D01*
X15238Y10994D02*
Y11073D01*
X25551Y13624D02*
X25630D01*
X25591Y13585D02*
Y13663D01*
X14301Y11535D02*
X14380D01*
X14341Y11496D02*
Y11575D01*
X18622Y7618D02*
X18701D01*
X18661Y7579D02*
Y7657D01*
X16909Y5871D02*
X16988D01*
X16949Y5832D02*
Y5910D01*
X22520Y3917D02*
X22598D01*
X22559Y3878D02*
Y3957D01*
X19556Y1102D02*
X19635D01*
X19595Y1063D02*
Y1142D01*
X28701Y256D02*
X28780D01*
X28740Y217D02*
Y295D01*
X30827Y7968D02*
X30906D01*
X30866Y7929D02*
Y8007D01*
X17657Y6339D02*
X17736D01*
X17697Y6299D02*
Y6378D01*
X9803Y6890D02*
X9882D01*
X9843Y6850D02*
Y6929D01*
X6142Y9624D02*
X6220D01*
X6181Y9585D02*
Y9663D01*
X16703Y3839D02*
X16782D01*
X16742Y3799D02*
Y3878D01*
X16890Y1250D02*
X16968D01*
X16929Y1211D02*
Y1289D01*
X9902Y4522D02*
X9980D01*
X9941Y4483D02*
Y4562D01*
X9902Y4134D02*
X9980D01*
X9941Y4094D02*
Y4173D01*
X9902Y4921D02*
X9980D01*
X9941Y4882D02*
Y4961D01*
X9902Y5315D02*
X9980D01*
X9941Y5276D02*
Y5354D01*
X16654Y10502D02*
X16732D01*
X16693Y10463D02*
Y10541D01*
X9213Y5709D02*
X9291D01*
X9252Y5669D02*
Y5748D01*
X16654Y10246D02*
X16732D01*
X16693Y10207D02*
Y10285D01*
X6575Y7490D02*
X6654D01*
X6614Y7451D02*
Y7530D01*
X6260Y2124D02*
X6339D01*
X6299Y2085D02*
Y2163D01*
X25689Y4370D02*
X25768D01*
X25728Y4331D02*
Y4409D01*
X26732Y2283D02*
X26811D01*
X26772Y2244D02*
Y2323D01*
X26654Y1624D02*
X26732D01*
X26693Y1585D02*
Y1663D01*
X26654Y1124D02*
X26732D01*
X26693Y1085D02*
Y1163D01*
X12323Y4557D02*
X12402D01*
X12362Y4518D02*
Y4596D01*
X23287Y906D02*
X23366D01*
X23327Y866D02*
Y945D01*
X22741Y906D02*
X22819D01*
X22780Y866D02*
Y945D01*
X29488Y1124D02*
X29567D01*
X29528Y1085D02*
Y1163D01*
X26600Y689D02*
X26679D01*
X26639Y650D02*
Y728D01*
X27087Y5142D02*
X27165D01*
X27126Y5102D02*
Y5181D01*
X17618Y1196D02*
X17697D01*
X17657Y1157D02*
Y1236D01*
X29242Y295D02*
X29321D01*
X29281Y256D02*
Y335D01*
X28307Y6392D02*
X28386D01*
X28346Y6352D02*
Y6431D01*
X11841Y10264D02*
X11919D01*
X11880Y10225D02*
Y10304D01*
X14980Y4734D02*
X15059D01*
X15020Y4695D02*
Y4774D01*
X12717Y4852D02*
X12795D01*
X12756Y4813D02*
Y4892D01*
X13110Y4852D02*
X13189D01*
X13150Y4813D02*
Y4892D01*
X10549Y10256D02*
X10628D01*
X10589Y10217D02*
Y10296D01*
X17874Y6589D02*
X17953D01*
X17913Y6549D02*
Y6628D01*
X18051Y5246D02*
X18130D01*
X18091Y5207D02*
Y5285D01*
X16516Y4734D02*
X16594D01*
X16555Y4695D02*
Y4774D01*
X16102Y1250D02*
X16181D01*
X16142Y1211D02*
Y1289D01*
X17657Y4085D02*
X17736D01*
X17697Y4045D02*
Y4124D01*
X12715Y10256D02*
X12793D01*
X12754Y10217D02*
Y10296D01*
X11415Y10256D02*
X11494D01*
X11455Y10217D02*
Y10296D01*
X10982Y10256D02*
X11061D01*
X11022Y10217D02*
Y10296D01*
X16132Y12242D02*
X16211D01*
X16171Y12203D02*
Y12282D01*
X16132Y12746D02*
X16211D01*
X16171Y12707D02*
Y12785D01*
X16654Y9990D02*
X16732D01*
X16693Y9951D02*
Y10030D01*
X16654Y9734D02*
X16732D01*
X16693Y9695D02*
Y9774D01*
X21063Y3927D02*
X21142D01*
X21102Y3888D02*
Y3967D01*
X16319Y4085D02*
X16397D01*
X16358Y4045D02*
Y4124D01*
X14980Y4222D02*
X15059D01*
X15020Y4183D02*
Y4262D01*
X14980Y4990D02*
X15059D01*
X15020Y4951D02*
Y5030D01*
X7244Y2815D02*
X7323D01*
X7283Y2776D02*
Y2854D01*
X6575Y7124D02*
X6654D01*
X6614Y7085D02*
Y7163D01*
X6575Y6624D02*
X6654D01*
X6614Y6585D02*
Y6663D01*
X6575Y6124D02*
X6654D01*
X6614Y6085D02*
Y6163D01*
X6575Y5624D02*
X6654D01*
X6614Y5585D02*
Y5663D01*
X30600Y6989D02*
X30679D01*
X30640Y6950D02*
Y7028D01*
X29488Y1624D02*
X29567D01*
X29528Y1585D02*
Y1663D01*
X1732Y14624D02*
X1811D01*
X1772Y14585D02*
Y14663D01*
X31506Y7874D02*
X31585D01*
X31545Y7835D02*
Y7913D01*
X31211Y8268D02*
X31289D01*
X31250Y8228D02*
Y8307D01*
X26457Y14124D02*
X26535D01*
X26496Y14085D02*
Y14163D01*
X26457Y14624D02*
X26535D01*
X26496Y14585D02*
Y14663D01*
X4114Y9449D02*
X4193D01*
X4154Y9409D02*
Y9488D01*
X24823Y1062D02*
X24902D01*
X24862Y1023D02*
Y1102D01*
X16299Y6589D02*
X16378D01*
X16339Y6549D02*
Y6628D01*
X14616Y6014D02*
X14695D01*
X14656Y5974D02*
Y6053D01*
X10089Y4331D02*
X10167D01*
X10128Y4291D02*
Y4370D01*
X10098Y4724D02*
X10177D01*
X10137Y4685D02*
Y4764D01*
X10096Y5120D02*
X10175D01*
X10135Y5081D02*
Y5160D01*
X10098Y3937D02*
X10177D01*
X10137Y3898D02*
Y3976D01*
X13150Y590D02*
X13228D01*
X13189Y551D02*
Y630D01*
X12953Y1356D02*
X13032D01*
X12992Y1317D02*
Y1395D01*
X6063Y14624D02*
X6142D01*
X6102Y14585D02*
Y14663D01*
X15827Y906D02*
X15906D01*
X15866Y866D02*
Y945D01*
X23012Y906D02*
X23091D01*
X23051Y866D02*
Y945D01*
X18169Y906D02*
X18248D01*
X18209Y866D02*
Y945D01*
X26732Y2598D02*
X26811D01*
X26772Y2559D02*
Y2638D01*
X12717Y4557D02*
X12795D01*
X12756Y4518D02*
Y4596D01*
X28386Y14624D02*
X28465D01*
X28425Y14585D02*
Y14663D01*
X28386Y15124D02*
X28465D01*
X28425Y15085D02*
Y15163D01*
X5079Y1124D02*
X5157D01*
X5118Y1085D02*
Y1163D01*
X4764Y1624D02*
X4843D01*
X4803Y1585D02*
Y1663D01*
X6063Y15124D02*
X6142D01*
X6102Y15085D02*
Y15163D01*
X1732Y14124D02*
X1811D01*
X1772Y14085D02*
Y14163D01*
X1732Y1624D02*
X1811D01*
X1772Y1585D02*
Y1663D01*
X1732Y1124D02*
X1811D01*
X1772Y1085D02*
Y1163D01*
X1732Y624D02*
X1811D01*
X1772Y585D02*
Y663D01*
X18809Y1422D02*
X18888D01*
X18848Y1382D02*
Y1461D01*
X17874Y11014D02*
X17953D01*
X17913Y10974D02*
Y11053D01*
X16594Y11535D02*
X16673D01*
X16634Y11496D02*
Y11575D01*
X15595Y15407D02*
X15673D01*
X15634Y15368D02*
Y15447D01*
X14292Y3937D02*
X14370D01*
X14331Y3898D02*
Y3976D01*
X28524Y12124D02*
X28602D01*
X28563Y12085D02*
Y12163D01*
X28524Y10124D02*
X28602D01*
X28563Y10085D02*
Y10163D01*
X28524Y10624D02*
X28602D01*
X28563Y10585D02*
Y10663D01*
X28524Y11124D02*
X28602D01*
X28563Y11085D02*
Y11163D01*
X12520Y4311D02*
X12598D01*
X12559Y4272D02*
Y4350D01*
X29888Y13129D02*
X29967D01*
X29927Y13090D02*
Y13169D01*
X29888Y13629D02*
X29967D01*
X29927Y13590D02*
Y13669D01*
X29893Y11634D02*
X29972D01*
X29933Y11595D02*
Y11674D01*
X28524Y12624D02*
X28602D01*
X28563Y12585D02*
Y12663D01*
X26732Y3228D02*
X26811D01*
X26772Y3189D02*
Y3268D01*
X26732Y2913D02*
X26811D01*
X26772Y2874D02*
Y2953D01*
X13307Y4311D02*
X13386D01*
X13346Y4272D02*
Y4350D01*
X12913Y4311D02*
X12992D01*
X12953Y4272D02*
Y4350D01*
X13504Y4557D02*
X13583D01*
X13543Y4518D02*
Y4596D01*
X13110Y4557D02*
X13189D01*
X13150Y4518D02*
Y4596D01*
X8780Y2756D02*
X8858D01*
X8819Y2717D02*
Y2795D01*
X16712Y5246D02*
X16791D01*
X16752Y5207D02*
Y5285D01*
X18465Y1257D02*
X18543D01*
X18504Y1218D02*
Y1297D01*
X27087Y5502D02*
X27165D01*
X27126Y5463D02*
Y5541D01*
X27087Y5837D02*
X27165D01*
X27126Y5797D02*
Y5876D01*
X9902Y3740D02*
X9980D01*
X9941Y3701D02*
Y3780D01*
X25551Y12124D02*
X25630D01*
X25591Y12085D02*
Y12163D01*
X25551Y11124D02*
X25630D01*
X25591Y11085D02*
Y11163D01*
X19606Y10650D02*
X19685D01*
X19646Y10610D02*
Y10689D01*
X22894Y10380D02*
X22972D01*
X22933Y10341D02*
Y10419D01*
X19902Y10994D02*
X19980D01*
X19941Y10955D02*
Y11033D01*
X19902Y10364D02*
X19980D01*
X19941Y10325D02*
Y10404D01*
X12038Y9046D02*
X12117D01*
X12078Y9007D02*
Y9086D01*
X12570Y9046D02*
X12649D01*
X12609Y9007D02*
Y9086D01*
X10453Y9035D02*
X10532D01*
X10492Y8996D02*
Y9075D01*
X25551Y11624D02*
X25630D01*
X25591Y11585D02*
Y11663D01*
M02*
