G04*
G04 #@! TF.GenerationSoftware,Altium Limited,Altium Designer,20.0.13 (296)*
G04*
G04 Layer_Color=128*
%FSLAX24Y24*%
%MOIN*%
G70*
G01*
G75*
%ADD14C,0.0050*%
D14*
X21012Y8051D02*
X21091D01*
X21051Y8012D02*
Y8091D01*
X13543Y5985D02*
X13622D01*
X13583Y5945D02*
Y6024D01*
X15532Y7585D02*
X15610D01*
X15571Y7545D02*
Y7624D01*
X16555Y-276D02*
X16634D01*
X16594Y-315D02*
Y-236D01*
X16890Y746D02*
X16968D01*
X16929Y706D02*
Y785D01*
X15374Y4990D02*
X15453D01*
X15413Y4951D02*
Y5030D01*
X15374Y4734D02*
X15453D01*
X15413Y4695D02*
Y4774D01*
X15374Y4222D02*
X15453D01*
X15413Y4183D02*
Y4262D01*
X15748Y6343D02*
X15827D01*
X15787Y6303D02*
Y6382D01*
X10549Y10650D02*
X10628D01*
X10589Y10611D02*
Y10689D01*
X11841Y10658D02*
X11919D01*
X11880Y10618D02*
Y10697D01*
X12715Y10650D02*
X12793D01*
X12754Y10611D02*
Y10689D01*
X11415Y10650D02*
X11494D01*
X11455Y10611D02*
Y10689D01*
X10982Y10650D02*
X11061D01*
X11022Y10611D02*
Y10689D01*
X16378Y12242D02*
X16457D01*
X16417Y12203D02*
Y12282D01*
X16378Y12746D02*
X16457D01*
X16417Y12707D02*
Y12785D01*
X22008Y217D02*
X22087D01*
X22047Y177D02*
Y256D01*
X22323Y965D02*
X22402D01*
X22362Y925D02*
Y1004D01*
X22520Y1161D02*
X22598D01*
X22559Y1122D02*
Y1201D01*
X21024Y2421D02*
X21102D01*
X21063Y2382D02*
Y2461D01*
X17657Y4478D02*
X17736D01*
X17697Y4439D02*
Y4518D01*
X17657Y4990D02*
X17736D01*
X17697Y4951D02*
Y5030D01*
X17657Y5246D02*
X17736D01*
X17697Y5207D02*
Y5285D01*
X17657Y6014D02*
X17736D01*
X17697Y5974D02*
Y6053D01*
X17657Y5758D02*
X17736D01*
X17697Y5719D02*
Y5797D01*
X18248Y7618D02*
X18327D01*
X18287Y7579D02*
Y7657D01*
X14038Y1969D02*
X14117D01*
X14077Y1929D02*
Y2008D01*
X13819Y2362D02*
X13898D01*
X13859Y2323D02*
Y2402D01*
X14038Y1575D02*
X14117D01*
X14077Y1535D02*
Y1614D01*
X13819Y2756D02*
X13898D01*
X13859Y2717D02*
Y2795D01*
X15595Y15880D02*
X15673D01*
X15634Y15841D02*
Y15919D01*
X18406Y11014D02*
X18484D01*
X18445Y10974D02*
Y11053D01*
X16122Y11535D02*
X16201D01*
X16161Y11496D02*
Y11575D01*
X16693Y6589D02*
X16772D01*
X16732Y6549D02*
Y6628D01*
X16496Y8711D02*
X16575D01*
X16535Y8671D02*
Y8750D01*
X18803Y8472D02*
X18882D01*
X18843Y8433D02*
Y8512D01*
X18248Y6589D02*
X18327D01*
X18287Y6549D02*
Y6628D01*
X15010Y6014D02*
X15089D01*
X15049Y5974D02*
Y6053D01*
X15059Y1467D02*
X15138D01*
X15098Y1427D02*
Y1506D01*
X18465Y1775D02*
X18543D01*
X18504Y1735D02*
Y1814D01*
X21063Y3455D02*
X21142D01*
X21102Y3415D02*
Y3494D01*
X21998Y9114D02*
X22077D01*
X22037Y9075D02*
Y9154D01*
X21998Y8406D02*
X22077D01*
X22037Y8366D02*
Y8445D01*
X21998Y7697D02*
X22077D01*
X22037Y7657D02*
Y7736D01*
X19921Y7701D02*
X20000D01*
X19961Y7661D02*
Y7740D01*
X19921Y8075D02*
X20000D01*
X19961Y8035D02*
Y8114D01*
X9409Y2953D02*
X9488D01*
X9449Y2913D02*
Y2992D01*
X9016Y1102D02*
X9094D01*
X9055Y1063D02*
Y1141D01*
X16122Y5502D02*
X16201D01*
X16161Y5463D02*
Y5541D01*
X14016Y2559D02*
X14094D01*
X14055Y2520D02*
Y2598D01*
X18465Y746D02*
X18543D01*
X18504Y706D02*
Y785D01*
X18252Y8098D02*
X18331D01*
X18291Y8059D02*
Y8138D01*
X18252Y8846D02*
X18331D01*
X18291Y8807D02*
Y8886D01*
X18406Y9990D02*
X18484D01*
X18445Y9951D02*
Y10030D01*
X18406Y10246D02*
X18484D01*
X18445Y10207D02*
Y10285D01*
X18406Y10502D02*
X18484D01*
X18445Y10463D02*
Y10541D01*
X18406Y10758D02*
X18484D01*
X18445Y10719D02*
Y10797D01*
X21012Y7343D02*
X21091D01*
X21051Y7303D02*
Y7382D01*
X21012Y7697D02*
X21091D01*
X21051Y7657D02*
Y7736D01*
X17677Y746D02*
X17756D01*
X17717Y706D02*
Y785D01*
X16102Y746D02*
X16181D01*
X16142Y706D02*
Y785D01*
X15315Y746D02*
X15394D01*
X15354Y706D02*
Y785D01*
X22520Y2106D02*
X22598D01*
X22559Y2067D02*
Y2146D01*
X26004Y11124D02*
X26083D01*
X26043Y11085D02*
Y11163D01*
X26004Y11624D02*
X26083D01*
X26043Y11585D02*
Y11663D01*
X26004Y12124D02*
X26083D01*
X26043Y12085D02*
Y12163D01*
X16909Y4734D02*
X16988D01*
X16949Y4695D02*
Y4774D01*
X5413Y8124D02*
X5492D01*
X5453Y8085D02*
Y8163D01*
X12559Y6181D02*
X12638D01*
X12598Y6142D02*
Y6220D01*
X5413Y8624D02*
X5492D01*
X5453Y8585D02*
Y8663D01*
X7520Y1772D02*
X7598D01*
X7559Y1732D02*
Y1811D01*
X6850Y1378D02*
X6929D01*
X6890Y1339D02*
Y1417D01*
X6654Y1575D02*
X6732D01*
X6693Y1535D02*
Y1614D01*
X5413Y1124D02*
X5492D01*
X5453Y1085D02*
Y1163D01*
X5413Y2624D02*
X5492D01*
X5452Y2584D02*
Y2663D01*
X5413Y2124D02*
X5492D01*
X5453Y2085D02*
Y2163D01*
X5413Y7124D02*
X5492D01*
X5453Y7085D02*
Y7163D01*
X5413Y7624D02*
X5492D01*
X5453Y7585D02*
Y7663D01*
X5413Y1624D02*
X5492D01*
X5453Y1585D02*
Y1663D01*
X7047Y2362D02*
X7126D01*
X7087Y2323D02*
Y2402D01*
X7244Y2165D02*
X7323D01*
X7283Y2126D02*
Y2205D01*
X2382Y13124D02*
X2461D01*
X2421Y13085D02*
Y13163D01*
X29035Y13624D02*
X29114D01*
X29075Y13585D02*
Y13663D01*
X29035Y14624D02*
X29114D01*
X29075Y14585D02*
Y14663D01*
X12953Y6181D02*
X13032D01*
X12992Y6142D02*
Y6220D01*
X12756Y5985D02*
X12835D01*
X12795Y5945D02*
Y6024D01*
X13819Y5512D02*
X13898D01*
X13859Y5472D02*
Y5551D01*
X13150Y5985D02*
X13228D01*
X13189Y5945D02*
Y6024D01*
X12362Y5985D02*
X12441D01*
X12402Y5945D02*
Y6024D01*
X16909Y5502D02*
X16988D01*
X16949Y5463D02*
Y5541D01*
X16122Y9734D02*
X16201D01*
X16161Y9695D02*
Y9774D01*
X16122Y9990D02*
X16201D01*
X16161Y9951D02*
Y10030D01*
X16122Y10246D02*
X16201D01*
X16161Y10207D02*
Y10285D01*
X16122Y10502D02*
X16201D01*
X16161Y10463D02*
Y10541D01*
X16122Y11014D02*
X16201D01*
X16161Y10974D02*
Y11053D01*
X16122Y11270D02*
X16201D01*
X16161Y11230D02*
Y11309D01*
X16319Y4478D02*
X16397D01*
X16358Y4439D02*
Y4518D01*
X16319Y5246D02*
X16397D01*
X16358Y5207D02*
Y5285D01*
X20118Y4301D02*
X20197D01*
X20157Y4262D02*
Y4341D01*
X17657Y2746D02*
X17736D01*
X17697Y2707D02*
Y2785D01*
X17657Y3002D02*
X17736D01*
X17697Y2963D02*
Y3041D01*
X17657Y3258D02*
X17736D01*
X17697Y3219D02*
Y3297D01*
X20118Y3051D02*
X20196D01*
X20157Y3012D02*
Y3091D01*
X17657Y2490D02*
X17736D01*
X17697Y2451D02*
Y2530D01*
X16122Y2490D02*
X16201D01*
X16161Y2451D02*
Y2530D01*
X16122Y2746D02*
X16201D01*
X16161Y2707D02*
Y2785D01*
X16122Y3002D02*
X16201D01*
X16161Y2963D02*
Y3041D01*
X16122Y3514D02*
X16201D01*
X16161Y3474D02*
Y3553D01*
X16122Y3258D02*
X16201D01*
X16161Y3219D02*
Y3297D01*
X26004Y9624D02*
X26083D01*
X26043Y9585D02*
Y9663D01*
X26004Y10124D02*
X26083D01*
X26043Y10085D02*
Y10163D01*
X22539Y10380D02*
X22618D01*
X22579Y10341D02*
Y10419D01*
X19902Y10148D02*
X19980D01*
X19941Y10108D02*
Y10187D01*
X19902Y10650D02*
X19980D01*
X19941Y10610D02*
Y10689D01*
X19902Y11380D02*
X19980D01*
X19941Y11341D02*
Y11419D01*
X21198Y11863D02*
X21277D01*
X21238Y11823D02*
Y11902D01*
X19618Y11868D02*
X19697D01*
X19657Y11829D02*
Y11907D01*
X22773Y11892D02*
X22852D01*
X22812Y11853D02*
Y11932D01*
X19921Y1161D02*
X20000D01*
X19961Y1122D02*
Y1201D01*
X26004Y7624D02*
X26083D01*
X26043Y7585D02*
Y7663D01*
X20118Y3366D02*
X20196D01*
X20157Y3327D02*
Y3406D01*
X20118Y2736D02*
X20196D01*
X20157Y2697D02*
Y2776D01*
X22520Y1791D02*
X22598D01*
X22559Y1752D02*
Y1831D01*
X22520Y1476D02*
X22598D01*
X22559Y1437D02*
Y1516D01*
X26004Y6624D02*
X26083D01*
X26043Y6585D02*
Y6663D01*
X26004Y624D02*
X26083D01*
X26043Y585D02*
Y663D01*
X26004Y1124D02*
X26083D01*
X26043Y1085D02*
Y1163D01*
X26004Y1624D02*
X26083D01*
X26043Y1585D02*
Y1663D01*
X20433Y965D02*
X20512D01*
X20472Y925D02*
Y1004D01*
X20118Y965D02*
X20197D01*
X20157Y925D02*
Y1004D01*
X22520Y2421D02*
X22598D01*
X22559Y2382D02*
Y2461D01*
X26004Y7124D02*
X26083D01*
X26043Y7085D02*
Y7163D01*
X29035Y7624D02*
X29114D01*
X29075Y7585D02*
Y7663D01*
X29035Y7124D02*
X29114D01*
X29075Y7085D02*
Y7163D01*
X8740Y4522D02*
X8819D01*
X8780Y4483D02*
Y4562D01*
X2382Y7124D02*
X2461D01*
X2421Y7085D02*
Y7163D01*
X2382Y7624D02*
X2460D01*
X2421Y7584D02*
Y7663D01*
X8740Y4921D02*
X8819D01*
X8780Y4882D02*
Y4961D01*
X9213Y6181D02*
X9291D01*
X9252Y6142D02*
Y6220D01*
X10787Y906D02*
X10866D01*
X10827Y866D02*
Y945D01*
X10591Y1102D02*
X10669D01*
X10630Y1063D02*
Y1141D01*
X10399Y906D02*
X10478D01*
X10438Y866D02*
Y945D01*
X10197Y1102D02*
X10276D01*
X10236Y1063D02*
Y1141D01*
X10000Y906D02*
X10079D01*
X10039Y866D02*
Y945D01*
X9803Y1102D02*
X9882D01*
X9843Y1063D02*
Y1141D01*
X9606Y906D02*
X9685D01*
X9646Y866D02*
Y945D01*
X2382Y9124D02*
X2461D01*
X2421Y9085D02*
Y9163D01*
X2382Y9624D02*
X2461D01*
X2421Y9585D02*
Y9663D01*
X2382Y10124D02*
X2461D01*
X2421Y10085D02*
Y10163D01*
X2382Y10624D02*
X2461D01*
X2421Y10585D02*
Y10663D01*
X2382Y11124D02*
X2461D01*
X2421Y11085D02*
Y11163D01*
X2382Y11624D02*
X2461D01*
X2421Y11585D02*
Y11663D01*
X2382Y12124D02*
X2461D01*
X2421Y12085D02*
Y12163D01*
X2382Y12624D02*
X2461D01*
X2421Y12585D02*
Y12663D01*
X12559Y1102D02*
X12638D01*
X12598Y1063D02*
Y1141D01*
X12362Y906D02*
X12441D01*
X12402Y866D02*
Y945D01*
X12165Y1102D02*
X12244D01*
X12205Y1063D02*
Y1141D01*
X11974Y906D02*
X12052D01*
X12013Y866D02*
Y945D01*
X11772Y1102D02*
X11850D01*
X11811Y1063D02*
Y1141D01*
X26004Y6124D02*
X26083D01*
X26043Y6085D02*
Y6163D01*
X26004Y5624D02*
X26083D01*
X26043Y5585D02*
Y5663D01*
X26004Y4124D02*
X26083D01*
X26043Y4085D02*
Y4163D01*
X26004Y4624D02*
X26083D01*
X26043Y4585D02*
Y4663D01*
X26004Y5124D02*
X26083D01*
X26043Y5085D02*
Y5163D01*
X29035Y2124D02*
X29114D01*
X29075Y2085D02*
Y2163D01*
X29055Y2624D02*
X29134D01*
X29094Y2585D02*
Y2663D01*
X29035Y3124D02*
X29114D01*
X29075Y3085D02*
Y3163D01*
X29035Y3624D02*
X29114D01*
X29075Y3585D02*
Y3663D01*
X29035Y4124D02*
X29114D01*
X29075Y4085D02*
Y4163D01*
X29035Y4624D02*
X29114D01*
X29075Y4585D02*
Y4663D01*
X29035Y5124D02*
X29114D01*
X29075Y5085D02*
Y5163D01*
X29035Y5624D02*
X29114D01*
X29075Y5585D02*
Y5663D01*
X10000Y5985D02*
X10079D01*
X10039Y5945D02*
Y6024D01*
X13819Y3937D02*
X13898D01*
X13859Y3898D02*
Y3976D01*
X9803Y6181D02*
X9882D01*
X9843Y6142D02*
Y6220D01*
X13346Y6181D02*
X13425D01*
X13386Y6142D02*
Y6220D01*
X13819Y1378D02*
X13898D01*
X13859Y1339D02*
Y1417D01*
X14038Y1181D02*
X14117D01*
X14077Y1142D02*
Y1220D01*
X13819Y1772D02*
X13898D01*
X13859Y1732D02*
Y1811D01*
X13819Y3150D02*
X13898D01*
X13859Y3110D02*
Y3189D01*
X13819Y3543D02*
X13898D01*
X13859Y3504D02*
Y3583D01*
X14016Y2958D02*
X14094D01*
X14055Y2918D02*
Y2997D01*
X14016Y3346D02*
X14094D01*
X14055Y3307D02*
Y3386D01*
X8934Y3546D02*
X9013D01*
X8973Y3506D02*
Y3585D01*
X8738Y3738D02*
X8816D01*
X8777Y3698D02*
Y3777D01*
X8738Y3349D02*
X8816D01*
X8777Y3310D02*
Y3388D01*
X8740Y4134D02*
X8819D01*
X8780Y4094D02*
Y4173D01*
X8740Y5315D02*
X8819D01*
X8780Y5276D02*
Y5354D01*
X8937Y3937D02*
X9015D01*
X8976Y3898D02*
Y3976D01*
X8937Y4331D02*
X9015D01*
X8976Y4291D02*
Y4370D01*
X8937Y4724D02*
X9015D01*
X8976Y4685D02*
Y4764D01*
X8937Y5118D02*
X9015D01*
X8976Y5079D02*
Y5157D01*
X8740Y1963D02*
X8819D01*
X8780Y1924D02*
Y2003D01*
X9094Y2756D02*
X9173D01*
X9134Y2717D02*
Y2795D01*
X8937Y2559D02*
X9016D01*
X8976Y2520D02*
Y2598D01*
X11181Y906D02*
X11260D01*
X11220Y866D02*
Y945D01*
X11378Y1102D02*
X11457D01*
X11417Y1063D02*
Y1141D01*
X11575Y906D02*
X11654D01*
X11614Y866D02*
Y945D01*
X10984Y1102D02*
X11063D01*
X11024Y1063D02*
Y1141D01*
X14016Y5315D02*
X14094D01*
X14055Y5276D02*
Y5354D01*
X14016Y4926D02*
X14094D01*
X14055Y4887D02*
Y4966D01*
X14016Y4134D02*
X14094D01*
X14055Y4094D02*
Y4173D01*
X13819Y5118D02*
X13898D01*
X13859Y5079D02*
Y5157D01*
X13819Y4724D02*
X13898D01*
X13859Y4685D02*
Y4764D01*
X13819Y4331D02*
X13898D01*
X13859Y4291D02*
Y4370D01*
X14016Y4528D02*
X14094D01*
X14055Y4488D02*
Y4567D01*
X11772Y6181D02*
X11850D01*
X11811Y6142D02*
Y6220D01*
X11968Y5985D02*
X12047D01*
X12008Y5945D02*
Y6024D01*
X11575Y5985D02*
X11654D01*
X11614Y5945D02*
Y6024D01*
X11181Y5985D02*
X11260D01*
X11220Y5945D02*
Y6024D01*
X10787Y5985D02*
X10866D01*
X10827Y5945D02*
Y6024D01*
X2382Y624D02*
X2461D01*
X2421Y585D02*
Y663D01*
X2382Y1124D02*
X2461D01*
X2421Y1085D02*
Y1163D01*
X2382Y1624D02*
X2461D01*
X2421Y1585D02*
Y1663D01*
X5413Y3124D02*
X5492D01*
X5453Y3085D02*
Y3163D01*
X5413Y3624D02*
X5492D01*
X5453Y3585D02*
Y3663D01*
X5413Y4124D02*
X5492D01*
X5453Y4085D02*
Y4163D01*
X5413Y4624D02*
X5492D01*
X5453Y4585D02*
Y4663D01*
X5413Y5124D02*
X5492D01*
X5453Y5085D02*
Y5163D01*
X5413Y5624D02*
X5492D01*
X5453Y5585D02*
Y5663D01*
X5413Y11624D02*
X5492D01*
X5453Y11585D02*
Y11663D01*
X5413Y12124D02*
X5492D01*
X5453Y12085D02*
Y12163D01*
X5413Y12624D02*
X5492D01*
X5453Y12585D02*
Y12663D01*
X5413Y13124D02*
X5492D01*
X5453Y13085D02*
Y13163D01*
X2382Y2624D02*
X2461D01*
X2421Y2585D02*
Y2663D01*
X2382Y5124D02*
X2461D01*
X2421Y5085D02*
Y5163D01*
X26004Y3124D02*
X26083D01*
X26043Y3085D02*
Y3163D01*
X26004Y3624D02*
X26083D01*
X26043Y3585D02*
Y3663D01*
X26004Y13624D02*
X26083D01*
X26043Y13585D02*
Y13663D01*
X26004Y12624D02*
X26083D01*
X26043Y12585D02*
Y12663D01*
X29035Y6124D02*
X29114D01*
X29075Y6085D02*
Y6163D01*
X12165Y6181D02*
X12244D01*
X12205Y6142D02*
Y6220D01*
X11373Y6181D02*
X11452D01*
X11412Y6142D02*
Y6220D01*
X10984Y6181D02*
X11063D01*
X11024Y6142D02*
Y6220D01*
X13740Y883D02*
X13819D01*
X13780Y844D02*
Y923D01*
X13346Y883D02*
X13425D01*
X13386Y844D02*
Y923D01*
X13543Y1102D02*
X13622D01*
X13583Y1063D02*
Y1141D01*
X5413Y11124D02*
X5492D01*
X5453Y11085D02*
Y11163D01*
X5425Y10636D02*
X5504D01*
X5465Y10597D02*
Y10675D01*
X2382Y3124D02*
X2461D01*
X2421Y3085D02*
Y3163D01*
X13150Y1102D02*
X13228D01*
X13189Y1063D02*
Y1141D01*
X12953Y883D02*
X13032D01*
X12992Y844D02*
Y923D01*
X5413Y6124D02*
X5492D01*
X5453Y6085D02*
Y6163D01*
X5413Y6624D02*
X5492D01*
X5453Y6585D02*
Y6663D01*
X5413Y9124D02*
X5492D01*
X5453Y9085D02*
Y9163D01*
X5413Y9624D02*
X5492D01*
X5453Y9585D02*
Y9663D01*
X5413Y10124D02*
X5492D01*
X5453Y10085D02*
Y10163D01*
X5413Y13624D02*
X5492D01*
X5453Y13585D02*
Y13663D01*
X5413Y14624D02*
X5492D01*
X5453Y14585D02*
Y14663D01*
X5413Y15124D02*
X5492D01*
X5453Y15085D02*
Y15163D01*
X2382Y14624D02*
X2461D01*
X2421Y14585D02*
Y14663D01*
X2382Y14124D02*
X2461D01*
X2421Y14085D02*
Y14163D01*
X2382Y13624D02*
X2461D01*
X2421Y13585D02*
Y13663D01*
X2382Y8624D02*
X2461D01*
X2421Y8585D02*
Y8663D01*
X2382Y8124D02*
X2461D01*
X2421Y8085D02*
Y8163D01*
X2382Y6624D02*
X2461D01*
X2421Y6585D02*
Y6663D01*
X2382Y6124D02*
X2461D01*
X2421Y6085D02*
Y6163D01*
X2382Y5624D02*
X2461D01*
X2421Y5585D02*
Y5663D01*
X2382Y4624D02*
X2461D01*
X2421Y4585D02*
Y4663D01*
X2382Y4124D02*
X2461D01*
X2421Y4085D02*
Y4163D01*
X2382Y3624D02*
X2461D01*
X2421Y3585D02*
Y3663D01*
X26004Y2624D02*
X26083D01*
X26043Y2585D02*
Y2663D01*
X26004Y8124D02*
X26083D01*
X26043Y8085D02*
Y8163D01*
X26004Y8624D02*
X26083D01*
X26043Y8585D02*
Y8663D01*
X26004Y9124D02*
X26083D01*
X26043Y9085D02*
Y9163D01*
X26004Y10624D02*
X26083D01*
X26043Y10585D02*
Y10663D01*
X26004Y13124D02*
X26083D01*
X26043Y13085D02*
Y13163D01*
X26004Y14124D02*
X26083D01*
X26043Y14085D02*
Y14163D01*
X26004Y14624D02*
X26083D01*
X26043Y14585D02*
Y14663D01*
X29035Y15124D02*
X29114D01*
X29075Y15085D02*
Y15163D01*
X29035Y1124D02*
X29114D01*
X29075Y1085D02*
Y1163D01*
X29035Y1624D02*
X29114D01*
X29075Y1585D02*
Y1663D01*
X29035Y6624D02*
X29114D01*
X29075Y6585D02*
Y6663D01*
X29035Y8124D02*
X29114D01*
X29075Y8085D02*
Y8163D01*
X29035Y8624D02*
X29114D01*
X29075Y8585D02*
Y8663D01*
X29035Y9124D02*
X29114D01*
X29075Y9085D02*
Y9163D01*
X29035Y9624D02*
X29114D01*
X29075Y9585D02*
Y9663D01*
X29035Y10124D02*
X29114D01*
X29075Y10085D02*
Y10163D01*
X29035Y10624D02*
X29114D01*
X29075Y10585D02*
Y10663D01*
X29035Y11124D02*
X29114D01*
X29075Y11085D02*
Y11163D01*
X29035Y11624D02*
X29114D01*
X29075Y11585D02*
Y11663D01*
X29035Y12124D02*
X29114D01*
X29075Y12085D02*
Y12163D01*
X29035Y12624D02*
X29114D01*
X29075Y12585D02*
Y12663D01*
X29035Y13124D02*
X29114D01*
X29075Y13085D02*
Y13163D01*
M02*
