G04*
G04 #@! TF.GenerationSoftware,Altium Limited,Altium Designer,20.0.13 (296)*
G04*
G04 Layer_Color=128*
%FSLAX24Y24*%
%MOIN*%
G70*
G01*
G75*
%ADD14C,0.0050*%
D14*
X16424Y-787D02*
X16621D01*
X16523Y-886D02*
Y-689D01*
X16818Y-787D02*
X17015D01*
X16917Y-886D02*
Y-689D01*
X17212Y-787D02*
X17409D01*
X17310Y-886D02*
Y-689D01*
X17606Y-787D02*
X17802D01*
X17704Y-886D02*
Y-689D01*
X17999Y-787D02*
X18196D01*
X18098Y-886D02*
Y-689D01*
X26267Y-787D02*
X26464D01*
X26365Y-886D02*
Y-689D01*
X26661Y-787D02*
X26857D01*
X26759Y-886D02*
Y-689D01*
X27054Y-787D02*
X27251D01*
X27153Y-886D02*
Y-689D01*
X27448Y-787D02*
X27645D01*
X27546Y-886D02*
Y-689D01*
X27842Y-787D02*
X28039D01*
X27940Y-886D02*
Y-689D01*
X28235Y-787D02*
X28432D01*
X28334Y-886D02*
Y-689D01*
X28629Y-787D02*
X28826D01*
X28728Y-886D02*
Y-689D01*
X29023Y-787D02*
X29220D01*
X29121Y-886D02*
Y-689D01*
X29417Y-787D02*
X29613D01*
X29515Y-886D02*
Y-689D01*
X29810Y-787D02*
X30007D01*
X29909Y-886D02*
Y-689D01*
X30204Y-787D02*
X30401D01*
X30302Y-886D02*
Y-689D01*
X30598Y-787D02*
X30794D01*
X30696Y-886D02*
Y-689D01*
X25873Y-787D02*
X26070D01*
X25972Y-886D02*
Y-689D01*
X25480Y-787D02*
X25676D01*
X25578Y-886D02*
Y-689D01*
X25086Y-787D02*
X25283D01*
X25184Y-886D02*
Y-689D01*
X24692Y-787D02*
X24889D01*
X24791Y-886D02*
Y-689D01*
X24298Y-787D02*
X24495D01*
X24397Y-886D02*
Y-689D01*
X23905Y-787D02*
X24102D01*
X24003Y-886D02*
Y-689D01*
X23511Y-787D02*
X23708D01*
X23609Y-886D02*
Y-689D01*
X23117Y-787D02*
X23314D01*
X23216Y-886D02*
Y-689D01*
X22724Y-787D02*
X22920D01*
X22822Y-886D02*
Y-689D01*
X22330Y-787D02*
X22527D01*
X22428Y-886D02*
Y-689D01*
X21936Y-787D02*
X22133D01*
X22035Y-886D02*
Y-689D01*
X21543Y-787D02*
X21739D01*
X21641Y-886D02*
Y-689D01*
X21149Y-787D02*
X21346D01*
X21247Y-886D02*
Y-689D01*
X20755Y-787D02*
X20952D01*
X20854Y-886D02*
Y-689D01*
X20361Y-787D02*
X20558D01*
X20460Y-886D02*
Y-689D01*
X19968Y-787D02*
X20165D01*
X20066Y-886D02*
Y-689D01*
X19574Y-787D02*
X19771D01*
X19672Y-886D02*
Y-689D01*
X19180Y-787D02*
X19377D01*
X19279Y-886D02*
Y-689D01*
X18787Y-787D02*
X18983D01*
X18885Y-886D02*
Y-689D01*
X18393Y-787D02*
X18590D01*
X18491Y-886D02*
Y-689D01*
X2251Y-787D02*
X2448D01*
X2350Y-886D02*
Y-689D01*
X2645Y-787D02*
X2842D01*
X2743Y-886D02*
Y-689D01*
X3039Y-787D02*
X3235D01*
X3137Y-886D02*
Y-689D01*
X3432Y-787D02*
X3629D01*
X3531Y-886D02*
Y-689D01*
X3826Y-787D02*
X4023D01*
X3924Y-886D02*
Y-689D01*
X12094Y-787D02*
X12291D01*
X12192Y-886D02*
Y-689D01*
X12487Y-787D02*
X12684D01*
X12586Y-886D02*
Y-689D01*
X12881Y-787D02*
X13078D01*
X12980Y-886D02*
Y-689D01*
X13275Y-787D02*
X13472D01*
X13373Y-886D02*
Y-689D01*
X13669Y-787D02*
X13865D01*
X13767Y-886D02*
Y-689D01*
X14062Y-787D02*
X14259D01*
X14161Y-886D02*
Y-689D01*
X14456Y-787D02*
X14653D01*
X14554Y-886D02*
Y-689D01*
X14850Y-787D02*
X15046D01*
X14948Y-886D02*
Y-689D01*
X15243Y-787D02*
X15440D01*
X15342Y-886D02*
Y-689D01*
X15637Y-787D02*
X15834D01*
X15735Y-886D02*
Y-689D01*
X16031Y-787D02*
X16228D01*
X16129Y-886D02*
Y-689D01*
X11700Y-787D02*
X11897D01*
X11798Y-886D02*
Y-689D01*
X11306Y-787D02*
X11503D01*
X11405Y-886D02*
Y-689D01*
X10913Y-787D02*
X11109D01*
X11011Y-886D02*
Y-689D01*
X10519Y-787D02*
X10716D01*
X10617Y-886D02*
Y-689D01*
X10125Y-787D02*
X10322D01*
X10224Y-886D02*
Y-689D01*
X9731Y-787D02*
X9928D01*
X9830Y-886D02*
Y-689D01*
X9338Y-787D02*
X9535D01*
X9436Y-886D02*
Y-689D01*
X8944Y-787D02*
X9141D01*
X9043Y-886D02*
Y-689D01*
X8550Y-787D02*
X8747D01*
X8649Y-886D02*
Y-689D01*
X8157Y-787D02*
X8354D01*
X8255Y-886D02*
Y-689D01*
X7763Y-787D02*
X7960D01*
X7861Y-886D02*
Y-689D01*
X7369Y-787D02*
X7566D01*
X7468Y-886D02*
Y-689D01*
X6976Y-787D02*
X7172D01*
X7074Y-886D02*
Y-689D01*
X6582Y-787D02*
X6779D01*
X6680Y-886D02*
Y-689D01*
X6188Y-787D02*
X6385D01*
X6287Y-886D02*
Y-689D01*
X5794Y-787D02*
X5991D01*
X5893Y-886D02*
Y-689D01*
X5401Y-787D02*
X5598D01*
X5499Y-886D02*
Y-689D01*
X5007Y-787D02*
X5204D01*
X5106Y-886D02*
Y-689D01*
X4613Y-787D02*
X4810D01*
X4712Y-886D02*
Y-689D01*
X4220Y-787D02*
X4417D01*
X4318Y-886D02*
Y-689D01*
X1070Y-787D02*
X1267D01*
X1169Y-886D02*
Y-689D01*
X1464Y-787D02*
X1661D01*
X1562Y-886D02*
Y-689D01*
X1857Y-787D02*
X2054D01*
X1956Y-886D02*
Y-689D01*
X676Y-787D02*
X873D01*
X775Y-886D02*
Y-689D01*
X30623Y16535D02*
X30820D01*
X30721Y16437D02*
Y16634D01*
X29442Y16535D02*
X29639D01*
X29540Y16437D02*
Y16634D01*
X29835Y16535D02*
X30032D01*
X29934Y16437D02*
Y16634D01*
X30229Y16535D02*
X30426D01*
X30328Y16437D02*
Y16634D01*
X27080Y16535D02*
X27276D01*
X27178Y16437D02*
Y16634D01*
X26686Y16535D02*
X26883D01*
X26784Y16437D02*
Y16634D01*
X26292Y16535D02*
X26489D01*
X26391Y16437D02*
Y16634D01*
X25898Y16535D02*
X26095D01*
X25997Y16437D02*
Y16634D01*
X25505Y16535D02*
X25702D01*
X25603Y16437D02*
Y16634D01*
X25111Y16535D02*
X25308D01*
X25209Y16437D02*
Y16634D01*
X24717Y16535D02*
X24914D01*
X24816Y16437D02*
Y16634D01*
X24324Y16535D02*
X24520D01*
X24422Y16437D02*
Y16634D01*
X23930Y16535D02*
X24127D01*
X24028Y16437D02*
Y16634D01*
X23536Y16535D02*
X23733D01*
X23635Y16437D02*
Y16634D01*
X23143Y16535D02*
X23339D01*
X23241Y16437D02*
Y16634D01*
X22749Y16535D02*
X22946D01*
X22847Y16437D02*
Y16634D01*
X22355Y16535D02*
X22552D01*
X22454Y16437D02*
Y16634D01*
X21961Y16535D02*
X22158D01*
X22060Y16437D02*
Y16634D01*
X21568Y16535D02*
X21765D01*
X21666Y16437D02*
Y16634D01*
X21174Y16535D02*
X21371D01*
X21272Y16437D02*
Y16634D01*
X20780Y16535D02*
X20977D01*
X20879Y16437D02*
Y16634D01*
X20387Y16535D02*
X20583D01*
X20485Y16437D02*
Y16634D01*
X19993Y16535D02*
X20190D01*
X20091Y16437D02*
Y16634D01*
X19599Y16535D02*
X19796D01*
X19698Y16437D02*
Y16634D01*
X15269Y16535D02*
X15465D01*
X15367Y16437D02*
Y16634D01*
X15662Y16535D02*
X15859D01*
X15761Y16437D02*
Y16634D01*
X16056Y16535D02*
X16253D01*
X16154Y16437D02*
Y16634D01*
X16450Y16535D02*
X16646D01*
X16548Y16437D02*
Y16634D01*
X16843Y16535D02*
X17040D01*
X16942Y16437D02*
Y16634D01*
X17237Y16535D02*
X17434D01*
X17335Y16437D02*
Y16634D01*
X17631Y16535D02*
X17828D01*
X17729Y16437D02*
Y16634D01*
X18024Y16535D02*
X18221D01*
X18123Y16437D02*
Y16634D01*
X18418Y16535D02*
X18615D01*
X18517Y16437D02*
Y16634D01*
X18812Y16535D02*
X19009D01*
X18910Y16437D02*
Y16634D01*
X19206Y16535D02*
X19402D01*
X19304Y16437D02*
Y16634D01*
X27473Y16535D02*
X27670D01*
X27572Y16437D02*
Y16634D01*
X27867Y16535D02*
X28064D01*
X27965Y16437D02*
Y16634D01*
X28261Y16535D02*
X28457D01*
X28359Y16437D02*
Y16634D01*
X28654Y16535D02*
X28851D01*
X28753Y16437D02*
Y16634D01*
X29048Y16535D02*
X29245D01*
X29146Y16437D02*
Y16634D01*
X12906Y16535D02*
X13103D01*
X13005Y16437D02*
Y16634D01*
X12513Y16535D02*
X12709D01*
X12611Y16437D02*
Y16634D01*
X12119Y16535D02*
X12316D01*
X12217Y16437D02*
Y16634D01*
X11725Y16535D02*
X11922D01*
X11824Y16437D02*
Y16634D01*
X11331Y16535D02*
X11528D01*
X11430Y16437D02*
Y16634D01*
X10938Y16535D02*
X11135D01*
X11036Y16437D02*
Y16634D01*
X10544Y16535D02*
X10741D01*
X10643Y16437D02*
Y16634D01*
X10150Y16535D02*
X10347D01*
X10249Y16437D02*
Y16634D01*
X9757Y16535D02*
X9954D01*
X9855Y16437D02*
Y16634D01*
X9363Y16535D02*
X9560D01*
X9461Y16437D02*
Y16634D01*
X8969Y16535D02*
X9166D01*
X9068Y16437D02*
Y16634D01*
X8576Y16535D02*
X8772D01*
X8674Y16437D02*
Y16634D01*
X8182Y16535D02*
X8379D01*
X8280Y16437D02*
Y16634D01*
X7788Y16535D02*
X7985D01*
X7887Y16437D02*
Y16634D01*
X7394Y16535D02*
X7591D01*
X7493Y16437D02*
Y16634D01*
X7001Y16535D02*
X7198D01*
X7099Y16437D02*
Y16634D01*
X6607Y16535D02*
X6804D01*
X6706Y16437D02*
Y16634D01*
X6213Y16535D02*
X6410D01*
X6312Y16437D02*
Y16634D01*
X5820Y16535D02*
X6017D01*
X5918Y16437D02*
Y16634D01*
X5426Y16535D02*
X5623D01*
X5524Y16437D02*
Y16634D01*
X702Y16535D02*
X898D01*
X800Y16437D02*
Y16634D01*
X1095Y16535D02*
X1292D01*
X1194Y16437D02*
Y16634D01*
X1489Y16535D02*
X1686D01*
X1587Y16437D02*
Y16634D01*
X1883Y16535D02*
X2080D01*
X1981Y16437D02*
Y16634D01*
X2276Y16535D02*
X2473D01*
X2375Y16437D02*
Y16634D01*
X2670Y16535D02*
X2867D01*
X2768Y16437D02*
Y16634D01*
X3064Y16535D02*
X3261D01*
X3162Y16437D02*
Y16634D01*
X3457Y16535D02*
X3654D01*
X3556Y16437D02*
Y16634D01*
X3851Y16535D02*
X4048D01*
X3950Y16437D02*
Y16634D01*
X4245Y16535D02*
X4442D01*
X4343Y16437D02*
Y16634D01*
X4639Y16535D02*
X4835D01*
X4737Y16437D02*
Y16634D01*
X5032Y16535D02*
X5229D01*
X5131Y16437D02*
Y16634D01*
X13300Y16535D02*
X13497D01*
X13398Y16437D02*
Y16634D01*
X13694Y16535D02*
X13891D01*
X13792Y16437D02*
Y16634D01*
X14087Y16535D02*
X14284D01*
X14186Y16437D02*
Y16634D01*
X14481Y16535D02*
X14678D01*
X14580Y16437D02*
Y16634D01*
X14875Y16535D02*
X15072D01*
X14973Y16437D02*
Y16634D01*
X32185Y12992D02*
X32382D01*
X32283Y12894D02*
Y13091D01*
X32185Y12598D02*
X32382D01*
X32283Y12500D02*
Y12697D01*
X32185Y12205D02*
X32382D01*
X32283Y12106D02*
Y12303D01*
X32185Y11811D02*
X32382D01*
X32283Y11713D02*
Y11909D01*
X32185Y11417D02*
X32382D01*
X32283Y11319D02*
Y11516D01*
X32185Y11024D02*
X32382D01*
X32283Y10925D02*
Y11122D01*
X32185Y10630D02*
X32382D01*
X32283Y10532D02*
Y10728D01*
X32185Y10236D02*
X32382D01*
X32283Y10138D02*
Y10335D01*
X32185Y9843D02*
X32382D01*
X32283Y9744D02*
Y9941D01*
X32185Y9449D02*
X32382D01*
X32283Y9350D02*
Y9547D01*
X32185Y9055D02*
X32382D01*
X32283Y8957D02*
Y9154D01*
X32185Y8661D02*
X32382D01*
X32283Y8563D02*
Y8760D01*
X32185Y8268D02*
X32382D01*
X32283Y8169D02*
Y8366D01*
X32185Y7874D02*
X32382D01*
X32283Y7776D02*
Y7972D01*
X32185Y7480D02*
X32382D01*
X32283Y7382D02*
Y7579D01*
X32185Y7087D02*
X32382D01*
X32283Y6988D02*
Y7185D01*
X32185Y6693D02*
X32382D01*
X32283Y6594D02*
Y6791D01*
X32185Y6299D02*
X32382D01*
X32283Y6201D02*
Y6398D01*
X32185Y5906D02*
X32382D01*
X32283Y5807D02*
Y6004D01*
X32185Y5512D02*
X32382D01*
X32283Y5413D02*
Y5610D01*
X32185Y787D02*
X32382D01*
X32283Y689D02*
Y886D01*
X32185Y1181D02*
X32382D01*
X32283Y1083D02*
Y1280D01*
X32185Y1575D02*
X32382D01*
X32283Y1476D02*
Y1673D01*
X32185Y1969D02*
X32382D01*
X32283Y1870D02*
Y2067D01*
X32185Y2362D02*
X32382D01*
X32283Y2264D02*
Y2461D01*
X32185Y2756D02*
X32382D01*
X32283Y2657D02*
Y2854D01*
X32185Y3150D02*
X32382D01*
X32283Y3051D02*
Y3248D01*
X32185Y3543D02*
X32382D01*
X32283Y3445D02*
Y3642D01*
X32185Y3937D02*
X32382D01*
X32283Y3839D02*
Y4035D01*
X32185Y4331D02*
X32382D01*
X32283Y4232D02*
Y4429D01*
X32185Y4724D02*
X32382D01*
X32283Y4626D02*
Y4823D01*
X32185Y5118D02*
X32382D01*
X32283Y5020D02*
Y5217D01*
X32185Y13386D02*
X32382D01*
X32283Y13287D02*
Y13484D01*
X32185Y13780D02*
X32382D01*
X32283Y13681D02*
Y13878D01*
X32185Y14173D02*
X32382D01*
X32283Y14075D02*
Y14272D01*
X32185Y14567D02*
X32382D01*
X32283Y14469D02*
Y14665D01*
X32185Y14961D02*
X32382D01*
X32283Y14862D02*
Y15059D01*
X30906Y15748D02*
X32087D01*
X31496Y15157D02*
Y16339D01*
X30906Y0D02*
X32087D01*
X31496Y-591D02*
Y591D01*
X-591Y15748D02*
X591D01*
X0Y15157D02*
Y16339D01*
X-591Y0D02*
X591D01*
X0Y-591D02*
Y591D01*
X-886Y787D02*
X-689D01*
X-787Y689D02*
Y886D01*
X-886Y1181D02*
X-689D01*
X-787Y1083D02*
Y1280D01*
X-886Y1575D02*
X-689D01*
X-787Y1476D02*
Y1673D01*
X-886Y1969D02*
X-689D01*
X-787Y1870D02*
Y2067D01*
X-886Y2362D02*
X-689D01*
X-787Y2264D02*
Y2461D01*
X-886Y10630D02*
X-689D01*
X-787Y10532D02*
Y10728D01*
X-886Y11024D02*
X-689D01*
X-787Y10925D02*
Y11122D01*
X-886Y11417D02*
X-689D01*
X-787Y11319D02*
Y11516D01*
X-886Y11811D02*
X-689D01*
X-787Y11713D02*
Y11909D01*
X-886Y12205D02*
X-689D01*
X-787Y12106D02*
Y12303D01*
X-886Y12598D02*
X-689D01*
X-787Y12500D02*
Y12697D01*
X-886Y12992D02*
X-689D01*
X-787Y12894D02*
Y13091D01*
X-886Y13386D02*
X-689D01*
X-787Y13287D02*
Y13484D01*
X-886Y13780D02*
X-689D01*
X-787Y13681D02*
Y13878D01*
X-886Y14173D02*
X-689D01*
X-787Y14075D02*
Y14272D01*
X-886Y14567D02*
X-689D01*
X-787Y14468D02*
Y14665D01*
X-886Y14961D02*
X-689D01*
X-787Y14862D02*
Y15059D01*
X-886Y10236D02*
X-689D01*
X-787Y10138D02*
Y10335D01*
X-886Y9843D02*
X-689D01*
X-787Y9744D02*
Y9941D01*
X-886Y9449D02*
X-689D01*
X-787Y9350D02*
Y9547D01*
X-886Y9055D02*
X-689D01*
X-787Y8957D02*
Y9154D01*
X-886Y8661D02*
X-689D01*
X-787Y8563D02*
Y8760D01*
X-886Y8268D02*
X-689D01*
X-787Y8169D02*
Y8366D01*
X-886Y7874D02*
X-689D01*
X-787Y7776D02*
Y7972D01*
X-886Y7480D02*
X-689D01*
X-787Y7382D02*
Y7579D01*
X-886Y7087D02*
X-689D01*
X-787Y6988D02*
Y7185D01*
X-886Y6693D02*
X-689D01*
X-787Y6594D02*
Y6791D01*
X-886Y6299D02*
X-689D01*
X-787Y6201D02*
Y6398D01*
X-886Y5906D02*
X-689D01*
X-787Y5807D02*
Y6004D01*
X-886Y5512D02*
X-689D01*
X-787Y5413D02*
Y5610D01*
X-886Y5118D02*
X-689D01*
X-787Y5020D02*
Y5217D01*
X-886Y4724D02*
X-689D01*
X-787Y4626D02*
Y4823D01*
X-886Y4331D02*
X-689D01*
X-787Y4232D02*
Y4429D01*
X-886Y3937D02*
X-689D01*
X-787Y3839D02*
Y4035D01*
X-886Y3543D02*
X-689D01*
X-787Y3445D02*
Y3642D01*
X-886Y3150D02*
X-689D01*
X-787Y3051D02*
Y3248D01*
X-886Y2756D02*
X-689D01*
X-787Y2657D02*
Y2854D01*
X20965Y14774D02*
X21043D01*
X21004Y14734D02*
Y14813D01*
X21358Y14774D02*
X21437D01*
X21398Y14734D02*
Y14813D01*
X21752Y14774D02*
X21831D01*
X21791Y14734D02*
Y14813D01*
X22146Y14774D02*
X22224D01*
X22185Y14734D02*
Y14813D01*
X22539Y14774D02*
X22618D01*
X22579Y14734D02*
Y14813D01*
X22933Y14774D02*
X23012D01*
X22972Y14734D02*
Y14813D01*
X23327Y14774D02*
X23406D01*
X23366Y14734D02*
Y14813D01*
X23327Y15561D02*
X23406D01*
X23366Y15522D02*
Y15600D01*
X22146Y15561D02*
X22224D01*
X22185Y15522D02*
Y15600D01*
X21752Y15561D02*
X21831D01*
X21791Y15522D02*
Y15600D01*
X20571Y14774D02*
X20650D01*
X20610Y14734D02*
Y14813D01*
X20571Y15561D02*
X20650D01*
X20610Y15522D02*
Y15600D01*
M02*
