G04*
G04 #@! TF.GenerationSoftware,Altium Limited,Altium Designer,20.0.13 (296)*
G04*
G04 Layer_Color=2752767*
%FSLAX24Y24*%
%MOIN*%
G70*
G01*
G75*
%ADD14C,0.0050*%
%ADD106C,0.0067*%
D14*
X16323Y-987D02*
Y-587D01*
X16723D01*
Y-987D01*
X16323D01*
X16717D02*
Y-587D01*
X17117D01*
Y-987D01*
X16717D01*
X17110D02*
Y-587D01*
X17510D01*
Y-987D01*
X17110D01*
X17504D02*
Y-587D01*
X17904D01*
Y-987D01*
X17504D01*
X17898D02*
Y-587D01*
X18298D01*
Y-987D01*
X17898D01*
X26165D02*
Y-587D01*
X26565D01*
Y-987D01*
X26165D01*
X26559D02*
Y-587D01*
X26959D01*
Y-987D01*
X26559D01*
X26953D02*
Y-587D01*
X27353D01*
Y-987D01*
X26953D01*
X27346D02*
Y-587D01*
X27746D01*
Y-987D01*
X27346D01*
X27740D02*
Y-587D01*
X28140D01*
Y-987D01*
X27740D01*
X28134D02*
Y-587D01*
X28534D01*
Y-987D01*
X28134D01*
X28528D02*
Y-587D01*
X28928D01*
Y-987D01*
X28528D01*
X28921D02*
Y-587D01*
X29321D01*
Y-987D01*
X28921D01*
X29315D02*
Y-587D01*
X29715D01*
Y-987D01*
X29315D01*
X29709D02*
Y-587D01*
X30109D01*
Y-987D01*
X29709D01*
X30102D02*
Y-587D01*
X30502D01*
Y-987D01*
X30102D01*
X30496D02*
Y-587D01*
X30896D01*
Y-987D01*
X30496D01*
X25772D02*
Y-587D01*
X26172D01*
Y-987D01*
X25772D01*
X25378D02*
Y-587D01*
X25778D01*
Y-987D01*
X25378D01*
X24984D02*
Y-587D01*
X25384D01*
Y-987D01*
X24984D01*
X24591D02*
Y-587D01*
X24991D01*
Y-987D01*
X24591D01*
X24197D02*
Y-587D01*
X24597D01*
Y-987D01*
X24197D01*
X23803D02*
Y-587D01*
X24203D01*
Y-987D01*
X23803D01*
X23409D02*
Y-587D01*
X23809D01*
Y-987D01*
X23409D01*
X23016D02*
Y-587D01*
X23416D01*
Y-987D01*
X23016D01*
X22622D02*
Y-587D01*
X23022D01*
Y-987D01*
X22622D01*
X22228D02*
Y-587D01*
X22628D01*
Y-987D01*
X22228D01*
X21835D02*
Y-587D01*
X22235D01*
Y-987D01*
X21835D01*
X21441D02*
Y-587D01*
X21841D01*
Y-987D01*
X21441D01*
X21047D02*
Y-587D01*
X21447D01*
Y-987D01*
X21047D01*
X20654D02*
Y-587D01*
X21054D01*
Y-987D01*
X20654D01*
X20260D02*
Y-587D01*
X20660D01*
Y-987D01*
X20260D01*
X19866D02*
Y-587D01*
X20266D01*
Y-987D01*
X19866D01*
X19472D02*
Y-587D01*
X19872D01*
Y-987D01*
X19472D01*
X19079D02*
Y-587D01*
X19479D01*
Y-987D01*
X19079D01*
X18685D02*
Y-587D01*
X19085D01*
Y-987D01*
X18685D01*
X18291D02*
Y-587D01*
X18691D01*
Y-987D01*
X18291D01*
X2150D02*
Y-587D01*
X2550D01*
Y-987D01*
X2150D01*
X2543D02*
Y-587D01*
X2943D01*
Y-987D01*
X2543D01*
X2937D02*
Y-587D01*
X3337D01*
Y-987D01*
X2937D01*
X3331D02*
Y-587D01*
X3731D01*
Y-987D01*
X3331D01*
X3724D02*
Y-587D01*
X4124D01*
Y-987D01*
X3724D01*
X11992D02*
Y-587D01*
X12392D01*
Y-987D01*
X11992D01*
X12386D02*
Y-587D01*
X12786D01*
Y-987D01*
X12386D01*
X12780D02*
Y-587D01*
X13180D01*
Y-987D01*
X12780D01*
X13173D02*
Y-587D01*
X13573D01*
Y-987D01*
X13173D01*
X13567D02*
Y-587D01*
X13967D01*
Y-987D01*
X13567D01*
X13961D02*
Y-587D01*
X14361D01*
Y-987D01*
X13961D01*
X14354D02*
Y-587D01*
X14754D01*
Y-987D01*
X14354D01*
X14748D02*
Y-587D01*
X15148D01*
Y-987D01*
X14748D01*
X15142D02*
Y-587D01*
X15542D01*
Y-987D01*
X15142D01*
X15535D02*
Y-587D01*
X15935D01*
Y-987D01*
X15535D01*
X15929D02*
Y-587D01*
X16329D01*
Y-987D01*
X15929D01*
X11598D02*
Y-587D01*
X11998D01*
Y-987D01*
X11598D01*
X11205D02*
Y-587D01*
X11605D01*
Y-987D01*
X11205D01*
X10811D02*
Y-587D01*
X11211D01*
Y-987D01*
X10811D01*
X10417D02*
Y-587D01*
X10817D01*
Y-987D01*
X10417D01*
X10024D02*
Y-587D01*
X10424D01*
Y-987D01*
X10024D01*
X9630D02*
Y-587D01*
X10030D01*
Y-987D01*
X9630D01*
X9236D02*
Y-587D01*
X9636D01*
Y-987D01*
X9236D01*
X8843D02*
Y-587D01*
X9243D01*
Y-987D01*
X8843D01*
X8449D02*
Y-587D01*
X8849D01*
Y-987D01*
X8449D01*
X8055D02*
Y-587D01*
X8455D01*
Y-987D01*
X8055D01*
X7661D02*
Y-587D01*
X8061D01*
Y-987D01*
X7661D01*
X7268D02*
Y-587D01*
X7668D01*
Y-987D01*
X7268D01*
X6874D02*
Y-587D01*
X7274D01*
Y-987D01*
X6874D01*
X6480D02*
Y-587D01*
X6880D01*
Y-987D01*
X6480D01*
X6087D02*
Y-587D01*
X6487D01*
Y-987D01*
X6087D01*
X5693D02*
Y-587D01*
X6093D01*
Y-987D01*
X5693D01*
X5299D02*
Y-587D01*
X5699D01*
Y-987D01*
X5299D01*
X4906D02*
Y-587D01*
X5306D01*
Y-987D01*
X4906D01*
X4512D02*
Y-587D01*
X4912D01*
Y-987D01*
X4512D01*
X4118D02*
Y-587D01*
X4518D01*
Y-987D01*
X4118D01*
X969D02*
Y-587D01*
X1368D01*
Y-987D01*
X969D01*
X1362D02*
Y-587D01*
X1762D01*
Y-987D01*
X1362D01*
X1756D02*
Y-587D01*
X2156D01*
Y-987D01*
X1756D01*
X575D02*
Y-587D01*
X975D01*
Y-987D01*
X575D01*
X30521Y16335D02*
Y16735D01*
X30921D01*
Y16335D01*
X30521D01*
X29340D02*
Y16735D01*
X29740D01*
Y16335D01*
X29340D01*
X29734D02*
Y16735D01*
X30134D01*
Y16335D01*
X29734D01*
X30128D02*
Y16735D01*
X30528D01*
Y16335D01*
X30128D01*
X26978D02*
Y16735D01*
X27378D01*
Y16335D01*
X26978D01*
X26584D02*
Y16735D01*
X26984D01*
Y16335D01*
X26584D01*
X26191D02*
Y16735D01*
X26591D01*
Y16335D01*
X26191D01*
X25797D02*
Y16735D01*
X26197D01*
Y16335D01*
X25797D01*
X25403D02*
Y16735D01*
X25803D01*
Y16335D01*
X25403D01*
X25009D02*
Y16735D01*
X25409D01*
Y16335D01*
X25009D01*
X24616D02*
Y16735D01*
X25016D01*
Y16335D01*
X24616D01*
X24222D02*
Y16735D01*
X24622D01*
Y16335D01*
X24222D01*
X23828D02*
Y16735D01*
X24228D01*
Y16335D01*
X23828D01*
X23435D02*
Y16735D01*
X23835D01*
Y16335D01*
X23435D01*
X23041D02*
Y16735D01*
X23441D01*
Y16335D01*
X23041D01*
X22647D02*
Y16735D01*
X23047D01*
Y16335D01*
X22647D01*
X22254D02*
Y16735D01*
X22654D01*
Y16335D01*
X22254D01*
X21860D02*
Y16735D01*
X22260D01*
Y16335D01*
X21860D01*
X21466D02*
Y16735D01*
X21866D01*
Y16335D01*
X21466D01*
X21072D02*
Y16735D01*
X21472D01*
Y16335D01*
X21072D01*
X20679D02*
Y16735D01*
X21079D01*
Y16335D01*
X20679D01*
X20285D02*
Y16735D01*
X20685D01*
Y16335D01*
X20285D01*
X19891D02*
Y16735D01*
X20291D01*
Y16335D01*
X19891D01*
X19498D02*
Y16735D01*
X19898D01*
Y16335D01*
X19498D01*
X15167D02*
Y16735D01*
X15567D01*
Y16335D01*
X15167D01*
X15561D02*
Y16735D01*
X15961D01*
Y16335D01*
X15561D01*
X15954D02*
Y16735D01*
X16354D01*
Y16335D01*
X15954D01*
X16348D02*
Y16735D01*
X16748D01*
Y16335D01*
X16348D01*
X16742D02*
Y16735D01*
X17142D01*
Y16335D01*
X16742D01*
X17135D02*
Y16735D01*
X17535D01*
Y16335D01*
X17135D01*
X17529D02*
Y16735D01*
X17929D01*
Y16335D01*
X17529D01*
X17923D02*
Y16735D01*
X18323D01*
Y16335D01*
X17923D01*
X18317D02*
Y16735D01*
X18717D01*
Y16335D01*
X18317D01*
X18710D02*
Y16735D01*
X19110D01*
Y16335D01*
X18710D01*
X19104D02*
Y16735D01*
X19504D01*
Y16335D01*
X19104D01*
X27372D02*
Y16735D01*
X27772D01*
Y16335D01*
X27372D01*
X27765D02*
Y16735D01*
X28165D01*
Y16335D01*
X27765D01*
X28159D02*
Y16735D01*
X28559D01*
Y16335D01*
X28159D01*
X28553D02*
Y16735D01*
X28953D01*
Y16335D01*
X28553D01*
X28946D02*
Y16735D01*
X29346D01*
Y16335D01*
X28946D01*
X12805D02*
Y16735D01*
X13205D01*
Y16335D01*
X12805D01*
X12411D02*
Y16735D01*
X12811D01*
Y16335D01*
X12411D01*
X12017D02*
Y16735D01*
X12417D01*
Y16335D01*
X12017D01*
X11624D02*
Y16735D01*
X12024D01*
Y16335D01*
X11624D01*
X11230D02*
Y16735D01*
X11630D01*
Y16335D01*
X11230D01*
X10836D02*
Y16735D01*
X11236D01*
Y16335D01*
X10836D01*
X10443D02*
Y16735D01*
X10843D01*
Y16335D01*
X10443D01*
X10049D02*
Y16735D01*
X10449D01*
Y16335D01*
X10049D01*
X9655D02*
Y16735D01*
X10055D01*
Y16335D01*
X9655D01*
X9261D02*
Y16735D01*
X9661D01*
Y16335D01*
X9261D01*
X8868D02*
Y16735D01*
X9268D01*
Y16335D01*
X8868D01*
X8474D02*
Y16735D01*
X8874D01*
Y16335D01*
X8474D01*
X8080D02*
Y16735D01*
X8480D01*
Y16335D01*
X8080D01*
X7687D02*
Y16735D01*
X8087D01*
Y16335D01*
X7687D01*
X7293D02*
Y16735D01*
X7693D01*
Y16335D01*
X7293D01*
X6899D02*
Y16735D01*
X7299D01*
Y16335D01*
X6899D01*
X6506D02*
Y16735D01*
X6906D01*
Y16335D01*
X6506D01*
X6112D02*
Y16735D01*
X6512D01*
Y16335D01*
X6112D01*
X5718D02*
Y16735D01*
X6118D01*
Y16335D01*
X5718D01*
X5324D02*
Y16735D01*
X5724D01*
Y16335D01*
X5324D01*
X600D02*
Y16735D01*
X1000D01*
Y16335D01*
X600D01*
X994D02*
Y16735D01*
X1394D01*
Y16335D01*
X994D01*
X1387D02*
Y16735D01*
X1787D01*
Y16335D01*
X1387D01*
X1781D02*
Y16735D01*
X2181D01*
Y16335D01*
X1781D01*
X2175D02*
Y16735D01*
X2575D01*
Y16335D01*
X2175D01*
X2569D02*
Y16735D01*
X2968D01*
Y16335D01*
X2569D01*
X2962D02*
Y16735D01*
X3362D01*
Y16335D01*
X2962D01*
X3356D02*
Y16735D01*
X3756D01*
Y16335D01*
X3356D01*
X3750D02*
Y16735D01*
X4150D01*
Y16335D01*
X3750D01*
X4143D02*
Y16735D01*
X4543D01*
Y16335D01*
X4143D01*
X4537D02*
Y16735D01*
X4937D01*
Y16335D01*
X4537D01*
X4931D02*
Y16735D01*
X5331D01*
Y16335D01*
X4931D01*
X13198D02*
Y16735D01*
X13598D01*
Y16335D01*
X13198D01*
X13592D02*
Y16735D01*
X13992D01*
Y16335D01*
X13592D01*
X13986D02*
Y16735D01*
X14386D01*
Y16335D01*
X13986D01*
X14380D02*
Y16735D01*
X14780D01*
Y16335D01*
X14380D01*
X14773D02*
Y16735D01*
X15173D01*
Y16335D01*
X14773D01*
X32083Y12792D02*
Y13192D01*
X32483D01*
Y12792D01*
X32083D01*
Y12398D02*
Y12798D01*
X32483D01*
Y12398D01*
X32083D01*
Y12005D02*
Y12405D01*
X32483D01*
Y12005D01*
X32083D01*
Y11611D02*
Y12011D01*
X32483D01*
Y11611D01*
X32083D01*
Y11217D02*
Y11617D01*
X32483D01*
Y11217D01*
X32083D01*
Y10824D02*
Y11224D01*
X32483D01*
Y10824D01*
X32083D01*
Y10430D02*
Y10830D01*
X32483D01*
Y10430D01*
X32083D01*
Y10036D02*
Y10436D01*
X32483D01*
Y10036D01*
X32083D01*
Y9643D02*
Y10043D01*
X32483D01*
Y9643D01*
X32083D01*
Y9249D02*
Y9649D01*
X32483D01*
Y9249D01*
X32083D01*
Y8855D02*
Y9255D01*
X32483D01*
Y8855D01*
X32083D01*
Y8461D02*
Y8861D01*
X32483D01*
Y8461D01*
X32083D01*
Y8068D02*
Y8468D01*
X32483D01*
Y8068D01*
X32083D01*
Y7674D02*
Y8074D01*
X32483D01*
Y7674D01*
X32083D01*
Y7280D02*
Y7680D01*
X32483D01*
Y7280D01*
X32083D01*
Y6887D02*
Y7287D01*
X32483D01*
Y6887D01*
X32083D01*
Y6493D02*
Y6893D01*
X32483D01*
Y6493D01*
X32083D01*
Y6099D02*
Y6499D01*
X32483D01*
Y6099D01*
X32083D01*
Y5706D02*
Y6106D01*
X32483D01*
Y5706D01*
X32083D01*
Y5312D02*
Y5712D01*
X32483D01*
Y5312D01*
X32083D01*
Y587D02*
Y987D01*
X32483D01*
Y587D01*
X32083D01*
Y981D02*
Y1381D01*
X32483D01*
Y981D01*
X32083D01*
Y1375D02*
Y1775D01*
X32483D01*
Y1375D01*
X32083D01*
Y1769D02*
Y2168D01*
X32483D01*
Y1769D01*
X32083D01*
Y2162D02*
Y2562D01*
X32483D01*
Y2162D01*
X32083D01*
Y2556D02*
Y2956D01*
X32483D01*
Y2556D01*
X32083D01*
Y2950D02*
Y3350D01*
X32483D01*
Y2950D01*
X32083D01*
Y3343D02*
Y3743D01*
X32483D01*
Y3343D01*
X32083D01*
Y3737D02*
Y4137D01*
X32483D01*
Y3737D01*
X32083D01*
Y4131D02*
Y4531D01*
X32483D01*
Y4131D01*
X32083D01*
Y4524D02*
Y4924D01*
X32483D01*
Y4524D01*
X32083D01*
Y4918D02*
Y5318D01*
X32483D01*
Y4918D01*
X32083D01*
Y13186D02*
Y13586D01*
X32483D01*
Y13186D01*
X32083D01*
Y13580D02*
Y13980D01*
X32483D01*
Y13580D01*
X32083D01*
Y13973D02*
Y14373D01*
X32483D01*
Y13973D01*
X32083D01*
Y14367D02*
Y14767D01*
X32483D01*
Y14367D01*
X32083D01*
Y14761D02*
Y15161D01*
X32483D01*
Y14761D01*
X32083D01*
X-987Y587D02*
Y987D01*
X-587D01*
Y587D01*
X-987D01*
Y981D02*
Y1381D01*
X-587D01*
Y981D01*
X-987D01*
Y1375D02*
Y1775D01*
X-587D01*
Y1375D01*
X-987D01*
Y1769D02*
Y2168D01*
X-587D01*
Y1769D01*
X-987D01*
Y2162D02*
Y2562D01*
X-587D01*
Y2162D01*
X-987D01*
Y10430D02*
Y10830D01*
X-587D01*
Y10430D01*
X-987D01*
Y10824D02*
Y11224D01*
X-587D01*
Y10824D01*
X-987D01*
Y11217D02*
Y11617D01*
X-587D01*
Y11217D01*
X-987D01*
Y11611D02*
Y12011D01*
X-587D01*
Y11611D01*
X-987D01*
Y12005D02*
Y12405D01*
X-587D01*
Y12005D01*
X-987D01*
Y12398D02*
Y12798D01*
X-587D01*
Y12398D01*
X-987D01*
Y12792D02*
Y13192D01*
X-587D01*
Y12792D01*
X-987D01*
Y13186D02*
Y13586D01*
X-587D01*
Y13186D01*
X-987D01*
Y13580D02*
Y13980D01*
X-587D01*
Y13580D01*
X-987D01*
Y13973D02*
Y14373D01*
X-587D01*
Y13973D01*
X-987D01*
Y14367D02*
Y14767D01*
X-587D01*
Y14367D01*
X-987D01*
Y14761D02*
Y15161D01*
X-587D01*
Y14761D01*
X-987D01*
Y10036D02*
Y10436D01*
X-587D01*
Y10036D01*
X-987D01*
Y9643D02*
Y10043D01*
X-587D01*
Y9643D01*
X-987D01*
Y9249D02*
Y9649D01*
X-587D01*
Y9249D01*
X-987D01*
Y8855D02*
Y9255D01*
X-587D01*
Y8855D01*
X-987D01*
Y8461D02*
Y8861D01*
X-587D01*
Y8461D01*
X-987D01*
Y8068D02*
Y8468D01*
X-587D01*
Y8068D01*
X-987D01*
Y7674D02*
Y8074D01*
X-587D01*
Y7674D01*
X-987D01*
Y7280D02*
Y7680D01*
X-587D01*
Y7280D01*
X-987D01*
Y6887D02*
Y7287D01*
X-587D01*
Y6887D01*
X-987D01*
Y6493D02*
Y6893D01*
X-587D01*
Y6493D01*
X-987D01*
Y6099D02*
Y6499D01*
X-587D01*
Y6099D01*
X-987D01*
Y5706D02*
Y6106D01*
X-587D01*
Y5706D01*
X-987D01*
Y5312D02*
Y5712D01*
X-587D01*
Y5312D01*
X-987D01*
Y4918D02*
Y5318D01*
X-587D01*
Y4918D01*
X-987D01*
Y4524D02*
Y4924D01*
X-587D01*
Y4524D01*
X-987D01*
Y4131D02*
Y4531D01*
X-587D01*
Y4131D01*
X-987D01*
Y3737D02*
Y4137D01*
X-587D01*
Y3737D01*
X-987D01*
Y3343D02*
Y3743D01*
X-587D01*
Y3343D01*
X-987D01*
Y2950D02*
Y3350D01*
X-587D01*
Y2950D01*
X-987D01*
Y2556D02*
Y2956D01*
X-587D01*
Y2556D01*
X-987D01*
X21004Y14574D02*
X20804Y14974D01*
X21204D01*
X21004Y14574D01*
X21398D02*
X21198Y14974D01*
X21598D01*
X21398Y14574D01*
X21791D02*
X21591Y14974D01*
X21991D01*
X21791Y14574D01*
X22185D02*
X21985Y14974D01*
X22385D01*
X22185Y14574D01*
X22579D02*
X22379Y14974D01*
X22779D01*
X22579Y14574D01*
X22972D02*
X22772Y14974D01*
X23172D01*
X22972Y14574D01*
X23366D02*
X23166Y14974D01*
X23566D01*
X23366Y14574D01*
Y15361D02*
X23166Y15761D01*
X23566D01*
X23366Y15361D01*
X22185D02*
X21985Y15761D01*
X22385D01*
X22185Y15361D01*
X21791D02*
X21591Y15761D01*
X21991D01*
X21791Y15361D01*
X20610Y14574D02*
X20410Y14974D01*
X20810D01*
X20610Y14574D01*
Y15361D02*
X20410Y15761D01*
X20810D01*
X20610Y15361D01*
D106*
X31696Y15748D02*
G03*
X31696Y15748I-200J0D01*
G01*
Y0D02*
G03*
X31696Y0I-200J0D01*
G01*
X200Y15748D02*
G03*
X200Y15748I-200J0D01*
G01*
Y0D02*
G03*
X200Y0I-200J0D01*
G01*
M02*
