G04*
G04 #@! TF.GenerationSoftware,Altium Limited,Altium Designer,20.0.13 (296)*
G04*
G04 Layer_Color=2752767*
%FSLAX24Y24*%
%MOIN*%
G70*
G01*
G75*
%ADD14C,0.0050*%
D14*
X21051Y7851D02*
X20851Y8251D01*
X21251D01*
X21051Y7851D01*
X13583Y5785D02*
X13383Y6185D01*
X13783D01*
X13583Y5785D01*
X15571Y7385D02*
X15371Y7785D01*
X15771D01*
X15571Y7385D01*
X16594Y-476D02*
X16394Y-76D01*
X16794D01*
X16594Y-476D01*
X16929Y546D02*
X16729Y946D01*
X17129D01*
X16929Y546D01*
X15413Y4790D02*
X15213Y5190D01*
X15613D01*
X15413Y4790D01*
Y4534D02*
X15213Y4934D01*
X15613D01*
X15413Y4534D01*
Y4022D02*
X15213Y4422D01*
X15613D01*
X15413Y4022D01*
X15787Y6143D02*
X15587Y6543D01*
X15987D01*
X15787Y6143D01*
X10589Y10450D02*
X10389Y10850D01*
X10789D01*
X10589Y10450D01*
X11880Y10458D02*
X11680Y10858D01*
X12080D01*
X11880Y10458D01*
X12754Y10450D02*
X12554Y10850D01*
X12954D01*
X12754Y10450D01*
X11455D02*
X11255Y10850D01*
X11655D01*
X11455Y10450D01*
X11022D02*
X10822Y10850D01*
X11222D01*
X11022Y10450D01*
X16417Y12042D02*
X16217Y12442D01*
X16617D01*
X16417Y12042D01*
Y12546D02*
X16217Y12946D01*
X16617D01*
X16417Y12546D01*
X22047Y17D02*
X21847Y417D01*
X22247D01*
X22047Y17D01*
X22362Y765D02*
X22162Y1165D01*
X22562D01*
X22362Y765D01*
X22559Y961D02*
X22359Y1361D01*
X22759D01*
X22559Y961D01*
X21063Y2221D02*
X20863Y2621D01*
X21263D01*
X21063Y2221D01*
X17697Y4278D02*
X17497Y4678D01*
X17897D01*
X17697Y4278D01*
Y4790D02*
X17497Y5190D01*
X17897D01*
X17697Y4790D01*
Y5046D02*
X17497Y5446D01*
X17897D01*
X17697Y5046D01*
Y5814D02*
X17497Y6214D01*
X17897D01*
X17697Y5814D01*
Y5558D02*
X17497Y5958D01*
X17897D01*
X17697Y5558D01*
X18287Y7418D02*
X18087Y7818D01*
X18487D01*
X18287Y7418D01*
X14077Y1769D02*
X13877Y2168D01*
X14277D01*
X14077Y1769D01*
X13859Y2162D02*
X13659Y2562D01*
X14059D01*
X13859Y2162D01*
X14077Y1375D02*
X13877Y1775D01*
X14277D01*
X14077Y1375D01*
X13859Y2556D02*
X13659Y2956D01*
X14059D01*
X13859Y2556D01*
X15634Y15680D02*
X15434Y16080D01*
X15834D01*
X15634Y15680D01*
X18445Y10814D02*
X18245Y11214D01*
X18645D01*
X18445Y10814D01*
X16161Y11335D02*
X15961Y11735D01*
X16361D01*
X16161Y11335D01*
X16732Y6389D02*
X16532Y6789D01*
X16932D01*
X16732Y6389D01*
X16535Y8511D02*
X16335Y8911D01*
X16735D01*
X16535Y8511D01*
X18843Y8272D02*
X18643Y8672D01*
X19043D01*
X18843Y8272D01*
X18287Y6389D02*
X18087Y6789D01*
X18487D01*
X18287Y6389D01*
X15049Y5814D02*
X14849Y6214D01*
X15249D01*
X15049Y5814D01*
X15098Y1267D02*
X14898Y1667D01*
X15298D01*
X15098Y1267D01*
X18504Y1575D02*
X18304Y1975D01*
X18704D01*
X18504Y1575D01*
X21102Y3255D02*
X20902Y3655D01*
X21302D01*
X21102Y3255D01*
X22037Y8914D02*
X21837Y9314D01*
X22237D01*
X22037Y8914D01*
Y8206D02*
X21837Y8606D01*
X22237D01*
X22037Y8206D01*
Y7497D02*
X21837Y7897D01*
X22237D01*
X22037Y7497D01*
X19961Y7501D02*
X19761Y7901D01*
X20161D01*
X19961Y7501D01*
Y7875D02*
X19761Y8275D01*
X20161D01*
X19961Y7875D01*
X9449Y2753D02*
X9249Y3153D01*
X9649D01*
X9449Y2753D01*
X9055Y902D02*
X8855Y1302D01*
X9255D01*
X9055Y902D01*
X16161Y5302D02*
X15961Y5702D01*
X16361D01*
X16161Y5302D01*
X14055Y2359D02*
X13855Y2759D01*
X14255D01*
X14055Y2359D01*
X18504Y546D02*
X18304Y946D01*
X18704D01*
X18504Y546D01*
X18291Y7898D02*
X18091Y8298D01*
X18491D01*
X18291Y7898D01*
Y8646D02*
X18091Y9046D01*
X18491D01*
X18291Y8646D01*
X18445Y9790D02*
X18245Y10190D01*
X18645D01*
X18445Y9790D01*
Y10046D02*
X18245Y10446D01*
X18645D01*
X18445Y10046D01*
Y10302D02*
X18245Y10702D01*
X18645D01*
X18445Y10302D01*
Y10558D02*
X18245Y10958D01*
X18645D01*
X18445Y10558D01*
X21051Y7143D02*
X20851Y7543D01*
X21251D01*
X21051Y7143D01*
Y7497D02*
X20851Y7897D01*
X21251D01*
X21051Y7497D01*
X17717Y546D02*
X17517Y946D01*
X17917D01*
X17717Y546D01*
X16142D02*
X15942Y946D01*
X16342D01*
X16142Y546D01*
X15354D02*
X15154Y946D01*
X15554D01*
X15354Y546D01*
X22559Y1906D02*
X22359Y2306D01*
X22759D01*
X22559Y1906D01*
X26043Y10924D02*
X25843Y11324D01*
X26243D01*
X26043Y10924D01*
Y11424D02*
X25843Y11824D01*
X26243D01*
X26043Y11424D01*
Y11924D02*
X25843Y12324D01*
X26243D01*
X26043Y11924D01*
X16949Y4534D02*
X16749Y4934D01*
X17149D01*
X16949Y4534D01*
X5453Y7924D02*
X5253Y8324D01*
X5653D01*
X5453Y7924D01*
X12598Y5981D02*
X12398Y6381D01*
X12798D01*
X12598Y5981D01*
X5453Y8424D02*
X5253Y8824D01*
X5653D01*
X5453Y8424D01*
X7559Y1572D02*
X7359Y1972D01*
X7759D01*
X7559Y1572D01*
X6890Y1178D02*
X6690Y1578D01*
X7090D01*
X6890Y1178D01*
X6693Y1375D02*
X6493Y1775D01*
X6893D01*
X6693Y1375D01*
X5453Y924D02*
X5253Y1324D01*
X5653D01*
X5453Y924D01*
X5452Y2424D02*
X5252Y2824D01*
X5652D01*
X5452Y2424D01*
X5453Y1924D02*
X5253Y2324D01*
X5653D01*
X5453Y1924D01*
Y6924D02*
X5253Y7324D01*
X5653D01*
X5453Y6924D01*
Y7424D02*
X5253Y7824D01*
X5653D01*
X5453Y7424D01*
Y1424D02*
X5253Y1824D01*
X5653D01*
X5453Y1424D01*
X7087Y2162D02*
X6887Y2562D01*
X7287D01*
X7087Y2162D01*
X7283Y1965D02*
X7083Y2365D01*
X7483D01*
X7283Y1965D01*
X2421Y12924D02*
X2221Y13324D01*
X2621D01*
X2421Y12924D01*
X29075Y13424D02*
X28875Y13824D01*
X29275D01*
X29075Y13424D01*
Y14424D02*
X28875Y14824D01*
X29275D01*
X29075Y14424D01*
X12992Y5981D02*
X12792Y6381D01*
X13192D01*
X12992Y5981D01*
X12795Y5785D02*
X12595Y6185D01*
X12995D01*
X12795Y5785D01*
X13859Y5312D02*
X13659Y5712D01*
X14059D01*
X13859Y5312D01*
X13189Y5785D02*
X12989Y6185D01*
X13389D01*
X13189Y5785D01*
X12402D02*
X12202Y6185D01*
X12602D01*
X12402Y5785D01*
X16949Y5302D02*
X16749Y5702D01*
X17149D01*
X16949Y5302D01*
X16161Y9534D02*
X15961Y9934D01*
X16361D01*
X16161Y9534D01*
Y9790D02*
X15961Y10190D01*
X16361D01*
X16161Y9790D01*
Y10046D02*
X15961Y10446D01*
X16361D01*
X16161Y10046D01*
Y10302D02*
X15961Y10702D01*
X16361D01*
X16161Y10302D01*
Y10814D02*
X15961Y11214D01*
X16361D01*
X16161Y10814D01*
Y11070D02*
X15961Y11470D01*
X16361D01*
X16161Y11070D01*
X16358Y4278D02*
X16158Y4678D01*
X16558D01*
X16358Y4278D01*
Y5046D02*
X16158Y5446D01*
X16558D01*
X16358Y5046D01*
X20157Y4101D02*
X19957Y4501D01*
X20357D01*
X20157Y4101D01*
X17697Y2546D02*
X17497Y2946D01*
X17897D01*
X17697Y2546D01*
Y2802D02*
X17497Y3202D01*
X17897D01*
X17697Y2802D01*
Y3058D02*
X17497Y3458D01*
X17897D01*
X17697Y3058D01*
X20157Y2851D02*
X19957Y3251D01*
X20357D01*
X20157Y2851D01*
X17697Y2290D02*
X17497Y2690D01*
X17897D01*
X17697Y2290D01*
X16161D02*
X15961Y2690D01*
X16361D01*
X16161Y2290D01*
Y2546D02*
X15961Y2946D01*
X16361D01*
X16161Y2546D01*
Y2802D02*
X15961Y3202D01*
X16361D01*
X16161Y2802D01*
Y3314D02*
X15961Y3714D01*
X16361D01*
X16161Y3314D01*
Y3058D02*
X15961Y3458D01*
X16361D01*
X16161Y3058D01*
X26043Y9424D02*
X25843Y9824D01*
X26243D01*
X26043Y9424D01*
Y9924D02*
X25843Y10324D01*
X26243D01*
X26043Y9924D01*
X22579Y10180D02*
X22379Y10580D01*
X22779D01*
X22579Y10180D01*
X19941Y9948D02*
X19741Y10348D01*
X20141D01*
X19941Y9948D01*
Y10450D02*
X19741Y10850D01*
X20141D01*
X19941Y10450D01*
Y11180D02*
X19741Y11580D01*
X20141D01*
X19941Y11180D01*
X21238Y11663D02*
X21038Y12063D01*
X21438D01*
X21238Y11663D01*
X19657Y11668D02*
X19457Y12068D01*
X19857D01*
X19657Y11668D01*
X22812Y11692D02*
X22613Y12092D01*
X23012D01*
X22812Y11692D01*
X19961Y961D02*
X19761Y1361D01*
X20161D01*
X19961Y961D01*
X26043Y7424D02*
X25843Y7824D01*
X26243D01*
X26043Y7424D01*
X20157Y3166D02*
X19957Y3566D01*
X20357D01*
X20157Y3166D01*
Y2536D02*
X19957Y2936D01*
X20357D01*
X20157Y2536D01*
X22559Y1591D02*
X22359Y1991D01*
X22759D01*
X22559Y1591D01*
Y1276D02*
X22359Y1676D01*
X22759D01*
X22559Y1276D01*
X26043Y6424D02*
X25843Y6824D01*
X26243D01*
X26043Y6424D01*
Y424D02*
X25843Y824D01*
X26243D01*
X26043Y424D01*
Y924D02*
X25843Y1324D01*
X26243D01*
X26043Y924D01*
Y1424D02*
X25843Y1824D01*
X26243D01*
X26043Y1424D01*
X20472Y765D02*
X20272Y1165D01*
X20672D01*
X20472Y765D01*
X20157D02*
X19957Y1165D01*
X20357D01*
X20157Y765D01*
X22559Y2221D02*
X22359Y2621D01*
X22759D01*
X22559Y2221D01*
X26043Y6924D02*
X25843Y7324D01*
X26243D01*
X26043Y6924D01*
X29075Y7424D02*
X28875Y7824D01*
X29275D01*
X29075Y7424D01*
Y6924D02*
X28875Y7324D01*
X29275D01*
X29075Y6924D01*
X8780Y4322D02*
X8580Y4722D01*
X8980D01*
X8780Y4322D01*
X2421Y6924D02*
X2221Y7324D01*
X2621D01*
X2421Y6924D01*
X2421Y7424D02*
X2221Y7824D01*
X2621D01*
X2421Y7424D01*
X8780Y4721D02*
X8580Y5121D01*
X8980D01*
X8780Y4721D01*
X9252Y5981D02*
X9052Y6381D01*
X9452D01*
X9252Y5981D01*
X10827Y706D02*
X10627Y1106D01*
X11027D01*
X10827Y706D01*
X10630Y902D02*
X10430Y1302D01*
X10830D01*
X10630Y902D01*
X10438Y706D02*
X10238Y1106D01*
X10638D01*
X10438Y706D01*
X10236Y902D02*
X10036Y1302D01*
X10436D01*
X10236Y902D01*
X10039Y706D02*
X9839Y1106D01*
X10239D01*
X10039Y706D01*
X9843Y902D02*
X9643Y1302D01*
X10043D01*
X9843Y902D01*
X9646Y706D02*
X9446Y1106D01*
X9846D01*
X9646Y706D01*
X2421Y8924D02*
X2221Y9324D01*
X2621D01*
X2421Y8924D01*
Y9424D02*
X2221Y9824D01*
X2621D01*
X2421Y9424D01*
Y9924D02*
X2221Y10324D01*
X2621D01*
X2421Y9924D01*
X2421Y10424D02*
X2221Y10824D01*
X2621D01*
X2421Y10424D01*
X2421Y10924D02*
X2221Y11324D01*
X2621D01*
X2421Y10924D01*
Y11424D02*
X2221Y11824D01*
X2621D01*
X2421Y11424D01*
Y11924D02*
X2221Y12324D01*
X2621D01*
X2421Y11924D01*
Y12424D02*
X2221Y12824D01*
X2621D01*
X2421Y12424D01*
X12598Y902D02*
X12398Y1302D01*
X12798D01*
X12598Y902D01*
X12402Y706D02*
X12202Y1106D01*
X12602D01*
X12402Y706D01*
X12205Y902D02*
X12005Y1302D01*
X12405D01*
X12205Y902D01*
X12013Y706D02*
X11813Y1106D01*
X12213D01*
X12013Y706D01*
X11811Y902D02*
X11611Y1302D01*
X12011D01*
X11811Y902D01*
X26043Y5924D02*
X25843Y6324D01*
X26243D01*
X26043Y5924D01*
Y5424D02*
X25843Y5824D01*
X26243D01*
X26043Y5424D01*
Y3924D02*
X25843Y4324D01*
X26243D01*
X26043Y3924D01*
Y4424D02*
X25843Y4824D01*
X26243D01*
X26043Y4424D01*
Y4924D02*
X25843Y5324D01*
X26243D01*
X26043Y4924D01*
X29075Y1924D02*
X28875Y2324D01*
X29275D01*
X29075Y1924D01*
X29094Y2424D02*
X28894Y2824D01*
X29294D01*
X29094Y2424D01*
X29075Y2924D02*
X28875Y3324D01*
X29275D01*
X29075Y2924D01*
Y3424D02*
X28875Y3824D01*
X29275D01*
X29075Y3424D01*
Y3924D02*
X28875Y4324D01*
X29275D01*
X29075Y3924D01*
Y4424D02*
X28875Y4824D01*
X29275D01*
X29075Y4424D01*
Y4924D02*
X28875Y5324D01*
X29275D01*
X29075Y4924D01*
Y5424D02*
X28875Y5824D01*
X29275D01*
X29075Y5424D01*
X10039Y5785D02*
X9839Y6185D01*
X10239D01*
X10039Y5785D01*
X13859Y3737D02*
X13659Y4137D01*
X14059D01*
X13859Y3737D01*
X9843Y5981D02*
X9643Y6381D01*
X10043D01*
X9843Y5981D01*
X13386D02*
X13186Y6381D01*
X13586D01*
X13386Y5981D01*
X13859Y1178D02*
X13659Y1578D01*
X14059D01*
X13859Y1178D01*
X14077Y981D02*
X13877Y1381D01*
X14277D01*
X14077Y981D01*
X13859Y1572D02*
X13659Y1972D01*
X14059D01*
X13859Y1572D01*
Y2950D02*
X13659Y3350D01*
X14059D01*
X13859Y2950D01*
Y3343D02*
X13659Y3743D01*
X14059D01*
X13859Y3343D01*
X14055Y2758D02*
X13855Y3158D01*
X14255D01*
X14055Y2758D01*
Y3146D02*
X13855Y3546D01*
X14255D01*
X14055Y3146D01*
X8973Y3346D02*
X8773Y3746D01*
X9173D01*
X8973Y3346D01*
X8777Y3538D02*
X8577Y3938D01*
X8977D01*
X8777Y3538D01*
Y3149D02*
X8577Y3549D01*
X8977D01*
X8777Y3149D01*
X8780Y3934D02*
X8580Y4334D01*
X8980D01*
X8780Y3934D01*
Y5115D02*
X8580Y5515D01*
X8980D01*
X8780Y5115D01*
X8976Y3737D02*
X8776Y4137D01*
X9176D01*
X8976Y3737D01*
Y4131D02*
X8776Y4531D01*
X9176D01*
X8976Y4131D01*
Y4524D02*
X8776Y4924D01*
X9176D01*
X8976Y4524D01*
Y4918D02*
X8776Y5318D01*
X9176D01*
X8976Y4918D01*
X8780Y1763D02*
X8580Y2163D01*
X8980D01*
X8780Y1763D01*
X9134Y2556D02*
X8934Y2956D01*
X9334D01*
X9134Y2556D01*
X8976Y2359D02*
X8776Y2759D01*
X9176D01*
X8976Y2359D01*
X11220Y706D02*
X11020Y1106D01*
X11420D01*
X11220Y706D01*
X11417Y902D02*
X11217Y1302D01*
X11617D01*
X11417Y902D01*
X11614Y706D02*
X11414Y1106D01*
X11814D01*
X11614Y706D01*
X11024Y902D02*
X10824Y1302D01*
X11224D01*
X11024Y902D01*
X14055Y5115D02*
X13855Y5515D01*
X14255D01*
X14055Y5115D01*
Y4726D02*
X13855Y5126D01*
X14255D01*
X14055Y4726D01*
Y3934D02*
X13855Y4334D01*
X14255D01*
X14055Y3934D01*
X13859Y4918D02*
X13659Y5318D01*
X14059D01*
X13859Y4918D01*
Y4524D02*
X13659Y4924D01*
X14059D01*
X13859Y4524D01*
Y4131D02*
X13659Y4531D01*
X14059D01*
X13859Y4131D01*
X14055Y4328D02*
X13855Y4728D01*
X14255D01*
X14055Y4328D01*
X11811Y5981D02*
X11611Y6381D01*
X12011D01*
X11811Y5981D01*
X12008Y5785D02*
X11808Y6185D01*
X12208D01*
X12008Y5785D01*
X11614D02*
X11414Y6185D01*
X11814D01*
X11614Y5785D01*
X11220D02*
X11020Y6185D01*
X11420D01*
X11220Y5785D01*
X10827D02*
X10627Y6185D01*
X11027D01*
X10827Y5785D01*
X2421Y424D02*
X2221Y824D01*
X2621D01*
X2421Y424D01*
Y924D02*
X2221Y1324D01*
X2621D01*
X2421Y924D01*
Y1424D02*
X2221Y1824D01*
X2621D01*
X2421Y1424D01*
X5453Y2924D02*
X5253Y3324D01*
X5653D01*
X5453Y2924D01*
Y3424D02*
X5253Y3824D01*
X5653D01*
X5453Y3424D01*
Y3924D02*
X5253Y4324D01*
X5653D01*
X5453Y3924D01*
Y4424D02*
X5253Y4824D01*
X5653D01*
X5453Y4424D01*
Y4924D02*
X5253Y5324D01*
X5653D01*
X5453Y4924D01*
Y5424D02*
X5253Y5824D01*
X5653D01*
X5453Y5424D01*
Y11424D02*
X5253Y11824D01*
X5653D01*
X5453Y11424D01*
Y11924D02*
X5253Y12324D01*
X5653D01*
X5453Y11924D01*
Y12424D02*
X5253Y12824D01*
X5653D01*
X5453Y12424D01*
X5453Y12924D02*
X5253Y13324D01*
X5653D01*
X5453Y12924D01*
X2421Y2424D02*
X2221Y2824D01*
X2621D01*
X2421Y2424D01*
Y4924D02*
X2221Y5324D01*
X2621D01*
X2421Y4924D01*
X26043Y2924D02*
X25843Y3324D01*
X26243D01*
X26043Y2924D01*
Y3424D02*
X25843Y3824D01*
X26243D01*
X26043Y3424D01*
Y13424D02*
X25843Y13824D01*
X26243D01*
X26043Y13424D01*
Y12424D02*
X25843Y12824D01*
X26243D01*
X26043Y12424D01*
X29075Y5924D02*
X28875Y6324D01*
X29275D01*
X29075Y5924D01*
X12205Y5981D02*
X12005Y6381D01*
X12405D01*
X12205Y5981D01*
X11412D02*
X11212Y6381D01*
X11612D01*
X11412Y5981D01*
X11024D02*
X10824Y6381D01*
X11224D01*
X11024Y5981D01*
X13780Y683D02*
X13580Y1083D01*
X13980D01*
X13780Y683D01*
X13386D02*
X13186Y1083D01*
X13586D01*
X13386Y683D01*
X13583Y902D02*
X13383Y1302D01*
X13783D01*
X13583Y902D01*
X5453Y10924D02*
X5253Y11324D01*
X5653D01*
X5453Y10924D01*
X5465Y10436D02*
X5265Y10836D01*
X5665D01*
X5465Y10436D01*
X2421Y2924D02*
X2221Y3324D01*
X2621D01*
X2421Y2924D01*
X13189Y902D02*
X12989Y1302D01*
X13389D01*
X13189Y902D01*
X12992Y683D02*
X12792Y1083D01*
X13192D01*
X12992Y683D01*
X5453Y5924D02*
X5253Y6324D01*
X5653D01*
X5453Y5924D01*
Y6424D02*
X5253Y6824D01*
X5653D01*
X5453Y6424D01*
Y8924D02*
X5253Y9324D01*
X5653D01*
X5453Y8924D01*
Y9424D02*
X5253Y9824D01*
X5653D01*
X5453Y9424D01*
Y9924D02*
X5253Y10324D01*
X5653D01*
X5453Y9924D01*
Y13424D02*
X5253Y13824D01*
X5653D01*
X5453Y13424D01*
Y14424D02*
X5253Y14824D01*
X5653D01*
X5453Y14424D01*
Y14924D02*
X5253Y15324D01*
X5653D01*
X5453Y14924D01*
X2421Y14424D02*
X2221Y14824D01*
X2621D01*
X2421Y14424D01*
Y13924D02*
X2221Y14324D01*
X2621D01*
X2421Y13924D01*
Y13424D02*
X2221Y13824D01*
X2621D01*
X2421Y13424D01*
Y8424D02*
X2221Y8824D01*
X2621D01*
X2421Y8424D01*
Y7924D02*
X2221Y8324D01*
X2621D01*
X2421Y7924D01*
Y6424D02*
X2221Y6824D01*
X2621D01*
X2421Y6424D01*
Y5924D02*
X2221Y6324D01*
X2621D01*
X2421Y5924D01*
Y5424D02*
X2221Y5824D01*
X2621D01*
X2421Y5424D01*
Y4424D02*
X2221Y4824D01*
X2621D01*
X2421Y4424D01*
Y3924D02*
X2221Y4324D01*
X2621D01*
X2421Y3924D01*
Y3424D02*
X2221Y3824D01*
X2621D01*
X2421Y3424D01*
X26043Y2424D02*
X25843Y2824D01*
X26243D01*
X26043Y2424D01*
Y7924D02*
X25843Y8324D01*
X26243D01*
X26043Y7924D01*
Y8424D02*
X25843Y8824D01*
X26243D01*
X26043Y8424D01*
Y8924D02*
X25843Y9324D01*
X26243D01*
X26043Y8924D01*
Y10424D02*
X25843Y10824D01*
X26243D01*
X26043Y10424D01*
Y12924D02*
X25843Y13324D01*
X26243D01*
X26043Y12924D01*
Y13924D02*
X25843Y14324D01*
X26243D01*
X26043Y13924D01*
Y14424D02*
X25843Y14824D01*
X26243D01*
X26043Y14424D01*
X29075Y14924D02*
X28875Y15324D01*
X29275D01*
X29075Y14924D01*
Y924D02*
X28875Y1324D01*
X29275D01*
X29075Y924D01*
Y1424D02*
X28875Y1824D01*
X29275D01*
X29075Y1424D01*
Y6424D02*
X28875Y6824D01*
X29275D01*
X29075Y6424D01*
Y7924D02*
X28875Y8324D01*
X29275D01*
X29075Y7924D01*
Y8424D02*
X28875Y8824D01*
X29275D01*
X29075Y8424D01*
Y8924D02*
X28875Y9324D01*
X29275D01*
X29075Y8924D01*
Y9424D02*
X28875Y9824D01*
X29275D01*
X29075Y9424D01*
Y9924D02*
X28875Y10324D01*
X29275D01*
X29075Y9924D01*
Y10424D02*
X28875Y10824D01*
X29275D01*
X29075Y10424D01*
Y10924D02*
X28875Y11324D01*
X29275D01*
X29075Y10924D01*
Y11424D02*
X28875Y11824D01*
X29275D01*
X29075Y11424D01*
Y11924D02*
X28875Y12324D01*
X29275D01*
X29075Y11924D01*
Y12424D02*
X28875Y12824D01*
X29275D01*
X29075Y12424D01*
Y12924D02*
X28875Y13324D01*
X29275D01*
X29075Y12924D01*
M02*
