G04*
G04 #@! TF.GenerationSoftware,Altium Limited,Altium Designer,20.0.13 (296)*
G04*
G04 Layer_Color=16711935*
%FSLAX24Y24*%
%MOIN*%
G70*
G01*
G75*
%ADD39R,0.0394X1.5748*%
%ADD43R,0.0193X0.0213*%
%ADD44R,0.0213X0.0193*%
%ADD48R,0.0323X0.0205*%
%ADD50R,0.0165X0.0165*%
%ADD51R,0.0165X0.0165*%
%ADD59R,0.0205X0.0323*%
%ADD62C,0.0295*%
%ADD63C,0.1976*%
%ADD82R,3.1500X0.0394*%
%ADD83R,3.1500X0.0394*%
%ADD84R,0.1139X0.0332*%
%ADD85R,0.0244X0.0165*%
%ADD86R,0.1661X0.1346*%
%ADD87R,0.0579X0.0795*%
%ADD88R,0.0323X0.0598*%
%ADD89R,0.0173X0.0173*%
%ADD90R,0.0173X0.0173*%
%ADD91R,0.0205X0.0244*%
%ADD92R,0.0283X0.0205*%
%ADD93C,0.0402*%
%ADD94R,0.0618X0.0244*%
%ADD95R,0.0402X0.0185*%
%ADD96R,0.0717X0.0559*%
%ADD97R,0.0520X0.0205*%
%ADD98R,0.0205X0.0520*%
%ADD99R,0.0126X0.0402*%
%ADD100R,0.0402X0.0126*%
%ADD101R,0.1106X0.0299*%
D39*
X32283Y7874D02*
D03*
X-787D02*
D03*
D43*
X15016Y11132D02*
D03*
X15354D02*
D03*
X15016Y10738D02*
D03*
X15354D02*
D03*
X19319Y12242D02*
D03*
X19657D02*
D03*
X22807Y13772D02*
D03*
X22469D02*
D03*
X22807Y12772D02*
D03*
X22469D02*
D03*
X18165Y15521D02*
D03*
X17827D02*
D03*
X18165Y15124D02*
D03*
X17827D02*
D03*
X21232Y13742D02*
D03*
X20894D02*
D03*
X21232Y12742D02*
D03*
X20894D02*
D03*
Y12242D02*
D03*
X21232D02*
D03*
X18165Y15917D02*
D03*
X17827D02*
D03*
X19657Y13742D02*
D03*
X19319D02*
D03*
X19657Y12742D02*
D03*
X19319D02*
D03*
X22469Y12272D02*
D03*
X22807D02*
D03*
X19346Y11380D02*
D03*
X19685D02*
D03*
X19346Y10880D02*
D03*
X19685D02*
D03*
X19346Y10380D02*
D03*
X19685D02*
D03*
X19346Y9880D02*
D03*
X19685D02*
D03*
X19346Y8098D02*
D03*
X19685D02*
D03*
X18504Y8098D02*
D03*
X18843D02*
D03*
X21394Y7343D02*
D03*
X21732D02*
D03*
X21394Y7697D02*
D03*
X21732D02*
D03*
X21394Y8760D02*
D03*
X21732D02*
D03*
X19346Y7705D02*
D03*
X19685D02*
D03*
X21394Y9114D02*
D03*
X21732D02*
D03*
X15016Y11526D02*
D03*
X15354D02*
D03*
X18504Y8846D02*
D03*
X18843D02*
D03*
X21394Y8406D02*
D03*
X21732D02*
D03*
X15016Y13742D02*
D03*
X15354D02*
D03*
Y12242D02*
D03*
X15016D02*
D03*
X15354Y12742D02*
D03*
X15016D02*
D03*
X21394Y8051D02*
D03*
X21732D02*
D03*
X12654Y0D02*
D03*
X12992D02*
D03*
X1799Y6124D02*
D03*
X2138D02*
D03*
X1799Y5624D02*
D03*
X2138D02*
D03*
X1799Y5124D02*
D03*
X2138D02*
D03*
X1799Y4624D02*
D03*
X2138D02*
D03*
X1799Y4124D02*
D03*
X2138D02*
D03*
X1799Y3624D02*
D03*
X2138D02*
D03*
X1799Y3124D02*
D03*
X2138D02*
D03*
X1799Y2624D02*
D03*
X2138D02*
D03*
X21102Y4528D02*
D03*
X20764D02*
D03*
X21732D02*
D03*
X21394D02*
D03*
X22047Y0D02*
D03*
X21709D02*
D03*
X29358Y1124D02*
D03*
X29697D02*
D03*
X29358Y1624D02*
D03*
X29697D02*
D03*
X29358Y2124D02*
D03*
X29697D02*
D03*
X29358Y2624D02*
D03*
X29697D02*
D03*
X29358Y3124D02*
D03*
X29697D02*
D03*
X29358Y3624D02*
D03*
X29697D02*
D03*
X29358Y4124D02*
D03*
X29697D02*
D03*
X29358Y4624D02*
D03*
X29697D02*
D03*
X29358Y5124D02*
D03*
X29697D02*
D03*
X29358Y5624D02*
D03*
X29697D02*
D03*
X29358Y6124D02*
D03*
X29697D02*
D03*
X29358Y6624D02*
D03*
X29697D02*
D03*
X29358Y7124D02*
D03*
X29697D02*
D03*
X29358Y7624D02*
D03*
X29697D02*
D03*
X29358Y8124D02*
D03*
X29697D02*
D03*
X29358Y8624D02*
D03*
X29697D02*
D03*
X29358Y9124D02*
D03*
X29697D02*
D03*
X29358Y9624D02*
D03*
X29697D02*
D03*
X29358Y10124D02*
D03*
X29697D02*
D03*
X29358Y10624D02*
D03*
X29697D02*
D03*
X29358Y11124D02*
D03*
X29697D02*
D03*
X29358Y11624D02*
D03*
X29697D02*
D03*
X29358Y12124D02*
D03*
X29697D02*
D03*
X29358Y12624D02*
D03*
X29697D02*
D03*
X29358Y13124D02*
D03*
X29697D02*
D03*
X29358Y13624D02*
D03*
X29697D02*
D03*
X29358Y14624D02*
D03*
X29697D02*
D03*
X29358Y15124D02*
D03*
X29697D02*
D03*
X25760Y624D02*
D03*
X25421D02*
D03*
X25760Y1124D02*
D03*
X25421D02*
D03*
X25760Y1624D02*
D03*
X25421D02*
D03*
X25760Y2624D02*
D03*
X25421D02*
D03*
X25760Y3124D02*
D03*
X25421D02*
D03*
X25760Y3624D02*
D03*
X25421D02*
D03*
X25760Y4124D02*
D03*
X25421D02*
D03*
X25760Y4624D02*
D03*
X25421D02*
D03*
X25760Y5124D02*
D03*
X25421D02*
D03*
X25760Y5624D02*
D03*
X25421D02*
D03*
X25760Y6124D02*
D03*
X25421D02*
D03*
X25760Y6624D02*
D03*
X25421D02*
D03*
X25760Y7124D02*
D03*
X25421D02*
D03*
X25760Y7624D02*
D03*
X25421D02*
D03*
X25760Y8124D02*
D03*
X25421D02*
D03*
X25760Y8624D02*
D03*
X25421D02*
D03*
X25760Y9124D02*
D03*
X25421D02*
D03*
X25760Y9624D02*
D03*
X25421D02*
D03*
X25760Y10124D02*
D03*
X25421D02*
D03*
X25760Y10624D02*
D03*
X25421D02*
D03*
X25760Y11124D02*
D03*
X25421D02*
D03*
X25760Y11624D02*
D03*
X25421D02*
D03*
X25760Y12124D02*
D03*
X25421D02*
D03*
X25760Y12624D02*
D03*
X25421D02*
D03*
X25760Y13124D02*
D03*
X25421D02*
D03*
X25760Y13624D02*
D03*
X25421D02*
D03*
X25760Y14124D02*
D03*
X25421D02*
D03*
X25760Y14624D02*
D03*
X25421D02*
D03*
X5736Y1124D02*
D03*
X6075D02*
D03*
X5736Y1624D02*
D03*
X6075D02*
D03*
X5736Y2124D02*
D03*
X6075D02*
D03*
X5736Y2624D02*
D03*
X6075D02*
D03*
X5736Y3124D02*
D03*
X6075D02*
D03*
X5736Y3624D02*
D03*
X6075D02*
D03*
X5736Y4124D02*
D03*
X6075D02*
D03*
X5736Y4624D02*
D03*
X6075D02*
D03*
X5736Y5124D02*
D03*
X6075D02*
D03*
X5736Y5624D02*
D03*
X6075D02*
D03*
X5736Y6124D02*
D03*
X6075D02*
D03*
X5736Y6624D02*
D03*
X6075D02*
D03*
X5736Y7124D02*
D03*
X6075D02*
D03*
X5736Y8624D02*
D03*
X6075D02*
D03*
X5736Y9124D02*
D03*
X6075D02*
D03*
X5736Y9624D02*
D03*
X6075D02*
D03*
X5736Y14624D02*
D03*
X6075D02*
D03*
X5736Y15124D02*
D03*
X6075D02*
D03*
X2138Y624D02*
D03*
X1799D02*
D03*
X2138Y1124D02*
D03*
X1799D02*
D03*
X2138Y1624D02*
D03*
X1799D02*
D03*
X2138Y6624D02*
D03*
X1799D02*
D03*
X2138Y7124D02*
D03*
X1799D02*
D03*
X2138Y7624D02*
D03*
X1799D02*
D03*
X2138Y8124D02*
D03*
X1799D02*
D03*
X2138Y8624D02*
D03*
X1799D02*
D03*
X2138Y14624D02*
D03*
X1799D02*
D03*
X2138Y14124D02*
D03*
X1799D02*
D03*
X2138Y13624D02*
D03*
X1799D02*
D03*
X2138Y13124D02*
D03*
X1799D02*
D03*
X5736Y8124D02*
D03*
X6075D02*
D03*
X5736Y7624D02*
D03*
X6075D02*
D03*
X2138Y12624D02*
D03*
X1799D02*
D03*
X2138Y12124D02*
D03*
X1799D02*
D03*
X2138Y11624D02*
D03*
X1799D02*
D03*
X2138Y11124D02*
D03*
X1799D02*
D03*
X2138Y10624D02*
D03*
X1799D02*
D03*
X2138Y10124D02*
D03*
X1799D02*
D03*
X2138Y9624D02*
D03*
X1799D02*
D03*
X2138Y9124D02*
D03*
X1799D02*
D03*
X5736Y13124D02*
D03*
X6075D02*
D03*
X5736Y12624D02*
D03*
X6075D02*
D03*
X5736Y12124D02*
D03*
X6075D02*
D03*
X5736Y11624D02*
D03*
X6075D02*
D03*
X5736Y11124D02*
D03*
X6075D02*
D03*
X5736Y10624D02*
D03*
X6075D02*
D03*
X5736Y10124D02*
D03*
X6075D02*
D03*
X5736Y13624D02*
D03*
X6075D02*
D03*
D44*
X15354Y15880D02*
D03*
Y15541D02*
D03*
X10589Y15917D02*
D03*
Y15579D02*
D03*
X11455D02*
D03*
Y15917D02*
D03*
X12754D02*
D03*
Y15579D02*
D03*
X11888Y15917D02*
D03*
Y15579D02*
D03*
X11022Y15917D02*
D03*
Y15579D02*
D03*
X22835Y10718D02*
D03*
Y10380D02*
D03*
X16535Y8098D02*
D03*
Y8437D02*
D03*
X9646Y7087D02*
D03*
Y7425D02*
D03*
X9252D02*
D03*
Y7087D02*
D03*
X7874Y2953D02*
D03*
Y3291D02*
D03*
X14961Y4276D02*
D03*
Y3937D02*
D03*
X18504Y1467D02*
D03*
Y1128D02*
D03*
X15354Y1467D02*
D03*
Y1128D02*
D03*
Y3175D02*
D03*
Y3514D02*
D03*
X14961D02*
D03*
Y3175D02*
D03*
X15354Y5675D02*
D03*
Y6014D02*
D03*
X18504D02*
D03*
Y5675D02*
D03*
X18898Y6014D02*
D03*
Y5675D02*
D03*
X19685Y6547D02*
D03*
Y6209D02*
D03*
X22835Y5602D02*
D03*
Y5264D02*
D03*
X18898Y2421D02*
D03*
Y2083D02*
D03*
X18504D02*
D03*
Y2421D02*
D03*
X16929Y6589D02*
D03*
Y6927D02*
D03*
X18504D02*
D03*
Y6589D02*
D03*
X15354Y7585D02*
D03*
Y7246D02*
D03*
X16161Y8098D02*
D03*
Y8437D02*
D03*
X18504Y7246D02*
D03*
Y7585D02*
D03*
X15354Y6589D02*
D03*
Y6927D02*
D03*
X15354Y8098D02*
D03*
Y8437D02*
D03*
X15787Y8098D02*
D03*
Y8437D02*
D03*
X10039Y7087D02*
D03*
Y7425D02*
D03*
X13780Y7232D02*
D03*
Y7571D02*
D03*
X10630Y8177D02*
D03*
Y8516D02*
D03*
D48*
X18008Y8846D02*
D03*
Y8472D02*
D03*
Y8098D02*
D03*
X16984D02*
D03*
Y8846D02*
D03*
D50*
X21063Y13419D02*
D03*
X20325Y9114D02*
D03*
D51*
X20177Y8760D02*
D03*
X20472D02*
D03*
D59*
X15973Y15185D02*
D03*
Y15815D02*
D03*
X16327D02*
D03*
Y15185D02*
D03*
X18071Y6654D02*
D03*
X17697D02*
D03*
X17323D02*
D03*
Y7520D02*
D03*
X18071D02*
D03*
X17697D02*
D03*
X16535Y6654D02*
D03*
X16161D02*
D03*
X15787D02*
D03*
Y7520D02*
D03*
X16535D02*
D03*
X16161D02*
D03*
D62*
X16523Y-787D02*
D03*
X16917D02*
D03*
X17310D02*
D03*
X17704D02*
D03*
X18098D02*
D03*
X26365D02*
D03*
X26759D02*
D03*
X27153D02*
D03*
X27546D02*
D03*
X27940D02*
D03*
X28334D02*
D03*
X28728D02*
D03*
X29121D02*
D03*
X29515D02*
D03*
X29909D02*
D03*
X30302D02*
D03*
X30696D02*
D03*
X25972D02*
D03*
X25578D02*
D03*
X25184D02*
D03*
X24791D02*
D03*
X24397D02*
D03*
X24003D02*
D03*
X23609D02*
D03*
X23216D02*
D03*
X22822D02*
D03*
X22428D02*
D03*
X22035D02*
D03*
X21641D02*
D03*
X21247D02*
D03*
X20854D02*
D03*
X20460D02*
D03*
X20066D02*
D03*
X19672D02*
D03*
X19279D02*
D03*
X18885D02*
D03*
X18491D02*
D03*
X2350D02*
D03*
X2743D02*
D03*
X3137D02*
D03*
X3531D02*
D03*
X3924D02*
D03*
X12192D02*
D03*
X12586D02*
D03*
X12980D02*
D03*
X13373D02*
D03*
X13767D02*
D03*
X14161D02*
D03*
X14554D02*
D03*
X14948D02*
D03*
X15342D02*
D03*
X15735D02*
D03*
X16129D02*
D03*
X11798D02*
D03*
X11405D02*
D03*
X11011D02*
D03*
X10617D02*
D03*
X10224D02*
D03*
X9830D02*
D03*
X9436D02*
D03*
X9043D02*
D03*
X8649D02*
D03*
X8255D02*
D03*
X7861D02*
D03*
X7468D02*
D03*
X7074D02*
D03*
X6680D02*
D03*
X6287D02*
D03*
X5893D02*
D03*
X5499D02*
D03*
X5106D02*
D03*
X4712D02*
D03*
X4318D02*
D03*
X1169D02*
D03*
X1562D02*
D03*
X1956D02*
D03*
X775D02*
D03*
X30721Y16535D02*
D03*
X29540D02*
D03*
X29934D02*
D03*
X30328D02*
D03*
X27178D02*
D03*
X26784D02*
D03*
X26391D02*
D03*
X25997D02*
D03*
X25603D02*
D03*
X25209D02*
D03*
X24816D02*
D03*
X24422D02*
D03*
X24028D02*
D03*
X23635D02*
D03*
X23241D02*
D03*
X22847D02*
D03*
X22454D02*
D03*
X22060D02*
D03*
X21666D02*
D03*
X21272D02*
D03*
X20879D02*
D03*
X20485D02*
D03*
X20091D02*
D03*
X19698D02*
D03*
X15367D02*
D03*
X15761D02*
D03*
X16154D02*
D03*
X16548D02*
D03*
X16942D02*
D03*
X17335D02*
D03*
X17729D02*
D03*
X18123D02*
D03*
X18517D02*
D03*
X18910D02*
D03*
X19304D02*
D03*
X27572D02*
D03*
X27965D02*
D03*
X28359D02*
D03*
X28753D02*
D03*
X29146D02*
D03*
X13005D02*
D03*
X12611D02*
D03*
X12217D02*
D03*
X11824D02*
D03*
X11430D02*
D03*
X11036D02*
D03*
X10643D02*
D03*
X10249D02*
D03*
X9855D02*
D03*
X9461D02*
D03*
X9068D02*
D03*
X8674D02*
D03*
X8280D02*
D03*
X7887D02*
D03*
X7493D02*
D03*
X7099D02*
D03*
X6706D02*
D03*
X6312D02*
D03*
X5918D02*
D03*
X5524D02*
D03*
X800D02*
D03*
X1194D02*
D03*
X1587D02*
D03*
X1981D02*
D03*
X2375D02*
D03*
X2768D02*
D03*
X3162D02*
D03*
X3556D02*
D03*
X3950D02*
D03*
X4343D02*
D03*
X4737D02*
D03*
X5131D02*
D03*
X13398D02*
D03*
X13792D02*
D03*
X14186D02*
D03*
X14580D02*
D03*
X14973D02*
D03*
X32283Y12992D02*
D03*
Y12598D02*
D03*
Y12205D02*
D03*
Y11811D02*
D03*
Y11417D02*
D03*
Y11024D02*
D03*
Y10630D02*
D03*
Y10236D02*
D03*
Y9843D02*
D03*
Y9449D02*
D03*
Y9055D02*
D03*
Y8661D02*
D03*
Y8268D02*
D03*
Y7874D02*
D03*
Y7480D02*
D03*
Y7087D02*
D03*
Y6693D02*
D03*
Y6299D02*
D03*
Y5906D02*
D03*
Y5512D02*
D03*
Y787D02*
D03*
Y1181D02*
D03*
Y1575D02*
D03*
Y1969D02*
D03*
Y2362D02*
D03*
Y2756D02*
D03*
Y3150D02*
D03*
Y3543D02*
D03*
Y3937D02*
D03*
Y4331D02*
D03*
Y4724D02*
D03*
Y5118D02*
D03*
Y13386D02*
D03*
Y13780D02*
D03*
Y14173D02*
D03*
Y14567D02*
D03*
Y14961D02*
D03*
X-787Y787D02*
D03*
Y1181D02*
D03*
Y1575D02*
D03*
Y1969D02*
D03*
Y2362D02*
D03*
Y10630D02*
D03*
Y11024D02*
D03*
Y11417D02*
D03*
Y11811D02*
D03*
Y12205D02*
D03*
Y12598D02*
D03*
Y12992D02*
D03*
Y13386D02*
D03*
Y13780D02*
D03*
Y14173D02*
D03*
Y14567D02*
D03*
Y14961D02*
D03*
Y10236D02*
D03*
Y9843D02*
D03*
Y9449D02*
D03*
Y9055D02*
D03*
Y8661D02*
D03*
Y8268D02*
D03*
Y7874D02*
D03*
Y7480D02*
D03*
Y7087D02*
D03*
Y6693D02*
D03*
Y6299D02*
D03*
Y5906D02*
D03*
Y5512D02*
D03*
Y5118D02*
D03*
Y4724D02*
D03*
Y4331D02*
D03*
Y3937D02*
D03*
Y3543D02*
D03*
Y3150D02*
D03*
Y2756D02*
D03*
D63*
X31496Y15748D02*
D03*
Y0D02*
D03*
X0Y15748D02*
D03*
Y0D02*
D03*
D82*
X15748Y-787D02*
D03*
D83*
X15750Y16535D02*
D03*
D84*
X28359Y15124D02*
D03*
X26759D02*
D03*
X28359Y14624D02*
D03*
X26759D02*
D03*
X28359Y14124D02*
D03*
X26759D02*
D03*
X28359Y13624D02*
D03*
X26759D02*
D03*
X28359Y13124D02*
D03*
X26759D02*
D03*
X28359Y12624D02*
D03*
X26759D02*
D03*
X28359Y12124D02*
D03*
X26759D02*
D03*
X28359Y11624D02*
D03*
X26759D02*
D03*
X28359Y11124D02*
D03*
X26759D02*
D03*
X28359Y10624D02*
D03*
X26759D02*
D03*
X28359Y10124D02*
D03*
X26759D02*
D03*
X28359Y9624D02*
D03*
X26759D02*
D03*
X28359Y9124D02*
D03*
X26759D02*
D03*
X28359Y8624D02*
D03*
X26759D02*
D03*
X28359Y8124D02*
D03*
X26759D02*
D03*
X28359Y7624D02*
D03*
X26759D02*
D03*
X28359Y7124D02*
D03*
X26759D02*
D03*
X28359Y6624D02*
D03*
X26759D02*
D03*
X28359Y6124D02*
D03*
X26759D02*
D03*
X28359Y5624D02*
D03*
X26759D02*
D03*
X28359Y5124D02*
D03*
X26759D02*
D03*
X28359Y4624D02*
D03*
X26759D02*
D03*
X28359Y4124D02*
D03*
X26759D02*
D03*
X28359Y3624D02*
D03*
X26759D02*
D03*
X28359Y3124D02*
D03*
X26759D02*
D03*
X28359Y2624D02*
D03*
X26759D02*
D03*
X28359Y2124D02*
D03*
X26759D02*
D03*
X28359Y1624D02*
D03*
X26759D02*
D03*
X28359Y1124D02*
D03*
X26759D02*
D03*
X28359Y624D02*
D03*
X26759D02*
D03*
X4737Y15124D02*
D03*
X3137D02*
D03*
X4737Y14624D02*
D03*
X3137D02*
D03*
X4737Y14124D02*
D03*
X3137D02*
D03*
X4737Y13624D02*
D03*
X3137D02*
D03*
X4737Y13124D02*
D03*
X3137D02*
D03*
X4737Y12624D02*
D03*
X3137D02*
D03*
X4737Y12124D02*
D03*
X3137D02*
D03*
X4737Y11624D02*
D03*
X3137D02*
D03*
X4737Y11124D02*
D03*
X3137D02*
D03*
X4737Y10624D02*
D03*
X3137D02*
D03*
X4737Y10124D02*
D03*
X3137D02*
D03*
X4737Y9624D02*
D03*
X3137D02*
D03*
X4737Y9124D02*
D03*
X3137D02*
D03*
X4737Y8624D02*
D03*
X3137D02*
D03*
X4737Y8124D02*
D03*
X3137D02*
D03*
X4737Y7624D02*
D03*
X3137D02*
D03*
X4737Y7124D02*
D03*
X3137D02*
D03*
X4737Y6624D02*
D03*
X3137D02*
D03*
X4737Y6124D02*
D03*
X3137D02*
D03*
X4737Y5624D02*
D03*
X3137D02*
D03*
X4737Y5124D02*
D03*
X3137D02*
D03*
X4737Y4624D02*
D03*
X3137D02*
D03*
X4737Y4124D02*
D03*
X3137D02*
D03*
X4737Y3624D02*
D03*
X3137D02*
D03*
X4737Y3124D02*
D03*
X3137D02*
D03*
X4737Y2624D02*
D03*
X3137D02*
D03*
X4737Y2124D02*
D03*
X3137D02*
D03*
X4737Y1624D02*
D03*
X3137D02*
D03*
X4737Y1124D02*
D03*
X3137D02*
D03*
X4737Y624D02*
D03*
X3137D02*
D03*
D85*
X22323Y9880D02*
D03*
Y10380D02*
D03*
Y10880D02*
D03*
Y11380D02*
D03*
X20197D02*
D03*
Y10880D02*
D03*
Y10380D02*
D03*
Y9880D02*
D03*
D86*
X21260Y10630D02*
D03*
D87*
X8711Y10197D02*
D03*
X14124D02*
D03*
Y13465D02*
D03*
X8711D02*
D03*
D88*
X13187Y11220D02*
D03*
X12754D02*
D03*
X12321D02*
D03*
X10156D02*
D03*
X10589D02*
D03*
X11022D02*
D03*
X11888D02*
D03*
X11455D02*
D03*
D89*
X20915Y13065D02*
D03*
X21211D02*
D03*
X19341D02*
D03*
X19636D02*
D03*
X22490Y13094D02*
D03*
X22785D02*
D03*
D90*
X19488Y13419D02*
D03*
X22638Y13449D02*
D03*
D91*
X19701Y8846D02*
D03*
X19346D02*
D03*
D92*
X20236Y8406D02*
D03*
Y8051D02*
D03*
Y7697D02*
D03*
Y7343D02*
D03*
X20709D02*
D03*
Y7697D02*
D03*
Y8051D02*
D03*
Y8406D02*
D03*
D93*
X18504Y394D02*
D03*
X16929D02*
D03*
X17717D02*
D03*
X15354D02*
D03*
X16142D02*
D03*
D94*
X15866Y13742D02*
D03*
Y13242D02*
D03*
Y12742D02*
D03*
Y12242D02*
D03*
X17992D02*
D03*
Y12742D02*
D03*
Y13242D02*
D03*
Y13742D02*
D03*
D95*
X18071Y11526D02*
D03*
Y9734D02*
D03*
Y9990D02*
D03*
Y10246D02*
D03*
Y10502D02*
D03*
Y11270D02*
D03*
Y11014D02*
D03*
Y10758D02*
D03*
X15787Y11526D02*
D03*
Y9734D02*
D03*
Y9990D02*
D03*
Y10246D02*
D03*
Y10502D02*
D03*
Y11270D02*
D03*
Y11014D02*
D03*
Y10758D02*
D03*
Y5246D02*
D03*
Y5502D02*
D03*
Y5758D02*
D03*
Y4990D02*
D03*
Y4734D02*
D03*
Y4478D02*
D03*
Y4222D02*
D03*
Y6014D02*
D03*
X18071Y5246D02*
D03*
Y5502D02*
D03*
Y5758D02*
D03*
Y4990D02*
D03*
Y4734D02*
D03*
Y4478D02*
D03*
Y4222D02*
D03*
Y6014D02*
D03*
Y3514D02*
D03*
X15787D02*
D03*
X18071Y1211D02*
D03*
X15787D02*
D03*
Y1467D02*
D03*
Y3258D02*
D03*
Y3002D02*
D03*
Y2746D02*
D03*
Y2490D02*
D03*
Y1722D02*
D03*
Y1978D02*
D03*
Y2234D02*
D03*
X18071Y1467D02*
D03*
Y3258D02*
D03*
Y3002D02*
D03*
Y2746D02*
D03*
Y2490D02*
D03*
Y1722D02*
D03*
Y1978D02*
D03*
Y2234D02*
D03*
D96*
X22126Y6378D02*
D03*
X20394D02*
D03*
Y5433D02*
D03*
X22126D02*
D03*
X11339Y8346D02*
D03*
X13071D02*
D03*
Y7402D02*
D03*
X11339D02*
D03*
D97*
X19587Y3366D02*
D03*
Y3051D02*
D03*
Y2736D02*
D03*
Y2421D02*
D03*
Y2106D02*
D03*
Y1791D02*
D03*
Y1476D02*
D03*
Y1161D02*
D03*
X22933D02*
D03*
Y1476D02*
D03*
Y1791D02*
D03*
Y2106D02*
D03*
Y2421D02*
D03*
Y2736D02*
D03*
Y3051D02*
D03*
Y3366D02*
D03*
D98*
X20157Y591D02*
D03*
X20472D02*
D03*
X20787D02*
D03*
X21102D02*
D03*
X21417D02*
D03*
X21732D02*
D03*
X22047D02*
D03*
X22362D02*
D03*
Y3937D02*
D03*
X22047D02*
D03*
X21732D02*
D03*
X21417D02*
D03*
X21102D02*
D03*
X20787D02*
D03*
X20472D02*
D03*
X20157D02*
D03*
D99*
X9055Y531D02*
D03*
X9252D02*
D03*
X9449D02*
D03*
X9646D02*
D03*
X9843D02*
D03*
X10039D02*
D03*
X10236D02*
D03*
X10433D02*
D03*
X10630D02*
D03*
X10827D02*
D03*
X11024D02*
D03*
X11220D02*
D03*
X11417D02*
D03*
X11614D02*
D03*
X11811D02*
D03*
X12008D02*
D03*
X12205D02*
D03*
X12402D02*
D03*
X12598D02*
D03*
X12795D02*
D03*
X12992D02*
D03*
X13189D02*
D03*
X13386D02*
D03*
X13583D02*
D03*
X13780D02*
D03*
Y6555D02*
D03*
X13583D02*
D03*
X13386D02*
D03*
X13189D02*
D03*
X12992D02*
D03*
X12795D02*
D03*
X12598D02*
D03*
X12402D02*
D03*
X12205D02*
D03*
X12008D02*
D03*
X11811D02*
D03*
X11614D02*
D03*
X11417D02*
D03*
X11220D02*
D03*
X11024D02*
D03*
X10827D02*
D03*
X10630D02*
D03*
X10433D02*
D03*
X10236D02*
D03*
X10039D02*
D03*
X9843D02*
D03*
X9646D02*
D03*
X9449D02*
D03*
X9252D02*
D03*
X9055D02*
D03*
D100*
X14429Y1181D02*
D03*
Y1378D02*
D03*
Y1575D02*
D03*
Y1772D02*
D03*
Y1969D02*
D03*
Y2165D02*
D03*
Y2362D02*
D03*
Y2559D02*
D03*
Y2756D02*
D03*
Y2953D02*
D03*
Y3150D02*
D03*
Y3346D02*
D03*
Y3543D02*
D03*
Y3740D02*
D03*
Y3937D02*
D03*
Y4134D02*
D03*
Y4331D02*
D03*
Y4528D02*
D03*
Y4724D02*
D03*
Y4921D02*
D03*
Y5118D02*
D03*
Y5315D02*
D03*
Y5512D02*
D03*
Y5709D02*
D03*
Y5906D02*
D03*
X8406D02*
D03*
Y5709D02*
D03*
Y5512D02*
D03*
Y5315D02*
D03*
Y5118D02*
D03*
Y4921D02*
D03*
Y4724D02*
D03*
Y4528D02*
D03*
Y4331D02*
D03*
Y4134D02*
D03*
Y3937D02*
D03*
Y3740D02*
D03*
Y3543D02*
D03*
Y3346D02*
D03*
Y3150D02*
D03*
Y2953D02*
D03*
Y2756D02*
D03*
Y2559D02*
D03*
Y2362D02*
D03*
Y2165D02*
D03*
Y1969D02*
D03*
Y1772D02*
D03*
Y1575D02*
D03*
Y1378D02*
D03*
Y1181D02*
D03*
D101*
X28359Y15124D02*
D03*
X26759D02*
D03*
X28359Y14624D02*
D03*
X26759D02*
D03*
X28359Y14124D02*
D03*
X26759D02*
D03*
X28359Y13624D02*
D03*
X26759D02*
D03*
X28359Y13124D02*
D03*
X26759D02*
D03*
X28359Y12624D02*
D03*
X26759D02*
D03*
X28359Y12124D02*
D03*
X26759D02*
D03*
X28359Y11624D02*
D03*
X26759D02*
D03*
X28359Y11124D02*
D03*
X26759D02*
D03*
X28359Y10624D02*
D03*
X26759D02*
D03*
X28359Y10124D02*
D03*
X26759D02*
D03*
X28359Y9624D02*
D03*
X26759D02*
D03*
X28359Y9124D02*
D03*
X26759D02*
D03*
X28359Y8624D02*
D03*
X26759D02*
D03*
X28359Y8124D02*
D03*
X26759D02*
D03*
X28359Y7624D02*
D03*
X26759D02*
D03*
X28359Y7124D02*
D03*
X26759D02*
D03*
X28359Y6624D02*
D03*
X26759D02*
D03*
X28359Y6124D02*
D03*
X26759D02*
D03*
X28359Y5624D02*
D03*
X26759D02*
D03*
X28359Y5124D02*
D03*
X26759D02*
D03*
X28359Y4624D02*
D03*
X26759D02*
D03*
X28359Y4124D02*
D03*
X26759D02*
D03*
X28359Y3624D02*
D03*
X26759D02*
D03*
X28359Y3124D02*
D03*
X26759D02*
D03*
X28359Y2624D02*
D03*
X26759D02*
D03*
X28359Y2124D02*
D03*
X26759D02*
D03*
X28359Y1624D02*
D03*
X26759D02*
D03*
X28359Y1124D02*
D03*
X26759D02*
D03*
X28359Y624D02*
D03*
X26759D02*
D03*
X4737Y15124D02*
D03*
X3137D02*
D03*
X4737Y14624D02*
D03*
X3137D02*
D03*
X4737Y14124D02*
D03*
X3137D02*
D03*
X4737Y13624D02*
D03*
X3137D02*
D03*
X4737Y13124D02*
D03*
X3137D02*
D03*
X4737Y12624D02*
D03*
X3137D02*
D03*
X4737Y12124D02*
D03*
X3137D02*
D03*
X4737Y11624D02*
D03*
X3137D02*
D03*
X4737Y11124D02*
D03*
X3137D02*
D03*
X4737Y10624D02*
D03*
X3137D02*
D03*
X4737Y10124D02*
D03*
X3137D02*
D03*
X4737Y9624D02*
D03*
X3137D02*
D03*
X4737Y9124D02*
D03*
X3137D02*
D03*
X4737Y8624D02*
D03*
X3137D02*
D03*
X4737Y8124D02*
D03*
X3137D02*
D03*
X4737Y7624D02*
D03*
X3137D02*
D03*
X4737Y7124D02*
D03*
X3137D02*
D03*
X4737Y6624D02*
D03*
X3137D02*
D03*
X4737Y6124D02*
D03*
X3137D02*
D03*
X4737Y5624D02*
D03*
X3137D02*
D03*
X4737Y5124D02*
D03*
X3137D02*
D03*
X4737Y4624D02*
D03*
X3137D02*
D03*
X4737Y4124D02*
D03*
X3137D02*
D03*
X4737Y3624D02*
D03*
X3137D02*
D03*
X4737Y3124D02*
D03*
X3137D02*
D03*
X4737Y2624D02*
D03*
X3137D02*
D03*
X4737Y2124D02*
D03*
X3137D02*
D03*
X4737Y1624D02*
D03*
X3137D02*
D03*
X4737Y1124D02*
D03*
X3137D02*
D03*
X4737Y624D02*
D03*
X3137D02*
D03*
M02*
