G04*
G04 #@! TF.GenerationSoftware,Altium Limited,Altium Designer,20.0.13 (296)*
G04*
G04 Layer_Color=2752767*
%FSLAX24Y24*%
%MOIN*%
G70*
G01*
G75*
%ADD14C,0.0050*%
D14*
X15571Y6916D02*
X15371Y7316D01*
X15771D01*
X15571Y6916D01*
X11232Y5285D02*
X11032Y5685D01*
X11432D01*
X11232Y5285D01*
X12205Y5469D02*
X12005Y5869D01*
X12405D01*
X12205Y5469D01*
X11024D02*
X10824Y5869D01*
X11224D01*
X11024Y5469D01*
X11412D02*
X11212Y5869D01*
X11612D01*
X11412Y5469D01*
X11811D02*
X11611Y5869D01*
X12011D01*
X11811Y5469D01*
X9843Y2211D02*
X9643Y2611D01*
X10043D01*
X9843Y2211D01*
X11024D02*
X10824Y2611D01*
X11224D01*
X11024Y2211D01*
X25315Y5424D02*
X25115Y5824D01*
X25515D01*
X25315Y5424D01*
X22244Y1936D02*
X22044Y2336D01*
X22444D01*
X22244Y1936D01*
X22780Y391D02*
X22580Y791D01*
X22980D01*
X22780Y391D01*
X28366Y2424D02*
X28166Y2824D01*
X28566D01*
X28366Y2424D01*
X28346Y2924D02*
X28146Y3324D01*
X28546D01*
X28346Y2924D01*
Y5924D02*
X28146Y6324D01*
X28546D01*
X28346Y5924D01*
X21890Y4820D02*
X21690Y5220D01*
X22090D01*
X21890Y4820D01*
X22293Y5558D02*
X22093Y5958D01*
X22493D01*
X22293Y5558D01*
Y4800D02*
X22093Y5200D01*
X22493D01*
X22293Y4800D01*
X21161D02*
X20961Y5200D01*
X21361D01*
X21161Y4800D01*
X18199Y5558D02*
X17999Y5958D01*
X18399D01*
X18199Y5558D01*
X22244Y3161D02*
X22044Y3561D01*
X22444D01*
X22244Y3161D01*
X16476Y3314D02*
X16276Y3714D01*
X16676D01*
X16476Y3314D01*
X21634Y5115D02*
X21434Y5515D01*
X21834D01*
X21634Y5115D01*
X16161Y4800D02*
X15961Y5200D01*
X16361D01*
X16161Y4800D01*
X10135Y3346D02*
X9935Y3746D01*
X10335D01*
X10135Y3346D01*
X14589Y1769D02*
X14389Y2168D01*
X14789D01*
X14589Y1769D01*
Y1375D02*
X14389Y1775D01*
X14789D01*
X14589Y1375D01*
X28347Y1912D02*
X28147Y2312D01*
X28547D01*
X28347Y1912D01*
X28346Y3424D02*
X28146Y3824D01*
X28546D01*
X28346Y3424D01*
Y4924D02*
X28146Y5324D01*
X28546D01*
X28346Y4924D01*
Y5424D02*
X28146Y5824D01*
X28546D01*
X28346Y5424D01*
Y3924D02*
X28146Y4324D01*
X28546D01*
X28346Y3924D01*
Y4424D02*
X28146Y4824D01*
X28546D01*
X28346Y4424D01*
X11614Y5273D02*
X11414Y5673D01*
X11814D01*
X11614Y5273D01*
X12008D02*
X11808Y5673D01*
X12208D01*
X12008Y5273D01*
X10827D02*
X10627Y5673D01*
X11027D01*
X10827Y5273D01*
X3150Y5424D02*
X2950Y5824D01*
X3350D01*
X3150Y5424D01*
Y3924D02*
X2950Y4324D01*
X3350D01*
X3150Y3924D01*
X4724Y9924D02*
X4524Y10324D01*
X4924D01*
X4724Y9924D01*
X14370Y5312D02*
X14170Y5712D01*
X14570D01*
X14370Y5312D01*
X25315Y2424D02*
X25115Y2824D01*
X25515D01*
X25315Y2424D01*
Y2924D02*
X25115Y3324D01*
X25515D01*
X25315Y2924D01*
Y3424D02*
X25115Y3824D01*
X25515D01*
X25315Y3424D01*
Y3924D02*
X25115Y4324D01*
X25515D01*
X25315Y3924D01*
Y4424D02*
X25115Y4824D01*
X25515D01*
X25315Y4424D01*
Y4924D02*
X25115Y5324D01*
X25515D01*
X25315Y4924D01*
Y5924D02*
X25115Y6324D01*
X25515D01*
X25315Y5924D01*
X6614Y4424D02*
X6414Y4824D01*
X6814D01*
X6614Y4424D01*
X9938Y3149D02*
X9738Y3549D01*
X10138D01*
X9938Y3149D01*
X6614Y4924D02*
X6414Y5324D01*
X6814D01*
X6614Y4924D01*
X4734Y10436D02*
X4534Y10836D01*
X4934D01*
X4734Y10436D01*
X10827Y2015D02*
X10627Y2415D01*
X11027D01*
X10827Y2015D01*
X10630Y2211D02*
X10430Y2611D01*
X10830D01*
X10630Y2211D01*
X10438Y2015D02*
X10238Y2415D01*
X10638D01*
X10438Y2015D01*
X10236Y2211D02*
X10036Y2611D01*
X10436D01*
X10236Y2211D01*
X10039Y2015D02*
X9839Y2415D01*
X10239D01*
X10039Y2015D01*
X9646D02*
X9446Y2415D01*
X9846D01*
X9646Y2015D01*
X14370Y4524D02*
X14170Y4924D01*
X14570D01*
X14370Y4524D01*
Y4918D02*
X14170Y5318D01*
X14570D01*
X14370Y4918D01*
X3150Y8924D02*
X2950Y9324D01*
X3350D01*
X3150Y8924D01*
Y9424D02*
X2950Y9824D01*
X3350D01*
X3150Y9424D01*
Y9924D02*
X2950Y10324D01*
X3350D01*
X3150Y9924D01*
X3150Y10424D02*
X2950Y10824D01*
X3350D01*
X3150Y10424D01*
X3150Y10924D02*
X2950Y11324D01*
X3350D01*
X3150Y10924D01*
Y11424D02*
X2950Y11824D01*
X3350D01*
X3150Y11424D01*
Y11924D02*
X2950Y12324D01*
X3350D01*
X3150Y11924D01*
Y12424D02*
X2950Y12824D01*
X3350D01*
X3150Y12424D01*
X12598Y1414D02*
X12398Y1814D01*
X12798D01*
X12598Y1414D01*
X12402Y1217D02*
X12202Y1617D01*
X12602D01*
X12402Y1217D01*
X12205Y1414D02*
X12005Y1814D01*
X12405D01*
X12205Y1414D01*
X12013Y1217D02*
X11813Y1617D01*
X12213D01*
X12013Y1217D01*
X11811Y1414D02*
X11611Y1814D01*
X12011D01*
X11811Y1414D01*
X11614Y1217D02*
X11414Y1617D01*
X11814D01*
X11614Y1217D01*
X11417Y1414D02*
X11217Y1814D01*
X11617D01*
X11417Y1414D01*
X11220Y1217D02*
X11020Y1617D01*
X11420D01*
X11220Y1217D01*
X14589Y981D02*
X14389Y1381D01*
X14789D01*
X14589Y981D01*
X13386Y172D02*
X13186Y572D01*
X13586D01*
X13386Y172D01*
X13780D02*
X13580Y572D01*
X13980D01*
X13780Y172D01*
X3150Y5924D02*
X2950Y6324D01*
X3350D01*
X3150Y5924D01*
X3150Y4924D02*
X2950Y5324D01*
X3350D01*
X3150Y4924D01*
X3150Y4424D02*
X2950Y4824D01*
X3350D01*
X3150Y4424D01*
Y3424D02*
X2950Y3824D01*
X3350D01*
X3150Y3424D01*
Y2924D02*
X2950Y3324D01*
X3350D01*
X3150Y2924D01*
X3150Y2424D02*
X2950Y2824D01*
X3350D01*
X3150Y2424D01*
X14370Y1572D02*
X14170Y1972D01*
X14570D01*
X14370Y1572D01*
Y1178D02*
X14170Y1578D01*
X14570D01*
X14370Y1178D01*
X13583Y390D02*
X13383Y790D01*
X13783D01*
X13583Y390D01*
X14567Y3934D02*
X14367Y4334D01*
X14767D01*
X14567Y3934D01*
X14370Y4131D02*
X14170Y4531D01*
X14570D01*
X14370Y4131D01*
X14567Y4328D02*
X14367Y4728D01*
X14767D01*
X14567Y4328D01*
Y4726D02*
X14367Y5126D01*
X14767D01*
X14567Y4726D01*
Y5115D02*
X14367Y5515D01*
X14767D01*
X14567Y5115D01*
X4724Y10924D02*
X4524Y11324D01*
X4924D01*
X4724Y10924D01*
Y11424D02*
X4524Y11824D01*
X4924D01*
X4724Y11424D01*
Y11924D02*
X4524Y12324D01*
X4924D01*
X4724Y11924D01*
Y12424D02*
X4524Y12824D01*
X4924D01*
X4724Y12424D01*
X4724Y12924D02*
X4524Y13324D01*
X4924D01*
X4724Y12924D01*
X4724Y13424D02*
X4524Y13824D01*
X4924D01*
X4724Y13424D01*
M02*
