G04*
G04 #@! TF.GenerationSoftware,Altium Limited,Altium Designer,20.0.13 (296)*
G04*
G04 Layer_Color=2752767*
%FSLAX24Y24*%
%MOIN*%
G70*
G01*
G75*
%ADD14C,0.0050*%
D14*
X9280Y3343D02*
X9080Y3743D01*
X9480D01*
X9280Y3343D01*
X18622Y3711D02*
X18422Y4111D01*
X18822D01*
X18622Y3711D01*
X19331Y7963D02*
X19131Y8363D01*
X19531D01*
X19331Y7963D01*
X25335Y-298D02*
X25135Y102D01*
X25535D01*
X25335Y-298D01*
X23819D02*
X23619Y102D01*
X24019D01*
X23819Y-298D01*
X23327Y44D02*
X23127Y444D01*
X23527D01*
X23327Y44D01*
X23051D02*
X22851Y444D01*
X23251D01*
X23051Y44D01*
X22736D02*
X22536Y444D01*
X22936D01*
X22736Y44D01*
X19783Y-298D02*
X19583Y102D01*
X19983D01*
X19783Y-298D01*
X19595Y1276D02*
X19395Y1676D01*
X19795D01*
X19595Y1276D01*
Y686D02*
X19395Y1086D01*
X19795D01*
X19595Y686D01*
X28740Y302D02*
X28540Y702D01*
X28940D01*
X28740Y302D01*
X24320Y1276D02*
X24120Y1676D01*
X24520D01*
X24320Y1276D01*
X24641Y185D02*
X24441Y585D01*
X24841D01*
X24641Y185D01*
X24320Y787D02*
X24120Y1187D01*
X24520D01*
X24320Y787D01*
X30866Y7453D02*
X30666Y7853D01*
X31066D01*
X30866Y7453D01*
X6234Y8058D02*
X6034Y8458D01*
X6434D01*
X6234Y8058D01*
X10610Y3954D02*
X10410Y4354D01*
X10810D01*
X10610Y3954D01*
X10303Y5509D02*
X10103Y5909D01*
X10503D01*
X10303Y5509D01*
X9661Y5300D02*
X9461Y5700D01*
X9861D01*
X9661Y5300D01*
X4789Y7290D02*
X4589Y7690D01*
X4989D01*
X4789Y7290D01*
X18209Y76D02*
X18009Y476D01*
X18409D01*
X18209Y76D01*
X17703Y302D02*
X17503Y702D01*
X17903D01*
X17703Y302D01*
X28661Y6192D02*
X28461Y6592D01*
X28861D01*
X28661Y6192D01*
X13131Y8846D02*
X12931Y9246D01*
X13331D01*
X13131Y8846D01*
X29057Y587D02*
X28857Y987D01*
X29257D01*
X29057Y587D01*
X17913Y4774D02*
X17713Y5174D01*
X18113D01*
X17913Y4774D01*
X7874Y3737D02*
X7674Y4137D01*
X8074D01*
X7874Y3737D01*
Y5706D02*
X7674Y6106D01*
X8074D01*
X7874Y5706D01*
Y3343D02*
X7674Y3743D01*
X8074D01*
X7874Y3343D01*
Y5312D02*
X7674Y5712D01*
X8074D01*
X7874Y5312D01*
X13346Y1414D02*
X13146Y1814D01*
X13546D01*
X13346Y1414D01*
X13656Y1611D02*
X13456Y2011D01*
X13856D01*
X13656Y1611D01*
X11024Y1290D02*
X10824Y1690D01*
X11224D01*
X11024Y1290D01*
X11417D02*
X11217Y1690D01*
X11617D01*
X11417Y1290D01*
X12638Y1145D02*
X12438Y1545D01*
X12838D01*
X12638Y1145D01*
X13594Y8044D02*
X13394Y8444D01*
X13794D01*
X13594Y8044D01*
X3081Y12792D02*
X2881Y13192D01*
X3281D01*
X3081Y12792D01*
X3937Y10430D02*
X3737Y10830D01*
X4137D01*
X3937Y10430D01*
X31094Y3068D02*
X30894Y3469D01*
X31294D01*
X31094Y3068D01*
X30416Y3068D02*
X30216Y3468D01*
X30616D01*
X30416Y3068D01*
X295Y8048D02*
X95Y8448D01*
X495D01*
X295Y8048D01*
X14341Y11828D02*
X14141Y12228D01*
X14541D01*
X14341Y11828D01*
X3937Y2556D02*
X3737Y2956D01*
X4137D01*
X3937Y2556D01*
X29057Y1200D02*
X28857Y1600D01*
X29257D01*
X29057Y1200D01*
X30118Y6789D02*
X29918Y7189D01*
X30318D01*
X30118Y6789D01*
X5217Y4609D02*
X5017Y5009D01*
X5417D01*
X5217Y4609D01*
X4789Y8058D02*
X4589Y8458D01*
X4989D01*
X4789Y8058D01*
X3425Y7984D02*
X3225Y8384D01*
X3625D01*
X3425Y7984D01*
X22736Y1896D02*
X22536Y2296D01*
X22936D01*
X22736Y1896D01*
X23337D02*
X23137Y2296D01*
X23537D01*
X23337Y1896D01*
X22992D02*
X22792Y2296D01*
X23192D01*
X22992Y1896D01*
X27904Y1901D02*
X27704Y2301D01*
X28104D01*
X27904Y1901D01*
X28248Y1918D02*
X28048Y2318D01*
X28448D01*
X28248Y1918D01*
X27657Y1896D02*
X27457Y2296D01*
X27857D01*
X27657Y1896D01*
X27286D02*
X27086Y2296D01*
X27486D01*
X27286Y1896D01*
X5878Y2931D02*
X5678Y3331D01*
X6078D01*
X5878Y2931D01*
X18013Y1900D02*
X17813Y2300D01*
X18213D01*
X18013Y1900D01*
X18289Y1898D02*
X18089Y2298D01*
X18489D01*
X18289Y1898D01*
X13858Y8698D02*
X13658Y9098D01*
X14058D01*
X13858Y8698D01*
X27835Y4420D02*
X27635Y4820D01*
X28035D01*
X27835Y4420D01*
X25709D02*
X25509Y4820D01*
X25909D01*
X25709Y4420D01*
X27126Y3711D02*
X26926Y4111D01*
X27326D01*
X27126Y3711D01*
X26417D02*
X26217Y4111D01*
X26617D01*
X26417Y3711D01*
X27948Y46D02*
X27748Y446D01*
X28148D01*
X27948Y46D01*
X27367Y37D02*
X27167Y437D01*
X27567D01*
X27367Y37D01*
X27657D02*
X27457Y437D01*
X27857D01*
X27657Y37D01*
X28445D02*
X28245Y437D01*
X28645D01*
X28445Y37D01*
X18622Y12215D02*
X18422Y12615D01*
X18822D01*
X18622Y12215D01*
X18681Y10735D02*
X18481Y11135D01*
X18881D01*
X18681Y10735D01*
X18622Y10089D02*
X18422Y10489D01*
X18822D01*
X18622Y10089D01*
Y9381D02*
X18422Y9781D01*
X18822D01*
X18622Y9381D01*
X19331Y3711D02*
X19131Y4111D01*
X19531D01*
X19331Y3711D01*
X20039D02*
X19839Y4111D01*
X20239D01*
X20039Y3711D01*
X20748D02*
X20548Y4111D01*
X20948D01*
X20748Y3711D01*
X21457D02*
X21257Y4111D01*
X21657D01*
X21457Y3711D01*
X26417Y4420D02*
X26217Y4820D01*
X26617D01*
X26417Y4420D01*
X27126D02*
X26926Y4820D01*
X27326D01*
X27126Y4420D01*
X28543D02*
X28343Y4820D01*
X28743D01*
X28543Y4420D01*
X27835Y3711D02*
X27635Y4111D01*
X28035D01*
X27835Y3711D01*
X13142Y12792D02*
X12942Y13192D01*
X13342D01*
X13142Y12792D01*
X14488Y8698D02*
X14288Y9098D01*
X14688D01*
X14488Y8698D01*
Y9800D02*
X14288Y10200D01*
X14688D01*
X14488Y9800D01*
X11567Y12787D02*
X11367Y13187D01*
X11767D01*
X11567Y12787D01*
X13858Y9800D02*
X13658Y10200D01*
X14058D01*
X13858Y9800D01*
X11556Y8846D02*
X11356Y9246D01*
X11756D01*
X11556Y8846D01*
X9970Y8835D02*
X9770Y9235D01*
X10170D01*
X9970Y8835D01*
X14717Y10824D02*
X14517Y11224D01*
X14917D01*
X14717Y10824D01*
X13799Y12379D02*
X13599Y12779D01*
X13999D01*
X13799Y12379D01*
X13142Y11611D02*
X12942Y12011D01*
X13342D01*
X13142Y11611D01*
X11567D02*
X11367Y12011D01*
X11767D01*
X11567Y11611D01*
X9992Y12792D02*
X9792Y13192D01*
X10192D01*
X9992Y12792D01*
Y11611D02*
X9792Y12011D01*
X10192D01*
X9992Y11611D01*
M02*
