G04*
G04 #@! TF.GenerationSoftware,Altium Limited,Altium Designer,20.0.13 (296)*
G04*
G04 Layer_Color=2752767*
%FSLAX24Y24*%
%MOIN*%
G70*
G01*
G75*
%ADD14C,0.0050*%
D14*
X7087Y2398D02*
X6887Y2798D01*
X7287D01*
X7087Y2398D01*
X20413Y7501D02*
X20213Y7901D01*
X20613D01*
X20413Y7501D01*
X10039Y6454D02*
X9839Y6854D01*
X10239D01*
X10039Y6454D01*
X21425Y7851D02*
X21225Y8251D01*
X21625D01*
X21425Y7851D01*
X15238Y10833D02*
X15038Y11233D01*
X15438D01*
X15238Y10833D01*
X25591Y13424D02*
X25391Y13824D01*
X25791D01*
X25591Y13424D01*
X14341Y11335D02*
X14141Y11735D01*
X14541D01*
X14341Y11335D01*
X18661Y7418D02*
X18461Y7818D01*
X18861D01*
X18661Y7418D01*
X16949Y5671D02*
X16749Y6071D01*
X17149D01*
X16949Y5671D01*
X22559Y3717D02*
X22359Y4117D01*
X22759D01*
X22559Y3717D01*
X19595Y902D02*
X19395Y1302D01*
X19795D01*
X19595Y902D01*
X28740Y56D02*
X28540Y456D01*
X28940D01*
X28740Y56D01*
X30866Y7768D02*
X30666Y8168D01*
X31066D01*
X30866Y7768D01*
X17697Y6139D02*
X17497Y6539D01*
X17897D01*
X17697Y6139D01*
X9843Y6690D02*
X9643Y7090D01*
X10043D01*
X9843Y6690D01*
X6181Y9424D02*
X5981Y9824D01*
X6381D01*
X6181Y9424D01*
X16742Y3639D02*
X16542Y4039D01*
X16942D01*
X16742Y3639D01*
X16929Y1050D02*
X16729Y1450D01*
X17129D01*
X16929Y1050D01*
X9941Y4322D02*
X9741Y4722D01*
X10141D01*
X9941Y4322D01*
Y3934D02*
X9741Y4334D01*
X10141D01*
X9941Y3934D01*
Y4721D02*
X9741Y5121D01*
X10141D01*
X9941Y4721D01*
Y5115D02*
X9741Y5515D01*
X10141D01*
X9941Y5115D01*
X16693Y10302D02*
X16493Y10702D01*
X16893D01*
X16693Y10302D01*
X9252Y5509D02*
X9052Y5909D01*
X9452D01*
X9252Y5509D01*
X16693Y10046D02*
X16493Y10446D01*
X16893D01*
X16693Y10046D01*
X6614Y7290D02*
X6414Y7690D01*
X6814D01*
X6614Y7290D01*
X6299Y1924D02*
X6099Y2324D01*
X6499D01*
X6299Y1924D01*
X25728Y4170D02*
X25528Y4570D01*
X25928D01*
X25728Y4170D01*
X26772Y2083D02*
X26572Y2483D01*
X26972D01*
X26772Y2083D01*
X26693Y1424D02*
X26493Y1824D01*
X26893D01*
X26693Y1424D01*
Y924D02*
X26493Y1324D01*
X26893D01*
X26693Y924D01*
X12362Y4357D02*
X12162Y4757D01*
X12562D01*
X12362Y4357D01*
X23327Y706D02*
X23127Y1106D01*
X23527D01*
X23327Y706D01*
X22780D02*
X22580Y1106D01*
X22980D01*
X22780Y706D01*
X29528Y924D02*
X29328Y1324D01*
X29728D01*
X29528Y924D01*
X26639Y489D02*
X26439Y889D01*
X26839D01*
X26639Y489D01*
X27126Y4942D02*
X26926Y5342D01*
X27326D01*
X27126Y4942D01*
X17657Y996D02*
X17457Y1396D01*
X17857D01*
X17657Y996D01*
X29281Y95D02*
X29081Y495D01*
X29481D01*
X29281Y95D01*
X28346Y6192D02*
X28146Y6592D01*
X28546D01*
X28346Y6192D01*
X11880Y10064D02*
X11680Y10464D01*
X12080D01*
X11880Y10064D01*
X15020Y4534D02*
X14820Y4934D01*
X15220D01*
X15020Y4534D01*
X12756Y4652D02*
X12556Y5052D01*
X12956D01*
X12756Y4652D01*
X13150D02*
X12950Y5052D01*
X13350D01*
X13150Y4652D01*
X10589Y10056D02*
X10389Y10456D01*
X10789D01*
X10589Y10056D01*
X17913Y6389D02*
X17713Y6789D01*
X18113D01*
X17913Y6389D01*
X18091Y5046D02*
X17891Y5446D01*
X18291D01*
X18091Y5046D01*
X16555Y4534D02*
X16355Y4934D01*
X16755D01*
X16555Y4534D01*
X16142Y1050D02*
X15942Y1450D01*
X16342D01*
X16142Y1050D01*
X17697Y3885D02*
X17497Y4285D01*
X17897D01*
X17697Y3885D01*
X12754Y10056D02*
X12554Y10456D01*
X12954D01*
X12754Y10056D01*
X11455D02*
X11255Y10456D01*
X11655D01*
X11455Y10056D01*
X11022D02*
X10822Y10456D01*
X11222D01*
X11022Y10056D01*
X16171Y12042D02*
X15971Y12442D01*
X16371D01*
X16171Y12042D01*
Y12546D02*
X15971Y12946D01*
X16371D01*
X16171Y12546D01*
X16693Y9790D02*
X16493Y10190D01*
X16893D01*
X16693Y9790D01*
Y9534D02*
X16493Y9934D01*
X16893D01*
X16693Y9534D01*
X21102Y3727D02*
X20902Y4127D01*
X21302D01*
X21102Y3727D01*
X16358Y3885D02*
X16158Y4285D01*
X16558D01*
X16358Y3885D01*
X15020Y4022D02*
X14820Y4422D01*
X15220D01*
X15020Y4022D01*
Y4790D02*
X14820Y5190D01*
X15220D01*
X15020Y4790D01*
X7283Y2615D02*
X7083Y3015D01*
X7483D01*
X7283Y2615D01*
X6614Y6924D02*
X6414Y7324D01*
X6814D01*
X6614Y6924D01*
Y6424D02*
X6414Y6824D01*
X6814D01*
X6614Y6424D01*
Y5924D02*
X6414Y6324D01*
X6814D01*
X6614Y5924D01*
Y5424D02*
X6414Y5824D01*
X6814D01*
X6614Y5424D01*
X30640Y6789D02*
X30440Y7189D01*
X30840D01*
X30640Y6789D01*
X29528Y1424D02*
X29328Y1824D01*
X29728D01*
X29528Y1424D01*
X1772Y14424D02*
X1572Y14824D01*
X1972D01*
X1772Y14424D01*
X31545Y7674D02*
X31345Y8074D01*
X31745D01*
X31545Y7674D01*
X31250Y8068D02*
X31050Y8468D01*
X31450D01*
X31250Y8068D01*
X26496Y13924D02*
X26296Y14324D01*
X26696D01*
X26496Y13924D01*
Y14424D02*
X26296Y14824D01*
X26696D01*
X26496Y14424D01*
X4154Y9249D02*
X3954Y9649D01*
X4354D01*
X4154Y9249D01*
X24862Y862D02*
X24662Y1262D01*
X25062D01*
X24862Y862D01*
X16339Y6389D02*
X16139Y6789D01*
X16539D01*
X16339Y6389D01*
X14656Y5814D02*
X14456Y6214D01*
X14856D01*
X14656Y5814D01*
X10128Y4131D02*
X9928Y4531D01*
X10328D01*
X10128Y4131D01*
X10137Y4524D02*
X9937Y4924D01*
X10337D01*
X10137Y4524D01*
X10135Y4920D02*
X9935Y5320D01*
X10335D01*
X10135Y4920D01*
X10137Y3737D02*
X9937Y4137D01*
X10337D01*
X10137Y3737D01*
X13189Y390D02*
X12989Y790D01*
X13389D01*
X13189Y390D01*
X12992Y1156D02*
X12792Y1556D01*
X13192D01*
X12992Y1156D01*
X6102Y14424D02*
X5902Y14824D01*
X6302D01*
X6102Y14424D01*
X15866Y706D02*
X15666Y1106D01*
X16066D01*
X15866Y706D01*
X23051D02*
X22851Y1106D01*
X23251D01*
X23051Y706D01*
X18209D02*
X18009Y1106D01*
X18409D01*
X18209Y706D01*
X26772Y2398D02*
X26572Y2798D01*
X26972D01*
X26772Y2398D01*
X12756Y4357D02*
X12556Y4757D01*
X12956D01*
X12756Y4357D01*
X28425Y14424D02*
X28225Y14824D01*
X28625D01*
X28425Y14424D01*
Y14924D02*
X28225Y15324D01*
X28625D01*
X28425Y14924D01*
X5118Y924D02*
X4918Y1324D01*
X5318D01*
X5118Y924D01*
X4803Y1424D02*
X4603Y1824D01*
X5003D01*
X4803Y1424D01*
X6102Y14924D02*
X5902Y15324D01*
X6302D01*
X6102Y14924D01*
X1772Y13924D02*
X1572Y14324D01*
X1972D01*
X1772Y13924D01*
X1772Y1424D02*
X1572Y1824D01*
X1972D01*
X1772Y1424D01*
Y924D02*
X1572Y1324D01*
X1972D01*
X1772Y924D01*
Y424D02*
X1572Y824D01*
X1972D01*
X1772Y424D01*
X18848Y1222D02*
X18648Y1622D01*
X19048D01*
X18848Y1222D01*
X17913Y10814D02*
X17713Y11214D01*
X18113D01*
X17913Y10814D01*
X16634Y11335D02*
X16434Y11735D01*
X16834D01*
X16634Y11335D01*
X15634Y15207D02*
X15434Y15607D01*
X15834D01*
X15634Y15207D01*
X14331Y3737D02*
X14131Y4137D01*
X14531D01*
X14331Y3737D01*
X28563Y11924D02*
X28363Y12324D01*
X28763D01*
X28563Y11924D01*
Y9924D02*
X28363Y10324D01*
X28763D01*
X28563Y9924D01*
Y10424D02*
X28363Y10824D01*
X28763D01*
X28563Y10424D01*
Y10924D02*
X28363Y11324D01*
X28763D01*
X28563Y10924D01*
X12559Y4111D02*
X12359Y4511D01*
X12759D01*
X12559Y4111D01*
X29927Y12929D02*
X29727Y13329D01*
X30127D01*
X29927Y12929D01*
Y13429D02*
X29727Y13829D01*
X30127D01*
X29927Y13429D01*
X29933Y11434D02*
X29733Y11834D01*
X30133D01*
X29933Y11434D01*
X28563Y12424D02*
X28363Y12824D01*
X28763D01*
X28563Y12424D01*
X26772Y3028D02*
X26572Y3428D01*
X26972D01*
X26772Y3028D01*
Y2713D02*
X26572Y3113D01*
X26972D01*
X26772Y2713D01*
X13346Y4111D02*
X13146Y4511D01*
X13546D01*
X13346Y4111D01*
X12953D02*
X12753Y4511D01*
X13153D01*
X12953Y4111D01*
X13543Y4357D02*
X13343Y4757D01*
X13743D01*
X13543Y4357D01*
X13150D02*
X12950Y4757D01*
X13350D01*
X13150Y4357D01*
X8819Y2556D02*
X8619Y2956D01*
X9019D01*
X8819Y2556D01*
X16752Y5046D02*
X16552Y5446D01*
X16952D01*
X16752Y5046D01*
X18504Y1057D02*
X18304Y1457D01*
X18704D01*
X18504Y1057D01*
X27126Y5302D02*
X26926Y5702D01*
X27326D01*
X27126Y5302D01*
Y5637D02*
X26926Y6037D01*
X27326D01*
X27126Y5637D01*
X9941Y3540D02*
X9741Y3940D01*
X10141D01*
X9941Y3540D01*
X25591Y11924D02*
X25391Y12324D01*
X25791D01*
X25591Y11924D01*
Y10924D02*
X25391Y11324D01*
X25791D01*
X25591Y10924D01*
X19646Y10450D02*
X19446Y10850D01*
X19846D01*
X19646Y10450D01*
X22933Y10180D02*
X22733Y10580D01*
X23133D01*
X22933Y10180D01*
X19941Y10794D02*
X19741Y11194D01*
X20141D01*
X19941Y10794D01*
Y10164D02*
X19741Y10564D01*
X20141D01*
X19941Y10164D01*
X12078Y8846D02*
X11878Y9246D01*
X12278D01*
X12078Y8846D01*
X12609D02*
X12409Y9246D01*
X12809D01*
X12609Y8846D01*
X10492Y8835D02*
X10292Y9235D01*
X10692D01*
X10492Y8835D01*
X25591Y11424D02*
X25391Y11824D01*
X25791D01*
X25591Y11424D01*
M02*
