G04*
G04 #@! TF.GenerationSoftware,Altium Limited,Altium Designer,20.0.13 (296)*
G04*
G04 Layer_Color=128*
%FSLAX24Y24*%
%MOIN*%
G70*
G01*
G75*
%ADD14C,0.0050*%
D14*
X15532Y7116D02*
X15610D01*
X15571Y7077D02*
Y7156D01*
X11193Y5485D02*
X11272D01*
X11232Y5445D02*
Y5524D01*
X12165Y5669D02*
X12244D01*
X12205Y5630D02*
Y5709D01*
X10984Y5669D02*
X11063D01*
X11024Y5630D02*
Y5709D01*
X11373Y5669D02*
X11452D01*
X11412Y5630D02*
Y5709D01*
X11772Y5669D02*
X11850D01*
X11811Y5630D02*
Y5709D01*
X9803Y2411D02*
X9882D01*
X9843Y2372D02*
Y2451D01*
X10984Y2411D02*
X11063D01*
X11024Y2372D02*
Y2451D01*
X25276Y5624D02*
X25354D01*
X25315Y5585D02*
Y5663D01*
X22205Y2136D02*
X22283D01*
X22244Y2096D02*
Y2175D01*
X22741Y591D02*
X22819D01*
X22780Y551D02*
Y630D01*
X28327Y2624D02*
X28406D01*
X28366Y2585D02*
Y2663D01*
X28307Y3124D02*
X28386D01*
X28346Y3085D02*
Y3163D01*
X28307Y6124D02*
X28386D01*
X28346Y6085D02*
Y6163D01*
X21850Y5020D02*
X21929D01*
X21890Y4980D02*
Y5059D01*
X22254Y5758D02*
X22333D01*
X22293Y5719D02*
Y5797D01*
X22254Y5000D02*
X22333D01*
X22293Y4961D02*
Y5039D01*
X21122Y5000D02*
X21201D01*
X21161Y4961D02*
Y5039D01*
X18159Y5758D02*
X18238D01*
X18199Y5719D02*
Y5797D01*
X22205Y3361D02*
X22283D01*
X22244Y3322D02*
Y3401D01*
X16437Y3514D02*
X16516D01*
X16476Y3474D02*
Y3553D01*
X21594Y5315D02*
X21673D01*
X21634Y5276D02*
Y5354D01*
X16122Y5000D02*
X16201D01*
X16161Y4961D02*
Y5039D01*
X10095Y3546D02*
X10174D01*
X10135Y3506D02*
Y3585D01*
X14550Y1969D02*
X14628D01*
X14589Y1929D02*
Y2008D01*
X14550Y1575D02*
X14628D01*
X14589Y1535D02*
Y1614D01*
X28308Y2112D02*
X28387D01*
X28347Y2073D02*
Y2152D01*
X28307Y3624D02*
X28386D01*
X28346Y3585D02*
Y3663D01*
X28307Y5124D02*
X28386D01*
X28346Y5085D02*
Y5163D01*
X28307Y5624D02*
X28386D01*
X28346Y5585D02*
Y5663D01*
X28307Y4124D02*
X28386D01*
X28346Y4085D02*
Y4163D01*
X28307Y4624D02*
X28386D01*
X28346Y4585D02*
Y4663D01*
X11575Y5473D02*
X11654D01*
X11614Y5433D02*
Y5512D01*
X11968Y5473D02*
X12047D01*
X12008Y5433D02*
Y5512D01*
X10787Y5473D02*
X10866D01*
X10827Y5433D02*
Y5512D01*
X3110Y5624D02*
X3189D01*
X3150Y5585D02*
Y5663D01*
X3110Y4124D02*
X3189D01*
X3150Y4085D02*
Y4163D01*
X4685Y10124D02*
X4764D01*
X4724Y10085D02*
Y10163D01*
X14331Y5512D02*
X14410D01*
X14370Y5472D02*
Y5551D01*
X25276Y2624D02*
X25354D01*
X25315Y2585D02*
Y2663D01*
X25276Y3124D02*
X25354D01*
X25315Y3085D02*
Y3163D01*
X25276Y3624D02*
X25354D01*
X25315Y3585D02*
Y3663D01*
X25276Y4124D02*
X25354D01*
X25315Y4085D02*
Y4163D01*
X25276Y4624D02*
X25354D01*
X25315Y4585D02*
Y4663D01*
X25276Y5124D02*
X25354D01*
X25315Y5085D02*
Y5163D01*
X25276Y6124D02*
X25354D01*
X25315Y6085D02*
Y6163D01*
X6575Y4624D02*
X6654D01*
X6614Y4585D02*
Y4663D01*
X9899Y3349D02*
X9978D01*
X9938Y3310D02*
Y3388D01*
X6575Y5124D02*
X6654D01*
X6614Y5085D02*
Y5163D01*
X4695Y10636D02*
X4774D01*
X4734Y10596D02*
Y10675D01*
X10787Y2215D02*
X10866D01*
X10827Y2176D02*
Y2254D01*
X10591Y2411D02*
X10669D01*
X10630Y2372D02*
Y2451D01*
X10399Y2215D02*
X10478D01*
X10438Y2176D02*
Y2254D01*
X10197Y2411D02*
X10276D01*
X10236Y2372D02*
Y2451D01*
X10000Y2215D02*
X10079D01*
X10039Y2176D02*
Y2254D01*
X9606Y2215D02*
X9685D01*
X9646Y2176D02*
Y2254D01*
X14331Y4724D02*
X14410D01*
X14370Y4685D02*
Y4764D01*
X14331Y5118D02*
X14410D01*
X14370Y5079D02*
Y5157D01*
X3110Y9124D02*
X3189D01*
X3150Y9085D02*
Y9163D01*
X3110Y9624D02*
X3189D01*
X3150Y9585D02*
Y9663D01*
X3110Y10124D02*
X3189D01*
X3150Y10085D02*
Y10163D01*
X3110Y10624D02*
X3189D01*
X3150Y10585D02*
Y10663D01*
X3110Y11124D02*
X3189D01*
X3150Y11085D02*
Y11163D01*
X3110Y11624D02*
X3189D01*
X3150Y11585D02*
Y11663D01*
X3110Y12124D02*
X3189D01*
X3150Y12085D02*
Y12163D01*
X3110Y12624D02*
X3189D01*
X3150Y12585D02*
Y12663D01*
X12559Y1614D02*
X12638D01*
X12598Y1574D02*
Y1653D01*
X12362Y1417D02*
X12441D01*
X12402Y1378D02*
Y1457D01*
X12165Y1614D02*
X12244D01*
X12205Y1574D02*
Y1653D01*
X11974Y1417D02*
X12052D01*
X12013Y1378D02*
Y1457D01*
X11772Y1614D02*
X11850D01*
X11811Y1574D02*
Y1653D01*
X11575Y1417D02*
X11654D01*
X11614Y1378D02*
Y1457D01*
X11378Y1614D02*
X11457D01*
X11417Y1574D02*
Y1653D01*
X11181Y1417D02*
X11260D01*
X11220Y1378D02*
Y1457D01*
X14550Y1181D02*
X14628D01*
X14589Y1142D02*
Y1220D01*
X13346Y372D02*
X13425D01*
X13386Y332D02*
Y411D01*
X13740Y372D02*
X13819D01*
X13780Y332D02*
Y411D01*
X3110Y6124D02*
X3189D01*
X3150Y6085D02*
Y6163D01*
X3110Y5124D02*
X3189D01*
X3150Y5085D02*
Y5163D01*
X3110Y4624D02*
X3189D01*
X3150Y4585D02*
Y4663D01*
X3110Y3624D02*
X3189D01*
X3150Y3585D02*
Y3663D01*
X3110Y3124D02*
X3189D01*
X3150Y3085D02*
Y3163D01*
X3110Y2624D02*
X3189D01*
X3150Y2585D02*
Y2663D01*
X14331Y1772D02*
X14410D01*
X14370Y1732D02*
Y1811D01*
X14331Y1378D02*
X14410D01*
X14370Y1339D02*
Y1417D01*
X13543Y590D02*
X13622D01*
X13583Y551D02*
Y630D01*
X14528Y4134D02*
X14606D01*
X14567Y4094D02*
Y4173D01*
X14331Y4331D02*
X14410D01*
X14370Y4291D02*
Y4370D01*
X14528Y4528D02*
X14606D01*
X14567Y4488D02*
Y4567D01*
X14528Y4926D02*
X14606D01*
X14567Y4887D02*
Y4966D01*
X14528Y5315D02*
X14606D01*
X14567Y5276D02*
Y5354D01*
X4685Y11124D02*
X4764D01*
X4724Y11085D02*
Y11163D01*
X4685Y11624D02*
X4764D01*
X4724Y11585D02*
Y11663D01*
X4685Y12124D02*
X4764D01*
X4724Y12085D02*
Y12163D01*
X4685Y12624D02*
X4764D01*
X4724Y12585D02*
Y12663D01*
X4685Y13124D02*
X4764D01*
X4724Y13085D02*
Y13163D01*
X4685Y13624D02*
X4764D01*
X4724Y13585D02*
Y13663D01*
M02*
