G04*
G04 #@! TF.GenerationSoftware,Altium Limited,Altium Designer,20.0.13 (296)*
G04*
G04 Layer_Physical_Order=1*
G04 Layer_Color=255*
%FSLAX24Y24*%
%MOIN*%
G70*
G01*
G75*
%ADD11C,0.0079*%
%ADD13C,0.0157*%
%ADD16R,0.0512X0.1339*%
%ADD17R,0.0571X0.0689*%
%ADD18R,0.0098X0.0197*%
%ADD19R,0.0185X0.0205*%
%ADD20R,0.0205X0.0185*%
%ADD21R,0.1004X0.0807*%
%ADD22R,0.0236X0.0098*%
%ADD23R,0.0098X0.0236*%
%ADD24R,0.0315X0.0197*%
%ADD25R,0.0315X0.0315*%
%ADD26R,0.0157X0.0157*%
%ADD27R,0.0157X0.0157*%
%ADD28R,0.0394X0.0394*%
%ADD29R,0.0197X0.0098*%
%ADD30R,0.0354X0.0098*%
%ADD31R,0.0512X0.0098*%
%ADD32R,0.1339X0.0386*%
%ADD33R,0.0787X0.0394*%
%ADD34R,0.0315X0.0315*%
%ADD35R,0.0197X0.0315*%
%ADD36R,0.0236X0.0394*%
G04:AMPARAMS|DCode=37|XSize=27.6mil|YSize=27.6mil|CornerRadius=2.8mil|HoleSize=0mil|Usage=FLASHONLY|Rotation=0.000|XOffset=0mil|YOffset=0mil|HoleType=Round|Shape=RoundedRectangle|*
%AMROUNDEDRECTD37*
21,1,0.0276,0.0220,0,0,0.0*
21,1,0.0220,0.0276,0,0,0.0*
1,1,0.0055,0.0110,-0.0110*
1,1,0.0055,-0.0110,-0.0110*
1,1,0.0055,-0.0110,0.0110*
1,1,0.0055,0.0110,0.0110*
%
%ADD37ROUNDEDRECTD37*%
%ADD62C,0.0295*%
%ADD64C,0.0303*%
%ADD65C,0.1969*%
%ADD66C,0.0197*%
G36*
X31567Y16829D02*
X31707Y16810D01*
X31844Y16774D01*
X31975Y16719D01*
X32098Y16649D01*
X32210Y16562D01*
X32310Y16462D01*
X32397Y16350D01*
X32467Y16227D01*
X32522Y16096D01*
X32558Y15959D01*
X32577Y15819D01*
Y15748D01*
Y0D01*
Y-71D01*
X32558Y-211D01*
X32522Y-348D01*
X32467Y-479D01*
X32397Y-602D01*
X32310Y-714D01*
X32210Y-814D01*
X32098Y-901D01*
X31975Y-971D01*
X31844Y-1026D01*
X31707Y-1062D01*
X31567Y-1081D01*
X31496D01*
X-0Y-1081D01*
X-71D01*
X-211Y-1062D01*
X-348Y-1026D01*
X-479Y-971D01*
X-602Y-901D01*
X-714Y-814D01*
X-814Y-714D01*
X-901Y-602D01*
X-971Y-479D01*
X-1026Y-348D01*
X-1062Y-211D01*
X-1081Y-71D01*
Y-0D01*
Y15748D01*
Y15819D01*
X-1062Y15959D01*
X-1026Y16096D01*
X-971Y16227D01*
X-901Y16350D01*
X-814Y16462D01*
X-714Y16562D01*
X-602Y16649D01*
X-479Y16719D01*
X-348Y16774D01*
X-211Y16810D01*
X-71Y16829D01*
X0Y16829D01*
X31496D01*
X31567Y16829D01*
D02*
G37*
%LPC*%
G36*
X20280Y15977D02*
X19866D01*
Y15760D01*
X20280D01*
Y15977D01*
D02*
G37*
G36*
X19748D02*
X19335D01*
Y15760D01*
X19748D01*
Y15977D01*
D02*
G37*
G36*
X23197Y15660D02*
X23094D01*
Y15567D01*
X23197D01*
Y15660D01*
D02*
G37*
G36*
X23016D02*
X22913D01*
Y15567D01*
X23016D01*
Y15660D01*
D02*
G37*
G36*
X22697D02*
X22594D01*
Y15567D01*
X22697D01*
Y15660D01*
D02*
G37*
G36*
X22516D02*
X22413D01*
Y15567D01*
X22516D01*
Y15660D01*
D02*
G37*
G36*
X21608D02*
X21506D01*
Y15567D01*
X21608D01*
Y15660D01*
D02*
G37*
G36*
X21427D02*
X21325D01*
Y15567D01*
X21427D01*
Y15660D01*
D02*
G37*
G36*
X21158D02*
X21056D01*
Y15567D01*
X21158D01*
Y15660D01*
D02*
G37*
G36*
X20977D02*
X20875D01*
Y15567D01*
X20977D01*
Y15660D01*
D02*
G37*
G36*
X23197Y15489D02*
X22913D01*
Y15396D01*
X22868Y15384D01*
X22742D01*
X22697Y15396D01*
X22697Y15434D01*
Y15489D01*
X22413D01*
Y15396D01*
X22368Y15384D01*
X22244D01*
X22170Y15369D01*
X22113Y15331D01*
X22023D01*
Y15048D01*
X22113D01*
X22170Y15009D01*
X22244Y14995D01*
X23424D01*
X23436Y14997D01*
X23625Y14979D01*
X23818Y14920D01*
X23997Y14825D01*
X24153Y14697D01*
X24281Y14540D01*
X24376Y14362D01*
X24435Y14169D01*
X24450Y14015D01*
X24358Y13977D01*
X24239Y13885D01*
X24147Y13766D01*
X24103Y13661D01*
X24073Y13652D01*
X24047Y13657D01*
X23976D01*
Y13478D01*
Y13300D01*
X24047D01*
X24073Y13305D01*
X24103Y13296D01*
X24147Y13190D01*
X24239Y13071D01*
X24358Y12980D01*
X24463Y12936D01*
X24472Y12906D01*
X24467Y12880D01*
Y12809D01*
X24824D01*
Y12880D01*
X24819Y12906D01*
X24828Y12936D01*
X24934Y12980D01*
X25053Y13071D01*
X25144Y13190D01*
X25188Y13296D01*
X25218Y13305D01*
X25244Y13300D01*
X25315D01*
Y13478D01*
Y13657D01*
X25244D01*
X25218Y13652D01*
X25188Y13661D01*
X25144Y13766D01*
X25053Y13885D01*
X24934Y13977D01*
X24837Y14017D01*
X24824Y14189D01*
X24772Y14406D01*
X24687Y14611D01*
X24570Y14801D01*
X24426Y14970D01*
X24257Y15114D01*
X24067Y15230D01*
X23862Y15315D01*
X23646Y15367D01*
X23424Y15385D01*
Y15384D01*
X23242D01*
X23197Y15396D01*
X23197Y15434D01*
Y15489D01*
D02*
G37*
G36*
X20280Y15642D02*
X19807D01*
X19335D01*
Y15626D01*
X19295D01*
X19265Y15613D01*
X19253Y15583D01*
Y14796D01*
X19265Y14765D01*
X19295Y14753D01*
X19335D01*
Y14737D01*
X19807D01*
Y14678D01*
D01*
Y14737D01*
X20280D01*
Y14753D01*
X20319D01*
X20349Y14765D01*
X20362Y14796D01*
Y14953D01*
X20555D01*
Y14995D01*
X21693D01*
X21767Y15009D01*
X21824Y15048D01*
X21948D01*
Y15331D01*
X21824D01*
X21767Y15369D01*
X21693Y15384D01*
X21653D01*
X21608Y15396D01*
X21608Y15434D01*
Y15489D01*
X21325D01*
Y15396D01*
X21280Y15384D01*
X21203D01*
X21158Y15396D01*
X21158Y15434D01*
Y15489D01*
X20875D01*
Y15396D01*
X20830Y15384D01*
X20555D01*
Y15426D01*
X20362D01*
Y15583D01*
X20349Y15613D01*
X20319Y15626D01*
X20280D01*
Y15642D01*
D02*
G37*
G36*
Y14619D02*
X19866D01*
Y14402D01*
X20280D01*
Y14619D01*
D02*
G37*
G36*
X19748D02*
X19335D01*
Y14402D01*
X19748D01*
Y14619D01*
D02*
G37*
G36*
X29941Y14166D02*
X29941Y14166D01*
X26299D01*
X26299Y14166D01*
X26253Y14157D01*
X26214Y14130D01*
X25978Y13894D01*
X25952Y13855D01*
X25943Y13809D01*
X25943Y13809D01*
Y13655D01*
X25927Y13652D01*
X25905Y13637D01*
X25890Y13615D01*
X25885Y13589D01*
Y13368D01*
X25890Y13342D01*
X25905Y13320D01*
X25927Y13305D01*
X25943Y13302D01*
Y12946D01*
X25927Y12943D01*
X25905Y12928D01*
X25890Y12906D01*
X25885Y12880D01*
Y12659D01*
X25890Y12633D01*
X25905Y12611D01*
X25927Y12596D01*
X25953Y12591D01*
X26173D01*
X26199Y12596D01*
X26221Y12611D01*
X26236Y12633D01*
X26241Y12659D01*
Y12880D01*
X26236Y12906D01*
X26221Y12928D01*
X26199Y12943D01*
X26183Y12946D01*
Y13302D01*
X26199Y13305D01*
X26221Y13320D01*
X26236Y13342D01*
X26241Y13368D01*
Y13589D01*
X26236Y13615D01*
X26221Y13637D01*
X26199Y13652D01*
X26183Y13655D01*
Y13759D01*
X26349Y13925D01*
X29891D01*
X30563Y13253D01*
Y11396D01*
X30551D01*
Y11113D01*
X30563D01*
Y11003D01*
X30551D01*
Y10719D01*
X30563D01*
Y10664D01*
X30551D01*
Y10270D01*
X30628D01*
Y10187D01*
X30551D01*
Y9793D01*
X30945D01*
Y10187D01*
X30868D01*
Y10270D01*
X30945D01*
Y10664D01*
X30803D01*
Y10719D01*
X30815D01*
Y11003D01*
X30803D01*
Y11113D01*
X30815D01*
Y11396D01*
X30803D01*
Y13303D01*
X30794Y13349D01*
X30768Y13388D01*
X30026Y14130D01*
X29987Y14157D01*
X29941Y14166D01*
D02*
G37*
G36*
X21811Y14054D02*
X21662Y14035D01*
X21523Y13977D01*
X21404Y13885D01*
X21312Y13766D01*
X21269Y13661D01*
X21239Y13652D01*
X21213Y13657D01*
X21142D01*
Y13478D01*
Y13300D01*
X21213D01*
X21239Y13305D01*
X21269Y13296D01*
X21312Y13190D01*
X21404Y13071D01*
X21523Y12980D01*
X21629Y12936D01*
X21638Y12906D01*
X21633Y12880D01*
Y12809D01*
X21990D01*
Y12880D01*
X21984Y12906D01*
X21993Y12936D01*
X22099Y12980D01*
X22218Y13071D01*
X22310Y13190D01*
X22353Y13296D01*
X22383Y13305D01*
X22409Y13300D01*
X22480D01*
Y13478D01*
Y13657D01*
X22409D01*
X22383Y13652D01*
X22353Y13661D01*
X22310Y13766D01*
X22218Y13885D01*
X22099Y13977D01*
X21960Y14035D01*
X21811Y14054D01*
D02*
G37*
G36*
X27591Y13657D02*
X27370D01*
X27344Y13652D01*
X27322Y13637D01*
X27307Y13615D01*
X27304Y13599D01*
X26948D01*
X26945Y13615D01*
X26930Y13637D01*
X26908Y13652D01*
X26882Y13657D01*
X26661D01*
X26635Y13652D01*
X26613Y13637D01*
X26598Y13615D01*
X26593Y13589D01*
Y13368D01*
X26598Y13342D01*
X26613Y13320D01*
X26635Y13305D01*
X26651Y13302D01*
Y12946D01*
X26635Y12943D01*
X26613Y12928D01*
X26598Y12906D01*
X26593Y12880D01*
Y12659D01*
X26598Y12633D01*
X26613Y12611D01*
X26635Y12596D01*
X26661Y12591D01*
X26882D01*
X26908Y12596D01*
X26930Y12611D01*
X26945Y12633D01*
X26948Y12649D01*
X27304D01*
X27307Y12633D01*
X27322Y12611D01*
X27344Y12596D01*
X27370Y12591D01*
X27591D01*
X27617Y12596D01*
X27639Y12611D01*
X27654Y12633D01*
X27659Y12659D01*
Y12880D01*
X27654Y12906D01*
X27639Y12928D01*
X27617Y12943D01*
X27591Y12948D01*
X27370D01*
X27344Y12943D01*
X27322Y12928D01*
X27307Y12906D01*
X27304Y12890D01*
X26948D01*
X26945Y12906D01*
X26930Y12928D01*
X26908Y12943D01*
X26892Y12946D01*
Y13302D01*
X26908Y13305D01*
X26930Y13320D01*
X26945Y13342D01*
X26948Y13358D01*
X27304D01*
X27307Y13342D01*
X27322Y13320D01*
X27344Y13305D01*
X27370Y13300D01*
X27591D01*
X27617Y13305D01*
X27639Y13320D01*
X27654Y13342D01*
X27657Y13358D01*
X29434D01*
X30063Y12730D01*
Y11396D01*
X30051D01*
Y11113D01*
X30063D01*
Y11003D01*
X30051D01*
Y10719D01*
X30063D01*
Y10664D01*
X29921D01*
Y10270D01*
X29998D01*
Y10187D01*
X29921D01*
Y9793D01*
X30315D01*
Y10187D01*
X30239D01*
Y10270D01*
X30315D01*
Y10664D01*
X30303D01*
Y10719D01*
X30315D01*
Y11003D01*
X30303D01*
Y11113D01*
X30315D01*
Y11396D01*
X30303D01*
Y12780D01*
X30303Y12780D01*
X30294Y12826D01*
X30268Y12865D01*
X29569Y13563D01*
X29530Y13590D01*
X29484Y13599D01*
X29484Y13599D01*
X27657D01*
X27654Y13615D01*
X27639Y13637D01*
X27617Y13652D01*
X27591Y13657D01*
D02*
G37*
G36*
X25465D02*
X25394D01*
Y13518D01*
X25533D01*
Y13589D01*
X25528Y13615D01*
X25513Y13637D01*
X25491Y13652D01*
X25465Y13657D01*
D02*
G37*
G36*
X23898D02*
X23827D01*
X23801Y13652D01*
X23779Y13637D01*
X23764Y13615D01*
X23759Y13589D01*
Y13518D01*
X23898D01*
Y13657D01*
D02*
G37*
G36*
X23339D02*
X23268D01*
Y13518D01*
X23407D01*
Y13589D01*
X23402Y13615D01*
X23387Y13637D01*
X23365Y13652D01*
X23339Y13657D01*
D02*
G37*
G36*
X23189D02*
X23118D01*
X23092Y13652D01*
X23070Y13637D01*
X23055Y13615D01*
X23050Y13589D01*
Y13518D01*
X23189D01*
Y13657D01*
D02*
G37*
G36*
X22630D02*
X22559D01*
Y13518D01*
X22698D01*
Y13589D01*
X22693Y13615D01*
X22678Y13637D01*
X22656Y13652D01*
X22630Y13657D01*
D02*
G37*
G36*
X21063D02*
X20992D01*
X20966Y13652D01*
X20944Y13637D01*
X20929Y13615D01*
X20924Y13589D01*
Y13518D01*
X21063D01*
Y13657D01*
D02*
G37*
G36*
X10986Y13528D02*
X10894D01*
Y13425D01*
X10986D01*
Y13528D01*
D02*
G37*
G36*
X10815D02*
X10722D01*
Y13425D01*
X10815D01*
Y13528D01*
D02*
G37*
G36*
X12561D02*
X12469D01*
Y13425D01*
X12561D01*
Y13528D01*
D02*
G37*
G36*
X9411D02*
X9319D01*
Y13425D01*
X9411D01*
Y13528D01*
D02*
G37*
G36*
X12390D02*
X12297D01*
Y13425D01*
X12390D01*
Y13528D01*
D02*
G37*
G36*
X9240D02*
X9148D01*
Y13425D01*
X9240D01*
Y13528D01*
D02*
G37*
G36*
X4669Y13490D02*
X4567D01*
Y13398D01*
X4669D01*
Y13490D01*
D02*
G37*
G36*
X4488D02*
X4386D01*
Y13398D01*
X4488D01*
Y13490D01*
D02*
G37*
G36*
X5671Y13500D02*
X5579D01*
Y13398D01*
X5671D01*
Y13500D01*
D02*
G37*
G36*
X5500D02*
X5407D01*
Y13398D01*
X5500D01*
Y13500D01*
D02*
G37*
G36*
X4276Y13490D02*
X4173D01*
Y13398D01*
X4276D01*
Y13490D01*
D02*
G37*
G36*
X4094D02*
X3992D01*
Y13398D01*
X4094D01*
Y13490D01*
D02*
G37*
G36*
X25533Y13439D02*
X25394D01*
Y13300D01*
X25465D01*
X25491Y13305D01*
X25513Y13320D01*
X25528Y13342D01*
X25533Y13368D01*
Y13439D01*
D02*
G37*
G36*
X23898D02*
X23759D01*
Y13368D01*
X23764Y13342D01*
X23779Y13320D01*
X23801Y13305D01*
X23827Y13300D01*
X23898D01*
Y13439D01*
D02*
G37*
G36*
X23407D02*
X23268D01*
Y13300D01*
X23339D01*
X23365Y13305D01*
X23387Y13320D01*
X23402Y13342D01*
X23407Y13368D01*
Y13439D01*
D02*
G37*
G36*
X23189D02*
X23050D01*
Y13368D01*
X23055Y13342D01*
X23070Y13320D01*
X23092Y13305D01*
X23118Y13300D01*
X23189D01*
Y13439D01*
D02*
G37*
G36*
X22698D02*
X22559D01*
Y13300D01*
X22630D01*
X22656Y13305D01*
X22678Y13320D01*
X22693Y13342D01*
X22698Y13368D01*
Y13439D01*
D02*
G37*
G36*
X21063D02*
X20924D01*
Y13368D01*
X20929Y13342D01*
X20944Y13320D01*
X20966Y13305D01*
X20992Y13300D01*
X21063D01*
Y13439D01*
D02*
G37*
G36*
X20504Y13657D02*
X20283D01*
X20257Y13652D01*
X20235Y13637D01*
X20220Y13615D01*
X20215Y13589D01*
Y13368D01*
X20220Y13342D01*
X20235Y13320D01*
X20257Y13305D01*
X20283Y13300D01*
X20504D01*
X20530Y13305D01*
X20552Y13320D01*
X20567Y13342D01*
X20572Y13368D01*
Y13589D01*
X20567Y13615D01*
X20552Y13637D01*
X20530Y13652D01*
X20504Y13657D01*
D02*
G37*
G36*
X19795D02*
X19575D01*
X19549Y13652D01*
X19527Y13637D01*
X19512Y13615D01*
X19507Y13589D01*
Y13368D01*
X19512Y13342D01*
X19527Y13320D01*
X19549Y13305D01*
X19575Y13300D01*
X19795D01*
X19821Y13305D01*
X19844Y13320D01*
X19858Y13342D01*
X19864Y13368D01*
Y13589D01*
X19858Y13615D01*
X19844Y13637D01*
X19821Y13652D01*
X19795Y13657D01*
D02*
G37*
G36*
X19087D02*
X18866D01*
X18840Y13652D01*
X18818Y13637D01*
X18803Y13615D01*
X18798Y13589D01*
Y13368D01*
X18803Y13342D01*
X18818Y13320D01*
X18840Y13305D01*
X18866Y13300D01*
X19087D01*
X19113Y13305D01*
X19135Y13320D01*
X19150Y13342D01*
X19155Y13368D01*
Y13589D01*
X19150Y13615D01*
X19135Y13637D01*
X19113Y13652D01*
X19087Y13657D01*
D02*
G37*
G36*
X12561Y13346D02*
X12469D01*
Y13244D01*
X12561D01*
Y13346D01*
D02*
G37*
G36*
X12390D02*
X12297D01*
Y13244D01*
X12390D01*
Y13346D01*
D02*
G37*
G36*
X10986Y13346D02*
X10894D01*
Y13244D01*
X10986D01*
Y13346D01*
D02*
G37*
G36*
X10815D02*
X10722D01*
Y13244D01*
X10815D01*
Y13346D01*
D02*
G37*
G36*
X9411Y13346D02*
X9319D01*
Y13244D01*
X9411D01*
Y13346D01*
D02*
G37*
G36*
X9240D02*
X9148D01*
Y13244D01*
X9240D01*
Y13346D01*
D02*
G37*
G36*
X4669Y13319D02*
X4567D01*
Y13226D01*
X4669D01*
Y13319D01*
D02*
G37*
G36*
X4488D02*
X4386D01*
Y13226D01*
X4488D01*
Y13319D01*
D02*
G37*
G36*
X4276Y13319D02*
X4173D01*
Y13226D01*
X4276D01*
Y13319D01*
D02*
G37*
G36*
X4094D02*
X3992D01*
Y13226D01*
X4094D01*
Y13319D01*
D02*
G37*
G36*
X5671Y13319D02*
X5579D01*
Y13217D01*
X5671D01*
Y13319D01*
D02*
G37*
G36*
X5500D02*
X5407D01*
Y13217D01*
X5500D01*
Y13319D01*
D02*
G37*
G36*
X827Y13228D02*
X433D01*
Y13032D01*
X827D01*
Y13228D01*
D02*
G37*
G36*
X354D02*
X-39D01*
Y13032D01*
X354D01*
Y13228D01*
D02*
G37*
G36*
X14136Y13134D02*
X14043D01*
Y13032D01*
X14136D01*
Y13134D01*
D02*
G37*
G36*
X13965D02*
X13872D01*
Y13032D01*
X13965D01*
Y13134D01*
D02*
G37*
G36*
X12900Y13528D02*
X12636D01*
Y13244D01*
X12687D01*
Y13134D01*
X12636D01*
Y12850D01*
X12900D01*
Y12912D01*
X13030D01*
X13042Y12893D01*
X13088Y12862D01*
X13142Y12852D01*
X13196Y12862D01*
X13241Y12893D01*
X13272Y12938D01*
X13282Y12992D01*
X13272Y13046D01*
X13241Y13091D01*
X13196Y13122D01*
X13142Y13133D01*
X13088Y13122D01*
X13042Y13091D01*
X13030Y13072D01*
X12900D01*
Y13134D01*
X12848D01*
Y13244D01*
X12900D01*
Y13528D01*
D02*
G37*
G36*
X9750D02*
X9486D01*
Y13244D01*
X9538D01*
Y13134D01*
X9486D01*
Y12850D01*
X9750D01*
Y12912D01*
X9880D01*
X9893Y12893D01*
X9938Y12862D01*
X9992Y12852D01*
X10046Y12862D01*
X10091Y12893D01*
X10122Y12938D01*
X10133Y12992D01*
X10122Y13046D01*
X10091Y13091D01*
X10046Y13122D01*
X9992Y13133D01*
X9938Y13122D01*
X9893Y13091D01*
X9880Y13072D01*
X9750D01*
Y13134D01*
X9698D01*
Y13244D01*
X9750D01*
Y13528D01*
D02*
G37*
G36*
X14136Y12953D02*
X14043D01*
Y12850D01*
X14136D01*
Y12953D01*
D02*
G37*
G36*
X13965D02*
X13872D01*
Y12850D01*
X13965D01*
Y12953D01*
D02*
G37*
G36*
X11325Y13528D02*
X11061D01*
Y13244D01*
X11113D01*
Y13134D01*
X11061D01*
Y12850D01*
X11325D01*
Y12909D01*
X11453D01*
X11468Y12888D01*
X11513Y12857D01*
X11567Y12847D01*
X11621Y12857D01*
X11666Y12888D01*
X11697Y12933D01*
X11707Y12987D01*
X11697Y13041D01*
X11666Y13086D01*
X11621Y13117D01*
X11567Y13128D01*
X11513Y13117D01*
X11468Y13086D01*
X11457Y13070D01*
X11325D01*
Y13134D01*
X11273D01*
Y13244D01*
X11325D01*
Y13528D01*
D02*
G37*
G36*
X28299Y12948D02*
X28228D01*
Y12809D01*
X28367D01*
Y12880D01*
X28362Y12906D01*
X28347Y12928D01*
X28325Y12943D01*
X28299Y12948D01*
D02*
G37*
G36*
X28150D02*
X28079D01*
X28053Y12943D01*
X28030Y12928D01*
X28016Y12906D01*
X28010Y12880D01*
Y12809D01*
X28150D01*
Y12948D01*
D02*
G37*
G36*
X25465D02*
X25394D01*
Y12809D01*
X25533D01*
Y12880D01*
X25528Y12906D01*
X25513Y12928D01*
X25491Y12943D01*
X25465Y12948D01*
D02*
G37*
G36*
X25315D02*
X25244D01*
X25218Y12943D01*
X25196Y12928D01*
X25181Y12906D01*
X25176Y12880D01*
Y12809D01*
X25315D01*
Y12948D01*
D02*
G37*
G36*
X24047D02*
X23976D01*
Y12809D01*
X24115D01*
Y12880D01*
X24110Y12906D01*
X24095Y12928D01*
X24073Y12943D01*
X24047Y12948D01*
D02*
G37*
G36*
X23898D02*
X23827D01*
X23801Y12943D01*
X23779Y12928D01*
X23764Y12906D01*
X23759Y12880D01*
Y12809D01*
X23898D01*
Y12948D01*
D02*
G37*
G36*
X23339D02*
X23268D01*
Y12809D01*
X23407D01*
Y12880D01*
X23402Y12906D01*
X23387Y12928D01*
X23365Y12943D01*
X23339Y12948D01*
D02*
G37*
G36*
X23189D02*
X23118D01*
X23092Y12943D01*
X23070Y12928D01*
X23055Y12906D01*
X23050Y12880D01*
Y12809D01*
X23189D01*
Y12948D01*
D02*
G37*
G36*
X22630D02*
X22559D01*
Y12809D01*
X22698D01*
Y12880D01*
X22693Y12906D01*
X22678Y12928D01*
X22656Y12943D01*
X22630Y12948D01*
D02*
G37*
G36*
X22480D02*
X22409D01*
X22383Y12943D01*
X22361Y12928D01*
X22346Y12906D01*
X22341Y12880D01*
Y12809D01*
X22480D01*
Y12948D01*
D02*
G37*
G36*
X21213D02*
X21142D01*
Y12809D01*
X21281D01*
Y12880D01*
X21276Y12906D01*
X21261Y12928D01*
X21239Y12943D01*
X21213Y12948D01*
D02*
G37*
G36*
X21063D02*
X20992D01*
X20966Y12943D01*
X20944Y12928D01*
X20929Y12906D01*
X20924Y12880D01*
Y12809D01*
X21063D01*
Y12948D01*
D02*
G37*
G36*
X18378D02*
X18307D01*
Y12809D01*
X18446D01*
Y12880D01*
X18441Y12906D01*
X18426Y12928D01*
X18404Y12943D01*
X18378Y12948D01*
D02*
G37*
G36*
X18228D02*
X18157D01*
X18131Y12943D01*
X18109Y12928D01*
X18094Y12906D01*
X18089Y12880D01*
Y12809D01*
X18228D01*
Y12948D01*
D02*
G37*
G36*
X827Y12953D02*
X433D01*
Y12756D01*
X827D01*
Y12953D01*
D02*
G37*
G36*
X354D02*
X-39D01*
Y12756D01*
X354D01*
Y12953D01*
D02*
G37*
G36*
X14474Y13134D02*
X14211D01*
Y12850D01*
X14262D01*
Y12697D01*
X14055D01*
Y12659D01*
X13911D01*
X13899Y12678D01*
X13853Y12709D01*
X13799Y12719D01*
X13745Y12709D01*
X13700Y12678D01*
X13669Y12633D01*
X13659Y12579D01*
X13669Y12525D01*
X13700Y12479D01*
X13745Y12449D01*
X13799Y12438D01*
X13853Y12449D01*
X13899Y12479D01*
X13911Y12498D01*
X14055D01*
Y12461D01*
X14262D01*
Y12343D01*
X14203D01*
Y12106D01*
X14203Y12106D01*
X14206Y12056D01*
X14200Y12028D01*
X14205Y12001D01*
X14211Y11953D01*
X14211Y11953D01*
X14211Y11953D01*
Y11669D01*
X14474D01*
Y11953D01*
X14474Y11953D01*
X14476Y12002D01*
X14481Y12028D01*
X14470Y12081D01*
X14440Y12127D01*
X14439Y12128D01*
Y12343D01*
X14423D01*
Y12850D01*
X14474D01*
Y13134D01*
D02*
G37*
G36*
X28367Y12730D02*
X28228D01*
Y12591D01*
X28299D01*
X28325Y12596D01*
X28347Y12611D01*
X28362Y12633D01*
X28367Y12659D01*
Y12730D01*
D02*
G37*
G36*
X28150D02*
X28010D01*
Y12659D01*
X28016Y12633D01*
X28030Y12611D01*
X28053Y12596D01*
X28079Y12591D01*
X28150D01*
Y12730D01*
D02*
G37*
G36*
X25533D02*
X25394D01*
Y12591D01*
X25465D01*
X25491Y12596D01*
X25513Y12611D01*
X25528Y12633D01*
X25533Y12659D01*
Y12730D01*
D02*
G37*
G36*
X25315D02*
X25176D01*
Y12659D01*
X25181Y12633D01*
X25196Y12611D01*
X25218Y12596D01*
X25244Y12591D01*
X25315D01*
Y12730D01*
D02*
G37*
G36*
X24824D02*
X24685D01*
Y12591D01*
X24756D01*
X24782Y12596D01*
X24804Y12611D01*
X24819Y12633D01*
X24824Y12659D01*
Y12730D01*
D02*
G37*
G36*
X24606D02*
X24467D01*
Y12659D01*
X24472Y12633D01*
X24487Y12611D01*
X24509Y12596D01*
X24535Y12591D01*
X24606D01*
Y12730D01*
D02*
G37*
G36*
X24115D02*
X23976D01*
Y12591D01*
X24047D01*
X24073Y12596D01*
X24095Y12611D01*
X24110Y12633D01*
X24115Y12659D01*
Y12730D01*
D02*
G37*
G36*
X23898D02*
X23759D01*
Y12659D01*
X23764Y12633D01*
X23779Y12611D01*
X23801Y12596D01*
X23827Y12591D01*
X23898D01*
Y12730D01*
D02*
G37*
G36*
X23407D02*
X23268D01*
Y12591D01*
X23339D01*
X23365Y12596D01*
X23387Y12611D01*
X23402Y12633D01*
X23407Y12659D01*
Y12730D01*
D02*
G37*
G36*
X23189D02*
X23050D01*
Y12659D01*
X23055Y12633D01*
X23070Y12611D01*
X23092Y12596D01*
X23118Y12591D01*
X23189D01*
Y12730D01*
D02*
G37*
G36*
X22698D02*
X22559D01*
Y12591D01*
X22630D01*
X22656Y12596D01*
X22678Y12611D01*
X22693Y12633D01*
X22698Y12659D01*
Y12730D01*
D02*
G37*
G36*
X22480D02*
X22341D01*
Y12659D01*
X22346Y12633D01*
X22361Y12611D01*
X22383Y12596D01*
X22409Y12591D01*
X22480D01*
Y12730D01*
D02*
G37*
G36*
X21990D02*
X21850D01*
Y12591D01*
X21921D01*
X21947Y12596D01*
X21970Y12611D01*
X21984Y12633D01*
X21990Y12659D01*
Y12730D01*
D02*
G37*
G36*
X21772D02*
X21633D01*
Y12659D01*
X21638Y12633D01*
X21653Y12611D01*
X21675Y12596D01*
X21701Y12591D01*
X21772D01*
Y12730D01*
D02*
G37*
G36*
X21281D02*
X21142D01*
Y12591D01*
X21213D01*
X21239Y12596D01*
X21261Y12611D01*
X21276Y12633D01*
X21281Y12659D01*
Y12730D01*
D02*
G37*
G36*
X21063D02*
X20924D01*
Y12659D01*
X20929Y12633D01*
X20944Y12611D01*
X20966Y12596D01*
X20992Y12591D01*
X21063D01*
Y12730D01*
D02*
G37*
G36*
X20504Y12948D02*
X20283D01*
X20257Y12943D01*
X20235Y12928D01*
X20220Y12906D01*
X20215Y12880D01*
Y12659D01*
X20220Y12633D01*
X20235Y12611D01*
X20257Y12596D01*
X20283Y12591D01*
X20504D01*
X20530Y12596D01*
X20552Y12611D01*
X20567Y12633D01*
X20572Y12659D01*
Y12880D01*
X20567Y12906D01*
X20552Y12928D01*
X20530Y12943D01*
X20504Y12948D01*
D02*
G37*
G36*
X19795D02*
X19575D01*
X19549Y12943D01*
X19527Y12928D01*
X19512Y12906D01*
X19507Y12880D01*
Y12659D01*
X19512Y12633D01*
X19527Y12611D01*
X19549Y12596D01*
X19575Y12591D01*
X19795D01*
X19821Y12596D01*
X19844Y12611D01*
X19858Y12633D01*
X19864Y12659D01*
Y12880D01*
X19858Y12906D01*
X19844Y12928D01*
X19821Y12943D01*
X19795Y12948D01*
D02*
G37*
G36*
X19087D02*
X18866D01*
X18840Y12943D01*
X18818Y12928D01*
X18803Y12906D01*
X18798Y12880D01*
Y12659D01*
X18803Y12633D01*
X18818Y12611D01*
X18840Y12596D01*
X18866Y12591D01*
X19087D01*
X19113Y12596D01*
X19135Y12611D01*
X19150Y12633D01*
X19155Y12659D01*
Y12880D01*
X19150Y12906D01*
X19135Y12928D01*
X19113Y12943D01*
X19087Y12948D01*
D02*
G37*
G36*
X18446Y12730D02*
X18307D01*
Y12591D01*
X18378D01*
X18404Y12596D01*
X18426Y12611D01*
X18441Y12633D01*
X18446Y12659D01*
Y12730D01*
D02*
G37*
G36*
X18228D02*
X18089D01*
Y12659D01*
X18094Y12633D01*
X18109Y12611D01*
X18131Y12596D01*
X18157Y12591D01*
X18228D01*
Y12730D01*
D02*
G37*
G36*
X2795Y13228D02*
X1929D01*
Y12756D01*
X2795D01*
Y12872D01*
X3013D01*
X3027Y12862D01*
X3081Y12852D01*
X3134Y12862D01*
X3149Y12872D01*
X4858D01*
X5096Y12634D01*
Y12293D01*
X5000D01*
Y12128D01*
X4733D01*
X4646Y12216D01*
Y12510D01*
X3228D01*
Y12045D01*
X4475D01*
X4598Y11923D01*
X4598Y11923D01*
X4637Y11897D01*
X4683Y11887D01*
X5000D01*
Y11850D01*
X5295D01*
X5591D01*
Y11900D01*
X5484D01*
X5457Y11950D01*
X5466Y11962D01*
X5475Y12008D01*
X5466Y12054D01*
X5452Y12074D01*
X5433Y12116D01*
Y12293D01*
X5337D01*
Y12561D01*
X5407D01*
Y12539D01*
X5671D01*
Y12823D01*
X5660D01*
Y12878D01*
X5671D01*
Y13161D01*
X5407D01*
Y12878D01*
X5419D01*
Y12823D01*
X5407D01*
Y12802D01*
X5269D01*
X4993Y13077D01*
X4954Y13103D01*
X4908Y13113D01*
X4908Y13113D01*
X4669D01*
Y13152D01*
X4386D01*
Y13113D01*
X4276D01*
Y13152D01*
X3992D01*
Y13113D01*
X3149D01*
X3134Y13122D01*
X3081Y13133D01*
X3027Y13122D01*
X3013Y13113D01*
X2795D01*
Y13228D01*
D02*
G37*
G36*
X12561Y13134D02*
X12297D01*
Y12850D01*
X12349D01*
Y12748D01*
X12355Y12717D01*
X12372Y12691D01*
X12480Y12583D01*
Y12461D01*
X12717D01*
Y12697D01*
X12594D01*
X12509Y12781D01*
Y12850D01*
X12561D01*
Y13134D01*
D02*
G37*
G36*
X10986D02*
X10722D01*
Y12850D01*
X10774D01*
Y12748D01*
X10780Y12717D01*
X10798Y12691D01*
X10906Y12583D01*
Y12461D01*
X11142D01*
Y12697D01*
X11019D01*
X10935Y12781D01*
Y12850D01*
X10986D01*
Y13134D01*
D02*
G37*
G36*
X9411D02*
X9148D01*
Y12850D01*
X9199D01*
Y12748D01*
X9205Y12717D01*
X9223Y12691D01*
X9331Y12583D01*
Y12461D01*
X9567D01*
Y12697D01*
X9444D01*
X9360Y12781D01*
Y12850D01*
X9411D01*
Y13134D01*
D02*
G37*
G36*
X18622Y12556D02*
X18568Y12545D01*
X18523Y12515D01*
X18492Y12469D01*
X18482Y12415D01*
X18486Y12393D01*
X18333Y12239D01*
X18157D01*
X18131Y12234D01*
X18109Y12220D01*
X18094Y12197D01*
X18089Y12171D01*
Y11951D01*
X18094Y11925D01*
X18109Y11903D01*
X18131Y11888D01*
X18157Y11883D01*
X18378D01*
X18404Y11888D01*
X18426Y11903D01*
X18441Y11925D01*
X18446Y11951D01*
Y12126D01*
X18600Y12279D01*
X18622Y12275D01*
X18676Y12286D01*
X18721Y12316D01*
X18752Y12362D01*
X18763Y12415D01*
X18752Y12469D01*
X18721Y12515D01*
X18676Y12545D01*
X18622Y12556D01*
D02*
G37*
G36*
X12864Y12343D02*
X12785D01*
Y12264D01*
X12864D01*
Y12343D01*
D02*
G37*
G36*
X12707D02*
X12628D01*
Y12264D01*
X12707D01*
Y12343D01*
D02*
G37*
G36*
X11289D02*
X11211D01*
Y12264D01*
X11289D01*
Y12343D01*
D02*
G37*
G36*
X11132D02*
X11053D01*
Y12264D01*
X11132D01*
Y12343D01*
D02*
G37*
G36*
X9715D02*
X9636D01*
Y12264D01*
X9715D01*
Y12343D01*
D02*
G37*
G36*
X9557D02*
X9478D01*
Y12264D01*
X9557D01*
Y12343D01*
D02*
G37*
G36*
X12864Y12185D02*
X12785D01*
Y12106D01*
X12864D01*
Y12185D01*
D02*
G37*
G36*
X12707D02*
X12628D01*
Y12106D01*
X12707D01*
Y12185D01*
D02*
G37*
G36*
X11289Y12185D02*
X11211D01*
Y12106D01*
X11289D01*
Y12185D01*
D02*
G37*
G36*
X11132D02*
X11053D01*
Y12106D01*
X11132D01*
Y12185D01*
D02*
G37*
G36*
X9715Y12185D02*
X9636D01*
Y12106D01*
X9715D01*
Y12185D01*
D02*
G37*
G36*
X9557D02*
X9478D01*
Y12106D01*
X9557D01*
Y12185D01*
D02*
G37*
G36*
X28299Y12239D02*
X28228D01*
Y12100D01*
X28367D01*
Y12171D01*
X28362Y12197D01*
X28347Y12220D01*
X28325Y12234D01*
X28299Y12239D01*
D02*
G37*
G36*
X28150D02*
X28079D01*
X28053Y12234D01*
X28030Y12220D01*
X28016Y12197D01*
X28010Y12171D01*
Y12100D01*
X28150D01*
Y12239D01*
D02*
G37*
G36*
X27591D02*
X27520D01*
Y12100D01*
X27659D01*
Y12171D01*
X27654Y12197D01*
X27639Y12220D01*
X27617Y12234D01*
X27591Y12239D01*
D02*
G37*
G36*
X27441D02*
X27370D01*
X27344Y12234D01*
X27322Y12220D01*
X27307Y12197D01*
X27302Y12171D01*
Y12100D01*
X27441D01*
Y12239D01*
D02*
G37*
G36*
X26882D02*
X26811D01*
Y12100D01*
X26950D01*
Y12171D01*
X26945Y12197D01*
X26930Y12220D01*
X26908Y12234D01*
X26882Y12239D01*
D02*
G37*
G36*
X26732D02*
X26661D01*
X26635Y12234D01*
X26613Y12220D01*
X26598Y12197D01*
X26593Y12171D01*
Y12100D01*
X26732D01*
Y12239D01*
D02*
G37*
G36*
X26173D02*
X26102D01*
Y12100D01*
X26241D01*
Y12171D01*
X26236Y12197D01*
X26221Y12220D01*
X26199Y12234D01*
X26173Y12239D01*
D02*
G37*
G36*
X26024D02*
X25953D01*
X25927Y12234D01*
X25905Y12220D01*
X25890Y12197D01*
X25885Y12171D01*
Y12100D01*
X26024D01*
Y12239D01*
D02*
G37*
G36*
X6010Y13500D02*
X5746D01*
Y13217D01*
X5758D01*
Y13161D01*
X5746D01*
Y12878D01*
X6010D01*
Y12939D01*
X6140D01*
X6219Y12860D01*
Y12169D01*
X6138Y12088D01*
X6062D01*
X6024Y12116D01*
X6024Y12146D01*
Y12293D01*
X5958D01*
Y12539D01*
X6010D01*
Y12823D01*
X5746D01*
Y12539D01*
X5798D01*
Y12293D01*
X5709D01*
Y12146D01*
X5709Y12116D01*
X5709Y12066D01*
X5709Y11919D01*
X5709Y11869D01*
Y11850D01*
X5866D01*
X6024D01*
Y11900D01*
X6062Y11928D01*
X6171D01*
X6202Y11934D01*
X6228Y11951D01*
X6356Y12079D01*
X6373Y12105D01*
X6380Y12136D01*
X6380Y12136D01*
Y12894D01*
X6373Y12924D01*
X6356Y12950D01*
X6356Y12950D01*
X6230Y13076D01*
X6204Y13094D01*
X6173Y13100D01*
X6010D01*
Y13161D01*
X5998D01*
Y13217D01*
X6010D01*
Y13500D01*
D02*
G37*
G36*
X28367Y12022D02*
X28228D01*
Y11883D01*
X28299D01*
X28325Y11888D01*
X28347Y11903D01*
X28362Y11925D01*
X28367Y11951D01*
Y12022D01*
D02*
G37*
G36*
X28150D02*
X28010D01*
Y11951D01*
X28016Y11925D01*
X28030Y11903D01*
X28053Y11888D01*
X28079Y11883D01*
X28150D01*
Y12022D01*
D02*
G37*
G36*
X27659D02*
X27520D01*
Y11883D01*
X27591D01*
X27617Y11888D01*
X27639Y11903D01*
X27654Y11925D01*
X27659Y11951D01*
Y12022D01*
D02*
G37*
G36*
X27441D02*
X27302D01*
Y11951D01*
X27307Y11925D01*
X27322Y11903D01*
X27344Y11888D01*
X27370Y11883D01*
X27441D01*
Y12022D01*
D02*
G37*
G36*
X26950D02*
X26811D01*
Y11883D01*
X26882D01*
X26908Y11888D01*
X26930Y11903D01*
X26945Y11925D01*
X26950Y11951D01*
Y12022D01*
D02*
G37*
G36*
X26732D02*
X26593D01*
Y11951D01*
X26598Y11925D01*
X26613Y11903D01*
X26635Y11888D01*
X26661Y11883D01*
X26732D01*
Y12022D01*
D02*
G37*
G36*
X26241D02*
X26102D01*
Y11883D01*
X26173D01*
X26199Y11888D01*
X26221Y11903D01*
X26236Y11925D01*
X26241Y11951D01*
Y12022D01*
D02*
G37*
G36*
X26024D02*
X25885D01*
Y11951D01*
X25890Y11925D01*
X25905Y11903D01*
X25927Y11888D01*
X25953Y11883D01*
X26024D01*
Y12022D01*
D02*
G37*
G36*
X25465Y12239D02*
X25244D01*
X25218Y12234D01*
X25196Y12220D01*
X25181Y12197D01*
X25176Y12171D01*
Y11951D01*
X25181Y11925D01*
X25196Y11903D01*
X25218Y11888D01*
X25244Y11883D01*
X25465D01*
X25491Y11888D01*
X25513Y11903D01*
X25528Y11925D01*
X25533Y11951D01*
Y12171D01*
X25528Y12197D01*
X25513Y12220D01*
X25491Y12234D01*
X25465Y12239D01*
D02*
G37*
G36*
X24756D02*
X24535D01*
X24509Y12234D01*
X24487Y12220D01*
X24472Y12197D01*
X24467Y12171D01*
Y11951D01*
X24472Y11925D01*
X24487Y11903D01*
X24509Y11888D01*
X24535Y11883D01*
X24756D01*
X24782Y11888D01*
X24804Y11903D01*
X24819Y11925D01*
X24824Y11951D01*
Y12171D01*
X24819Y12197D01*
X24804Y12220D01*
X24782Y12234D01*
X24756Y12239D01*
D02*
G37*
G36*
X24047D02*
X23827D01*
X23801Y12234D01*
X23779Y12220D01*
X23764Y12197D01*
X23759Y12171D01*
Y11951D01*
X23764Y11925D01*
X23779Y11903D01*
X23801Y11888D01*
X23827Y11883D01*
X24047D01*
X24073Y11888D01*
X24095Y11903D01*
X24110Y11925D01*
X24115Y11951D01*
Y12171D01*
X24110Y12197D01*
X24095Y12220D01*
X24073Y12234D01*
X24047Y12239D01*
D02*
G37*
G36*
X23339D02*
X23118D01*
X23092Y12234D01*
X23070Y12220D01*
X23055Y12197D01*
X23050Y12171D01*
Y11951D01*
X23055Y11925D01*
X23070Y11903D01*
X23092Y11888D01*
X23118Y11883D01*
X23339D01*
X23365Y11888D01*
X23387Y11903D01*
X23402Y11925D01*
X23407Y11951D01*
Y12171D01*
X23402Y12197D01*
X23387Y12220D01*
X23365Y12234D01*
X23339Y12239D01*
D02*
G37*
G36*
X22630D02*
X22409D01*
X22383Y12234D01*
X22361Y12220D01*
X22346Y12197D01*
X22341Y12171D01*
Y11951D01*
X22346Y11925D01*
X22361Y11903D01*
X22383Y11888D01*
X22409Y11883D01*
X22630D01*
X22656Y11888D01*
X22678Y11903D01*
X22693Y11925D01*
X22698Y11951D01*
Y12171D01*
X22693Y12197D01*
X22678Y12220D01*
X22656Y12234D01*
X22630Y12239D01*
D02*
G37*
G36*
X21921D02*
X21701D01*
X21675Y12234D01*
X21653Y12220D01*
X21638Y12197D01*
X21633Y12171D01*
Y11951D01*
X21638Y11925D01*
X21653Y11903D01*
X21675Y11888D01*
X21701Y11883D01*
X21921D01*
X21947Y11888D01*
X21970Y11903D01*
X21984Y11925D01*
X21990Y11951D01*
Y12171D01*
X21984Y12197D01*
X21970Y12220D01*
X21947Y12234D01*
X21921Y12239D01*
D02*
G37*
G36*
X21213D02*
X20992D01*
X20966Y12234D01*
X20944Y12220D01*
X20929Y12197D01*
X20924Y12171D01*
Y11951D01*
X20929Y11925D01*
X20944Y11903D01*
X20966Y11888D01*
X20992Y11883D01*
X21213D01*
X21239Y11888D01*
X21261Y11903D01*
X21276Y11925D01*
X21281Y11951D01*
Y12171D01*
X21276Y12197D01*
X21261Y12220D01*
X21239Y12234D01*
X21213Y12239D01*
D02*
G37*
G36*
X20504D02*
X20283D01*
X20257Y12234D01*
X20235Y12220D01*
X20220Y12197D01*
X20215Y12171D01*
Y11951D01*
X20220Y11925D01*
X20235Y11903D01*
X20257Y11888D01*
X20283Y11883D01*
X20504D01*
X20530Y11888D01*
X20552Y11903D01*
X20567Y11925D01*
X20572Y11951D01*
Y12171D01*
X20567Y12197D01*
X20552Y12220D01*
X20530Y12234D01*
X20504Y12239D01*
D02*
G37*
G36*
X19795D02*
X19575D01*
X19549Y12234D01*
X19527Y12220D01*
X19512Y12197D01*
X19507Y12171D01*
Y11951D01*
X19512Y11925D01*
X19527Y11903D01*
X19549Y11888D01*
X19575Y11883D01*
X19795D01*
X19821Y11888D01*
X19844Y11903D01*
X19858Y11925D01*
X19864Y11951D01*
Y12171D01*
X19858Y12197D01*
X19844Y12220D01*
X19821Y12234D01*
X19795Y12239D01*
D02*
G37*
G36*
X19087D02*
X18866D01*
X18840Y12234D01*
X18818Y12220D01*
X18803Y12197D01*
X18798Y12171D01*
Y11951D01*
X18803Y11925D01*
X18818Y11903D01*
X18840Y11888D01*
X18866Y11883D01*
X19087D01*
X19113Y11888D01*
X19135Y11903D01*
X19150Y11925D01*
X19155Y11951D01*
Y12171D01*
X19150Y12197D01*
X19135Y12220D01*
X19113Y12234D01*
X19087Y12239D01*
D02*
G37*
G36*
X12900Y11953D02*
X12636D01*
Y11669D01*
X12900D01*
Y11731D01*
X13030D01*
X13042Y11712D01*
X13088Y11681D01*
X13142Y11671D01*
X13196Y11681D01*
X13241Y11712D01*
X13272Y11757D01*
X13282Y11811D01*
X13272Y11865D01*
X13241Y11910D01*
X13196Y11941D01*
X13142Y11952D01*
X13088Y11941D01*
X13042Y11910D01*
X13030Y11891D01*
X12900D01*
Y11953D01*
D02*
G37*
G36*
X11325D02*
X11061D01*
Y11669D01*
X11325D01*
Y11731D01*
X11455D01*
X11468Y11712D01*
X11513Y11681D01*
X11567Y11671D01*
X11621Y11681D01*
X11666Y11712D01*
X11697Y11757D01*
X11707Y11811D01*
X11697Y11865D01*
X11666Y11910D01*
X11621Y11941D01*
X11567Y11952D01*
X11513Y11941D01*
X11468Y11910D01*
X11455Y11891D01*
X11325D01*
Y11953D01*
D02*
G37*
G36*
X9750D02*
X9486D01*
Y11669D01*
X9750D01*
Y11731D01*
X9880D01*
X9893Y11712D01*
X9938Y11681D01*
X9992Y11671D01*
X10046Y11681D01*
X10091Y11712D01*
X10122Y11757D01*
X10133Y11811D01*
X10122Y11865D01*
X10091Y11910D01*
X10046Y11941D01*
X9992Y11952D01*
X9938Y11941D01*
X9893Y11910D01*
X9880Y11891D01*
X9750D01*
Y11953D01*
D02*
G37*
G36*
X12569Y12343D02*
X12333D01*
Y12106D01*
X12360D01*
Y11953D01*
X12297D01*
Y11669D01*
X12561D01*
Y11953D01*
X12520D01*
Y12106D01*
X12569D01*
Y12343D01*
D02*
G37*
G36*
X6024Y11772D02*
X5866D01*
X5709D01*
Y11722D01*
X5709Y11672D01*
Y11654D01*
X5866D01*
X6024D01*
Y11703D01*
X6024Y11753D01*
Y11772D01*
D02*
G37*
G36*
X11325Y11559D02*
X11232D01*
Y11457D01*
X11325D01*
Y11559D01*
D02*
G37*
G36*
X11154D02*
X11061D01*
Y11457D01*
X11154D01*
Y11559D01*
D02*
G37*
G36*
X9750D02*
X9657D01*
Y11457D01*
X9750D01*
Y11559D01*
D02*
G37*
G36*
X9579D02*
X9486D01*
Y11457D01*
X9579D01*
Y11559D01*
D02*
G37*
G36*
X14474D02*
X14382D01*
Y11457D01*
X14474D01*
Y11559D01*
D02*
G37*
G36*
X14303D02*
X14211D01*
Y11457D01*
X14303D01*
Y11559D01*
D02*
G37*
G36*
X17465Y11484D02*
X17362D01*
Y11392D01*
X17465D01*
Y11484D01*
D02*
G37*
G36*
X17283D02*
X17181D01*
Y11392D01*
X17283D01*
Y11484D01*
D02*
G37*
G36*
X28299Y11531D02*
X28228D01*
Y11392D01*
X28367D01*
Y11463D01*
X28362Y11489D01*
X28347Y11511D01*
X28325Y11526D01*
X28299Y11531D01*
D02*
G37*
G36*
X28150D02*
X28079D01*
X28053Y11526D01*
X28030Y11511D01*
X28016Y11489D01*
X28010Y11463D01*
Y11392D01*
X28150D01*
Y11531D01*
D02*
G37*
G36*
X27591D02*
X27520D01*
Y11392D01*
X27659D01*
Y11463D01*
X27654Y11489D01*
X27639Y11511D01*
X27617Y11526D01*
X27591Y11531D01*
D02*
G37*
G36*
X27441D02*
X27370D01*
X27344Y11526D01*
X27322Y11511D01*
X27307Y11489D01*
X27302Y11463D01*
Y11392D01*
X27441D01*
Y11531D01*
D02*
G37*
G36*
X26882D02*
X26811D01*
Y11392D01*
X26950D01*
Y11463D01*
X26945Y11489D01*
X26930Y11511D01*
X26908Y11526D01*
X26882Y11531D01*
D02*
G37*
G36*
X26732D02*
X26661D01*
X26635Y11526D01*
X26613Y11511D01*
X26598Y11489D01*
X26593Y11463D01*
Y11392D01*
X26732D01*
Y11531D01*
D02*
G37*
G36*
X26173D02*
X26102D01*
Y11392D01*
X26241D01*
Y11463D01*
X26236Y11489D01*
X26221Y11511D01*
X26199Y11526D01*
X26173Y11531D01*
D02*
G37*
G36*
X26024D02*
X25953D01*
X25927Y11526D01*
X25905Y11511D01*
X25890Y11489D01*
X25885Y11463D01*
Y11392D01*
X26024D01*
Y11531D01*
D02*
G37*
G36*
X18378D02*
X18307D01*
Y11392D01*
X18446D01*
Y11463D01*
X18441Y11489D01*
X18426Y11511D01*
X18404Y11526D01*
X18378Y11531D01*
D02*
G37*
G36*
X18228D02*
X18157D01*
X18131Y11526D01*
X18109Y11511D01*
X18094Y11489D01*
X18089Y11463D01*
Y11392D01*
X18228D01*
Y11531D01*
D02*
G37*
G36*
X5591Y11772D02*
X5295D01*
X5000D01*
Y11735D01*
X4683D01*
X4637Y11725D01*
X4598Y11699D01*
X4598Y11699D01*
X4475Y11577D01*
X3228D01*
Y11112D01*
X4646D01*
Y11406D01*
X4733Y11494D01*
X5000D01*
Y11329D01*
X5096D01*
Y10966D01*
X4880Y10750D01*
X4005D01*
X3991Y10760D01*
X3937Y10770D01*
X3883Y10760D01*
X3869Y10750D01*
X2795D01*
Y10866D01*
X1929D01*
Y10394D01*
X2795D01*
Y10510D01*
X3869D01*
X3883Y10500D01*
X3937Y10489D01*
X3942Y10490D01*
X3992Y10470D01*
Y10470D01*
X4276D01*
Y10510D01*
X4386D01*
Y10470D01*
X4669D01*
Y10510D01*
X4930D01*
X4930Y10510D01*
X4976Y10519D01*
X5015Y10545D01*
X5302Y10831D01*
X5302Y10831D01*
X5328Y10870D01*
X5337Y10917D01*
Y11329D01*
X5433D01*
Y11337D01*
X5709D01*
Y11329D01*
X6024D01*
Y11476D01*
X6024Y11506D01*
X6024Y11556D01*
Y11575D01*
X5866D01*
X5709D01*
Y11526D01*
X5670Y11498D01*
X5476D01*
X5452Y11548D01*
X5452Y11548D01*
X5466Y11568D01*
X5475Y11614D01*
X5466Y11660D01*
X5457Y11672D01*
X5484Y11722D01*
X5591D01*
Y11772D01*
D02*
G37*
G36*
X29976Y11396D02*
X29884D01*
Y11294D01*
X29976D01*
Y11396D01*
D02*
G37*
G36*
X29805D02*
X29713D01*
Y11294D01*
X29805D01*
Y11396D01*
D02*
G37*
G36*
X31154D02*
X31061D01*
Y11294D01*
X31154D01*
Y11396D01*
D02*
G37*
G36*
X30982D02*
X30890D01*
Y11294D01*
X30982D01*
Y11396D01*
D02*
G37*
G36*
X14474Y11378D02*
X14382D01*
Y11276D01*
X14474D01*
Y11378D01*
D02*
G37*
G36*
X14303D02*
X14211D01*
Y11276D01*
X14303D01*
Y11378D01*
D02*
G37*
G36*
X11325Y11378D02*
X11232D01*
Y11276D01*
X11325D01*
Y11378D01*
D02*
G37*
G36*
X11154D02*
X11061D01*
Y11276D01*
X11154D01*
Y11378D01*
D02*
G37*
G36*
X9750Y11378D02*
X9657D01*
Y11276D01*
X9750D01*
Y11378D01*
D02*
G37*
G36*
X9579D02*
X9486D01*
Y11276D01*
X9579D01*
Y11378D01*
D02*
G37*
G36*
X17465Y11313D02*
X17362D01*
Y11220D01*
X17465D01*
Y11313D01*
D02*
G37*
G36*
X17283D02*
X17181D01*
Y11220D01*
X17283D01*
Y11313D01*
D02*
G37*
G36*
X28367Y11313D02*
X28228D01*
Y11174D01*
X28299D01*
X28325Y11179D01*
X28347Y11194D01*
X28362Y11216D01*
X28367Y11242D01*
Y11313D01*
D02*
G37*
G36*
X28150D02*
X28010D01*
Y11242D01*
X28016Y11216D01*
X28030Y11194D01*
X28053Y11179D01*
X28079Y11174D01*
X28150D01*
Y11313D01*
D02*
G37*
G36*
X27659D02*
X27520D01*
Y11174D01*
X27591D01*
X27617Y11179D01*
X27639Y11194D01*
X27654Y11216D01*
X27659Y11242D01*
Y11313D01*
D02*
G37*
G36*
X27441D02*
X27302D01*
Y11242D01*
X27307Y11216D01*
X27322Y11194D01*
X27344Y11179D01*
X27370Y11174D01*
X27441D01*
Y11313D01*
D02*
G37*
G36*
X26950D02*
X26811D01*
Y11174D01*
X26882D01*
X26908Y11179D01*
X26930Y11194D01*
X26945Y11216D01*
X26950Y11242D01*
Y11313D01*
D02*
G37*
G36*
X26732D02*
X26593D01*
Y11242D01*
X26598Y11216D01*
X26613Y11194D01*
X26635Y11179D01*
X26661Y11174D01*
X26732D01*
Y11313D01*
D02*
G37*
G36*
X26241D02*
X26102D01*
Y11174D01*
X26173D01*
X26199Y11179D01*
X26221Y11194D01*
X26236Y11216D01*
X26241Y11242D01*
Y11313D01*
D02*
G37*
G36*
X26024D02*
X25885D01*
Y11242D01*
X25890Y11216D01*
X25905Y11194D01*
X25927Y11179D01*
X25953Y11174D01*
X26024D01*
Y11313D01*
D02*
G37*
G36*
X17465Y11823D02*
X17181D01*
Y11559D01*
X17465D01*
Y11611D01*
X20232D01*
X20266Y11574D01*
X20259Y11534D01*
X20252Y11522D01*
X20235Y11511D01*
X20220Y11489D01*
X20215Y11463D01*
Y11242D01*
X20220Y11216D01*
X20235Y11194D01*
X20257Y11179D01*
X20283Y11174D01*
X20504D01*
X20530Y11179D01*
X20552Y11194D01*
X20567Y11216D01*
X20572Y11242D01*
Y11463D01*
X20567Y11489D01*
X20552Y11511D01*
X20530Y11526D01*
X20506Y11530D01*
X20474Y11565D01*
X20468Y11596D01*
X20450Y11622D01*
X20324Y11748D01*
X20298Y11765D01*
X20268Y11771D01*
X17465D01*
Y11823D01*
D02*
G37*
G36*
X19795Y11531D02*
X19575D01*
X19549Y11526D01*
X19527Y11511D01*
X19512Y11489D01*
X19507Y11463D01*
Y11242D01*
X19512Y11216D01*
X19527Y11194D01*
X19549Y11179D01*
X19575Y11174D01*
X19795D01*
X19821Y11179D01*
X19844Y11194D01*
X19858Y11216D01*
X19864Y11242D01*
Y11463D01*
X19858Y11489D01*
X19844Y11511D01*
X19821Y11526D01*
X19795Y11531D01*
D02*
G37*
G36*
X19087D02*
X18866D01*
X18840Y11526D01*
X18818Y11511D01*
X18803Y11489D01*
X18798Y11463D01*
Y11242D01*
X18803Y11216D01*
X18818Y11194D01*
X18840Y11179D01*
X18866Y11174D01*
X19087D01*
X19113Y11179D01*
X19135Y11194D01*
X19150Y11216D01*
X19155Y11242D01*
Y11463D01*
X19150Y11489D01*
X19135Y11511D01*
X19113Y11526D01*
X19087Y11531D01*
D02*
G37*
G36*
X18446Y11313D02*
X18307D01*
Y11174D01*
X18378D01*
X18404Y11179D01*
X18426Y11194D01*
X18441Y11216D01*
X18446Y11242D01*
Y11313D01*
D02*
G37*
G36*
X18228D02*
X18089D01*
Y11242D01*
X18094Y11216D01*
X18109Y11194D01*
X18131Y11179D01*
X18157Y11174D01*
X18228D01*
Y11313D01*
D02*
G37*
G36*
X31154Y11215D02*
X31061D01*
Y11113D01*
X31154D01*
Y11215D01*
D02*
G37*
G36*
X30982D02*
X30890D01*
Y11113D01*
X30982D01*
Y11215D01*
D02*
G37*
G36*
X29976Y11215D02*
X29884D01*
Y11113D01*
X29976D01*
Y11215D01*
D02*
G37*
G36*
X29805D02*
X29713D01*
Y11113D01*
X29805D01*
Y11215D01*
D02*
G37*
G36*
X9750Y11165D02*
X9657D01*
Y11063D01*
X9750D01*
Y11165D01*
D02*
G37*
G36*
X9579D02*
X9486D01*
Y11063D01*
X9579D01*
Y11165D01*
D02*
G37*
G36*
X11325D02*
X11232D01*
Y11063D01*
X11325D01*
Y11165D01*
D02*
G37*
G36*
X11154D02*
X11061D01*
Y11063D01*
X11154D01*
Y11165D01*
D02*
G37*
G36*
X29976Y11003D02*
X29884D01*
Y10900D01*
X29976D01*
Y11003D01*
D02*
G37*
G36*
X29805D02*
X29713D01*
Y10900D01*
X29805D01*
Y11003D01*
D02*
G37*
G36*
X31154D02*
X31061D01*
Y10900D01*
X31154D01*
Y11003D01*
D02*
G37*
G36*
X30982D02*
X30890D01*
Y10900D01*
X30982D01*
Y11003D01*
D02*
G37*
G36*
X14474Y11165D02*
X14211D01*
Y10882D01*
X14474D01*
Y10943D01*
X14604D01*
X14617Y10924D01*
X14663Y10894D01*
X14717Y10883D01*
X14770Y10894D01*
X14816Y10924D01*
X14846Y10970D01*
X14857Y11024D01*
X14846Y11077D01*
X14816Y11123D01*
X14770Y11153D01*
X14717Y11164D01*
X14663Y11153D01*
X14617Y11123D01*
X14604Y11104D01*
X14474D01*
Y11165D01*
D02*
G37*
G36*
X14144Y12343D02*
X13907D01*
Y12106D01*
X13934D01*
Y11953D01*
X13872D01*
Y11669D01*
X13924D01*
Y11559D01*
X13872D01*
Y11276D01*
X13924D01*
Y11165D01*
X13872D01*
Y10882D01*
X14136D01*
Y11165D01*
X14084D01*
Y11276D01*
X14136D01*
Y11559D01*
X14084D01*
Y11669D01*
X14136D01*
Y11953D01*
X14095D01*
Y12106D01*
X14144D01*
Y12343D01*
D02*
G37*
G36*
X11325Y10984D02*
X11232D01*
Y10882D01*
X11325D01*
Y10984D01*
D02*
G37*
G36*
X11154D02*
X11061D01*
Y10882D01*
X11154D01*
Y10984D01*
D02*
G37*
G36*
X10994Y12343D02*
X10758D01*
Y12106D01*
X10785D01*
Y11953D01*
X10722D01*
Y11669D01*
X10774D01*
Y11559D01*
X10722D01*
Y11276D01*
X10774D01*
Y11165D01*
X10722D01*
Y10882D01*
X10986D01*
Y11165D01*
X10935D01*
Y11276D01*
X10986D01*
Y11559D01*
X10935D01*
Y11669D01*
X10986D01*
Y11953D01*
X10945D01*
Y12106D01*
X10994D01*
Y12343D01*
D02*
G37*
G36*
X9750Y10984D02*
X9657D01*
Y10882D01*
X9750D01*
Y10984D01*
D02*
G37*
G36*
X9579D02*
X9486D01*
Y10882D01*
X9579D01*
Y10984D01*
D02*
G37*
G36*
X9419Y12343D02*
X9183D01*
Y12106D01*
X9210D01*
Y11953D01*
X9148D01*
Y11669D01*
X9199D01*
Y11559D01*
X9148D01*
Y11276D01*
X9199D01*
Y11165D01*
X9148D01*
Y10882D01*
X9411D01*
Y11165D01*
X9360D01*
Y11276D01*
X9411D01*
Y11559D01*
X9360D01*
Y11669D01*
X9411D01*
Y11953D01*
X9371D01*
Y12106D01*
X9419D01*
Y12343D01*
D02*
G37*
G36*
X18681Y11076D02*
X18627Y11065D01*
X18582Y11034D01*
X18551Y10989D01*
X18541Y10935D01*
X18545Y10913D01*
X18434Y10801D01*
X18426Y10802D01*
X18404Y10817D01*
X18378Y10822D01*
X18157D01*
X18131Y10817D01*
X18109Y10802D01*
X18094Y10780D01*
X18089Y10754D01*
Y10533D01*
X18094Y10507D01*
X18109Y10485D01*
X18131Y10470D01*
X18157Y10465D01*
X18378D01*
X18404Y10470D01*
X18426Y10485D01*
X18441Y10507D01*
X18446Y10533D01*
Y10587D01*
X18659Y10799D01*
X18681Y10795D01*
X18735Y10805D01*
X18780Y10836D01*
X18811Y10881D01*
X18822Y10935D01*
X18811Y10989D01*
X18780Y11034D01*
X18735Y11065D01*
X18681Y11076D01*
D02*
G37*
G36*
X31154Y10822D02*
X31061D01*
Y10719D01*
X31154D01*
Y10822D01*
D02*
G37*
G36*
X30982D02*
X30890D01*
Y10719D01*
X30982D01*
Y10822D01*
D02*
G37*
G36*
X29976Y10822D02*
X29884D01*
Y10719D01*
X29976D01*
Y10822D01*
D02*
G37*
G36*
X29805D02*
X29713D01*
Y10719D01*
X29805D01*
Y10822D01*
D02*
G37*
G36*
X28299Y10822D02*
X28228D01*
Y10683D01*
X28367D01*
Y10754D01*
X28362Y10780D01*
X28347Y10802D01*
X28325Y10817D01*
X28299Y10822D01*
D02*
G37*
G36*
X28150D02*
X28079D01*
X28053Y10817D01*
X28030Y10802D01*
X28016Y10780D01*
X28010Y10754D01*
Y10683D01*
X28150D01*
Y10822D01*
D02*
G37*
G36*
X27591D02*
X27520D01*
Y10683D01*
X27659D01*
Y10754D01*
X27654Y10780D01*
X27639Y10802D01*
X27617Y10817D01*
X27591Y10822D01*
D02*
G37*
G36*
X27441D02*
X27370D01*
X27344Y10817D01*
X27322Y10802D01*
X27307Y10780D01*
X27302Y10754D01*
Y10683D01*
X27441D01*
Y10822D01*
D02*
G37*
G36*
X26882D02*
X26811D01*
Y10683D01*
X26950D01*
Y10754D01*
X26945Y10780D01*
X26930Y10802D01*
X26908Y10817D01*
X26882Y10822D01*
D02*
G37*
G36*
X26732D02*
X26661D01*
X26635Y10817D01*
X26613Y10802D01*
X26598Y10780D01*
X26593Y10754D01*
Y10683D01*
X26732D01*
Y10822D01*
D02*
G37*
G36*
X827Y10866D02*
X433D01*
Y10669D01*
X827D01*
Y10866D01*
D02*
G37*
G36*
X354D02*
X-39D01*
Y10669D01*
X354D01*
Y10866D01*
D02*
G37*
G36*
X29695Y10664D02*
X29537D01*
Y10507D01*
X29695D01*
Y10664D01*
D02*
G37*
G36*
X29459D02*
X29301D01*
Y10507D01*
X29459D01*
Y10664D01*
D02*
G37*
G36*
X31565D02*
X31407D01*
Y10507D01*
X31565D01*
Y10664D01*
D02*
G37*
G36*
X31329D02*
X31171D01*
Y10507D01*
X31329D01*
Y10664D01*
D02*
G37*
G36*
X28367Y10604D02*
X28228D01*
Y10465D01*
X28299D01*
X28325Y10470D01*
X28347Y10485D01*
X28362Y10507D01*
X28367Y10533D01*
Y10604D01*
D02*
G37*
G36*
X28150D02*
X28010D01*
Y10533D01*
X28016Y10507D01*
X28030Y10485D01*
X28053Y10470D01*
X28079Y10465D01*
X28150D01*
Y10604D01*
D02*
G37*
G36*
X27659D02*
X27520D01*
Y10465D01*
X27591D01*
X27617Y10470D01*
X27639Y10485D01*
X27654Y10507D01*
X27659Y10533D01*
Y10604D01*
D02*
G37*
G36*
X27441D02*
X27302D01*
Y10533D01*
X27307Y10507D01*
X27322Y10485D01*
X27344Y10470D01*
X27370Y10465D01*
X27441D01*
Y10604D01*
D02*
G37*
G36*
X26950D02*
X26811D01*
Y10465D01*
X26882D01*
X26908Y10470D01*
X26930Y10485D01*
X26945Y10507D01*
X26950Y10533D01*
Y10604D01*
D02*
G37*
G36*
X26732D02*
X26593D01*
Y10533D01*
X26598Y10507D01*
X26613Y10485D01*
X26635Y10470D01*
X26661Y10465D01*
X26732D01*
Y10604D01*
D02*
G37*
G36*
X19795Y10822D02*
X19575D01*
X19549Y10817D01*
X19527Y10802D01*
X19512Y10780D01*
X19507Y10754D01*
Y10533D01*
X19512Y10507D01*
X19527Y10485D01*
X19549Y10470D01*
X19575Y10465D01*
X19795D01*
X19821Y10470D01*
X19844Y10485D01*
X19858Y10507D01*
X19864Y10533D01*
Y10754D01*
X19858Y10780D01*
X19844Y10802D01*
X19821Y10817D01*
X19795Y10822D01*
D02*
G37*
G36*
X19087D02*
X18866D01*
X18840Y10817D01*
X18818Y10802D01*
X18803Y10780D01*
X18798Y10754D01*
Y10533D01*
X18803Y10507D01*
X18818Y10485D01*
X18840Y10470D01*
X18866Y10465D01*
X19087D01*
X19113Y10470D01*
X19135Y10485D01*
X19150Y10507D01*
X19155Y10533D01*
Y10754D01*
X19150Y10780D01*
X19135Y10802D01*
X19113Y10817D01*
X19087Y10822D01*
D02*
G37*
G36*
X827Y10591D02*
X433D01*
Y10394D01*
X827D01*
Y10591D01*
D02*
G37*
G36*
X354D02*
X-39D01*
Y10394D01*
X354D01*
Y10591D01*
D02*
G37*
G36*
X4276Y10396D02*
X4173D01*
Y10303D01*
X4276D01*
Y10396D01*
D02*
G37*
G36*
X4669D02*
X4567D01*
Y10303D01*
X4669D01*
Y10396D01*
D02*
G37*
G36*
X4488D02*
X4386D01*
Y10303D01*
X4488D01*
Y10396D01*
D02*
G37*
G36*
X4094D02*
X3992D01*
Y10303D01*
X4094D01*
Y10396D01*
D02*
G37*
G36*
X31565Y10428D02*
X31407D01*
Y10270D01*
X31565D01*
Y10428D01*
D02*
G37*
G36*
X31329D02*
X31171D01*
Y10270D01*
X31329D01*
Y10428D01*
D02*
G37*
G36*
X29695Y10428D02*
X29537D01*
Y10270D01*
X29695D01*
Y10428D01*
D02*
G37*
G36*
X29459D02*
X29301D01*
Y10270D01*
X29459D01*
Y10428D01*
D02*
G37*
G36*
X18622Y10430D02*
X18568Y10419D01*
X18523Y10389D01*
X18492Y10343D01*
X18482Y10289D01*
X18486Y10267D01*
X18333Y10114D01*
X18157D01*
X18131Y10108D01*
X18109Y10094D01*
X18094Y10071D01*
X18089Y10045D01*
Y9825D01*
X18094Y9799D01*
X18109Y9777D01*
X18131Y9762D01*
X18157Y9757D01*
X18378D01*
X18404Y9762D01*
X18426Y9777D01*
X18441Y9799D01*
X18446Y9825D01*
Y10000D01*
X18600Y10153D01*
X18622Y10149D01*
X18676Y10160D01*
X18721Y10190D01*
X18752Y10236D01*
X18763Y10289D01*
X18752Y10343D01*
X18721Y10389D01*
X18676Y10419D01*
X18622Y10430D01*
D02*
G37*
G36*
X4669Y10224D02*
X4567D01*
Y10132D01*
X4669D01*
Y10224D01*
D02*
G37*
G36*
X4488D02*
X4386D01*
Y10132D01*
X4488D01*
Y10224D01*
D02*
G37*
G36*
X4276D02*
X4173D01*
Y10132D01*
X4276D01*
Y10224D01*
D02*
G37*
G36*
X4094D02*
X3992D01*
Y10132D01*
X4094D01*
Y10224D01*
D02*
G37*
G36*
X28299Y10114D02*
X28228D01*
Y9974D01*
X28367D01*
Y10045D01*
X28362Y10071D01*
X28347Y10094D01*
X28325Y10108D01*
X28299Y10114D01*
D02*
G37*
G36*
X28150D02*
X28079D01*
X28053Y10108D01*
X28030Y10094D01*
X28016Y10071D01*
X28010Y10045D01*
Y9974D01*
X28150D01*
Y10114D01*
D02*
G37*
G36*
X27591D02*
X27520D01*
Y9974D01*
X27659D01*
Y10045D01*
X27654Y10071D01*
X27639Y10094D01*
X27617Y10108D01*
X27591Y10114D01*
D02*
G37*
G36*
X27441D02*
X27370D01*
X27344Y10108D01*
X27322Y10094D01*
X27307Y10071D01*
X27302Y10045D01*
Y9974D01*
X27441D01*
Y10114D01*
D02*
G37*
G36*
X26882D02*
X26811D01*
Y9974D01*
X26950D01*
Y10045D01*
X26945Y10071D01*
X26930Y10094D01*
X26908Y10108D01*
X26882Y10114D01*
D02*
G37*
G36*
X26732D02*
X26661D01*
X26635Y10108D01*
X26613Y10094D01*
X26598Y10071D01*
X26593Y10045D01*
Y9974D01*
X26732D01*
Y10114D01*
D02*
G37*
G36*
X10986Y9984D02*
X10894D01*
Y9882D01*
X10986D01*
Y9984D01*
D02*
G37*
G36*
X10815D02*
X10722D01*
Y9882D01*
X10815D01*
Y9984D01*
D02*
G37*
G36*
X12561D02*
X12469D01*
Y9882D01*
X12561D01*
Y9984D01*
D02*
G37*
G36*
X9411D02*
X9319D01*
Y9882D01*
X9411D01*
Y9984D01*
D02*
G37*
G36*
X12390D02*
X12297D01*
Y9882D01*
X12390D01*
Y9984D01*
D02*
G37*
G36*
X9240D02*
X9148D01*
Y9882D01*
X9240D01*
Y9984D01*
D02*
G37*
G36*
X28367Y9896D02*
X28228D01*
Y9757D01*
X28299D01*
X28325Y9762D01*
X28347Y9777D01*
X28362Y9799D01*
X28367Y9825D01*
Y9896D01*
D02*
G37*
G36*
X28150D02*
X28010D01*
Y9825D01*
X28016Y9799D01*
X28030Y9777D01*
X28053Y9762D01*
X28079Y9757D01*
X28150D01*
Y9896D01*
D02*
G37*
G36*
X27659D02*
X27520D01*
Y9757D01*
X27591D01*
X27617Y9762D01*
X27639Y9777D01*
X27654Y9799D01*
X27659Y9825D01*
Y9896D01*
D02*
G37*
G36*
X27441D02*
X27302D01*
Y9825D01*
X27307Y9799D01*
X27322Y9777D01*
X27344Y9762D01*
X27370Y9757D01*
X27441D01*
Y9896D01*
D02*
G37*
G36*
X26950D02*
X26811D01*
Y9757D01*
X26882D01*
X26908Y9762D01*
X26930Y9777D01*
X26945Y9799D01*
X26950Y9825D01*
Y9896D01*
D02*
G37*
G36*
X26732D02*
X26593D01*
Y9825D01*
X26598Y9799D01*
X26613Y9777D01*
X26635Y9762D01*
X26661Y9757D01*
X26732D01*
Y9896D01*
D02*
G37*
G36*
X19795Y10114D02*
X19575D01*
X19549Y10108D01*
X19527Y10094D01*
X19512Y10071D01*
X19507Y10045D01*
Y9825D01*
X19512Y9799D01*
X19527Y9777D01*
X19549Y9762D01*
X19575Y9757D01*
X19795D01*
X19821Y9762D01*
X19844Y9777D01*
X19858Y9799D01*
X19864Y9825D01*
Y10045D01*
X19858Y10071D01*
X19844Y10094D01*
X19821Y10108D01*
X19795Y10114D01*
D02*
G37*
G36*
X19087D02*
X18866D01*
X18840Y10108D01*
X18818Y10094D01*
X18803Y10071D01*
X18798Y10045D01*
Y9825D01*
X18803Y9799D01*
X18818Y9777D01*
X18840Y9762D01*
X18866Y9757D01*
X19087D01*
X19113Y9762D01*
X19135Y9777D01*
X19150Y9799D01*
X19155Y9825D01*
Y10045D01*
X19150Y10071D01*
X19135Y10094D01*
X19113Y10108D01*
X19087Y10114D01*
D02*
G37*
G36*
X12561Y9803D02*
X12469D01*
Y9701D01*
X12561D01*
Y9803D01*
D02*
G37*
G36*
X12390D02*
X12297D01*
Y9701D01*
X12390D01*
Y9803D01*
D02*
G37*
G36*
X10986Y9803D02*
X10894D01*
Y9701D01*
X10986D01*
Y9803D01*
D02*
G37*
G36*
X10815D02*
X10722D01*
Y9701D01*
X10815D01*
Y9803D01*
D02*
G37*
G36*
X9411Y9803D02*
X9319D01*
Y9701D01*
X9411D01*
Y9803D01*
D02*
G37*
G36*
X9240D02*
X9148D01*
Y9701D01*
X9240D01*
Y9803D01*
D02*
G37*
G36*
X30945Y9567D02*
X30551D01*
Y9490D01*
X30315D01*
Y9567D01*
X29921D01*
Y9173D01*
X29998D01*
Y8792D01*
X29986D01*
Y8770D01*
X29792D01*
Y8782D01*
X29508D01*
Y8518D01*
X29792D01*
Y8530D01*
X29986D01*
Y8508D01*
X29998D01*
Y8341D01*
X29980D01*
Y7948D01*
X30256D01*
Y8341D01*
X30239D01*
Y8508D01*
X30250D01*
Y8792D01*
X30239D01*
Y9173D01*
X30315D01*
Y9249D01*
X30551D01*
Y9173D01*
X30945D01*
Y9567D01*
D02*
G37*
G36*
X12561Y9591D02*
X12469D01*
Y9488D01*
X12561D01*
Y9591D01*
D02*
G37*
G36*
X9411D02*
X9319D01*
Y9488D01*
X9411D01*
Y9591D01*
D02*
G37*
G36*
X9240D02*
X9148D01*
Y9488D01*
X9240D01*
Y9591D01*
D02*
G37*
G36*
X12390D02*
X12297D01*
Y9488D01*
X12390D01*
Y9591D01*
D02*
G37*
G36*
X10986D02*
X10894D01*
Y9488D01*
X10986D01*
Y9591D01*
D02*
G37*
G36*
X14488Y10140D02*
X14434Y10130D01*
X14389Y10099D01*
X14358Y10054D01*
X14348Y10000D01*
X14358Y9946D01*
X14389Y9901D01*
X14408Y9888D01*
Y9764D01*
X14291D01*
Y9488D01*
X14685D01*
Y9764D01*
X14568D01*
Y9888D01*
X14588Y9901D01*
X14618Y9946D01*
X14629Y10000D01*
X14618Y10054D01*
X14588Y10099D01*
X14542Y10130D01*
X14488Y10140D01*
D02*
G37*
G36*
X13858D02*
X13805Y10130D01*
X13759Y10099D01*
X13728Y10054D01*
X13718Y10000D01*
X13728Y9946D01*
X13759Y9901D01*
X13778Y9888D01*
Y9764D01*
X13661D01*
Y9488D01*
X14055D01*
Y9764D01*
X13939D01*
Y9888D01*
X13958Y9901D01*
X13988Y9946D01*
X13999Y10000D01*
X13988Y10054D01*
X13958Y10099D01*
X13912Y10130D01*
X13858Y10140D01*
D02*
G37*
G36*
X10815Y9591D02*
X10722D01*
Y9488D01*
X10815D01*
Y9591D01*
D02*
G37*
G36*
X18622Y9721D02*
X18568Y9711D01*
X18523Y9680D01*
X18492Y9634D01*
X18482Y9581D01*
X18486Y9558D01*
X18333Y9405D01*
X18157D01*
X18131Y9400D01*
X18109Y9385D01*
X18094Y9363D01*
X18089Y9337D01*
Y9116D01*
X18094Y9090D01*
X18109Y9068D01*
X18131Y9053D01*
X18157Y9048D01*
X18378D01*
X18404Y9053D01*
X18426Y9068D01*
X18441Y9090D01*
X18446Y9116D01*
Y9291D01*
X18600Y9445D01*
X18622Y9440D01*
X18676Y9451D01*
X18721Y9481D01*
X18752Y9527D01*
X18763Y9581D01*
X18752Y9634D01*
X18721Y9680D01*
X18676Y9711D01*
X18622Y9721D01*
D02*
G37*
G36*
X12561Y9409D02*
X12469D01*
Y9307D01*
X12561D01*
Y9409D01*
D02*
G37*
G36*
X12390D02*
X12297D01*
Y9307D01*
X12390D01*
Y9409D01*
D02*
G37*
G36*
X10986Y9409D02*
X10894D01*
Y9307D01*
X10986D01*
Y9409D01*
D02*
G37*
G36*
X10815D02*
X10722D01*
Y9307D01*
X10815D01*
Y9409D01*
D02*
G37*
G36*
X9411Y9409D02*
X9319D01*
Y9307D01*
X9411D01*
Y9409D01*
D02*
G37*
G36*
X9240D02*
X9148D01*
Y9307D01*
X9240D01*
Y9409D01*
D02*
G37*
G36*
X9419Y9154D02*
X9341D01*
Y9075D01*
X9419D01*
Y9154D01*
D02*
G37*
G36*
X9262D02*
X9183D01*
Y9075D01*
X9262D01*
Y9154D01*
D02*
G37*
G36*
X10994D02*
X10915D01*
Y9075D01*
X10994D01*
Y9154D01*
D02*
G37*
G36*
X10837D02*
X10758D01*
Y9075D01*
X10837D01*
Y9154D01*
D02*
G37*
G36*
X12569D02*
X12490D01*
Y9075D01*
X12569D01*
Y9154D01*
D02*
G37*
G36*
X12411D02*
X12333D01*
Y9075D01*
X12411D01*
Y9154D01*
D02*
G37*
G36*
X28299Y9405D02*
X28079D01*
X28053Y9400D01*
X28030Y9385D01*
X28016Y9363D01*
X28010Y9337D01*
Y9116D01*
X28016Y9090D01*
X28030Y9068D01*
X28053Y9053D01*
X28079Y9048D01*
X28299D01*
X28325Y9053D01*
X28347Y9068D01*
X28362Y9090D01*
X28367Y9116D01*
Y9337D01*
X28362Y9363D01*
X28347Y9385D01*
X28325Y9400D01*
X28299Y9405D01*
D02*
G37*
G36*
X27591D02*
X27370D01*
X27344Y9400D01*
X27322Y9385D01*
X27307Y9363D01*
X27302Y9337D01*
Y9116D01*
X27307Y9090D01*
X27322Y9068D01*
X27344Y9053D01*
X27370Y9048D01*
X27591D01*
X27617Y9053D01*
X27639Y9068D01*
X27654Y9090D01*
X27659Y9116D01*
Y9337D01*
X27654Y9363D01*
X27639Y9385D01*
X27617Y9400D01*
X27591Y9405D01*
D02*
G37*
G36*
X26882D02*
X26661D01*
X26635Y9400D01*
X26613Y9385D01*
X26598Y9363D01*
X26593Y9337D01*
Y9116D01*
X26598Y9090D01*
X26613Y9068D01*
X26635Y9053D01*
X26661Y9048D01*
X26882D01*
X26908Y9053D01*
X26930Y9068D01*
X26945Y9090D01*
X26950Y9116D01*
Y9337D01*
X26945Y9363D01*
X26930Y9385D01*
X26908Y9400D01*
X26882Y9405D01*
D02*
G37*
G36*
X19795D02*
X19575D01*
X19549Y9400D01*
X19527Y9385D01*
X19512Y9363D01*
X19507Y9337D01*
Y9116D01*
X19512Y9090D01*
X19527Y9068D01*
X19549Y9053D01*
X19575Y9048D01*
X19795D01*
X19821Y9053D01*
X19844Y9068D01*
X19858Y9090D01*
X19864Y9116D01*
Y9337D01*
X19858Y9363D01*
X19844Y9385D01*
X19821Y9400D01*
X19795Y9405D01*
D02*
G37*
G36*
X19087D02*
X18866D01*
X18840Y9400D01*
X18818Y9385D01*
X18803Y9363D01*
X18798Y9337D01*
Y9116D01*
X18803Y9090D01*
X18818Y9068D01*
X18840Y9053D01*
X18866Y9048D01*
X19087D01*
X19113Y9053D01*
X19135Y9068D01*
X19150Y9090D01*
X19155Y9116D01*
Y9337D01*
X19150Y9363D01*
X19135Y9385D01*
X19113Y9400D01*
X19087Y9405D01*
D02*
G37*
G36*
X12569Y8996D02*
X12490D01*
Y8917D01*
X12569D01*
Y8996D01*
D02*
G37*
G36*
X12411D02*
X12333D01*
Y8917D01*
X12411D01*
Y8996D01*
D02*
G37*
G36*
X10994Y8996D02*
X10915D01*
Y8917D01*
X10994D01*
Y8996D01*
D02*
G37*
G36*
X10837D02*
X10758D01*
Y8917D01*
X10837D01*
Y8996D01*
D02*
G37*
G36*
X9419Y8996D02*
X9341D01*
Y8917D01*
X9419D01*
Y8996D01*
D02*
G37*
G36*
X9262D02*
X9183D01*
Y8917D01*
X9262D01*
Y8996D01*
D02*
G37*
G36*
X12900Y9984D02*
X12636D01*
Y9701D01*
X12687D01*
Y9591D01*
X12636D01*
Y9307D01*
X12677D01*
Y9154D01*
X12628D01*
Y8917D01*
X12864D01*
Y8966D01*
X13019D01*
X13032Y8947D01*
X13077Y8916D01*
X13131Y8906D01*
X13185Y8916D01*
X13230Y8947D01*
X13261Y8992D01*
X13271Y9046D01*
X13261Y9100D01*
X13230Y9146D01*
X13185Y9176D01*
X13131Y9187D01*
X13077Y9176D01*
X13032Y9146D01*
X13019Y9127D01*
X12864D01*
Y9154D01*
X12837D01*
Y9307D01*
X12900D01*
Y9591D01*
X12848D01*
Y9701D01*
X12900D01*
Y9984D01*
D02*
G37*
G36*
X11325D02*
X11061D01*
Y9701D01*
X11113D01*
Y9591D01*
X11061D01*
Y9307D01*
X11102D01*
Y9154D01*
X11053D01*
Y8917D01*
X11289D01*
Y8966D01*
X11444D01*
X11457Y8947D01*
X11502Y8916D01*
X11556Y8906D01*
X11610Y8916D01*
X11655Y8947D01*
X11686Y8992D01*
X11697Y9046D01*
X11686Y9100D01*
X11655Y9146D01*
X11610Y9176D01*
X11556Y9187D01*
X11502Y9176D01*
X11457Y9146D01*
X11444Y9127D01*
X11289D01*
Y9154D01*
X11262D01*
Y9307D01*
X11325D01*
Y9591D01*
X11273D01*
Y9701D01*
X11325D01*
Y9984D01*
D02*
G37*
G36*
X9750D02*
X9486D01*
Y9701D01*
X9538D01*
Y9591D01*
X9486D01*
Y9307D01*
X9527D01*
Y9154D01*
X9478D01*
Y8917D01*
X9715D01*
Y8955D01*
X9858D01*
X9871Y8936D01*
X9917Y8906D01*
X9970Y8895D01*
X10024Y8906D01*
X10070Y8936D01*
X10100Y8982D01*
X10111Y9035D01*
X10100Y9089D01*
X10070Y9135D01*
X10024Y9165D01*
X9970Y9176D01*
X9917Y9165D01*
X9871Y9135D01*
X9858Y9116D01*
X9715D01*
Y9154D01*
X9688D01*
Y9307D01*
X9750D01*
Y9591D01*
X9698D01*
Y9701D01*
X9750D01*
Y9984D01*
D02*
G37*
G36*
X14685Y9409D02*
X14291D01*
Y9134D01*
X14408D01*
Y9010D01*
X14389Y8997D01*
X14358Y8951D01*
X14348Y8898D01*
X14358Y8844D01*
X14389Y8798D01*
X14434Y8768D01*
X14488Y8757D01*
X14542Y8768D01*
X14588Y8798D01*
X14618Y8844D01*
X14629Y8898D01*
X14618Y8951D01*
X14588Y8997D01*
X14568Y9010D01*
Y9134D01*
X14685D01*
Y9409D01*
D02*
G37*
G36*
X14055D02*
X13661D01*
Y9134D01*
X13778D01*
Y9010D01*
X13759Y8997D01*
X13728Y8951D01*
X13718Y8898D01*
X13728Y8844D01*
X13759Y8798D01*
X13805Y8768D01*
X13858Y8757D01*
X13912Y8768D01*
X13958Y8798D01*
X13988Y8844D01*
X13999Y8898D01*
X13988Y8951D01*
X13958Y8997D01*
X13939Y9010D01*
Y9134D01*
X14055D01*
Y9409D01*
D02*
G37*
G36*
X28299Y8696D02*
X28228D01*
Y8557D01*
X28367D01*
Y8628D01*
X28362Y8654D01*
X28347Y8676D01*
X28325Y8691D01*
X28299Y8696D01*
D02*
G37*
G36*
X28150D02*
X28079D01*
X28053Y8691D01*
X28030Y8676D01*
X28016Y8654D01*
X28010Y8628D01*
Y8557D01*
X28150D01*
Y8696D01*
D02*
G37*
G36*
X27591D02*
X27520D01*
Y8557D01*
X27659D01*
Y8628D01*
X27654Y8654D01*
X27639Y8676D01*
X27617Y8691D01*
X27591Y8696D01*
D02*
G37*
G36*
X27441D02*
X27370D01*
X27344Y8691D01*
X27322Y8676D01*
X27307Y8654D01*
X27302Y8628D01*
Y8557D01*
X27441D01*
Y8696D01*
D02*
G37*
G36*
X295Y8389D02*
X242Y8378D01*
X227Y8368D01*
X142D01*
Y8380D01*
X-142D01*
Y8116D01*
X142D01*
Y8128D01*
X227D01*
X242Y8118D01*
X295Y8108D01*
X349Y8118D01*
X363Y8128D01*
X472D01*
Y8110D01*
X866D01*
Y8128D01*
X990D01*
X1011Y8106D01*
Y7642D01*
X990Y7620D01*
X866D01*
Y7638D01*
X472D01*
Y7362D01*
X866D01*
Y7380D01*
X1040D01*
X1040Y7380D01*
X1086Y7389D01*
X1125Y7415D01*
X1217Y7507D01*
X1217Y7507D01*
X1243Y7546D01*
X1252Y7592D01*
Y8156D01*
X1243Y8202D01*
X1217Y8241D01*
X1217Y8241D01*
X1125Y8333D01*
X1086Y8359D01*
X1040Y8368D01*
X1040Y8368D01*
X866D01*
Y8386D01*
X472D01*
Y8368D01*
X363D01*
X349Y8378D01*
X295Y8389D01*
D02*
G37*
G36*
X29792Y8443D02*
X29689D01*
Y8351D01*
X29792D01*
Y8443D01*
D02*
G37*
G36*
X29611D02*
X29508D01*
Y8351D01*
X29611D01*
Y8443D01*
D02*
G37*
G36*
X28367Y8478D02*
X28228D01*
Y8339D01*
X28299D01*
X28325Y8344D01*
X28347Y8359D01*
X28362Y8381D01*
X28367Y8407D01*
Y8478D01*
D02*
G37*
G36*
X28150D02*
X28010D01*
Y8407D01*
X28016Y8381D01*
X28030Y8359D01*
X28053Y8344D01*
X28079Y8339D01*
X28150D01*
Y8478D01*
D02*
G37*
G36*
X27659D02*
X27520D01*
Y8339D01*
X27591D01*
X27617Y8344D01*
X27639Y8359D01*
X27654Y8381D01*
X27659Y8407D01*
Y8478D01*
D02*
G37*
G36*
X27441D02*
X27302D01*
Y8407D01*
X27307Y8381D01*
X27322Y8359D01*
X27344Y8344D01*
X27370Y8339D01*
X27441D01*
Y8478D01*
D02*
G37*
G36*
X26882Y8696D02*
X26661D01*
X26635Y8691D01*
X26613Y8676D01*
X26598Y8654D01*
X26593Y8628D01*
Y8407D01*
X26598Y8381D01*
X26613Y8359D01*
X26635Y8344D01*
X26661Y8339D01*
X26882D01*
X26908Y8344D01*
X26930Y8359D01*
X26945Y8381D01*
X26950Y8407D01*
Y8628D01*
X26945Y8654D01*
X26930Y8676D01*
X26908Y8691D01*
X26882Y8696D01*
D02*
G37*
G36*
X19087D02*
X18866D01*
X18840Y8691D01*
X18818Y8676D01*
X18803Y8654D01*
X18798Y8628D01*
Y8407D01*
X18803Y8381D01*
X18818Y8359D01*
X18840Y8344D01*
X18866Y8339D01*
X19087D01*
X19113Y8344D01*
X19135Y8359D01*
X19150Y8381D01*
X19155Y8407D01*
Y8628D01*
X19150Y8654D01*
X19135Y8676D01*
X19113Y8691D01*
X19087Y8696D01*
D02*
G37*
G36*
X18378D02*
X18157D01*
X18131Y8691D01*
X18109Y8676D01*
X18094Y8654D01*
X18089Y8628D01*
Y8407D01*
X18094Y8381D01*
X18109Y8359D01*
X18131Y8344D01*
X18157Y8339D01*
X18378D01*
X18404Y8344D01*
X18426Y8359D01*
X18441Y8381D01*
X18446Y8407D01*
Y8628D01*
X18441Y8654D01*
X18426Y8676D01*
X18404Y8691D01*
X18378Y8696D01*
D02*
G37*
G36*
X14298Y8505D02*
X14267Y8499D01*
X14241Y8482D01*
X14241Y8482D01*
X14126Y8367D01*
X14109Y8341D01*
X14105Y8322D01*
X14055Y8327D01*
Y8386D01*
X13661D01*
X13661Y8386D01*
Y8386D01*
X13611Y8381D01*
X13594Y8385D01*
X13574Y8381D01*
X13528Y8372D01*
X13528Y8372D01*
X13528Y8372D01*
X13244D01*
Y8108D01*
X13528D01*
X13528Y8108D01*
X13577Y8107D01*
X13594Y8104D01*
X13613Y8107D01*
X13661Y8110D01*
X13661Y8110D01*
X13661Y8110D01*
X14053D01*
X14055Y8110D01*
X14103Y8105D01*
Y8037D01*
X14055Y8031D01*
Y8031D01*
X13661D01*
Y7756D01*
X14055D01*
Y7813D01*
X14137D01*
X14168Y7820D01*
X14194Y7837D01*
X14240Y7883D01*
X14240Y7883D01*
X14241Y7885D01*
X14291Y7870D01*
Y7756D01*
X14408D01*
Y7602D01*
X14268Y7462D01*
X12661D01*
X12509Y7614D01*
Y7732D01*
X12561D01*
Y8016D01*
X12297D01*
Y7732D01*
X12349D01*
Y7581D01*
X12355Y7550D01*
X12372Y7524D01*
X12506Y7390D01*
X12487Y7344D01*
X11165D01*
X10935Y7575D01*
Y7732D01*
X10986D01*
Y8016D01*
X10722D01*
Y7732D01*
X10774D01*
Y7541D01*
X10780Y7511D01*
X10798Y7485D01*
X11010Y7272D01*
X10991Y7226D01*
X9689D01*
X9360Y7555D01*
Y7732D01*
X9411D01*
Y8016D01*
X9148D01*
Y7732D01*
X9199D01*
Y7522D01*
X9205Y7491D01*
X9223Y7465D01*
X9599Y7089D01*
X9599Y7089D01*
X9625Y7071D01*
X9656Y7065D01*
X14399D01*
X14430Y7071D01*
X14456Y7089D01*
X14958Y7591D01*
X14958Y7591D01*
X14976Y7617D01*
X14982Y7648D01*
Y8251D01*
X14982Y8251D01*
X14976Y8282D01*
X14958Y8308D01*
X14958Y8308D01*
X14784Y8482D01*
X14758Y8499D01*
X14727Y8505D01*
X14298D01*
X14298Y8505D01*
D02*
G37*
G36*
X10986Y8409D02*
X10894D01*
Y8307D01*
X10986D01*
Y8409D01*
D02*
G37*
G36*
X10815D02*
X10722D01*
Y8307D01*
X10815D01*
Y8409D01*
D02*
G37*
G36*
X6994D02*
X6902D01*
Y8307D01*
X6994D01*
Y8409D01*
D02*
G37*
G36*
X12561D02*
X12469D01*
Y8307D01*
X12561D01*
Y8409D01*
D02*
G37*
G36*
X9411D02*
X9319D01*
Y8307D01*
X9411D01*
Y8409D01*
D02*
G37*
G36*
X4293D02*
X4201D01*
Y8307D01*
X4293D01*
Y8409D01*
D02*
G37*
G36*
X12390D02*
X12297D01*
Y8307D01*
X12390D01*
Y8409D01*
D02*
G37*
G36*
X4122D02*
X4030D01*
Y8307D01*
X4122D01*
Y8409D01*
D02*
G37*
G36*
X9240D02*
X9148D01*
Y8307D01*
X9240D01*
Y8409D01*
D02*
G37*
G36*
X19795Y8696D02*
X19575D01*
X19549Y8691D01*
X19527Y8676D01*
X19512Y8654D01*
X19507Y8628D01*
Y8453D01*
X19353Y8299D01*
X19331Y8304D01*
X19277Y8293D01*
X19231Y8263D01*
X19201Y8217D01*
X19190Y8163D01*
X19201Y8110D01*
X19231Y8064D01*
X19277Y8034D01*
X19331Y8023D01*
X19384Y8034D01*
X19430Y8064D01*
X19461Y8110D01*
X19471Y8163D01*
X19467Y8186D01*
X19620Y8339D01*
X19795D01*
X19821Y8344D01*
X19844Y8359D01*
X19858Y8381D01*
X19864Y8407D01*
Y8628D01*
X19858Y8654D01*
X19844Y8676D01*
X19821Y8691D01*
X19795Y8696D01*
D02*
G37*
G36*
X6823Y8409D02*
X6730D01*
Y8248D01*
X6682Y8227D01*
X6656Y8248D01*
Y8409D01*
X6392D01*
Y8378D01*
X6302D01*
X6288Y8388D01*
X6234Y8398D01*
X6190Y8390D01*
X6142Y8386D01*
X6142Y8386D01*
X6142Y8386D01*
X5748D01*
Y8110D01*
X6142D01*
X6142Y8110D01*
X6192Y8126D01*
X6234Y8117D01*
X6288Y8128D01*
X6302Y8137D01*
X6392D01*
Y8126D01*
X6542D01*
X6606Y8062D01*
X6587Y8016D01*
X6392D01*
Y7954D01*
X6142D01*
Y8012D01*
X5748D01*
Y7736D01*
X6142D01*
Y7794D01*
X6392D01*
Y7732D01*
X6656D01*
Y7923D01*
X6706Y7946D01*
X6729Y7928D01*
Y7927D01*
X6730Y7919D01*
Y7732D01*
X6994D01*
Y8016D01*
X6875D01*
X6866Y8029D01*
X6815Y8080D01*
X6823Y8098D01*
Y8268D01*
Y8409D01*
D02*
G37*
G36*
X29792Y8272D02*
X29689D01*
Y8180D01*
X29792D01*
Y8272D01*
D02*
G37*
G36*
X29611D02*
X29508D01*
Y8180D01*
X29611D01*
Y8272D01*
D02*
G37*
G36*
X12561Y8228D02*
X12469D01*
Y8126D01*
X12561D01*
Y8228D01*
D02*
G37*
G36*
X12390D02*
X12297D01*
Y8126D01*
X12390D01*
Y8228D01*
D02*
G37*
G36*
X10986Y8228D02*
X10894D01*
Y8126D01*
X10986D01*
Y8228D01*
D02*
G37*
G36*
X10815D02*
X10722D01*
Y8126D01*
X10815D01*
Y8228D01*
D02*
G37*
G36*
X9411Y8228D02*
X9319D01*
Y8126D01*
X9411D01*
Y8228D01*
D02*
G37*
G36*
X9240D02*
X9148D01*
Y8126D01*
X9240D01*
Y8228D01*
D02*
G37*
G36*
X6994D02*
X6902D01*
Y8126D01*
X6994D01*
Y8228D01*
D02*
G37*
G36*
X4293D02*
X4201D01*
Y8126D01*
X4293D01*
Y8228D01*
D02*
G37*
G36*
X4122D02*
X4030D01*
Y8126D01*
X4122D01*
Y8228D01*
D02*
G37*
G36*
X4632Y8409D02*
X4368D01*
Y8126D01*
X4632D01*
Y8137D01*
X4722D01*
X4736Y8128D01*
X4789Y8117D01*
X4832Y8126D01*
X4882Y8110D01*
Y8110D01*
X5276D01*
Y8386D01*
X4882D01*
X4882Y8386D01*
X4833Y8390D01*
X4789Y8398D01*
X4736Y8388D01*
X4722Y8378D01*
X4632D01*
Y8409D01*
D02*
G37*
G36*
X1890Y8386D02*
X1496D01*
Y8110D01*
X1890D01*
Y8128D01*
X2165D01*
Y7987D01*
X2559D01*
Y8064D01*
X2614D01*
Y8052D01*
X2898D01*
Y8064D01*
X3008D01*
Y8052D01*
X3291D01*
Y8064D01*
X3357D01*
X3371Y8054D01*
X3425Y8044D01*
X3479Y8054D01*
X3525Y8085D01*
X3555Y8130D01*
X3566Y8184D01*
X3555Y8238D01*
X3525Y8283D01*
X3479Y8314D01*
X3425Y8325D01*
X3371Y8314D01*
X3357Y8304D01*
X3291D01*
Y8316D01*
X3008D01*
Y8304D01*
X2898D01*
Y8316D01*
X2614D01*
Y8304D01*
X2559D01*
Y8381D01*
X2165D01*
Y8368D01*
X1890D01*
Y8386D01*
D02*
G37*
G36*
X142Y8041D02*
X39D01*
Y7949D01*
X142D01*
Y8041D01*
D02*
G37*
G36*
X-39D02*
X-142D01*
Y7949D01*
X-39D01*
Y8041D01*
D02*
G37*
G36*
X31004Y8341D02*
X30728D01*
Y7948D01*
X31004D01*
Y8341D01*
D02*
G37*
G36*
X30589Y8792D02*
X30325D01*
Y8508D01*
X30394D01*
Y8341D01*
X30354D01*
Y7948D01*
X30630D01*
Y8341D01*
X30555D01*
Y8508D01*
X30589D01*
Y8792D01*
D02*
G37*
G36*
X13528Y8033D02*
X13425D01*
Y7941D01*
X13528D01*
Y8033D01*
D02*
G37*
G36*
X13346D02*
X13244D01*
Y7941D01*
X13346D01*
Y8033D01*
D02*
G37*
G36*
X4293Y8016D02*
X4201D01*
Y7913D01*
X4293D01*
Y8016D01*
D02*
G37*
G36*
X5276Y8012D02*
X5118D01*
Y7913D01*
X5276D01*
Y8012D01*
D02*
G37*
G36*
X5039D02*
X4882D01*
Y7913D01*
X5039D01*
Y8012D01*
D02*
G37*
G36*
X866D02*
X709D01*
Y7913D01*
X866D01*
Y8012D01*
D02*
G37*
G36*
X630D02*
X472D01*
Y7913D01*
X630D01*
Y8012D01*
D02*
G37*
G36*
X4122Y8016D02*
X4030D01*
Y7913D01*
X4122D01*
Y8016D01*
D02*
G37*
G36*
X3291Y7977D02*
X3189D01*
Y7885D01*
X3291D01*
Y7977D01*
D02*
G37*
G36*
X3110D02*
X3008D01*
Y7885D01*
X3110D01*
Y7977D01*
D02*
G37*
G36*
X2898D02*
X2795D01*
Y7885D01*
X2898D01*
Y7977D01*
D02*
G37*
G36*
X2717D02*
X2614D01*
Y7885D01*
X2717D01*
Y7977D01*
D02*
G37*
G36*
X27591Y7988D02*
X27520D01*
Y7848D01*
X27659D01*
Y7919D01*
X27654Y7945D01*
X27639Y7968D01*
X27617Y7982D01*
X27591Y7988D01*
D02*
G37*
G36*
X27441D02*
X27370D01*
X27344Y7982D01*
X27322Y7968D01*
X27307Y7945D01*
X27302Y7919D01*
Y7848D01*
X27441D01*
Y7988D01*
D02*
G37*
G36*
X142Y7870D02*
X39D01*
Y7778D01*
X142D01*
Y7870D01*
D02*
G37*
G36*
X-39D02*
X-142D01*
Y7778D01*
X-39D01*
Y7870D01*
D02*
G37*
G36*
X13528Y7862D02*
X13425D01*
Y7770D01*
X13528D01*
Y7862D01*
D02*
G37*
G36*
X13346D02*
X13244D01*
Y7770D01*
X13346D01*
Y7862D01*
D02*
G37*
G36*
X5276Y7835D02*
X5118D01*
Y7736D01*
X5276D01*
Y7835D01*
D02*
G37*
G36*
X5039D02*
X4882D01*
Y7736D01*
X5039D01*
Y7835D01*
D02*
G37*
G36*
X866D02*
X709D01*
Y7736D01*
X866D01*
Y7835D01*
D02*
G37*
G36*
X630D02*
X472D01*
Y7736D01*
X630D01*
Y7835D01*
D02*
G37*
G36*
X12717Y8799D02*
X12480D01*
Y8563D01*
X12603D01*
X12687Y8479D01*
Y8409D01*
X12636D01*
Y8126D01*
X12687D01*
Y8016D01*
X12636D01*
Y7732D01*
X12900D01*
Y8016D01*
X12848D01*
Y8126D01*
X12900D01*
Y8409D01*
X12848D01*
Y8512D01*
X12848Y8512D01*
X12842Y8543D01*
X12824Y8569D01*
X12824Y8569D01*
X12717Y8677D01*
Y8799D01*
D02*
G37*
G36*
X11142D02*
X10906D01*
Y8563D01*
X11028D01*
X11113Y8479D01*
Y8409D01*
X11061D01*
Y8126D01*
X11113D01*
Y8016D01*
X11061D01*
Y7732D01*
X11325D01*
Y8016D01*
X11273D01*
Y8126D01*
X11325D01*
Y8409D01*
X11273D01*
Y8512D01*
X11273Y8512D01*
X11267Y8543D01*
X11250Y8569D01*
X11250Y8569D01*
X11142Y8677D01*
Y8799D01*
D02*
G37*
G36*
X9567D02*
X9331D01*
Y8563D01*
X9453D01*
X9538Y8479D01*
Y8409D01*
X9486D01*
Y8126D01*
X9538D01*
Y8016D01*
X9486D01*
Y7732D01*
X9750D01*
Y8016D01*
X9698D01*
Y8126D01*
X9750D01*
Y8409D01*
X9698D01*
Y8512D01*
X9698Y8512D01*
X9692Y8543D01*
X9675Y8569D01*
X9675Y8569D01*
X9567Y8677D01*
Y8799D01*
D02*
G37*
G36*
X4293Y7835D02*
X4201D01*
Y7732D01*
X4293D01*
Y7835D01*
D02*
G37*
G36*
X4122D02*
X4030D01*
Y7732D01*
X4122D01*
Y7835D01*
D02*
G37*
G36*
X3291Y7806D02*
X3189D01*
Y7714D01*
X3291D01*
Y7806D01*
D02*
G37*
G36*
X3110D02*
X3008D01*
Y7714D01*
X3110D01*
Y7806D01*
D02*
G37*
G36*
X2898Y7806D02*
X2795D01*
Y7714D01*
X2898D01*
Y7806D01*
D02*
G37*
G36*
X2717D02*
X2614D01*
Y7714D01*
X2717D01*
Y7806D01*
D02*
G37*
G36*
X28299Y7988D02*
X28079D01*
X28053Y7982D01*
X28030Y7968D01*
X28016Y7945D01*
X28010Y7919D01*
Y7699D01*
X28016Y7673D01*
X28030Y7651D01*
X28053Y7636D01*
X28079Y7631D01*
X28299D01*
X28325Y7636D01*
X28347Y7651D01*
X28362Y7673D01*
X28367Y7699D01*
Y7919D01*
X28362Y7945D01*
X28347Y7968D01*
X28325Y7982D01*
X28299Y7988D01*
D02*
G37*
G36*
X27659Y7770D02*
X27520D01*
Y7631D01*
X27591D01*
X27617Y7636D01*
X27639Y7651D01*
X27654Y7673D01*
X27659Y7699D01*
Y7770D01*
D02*
G37*
G36*
X27441D02*
X27302D01*
Y7699D01*
X27307Y7673D01*
X27322Y7651D01*
X27344Y7636D01*
X27370Y7631D01*
X27441D01*
Y7770D01*
D02*
G37*
G36*
X26882Y7988D02*
X26661D01*
X26635Y7982D01*
X26613Y7968D01*
X26598Y7945D01*
X26593Y7919D01*
Y7699D01*
X26598Y7673D01*
X26613Y7651D01*
X26635Y7636D01*
X26661Y7631D01*
X26882D01*
X26908Y7636D01*
X26930Y7651D01*
X26945Y7673D01*
X26950Y7699D01*
Y7919D01*
X26945Y7945D01*
X26930Y7968D01*
X26908Y7982D01*
X26882Y7988D01*
D02*
G37*
G36*
X19795D02*
X19575D01*
X19549Y7982D01*
X19527Y7968D01*
X19512Y7945D01*
X19507Y7919D01*
Y7699D01*
X19512Y7673D01*
X19527Y7651D01*
X19549Y7636D01*
X19575Y7631D01*
X19795D01*
X19821Y7636D01*
X19844Y7651D01*
X19858Y7673D01*
X19864Y7699D01*
Y7919D01*
X19858Y7945D01*
X19844Y7968D01*
X19821Y7982D01*
X19795Y7988D01*
D02*
G37*
G36*
X19087D02*
X18866D01*
X18840Y7982D01*
X18818Y7968D01*
X18803Y7945D01*
X18798Y7919D01*
Y7699D01*
X18803Y7673D01*
X18818Y7651D01*
X18840Y7636D01*
X18866Y7631D01*
X19087D01*
X19113Y7636D01*
X19135Y7651D01*
X19150Y7673D01*
X19155Y7699D01*
Y7919D01*
X19150Y7945D01*
X19135Y7968D01*
X19113Y7982D01*
X19087Y7988D01*
D02*
G37*
G36*
X18378D02*
X18157D01*
X18131Y7982D01*
X18109Y7968D01*
X18094Y7945D01*
X18089Y7919D01*
Y7699D01*
X18094Y7673D01*
X18109Y7651D01*
X18131Y7636D01*
X18157Y7631D01*
X18378D01*
X18404Y7636D01*
X18426Y7651D01*
X18441Y7673D01*
X18446Y7699D01*
Y7919D01*
X18441Y7945D01*
X18426Y7968D01*
X18404Y7982D01*
X18378Y7988D01*
D02*
G37*
G36*
X2559Y7761D02*
X2402D01*
Y7603D01*
X2559D01*
Y7761D01*
D02*
G37*
G36*
X2323D02*
X2165D01*
Y7603D01*
X2323D01*
Y7761D01*
D02*
G37*
G36*
X4293Y7622D02*
X4201D01*
Y7520D01*
X4293D01*
Y7622D01*
D02*
G37*
G36*
X4122D02*
X4030D01*
Y7520D01*
X4122D01*
Y7622D01*
D02*
G37*
G36*
X2559Y7525D02*
X2402D01*
Y7367D01*
X2559D01*
Y7525D01*
D02*
G37*
G36*
X2323D02*
X2165D01*
Y7367D01*
X2323D01*
Y7525D01*
D02*
G37*
G36*
X6142Y7638D02*
X5748D01*
Y7362D01*
X6142D01*
Y7638D01*
D02*
G37*
G36*
X1890D02*
X1496D01*
Y7362D01*
X1890D01*
Y7638D01*
D02*
G37*
G36*
X4632Y8016D02*
X4368D01*
Y7732D01*
X4420D01*
Y7622D01*
X4368D01*
Y7339D01*
X4632D01*
Y7401D01*
X4682Y7403D01*
X4690Y7391D01*
X4736Y7360D01*
X4789Y7350D01*
X4833Y7358D01*
X4882Y7362D01*
X4882Y7362D01*
X4882Y7362D01*
X5276D01*
Y7638D01*
X4882D01*
X4882Y7638D01*
X4832Y7622D01*
X4789Y7631D01*
X4736Y7620D01*
X4690Y7589D01*
X4682Y7577D01*
X4632Y7579D01*
Y7622D01*
X4580D01*
Y7732D01*
X4632D01*
Y8016D01*
D02*
G37*
G36*
X4293Y7441D02*
X4201D01*
Y7339D01*
X4293D01*
Y7441D01*
D02*
G37*
G36*
X4122D02*
X4030D01*
Y7339D01*
X4122D01*
Y7441D01*
D02*
G37*
G36*
X30630Y7475D02*
X30531D01*
Y7318D01*
X30630D01*
Y7475D01*
D02*
G37*
G36*
X30453D02*
X30354D01*
Y7318D01*
X30453D01*
Y7475D01*
D02*
G37*
G36*
X28299Y7279D02*
X28228D01*
Y7140D01*
X28367D01*
Y7211D01*
X28362Y7237D01*
X28347Y7259D01*
X28325Y7274D01*
X28299Y7279D01*
D02*
G37*
G36*
X28150D02*
X28079D01*
X28053Y7274D01*
X28030Y7259D01*
X28016Y7237D01*
X28010Y7211D01*
Y7140D01*
X28150D01*
Y7279D01*
D02*
G37*
G36*
X27591D02*
X27520D01*
Y7140D01*
X27659D01*
Y7211D01*
X27654Y7237D01*
X27639Y7259D01*
X27617Y7274D01*
X27591Y7279D01*
D02*
G37*
G36*
X27441D02*
X27370D01*
X27344Y7274D01*
X27322Y7259D01*
X27307Y7237D01*
X27302Y7211D01*
Y7140D01*
X27441D01*
Y7279D01*
D02*
G37*
G36*
X30630Y7239D02*
X30531D01*
Y7082D01*
X30630D01*
Y7239D01*
D02*
G37*
G36*
X30453D02*
X30354D01*
Y7082D01*
X30453D01*
Y7239D01*
D02*
G37*
G36*
X28367Y7061D02*
X28228D01*
Y6922D01*
X28299D01*
X28325Y6927D01*
X28347Y6942D01*
X28362Y6964D01*
X28367Y6990D01*
Y7061D01*
D02*
G37*
G36*
X28150D02*
X28010D01*
Y6990D01*
X28016Y6964D01*
X28030Y6942D01*
X28053Y6927D01*
X28079Y6922D01*
X28150D01*
Y7061D01*
D02*
G37*
G36*
X27659D02*
X27520D01*
Y6922D01*
X27591D01*
X27617Y6927D01*
X27639Y6942D01*
X27654Y6964D01*
X27659Y6990D01*
Y7061D01*
D02*
G37*
G36*
X27441D02*
X27302D01*
Y6990D01*
X27307Y6964D01*
X27322Y6942D01*
X27344Y6927D01*
X27370Y6922D01*
X27441D01*
Y7061D01*
D02*
G37*
G36*
X26882Y7279D02*
X26661D01*
X26635Y7274D01*
X26613Y7259D01*
X26598Y7237D01*
X26593Y7211D01*
Y6990D01*
X26598Y6964D01*
X26613Y6942D01*
X26635Y6927D01*
X26661Y6922D01*
X26882D01*
X26908Y6927D01*
X26930Y6942D01*
X26945Y6964D01*
X26950Y6990D01*
Y7211D01*
X26945Y7237D01*
X26930Y7259D01*
X26908Y7274D01*
X26882Y7279D01*
D02*
G37*
G36*
X19795D02*
X19575D01*
X19549Y7274D01*
X19527Y7259D01*
X19512Y7237D01*
X19507Y7211D01*
Y6990D01*
X19512Y6964D01*
X19527Y6942D01*
X19549Y6927D01*
X19575Y6922D01*
X19795D01*
X19821Y6927D01*
X19844Y6942D01*
X19858Y6964D01*
X19864Y6990D01*
Y7211D01*
X19858Y7237D01*
X19844Y7259D01*
X19821Y7274D01*
X19795Y7279D01*
D02*
G37*
G36*
X19087D02*
X18866D01*
X18840Y7274D01*
X18818Y7259D01*
X18803Y7237D01*
X18798Y7211D01*
Y6990D01*
X18803Y6964D01*
X18818Y6942D01*
X18840Y6927D01*
X18866Y6922D01*
X19087D01*
X19113Y6927D01*
X19135Y6942D01*
X19150Y6964D01*
X19155Y6990D01*
Y7211D01*
X19150Y7237D01*
X19135Y7259D01*
X19113Y7274D01*
X19087Y7279D01*
D02*
G37*
G36*
X18378D02*
X18157D01*
X18131Y7274D01*
X18109Y7259D01*
X18094Y7237D01*
X18089Y7211D01*
Y6990D01*
X18094Y6964D01*
X18109Y6942D01*
X18131Y6927D01*
X18157Y6922D01*
X18378D01*
X18404Y6927D01*
X18426Y6942D01*
X18441Y6964D01*
X18446Y6990D01*
Y7211D01*
X18441Y7237D01*
X18426Y7259D01*
X18404Y7274D01*
X18378Y7279D01*
D02*
G37*
G36*
X30866Y7794D02*
X30812Y7783D01*
X30767Y7752D01*
X30736Y7707D01*
X30726Y7653D01*
X30736Y7599D01*
X30767Y7554D01*
X30786Y7541D01*
Y7475D01*
X30728D01*
Y7082D01*
X30786D01*
Y6831D01*
X30724D01*
Y6780D01*
X30634D01*
Y6831D01*
X30350D01*
Y6568D01*
X30634D01*
Y6619D01*
X30724D01*
Y6568D01*
X31008D01*
Y6831D01*
X30946D01*
Y7082D01*
X31004D01*
Y7475D01*
X30946D01*
Y7541D01*
X30965Y7554D01*
X30996Y7599D01*
X31007Y7653D01*
X30996Y7707D01*
X30965Y7752D01*
X30920Y7783D01*
X30866Y7794D01*
D02*
G37*
G36*
X30256Y7475D02*
X29980D01*
Y7082D01*
X29980Y7082D01*
X29986Y7031D01*
X29978Y6989D01*
X29988Y6935D01*
X29998Y6921D01*
Y6831D01*
X29976D01*
Y6568D01*
X30260D01*
Y6831D01*
X30239D01*
Y6921D01*
X30248Y6935D01*
X30259Y6989D01*
X30250Y7031D01*
X30256Y7082D01*
X30256D01*
Y7475D01*
D02*
G37*
G36*
X31008Y6493D02*
X30906D01*
Y6400D01*
X31008D01*
Y6493D01*
D02*
G37*
G36*
X30634D02*
X30531D01*
Y6400D01*
X30634D01*
Y6493D01*
D02*
G37*
G36*
X30260D02*
X30157D01*
Y6400D01*
X30260D01*
Y6493D01*
D02*
G37*
G36*
X30079D02*
X29976D01*
Y6400D01*
X30079D01*
Y6493D01*
D02*
G37*
G36*
X30827D02*
X30724D01*
Y6400D01*
X30827D01*
Y6493D01*
D02*
G37*
G36*
X30453D02*
X30350D01*
Y6400D01*
X30453D01*
Y6493D01*
D02*
G37*
G36*
X28299Y6570D02*
X28079D01*
X28053Y6565D01*
X28030Y6550D01*
X28016Y6528D01*
X28010Y6502D01*
Y6281D01*
X28016Y6255D01*
X28030Y6233D01*
X28053Y6218D01*
X28079Y6213D01*
X28299D01*
X28325Y6218D01*
X28347Y6233D01*
X28362Y6255D01*
X28367Y6281D01*
Y6311D01*
X28549D01*
X28562Y6292D01*
X28608Y6262D01*
X28661Y6251D01*
X28715Y6262D01*
X28761Y6292D01*
X28774Y6311D01*
X28992D01*
Y6260D01*
X29276D01*
Y6524D01*
X28992D01*
Y6472D01*
X28774D01*
X28761Y6491D01*
X28715Y6522D01*
X28661Y6532D01*
X28608Y6522D01*
X28562Y6491D01*
X28549Y6472D01*
X28367D01*
Y6502D01*
X28362Y6528D01*
X28347Y6550D01*
X28325Y6565D01*
X28299Y6570D01*
D02*
G37*
G36*
X31008Y6322D02*
X30906D01*
Y6229D01*
X31008D01*
Y6322D01*
D02*
G37*
G36*
X30827D02*
X30724D01*
Y6229D01*
X30827D01*
Y6322D01*
D02*
G37*
G36*
X30634D02*
X30531D01*
Y6229D01*
X30634D01*
Y6322D01*
D02*
G37*
G36*
X30453D02*
X30350D01*
Y6229D01*
X30453D01*
Y6322D01*
D02*
G37*
G36*
X30260D02*
X30157D01*
Y6229D01*
X30260D01*
Y6322D01*
D02*
G37*
G36*
X30079D02*
X29976D01*
Y6229D01*
X30079D01*
Y6322D01*
D02*
G37*
G36*
X27591Y6570D02*
X27370D01*
X27344Y6565D01*
X27322Y6550D01*
X27307Y6528D01*
X27302Y6502D01*
Y6281D01*
X27307Y6255D01*
X27322Y6233D01*
X27344Y6218D01*
X27370Y6213D01*
X27591D01*
X27617Y6218D01*
X27639Y6233D01*
X27654Y6255D01*
X27659Y6281D01*
Y6502D01*
X27654Y6528D01*
X27639Y6550D01*
X27617Y6565D01*
X27591Y6570D01*
D02*
G37*
G36*
X26882D02*
X26661D01*
X26635Y6565D01*
X26613Y6550D01*
X26598Y6528D01*
X26593Y6502D01*
Y6281D01*
X26598Y6255D01*
X26613Y6233D01*
X26635Y6218D01*
X26661Y6213D01*
X26882D01*
X26908Y6218D01*
X26930Y6233D01*
X26945Y6255D01*
X26950Y6281D01*
Y6502D01*
X26945Y6528D01*
X26930Y6550D01*
X26908Y6565D01*
X26882Y6570D01*
D02*
G37*
G36*
X19795D02*
X19575D01*
X19549Y6565D01*
X19527Y6550D01*
X19512Y6528D01*
X19507Y6502D01*
Y6281D01*
X19512Y6255D01*
X19527Y6233D01*
X19549Y6218D01*
X19575Y6213D01*
X19795D01*
X19821Y6218D01*
X19844Y6233D01*
X19858Y6255D01*
X19864Y6281D01*
Y6502D01*
X19858Y6528D01*
X19844Y6550D01*
X19821Y6565D01*
X19795Y6570D01*
D02*
G37*
G36*
X19087D02*
X18866D01*
X18840Y6565D01*
X18818Y6550D01*
X18803Y6528D01*
X18798Y6502D01*
Y6281D01*
X18803Y6255D01*
X18818Y6233D01*
X18840Y6218D01*
X18866Y6213D01*
X19087D01*
X19113Y6218D01*
X19135Y6233D01*
X19150Y6255D01*
X19155Y6281D01*
Y6502D01*
X19150Y6528D01*
X19135Y6550D01*
X19113Y6565D01*
X19087Y6570D01*
D02*
G37*
G36*
X18378D02*
X18157D01*
X18131Y6565D01*
X18109Y6550D01*
X18094Y6528D01*
X18089Y6502D01*
Y6281D01*
X18094Y6255D01*
X18109Y6233D01*
X18131Y6218D01*
X18157Y6213D01*
X18378D01*
X18404Y6218D01*
X18426Y6233D01*
X18441Y6255D01*
X18446Y6281D01*
Y6502D01*
X18441Y6528D01*
X18426Y6550D01*
X18404Y6565D01*
X18378Y6570D01*
D02*
G37*
G36*
X29276Y6185D02*
X29173D01*
Y6093D01*
X29276D01*
Y6185D01*
D02*
G37*
G36*
X29094D02*
X28992D01*
Y6093D01*
X29094D01*
Y6185D01*
D02*
G37*
G36*
X29276Y6014D02*
X29173D01*
Y5921D01*
X29276D01*
Y6014D01*
D02*
G37*
G36*
X29094D02*
X28992D01*
Y5921D01*
X29094D01*
Y6014D01*
D02*
G37*
G36*
X26173Y5862D02*
X26102D01*
Y5722D01*
X26241D01*
Y5793D01*
X26236Y5819D01*
X26221Y5842D01*
X26199Y5856D01*
X26173Y5862D01*
D02*
G37*
G36*
X26024D02*
X25953D01*
X25927Y5856D01*
X25905Y5842D01*
X25890Y5819D01*
X25885Y5793D01*
Y5722D01*
X26024D01*
Y5862D01*
D02*
G37*
G36*
X10144Y5850D02*
X9880D01*
Y5567D01*
X10144D01*
Y5628D01*
X10191D01*
X10204Y5609D01*
X10249Y5579D01*
X10303Y5568D01*
X10357Y5579D01*
X10402Y5609D01*
X10433Y5655D01*
X10444Y5709D01*
X10433Y5762D01*
X10402Y5808D01*
X10357Y5838D01*
X10303Y5849D01*
X10249Y5838D01*
X10204Y5808D01*
X10191Y5789D01*
X10144D01*
Y5850D01*
D02*
G37*
G36*
X4276Y5616D02*
X4173D01*
Y5524D01*
X4276D01*
Y5616D01*
D02*
G37*
G36*
X5671Y5626D02*
X5579D01*
Y5524D01*
X5671D01*
Y5626D01*
D02*
G37*
G36*
X4669Y5616D02*
X4567D01*
Y5524D01*
X4669D01*
Y5616D01*
D02*
G37*
G36*
X4488D02*
X4386D01*
Y5524D01*
X4488D01*
Y5616D01*
D02*
G37*
G36*
X5500Y5626D02*
X5407D01*
Y5524D01*
X5500D01*
Y5626D01*
D02*
G37*
G36*
X4094Y5616D02*
X3992D01*
Y5524D01*
X4094D01*
Y5616D01*
D02*
G37*
G36*
X27591Y5862D02*
X27370D01*
X27344Y5856D01*
X27322Y5842D01*
X27307Y5819D01*
X27302Y5793D01*
Y5573D01*
X27307Y5547D01*
X27322Y5525D01*
X27344Y5510D01*
X27370Y5505D01*
X27591D01*
X27617Y5510D01*
X27639Y5525D01*
X27654Y5547D01*
X27659Y5573D01*
Y5793D01*
X27654Y5819D01*
X27639Y5842D01*
X27617Y5856D01*
X27591Y5862D01*
D02*
G37*
G36*
X26882D02*
X26661D01*
X26635Y5856D01*
X26613Y5842D01*
X26598Y5819D01*
X26593Y5793D01*
Y5573D01*
X26598Y5547D01*
X26613Y5525D01*
X26635Y5510D01*
X26661Y5505D01*
X26882D01*
X26908Y5510D01*
X26930Y5525D01*
X26945Y5547D01*
X26950Y5573D01*
Y5793D01*
X26945Y5819D01*
X26930Y5842D01*
X26908Y5856D01*
X26882Y5862D01*
D02*
G37*
G36*
X26241Y5644D02*
X26102D01*
Y5505D01*
X26173D01*
X26199Y5510D01*
X26221Y5525D01*
X26236Y5547D01*
X26241Y5573D01*
Y5644D01*
D02*
G37*
G36*
X26024D02*
X25885D01*
Y5573D01*
X25890Y5547D01*
X25905Y5525D01*
X25927Y5510D01*
X25953Y5505D01*
X26024D01*
Y5644D01*
D02*
G37*
G36*
X20504Y5862D02*
X20283D01*
X20257Y5856D01*
X20235Y5842D01*
X20220Y5819D01*
X20215Y5793D01*
Y5573D01*
X20220Y5547D01*
X20235Y5525D01*
X20257Y5510D01*
X20283Y5505D01*
X20504D01*
X20530Y5510D01*
X20552Y5525D01*
X20567Y5547D01*
X20572Y5573D01*
Y5793D01*
X20567Y5819D01*
X20552Y5842D01*
X20530Y5856D01*
X20504Y5862D01*
D02*
G37*
G36*
X19795D02*
X19575D01*
X19549Y5856D01*
X19527Y5842D01*
X19512Y5819D01*
X19507Y5793D01*
Y5573D01*
X19512Y5547D01*
X19527Y5525D01*
X19549Y5510D01*
X19575Y5505D01*
X19795D01*
X19821Y5510D01*
X19844Y5525D01*
X19858Y5547D01*
X19864Y5573D01*
Y5793D01*
X19858Y5819D01*
X19844Y5842D01*
X19821Y5856D01*
X19795Y5862D01*
D02*
G37*
G36*
X19087D02*
X18866D01*
X18840Y5856D01*
X18818Y5842D01*
X18803Y5819D01*
X18798Y5793D01*
Y5573D01*
X18803Y5547D01*
X18818Y5525D01*
X18840Y5510D01*
X18866Y5505D01*
X19087D01*
X19113Y5510D01*
X19135Y5525D01*
X19150Y5547D01*
X19155Y5573D01*
Y5793D01*
X19150Y5819D01*
X19135Y5842D01*
X19113Y5856D01*
X19087Y5862D01*
D02*
G37*
G36*
X18378D02*
X18157D01*
X18131Y5856D01*
X18109Y5842D01*
X18094Y5819D01*
X18089Y5793D01*
Y5573D01*
X18094Y5547D01*
X18109Y5525D01*
X18131Y5510D01*
X18157Y5505D01*
X18378D01*
X18404Y5510D01*
X18426Y5525D01*
X18441Y5547D01*
X18446Y5573D01*
Y5793D01*
X18441Y5819D01*
X18426Y5842D01*
X18404Y5856D01*
X18378Y5862D01*
D02*
G37*
G36*
X4669Y5445D02*
X4567D01*
Y5352D01*
X4669D01*
Y5445D01*
D02*
G37*
G36*
X4488D02*
X4386D01*
Y5352D01*
X4488D01*
Y5445D01*
D02*
G37*
G36*
X4276D02*
X4173D01*
Y5352D01*
X4276D01*
Y5445D01*
D02*
G37*
G36*
X4094D02*
X3992D01*
Y5352D01*
X4094D01*
Y5445D01*
D02*
G37*
G36*
X5671D02*
X5579D01*
Y5343D01*
X5671D01*
Y5445D01*
D02*
G37*
G36*
X5500D02*
X5407D01*
Y5343D01*
X5500D01*
Y5445D01*
D02*
G37*
G36*
X827Y5354D02*
X433D01*
Y5157D01*
X827D01*
Y5354D01*
D02*
G37*
G36*
X354D02*
X-39D01*
Y5157D01*
X354D01*
Y5354D01*
D02*
G37*
G36*
X28299Y5862D02*
X28079D01*
X28053Y5856D01*
X28030Y5842D01*
X28016Y5819D01*
X28010Y5793D01*
Y5573D01*
X28016Y5547D01*
X28030Y5525D01*
X28053Y5510D01*
X28079Y5505D01*
X28254D01*
X28336Y5422D01*
X28332Y5355D01*
X28205Y5228D01*
X28187Y5202D01*
X28181Y5171D01*
Y5153D01*
X28079D01*
X28053Y5148D01*
X28030Y5133D01*
X28016Y5111D01*
X28010Y5085D01*
Y4864D01*
X28016Y4838D01*
X28030Y4816D01*
X28053Y4801D01*
X28079Y4796D01*
X28299D01*
X28325Y4801D01*
X28347Y4816D01*
X28362Y4838D01*
X28367Y4864D01*
Y5085D01*
X28362Y5111D01*
X28347Y5133D01*
X28377Y5172D01*
X28449Y5245D01*
X30127D01*
Y5224D01*
X30129Y5216D01*
Y5067D01*
X30365D01*
Y5303D01*
X30331D01*
X30325Y5313D01*
X30353Y5363D01*
X30744D01*
X30806Y5301D01*
Y5067D01*
X31043D01*
Y5303D01*
X31018D01*
X30977Y5324D01*
X30971Y5355D01*
X30953Y5381D01*
X30834Y5500D01*
X30808Y5517D01*
X30778Y5523D01*
X28462D01*
X28367Y5618D01*
Y5793D01*
X28362Y5819D01*
X28347Y5842D01*
X28325Y5856D01*
X28299Y5862D01*
D02*
G37*
G36*
X18378Y5153D02*
X18157D01*
X18131Y5148D01*
X18109Y5133D01*
X18094Y5111D01*
X18089Y5085D01*
Y5055D01*
X18025D01*
X18013Y5074D01*
X17967Y5104D01*
X17913Y5115D01*
X17860Y5104D01*
X17814Y5074D01*
X17784Y5028D01*
X17773Y4974D01*
X17784Y4921D01*
X17814Y4875D01*
X17860Y4845D01*
X17913Y4834D01*
X17967Y4845D01*
X18013Y4875D01*
X18025Y4894D01*
X18089D01*
Y4864D01*
X18094Y4838D01*
X18109Y4816D01*
X18131Y4801D01*
X18157Y4796D01*
X18378D01*
X18404Y4801D01*
X18426Y4816D01*
X18441Y4838D01*
X18446Y4864D01*
Y5085D01*
X18441Y5111D01*
X18426Y5133D01*
X18404Y5148D01*
X18378Y5153D01*
D02*
G37*
G36*
X27591D02*
X27520D01*
Y5014D01*
X27659D01*
Y5085D01*
X27654Y5111D01*
X27639Y5133D01*
X27617Y5148D01*
X27591Y5153D01*
D02*
G37*
G36*
X27441D02*
X27370D01*
X27344Y5148D01*
X27322Y5133D01*
X27307Y5111D01*
X27302Y5085D01*
Y5014D01*
X27441D01*
Y5153D01*
D02*
G37*
G36*
X19087D02*
X19016D01*
Y5014D01*
X19155D01*
Y5085D01*
X19150Y5111D01*
X19135Y5133D01*
X19113Y5148D01*
X19087Y5153D01*
D02*
G37*
G36*
X18937D02*
X18866D01*
X18840Y5148D01*
X18818Y5133D01*
X18803Y5111D01*
X18798Y5085D01*
Y5014D01*
X18937D01*
Y5153D01*
D02*
G37*
G36*
X827Y5079D02*
X433D01*
Y4882D01*
X827D01*
Y5079D01*
D02*
G37*
G36*
X354D02*
X-39D01*
Y4882D01*
X354D01*
Y5079D01*
D02*
G37*
G36*
X31190Y4948D02*
X31111D01*
Y4870D01*
X31190D01*
Y4948D01*
D02*
G37*
G36*
X31033D02*
X30954D01*
Y4870D01*
X31033D01*
Y4948D01*
D02*
G37*
G36*
X30513D02*
X30434D01*
Y4870D01*
X30513D01*
Y4948D01*
D02*
G37*
G36*
X30355D02*
X30276D01*
Y4870D01*
X30355D01*
Y4948D01*
D02*
G37*
G36*
X27659Y4935D02*
X27520D01*
Y4796D01*
X27591D01*
X27617Y4801D01*
X27639Y4816D01*
X27654Y4838D01*
X27659Y4864D01*
Y4935D01*
D02*
G37*
G36*
X27441D02*
X27302D01*
Y4864D01*
X27307Y4838D01*
X27322Y4816D01*
X27344Y4801D01*
X27370Y4796D01*
X27441D01*
Y4935D01*
D02*
G37*
G36*
X26882Y5153D02*
X26661D01*
X26635Y5148D01*
X26613Y5133D01*
X26598Y5111D01*
X26593Y5085D01*
Y4864D01*
X26598Y4838D01*
X26613Y4816D01*
X26635Y4801D01*
X26661Y4796D01*
X26882D01*
X26908Y4801D01*
X26930Y4816D01*
X26945Y4838D01*
X26950Y4864D01*
Y5085D01*
X26945Y5111D01*
X26930Y5133D01*
X26908Y5148D01*
X26882Y5153D01*
D02*
G37*
G36*
X26173D02*
X25953D01*
X25927Y5148D01*
X25905Y5133D01*
X25890Y5111D01*
X25885Y5085D01*
Y4864D01*
X25890Y4838D01*
X25905Y4816D01*
X25927Y4801D01*
X25953Y4796D01*
X26173D01*
X26199Y4801D01*
X26221Y4816D01*
X26236Y4838D01*
X26241Y4864D01*
Y5085D01*
X26236Y5111D01*
X26221Y5133D01*
X26199Y5148D01*
X26173Y5153D01*
D02*
G37*
G36*
X25465D02*
X25244D01*
X25218Y5148D01*
X25196Y5133D01*
X25181Y5111D01*
X25176Y5085D01*
Y4864D01*
X25181Y4838D01*
X25196Y4816D01*
X25218Y4801D01*
X25244Y4796D01*
X25465D01*
X25491Y4801D01*
X25513Y4816D01*
X25528Y4838D01*
X25533Y4864D01*
Y5085D01*
X25528Y5111D01*
X25513Y5133D01*
X25491Y5148D01*
X25465Y5153D01*
D02*
G37*
G36*
X24756D02*
X24535D01*
X24509Y5148D01*
X24487Y5133D01*
X24472Y5111D01*
X24467Y5085D01*
Y4864D01*
X24472Y4838D01*
X24487Y4816D01*
X24509Y4801D01*
X24535Y4796D01*
X24756D01*
X24782Y4801D01*
X24804Y4816D01*
X24819Y4838D01*
X24824Y4864D01*
Y5085D01*
X24819Y5111D01*
X24804Y5133D01*
X24782Y5148D01*
X24756Y5153D01*
D02*
G37*
G36*
X24047D02*
X23827D01*
X23801Y5148D01*
X23779Y5133D01*
X23764Y5111D01*
X23759Y5085D01*
Y4864D01*
X23764Y4838D01*
X23779Y4816D01*
X23801Y4801D01*
X23827Y4796D01*
X24047D01*
X24073Y4801D01*
X24095Y4816D01*
X24110Y4838D01*
X24115Y4864D01*
Y5085D01*
X24110Y5111D01*
X24095Y5133D01*
X24073Y5148D01*
X24047Y5153D01*
D02*
G37*
G36*
X23339D02*
X23118D01*
X23092Y5148D01*
X23070Y5133D01*
X23055Y5111D01*
X23050Y5085D01*
Y4864D01*
X23055Y4838D01*
X23070Y4816D01*
X23092Y4801D01*
X23118Y4796D01*
X23339D01*
X23365Y4801D01*
X23387Y4816D01*
X23402Y4838D01*
X23407Y4864D01*
Y5085D01*
X23402Y5111D01*
X23387Y5133D01*
X23365Y5148D01*
X23339Y5153D01*
D02*
G37*
G36*
X22630D02*
X22409D01*
X22383Y5148D01*
X22361Y5133D01*
X22346Y5111D01*
X22341Y5085D01*
Y4864D01*
X22346Y4838D01*
X22361Y4816D01*
X22383Y4801D01*
X22409Y4796D01*
X22630D01*
X22656Y4801D01*
X22678Y4816D01*
X22693Y4838D01*
X22698Y4864D01*
Y5085D01*
X22693Y5111D01*
X22678Y5133D01*
X22656Y5148D01*
X22630Y5153D01*
D02*
G37*
G36*
X21921D02*
X21701D01*
X21675Y5148D01*
X21653Y5133D01*
X21638Y5111D01*
X21633Y5085D01*
Y4864D01*
X21638Y4838D01*
X21653Y4816D01*
X21675Y4801D01*
X21701Y4796D01*
X21921D01*
X21947Y4801D01*
X21970Y4816D01*
X21984Y4838D01*
X21990Y4864D01*
Y5085D01*
X21984Y5111D01*
X21970Y5133D01*
X21947Y5148D01*
X21921Y5153D01*
D02*
G37*
G36*
X17465Y5445D02*
X17181D01*
Y5181D01*
X17465D01*
Y5233D01*
X20232D01*
X20266Y5196D01*
X20259Y5157D01*
X20252Y5144D01*
X20235Y5133D01*
X20220Y5111D01*
X20215Y5085D01*
Y4864D01*
X20220Y4838D01*
X20235Y4816D01*
X20257Y4801D01*
X20283Y4796D01*
X20504D01*
X20530Y4801D01*
X20552Y4816D01*
X20567Y4838D01*
X20572Y4864D01*
Y5085D01*
X20567Y5111D01*
X20552Y5133D01*
X20530Y5148D01*
X20504Y5153D01*
X20474D01*
Y5187D01*
X20468Y5218D01*
X20450Y5244D01*
X20324Y5370D01*
X20298Y5387D01*
X20268Y5393D01*
X17465D01*
Y5445D01*
D02*
G37*
G36*
X19795Y5153D02*
X19575D01*
X19549Y5148D01*
X19527Y5133D01*
X19512Y5111D01*
X19507Y5085D01*
Y4864D01*
X19512Y4838D01*
X19527Y4816D01*
X19549Y4801D01*
X19575Y4796D01*
X19795D01*
X19821Y4801D01*
X19844Y4816D01*
X19858Y4838D01*
X19864Y4864D01*
Y5085D01*
X19858Y5111D01*
X19844Y5133D01*
X19821Y5148D01*
X19795Y5153D01*
D02*
G37*
G36*
X19155Y4935D02*
X19016D01*
Y4796D01*
X19087D01*
X19113Y4801D01*
X19135Y4816D01*
X19150Y4838D01*
X19155Y4864D01*
Y4935D01*
D02*
G37*
G36*
X18937D02*
X18798D01*
Y4864D01*
X18803Y4838D01*
X18818Y4816D01*
X18840Y4801D01*
X18866Y4796D01*
X18937D01*
Y4935D01*
D02*
G37*
G36*
X31190Y4791D02*
X31111D01*
Y4712D01*
X31190D01*
Y4791D01*
D02*
G37*
G36*
X31033D02*
X30954D01*
Y4712D01*
X31033D01*
Y4791D01*
D02*
G37*
G36*
X30513Y4791D02*
X30434D01*
Y4712D01*
X30513D01*
Y4791D01*
D02*
G37*
G36*
X30355D02*
X30276D01*
Y4712D01*
X30355D01*
Y4791D01*
D02*
G37*
G36*
X21213Y5153D02*
X20992D01*
X20966Y5148D01*
X20944Y5133D01*
X20929Y5111D01*
X20924Y5085D01*
Y4864D01*
X20929Y4838D01*
X20944Y4816D01*
X20966Y4801D01*
X20992Y4796D01*
X21022D01*
Y4728D01*
X21000Y4706D01*
X17504D01*
X17417Y4793D01*
X17438Y4843D01*
X17465D01*
Y5106D01*
X17181D01*
Y4843D01*
X17243D01*
Y4774D01*
X17249Y4743D01*
X17266Y4717D01*
X17414Y4569D01*
X17414Y4569D01*
X17440Y4552D01*
X17470Y4546D01*
X21033D01*
X21064Y4552D01*
X21090Y4569D01*
X21159Y4638D01*
X21159Y4638D01*
X21177Y4664D01*
X21183Y4695D01*
Y4796D01*
X21213D01*
X21239Y4801D01*
X21261Y4816D01*
X21276Y4838D01*
X21281Y4864D01*
Y5085D01*
X21276Y5111D01*
X21261Y5133D01*
X21239Y5148D01*
X21213Y5153D01*
D02*
G37*
G36*
X2795Y5354D02*
X1929D01*
Y4882D01*
X2795D01*
Y4998D01*
X4858D01*
X5083Y4772D01*
X5087Y4756D01*
X5096Y4742D01*
Y4419D01*
X5000D01*
Y4254D01*
X4733D01*
X4646Y4342D01*
Y4636D01*
X3228D01*
Y4171D01*
X4475D01*
X4598Y4049D01*
X4598Y4049D01*
X4637Y4023D01*
X4683Y4013D01*
X5000D01*
Y3976D01*
X5295D01*
X5591D01*
Y4026D01*
X5484D01*
X5457Y4076D01*
X5466Y4088D01*
X5475Y4134D01*
X5466Y4180D01*
X5452Y4200D01*
X5433Y4242D01*
Y4419D01*
X5337D01*
Y4687D01*
X5407D01*
Y4665D01*
X5671D01*
Y4949D01*
X5660D01*
Y5004D01*
X5671D01*
Y5287D01*
X5407D01*
Y5004D01*
X5419D01*
Y4949D01*
X5407D01*
Y4928D01*
X5288D01*
X5270Y4939D01*
X5254Y4943D01*
X4993Y5203D01*
X4954Y5229D01*
X4908Y5239D01*
X4908Y5239D01*
X4669D01*
Y5278D01*
X4386D01*
Y5239D01*
X4276D01*
Y5278D01*
X3992D01*
Y5239D01*
X2795D01*
Y5354D01*
D02*
G37*
G36*
X28543Y4761D02*
X28490Y4750D01*
X28444Y4719D01*
X28414Y4674D01*
X28403Y4620D01*
X28407Y4598D01*
X28254Y4444D01*
X28079D01*
X28053Y4439D01*
X28030Y4424D01*
X28016Y4402D01*
X28010Y4376D01*
Y4156D01*
X28016Y4129D01*
X28030Y4107D01*
X28053Y4092D01*
X28079Y4087D01*
X28299D01*
X28325Y4092D01*
X28347Y4107D01*
X28362Y4129D01*
X28367Y4156D01*
Y4331D01*
X28521Y4484D01*
X28543Y4480D01*
X28597Y4490D01*
X28643Y4521D01*
X28673Y4566D01*
X28684Y4620D01*
X28673Y4674D01*
X28643Y4719D01*
X28597Y4750D01*
X28543Y4761D01*
D02*
G37*
G36*
X27835D02*
X27781Y4750D01*
X27735Y4719D01*
X27705Y4674D01*
X27694Y4620D01*
X27699Y4598D01*
X27545Y4444D01*
X27370D01*
X27344Y4439D01*
X27322Y4424D01*
X27307Y4402D01*
X27302Y4376D01*
Y4156D01*
X27307Y4129D01*
X27322Y4107D01*
X27344Y4092D01*
X27370Y4087D01*
X27591D01*
X27617Y4092D01*
X27639Y4107D01*
X27654Y4129D01*
X27659Y4156D01*
Y4331D01*
X27812Y4484D01*
X27835Y4480D01*
X27888Y4490D01*
X27934Y4521D01*
X27964Y4566D01*
X27975Y4620D01*
X27964Y4674D01*
X27934Y4719D01*
X27888Y4750D01*
X27835Y4761D01*
D02*
G37*
G36*
X27126D02*
X27072Y4750D01*
X27027Y4719D01*
X26996Y4674D01*
X26985Y4620D01*
X26990Y4598D01*
X26837Y4444D01*
X26661D01*
X26635Y4439D01*
X26613Y4424D01*
X26598Y4402D01*
X26593Y4376D01*
Y4156D01*
X26598Y4129D01*
X26613Y4107D01*
X26635Y4092D01*
X26661Y4087D01*
X26882D01*
X26908Y4092D01*
X26930Y4107D01*
X26945Y4129D01*
X26950Y4156D01*
Y4331D01*
X27103Y4484D01*
X27126Y4480D01*
X27180Y4490D01*
X27225Y4521D01*
X27256Y4566D01*
X27266Y4620D01*
X27256Y4674D01*
X27225Y4719D01*
X27180Y4750D01*
X27126Y4761D01*
D02*
G37*
G36*
X26417D02*
X26364Y4750D01*
X26318Y4719D01*
X26288Y4674D01*
X26277Y4620D01*
X26281Y4598D01*
X26128Y4444D01*
X25953D01*
X25927Y4439D01*
X25905Y4424D01*
X25890Y4402D01*
X25885Y4376D01*
Y4156D01*
X25890Y4129D01*
X25905Y4107D01*
X25927Y4092D01*
X25953Y4087D01*
X26173D01*
X26199Y4092D01*
X26221Y4107D01*
X26236Y4129D01*
X26241Y4156D01*
Y4331D01*
X26395Y4484D01*
X26417Y4480D01*
X26471Y4490D01*
X26517Y4521D01*
X26547Y4566D01*
X26558Y4620D01*
X26547Y4674D01*
X26517Y4719D01*
X26471Y4750D01*
X26417Y4761D01*
D02*
G37*
G36*
X25709D02*
X25655Y4750D01*
X25609Y4719D01*
X25579Y4674D01*
X25568Y4620D01*
X25573Y4598D01*
X25419Y4444D01*
X25244D01*
X25218Y4439D01*
X25196Y4424D01*
X25181Y4402D01*
X25176Y4376D01*
Y4156D01*
X25181Y4129D01*
X25196Y4107D01*
X25218Y4092D01*
X25244Y4087D01*
X25465D01*
X25491Y4092D01*
X25513Y4107D01*
X25528Y4129D01*
X25533Y4156D01*
Y4331D01*
X25686Y4484D01*
X25709Y4480D01*
X25762Y4490D01*
X25808Y4521D01*
X25838Y4566D01*
X25849Y4620D01*
X25838Y4674D01*
X25808Y4719D01*
X25762Y4750D01*
X25709Y4761D01*
D02*
G37*
G36*
X30548Y4572D02*
X30456D01*
Y4469D01*
X30548D01*
Y4572D01*
D02*
G37*
G36*
X30377D02*
X30284D01*
Y4469D01*
X30377D01*
Y4572D01*
D02*
G37*
G36*
X31226D02*
X31133D01*
Y4469D01*
X31226D01*
Y4572D01*
D02*
G37*
G36*
X31054D02*
X30962D01*
Y4469D01*
X31054D01*
Y4572D01*
D02*
G37*
G36*
X21213Y4444D02*
X21142D01*
Y4305D01*
X21281D01*
Y4376D01*
X21276Y4402D01*
X21261Y4424D01*
X21239Y4439D01*
X21213Y4444D01*
D02*
G37*
G36*
X21063D02*
X20992D01*
X20966Y4439D01*
X20944Y4424D01*
X20929Y4402D01*
X20924Y4376D01*
Y4305D01*
X21063D01*
Y4444D01*
D02*
G37*
G36*
X31226Y4391D02*
X31133D01*
Y4288D01*
X31226D01*
Y4391D01*
D02*
G37*
G36*
X31054D02*
X30962D01*
Y4288D01*
X31054D01*
Y4391D01*
D02*
G37*
G36*
X30548Y4391D02*
X30456D01*
Y4288D01*
X30548D01*
Y4391D01*
D02*
G37*
G36*
X30377D02*
X30284D01*
Y4288D01*
X30377D01*
Y4391D01*
D02*
G37*
G36*
X6010Y5626D02*
X5746D01*
Y5343D01*
X5758D01*
Y5287D01*
X5746D01*
Y5004D01*
X6010D01*
Y5017D01*
X6053Y5034D01*
X6091Y5003D01*
Y4263D01*
X6059Y4247D01*
X6024Y4272D01*
Y4419D01*
X5992D01*
Y4665D01*
X6010D01*
Y4949D01*
X5746D01*
Y4665D01*
X5752D01*
Y4419D01*
X5709D01*
Y4272D01*
X5709Y4242D01*
X5709Y4192D01*
X5709Y4045D01*
X5709Y3995D01*
Y3976D01*
X5866D01*
X6024D01*
Y4026D01*
X6062Y4054D01*
X6093D01*
X6123Y4060D01*
X6149Y4077D01*
X6228Y4156D01*
X6228Y4156D01*
X6245Y4182D01*
X6252Y4213D01*
X6252Y4213D01*
Y5039D01*
X6252Y5039D01*
X6245Y5070D01*
X6228Y5096D01*
X6122Y5202D01*
X6096Y5220D01*
X6065Y5226D01*
X6010D01*
Y5287D01*
X5998D01*
Y5343D01*
X6010D01*
Y5626D01*
D02*
G37*
G36*
X24756Y4444D02*
X24535D01*
X24509Y4439D01*
X24487Y4424D01*
X24472Y4402D01*
X24467Y4376D01*
Y4156D01*
X24472Y4129D01*
X24487Y4107D01*
X24509Y4092D01*
X24535Y4087D01*
X24756D01*
X24782Y4092D01*
X24804Y4107D01*
X24819Y4129D01*
X24824Y4156D01*
Y4376D01*
X24819Y4402D01*
X24804Y4424D01*
X24782Y4439D01*
X24756Y4444D01*
D02*
G37*
G36*
X24047D02*
X23827D01*
X23801Y4439D01*
X23779Y4424D01*
X23764Y4402D01*
X23759Y4376D01*
Y4156D01*
X23764Y4129D01*
X23779Y4107D01*
X23801Y4092D01*
X23827Y4087D01*
X24047D01*
X24073Y4092D01*
X24095Y4107D01*
X24110Y4129D01*
X24115Y4156D01*
Y4376D01*
X24110Y4402D01*
X24095Y4424D01*
X24073Y4439D01*
X24047Y4444D01*
D02*
G37*
G36*
X23339D02*
X23118D01*
X23092Y4439D01*
X23070Y4424D01*
X23055Y4402D01*
X23050Y4376D01*
Y4156D01*
X23055Y4129D01*
X23070Y4107D01*
X23092Y4092D01*
X23118Y4087D01*
X23339D01*
X23365Y4092D01*
X23387Y4107D01*
X23402Y4129D01*
X23407Y4156D01*
Y4376D01*
X23402Y4402D01*
X23387Y4424D01*
X23365Y4439D01*
X23339Y4444D01*
D02*
G37*
G36*
X22630D02*
X22409D01*
X22383Y4439D01*
X22361Y4424D01*
X22346Y4402D01*
X22341Y4376D01*
Y4156D01*
X22346Y4129D01*
X22361Y4107D01*
X22383Y4092D01*
X22409Y4087D01*
X22630D01*
X22656Y4092D01*
X22678Y4107D01*
X22693Y4129D01*
X22698Y4156D01*
Y4376D01*
X22693Y4402D01*
X22678Y4424D01*
X22656Y4439D01*
X22630Y4444D01*
D02*
G37*
G36*
X21921D02*
X21701D01*
X21675Y4439D01*
X21653Y4424D01*
X21638Y4402D01*
X21633Y4376D01*
Y4156D01*
X21638Y4129D01*
X21653Y4107D01*
X21675Y4092D01*
X21701Y4087D01*
X21921D01*
X21947Y4092D01*
X21970Y4107D01*
X21984Y4129D01*
X21990Y4156D01*
Y4376D01*
X21984Y4402D01*
X21970Y4424D01*
X21947Y4439D01*
X21921Y4444D01*
D02*
G37*
G36*
X21281Y4226D02*
X21142D01*
Y4087D01*
X21213D01*
X21239Y4092D01*
X21261Y4107D01*
X21276Y4129D01*
X21281Y4156D01*
Y4226D01*
D02*
G37*
G36*
X21063D02*
X20924D01*
Y4156D01*
X20929Y4129D01*
X20944Y4107D01*
X20966Y4092D01*
X20992Y4087D01*
X21063D01*
Y4226D01*
D02*
G37*
G36*
X20504Y4444D02*
X20283D01*
X20257Y4439D01*
X20235Y4424D01*
X20220Y4402D01*
X20215Y4376D01*
Y4156D01*
X20220Y4129D01*
X20235Y4107D01*
X20257Y4092D01*
X20283Y4087D01*
X20504D01*
X20530Y4092D01*
X20552Y4107D01*
X20567Y4129D01*
X20572Y4156D01*
Y4376D01*
X20567Y4402D01*
X20552Y4424D01*
X20530Y4439D01*
X20504Y4444D01*
D02*
G37*
G36*
X19795D02*
X19575D01*
X19549Y4439D01*
X19527Y4424D01*
X19512Y4402D01*
X19507Y4376D01*
Y4156D01*
X19512Y4129D01*
X19527Y4107D01*
X19549Y4092D01*
X19575Y4087D01*
X19795D01*
X19821Y4092D01*
X19844Y4107D01*
X19858Y4129D01*
X19864Y4156D01*
Y4376D01*
X19858Y4402D01*
X19844Y4424D01*
X19821Y4439D01*
X19795Y4444D01*
D02*
G37*
G36*
X18378D02*
X18157D01*
X18131Y4439D01*
X18109Y4424D01*
X18094Y4402D01*
X18089Y4376D01*
Y4156D01*
X18094Y4129D01*
X18109Y4107D01*
X18131Y4092D01*
X18157Y4087D01*
X18378D01*
X18404Y4092D01*
X18426Y4107D01*
X18441Y4129D01*
X18446Y4156D01*
Y4376D01*
X18441Y4402D01*
X18426Y4424D01*
X18404Y4439D01*
X18378Y4444D01*
D02*
G37*
G36*
X31226Y4178D02*
X31133D01*
Y4076D01*
X31226D01*
Y4178D01*
D02*
G37*
G36*
X31054D02*
X30962D01*
Y4076D01*
X31054D01*
Y4178D01*
D02*
G37*
G36*
X30548D02*
X30456D01*
Y4076D01*
X30548D01*
Y4178D01*
D02*
G37*
G36*
X30377D02*
X30284D01*
Y4076D01*
X30377D01*
Y4178D01*
D02*
G37*
G36*
X19087Y4444D02*
X18866D01*
X18840Y4439D01*
X18818Y4424D01*
X18803Y4402D01*
X18798Y4376D01*
Y4201D01*
X18645Y4047D01*
X18622Y4052D01*
X18568Y4041D01*
X18523Y4011D01*
X18492Y3965D01*
X18482Y3911D01*
X18492Y3858D01*
X18523Y3812D01*
X18568Y3782D01*
X18622Y3771D01*
X18676Y3782D01*
X18721Y3812D01*
X18752Y3858D01*
X18763Y3911D01*
X18758Y3934D01*
X18911Y4087D01*
X19087D01*
X19113Y4092D01*
X19135Y4107D01*
X19150Y4129D01*
X19155Y4156D01*
Y4376D01*
X19150Y4402D01*
X19135Y4424D01*
X19113Y4439D01*
X19087Y4444D01*
D02*
G37*
G36*
X7874Y6046D02*
X7820Y6035D01*
X7775Y6005D01*
X7744Y5959D01*
X7734Y5906D01*
X7744Y5852D01*
X7775Y5806D01*
X7820Y5776D01*
X7874Y5765D01*
X7928Y5776D01*
X7973Y5806D01*
X7986Y5825D01*
X8038D01*
X8087Y5775D01*
X8084Y5708D01*
X7986Y5610D01*
X7973Y5611D01*
X7928Y5642D01*
X7874Y5652D01*
X7820Y5642D01*
X7775Y5611D01*
X7744Y5566D01*
X7734Y5512D01*
X7744Y5458D01*
X7775Y5412D01*
X7820Y5382D01*
X7874Y5371D01*
X7928Y5382D01*
X7973Y5412D01*
X7993Y5442D01*
X8012D01*
X8043Y5448D01*
X8069Y5465D01*
X8203Y5599D01*
X8943D01*
X8991Y5551D01*
Y5433D01*
X8982D01*
Y5157D01*
X9039D01*
X9041Y5108D01*
X9041Y5107D01*
Y4341D01*
X9041Y4341D01*
X9039Y4291D01*
X8982D01*
Y4016D01*
X8982D01*
X8984Y3992D01*
X8943Y3948D01*
X8012D01*
X8004Y3991D01*
X7973Y4036D01*
X7928Y4067D01*
X7874Y4078D01*
X7820Y4067D01*
X7775Y4036D01*
X7744Y3991D01*
X7734Y3937D01*
X7744Y3883D01*
X7775Y3838D01*
X7820Y3807D01*
X7833Y3805D01*
X7849Y3750D01*
X7833Y3733D01*
X7815Y3707D01*
X7809Y3677D01*
Y3666D01*
X7775Y3643D01*
X7744Y3597D01*
X7734Y3543D01*
X7744Y3490D01*
X7775Y3444D01*
X7820Y3414D01*
X7874Y3403D01*
X7928Y3414D01*
X7973Y3444D01*
X8004Y3490D01*
X8015Y3543D01*
X8004Y3597D01*
X7986Y3624D01*
X8015Y3670D01*
X9138D01*
X9162Y3636D01*
X9166Y3621D01*
X9150Y3597D01*
X9139Y3543D01*
X9150Y3490D01*
X9180Y3444D01*
X9202Y3429D01*
X9370Y3261D01*
X9370Y3261D01*
X9409Y3235D01*
X9455Y3226D01*
X9455Y3226D01*
X9541D01*
Y3205D01*
X9805D01*
Y3488D01*
X9754D01*
Y3598D01*
X9805D01*
Y3882D01*
X9545D01*
Y3977D01*
X9573Y4016D01*
X9603Y4016D01*
X9750D01*
Y4045D01*
X9800Y4062D01*
X9930Y3932D01*
X9927Y3882D01*
X9880D01*
Y3598D01*
X10144D01*
Y3882D01*
X10092D01*
Y3963D01*
X10092Y3963D01*
X10086Y3994D01*
X10069Y4020D01*
X10069Y4020D01*
X10062Y4027D01*
X10081Y4073D01*
X10498D01*
X10511Y4054D01*
X10556Y4024D01*
X10610Y4013D01*
X10664Y4024D01*
X10672Y4029D01*
X10722Y4016D01*
Y4016D01*
X10722Y4016D01*
X11313D01*
Y5433D01*
X11159D01*
X11138Y5483D01*
X11362Y5707D01*
X14740D01*
X14939Y5508D01*
Y3901D01*
X14809Y3771D01*
X13642D01*
X13642Y3771D01*
X13611Y3765D01*
X13585Y3748D01*
X13290Y3452D01*
X13280Y3438D01*
X13230Y3450D01*
Y4278D01*
X13596Y4644D01*
X14148D01*
Y4016D01*
X14738D01*
Y5433D01*
X14148D01*
Y4805D01*
X13563D01*
X13532Y4799D01*
X13506Y4781D01*
X13093Y4368D01*
X13075Y4342D01*
X13069Y4311D01*
Y2755D01*
X13019Y2734D01*
X12842Y2911D01*
X12816Y2928D01*
X12785Y2935D01*
X10945D01*
X10914Y2928D01*
X10888Y2911D01*
X10573Y2596D01*
X10556Y2570D01*
X10550Y2539D01*
Y2270D01*
X10488D01*
Y2006D01*
X10772D01*
Y2270D01*
X10710D01*
Y2506D01*
X10978Y2774D01*
X11129D01*
X11148Y2728D01*
X10967Y2547D01*
X10949Y2521D01*
X10943Y2490D01*
Y2270D01*
X10882D01*
Y2006D01*
X11165D01*
Y2270D01*
X11104D01*
Y2457D01*
X11303Y2656D01*
X12703D01*
X12754Y2605D01*
Y2461D01*
X12746D01*
Y2215D01*
X12500D01*
Y2206D01*
X12264D01*
X12233Y2200D01*
X12207Y2183D01*
X12207Y2183D01*
X12079Y2055D01*
X12062Y2029D01*
X12056Y1998D01*
Y1913D01*
X12022Y1880D01*
X11953D01*
Y1931D01*
X11669D01*
Y1667D01*
X11953D01*
Y1719D01*
X12055D01*
X12086Y1725D01*
X12112Y1742D01*
X12127Y1758D01*
X12174Y1739D01*
Y1451D01*
X12103Y1380D01*
X11569D01*
X11543Y1429D01*
X11547Y1436D01*
X11558Y1490D01*
X11547Y1544D01*
X11517Y1590D01*
X11498Y1602D01*
Y1667D01*
X11559D01*
Y1931D01*
X11276D01*
Y1667D01*
X11337D01*
Y1602D01*
X11318Y1590D01*
X11288Y1544D01*
X11277Y1490D01*
X11288Y1436D01*
X11292Y1429D01*
X11265Y1380D01*
X11176D01*
X11149Y1429D01*
X11153Y1436D01*
X11164Y1490D01*
X11153Y1544D01*
X11123Y1590D01*
X11104Y1602D01*
Y1667D01*
X11165D01*
Y1931D01*
X10882D01*
Y1667D01*
X10943D01*
Y1602D01*
X10924Y1590D01*
X10894Y1544D01*
X10883Y1490D01*
X10888Y1467D01*
X10855Y1414D01*
X10852Y1412D01*
X10831Y1409D01*
X10710Y1529D01*
Y1667D01*
X10772D01*
Y1931D01*
X10488D01*
Y1667D01*
X10550D01*
Y1496D01*
X10556Y1465D01*
X10573Y1439D01*
X10770Y1242D01*
X10796Y1225D01*
X10827Y1219D01*
X10827Y1219D01*
X12136D01*
X12167Y1225D01*
X12193Y1242D01*
X12311Y1361D01*
X12311Y1361D01*
X12328Y1387D01*
X12334Y1417D01*
X12334Y1417D01*
Y1817D01*
X12405Y1888D01*
X12500D01*
Y1722D01*
X12558D01*
Y1660D01*
X12558Y1657D01*
X12558Y1654D01*
Y1457D01*
X12538Y1445D01*
X12508Y1399D01*
X12497Y1345D01*
X12508Y1292D01*
X12538Y1246D01*
X12584Y1216D01*
X12638Y1205D01*
X12692Y1216D01*
X12737Y1246D01*
X12768Y1292D01*
X12778Y1345D01*
X12768Y1399D01*
X12749Y1426D01*
X12773Y1476D01*
X13238D01*
X13238Y1476D01*
Y1476D01*
X13288Y1487D01*
X13293Y1484D01*
X13346Y1474D01*
X13400Y1484D01*
X13446Y1515D01*
X13459Y1534D01*
X13846D01*
X13877Y1540D01*
X13903Y1557D01*
X13976Y1630D01*
X14136D01*
Y1913D01*
X14084D01*
Y2024D01*
X14136D01*
Y2307D01*
X13872D01*
Y2024D01*
X13924D01*
Y1913D01*
X13872D01*
Y1762D01*
X13833Y1727D01*
X13826Y1728D01*
X13819Y1732D01*
X13791Y1784D01*
X13796Y1811D01*
X13785Y1865D01*
X13755Y1910D01*
X13709Y1941D01*
X13656Y1952D01*
X13602Y1941D01*
X13556Y1910D01*
X13543Y1891D01*
X13484D01*
Y1929D01*
X13346D01*
Y2008D01*
X13484D01*
Y2215D01*
X13427D01*
Y3362D01*
X13675Y3611D01*
X14843D01*
X14873Y3617D01*
X14899Y3634D01*
X15076Y3811D01*
X15094Y3837D01*
X15100Y3868D01*
Y5541D01*
X15100Y5541D01*
X15094Y5572D01*
X15076Y5598D01*
X15076Y5598D01*
X14830Y5844D01*
X14804Y5862D01*
X14774Y5868D01*
X11329D01*
X11329Y5868D01*
X11298Y5862D01*
X11272Y5844D01*
X10961Y5533D01*
X10944Y5507D01*
X10937Y5476D01*
Y5433D01*
X10722D01*
Y4304D01*
X10672Y4278D01*
X10664Y4283D01*
X10610Y4294D01*
X10556Y4283D01*
X10511Y4253D01*
X10498Y4234D01*
X9750D01*
Y4291D01*
X9693D01*
X9691Y4341D01*
X9691Y4341D01*
Y5107D01*
X9691Y5108D01*
X9693Y5157D01*
X9750D01*
Y5393D01*
X9761Y5401D01*
X9791Y5446D01*
X9802Y5500D01*
X9799Y5517D01*
X9805Y5567D01*
X9805D01*
X9805Y5567D01*
Y5850D01*
X9541D01*
Y5568D01*
X9532Y5554D01*
X9521Y5500D01*
X9524Y5483D01*
X9504Y5457D01*
Y5295D01*
X9425D01*
Y5433D01*
X9376D01*
X9348Y5471D01*
Y5555D01*
X9342Y5586D01*
X9324Y5612D01*
X9082Y5854D01*
X9056Y5871D01*
X9025Y5878D01*
X8212D01*
X8128Y5962D01*
X8102Y5980D01*
X8071Y5986D01*
X7986D01*
X7973Y6005D01*
X7928Y6035D01*
X7874Y6046D01*
D02*
G37*
G36*
X31226Y3997D02*
X31133D01*
Y3894D01*
X31226D01*
Y3997D01*
D02*
G37*
G36*
X31054D02*
X30962D01*
Y3894D01*
X31054D01*
Y3997D01*
D02*
G37*
G36*
X30548Y3997D02*
X30456D01*
Y3894D01*
X30548D01*
Y3997D01*
D02*
G37*
G36*
X30377D02*
X30284D01*
Y3894D01*
X30377D01*
Y3997D01*
D02*
G37*
G36*
X6024Y3898D02*
X5866D01*
X5709D01*
Y3848D01*
X5709Y3798D01*
Y3780D01*
X5866D01*
X6024D01*
Y3829D01*
X6024Y3879D01*
Y3898D01*
D02*
G37*
G36*
X27835Y4052D02*
X27781Y4041D01*
X27735Y4011D01*
X27705Y3965D01*
X27694Y3911D01*
X27699Y3889D01*
X27545Y3736D01*
X27370D01*
X27344Y3730D01*
X27322Y3716D01*
X27307Y3693D01*
X27302Y3667D01*
Y3447D01*
X27307Y3421D01*
X27322Y3399D01*
X27344Y3384D01*
X27370Y3379D01*
X27591D01*
X27617Y3384D01*
X27639Y3399D01*
X27654Y3421D01*
X27659Y3447D01*
Y3622D01*
X27812Y3775D01*
X27835Y3771D01*
X27888Y3782D01*
X27934Y3812D01*
X27964Y3858D01*
X27975Y3911D01*
X27964Y3965D01*
X27934Y4011D01*
X27888Y4041D01*
X27835Y4052D01*
D02*
G37*
G36*
X27126D02*
X27072Y4041D01*
X27027Y4011D01*
X26996Y3965D01*
X26985Y3911D01*
X26990Y3889D01*
X26837Y3736D01*
X26661D01*
X26635Y3730D01*
X26613Y3716D01*
X26598Y3693D01*
X26593Y3667D01*
Y3447D01*
X26598Y3421D01*
X26613Y3399D01*
X26635Y3384D01*
X26661Y3379D01*
X26882D01*
X26908Y3384D01*
X26930Y3399D01*
X26945Y3421D01*
X26950Y3447D01*
Y3622D01*
X27103Y3775D01*
X27126Y3771D01*
X27180Y3782D01*
X27225Y3812D01*
X27256Y3858D01*
X27266Y3911D01*
X27256Y3965D01*
X27225Y4011D01*
X27180Y4041D01*
X27126Y4052D01*
D02*
G37*
G36*
X26417D02*
X26364Y4041D01*
X26318Y4011D01*
X26288Y3965D01*
X26277Y3911D01*
X26281Y3889D01*
X26128Y3736D01*
X25953D01*
X25927Y3730D01*
X25905Y3716D01*
X25890Y3693D01*
X25885Y3667D01*
Y3447D01*
X25890Y3421D01*
X25905Y3399D01*
X25927Y3384D01*
X25953Y3379D01*
X26173D01*
X26199Y3384D01*
X26221Y3399D01*
X26236Y3421D01*
X26241Y3447D01*
Y3622D01*
X26395Y3775D01*
X26417Y3771D01*
X26471Y3782D01*
X26517Y3812D01*
X26547Y3858D01*
X26558Y3911D01*
X26547Y3965D01*
X26517Y4011D01*
X26471Y4041D01*
X26417Y4052D01*
D02*
G37*
G36*
X21457D02*
X21403Y4041D01*
X21357Y4011D01*
X21327Y3965D01*
X21316Y3911D01*
X21321Y3889D01*
X21167Y3736D01*
X20992D01*
X20966Y3730D01*
X20944Y3716D01*
X20929Y3693D01*
X20924Y3667D01*
Y3447D01*
X20929Y3421D01*
X20944Y3399D01*
X20966Y3384D01*
X20992Y3379D01*
X21213D01*
X21239Y3384D01*
X21261Y3399D01*
X21276Y3421D01*
X21281Y3447D01*
Y3622D01*
X21434Y3775D01*
X21457Y3771D01*
X21510Y3782D01*
X21556Y3812D01*
X21586Y3858D01*
X21597Y3911D01*
X21586Y3965D01*
X21556Y4011D01*
X21510Y4041D01*
X21457Y4052D01*
D02*
G37*
G36*
X20748D02*
X20694Y4041D01*
X20649Y4011D01*
X20618Y3965D01*
X20608Y3911D01*
X20612Y3889D01*
X20459Y3736D01*
X20283D01*
X20257Y3730D01*
X20235Y3716D01*
X20220Y3693D01*
X20215Y3667D01*
Y3447D01*
X20220Y3421D01*
X20235Y3399D01*
X20257Y3384D01*
X20283Y3379D01*
X20504D01*
X20530Y3384D01*
X20552Y3399D01*
X20567Y3421D01*
X20572Y3447D01*
Y3622D01*
X20726Y3775D01*
X20748Y3771D01*
X20802Y3782D01*
X20847Y3812D01*
X20878Y3858D01*
X20889Y3911D01*
X20878Y3965D01*
X20847Y4011D01*
X20802Y4041D01*
X20748Y4052D01*
D02*
G37*
G36*
X20039D02*
X19986Y4041D01*
X19940Y4011D01*
X19910Y3965D01*
X19899Y3911D01*
X19903Y3889D01*
X19750Y3736D01*
X19575D01*
X19549Y3730D01*
X19527Y3716D01*
X19512Y3693D01*
X19507Y3667D01*
Y3447D01*
X19512Y3421D01*
X19527Y3399D01*
X19549Y3384D01*
X19575Y3379D01*
X19795D01*
X19821Y3384D01*
X19844Y3399D01*
X19858Y3421D01*
X19864Y3447D01*
Y3622D01*
X20017Y3775D01*
X20039Y3771D01*
X20093Y3782D01*
X20139Y3812D01*
X20169Y3858D01*
X20180Y3911D01*
X20169Y3965D01*
X20139Y4011D01*
X20093Y4041D01*
X20039Y4052D01*
D02*
G37*
G36*
X19331D02*
X19277Y4041D01*
X19231Y4011D01*
X19201Y3965D01*
X19190Y3911D01*
X19195Y3889D01*
X19041Y3736D01*
X18866D01*
X18840Y3730D01*
X18818Y3716D01*
X18803Y3693D01*
X18798Y3667D01*
Y3447D01*
X18803Y3421D01*
X18818Y3399D01*
X18840Y3384D01*
X18866Y3379D01*
X19087D01*
X19113Y3384D01*
X19135Y3399D01*
X19150Y3421D01*
X19155Y3447D01*
Y3622D01*
X19308Y3775D01*
X19331Y3771D01*
X19384Y3782D01*
X19430Y3812D01*
X19461Y3858D01*
X19471Y3911D01*
X19461Y3965D01*
X19430Y4011D01*
X19384Y4041D01*
X19331Y4052D01*
D02*
G37*
G36*
X30895Y4948D02*
X30659D01*
Y4712D01*
X30686D01*
Y4572D01*
X30623D01*
Y4288D01*
X30686D01*
Y4178D01*
X30623D01*
Y3894D01*
X30686D01*
Y3784D01*
X30623D01*
Y3501D01*
X30887D01*
Y3784D01*
X30846D01*
Y3894D01*
X30887D01*
Y4178D01*
X30846D01*
Y4288D01*
X30887D01*
Y4572D01*
X30846D01*
Y4712D01*
X30895D01*
Y4948D01*
D02*
G37*
G36*
X30217D02*
X29981D01*
Y4712D01*
X30008D01*
Y4572D01*
X29946D01*
Y4288D01*
X30008D01*
Y4178D01*
X29946D01*
Y3894D01*
X30008D01*
Y3784D01*
X29946D01*
Y3501D01*
X30209D01*
Y3784D01*
X30169D01*
Y3894D01*
X30209D01*
Y4178D01*
X30169D01*
Y4288D01*
X30209D01*
Y4572D01*
X30169D01*
Y4712D01*
X30217D01*
Y4948D01*
D02*
G37*
G36*
X10144Y3488D02*
X10051D01*
Y3386D01*
X10144D01*
Y3488D01*
D02*
G37*
G36*
X9972D02*
X9880D01*
Y3386D01*
X9972D01*
Y3488D01*
D02*
G37*
G36*
X25465Y3736D02*
X25244D01*
X25218Y3730D01*
X25196Y3716D01*
X25181Y3693D01*
X25176Y3667D01*
Y3447D01*
X25181Y3421D01*
X25196Y3399D01*
X25218Y3384D01*
X25244Y3379D01*
X25465D01*
X25491Y3384D01*
X25513Y3399D01*
X25528Y3421D01*
X25533Y3447D01*
Y3667D01*
X25528Y3693D01*
X25513Y3716D01*
X25491Y3730D01*
X25465Y3736D01*
D02*
G37*
G36*
X24756D02*
X24535D01*
X24509Y3730D01*
X24487Y3716D01*
X24472Y3693D01*
X24467Y3667D01*
Y3447D01*
X24472Y3421D01*
X24487Y3399D01*
X24509Y3384D01*
X24535Y3379D01*
X24756D01*
X24782Y3384D01*
X24804Y3399D01*
X24819Y3421D01*
X24824Y3447D01*
Y3667D01*
X24819Y3693D01*
X24804Y3716D01*
X24782Y3730D01*
X24756Y3736D01*
D02*
G37*
G36*
X24047D02*
X23827D01*
X23801Y3730D01*
X23779Y3716D01*
X23764Y3693D01*
X23759Y3667D01*
Y3447D01*
X23764Y3421D01*
X23779Y3399D01*
X23801Y3384D01*
X23827Y3379D01*
X24047D01*
X24073Y3384D01*
X24095Y3399D01*
X24110Y3421D01*
X24115Y3447D01*
Y3667D01*
X24110Y3693D01*
X24095Y3716D01*
X24073Y3730D01*
X24047Y3736D01*
D02*
G37*
G36*
X23339D02*
X23118D01*
X23092Y3730D01*
X23070Y3716D01*
X23055Y3693D01*
X23050Y3667D01*
Y3447D01*
X23055Y3421D01*
X23070Y3399D01*
X23092Y3384D01*
X23118Y3379D01*
X23339D01*
X23365Y3384D01*
X23387Y3399D01*
X23402Y3421D01*
X23407Y3447D01*
Y3667D01*
X23402Y3693D01*
X23387Y3716D01*
X23365Y3730D01*
X23339Y3736D01*
D02*
G37*
G36*
X22630D02*
X22409D01*
X22383Y3730D01*
X22361Y3716D01*
X22346Y3693D01*
X22341Y3667D01*
Y3447D01*
X22346Y3421D01*
X22361Y3399D01*
X22383Y3384D01*
X22409Y3379D01*
X22630D01*
X22656Y3384D01*
X22678Y3399D01*
X22693Y3421D01*
X22698Y3447D01*
Y3667D01*
X22693Y3693D01*
X22678Y3716D01*
X22656Y3730D01*
X22630Y3736D01*
D02*
G37*
G36*
X21921D02*
X21701D01*
X21675Y3730D01*
X21653Y3716D01*
X21638Y3693D01*
X21633Y3667D01*
Y3447D01*
X21638Y3421D01*
X21653Y3399D01*
X21675Y3384D01*
X21701Y3379D01*
X21921D01*
X21947Y3384D01*
X21970Y3399D01*
X21984Y3421D01*
X21990Y3447D01*
Y3667D01*
X21984Y3693D01*
X21970Y3716D01*
X21947Y3730D01*
X21921Y3736D01*
D02*
G37*
G36*
X10144Y3307D02*
X10051D01*
Y3205D01*
X10144D01*
Y3307D01*
D02*
G37*
G36*
X9972D02*
X9880D01*
Y3205D01*
X9972D01*
Y3307D01*
D02*
G37*
G36*
X31226Y3784D02*
X30962D01*
Y3501D01*
X31013D01*
Y3381D01*
X30994Y3368D01*
X30964Y3322D01*
X30953Y3268D01*
X30964Y3215D01*
X30994Y3169D01*
X31040Y3139D01*
X31094Y3128D01*
X31147Y3139D01*
X31193Y3169D01*
X31223Y3215D01*
X31234Y3268D01*
X31223Y3322D01*
X31193Y3368D01*
X31174Y3381D01*
Y3501D01*
X31226D01*
Y3784D01*
D02*
G37*
G36*
X30548D02*
X30284D01*
Y3501D01*
X30336D01*
Y3380D01*
X30317Y3367D01*
X30286Y3321D01*
X30276Y3268D01*
X30286Y3214D01*
X30317Y3168D01*
X30362Y3138D01*
X30416Y3127D01*
X30470Y3138D01*
X30515Y3168D01*
X30546Y3214D01*
X30557Y3268D01*
X30546Y3321D01*
X30515Y3367D01*
X30496Y3380D01*
Y3501D01*
X30548D01*
Y3784D01*
D02*
G37*
G36*
X5591Y3898D02*
X5295D01*
X5000D01*
Y3861D01*
X4683D01*
X4637Y3851D01*
X4598Y3825D01*
X4598Y3825D01*
X4475Y3703D01*
X3228D01*
Y3238D01*
X4646D01*
Y3532D01*
X4733Y3620D01*
X5000D01*
Y3455D01*
X5096D01*
Y3092D01*
X4880Y2876D01*
X4005D01*
X3991Y2886D01*
X3937Y2896D01*
X3883Y2886D01*
X3869Y2876D01*
X2795D01*
Y2992D01*
X1929D01*
Y2520D01*
X2795D01*
Y2635D01*
X3869D01*
X3883Y2626D01*
X3937Y2615D01*
X3942Y2616D01*
X3992Y2596D01*
Y2596D01*
X4276D01*
Y2635D01*
X4386D01*
Y2596D01*
X4669D01*
Y2635D01*
X4930D01*
X4930Y2635D01*
X4976Y2645D01*
X5015Y2671D01*
X5302Y2957D01*
X5302Y2957D01*
X5328Y2996D01*
X5337Y3043D01*
Y3455D01*
X5433D01*
Y3632D01*
X5452Y3674D01*
X5466Y3694D01*
X5475Y3740D01*
X5466Y3786D01*
X5457Y3798D01*
X5484Y3848D01*
X5591D01*
Y3898D01*
D02*
G37*
G36*
X827Y2992D02*
X433D01*
Y2795D01*
X827D01*
Y2992D01*
D02*
G37*
G36*
X354D02*
X-39D01*
Y2795D01*
X354D01*
Y2992D01*
D02*
G37*
G36*
X5671Y2870D02*
X5579D01*
Y2768D01*
X5671D01*
Y2870D01*
D02*
G37*
G36*
X5500D02*
X5407D01*
Y2768D01*
X5500D01*
Y2870D01*
D02*
G37*
G36*
X28587Y2781D02*
X28484D01*
Y2689D01*
X28587D01*
Y2781D01*
D02*
G37*
G36*
X28406D02*
X28303D01*
Y2689D01*
X28406D01*
Y2781D01*
D02*
G37*
G36*
X28193D02*
X28091D01*
Y2689D01*
X28193D01*
Y2781D01*
D02*
G37*
G36*
X28012D02*
X27909D01*
Y2689D01*
X28012D01*
Y2781D01*
D02*
G37*
G36*
X27799D02*
X27697D01*
Y2689D01*
X27799D01*
Y2781D01*
D02*
G37*
G36*
X27618D02*
X27516D01*
Y2689D01*
X27618D01*
Y2781D01*
D02*
G37*
G36*
X27406D02*
X27303D01*
Y2689D01*
X27406D01*
Y2781D01*
D02*
G37*
G36*
X27224D02*
X27122D01*
Y2689D01*
X27224D01*
Y2781D01*
D02*
G37*
G36*
X23665D02*
X23563D01*
Y2689D01*
X23665D01*
Y2781D01*
D02*
G37*
G36*
X23484D02*
X23382D01*
Y2689D01*
X23484D01*
Y2781D01*
D02*
G37*
G36*
X23272D02*
X23169D01*
Y2689D01*
X23272D01*
Y2781D01*
D02*
G37*
G36*
X23091D02*
X22988D01*
Y2689D01*
X23091D01*
Y2781D01*
D02*
G37*
G36*
X22878D02*
X22776D01*
Y2689D01*
X22878D01*
Y2781D01*
D02*
G37*
G36*
X22697D02*
X22594D01*
Y2689D01*
X22697D01*
Y2781D01*
D02*
G37*
G36*
X18547D02*
X18445D01*
Y2689D01*
X18547D01*
Y2781D01*
D02*
G37*
G36*
X18366D02*
X18264D01*
Y2689D01*
X18366D01*
Y2781D01*
D02*
G37*
G36*
X18154D02*
X18051D01*
Y2689D01*
X18154D01*
Y2781D01*
D02*
G37*
G36*
X17972D02*
X17870D01*
Y2689D01*
X17972D01*
Y2781D01*
D02*
G37*
G36*
X5671Y2689D02*
X5579D01*
Y2587D01*
X5671D01*
Y2689D01*
D02*
G37*
G36*
X5500D02*
X5407D01*
Y2587D01*
X5500D01*
Y2689D01*
D02*
G37*
G36*
X827Y2717D02*
X433D01*
Y2520D01*
X827D01*
Y2717D01*
D02*
G37*
G36*
X354D02*
X-39D01*
Y2520D01*
X354D01*
Y2717D01*
D02*
G37*
G36*
X28587Y2610D02*
X28484D01*
Y2518D01*
X28587D01*
Y2610D01*
D02*
G37*
G36*
X28406D02*
X28303D01*
Y2518D01*
X28406D01*
Y2610D01*
D02*
G37*
G36*
X28193D02*
X28091D01*
Y2518D01*
X28193D01*
Y2610D01*
D02*
G37*
G36*
X28012D02*
X27909D01*
Y2518D01*
X28012D01*
Y2610D01*
D02*
G37*
G36*
X27799D02*
X27697D01*
Y2518D01*
X27799D01*
Y2610D01*
D02*
G37*
G36*
X27618D02*
X27516D01*
Y2518D01*
X27618D01*
Y2610D01*
D02*
G37*
G36*
X27406D02*
X27303D01*
Y2518D01*
X27406D01*
Y2610D01*
D02*
G37*
G36*
X27224D02*
X27122D01*
Y2518D01*
X27224D01*
Y2610D01*
D02*
G37*
G36*
X23665D02*
X23563D01*
Y2518D01*
X23665D01*
Y2610D01*
D02*
G37*
G36*
X23484D02*
X23382D01*
Y2518D01*
X23484D01*
Y2610D01*
D02*
G37*
G36*
X23272D02*
X23169D01*
Y2518D01*
X23272D01*
Y2610D01*
D02*
G37*
G36*
X23091D02*
X22988D01*
Y2518D01*
X23091D01*
Y2610D01*
D02*
G37*
G36*
X22878D02*
X22776D01*
Y2518D01*
X22878D01*
Y2610D01*
D02*
G37*
G36*
X22697D02*
X22594D01*
Y2518D01*
X22697D01*
Y2610D01*
D02*
G37*
G36*
X18547D02*
X18445D01*
Y2518D01*
X18547D01*
Y2610D01*
D02*
G37*
G36*
X18366D02*
X18264D01*
Y2518D01*
X18366D01*
Y2610D01*
D02*
G37*
G36*
X18154D02*
X18051D01*
Y2518D01*
X18154D01*
Y2610D01*
D02*
G37*
G36*
X17972D02*
X17870D01*
Y2518D01*
X17972D01*
Y2610D01*
D02*
G37*
G36*
X4276Y2522D02*
X4173D01*
Y2429D01*
X4276D01*
Y2522D01*
D02*
G37*
G36*
X5671Y2531D02*
X5579D01*
Y2429D01*
X5671D01*
Y2531D01*
D02*
G37*
G36*
X4669Y2522D02*
X4567D01*
Y2429D01*
X4669D01*
Y2522D01*
D02*
G37*
G36*
X4488D02*
X4386D01*
Y2429D01*
X4488D01*
Y2522D01*
D02*
G37*
G36*
X5500Y2531D02*
X5407D01*
Y2429D01*
X5500D01*
Y2531D01*
D02*
G37*
G36*
X4094Y2522D02*
X3992D01*
Y2429D01*
X4094D01*
Y2522D01*
D02*
G37*
G36*
X4669Y2350D02*
X4567D01*
Y2258D01*
X4669D01*
Y2350D01*
D02*
G37*
G36*
X4488D02*
X4386D01*
Y2258D01*
X4488D01*
Y2350D01*
D02*
G37*
G36*
X4276D02*
X4173D01*
Y2258D01*
X4276D01*
Y2350D01*
D02*
G37*
G36*
X4094D02*
X3992D01*
Y2258D01*
X4094D01*
Y2350D01*
D02*
G37*
G36*
X6024Y3701D02*
X5866D01*
X5709D01*
Y3652D01*
X5709Y3602D01*
Y3455D01*
X5798D01*
Y3243D01*
X5779Y3230D01*
X5748Y3185D01*
X5737Y3131D01*
X5748Y3077D01*
X5779Y3032D01*
X5798Y3019D01*
Y2870D01*
X5746D01*
Y2587D01*
X5798D01*
Y2531D01*
X5746D01*
Y2248D01*
X6010D01*
Y2531D01*
X5958D01*
Y2587D01*
X6010D01*
Y2870D01*
X5958D01*
Y3019D01*
X5977Y3032D01*
X6008Y3077D01*
X6018Y3131D01*
X6008Y3185D01*
X5977Y3230D01*
X5958Y3243D01*
Y3455D01*
X6024D01*
Y3602D01*
X6024Y3632D01*
X6024Y3682D01*
Y3701D01*
D02*
G37*
G36*
X5671Y2350D02*
X5579D01*
Y2248D01*
X5671D01*
Y2350D01*
D02*
G37*
G36*
X5500D02*
X5407D01*
Y2248D01*
X5500D01*
Y2350D01*
D02*
G37*
G36*
X24059Y2443D02*
X23776D01*
Y2293D01*
X23712Y2229D01*
X23665Y2248D01*
Y2443D01*
X23382D01*
Y2293D01*
X23324Y2234D01*
X23322Y2234D01*
X23272Y2274D01*
Y2443D01*
X22988D01*
Y2293D01*
X22958Y2262D01*
X22941Y2236D01*
X22890Y2239D01*
X22878Y2246D01*
Y2443D01*
X22594D01*
Y2179D01*
X22594Y2179D01*
X22602Y2129D01*
X22596Y2096D01*
X22606Y2043D01*
X22637Y1997D01*
X22648Y1990D01*
Y1703D01*
X22794D01*
X22825Y1703D01*
Y1703D01*
X22844D01*
Y1703D01*
X22991D01*
X23022Y1703D01*
Y1703D01*
X23041D01*
Y1703D01*
X23219D01*
X23219Y1703D01*
X23238D01*
Y1703D01*
X23268Y1703D01*
X23385D01*
X23415Y1703D01*
Y1703D01*
X23435D01*
Y1703D01*
X23484D01*
Y1860D01*
X23563D01*
Y1703D01*
X23612D01*
Y1703D01*
X23632D01*
Y1703D01*
X23809D01*
Y2018D01*
X23801D01*
Y2091D01*
X23889Y2179D01*
X24059D01*
Y2443D01*
D02*
G37*
G36*
X18547D02*
X18264D01*
Y2234D01*
X18235Y2228D01*
X18204Y2207D01*
X18158Y2226D01*
X18154Y2229D01*
Y2443D01*
X17870D01*
Y2179D01*
X17870Y2179D01*
X17878Y2129D01*
X17873Y2100D01*
X17883Y2046D01*
X17914Y2000D01*
X17923Y1994D01*
Y1703D01*
X18070D01*
X18100Y1703D01*
Y1703D01*
X18120D01*
Y1703D01*
X18267D01*
X18297Y1703D01*
Y1703D01*
X18317D01*
Y1703D01*
X18464D01*
X18494Y1703D01*
X18544Y1703D01*
X18691Y1703D01*
X18741Y1703D01*
X18760D01*
Y1860D01*
Y2018D01*
X18711D01*
X18661Y2018D01*
X18514Y2018D01*
X18456Y2018D01*
X18423Y2068D01*
X18429Y2098D01*
X18426Y2112D01*
X18433Y2122D01*
X18439Y2153D01*
Y2179D01*
X18547D01*
Y2443D01*
D02*
G37*
G36*
X14474Y2307D02*
X14382D01*
Y2205D01*
X14474D01*
Y2307D01*
D02*
G37*
G36*
X14303D02*
X14211D01*
Y2205D01*
X14303D01*
Y2307D01*
D02*
G37*
G36*
X28980Y2781D02*
X28697D01*
Y2518D01*
X28980D01*
Y2569D01*
X29384D01*
X29617Y2337D01*
Y2012D01*
X29565D01*
Y1825D01*
X29563Y1817D01*
Y1816D01*
X29540Y1798D01*
X29490Y1821D01*
Y2012D01*
X29226D01*
Y1950D01*
X28533D01*
Y2018D01*
X28407D01*
X28379Y2063D01*
X28379Y2068D01*
X28389Y2118D01*
X28383Y2146D01*
X28417Y2179D01*
X28587D01*
Y2231D01*
X28697D01*
Y2179D01*
X28980D01*
Y2443D01*
X28697D01*
Y2391D01*
X28587D01*
Y2443D01*
X28303D01*
Y2293D01*
X28266Y2255D01*
X28248Y2259D01*
X28243Y2258D01*
X28193Y2299D01*
Y2443D01*
X27909D01*
Y2293D01*
X27879Y2262D01*
X27862Y2236D01*
X27815Y2249D01*
X27799Y2257D01*
Y2443D01*
X27516D01*
Y2179D01*
X27516Y2179D01*
X27523Y2129D01*
X27517Y2096D01*
X27522Y2072D01*
X27492Y2030D01*
X27468Y2028D01*
X27450Y2030D01*
X27421Y2071D01*
X27426Y2096D01*
X27415Y2150D01*
X27406Y2179D01*
X27406Y2179D01*
X27406Y2179D01*
Y2443D01*
X27122D01*
Y2179D01*
X27122D01*
X27152Y2129D01*
X27145Y2096D01*
X27156Y2043D01*
X27186Y1997D01*
X27232Y1967D01*
X27243Y1964D01*
X27325Y1882D01*
X27325Y1882D01*
X27351Y1865D01*
X27372Y1861D01*
Y1703D01*
X27549D01*
X27549Y1703D01*
X27569D01*
Y1703D01*
X27599Y1703D01*
X27716D01*
X27746Y1703D01*
Y1703D01*
X27766D01*
Y1703D01*
X27913D01*
X27943Y1703D01*
Y1703D01*
X27963D01*
Y1703D01*
X28109D01*
X28140Y1703D01*
Y1703D01*
X28159D01*
Y1703D01*
X28209D01*
Y1860D01*
X28287D01*
Y1703D01*
X28306D01*
X28337Y1703D01*
X28387Y1703D01*
X28533D01*
Y1790D01*
X29226D01*
Y1728D01*
X29422D01*
X29441Y1682D01*
X29377Y1618D01*
X29226D01*
Y1480D01*
X29169D01*
X29156Y1499D01*
X29111Y1530D01*
X29057Y1540D01*
X29003Y1530D01*
X28958Y1499D01*
X28945Y1480D01*
X28888D01*
X28888Y1481D01*
Y1565D01*
X28573D01*
Y1388D01*
X28754D01*
X28798Y1343D01*
X28798Y1343D01*
X28824Y1326D01*
X28855Y1320D01*
X28855Y1320D01*
X28945D01*
X28958Y1301D01*
X29003Y1270D01*
X29057Y1260D01*
X29111Y1270D01*
X29156Y1301D01*
X29169Y1320D01*
X29259D01*
X29278Y1304D01*
Y1224D01*
X29226D01*
Y941D01*
X29490D01*
Y1224D01*
X29439D01*
Y1335D01*
X29490D01*
Y1496D01*
X29516Y1517D01*
X29565Y1496D01*
Y1335D01*
X29657D01*
Y1476D01*
Y1646D01*
X29650Y1664D01*
X29700Y1715D01*
X29709Y1728D01*
X29829D01*
Y2012D01*
X29777D01*
Y2370D01*
X29777Y2370D01*
X29771Y2401D01*
X29754Y2427D01*
X29474Y2706D01*
X29448Y2724D01*
X29417Y2730D01*
X28980D01*
Y2781D01*
D02*
G37*
G36*
X11953Y2270D02*
X11850D01*
Y2177D01*
X11953D01*
Y2270D01*
D02*
G37*
G36*
X11772D02*
X11669D01*
Y2177D01*
X11772D01*
Y2270D01*
D02*
G37*
G36*
X11559D02*
X11457D01*
Y2177D01*
X11559D01*
Y2270D01*
D02*
G37*
G36*
X11378D02*
X11276D01*
Y2177D01*
X11378D01*
Y2270D01*
D02*
G37*
G36*
X14474Y2126D02*
X14382D01*
Y2024D01*
X14474D01*
Y2126D01*
D02*
G37*
G36*
X14303D02*
X14211D01*
Y2024D01*
X14303D01*
Y2126D01*
D02*
G37*
G36*
X18907Y2018D02*
X18857Y2018D01*
X18839D01*
Y1860D01*
Y1703D01*
X18888D01*
X18938Y1703D01*
X19085D01*
Y1790D01*
X19778D01*
Y1728D01*
X19973D01*
X19992Y1682D01*
X19928Y1618D01*
X19778D01*
Y1557D01*
X19708D01*
X19695Y1576D01*
X19649Y1606D01*
X19595Y1617D01*
X19542Y1606D01*
X19496Y1576D01*
X19489Y1565D01*
X19439Y1565D01*
Y1565D01*
X19124D01*
Y1388D01*
X19439D01*
Y1388D01*
X19489Y1388D01*
X19496Y1377D01*
X19542Y1347D01*
X19595Y1336D01*
X19649Y1347D01*
X19695Y1377D01*
X19708Y1396D01*
X19778D01*
Y1335D01*
X19829D01*
Y1224D01*
X19778D01*
Y941D01*
X20041D01*
Y1224D01*
X19990D01*
Y1335D01*
X20041D01*
Y1496D01*
X20067Y1517D01*
X20116Y1496D01*
Y1335D01*
X20209D01*
Y1476D01*
Y1646D01*
X20201Y1664D01*
X20252Y1715D01*
X20261Y1728D01*
X20380D01*
Y2012D01*
X20116D01*
Y1825D01*
X20115Y1817D01*
Y1816D01*
X20091Y1798D01*
X20041Y1821D01*
Y2012D01*
X19778D01*
Y1950D01*
X19085D01*
Y2018D01*
X18938D01*
X18907Y2018D01*
D02*
G37*
G36*
X11953Y2098D02*
X11850D01*
Y2006D01*
X11953D01*
Y2098D01*
D02*
G37*
G36*
X11772D02*
X11669D01*
Y2006D01*
X11772D01*
Y2098D01*
D02*
G37*
G36*
X11559D02*
X11457D01*
Y2006D01*
X11559D01*
Y2098D01*
D02*
G37*
G36*
X11378D02*
X11276D01*
Y2006D01*
X11378D01*
Y2098D01*
D02*
G37*
G36*
X25104Y2012D02*
X25012D01*
Y1909D01*
X25104D01*
Y2012D01*
D02*
G37*
G36*
X24933D02*
X24841D01*
Y1909D01*
X24933D01*
Y2012D01*
D02*
G37*
G36*
X14474Y1913D02*
X14382D01*
Y1811D01*
X14474D01*
Y1913D01*
D02*
G37*
G36*
X14303D02*
X14211D01*
Y1811D01*
X14303D01*
Y1913D01*
D02*
G37*
G36*
X25104Y1831D02*
X25012D01*
Y1728D01*
X25104D01*
Y1831D01*
D02*
G37*
G36*
X24933D02*
X24841D01*
Y1728D01*
X24933D01*
Y1831D01*
D02*
G37*
G36*
X14474Y1732D02*
X14382D01*
Y1630D01*
X14474D01*
Y1732D01*
D02*
G37*
G36*
X14303D02*
X14211D01*
Y1630D01*
X14303D01*
Y1732D01*
D02*
G37*
G36*
X24059Y2781D02*
X23776D01*
Y2518D01*
X24059D01*
Y2569D01*
X24325D01*
X24554Y2341D01*
Y2012D01*
X24502D01*
Y1728D01*
X24554D01*
Y1618D01*
X24502D01*
Y1557D01*
X24432D01*
X24419Y1576D01*
X24374Y1606D01*
X24320Y1617D01*
X24266Y1606D01*
X24221Y1576D01*
X24213Y1565D01*
X24163Y1565D01*
Y1565D01*
X23848D01*
Y1388D01*
X24163D01*
Y1388D01*
X24213Y1388D01*
X24221Y1377D01*
X24266Y1347D01*
X24320Y1336D01*
X24374Y1347D01*
X24419Y1377D01*
X24432Y1396D01*
X24502D01*
Y1335D01*
X24766D01*
Y1618D01*
X24714D01*
Y1728D01*
X24766D01*
Y2012D01*
X24714D01*
Y2374D01*
X24714Y2374D01*
X24708Y2405D01*
X24691Y2431D01*
X24691Y2431D01*
X24415Y2706D01*
X24389Y2724D01*
X24358Y2730D01*
X24059D01*
Y2781D01*
D02*
G37*
G36*
X20380Y1618D02*
X20287D01*
Y1516D01*
X20380D01*
Y1618D01*
D02*
G37*
G36*
X22608Y1565D02*
X22490D01*
Y1516D01*
X22608D01*
Y1565D01*
D02*
G37*
G36*
X17884D02*
X17766D01*
Y1516D01*
X17884D01*
Y1565D01*
D02*
G37*
G36*
X27333D02*
X27215D01*
Y1516D01*
X27333D01*
Y1565D01*
D02*
G37*
G36*
X27136D02*
X27018D01*
Y1516D01*
X27136D01*
Y1565D01*
D02*
G37*
G36*
X17687D02*
X17569D01*
Y1516D01*
X17687D01*
Y1565D01*
D02*
G37*
G36*
X22411D02*
X22293D01*
Y1516D01*
X22411D01*
Y1565D01*
D02*
G37*
G36*
X25104Y1618D02*
X25012D01*
Y1516D01*
X25104D01*
Y1618D01*
D02*
G37*
G36*
X24933D02*
X24841D01*
Y1516D01*
X24933D01*
Y1618D01*
D02*
G37*
G36*
X29829D02*
X29736D01*
Y1516D01*
X29829D01*
Y1618D01*
D02*
G37*
G36*
X27333Y1437D02*
X27215D01*
Y1388D01*
X27333D01*
Y1437D01*
D02*
G37*
G36*
X27136D02*
X27018D01*
Y1388D01*
X27136D01*
Y1437D01*
D02*
G37*
G36*
X22608D02*
X22490D01*
Y1388D01*
X22608D01*
Y1437D01*
D02*
G37*
G36*
X22411D02*
X22293D01*
Y1388D01*
X22411D01*
Y1437D01*
D02*
G37*
G36*
X17884D02*
X17766D01*
Y1388D01*
X17884D01*
Y1437D01*
D02*
G37*
G36*
X17687D02*
X17569D01*
Y1388D01*
X17687D01*
Y1437D01*
D02*
G37*
G36*
X29829Y1437D02*
X29736D01*
Y1335D01*
X29829D01*
Y1437D01*
D02*
G37*
G36*
X25104Y1437D02*
X25012D01*
Y1335D01*
X25104D01*
Y1437D01*
D02*
G37*
G36*
X24933D02*
X24841D01*
Y1335D01*
X24933D01*
Y1437D01*
D02*
G37*
G36*
X20380Y1437D02*
X20287D01*
Y1335D01*
X20380D01*
Y1437D01*
D02*
G37*
G36*
X28494Y1624D02*
X27992D01*
Y1220D01*
X28494D01*
Y1624D01*
D02*
G37*
G36*
X19045D02*
X18543D01*
Y1220D01*
X19045D01*
Y1624D01*
D02*
G37*
G36*
X23770D02*
X23268D01*
Y1220D01*
X23770D01*
Y1624D01*
D02*
G37*
G36*
X23189D02*
X22687D01*
Y1220D01*
X23189D01*
Y1624D01*
D02*
G37*
G36*
X18465D02*
X17963D01*
Y1220D01*
X18465D01*
Y1624D01*
D02*
G37*
G36*
X27913D02*
X27411D01*
Y1220D01*
X27913D01*
Y1624D01*
D02*
G37*
G36*
X20380Y1224D02*
X20287D01*
Y1122D01*
X20380D01*
Y1224D01*
D02*
G37*
G36*
X20209D02*
X20116D01*
Y1122D01*
X20209D01*
Y1224D01*
D02*
G37*
G36*
X25104D02*
X25012D01*
Y1122D01*
X25104D01*
Y1224D01*
D02*
G37*
G36*
X24933D02*
X24841D01*
Y1122D01*
X24933D01*
Y1224D01*
D02*
G37*
G36*
X29829D02*
X29736D01*
Y1122D01*
X29829D01*
Y1224D01*
D02*
G37*
G36*
X29657D02*
X29565D01*
Y1122D01*
X29657D01*
Y1224D01*
D02*
G37*
G36*
X24766D02*
X24502D01*
Y1163D01*
X24433D01*
X24402Y1157D01*
X24376Y1139D01*
X24376Y1139D01*
X24357Y1121D01*
X24320Y1128D01*
X24266Y1117D01*
X24221Y1087D01*
X24190Y1041D01*
X24185Y1015D01*
X24169Y985D01*
X24131Y974D01*
X23848D01*
Y797D01*
X24163D01*
Y812D01*
X24242D01*
X24273Y818D01*
X24299Y835D01*
X24312Y848D01*
X24320Y847D01*
X24374Y858D01*
X24419Y888D01*
X24450Y934D01*
X24452Y945D01*
X24502Y941D01*
Y941D01*
X24766D01*
Y1224D01*
D02*
G37*
G36*
X29829Y1043D02*
X29736D01*
Y941D01*
X29829D01*
Y1043D01*
D02*
G37*
G36*
X29657D02*
X29565D01*
Y941D01*
X29657D01*
Y1043D01*
D02*
G37*
G36*
X25104Y1043D02*
X25012D01*
Y941D01*
X25104D01*
Y1043D01*
D02*
G37*
G36*
X24933D02*
X24841D01*
Y941D01*
X24933D01*
Y1043D01*
D02*
G37*
G36*
X20380Y1043D02*
X20287D01*
Y941D01*
X20380D01*
Y1043D01*
D02*
G37*
G36*
X20209D02*
X20116D01*
Y941D01*
X20209D01*
Y1043D01*
D02*
G37*
G36*
X22608Y974D02*
X22490D01*
Y925D01*
X22608D01*
Y974D01*
D02*
G37*
G36*
X17884D02*
X17766D01*
Y925D01*
X17884D01*
Y974D01*
D02*
G37*
G36*
X27333D02*
X27215D01*
Y925D01*
X27333D01*
Y974D01*
D02*
G37*
G36*
X27136D02*
X27018D01*
Y925D01*
X27136D01*
Y974D01*
D02*
G37*
G36*
X17687D02*
X17569D01*
Y925D01*
X17687D01*
Y974D01*
D02*
G37*
G36*
X22411D02*
X22293D01*
Y925D01*
X22411D01*
Y974D01*
D02*
G37*
G36*
X27333Y846D02*
X27215D01*
Y797D01*
X27333D01*
Y846D01*
D02*
G37*
G36*
X27136D02*
X27018D01*
Y797D01*
X27136D01*
Y846D01*
D02*
G37*
G36*
X22608D02*
X22490D01*
Y797D01*
X22608D01*
Y846D01*
D02*
G37*
G36*
X22411D02*
X22293D01*
Y797D01*
X22411D01*
Y846D01*
D02*
G37*
G36*
X17884D02*
X17766D01*
Y797D01*
X17884D01*
Y846D01*
D02*
G37*
G36*
X17687D02*
X17569D01*
Y797D01*
X17687D01*
Y846D01*
D02*
G37*
G36*
X28494Y1142D02*
X27992D01*
Y738D01*
X28494D01*
Y1142D01*
D02*
G37*
G36*
X27913D02*
X27411D01*
Y738D01*
X27913D01*
Y1142D01*
D02*
G37*
G36*
X23770D02*
X23268D01*
Y738D01*
X23770D01*
Y1142D01*
D02*
G37*
G36*
X23189D02*
X22687D01*
Y738D01*
X23189D01*
Y1142D01*
D02*
G37*
G36*
X19045D02*
X18543D01*
Y738D01*
X19045D01*
Y1142D01*
D02*
G37*
G36*
X18465D02*
X17963D01*
Y738D01*
X18465D01*
Y1142D01*
D02*
G37*
G36*
X20380Y831D02*
X20287D01*
Y728D01*
X20380D01*
Y831D01*
D02*
G37*
G36*
X20209D02*
X20116D01*
Y728D01*
X20209D01*
Y831D01*
D02*
G37*
G36*
X29829D02*
X29736D01*
Y728D01*
X29829D01*
Y831D01*
D02*
G37*
G36*
X29657D02*
X29565D01*
Y728D01*
X29657D01*
Y831D01*
D02*
G37*
G36*
X18888Y659D02*
X18888Y659D01*
X18711Y659D01*
X18661Y659D01*
X18514Y659D01*
X18464Y659D01*
X18317D01*
Y659D01*
X18297D01*
Y659D01*
X18267Y659D01*
X18150D01*
X18120Y659D01*
Y659D01*
X18100D01*
Y659D01*
X17923D01*
Y582D01*
X17815D01*
X17802Y601D01*
X17757Y632D01*
X17703Y642D01*
X17649Y632D01*
X17603Y601D01*
X17573Y556D01*
X17562Y502D01*
X17573Y448D01*
X17603Y403D01*
X17649Y372D01*
X17703Y361D01*
X17757Y372D01*
X17802Y403D01*
X17815Y422D01*
X17923D01*
Y344D01*
X18033D01*
X18072Y294D01*
X18068Y276D01*
X18079Y222D01*
X18109Y176D01*
X18128Y164D01*
Y104D01*
X18067D01*
Y-159D01*
X18350D01*
Y104D01*
X18289D01*
Y164D01*
X18308Y176D01*
X18338Y222D01*
X18349Y276D01*
X18345Y294D01*
X18384Y344D01*
X18494Y344D01*
X18544Y344D01*
X18691Y344D01*
X18741Y344D01*
X18888D01*
Y344D01*
X18907D01*
Y344D01*
X19085D01*
Y422D01*
X19455D01*
X19681Y196D01*
Y-4D01*
X19654Y-45D01*
X19643Y-98D01*
X19654Y-152D01*
X19684Y-198D01*
X19730Y-228D01*
X19783Y-239D01*
X19837Y-228D01*
X19883Y-198D01*
X19913Y-152D01*
X19924Y-98D01*
X19913Y-45D01*
X19883Y1D01*
X19841Y29D01*
Y229D01*
X19835Y260D01*
X19818Y286D01*
X19545Y559D01*
X19519Y576D01*
X19488Y582D01*
X19085D01*
Y659D01*
X18907D01*
Y659D01*
X18888D01*
D02*
G37*
G36*
X27943D02*
Y659D01*
X27766Y659D01*
X27716Y659D01*
X27569D01*
Y659D01*
X27549D01*
Y659D01*
X27372D01*
Y382D01*
X27367Y378D01*
X27313Y367D01*
X27267Y337D01*
X27237Y291D01*
X27226Y237D01*
X27232Y209D01*
X27216Y194D01*
X27199Y168D01*
X27192Y137D01*
Y104D01*
X27122D01*
Y-159D01*
X27406D01*
Y104D01*
X27406Y104D01*
X27420Y107D01*
X27459Y133D01*
X27478Y136D01*
X27511Y131D01*
X27516Y104D01*
X27516D01*
Y-159D01*
X27799D01*
Y104D01*
X27799D01*
X27803Y138D01*
X27831Y143D01*
X27857Y141D01*
X27871Y132D01*
X27909Y104D01*
X27909Y80D01*
Y-159D01*
X28193D01*
Y104D01*
X28112D01*
Y162D01*
X28124Y174D01*
X28158Y192D01*
X28158Y192D01*
X28189Y185D01*
X28300D01*
X28323Y150D01*
X28303Y104D01*
X28303D01*
Y-159D01*
X28587D01*
Y104D01*
X28577D01*
X28577Y105D01*
X28555Y154D01*
X28575Y183D01*
X28585Y237D01*
X28575Y291D01*
X28544Y337D01*
X28533Y344D01*
Y422D01*
X28628D01*
X28641Y403D01*
X28686Y372D01*
X28740Y361D01*
X28794Y372D01*
X28839Y403D01*
X28870Y448D01*
X28881Y502D01*
X28870Y556D01*
X28839Y601D01*
X28794Y632D01*
X28740Y642D01*
X28686Y632D01*
X28641Y601D01*
X28628Y582D01*
X28533D01*
Y659D01*
X28356D01*
Y659D01*
X28337D01*
Y659D01*
X28159D01*
Y659D01*
X28140D01*
Y659D01*
X28109Y659D01*
X27963D01*
Y659D01*
X27943D01*
D02*
G37*
G36*
X29829Y650D02*
X29736D01*
Y547D01*
X29829D01*
Y650D01*
D02*
G37*
G36*
X29657D02*
X29565D01*
Y547D01*
X29657D01*
Y650D01*
D02*
G37*
G36*
X28888Y974D02*
X28573D01*
Y797D01*
X28868D01*
X28893Y792D01*
X28922Y761D01*
X28927Y734D01*
X28958Y688D01*
X29003Y658D01*
X29057Y647D01*
X29084Y652D01*
X29104Y632D01*
X29130Y615D01*
X29161Y609D01*
X29161Y609D01*
X29226D01*
Y547D01*
X29490D01*
Y831D01*
X29226D01*
Y831D01*
X29183Y847D01*
X29156Y887D01*
X29111Y917D01*
X29057Y928D01*
X29039Y924D01*
X29021Y943D01*
X28995Y960D01*
X28964Y966D01*
X28888D01*
Y974D01*
D02*
G37*
G36*
X20380Y650D02*
X20287D01*
Y547D01*
X20380D01*
Y650D01*
D02*
G37*
G36*
X20209D02*
X20116D01*
Y547D01*
X20209D01*
Y650D01*
D02*
G37*
G36*
X19595Y1026D02*
X19542Y1016D01*
X19496Y985D01*
X19489Y974D01*
X19439Y974D01*
Y974D01*
X19124D01*
Y797D01*
X19439D01*
Y797D01*
X19489Y797D01*
X19496Y786D01*
X19542Y756D01*
X19593Y746D01*
X19688Y651D01*
X19714Y634D01*
X19745Y628D01*
X19778Y594D01*
Y547D01*
X20041D01*
Y831D01*
X19778D01*
Y831D01*
X19776Y830D01*
X19732Y866D01*
X19736Y886D01*
X19725Y940D01*
X19695Y985D01*
X19649Y1016D01*
X19595Y1026D01*
D02*
G37*
G36*
X25104Y831D02*
X24841D01*
Y547D01*
X24892D01*
Y473D01*
X24884Y465D01*
X24754D01*
X24746Y475D01*
X24740Y484D01*
X24736Y487D01*
X24723Y503D01*
X24737Y547D01*
X24766D01*
Y831D01*
X24502D01*
Y802D01*
X24469Y769D01*
X24438Y763D01*
X24412Y746D01*
X24412Y746D01*
X24248Y582D01*
X23809D01*
Y659D01*
X23632D01*
Y659D01*
X23612D01*
Y659D01*
X23465D01*
X23435Y659D01*
X23385Y659D01*
X23268D01*
X23238Y659D01*
Y659D01*
X23219D01*
Y659D01*
X23041D01*
X23041Y659D01*
X23022D01*
Y659D01*
X22991Y659D01*
X22844Y659D01*
X22794Y659D01*
X22648D01*
Y350D01*
X22637Y343D01*
X22606Y297D01*
X22596Y244D01*
X22606Y190D01*
X22630Y154D01*
X22618Y118D01*
X22608Y104D01*
X22594D01*
Y-159D01*
X22878D01*
Y104D01*
X22864D01*
X22854Y118D01*
X22842Y154D01*
X22866Y190D01*
X22868Y201D01*
X22919D01*
X22921Y190D01*
X22952Y144D01*
X22956Y141D01*
X22988Y104D01*
Y-159D01*
X23272D01*
Y36D01*
X23318Y55D01*
X23382Y-9D01*
Y-159D01*
X23640D01*
X23665Y-159D01*
X23707Y-179D01*
X23720Y-198D01*
X23765Y-228D01*
X23819Y-239D01*
X23873Y-228D01*
X23918Y-198D01*
X23931Y-179D01*
X25223D01*
X25235Y-198D01*
X25281Y-228D01*
X25335Y-239D01*
X25388Y-228D01*
X25434Y-198D01*
X25464Y-152D01*
X25475Y-98D01*
X25464Y-45D01*
X25434Y1D01*
X25388Y31D01*
X25335Y42D01*
X25281Y31D01*
X25235Y1D01*
X25223Y-18D01*
X23931D01*
X23918Y1D01*
X23899Y14D01*
Y120D01*
X23893Y151D01*
X23876Y177D01*
X23876Y177D01*
X23801Y252D01*
Y344D01*
X23809D01*
Y422D01*
X24281D01*
X24312Y428D01*
X24338Y445D01*
X24452Y559D01*
X24502Y547D01*
D01*
X24538Y540D01*
X24552Y492D01*
X24541Y484D01*
X24511Y439D01*
X24500Y385D01*
X24511Y331D01*
X24541Y286D01*
X24587Y255D01*
X24641Y245D01*
X24694Y255D01*
X24740Y286D01*
X24753Y305D01*
X24918D01*
X24948Y311D01*
X24974Y328D01*
X25029Y383D01*
X25029Y383D01*
X25047Y409D01*
X25053Y440D01*
Y547D01*
X25104D01*
Y831D01*
D02*
G37*
G36*
X27799Y-234D02*
X27697D01*
Y-327D01*
X27799D01*
Y-234D01*
D02*
G37*
G36*
X27406D02*
X27303D01*
Y-327D01*
X27406D01*
Y-234D01*
D02*
G37*
G36*
X22878D02*
X22776D01*
Y-327D01*
X22878D01*
Y-234D01*
D02*
G37*
G36*
X23272D02*
X23169D01*
Y-327D01*
X23272D01*
Y-234D01*
D02*
G37*
G36*
X28193D02*
X28091D01*
Y-327D01*
X28193D01*
Y-234D01*
D02*
G37*
G36*
X23665D02*
X23563D01*
Y-327D01*
X23665D01*
Y-234D01*
D02*
G37*
G36*
X28587D02*
X28484D01*
Y-327D01*
X28587D01*
Y-234D01*
D02*
G37*
G36*
X18350D02*
X18248D01*
Y-327D01*
X18350D01*
Y-234D01*
D02*
G37*
G36*
X23484D02*
X23382D01*
Y-327D01*
X23484D01*
Y-234D01*
D02*
G37*
G36*
X28406D02*
X28303D01*
Y-327D01*
X28406D01*
Y-234D01*
D02*
G37*
G36*
X18169D02*
X18067D01*
Y-327D01*
X18169D01*
Y-234D01*
D02*
G37*
G36*
X23091D02*
X22988D01*
Y-327D01*
X23091D01*
Y-234D01*
D02*
G37*
G36*
X28012D02*
X27909D01*
Y-327D01*
X28012D01*
Y-234D01*
D02*
G37*
G36*
X27224D02*
X27122D01*
Y-327D01*
X27224D01*
Y-234D01*
D02*
G37*
G36*
X27618D02*
X27516D01*
Y-327D01*
X27618D01*
Y-234D01*
D02*
G37*
G36*
X22697D02*
X22594D01*
Y-327D01*
X22697D01*
Y-234D01*
D02*
G37*
G36*
X28587Y-406D02*
X28484D01*
Y-498D01*
X28587D01*
Y-406D01*
D02*
G37*
G36*
X28406D02*
X28303D01*
Y-498D01*
X28406D01*
Y-406D01*
D02*
G37*
G36*
X28193D02*
X28091D01*
Y-498D01*
X28193D01*
Y-406D01*
D02*
G37*
G36*
X28012D02*
X27909D01*
Y-498D01*
X28012D01*
Y-406D01*
D02*
G37*
G36*
X27799D02*
X27697D01*
Y-498D01*
X27799D01*
Y-406D01*
D02*
G37*
G36*
X27618D02*
X27516D01*
Y-498D01*
X27618D01*
Y-406D01*
D02*
G37*
G36*
X27406D02*
X27303D01*
Y-498D01*
X27406D01*
Y-406D01*
D02*
G37*
G36*
X27224D02*
X27122D01*
Y-498D01*
X27224D01*
Y-406D01*
D02*
G37*
G36*
X23665D02*
X23563D01*
Y-498D01*
X23665D01*
Y-406D01*
D02*
G37*
G36*
X23484D02*
X23382D01*
Y-498D01*
X23484D01*
Y-406D01*
D02*
G37*
G36*
X23272D02*
X23169D01*
Y-498D01*
X23272D01*
Y-406D01*
D02*
G37*
G36*
X23091D02*
X22988D01*
Y-498D01*
X23091D01*
Y-406D01*
D02*
G37*
G36*
X22878D02*
X22776D01*
Y-498D01*
X22878D01*
Y-406D01*
D02*
G37*
G36*
X22697D02*
X22594D01*
Y-498D01*
X22697D01*
Y-406D01*
D02*
G37*
G36*
X18350D02*
X18248D01*
Y-498D01*
X18350D01*
Y-406D01*
D02*
G37*
G36*
X18169D02*
X18067D01*
Y-498D01*
X18169D01*
Y-406D01*
D02*
G37*
%LPD*%
D11*
X19331Y8163D02*
X19685Y8518D01*
X23819Y-98D02*
X25335D01*
X23720Y219D02*
Y502D01*
Y219D02*
X23819Y120D01*
Y-98D02*
Y120D01*
X22943Y363D02*
X23130Y176D01*
X22943Y363D02*
Y492D01*
X23327Y159D02*
Y502D01*
X19761Y-76D02*
Y229D01*
X19488Y502D02*
X19761Y229D01*
X18996Y502D02*
X19488D01*
X19761Y-76D02*
X19783Y-98D01*
X19595Y1476D02*
X19909D01*
X19282D02*
X19595D01*
Y857D02*
Y886D01*
X28740Y502D02*
X28754D01*
X28445D02*
X28740D01*
X24242Y892D02*
X24433Y1083D01*
X24320Y1476D02*
X24634D01*
X24006D02*
X24320D01*
X24641Y385D02*
X24918D01*
X24972Y440D01*
X19595Y857D02*
X19745Y708D01*
X24281Y502D02*
X24469Y689D01*
X23720Y502D02*
X24281D01*
X24469Y689D02*
X24634D01*
X30866Y7278D02*
Y7653D01*
X6524Y8258D02*
Y8268D01*
X5878Y13020D02*
X6173D01*
X6299Y12894D01*
Y12136D02*
Y12894D01*
X6171Y12008D02*
X6299Y12136D01*
X5866Y12008D02*
X6171D01*
X14350Y7264D02*
X14783Y7697D01*
X14183Y8310D02*
X14298Y8425D01*
X14902Y7648D02*
Y8251D01*
X11132Y7264D02*
X14350D01*
X14727Y8425D02*
X14902Y8251D01*
X12429Y7581D02*
X12628Y7382D01*
X9656Y7146D02*
X14399D01*
X14902Y7648D01*
X12628Y7382D02*
X14301D01*
X14488Y7569D01*
X14298Y8425D02*
X14727D01*
X9280Y7522D02*
X9656Y7146D01*
X10854Y7541D02*
X11132Y7264D01*
X14183Y7940D02*
Y8310D01*
X13858Y7894D02*
X13858Y7894D01*
X14137D01*
X14183Y7940D01*
X14783Y7697D02*
Y8202D01*
X14737Y8248D02*
X14783Y8202D01*
X14488Y8248D02*
X14737D01*
X9280Y7522D02*
Y7874D01*
X14488Y7569D02*
Y7894D01*
X12429Y7581D02*
Y7874D01*
X10854Y7541D02*
Y7874D01*
X9822Y4154D02*
X10610D01*
X9661Y5500D02*
Y5665D01*
Y5295D02*
Y5500D01*
X10000Y5709D02*
X10012D01*
X18799Y502D02*
X18996D01*
X28248D02*
X28445D01*
X23524D02*
X23720D01*
X4789Y7490D02*
X5069D01*
X4510D02*
X4789D01*
X17703Y502D02*
X18012D01*
Y2100D02*
Y2311D01*
Y1860D02*
Y2100D01*
X28964Y886D02*
X29161Y689D01*
X28661Y6392D02*
X29134D01*
X28189D02*
X28661D01*
X12757Y9046D02*
X13131D01*
X24972Y440D02*
Y689D01*
X19282Y886D02*
X19567D01*
X19891Y708D02*
X19909Y689D01*
X19745Y708D02*
X19891D01*
X17913Y4974D02*
X18268D01*
X7874Y3937D02*
X7906D01*
X7874Y5906D02*
X8071D01*
X7963Y3750D02*
X9154D01*
X7874Y3543D02*
X7889Y3559D01*
Y3677D01*
X7963Y3750D01*
X7906Y3937D02*
X7975Y3868D01*
X9002D01*
X8179Y5797D02*
X9025D01*
X8071Y5906D02*
X8179Y5797D01*
X8169Y5679D02*
X8976D01*
X7874Y5512D02*
X7884Y5522D01*
X8012D01*
X8169Y5679D01*
X9025Y5797D02*
X9268Y5555D01*
X8976Y5679D02*
X9071Y5585D01*
X9268Y5295D02*
Y5555D01*
X9071Y5295D02*
Y5585D01*
X10012Y3740D02*
Y3963D01*
Y5709D02*
X10303D01*
X9822Y4154D02*
X10012Y3963D01*
X9661Y4154D02*
X9822D01*
X9071Y3937D02*
Y4154D01*
X9002Y3868D02*
X9071Y3937D01*
X9154Y3750D02*
X9268Y3864D01*
Y4154D01*
X9673Y3356D02*
Y3740D01*
X9465Y3843D02*
Y4154D01*
X9624Y3789D02*
X9673Y3740D01*
X9465Y3843D02*
X9518Y3789D01*
X9624D01*
X12992Y1969D02*
X13346D01*
Y1614D02*
X13846D01*
X13150D02*
X13346D01*
Y1811D02*
X13656D01*
X14004Y1762D02*
Y1772D01*
X13951Y1709D02*
X14004Y1762D01*
X13941Y1709D02*
X13951D01*
X13846Y1614D02*
X13941Y1709D01*
X14004Y1772D02*
Y2165D01*
X11024Y1490D02*
Y1799D01*
X11417Y1490D02*
Y1799D01*
X12264Y2126D02*
X12638D01*
X12136Y1998D02*
X12264Y2126D01*
X12055Y1799D02*
X12136Y1880D01*
Y1998D01*
X12372Y1969D02*
X12638D01*
X12254Y1417D02*
Y1850D01*
X12372Y1969D01*
X12136Y1299D02*
X12254Y1417D01*
X11811Y1799D02*
X12055D01*
X10827Y1299D02*
X12136D01*
X11024Y2138D02*
Y2490D01*
X11270Y2736D01*
X10630Y2138D02*
Y2539D01*
X10945Y2854D01*
X10630Y1496D02*
Y1799D01*
Y1496D02*
X10827Y1299D01*
X12638Y1345D02*
Y1654D01*
X11270Y2736D02*
X12736D01*
X10945Y2854D02*
X12785D01*
X12736Y2736D02*
X12835Y2638D01*
X12992Y2323D02*
Y2648D01*
X12785Y2854D02*
X12992Y2648D01*
X12835Y2323D02*
Y2638D01*
X11018Y4724D02*
Y5476D01*
X11329Y5787D02*
X14774D01*
X11018Y5476D02*
X11329Y5787D01*
X14774D02*
X15020Y5541D01*
Y3868D02*
Y5541D01*
X14843Y3691D02*
X15020Y3868D01*
X13642Y3691D02*
X14843D01*
X13346Y3396D02*
X13642Y3691D01*
X13346Y2126D02*
Y3396D01*
X13563Y4724D02*
X14443D01*
X13150Y4311D02*
X13563Y4724D01*
X13150Y2323D02*
Y4311D01*
X12835Y1614D02*
X12992D01*
X12684D02*
X12835D01*
X12638Y1660D02*
Y1811D01*
Y1660D02*
X12684Y1614D01*
X12632Y1805D02*
X12638Y1811D01*
X5945Y7874D02*
X6524D01*
Y8258D02*
X6809Y7972D01*
Y7927D02*
Y7972D01*
Y7927D02*
X6862Y7874D01*
X13594Y8244D02*
X13854D01*
X13390D02*
X13594D01*
X31094Y3268D02*
Y3643D01*
X30416Y3268D02*
Y3643D01*
X29697Y1870D02*
Y2370D01*
X29417Y2650D02*
X29697Y2370D01*
X28839Y2650D02*
X29417D01*
X28445Y2311D02*
X28839D01*
X24634Y1870D02*
Y2374D01*
X24358Y2650D02*
X24634Y2374D01*
X23917Y2650D02*
X24358D01*
X14343Y11811D02*
Y12992D01*
X29358Y1083D02*
Y1467D01*
X29057Y1400D02*
X29259D01*
X28855D02*
X29057D01*
X5217Y11417D02*
X5866D01*
X23037Y2228D02*
X23120Y2311D01*
X23015Y2206D02*
X23037Y2228D01*
X22736Y2096D02*
Y2311D01*
Y1860D02*
Y2096D01*
X23514Y2311D02*
X23524D01*
X23359Y2156D02*
X23514Y2311D01*
X23359Y2119D02*
Y2156D01*
X23337Y2096D02*
X23359Y2119D01*
X23332Y2092D02*
X23337Y2096D01*
X23332Y1865D02*
Y2092D01*
X23327Y1860D02*
X23332Y1865D01*
X23120Y2311D02*
X23130D01*
X23015Y2108D02*
Y2206D01*
X22992Y2054D02*
Y2086D01*
X23015Y2108D01*
X22943Y2004D02*
X22992Y2054D01*
X22943Y1870D02*
Y2004D01*
X22933Y1860D02*
X22943Y1870D01*
X27904Y2069D02*
Y2101D01*
X27913Y2096D02*
X27936Y2119D01*
Y2206D02*
X28041Y2311D01*
X27936Y2119D02*
Y2206D01*
X27864Y2029D02*
X27904Y2069D01*
X27657Y2096D02*
Y2311D01*
Y1860D02*
Y2096D01*
X27286D02*
Y2289D01*
Y2035D02*
Y2096D01*
X27864Y1870D02*
Y2029D01*
X28138Y2096D02*
X28225D01*
X28248Y2118D01*
X28051Y1860D02*
X28061Y1870D01*
Y2019D01*
X28138Y2096D01*
X28435Y2311D02*
X28445D01*
X28248Y2124D02*
X28435Y2311D01*
X28248Y2118D02*
Y2124D01*
X28041Y2311D02*
X28051D01*
X27854Y1860D02*
X27864Y1870D01*
X27264Y2311D02*
X27286Y2289D01*
Y2035D02*
X27382Y1939D01*
X27451D01*
X27461Y1929D01*
Y1860D02*
Y1929D01*
X5878Y3131D02*
Y3533D01*
Y2728D02*
Y3131D01*
X6093Y4134D02*
X6171Y4213D01*
X5866Y4134D02*
X6093D01*
X6171Y4213D02*
Y5039D01*
X5878Y5146D02*
X6065D01*
X6171Y5039D01*
X18012Y2100D02*
X18013D01*
X18218Y2013D02*
X18359Y2153D01*
X18218Y1870D02*
Y2013D01*
X18209Y1860D02*
X18218Y1870D01*
X18209Y-28D02*
Y502D01*
X18359Y2153D02*
Y2264D01*
X18406Y2311D01*
X13858Y8898D02*
Y9272D01*
X27480Y4266D02*
X27835Y4620D01*
X23130Y-28D02*
Y176D01*
X22933Y502D02*
X22943Y492D01*
X26772Y3557D02*
X27126Y3911D01*
X26063Y3557D02*
X26417Y3911D01*
X27854Y433D02*
X27925Y362D01*
X27854Y433D02*
Y502D01*
X27950Y249D02*
X28031Y167D01*
X27925Y269D02*
Y362D01*
Y269D02*
X27948Y246D01*
X27273Y-19D02*
Y137D01*
X27264Y-28D02*
X27273Y-19D01*
Y137D02*
X27461Y325D01*
X27657Y-28D02*
Y237D01*
Y502D01*
X28399Y266D02*
X28445Y220D01*
X28031Y-8D02*
X28051Y-28D01*
X28031Y-8D02*
Y167D01*
X28061Y394D02*
X28189Y266D01*
X28445Y-28D02*
Y220D01*
X28189Y266D02*
X28399D01*
X28051Y502D02*
X28061Y492D01*
Y394D02*
Y492D01*
X27461Y325D02*
Y502D01*
X18327Y10581D02*
X18681Y10935D01*
X18268Y12061D02*
X18622Y12415D01*
X18268Y9935D02*
X18622Y10289D01*
X18268Y9226D02*
X18622Y9581D01*
X18622Y3911D02*
X18976Y4266D01*
Y3557D02*
X19331Y3911D01*
X19685Y3557D02*
X20039Y3911D01*
X20394Y3557D02*
X20748Y3911D01*
X21102Y3557D02*
X21457Y3911D01*
X25354Y4266D02*
X25709Y4620D01*
X26063Y4266D02*
X26417Y4620D01*
X26772Y4266D02*
X27126Y4620D01*
X28189Y4266D02*
X28543Y4620D01*
X27480Y3557D02*
X27835Y3911D01*
X28429Y5443D02*
X30778D01*
X30897Y5212D02*
X30924Y5185D01*
X30897Y5212D02*
Y5324D01*
X30778Y5443D02*
X30897Y5324D01*
X30207Y5224D02*
X30247Y5185D01*
X30207Y5224D02*
Y5279D01*
X30161Y5325D02*
X30207Y5279D01*
X28415Y5325D02*
X30161D01*
X28261Y5171D02*
X28415Y5325D01*
X28189Y4974D02*
X28261Y5047D01*
Y5171D01*
X28189Y5683D02*
X28429Y5443D01*
X12768Y12992D02*
X13142D01*
X14488Y8898D02*
Y9272D01*
Y9626D02*
Y10000D01*
X11193Y12992D02*
X11195Y12990D01*
X11564D01*
X11567Y12987D01*
X13858Y9626D02*
Y10000D01*
X11182Y9046D02*
X11556D01*
X9596Y9035D02*
X9970D01*
X14343Y11024D02*
X14717D01*
X13799Y12579D02*
X14173D01*
X12768Y11811D02*
X13142D01*
X11193D02*
X11567D01*
X9618Y12992D02*
X9992D01*
X9618Y11811D02*
X9992D01*
X17323Y11691D02*
X20268D01*
X20394Y11352D02*
Y11565D01*
X20268Y11691D02*
X20394Y11565D01*
X21102Y4695D02*
Y4974D01*
X17470Y4626D02*
X21033D01*
X21102Y4695D01*
X17323Y5313D02*
X20268D01*
X20394Y5187D01*
Y4974D02*
Y5187D01*
X17323Y4774D02*
Y4974D01*
Y4774D02*
X17470Y4626D01*
X4500Y7480D02*
Y7874D01*
X5069Y7490D02*
X5079Y7500D01*
X4500Y7480D02*
X4510Y7490D01*
X5945Y8248D02*
X5955Y8258D01*
X6514D02*
X6524Y8268D01*
X5878Y2390D02*
Y2728D01*
X5866Y3543D02*
X5868D01*
X5878Y3533D01*
X13386Y8240D02*
X13390Y8244D01*
X13854D02*
X13858Y8248D01*
X14004Y11811D02*
X14015Y11822D01*
Y12214D01*
X14026Y12224D01*
X14004Y11417D02*
Y11811D01*
Y11024D02*
Y11417D01*
X12440Y12214D02*
X12451Y12224D01*
X12440Y11822D02*
Y12214D01*
X12429Y11811D02*
X12440Y11822D01*
X12429Y12748D02*
Y12992D01*
Y12748D02*
X12598Y12579D01*
X12768Y12992D02*
Y13386D01*
X10854Y11024D02*
Y11417D01*
Y11811D01*
X10865Y12214D02*
X10876Y12224D01*
X10865Y11822D02*
Y12214D01*
X10854Y11811D02*
X10865Y11822D01*
X10854Y12748D02*
Y12992D01*
Y12748D02*
X11024Y12579D01*
X11193Y12992D02*
Y13386D01*
X9618Y12992D02*
Y13386D01*
X9280Y12748D02*
X9449Y12579D01*
X9280Y12748D02*
Y12992D01*
Y11811D02*
X9290Y11822D01*
Y12214D01*
X9301Y12224D01*
X9280Y11417D02*
Y11811D01*
Y11024D02*
Y11417D01*
X12768Y9449D02*
Y9843D01*
X12746Y9035D02*
X12757Y9046D01*
Y9438D01*
X12768Y9449D01*
Y8268D02*
Y8512D01*
X12598Y8681D02*
X12768Y8512D01*
Y7874D02*
Y8268D01*
X11193Y9449D02*
Y9843D01*
X11171Y9035D02*
X11182Y9046D01*
Y9438D01*
X11193Y9449D01*
Y8268D02*
Y8512D01*
X11024Y8681D02*
X11193Y8512D01*
Y7874D02*
Y8268D01*
X9618Y7874D02*
Y8268D01*
X9449Y8681D02*
X9618Y8512D01*
Y8268D02*
Y8512D01*
X9607Y9438D02*
X9618Y9449D01*
X9607Y9046D02*
Y9438D01*
X9596Y9035D02*
X9607Y9046D01*
X9618Y9449D02*
Y9843D01*
X29358Y1467D02*
Y1476D01*
X29305Y1413D02*
X29358Y1467D01*
X28799Y1476D02*
X28809Y1467D01*
Y1446D02*
Y1467D01*
Y1446D02*
X28855Y1400D01*
X28730Y1476D02*
X28799D01*
X29259Y1400D02*
X29272Y1413D01*
X29305D01*
X30474Y8162D02*
X30492Y8144D01*
X30474Y8162D02*
Y8632D01*
X30457Y8650D02*
X30474Y8632D01*
X30866Y6700D02*
Y7278D01*
X30492Y6700D02*
X30866D01*
X30766Y3653D02*
Y4819D01*
X30755Y3643D02*
X30766Y3653D01*
Y4819D02*
X30777Y4830D01*
X30088Y3653D02*
Y4819D01*
X30078Y3643D02*
X30088Y3653D01*
Y4819D02*
X30099Y4830D01*
X27657Y502D02*
X27657Y502D01*
X29161Y689D02*
X29358D01*
X28730Y886D02*
X28964D01*
X29358Y1476D02*
Y1486D01*
X29644Y1772D01*
Y1817D01*
X29697Y1870D01*
X28445Y1860D02*
X28455Y1870D01*
X29358D01*
X23720Y1860D02*
Y2124D01*
X23907Y2311D01*
X23917D01*
X24433Y1083D02*
X24634D01*
X24012Y892D02*
X24242D01*
X24006Y886D02*
X24012Y892D01*
X24634Y1476D02*
Y1870D01*
X23327Y159D02*
X23514Y-28D01*
X23524D01*
X22736Y502D02*
X22736Y502D01*
X22736Y-28D02*
Y502D01*
X19909Y1476D02*
Y1486D01*
X20195Y1772D01*
Y1817D01*
X20248Y1870D01*
X19006D02*
X19909D01*
X18996Y1860D02*
X19006Y1870D01*
X19909Y1083D02*
Y1476D01*
X5878Y12215D02*
Y12681D01*
X5868Y12205D02*
X5878Y12215D01*
X5866Y12205D02*
X5868D01*
D13*
X9280Y3543D02*
X9287Y3536D01*
Y3515D02*
Y3536D01*
Y3515D02*
X9455Y3346D01*
X5955Y8258D02*
X6234D01*
X9455Y3346D02*
X9673D01*
X3081Y12992D02*
X4908D01*
X669Y8248D02*
X1040D01*
X295D02*
X669D01*
X0D02*
X295D01*
X669Y7500D02*
X1040D01*
X1132Y7592D01*
Y8156D01*
X1040Y8248D02*
X1132Y8156D01*
X2362Y12992D02*
X3081D01*
X30118Y6989D02*
Y7278D01*
Y6700D02*
Y6989D01*
X6234Y8258D02*
X6514D01*
X5217Y4776D02*
X5248Y4807D01*
X3937Y2756D02*
X4930D01*
X2362D02*
X3937D01*
X3150Y8184D02*
X3425D01*
X2756D02*
X3150D01*
X4789Y8258D02*
X5069D01*
X4510D02*
X4789D01*
X3937Y10630D02*
X4930D01*
X2362D02*
X3937D01*
Y4404D02*
X4413D01*
X4683Y4134D01*
X5354D01*
X3937Y3470D02*
X4413D01*
X4683Y3740D01*
X5354D01*
X2362Y5118D02*
X4908D01*
X30683Y11255D02*
Y13303D01*
X26299Y14045D02*
X29941D01*
X30683Y13303D01*
X26063Y13478D02*
Y13809D01*
X26299Y14045D01*
X30183Y11255D02*
Y12780D01*
X29484Y13478D02*
X30183Y12780D01*
X27480Y13478D02*
X29484D01*
X26772Y12770D02*
X27480D01*
X26772Y13478D02*
X27480D01*
X26772Y12770D02*
Y13478D01*
X26063Y12770D02*
Y13478D01*
X4500Y8268D02*
X4510Y8258D01*
X5069D02*
X5079Y8248D01*
X2362Y8184D02*
X2756D01*
X1693Y8248D02*
X2298D01*
X2362Y8184D01*
X30118Y8144D02*
Y8650D01*
X30683Y10591D02*
Y10861D01*
Y11255D01*
X30183Y10861D02*
Y11255D01*
Y10591D02*
Y10861D01*
X30748Y9990D02*
Y10467D01*
X30118Y9990D02*
Y10467D01*
Y8650D02*
Y9370D01*
X30748D01*
X29650Y8650D02*
X30118D01*
X5248Y4807D02*
X5539D01*
Y5146D01*
X5878D02*
Y5484D01*
X5872Y4801D02*
X5878Y4807D01*
X5872Y4370D02*
Y4801D01*
X5217Y4370D02*
Y4776D01*
X4908Y5118D02*
X5217Y4809D01*
Y4776D02*
Y4809D01*
X4930Y2756D02*
X5217Y3043D01*
Y3504D01*
Y10917D02*
Y11378D01*
X4930Y10630D02*
X5217Y10917D01*
X4683Y11614D02*
X5354D01*
X4413Y11344D02*
X4683Y11614D01*
X3937Y11344D02*
X4413D01*
X4683Y12008D02*
X5354D01*
X4413Y12278D02*
X4683Y12008D01*
X3937Y12278D02*
X4413D01*
X5217Y12650D02*
Y12683D01*
X4908Y12992D02*
X5217Y12683D01*
Y12244D02*
Y12650D01*
X5248Y12681D02*
X5539D01*
X5217Y12650D02*
X5248Y12681D01*
X5539D02*
Y13020D01*
X5878D02*
Y13358D01*
D16*
X14443Y4724D02*
D03*
X11018D02*
D03*
D17*
X9366D02*
D03*
D18*
X9465Y5295D02*
D03*
X9268D02*
D03*
X9071D02*
D03*
X9661D02*
D03*
X9465Y4154D02*
D03*
X9268D02*
D03*
X9071D02*
D03*
X9661D02*
D03*
X12835Y2323D02*
D03*
X12992D02*
D03*
X13150D02*
D03*
Y1614D02*
D03*
X12992D02*
D03*
X12835D02*
D03*
D19*
X24634Y689D02*
D03*
X24972D02*
D03*
X29697Y689D02*
D03*
X29358D02*
D03*
X29697Y1083D02*
D03*
X29358D02*
D03*
X29697Y1476D02*
D03*
X29358D02*
D03*
Y1870D02*
D03*
X29697D02*
D03*
X24972Y1870D02*
D03*
X24634D02*
D03*
X24972Y1476D02*
D03*
X24634D02*
D03*
X24972Y1083D02*
D03*
X24634D02*
D03*
X19909Y1870D02*
D03*
X20248D02*
D03*
Y1476D02*
D03*
X19909D02*
D03*
X20248Y1083D02*
D03*
X19909D02*
D03*
X20248Y689D02*
D03*
X19909D02*
D03*
X4500Y8268D02*
D03*
X4161D02*
D03*
Y7874D02*
D03*
X4500D02*
D03*
X4161Y7480D02*
D03*
X4500D02*
D03*
X6524Y8268D02*
D03*
X6862D02*
D03*
Y7874D02*
D03*
X6524D02*
D03*
X9618Y9843D02*
D03*
X9280D02*
D03*
Y9449D02*
D03*
X9618D02*
D03*
X11193Y9843D02*
D03*
X10854D02*
D03*
Y9449D02*
D03*
X11193D02*
D03*
X12768Y9843D02*
D03*
X12429D02*
D03*
Y9449D02*
D03*
X12768D02*
D03*
X9618Y8268D02*
D03*
X9280D02*
D03*
X11193D02*
D03*
X10854D02*
D03*
X12768D02*
D03*
X12429D02*
D03*
X9618Y7874D02*
D03*
X9280D02*
D03*
X11193D02*
D03*
X10854D02*
D03*
X12768D02*
D03*
X12429D02*
D03*
X30078Y3643D02*
D03*
X30416D02*
D03*
Y4036D02*
D03*
X30078D02*
D03*
Y4430D02*
D03*
X30416D02*
D03*
X30755D02*
D03*
X31094D02*
D03*
Y4036D02*
D03*
X30755D02*
D03*
Y3643D02*
D03*
X31094D02*
D03*
X14343Y1772D02*
D03*
X14004D02*
D03*
X14343Y2165D02*
D03*
X14004D02*
D03*
X10012Y3740D02*
D03*
X9673D02*
D03*
X10012Y3346D02*
D03*
X9673D02*
D03*
Y5709D02*
D03*
X10012D02*
D03*
X5539Y2390D02*
D03*
X5878D02*
D03*
X5539Y2728D02*
D03*
X5878D02*
D03*
Y4807D02*
D03*
X5539D02*
D03*
X5878Y5146D02*
D03*
X5539D02*
D03*
Y5484D02*
D03*
X5878D02*
D03*
X5539Y13358D02*
D03*
X5878D02*
D03*
Y13020D02*
D03*
X5539D02*
D03*
X5878Y12681D02*
D03*
X5539D02*
D03*
X29844Y11255D02*
D03*
X30183D02*
D03*
X29844Y10861D02*
D03*
X30183D02*
D03*
X31022Y11255D02*
D03*
X30683D02*
D03*
X31022Y10861D02*
D03*
X30683D02*
D03*
X30118Y8650D02*
D03*
X30457D02*
D03*
X21817Y15189D02*
D03*
X22155D02*
D03*
X14343Y12992D02*
D03*
X14004D02*
D03*
Y11811D02*
D03*
X14343D02*
D03*
X14004Y11417D02*
D03*
X14343D02*
D03*
X14004Y11024D02*
D03*
X14343D02*
D03*
X12768Y13386D02*
D03*
X12429D02*
D03*
Y12992D02*
D03*
X12768D02*
D03*
X12429Y11811D02*
D03*
X12768D02*
D03*
X11193Y13386D02*
D03*
X10854D02*
D03*
Y12992D02*
D03*
X11193D02*
D03*
X10854Y11811D02*
D03*
X11193D02*
D03*
X10854Y11417D02*
D03*
X11193D02*
D03*
Y11024D02*
D03*
X10854D02*
D03*
X9618Y13386D02*
D03*
X9280D02*
D03*
Y12992D02*
D03*
X9618D02*
D03*
X9280Y11811D02*
D03*
X9618D02*
D03*
X9280Y11417D02*
D03*
X9618D02*
D03*
Y11024D02*
D03*
X9280D02*
D03*
D20*
X28839Y2311D02*
D03*
Y2650D02*
D03*
X28445D02*
D03*
Y2311D02*
D03*
X28051Y2650D02*
D03*
Y2311D02*
D03*
X27657Y2650D02*
D03*
Y2311D02*
D03*
X27264Y2650D02*
D03*
Y2311D02*
D03*
X27264Y-366D02*
D03*
Y-28D02*
D03*
X28445Y-366D02*
D03*
Y-28D02*
D03*
X28051Y-366D02*
D03*
Y-28D02*
D03*
X27657Y-366D02*
D03*
Y-28D02*
D03*
X23524Y-366D02*
D03*
Y-28D02*
D03*
X23130Y-366D02*
D03*
Y-28D02*
D03*
X22736Y-366D02*
D03*
Y-28D02*
D03*
X23524Y2650D02*
D03*
Y2311D02*
D03*
X23130Y2650D02*
D03*
Y2311D02*
D03*
X22736Y2650D02*
D03*
Y2311D02*
D03*
X23917D02*
D03*
Y2650D02*
D03*
X18209Y-366D02*
D03*
Y-28D02*
D03*
X18012Y2650D02*
D03*
Y2311D02*
D03*
X18406Y2650D02*
D03*
Y2311D02*
D03*
X3150Y8184D02*
D03*
Y7845D02*
D03*
X2756D02*
D03*
Y8184D02*
D03*
X0Y8248D02*
D03*
Y7909D02*
D03*
X13386Y8240D02*
D03*
Y7902D02*
D03*
X11024Y1799D02*
D03*
Y2138D02*
D03*
X10630D02*
D03*
Y1799D02*
D03*
X11811Y2138D02*
D03*
Y1799D02*
D03*
X11417Y2138D02*
D03*
Y1799D02*
D03*
X4528Y5484D02*
D03*
Y5146D02*
D03*
X4134D02*
D03*
Y5484D02*
D03*
X4528Y2728D02*
D03*
Y2390D02*
D03*
X4134D02*
D03*
Y2728D02*
D03*
X4528Y13020D02*
D03*
Y13358D02*
D03*
X4134D02*
D03*
Y13020D02*
D03*
X4528Y10602D02*
D03*
Y10264D02*
D03*
X4134D02*
D03*
Y10602D02*
D03*
X29650Y8650D02*
D03*
Y8311D02*
D03*
X29134Y6053D02*
D03*
Y6392D02*
D03*
X30866Y6361D02*
D03*
Y6700D02*
D03*
X30492Y6361D02*
D03*
Y6700D02*
D03*
X30118D02*
D03*
Y6361D02*
D03*
X21467Y15528D02*
D03*
Y15189D02*
D03*
X21017Y15528D02*
D03*
Y15189D02*
D03*
X23055Y15528D02*
D03*
Y15189D02*
D03*
X22555Y15528D02*
D03*
Y15189D02*
D03*
X17323Y5313D02*
D03*
Y4974D02*
D03*
Y11691D02*
D03*
Y11352D02*
D03*
D21*
X27953Y1181D02*
D03*
X23228D02*
D03*
X18504D02*
D03*
D22*
X28730Y886D02*
D03*
X27175D02*
D03*
Y1476D02*
D03*
X28730D02*
D03*
X24006Y886D02*
D03*
X22451D02*
D03*
Y1476D02*
D03*
X24006D02*
D03*
X19282Y886D02*
D03*
X17726D02*
D03*
Y1476D02*
D03*
X19282D02*
D03*
X5866Y4331D02*
D03*
Y4134D02*
D03*
Y3937D02*
D03*
Y3740D02*
D03*
Y3543D02*
D03*
Y12205D02*
D03*
Y12008D02*
D03*
Y11811D02*
D03*
Y11614D02*
D03*
Y11417D02*
D03*
D23*
X28445Y502D02*
D03*
X28248D02*
D03*
X28051D02*
D03*
X27854D02*
D03*
X27657D02*
D03*
X27461D02*
D03*
Y1860D02*
D03*
X27657D02*
D03*
X27854D02*
D03*
X28051D02*
D03*
X28248D02*
D03*
X28445D02*
D03*
X23720Y502D02*
D03*
X23524D02*
D03*
X23327D02*
D03*
X23130D02*
D03*
X22933D02*
D03*
X22736D02*
D03*
Y1860D02*
D03*
X22933D02*
D03*
X23130D02*
D03*
X23327D02*
D03*
X23524D02*
D03*
X23720D02*
D03*
X18996Y502D02*
D03*
X18799D02*
D03*
X18602D02*
D03*
X18406D02*
D03*
X18209D02*
D03*
X18012D02*
D03*
Y1860D02*
D03*
X18209D02*
D03*
X18406D02*
D03*
X18602D02*
D03*
X18799D02*
D03*
X18996D02*
D03*
D24*
X5079Y8248D02*
D03*
Y7874D02*
D03*
Y7500D02*
D03*
X5945D02*
D03*
Y8248D02*
D03*
Y7874D02*
D03*
X1693Y8248D02*
D03*
Y7500D02*
D03*
X669D02*
D03*
Y7874D02*
D03*
Y8248D02*
D03*
X14488Y8248D02*
D03*
X13858D02*
D03*
Y7894D02*
D03*
X14488D02*
D03*
Y9626D02*
D03*
X13858D02*
D03*
Y9272D02*
D03*
X14488D02*
D03*
D25*
X2362Y8184D02*
D03*
Y7564D02*
D03*
X30118Y9370D02*
D03*
Y9990D02*
D03*
X30748Y9370D02*
D03*
Y9990D02*
D03*
D26*
X9449Y8681D02*
D03*
X11024D02*
D03*
X12598D02*
D03*
X30247Y5185D02*
D03*
X30924D02*
D03*
X14173Y12579D02*
D03*
X12598D02*
D03*
X11024D02*
D03*
X9449D02*
D03*
D27*
X9301Y9035D02*
D03*
X9596D02*
D03*
X10876D02*
D03*
X11171D02*
D03*
X12451D02*
D03*
X12746D02*
D03*
X30394Y4830D02*
D03*
X30099D02*
D03*
X31072D02*
D03*
X30777D02*
D03*
X14321Y12224D02*
D03*
X14026D02*
D03*
X12746D02*
D03*
X12451D02*
D03*
X11171D02*
D03*
X10876D02*
D03*
X9596D02*
D03*
X9301D02*
D03*
D28*
X12992Y1969D02*
D03*
D29*
X12638Y1811D02*
D03*
Y1969D02*
D03*
Y2126D02*
D03*
X13346D02*
D03*
Y1969D02*
D03*
Y1811D02*
D03*
D30*
X5217Y3543D02*
D03*
Y3740D02*
D03*
Y4134D02*
D03*
Y4331D02*
D03*
Y11417D02*
D03*
Y11614D02*
D03*
Y12008D02*
D03*
Y12205D02*
D03*
D31*
X5295Y3937D02*
D03*
Y11811D02*
D03*
D32*
X3937Y3470D02*
D03*
Y4404D02*
D03*
Y11344D02*
D03*
Y12278D02*
D03*
D33*
X394Y5118D02*
D03*
X2362D02*
D03*
X394Y2756D02*
D03*
X2362D02*
D03*
X394Y10630D02*
D03*
X2362D02*
D03*
X394Y12992D02*
D03*
X2362D02*
D03*
X19807Y15701D02*
D03*
Y14678D02*
D03*
D34*
X30118Y10467D02*
D03*
X29498D02*
D03*
X30748D02*
D03*
X31368D02*
D03*
D35*
X30118Y7278D02*
D03*
X30492D02*
D03*
X30866D02*
D03*
Y8144D02*
D03*
X30118D02*
D03*
X30492D02*
D03*
D36*
X20398Y15189D02*
D03*
D37*
X18268Y4266D02*
D03*
X18976D02*
D03*
X18268Y5683D02*
D03*
Y4974D02*
D03*
X18976Y3557D02*
D03*
X19685D02*
D03*
X18976Y4974D02*
D03*
X19685Y4266D02*
D03*
Y4974D02*
D03*
X18268Y7809D02*
D03*
Y6392D02*
D03*
Y7100D02*
D03*
X18976Y6392D02*
D03*
Y5683D02*
D03*
Y7809D02*
D03*
X19685Y6392D02*
D03*
X18976Y7100D02*
D03*
X20394Y4266D02*
D03*
Y3557D02*
D03*
X21102D02*
D03*
X21811D02*
D03*
X21102Y4266D02*
D03*
X22520Y3557D02*
D03*
X21811Y4266D02*
D03*
X19685Y7100D02*
D03*
X20394Y4974D02*
D03*
X19685Y5683D02*
D03*
X21102Y4974D02*
D03*
X22520Y4266D02*
D03*
X20394Y5683D02*
D03*
X22520Y4974D02*
D03*
X21811D02*
D03*
X18268Y9226D02*
D03*
Y8518D02*
D03*
Y10644D02*
D03*
Y9935D02*
D03*
X18976Y8518D02*
D03*
X19685Y7809D02*
D03*
X18976Y10644D02*
D03*
Y9226D02*
D03*
Y9935D02*
D03*
X18268Y11352D02*
D03*
X18976D02*
D03*
X18268Y12061D02*
D03*
Y12770D02*
D03*
X19685Y11352D02*
D03*
Y10644D02*
D03*
X18976Y13478D02*
D03*
Y12061D02*
D03*
Y12770D02*
D03*
X19685Y9226D02*
D03*
Y8518D02*
D03*
Y12770D02*
D03*
Y9935D02*
D03*
Y12061D02*
D03*
X20394D02*
D03*
Y11352D02*
D03*
X21102Y12061D02*
D03*
X22520D02*
D03*
X21811D02*
D03*
X19685Y13478D02*
D03*
X20394Y12770D02*
D03*
Y13478D02*
D03*
X21102Y12770D02*
D03*
X21811D02*
D03*
X21102Y13478D02*
D03*
X22520D02*
D03*
X21811D02*
D03*
X23228Y3557D02*
D03*
X23937D02*
D03*
X23228Y4266D02*
D03*
X23937D02*
D03*
X24646Y3557D02*
D03*
X25354D02*
D03*
X24646Y4266D02*
D03*
X26063Y3557D02*
D03*
X26772Y4266D02*
D03*
X23937Y4974D02*
D03*
X25354Y4266D02*
D03*
X23228Y4974D02*
D03*
X25354D02*
D03*
X24646D02*
D03*
X26063D02*
D03*
Y4266D02*
D03*
Y5683D02*
D03*
X26772Y4974D02*
D03*
Y7809D02*
D03*
Y3557D02*
D03*
X27480Y4266D02*
D03*
X26772Y6392D02*
D03*
X27480Y4974D02*
D03*
X26772Y5683D02*
D03*
X27480Y3557D02*
D03*
X28189Y4266D02*
D03*
X27480Y5683D02*
D03*
X28189Y4974D02*
D03*
Y5683D02*
D03*
X26772Y7100D02*
D03*
X27480Y6392D02*
D03*
Y8518D02*
D03*
Y7100D02*
D03*
Y7809D02*
D03*
X28189D02*
D03*
Y6392D02*
D03*
Y7100D02*
D03*
X23228Y12061D02*
D03*
X23937D02*
D03*
X23228Y12770D02*
D03*
X24646Y12061D02*
D03*
X26772Y9226D02*
D03*
Y8518D02*
D03*
X25354Y12061D02*
D03*
X26063Y11352D02*
D03*
Y12061D02*
D03*
X22520Y12770D02*
D03*
X23937D02*
D03*
X23228Y13478D02*
D03*
X24646Y12770D02*
D03*
X23937Y13478D02*
D03*
X25354Y12770D02*
D03*
X26063D02*
D03*
X24646Y13478D02*
D03*
X26063D02*
D03*
X25354D02*
D03*
X26772Y9935D02*
D03*
X27480Y9226D02*
D03*
X26772Y11352D02*
D03*
X27480Y9935D02*
D03*
X26772Y10644D02*
D03*
X28189Y9226D02*
D03*
Y8518D02*
D03*
X27480Y10644D02*
D03*
X28189Y9935D02*
D03*
Y10644D02*
D03*
X26772Y12061D02*
D03*
X27480Y11352D02*
D03*
X26772Y13478D02*
D03*
X27480Y12061D02*
D03*
X26772Y12770D02*
D03*
X28189Y12061D02*
D03*
Y11352D02*
D03*
X27480Y12770D02*
D03*
X28189D02*
D03*
X27480Y13478D02*
D03*
D62*
X16523Y-787D02*
D03*
X16917D02*
D03*
X17310D02*
D03*
X17704D02*
D03*
X18098D02*
D03*
X26365D02*
D03*
X26759D02*
D03*
X27153D02*
D03*
X27546D02*
D03*
X27940D02*
D03*
X28334D02*
D03*
X28728D02*
D03*
X29121D02*
D03*
X29515D02*
D03*
X29909D02*
D03*
X30302D02*
D03*
X30696D02*
D03*
X25972D02*
D03*
X25578D02*
D03*
X25184D02*
D03*
X24791D02*
D03*
X24397D02*
D03*
X24003D02*
D03*
X23609D02*
D03*
X23216D02*
D03*
X22822D02*
D03*
X22428D02*
D03*
X22035D02*
D03*
X21641D02*
D03*
X21247D02*
D03*
X20854D02*
D03*
X20460D02*
D03*
X20066D02*
D03*
X19672D02*
D03*
X19279D02*
D03*
X18885D02*
D03*
X18491D02*
D03*
X2350D02*
D03*
X2743D02*
D03*
X3137D02*
D03*
X3531D02*
D03*
X3924D02*
D03*
X12192D02*
D03*
X12586D02*
D03*
X12980D02*
D03*
X13373D02*
D03*
X13767D02*
D03*
X14161D02*
D03*
X14554D02*
D03*
X14948D02*
D03*
X15342D02*
D03*
X15735D02*
D03*
X16129D02*
D03*
X11798D02*
D03*
X11405D02*
D03*
X11011D02*
D03*
X10617D02*
D03*
X10224D02*
D03*
X9830D02*
D03*
X9436D02*
D03*
X9043D02*
D03*
X8649D02*
D03*
X8255D02*
D03*
X7861D02*
D03*
X7468D02*
D03*
X7074D02*
D03*
X6680D02*
D03*
X6287D02*
D03*
X5893D02*
D03*
X5499D02*
D03*
X5106D02*
D03*
X4712D02*
D03*
X4318D02*
D03*
X1169D02*
D03*
X1562D02*
D03*
X1956D02*
D03*
X775D02*
D03*
X30721Y16535D02*
D03*
X29540D02*
D03*
X29934D02*
D03*
X30328D02*
D03*
X27178D02*
D03*
X26784D02*
D03*
X26391D02*
D03*
X25997D02*
D03*
X25603D02*
D03*
X25209D02*
D03*
X24816D02*
D03*
X24422D02*
D03*
X24028D02*
D03*
X23635D02*
D03*
X23241D02*
D03*
X22847D02*
D03*
X22454D02*
D03*
X22060D02*
D03*
X21666D02*
D03*
X21272D02*
D03*
X20879D02*
D03*
X20485D02*
D03*
X20091D02*
D03*
X19698D02*
D03*
X15367D02*
D03*
X15761D02*
D03*
X16154D02*
D03*
X16548D02*
D03*
X16942D02*
D03*
X17335D02*
D03*
X17729D02*
D03*
X18123D02*
D03*
X18517D02*
D03*
X18910D02*
D03*
X19304D02*
D03*
X27572D02*
D03*
X27965D02*
D03*
X28359D02*
D03*
X28753D02*
D03*
X29146D02*
D03*
X13005D02*
D03*
X12611D02*
D03*
X12217D02*
D03*
X11824D02*
D03*
X11430D02*
D03*
X11036D02*
D03*
X10643D02*
D03*
X10249D02*
D03*
X9855D02*
D03*
X9461D02*
D03*
X9068D02*
D03*
X8674D02*
D03*
X8280D02*
D03*
X7887D02*
D03*
X7493D02*
D03*
X7099D02*
D03*
X6706D02*
D03*
X6312D02*
D03*
X5918D02*
D03*
X5524D02*
D03*
X800D02*
D03*
X1194D02*
D03*
X1587D02*
D03*
X1981D02*
D03*
X2375D02*
D03*
X2768D02*
D03*
X3162D02*
D03*
X3556D02*
D03*
X3950D02*
D03*
X4343D02*
D03*
X4737D02*
D03*
X5131D02*
D03*
X13398D02*
D03*
X13792D02*
D03*
X14186D02*
D03*
X14580D02*
D03*
X14973D02*
D03*
X32283Y12992D02*
D03*
Y12598D02*
D03*
Y12205D02*
D03*
Y11811D02*
D03*
Y11417D02*
D03*
Y11024D02*
D03*
Y10630D02*
D03*
Y10236D02*
D03*
Y9843D02*
D03*
Y9449D02*
D03*
Y9055D02*
D03*
Y8661D02*
D03*
Y8268D02*
D03*
Y7874D02*
D03*
Y7480D02*
D03*
Y7087D02*
D03*
Y6693D02*
D03*
Y6299D02*
D03*
Y5906D02*
D03*
Y5512D02*
D03*
Y787D02*
D03*
Y1181D02*
D03*
Y1575D02*
D03*
Y1969D02*
D03*
Y2362D02*
D03*
Y2756D02*
D03*
Y3150D02*
D03*
Y3543D02*
D03*
Y3937D02*
D03*
Y4331D02*
D03*
Y4724D02*
D03*
Y5118D02*
D03*
Y13386D02*
D03*
Y13780D02*
D03*
Y14173D02*
D03*
Y14567D02*
D03*
Y14961D02*
D03*
X-787Y787D02*
D03*
Y1181D02*
D03*
Y1575D02*
D03*
Y1969D02*
D03*
Y2362D02*
D03*
Y10630D02*
D03*
Y11024D02*
D03*
Y11417D02*
D03*
Y11811D02*
D03*
Y12205D02*
D03*
Y12598D02*
D03*
Y12992D02*
D03*
Y13386D02*
D03*
Y13780D02*
D03*
Y14173D02*
D03*
Y14567D02*
D03*
Y14961D02*
D03*
Y10236D02*
D03*
Y9843D02*
D03*
Y9449D02*
D03*
Y9055D02*
D03*
Y8661D02*
D03*
Y8268D02*
D03*
Y7874D02*
D03*
Y7480D02*
D03*
Y7087D02*
D03*
Y6693D02*
D03*
Y6299D02*
D03*
Y5906D02*
D03*
Y5512D02*
D03*
Y5118D02*
D03*
Y4724D02*
D03*
Y4331D02*
D03*
Y3937D02*
D03*
Y3543D02*
D03*
Y3150D02*
D03*
Y2756D02*
D03*
D64*
X24646Y13968D02*
G03*
X23424Y15189I-1222J0D01*
G01*
X24646Y13478D02*
Y13968D01*
X23055Y15189D02*
X23424D01*
X22244D02*
X23055D01*
X21467D02*
X21693D01*
X21017D02*
X21467D01*
X20472D02*
X21017D01*
D65*
X31496Y15748D02*
D03*
Y0D02*
D03*
X0Y15748D02*
D03*
Y0D02*
D03*
D66*
X21004Y14774D02*
D03*
X21398D02*
D03*
X21791D02*
D03*
X22185D02*
D03*
X22579D02*
D03*
X22972D02*
D03*
X23366D02*
D03*
Y15561D02*
D03*
X22185D02*
D03*
X21791D02*
D03*
X20610Y14774D02*
D03*
Y15561D02*
D03*
X9280Y3543D02*
D03*
X18622Y3911D02*
D03*
X19331Y8163D02*
D03*
X25335Y-98D02*
D03*
X23819D02*
D03*
X23327Y244D02*
D03*
X23051D02*
D03*
X22736D02*
D03*
X19783Y-98D02*
D03*
X19595Y1476D02*
D03*
Y886D02*
D03*
X28740Y502D02*
D03*
X24320Y1476D02*
D03*
X24641Y385D02*
D03*
X24320Y987D02*
D03*
X30866Y7653D02*
D03*
X6234Y8258D02*
D03*
X10610Y4154D02*
D03*
X10303Y5709D02*
D03*
X9661Y5500D02*
D03*
X4789Y7490D02*
D03*
X18209Y276D02*
D03*
X17703Y502D02*
D03*
X28661Y6392D02*
D03*
X13131Y9046D02*
D03*
X29057Y787D02*
D03*
X17913Y4974D02*
D03*
X7874Y3937D02*
D03*
Y5906D02*
D03*
Y3543D02*
D03*
Y5512D02*
D03*
X13346Y1614D02*
D03*
X13656Y1811D02*
D03*
X11024Y1490D02*
D03*
X11417D02*
D03*
X12638Y1345D02*
D03*
X13594Y8244D02*
D03*
X3081Y12992D02*
D03*
X3937Y10630D02*
D03*
X31094Y3268D02*
D03*
X30416Y3268D02*
D03*
X295Y8248D02*
D03*
X14341Y12028D02*
D03*
X3937Y2756D02*
D03*
X29057Y1400D02*
D03*
X30118Y6989D02*
D03*
X5217Y4809D02*
D03*
X4789Y8258D02*
D03*
X3425Y8184D02*
D03*
X22736Y2096D02*
D03*
X23337D02*
D03*
X22992D02*
D03*
X27904Y2101D02*
D03*
X28248Y2118D02*
D03*
X27657Y2096D02*
D03*
X27286D02*
D03*
X5878Y3131D02*
D03*
X18013Y2100D02*
D03*
X18289Y2098D02*
D03*
X13858Y8898D02*
D03*
X27835Y4620D02*
D03*
X25709D02*
D03*
X27126Y3911D02*
D03*
X26417D02*
D03*
X27948Y246D02*
D03*
X27367Y237D02*
D03*
X27657D02*
D03*
X28445D02*
D03*
X18622Y12415D02*
D03*
X18681Y10935D02*
D03*
X18622Y10289D02*
D03*
Y9581D02*
D03*
X19331Y3911D02*
D03*
X20039D02*
D03*
X20748D02*
D03*
X21457D02*
D03*
X26417Y4620D02*
D03*
X27126D02*
D03*
X28543D02*
D03*
X27835Y3911D02*
D03*
X13142Y12992D02*
D03*
X14488Y8898D02*
D03*
Y10000D02*
D03*
X11567Y12987D02*
D03*
X13858Y10000D02*
D03*
X11556Y9046D02*
D03*
X9970Y9035D02*
D03*
X14717Y11024D02*
D03*
X13799Y12579D02*
D03*
X13142Y11811D02*
D03*
X11567D02*
D03*
X9992Y12992D02*
D03*
Y11811D02*
D03*
M02*
