G04*
G04 #@! TF.GenerationSoftware,Altium Limited,Altium Designer,20.0.13 (296)*
G04*
G04 Layer_Color=255*
%FSLAX25Y25*%
%MOIN*%
G70*
G01*
G75*
G04:AMPARAMS|DCode=20|XSize=23.62mil|YSize=9.45mil|CornerRadius=0.94mil|HoleSize=0mil|Usage=FLASHONLY|Rotation=0.000|XOffset=0mil|YOffset=0mil|HoleType=Round|Shape=RoundedRectangle|*
%AMROUNDEDRECTD20*
21,1,0.02362,0.00756,0,0,0.0*
21,1,0.02173,0.00945,0,0,0.0*
1,1,0.00189,0.01087,-0.00378*
1,1,0.00189,-0.01087,-0.00378*
1,1,0.00189,-0.01087,0.00378*
1,1,0.00189,0.01087,0.00378*
%
%ADD20ROUNDEDRECTD20*%
G04:AMPARAMS|DCode=21|XSize=23.62mil|YSize=9.45mil|CornerRadius=0.94mil|HoleSize=0mil|Usage=FLASHONLY|Rotation=90.000|XOffset=0mil|YOffset=0mil|HoleType=Round|Shape=RoundedRectangle|*
%AMROUNDEDRECTD21*
21,1,0.02362,0.00756,0,0,90.0*
21,1,0.02173,0.00945,0,0,90.0*
1,1,0.00189,0.00378,0.01087*
1,1,0.00189,0.00378,-0.01087*
1,1,0.00189,-0.00378,-0.01087*
1,1,0.00189,-0.00378,0.01087*
%
%ADD21ROUNDEDRECTD21*%
%ADD22R,0.08071X0.12008*%
%ADD23R,0.05709X0.01575*%
%ADD24R,0.01575X0.04921*%
%ADD25R,0.00984X0.02264*%
%ADD26R,0.02756X0.00886*%
%ADD27R,0.00984X0.02165*%
%ADD28R,0.02165X0.00984*%
%ADD29R,0.03937X0.01575*%
%ADD30R,0.00984X0.01968*%
%ADD31R,0.05512X0.05118*%
%ADD32R,0.07874X0.13780*%
%ADD33R,0.01968X0.03150*%
%ADD34R,0.01575X0.01575*%
%ADD35R,0.01575X0.01575*%
%ADD36R,0.05787X0.02913*%
%ADD37R,0.25591X0.12520*%
%ADD38R,0.02047X0.01850*%
%ADD39R,0.11024X0.11024*%
%ADD40R,0.01181X0.01968*%
%ADD41R,0.01968X0.01181*%
%ADD42R,0.01968X0.03937*%
%ADD43R,0.03150X0.01575*%
%ADD44R,0.03937X0.03937*%
%ADD45R,0.02362X0.01968*%
%ADD46R,0.03150X0.03150*%
%ADD47R,0.01968X0.05906*%
%ADD48R,0.01850X0.02047*%
%ADD49R,0.08268X0.11811*%
G04:AMPARAMS|DCode=50|XSize=62.99mil|YSize=31.89mil|CornerRadius=3.19mil|HoleSize=0mil|Usage=FLASHONLY|Rotation=270.000|XOffset=0mil|YOffset=0mil|HoleType=Round|Shape=RoundedRectangle|*
%AMROUNDEDRECTD50*
21,1,0.06299,0.02551,0,0,270.0*
21,1,0.05661,0.03189,0,0,270.0*
1,1,0.00638,-0.01276,-0.02831*
1,1,0.00638,-0.01276,0.02831*
1,1,0.00638,0.01276,0.02831*
1,1,0.00638,0.01276,-0.02831*
%
%ADD50ROUNDEDRECTD50*%
%ADD51R,0.03937X0.07874*%
%ADD52R,0.03937X0.02362*%
%ADD53R,0.07874X0.03937*%
%ADD54C,0.03543*%
%ADD97C,0.02953*%
%ADD101C,0.07087*%
%ADD102R,0.07087X0.07087*%
%ADD103C,0.19685*%
D20*
X627362Y158465D02*
D03*
Y156496D02*
D03*
Y154527D02*
D03*
Y152559D02*
D03*
Y150591D02*
D03*
Y160433D02*
D03*
Y162402D02*
D03*
Y164370D02*
D03*
X640354D02*
D03*
Y162402D02*
D03*
Y160433D02*
D03*
Y150591D02*
D03*
Y152559D02*
D03*
Y154527D02*
D03*
Y156496D02*
D03*
Y158465D02*
D03*
D21*
X630905Y149016D02*
D03*
X636811D02*
D03*
X630905Y165945D02*
D03*
X636811D02*
D03*
D22*
X633858Y157480D02*
D03*
D23*
X557972Y150984D02*
D03*
Y156102D02*
D03*
D24*
X555905Y149311D02*
D03*
Y157776D02*
D03*
D25*
X551673Y147884D02*
D03*
Y159203D02*
D03*
D26*
X550787Y148573D02*
D03*
Y158514D02*
D03*
D27*
X553642Y147933D02*
D03*
Y159153D02*
D03*
D28*
X550492Y150591D02*
D03*
Y152559D02*
D03*
Y154528D02*
D03*
Y156496D02*
D03*
D29*
X556102Y153543D02*
D03*
D30*
X611024Y200394D02*
D03*
X612598D02*
D03*
X614173D02*
D03*
X615748D02*
D03*
X617323D02*
D03*
Y209055D02*
D03*
X615748D02*
D03*
X614173D02*
D03*
X612598D02*
D03*
X611024D02*
D03*
D31*
X614173Y204724D02*
D03*
D32*
X533465Y160492D02*
D03*
X509842D02*
D03*
D33*
X381398Y246457D02*
D03*
X377658D02*
D03*
X385138D02*
D03*
Y237795D02*
D03*
X381398D02*
D03*
X377658D02*
D03*
D34*
X546457Y202264D02*
D03*
Y199311D02*
D03*
D35*
X550000Y200787D02*
D03*
D36*
X31370Y140099D02*
D03*
X44070D02*
D03*
X31370Y145098D02*
D03*
X44070D02*
D03*
X31370Y150099D02*
D03*
X44070D02*
D03*
X31370Y155098D02*
D03*
X44070D02*
D03*
X31370Y160099D02*
D03*
X44070D02*
D03*
X31370Y165099D02*
D03*
X44070D02*
D03*
X31370Y170098D02*
D03*
X44070D02*
D03*
X31370Y175099D02*
D03*
X44070D02*
D03*
X31370Y180098D02*
D03*
X44070D02*
D03*
X31370Y185099D02*
D03*
X44070D02*
D03*
X31370Y190099D02*
D03*
X44070D02*
D03*
X31370Y195098D02*
D03*
X44070D02*
D03*
X31370Y200098D02*
D03*
X44070D02*
D03*
X31370Y205099D02*
D03*
X44070D02*
D03*
X31370Y210099D02*
D03*
X44070D02*
D03*
X31370Y215099D02*
D03*
X44070D02*
D03*
X31370Y220098D02*
D03*
X44070D02*
D03*
X31370Y225098D02*
D03*
X44070D02*
D03*
X31370Y230099D02*
D03*
X44070D02*
D03*
X31370Y235099D02*
D03*
X44070D02*
D03*
X31370Y240099D02*
D03*
X44070D02*
D03*
X31370Y245098D02*
D03*
X44070D02*
D03*
X31370Y250098D02*
D03*
X44070D02*
D03*
X31370Y255099D02*
D03*
X44070D02*
D03*
X31370Y260099D02*
D03*
X44070D02*
D03*
X31370Y265099D02*
D03*
X44070D02*
D03*
X31370Y270098D02*
D03*
X44070D02*
D03*
X31370Y275098D02*
D03*
X44070D02*
D03*
X31370Y280099D02*
D03*
X44070D02*
D03*
X31370Y285099D02*
D03*
X44070D02*
D03*
X267591Y140099D02*
D03*
X280291D02*
D03*
X267591Y145098D02*
D03*
X280291D02*
D03*
X267591Y150099D02*
D03*
X280291D02*
D03*
X267591Y155098D02*
D03*
X280291D02*
D03*
X267591Y160099D02*
D03*
X280291D02*
D03*
X267591Y165099D02*
D03*
X280291D02*
D03*
X267591Y170098D02*
D03*
X280291D02*
D03*
X267591Y175099D02*
D03*
X280291D02*
D03*
X267591Y180098D02*
D03*
X280291D02*
D03*
X267591Y185099D02*
D03*
X280291D02*
D03*
X267591Y190099D02*
D03*
X280291D02*
D03*
X267591Y195098D02*
D03*
X280291D02*
D03*
X267591Y200098D02*
D03*
X280291D02*
D03*
X267591Y205099D02*
D03*
X280291D02*
D03*
X267591Y210099D02*
D03*
X280291D02*
D03*
X267591Y215099D02*
D03*
X280291D02*
D03*
X267591Y220098D02*
D03*
X280291D02*
D03*
X267591Y225098D02*
D03*
X280291D02*
D03*
X267591Y230099D02*
D03*
X280291D02*
D03*
X267591Y235099D02*
D03*
X280291D02*
D03*
X267591Y240099D02*
D03*
X280291D02*
D03*
X267591Y245098D02*
D03*
X280291D02*
D03*
X267591Y250098D02*
D03*
X280291D02*
D03*
X267591Y255099D02*
D03*
X280291D02*
D03*
X267591Y260099D02*
D03*
X280291D02*
D03*
X267591Y265099D02*
D03*
X280291D02*
D03*
X267591Y270098D02*
D03*
X280291D02*
D03*
X267591Y275098D02*
D03*
X280291D02*
D03*
X267591Y280099D02*
D03*
X280291D02*
D03*
X267591Y285099D02*
D03*
X280291D02*
D03*
D37*
X633858Y192126D02*
D03*
Y217323D02*
D03*
D38*
X563976Y262087D02*
D03*
Y265472D02*
D03*
X513386Y241142D02*
D03*
Y244528D02*
D03*
X129500Y95492D02*
D03*
Y98878D02*
D03*
X139232Y104606D02*
D03*
Y107992D02*
D03*
X149232Y104606D02*
D03*
Y107992D02*
D03*
X157000Y95492D02*
D03*
Y98878D02*
D03*
X166791Y104606D02*
D03*
Y107992D02*
D03*
X176791Y104606D02*
D03*
Y107992D02*
D03*
X185000Y95492D02*
D03*
Y98878D02*
D03*
X194350Y104606D02*
D03*
Y107992D02*
D03*
X204350Y104606D02*
D03*
Y107992D02*
D03*
X212500Y95492D02*
D03*
Y98878D02*
D03*
X221909Y104606D02*
D03*
Y107992D02*
D03*
X231909Y104606D02*
D03*
Y107992D02*
D03*
X240000Y95492D02*
D03*
Y98878D02*
D03*
X249468Y104606D02*
D03*
Y107992D02*
D03*
X259469Y104606D02*
D03*
Y107992D02*
D03*
X268000Y95492D02*
D03*
Y98878D02*
D03*
X277028Y104606D02*
D03*
Y107992D02*
D03*
X287028Y104606D02*
D03*
Y107992D02*
D03*
X295500Y95492D02*
D03*
Y98878D02*
D03*
X304587Y104606D02*
D03*
Y107992D02*
D03*
X314587Y104606D02*
D03*
Y107992D02*
D03*
X323000Y95492D02*
D03*
Y98878D02*
D03*
X332146Y104606D02*
D03*
Y107992D02*
D03*
X342146Y104606D02*
D03*
Y107992D02*
D03*
X376500Y95492D02*
D03*
Y98878D02*
D03*
X385295Y104606D02*
D03*
Y107992D02*
D03*
X395295Y104606D02*
D03*
Y107992D02*
D03*
X404000Y95492D02*
D03*
Y98878D02*
D03*
X412854Y104606D02*
D03*
Y107992D02*
D03*
X422854Y104606D02*
D03*
Y107992D02*
D03*
X431500Y95492D02*
D03*
Y98878D02*
D03*
X440413Y104606D02*
D03*
Y107992D02*
D03*
X450413Y104606D02*
D03*
Y107992D02*
D03*
X459000Y95492D02*
D03*
Y98878D02*
D03*
X467973Y104606D02*
D03*
Y107992D02*
D03*
X477973Y104606D02*
D03*
Y107992D02*
D03*
X487000Y95492D02*
D03*
Y98878D02*
D03*
X495532Y104606D02*
D03*
Y107992D02*
D03*
X505532Y104606D02*
D03*
Y107992D02*
D03*
X514000Y95492D02*
D03*
Y98878D02*
D03*
X523091Y104606D02*
D03*
Y107992D02*
D03*
X533091Y104606D02*
D03*
Y107992D02*
D03*
X541500Y95492D02*
D03*
Y98878D02*
D03*
X550650Y104606D02*
D03*
Y107992D02*
D03*
X560650Y104606D02*
D03*
Y107992D02*
D03*
X569500Y95492D02*
D03*
Y98878D02*
D03*
X578209Y104606D02*
D03*
Y107992D02*
D03*
X588209Y104606D02*
D03*
Y107992D02*
D03*
X208244Y229193D02*
D03*
Y232579D02*
D03*
X208244Y275886D02*
D03*
Y272500D02*
D03*
X221000Y275886D02*
D03*
Y272500D02*
D03*
X237693Y275886D02*
D03*
Y272500D02*
D03*
X233756Y275886D02*
D03*
Y272500D02*
D03*
X391240Y256996D02*
D03*
Y260382D02*
D03*
X371555Y237795D02*
D03*
Y241181D02*
D03*
X376476Y256996D02*
D03*
Y260382D02*
D03*
X424311Y245965D02*
D03*
Y242579D02*
D03*
X449705Y245965D02*
D03*
Y242579D02*
D03*
X482776Y253996D02*
D03*
Y257382D02*
D03*
X502165Y173445D02*
D03*
Y170059D02*
D03*
X557596Y174921D02*
D03*
Y171535D02*
D03*
X545276Y157913D02*
D03*
Y154528D02*
D03*
X557596Y132165D02*
D03*
Y135551D02*
D03*
X554119Y132165D02*
D03*
Y135551D02*
D03*
X554120Y174921D02*
D03*
Y171535D02*
D03*
X545276Y174921D02*
D03*
Y171535D02*
D03*
Y147205D02*
D03*
Y150591D02*
D03*
X631890Y88307D02*
D03*
Y84921D02*
D03*
X635827Y88307D02*
D03*
Y84921D02*
D03*
X639764Y88307D02*
D03*
Y84921D02*
D03*
X643701Y88307D02*
D03*
Y84921D02*
D03*
X627953Y88307D02*
D03*
Y84921D02*
D03*
X624016Y88307D02*
D03*
Y84921D02*
D03*
X655890Y62441D02*
D03*
Y59055D02*
D03*
X643701Y124291D02*
D03*
Y127677D02*
D03*
X635827Y124291D02*
D03*
Y127677D02*
D03*
X639764Y124291D02*
D03*
Y127677D02*
D03*
X606299Y209055D02*
D03*
Y205669D02*
D03*
X617323Y218228D02*
D03*
Y214843D02*
D03*
X588583Y196280D02*
D03*
Y199665D02*
D03*
X570866Y202480D02*
D03*
Y199094D02*
D03*
X566929D02*
D03*
Y202480D02*
D03*
X513386D02*
D03*
Y199094D02*
D03*
X543307Y202480D02*
D03*
Y199094D02*
D03*
X396161Y256996D02*
D03*
Y260382D02*
D03*
X434547Y256996D02*
D03*
Y260382D02*
D03*
X439468Y256996D02*
D03*
Y260382D02*
D03*
X477854Y257382D02*
D03*
Y253996D02*
D03*
X651953Y62441D02*
D03*
Y59055D02*
D03*
X131890Y17441D02*
D03*
Y14055D02*
D03*
X134232Y107992D02*
D03*
Y104606D02*
D03*
X144232Y107992D02*
D03*
Y104606D02*
D03*
X159449Y17441D02*
D03*
Y14055D02*
D03*
X161791Y107992D02*
D03*
Y104606D02*
D03*
X171791Y107992D02*
D03*
Y104606D02*
D03*
X187008Y17441D02*
D03*
Y14055D02*
D03*
X189350Y107992D02*
D03*
Y104606D02*
D03*
X199350Y107992D02*
D03*
Y104606D02*
D03*
X214567Y17441D02*
D03*
Y14055D02*
D03*
X216910Y107992D02*
D03*
Y104606D02*
D03*
X226909Y107992D02*
D03*
Y104606D02*
D03*
X242126Y17441D02*
D03*
Y14055D02*
D03*
X244468Y107992D02*
D03*
Y104606D02*
D03*
X254468Y107992D02*
D03*
Y104606D02*
D03*
X269685Y17441D02*
D03*
Y14055D02*
D03*
X272028Y107992D02*
D03*
Y104606D02*
D03*
X282028Y107992D02*
D03*
Y104606D02*
D03*
X297244Y17441D02*
D03*
Y14055D02*
D03*
X299587Y107992D02*
D03*
Y104606D02*
D03*
X309587Y107992D02*
D03*
Y104606D02*
D03*
X324803Y17441D02*
D03*
Y14055D02*
D03*
X327146Y107992D02*
D03*
Y104606D02*
D03*
X337146Y107992D02*
D03*
Y104606D02*
D03*
X377953Y17441D02*
D03*
Y14055D02*
D03*
X380295Y107992D02*
D03*
Y104606D02*
D03*
X390295Y107992D02*
D03*
Y104606D02*
D03*
X405512Y17441D02*
D03*
Y14055D02*
D03*
X407854Y107992D02*
D03*
Y104606D02*
D03*
X417854Y107992D02*
D03*
Y104606D02*
D03*
X433071Y17441D02*
D03*
Y14055D02*
D03*
X435413Y107992D02*
D03*
Y104606D02*
D03*
X445413Y107992D02*
D03*
Y104606D02*
D03*
X460630Y17441D02*
D03*
Y14055D02*
D03*
X462972Y107992D02*
D03*
Y104606D02*
D03*
X472972Y107992D02*
D03*
Y104606D02*
D03*
X488189Y17441D02*
D03*
Y14055D02*
D03*
X490531Y107992D02*
D03*
Y104606D02*
D03*
X500531Y107992D02*
D03*
Y104606D02*
D03*
X515748Y17441D02*
D03*
Y14055D02*
D03*
X518091Y107992D02*
D03*
Y104606D02*
D03*
X528091Y107992D02*
D03*
Y104606D02*
D03*
X543307Y17441D02*
D03*
Y14055D02*
D03*
X545650Y107992D02*
D03*
Y104606D02*
D03*
X555650Y107992D02*
D03*
Y104606D02*
D03*
X570866Y17441D02*
D03*
Y14055D02*
D03*
X573209Y107992D02*
D03*
Y104606D02*
D03*
X583209Y107992D02*
D03*
Y104606D02*
D03*
X386319Y256996D02*
D03*
Y260382D02*
D03*
X381398Y256996D02*
D03*
Y260382D02*
D03*
X401083D02*
D03*
Y256996D02*
D03*
X429626D02*
D03*
Y260382D02*
D03*
X444390Y256996D02*
D03*
Y260382D02*
D03*
X487697Y253996D02*
D03*
Y257382D02*
D03*
X550596Y132165D02*
D03*
Y135551D02*
D03*
X545276D02*
D03*
Y132165D02*
D03*
X550596Y171535D02*
D03*
Y174921D02*
D03*
X561096Y132165D02*
D03*
Y135551D02*
D03*
X614173Y218228D02*
D03*
Y214843D02*
D03*
X617323Y191220D02*
D03*
Y194606D02*
D03*
X614173Y191220D02*
D03*
Y194606D02*
D03*
X631890Y138791D02*
D03*
Y142177D02*
D03*
X635827Y138791D02*
D03*
Y142177D02*
D03*
X509449Y199094D02*
D03*
Y202480D02*
D03*
X553150D02*
D03*
Y199094D02*
D03*
X539370Y202480D02*
D03*
Y199094D02*
D03*
X509449Y226811D02*
D03*
Y223425D02*
D03*
Y214134D02*
D03*
Y217520D02*
D03*
Y244528D02*
D03*
Y241142D02*
D03*
X505512D02*
D03*
Y244528D02*
D03*
X513386Y223425D02*
D03*
Y226811D02*
D03*
Y217520D02*
D03*
Y214134D02*
D03*
D39*
X633858Y106299D02*
D03*
D40*
X637795Y98425D02*
D03*
X635827D02*
D03*
X633858D02*
D03*
X631890D02*
D03*
X629921D02*
D03*
Y114173D02*
D03*
X631890D02*
D03*
X633858D02*
D03*
X635827D02*
D03*
X637795D02*
D03*
D41*
X625984Y102362D02*
D03*
Y104331D02*
D03*
Y106299D02*
D03*
Y108268D02*
D03*
Y110236D02*
D03*
X641732D02*
D03*
Y108268D02*
D03*
Y106299D02*
D03*
Y104331D02*
D03*
Y102362D02*
D03*
D42*
X477854Y239449D02*
D03*
X492421D02*
D03*
X477854Y215827D02*
D03*
X492421D02*
D03*
D43*
X642520Y243996D02*
D03*
Y241437D02*
D03*
Y238878D02*
D03*
Y236319D02*
D03*
X625197D02*
D03*
Y238878D02*
D03*
Y241437D02*
D03*
Y243996D02*
D03*
X445669Y245965D02*
D03*
Y243406D02*
D03*
Y240846D02*
D03*
Y238287D02*
D03*
X428346D02*
D03*
Y240846D02*
D03*
Y243406D02*
D03*
Y245965D02*
D03*
D44*
X586811Y14764D02*
D03*
Y8858D02*
D03*
X576575Y14764D02*
D03*
Y8858D02*
D03*
X147835Y14764D02*
D03*
Y8858D02*
D03*
X137598Y14764D02*
D03*
Y8858D02*
D03*
X175394Y14764D02*
D03*
Y8858D02*
D03*
X165157Y14764D02*
D03*
Y8858D02*
D03*
X202953Y14764D02*
D03*
Y8858D02*
D03*
X192717Y14764D02*
D03*
Y8858D02*
D03*
X230512Y14764D02*
D03*
Y8858D02*
D03*
X220276Y14764D02*
D03*
Y8858D02*
D03*
X258071Y14764D02*
D03*
Y8858D02*
D03*
X247835Y14764D02*
D03*
Y8858D02*
D03*
X285630Y14764D02*
D03*
Y8858D02*
D03*
X275394Y14764D02*
D03*
Y8858D02*
D03*
X313189Y14764D02*
D03*
Y8858D02*
D03*
X302953Y14764D02*
D03*
Y8858D02*
D03*
X340748Y14764D02*
D03*
Y8858D02*
D03*
X330512Y14764D02*
D03*
Y8858D02*
D03*
X393898Y14764D02*
D03*
Y8858D02*
D03*
X383661Y14764D02*
D03*
Y8858D02*
D03*
X421457Y14764D02*
D03*
Y8858D02*
D03*
X411221Y14764D02*
D03*
Y8858D02*
D03*
X449016Y14764D02*
D03*
Y8858D02*
D03*
X438779Y14764D02*
D03*
Y8858D02*
D03*
X476575Y14764D02*
D03*
Y8858D02*
D03*
X466339Y14764D02*
D03*
Y8858D02*
D03*
X504134Y14764D02*
D03*
Y8858D02*
D03*
X493898Y14764D02*
D03*
Y8858D02*
D03*
X531693Y14764D02*
D03*
Y8858D02*
D03*
X521457Y14764D02*
D03*
Y8858D02*
D03*
X559252Y14764D02*
D03*
Y8858D02*
D03*
X549016Y14764D02*
D03*
Y8858D02*
D03*
D45*
X557087Y198937D02*
D03*
Y202480D02*
D03*
D46*
X582677Y196280D02*
D03*
Y202480D02*
D03*
X576772D02*
D03*
Y196280D02*
D03*
D47*
X588209Y76378D02*
D03*
X583209D02*
D03*
X578209D02*
D03*
X573209D02*
D03*
Y96850D02*
D03*
X578209D02*
D03*
X583209D02*
D03*
X588209D02*
D03*
X149232Y76378D02*
D03*
X144232D02*
D03*
X139232D02*
D03*
X134232D02*
D03*
Y96850D02*
D03*
X139232D02*
D03*
X144232D02*
D03*
X149232D02*
D03*
X176791Y76378D02*
D03*
X171791D02*
D03*
X166791D02*
D03*
X161791D02*
D03*
Y96850D02*
D03*
X166791D02*
D03*
X171791D02*
D03*
X176791D02*
D03*
X204350Y76378D02*
D03*
X199350D02*
D03*
X194350D02*
D03*
X189350D02*
D03*
Y96850D02*
D03*
X194350D02*
D03*
X199350D02*
D03*
X204350D02*
D03*
X231909Y76378D02*
D03*
X226909D02*
D03*
X221909D02*
D03*
X216910D02*
D03*
Y96850D02*
D03*
X221909D02*
D03*
X226909D02*
D03*
X231909D02*
D03*
X259469Y76378D02*
D03*
X254468D02*
D03*
X249468D02*
D03*
X244468D02*
D03*
Y96850D02*
D03*
X249468D02*
D03*
X254468D02*
D03*
X259469D02*
D03*
X287028Y76378D02*
D03*
X282028D02*
D03*
X277028D02*
D03*
X272028D02*
D03*
Y96850D02*
D03*
X277028D02*
D03*
X282028D02*
D03*
X287028D02*
D03*
X314587Y76378D02*
D03*
X309587D02*
D03*
X304587D02*
D03*
X299587D02*
D03*
Y96850D02*
D03*
X304587D02*
D03*
X309587D02*
D03*
X314587D02*
D03*
X342146Y76378D02*
D03*
X337146D02*
D03*
X332146D02*
D03*
X327146D02*
D03*
Y96850D02*
D03*
X332146D02*
D03*
X337146D02*
D03*
X342146D02*
D03*
X395295Y76378D02*
D03*
X390295D02*
D03*
X385295D02*
D03*
X380295D02*
D03*
Y96850D02*
D03*
X385295D02*
D03*
X390295D02*
D03*
X395295D02*
D03*
X422854Y76378D02*
D03*
X417854D02*
D03*
X412854D02*
D03*
X407854D02*
D03*
Y96850D02*
D03*
X412854D02*
D03*
X417854D02*
D03*
X422854D02*
D03*
X450413Y76378D02*
D03*
X445413D02*
D03*
X440413D02*
D03*
X435413D02*
D03*
Y96850D02*
D03*
X440413D02*
D03*
X445413D02*
D03*
X450413D02*
D03*
X477972Y76378D02*
D03*
X472972D02*
D03*
X467972D02*
D03*
X462972D02*
D03*
Y96850D02*
D03*
X467972D02*
D03*
X472972D02*
D03*
X477972D02*
D03*
X505532Y76378D02*
D03*
X500531D02*
D03*
X495532D02*
D03*
X490531D02*
D03*
Y96850D02*
D03*
X495532D02*
D03*
X500531D02*
D03*
X505532D02*
D03*
X533090Y76378D02*
D03*
X528090D02*
D03*
X523091D02*
D03*
X518090D02*
D03*
Y96850D02*
D03*
X523091D02*
D03*
X528090D02*
D03*
X533090D02*
D03*
X560650Y76378D02*
D03*
X555650D02*
D03*
X550650D02*
D03*
X545650D02*
D03*
Y96850D02*
D03*
X550650D02*
D03*
X555650D02*
D03*
X560650D02*
D03*
D48*
X352638Y259842D02*
D03*
X356024D02*
D03*
X642520Y248031D02*
D03*
X639134D02*
D03*
X625197D02*
D03*
X628583D02*
D03*
X352638Y255906D02*
D03*
X356024D02*
D03*
X616417Y158465D02*
D03*
X619803D02*
D03*
Y106299D02*
D03*
X616417D02*
D03*
X619803Y110236D02*
D03*
X616417D02*
D03*
X647913Y110236D02*
D03*
X651299D02*
D03*
Y150591D02*
D03*
X647913D02*
D03*
D49*
X419587Y279134D02*
D03*
X454429D02*
D03*
X492815D02*
D03*
X467815D02*
D03*
X381201D02*
D03*
X406201D02*
D03*
X341831D02*
D03*
X366831D02*
D03*
D50*
X429626Y267717D02*
D03*
X434547D02*
D03*
X444390D02*
D03*
X439468D02*
D03*
X482776D02*
D03*
X477854D02*
D03*
X391240D02*
D03*
X396161D02*
D03*
X351870D02*
D03*
X356791D02*
D03*
D51*
X558858Y287402D02*
D03*
X569095D02*
D03*
D52*
X563976Y281496D02*
D03*
D53*
X592520Y157480D02*
D03*
X572835D02*
D03*
X533465Y133858D02*
D03*
X513779D02*
D03*
X592520D02*
D03*
X572835D02*
D03*
D54*
X563976Y247047D02*
D03*
X558071D02*
D03*
X552165D02*
D03*
X546260D02*
D03*
X540354D02*
D03*
X534449D02*
D03*
X528543D02*
D03*
X522638D02*
D03*
X563976Y241142D02*
D03*
X558071D02*
D03*
X552165D02*
D03*
X546260D02*
D03*
X540354D02*
D03*
X534449D02*
D03*
X528543D02*
D03*
X522638D02*
D03*
X563976Y235236D02*
D03*
X558071D02*
D03*
X552165D02*
D03*
X546260D02*
D03*
X540354D02*
D03*
X534449D02*
D03*
X528543D02*
D03*
X522638D02*
D03*
X563976Y229331D02*
D03*
X558071D02*
D03*
X552165D02*
D03*
X546260D02*
D03*
X540354D02*
D03*
X534449D02*
D03*
X528543D02*
D03*
X522638D02*
D03*
X563976Y223425D02*
D03*
X558071D02*
D03*
X552165D02*
D03*
X546260D02*
D03*
X540354D02*
D03*
X534449D02*
D03*
X528543D02*
D03*
X522638D02*
D03*
X558071Y217520D02*
D03*
X552165D02*
D03*
X546260D02*
D03*
X540354D02*
D03*
X534449D02*
D03*
X528543D02*
D03*
X522638D02*
D03*
X563976D02*
D03*
D97*
X671260Y287402D02*
D03*
Y291339D02*
D03*
Y295276D02*
D03*
Y299213D02*
D03*
Y303150D02*
D03*
Y307087D02*
D03*
X-7874Y129921D02*
D03*
Y137795D02*
D03*
Y133858D02*
D03*
Y307087D02*
D03*
Y303150D02*
D03*
Y299213D02*
D03*
Y295276D02*
D03*
Y291339D02*
D03*
Y287402D02*
D03*
X320992Y322835D02*
D03*
X309181D02*
D03*
X313118D02*
D03*
X317055D02*
D03*
X-7874Y11811D02*
D03*
Y7874D02*
D03*
Y125984D02*
D03*
Y141732D02*
D03*
X596583Y322835D02*
D03*
X498158D02*
D03*
X494220D02*
D03*
X490283D02*
D03*
X486346D02*
D03*
X482409D02*
D03*
X399732D02*
D03*
X395795D02*
D03*
X391858D02*
D03*
X387921D02*
D03*
X383984D02*
D03*
X380047D02*
D03*
X376110D02*
D03*
X372173D02*
D03*
X368236D02*
D03*
X364299D02*
D03*
X360362D02*
D03*
X356425D02*
D03*
X403669D02*
D03*
X407606D02*
D03*
X411543D02*
D03*
X415480D02*
D03*
X419417D02*
D03*
X423354D02*
D03*
X427291D02*
D03*
X431228D02*
D03*
X435165D02*
D03*
X439102D02*
D03*
X443039D02*
D03*
X446976D02*
D03*
X450913D02*
D03*
X454850D02*
D03*
X458787D02*
D03*
X462724D02*
D03*
X466661D02*
D03*
X470598D02*
D03*
X474536D02*
D03*
X478473D02*
D03*
X639890D02*
D03*
X635953D02*
D03*
X632016D02*
D03*
X628079D02*
D03*
X624142D02*
D03*
X541465D02*
D03*
X537528D02*
D03*
X533591D02*
D03*
X529654D02*
D03*
X525716D02*
D03*
X521779D02*
D03*
X517842D02*
D03*
X513905D02*
D03*
X509969D02*
D03*
X506032D02*
D03*
X502095D02*
D03*
X545402D02*
D03*
X549339D02*
D03*
X553276D02*
D03*
X557213D02*
D03*
X561150D02*
D03*
X565087D02*
D03*
X569024D02*
D03*
X572961D02*
D03*
X576898D02*
D03*
X580835D02*
D03*
X584772D02*
D03*
X588709D02*
D03*
X592646D02*
D03*
X600520D02*
D03*
X604457D02*
D03*
X608394D02*
D03*
X612331D02*
D03*
X616268D02*
D03*
X620205D02*
D03*
X651701D02*
D03*
X647764D02*
D03*
X643827D02*
D03*
X655638D02*
D03*
X352488D02*
D03*
X348551D02*
D03*
X344614D02*
D03*
X340677D02*
D03*
X336740D02*
D03*
X332803D02*
D03*
X328866D02*
D03*
X324929D02*
D03*
X305244D02*
D03*
X301307D02*
D03*
X297370D02*
D03*
X293433D02*
D03*
X289496D02*
D03*
X285559D02*
D03*
X242252D02*
D03*
X246189D02*
D03*
X250126D02*
D03*
X254063D02*
D03*
X258000D02*
D03*
X261937D02*
D03*
X265874D02*
D03*
X269811D02*
D03*
X273748D02*
D03*
X277685D02*
D03*
X281622D02*
D03*
X218630D02*
D03*
X214693D02*
D03*
X210756D02*
D03*
X206819D02*
D03*
X202882D02*
D03*
X198945D02*
D03*
X195008D02*
D03*
X191071D02*
D03*
X187134D02*
D03*
X183197D02*
D03*
X179260D02*
D03*
X175323D02*
D03*
X171386D02*
D03*
X222567D02*
D03*
X226504D02*
D03*
X230441D02*
D03*
X234378D02*
D03*
X238315D02*
D03*
X167449D02*
D03*
X163512D02*
D03*
X159575D02*
D03*
X155638D02*
D03*
X151701D02*
D03*
X147764D02*
D03*
X143827D02*
D03*
X139890D02*
D03*
X135953D02*
D03*
X132016D02*
D03*
X128079D02*
D03*
X124142D02*
D03*
X120205D02*
D03*
X116268D02*
D03*
X112331D02*
D03*
X108394D02*
D03*
X104457D02*
D03*
X100520D02*
D03*
X92646D02*
D03*
X96583D02*
D03*
X49338D02*
D03*
X45401D02*
D03*
X53276D02*
D03*
X57213D02*
D03*
X61150D02*
D03*
X65087D02*
D03*
X69024D02*
D03*
X72961D02*
D03*
X76898D02*
D03*
X80835D02*
D03*
X84772D02*
D03*
X88709D02*
D03*
X9968D02*
D03*
X13905D02*
D03*
X17842D02*
D03*
X21779D02*
D03*
X25717D02*
D03*
X29653D02*
D03*
X33590D02*
D03*
X37527D02*
D03*
X41464D02*
D03*
X621921Y-7874D02*
D03*
X625858D02*
D03*
X629795D02*
D03*
X633732D02*
D03*
X637669D02*
D03*
X641606D02*
D03*
X645543D02*
D03*
X649480D02*
D03*
X653417D02*
D03*
X574677D02*
D03*
X578614D02*
D03*
X582551D02*
D03*
X586488D02*
D03*
X590425D02*
D03*
X594362D02*
D03*
X598299D02*
D03*
X602236D02*
D03*
X606173D02*
D03*
X610110D02*
D03*
X617984D02*
D03*
X614047D02*
D03*
X671260Y283465D02*
D03*
Y279528D02*
D03*
Y275590D02*
D03*
Y271654D02*
D03*
Y267717D02*
D03*
Y185039D02*
D03*
Y181102D02*
D03*
Y177165D02*
D03*
Y173228D02*
D03*
Y169291D02*
D03*
Y165354D02*
D03*
Y161417D02*
D03*
Y157480D02*
D03*
Y153543D02*
D03*
Y149606D02*
D03*
Y145669D02*
D03*
Y141732D02*
D03*
Y188976D02*
D03*
Y192913D02*
D03*
Y196850D02*
D03*
Y200787D02*
D03*
Y204724D02*
D03*
Y208661D02*
D03*
Y212598D02*
D03*
Y216535D02*
D03*
Y220472D02*
D03*
Y224410D02*
D03*
Y228346D02*
D03*
Y232283D02*
D03*
Y236221D02*
D03*
Y240158D02*
D03*
Y244094D02*
D03*
Y248031D02*
D03*
Y251969D02*
D03*
Y255906D02*
D03*
Y259842D02*
D03*
Y263779D02*
D03*
Y137795D02*
D03*
Y133858D02*
D03*
Y129921D02*
D03*
Y125984D02*
D03*
Y122047D02*
D03*
Y74803D02*
D03*
Y78740D02*
D03*
Y82677D02*
D03*
Y86614D02*
D03*
Y90551D02*
D03*
Y94488D02*
D03*
Y98425D02*
D03*
Y102362D02*
D03*
Y106299D02*
D03*
Y110236D02*
D03*
Y114173D02*
D03*
Y118110D02*
D03*
Y70866D02*
D03*
Y66929D02*
D03*
Y62992D02*
D03*
Y59055D02*
D03*
Y55118D02*
D03*
Y7874D02*
D03*
Y11811D02*
D03*
Y15748D02*
D03*
Y19685D02*
D03*
Y23622D02*
D03*
Y27559D02*
D03*
Y31496D02*
D03*
Y35433D02*
D03*
Y39370D02*
D03*
Y43307D02*
D03*
Y47244D02*
D03*
Y51181D02*
D03*
X-7874Y240158D02*
D03*
Y244094D02*
D03*
Y248031D02*
D03*
Y251969D02*
D03*
Y255906D02*
D03*
Y259842D02*
D03*
Y263779D02*
D03*
Y267717D02*
D03*
Y271654D02*
D03*
Y275591D02*
D03*
Y279528D02*
D03*
Y283465D02*
D03*
Y236221D02*
D03*
Y232283D02*
D03*
Y228346D02*
D03*
Y224410D02*
D03*
Y220472D02*
D03*
Y173228D02*
D03*
Y177165D02*
D03*
Y181102D02*
D03*
Y185039D02*
D03*
Y188976D02*
D03*
Y192913D02*
D03*
Y196850D02*
D03*
Y200787D02*
D03*
Y204724D02*
D03*
Y208661D02*
D03*
Y212598D02*
D03*
Y216535D02*
D03*
Y169291D02*
D03*
Y165354D02*
D03*
Y161417D02*
D03*
Y157480D02*
D03*
Y153543D02*
D03*
Y27559D02*
D03*
Y31496D02*
D03*
Y35433D02*
D03*
Y39370D02*
D03*
Y43307D02*
D03*
Y47244D02*
D03*
Y51181D02*
D03*
Y55118D02*
D03*
Y59055D02*
D03*
Y62992D02*
D03*
Y66929D02*
D03*
Y70866D02*
D03*
Y74803D02*
D03*
Y78740D02*
D03*
Y82677D02*
D03*
Y86614D02*
D03*
Y90551D02*
D03*
Y94488D02*
D03*
Y98425D02*
D03*
Y102362D02*
D03*
Y149606D02*
D03*
Y145669D02*
D03*
Y122047D02*
D03*
Y118110D02*
D03*
Y114173D02*
D03*
Y110236D02*
D03*
Y106299D02*
D03*
Y23622D02*
D03*
Y19685D02*
D03*
Y15748D02*
D03*
X566803Y-7874D02*
D03*
X570740D02*
D03*
X562866D02*
D03*
X558929D02*
D03*
X554992D02*
D03*
X551055D02*
D03*
X547118D02*
D03*
X543181D02*
D03*
X539244D02*
D03*
X535307D02*
D03*
X531370D02*
D03*
X527433D02*
D03*
X523496D02*
D03*
X519559D02*
D03*
X515622D02*
D03*
X511685D02*
D03*
X507748D02*
D03*
X503811D02*
D03*
X499874D02*
D03*
X495937D02*
D03*
X425071D02*
D03*
X429008D02*
D03*
X432945D02*
D03*
X436882D02*
D03*
X440819D02*
D03*
X492000D02*
D03*
X488063D02*
D03*
X484126D02*
D03*
X480189D02*
D03*
X476252D02*
D03*
X472315D02*
D03*
X468378D02*
D03*
X464441D02*
D03*
X460504D02*
D03*
X456567D02*
D03*
X452630D02*
D03*
X448693D02*
D03*
X444756D02*
D03*
X381764D02*
D03*
X385701D02*
D03*
X389638D02*
D03*
X393575D02*
D03*
X397512D02*
D03*
X401449D02*
D03*
X405386D02*
D03*
X409323D02*
D03*
X413260D02*
D03*
X417197D02*
D03*
X421134D02*
D03*
X377827D02*
D03*
X373890D02*
D03*
X369953D02*
D03*
X350268D02*
D03*
X346331D02*
D03*
X342394D02*
D03*
X338457D02*
D03*
X334520D02*
D03*
X330583D02*
D03*
X326646D02*
D03*
X322709D02*
D03*
X318772D02*
D03*
X314835D02*
D03*
X310898D02*
D03*
X7748D02*
D03*
X19559D02*
D03*
X15622D02*
D03*
X11685D02*
D03*
X43181D02*
D03*
X47118D02*
D03*
X51055D02*
D03*
X54992D02*
D03*
X58929D02*
D03*
X62866D02*
D03*
X66803D02*
D03*
X70740D02*
D03*
X74677D02*
D03*
X78614D02*
D03*
X82551D02*
D03*
X86488D02*
D03*
X90425D02*
D03*
X94362D02*
D03*
X98299D02*
D03*
X102236D02*
D03*
X106173D02*
D03*
X110110D02*
D03*
X114047D02*
D03*
X117984D02*
D03*
X161291D02*
D03*
X157354D02*
D03*
X153417D02*
D03*
X149480D02*
D03*
X145543D02*
D03*
X141606D02*
D03*
X137669D02*
D03*
X133732D02*
D03*
X129795D02*
D03*
X125858D02*
D03*
X121921D02*
D03*
X39244D02*
D03*
X35307D02*
D03*
X31370D02*
D03*
X27433D02*
D03*
X23496D02*
D03*
X184913D02*
D03*
X188850D02*
D03*
X192787D02*
D03*
X196724D02*
D03*
X200661D02*
D03*
X204598D02*
D03*
X208535D02*
D03*
X212472D02*
D03*
X216409D02*
D03*
X220346D02*
D03*
X224284D02*
D03*
X228221D02*
D03*
X232157D02*
D03*
X236094D02*
D03*
X240032D02*
D03*
X243969D02*
D03*
X247905D02*
D03*
X251842D02*
D03*
X255780D02*
D03*
X259717D02*
D03*
X306961D02*
D03*
X303024D02*
D03*
X299087D02*
D03*
X295150D02*
D03*
X291213D02*
D03*
X287276D02*
D03*
X283339D02*
D03*
X279402D02*
D03*
X275465D02*
D03*
X271528D02*
D03*
X267590D02*
D03*
X263653D02*
D03*
X180976D02*
D03*
X177039D02*
D03*
X173102D02*
D03*
X169165D02*
D03*
X165228D02*
D03*
D101*
X588583Y39370D02*
D03*
X574803Y59055D02*
D03*
X561024Y39370D02*
D03*
X547244Y59055D02*
D03*
X533465Y39370D02*
D03*
X519685Y59055D02*
D03*
X505905Y39370D02*
D03*
X492126Y59055D02*
D03*
X478346Y39370D02*
D03*
X464567Y59055D02*
D03*
X450787Y39370D02*
D03*
X437008Y59055D02*
D03*
X423228Y39370D02*
D03*
X409449Y59055D02*
D03*
X395669Y39370D02*
D03*
X41339D02*
D03*
X55118Y59055D02*
D03*
X68898Y39370D02*
D03*
X82677Y59055D02*
D03*
X96457Y39370D02*
D03*
X641732D02*
D03*
X342520D02*
D03*
X328740Y59055D02*
D03*
X314961Y39370D02*
D03*
X301181Y59055D02*
D03*
X287402Y39370D02*
D03*
X273622Y59055D02*
D03*
X259842Y39370D02*
D03*
X246063Y59055D02*
D03*
X232283Y39370D02*
D03*
X218504Y59055D02*
D03*
X204724Y39370D02*
D03*
X190945Y59055D02*
D03*
X177165Y39370D02*
D03*
X163386Y59055D02*
D03*
X149606Y39370D02*
D03*
D102*
X381890Y59055D02*
D03*
X27559D02*
D03*
X627953D02*
D03*
X135827D02*
D03*
D103*
X0Y314961D02*
D03*
X360236Y0D02*
D03*
X663386Y314961D02*
D03*
Y0D02*
D03*
X0D02*
D03*
M02*
