G04*
G04 #@! TF.GenerationSoftware,Altium Limited,Altium Designer,20.0.13 (296)*
G04*
G04 Layer_Color=8388736*
%FSLAX25Y25*%
%MOIN*%
G70*
G01*
G75*
%ADD18C,0.00197*%
D18*
X561018Y146643D02*
Y160443D01*
X549218Y146643D02*
Y160443D01*
X561018D01*
X549218Y146643D02*
X561018D01*
X620858Y180724D02*
Y228824D01*
X646858D01*
X620858Y180724D02*
X646858D01*
Y228824D01*
X562402Y260827D02*
Y266732D01*
X565551Y260827D02*
Y266732D01*
X562402Y260827D02*
X565551D01*
X562402Y266732D02*
X565551D01*
X574293Y6111D02*
Y17511D01*
X589093Y6111D02*
Y17511D01*
X574293Y6111D02*
X589093D01*
X574293Y17511D02*
X589093D01*
X555512Y197756D02*
Y203661D01*
X558661Y197756D02*
Y203661D01*
X555512Y197756D02*
X558661D01*
X555512Y203661D02*
X558661D01*
X580977Y204180D02*
X584377D01*
X580977Y194580D02*
Y204180D01*
X584377Y194580D02*
Y204180D01*
X580977Y194580D02*
X584377D01*
X351378Y258268D02*
Y261417D01*
X357283Y258268D02*
Y261417D01*
X351378D02*
X357283D01*
X351378Y258268D02*
X357283D01*
X456929Y267354D02*
Y287653D01*
X417126Y267354D02*
Y287653D01*
Y267354D02*
X456929D01*
X417126Y287653D02*
X456929D01*
X495315Y267354D02*
Y287653D01*
X465215Y267354D02*
Y287653D01*
Y267354D02*
X495315D01*
X465215Y287653D02*
X495315D01*
X558176Y281302D02*
Y293502D01*
X569876Y281302D02*
Y293502D01*
X558176D02*
X569876D01*
X558176Y281302D02*
X569876D01*
X575072Y194580D02*
X578472D01*
Y204180D01*
X575072Y194580D02*
Y204180D01*
X578472D01*
X511811Y239882D02*
X514961D01*
X511811Y245787D02*
X514961D01*
X511811Y239882D02*
Y245787D01*
X514961Y239882D02*
Y245787D01*
X127925Y94232D02*
Y100138D01*
X131075Y94232D02*
Y100138D01*
X127925Y94232D02*
X131075D01*
X127925Y100138D02*
X131075D01*
X137657Y103347D02*
Y109252D01*
X140807Y103347D02*
Y109252D01*
X137657Y103347D02*
X140807D01*
X137657Y109252D02*
X140807D01*
X147658Y103347D02*
Y109252D01*
X150807Y103347D02*
Y109252D01*
X147658Y103347D02*
X150807D01*
X147658Y109252D02*
X150807D01*
X155425Y94232D02*
Y100138D01*
X158575Y94232D02*
Y100138D01*
X155425Y94232D02*
X158575D01*
X155425Y100138D02*
X158575D01*
X165217Y103347D02*
Y109252D01*
X168366Y103347D02*
Y109252D01*
X165217Y103347D02*
X168366D01*
X165217Y109252D02*
X168366D01*
X175217Y103347D02*
Y109252D01*
X178366Y103347D02*
Y109252D01*
X175217Y103347D02*
X178366D01*
X175217Y109252D02*
X178366D01*
X183425Y94232D02*
Y100138D01*
X186575Y94232D02*
Y100138D01*
X183425Y94232D02*
X186575D01*
X183425Y100138D02*
X186575D01*
X192776Y103347D02*
Y109252D01*
X195925Y103347D02*
Y109252D01*
X192776Y103347D02*
X195925D01*
X192776Y109252D02*
X195925D01*
X202776Y103347D02*
Y109252D01*
X205925Y103347D02*
Y109252D01*
X202776Y103347D02*
X205925D01*
X202776Y109252D02*
X205925D01*
X210925Y94232D02*
Y100138D01*
X214075Y94232D02*
Y100138D01*
X210925Y94232D02*
X214075D01*
X210925Y100138D02*
X214075D01*
X220335Y103347D02*
Y109252D01*
X223484Y103347D02*
Y109252D01*
X220335Y103347D02*
X223484D01*
X220335Y109252D02*
X223484D01*
X230335Y103347D02*
Y109252D01*
X233484Y103347D02*
Y109252D01*
X230335Y103347D02*
X233484D01*
X230335Y109252D02*
X233484D01*
X238425Y94232D02*
Y100138D01*
X241575Y94232D02*
Y100138D01*
X238425Y94232D02*
X241575D01*
X238425Y100138D02*
X241575D01*
X247894Y103347D02*
Y109252D01*
X251043Y103347D02*
Y109252D01*
X247894Y103347D02*
X251043D01*
X247894Y109252D02*
X251043D01*
X257894Y103347D02*
Y109252D01*
X261043Y103347D02*
Y109252D01*
X257894Y103347D02*
X261043D01*
X257894Y109252D02*
X261043D01*
X266425Y94232D02*
Y100138D01*
X269575Y94232D02*
Y100138D01*
X266425Y94232D02*
X269575D01*
X266425Y100138D02*
X269575D01*
X275453Y103347D02*
Y109252D01*
X278602Y103347D02*
Y109252D01*
X275453Y103347D02*
X278602D01*
X275453Y109252D02*
X278602D01*
X285453Y103347D02*
Y109252D01*
X288602Y103347D02*
Y109252D01*
X285453Y103347D02*
X288602D01*
X285453Y109252D02*
X288602D01*
X293925Y94232D02*
Y100138D01*
X297075Y94232D02*
Y100138D01*
X293925Y94232D02*
X297075D01*
X293925Y100138D02*
X297075D01*
X303012Y103347D02*
Y109252D01*
X306161Y103347D02*
Y109252D01*
X303012Y103347D02*
X306161D01*
X303012Y109252D02*
X306161D01*
X313012Y103347D02*
Y109252D01*
X316161Y103347D02*
Y109252D01*
X313012Y103347D02*
X316161D01*
X313012Y109252D02*
X316161D01*
X321425Y94232D02*
Y100138D01*
X324575Y94232D02*
Y100138D01*
X321425Y94232D02*
X324575D01*
X321425Y100138D02*
X324575D01*
X330571Y103347D02*
Y109252D01*
X333720Y103347D02*
Y109252D01*
X330571Y103347D02*
X333720D01*
X330571Y109252D02*
X333720D01*
X340571Y103347D02*
Y109252D01*
X343721Y103347D02*
Y109252D01*
X340571Y103347D02*
X343721D01*
X340571Y109252D02*
X343721D01*
X374925Y94232D02*
Y100138D01*
X378075Y94232D02*
Y100138D01*
X374925Y94232D02*
X378075D01*
X374925Y100138D02*
X378075D01*
X383720Y103347D02*
Y109252D01*
X386870Y103347D02*
Y109252D01*
X383720Y103347D02*
X386870D01*
X383720Y109252D02*
X386870D01*
X393721Y103347D02*
Y109252D01*
X396870Y103347D02*
Y109252D01*
X393721Y103347D02*
X396870D01*
X393721Y109252D02*
X396870D01*
X402425Y94232D02*
Y100138D01*
X405575Y94232D02*
Y100138D01*
X402425Y94232D02*
X405575D01*
X402425Y100138D02*
X405575D01*
X411279Y103347D02*
Y109252D01*
X414429Y103347D02*
Y109252D01*
X411279Y103347D02*
X414429D01*
X411279Y109252D02*
X414429D01*
X421279Y103347D02*
Y109252D01*
X424429Y103347D02*
Y109252D01*
X421279Y103347D02*
X424429D01*
X421279Y109252D02*
X424429D01*
X429925Y94232D02*
Y100138D01*
X433075Y94232D02*
Y100138D01*
X429925Y94232D02*
X433075D01*
X429925Y100138D02*
X433075D01*
X438839Y103347D02*
Y109252D01*
X441988Y103347D02*
Y109252D01*
X438839Y103347D02*
X441988D01*
X438839Y109252D02*
X441988D01*
X448839Y103347D02*
Y109252D01*
X451988Y103347D02*
Y109252D01*
X448839Y103347D02*
X451988D01*
X448839Y109252D02*
X451988D01*
X457425Y94232D02*
Y100138D01*
X460575Y94232D02*
Y100138D01*
X457425Y94232D02*
X460575D01*
X457425Y100138D02*
X460575D01*
X466398Y103347D02*
Y109252D01*
X469547Y103347D02*
Y109252D01*
X466398Y103347D02*
X469547D01*
X466398Y109252D02*
X469547D01*
X476398Y103347D02*
Y109252D01*
X479547Y103347D02*
Y109252D01*
X476398Y103347D02*
X479547D01*
X476398Y109252D02*
X479547D01*
X485425Y94232D02*
Y100138D01*
X488575Y94232D02*
Y100138D01*
X485425Y94232D02*
X488575D01*
X485425Y100138D02*
X488575D01*
X493957Y103347D02*
Y109252D01*
X497106Y103347D02*
Y109252D01*
X493957Y103347D02*
X497106D01*
X493957Y109252D02*
X497106D01*
X503957Y103347D02*
Y109252D01*
X507106Y103347D02*
Y109252D01*
X503957Y103347D02*
X507106D01*
X503957Y109252D02*
X507106D01*
X512425Y94232D02*
Y100138D01*
X515575Y94232D02*
Y100138D01*
X512425Y94232D02*
X515575D01*
X512425Y100138D02*
X515575D01*
X521516Y103347D02*
Y109252D01*
X524665Y103347D02*
Y109252D01*
X521516Y103347D02*
X524665D01*
X521516Y109252D02*
X524665D01*
X531516Y103347D02*
Y109252D01*
X534665Y103347D02*
Y109252D01*
X531516Y103347D02*
X534665D01*
X531516Y109252D02*
X534665D01*
X539925Y94232D02*
Y100138D01*
X543075Y94232D02*
Y100138D01*
X539925Y94232D02*
X543075D01*
X539925Y100138D02*
X543075D01*
X549075Y103347D02*
Y109252D01*
X552224Y103347D02*
Y109252D01*
X549075Y103347D02*
X552224D01*
X549075Y109252D02*
X552224D01*
X559075Y103347D02*
Y109252D01*
X562224Y103347D02*
Y109252D01*
X559075Y103347D02*
X562224D01*
X559075Y109252D02*
X562224D01*
X567925Y94232D02*
Y100138D01*
X571075Y94232D02*
Y100138D01*
X567925Y94232D02*
X571075D01*
X567925Y100138D02*
X571075D01*
X576634Y103347D02*
Y109252D01*
X579783Y103347D02*
Y109252D01*
X576634Y103347D02*
X579783D01*
X576634Y109252D02*
X579783D01*
X586634Y103347D02*
Y109252D01*
X589783Y103347D02*
Y109252D01*
X586634Y103347D02*
X589783D01*
X586634Y109252D02*
X589783D01*
X206669Y227933D02*
Y233839D01*
X209819Y227933D02*
Y233839D01*
X206669Y227933D02*
X209819D01*
X206669Y233839D02*
X209819D01*
X209819Y271240D02*
Y277146D01*
X206669Y271240D02*
Y277146D01*
X209819D01*
X206669Y271240D02*
X209819D01*
X222575D02*
Y277146D01*
X219425Y271240D02*
Y277146D01*
X222575D01*
X219425Y271240D02*
X222575D01*
X239268D02*
Y277146D01*
X236118Y271240D02*
Y277146D01*
X239268D01*
X236118Y271240D02*
X239268D01*
X235331D02*
Y277146D01*
X232181Y271240D02*
Y277146D01*
X235331D01*
X232181Y271240D02*
X235331D01*
X389665Y255736D02*
X392815D01*
X389665Y261642D02*
X392815D01*
X389665Y255736D02*
Y261642D01*
X392815Y255736D02*
Y261642D01*
X369980Y236535D02*
X373130D01*
X369980Y242441D02*
X373130D01*
X369980Y236535D02*
Y242441D01*
X373130Y236535D02*
Y242441D01*
X374902Y255736D02*
X378051D01*
X374902Y261642D02*
X378051D01*
X374902Y255736D02*
Y261642D01*
X378051Y255736D02*
Y261642D01*
X422736Y247224D02*
X425886D01*
X422736Y241319D02*
X425886D01*
Y247224D01*
X422736Y241319D02*
Y247224D01*
X448130D02*
X451279D01*
X448130Y241319D02*
X451279D01*
Y247224D01*
X448130Y241319D02*
Y247224D01*
X481201Y252736D02*
Y258642D01*
X484350Y252736D02*
Y258642D01*
X481201Y252736D02*
X484350D01*
X481201Y258642D02*
X484350D01*
X500591Y174705D02*
X503740D01*
X500591Y168799D02*
X503740D01*
Y174705D01*
X500591Y168799D02*
Y174705D01*
X556021Y176181D02*
X559171D01*
X556021Y170276D02*
X559171D01*
Y176181D01*
X556021Y170276D02*
Y176181D01*
X543701Y159173D02*
X546850D01*
X543701Y153268D02*
X546850D01*
Y159173D01*
X543701Y153268D02*
Y159173D01*
X556021Y130905D02*
X559171D01*
X556021Y136811D02*
X559171D01*
X556021Y130905D02*
Y136811D01*
X559171Y130905D02*
Y136811D01*
X552545Y130905D02*
X555694D01*
X552545Y136811D02*
X555694D01*
X552545Y130905D02*
Y136811D01*
X555694Y130905D02*
Y136811D01*
X552545Y176181D02*
X555694D01*
X552545Y170276D02*
X555694D01*
Y176181D01*
X552545Y170276D02*
Y176181D01*
X543701D02*
X546850D01*
X543701Y170276D02*
X546850D01*
Y176181D01*
X543701Y170276D02*
Y176181D01*
Y145945D02*
X546850D01*
X543701Y151850D02*
X546850D01*
X543701Y145945D02*
Y151850D01*
X546850Y145945D02*
Y151850D01*
X630315Y89567D02*
X633465D01*
X630315Y83661D02*
X633465D01*
Y89567D01*
X630315Y83661D02*
Y89567D01*
X634252D02*
X637402D01*
X634252Y83661D02*
X637402D01*
Y89567D01*
X634252Y83661D02*
Y89567D01*
X638189D02*
X641339D01*
X638189Y83661D02*
X641339D01*
Y89567D01*
X638189Y83661D02*
Y89567D01*
X642126D02*
X645276D01*
X642126Y83661D02*
X645276D01*
Y89567D01*
X642126Y83661D02*
Y89567D01*
X626378D02*
X629528D01*
X626378Y83661D02*
X629528D01*
Y89567D01*
X626378Y83661D02*
Y89567D01*
X622441D02*
X625591D01*
X622441Y83661D02*
X625591D01*
Y89567D01*
X622441Y83661D02*
Y89567D01*
X654315Y63701D02*
X657465D01*
X654315Y57795D02*
X657465D01*
Y63701D01*
X654315Y57795D02*
Y63701D01*
X642126Y123031D02*
X645276D01*
X642126Y128937D02*
X645276D01*
X642126Y123031D02*
Y128937D01*
X645276Y123031D02*
Y128937D01*
X634252Y123031D02*
X637402D01*
X634252Y128937D02*
X637402D01*
X634252Y123031D02*
Y128937D01*
X637402Y123031D02*
Y128937D01*
X638189Y123031D02*
X641339D01*
X638189Y128937D02*
X641339D01*
X638189Y123031D02*
Y128937D01*
X641339Y123031D02*
Y128937D01*
X604724Y210315D02*
X607874D01*
X604724Y204409D02*
X607874D01*
Y210315D01*
X604724Y204409D02*
Y210315D01*
X643780Y246457D02*
Y249606D01*
X637874Y246457D02*
Y249606D01*
Y246457D02*
X643780D01*
X637874Y249606D02*
X643780D01*
X623937Y246457D02*
Y249606D01*
X629843Y246457D02*
Y249606D01*
X623937D02*
X629843D01*
X623937Y246457D02*
X629843D01*
X351378Y254331D02*
Y257480D01*
X357283Y254331D02*
Y257480D01*
X351378D02*
X357283D01*
X351378Y254331D02*
X357283D01*
X615748Y219488D02*
X618898D01*
X615748Y213583D02*
X618898D01*
Y219488D01*
X615748Y213583D02*
Y219488D01*
X615158Y156890D02*
Y160039D01*
X621063Y156890D02*
Y160039D01*
X615158D02*
X621063D01*
X615158Y156890D02*
X621063D01*
X587008Y195020D02*
X590158D01*
X587008Y200925D02*
X590158D01*
X587008Y195020D02*
Y200925D01*
X590158Y195020D02*
Y200925D01*
X569291Y203740D02*
X572441D01*
X569291Y197835D02*
X572441D01*
Y203740D01*
X569291Y197835D02*
Y203740D01*
X565354Y197835D02*
X568504D01*
X565354Y203740D02*
X568504D01*
X565354Y197835D02*
Y203740D01*
X568504Y197835D02*
Y203740D01*
X511811D02*
X514961D01*
X511811Y197835D02*
X514961D01*
Y203740D01*
X511811Y197835D02*
Y203740D01*
X541732D02*
X544882D01*
X541732Y197835D02*
X544882D01*
Y203740D01*
X541732Y197835D02*
Y203740D01*
X135317Y6111D02*
Y17511D01*
X150117Y6111D02*
Y17511D01*
X135317Y6111D02*
X150117D01*
X135317Y17511D02*
X150117D01*
X162876Y6111D02*
Y17511D01*
X177676Y6111D02*
Y17511D01*
X162876Y6111D02*
X177676D01*
X162876Y17511D02*
X177676D01*
X190435Y6111D02*
Y17511D01*
X205235Y6111D02*
Y17511D01*
X190435Y6111D02*
X205235D01*
X190435Y17511D02*
X205235D01*
X217994Y6111D02*
Y17511D01*
X232794Y6111D02*
Y17511D01*
X217994Y6111D02*
X232794D01*
X217994Y17511D02*
X232794D01*
X245553Y6111D02*
Y17511D01*
X260353Y6111D02*
Y17511D01*
X245553Y6111D02*
X260353D01*
X245553Y17511D02*
X260353D01*
X273112Y6111D02*
Y17511D01*
X287912Y6111D02*
Y17511D01*
X273112Y6111D02*
X287912D01*
X273112Y17511D02*
X287912D01*
X300671Y6111D02*
Y17511D01*
X315471Y6111D02*
Y17511D01*
X300671Y6111D02*
X315471D01*
X300671Y17511D02*
X315471D01*
X328230Y6111D02*
Y17511D01*
X343030Y6111D02*
Y17511D01*
X328230Y6111D02*
X343030D01*
X328230Y17511D02*
X343030D01*
X381380Y6111D02*
Y17511D01*
X396180Y6111D02*
Y17511D01*
X381380Y6111D02*
X396180D01*
X381380Y17511D02*
X396180D01*
X408939Y6111D02*
Y17511D01*
X423739Y6111D02*
Y17511D01*
X408939Y6111D02*
X423739D01*
X408939Y17511D02*
X423739D01*
X436498Y6111D02*
Y17511D01*
X451298Y6111D02*
Y17511D01*
X436498Y6111D02*
X451298D01*
X436498Y17511D02*
X451298D01*
X464057Y6111D02*
Y17511D01*
X478857Y6111D02*
Y17511D01*
X464057Y6111D02*
X478857D01*
X464057Y17511D02*
X478857D01*
X491616Y6111D02*
Y17511D01*
X506416Y6111D02*
Y17511D01*
X491616Y6111D02*
X506416D01*
X491616Y17511D02*
X506416D01*
X519175Y6111D02*
Y17511D01*
X533975Y6111D02*
Y17511D01*
X519175Y6111D02*
X533975D01*
X519175Y17511D02*
X533975D01*
X546734Y6111D02*
Y17511D01*
X561534Y6111D02*
Y17511D01*
X546734Y6111D02*
X561534D01*
X546734Y17511D02*
X561534D01*
X394587Y255736D02*
X397736D01*
X394587Y261642D02*
X397736D01*
X394587Y255736D02*
Y261642D01*
X397736Y255736D02*
Y261642D01*
X432972Y255736D02*
X436122D01*
X432972Y261642D02*
X436122D01*
X432972Y255736D02*
Y261642D01*
X436122Y255736D02*
Y261642D01*
X437894Y255736D02*
X441043D01*
X437894Y261642D02*
X441043D01*
X437894Y255736D02*
Y261642D01*
X441043Y255736D02*
Y261642D01*
X479429Y252736D02*
Y258642D01*
X476279Y252736D02*
Y258642D01*
X479429D01*
X476279Y252736D02*
X479429D01*
X650378Y63701D02*
X653528D01*
X650378Y57795D02*
X653528D01*
Y63701D01*
X650378Y57795D02*
Y63701D01*
X378601Y287653D02*
X408701D01*
X378601Y267354D02*
X408701D01*
X378601D02*
Y287653D01*
X408701Y267354D02*
Y287653D01*
X339231D02*
X369331D01*
X339231Y267354D02*
X369331D01*
X339231D02*
Y287653D01*
X369331Y267354D02*
Y287653D01*
X130315Y18701D02*
X133465D01*
X130315Y12795D02*
X133465D01*
Y18701D01*
X130315Y12795D02*
Y18701D01*
X132658Y109252D02*
X135807D01*
X132658Y103347D02*
X135807D01*
Y109252D01*
X132658Y103347D02*
Y109252D01*
X142657D02*
X145807D01*
X142657Y103347D02*
X145807D01*
Y109252D01*
X142657Y103347D02*
Y109252D01*
X157874Y18701D02*
X161024D01*
X157874Y12795D02*
X161024D01*
Y18701D01*
X157874Y12795D02*
Y18701D01*
X160217Y109252D02*
X163366D01*
X160217Y103347D02*
X163366D01*
Y109252D01*
X160217Y103347D02*
Y109252D01*
X170217D02*
X173366D01*
X170217Y103347D02*
X173366D01*
Y109252D01*
X170217Y103347D02*
Y109252D01*
X185433Y18701D02*
X188583D01*
X185433Y12795D02*
X188583D01*
Y18701D01*
X185433Y12795D02*
Y18701D01*
X187776Y109252D02*
X190925D01*
X187776Y103347D02*
X190925D01*
Y109252D01*
X187776Y103347D02*
Y109252D01*
X197776D02*
X200925D01*
X197776Y103347D02*
X200925D01*
Y109252D01*
X197776Y103347D02*
Y109252D01*
X212992Y18701D02*
X216142D01*
X212992Y12795D02*
X216142D01*
Y18701D01*
X212992Y12795D02*
Y18701D01*
X215335Y109252D02*
X218484D01*
X215335Y103347D02*
X218484D01*
Y109252D01*
X215335Y103347D02*
Y109252D01*
X225335D02*
X228484D01*
X225335Y103347D02*
X228484D01*
Y109252D01*
X225335Y103347D02*
Y109252D01*
X240551Y18701D02*
X243701D01*
X240551Y12795D02*
X243701D01*
Y18701D01*
X240551Y12795D02*
Y18701D01*
X242894Y109252D02*
X246043D01*
X242894Y103347D02*
X246043D01*
Y109252D01*
X242894Y103347D02*
Y109252D01*
X252894D02*
X256043D01*
X252894Y103347D02*
X256043D01*
Y109252D01*
X252894Y103347D02*
Y109252D01*
X268110Y18701D02*
X271260D01*
X268110Y12795D02*
X271260D01*
Y18701D01*
X268110Y12795D02*
Y18701D01*
X270453Y109252D02*
X273602D01*
X270453Y103347D02*
X273602D01*
Y109252D01*
X270453Y103347D02*
Y109252D01*
X280453D02*
X283602D01*
X280453Y103347D02*
X283602D01*
Y109252D01*
X280453Y103347D02*
Y109252D01*
X295669Y18701D02*
X298819D01*
X295669Y12795D02*
X298819D01*
Y18701D01*
X295669Y12795D02*
Y18701D01*
X298012Y109252D02*
X301161D01*
X298012Y103347D02*
X301161D01*
Y109252D01*
X298012Y103347D02*
Y109252D01*
X308012D02*
X311161D01*
X308012Y103347D02*
X311161D01*
Y109252D01*
X308012Y103347D02*
Y109252D01*
X323228Y18701D02*
X326378D01*
X323228Y12795D02*
X326378D01*
Y18701D01*
X323228Y12795D02*
Y18701D01*
X325571Y109252D02*
X328720D01*
X325571Y103347D02*
X328720D01*
Y109252D01*
X325571Y103347D02*
Y109252D01*
X335571D02*
X338720D01*
X335571Y103347D02*
X338720D01*
Y109252D01*
X335571Y103347D02*
Y109252D01*
X376378Y18701D02*
X379528D01*
X376378Y12795D02*
X379528D01*
Y18701D01*
X376378Y12795D02*
Y18701D01*
X378720Y109252D02*
X381870D01*
X378720Y103347D02*
X381870D01*
Y109252D01*
X378720Y103347D02*
Y109252D01*
X388720D02*
X391870D01*
X388720Y103347D02*
X391870D01*
Y109252D01*
X388720Y103347D02*
Y109252D01*
X403937Y18701D02*
X407087D01*
X403937Y12795D02*
X407087D01*
Y18701D01*
X403937Y12795D02*
Y18701D01*
X406280Y109252D02*
X409429D01*
X406280Y103347D02*
X409429D01*
Y109252D01*
X406280Y103347D02*
Y109252D01*
X416280D02*
X419429D01*
X416280Y103347D02*
X419429D01*
Y109252D01*
X416280Y103347D02*
Y109252D01*
X431496Y18701D02*
X434646D01*
X431496Y12795D02*
X434646D01*
Y18701D01*
X431496Y12795D02*
Y18701D01*
X433839Y109252D02*
X436988D01*
X433839Y103347D02*
X436988D01*
Y109252D01*
X433839Y103347D02*
Y109252D01*
X443839D02*
X446988D01*
X443839Y103347D02*
X446988D01*
Y109252D01*
X443839Y103347D02*
Y109252D01*
X459055Y18701D02*
X462205D01*
X459055Y12795D02*
X462205D01*
Y18701D01*
X459055Y12795D02*
Y18701D01*
X461398Y109252D02*
X464547D01*
X461398Y103347D02*
X464547D01*
Y109252D01*
X461398Y103347D02*
Y109252D01*
X471398D02*
X474547D01*
X471398Y103347D02*
X474547D01*
Y109252D01*
X471398Y103347D02*
Y109252D01*
X486614Y18701D02*
X489764D01*
X486614Y12795D02*
X489764D01*
Y18701D01*
X486614Y12795D02*
Y18701D01*
X488957Y109252D02*
X492106D01*
X488957Y103347D02*
X492106D01*
Y109252D01*
X488957Y103347D02*
Y109252D01*
X498957D02*
X502106D01*
X498957Y103347D02*
X502106D01*
Y109252D01*
X498957Y103347D02*
Y109252D01*
X514173Y18701D02*
X517323D01*
X514173Y12795D02*
X517323D01*
Y18701D01*
X514173Y12795D02*
Y18701D01*
X516516Y109252D02*
X519665D01*
X516516Y103347D02*
X519665D01*
Y109252D01*
X516516Y103347D02*
Y109252D01*
X526516D02*
X529665D01*
X526516Y103347D02*
X529665D01*
Y109252D01*
X526516Y103347D02*
Y109252D01*
X541732Y18701D02*
X544882D01*
X541732Y12795D02*
X544882D01*
Y18701D01*
X541732Y12795D02*
Y18701D01*
X544075Y109252D02*
X547224D01*
X544075Y103347D02*
X547224D01*
Y109252D01*
X544075Y103347D02*
Y109252D01*
X554075D02*
X557224D01*
X554075Y103347D02*
X557224D01*
Y109252D01*
X554075Y103347D02*
Y109252D01*
X569291Y18701D02*
X572441D01*
X569291Y12795D02*
X572441D01*
Y18701D01*
X569291Y12795D02*
Y18701D01*
X571634Y109252D02*
X574784D01*
X571634Y103347D02*
X574784D01*
Y109252D01*
X571634Y103347D02*
Y109252D01*
X581634D02*
X584784D01*
X581634Y103347D02*
X584784D01*
Y109252D01*
X581634Y103347D02*
Y109252D01*
X384744Y255736D02*
Y261642D01*
X387894Y255736D02*
Y261642D01*
X384744Y255736D02*
X387894D01*
X384744Y261642D02*
X387894D01*
X379823Y255736D02*
Y261642D01*
X382972Y255736D02*
Y261642D01*
X379823Y255736D02*
X382972D01*
X379823Y261642D02*
X382972D01*
X402658Y255736D02*
Y261642D01*
X399508Y255736D02*
Y261642D01*
X402658D01*
X399508Y255736D02*
X402658D01*
X428051D02*
Y261642D01*
X431201Y255736D02*
Y261642D01*
X428051Y255736D02*
X431201D01*
X428051Y261642D02*
X431201D01*
X442815Y255736D02*
Y261642D01*
X445965Y255736D02*
Y261642D01*
X442815Y255736D02*
X445965D01*
X442815Y261642D02*
X445965D01*
X486122Y252736D02*
X489272D01*
X486122Y258642D02*
X489272D01*
X486122Y252736D02*
Y258642D01*
X489272Y252736D02*
Y258642D01*
X549021Y130905D02*
Y136811D01*
X552171Y130905D02*
Y136811D01*
X549021Y130905D02*
X552171D01*
X549021Y136811D02*
X552171D01*
X546850Y130905D02*
Y136811D01*
X543701Y130905D02*
Y136811D01*
X546850D01*
X543701Y130905D02*
X546850D01*
X549021Y170276D02*
Y176181D01*
X552171Y170276D02*
Y176181D01*
X549021Y170276D02*
X552171D01*
X549021Y176181D02*
X552171D01*
X559521Y130905D02*
Y136811D01*
X562671Y130905D02*
Y136811D01*
X559521Y130905D02*
X562671D01*
X559521Y136811D02*
X562671D01*
X615158Y104724D02*
X621063D01*
X615158Y107874D02*
X621063D01*
Y104724D02*
Y107874D01*
X615158Y104724D02*
Y107874D01*
Y108661D02*
X621063D01*
X615158Y111811D02*
X621063D01*
Y108661D02*
Y111811D01*
X615158Y108661D02*
Y111811D01*
X646654Y111811D02*
X652559D01*
X646654Y108661D02*
X652559D01*
X646654D02*
Y111811D01*
X652559Y108661D02*
Y111811D01*
X615748Y213583D02*
Y219488D01*
X612598Y213583D02*
Y219488D01*
X615748D01*
X612598Y213583D02*
X615748D01*
X615748Y189961D02*
Y195866D01*
X618898Y189961D02*
Y195866D01*
X615748Y189961D02*
X618898D01*
X615748Y195866D02*
X618898D01*
X612598Y189961D02*
Y195866D01*
X615748Y189961D02*
Y195866D01*
X612598Y189961D02*
X615748D01*
X612598Y195866D02*
X615748D01*
X630315Y137531D02*
Y143437D01*
X633465Y137531D02*
Y143437D01*
X630315Y137531D02*
X633465D01*
X630315Y143437D02*
X633465D01*
X634252Y137531D02*
Y143437D01*
X637402Y137531D02*
Y143437D01*
X634252Y137531D02*
X637402D01*
X634252Y143437D02*
X637402D01*
X646654Y149016D02*
X652559D01*
X646654Y152165D02*
X652559D01*
Y149016D02*
Y152165D01*
X646654Y149016D02*
Y152165D01*
X507874Y197835D02*
Y203740D01*
X511024Y197835D02*
Y203740D01*
X507874Y197835D02*
X511024D01*
X507874Y203740D02*
X511024D01*
X554724Y197835D02*
Y203740D01*
X551575Y197835D02*
Y203740D01*
X554724D01*
X551575Y197835D02*
X554724D01*
X540945D02*
Y203740D01*
X537795Y197835D02*
Y203740D01*
X540945D01*
X537795Y197835D02*
X540945D01*
X511024Y222165D02*
Y228071D01*
X507874Y222165D02*
Y228071D01*
X511024D01*
X507874Y222165D02*
X511024D01*
X507874Y212874D02*
Y218779D01*
X511024Y212874D02*
Y218779D01*
X507874Y212874D02*
X511024D01*
X507874Y218779D02*
X511024D01*
Y239882D02*
Y245787D01*
X507874Y239882D02*
Y245787D01*
X511024D01*
X507874Y239882D02*
X511024D01*
X503937D02*
Y245787D01*
X507087Y239882D02*
Y245787D01*
X503937Y239882D02*
X507087D01*
X503937Y245787D02*
X507087D01*
X511811Y222165D02*
Y228071D01*
X514961Y222165D02*
Y228071D01*
X511811Y222165D02*
X514961D01*
X511811Y228071D02*
X514961D01*
Y212874D02*
Y218779D01*
X511811Y212874D02*
Y218779D01*
X514961D01*
X511811Y212874D02*
X514961D01*
M02*
