G04*
G04 #@! TF.GenerationSoftware,Altium Limited,Altium Designer,20.0.13 (296)*
G04*
G04 Layer_Color=16711935*
%FSLAX25Y25*%
%MOIN*%
G70*
G01*
G75*
%ADD10C,0.00787*%
%ADD11C,0.00394*%
%ADD12C,0.03937*%
%ADD15C,0.00500*%
D10*
X158319Y286854D02*
G03*
X158319Y286854I-394J0D01*
G01*
X504953Y146592D02*
X538353D01*
Y174392D01*
X504953D02*
X538353D01*
X504953Y146592D02*
Y174392D01*
X417126Y267354D02*
X456929D01*
X417126D02*
Y287189D01*
X456929D01*
Y267354D02*
Y287189D01*
X465256Y267354D02*
X495315D01*
X465256D02*
Y287189D01*
X495315D01*
Y267354D02*
Y287189D01*
X178300Y291004D02*
X253000D01*
Y188704D02*
Y291004D01*
X178300Y188704D02*
X253000D01*
X178300D02*
Y291004D01*
X408701Y267354D02*
Y287189D01*
X378642D02*
X408701D01*
X378642Y267354D02*
Y287189D01*
Y267354D02*
X408701D01*
X369331D02*
Y287189D01*
X339271D02*
X369331D01*
X339271Y267354D02*
Y287189D01*
Y267354D02*
X369331D01*
D11*
X625858Y167380D02*
X641858D01*
X625858Y147580D02*
Y167380D01*
Y147580D02*
X641858D01*
Y167380D01*
X609973Y199124D02*
Y210324D01*
X618373D01*
Y199124D02*
Y210324D01*
X609973Y199124D02*
X618373D01*
X375689Y242717D02*
X379429Y238976D01*
X375689D02*
X387106D01*
Y245276D01*
X375689D02*
X387106D01*
X375689Y238976D02*
Y245276D01*
X546260Y198622D02*
Y202953D01*
X550197D01*
Y198622D02*
Y202953D01*
X546260Y198622D02*
X550197D01*
X639764Y98425D02*
X641732Y100394D01*
Y98425D02*
Y114173D01*
X625984D02*
X641732D01*
X625984Y98425D02*
Y114173D01*
Y98425D02*
X641732D01*
X623158Y246058D02*
X644658D01*
X623158Y234258D02*
Y246058D01*
Y234258D02*
X644658D01*
Y246058D01*
X571409Y74514D02*
X590009D01*
X571409D02*
Y98714D01*
X590009D01*
Y74514D02*
Y98714D01*
X587850Y98673D02*
X589968Y96555D01*
X558858Y293504D02*
X569095D01*
Y281299D02*
Y293504D01*
X558858Y281299D02*
X569095D01*
X558858D02*
Y293504D01*
X593110Y147047D02*
Y167913D01*
X577461Y147047D02*
X593110D01*
X572244Y152264D02*
X577461Y147047D01*
X572244Y152264D02*
Y162697D01*
X577461Y167913D01*
X593110D01*
X534055Y123425D02*
Y144291D01*
X518405Y123425D02*
X534055D01*
X513189Y128642D02*
X518405Y123425D01*
X513189Y128642D02*
Y139075D01*
X518405Y144291D01*
X534055D01*
X593110Y123425D02*
Y144291D01*
X577461Y123425D02*
X593110D01*
X572244Y128642D02*
X577461Y123425D01*
X572244Y128642D02*
Y139075D01*
X577461Y144291D01*
X593110D01*
X132432Y74514D02*
X151032D01*
X132432D02*
Y98714D01*
X151032D01*
Y74514D02*
Y98714D01*
X148873Y98673D02*
X150991Y96555D01*
X159991Y74514D02*
X178591D01*
X159991D02*
Y98714D01*
X178591D01*
Y74514D02*
Y98714D01*
X176432Y98673D02*
X178550Y96555D01*
X187550Y74514D02*
X206150D01*
X187550D02*
Y98714D01*
X206150D01*
Y74514D02*
Y98714D01*
X203991Y98673D02*
X206109Y96555D01*
X215109Y74514D02*
X233710D01*
X215109D02*
Y98714D01*
X233710D01*
Y74514D02*
Y98714D01*
X231550Y98673D02*
X233668Y96555D01*
X242669Y74514D02*
X261268D01*
X242669D02*
Y98714D01*
X261268D01*
Y74514D02*
Y98714D01*
X259109Y98673D02*
X261228Y96555D01*
X270228Y74514D02*
X288828D01*
X270228D02*
Y98714D01*
X288828D01*
Y74514D02*
Y98714D01*
X286668Y98673D02*
X288787Y96555D01*
X297787Y74514D02*
X316387D01*
X297787D02*
Y98714D01*
X316387D01*
Y74514D02*
Y98714D01*
X314228Y98673D02*
X316346Y96555D01*
X325346Y74514D02*
X343946D01*
X325346D02*
Y98714D01*
X343946D01*
Y74514D02*
Y98714D01*
X341787Y98673D02*
X343905Y96555D01*
X378495Y74514D02*
X397095D01*
X378495D02*
Y98714D01*
X397095D01*
Y74514D02*
Y98714D01*
X394936Y98673D02*
X397054Y96555D01*
X406054Y74514D02*
X424654D01*
X406054D02*
Y98714D01*
X424654D01*
Y74514D02*
Y98714D01*
X422495Y98673D02*
X424613Y96555D01*
X433613Y74514D02*
X452213D01*
X433613D02*
Y98714D01*
X452213D01*
Y74514D02*
Y98714D01*
X450054Y98673D02*
X452173Y96555D01*
X461172Y74514D02*
X479772D01*
X461172D02*
Y98714D01*
X479772D01*
Y74514D02*
Y98714D01*
X477613Y98673D02*
X479732Y96555D01*
X488731Y74514D02*
X507332D01*
X488731D02*
Y98714D01*
X507332D01*
Y74514D02*
Y98714D01*
X505172Y98673D02*
X507291Y96555D01*
X516291Y74514D02*
X534891D01*
X516291D02*
Y98714D01*
X534891D01*
Y74514D02*
Y98714D01*
X532731Y98673D02*
X534850Y96555D01*
X543850Y74514D02*
X562450D01*
X543850D02*
Y98714D01*
X562450D01*
Y74514D02*
Y98714D01*
X560290Y98673D02*
X562409Y96555D01*
X426308Y248026D02*
X447808D01*
X426308Y236226D02*
Y248026D01*
Y236226D02*
X447808D01*
Y248026D01*
D12*
X611647Y59055D02*
G03*
X611647Y59055I-394J0D01*
G01*
D15*
X369094Y20866D02*
Y68110D01*
Y20866D02*
X595472D01*
Y68110D01*
X369094D02*
X595472D01*
X14764D02*
X103347D01*
Y20866D02*
Y68110D01*
X14764Y20866D02*
X103347D01*
X14764D02*
Y68110D01*
X615158Y20866D02*
Y68110D01*
Y20866D02*
X648622D01*
Y68110D01*
X615158D02*
X648622D01*
X119933Y291067D02*
X149067D01*
X119933Y261933D02*
Y291067D01*
Y261933D02*
X149067D01*
Y291067D01*
X122295Y237032D02*
Y250969D01*
X146705D01*
Y237032D02*
Y250969D01*
X122295Y237032D02*
X146705D01*
X123031Y20866D02*
Y68110D01*
Y20866D02*
X349410D01*
Y68110D01*
X123031D02*
X349410D01*
M02*
