G04*
G04 #@! TF.GenerationSoftware,Altium Limited,Altium Designer,20.0.13 (296)*
G04*
G04 Layer_Color=16711935*
%FSLAX25Y25*%
%MOIN*%
G70*
G01*
G75*
%ADD11C,0.00394*%
G36*
X519893Y210006D02*
Y210002D01*
Y209992D01*
Y209976D01*
X519891Y209955D01*
Y209930D01*
X519889Y209901D01*
X519887Y209868D01*
X519884Y209831D01*
X519880Y209794D01*
X519875Y209754D01*
X519863Y209673D01*
X519845Y209594D01*
X519835Y209558D01*
X519823Y209523D01*
Y209521D01*
X519819Y209516D01*
X519816Y209505D01*
X519809Y209493D01*
X519802Y209477D01*
X519791Y209460D01*
X519781Y209440D01*
X519767Y209419D01*
X519751Y209397D01*
X519732Y209374D01*
X519712Y209349D01*
X519690Y209325D01*
X519663Y209300D01*
X519637Y209278D01*
X519607Y209253D01*
X519574Y209232D01*
X519572Y209230D01*
X519565Y209227D01*
X519557Y209222D01*
X519541Y209215D01*
X519523Y209206D01*
X519502Y209197D01*
X519478Y209187D01*
X519448Y209176D01*
X519417Y209166D01*
X519382Y209155D01*
X519341Y209146D01*
X519301Y209138D01*
X519256Y209131D01*
X519208Y209125D01*
X519158Y209122D01*
X519103Y209120D01*
X519075D01*
X519056Y209122D01*
X519032Y209124D01*
X519004Y209125D01*
X518974Y209129D01*
X518939Y209133D01*
X518904Y209138D01*
X518865Y209143D01*
X518788Y209160D01*
X518750Y209173D01*
X518711Y209185D01*
X518675Y209199D01*
X518640Y209216D01*
X518638Y209218D01*
X518633Y209222D01*
X518622Y209227D01*
X518610Y209234D01*
X518596Y209244D01*
X518578Y209257D01*
X518561Y209273D01*
X518542Y209288D01*
X518521Y209308D01*
X518500Y209329D01*
X518477Y209351D01*
X518456Y209378D01*
X518437Y209405D01*
X518417Y209435D01*
X518400Y209467D01*
X518384Y209500D01*
Y209502D01*
X518381Y209509D01*
X518377Y209519D01*
X518372Y209533D01*
X518367Y209553D01*
X518360Y209575D01*
X518353Y209601D01*
X518346Y209633D01*
X518339Y209666D01*
X518332Y209705D01*
X518325Y209747D01*
X518319Y209792D01*
X518314Y209840D01*
X518311Y209892D01*
X518309Y209948D01*
X518307Y210006D01*
Y211171D01*
X518575D01*
Y210008D01*
Y210004D01*
Y209995D01*
Y209983D01*
Y209964D01*
X518577Y209943D01*
Y209918D01*
X518578Y209890D01*
X518580Y209860D01*
X518587Y209798D01*
X518594Y209735D01*
X518601Y209703D01*
X518606Y209673D01*
X518613Y209645D01*
X518622Y209621D01*
Y209619D01*
X518624Y209615D01*
X518627Y209609D01*
X518631Y209600D01*
X518638Y209589D01*
X518643Y209579D01*
X518662Y209551D01*
X518685Y209519D01*
X518713Y209488D01*
X518748Y209456D01*
X518790Y209428D01*
X518792D01*
X518795Y209425D01*
X518802Y209423D01*
X518811Y209418D01*
X518823Y209413D01*
X518837Y209407D01*
X518853Y209402D01*
X518871Y209395D01*
X518892Y209388D01*
X518913Y209383D01*
X518937Y209378D01*
X518963Y209372D01*
X519019Y209365D01*
X519081Y209362D01*
X519093D01*
X519109Y209364D01*
X519128D01*
X519152Y209365D01*
X519180Y209369D01*
X519210Y209372D01*
X519243Y209379D01*
X519277Y209386D01*
X519312Y209395D01*
X519347Y209405D01*
X519382Y209418D01*
X519415Y209434D01*
X519445Y209451D01*
X519474Y209472D01*
X519499Y209495D01*
X519501Y209496D01*
X519504Y209502D01*
X519511Y209509D01*
X519518Y209521D01*
X519529Y209537D01*
X519539Y209558D01*
X519550Y209580D01*
X519562Y209609D01*
X519574Y209642D01*
X519585Y209679D01*
X519595Y209720D01*
X519606Y209768D01*
X519613Y209819D01*
X519620Y209876D01*
X519623Y209939D01*
X519625Y210008D01*
Y211171D01*
X519893D01*
Y210006D01*
D02*
G37*
G36*
X522847Y209864D02*
X523120D01*
Y209636D01*
X522847D01*
Y209154D01*
X522598D01*
Y209636D01*
X521723D01*
Y209864D01*
X522644Y211171D01*
X522847D01*
Y209864D01*
D02*
G37*
G36*
X520934Y211176D02*
X520953D01*
X520978Y211173D01*
X521007Y211170D01*
X521039Y211164D01*
X521072Y211159D01*
X521109Y211150D01*
X521146Y211140D01*
X521184Y211126D01*
X521223Y211110D01*
X521261Y211092D01*
X521298Y211070D01*
X521333Y211045D01*
X521366Y211017D01*
X521368Y211016D01*
X521373Y211010D01*
X521382Y211001D01*
X521392Y210989D01*
X521406Y210974D01*
X521420Y210954D01*
X521434Y210931D01*
X521452Y210907D01*
X521468Y210879D01*
X521482Y210849D01*
X521497Y210816D01*
X521510Y210781D01*
X521520Y210744D01*
X521529Y210704D01*
X521534Y210662D01*
X521536Y210618D01*
Y210616D01*
Y210613D01*
Y210606D01*
Y210597D01*
X521534Y210587D01*
Y210573D01*
X521529Y210543D01*
X521524Y210506D01*
X521515Y210466D01*
X521503Y210422D01*
X521485Y210379D01*
Y210377D01*
X521483Y210373D01*
X521480Y210366D01*
X521476Y210359D01*
X521471Y210347D01*
X521464Y210335D01*
X521455Y210321D01*
X521447Y210305D01*
X521424Y210268D01*
X521396Y210226D01*
X521361Y210181D01*
X521321Y210134D01*
X521319Y210132D01*
X521315Y210128D01*
X521308Y210120D01*
X521300Y210109D01*
X521286Y210097D01*
X521270Y210081D01*
X521252Y210062D01*
X521231Y210041D01*
X521205Y210016D01*
X521177Y209990D01*
X521147Y209960D01*
X521112Y209929D01*
X521076Y209895D01*
X521034Y209859D01*
X520990Y209820D01*
X520941Y209778D01*
X520939Y209776D01*
X520930Y209770D01*
X520920Y209761D01*
X520904Y209749D01*
X520887Y209733D01*
X520867Y209715D01*
X520845Y209696D01*
X520822Y209677D01*
X520773Y209635D01*
X520726Y209593D01*
X520705Y209574D01*
X520684Y209554D01*
X520668Y209539D01*
X520654Y209524D01*
X520650Y209521D01*
X520643Y209514D01*
X520631Y209500D01*
X520617Y209483D01*
X520601Y209463D01*
X520584Y209440D01*
X520566Y209416D01*
X520551Y209391D01*
X521539D01*
Y209154D01*
X520206D01*
Y209155D01*
Y209157D01*
Y209162D01*
Y209169D01*
Y209187D01*
X520208Y209208D01*
X520211Y209234D01*
X520216Y209264D01*
X520223Y209294D01*
X520234Y209325D01*
Y209327D01*
X520236Y209332D01*
X520239Y209339D01*
X520244Y209348D01*
X520250Y209360D01*
X520257Y209376D01*
X520264Y209391D01*
X520274Y209409D01*
X520295Y209451D01*
X520325Y209495D01*
X520358Y209544D01*
X520397Y209593D01*
X520398Y209594D01*
X520402Y209598D01*
X520409Y209607D01*
X520418Y209615D01*
X520430Y209628D01*
X520444Y209644D01*
X520460Y209661D01*
X520479Y209680D01*
X520502Y209701D01*
X520524Y209724D01*
X520552Y209750D01*
X520580Y209776D01*
X520612Y209805D01*
X520645Y209834D01*
X520682Y209866D01*
X520720Y209897D01*
X520722D01*
X520724Y209901D01*
X520734Y209910D01*
X520752Y209924D01*
X520773Y209943D01*
X520801Y209965D01*
X520831Y209992D01*
X520864Y210021D01*
X520899Y210053D01*
X520936Y210086D01*
X520974Y210121D01*
X521011Y210156D01*
X521048Y210193D01*
X521081Y210228D01*
X521112Y210263D01*
X521140Y210295D01*
X521165Y210326D01*
X521167Y210328D01*
X521170Y210333D01*
X521175Y210342D01*
X521182Y210352D01*
X521191Y210366D01*
X521202Y210384D01*
X521212Y210401D01*
X521223Y210422D01*
X521244Y210468D01*
X521263Y210519D01*
X521270Y210545D01*
X521275Y210571D01*
X521279Y210597D01*
X521280Y210624D01*
Y210625D01*
Y210630D01*
Y210637D01*
X521279Y210648D01*
X521277Y210660D01*
X521275Y210676D01*
X521272Y210692D01*
X521268Y210709D01*
X521254Y210750D01*
X521247Y210769D01*
X521237Y210790D01*
X521224Y210811D01*
X521210Y210832D01*
X521195Y210853D01*
X521175Y210872D01*
X521174Y210874D01*
X521170Y210877D01*
X521165Y210881D01*
X521156Y210888D01*
X521146Y210895D01*
X521133Y210904D01*
X521119Y210914D01*
X521102Y210923D01*
X521083Y210931D01*
X521062Y210942D01*
X521039Y210951D01*
X521014Y210958D01*
X520990Y210965D01*
X520962Y210970D01*
X520932Y210972D01*
X520901Y210974D01*
X520883D01*
X520871Y210972D01*
X520857Y210970D01*
X520839Y210968D01*
X520818Y210965D01*
X520797Y210960D01*
X520752Y210947D01*
X520729Y210939D01*
X520705Y210928D01*
X520682Y210916D01*
X520659Y210900D01*
X520636Y210884D01*
X520615Y210865D01*
X520614Y210863D01*
X520610Y210860D01*
X520605Y210855D01*
X520600Y210846D01*
X520591Y210834D01*
X520582Y210821D01*
X520572Y210806D01*
X520563Y210788D01*
X520552Y210767D01*
X520542Y210744D01*
X520533Y210720D01*
X520526Y210694D01*
X520519Y210665D01*
X520514Y210634D01*
X520510Y210602D01*
X520509Y210567D01*
X520253Y210594D01*
Y210597D01*
X520255Y210606D01*
X520257Y210622D01*
X520260Y210641D01*
X520264Y210664D01*
X520271Y210692D01*
X520278Y210721D01*
X520286Y210755D01*
X520299Y210790D01*
X520311Y210825D01*
X520327Y210861D01*
X520346Y210896D01*
X520367Y210933D01*
X520390Y210966D01*
X520418Y210998D01*
X520447Y211028D01*
X520449Y211030D01*
X520456Y211035D01*
X520465Y211042D01*
X520479Y211051D01*
X520496Y211063D01*
X520517Y211075D01*
X520542Y211089D01*
X520570Y211103D01*
X520600Y211117D01*
X520635Y211131D01*
X520673Y211143D01*
X520713Y211156D01*
X520757Y211164D01*
X520804Y211171D01*
X520853Y211176D01*
X520906Y211178D01*
X520918D01*
X520934Y211176D01*
D02*
G37*
%LPC*%
G36*
X522598Y210772D02*
X521966Y209864D01*
X522598D01*
Y210772D01*
D02*
G37*
%LPD*%
D11*
X517717Y212598D02*
Y251969D01*
X584646D01*
X517717Y212598D02*
X584646D01*
X584646D02*
Y251969D01*
M02*
