G04*
G04 #@! TF.GenerationSoftware,Altium Limited,Altium Designer,20.0.13 (296)*
G04*
G04 Layer_Color=32768*
%FSLAX25Y25*%
%MOIN*%
G70*
G01*
G75*
%ADD11C,0.00394*%
%ADD18C,0.00197*%
%ADD120C,0.00079*%
D11*
X625858Y167380D02*
X641858D01*
X625858Y147580D02*
Y167380D01*
Y147580D02*
X641858D01*
Y167380D01*
X505553Y173792D02*
X537753D01*
Y147192D02*
Y173792D01*
X505553Y147192D02*
X537753D01*
X505553D02*
Y173792D01*
X495338Y213638D02*
Y241638D01*
X474938Y213638D02*
X495338D01*
X474938D02*
Y241638D01*
X495338D01*
D18*
X609973Y199124D02*
Y210324D01*
X618373D01*
Y199124D02*
Y210324D01*
X609973Y199124D02*
X618373D01*
X368110Y19882D02*
Y69095D01*
Y19882D02*
X596457D01*
Y69095D01*
X368110D02*
X596457D01*
X13780D02*
X104331D01*
Y19882D02*
Y69095D01*
X13780Y19882D02*
X104331D01*
X13780D02*
Y69095D01*
X614173Y19882D02*
Y69095D01*
Y19882D02*
X649606D01*
Y69095D01*
X614173D02*
X649606D01*
X375398Y248526D02*
X387398D01*
Y235726D02*
Y248526D01*
X375398Y235726D02*
X387398D01*
X375398D02*
Y248526D01*
X545328Y203287D02*
X551128D01*
X545328Y198287D02*
X551128D01*
Y203287D01*
X545328Y198287D02*
Y203287D01*
X112847Y292051D02*
X156154D01*
X112847Y260949D02*
Y292051D01*
Y260949D02*
X156154D01*
Y292051D01*
X642858Y97299D02*
Y115299D01*
X624858D02*
X642858D01*
X624858Y97299D02*
Y115299D01*
Y97299D02*
X642858D01*
X623158Y246058D02*
X644658D01*
X623158Y234258D02*
Y246058D01*
Y234258D02*
X644658D01*
Y246058D01*
X580777Y204380D02*
X584577D01*
X580777Y194380D02*
X584577D01*
Y204380D01*
X580777Y194380D02*
Y204380D01*
X571009Y100014D02*
X590409D01*
X571009Y73214D02*
Y100014D01*
X590409Y73214D02*
Y100014D01*
X571009Y73214D02*
X590409D01*
X113043Y236047D02*
X155957D01*
Y251953D01*
X113043D02*
X155957D01*
X113043Y236047D02*
Y251953D01*
X415158Y264054D02*
Y288053D01*
X458929Y264054D02*
Y288053D01*
X415158D02*
X458929D01*
X415158Y264054D02*
X458929D01*
X463315D02*
Y288053D01*
X497315Y264054D02*
Y288053D01*
X463315D02*
X497315D01*
X463315Y264054D02*
X497315D01*
X573376Y277802D02*
Y293502D01*
X554576Y277802D02*
Y293502D01*
Y277802D02*
X573376D01*
X554576Y293502D02*
X573376D01*
X178800Y189304D02*
Y290504D01*
X252400Y189304D02*
Y290504D01*
X178800D02*
X252400D01*
X178800Y189304D02*
X252400D01*
X567177Y146280D02*
Y168680D01*
Y146280D02*
X598177D01*
Y168680D01*
X567177D02*
X598177D01*
X574872Y194380D02*
X578672D01*
X574872Y204380D02*
X578672D01*
X574872Y194380D02*
Y204380D01*
X578672Y194380D02*
Y204380D01*
X508122Y122658D02*
Y145058D01*
Y122658D02*
X539122D01*
Y145058D01*
X508122D02*
X539122D01*
X567177Y122658D02*
Y145058D01*
Y122658D02*
X598177D01*
Y145058D01*
X567177D02*
X598177D01*
X122047Y19882D02*
Y69095D01*
Y19882D02*
X350394D01*
Y69095D01*
X122047D02*
X350394D01*
X376701Y264054D02*
X410701D01*
X376701Y288053D02*
X410701D01*
Y264054D02*
Y288053D01*
X376701Y264054D02*
Y288053D01*
X337331Y264054D02*
X371331D01*
X337331Y288053D02*
X371331D01*
Y264054D02*
Y288053D01*
X337331Y264054D02*
Y288053D01*
X132032Y100014D02*
X151432D01*
X132032Y73214D02*
Y100014D01*
X151432Y73214D02*
Y100014D01*
X132032Y73214D02*
X151432D01*
X159591Y100014D02*
X178991D01*
X159591Y73214D02*
Y100014D01*
X178991Y73214D02*
Y100014D01*
X159591Y73214D02*
X178991D01*
X187150Y100014D02*
X206550D01*
X187150Y73214D02*
Y100014D01*
X206550Y73214D02*
Y100014D01*
X187150Y73214D02*
X206550D01*
X214709Y100014D02*
X234109D01*
X214709Y73214D02*
Y100014D01*
X234109Y73214D02*
Y100014D01*
X214709Y73214D02*
X234109D01*
X242268Y100014D02*
X261668D01*
X242268Y73214D02*
Y100014D01*
X261668Y73214D02*
Y100014D01*
X242268Y73214D02*
X261668D01*
X269828Y100014D02*
X289228D01*
X269828Y73214D02*
Y100014D01*
X289228Y73214D02*
Y100014D01*
X269828Y73214D02*
X289228D01*
X297387Y100014D02*
X316787D01*
X297387Y73214D02*
Y100014D01*
X316787Y73214D02*
Y100014D01*
X297387Y73214D02*
X316787D01*
X324946Y100014D02*
X344346D01*
X324946Y73214D02*
Y100014D01*
X344346Y73214D02*
Y100014D01*
X324946Y73214D02*
X344346D01*
X378095Y100014D02*
X397495D01*
X378095Y73214D02*
Y100014D01*
X397495Y73214D02*
Y100014D01*
X378095Y73214D02*
X397495D01*
X405654Y100014D02*
X425054D01*
X405654Y73214D02*
Y100014D01*
X425054Y73214D02*
Y100014D01*
X405654Y73214D02*
X425054D01*
X433213Y100014D02*
X452613D01*
X433213Y73214D02*
Y100014D01*
X452613Y73214D02*
Y100014D01*
X433213Y73214D02*
X452613D01*
X460772Y100014D02*
X480172D01*
X460772Y73214D02*
Y100014D01*
X480172Y73214D02*
Y100014D01*
X460772Y73214D02*
X480172D01*
X488332Y100014D02*
X507731D01*
X488332Y73214D02*
Y100014D01*
X507731Y73214D02*
Y100014D01*
X488332Y73214D02*
X507731D01*
X515891Y100014D02*
X535290D01*
X515891Y73214D02*
Y100014D01*
X535290Y73214D02*
Y100014D01*
X515891Y73214D02*
X535290D01*
X543450Y100014D02*
X562850D01*
X543450Y73214D02*
Y100014D01*
X562850Y73214D02*
Y100014D01*
X543450Y73214D02*
X562850D01*
X426308Y248026D02*
X447808D01*
X426308Y236226D02*
Y248026D01*
Y236226D02*
X447808D01*
Y248026D01*
D120*
X553569Y156496D02*
X556718D01*
X553569Y150591D02*
X556718D01*
X556693D02*
Y156496D01*
X553543Y150591D02*
Y156496D01*
X620958Y180724D02*
Y228824D01*
X646858Y180724D02*
Y228824D01*
X620958Y180724D02*
X646858D01*
X620958Y228824D02*
X646858D01*
X562376Y260827D02*
X565526D01*
X562376Y266732D02*
X565526D01*
X562402Y260827D02*
Y266732D01*
X565551Y260827D02*
Y266732D01*
X580093Y8858D02*
X583243D01*
X580093Y14764D02*
X583243D01*
X580118Y8858D02*
Y14764D01*
X583268Y8858D02*
Y14764D01*
X555487Y197756D02*
X558636D01*
X555487Y203661D02*
X558636D01*
X555512Y197756D02*
Y203661D01*
X558661Y197756D02*
Y203661D01*
X351378Y261417D02*
X357283D01*
X351378Y258268D02*
X357283D01*
X351378Y258243D02*
Y261392D01*
X357283Y258243D02*
Y261392D01*
X511811Y239882D02*
Y245787D01*
X514961Y239882D02*
Y245787D01*
X511836Y239882D02*
X514986D01*
X511836Y245787D02*
X514986D01*
X127900Y94232D02*
X131050D01*
X127900Y100138D02*
X131050D01*
X127925Y94232D02*
Y100138D01*
X131075Y94232D02*
Y100138D01*
X137632Y103347D02*
X140782D01*
X137632Y109252D02*
X140782D01*
X137657Y103347D02*
Y109252D01*
X140807Y103347D02*
Y109252D01*
X147632Y103347D02*
X150782D01*
X147632Y109252D02*
X150782D01*
X147658Y103347D02*
Y109252D01*
X150807Y103347D02*
Y109252D01*
X155400Y94232D02*
X158550D01*
X155400Y100138D02*
X158550D01*
X155425Y94232D02*
Y100138D01*
X158575Y94232D02*
Y100138D01*
X165191Y103347D02*
X168341D01*
X165191Y109252D02*
X168341D01*
X165217Y103347D02*
Y109252D01*
X168366Y103347D02*
Y109252D01*
X175191Y103347D02*
X178341D01*
X175191Y109252D02*
X178341D01*
X175217Y103347D02*
Y109252D01*
X178366Y103347D02*
Y109252D01*
X183400Y94232D02*
X186550D01*
X183400Y100138D02*
X186550D01*
X183425Y94232D02*
Y100138D01*
X186575Y94232D02*
Y100138D01*
X192750Y103347D02*
X195900D01*
X192750Y109252D02*
X195900D01*
X192776Y103347D02*
Y109252D01*
X195925Y103347D02*
Y109252D01*
X202750Y103347D02*
X205900D01*
X202750Y109252D02*
X205900D01*
X202776Y103347D02*
Y109252D01*
X205925Y103347D02*
Y109252D01*
X210900Y94232D02*
X214050D01*
X210900Y100138D02*
X214050D01*
X210925Y94232D02*
Y100138D01*
X214075Y94232D02*
Y100138D01*
X220309Y103347D02*
X223459D01*
X220309Y109252D02*
X223459D01*
X220335Y103347D02*
Y109252D01*
X223484Y103347D02*
Y109252D01*
X230310Y103347D02*
X233459D01*
X230310Y109252D02*
X233459D01*
X230335Y103347D02*
Y109252D01*
X233484Y103347D02*
Y109252D01*
X238400Y94232D02*
X241550D01*
X238400Y100138D02*
X241550D01*
X238425Y94232D02*
Y100138D01*
X241575Y94232D02*
Y100138D01*
X247868Y103347D02*
X251018D01*
X247868Y109252D02*
X251018D01*
X247894Y103347D02*
Y109252D01*
X251043Y103347D02*
Y109252D01*
X257869Y103347D02*
X261018D01*
X257869Y109252D02*
X261018D01*
X257894Y103347D02*
Y109252D01*
X261043Y103347D02*
Y109252D01*
X266400Y94232D02*
X269550D01*
X266400Y100138D02*
X269550D01*
X266425Y94232D02*
Y100138D01*
X269575Y94232D02*
Y100138D01*
X275428Y103347D02*
X278577D01*
X275428Y109252D02*
X278577D01*
X275453Y103347D02*
Y109252D01*
X278602Y103347D02*
Y109252D01*
X285428Y103347D02*
X288577D01*
X285428Y109252D02*
X288577D01*
X285453Y103347D02*
Y109252D01*
X288602Y103347D02*
Y109252D01*
X293900Y94232D02*
X297050D01*
X293900Y100138D02*
X297050D01*
X293925Y94232D02*
Y100138D01*
X297075Y94232D02*
Y100138D01*
X302987Y103347D02*
X306136D01*
X302987Y109252D02*
X306136D01*
X303012Y103347D02*
Y109252D01*
X306161Y103347D02*
Y109252D01*
X312987Y103347D02*
X316136D01*
X312987Y109252D02*
X316136D01*
X313012Y103347D02*
Y109252D01*
X316161Y103347D02*
Y109252D01*
X321400Y94232D02*
X324550D01*
X321400Y100138D02*
X324550D01*
X321425Y94232D02*
Y100138D01*
X324575Y94232D02*
Y100138D01*
X330546Y103347D02*
X333695D01*
X330546Y109252D02*
X333695D01*
X330571Y103347D02*
Y109252D01*
X333720Y103347D02*
Y109252D01*
X340546Y103347D02*
X343695D01*
X340546Y109252D02*
X343695D01*
X340571Y103347D02*
Y109252D01*
X343721Y103347D02*
Y109252D01*
X374900Y94232D02*
X378050D01*
X374900Y100138D02*
X378050D01*
X374925Y94232D02*
Y100138D01*
X378075Y94232D02*
Y100138D01*
X383695Y103347D02*
X386845D01*
X383695Y109252D02*
X386845D01*
X383720Y103347D02*
Y109252D01*
X386870Y103347D02*
Y109252D01*
X393695Y103347D02*
X396845D01*
X393695Y109252D02*
X396845D01*
X393721Y103347D02*
Y109252D01*
X396870Y103347D02*
Y109252D01*
X402400Y94232D02*
X405550D01*
X402400Y100138D02*
X405550D01*
X402425Y94232D02*
Y100138D01*
X405575Y94232D02*
Y100138D01*
X411254Y103347D02*
X414404D01*
X411254Y109252D02*
X414404D01*
X411279Y103347D02*
Y109252D01*
X414429Y103347D02*
Y109252D01*
X421254Y103347D02*
X424404D01*
X421254Y109252D02*
X424404D01*
X421279Y103347D02*
Y109252D01*
X424429Y103347D02*
Y109252D01*
X429900Y94232D02*
X433050D01*
X429900Y100138D02*
X433050D01*
X429925Y94232D02*
Y100138D01*
X433075Y94232D02*
Y100138D01*
X438813Y103347D02*
X441963D01*
X438813Y109252D02*
X441963D01*
X438839Y103347D02*
Y109252D01*
X441988Y103347D02*
Y109252D01*
X448813Y103347D02*
X451963D01*
X448813Y109252D02*
X451963D01*
X448839Y103347D02*
Y109252D01*
X451988Y103347D02*
Y109252D01*
X457400Y94232D02*
X460550D01*
X457400Y100138D02*
X460550D01*
X457425Y94232D02*
Y100138D01*
X460575Y94232D02*
Y100138D01*
X466372Y103347D02*
X469522D01*
X466372Y109252D02*
X469522D01*
X466398Y103347D02*
Y109252D01*
X469547Y103347D02*
Y109252D01*
X476372Y103347D02*
X479522D01*
X476372Y109252D02*
X479522D01*
X476398Y103347D02*
Y109252D01*
X479547Y103347D02*
Y109252D01*
X485400Y94232D02*
X488550D01*
X485400Y100138D02*
X488550D01*
X485425Y94232D02*
Y100138D01*
X488575Y94232D02*
Y100138D01*
X493931Y103347D02*
X497081D01*
X493931Y109252D02*
X497081D01*
X493957Y103347D02*
Y109252D01*
X497106Y103347D02*
Y109252D01*
X503932Y103347D02*
X507081D01*
X503932Y109252D02*
X507081D01*
X503957Y103347D02*
Y109252D01*
X507106Y103347D02*
Y109252D01*
X512400Y94232D02*
X515550D01*
X512400Y100138D02*
X515550D01*
X512425Y94232D02*
Y100138D01*
X515575Y94232D02*
Y100138D01*
X521491Y103347D02*
X524640D01*
X521491Y109252D02*
X524640D01*
X521516Y103347D02*
Y109252D01*
X524665Y103347D02*
Y109252D01*
X531491Y103347D02*
X534640D01*
X531491Y109252D02*
X534640D01*
X531516Y103347D02*
Y109252D01*
X534665Y103347D02*
Y109252D01*
X539900Y94232D02*
X543050D01*
X539900Y100138D02*
X543050D01*
X539925Y94232D02*
Y100138D01*
X543075Y94232D02*
Y100138D01*
X549050Y103347D02*
X552199D01*
X549050Y109252D02*
X552199D01*
X549075Y103347D02*
Y109252D01*
X552224Y103347D02*
Y109252D01*
X559050Y103347D02*
X562199D01*
X559050Y109252D02*
X562199D01*
X559075Y103347D02*
Y109252D01*
X562224Y103347D02*
Y109252D01*
X567900Y94232D02*
X571050D01*
X567900Y100138D02*
X571050D01*
X567925Y94232D02*
Y100138D01*
X571075Y94232D02*
Y100138D01*
X576609Y103347D02*
X579758D01*
X576609Y109252D02*
X579758D01*
X576634Y103347D02*
Y109252D01*
X579783Y103347D02*
Y109252D01*
X586609Y103347D02*
X589758D01*
X586609Y109252D02*
X589758D01*
X586634Y103347D02*
Y109252D01*
X589783Y103347D02*
Y109252D01*
X206644Y227933D02*
X209794D01*
X206644Y233839D02*
X209794D01*
X206669Y227933D02*
Y233839D01*
X209819Y227933D02*
Y233839D01*
X206695Y277146D02*
X209844D01*
X206695Y271240D02*
X209844D01*
X209819D02*
Y277146D01*
X206669Y271240D02*
Y277146D01*
X219450D02*
X222600D01*
X219450Y271240D02*
X222600D01*
X222575D02*
Y277146D01*
X219425Y271240D02*
Y277146D01*
X236143D02*
X239293D01*
X236143Y271240D02*
X239293D01*
X239268D02*
Y277146D01*
X236118Y271240D02*
Y277146D01*
X232206D02*
X235356D01*
X232206Y271240D02*
X235356D01*
X235331D02*
Y277146D01*
X232181Y271240D02*
Y277146D01*
X389665Y255736D02*
Y261642D01*
X392815Y255736D02*
Y261642D01*
X389690Y255736D02*
X392840D01*
X389690Y261642D02*
X392840D01*
X369980Y236535D02*
Y242441D01*
X373130Y236535D02*
Y242441D01*
X370005Y236535D02*
X373155D01*
X370005Y242441D02*
X373155D01*
X374902Y255736D02*
Y261642D01*
X378051Y255736D02*
Y261642D01*
X374927Y255736D02*
X378076D01*
X374927Y261642D02*
X378076D01*
X425886Y241319D02*
Y247224D01*
X422736Y241319D02*
Y247224D01*
X422711D02*
X425861D01*
X422711Y241319D02*
X425861D01*
X451279D02*
Y247224D01*
X448130Y241319D02*
Y247224D01*
X448105D02*
X451254D01*
X448105Y241319D02*
X451254D01*
X105957Y284900D02*
Y288050D01*
X111862Y284900D02*
Y288050D01*
X105957Y284925D02*
X111862D01*
X105957Y288075D02*
X111862D01*
X163043Y264950D02*
Y268100D01*
X157138Y264950D02*
Y268100D01*
Y268075D02*
X163043D01*
X157138Y264925D02*
X163043D01*
X105957Y264900D02*
Y268050D01*
X111862Y264900D02*
Y268050D01*
X105957Y264925D02*
X111862D01*
X105957Y268075D02*
X111862D01*
X163043Y284950D02*
Y288100D01*
X157138Y284950D02*
Y288100D01*
Y288075D02*
X163043D01*
X157138Y284925D02*
X163043D01*
X481176Y252736D02*
X484325D01*
X481176Y258642D02*
X484325D01*
X481201Y252736D02*
Y258642D01*
X484350Y252736D02*
Y258642D01*
X109328Y239354D02*
X112478D01*
X109328Y245260D02*
X112478D01*
X112453Y239354D02*
Y245260D01*
X109303Y239354D02*
Y245260D01*
X503740Y168799D02*
Y174705D01*
X500591Y168799D02*
Y174705D01*
X500565D02*
X503715D01*
X500565Y168799D02*
X503715D01*
X559171Y170276D02*
Y176181D01*
X556021Y170276D02*
Y176181D01*
X555996D02*
X559146D01*
X555996Y170276D02*
X559146D01*
X546850Y153268D02*
Y159173D01*
X543701Y153268D02*
Y159173D01*
X543676D02*
X546825D01*
X543676Y153268D02*
X546825D01*
X556021Y130905D02*
Y136811D01*
X559171Y130905D02*
Y136811D01*
X556046Y130905D02*
X559196D01*
X556046Y136811D02*
X559196D01*
X552545Y130905D02*
Y136811D01*
X555694Y130905D02*
Y136811D01*
X552570Y130905D02*
X555720D01*
X552570Y136811D02*
X555720D01*
X555694Y170276D02*
Y176181D01*
X552545Y170276D02*
Y176181D01*
X552520D02*
X555669D01*
X552520Y170276D02*
X555669D01*
X546850D02*
Y176181D01*
X543701Y170276D02*
Y176181D01*
X543676D02*
X546825D01*
X543676Y170276D02*
X546825D01*
X543701Y145945D02*
Y151850D01*
X546850Y145945D02*
Y151850D01*
X543726Y145945D02*
X546876D01*
X543726Y151850D02*
X546876D01*
X633465Y83661D02*
Y89567D01*
X630315Y83661D02*
Y89567D01*
X630290D02*
X633439D01*
X630290Y83661D02*
X633439D01*
X637402D02*
Y89567D01*
X634252Y83661D02*
Y89567D01*
X634227D02*
X637376D01*
X634227Y83661D02*
X637376D01*
X641339D02*
Y89567D01*
X638189Y83661D02*
Y89567D01*
X638164D02*
X641313D01*
X638164Y83661D02*
X641313D01*
X645276D02*
Y89567D01*
X642126Y83661D02*
Y89567D01*
X642101D02*
X645250D01*
X642101Y83661D02*
X645250D01*
X629528D02*
Y89567D01*
X626378Y83661D02*
Y89567D01*
X626353D02*
X629502D01*
X626353Y83661D02*
X629502D01*
X625591D02*
Y89567D01*
X622441Y83661D02*
Y89567D01*
X622416D02*
X625565D01*
X622416Y83661D02*
X625565D01*
X657465Y57795D02*
Y63701D01*
X654315Y57795D02*
Y63701D01*
X654290D02*
X657439D01*
X654290Y57795D02*
X657439D01*
X642126Y123031D02*
Y128937D01*
X645276Y123031D02*
Y128937D01*
X642151Y123031D02*
X645301D01*
X642151Y128937D02*
X645301D01*
X634252Y123031D02*
Y128937D01*
X637402Y123031D02*
Y128937D01*
X634277Y123031D02*
X637427D01*
X634277Y128937D02*
X637427D01*
X638189Y123031D02*
Y128937D01*
X641339Y123031D02*
Y128937D01*
X638214Y123031D02*
X641364D01*
X638214Y128937D02*
X641364D01*
X607874Y204409D02*
Y210315D01*
X604724Y204409D02*
Y210315D01*
X604699D02*
X607849D01*
X604699Y204409D02*
X607849D01*
X637874Y246457D02*
X643780D01*
X637874Y249606D02*
X643780D01*
Y246482D02*
Y249632D01*
X637874Y246482D02*
Y249632D01*
X623937Y249606D02*
X629843D01*
X623937Y246457D02*
X629843D01*
X623937Y246431D02*
Y249581D01*
X629843Y246431D02*
Y249581D01*
X351378Y257480D02*
X357283D01*
X351378Y254331D02*
X357283D01*
X351378Y254306D02*
Y257455D01*
X357283Y254306D02*
Y257455D01*
X618898Y213583D02*
Y219488D01*
X615748Y213583D02*
Y219488D01*
X615723D02*
X618872D01*
X615723Y213583D02*
X618872D01*
X615158Y160039D02*
X621063D01*
X615158Y156890D02*
X621063D01*
X615158Y156865D02*
Y160014D01*
X621063Y156865D02*
Y160014D01*
X587008Y195020D02*
Y200925D01*
X590158Y195020D02*
Y200925D01*
X587033Y195020D02*
X590183D01*
X587033Y200925D02*
X590183D01*
X572441Y197835D02*
Y203740D01*
X569291Y197835D02*
Y203740D01*
X569266D02*
X572416D01*
X569266Y197835D02*
X572416D01*
X565354D02*
Y203740D01*
X568504Y197835D02*
Y203740D01*
X565379Y197835D02*
X568529D01*
X565379Y203740D02*
X568529D01*
X514961Y197835D02*
Y203740D01*
X511811Y197835D02*
Y203740D01*
X511786D02*
X514935D01*
X511786Y197835D02*
X514935D01*
X544882D02*
Y203740D01*
X541732Y197835D02*
Y203740D01*
X541707D02*
X544857D01*
X541707Y197835D02*
X544857D01*
X141116Y8858D02*
X144266D01*
X141116Y14764D02*
X144266D01*
X141142Y8858D02*
Y14764D01*
X144291Y8858D02*
Y14764D01*
X168676Y8858D02*
X171825D01*
X168676Y14764D02*
X171825D01*
X168701Y8858D02*
Y14764D01*
X171850Y8858D02*
Y14764D01*
X196235Y8858D02*
X199384D01*
X196235Y14764D02*
X199384D01*
X196260Y8858D02*
Y14764D01*
X199409Y8858D02*
Y14764D01*
X223794Y8858D02*
X226943D01*
X223794Y14764D02*
X226943D01*
X223819Y8858D02*
Y14764D01*
X226969Y8858D02*
Y14764D01*
X251353Y8858D02*
X254502D01*
X251353Y14764D02*
X254502D01*
X251378Y8858D02*
Y14764D01*
X254528Y8858D02*
Y14764D01*
X278912Y8858D02*
X282061D01*
X278912Y14764D02*
X282061D01*
X278937Y8858D02*
Y14764D01*
X282087Y8858D02*
Y14764D01*
X306471Y8858D02*
X309620D01*
X306471Y14764D02*
X309620D01*
X306496Y8858D02*
Y14764D01*
X309646Y8858D02*
Y14764D01*
X334030Y8858D02*
X337179D01*
X334030Y14764D02*
X337179D01*
X334055Y8858D02*
Y14764D01*
X337205Y8858D02*
Y14764D01*
X387179Y8858D02*
X390329D01*
X387179Y14764D02*
X390329D01*
X387205Y8858D02*
Y14764D01*
X390354Y8858D02*
Y14764D01*
X414739Y8858D02*
X417888D01*
X414739Y14764D02*
X417888D01*
X414764Y8858D02*
Y14764D01*
X417913Y8858D02*
Y14764D01*
X442298Y8858D02*
X445447D01*
X442298Y14764D02*
X445447D01*
X442323Y8858D02*
Y14764D01*
X445472Y8858D02*
Y14764D01*
X469857Y8858D02*
X473006D01*
X469857Y14764D02*
X473006D01*
X469882Y8858D02*
Y14764D01*
X473032Y8858D02*
Y14764D01*
X497416Y8858D02*
X500565D01*
X497416Y14764D02*
X500565D01*
X497441Y8858D02*
Y14764D01*
X500591Y8858D02*
Y14764D01*
X524975Y8858D02*
X528124D01*
X524975Y14764D02*
X528124D01*
X525000Y8858D02*
Y14764D01*
X528150Y8858D02*
Y14764D01*
X552534Y8858D02*
X555684D01*
X552534Y14764D02*
X555684D01*
X552559Y8858D02*
Y14764D01*
X555709Y8858D02*
Y14764D01*
X394587Y255736D02*
Y261642D01*
X397736Y255736D02*
Y261642D01*
X394612Y255736D02*
X397761D01*
X394612Y261642D02*
X397761D01*
X432972Y255736D02*
Y261642D01*
X436122Y255736D02*
Y261642D01*
X432998Y255736D02*
X436147D01*
X432998Y261642D02*
X436147D01*
X437894Y255736D02*
Y261642D01*
X441043Y255736D02*
Y261642D01*
X437919Y255736D02*
X441069D01*
X437919Y261642D02*
X441069D01*
X476305Y258642D02*
X479454D01*
X476305Y252736D02*
X479454D01*
X479429D02*
Y258642D01*
X476279Y252736D02*
Y258642D01*
X653528Y57795D02*
Y63701D01*
X650378Y57795D02*
Y63701D01*
X650353D02*
X653502D01*
X650353Y57795D02*
X653502D01*
X133465Y12795D02*
Y18701D01*
X130315Y12795D02*
Y18701D01*
X130290D02*
X133439D01*
X130290Y12795D02*
X133439D01*
X135807Y103347D02*
Y109252D01*
X132658Y103347D02*
Y109252D01*
X132632D02*
X135782D01*
X132632Y103347D02*
X135782D01*
X145807D02*
Y109252D01*
X142657Y103347D02*
Y109252D01*
X142632D02*
X145782D01*
X142632Y103347D02*
X145782D01*
X161024Y12795D02*
Y18701D01*
X157874Y12795D02*
Y18701D01*
X157849D02*
X160998D01*
X157849Y12795D02*
X160998D01*
X163366Y103347D02*
Y109252D01*
X160217Y103347D02*
Y109252D01*
X160191D02*
X163341D01*
X160191Y103347D02*
X163341D01*
X173366D02*
Y109252D01*
X170217Y103347D02*
Y109252D01*
X170191D02*
X173341D01*
X170191Y103347D02*
X173341D01*
X188583Y12795D02*
Y18701D01*
X185433Y12795D02*
Y18701D01*
X185408D02*
X188558D01*
X185408Y12795D02*
X188558D01*
X190925Y103347D02*
Y109252D01*
X187776Y103347D02*
Y109252D01*
X187750D02*
X190900D01*
X187750Y103347D02*
X190900D01*
X200925D02*
Y109252D01*
X197776Y103347D02*
Y109252D01*
X197750D02*
X200900D01*
X197750Y103347D02*
X200900D01*
X216142Y12795D02*
Y18701D01*
X212992Y12795D02*
Y18701D01*
X212967D02*
X216116D01*
X212967Y12795D02*
X216116D01*
X218484Y103347D02*
Y109252D01*
X215335Y103347D02*
Y109252D01*
X215310D02*
X218459D01*
X215310Y103347D02*
X218459D01*
X228484D02*
Y109252D01*
X225335Y103347D02*
Y109252D01*
X225309D02*
X228459D01*
X225309Y103347D02*
X228459D01*
X243701Y12795D02*
Y18701D01*
X240551Y12795D02*
Y18701D01*
X240526D02*
X243676D01*
X240526Y12795D02*
X243676D01*
X246043Y103347D02*
Y109252D01*
X242894Y103347D02*
Y109252D01*
X242868D02*
X246018D01*
X242868Y103347D02*
X246018D01*
X256043D02*
Y109252D01*
X252894Y103347D02*
Y109252D01*
X252869D02*
X256018D01*
X252869Y103347D02*
X256018D01*
X271260Y12795D02*
Y18701D01*
X268110Y12795D02*
Y18701D01*
X268085D02*
X271235D01*
X268085Y12795D02*
X271235D01*
X273602Y103347D02*
Y109252D01*
X270453Y103347D02*
Y109252D01*
X270428D02*
X273577D01*
X270428Y103347D02*
X273577D01*
X283602D02*
Y109252D01*
X280453Y103347D02*
Y109252D01*
X280428D02*
X283577D01*
X280428Y103347D02*
X283577D01*
X298819Y12795D02*
Y18701D01*
X295669Y12795D02*
Y18701D01*
X295644D02*
X298794D01*
X295644Y12795D02*
X298794D01*
X301161Y103347D02*
Y109252D01*
X298012Y103347D02*
Y109252D01*
X297987D02*
X301136D01*
X297987Y103347D02*
X301136D01*
X311161D02*
Y109252D01*
X308012Y103347D02*
Y109252D01*
X307987D02*
X311136D01*
X307987Y103347D02*
X311136D01*
X326378Y12795D02*
Y18701D01*
X323228Y12795D02*
Y18701D01*
X323203D02*
X326353D01*
X323203Y12795D02*
X326353D01*
X328720Y103347D02*
Y109252D01*
X325571Y103347D02*
Y109252D01*
X325546D02*
X328695D01*
X325546Y103347D02*
X328695D01*
X338720D02*
Y109252D01*
X335571Y103347D02*
Y109252D01*
X335546D02*
X338695D01*
X335546Y103347D02*
X338695D01*
X379528Y12795D02*
Y18701D01*
X376378Y12795D02*
Y18701D01*
X376353D02*
X379502D01*
X376353Y12795D02*
X379502D01*
X381870Y103347D02*
Y109252D01*
X378720Y103347D02*
Y109252D01*
X378695D02*
X381845D01*
X378695Y103347D02*
X381845D01*
X391870D02*
Y109252D01*
X388720Y103347D02*
Y109252D01*
X388695D02*
X391845D01*
X388695Y103347D02*
X391845D01*
X407087Y12795D02*
Y18701D01*
X403937Y12795D02*
Y18701D01*
X403912D02*
X407061D01*
X403912Y12795D02*
X407061D01*
X409429Y103347D02*
Y109252D01*
X406280Y103347D02*
Y109252D01*
X406254D02*
X409404D01*
X406254Y103347D02*
X409404D01*
X419429D02*
Y109252D01*
X416280Y103347D02*
Y109252D01*
X416254D02*
X419404D01*
X416254Y103347D02*
X419404D01*
X434646Y12795D02*
Y18701D01*
X431496Y12795D02*
Y18701D01*
X431471D02*
X434621D01*
X431471Y12795D02*
X434621D01*
X436988Y103347D02*
Y109252D01*
X433839Y103347D02*
Y109252D01*
X433813D02*
X436963D01*
X433813Y103347D02*
X436963D01*
X446988D02*
Y109252D01*
X443839Y103347D02*
Y109252D01*
X443813D02*
X446963D01*
X443813Y103347D02*
X446963D01*
X462205Y12795D02*
Y18701D01*
X459055Y12795D02*
Y18701D01*
X459030D02*
X462180D01*
X459030Y12795D02*
X462180D01*
X464547Y103347D02*
Y109252D01*
X461398Y103347D02*
Y109252D01*
X461373D02*
X464522D01*
X461373Y103347D02*
X464522D01*
X474547D02*
Y109252D01*
X471398Y103347D02*
Y109252D01*
X471373D02*
X474522D01*
X471373Y103347D02*
X474522D01*
X489764Y12795D02*
Y18701D01*
X486614Y12795D02*
Y18701D01*
X486589D02*
X489739D01*
X486589Y12795D02*
X489739D01*
X492106Y103347D02*
Y109252D01*
X488957Y103347D02*
Y109252D01*
X488932D02*
X492081D01*
X488932Y103347D02*
X492081D01*
X502106D02*
Y109252D01*
X498957Y103347D02*
Y109252D01*
X498932D02*
X502081D01*
X498932Y103347D02*
X502081D01*
X517323Y12795D02*
Y18701D01*
X514173Y12795D02*
Y18701D01*
X514148D02*
X517298D01*
X514148Y12795D02*
X517298D01*
X519665Y103347D02*
Y109252D01*
X516516Y103347D02*
Y109252D01*
X516491D02*
X519640D01*
X516491Y103347D02*
X519640D01*
X529665D02*
Y109252D01*
X526516Y103347D02*
Y109252D01*
X526491D02*
X529640D01*
X526491Y103347D02*
X529640D01*
X544882Y12795D02*
Y18701D01*
X541732Y12795D02*
Y18701D01*
X541707D02*
X544857D01*
X541707Y12795D02*
X544857D01*
X547224Y103347D02*
Y109252D01*
X544075Y103347D02*
Y109252D01*
X544050D02*
X547199D01*
X544050Y103347D02*
X547199D01*
X557224D02*
Y109252D01*
X554075Y103347D02*
Y109252D01*
X554050D02*
X557199D01*
X554050Y103347D02*
X557199D01*
X572441Y12795D02*
Y18701D01*
X569291Y12795D02*
Y18701D01*
X569266D02*
X572416D01*
X569266Y12795D02*
X572416D01*
X574784Y103347D02*
Y109252D01*
X571634Y103347D02*
Y109252D01*
X571609D02*
X574758D01*
X571609Y103347D02*
X574758D01*
X584784D02*
Y109252D01*
X581634Y103347D02*
Y109252D01*
X581609D02*
X584758D01*
X581609Y103347D02*
X584758D01*
X384719Y255736D02*
X387868D01*
X384719Y261642D02*
X387868D01*
X384744Y255736D02*
Y261642D01*
X387894Y255736D02*
Y261642D01*
X379798Y255736D02*
X382947D01*
X379798Y261642D02*
X382947D01*
X379823Y255736D02*
Y261642D01*
X382972Y255736D02*
Y261642D01*
X399533D02*
X402683D01*
X399533Y255736D02*
X402683D01*
X402658D02*
Y261642D01*
X399508Y255736D02*
Y261642D01*
X428026Y255736D02*
X431176D01*
X428026Y261642D02*
X431176D01*
X428051Y255736D02*
Y261642D01*
X431201Y255736D02*
Y261642D01*
X442790Y255736D02*
X445939D01*
X442790Y261642D02*
X445939D01*
X442815Y255736D02*
Y261642D01*
X445965Y255736D02*
Y261642D01*
X105957Y278258D02*
X111862D01*
X105957Y281408D02*
X111862D01*
X105957Y278284D02*
Y281433D01*
X111862Y278284D02*
Y281433D01*
X157138Y274742D02*
X163043D01*
X157138Y271592D02*
X163043D01*
Y271567D02*
Y274716D01*
X157138Y271567D02*
Y274716D01*
X105957Y271592D02*
X111862D01*
X105957Y274741D02*
X111862D01*
X105957Y271617D02*
Y274767D01*
X111862Y271617D02*
Y274767D01*
X157138Y281408D02*
X163043D01*
X157138Y278258D02*
X163043D01*
Y278233D02*
Y281383D01*
X157138Y278233D02*
Y281383D01*
X486122Y252736D02*
Y258642D01*
X489272Y252736D02*
Y258642D01*
X486147Y252736D02*
X489297D01*
X486147Y258642D02*
X489297D01*
X108516Y239354D02*
Y245260D01*
X105366Y239354D02*
Y245260D01*
X105341Y239354D02*
X108491D01*
X105341Y245260D02*
X108491D01*
X548996Y130905D02*
X552145D01*
X548996Y136811D02*
X552145D01*
X549021Y130905D02*
Y136811D01*
X552171Y130905D02*
Y136811D01*
X543726D02*
X546876D01*
X543726Y130905D02*
X546876D01*
X546850D02*
Y136811D01*
X543701Y130905D02*
Y136811D01*
X548996Y170276D02*
X552145D01*
X548996Y176181D02*
X552145D01*
X549021Y170276D02*
Y176181D01*
X552171Y170276D02*
Y176181D01*
X559496Y130905D02*
X562645D01*
X559496Y136811D02*
X562645D01*
X559521Y130905D02*
Y136811D01*
X562671Y130905D02*
Y136811D01*
X621063Y104699D02*
Y107849D01*
X615158Y104699D02*
Y107849D01*
Y104724D02*
X621063D01*
X615158Y107874D02*
X621063D01*
Y108636D02*
Y111786D01*
X615158Y108636D02*
Y111786D01*
Y108661D02*
X621063D01*
X615158Y111811D02*
X621063D01*
X646654Y108687D02*
Y111836D01*
X652559Y108687D02*
Y111836D01*
X646654Y111811D02*
X652559D01*
X646654Y108661D02*
X652559D01*
X612624Y219488D02*
X615773D01*
X612624Y213583D02*
X615773D01*
X615748D02*
Y219488D01*
X612598Y213583D02*
Y219488D01*
X615723Y189961D02*
X618872D01*
X615723Y195866D02*
X618872D01*
X615748Y189961D02*
Y195866D01*
X618898Y189961D02*
Y195866D01*
X612573Y189961D02*
X615723D01*
X612573Y195866D02*
X615723D01*
X612598Y189961D02*
Y195866D01*
X615748Y189961D02*
Y195866D01*
X630290Y137531D02*
X633439D01*
X630290Y143437D02*
X633439D01*
X630315Y137531D02*
Y143437D01*
X633465Y137531D02*
Y143437D01*
X634227Y137531D02*
X637376D01*
X634227Y143437D02*
X637376D01*
X634252Y137531D02*
Y143437D01*
X637402Y137531D02*
Y143437D01*
X652559Y148991D02*
Y152140D01*
X646654Y148991D02*
Y152140D01*
Y149016D02*
X652559D01*
X646654Y152165D02*
X652559D01*
X507849Y197835D02*
X510998D01*
X507849Y203740D02*
X510998D01*
X507874Y197835D02*
Y203740D01*
X511024Y197835D02*
Y203740D01*
X551600D02*
X554750D01*
X551600Y197835D02*
X554750D01*
X554724D02*
Y203740D01*
X551575Y197835D02*
Y203740D01*
X537820D02*
X540970D01*
X537820Y197835D02*
X540970D01*
X540945D02*
Y203740D01*
X537795Y197835D02*
Y203740D01*
X507899Y228071D02*
X511049D01*
X507899Y222165D02*
X511049D01*
X511024D02*
Y228071D01*
X507874Y222165D02*
Y228071D01*
X507849Y212874D02*
X510998D01*
X507849Y218779D02*
X510998D01*
X507874Y212874D02*
Y218779D01*
X511024Y212874D02*
Y218779D01*
X507899Y245787D02*
X511049D01*
X507899Y239882D02*
X511049D01*
X511024D02*
Y245787D01*
X507874Y239882D02*
Y245787D01*
X503912Y239882D02*
X507061D01*
X503912Y245787D02*
X507061D01*
X503937Y239882D02*
Y245787D01*
X507087Y239882D02*
Y245787D01*
X511786Y222165D02*
X514935D01*
X511786Y228071D02*
X514935D01*
X511811Y222165D02*
Y228071D01*
X514961Y222165D02*
Y228071D01*
X511836Y218779D02*
X514986D01*
X511836Y212874D02*
X514986D01*
X514961D02*
Y218779D01*
X511811Y212874D02*
Y218779D01*
M02*
