G04*
G04 #@! TF.GenerationSoftware,Altium Limited,Altium Designer,20.0.13 (296)*
G04*
G04 Layer_Color=8388736*
%FSLAX25Y25*%
%MOIN*%
G70*
G01*
G75*
%ADD55R,0.06189X0.03315*%
%ADD56R,6.63386X0.03937*%
%ADD57R,0.03937X3.14961*%
G04:AMPARAMS|DCode=58|XSize=24.41mil|YSize=10.24mil|CornerRadius=1.34mil|HoleSize=0mil|Usage=FLASHONLY|Rotation=0.000|XOffset=0mil|YOffset=0mil|HoleType=Round|Shape=RoundedRectangle|*
%AMROUNDEDRECTD58*
21,1,0.02441,0.00756,0,0,0.0*
21,1,0.02173,0.01024,0,0,0.0*
1,1,0.00268,0.01087,-0.00378*
1,1,0.00268,-0.01087,-0.00378*
1,1,0.00268,-0.01087,0.00378*
1,1,0.00268,0.01087,0.00378*
%
%ADD58ROUNDEDRECTD58*%
G04:AMPARAMS|DCode=59|XSize=24.41mil|YSize=10.24mil|CornerRadius=1.34mil|HoleSize=0mil|Usage=FLASHONLY|Rotation=90.000|XOffset=0mil|YOffset=0mil|HoleType=Round|Shape=RoundedRectangle|*
%AMROUNDEDRECTD59*
21,1,0.02441,0.00756,0,0,90.0*
21,1,0.02173,0.01024,0,0,90.0*
1,1,0.00268,0.00378,0.01087*
1,1,0.00268,0.00378,-0.01087*
1,1,0.00268,-0.00378,-0.01087*
1,1,0.00268,-0.00378,0.01087*
%
%ADD59ROUNDEDRECTD59*%
%ADD60R,0.08150X0.12087*%
%ADD61R,0.05787X0.01654*%
%ADD62R,0.01654X0.05000*%
%ADD63R,0.01063X0.02343*%
%ADD64R,0.02835X0.00965*%
%ADD65R,0.01063X0.02244*%
%ADD66R,0.02244X0.01063*%
%ADD67R,0.04016X0.01654*%
%ADD68R,0.01063X0.02047*%
%ADD69R,0.05591X0.05197*%
%ADD70R,0.07953X0.13858*%
%ADD71R,0.02047X0.03228*%
%ADD72R,0.01654X0.01654*%
%ADD73R,0.01654X0.01654*%
%ADD74R,0.05866X0.02992*%
%ADD75R,0.25669X0.12598*%
%ADD76R,0.02126X0.01929*%
%ADD77R,0.11102X0.11102*%
%ADD78R,0.01260X0.02047*%
%ADD79R,0.02047X0.01260*%
%ADD80R,0.02047X0.04016*%
%ADD81R,0.03228X0.01654*%
%ADD82R,0.04016X0.04016*%
%ADD83R,0.02441X0.02047*%
%ADD84R,0.03228X0.03228*%
%ADD85R,0.02047X0.05984*%
%ADD86R,0.01929X0.02126*%
%ADD87R,0.08346X0.11890*%
G04:AMPARAMS|DCode=88|XSize=63.78mil|YSize=32.68mil|CornerRadius=3.58mil|HoleSize=0mil|Usage=FLASHONLY|Rotation=270.000|XOffset=0mil|YOffset=0mil|HoleType=Round|Shape=RoundedRectangle|*
%AMROUNDEDRECTD88*
21,1,0.06378,0.02551,0,0,270.0*
21,1,0.05661,0.03268,0,0,270.0*
1,1,0.00717,-0.01276,-0.02831*
1,1,0.00717,-0.01276,0.02831*
1,1,0.00717,0.01276,0.02831*
1,1,0.00717,0.01276,-0.02831*
%
%ADD88ROUNDEDRECTD88*%
%ADD89R,0.04016X0.07953*%
%ADD90R,0.04016X0.02441*%
%ADD91R,0.07953X0.04016*%
%ADD92C,0.03622*%
%ADD93C,0.07480*%
%ADD94R,0.07480X0.07480*%
%ADD95R,0.07165X0.07165*%
%ADD96C,0.07165*%
%ADD97C,0.02953*%
%ADD98C,0.19764*%
G36*
X650971Y291920D02*
X651224D01*
Y291857D01*
X651731D01*
Y291920D01*
X652365D01*
Y291857D01*
X652998D01*
Y291793D01*
X653378D01*
Y291730D01*
X653632D01*
Y291667D01*
X653695D01*
Y291603D01*
X653822D01*
Y291540D01*
X653949D01*
Y291476D01*
X654012D01*
Y291413D01*
X654075D01*
Y291350D01*
X654139D01*
Y291286D01*
X654202D01*
Y291223D01*
X654265D01*
Y291160D01*
X654329D01*
Y291096D01*
Y291033D01*
X654265D01*
Y290969D01*
Y290906D01*
X654329D01*
Y290969D01*
X654392D01*
Y291033D01*
X654456D01*
Y290969D01*
Y290906D01*
X654519D01*
Y290843D01*
Y290779D01*
X654646D01*
Y290716D01*
X654582D01*
Y290653D01*
X654709D01*
Y290589D01*
X654772D01*
Y290526D01*
Y290463D01*
Y290399D01*
X654836D01*
Y290336D01*
X654899D01*
Y290272D01*
Y290209D01*
X654962D01*
Y290146D01*
Y290082D01*
Y290019D01*
X655026D01*
Y289956D01*
Y289892D01*
X655089D01*
Y289829D01*
Y289766D01*
X655153D01*
Y289702D01*
Y289639D01*
X655216D01*
Y289576D01*
X655279D01*
Y289512D01*
Y289449D01*
X655343D01*
Y289386D01*
Y289322D01*
X655406D01*
Y289259D01*
X655469D01*
Y289195D01*
X655406D01*
Y289132D01*
X655469D01*
Y289069D01*
X655533D01*
Y289005D01*
Y288942D01*
Y288879D01*
X655596D01*
Y288815D01*
Y288752D01*
Y288688D01*
X655659D01*
Y288625D01*
Y288562D01*
Y288498D01*
Y288435D01*
Y288372D01*
X655723D01*
Y288308D01*
Y288245D01*
X656546D01*
Y288182D01*
X656483D01*
Y288118D01*
X656356D01*
Y288055D01*
X656103D01*
Y287991D01*
X656483D01*
Y287928D01*
X656420D01*
Y287865D01*
X656356D01*
Y287928D01*
X656293D01*
Y287865D01*
X656230D01*
Y287801D01*
X655786D01*
Y287738D01*
Y287675D01*
Y287611D01*
Y287548D01*
Y287485D01*
Y287421D01*
Y287358D01*
Y287295D01*
Y287231D01*
Y287168D01*
X655723D01*
Y287105D01*
Y287041D01*
Y286978D01*
Y286914D01*
X655659D01*
Y286851D01*
X655596D01*
Y286788D01*
X655659D01*
Y286724D01*
X655596D01*
Y286661D01*
X655533D01*
Y286598D01*
X655469D01*
Y286534D01*
X655533D01*
Y286471D01*
X655469D01*
Y286407D01*
Y286344D01*
X655406D01*
Y286407D01*
X655343D01*
Y286344D01*
X655406D01*
Y286281D01*
Y286217D01*
X655343D01*
Y286154D01*
X655279D01*
Y286091D01*
Y286027D01*
X655216D01*
Y285964D01*
X655089D01*
Y285901D01*
Y285837D01*
X654962D01*
Y285774D01*
X654899D01*
Y285711D01*
X654772D01*
Y285647D01*
X654582D01*
Y285584D01*
X654265D01*
Y285647D01*
X654075D01*
Y285711D01*
X653949D01*
Y285774D01*
X653885D01*
Y285837D01*
X653822D01*
Y285901D01*
X653759D01*
Y285964D01*
Y286027D01*
Y286091D01*
X653695D01*
Y286154D01*
Y286217D01*
X653632D01*
Y286281D01*
Y286344D01*
Y286407D01*
Y286471D01*
X653695D01*
Y286534D01*
X653759D01*
Y286598D01*
X653695D01*
Y286661D01*
X653759D01*
Y286724D01*
Y286788D01*
X653822D01*
Y286851D01*
X653885D01*
Y286914D01*
X653949D01*
Y286978D01*
X654139D01*
Y286914D01*
X654202D01*
Y286851D01*
Y286788D01*
X654139D01*
Y286724D01*
X654202D01*
Y286661D01*
Y286598D01*
X654139D01*
Y286534D01*
X654075D01*
Y286471D01*
Y286407D01*
Y286344D01*
X654139D01*
Y286281D01*
X654265D01*
Y286217D01*
X654456D01*
Y286281D01*
X654582D01*
Y286344D01*
X654646D01*
Y286407D01*
X654709D01*
Y286471D01*
Y286534D01*
Y286598D01*
X654772D01*
Y286661D01*
X654836D01*
Y286724D01*
X654772D01*
Y286788D01*
X654836D01*
Y286851D01*
Y286914D01*
Y286978D01*
Y287041D01*
Y287105D01*
Y287168D01*
Y287231D01*
Y287295D01*
Y287358D01*
Y287421D01*
Y287485D01*
Y287548D01*
X654899D01*
Y287611D01*
X654836D01*
Y287675D01*
Y287738D01*
X654772D01*
Y287801D01*
Y287865D01*
X654709D01*
Y287928D01*
Y287991D01*
Y288055D01*
X654646D01*
Y288118D01*
Y288182D01*
X654582D01*
Y288245D01*
Y288308D01*
X654519D01*
Y288372D01*
X654139D01*
Y288308D01*
X653949D01*
Y288372D01*
X653885D01*
Y288435D01*
X653759D01*
Y288498D01*
X653695D01*
Y288562D01*
X653569D01*
Y288625D01*
X653125D01*
Y288562D01*
X653062D01*
Y288498D01*
X652935D01*
Y288435D01*
Y288372D01*
X652745D01*
Y288308D01*
Y288245D01*
X652618D01*
Y288182D01*
X652491D01*
Y288245D01*
X652428D01*
Y288182D01*
X652301D01*
Y288245D01*
X652175D01*
Y288308D01*
X652048D01*
Y288372D01*
X651921D01*
Y288435D01*
Y288498D01*
X651858D01*
Y288435D01*
X651794D01*
Y288498D01*
X651731D01*
Y288562D01*
X651668D01*
Y288625D01*
Y288688D01*
X651731D01*
Y288752D01*
X651604D01*
Y288688D01*
Y288625D01*
X651541D01*
Y288688D01*
X651477D01*
Y288752D01*
X651414D01*
Y288815D01*
X651351D01*
Y288879D01*
X651288D01*
Y288942D01*
X651224D01*
Y289005D01*
X651161D01*
Y289069D01*
X651097D01*
Y289132D01*
Y289195D01*
X651034D01*
Y289259D01*
X650971D01*
Y289322D01*
X650907D01*
Y289386D01*
Y289449D01*
X650844D01*
Y289512D01*
X650781D01*
Y289576D01*
Y289639D01*
X650717D01*
Y289576D01*
Y289512D01*
X650781D01*
Y289449D01*
Y289386D01*
X650844D01*
Y289322D01*
Y289259D01*
X650907D01*
Y289195D01*
X650971D01*
Y289132D01*
X651034D01*
Y289069D01*
Y289005D01*
X651097D01*
Y288942D01*
X651161D01*
Y288879D01*
X651224D01*
Y288815D01*
X651288D01*
Y288752D01*
X651351D01*
Y288688D01*
X651477D01*
Y288625D01*
X651541D01*
Y288562D01*
X651604D01*
Y288498D01*
X651668D01*
Y288435D01*
X651794D01*
Y288372D01*
X651858D01*
Y288308D01*
Y288245D01*
X651984D01*
Y288182D01*
Y288118D01*
Y288055D01*
Y287991D01*
Y287928D01*
Y287865D01*
Y287801D01*
Y287738D01*
X652048D01*
Y287675D01*
Y287611D01*
Y287548D01*
Y287485D01*
Y287421D01*
Y287358D01*
Y287295D01*
Y287231D01*
X652111D01*
Y287168D01*
X652175D01*
Y287105D01*
Y287041D01*
Y286978D01*
X652238D01*
Y286914D01*
Y286851D01*
X652301D01*
Y286788D01*
Y286724D01*
Y286661D01*
Y286598D01*
Y286534D01*
X652365D01*
Y286471D01*
Y286407D01*
Y286344D01*
X652428D01*
Y286281D01*
Y286217D01*
X652365D01*
Y286154D01*
X652428D01*
Y286091D01*
X652491D01*
Y286027D01*
Y285964D01*
X652428D01*
Y285901D01*
X652491D01*
Y285837D01*
Y285774D01*
X652555D01*
Y285711D01*
Y285647D01*
Y285584D01*
X652618D01*
Y285520D01*
Y285457D01*
Y285394D01*
Y285330D01*
X652681D01*
Y285267D01*
Y285204D01*
Y285140D01*
X652745D01*
Y285077D01*
X652681D01*
Y285014D01*
X652745D01*
Y284950D01*
X652808D01*
Y284887D01*
Y284823D01*
Y284760D01*
X652872D01*
Y284697D01*
Y284633D01*
Y284570D01*
X652935D01*
Y284507D01*
X652872D01*
Y284443D01*
X652935D01*
Y284380D01*
Y284317D01*
X652998D01*
Y284253D01*
X652935D01*
Y284190D01*
X652998D01*
Y284126D01*
Y284063D01*
Y284000D01*
Y283936D01*
Y283873D01*
X653062D01*
Y283810D01*
Y283746D01*
Y283683D01*
X653125D01*
Y283620D01*
Y283556D01*
X653188D01*
Y283493D01*
Y283430D01*
X653252D01*
Y283366D01*
Y283303D01*
X653315D01*
Y283239D01*
X653378D01*
Y283176D01*
Y283113D01*
X653442D01*
Y283049D01*
X653505D01*
Y282986D01*
X653569D01*
Y282923D01*
Y282859D01*
X653505D01*
Y282796D01*
X653315D01*
Y282733D01*
X652745D01*
Y282669D01*
X652681D01*
Y282733D01*
X652238D01*
Y282796D01*
Y282859D01*
X652175D01*
Y282923D01*
Y282986D01*
Y283049D01*
Y283113D01*
X652238D01*
Y283176D01*
Y283239D01*
X652301D01*
Y283303D01*
X652365D01*
Y283366D01*
Y283430D01*
X652301D01*
Y283493D01*
Y283556D01*
Y283620D01*
X652238D01*
Y283683D01*
Y283746D01*
Y283810D01*
X652175D01*
Y283873D01*
Y283936D01*
Y284000D01*
X652111D01*
Y284063D01*
Y284126D01*
X652048D01*
Y284190D01*
Y284253D01*
X651984D01*
Y284317D01*
Y284380D01*
X651921D01*
Y284443D01*
Y284507D01*
X651858D01*
Y284570D01*
X651794D01*
Y284633D01*
Y284697D01*
X651731D01*
Y284760D01*
X651794D01*
Y284823D01*
X651668D01*
Y284887D01*
Y284950D01*
Y285014D01*
X651541D01*
Y285077D01*
Y285140D01*
X651477D01*
Y285204D01*
Y285267D01*
X651414D01*
Y285330D01*
X651351D01*
Y285394D01*
X651477D01*
Y285457D01*
X651288D01*
Y285520D01*
X651224D01*
Y285584D01*
Y285647D01*
X651161D01*
Y285711D01*
X651097D01*
Y285774D01*
X651034D01*
Y285837D01*
X650971D01*
Y285901D01*
X650907D01*
Y285964D01*
X650844D01*
Y286027D01*
X650781D01*
Y286091D01*
X650717D01*
Y286154D01*
X650654D01*
Y286217D01*
X650591D01*
Y286281D01*
X650527D01*
Y286344D01*
Y286407D01*
X650464D01*
Y286471D01*
X650400D01*
Y286534D01*
Y286598D01*
X650337D01*
Y286661D01*
X650274D01*
Y286724D01*
Y286788D01*
X650210D01*
Y286851D01*
Y286914D01*
X650147D01*
Y286978D01*
Y287041D01*
X650084D01*
Y286978D01*
Y286914D01*
X650147D01*
Y286851D01*
Y286788D01*
X650210D01*
Y286724D01*
Y286661D01*
X650274D01*
Y286598D01*
Y286534D01*
X650337D01*
Y286471D01*
X650400D01*
Y286407D01*
Y286344D01*
X650464D01*
Y286281D01*
X650527D01*
Y286217D01*
Y286154D01*
X650591D01*
Y286091D01*
Y286027D01*
Y285964D01*
Y285901D01*
X650527D01*
Y285837D01*
Y285774D01*
Y285711D01*
X650464D01*
Y285647D01*
Y285584D01*
Y285520D01*
X650400D01*
Y285457D01*
Y285394D01*
X650337D01*
Y285330D01*
Y285267D01*
Y285204D01*
X650274D01*
Y285140D01*
Y285077D01*
Y285014D01*
X650210D01*
Y284950D01*
Y284887D01*
Y284823D01*
Y284760D01*
X650147D01*
Y284697D01*
Y284633D01*
Y284570D01*
Y284507D01*
X650084D01*
Y284443D01*
Y284380D01*
Y284317D01*
X650020D01*
Y284253D01*
Y284190D01*
X649957D01*
Y284126D01*
Y284063D01*
Y284000D01*
X649894D01*
Y283936D01*
Y283873D01*
X649830D01*
Y283810D01*
Y283746D01*
Y283683D01*
Y283620D01*
Y283556D01*
X649767D01*
Y283493D01*
Y283430D01*
X649830D01*
Y283366D01*
Y283303D01*
Y283239D01*
X649894D01*
Y283176D01*
X649957D01*
Y283113D01*
X650020D01*
Y283049D01*
X650084D01*
Y282986D01*
X650147D01*
Y282923D01*
Y282859D01*
X650210D01*
Y282796D01*
Y282733D01*
Y282669D01*
X650084D01*
Y282606D01*
X649260D01*
Y282669D01*
X649070D01*
Y282606D01*
X648753D01*
Y282669D01*
X648690D01*
Y282733D01*
Y282796D01*
Y282859D01*
Y282923D01*
X648753D01*
Y282986D01*
Y283049D01*
X648816D01*
Y283113D01*
X648943D01*
Y283176D01*
Y283239D01*
Y283303D01*
X649007D01*
Y283366D01*
X648943D01*
Y283430D01*
Y283493D01*
Y283556D01*
Y283620D01*
Y283683D01*
Y283746D01*
Y283810D01*
Y283873D01*
Y283936D01*
Y284000D01*
Y284063D01*
X649007D01*
Y284126D01*
Y284190D01*
Y284253D01*
Y284317D01*
Y284380D01*
Y284443D01*
Y284507D01*
Y284570D01*
X649070D01*
Y284633D01*
Y284697D01*
Y284760D01*
Y284823D01*
Y284887D01*
X649133D01*
Y284950D01*
Y285014D01*
Y285077D01*
Y285140D01*
Y285204D01*
Y285267D01*
X649197D01*
Y285330D01*
Y285394D01*
Y285457D01*
Y285520D01*
Y285584D01*
Y285647D01*
Y285711D01*
Y285774D01*
Y285837D01*
Y285901D01*
Y285964D01*
Y286027D01*
X649260D01*
Y286091D01*
X649197D01*
Y286154D01*
Y286217D01*
Y286281D01*
Y286344D01*
Y286407D01*
Y286471D01*
Y286534D01*
Y286598D01*
X649133D01*
Y286661D01*
Y286724D01*
Y286788D01*
X649007D01*
Y286724D01*
X648880D01*
Y286661D01*
X648753D01*
Y286598D01*
X648626D01*
Y286534D01*
X648436D01*
Y286471D01*
X648246D01*
Y286407D01*
X647929D01*
Y286344D01*
X647803D01*
Y286407D01*
X647612D01*
Y286344D01*
X647169D01*
Y286407D01*
X647106D01*
Y286344D01*
X647169D01*
Y286281D01*
X647042D01*
Y286217D01*
Y286154D01*
X646979D01*
Y286091D01*
X646916D01*
Y286027D01*
X646852D01*
Y285964D01*
X646789D01*
Y285901D01*
X646726D01*
Y285837D01*
X646662D01*
Y285774D01*
X646599D01*
Y285711D01*
X646535D01*
Y285647D01*
Y285584D01*
X646472D01*
Y285520D01*
Y285457D01*
Y285394D01*
X646409D01*
Y285330D01*
Y285267D01*
X646345D01*
Y285204D01*
Y285140D01*
Y285077D01*
X646282D01*
Y285014D01*
Y284950D01*
Y284887D01*
Y284823D01*
X646345D01*
Y284760D01*
Y284697D01*
Y284633D01*
Y284570D01*
Y284507D01*
Y284443D01*
Y284380D01*
Y284317D01*
Y284253D01*
Y284190D01*
Y284126D01*
Y284063D01*
Y284000D01*
Y283936D01*
Y283873D01*
Y283810D01*
X646409D01*
Y283746D01*
Y283683D01*
Y283620D01*
X646472D01*
Y283556D01*
Y283493D01*
X646535D01*
Y283430D01*
X646599D01*
Y283366D01*
X646662D01*
Y283303D01*
X646726D01*
Y283239D01*
X646789D01*
Y283176D01*
X646852D01*
Y283113D01*
X646916D01*
Y283049D01*
X646979D01*
Y282986D01*
Y282923D01*
Y282859D01*
X646916D01*
Y282796D01*
X645522D01*
Y282859D01*
X645395D01*
Y282923D01*
Y282986D01*
Y283049D01*
Y283113D01*
Y283176D01*
Y283239D01*
Y283303D01*
Y283366D01*
Y283430D01*
Y283493D01*
Y283556D01*
Y283620D01*
Y283683D01*
Y283746D01*
X645458D01*
Y283810D01*
Y283873D01*
Y283936D01*
Y284000D01*
Y284063D01*
X645522D01*
Y284126D01*
Y284190D01*
Y284253D01*
Y284317D01*
Y284380D01*
Y284443D01*
Y284507D01*
Y284570D01*
Y284633D01*
Y284697D01*
Y284760D01*
Y284823D01*
Y284887D01*
Y284950D01*
Y285014D01*
Y285077D01*
X645458D01*
Y285140D01*
Y285204D01*
Y285267D01*
Y285330D01*
Y285394D01*
Y285457D01*
Y285520D01*
X645395D01*
Y285584D01*
X645331D01*
Y285647D01*
X645268D01*
Y285711D01*
X645331D01*
Y285774D01*
X645395D01*
Y285837D01*
X645458D01*
Y285901D01*
X645522D01*
Y285964D01*
X645585D01*
Y286027D01*
Y286091D01*
X645648D01*
Y286154D01*
X645775D01*
Y286217D01*
Y286281D01*
Y286344D01*
X645712D01*
Y286281D01*
X645648D01*
Y286217D01*
X645585D01*
Y286154D01*
X645522D01*
Y286091D01*
Y286027D01*
X645458D01*
Y285964D01*
X645395D01*
Y286027D01*
X645268D01*
Y285964D01*
X645395D01*
Y285901D01*
X645331D01*
Y285837D01*
X645268D01*
Y285774D01*
X645205D01*
Y285711D01*
Y285647D01*
X645141D01*
Y285584D01*
X645078D01*
Y285520D01*
X645015D01*
Y285457D01*
X644951D01*
Y285394D01*
Y285330D01*
X644888D01*
Y285267D01*
X644825D01*
Y285204D01*
Y285140D01*
X644761D01*
Y285077D01*
Y285014D01*
X644635D01*
Y284950D01*
X644698D01*
Y284887D01*
X644635D01*
Y284823D01*
X644571D01*
Y284760D01*
Y284697D01*
Y284633D01*
X644508D01*
Y284570D01*
Y284507D01*
X644445D01*
Y284443D01*
Y284380D01*
X644381D01*
Y284317D01*
X644445D01*
Y284253D01*
X644381D01*
Y284190D01*
Y284126D01*
Y284063D01*
Y284000D01*
X644318D01*
Y284063D01*
X644254D01*
Y284000D01*
X644318D01*
Y283936D01*
Y283873D01*
Y283810D01*
Y283746D01*
X644254D01*
Y283683D01*
Y283620D01*
Y283556D01*
X644191D01*
Y283493D01*
Y283430D01*
Y283366D01*
X644128D01*
Y283303D01*
X644191D01*
Y283239D01*
Y283176D01*
Y283113D01*
X644254D01*
Y283049D01*
X644191D01*
Y283113D01*
X644128D01*
Y283049D01*
X644191D01*
Y282986D01*
Y282923D01*
Y282859D01*
X644064D01*
Y282796D01*
X644001D01*
Y282859D01*
X643431D01*
Y282923D01*
X643367D01*
Y282986D01*
X643304D01*
Y283049D01*
Y283113D01*
X643241D01*
Y283176D01*
Y283239D01*
Y283303D01*
Y283366D01*
Y283430D01*
Y283493D01*
X643304D01*
Y283556D01*
Y283620D01*
X643367D01*
Y283683D01*
X643431D01*
Y283746D01*
X643494D01*
Y283810D01*
X643557D01*
Y283746D01*
X643621D01*
Y283810D01*
X643557D01*
Y283873D01*
Y283936D01*
Y284000D01*
Y284063D01*
X643621D01*
Y284126D01*
Y284190D01*
Y284253D01*
X643684D01*
Y284317D01*
Y284380D01*
X643748D01*
Y284443D01*
Y284507D01*
X643621D01*
Y284443D01*
X643557D01*
Y284507D01*
Y284570D01*
X643431D01*
Y284633D01*
Y284697D01*
X643494D01*
Y284760D01*
Y284823D01*
Y284887D01*
Y284950D01*
Y285014D01*
X643557D01*
Y285077D01*
Y285140D01*
Y285204D01*
X643621D01*
Y285267D01*
Y285330D01*
Y285394D01*
Y285457D01*
X643684D01*
Y285520D01*
Y285584D01*
Y285647D01*
X643748D01*
Y285711D01*
Y285774D01*
Y285837D01*
X643811D01*
Y285901D01*
Y285964D01*
Y286027D01*
Y286091D01*
X643874D01*
Y286027D01*
X643938D01*
Y285964D01*
Y285901D01*
Y285837D01*
Y285774D01*
X643874D01*
Y285711D01*
Y285647D01*
Y285584D01*
Y285520D01*
X643811D01*
Y285457D01*
Y285394D01*
Y285330D01*
X643748D01*
Y285267D01*
Y285204D01*
Y285140D01*
Y285077D01*
Y285014D01*
Y284950D01*
Y284887D01*
Y284823D01*
Y284760D01*
Y284697D01*
Y284633D01*
X643684D01*
Y284570D01*
X643811D01*
Y284633D01*
Y284697D01*
Y284760D01*
X643874D01*
Y284823D01*
Y284887D01*
Y284950D01*
Y285014D01*
X643938D01*
Y285077D01*
Y285140D01*
Y285204D01*
Y285267D01*
Y285330D01*
X644001D01*
Y285394D01*
Y285457D01*
Y285520D01*
Y285584D01*
Y285647D01*
Y285711D01*
Y285774D01*
Y285837D01*
Y285901D01*
Y285964D01*
Y286027D01*
Y286091D01*
X643938D01*
Y286154D01*
X643874D01*
Y286217D01*
Y286281D01*
Y286344D01*
X643938D01*
Y286407D01*
Y286471D01*
Y286534D01*
Y286598D01*
Y286661D01*
Y286724D01*
Y286788D01*
Y286851D01*
X644001D01*
Y286914D01*
Y286978D01*
Y287041D01*
Y287105D01*
Y287168D01*
Y287231D01*
Y287295D01*
X644064D01*
Y287358D01*
Y287421D01*
Y287485D01*
Y287548D01*
Y287611D01*
Y287675D01*
Y287738D01*
Y287801D01*
Y287865D01*
Y287928D01*
Y287991D01*
Y288055D01*
Y288118D01*
Y288182D01*
Y288245D01*
Y288308D01*
Y288372D01*
Y288435D01*
Y288498D01*
X644128D01*
Y288562D01*
Y288625D01*
Y288688D01*
Y288752D01*
Y288815D01*
X644191D01*
Y288879D01*
Y288942D01*
X644254D01*
Y289005D01*
Y289069D01*
Y289132D01*
X644318D01*
Y289195D01*
X644381D01*
Y289259D01*
Y289322D01*
X644445D01*
Y289386D01*
Y289449D01*
X644571D01*
Y289512D01*
Y289576D01*
Y289639D01*
X644635D01*
Y289702D01*
X644698D01*
Y289766D01*
X644825D01*
Y289829D01*
X644761D01*
Y289892D01*
X644825D01*
Y289956D01*
X644888D01*
Y290019D01*
Y290082D01*
X644951D01*
Y290146D01*
X645015D01*
Y290209D01*
Y290272D01*
X645078D01*
Y290336D01*
X645141D01*
Y290399D01*
X645205D01*
Y290336D01*
X645268D01*
Y290399D01*
X645205D01*
Y290463D01*
Y290526D01*
X645268D01*
Y290589D01*
X645331D01*
Y290653D01*
X645395D01*
Y290716D01*
X645458D01*
Y290779D01*
X645648D01*
Y290843D01*
Y290906D01*
X645712D01*
Y290843D01*
X645775D01*
Y290906D01*
Y290969D01*
X645902D01*
Y291033D01*
X646029D01*
Y291096D01*
X646282D01*
Y291160D01*
X646472D01*
Y291096D01*
X646535D01*
Y291160D01*
X646472D01*
Y291223D01*
X646979D01*
Y291286D01*
X648500D01*
Y291350D01*
X648816D01*
Y291413D01*
X649007D01*
Y291476D01*
X649197D01*
Y291540D01*
X649387D01*
Y291603D01*
X649640D01*
Y291667D01*
X649830D01*
Y291730D01*
X650084D01*
Y291793D01*
X650210D01*
Y291857D01*
X650400D01*
Y291920D01*
X650464D01*
Y291857D01*
X650527D01*
Y291920D01*
X650591D01*
Y291857D01*
X650654D01*
Y291920D01*
X650591D01*
Y291983D01*
X650971D01*
Y291920D01*
D02*
G37*
G36*
X636322Y291061D02*
X636401Y291048D01*
X636486Y291021D01*
X636585Y290982D01*
X636683Y290923D01*
X636775Y290851D01*
X636788Y290844D01*
X636808Y290818D01*
X636834Y290785D01*
X636860Y290759D01*
X636867Y290752D01*
X636880Y290726D01*
X636906Y290693D01*
X636932Y290654D01*
X640226Y284940D01*
X640232Y284927D01*
X640252Y284894D01*
X640278Y284835D01*
X640304Y284757D01*
X640331Y284665D01*
X640344Y284566D01*
X640350Y284448D01*
X640331Y284330D01*
Y284324D01*
X640324Y284297D01*
X640311Y284258D01*
X640291Y284212D01*
Y284206D01*
X640278Y284179D01*
X640265Y284140D01*
X640239Y284094D01*
X640232Y284081D01*
X640206Y284048D01*
X640167Y283996D01*
X640114Y283937D01*
X640048Y283871D01*
X639963Y283812D01*
X639871Y283753D01*
X639760Y283707D01*
X639747D01*
X639714Y283694D01*
X639675Y283687D01*
X639642Y283681D01*
X639635D01*
X639615Y283674D01*
X639576D01*
X639524Y283668D01*
X632852D01*
X632793Y283681D01*
X632714Y283694D01*
X632622Y283720D01*
X632524Y283759D01*
X632426Y283819D01*
X632327Y283891D01*
X632321Y283897D01*
X632295Y283917D01*
X632268Y283950D01*
X632242Y283982D01*
X632235Y283989D01*
X632216Y284015D01*
X632196Y284048D01*
X632176Y284087D01*
X632170D01*
Y284094D01*
X632163Y284107D01*
X632144Y284140D01*
X632124Y284199D01*
X632098Y284271D01*
X632078Y284356D01*
X632065Y284455D01*
Y284566D01*
X632078Y284684D01*
Y284691D01*
X632085Y284698D01*
X632091Y284730D01*
X632098Y284770D01*
X632111Y284796D01*
Y284803D01*
X632124Y284829D01*
X632137Y284868D01*
X632163Y284914D01*
Y284921D01*
X632170Y284927D01*
X635470Y290641D01*
X635476Y290647D01*
X635489Y290667D01*
X635509Y290700D01*
X635535Y290739D01*
X635568Y290785D01*
X635614Y290831D01*
X635666Y290877D01*
X635719Y290916D01*
X635725D01*
X635732Y290930D01*
X635752Y290936D01*
X635778Y290956D01*
X635784Y290962D01*
X635811Y290975D01*
X635850Y290995D01*
X635903Y291015D01*
X635968Y291035D01*
X636040Y291054D01*
X636119Y291067D01*
X636204Y291074D01*
X636257D01*
X636322Y291061D01*
D02*
G37*
G36*
X626154D02*
X626233Y291048D01*
X626318Y291021D01*
X626417Y290982D01*
X626515Y290923D01*
X626607Y290851D01*
X626620Y290844D01*
X626640Y290818D01*
X626666Y290785D01*
X626692Y290759D01*
X626699Y290752D01*
X626712Y290726D01*
X626738Y290693D01*
X626764Y290654D01*
X630058Y284940D01*
X630064Y284927D01*
X630084Y284894D01*
X630110Y284835D01*
X630136Y284757D01*
X630162Y284665D01*
X630176Y284566D01*
X630182Y284448D01*
X630162Y284330D01*
Y284324D01*
X630156Y284297D01*
X630143Y284258D01*
X630123Y284212D01*
Y284206D01*
X630110Y284179D01*
X630097Y284140D01*
X630071Y284094D01*
X630064Y284081D01*
X630038Y284048D01*
X629998Y283996D01*
X629946Y283937D01*
X629881Y283871D01*
X629795Y283812D01*
X629703Y283753D01*
X629592Y283707D01*
X629579D01*
X629546Y283694D01*
X629506Y283687D01*
X629474Y283681D01*
X629467D01*
X629448Y283674D01*
X629408D01*
X629356Y283668D01*
X622684D01*
X622625Y283681D01*
X622546Y283694D01*
X622455Y283720D01*
X622356Y283759D01*
X622258Y283819D01*
X622159Y283891D01*
X622153Y283897D01*
X622126Y283917D01*
X622100Y283950D01*
X622074Y283982D01*
X622067Y283989D01*
X622048Y284015D01*
X622028Y284048D01*
X622008Y284087D01*
X622002D01*
Y284094D01*
X621995Y284107D01*
X621976Y284140D01*
X621956Y284199D01*
X621930Y284271D01*
X621910Y284356D01*
X621897Y284455D01*
Y284566D01*
X621910Y284684D01*
Y284691D01*
X621917Y284698D01*
X621923Y284730D01*
X621930Y284770D01*
X621943Y284796D01*
Y284803D01*
X621956Y284829D01*
X621969Y284868D01*
X621995Y284914D01*
Y284921D01*
X622002Y284927D01*
X625302Y290641D01*
X625308Y290647D01*
X625321Y290667D01*
X625341Y290700D01*
X625367Y290739D01*
X625400Y290785D01*
X625446Y290831D01*
X625498Y290877D01*
X625551Y290916D01*
X625557D01*
X625564Y290930D01*
X625584Y290936D01*
X625610Y290956D01*
X625616Y290962D01*
X625643Y290975D01*
X625682Y290995D01*
X625735Y291015D01*
X625800Y291035D01*
X625872Y291054D01*
X625951Y291067D01*
X626036Y291074D01*
X626089D01*
X626154Y291061D01*
D02*
G37*
G36*
X615986D02*
X616065Y291048D01*
X616150Y291021D01*
X616249Y290982D01*
X616347Y290923D01*
X616439Y290851D01*
X616452Y290844D01*
X616472Y290818D01*
X616498Y290785D01*
X616524Y290759D01*
X616531Y290752D01*
X616544Y290726D01*
X616570Y290693D01*
X616597Y290654D01*
X619890Y284940D01*
X619896Y284927D01*
X619916Y284894D01*
X619942Y284835D01*
X619968Y284757D01*
X619994Y284665D01*
X620008Y284566D01*
X620014Y284448D01*
X619994Y284330D01*
Y284324D01*
X619988Y284297D01*
X619975Y284258D01*
X619955Y284212D01*
Y284206D01*
X619942Y284179D01*
X619929Y284140D01*
X619903Y284094D01*
X619896Y284081D01*
X619870Y284048D01*
X619831Y283996D01*
X619778Y283937D01*
X619712Y283871D01*
X619627Y283812D01*
X619535Y283753D01*
X619424Y283707D01*
X619411D01*
X619378Y283694D01*
X619339Y283687D01*
X619306Y283681D01*
X619299D01*
X619279Y283674D01*
X619240D01*
X619188Y283668D01*
X612516D01*
X612457Y283681D01*
X612378Y283694D01*
X612287Y283720D01*
X612188Y283759D01*
X612090Y283819D01*
X611991Y283891D01*
X611985Y283897D01*
X611959Y283917D01*
X611932Y283950D01*
X611906Y283982D01*
X611900Y283989D01*
X611880Y284015D01*
X611860Y284048D01*
X611840Y284087D01*
X611834D01*
Y284094D01*
X611827Y284107D01*
X611808Y284140D01*
X611788Y284199D01*
X611762Y284271D01*
X611742Y284356D01*
X611729Y284455D01*
Y284566D01*
X611742Y284684D01*
Y284691D01*
X611749Y284698D01*
X611755Y284730D01*
X611762Y284770D01*
X611775Y284796D01*
Y284803D01*
X611788Y284829D01*
X611801Y284868D01*
X611827Y284914D01*
Y284921D01*
X611834Y284927D01*
X615134Y290641D01*
X615140Y290647D01*
X615153Y290667D01*
X615173Y290700D01*
X615199Y290739D01*
X615232Y290785D01*
X615278Y290831D01*
X615330Y290877D01*
X615383Y290916D01*
X615389D01*
X615396Y290930D01*
X615416Y290936D01*
X615442Y290956D01*
X615448Y290962D01*
X615475Y290975D01*
X615514Y290995D01*
X615566Y291015D01*
X615632Y291035D01*
X615704Y291054D01*
X615783Y291067D01*
X615868Y291074D01*
X615921D01*
X615986Y291061D01*
D02*
G37*
G36*
X630071Y282487D02*
X629926D01*
X629375Y283307D01*
Y282487D01*
X629244D01*
Y283530D01*
X629389D01*
X629933Y282710D01*
Y283530D01*
X630071D01*
Y282487D01*
D02*
G37*
G36*
X626574D02*
X626430D01*
X625879Y283307D01*
Y282487D01*
X625748D01*
Y283530D01*
X625892D01*
X626443Y282710D01*
Y283530D01*
X626574D01*
Y282487D01*
D02*
G37*
G36*
X619903D02*
X619758D01*
X619207Y283307D01*
Y282487D01*
X619076D01*
Y283530D01*
X619220D01*
X619765Y282710D01*
Y283530D01*
X619903D01*
Y282487D01*
D02*
G37*
G36*
X616406D02*
X616262D01*
X615711Y283307D01*
Y282487D01*
X615580D01*
Y283530D01*
X615724D01*
X616275Y282710D01*
Y283530D01*
X616406D01*
Y282487D01*
D02*
G37*
G36*
X627867D02*
X627722D01*
Y283530D01*
X627867D01*
Y282487D01*
D02*
G37*
G36*
X627558Y283405D02*
X627211D01*
Y282487D01*
X627073D01*
Y283405D01*
X626725D01*
Y283530D01*
X627558D01*
Y283405D01*
D02*
G37*
G36*
X625538D02*
X624915D01*
Y283084D01*
X625498D01*
Y282966D01*
X624915D01*
Y282605D01*
X625557D01*
Y282487D01*
X624777D01*
Y283530D01*
X625538D01*
Y283405D01*
D02*
G37*
G36*
X624632D02*
X624285D01*
Y282487D01*
X624147D01*
Y283405D01*
X623799D01*
Y283530D01*
X624632D01*
Y283405D01*
D02*
G37*
G36*
X623740D02*
X623393D01*
Y282487D01*
X623255D01*
Y283405D01*
X622907D01*
Y283530D01*
X623740D01*
Y283405D01*
D02*
G37*
G36*
X622986Y282487D02*
X622828D01*
X622704Y282802D01*
X622264D01*
X622153Y282487D01*
X622002D01*
X622409Y283530D01*
X622553D01*
X622986Y282487D01*
D02*
G37*
G36*
X617698D02*
X617554D01*
Y283530D01*
X617698D01*
Y282487D01*
D02*
G37*
G36*
X617390Y283405D02*
X617042D01*
Y282487D01*
X616905D01*
Y283405D01*
X616557D01*
Y283530D01*
X617390D01*
Y283405D01*
D02*
G37*
G36*
X615370D02*
X614747D01*
Y283084D01*
X615330D01*
Y282966D01*
X614747D01*
Y282605D01*
X615389D01*
Y282487D01*
X614609D01*
Y283530D01*
X615370D01*
Y283405D01*
D02*
G37*
G36*
X614465D02*
X614117D01*
Y282487D01*
X613979D01*
Y283405D01*
X613631D01*
Y283530D01*
X614465D01*
Y283405D01*
D02*
G37*
G36*
X613572D02*
X613225D01*
Y282487D01*
X613087D01*
Y283405D01*
X612739D01*
Y283530D01*
X613572D01*
Y283405D01*
D02*
G37*
G36*
X612818Y282487D02*
X612661D01*
X612536Y282802D01*
X612096D01*
X611985Y282487D01*
X611834D01*
X612241Y283530D01*
X612385D01*
X612818Y282487D01*
D02*
G37*
G36*
X628621Y283543D02*
X628654D01*
X628739Y283517D01*
X628785Y283504D01*
X628831Y283477D01*
X628837D01*
X628851Y283464D01*
X628870Y283451D01*
X628897Y283431D01*
X628956Y283372D01*
X629008Y283287D01*
Y283280D01*
X629014Y283267D01*
X629028Y283241D01*
X629041Y283208D01*
X629047Y283162D01*
X629061Y283117D01*
X629067Y283005D01*
Y282998D01*
Y282979D01*
Y282946D01*
X629061Y282913D01*
X629041Y282821D01*
X629001Y282723D01*
Y282716D01*
X628988Y282703D01*
X628975Y282677D01*
X628956Y282651D01*
X628897Y282592D01*
X628818Y282533D01*
X628811D01*
X628798Y282520D01*
X628772Y282513D01*
X628746Y282500D01*
X628660Y282480D01*
X628569Y282467D01*
X628542D01*
X628516Y282474D01*
X628477D01*
X628391Y282500D01*
X628345Y282513D01*
X628300Y282539D01*
X628293D01*
X628280Y282552D01*
X628260Y282565D01*
X628234Y282585D01*
X628175Y282644D01*
X628122Y282730D01*
Y282736D01*
X628116Y282749D01*
X628103Y282775D01*
X628096Y282808D01*
X628083Y282848D01*
X628070Y282893D01*
X628063Y282998D01*
Y283012D01*
Y283038D01*
X628070Y283090D01*
X628083Y283143D01*
X628096Y283208D01*
X628122Y283280D01*
X628155Y283346D01*
X628201Y283405D01*
X628208Y283412D01*
X628227Y283425D01*
X628260Y283451D01*
X628300Y283477D01*
X628352Y283504D01*
X628418Y283530D01*
X628490Y283543D01*
X628569Y283549D01*
X628595D01*
X628621Y283543D01*
D02*
G37*
G36*
X618453D02*
X618486D01*
X618571Y283517D01*
X618617Y283504D01*
X618663Y283477D01*
X618669D01*
X618682Y283464D01*
X618702Y283451D01*
X618728Y283431D01*
X618787Y283372D01*
X618840Y283287D01*
Y283280D01*
X618847Y283267D01*
X618860Y283241D01*
X618873Y283208D01*
X618879Y283162D01*
X618892Y283117D01*
X618899Y283005D01*
Y282998D01*
Y282979D01*
Y282946D01*
X618892Y282913D01*
X618873Y282821D01*
X618833Y282723D01*
Y282716D01*
X618820Y282703D01*
X618807Y282677D01*
X618787Y282651D01*
X618728Y282592D01*
X618650Y282533D01*
X618643D01*
X618630Y282520D01*
X618604Y282513D01*
X618578Y282500D01*
X618492Y282480D01*
X618400Y282467D01*
X618374D01*
X618348Y282474D01*
X618309D01*
X618223Y282500D01*
X618177Y282513D01*
X618131Y282539D01*
X618125D01*
X618112Y282552D01*
X618092Y282565D01*
X618066Y282585D01*
X618007Y282644D01*
X617954Y282730D01*
Y282736D01*
X617948Y282749D01*
X617935Y282775D01*
X617928Y282808D01*
X617915Y282848D01*
X617902Y282893D01*
X617895Y282998D01*
Y283012D01*
Y283038D01*
X617902Y283090D01*
X617915Y283143D01*
X617928Y283208D01*
X617954Y283280D01*
X617987Y283346D01*
X618033Y283405D01*
X618040Y283412D01*
X618059Y283425D01*
X618092Y283451D01*
X618131Y283477D01*
X618184Y283504D01*
X618250Y283530D01*
X618322Y283543D01*
X618400Y283549D01*
X618427D01*
X618453Y283543D01*
D02*
G37*
G36*
X626876Y282316D02*
X626909Y282310D01*
X626915Y282303D01*
X626935Y282296D01*
X626955Y282277D01*
X626974Y282251D01*
X626981Y282244D01*
X626988Y282231D01*
X626994Y282205D01*
X627001Y282172D01*
X626935Y282165D01*
Y282172D01*
X626928Y282192D01*
X626922Y282218D01*
X626902Y282238D01*
X626896Y282244D01*
X626876Y282251D01*
X626850Y282257D01*
X626810Y282264D01*
X626778D01*
X626745Y282257D01*
X626719Y282244D01*
X626712Y282238D01*
X626705Y282224D01*
X626692Y282211D01*
X626686Y282185D01*
Y282178D01*
X626692Y282172D01*
X626699Y282152D01*
X626712Y282139D01*
X626719D01*
X626732Y282126D01*
X626764Y282113D01*
X626810Y282100D01*
X626824D01*
X626863Y282087D01*
X626902Y282080D01*
X626928Y282067D01*
X626935Y282060D01*
X626955Y282054D01*
X626974Y282034D01*
X626994Y282014D01*
X627001Y282008D01*
X627007Y281995D01*
X627014Y281969D01*
X627020Y281942D01*
Y281936D01*
Y281916D01*
X627007Y281890D01*
X626994Y281864D01*
X626988Y281857D01*
X626974Y281844D01*
X626955Y281831D01*
X626928Y281818D01*
X626922Y281811D01*
X626896Y281805D01*
X626863Y281798D01*
X626824Y281791D01*
X626810D01*
X626784Y281798D01*
X626745Y281805D01*
X626705Y281818D01*
X626699D01*
X626679Y281831D01*
X626653Y281844D01*
X626633Y281870D01*
X626627Y281877D01*
X626620Y281896D01*
X626607Y281923D01*
X626601Y281962D01*
X626666Y281969D01*
Y281962D01*
Y281949D01*
X626673Y281923D01*
X626686Y281903D01*
Y281896D01*
X626699Y281890D01*
X626712Y281877D01*
X626738Y281864D01*
X626764D01*
X626791Y281857D01*
X626896D01*
X626909Y281864D01*
X626922Y281877D01*
X626935Y281890D01*
X626942Y281896D01*
X626948Y281903D01*
X626955Y281916D01*
Y281936D01*
Y281942D01*
Y281949D01*
X626948Y281962D01*
X626935Y281975D01*
Y281982D01*
X626922Y281988D01*
X626909Y281995D01*
X626889Y282008D01*
X626876Y282014D01*
X626843Y282021D01*
X626797Y282034D01*
X626784Y282041D01*
X626758Y282047D01*
X626725Y282054D01*
X626692Y282067D01*
X626686Y282073D01*
X626673Y282080D01*
X626640Y282119D01*
Y282126D01*
X626633Y282139D01*
X626627Y282159D01*
X626620Y282178D01*
Y282185D01*
X626627Y282205D01*
X626633Y282231D01*
X626646Y282257D01*
Y282264D01*
X626659Y282277D01*
X626679Y282296D01*
X626712Y282310D01*
X626719D01*
X626738Y282316D01*
X626764Y282323D01*
X626837D01*
X626876Y282316D01*
D02*
G37*
G36*
X628864D02*
X628910Y282310D01*
X628949Y282283D01*
X628956Y282277D01*
X628975Y282257D01*
X629001Y282218D01*
X629021Y282172D01*
X628956Y282159D01*
X628949Y282165D01*
X628942Y282192D01*
X628923Y282218D01*
X628903Y282238D01*
X628897Y282244D01*
X628883Y282251D01*
X628851Y282257D01*
X628818Y282264D01*
X628785D01*
X628746Y282251D01*
X628713Y282238D01*
X628706Y282231D01*
X628693Y282218D01*
X628673Y282192D01*
X628654Y282159D01*
Y282152D01*
X628647Y282133D01*
X628641Y282100D01*
Y282060D01*
Y282047D01*
Y282021D01*
X628647Y281982D01*
X628660Y281942D01*
X628667Y281936D01*
X628673Y281916D01*
X628693Y281890D01*
X628719Y281870D01*
X628726D01*
X628746Y281864D01*
X628778Y281857D01*
X628811Y281851D01*
X628824D01*
X628844Y281857D01*
X628877Y281864D01*
X628910Y281877D01*
X628916Y281883D01*
X628929Y281903D01*
X628949Y281929D01*
X628962Y281975D01*
X629034Y281955D01*
Y281949D01*
X629028Y281942D01*
X629014Y281909D01*
X628988Y281870D01*
X628956Y281837D01*
X628942Y281831D01*
X628916Y281818D01*
X628870Y281798D01*
X628818Y281791D01*
X628805D01*
X628765Y281798D01*
X628719Y281811D01*
X628680Y281831D01*
X628673Y281837D01*
X628647Y281851D01*
X628621Y281877D01*
X628595Y281916D01*
Y281923D01*
X628588Y281929D01*
X628582Y281962D01*
X628575Y282008D01*
X628569Y282060D01*
Y282067D01*
Y282073D01*
X628575Y282106D01*
X628582Y282152D01*
X628601Y282205D01*
X628608Y282211D01*
X628621Y282238D01*
X628647Y282264D01*
X628687Y282290D01*
X628700Y282296D01*
X628726Y282310D01*
X628765Y282316D01*
X628818Y282323D01*
X628831D01*
X628864Y282316D01*
D02*
G37*
G36*
X624823D02*
X624869Y282310D01*
X624915Y282283D01*
X624921Y282277D01*
X624941Y282257D01*
X624967Y282218D01*
X624987Y282172D01*
X624921Y282159D01*
X624915Y282165D01*
X624908Y282192D01*
X624888Y282211D01*
X624869Y282238D01*
X624862Y282244D01*
X624842Y282251D01*
X624816Y282257D01*
X624777Y282264D01*
X624744D01*
X624711Y282251D01*
X624678Y282238D01*
X624672Y282231D01*
X624659Y282218D01*
X624639Y282192D01*
X624619Y282159D01*
Y282152D01*
X624613Y282126D01*
X624606Y282093D01*
X624600Y282060D01*
Y282047D01*
X624606Y282021D01*
X624613Y281982D01*
X624626Y281942D01*
X624632Y281936D01*
X624639Y281916D01*
X624659Y281890D01*
X624685Y281870D01*
X624691D01*
X624711Y281864D01*
X624744Y281857D01*
X624777Y281851D01*
X624790D01*
X624810Y281857D01*
X624842Y281864D01*
X624869Y281877D01*
X624875Y281883D01*
X624888Y281896D01*
X624908Y281929D01*
X624928Y281975D01*
X625000Y281955D01*
Y281949D01*
X624993Y281942D01*
X624980Y281909D01*
X624954Y281870D01*
X624921Y281837D01*
X624908Y281831D01*
X624882Y281818D01*
X624836Y281798D01*
X624777Y281791D01*
X624764D01*
X624731Y281798D01*
X624685Y281811D01*
X624639Y281831D01*
X624632Y281837D01*
X624613Y281851D01*
X624586Y281877D01*
X624560Y281916D01*
Y281923D01*
X624554Y281929D01*
X624547Y281962D01*
X624541Y282008D01*
X624534Y282060D01*
Y282067D01*
Y282073D01*
X624541Y282106D01*
X624547Y282152D01*
X624567Y282205D01*
X624573Y282211D01*
X624586Y282238D01*
X624613Y282264D01*
X624652Y282290D01*
X624665Y282296D01*
X624691Y282310D01*
X624731Y282316D01*
X624777Y282323D01*
X624790D01*
X624823Y282316D01*
D02*
G37*
G36*
X628464Y281805D02*
X628398D01*
Y282316D01*
X628464D01*
Y281805D01*
D02*
G37*
G36*
X628313Y282257D02*
X628142D01*
Y281805D01*
X628070D01*
Y282257D01*
X627899D01*
Y282316D01*
X628313D01*
Y282257D01*
D02*
G37*
G36*
X627939Y281805D02*
X627860D01*
X627794Y281949D01*
X627578D01*
X627519Y281805D01*
X627447D01*
X627650Y282316D01*
X627722D01*
X627939Y281805D01*
D02*
G37*
G36*
X627486Y282257D02*
X627316D01*
Y281805D01*
X627243D01*
Y282257D01*
X627073D01*
Y282316D01*
X627486D01*
Y282257D01*
D02*
G37*
G36*
X625833Y282310D02*
X625866Y282303D01*
X625872Y282296D01*
X625885Y282290D01*
X625905Y282270D01*
X625925Y282251D01*
X625931Y282244D01*
X625938Y282224D01*
X625944Y282205D01*
X625951Y282178D01*
Y282172D01*
X625944Y282146D01*
X625938Y282113D01*
X625912Y282080D01*
X625905Y282073D01*
X625885Y282060D01*
X625853Y282041D01*
X625800Y282028D01*
X625807D01*
X625813Y282021D01*
X625846Y282008D01*
X625853Y282001D01*
X625859Y281988D01*
X625879Y281969D01*
X625899Y281936D01*
X625990Y281805D01*
X625905D01*
X625833Y281903D01*
X625826Y281909D01*
X625813Y281929D01*
X625800Y281955D01*
X625787Y281975D01*
X625780Y281982D01*
X625774Y281988D01*
X625761Y282001D01*
X625748Y282008D01*
X625741Y282014D01*
X625735D01*
X625715Y282021D01*
X625708Y282028D01*
X625597D01*
Y281805D01*
X625531D01*
Y282316D01*
X625800D01*
X625833Y282310D01*
D02*
G37*
G36*
X625459Y282257D02*
X625282D01*
Y281805D01*
X625216D01*
Y282257D01*
X625039D01*
Y282316D01*
X625459D01*
Y282257D01*
D02*
G37*
G36*
X624442D02*
X624134D01*
Y282093D01*
X624429D01*
Y282034D01*
X624134D01*
Y281857D01*
X624455D01*
Y281805D01*
X624068D01*
Y282316D01*
X624442D01*
Y282257D01*
D02*
G37*
G36*
X623727Y281857D02*
X623983D01*
Y281805D01*
X623655D01*
Y282316D01*
X623727D01*
Y281857D01*
D02*
G37*
G36*
X623550Y282257D02*
X623242D01*
Y282093D01*
X623530D01*
Y282034D01*
X623242D01*
Y281857D01*
X623563D01*
Y281805D01*
X623170D01*
Y282316D01*
X623550D01*
Y282257D01*
D02*
G37*
G36*
X626332Y282316D02*
X626371Y282310D01*
X626417Y282290D01*
X626430Y282283D01*
X626450Y282264D01*
X626476Y282238D01*
X626502Y282192D01*
X626509Y282185D01*
X626522Y282152D01*
X626528Y282113D01*
X626535Y282054D01*
Y282047D01*
Y282041D01*
X626528Y282001D01*
X626522Y281955D01*
X626502Y281909D01*
X626496Y281903D01*
X626476Y281877D01*
X626450Y281851D01*
X626410Y281824D01*
X626404Y281818D01*
X626377Y281811D01*
X626338Y281798D01*
X626286Y281791D01*
X626272D01*
X626240Y281798D01*
X626200Y281811D01*
X626154Y281831D01*
X626141Y281837D01*
X626122Y281851D01*
X626089Y281877D01*
X626069Y281916D01*
X626062Y281923D01*
X626056Y281955D01*
X626043Y281995D01*
X626036Y282047D01*
Y282054D01*
Y282067D01*
X626043Y282093D01*
Y282119D01*
X626062Y282192D01*
X626102Y282251D01*
X626108Y282257D01*
X626115Y282264D01*
X626154Y282290D01*
X626207Y282310D01*
X626246Y282323D01*
X626299D01*
X626332Y282316D01*
D02*
G37*
G36*
X624521Y281621D02*
X624560Y281608D01*
X624567Y281601D01*
X624586Y281595D01*
X624606Y281575D01*
X624626Y281549D01*
X624632Y281542D01*
X624639Y281529D01*
X624646Y281496D01*
X624652Y281463D01*
X624586D01*
Y281470D01*
X624580Y281490D01*
X624567Y281516D01*
X624547Y281536D01*
X624541Y281542D01*
X624521Y281549D01*
X624495Y281555D01*
X624455Y281562D01*
X624423D01*
X624396Y281549D01*
X624370Y281536D01*
X624364Y281529D01*
X624357Y281522D01*
X624344Y281503D01*
X624337Y281483D01*
Y281476D01*
Y281470D01*
X624344Y281450D01*
X624357Y281437D01*
X624364D01*
X624383Y281431D01*
X624409Y281417D01*
X624462Y281398D01*
X624475D01*
X624501Y281391D01*
X624534Y281385D01*
X624580Y281365D01*
X624586Y281359D01*
X624606Y281352D01*
X624626Y281332D01*
X624646Y281313D01*
X624652Y281306D01*
X624659Y281293D01*
X624665Y281267D01*
Y281240D01*
Y281234D01*
Y281214D01*
X624659Y281188D01*
X624646Y281155D01*
X624639Y281149D01*
X624626Y281135D01*
X624606Y281122D01*
X624573Y281103D01*
X624567D01*
X624547Y281096D01*
X624514Y281089D01*
X624475Y281083D01*
X624436D01*
X624396Y281089D01*
X624357Y281103D01*
X624350Y281109D01*
X624331Y281116D01*
X624304Y281135D01*
X624278Y281162D01*
X624272Y281168D01*
X624265Y281194D01*
X624259Y281227D01*
X624252Y281260D01*
X624318Y281267D01*
Y281260D01*
Y281247D01*
X624324Y281221D01*
X624337Y281201D01*
X624350Y281188D01*
X624364Y281175D01*
X624390Y281155D01*
X624396D01*
X624416Y281149D01*
X624442Y281142D01*
X624495D01*
X624521Y281149D01*
X624541Y281155D01*
X624547D01*
X624560Y281162D01*
X624573Y281175D01*
X624586Y281188D01*
Y281194D01*
X624593Y281201D01*
X624600Y281234D01*
Y281240D01*
Y281247D01*
X624586Y281273D01*
Y281280D01*
X624573Y281286D01*
X624541Y281306D01*
X624534D01*
X624514Y281313D01*
X624482Y281326D01*
X624442Y281332D01*
X624429D01*
X624403Y281339D01*
X624370Y281352D01*
X624344Y281365D01*
X624337Y281372D01*
X624324Y281378D01*
X624304Y281391D01*
X624291Y281411D01*
Y281417D01*
X624285Y281431D01*
X624278Y281450D01*
X624272Y281476D01*
Y281483D01*
X624278Y281503D01*
X624285Y281529D01*
X624298Y281555D01*
Y281562D01*
X624311Y281575D01*
X624331Y281595D01*
X624357Y281608D01*
X624364Y281614D01*
X624390Y281621D01*
X624423Y281627D01*
X624488D01*
X624521Y281621D01*
D02*
G37*
G36*
X623012D02*
X623052Y281608D01*
X623058Y281601D01*
X623078Y281595D01*
X623104Y281575D01*
X623124Y281549D01*
X623130Y281542D01*
X623137Y281522D01*
X623143Y281496D01*
X623150Y281463D01*
X623078D01*
Y281470D01*
X623071Y281490D01*
X623065Y281516D01*
X623045Y281536D01*
X623038Y281542D01*
X623019Y281549D01*
X622993Y281555D01*
X622953Y281562D01*
X622920D01*
X622888Y281549D01*
X622861Y281536D01*
X622855Y281529D01*
X622848Y281522D01*
X622842Y281503D01*
X622835Y281483D01*
Y281476D01*
Y281470D01*
X622842Y281450D01*
X622855Y281437D01*
X622861D01*
X622874Y281431D01*
X622907Y281417D01*
X622960Y281398D01*
X622973D01*
X622999Y281391D01*
X623038Y281378D01*
X623071Y281365D01*
X623078Y281359D01*
X623097Y281352D01*
X623117Y281332D01*
X623137Y281313D01*
X623143Y281306D01*
X623150Y281293D01*
X623156Y281267D01*
X623163Y281240D01*
Y281234D01*
Y281214D01*
X623150Y281188D01*
X623137Y281155D01*
X623130Y281149D01*
X623124Y281135D01*
X623104Y281122D01*
X623071Y281103D01*
X623065D01*
X623045Y281096D01*
X623012Y281089D01*
X622973Y281083D01*
X622933D01*
X622888Y281089D01*
X622848Y281103D01*
X622842Y281109D01*
X622822Y281116D01*
X622796Y281135D01*
X622776Y281162D01*
X622769Y281168D01*
X622763Y281194D01*
X622750Y281227D01*
X622743Y281260D01*
X622815Y281267D01*
Y281260D01*
Y281240D01*
X622822Y281221D01*
X622835Y281201D01*
X622848Y281188D01*
X622861Y281175D01*
X622888Y281155D01*
X622894D01*
X622914Y281149D01*
X622940Y281142D01*
X622993D01*
X623038Y281155D01*
X623045Y281162D01*
X623052Y281168D01*
X623078Y281188D01*
X623084Y281194D01*
X623091Y281201D01*
X623097Y281214D01*
Y281234D01*
Y281240D01*
Y281247D01*
X623091Y281260D01*
X623078Y281273D01*
Y281280D01*
X623071Y281286D01*
X623038Y281306D01*
X623032Y281313D01*
X623006Y281319D01*
X622973Y281326D01*
X622940Y281332D01*
X622927D01*
X622901Y281339D01*
X622868Y281352D01*
X622842Y281365D01*
X622835Y281372D01*
X622822Y281378D01*
X622802Y281391D01*
X622783Y281411D01*
Y281417D01*
X622776Y281431D01*
X622769Y281476D01*
Y281483D01*
Y281503D01*
X622776Y281529D01*
X622789Y281555D01*
X622796Y281562D01*
X622809Y281575D01*
X622828Y281595D01*
X622855Y281608D01*
X622861Y281614D01*
X622881Y281621D01*
X622914Y281627D01*
X622979D01*
X623012Y281621D01*
D02*
G37*
G36*
X628772D02*
X628818Y281608D01*
X628864Y281581D01*
X628870Y281575D01*
X628890Y281555D01*
X628916Y281516D01*
X628936Y281470D01*
X628870Y281457D01*
X628864Y281463D01*
X628857Y281490D01*
X628837Y281516D01*
X628818Y281536D01*
X628811Y281542D01*
X628792Y281555D01*
X628765Y281562D01*
X628726Y281568D01*
X628719D01*
X628693Y281562D01*
X628660Y281555D01*
X628627Y281536D01*
X628621Y281529D01*
X628601Y281516D01*
X628582Y281490D01*
X628569Y281457D01*
Y281450D01*
X628562Y281431D01*
X628555Y281398D01*
Y281359D01*
Y281345D01*
Y281319D01*
X628562Y281280D01*
X628575Y281240D01*
X628582Y281234D01*
X628588Y281214D01*
X628608Y281188D01*
X628634Y281168D01*
X628641Y281162D01*
X628660Y281155D01*
X628687Y281149D01*
X628719Y281142D01*
X628726D01*
X628752Y281149D01*
X628785Y281155D01*
X628818Y281175D01*
X628824Y281181D01*
X628837Y281201D01*
X628857Y281227D01*
X628877Y281273D01*
X628942Y281260D01*
Y281254D01*
X628936Y281247D01*
X628923Y281214D01*
X628903Y281168D01*
X628864Y281129D01*
X628851Y281122D01*
X628824Y281109D01*
X628778Y281089D01*
X628726Y281083D01*
X628713D01*
X628680Y281089D01*
X628634Y281096D01*
X628588Y281116D01*
X628582Y281122D01*
X628562Y281142D01*
X628536Y281175D01*
X628509Y281214D01*
X628503Y281227D01*
X628496Y281260D01*
X628490Y281306D01*
X628483Y281359D01*
Y281365D01*
Y281372D01*
X628490Y281404D01*
X628496Y281450D01*
X628509Y281496D01*
X628516Y281509D01*
X628536Y281536D01*
X628562Y281568D01*
X628601Y281595D01*
X628614Y281601D01*
X628641Y281614D01*
X628680Y281621D01*
X628726Y281627D01*
X628739D01*
X628772Y281621D01*
D02*
G37*
G36*
X624160Y281089D02*
X624088D01*
X623812Y281503D01*
Y281089D01*
X623747D01*
Y281614D01*
X623812D01*
X624088Y281201D01*
Y281614D01*
X624160D01*
Y281089D01*
D02*
G37*
G36*
X628030D02*
X627958D01*
X627755Y281614D01*
X627834D01*
X627965Y281234D01*
X627972Y281227D01*
X627978Y281201D01*
X627991Y281175D01*
X627998Y281149D01*
Y281155D01*
X628004Y281175D01*
X628011Y281201D01*
X628024Y281234D01*
X628168Y281614D01*
X628234D01*
X628030Y281089D01*
D02*
G37*
G36*
X625833D02*
X625767D01*
X625564Y281614D01*
X625636D01*
X625774Y281234D01*
Y281227D01*
X625780Y281214D01*
X625787Y281188D01*
X625800Y281149D01*
Y281155D01*
X625807Y281175D01*
X625820Y281201D01*
X625833Y281234D01*
X625971Y281614D01*
X626043D01*
X625833Y281089D01*
D02*
G37*
G36*
X629408Y281555D02*
X629100D01*
Y281391D01*
X629389D01*
Y281332D01*
X629100D01*
Y281155D01*
X629421D01*
Y281089D01*
X629034D01*
Y281614D01*
X629408D01*
Y281555D01*
D02*
G37*
G36*
X628378Y281089D02*
X628313D01*
Y281614D01*
X628378D01*
Y281089D01*
D02*
G37*
G36*
X627703Y281555D02*
X627394D01*
Y281391D01*
X627683D01*
Y281332D01*
X627394D01*
Y281155D01*
X627716D01*
Y281089D01*
X627322D01*
Y281614D01*
X627703D01*
Y281555D01*
D02*
G37*
G36*
X627066Y281608D02*
X627073D01*
X627093Y281601D01*
X627145Y281568D01*
X627151Y281562D01*
X627171Y281542D01*
X627191Y281516D01*
X627204Y281476D01*
X627211Y281470D01*
X627217Y281444D01*
X627224Y281404D01*
Y281359D01*
Y281345D01*
Y281319D01*
X627217Y281280D01*
X627211Y281247D01*
Y281240D01*
X627204Y281221D01*
X627178Y281175D01*
X627171Y281168D01*
X627165Y281155D01*
X627145Y281142D01*
X627132Y281129D01*
X627125D01*
X627112Y281116D01*
X627066Y281096D01*
X627046D01*
X627014Y281089D01*
X626797D01*
Y281614D01*
X627033D01*
X627066Y281608D01*
D02*
G37*
G36*
X626482Y281555D02*
X626174D01*
Y281391D01*
X626463D01*
Y281332D01*
X626174D01*
Y281155D01*
X626496D01*
Y281089D01*
X626102D01*
Y281614D01*
X626482D01*
Y281555D01*
D02*
G37*
G36*
X625498Y281089D02*
X625420D01*
Y281614D01*
X625498D01*
Y281089D01*
D02*
G37*
G36*
X625341Y281555D02*
X625170D01*
Y281089D01*
X625098D01*
Y281555D01*
X624928D01*
Y281614D01*
X625341D01*
Y281555D01*
D02*
G37*
G36*
X624842Y281089D02*
X624777D01*
Y281614D01*
X624842D01*
Y281089D01*
D02*
G37*
G36*
X623635Y281555D02*
X623327D01*
Y281391D01*
X623622D01*
Y281332D01*
X623327D01*
Y281155D01*
X623648D01*
Y281089D01*
X623261D01*
Y281614D01*
X623635D01*
Y281555D01*
D02*
G37*
%LPC*%
G36*
X651288Y291603D02*
X651224D01*
Y291540D01*
X651288D01*
Y291476D01*
X651351D01*
Y291540D01*
X651288D01*
Y291603D01*
D02*
G37*
G36*
Y291476D02*
X651224D01*
Y291413D01*
X651288D01*
Y291476D01*
D02*
G37*
G36*
X651224Y291413D02*
X651161D01*
Y291350D01*
X651224D01*
Y291413D01*
D02*
G37*
G36*
X651097D02*
X650907D01*
Y291350D01*
X651097D01*
Y291413D01*
D02*
G37*
G36*
X650907Y291350D02*
X650717D01*
Y291286D01*
X650591D01*
Y291223D01*
X650464D01*
Y291160D01*
X650400D01*
Y291096D01*
X650337D01*
Y291033D01*
X650274D01*
Y290969D01*
Y290906D01*
Y290843D01*
Y290779D01*
Y290716D01*
Y290653D01*
Y290589D01*
Y290526D01*
Y290463D01*
X650337D01*
Y290399D01*
Y290336D01*
Y290272D01*
Y290209D01*
X650400D01*
Y290146D01*
Y290082D01*
Y290019D01*
X650464D01*
Y290082D01*
Y290146D01*
Y290209D01*
X650400D01*
Y290272D01*
Y290336D01*
Y290399D01*
Y290463D01*
Y290526D01*
X650337D01*
Y290589D01*
Y290653D01*
Y290716D01*
Y290779D01*
Y290843D01*
Y290906D01*
Y290969D01*
X650400D01*
Y291033D01*
X650464D01*
Y290969D01*
X650527D01*
Y291033D01*
X650464D01*
Y291096D01*
X650591D01*
Y291160D01*
X650654D01*
Y291223D01*
X650781D01*
Y291286D01*
X650907D01*
Y291350D01*
D02*
G37*
G36*
X645648Y290716D02*
X645585D01*
Y290653D01*
X645648D01*
Y290716D01*
D02*
G37*
G36*
X653695Y290653D02*
X653632D01*
Y290589D01*
X653695D01*
Y290526D01*
X653885D01*
Y290463D01*
X653949D01*
Y290526D01*
X654012D01*
Y290589D01*
X653695D01*
Y290653D01*
D02*
G37*
G36*
X653949Y290779D02*
X653759D01*
Y290716D01*
X653949D01*
Y290653D01*
X654012D01*
Y290589D01*
X654075D01*
Y290526D01*
Y290463D01*
Y290399D01*
X654139D01*
Y290463D01*
Y290526D01*
Y290589D01*
X654075D01*
Y290653D01*
X654012D01*
Y290716D01*
X653949D01*
Y290779D01*
D02*
G37*
G36*
X650210Y290526D02*
X650147D01*
Y290463D01*
Y290399D01*
X650274D01*
Y290463D01*
X650210D01*
Y290526D01*
D02*
G37*
G36*
X650527Y289956D02*
X650464D01*
Y289892D01*
X650527D01*
Y289956D01*
D02*
G37*
G36*
X650717Y289766D02*
X650654D01*
Y289702D01*
X650717D01*
Y289766D01*
D02*
G37*
G36*
X653442Y289702D02*
X653378D01*
Y289639D01*
X653442D01*
Y289702D01*
D02*
G37*
G36*
X653505Y289512D02*
X653442D01*
Y289449D01*
Y289386D01*
Y289322D01*
X653505D01*
Y289386D01*
Y289449D01*
Y289512D01*
D02*
G37*
G36*
X653315Y289069D02*
X653252D01*
Y289005D01*
X653315D01*
Y289069D01*
D02*
G37*
G36*
X653442Y289195D02*
X653378D01*
Y289132D01*
Y289069D01*
Y289005D01*
X653442D01*
Y288942D01*
X653505D01*
Y289005D01*
X653442D01*
Y289069D01*
Y289132D01*
Y289195D01*
D02*
G37*
G36*
X653378Y288942D02*
X653315D01*
Y288879D01*
Y288815D01*
X653378D01*
Y288879D01*
Y288942D01*
D02*
G37*
G36*
X653315Y288815D02*
X653252D01*
Y288752D01*
Y288688D01*
X653315D01*
Y288752D01*
Y288815D01*
D02*
G37*
G36*
X654012Y288435D02*
X653949D01*
Y288372D01*
X654012D01*
Y288435D01*
D02*
G37*
G36*
X651668D02*
X651604D01*
Y288372D01*
X651668D01*
Y288435D01*
D02*
G37*
G36*
X652681Y288372D02*
X652618D01*
Y288308D01*
X652681D01*
Y288372D01*
D02*
G37*
G36*
X646155Y287548D02*
X646092D01*
Y287485D01*
X646155D01*
Y287548D01*
D02*
G37*
G36*
X650020Y287358D02*
X649957D01*
Y287295D01*
X650020D01*
Y287358D01*
D02*
G37*
G36*
X650084Y287168D02*
X650020D01*
Y287105D01*
X650084D01*
Y287168D01*
D02*
G37*
G36*
X646155Y287295D02*
X646092D01*
Y287231D01*
Y287168D01*
Y287105D01*
X646155D01*
Y287168D01*
Y287231D01*
Y287295D01*
D02*
G37*
G36*
X654139Y286914D02*
X654012D01*
Y286851D01*
X654139D01*
Y286914D01*
D02*
G37*
G36*
X646029Y287105D02*
X645965D01*
Y287041D01*
X646029D01*
Y286978D01*
Y286914D01*
Y286851D01*
X646092D01*
Y286914D01*
Y286978D01*
Y287041D01*
X646029D01*
Y287105D01*
D02*
G37*
G36*
X654139Y286724D02*
X654075D01*
Y286661D01*
X654139D01*
Y286724D01*
D02*
G37*
G36*
X652301Y286534D02*
X652238D01*
Y286471D01*
X652301D01*
Y286534D01*
D02*
G37*
G36*
X646029Y286851D02*
X645965D01*
Y286788D01*
Y286724D01*
X645902D01*
Y286661D01*
Y286598D01*
X645838D01*
Y286534D01*
Y286471D01*
X645775D01*
Y286407D01*
Y286344D01*
X645838D01*
Y286407D01*
X645902D01*
Y286471D01*
Y286534D01*
X645965D01*
Y286598D01*
Y286661D01*
X646029D01*
Y286724D01*
Y286788D01*
Y286851D01*
D02*
G37*
G36*
X654075Y286344D02*
X654012D01*
Y286281D01*
X654075D01*
Y286344D01*
D02*
G37*
G36*
X651858Y284887D02*
X651794D01*
Y284823D01*
X651858D01*
Y284887D01*
D02*
G37*
G36*
X652808Y284760D02*
X652745D01*
Y284697D01*
X652808D01*
Y284760D01*
D02*
G37*
G36*
X644445Y284633D02*
X644381D01*
Y284570D01*
X644445D01*
Y284633D01*
D02*
G37*
G36*
X643874Y284507D02*
X643811D01*
Y284443D01*
X643874D01*
Y284507D01*
D02*
G37*
G36*
X644191Y283683D02*
X644128D01*
Y283620D01*
X644191D01*
Y283683D01*
D02*
G37*
G36*
X643684Y282986D02*
X643621D01*
Y282923D01*
X643684D01*
Y282986D01*
D02*
G37*
G36*
X636204Y290516D02*
X636158D01*
X636132Y290510D01*
X636053Y290490D01*
X635975Y290451D01*
X635968Y290444D01*
X635955Y290438D01*
X635948D01*
X635942Y290431D01*
X635935D01*
X635929Y290418D01*
X635896Y290385D01*
X635850Y290339D01*
X635811Y290280D01*
X635804D01*
X632668Y284848D01*
X632675D01*
X632668Y284842D01*
Y284835D01*
X632655Y284816D01*
X632649Y284796D01*
X632642Y284783D01*
Y284776D01*
X632636Y284757D01*
X632629Y284737D01*
X632622Y284717D01*
Y284711D01*
X632616Y284691D01*
Y284658D01*
Y284612D01*
Y284566D01*
X632629Y284507D01*
X632649Y284455D01*
X632675Y284396D01*
Y284389D01*
X632688Y284376D01*
X632714Y284343D01*
Y284337D01*
X632727Y284330D01*
X632741Y284311D01*
X632760Y284291D01*
X632767Y284284D01*
X632780Y284271D01*
X632813Y284251D01*
X632846Y284232D01*
X632892Y284206D01*
X632944Y284186D01*
X633010Y284173D01*
X633075Y284166D01*
X639340D01*
X639347Y284173D01*
X639419D01*
X639432Y284179D01*
X639465Y284186D01*
X639478Y284192D01*
X639484D01*
X639504Y284206D01*
X639537Y284219D01*
X639570Y284238D01*
X639615Y284265D01*
X639655Y284297D01*
X639694Y284343D01*
X639734Y284396D01*
Y284402D01*
X639747Y284415D01*
X639753Y284435D01*
X639766Y284468D01*
X639786Y284540D01*
X639799Y284625D01*
Y284632D01*
Y284639D01*
X639793Y284665D01*
Y284671D01*
Y284684D01*
X639786Y284704D01*
Y284724D01*
X639766Y284789D01*
X639734Y284855D01*
Y284861D01*
X636598Y290287D01*
X636591Y290293D01*
X636585Y290306D01*
X636558Y290339D01*
Y290346D01*
X636545Y290352D01*
X636532Y290372D01*
X636513Y290392D01*
X636506Y290398D01*
X636486Y290411D01*
X636460Y290431D01*
X636427Y290451D01*
X636381Y290470D01*
X636329Y290490D01*
X636270Y290503D01*
X636204Y290510D01*
Y290516D01*
D02*
G37*
%LPD*%
G36*
X635299Y286784D02*
X637359Y287853D01*
X636106Y285248D01*
X636558Y285360D01*
X635811Y284481D01*
X635634Y285531D01*
X635981Y285262D01*
X636467Y287138D01*
X634886Y286357D01*
X635896Y289873D01*
X636644Y289900D01*
X635299Y286784D01*
D02*
G37*
%LPC*%
G36*
X626036Y290516D02*
X625990D01*
X625964Y290510D01*
X625892Y290490D01*
X625807Y290451D01*
X625800D01*
X625794Y290444D01*
X625780Y290438D01*
X625774Y290431D01*
X625767D01*
X625761Y290418D01*
X625728Y290385D01*
X625682Y290339D01*
X625643Y290280D01*
X624160Y287722D01*
X624646Y287440D01*
X624652Y287453D01*
X624685Y287479D01*
X624731Y287525D01*
X624796Y287584D01*
X624803D01*
X624810Y287591D01*
X624849Y287617D01*
X624901Y287656D01*
X624980Y287709D01*
X624987D01*
X624993Y287715D01*
X625026Y287735D01*
X625033Y287741D01*
X625046Y287748D01*
X625085Y287774D01*
X625092Y287781D01*
X625105Y287787D01*
X625151Y287813D01*
X625197Y287846D01*
X625223Y287859D01*
X625236Y287866D01*
X625243D01*
X625249Y287873D01*
X625282Y287899D01*
X625341Y287938D01*
X625407Y287984D01*
X625485Y288036D01*
X625577Y288083D01*
X625662Y288128D01*
X625748Y288161D01*
X625761Y288168D01*
X625794Y288174D01*
X625840Y288187D01*
X625905Y288201D01*
X625990Y288214D01*
X626082Y288220D01*
X626187Y288227D01*
X626351D01*
X626384Y288220D01*
X626502D01*
X626535Y288214D01*
X626627D01*
X626686Y288207D01*
X626843D01*
X626876Y288214D01*
X626915D01*
X626968Y288220D01*
X627027Y288233D01*
X627138Y288273D01*
X627506Y288424D01*
X626430Y290287D01*
Y290293D01*
X626417Y290306D01*
X626391Y290339D01*
X626384Y290346D01*
X626377Y290359D01*
X626345Y290392D01*
X626338Y290398D01*
X626318Y290411D01*
X626292Y290431D01*
X626259Y290451D01*
X626213Y290470D01*
X626161Y290490D01*
X626102Y290503D01*
X626036Y290510D01*
Y290516D01*
D02*
G37*
G36*
X627565Y288319D02*
X627184Y288161D01*
X627178D01*
X627158Y288148D01*
X627119Y288135D01*
X627073Y288122D01*
X627020Y288109D01*
X626961Y288096D01*
X626824Y288083D01*
X626712D01*
X626653Y288089D01*
X626594D01*
X626463Y288096D01*
X626410D01*
X626377Y288102D01*
X626122D01*
X626043Y288096D01*
X625958Y288083D01*
X625872Y288069D01*
X625787Y288043D01*
X625780D01*
X625748Y288030D01*
X625708Y288010D01*
X625649Y287984D01*
X625577Y287945D01*
X625498Y287899D01*
X625407Y287840D01*
X625308Y287774D01*
X625302Y287768D01*
X625269Y287748D01*
X625216Y287715D01*
X625144Y287669D01*
X625138D01*
X625124Y287656D01*
X625092Y287636D01*
X625046Y287610D01*
X625039D01*
X625033Y287604D01*
X624993Y287577D01*
X624934Y287538D01*
X624869Y287486D01*
X624856Y287479D01*
X624829Y287453D01*
X624796Y287420D01*
X624751Y287381D01*
X627119Y286010D01*
X627132Y286016D01*
X627158Y286023D01*
X627204Y286042D01*
X627270Y286075D01*
X627342Y286128D01*
X627434Y286187D01*
X627532Y286272D01*
X627637Y286377D01*
X627643Y286383D01*
X627663Y286403D01*
X627689Y286429D01*
X627722Y286462D01*
X627729Y286469D01*
X627742Y286488D01*
X627775Y286534D01*
X627781Y286547D01*
X627788Y286561D01*
X627801Y286580D01*
X627814Y286607D01*
X627834Y286646D01*
X627853Y286692D01*
X627873Y286744D01*
Y286751D01*
X627880Y286771D01*
X627893Y286797D01*
X627906Y286829D01*
X627939Y286902D01*
X627972Y286974D01*
Y286980D01*
X627985Y286994D01*
X627998Y287013D01*
X628011Y287039D01*
X628057Y287099D01*
X628109Y287158D01*
X628116Y287164D01*
X628135Y287184D01*
X628162Y287210D01*
X628195Y287230D01*
X627565Y288319D01*
D02*
G37*
G36*
X625866Y286311D02*
Y286305D01*
X625859Y286279D01*
Y286252D01*
Y286226D01*
Y286219D01*
Y286193D01*
X625866Y286160D01*
X625879Y286128D01*
X625885Y286115D01*
X625892Y286101D01*
X625899Y286088D01*
X625912Y286055D01*
X625931Y286016D01*
X625958Y285983D01*
X625964Y285990D01*
X625977Y286003D01*
X625997Y286016D01*
X626030Y286042D01*
X626095Y286088D01*
X626161Y286141D01*
X625866Y286311D01*
D02*
G37*
G36*
X625544Y286495D02*
X625538Y286488D01*
X625525Y286469D01*
X625512Y286442D01*
X625498Y286403D01*
Y286390D01*
X625492Y286364D01*
X625485Y286331D01*
Y286285D01*
Y286279D01*
Y286252D01*
Y286226D01*
Y286187D01*
Y286154D01*
Y286121D01*
Y286095D01*
Y286088D01*
Y286082D01*
Y286069D01*
Y286029D01*
X625492Y285970D01*
X625505Y285918D01*
Y285905D01*
X625512Y285891D01*
X625518Y285872D01*
Y285865D01*
X625525Y285852D01*
X625538Y285826D01*
X625544Y285813D01*
X625557Y285780D01*
X625584Y285727D01*
X625623Y285662D01*
X625630Y285668D01*
X625643Y285688D01*
X625649Y285695D01*
X625662Y285714D01*
X625669Y285721D01*
X625675Y285734D01*
X625695Y285754D01*
X625721Y285773D01*
X625787Y285839D01*
X625859Y285905D01*
X625853Y285911D01*
X625840Y285944D01*
X625813Y285990D01*
X625780Y286055D01*
Y286062D01*
X625774Y286069D01*
X625767Y286082D01*
X625761Y286095D01*
X625754Y286121D01*
X625741Y286167D01*
X625735Y286226D01*
Y286232D01*
Y286239D01*
X625741Y286272D01*
X625748Y286318D01*
X625761Y286377D01*
X625544Y286495D01*
D02*
G37*
G36*
X625262Y286666D02*
Y286659D01*
X625256Y286652D01*
X625249Y286633D01*
X625243Y286607D01*
X625210Y286541D01*
X625183Y286495D01*
X625151Y286449D01*
Y286442D01*
X625138Y286436D01*
X625118Y286397D01*
X625092Y286344D01*
X625072Y286298D01*
Y286285D01*
Y286272D01*
X625078Y286246D01*
X625085Y286213D01*
X625092Y286174D01*
X625105Y286121D01*
X625124Y286055D01*
Y286049D01*
X625138Y286023D01*
X625144Y285990D01*
X625157Y285944D01*
X625170Y285859D01*
X625177Y285819D01*
X625170Y285787D01*
Y285780D01*
X625164Y285767D01*
Y285747D01*
X625157Y285714D01*
Y285642D01*
Y285557D01*
Y285544D01*
Y285531D01*
X625164Y285524D01*
Y285518D01*
X625170D01*
X625183Y285511D01*
X625197Y285504D01*
X625203Y285498D01*
X625197D01*
X625203Y285491D01*
X625210Y285485D01*
X625229Y285478D01*
X625236Y285472D01*
X625249Y285465D01*
X625269Y285452D01*
X625275Y285439D01*
Y285432D01*
X625288Y285426D01*
X625315Y285406D01*
X625348Y285386D01*
X625354Y285380D01*
X625374Y285373D01*
X625400Y285360D01*
X625420Y285347D01*
Y285353D01*
X625426Y285367D01*
X625439Y285386D01*
X625453Y285413D01*
X625492Y285478D01*
X625544Y285563D01*
Y285570D01*
X625531Y285583D01*
X625518Y285603D01*
X625505Y285629D01*
X625466Y285695D01*
X625426Y285773D01*
X625420Y285787D01*
X625413Y285806D01*
X625400Y285826D01*
Y285832D01*
Y285839D01*
X625393Y285852D01*
X625380Y285885D01*
Y285891D01*
Y285905D01*
X625374Y285937D01*
X625367Y285964D01*
Y285996D01*
X625361Y286042D01*
Y286088D01*
Y286095D01*
Y286115D01*
Y286147D01*
Y286180D01*
Y286187D01*
Y286213D01*
Y286246D01*
Y286285D01*
Y286292D01*
Y286298D01*
Y286337D01*
X625367Y286383D01*
X625380Y286436D01*
Y286442D01*
X625387Y286449D01*
X625393Y286482D01*
X625413Y286521D01*
X625439Y286561D01*
X625262Y286666D01*
D02*
G37*
G36*
X626607Y285570D02*
X626601D01*
X626594Y285563D01*
X626554Y285537D01*
X626515Y285511D01*
X626476Y285485D01*
X626463Y285472D01*
X626436Y285445D01*
X626391Y285393D01*
X626351Y285321D01*
X626345Y285314D01*
X626338Y285301D01*
Y285295D01*
X626332Y285288D01*
X626338Y285281D01*
X626358Y285275D01*
X626384Y285262D01*
X626417Y285248D01*
X626423D01*
X626436Y285242D01*
X626456Y285235D01*
X626482D01*
X626554Y285222D01*
X626640Y285216D01*
X626653D01*
X626692Y285222D01*
X626732Y285235D01*
X626751Y285242D01*
X626764Y285248D01*
Y285255D01*
Y285262D01*
X626771Y285268D01*
X626778Y285301D01*
X626784Y285334D01*
X626791Y285360D01*
Y285367D01*
Y285380D01*
X626784Y285399D01*
X626771Y285426D01*
X626764Y285432D01*
X626751D01*
Y285439D01*
X626745Y285445D01*
X626732Y285458D01*
X626692Y285504D01*
X626646Y285550D01*
X626627Y285563D01*
X626607Y285570D01*
D02*
G37*
G36*
X626279Y286075D02*
X626272Y286069D01*
X626259Y286062D01*
X626233Y286042D01*
X626207Y286023D01*
X626167Y285990D01*
X626122Y285957D01*
X626023Y285878D01*
X626017Y285872D01*
X625997Y285859D01*
X625971Y285839D01*
X625938Y285806D01*
X625846Y285727D01*
X625754Y285629D01*
X625741Y285616D01*
X625708Y285577D01*
X625669Y285518D01*
X625616Y285445D01*
X625564Y285360D01*
X625525Y285262D01*
X625492Y285163D01*
X625479Y285058D01*
X625485Y285065D01*
X625492Y285085D01*
X625498Y285104D01*
X625512Y285117D01*
X625518D01*
X625525Y285131D01*
X625557Y285157D01*
X625610Y285190D01*
X625675Y285216D01*
X625682D01*
X625695Y285222D01*
X625708Y285229D01*
X625735D01*
X625741Y285235D01*
X625761D01*
X625780Y285242D01*
X625787D01*
X625807Y285248D01*
X625833D01*
X625866Y285255D01*
X625944Y285262D01*
X626023Y285255D01*
X626030D01*
X626043Y285248D01*
X626082Y285242D01*
X626089D01*
X626108Y285235D01*
X626135Y285229D01*
X626174Y285209D01*
Y285216D01*
X626181Y285229D01*
X626194Y285262D01*
Y285268D01*
X626200Y285295D01*
X626213Y285327D01*
X626240Y285373D01*
Y285380D01*
X626253Y285393D01*
X626266Y285419D01*
X626286Y285452D01*
X626338Y285518D01*
X626404Y285583D01*
X626410Y285590D01*
X626430Y285603D01*
X626450Y285616D01*
X626476Y285629D01*
X626509Y285649D01*
X626548Y285675D01*
X626554Y285682D01*
X626568Y285688D01*
X626594Y285708D01*
X626620Y285727D01*
X626679Y285767D01*
X626712Y285793D01*
X626732Y285813D01*
X626279Y286075D01*
D02*
G37*
G36*
X626292Y285170D02*
X626286Y285157D01*
Y285144D01*
X626279Y285117D01*
Y285111D01*
X626272Y285104D01*
Y285085D01*
X626259Y285058D01*
X626233Y284999D01*
X626194Y284921D01*
X626200Y284914D01*
X626233Y284894D01*
X626272Y284881D01*
X626332Y284868D01*
X626345D01*
X626371Y284875D01*
X626404Y284888D01*
X626436Y284907D01*
X626443Y284914D01*
X626450Y284921D01*
X626463Y284940D01*
Y284947D01*
X626469Y284960D01*
X626476Y284973D01*
Y284980D01*
Y284986D01*
Y285019D01*
X626463Y285065D01*
X626436Y285117D01*
X626430D01*
X626417Y285124D01*
X626397Y285131D01*
X626377Y285137D01*
X626371Y285144D01*
X626345Y285150D01*
X626318Y285157D01*
X626292Y285170D01*
D02*
G37*
G36*
X624521Y287092D02*
Y287085D01*
X624514Y287072D01*
X624508Y287039D01*
X624501Y287007D01*
X624482Y286954D01*
X624462Y286902D01*
X624429Y286836D01*
X624396Y286764D01*
Y286757D01*
X624383Y286738D01*
X624370Y286711D01*
X624357Y286679D01*
X624331Y286607D01*
X624318Y286574D01*
X624311Y286547D01*
Y286541D01*
Y286528D01*
X624304Y286502D01*
Y286469D01*
X624311Y286423D01*
X624318Y286357D01*
X624337Y286285D01*
X624357Y286200D01*
X624364Y286187D01*
X624370Y286160D01*
X624383Y286121D01*
X624390Y286082D01*
Y286075D01*
Y286069D01*
X624396Y286055D01*
X624403Y286036D01*
X624409Y286003D01*
X624416Y285957D01*
X624423Y285905D01*
X624436Y285839D01*
X624442Y285767D01*
Y285760D01*
X624449Y285740D01*
Y285708D01*
X624455Y285668D01*
X624469Y285583D01*
X624482Y285537D01*
X624488Y285498D01*
Y285491D01*
X624495Y285478D01*
X624501Y285458D01*
X624514Y285432D01*
X624541Y285367D01*
X624573Y285288D01*
Y285281D01*
X624580Y285275D01*
X624593Y285235D01*
X624613Y285190D01*
X624626Y285150D01*
X624632D01*
X624646Y285157D01*
X624652D01*
X624665Y285163D01*
X624737D01*
X624764Y285157D01*
X624796Y285144D01*
X624836Y285124D01*
X624882Y285091D01*
X624921Y285052D01*
X624961Y284999D01*
Y284993D01*
X624967Y284980D01*
X624980Y284966D01*
X624993Y284953D01*
X625000Y284940D01*
X625013Y284914D01*
X625033Y284881D01*
X625046Y284842D01*
Y284835D01*
X625052Y284822D01*
Y284803D01*
Y284776D01*
Y284770D01*
Y284757D01*
Y284737D01*
X625046Y284724D01*
X625052D01*
X625059Y284730D01*
X625065Y284737D01*
X625072Y284743D01*
X625078Y284750D01*
X625085Y284757D01*
X625124Y284796D01*
X625164Y284855D01*
X625177Y284888D01*
X625183Y284927D01*
Y284934D01*
Y284947D01*
X625177Y284966D01*
X625170Y285006D01*
X625157Y285058D01*
X625144Y285131D01*
X625118Y285222D01*
X625085Y285334D01*
Y285347D01*
X625078Y285367D01*
X625072Y285386D01*
X625065Y285413D01*
X625059Y285426D01*
X625052Y285452D01*
X625046Y285485D01*
Y285491D01*
X625039Y285511D01*
Y285518D01*
Y285524D01*
Y285550D01*
Y285557D01*
Y285570D01*
Y285596D01*
Y285636D01*
Y285714D01*
X625059Y285813D01*
Y285819D01*
Y285832D01*
Y285852D01*
X625052Y285878D01*
X625046Y285911D01*
X625033Y285957D01*
X625013Y286010D01*
Y286016D01*
X625000Y286042D01*
X624993Y286082D01*
X624980Y286128D01*
X624961Y286232D01*
X624954Y286279D01*
Y286318D01*
Y286324D01*
X624961Y286331D01*
X624974Y286370D01*
X625000Y286436D01*
X625026Y286475D01*
X625052Y286515D01*
X625059Y286521D01*
X625065Y286534D01*
X625078Y286561D01*
X625098Y286593D01*
X625131Y286659D01*
X625138Y286698D01*
X625144Y286731D01*
X624521Y287092D01*
D02*
G37*
G36*
X626004Y285203D02*
X625944D01*
X625912Y285196D01*
X625866D01*
X625813Y285190D01*
X625767Y285176D01*
X625761D01*
X625748Y285170D01*
X625728D01*
X625721Y285163D01*
X625708Y285157D01*
X625689D01*
X625682Y285150D01*
X625649Y285137D01*
X625603Y285104D01*
X625557Y285071D01*
Y285065D01*
X625544Y285052D01*
X625531Y285019D01*
X625518Y284993D01*
X625505Y284960D01*
Y284953D01*
X625498Y284947D01*
X625492Y284927D01*
X625485Y284901D01*
Y284894D01*
X625492Y284881D01*
X625505Y284842D01*
X625525Y284789D01*
X625564Y284737D01*
X625570Y284730D01*
X625584Y284724D01*
X625610Y284711D01*
X625656Y284698D01*
X625708D01*
X625754Y284704D01*
X625780D01*
X625800Y284711D01*
X625826Y284724D01*
X625833D01*
X625846Y284730D01*
X625866Y284743D01*
X625905Y284763D01*
X625918Y284770D01*
X625944Y284803D01*
X625964Y284829D01*
X625990Y284855D01*
X626023Y284894D01*
X626056Y284940D01*
X626062Y284947D01*
X626069Y284960D01*
X626089Y284986D01*
X626108Y285012D01*
X626141Y285085D01*
X626154Y285117D01*
X626161Y285144D01*
X626154Y285150D01*
X626122Y285163D01*
X626076Y285183D01*
X626004Y285203D01*
D02*
G37*
G36*
X624711Y285104D02*
X624698D01*
X624659Y285098D01*
X624652D01*
X624646Y285091D01*
X624659Y285058D01*
X624665Y285045D01*
X624672Y285019D01*
X624685Y284980D01*
X624705Y284934D01*
X624751Y284829D01*
X624777Y284789D01*
X624796Y284757D01*
X624810Y284743D01*
X624836Y284724D01*
X624875Y284698D01*
X624901Y284691D01*
X624928Y284684D01*
X624980D01*
X624987Y284691D01*
Y284698D01*
Y284711D01*
Y284724D01*
Y284730D01*
Y284743D01*
Y284776D01*
Y284783D01*
Y284796D01*
Y284816D01*
Y284822D01*
Y284829D01*
X624974Y284848D01*
X624961Y284881D01*
X624941Y284914D01*
X624934Y284921D01*
X624921Y284940D01*
X624915Y284947D01*
X624908Y284973D01*
X624901Y284980D01*
X624895Y284993D01*
X624856Y285039D01*
X624790Y285085D01*
X624751Y285098D01*
X624711Y285104D01*
D02*
G37*
G36*
X628260Y287125D02*
X628254D01*
X628247Y287118D01*
X628234Y287112D01*
X628195Y287072D01*
X628188Y287066D01*
X628162Y287033D01*
X628122Y286987D01*
X628077Y286915D01*
Y286908D01*
X628070Y286895D01*
X628063Y286882D01*
X628050Y286862D01*
X628037Y286836D01*
X628024Y286803D01*
X628004Y286757D01*
X627985Y286705D01*
Y286698D01*
X627978Y286679D01*
X627965Y286652D01*
X627952Y286620D01*
X627919Y286541D01*
X627899Y286502D01*
X627880Y286469D01*
X627873Y286462D01*
X627860Y286442D01*
X627840Y286416D01*
X627814Y286383D01*
X627808Y286377D01*
X627781Y286351D01*
X627755Y286318D01*
X627722Y286292D01*
X627709Y286279D01*
X627676Y286252D01*
X627630Y286206D01*
X627565Y286154D01*
X627493Y286088D01*
X627414Y286029D01*
X627335Y285977D01*
X627250Y285931D01*
X629625Y284560D01*
Y284566D01*
X629631Y284573D01*
Y284599D01*
Y284625D01*
Y284632D01*
Y284639D01*
X629625Y284665D01*
X629631D01*
Y284671D01*
Y284684D01*
X629625Y284704D01*
X629618Y284730D01*
X629598Y284789D01*
X629566Y284855D01*
Y284861D01*
X628260Y287125D01*
D02*
G37*
G36*
X623977Y287400D02*
X622507Y284848D01*
X622501Y284842D01*
Y284835D01*
X622487Y284816D01*
X622481Y284796D01*
X622474Y284783D01*
Y284776D01*
X622468Y284763D01*
X622461Y284743D01*
X622455Y284717D01*
Y284711D01*
X622448Y284684D01*
Y284652D01*
Y284612D01*
X622455Y284560D01*
X622461Y284507D01*
X622481Y284448D01*
X622507Y284396D01*
Y284389D01*
X622520Y284383D01*
X622546Y284343D01*
Y284337D01*
X622559Y284330D01*
X622573Y284311D01*
X622592Y284291D01*
X622599Y284284D01*
X622618Y284271D01*
X622645Y284251D01*
X622684Y284232D01*
X622730Y284206D01*
X622783Y284186D01*
X622842Y284173D01*
X622907Y284166D01*
X629172D01*
X629178Y284173D01*
X629244D01*
X629257Y284179D01*
X629277Y284186D01*
X629297Y284192D01*
X629316D01*
X629323Y284199D01*
X629349Y284206D01*
X629389Y284225D01*
X629428Y284251D01*
X626843Y285747D01*
X626830Y285740D01*
X626804Y285714D01*
X626764Y285675D01*
X626719Y285642D01*
X626725Y285636D01*
X626751Y285616D01*
X626791Y285577D01*
X626843Y285524D01*
X626850Y285518D01*
X626856Y285504D01*
X626863Y285491D01*
X626889Y285458D01*
X626909Y285413D01*
X626915Y285353D01*
Y285340D01*
X626909Y285314D01*
X626902Y285268D01*
X626883Y285216D01*
X626876Y285209D01*
X626856Y285176D01*
X626843Y285163D01*
X626830Y285150D01*
X626810Y285137D01*
X626778Y285124D01*
X626738Y285111D01*
X626692Y285104D01*
X626640Y285098D01*
X626587D01*
Y285091D01*
Y285085D01*
X626594Y285052D01*
X626601Y284999D01*
X626594Y284947D01*
Y284940D01*
X626587Y284934D01*
X626581Y284914D01*
X626574Y284888D01*
Y284881D01*
X626561Y284868D01*
X626554Y284855D01*
X626541Y284842D01*
Y284835D01*
X626535Y284829D01*
X626528Y284822D01*
X626522Y284816D01*
X626515Y284809D01*
X626496Y284796D01*
X626476Y284783D01*
X626404Y284757D01*
X626364Y284750D01*
X626299D01*
X626279Y284757D01*
X626253D01*
X626194Y284783D01*
X626154Y284796D01*
X626122Y284822D01*
Y284816D01*
X626108Y284809D01*
X626076Y284770D01*
X626030Y284717D01*
X625977Y284671D01*
X625971Y284665D01*
X625951Y284652D01*
X625918Y284632D01*
X625879Y284612D01*
X625872Y284606D01*
X625846Y284599D01*
X625807Y284586D01*
X625767Y284579D01*
X625623D01*
X625577Y284593D01*
X625531Y284619D01*
X625479Y284652D01*
X625472Y284658D01*
X625459Y284671D01*
X625439Y284698D01*
X625420Y284737D01*
X625400Y284789D01*
X625380Y284848D01*
X625367Y284927D01*
X625361Y285012D01*
Y285019D01*
Y285026D01*
Y285032D01*
Y285045D01*
Y285052D01*
Y285058D01*
Y285098D01*
X625367Y285150D01*
X625380Y285216D01*
X625367Y285229D01*
X625341Y285248D01*
X625315Y285262D01*
X625288Y285281D01*
X625282Y285288D01*
X625262Y285295D01*
X625236Y285314D01*
X625216Y285327D01*
Y285321D01*
X625223Y285314D01*
X625229Y285275D01*
X625243Y285222D01*
X625262Y285163D01*
X625275Y285091D01*
X625288Y285026D01*
X625302Y284966D01*
Y284921D01*
Y284914D01*
X625295Y284894D01*
X625288Y284868D01*
X625275Y284829D01*
X625262Y284783D01*
X625229Y284743D01*
X625197Y284698D01*
X625151Y284652D01*
X625144Y284645D01*
X625118Y284625D01*
X625085Y284606D01*
X625046Y284586D01*
X625033Y284579D01*
X625006Y284573D01*
X624967Y284566D01*
X624921Y284560D01*
X624915D01*
X624901Y284566D01*
X624875Y284573D01*
X624842Y284579D01*
X624810Y284593D01*
X624777Y284612D01*
X624737Y284645D01*
X624705Y284678D01*
X624698Y284684D01*
X624691Y284698D01*
X624678Y284717D01*
X624659Y284757D01*
X624632Y284803D01*
X624606Y284855D01*
X624580Y284927D01*
X624547Y285012D01*
Y285019D01*
X624541Y285039D01*
X624534Y285058D01*
X624528Y285065D01*
Y285071D01*
X624521Y285078D01*
X624514Y285091D01*
X624508Y285117D01*
X624495Y285144D01*
X624482Y285183D01*
X624462Y285235D01*
Y285242D01*
X624449Y285262D01*
X624442Y285288D01*
X624429Y285321D01*
X624396Y285393D01*
X624383Y285426D01*
X624377Y285458D01*
Y285465D01*
X624370Y285472D01*
Y285491D01*
X624364Y285524D01*
X624350Y285563D01*
X624344Y285609D01*
X624337Y285675D01*
X624324Y285747D01*
Y285754D01*
X624318Y285780D01*
Y285819D01*
X624311Y285859D01*
X624291Y285964D01*
X624285Y286010D01*
X624272Y286049D01*
Y286055D01*
Y286062D01*
X624265Y286082D01*
X624259Y286121D01*
X624239Y286167D01*
Y286174D01*
Y286180D01*
X624226Y286213D01*
X624213Y286265D01*
X624206Y286331D01*
X624186Y286469D01*
Y286528D01*
X624193Y286580D01*
Y286587D01*
X624199Y286593D01*
X624206Y286613D01*
X624213Y286639D01*
X624226Y286679D01*
X624245Y286718D01*
X624265Y286764D01*
X624291Y286816D01*
X624298Y286823D01*
X624304Y286849D01*
X624324Y286889D01*
X624344Y286934D01*
X624383Y287046D01*
X624396Y287105D01*
X624403Y287158D01*
X623977Y287400D01*
D02*
G37*
G36*
X615868Y290516D02*
X615822D01*
X615796Y290510D01*
X615724Y290490D01*
X615639Y290451D01*
X615632D01*
X615626Y290444D01*
X615612Y290438D01*
X615606Y290431D01*
X615599D01*
X615593Y290418D01*
X615560Y290385D01*
X615514Y290339D01*
X615475Y290280D01*
X612339Y284848D01*
X612332Y284842D01*
Y284835D01*
X612319Y284816D01*
X612313Y284796D01*
X612306Y284783D01*
Y284776D01*
X612300Y284763D01*
X612293Y284743D01*
X612287Y284717D01*
Y284711D01*
X612280Y284684D01*
Y284652D01*
Y284612D01*
X612287Y284560D01*
X612293Y284507D01*
X612313Y284448D01*
X612339Y284396D01*
Y284389D01*
X612352Y284383D01*
X612378Y284343D01*
Y284337D01*
X612392Y284330D01*
X612405Y284311D01*
X612424Y284291D01*
X612431Y284284D01*
X612451Y284271D01*
X612477Y284251D01*
X612516Y284232D01*
X612562Y284206D01*
X612614Y284186D01*
X612674Y284173D01*
X612739Y284166D01*
X619004D01*
X619010Y284173D01*
X619076D01*
X619089Y284179D01*
X619109Y284186D01*
X619129Y284192D01*
X619148D01*
X619168Y284206D01*
X619201Y284219D01*
X619234Y284238D01*
X619279Y284265D01*
X619319Y284297D01*
X619358Y284343D01*
X619398Y284396D01*
X619404D01*
Y284402D01*
X619411Y284415D01*
X619424Y284435D01*
X619437Y284461D01*
X619457Y284540D01*
X619463Y284625D01*
Y284632D01*
Y284639D01*
X619457Y284665D01*
X619463D01*
Y284671D01*
Y284684D01*
X619457Y284704D01*
X619450Y284730D01*
X619430Y284789D01*
X619398Y284855D01*
Y284861D01*
X616262Y290287D01*
Y290293D01*
X616249Y290306D01*
X616222Y290339D01*
X616216Y290346D01*
X616209Y290359D01*
X616177Y290392D01*
X616170Y290398D01*
X616150Y290411D01*
X616124Y290431D01*
X616091Y290451D01*
X616045Y290470D01*
X615993Y290490D01*
X615934Y290503D01*
X615868Y290510D01*
Y290516D01*
D02*
G37*
%LPD*%
G36*
Y289394D02*
X616308D01*
Y289381D01*
Y289349D01*
Y289296D01*
Y289230D01*
Y289152D01*
Y289060D01*
Y288962D01*
Y288863D01*
Y288850D01*
Y288817D01*
Y288765D01*
Y288699D01*
Y288620D01*
Y288528D01*
Y288430D01*
Y288332D01*
Y288325D01*
Y288312D01*
X616301Y288292D01*
X616295Y288260D01*
Y288220D01*
X616282Y288168D01*
X616275Y288096D01*
Y288083D01*
Y288069D01*
X616268Y288050D01*
Y288017D01*
X616262Y287978D01*
X616255Y287932D01*
X616249Y287873D01*
X616242Y287807D01*
X616229Y287722D01*
X616216Y287630D01*
X616203Y287525D01*
X616190Y287400D01*
X616177Y287269D01*
X616157Y287118D01*
X616137Y286948D01*
Y286934D01*
Y286921D01*
Y286895D01*
X616131Y286862D01*
X616124Y286816D01*
X616118Y286757D01*
X616111Y286679D01*
Y286672D01*
Y286646D01*
X616104Y286607D01*
X616098Y286567D01*
X616091Y286528D01*
X616085Y286488D01*
X616072Y286456D01*
X616065Y286442D01*
X615914D01*
X615783Y286436D01*
X615658D01*
Y286442D01*
Y286456D01*
X615652Y286488D01*
Y286515D01*
X615645Y286547D01*
X615639Y286587D01*
X615632Y286639D01*
X615626Y286705D01*
X615619Y286777D01*
X615606Y286856D01*
X615593Y286954D01*
X615580Y287066D01*
X615566Y287190D01*
Y287197D01*
X615560Y287223D01*
Y287256D01*
X615553Y287302D01*
X615547Y287354D01*
X615540Y287413D01*
X615521Y287551D01*
X615508Y287682D01*
X615501Y287741D01*
X615494Y287800D01*
X615488Y287846D01*
X615481Y287886D01*
X615475Y287912D01*
Y287925D01*
Y287932D01*
Y287951D01*
X615468Y287971D01*
Y288004D01*
X615462Y288069D01*
X615455Y288096D01*
X615448Y288122D01*
Y288135D01*
X615442Y288168D01*
X615435Y288227D01*
X615429Y288305D01*
Y288319D01*
Y288351D01*
Y288404D01*
Y288476D01*
Y288561D01*
Y288653D01*
Y288850D01*
Y288863D01*
Y288896D01*
Y288955D01*
Y289021D01*
Y289106D01*
Y289198D01*
Y289401D01*
X615711D01*
X615868Y289394D01*
D02*
G37*
G36*
X616262Y286075D02*
Y286049D01*
Y286010D01*
Y285957D01*
Y285898D01*
Y285832D01*
Y285682D01*
Y285675D01*
Y285649D01*
Y285609D01*
Y285557D01*
Y285498D01*
Y285432D01*
Y285281D01*
X615429D01*
Y285288D01*
Y285314D01*
Y285353D01*
Y285406D01*
Y285472D01*
Y285537D01*
Y285682D01*
Y285688D01*
Y285714D01*
Y285754D01*
Y285806D01*
Y285872D01*
Y285937D01*
Y286082D01*
X616262D01*
Y286075D01*
D02*
G37*
%LPC*%
G36*
X622481Y283418D02*
Y283412D01*
X622474Y283399D01*
Y283379D01*
X622461Y283359D01*
X622448Y283294D01*
X622422Y283222D01*
X622304Y282913D01*
X622658D01*
X622553Y283202D01*
Y283208D01*
X622546Y283222D01*
X622540Y283248D01*
X622527Y283274D01*
X622501Y283346D01*
X622481Y283418D01*
D02*
G37*
G36*
X612313D02*
Y283412D01*
X612306Y283399D01*
Y283379D01*
X612293Y283359D01*
X612280Y283294D01*
X612254Y283222D01*
X612136Y282913D01*
X612490D01*
X612385Y283202D01*
Y283208D01*
X612378Y283222D01*
X612372Y283248D01*
X612359Y283274D01*
X612332Y283346D01*
X612313Y283418D01*
D02*
G37*
G36*
X628569Y283431D02*
X628542D01*
X628516Y283425D01*
X628483Y283418D01*
X628437Y283405D01*
X628398Y283392D01*
X628352Y283366D01*
X628313Y283333D01*
X628306Y283327D01*
X628300Y283313D01*
X628280Y283287D01*
X628260Y283254D01*
X628240Y283202D01*
X628227Y283143D01*
X628214Y283077D01*
X628208Y282992D01*
Y282985D01*
Y282959D01*
X628214Y282926D01*
X628221Y282887D01*
X628234Y282841D01*
X628247Y282788D01*
X628273Y282743D01*
X628306Y282697D01*
X628313Y282690D01*
X628326Y282677D01*
X628345Y282664D01*
X628378Y282644D01*
X628418Y282618D01*
X628464Y282605D01*
X628509Y282592D01*
X628569Y282585D01*
X628595D01*
X628621Y282592D01*
X628660Y282598D01*
X628700Y282611D01*
X628739Y282631D01*
X628785Y282657D01*
X628824Y282697D01*
X628831Y282703D01*
X628837Y282716D01*
X628857Y282743D01*
X628877Y282775D01*
X628890Y282821D01*
X628910Y282874D01*
X628916Y282933D01*
X628923Y283005D01*
Y283012D01*
Y283025D01*
Y283051D01*
X628916Y283077D01*
X628903Y283149D01*
X628877Y283228D01*
Y283235D01*
X628870Y283241D01*
X628844Y283280D01*
X628805Y283333D01*
X628752Y283379D01*
X628746D01*
X628739Y283385D01*
X628700Y283405D01*
X628641Y283425D01*
X628569Y283431D01*
D02*
G37*
G36*
X618400D02*
X618374D01*
X618348Y283425D01*
X618315Y283418D01*
X618269Y283405D01*
X618230Y283392D01*
X618184Y283366D01*
X618145Y283333D01*
X618138Y283327D01*
X618131Y283313D01*
X618112Y283287D01*
X618092Y283254D01*
X618073Y283202D01*
X618059Y283143D01*
X618046Y283077D01*
X618040Y282992D01*
Y282985D01*
Y282959D01*
X618046Y282926D01*
X618053Y282887D01*
X618066Y282841D01*
X618079Y282788D01*
X618105Y282743D01*
X618138Y282697D01*
X618145Y282690D01*
X618158Y282677D01*
X618177Y282664D01*
X618210Y282644D01*
X618250Y282618D01*
X618295Y282605D01*
X618341Y282592D01*
X618400Y282585D01*
X618427D01*
X618453Y282592D01*
X618492Y282598D01*
X618532Y282611D01*
X618571Y282631D01*
X618617Y282657D01*
X618656Y282697D01*
X618663Y282703D01*
X618669Y282716D01*
X618689Y282743D01*
X618709Y282775D01*
X618722Y282821D01*
X618742Y282874D01*
X618748Y282933D01*
X618755Y283005D01*
Y283012D01*
Y283025D01*
Y283051D01*
X618748Y283077D01*
X618735Y283149D01*
X618709Y283228D01*
Y283235D01*
X618702Y283241D01*
X618676Y283280D01*
X618637Y283333D01*
X618584Y283379D01*
X618578D01*
X618571Y283385D01*
X618532Y283405D01*
X618473Y283425D01*
X618400Y283431D01*
D02*
G37*
G36*
X627683Y282264D02*
Y282257D01*
X627676Y282238D01*
X627670Y282205D01*
X627657Y282159D01*
X627598Y282008D01*
X627775D01*
X627722Y282152D01*
Y282159D01*
X627716Y282165D01*
X627709Y282192D01*
X627696Y282231D01*
X627683Y282264D01*
D02*
G37*
G36*
X625800Y282257D02*
X625597D01*
Y282087D01*
X625774D01*
X625820Y282093D01*
X625826D01*
X625833Y282100D01*
X625859Y282126D01*
X625866Y282133D01*
X625872Y282139D01*
X625879Y282159D01*
Y282178D01*
Y282185D01*
X625872Y282198D01*
X625866Y282218D01*
X625846Y282238D01*
X625840Y282244D01*
X625826Y282251D01*
X625800Y282257D01*
D02*
G37*
G36*
X626286Y282264D02*
X626272D01*
X626246Y282257D01*
X626200Y282244D01*
X626161Y282218D01*
X626154Y282205D01*
X626135Y282172D01*
X626115Y282119D01*
X626108Y282047D01*
Y282041D01*
Y282034D01*
X626115Y281995D01*
X626128Y281942D01*
X626154Y281896D01*
X626161Y281890D01*
X626194Y281877D01*
X626233Y281857D01*
X626286Y281851D01*
X626299D01*
X626332Y281857D01*
X626377Y281870D01*
X626417Y281896D01*
X626423Y281909D01*
X626443Y281936D01*
X626456Y281988D01*
X626463Y282054D01*
Y282067D01*
Y282093D01*
X626456Y282126D01*
X626443Y282165D01*
X626436Y282172D01*
X626423Y282192D01*
X626404Y282218D01*
X626377Y282238D01*
X626371Y282244D01*
X626351Y282251D01*
X626325Y282257D01*
X626286Y282264D01*
D02*
G37*
G36*
X627014Y281555D02*
X626863D01*
Y281155D01*
X627033D01*
X627060Y281162D01*
X627066D01*
X627073Y281168D01*
X627106Y281188D01*
X627112Y281194D01*
X627119Y281208D01*
X627125Y281227D01*
X627138Y281254D01*
X627145Y281260D01*
X627151Y281286D01*
X627158Y281319D01*
Y281359D01*
Y281365D01*
Y281372D01*
Y281404D01*
X627145Y281450D01*
X627132Y281483D01*
X627125Y281490D01*
X627112Y281509D01*
X627086Y281529D01*
X627060Y281542D01*
X627053D01*
X627040Y281549D01*
X627014Y281555D01*
D02*
G37*
%LPD*%
D55*
X31370Y140098D02*
D03*
X44071Y140098D02*
D03*
X31370Y145098D02*
D03*
X44071Y145098D02*
D03*
X31370Y150098D02*
D03*
X44071Y150098D02*
D03*
X31370Y155098D02*
D03*
X44071Y155098D02*
D03*
X31370Y160098D02*
D03*
X44071Y160098D02*
D03*
X31370Y165098D02*
D03*
X44071Y165098D02*
D03*
X31370Y170098D02*
D03*
X44071Y170098D02*
D03*
X31370Y175098D02*
D03*
X44071Y175098D02*
D03*
X31370Y180098D02*
D03*
X44071Y180098D02*
D03*
X31370Y185098D02*
D03*
X44071Y185098D02*
D03*
X31370Y190098D02*
D03*
X44071Y190098D02*
D03*
X31370Y195098D02*
D03*
X44071Y195098D02*
D03*
X31370Y200098D02*
D03*
X44071Y200098D02*
D03*
X31370Y205098D02*
D03*
X44071Y205098D02*
D03*
X31370Y210098D02*
D03*
X44071Y210098D02*
D03*
X31370Y215099D02*
D03*
X44071Y215099D02*
D03*
X31370Y220099D02*
D03*
X44071Y220099D02*
D03*
X31370Y225099D02*
D03*
X44071Y225099D02*
D03*
X31370Y230099D02*
D03*
X44071Y230099D02*
D03*
X31370Y235099D02*
D03*
X44071Y235099D02*
D03*
X31370Y240099D02*
D03*
X44071Y240099D02*
D03*
X31370Y245099D02*
D03*
X44071Y245099D02*
D03*
X31370Y250099D02*
D03*
X44071Y250099D02*
D03*
X31370Y255099D02*
D03*
X44071Y255099D02*
D03*
X31370Y260099D02*
D03*
X44071Y260099D02*
D03*
X31370Y265099D02*
D03*
X44071Y265099D02*
D03*
X31370Y270099D02*
D03*
X44071Y270099D02*
D03*
X31370Y275099D02*
D03*
X44071Y275099D02*
D03*
X31370Y280099D02*
D03*
X44071Y280099D02*
D03*
X31370Y285099D02*
D03*
X44071Y285099D02*
D03*
X267590Y140102D02*
D03*
X280291D02*
D03*
X267590Y145102D02*
D03*
X280291D02*
D03*
X267590Y150102D02*
D03*
X280291D02*
D03*
X267590Y155102D02*
D03*
X280291D02*
D03*
X267590Y160102D02*
D03*
X280291D02*
D03*
X267590Y165102D02*
D03*
X280291D02*
D03*
X267590Y170102D02*
D03*
X280291D02*
D03*
X267590Y175102D02*
D03*
X280291D02*
D03*
X267590Y180102D02*
D03*
X280291D02*
D03*
X267590Y185102D02*
D03*
X280291D02*
D03*
X267590Y190102D02*
D03*
X280291D02*
D03*
X267590Y195102D02*
D03*
X280291D02*
D03*
X267590Y200102D02*
D03*
X280291D02*
D03*
X267590Y205102D02*
D03*
X280291D02*
D03*
X267590Y210102D02*
D03*
X280291D02*
D03*
X267590Y215103D02*
D03*
X280291D02*
D03*
X267590Y220103D02*
D03*
X280291D02*
D03*
X267590Y225103D02*
D03*
X280291D02*
D03*
X267590Y230103D02*
D03*
X280291D02*
D03*
X267590Y235103D02*
D03*
X280291D02*
D03*
X267590Y240103D02*
D03*
X280291D02*
D03*
X267590Y245103D02*
D03*
X280291D02*
D03*
X267590Y250103D02*
D03*
X280291D02*
D03*
X267590Y255103D02*
D03*
X280291D02*
D03*
X267590Y260103D02*
D03*
X280291D02*
D03*
X267590Y265103D02*
D03*
X280291D02*
D03*
X267590Y270103D02*
D03*
X280291D02*
D03*
X267590Y275103D02*
D03*
X280291D02*
D03*
X267590Y280103D02*
D03*
X280291D02*
D03*
X267590Y285103D02*
D03*
X280291D02*
D03*
D56*
X331693Y322835D02*
D03*
Y-7874D02*
D03*
D57*
X671260Y157480D02*
D03*
X-7874D02*
D03*
D58*
X627362Y158465D02*
D03*
Y156496D02*
D03*
Y154527D02*
D03*
Y152559D02*
D03*
Y150591D02*
D03*
Y160433D02*
D03*
Y162402D02*
D03*
Y164370D02*
D03*
X640354D02*
D03*
Y162402D02*
D03*
Y160433D02*
D03*
Y150591D02*
D03*
Y152559D02*
D03*
Y154527D02*
D03*
Y156496D02*
D03*
Y158465D02*
D03*
D59*
X630905Y149016D02*
D03*
X636811D02*
D03*
X630905Y165945D02*
D03*
X636811D02*
D03*
D60*
X633858Y157480D02*
D03*
D61*
X557972Y150984D02*
D03*
Y156102D02*
D03*
D62*
X555905Y149311D02*
D03*
Y157776D02*
D03*
D63*
X551673Y147884D02*
D03*
Y159203D02*
D03*
D64*
X550787Y148573D02*
D03*
Y158514D02*
D03*
D65*
X553642Y147933D02*
D03*
Y159153D02*
D03*
D66*
X550492Y150591D02*
D03*
Y152559D02*
D03*
Y154528D02*
D03*
Y156496D02*
D03*
D67*
X556102Y153543D02*
D03*
D68*
X611024Y200394D02*
D03*
X612598D02*
D03*
X614173D02*
D03*
X615748D02*
D03*
X617323D02*
D03*
Y209055D02*
D03*
X615748D02*
D03*
X614173D02*
D03*
X612598D02*
D03*
X611024D02*
D03*
D69*
X614173Y204724D02*
D03*
D70*
X533465Y160492D02*
D03*
X509842D02*
D03*
D71*
X381398Y246457D02*
D03*
X377658D02*
D03*
X385138D02*
D03*
Y237795D02*
D03*
X381398D02*
D03*
X377658D02*
D03*
D72*
X546457Y202264D02*
D03*
Y199311D02*
D03*
D73*
X550000Y200787D02*
D03*
D74*
X31370Y140099D02*
D03*
X44070D02*
D03*
X31370Y145098D02*
D03*
X44070D02*
D03*
X31370Y150099D02*
D03*
X44070D02*
D03*
X31370Y155098D02*
D03*
X44070D02*
D03*
X31370Y160099D02*
D03*
X44070D02*
D03*
X31370Y165099D02*
D03*
X44070D02*
D03*
X31370Y170098D02*
D03*
X44070D02*
D03*
X31370Y175099D02*
D03*
X44070D02*
D03*
X31370Y180098D02*
D03*
X44070D02*
D03*
X31370Y185099D02*
D03*
X44070D02*
D03*
X31370Y190099D02*
D03*
X44070D02*
D03*
X31370Y195098D02*
D03*
X44070D02*
D03*
X31370Y200098D02*
D03*
X44070D02*
D03*
X31370Y205099D02*
D03*
X44070D02*
D03*
X31370Y210099D02*
D03*
X44070D02*
D03*
X31370Y215099D02*
D03*
X44070D02*
D03*
X31370Y220098D02*
D03*
X44070D02*
D03*
X31370Y225098D02*
D03*
X44070D02*
D03*
X31370Y230099D02*
D03*
X44070D02*
D03*
X31370Y235099D02*
D03*
X44070D02*
D03*
X31370Y240099D02*
D03*
X44070D02*
D03*
X31370Y245098D02*
D03*
X44070D02*
D03*
X31370Y250098D02*
D03*
X44070D02*
D03*
X31370Y255099D02*
D03*
X44070D02*
D03*
X31370Y260099D02*
D03*
X44070D02*
D03*
X31370Y265099D02*
D03*
X44070D02*
D03*
X31370Y270098D02*
D03*
X44070D02*
D03*
X31370Y275098D02*
D03*
X44070D02*
D03*
X31370Y280099D02*
D03*
X44070D02*
D03*
X31370Y285099D02*
D03*
X44070D02*
D03*
X267591Y140099D02*
D03*
X280291D02*
D03*
X267591Y145098D02*
D03*
X280291D02*
D03*
X267591Y150099D02*
D03*
X280291D02*
D03*
X267591Y155098D02*
D03*
X280291D02*
D03*
X267591Y160099D02*
D03*
X280291D02*
D03*
X267591Y165099D02*
D03*
X280291D02*
D03*
X267591Y170098D02*
D03*
X280291D02*
D03*
X267591Y175099D02*
D03*
X280291D02*
D03*
X267591Y180098D02*
D03*
X280291D02*
D03*
X267591Y185099D02*
D03*
X280291D02*
D03*
X267591Y190099D02*
D03*
X280291D02*
D03*
X267591Y195098D02*
D03*
X280291D02*
D03*
X267591Y200098D02*
D03*
X280291D02*
D03*
X267591Y205099D02*
D03*
X280291D02*
D03*
X267591Y210099D02*
D03*
X280291D02*
D03*
X267591Y215099D02*
D03*
X280291D02*
D03*
X267591Y220098D02*
D03*
X280291D02*
D03*
X267591Y225098D02*
D03*
X280291D02*
D03*
X267591Y230099D02*
D03*
X280291D02*
D03*
X267591Y235099D02*
D03*
X280291D02*
D03*
X267591Y240099D02*
D03*
X280291D02*
D03*
X267591Y245098D02*
D03*
X280291D02*
D03*
X267591Y250098D02*
D03*
X280291D02*
D03*
X267591Y255099D02*
D03*
X280291D02*
D03*
X267591Y260099D02*
D03*
X280291D02*
D03*
X267591Y265099D02*
D03*
X280291D02*
D03*
X267591Y270098D02*
D03*
X280291D02*
D03*
X267591Y275098D02*
D03*
X280291D02*
D03*
X267591Y280099D02*
D03*
X280291D02*
D03*
X267591Y285099D02*
D03*
X280291D02*
D03*
D75*
X633858Y192126D02*
D03*
Y217323D02*
D03*
D76*
X563976Y262087D02*
D03*
Y265472D02*
D03*
X513386Y241142D02*
D03*
Y244528D02*
D03*
X129500Y95492D02*
D03*
Y98878D02*
D03*
X139232Y104606D02*
D03*
Y107992D02*
D03*
X149232Y104606D02*
D03*
Y107992D02*
D03*
X157000Y95492D02*
D03*
Y98878D02*
D03*
X166791Y104606D02*
D03*
Y107992D02*
D03*
X176791Y104606D02*
D03*
Y107992D02*
D03*
X185000Y95492D02*
D03*
Y98878D02*
D03*
X194350Y104606D02*
D03*
Y107992D02*
D03*
X204350Y104606D02*
D03*
Y107992D02*
D03*
X212500Y95492D02*
D03*
Y98878D02*
D03*
X221909Y104606D02*
D03*
Y107992D02*
D03*
X231909Y104606D02*
D03*
Y107992D02*
D03*
X240000Y95492D02*
D03*
Y98878D02*
D03*
X249468Y104606D02*
D03*
Y107992D02*
D03*
X259469Y104606D02*
D03*
Y107992D02*
D03*
X268000Y95492D02*
D03*
Y98878D02*
D03*
X277028Y104606D02*
D03*
Y107992D02*
D03*
X287028Y104606D02*
D03*
Y107992D02*
D03*
X295500Y95492D02*
D03*
Y98878D02*
D03*
X304587Y104606D02*
D03*
Y107992D02*
D03*
X314587Y104606D02*
D03*
Y107992D02*
D03*
X323000Y95492D02*
D03*
Y98878D02*
D03*
X332146Y104606D02*
D03*
Y107992D02*
D03*
X342146Y104606D02*
D03*
Y107992D02*
D03*
X376500Y95492D02*
D03*
Y98878D02*
D03*
X385295Y104606D02*
D03*
Y107992D02*
D03*
X395295Y104606D02*
D03*
Y107992D02*
D03*
X404000Y95492D02*
D03*
Y98878D02*
D03*
X412854Y104606D02*
D03*
Y107992D02*
D03*
X422854Y104606D02*
D03*
Y107992D02*
D03*
X431500Y95492D02*
D03*
Y98878D02*
D03*
X440413Y104606D02*
D03*
Y107992D02*
D03*
X450413Y104606D02*
D03*
Y107992D02*
D03*
X459000Y95492D02*
D03*
Y98878D02*
D03*
X467973Y104606D02*
D03*
Y107992D02*
D03*
X477973Y104606D02*
D03*
Y107992D02*
D03*
X487000Y95492D02*
D03*
Y98878D02*
D03*
X495532Y104606D02*
D03*
Y107992D02*
D03*
X505532Y104606D02*
D03*
Y107992D02*
D03*
X514000Y95492D02*
D03*
Y98878D02*
D03*
X523091Y104606D02*
D03*
Y107992D02*
D03*
X533091Y104606D02*
D03*
Y107992D02*
D03*
X541500Y95492D02*
D03*
Y98878D02*
D03*
X550650Y104606D02*
D03*
Y107992D02*
D03*
X560650Y104606D02*
D03*
Y107992D02*
D03*
X569500Y95492D02*
D03*
Y98878D02*
D03*
X578209Y104606D02*
D03*
Y107992D02*
D03*
X588209Y104606D02*
D03*
Y107992D02*
D03*
X208244Y229193D02*
D03*
Y232579D02*
D03*
X208244Y275886D02*
D03*
Y272500D02*
D03*
X221000Y275886D02*
D03*
Y272500D02*
D03*
X237693Y275886D02*
D03*
Y272500D02*
D03*
X233756Y275886D02*
D03*
Y272500D02*
D03*
X391240Y256996D02*
D03*
Y260382D02*
D03*
X371555Y237795D02*
D03*
Y241181D02*
D03*
X376476Y256996D02*
D03*
Y260382D02*
D03*
X424311Y245965D02*
D03*
Y242579D02*
D03*
X449705Y245965D02*
D03*
Y242579D02*
D03*
X482776Y253996D02*
D03*
Y257382D02*
D03*
X502165Y173445D02*
D03*
Y170059D02*
D03*
X557596Y174921D02*
D03*
Y171535D02*
D03*
X545276Y157913D02*
D03*
Y154528D02*
D03*
X557596Y132165D02*
D03*
Y135551D02*
D03*
X554119Y132165D02*
D03*
Y135551D02*
D03*
X554120Y174921D02*
D03*
Y171535D02*
D03*
X545276Y174921D02*
D03*
Y171535D02*
D03*
Y147205D02*
D03*
Y150591D02*
D03*
X631890Y88307D02*
D03*
Y84921D02*
D03*
X635827Y88307D02*
D03*
Y84921D02*
D03*
X639764Y88307D02*
D03*
Y84921D02*
D03*
X643701Y88307D02*
D03*
Y84921D02*
D03*
X627953Y88307D02*
D03*
Y84921D02*
D03*
X624016Y88307D02*
D03*
Y84921D02*
D03*
X655890Y62441D02*
D03*
Y59055D02*
D03*
X643701Y124291D02*
D03*
Y127677D02*
D03*
X635827Y124291D02*
D03*
Y127677D02*
D03*
X639764Y124291D02*
D03*
Y127677D02*
D03*
X606299Y209055D02*
D03*
Y205669D02*
D03*
X617323Y218228D02*
D03*
Y214843D02*
D03*
X588583Y196280D02*
D03*
Y199665D02*
D03*
X570866Y202480D02*
D03*
Y199094D02*
D03*
X566929D02*
D03*
Y202480D02*
D03*
X513386D02*
D03*
Y199094D02*
D03*
X543307Y202480D02*
D03*
Y199094D02*
D03*
X396161Y256996D02*
D03*
Y260382D02*
D03*
X434547Y256996D02*
D03*
Y260382D02*
D03*
X439468Y256996D02*
D03*
Y260382D02*
D03*
X477854Y257382D02*
D03*
Y253996D02*
D03*
X651953Y62441D02*
D03*
Y59055D02*
D03*
X131890Y17441D02*
D03*
Y14055D02*
D03*
X134232Y107992D02*
D03*
Y104606D02*
D03*
X144232Y107992D02*
D03*
Y104606D02*
D03*
X159449Y17441D02*
D03*
Y14055D02*
D03*
X161791Y107992D02*
D03*
Y104606D02*
D03*
X171791Y107992D02*
D03*
Y104606D02*
D03*
X187008Y17441D02*
D03*
Y14055D02*
D03*
X189350Y107992D02*
D03*
Y104606D02*
D03*
X199350Y107992D02*
D03*
Y104606D02*
D03*
X214567Y17441D02*
D03*
Y14055D02*
D03*
X216910Y107992D02*
D03*
Y104606D02*
D03*
X226909Y107992D02*
D03*
Y104606D02*
D03*
X242126Y17441D02*
D03*
Y14055D02*
D03*
X244468Y107992D02*
D03*
Y104606D02*
D03*
X254468Y107992D02*
D03*
Y104606D02*
D03*
X269685Y17441D02*
D03*
Y14055D02*
D03*
X272028Y107992D02*
D03*
Y104606D02*
D03*
X282028Y107992D02*
D03*
Y104606D02*
D03*
X297244Y17441D02*
D03*
Y14055D02*
D03*
X299587Y107992D02*
D03*
Y104606D02*
D03*
X309587Y107992D02*
D03*
Y104606D02*
D03*
X324803Y17441D02*
D03*
Y14055D02*
D03*
X327146Y107992D02*
D03*
Y104606D02*
D03*
X337146Y107992D02*
D03*
Y104606D02*
D03*
X377953Y17441D02*
D03*
Y14055D02*
D03*
X380295Y107992D02*
D03*
Y104606D02*
D03*
X390295Y107992D02*
D03*
Y104606D02*
D03*
X405512Y17441D02*
D03*
Y14055D02*
D03*
X407854Y107992D02*
D03*
Y104606D02*
D03*
X417854Y107992D02*
D03*
Y104606D02*
D03*
X433071Y17441D02*
D03*
Y14055D02*
D03*
X435413Y107992D02*
D03*
Y104606D02*
D03*
X445413Y107992D02*
D03*
Y104606D02*
D03*
X460630Y17441D02*
D03*
Y14055D02*
D03*
X462972Y107992D02*
D03*
Y104606D02*
D03*
X472972Y107992D02*
D03*
Y104606D02*
D03*
X488189Y17441D02*
D03*
Y14055D02*
D03*
X490531Y107992D02*
D03*
Y104606D02*
D03*
X500531Y107992D02*
D03*
Y104606D02*
D03*
X515748Y17441D02*
D03*
Y14055D02*
D03*
X518091Y107992D02*
D03*
Y104606D02*
D03*
X528091Y107992D02*
D03*
Y104606D02*
D03*
X543307Y17441D02*
D03*
Y14055D02*
D03*
X545650Y107992D02*
D03*
Y104606D02*
D03*
X555650Y107992D02*
D03*
Y104606D02*
D03*
X570866Y17441D02*
D03*
Y14055D02*
D03*
X573209Y107992D02*
D03*
Y104606D02*
D03*
X583209Y107992D02*
D03*
Y104606D02*
D03*
X386319Y256996D02*
D03*
Y260382D02*
D03*
X381398Y256996D02*
D03*
Y260382D02*
D03*
X401083D02*
D03*
Y256996D02*
D03*
X429626D02*
D03*
Y260382D02*
D03*
X444390Y256996D02*
D03*
Y260382D02*
D03*
X487697Y253996D02*
D03*
Y257382D02*
D03*
X550596Y132165D02*
D03*
Y135551D02*
D03*
X545276D02*
D03*
Y132165D02*
D03*
X550596Y171535D02*
D03*
Y174921D02*
D03*
X561096Y132165D02*
D03*
Y135551D02*
D03*
X614173Y218228D02*
D03*
Y214843D02*
D03*
X617323Y191220D02*
D03*
Y194606D02*
D03*
X614173Y191220D02*
D03*
Y194606D02*
D03*
X631890Y138791D02*
D03*
Y142177D02*
D03*
X635827Y138791D02*
D03*
Y142177D02*
D03*
X509449Y199094D02*
D03*
Y202480D02*
D03*
X553150D02*
D03*
Y199094D02*
D03*
X539370Y202480D02*
D03*
Y199094D02*
D03*
X509449Y226811D02*
D03*
Y223425D02*
D03*
Y214134D02*
D03*
Y217520D02*
D03*
Y244528D02*
D03*
Y241142D02*
D03*
X505512D02*
D03*
Y244528D02*
D03*
X513386Y223425D02*
D03*
Y226811D02*
D03*
Y217520D02*
D03*
Y214134D02*
D03*
D77*
X633858Y106299D02*
D03*
D78*
X637795Y98425D02*
D03*
X635827D02*
D03*
X633858D02*
D03*
X631890D02*
D03*
X629921D02*
D03*
Y114173D02*
D03*
X631890D02*
D03*
X633858D02*
D03*
X635827D02*
D03*
X637795D02*
D03*
D79*
X625984Y102362D02*
D03*
Y104331D02*
D03*
Y106299D02*
D03*
Y108268D02*
D03*
Y110236D02*
D03*
X641732D02*
D03*
Y108268D02*
D03*
Y106299D02*
D03*
Y104331D02*
D03*
Y102362D02*
D03*
D80*
X477854Y239449D02*
D03*
X492421D02*
D03*
X477854Y215827D02*
D03*
X492421D02*
D03*
D81*
X642520Y243996D02*
D03*
Y241437D02*
D03*
Y238878D02*
D03*
Y236319D02*
D03*
X625197D02*
D03*
Y238878D02*
D03*
Y241437D02*
D03*
Y243996D02*
D03*
X445669Y245965D02*
D03*
Y243406D02*
D03*
Y240846D02*
D03*
Y238287D02*
D03*
X428346D02*
D03*
Y240846D02*
D03*
Y243406D02*
D03*
Y245965D02*
D03*
D82*
X586811Y14764D02*
D03*
Y8858D02*
D03*
X576575Y14764D02*
D03*
Y8858D02*
D03*
X147835Y14764D02*
D03*
Y8858D02*
D03*
X137598Y14764D02*
D03*
Y8858D02*
D03*
X175394Y14764D02*
D03*
Y8858D02*
D03*
X165157Y14764D02*
D03*
Y8858D02*
D03*
X202953Y14764D02*
D03*
Y8858D02*
D03*
X192717Y14764D02*
D03*
Y8858D02*
D03*
X230512Y14764D02*
D03*
Y8858D02*
D03*
X220276Y14764D02*
D03*
Y8858D02*
D03*
X258071Y14764D02*
D03*
Y8858D02*
D03*
X247835Y14764D02*
D03*
Y8858D02*
D03*
X285630Y14764D02*
D03*
Y8858D02*
D03*
X275394Y14764D02*
D03*
Y8858D02*
D03*
X313189Y14764D02*
D03*
Y8858D02*
D03*
X302953Y14764D02*
D03*
Y8858D02*
D03*
X340748Y14764D02*
D03*
Y8858D02*
D03*
X330512Y14764D02*
D03*
Y8858D02*
D03*
X393898Y14764D02*
D03*
Y8858D02*
D03*
X383661Y14764D02*
D03*
Y8858D02*
D03*
X421457Y14764D02*
D03*
Y8858D02*
D03*
X411221Y14764D02*
D03*
Y8858D02*
D03*
X449016Y14764D02*
D03*
Y8858D02*
D03*
X438779Y14764D02*
D03*
Y8858D02*
D03*
X476575Y14764D02*
D03*
Y8858D02*
D03*
X466339Y14764D02*
D03*
Y8858D02*
D03*
X504134Y14764D02*
D03*
Y8858D02*
D03*
X493898Y14764D02*
D03*
Y8858D02*
D03*
X531693Y14764D02*
D03*
Y8858D02*
D03*
X521457Y14764D02*
D03*
Y8858D02*
D03*
X559252Y14764D02*
D03*
Y8858D02*
D03*
X549016Y14764D02*
D03*
Y8858D02*
D03*
D83*
X557087Y198937D02*
D03*
Y202480D02*
D03*
D84*
X582677Y196280D02*
D03*
Y202480D02*
D03*
X576772D02*
D03*
Y196280D02*
D03*
D85*
X588209Y76378D02*
D03*
X583209D02*
D03*
X578209D02*
D03*
X573209D02*
D03*
Y96850D02*
D03*
X578209D02*
D03*
X583209D02*
D03*
X588209D02*
D03*
X149232Y76378D02*
D03*
X144232D02*
D03*
X139232D02*
D03*
X134232D02*
D03*
Y96850D02*
D03*
X139232D02*
D03*
X144232D02*
D03*
X149232D02*
D03*
X176791Y76378D02*
D03*
X171791D02*
D03*
X166791D02*
D03*
X161791D02*
D03*
Y96850D02*
D03*
X166791D02*
D03*
X171791D02*
D03*
X176791D02*
D03*
X204350Y76378D02*
D03*
X199350D02*
D03*
X194350D02*
D03*
X189350D02*
D03*
Y96850D02*
D03*
X194350D02*
D03*
X199350D02*
D03*
X204350D02*
D03*
X231909Y76378D02*
D03*
X226909D02*
D03*
X221909D02*
D03*
X216910D02*
D03*
Y96850D02*
D03*
X221909D02*
D03*
X226909D02*
D03*
X231909D02*
D03*
X259469Y76378D02*
D03*
X254468D02*
D03*
X249468D02*
D03*
X244468D02*
D03*
Y96850D02*
D03*
X249468D02*
D03*
X254468D02*
D03*
X259469D02*
D03*
X287028Y76378D02*
D03*
X282028D02*
D03*
X277028D02*
D03*
X272028D02*
D03*
Y96850D02*
D03*
X277028D02*
D03*
X282028D02*
D03*
X287028D02*
D03*
X314587Y76378D02*
D03*
X309587D02*
D03*
X304587D02*
D03*
X299587D02*
D03*
Y96850D02*
D03*
X304587D02*
D03*
X309587D02*
D03*
X314587D02*
D03*
X342146Y76378D02*
D03*
X337146D02*
D03*
X332146D02*
D03*
X327146D02*
D03*
Y96850D02*
D03*
X332146D02*
D03*
X337146D02*
D03*
X342146D02*
D03*
X395295Y76378D02*
D03*
X390295D02*
D03*
X385295D02*
D03*
X380295D02*
D03*
Y96850D02*
D03*
X385295D02*
D03*
X390295D02*
D03*
X395295D02*
D03*
X422854Y76378D02*
D03*
X417854D02*
D03*
X412854D02*
D03*
X407854D02*
D03*
Y96850D02*
D03*
X412854D02*
D03*
X417854D02*
D03*
X422854D02*
D03*
X450413Y76378D02*
D03*
X445413D02*
D03*
X440413D02*
D03*
X435413D02*
D03*
Y96850D02*
D03*
X440413D02*
D03*
X445413D02*
D03*
X450413D02*
D03*
X477972Y76378D02*
D03*
X472972D02*
D03*
X467972D02*
D03*
X462972D02*
D03*
Y96850D02*
D03*
X467972D02*
D03*
X472972D02*
D03*
X477972D02*
D03*
X505532Y76378D02*
D03*
X500531D02*
D03*
X495532D02*
D03*
X490531D02*
D03*
Y96850D02*
D03*
X495532D02*
D03*
X500531D02*
D03*
X505532D02*
D03*
X533090Y76378D02*
D03*
X528090D02*
D03*
X523091D02*
D03*
X518090D02*
D03*
Y96850D02*
D03*
X523091D02*
D03*
X528090D02*
D03*
X533090D02*
D03*
X560650Y76378D02*
D03*
X555650D02*
D03*
X550650D02*
D03*
X545650D02*
D03*
Y96850D02*
D03*
X550650D02*
D03*
X555650D02*
D03*
X560650D02*
D03*
D86*
X352638Y259842D02*
D03*
X356024D02*
D03*
X642520Y248031D02*
D03*
X639134D02*
D03*
X625197D02*
D03*
X628583D02*
D03*
X352638Y255906D02*
D03*
X356024D02*
D03*
X616417Y158465D02*
D03*
X619803D02*
D03*
Y106299D02*
D03*
X616417D02*
D03*
X619803Y110236D02*
D03*
X616417D02*
D03*
X647913Y110236D02*
D03*
X651299D02*
D03*
Y150591D02*
D03*
X647913D02*
D03*
D87*
X419587Y279134D02*
D03*
X454429D02*
D03*
X492815D02*
D03*
X467815D02*
D03*
X381201D02*
D03*
X406201D02*
D03*
X341831D02*
D03*
X366831D02*
D03*
D88*
X429626Y267717D02*
D03*
X434547D02*
D03*
X444390D02*
D03*
X439468D02*
D03*
X482776D02*
D03*
X477854D02*
D03*
X391240D02*
D03*
X396161D02*
D03*
X351870D02*
D03*
X356791D02*
D03*
D89*
X558858Y287402D02*
D03*
X569095D02*
D03*
D90*
X563976Y281496D02*
D03*
D91*
X592520Y157480D02*
D03*
X572835D02*
D03*
X533465Y133858D02*
D03*
X513779D02*
D03*
X592520D02*
D03*
X572835D02*
D03*
D92*
X563976Y247047D02*
D03*
X558071D02*
D03*
X552165D02*
D03*
X546260D02*
D03*
X540354D02*
D03*
X534449D02*
D03*
X528543D02*
D03*
X522638D02*
D03*
X563976Y241142D02*
D03*
X558071D02*
D03*
X552165D02*
D03*
X546260D02*
D03*
X540354D02*
D03*
X534449D02*
D03*
X528543D02*
D03*
X522638D02*
D03*
X563976Y235236D02*
D03*
X558071D02*
D03*
X552165D02*
D03*
X546260D02*
D03*
X540354D02*
D03*
X534449D02*
D03*
X528543D02*
D03*
X522638D02*
D03*
X563976Y229331D02*
D03*
X558071D02*
D03*
X552165D02*
D03*
X546260D02*
D03*
X540354D02*
D03*
X534449D02*
D03*
X528543D02*
D03*
X522638D02*
D03*
X563976Y223425D02*
D03*
X558071D02*
D03*
X552165D02*
D03*
X546260D02*
D03*
X540354D02*
D03*
X534449D02*
D03*
X528543D02*
D03*
X522638D02*
D03*
X558071Y217520D02*
D03*
X552165D02*
D03*
X546260D02*
D03*
X540354D02*
D03*
X534449D02*
D03*
X528543D02*
D03*
X522638D02*
D03*
X563976D02*
D03*
D93*
X588583Y39370D02*
D03*
X574803Y59055D02*
D03*
X561024Y39370D02*
D03*
X547244Y59055D02*
D03*
X533465Y39370D02*
D03*
X519685Y59055D02*
D03*
X505905Y39370D02*
D03*
X492126Y59055D02*
D03*
X478346Y39370D02*
D03*
X464567Y59055D02*
D03*
X450787Y39370D02*
D03*
X437008Y59055D02*
D03*
X423228Y39370D02*
D03*
X409449Y59055D02*
D03*
X395669Y39370D02*
D03*
X342520D02*
D03*
X328740Y59055D02*
D03*
X314961Y39370D02*
D03*
X301181Y59055D02*
D03*
X287402Y39370D02*
D03*
X273622Y59055D02*
D03*
X259842Y39370D02*
D03*
X246063Y59055D02*
D03*
X232283Y39370D02*
D03*
X218504Y59055D02*
D03*
X204724Y39370D02*
D03*
X190945Y59055D02*
D03*
X177165Y39370D02*
D03*
X163386Y59055D02*
D03*
X149606Y39370D02*
D03*
D94*
X381890Y59055D02*
D03*
X135827D02*
D03*
D95*
X27559D02*
D03*
X627953D02*
D03*
D96*
X41339Y39370D02*
D03*
X55118Y59055D02*
D03*
X68898Y39370D02*
D03*
X82677Y59055D02*
D03*
X96457Y39370D02*
D03*
X641732D02*
D03*
D97*
X671260Y287402D02*
D03*
Y291339D02*
D03*
Y295276D02*
D03*
Y299213D02*
D03*
Y303150D02*
D03*
Y307087D02*
D03*
X-7874Y129921D02*
D03*
Y137795D02*
D03*
Y133858D02*
D03*
Y307087D02*
D03*
Y303150D02*
D03*
Y299213D02*
D03*
Y295276D02*
D03*
Y291339D02*
D03*
Y287402D02*
D03*
X320992Y322835D02*
D03*
X309181D02*
D03*
X313118D02*
D03*
X317055D02*
D03*
X-7874Y11811D02*
D03*
Y7874D02*
D03*
Y125984D02*
D03*
Y141732D02*
D03*
X596583Y322835D02*
D03*
X498158D02*
D03*
X494220D02*
D03*
X490283D02*
D03*
X486346D02*
D03*
X482409D02*
D03*
X399732D02*
D03*
X395795D02*
D03*
X391858D02*
D03*
X387921D02*
D03*
X383984D02*
D03*
X380047D02*
D03*
X376110D02*
D03*
X372173D02*
D03*
X368236D02*
D03*
X364299D02*
D03*
X360362D02*
D03*
X356425D02*
D03*
X403669D02*
D03*
X407606D02*
D03*
X411543D02*
D03*
X415480D02*
D03*
X419417D02*
D03*
X423354D02*
D03*
X427291D02*
D03*
X431228D02*
D03*
X435165D02*
D03*
X439102D02*
D03*
X443039D02*
D03*
X446976D02*
D03*
X450913D02*
D03*
X454850D02*
D03*
X458787D02*
D03*
X462724D02*
D03*
X466661D02*
D03*
X470598D02*
D03*
X474536D02*
D03*
X478473D02*
D03*
X639890D02*
D03*
X635953D02*
D03*
X632016D02*
D03*
X628079D02*
D03*
X624142D02*
D03*
X541465D02*
D03*
X537528D02*
D03*
X533591D02*
D03*
X529654D02*
D03*
X525716D02*
D03*
X521779D02*
D03*
X517842D02*
D03*
X513905D02*
D03*
X509969D02*
D03*
X506032D02*
D03*
X502095D02*
D03*
X545402D02*
D03*
X549339D02*
D03*
X553276D02*
D03*
X557213D02*
D03*
X561150D02*
D03*
X565087D02*
D03*
X569024D02*
D03*
X572961D02*
D03*
X576898D02*
D03*
X580835D02*
D03*
X584772D02*
D03*
X588709D02*
D03*
X592646D02*
D03*
X600520D02*
D03*
X604457D02*
D03*
X608394D02*
D03*
X612331D02*
D03*
X616268D02*
D03*
X620205D02*
D03*
X651701D02*
D03*
X647764D02*
D03*
X643827D02*
D03*
X655638D02*
D03*
X352488D02*
D03*
X348551D02*
D03*
X344614D02*
D03*
X340677D02*
D03*
X336740D02*
D03*
X332803D02*
D03*
X328866D02*
D03*
X324929D02*
D03*
X305244D02*
D03*
X301307D02*
D03*
X297370D02*
D03*
X293433D02*
D03*
X289496D02*
D03*
X285559D02*
D03*
X242252D02*
D03*
X246189D02*
D03*
X250126D02*
D03*
X254063D02*
D03*
X258000D02*
D03*
X261937D02*
D03*
X265874D02*
D03*
X269811D02*
D03*
X273748D02*
D03*
X277685D02*
D03*
X281622D02*
D03*
X218630D02*
D03*
X214693D02*
D03*
X210756D02*
D03*
X206819D02*
D03*
X202882D02*
D03*
X198945D02*
D03*
X195008D02*
D03*
X191071D02*
D03*
X187134D02*
D03*
X183197D02*
D03*
X179260D02*
D03*
X175323D02*
D03*
X171386D02*
D03*
X222567D02*
D03*
X226504D02*
D03*
X230441D02*
D03*
X234378D02*
D03*
X238315D02*
D03*
X167449D02*
D03*
X163512D02*
D03*
X159575D02*
D03*
X155638D02*
D03*
X151701D02*
D03*
X147764D02*
D03*
X143827D02*
D03*
X139890D02*
D03*
X135953D02*
D03*
X132016D02*
D03*
X128079D02*
D03*
X124142D02*
D03*
X120205D02*
D03*
X116268D02*
D03*
X112331D02*
D03*
X108394D02*
D03*
X104457D02*
D03*
X100520D02*
D03*
X92646D02*
D03*
X96583D02*
D03*
X49338D02*
D03*
X45401D02*
D03*
X53276D02*
D03*
X57213D02*
D03*
X61150D02*
D03*
X65087D02*
D03*
X69024D02*
D03*
X72961D02*
D03*
X76898D02*
D03*
X80835D02*
D03*
X84772D02*
D03*
X88709D02*
D03*
X9968D02*
D03*
X13905D02*
D03*
X17842D02*
D03*
X21779D02*
D03*
X25717D02*
D03*
X29653D02*
D03*
X33590D02*
D03*
X37527D02*
D03*
X41464D02*
D03*
X621921Y-7874D02*
D03*
X625858D02*
D03*
X629795D02*
D03*
X633732D02*
D03*
X637669D02*
D03*
X641606D02*
D03*
X645543D02*
D03*
X649480D02*
D03*
X653417D02*
D03*
X574677D02*
D03*
X578614D02*
D03*
X582551D02*
D03*
X586488D02*
D03*
X590425D02*
D03*
X594362D02*
D03*
X598299D02*
D03*
X602236D02*
D03*
X606173D02*
D03*
X610110D02*
D03*
X617984D02*
D03*
X614047D02*
D03*
X671260Y283465D02*
D03*
Y279528D02*
D03*
Y275590D02*
D03*
Y271654D02*
D03*
Y267717D02*
D03*
Y185039D02*
D03*
Y181102D02*
D03*
Y177165D02*
D03*
Y173228D02*
D03*
Y169291D02*
D03*
Y165354D02*
D03*
Y161417D02*
D03*
Y157480D02*
D03*
Y153543D02*
D03*
Y149606D02*
D03*
Y145669D02*
D03*
Y141732D02*
D03*
Y188976D02*
D03*
Y192913D02*
D03*
Y196850D02*
D03*
Y200787D02*
D03*
Y204724D02*
D03*
Y208661D02*
D03*
Y212598D02*
D03*
Y216535D02*
D03*
Y220472D02*
D03*
Y224410D02*
D03*
Y228346D02*
D03*
Y232283D02*
D03*
Y236221D02*
D03*
Y240158D02*
D03*
Y244094D02*
D03*
Y248031D02*
D03*
Y251969D02*
D03*
Y255906D02*
D03*
Y259842D02*
D03*
Y263779D02*
D03*
Y137795D02*
D03*
Y133858D02*
D03*
Y129921D02*
D03*
Y125984D02*
D03*
Y122047D02*
D03*
Y74803D02*
D03*
Y78740D02*
D03*
Y82677D02*
D03*
Y86614D02*
D03*
Y90551D02*
D03*
Y94488D02*
D03*
Y98425D02*
D03*
Y102362D02*
D03*
Y106299D02*
D03*
Y110236D02*
D03*
Y114173D02*
D03*
Y118110D02*
D03*
Y70866D02*
D03*
Y66929D02*
D03*
Y62992D02*
D03*
Y59055D02*
D03*
Y55118D02*
D03*
Y7874D02*
D03*
Y11811D02*
D03*
Y15748D02*
D03*
Y19685D02*
D03*
Y23622D02*
D03*
Y27559D02*
D03*
Y31496D02*
D03*
Y35433D02*
D03*
Y39370D02*
D03*
Y43307D02*
D03*
Y47244D02*
D03*
Y51181D02*
D03*
X-7874Y240158D02*
D03*
Y244094D02*
D03*
Y248031D02*
D03*
Y251969D02*
D03*
Y255906D02*
D03*
Y259842D02*
D03*
Y263779D02*
D03*
Y267717D02*
D03*
Y271654D02*
D03*
Y275591D02*
D03*
Y279528D02*
D03*
Y283465D02*
D03*
Y236221D02*
D03*
Y232283D02*
D03*
Y228346D02*
D03*
Y224410D02*
D03*
Y220472D02*
D03*
Y173228D02*
D03*
Y177165D02*
D03*
Y181102D02*
D03*
Y185039D02*
D03*
Y188976D02*
D03*
Y192913D02*
D03*
Y196850D02*
D03*
Y200787D02*
D03*
Y204724D02*
D03*
Y208661D02*
D03*
Y212598D02*
D03*
Y216535D02*
D03*
Y169291D02*
D03*
Y165354D02*
D03*
Y161417D02*
D03*
Y157480D02*
D03*
Y153543D02*
D03*
Y27559D02*
D03*
Y31496D02*
D03*
Y35433D02*
D03*
Y39370D02*
D03*
Y43307D02*
D03*
Y47244D02*
D03*
Y51181D02*
D03*
Y55118D02*
D03*
Y59055D02*
D03*
Y62992D02*
D03*
Y66929D02*
D03*
Y70866D02*
D03*
Y74803D02*
D03*
Y78740D02*
D03*
Y82677D02*
D03*
Y86614D02*
D03*
Y90551D02*
D03*
Y94488D02*
D03*
Y98425D02*
D03*
Y102362D02*
D03*
Y149606D02*
D03*
Y145669D02*
D03*
Y122047D02*
D03*
Y118110D02*
D03*
Y114173D02*
D03*
Y110236D02*
D03*
Y106299D02*
D03*
Y23622D02*
D03*
Y19685D02*
D03*
Y15748D02*
D03*
X566803Y-7874D02*
D03*
X570740D02*
D03*
X562866D02*
D03*
X558929D02*
D03*
X554992D02*
D03*
X551055D02*
D03*
X547118D02*
D03*
X543181D02*
D03*
X539244D02*
D03*
X535307D02*
D03*
X531370D02*
D03*
X527433D02*
D03*
X523496D02*
D03*
X519559D02*
D03*
X515622D02*
D03*
X511685D02*
D03*
X507748D02*
D03*
X503811D02*
D03*
X499874D02*
D03*
X495937D02*
D03*
X425071D02*
D03*
X429008D02*
D03*
X432945D02*
D03*
X436882D02*
D03*
X440819D02*
D03*
X492000D02*
D03*
X488063D02*
D03*
X484126D02*
D03*
X480189D02*
D03*
X476252D02*
D03*
X472315D02*
D03*
X468378D02*
D03*
X464441D02*
D03*
X460504D02*
D03*
X456567D02*
D03*
X452630D02*
D03*
X448693D02*
D03*
X444756D02*
D03*
X381764D02*
D03*
X385701D02*
D03*
X389638D02*
D03*
X393575D02*
D03*
X397512D02*
D03*
X401449D02*
D03*
X405386D02*
D03*
X409323D02*
D03*
X413260D02*
D03*
X417197D02*
D03*
X421134D02*
D03*
X377827D02*
D03*
X373890D02*
D03*
X369953D02*
D03*
X350268D02*
D03*
X346331D02*
D03*
X342394D02*
D03*
X338457D02*
D03*
X334520D02*
D03*
X330583D02*
D03*
X326646D02*
D03*
X322709D02*
D03*
X318772D02*
D03*
X314835D02*
D03*
X310898D02*
D03*
X7748D02*
D03*
X19559D02*
D03*
X15622D02*
D03*
X11685D02*
D03*
X43181D02*
D03*
X47118D02*
D03*
X51055D02*
D03*
X54992D02*
D03*
X58929D02*
D03*
X62866D02*
D03*
X66803D02*
D03*
X70740D02*
D03*
X74677D02*
D03*
X78614D02*
D03*
X82551D02*
D03*
X86488D02*
D03*
X90425D02*
D03*
X94362D02*
D03*
X98299D02*
D03*
X102236D02*
D03*
X106173D02*
D03*
X110110D02*
D03*
X114047D02*
D03*
X117984D02*
D03*
X161291D02*
D03*
X157354D02*
D03*
X153417D02*
D03*
X149480D02*
D03*
X145543D02*
D03*
X141606D02*
D03*
X137669D02*
D03*
X133732D02*
D03*
X129795D02*
D03*
X125858D02*
D03*
X121921D02*
D03*
X39244D02*
D03*
X35307D02*
D03*
X31370D02*
D03*
X27433D02*
D03*
X23496D02*
D03*
X184913D02*
D03*
X188850D02*
D03*
X192787D02*
D03*
X196724D02*
D03*
X200661D02*
D03*
X204598D02*
D03*
X208535D02*
D03*
X212472D02*
D03*
X216409D02*
D03*
X220346D02*
D03*
X224284D02*
D03*
X228221D02*
D03*
X232157D02*
D03*
X236094D02*
D03*
X240032D02*
D03*
X243969D02*
D03*
X247905D02*
D03*
X251842D02*
D03*
X255780D02*
D03*
X259717D02*
D03*
X306961D02*
D03*
X303024D02*
D03*
X299087D02*
D03*
X295150D02*
D03*
X291213D02*
D03*
X287276D02*
D03*
X283339D02*
D03*
X279402D02*
D03*
X275465D02*
D03*
X271528D02*
D03*
X267590D02*
D03*
X263653D02*
D03*
X180976D02*
D03*
X177039D02*
D03*
X173102D02*
D03*
X169165D02*
D03*
X165228D02*
D03*
D98*
X0Y314961D02*
D03*
X360236Y0D02*
D03*
X663386Y314961D02*
D03*
Y0D02*
D03*
X0D02*
D03*
M02*
