G04*
G04 #@! TF.GenerationSoftware,Altium Limited,Altium Designer,20.0.13 (296)*
G04*
G04 Layer_Color=32896*
%FSLAX25Y25*%
%MOIN*%
G70*
G01*
G75*
%ADD18C,0.00197*%
D18*
X632677Y157480D02*
X635039D01*
X633858Y156299D02*
Y158661D01*
X641858Y147580D02*
Y167380D01*
X625858Y147580D02*
X641858D01*
X625858D02*
Y167380D01*
X641858D01*
X553937Y153543D02*
X556299D01*
X555118Y152362D02*
Y154724D01*
X549218Y146643D02*
Y160443D01*
X561018D01*
X549218Y146643D02*
X561018D01*
Y160443D01*
X375398Y235626D02*
X387398D01*
Y248526D01*
X375398D02*
X387398D01*
X375398Y235626D02*
Y248526D01*
X381398Y240945D02*
Y243307D01*
X380217Y242126D02*
X382579D01*
X545228Y198287D02*
X551228D01*
Y203287D01*
X545228D02*
X551228D01*
X545228Y198287D02*
Y203287D01*
X548228Y199606D02*
Y201969D01*
X547047Y200787D02*
X549409D01*
X632677Y204724D02*
X635039D01*
X633858Y203543D02*
Y205906D01*
X646858Y180724D02*
Y228824D01*
X620858Y180724D02*
Y228824D01*
X646858D01*
X620858Y180724D02*
X646858D01*
X562795Y263779D02*
X565158D01*
X563976Y262598D02*
Y264961D01*
X562402Y260827D02*
Y266732D01*
X565551Y260827D02*
Y266732D01*
X562402Y260827D02*
X565551D01*
X562402Y266732D02*
X565551D01*
X580512Y11811D02*
X582874D01*
X581693Y10630D02*
Y12992D01*
X574293Y6111D02*
Y17511D01*
X589093Y6111D02*
Y17511D01*
X574293Y6111D02*
X589093D01*
X574293Y17511D02*
X589093D01*
X555905Y200709D02*
X558268D01*
X557087Y199528D02*
Y201890D01*
X555512Y197756D02*
Y203661D01*
X558661Y197756D02*
Y203661D01*
X555512Y197756D02*
X558661D01*
X555512Y203661D02*
X558661D01*
X581496Y199380D02*
X583858D01*
X582677Y198199D02*
Y200561D01*
X580777Y194380D02*
Y204380D01*
Y194380D02*
X584577D01*
X580777Y204380D02*
X584577D01*
Y194380D02*
Y204380D01*
X351378Y258268D02*
Y261417D01*
X357283Y258268D02*
Y261417D01*
X351378D02*
X357283D01*
X351378Y258268D02*
X357283D01*
X353150Y259842D02*
X355512D01*
X354331Y258661D02*
Y261024D01*
X441929Y270472D02*
Y272835D01*
X440748Y271654D02*
X443110D01*
X415158Y264054D02*
X458929D01*
X415158D02*
Y288053D01*
X458929D01*
Y264054D02*
Y288053D01*
X480315Y270472D02*
Y272835D01*
X479134Y271654D02*
X481496D01*
X463315Y264054D02*
X497315D01*
X463315D02*
Y288053D01*
X497315D01*
Y264054D02*
Y288053D01*
X563976Y286221D02*
Y288583D01*
X562795Y287402D02*
X565158D01*
X554576Y293502D02*
X573376D01*
Y277802D02*
Y293502D01*
X554576Y277802D02*
X573376D01*
X554576D02*
Y293502D01*
X575591Y199380D02*
X577953D01*
X576772Y198199D02*
Y200561D01*
X578672Y194380D02*
Y204380D01*
X574872D02*
X578672D01*
X574872Y194380D02*
X578672D01*
X574872D02*
Y204380D01*
X511811Y239882D02*
X514961D01*
X511811Y245787D02*
X514961D01*
X511811Y239882D02*
Y245787D01*
X514961Y239882D02*
Y245787D01*
X513386Y241653D02*
Y244016D01*
X512205Y242835D02*
X514567D01*
X128319Y97185D02*
X130681D01*
X129500Y96004D02*
Y98366D01*
X127925Y94232D02*
Y100138D01*
X131075Y94232D02*
Y100138D01*
X127925Y94232D02*
X131075D01*
X127925Y100138D02*
X131075D01*
X138051Y106299D02*
X140413D01*
X139232Y105118D02*
Y107480D01*
X137657Y103347D02*
Y109252D01*
X140807Y103347D02*
Y109252D01*
X137657Y103347D02*
X140807D01*
X137657Y109252D02*
X140807D01*
X148051Y106299D02*
X150413D01*
X149232Y105118D02*
Y107480D01*
X147658Y103347D02*
Y109252D01*
X150807Y103347D02*
Y109252D01*
X147658Y103347D02*
X150807D01*
X147658Y109252D02*
X150807D01*
X155819Y97185D02*
X158181D01*
X157000Y96004D02*
Y98366D01*
X155425Y94232D02*
Y100138D01*
X158575Y94232D02*
Y100138D01*
X155425Y94232D02*
X158575D01*
X155425Y100138D02*
X158575D01*
X165610Y106299D02*
X167973D01*
X166791Y105118D02*
Y107480D01*
X165217Y103347D02*
Y109252D01*
X168366Y103347D02*
Y109252D01*
X165217Y103347D02*
X168366D01*
X165217Y109252D02*
X168366D01*
X175610Y106299D02*
X177972D01*
X176791Y105118D02*
Y107480D01*
X175216Y103347D02*
Y109252D01*
X178366Y103347D02*
Y109252D01*
X175216Y103347D02*
X178366D01*
X175216Y109252D02*
X178366D01*
X183819Y97185D02*
X186181D01*
X185000Y96004D02*
Y98366D01*
X183425Y94232D02*
Y100138D01*
X186575Y94232D02*
Y100138D01*
X183425Y94232D02*
X186575D01*
X183425Y100138D02*
X186575D01*
X193169Y106299D02*
X195531D01*
X194350Y105118D02*
Y107480D01*
X192776Y103347D02*
Y109252D01*
X195925Y103347D02*
Y109252D01*
X192776Y103347D02*
X195925D01*
X192776Y109252D02*
X195925D01*
X203169Y106299D02*
X205532D01*
X204350Y105118D02*
Y107480D01*
X202776Y103347D02*
Y109252D01*
X205925Y103347D02*
Y109252D01*
X202776Y103347D02*
X205925D01*
X202776Y109252D02*
X205925D01*
X211319Y97185D02*
X213681D01*
X212500Y96004D02*
Y98366D01*
X210925Y94232D02*
Y100138D01*
X214075Y94232D02*
Y100138D01*
X210925Y94232D02*
X214075D01*
X210925Y100138D02*
X214075D01*
X220728Y106299D02*
X223091D01*
X221909Y105118D02*
Y107480D01*
X220335Y103347D02*
Y109252D01*
X223484Y103347D02*
Y109252D01*
X220335Y103347D02*
X223484D01*
X220335Y109252D02*
X223484D01*
X230728Y106299D02*
X233091D01*
X231909Y105118D02*
Y107480D01*
X230335Y103347D02*
Y109252D01*
X233484Y103347D02*
Y109252D01*
X230335Y103347D02*
X233484D01*
X230335Y109252D02*
X233484D01*
X238819Y97185D02*
X241181D01*
X240000Y96004D02*
Y98366D01*
X238425Y94232D02*
Y100138D01*
X241575Y94232D02*
Y100138D01*
X238425Y94232D02*
X241575D01*
X238425Y100138D02*
X241575D01*
X248287Y106299D02*
X250650D01*
X249468Y105118D02*
Y107480D01*
X247894Y103347D02*
Y109252D01*
X251043Y103347D02*
Y109252D01*
X247894Y103347D02*
X251043D01*
X247894Y109252D02*
X251043D01*
X258287Y106299D02*
X260650D01*
X259469Y105118D02*
Y107480D01*
X257894Y103347D02*
Y109252D01*
X261043Y103347D02*
Y109252D01*
X257894Y103347D02*
X261043D01*
X257894Y109252D02*
X261043D01*
X266819Y97185D02*
X269181D01*
X268000Y96004D02*
Y98366D01*
X266425Y94232D02*
Y100138D01*
X269575Y94232D02*
Y100138D01*
X266425Y94232D02*
X269575D01*
X266425Y100138D02*
X269575D01*
X275847Y106299D02*
X278209D01*
X277028Y105118D02*
Y107480D01*
X275453Y103347D02*
Y109252D01*
X278602Y103347D02*
Y109252D01*
X275453Y103347D02*
X278602D01*
X275453Y109252D02*
X278602D01*
X285846Y106299D02*
X288209D01*
X287028Y105118D02*
Y107480D01*
X285453Y103347D02*
Y109252D01*
X288602Y103347D02*
Y109252D01*
X285453Y103347D02*
X288602D01*
X285453Y109252D02*
X288602D01*
X294319Y97185D02*
X296681D01*
X295500Y96004D02*
Y98366D01*
X293925Y94232D02*
Y100138D01*
X297075Y94232D02*
Y100138D01*
X293925Y94232D02*
X297075D01*
X293925Y100138D02*
X297075D01*
X303405Y106299D02*
X305768D01*
X304587Y105118D02*
Y107480D01*
X303012Y103347D02*
Y109252D01*
X306161Y103347D02*
Y109252D01*
X303012Y103347D02*
X306161D01*
X303012Y109252D02*
X306161D01*
X313405Y106299D02*
X315768D01*
X314587Y105118D02*
Y107480D01*
X313012Y103347D02*
Y109252D01*
X316161Y103347D02*
Y109252D01*
X313012Y103347D02*
X316161D01*
X313012Y109252D02*
X316161D01*
X321819Y97185D02*
X324181D01*
X323000Y96004D02*
Y98366D01*
X321425Y94232D02*
Y100138D01*
X324575Y94232D02*
Y100138D01*
X321425Y94232D02*
X324575D01*
X321425Y100138D02*
X324575D01*
X330965Y106299D02*
X333327D01*
X332146Y105118D02*
Y107480D01*
X330571Y103347D02*
Y109252D01*
X333720Y103347D02*
Y109252D01*
X330571Y103347D02*
X333720D01*
X330571Y109252D02*
X333720D01*
X340965Y106299D02*
X343327D01*
X342146Y105118D02*
Y107480D01*
X340571Y103347D02*
Y109252D01*
X343721Y103347D02*
Y109252D01*
X340571Y103347D02*
X343721D01*
X340571Y109252D02*
X343721D01*
X375319Y97185D02*
X377681D01*
X376500Y96004D02*
Y98366D01*
X374925Y94232D02*
Y100138D01*
X378075Y94232D02*
Y100138D01*
X374925Y94232D02*
X378075D01*
X374925Y100138D02*
X378075D01*
X384114Y106299D02*
X386476D01*
X385295Y105118D02*
Y107480D01*
X383720Y103347D02*
Y109252D01*
X386870Y103347D02*
Y109252D01*
X383720Y103347D02*
X386870D01*
X383720Y109252D02*
X386870D01*
X394114Y106299D02*
X396476D01*
X395295Y105118D02*
Y107480D01*
X393721Y103347D02*
Y109252D01*
X396870Y103347D02*
Y109252D01*
X393721Y103347D02*
X396870D01*
X393721Y109252D02*
X396870D01*
X402819Y97185D02*
X405181D01*
X404000Y96004D02*
Y98366D01*
X402425Y94232D02*
Y100138D01*
X405575Y94232D02*
Y100138D01*
X402425Y94232D02*
X405575D01*
X402425Y100138D02*
X405575D01*
X411673Y106299D02*
X414035D01*
X412854Y105118D02*
Y107480D01*
X411279Y103347D02*
Y109252D01*
X414429Y103347D02*
Y109252D01*
X411279Y103347D02*
X414429D01*
X411279Y109252D02*
X414429D01*
X421673Y106299D02*
X424035D01*
X422854Y105118D02*
Y107480D01*
X421279Y103347D02*
Y109252D01*
X424429Y103347D02*
Y109252D01*
X421279Y103347D02*
X424429D01*
X421279Y109252D02*
X424429D01*
X430319Y97185D02*
X432681D01*
X431500Y96004D02*
Y98366D01*
X429925Y94232D02*
Y100138D01*
X433075Y94232D02*
Y100138D01*
X429925Y94232D02*
X433075D01*
X429925Y100138D02*
X433075D01*
X439232Y106299D02*
X441595D01*
X440413Y105118D02*
Y107480D01*
X438839Y103347D02*
Y109252D01*
X441988Y103347D02*
Y109252D01*
X438839Y103347D02*
X441988D01*
X438839Y109252D02*
X441988D01*
X449232Y106299D02*
X451594D01*
X450413Y105118D02*
Y107480D01*
X448839Y103347D02*
Y109252D01*
X451988Y103347D02*
Y109252D01*
X448839Y103347D02*
X451988D01*
X448839Y109252D02*
X451988D01*
X457819Y97185D02*
X460181D01*
X459000Y96004D02*
Y98366D01*
X457425Y94232D02*
Y100138D01*
X460575Y94232D02*
Y100138D01*
X457425Y94232D02*
X460575D01*
X457425Y100138D02*
X460575D01*
X466791Y106299D02*
X469153D01*
X467973Y105118D02*
Y107480D01*
X466398Y103347D02*
Y109252D01*
X469547Y103347D02*
Y109252D01*
X466398Y103347D02*
X469547D01*
X466398Y109252D02*
X469547D01*
X476791Y106299D02*
X479153D01*
X477973Y105118D02*
Y107480D01*
X476398Y103347D02*
Y109252D01*
X479547Y103347D02*
Y109252D01*
X476398Y103347D02*
X479547D01*
X476398Y109252D02*
X479547D01*
X485819Y97185D02*
X488181D01*
X487000Y96004D02*
Y98366D01*
X485425Y94232D02*
Y100138D01*
X488575Y94232D02*
Y100138D01*
X485425Y94232D02*
X488575D01*
X485425Y100138D02*
X488575D01*
X494350Y106299D02*
X496713D01*
X495532Y105118D02*
Y107480D01*
X493957Y103347D02*
Y109252D01*
X497106Y103347D02*
Y109252D01*
X493957Y103347D02*
X497106D01*
X493957Y109252D02*
X497106D01*
X504350Y106299D02*
X506713D01*
X505532Y105118D02*
Y107480D01*
X503957Y103347D02*
Y109252D01*
X507106Y103347D02*
Y109252D01*
X503957Y103347D02*
X507106D01*
X503957Y109252D02*
X507106D01*
X512819Y97185D02*
X515181D01*
X514000Y96004D02*
Y98366D01*
X512425Y94232D02*
Y100138D01*
X515575Y94232D02*
Y100138D01*
X512425Y94232D02*
X515575D01*
X512425Y100138D02*
X515575D01*
X521910Y106299D02*
X524272D01*
X523091Y105118D02*
Y107480D01*
X521516Y103347D02*
Y109252D01*
X524665Y103347D02*
Y109252D01*
X521516Y103347D02*
X524665D01*
X521516Y109252D02*
X524665D01*
X531910Y106299D02*
X534272D01*
X533091Y105118D02*
Y107480D01*
X531516Y103347D02*
Y109252D01*
X534665Y103347D02*
Y109252D01*
X531516Y103347D02*
X534665D01*
X531516Y109252D02*
X534665D01*
X540319Y97185D02*
X542681D01*
X541500Y96004D02*
Y98366D01*
X539925Y94232D02*
Y100138D01*
X543075Y94232D02*
Y100138D01*
X539925Y94232D02*
X543075D01*
X539925Y100138D02*
X543075D01*
X549469Y106299D02*
X551831D01*
X550650Y105118D02*
Y107480D01*
X549075Y103347D02*
Y109252D01*
X552224Y103347D02*
Y109252D01*
X549075Y103347D02*
X552224D01*
X549075Y109252D02*
X552224D01*
X559469Y106299D02*
X561831D01*
X560650Y105118D02*
Y107480D01*
X559075Y103347D02*
Y109252D01*
X562224Y103347D02*
Y109252D01*
X559075Y103347D02*
X562224D01*
X559075Y109252D02*
X562224D01*
X568319Y97185D02*
X570681D01*
X569500Y96004D02*
Y98366D01*
X567925Y94232D02*
Y100138D01*
X571075Y94232D02*
Y100138D01*
X567925Y94232D02*
X571075D01*
X567925Y100138D02*
X571075D01*
X577028Y106299D02*
X579390D01*
X578209Y105118D02*
Y107480D01*
X576634Y103347D02*
Y109252D01*
X579783Y103347D02*
Y109252D01*
X576634Y103347D02*
X579783D01*
X576634Y109252D02*
X579783D01*
X587028Y106299D02*
X589390D01*
X588209Y105118D02*
Y107480D01*
X586634Y103347D02*
Y109252D01*
X589783Y103347D02*
Y109252D01*
X586634Y103347D02*
X589783D01*
X586634Y109252D02*
X589783D01*
X207063Y230886D02*
X209425D01*
X208244Y229705D02*
Y232067D01*
X206669Y227933D02*
Y233839D01*
X209819Y227933D02*
Y233839D01*
X206669Y227933D02*
X209819D01*
X206669Y233839D02*
X209819D01*
X207063Y274193D02*
X209425D01*
X208244Y273012D02*
Y275374D01*
X209819Y271240D02*
Y277146D01*
X206669Y271240D02*
Y277146D01*
X209819D01*
X206669Y271240D02*
X209819D01*
X219819Y274193D02*
X222181D01*
X221000Y273012D02*
Y275374D01*
X222575Y271240D02*
Y277146D01*
X219425Y271240D02*
Y277146D01*
X222575D01*
X219425Y271240D02*
X222575D01*
X236512Y274193D02*
X238874D01*
X237693Y273012D02*
Y275374D01*
X239268Y271240D02*
Y277146D01*
X236118Y271240D02*
Y277146D01*
X239268D01*
X236118Y271240D02*
X239268D01*
X232575Y274193D02*
X234937D01*
X233756Y273012D02*
Y275374D01*
X235331Y271240D02*
Y277146D01*
X232181Y271240D02*
Y277146D01*
X235331D01*
X232181Y271240D02*
X235331D01*
X389665Y255736D02*
X392815D01*
X389665Y261642D02*
X392815D01*
X389665Y255736D02*
Y261642D01*
X392815Y255736D02*
Y261642D01*
X391240Y257508D02*
Y259870D01*
X390059Y258689D02*
X392421D01*
X369980Y236535D02*
X373130D01*
X369980Y242441D02*
X373130D01*
X369980Y236535D02*
Y242441D01*
X373130Y236535D02*
Y242441D01*
X371555Y238307D02*
Y240669D01*
X370374Y239488D02*
X372736D01*
X374902Y255736D02*
X378051D01*
X374902Y261642D02*
X378051D01*
X374902Y255736D02*
Y261642D01*
X378051Y255736D02*
Y261642D01*
X376476Y257508D02*
Y259870D01*
X375295Y258689D02*
X377658D01*
X422736Y247224D02*
X425886D01*
X422736Y241319D02*
X425886D01*
Y247224D01*
X422736Y241319D02*
Y247224D01*
X424311Y243091D02*
Y245453D01*
X423130Y244272D02*
X425492D01*
X448130Y247224D02*
X451279D01*
X448130Y241319D02*
X451279D01*
Y247224D01*
X448130Y241319D02*
Y247224D01*
X449705Y243091D02*
Y245453D01*
X448524Y244272D02*
X450886D01*
X481595Y255689D02*
X483957D01*
X482776Y254508D02*
Y256870D01*
X481201Y252736D02*
Y258642D01*
X484350Y252736D02*
Y258642D01*
X481201Y252736D02*
X484350D01*
X481201Y258642D02*
X484350D01*
X500591Y174705D02*
X503740D01*
X500591Y168799D02*
X503740D01*
Y174705D01*
X500591Y168799D02*
Y174705D01*
X502165Y170571D02*
Y172933D01*
X500984Y171752D02*
X503346D01*
X556021Y176181D02*
X559171D01*
X556021Y170276D02*
X559171D01*
Y176181D01*
X556021Y170276D02*
Y176181D01*
X557596Y172047D02*
Y174409D01*
X556415Y173228D02*
X558777D01*
X543701Y159173D02*
X546850D01*
X543701Y153268D02*
X546850D01*
Y159173D01*
X543701Y153268D02*
Y159173D01*
X545276Y155039D02*
Y157402D01*
X544095Y156220D02*
X546457D01*
X556021Y130905D02*
X559171D01*
X556021Y136811D02*
X559171D01*
X556021Y130905D02*
Y136811D01*
X559171Y130905D02*
Y136811D01*
X557596Y132677D02*
Y135039D01*
X556415Y133858D02*
X558777D01*
X552545Y130905D02*
X555694D01*
X552545Y136811D02*
X555694D01*
X552545Y130905D02*
Y136811D01*
X555694Y130905D02*
Y136811D01*
X554119Y132677D02*
Y135039D01*
X552939Y133858D02*
X555301D01*
X552545Y176181D02*
X555694D01*
X552545Y170276D02*
X555694D01*
Y176181D01*
X552545Y170276D02*
Y176181D01*
X554120Y172047D02*
Y174409D01*
X552939Y173228D02*
X555301D01*
X543701Y176181D02*
X546850D01*
X543701Y170276D02*
X546850D01*
Y176181D01*
X543701Y170276D02*
Y176181D01*
X545276Y172047D02*
Y174409D01*
X544095Y173228D02*
X546457D01*
X543701Y145945D02*
X546850D01*
X543701Y151850D02*
X546850D01*
X543701Y145945D02*
Y151850D01*
X546850Y145945D02*
Y151850D01*
X545276Y147716D02*
Y150079D01*
X544095Y148898D02*
X546457D01*
X630315Y89567D02*
X633465D01*
X630315Y83661D02*
X633465D01*
Y89567D01*
X630315Y83661D02*
Y89567D01*
X631890Y85433D02*
Y87795D01*
X630709Y86614D02*
X633071D01*
X634252Y89567D02*
X637402D01*
X634252Y83661D02*
X637402D01*
Y89567D01*
X634252Y83661D02*
Y89567D01*
X635827Y85433D02*
Y87795D01*
X634646Y86614D02*
X637008D01*
X638189Y89567D02*
X641339D01*
X638189Y83661D02*
X641339D01*
Y89567D01*
X638189Y83661D02*
Y89567D01*
X639764Y85433D02*
Y87795D01*
X638583Y86614D02*
X640945D01*
X642126Y89567D02*
X645276D01*
X642126Y83661D02*
X645276D01*
Y89567D01*
X642126Y83661D02*
Y89567D01*
X643701Y85433D02*
Y87795D01*
X642520Y86614D02*
X644882D01*
X626378Y89567D02*
X629528D01*
X626378Y83661D02*
X629528D01*
Y89567D01*
X626378Y83661D02*
Y89567D01*
X627953Y85433D02*
Y87795D01*
X626772Y86614D02*
X629134D01*
X622441Y89567D02*
X625591D01*
X622441Y83661D02*
X625591D01*
Y89567D01*
X622441Y83661D02*
Y89567D01*
X624016Y85433D02*
Y87795D01*
X622835Y86614D02*
X625197D01*
X654315Y63701D02*
X657465D01*
X654315Y57795D02*
X657465D01*
Y63701D01*
X654315Y57795D02*
Y63701D01*
X655890Y59567D02*
Y61929D01*
X654709Y60748D02*
X657071D01*
X642126Y123031D02*
X645276D01*
X642126Y128937D02*
X645276D01*
X642126Y123031D02*
Y128937D01*
X645276Y123031D02*
Y128937D01*
X643701Y124803D02*
Y127165D01*
X642520Y125984D02*
X644882D01*
X634252Y123031D02*
X637402D01*
X634252Y128937D02*
X637402D01*
X634252Y123031D02*
Y128937D01*
X637402Y123031D02*
Y128937D01*
X635827Y124803D02*
Y127165D01*
X634646Y125984D02*
X637008D01*
X638189Y123031D02*
X641339D01*
X638189Y128937D02*
X641339D01*
X638189Y123031D02*
Y128937D01*
X641339Y123031D02*
Y128937D01*
X639764Y124803D02*
Y127165D01*
X638583Y125984D02*
X640945D01*
X604724Y210315D02*
X607874D01*
X604724Y204409D02*
X607874D01*
Y210315D01*
X604724Y204409D02*
Y210315D01*
X606299Y206181D02*
Y208543D01*
X605118Y207362D02*
X607480D01*
X643780Y246457D02*
Y249606D01*
X637874Y246457D02*
Y249606D01*
Y246457D02*
X643780D01*
X637874Y249606D02*
X643780D01*
X639646Y248031D02*
X642008D01*
X640827Y246850D02*
Y249213D01*
X623937Y246457D02*
Y249606D01*
X629843Y246457D02*
Y249606D01*
X623937D02*
X629843D01*
X623937Y246457D02*
X629843D01*
X625709Y248031D02*
X628071D01*
X626890Y246850D02*
Y249213D01*
X351378Y254331D02*
Y257480D01*
X357283Y254331D02*
Y257480D01*
X351378D02*
X357283D01*
X351378Y254331D02*
X357283D01*
X353150Y255906D02*
X355512D01*
X354331Y254724D02*
Y257087D01*
X615748Y219488D02*
X618898D01*
X615748Y213583D02*
X618898D01*
Y219488D01*
X615748Y213583D02*
Y219488D01*
X617323Y215354D02*
Y217717D01*
X616142Y216535D02*
X618504D01*
X615158Y156890D02*
Y160039D01*
X621063Y156890D02*
Y160039D01*
X615158D02*
X621063D01*
X615158Y156890D02*
X621063D01*
X616929Y158465D02*
X619291D01*
X618110Y157283D02*
Y159646D01*
X587008Y195020D02*
X590158D01*
X587008Y200925D02*
X590158D01*
X587008Y195020D02*
Y200925D01*
X590158Y195020D02*
Y200925D01*
X588583Y196791D02*
Y199153D01*
X587402Y197972D02*
X589764D01*
X569291Y203740D02*
X572441D01*
X569291Y197835D02*
X572441D01*
Y203740D01*
X569291Y197835D02*
Y203740D01*
X570866Y199606D02*
Y201969D01*
X569685Y200787D02*
X572047D01*
X565354Y197835D02*
X568504D01*
X565354Y203740D02*
X568504D01*
X565354Y197835D02*
Y203740D01*
X568504Y197835D02*
Y203740D01*
X566929Y199606D02*
Y201969D01*
X565748Y200787D02*
X568110D01*
X511811Y203740D02*
X514961D01*
X511811Y197835D02*
X514961D01*
Y203740D01*
X511811Y197835D02*
Y203740D01*
X513386Y199606D02*
Y201969D01*
X512205Y200787D02*
X514567D01*
X541732Y203740D02*
X544882D01*
X541732Y197835D02*
X544882D01*
Y203740D01*
X541732Y197835D02*
Y203740D01*
X543307Y199606D02*
Y201969D01*
X542126Y200787D02*
X544488D01*
X141535Y11811D02*
X143898D01*
X142717Y10630D02*
Y12992D01*
X135317Y6111D02*
Y17511D01*
X150117Y6111D02*
Y17511D01*
X135317Y6111D02*
X150117D01*
X135317Y17511D02*
X150117D01*
X169095Y11811D02*
X171457D01*
X170276Y10630D02*
Y12992D01*
X162876Y6111D02*
Y17511D01*
X177676Y6111D02*
Y17511D01*
X162876Y6111D02*
X177676D01*
X162876Y17511D02*
X177676D01*
X196653Y11811D02*
X199016D01*
X197835Y10630D02*
Y12992D01*
X190435Y6111D02*
Y17511D01*
X205235Y6111D02*
Y17511D01*
X190435Y6111D02*
X205235D01*
X190435Y17511D02*
X205235D01*
X224213Y11811D02*
X226575D01*
X225394Y10630D02*
Y12992D01*
X217994Y6111D02*
Y17511D01*
X232794Y6111D02*
Y17511D01*
X217994Y6111D02*
X232794D01*
X217994Y17511D02*
X232794D01*
X251772Y11811D02*
X254134D01*
X252953Y10630D02*
Y12992D01*
X245553Y6111D02*
Y17511D01*
X260353Y6111D02*
Y17511D01*
X245553Y6111D02*
X260353D01*
X245553Y17511D02*
X260353D01*
X279331Y11811D02*
X281693D01*
X280512Y10630D02*
Y12992D01*
X273112Y6111D02*
Y17511D01*
X287912Y6111D02*
Y17511D01*
X273112Y6111D02*
X287912D01*
X273112Y17511D02*
X287912D01*
X306890Y11811D02*
X309252D01*
X308071Y10630D02*
Y12992D01*
X300671Y6111D02*
Y17511D01*
X315471Y6111D02*
Y17511D01*
X300671Y6111D02*
X315471D01*
X300671Y17511D02*
X315471D01*
X334449Y11811D02*
X336811D01*
X335630Y10630D02*
Y12992D01*
X328230Y6111D02*
Y17511D01*
X343030Y6111D02*
Y17511D01*
X328230Y6111D02*
X343030D01*
X328230Y17511D02*
X343030D01*
X387598Y11811D02*
X389961D01*
X388779Y10630D02*
Y12992D01*
X381380Y6111D02*
Y17511D01*
X396180Y6111D02*
Y17511D01*
X381380Y6111D02*
X396180D01*
X381380Y17511D02*
X396180D01*
X415158Y11811D02*
X417520D01*
X416339Y10630D02*
Y12992D01*
X408939Y6111D02*
Y17511D01*
X423739Y6111D02*
Y17511D01*
X408939Y6111D02*
X423739D01*
X408939Y17511D02*
X423739D01*
X442717Y11811D02*
X445079D01*
X443898Y10630D02*
Y12992D01*
X436498Y6111D02*
Y17511D01*
X451298Y6111D02*
Y17511D01*
X436498Y6111D02*
X451298D01*
X436498Y17511D02*
X451298D01*
X470276Y11811D02*
X472638D01*
X471457Y10630D02*
Y12992D01*
X464057Y6111D02*
Y17511D01*
X478857Y6111D02*
Y17511D01*
X464057Y6111D02*
X478857D01*
X464057Y17511D02*
X478857D01*
X497835Y11811D02*
X500197D01*
X499016Y10630D02*
Y12992D01*
X491616Y6111D02*
Y17511D01*
X506416Y6111D02*
Y17511D01*
X491616Y6111D02*
X506416D01*
X491616Y17511D02*
X506416D01*
X525394Y11811D02*
X527756D01*
X526575Y10630D02*
Y12992D01*
X519175Y6111D02*
Y17511D01*
X533975Y6111D02*
Y17511D01*
X519175Y6111D02*
X533975D01*
X519175Y17511D02*
X533975D01*
X552953Y11811D02*
X555315D01*
X554134Y10630D02*
Y12992D01*
X546734Y6111D02*
Y17511D01*
X561534Y6111D02*
Y17511D01*
X546734Y6111D02*
X561534D01*
X546734Y17511D02*
X561534D01*
X394587Y255736D02*
X397736D01*
X394587Y261642D02*
X397736D01*
X394587Y255736D02*
Y261642D01*
X397736Y255736D02*
Y261642D01*
X396161Y257508D02*
Y259870D01*
X394980Y258689D02*
X397342D01*
X432972Y255736D02*
X436122D01*
X432972Y261642D02*
X436122D01*
X432972Y255736D02*
Y261642D01*
X436122Y255736D02*
Y261642D01*
X434547Y257508D02*
Y259870D01*
X433366Y258689D02*
X435728D01*
X437894Y255736D02*
X441043D01*
X437894Y261642D02*
X441043D01*
X437894Y255736D02*
Y261642D01*
X441043Y255736D02*
Y261642D01*
X439468Y257508D02*
Y259870D01*
X438287Y258689D02*
X440650D01*
X476673Y255689D02*
X479035D01*
X477854Y254508D02*
Y256870D01*
X479429Y252736D02*
Y258642D01*
X476279Y252736D02*
Y258642D01*
X479429D01*
X476279Y252736D02*
X479429D01*
X650378Y63701D02*
X653528D01*
X650378Y57795D02*
X653528D01*
Y63701D01*
X650378Y57795D02*
Y63701D01*
X651953Y59567D02*
Y61929D01*
X650772Y60748D02*
X653134D01*
X410701Y264054D02*
Y288053D01*
X376701D02*
X410701D01*
X376701Y264054D02*
Y288053D01*
Y264054D02*
X410701D01*
X392520Y271654D02*
X394882D01*
X393701Y270472D02*
Y272835D01*
X371331Y264054D02*
Y288053D01*
X337331D02*
X371331D01*
X337331Y264054D02*
Y288053D01*
Y264054D02*
X371331D01*
X353150Y271654D02*
X355512D01*
X354331Y270472D02*
Y272835D01*
X130315Y18701D02*
X133465D01*
X130315Y12795D02*
X133465D01*
Y18701D01*
X130315Y12795D02*
Y18701D01*
X131890Y14567D02*
Y16929D01*
X130709Y15748D02*
X133071D01*
X132658Y109252D02*
X135807D01*
X132658Y103347D02*
X135807D01*
Y109252D01*
X132658Y103347D02*
Y109252D01*
X134232Y105118D02*
Y107480D01*
X133051Y106299D02*
X135413D01*
X142657Y109252D02*
X145807D01*
X142657Y103347D02*
X145807D01*
Y109252D01*
X142657Y103347D02*
Y109252D01*
X144232Y105118D02*
Y107480D01*
X143051Y106299D02*
X145413D01*
X157874Y18701D02*
X161024D01*
X157874Y12795D02*
X161024D01*
Y18701D01*
X157874Y12795D02*
Y18701D01*
X159449Y14567D02*
Y16929D01*
X158268Y15748D02*
X160630D01*
X160216Y109252D02*
X163366D01*
X160216Y103347D02*
X163366D01*
Y109252D01*
X160216Y103347D02*
Y109252D01*
X161791Y105118D02*
Y107480D01*
X160610Y106299D02*
X162972D01*
X170217Y109252D02*
X173366D01*
X170217Y103347D02*
X173366D01*
Y109252D01*
X170217Y103347D02*
Y109252D01*
X171791Y105118D02*
Y107480D01*
X170610Y106299D02*
X172973D01*
X185433Y18701D02*
X188583D01*
X185433Y12795D02*
X188583D01*
Y18701D01*
X185433Y12795D02*
Y18701D01*
X187008Y14567D02*
Y16929D01*
X185827Y15748D02*
X188189D01*
X187776Y109252D02*
X190925D01*
X187776Y103347D02*
X190925D01*
Y109252D01*
X187776Y103347D02*
Y109252D01*
X189350Y105118D02*
Y107480D01*
X188169Y106299D02*
X190532D01*
X197776Y109252D02*
X200925D01*
X197776Y103347D02*
X200925D01*
Y109252D01*
X197776Y103347D02*
Y109252D01*
X199350Y105118D02*
Y107480D01*
X198169Y106299D02*
X200532D01*
X212992Y18701D02*
X216142D01*
X212992Y12795D02*
X216142D01*
Y18701D01*
X212992Y12795D02*
Y18701D01*
X214567Y14567D02*
Y16929D01*
X213386Y15748D02*
X215748D01*
X215335Y109252D02*
X218484D01*
X215335Y103347D02*
X218484D01*
Y109252D01*
X215335Y103347D02*
Y109252D01*
X216910Y105118D02*
Y107480D01*
X215728Y106299D02*
X218091D01*
X225335Y109252D02*
X228484D01*
X225335Y103347D02*
X228484D01*
Y109252D01*
X225335Y103347D02*
Y109252D01*
X226909Y105118D02*
Y107480D01*
X225728Y106299D02*
X228091D01*
X240551Y18701D02*
X243701D01*
X240551Y12795D02*
X243701D01*
Y18701D01*
X240551Y12795D02*
Y18701D01*
X242126Y14567D02*
Y16929D01*
X240945Y15748D02*
X243307D01*
X242894Y109252D02*
X246043D01*
X242894Y103347D02*
X246043D01*
Y109252D01*
X242894Y103347D02*
Y109252D01*
X244468Y105118D02*
Y107480D01*
X243287Y106299D02*
X245650D01*
X252894Y109252D02*
X256043D01*
X252894Y103347D02*
X256043D01*
Y109252D01*
X252894Y103347D02*
Y109252D01*
X254468Y105118D02*
Y107480D01*
X253287Y106299D02*
X255650D01*
X268110Y18701D02*
X271260D01*
X268110Y12795D02*
X271260D01*
Y18701D01*
X268110Y12795D02*
Y18701D01*
X269685Y14567D02*
Y16929D01*
X268504Y15748D02*
X270866D01*
X270453Y109252D02*
X273602D01*
X270453Y103347D02*
X273602D01*
Y109252D01*
X270453Y103347D02*
Y109252D01*
X272028Y105118D02*
Y107480D01*
X270847Y106299D02*
X273209D01*
X280453Y109252D02*
X283602D01*
X280453Y103347D02*
X283602D01*
Y109252D01*
X280453Y103347D02*
Y109252D01*
X282028Y105118D02*
Y107480D01*
X280847Y106299D02*
X283209D01*
X295669Y18701D02*
X298819D01*
X295669Y12795D02*
X298819D01*
Y18701D01*
X295669Y12795D02*
Y18701D01*
X297244Y14567D02*
Y16929D01*
X296063Y15748D02*
X298425D01*
X298012Y109252D02*
X301161D01*
X298012Y103347D02*
X301161D01*
Y109252D01*
X298012Y103347D02*
Y109252D01*
X299587Y105118D02*
Y107480D01*
X298406Y106299D02*
X300768D01*
X308012Y109252D02*
X311161D01*
X308012Y103347D02*
X311161D01*
Y109252D01*
X308012Y103347D02*
Y109252D01*
X309587Y105118D02*
Y107480D01*
X308405Y106299D02*
X310768D01*
X323228Y18701D02*
X326378D01*
X323228Y12795D02*
X326378D01*
Y18701D01*
X323228Y12795D02*
Y18701D01*
X324803Y14567D02*
Y16929D01*
X323622Y15748D02*
X325984D01*
X325571Y109252D02*
X328720D01*
X325571Y103347D02*
X328720D01*
Y109252D01*
X325571Y103347D02*
Y109252D01*
X327146Y105118D02*
Y107480D01*
X325965Y106299D02*
X328327D01*
X335571Y109252D02*
X338720D01*
X335571Y103347D02*
X338720D01*
Y109252D01*
X335571Y103347D02*
Y109252D01*
X337146Y105118D02*
Y107480D01*
X335965Y106299D02*
X338327D01*
X376378Y18701D02*
X379528D01*
X376378Y12795D02*
X379528D01*
Y18701D01*
X376378Y12795D02*
Y18701D01*
X377953Y14567D02*
Y16929D01*
X376772Y15748D02*
X379134D01*
X378720Y109252D02*
X381870D01*
X378720Y103347D02*
X381870D01*
Y109252D01*
X378720Y103347D02*
Y109252D01*
X380295Y105118D02*
Y107480D01*
X379114Y106299D02*
X381476D01*
X388720Y109252D02*
X391870D01*
X388720Y103347D02*
X391870D01*
Y109252D01*
X388720Y103347D02*
Y109252D01*
X390295Y105118D02*
Y107480D01*
X389114Y106299D02*
X391476D01*
X403937Y18701D02*
X407087D01*
X403937Y12795D02*
X407087D01*
Y18701D01*
X403937Y12795D02*
Y18701D01*
X405512Y14567D02*
Y16929D01*
X404331Y15748D02*
X406693D01*
X406280Y109252D02*
X409429D01*
X406280Y103347D02*
X409429D01*
Y109252D01*
X406280Y103347D02*
Y109252D01*
X407854Y105118D02*
Y107480D01*
X406673Y106299D02*
X409035D01*
X416280Y109252D02*
X419429D01*
X416280Y103347D02*
X419429D01*
Y109252D01*
X416280Y103347D02*
Y109252D01*
X417854Y105118D02*
Y107480D01*
X416673Y106299D02*
X419035D01*
X431496Y18701D02*
X434646D01*
X431496Y12795D02*
X434646D01*
Y18701D01*
X431496Y12795D02*
Y18701D01*
X433071Y14567D02*
Y16929D01*
X431890Y15748D02*
X434252D01*
X433839Y109252D02*
X436988D01*
X433839Y103347D02*
X436988D01*
Y109252D01*
X433839Y103347D02*
Y109252D01*
X435413Y105118D02*
Y107480D01*
X434232Y106299D02*
X436594D01*
X443839Y109252D02*
X446988D01*
X443839Y103347D02*
X446988D01*
Y109252D01*
X443839Y103347D02*
Y109252D01*
X445413Y105118D02*
Y107480D01*
X444232Y106299D02*
X446594D01*
X459055Y18701D02*
X462205D01*
X459055Y12795D02*
X462205D01*
Y18701D01*
X459055Y12795D02*
Y18701D01*
X460630Y14567D02*
Y16929D01*
X459449Y15748D02*
X461811D01*
X461398Y109252D02*
X464547D01*
X461398Y103347D02*
X464547D01*
Y109252D01*
X461398Y103347D02*
Y109252D01*
X462972Y105118D02*
Y107480D01*
X461791Y106299D02*
X464153D01*
X471398Y109252D02*
X474547D01*
X471398Y103347D02*
X474547D01*
Y109252D01*
X471398Y103347D02*
Y109252D01*
X472972Y105118D02*
Y107480D01*
X471791Y106299D02*
X474154D01*
X486614Y18701D02*
X489764D01*
X486614Y12795D02*
X489764D01*
Y18701D01*
X486614Y12795D02*
Y18701D01*
X488189Y14567D02*
Y16929D01*
X487008Y15748D02*
X489370D01*
X488957Y109252D02*
X492106D01*
X488957Y103347D02*
X492106D01*
Y109252D01*
X488957Y103347D02*
Y109252D01*
X490531Y105118D02*
Y107480D01*
X489350Y106299D02*
X491713D01*
X498957Y109252D02*
X502106D01*
X498957Y103347D02*
X502106D01*
Y109252D01*
X498957Y103347D02*
Y109252D01*
X500531Y105118D02*
Y107480D01*
X499350Y106299D02*
X501713D01*
X514173Y18701D02*
X517323D01*
X514173Y12795D02*
X517323D01*
Y18701D01*
X514173Y12795D02*
Y18701D01*
X515748Y14567D02*
Y16929D01*
X514567Y15748D02*
X516929D01*
X516516Y109252D02*
X519665D01*
X516516Y103347D02*
X519665D01*
Y109252D01*
X516516Y103347D02*
Y109252D01*
X518091Y105118D02*
Y107480D01*
X516910Y106299D02*
X519272D01*
X526516Y109252D02*
X529665D01*
X526516Y103347D02*
X529665D01*
Y109252D01*
X526516Y103347D02*
Y109252D01*
X528091Y105118D02*
Y107480D01*
X526909Y106299D02*
X529272D01*
X541732Y18701D02*
X544882D01*
X541732Y12795D02*
X544882D01*
Y18701D01*
X541732Y12795D02*
Y18701D01*
X543307Y14567D02*
Y16929D01*
X542126Y15748D02*
X544488D01*
X544075Y109252D02*
X547224D01*
X544075Y103347D02*
X547224D01*
Y109252D01*
X544075Y103347D02*
Y109252D01*
X545650Y105118D02*
Y107480D01*
X544468Y106299D02*
X546831D01*
X554075Y109252D02*
X557224D01*
X554075Y103347D02*
X557224D01*
Y109252D01*
X554075Y103347D02*
Y109252D01*
X555650Y105118D02*
Y107480D01*
X554468Y106299D02*
X556831D01*
X569291Y18701D02*
X572441D01*
X569291Y12795D02*
X572441D01*
Y18701D01*
X569291Y12795D02*
Y18701D01*
X570866Y14567D02*
Y16929D01*
X569685Y15748D02*
X572047D01*
X571634Y109252D02*
X574784D01*
X571634Y103347D02*
X574784D01*
Y109252D01*
X571634Y103347D02*
Y109252D01*
X573209Y105118D02*
Y107480D01*
X572028Y106299D02*
X574390D01*
X581634Y109252D02*
X584784D01*
X581634Y103347D02*
X584784D01*
Y109252D01*
X581634Y103347D02*
Y109252D01*
X583209Y105118D02*
Y107480D01*
X582028Y106299D02*
X584390D01*
X385138Y258689D02*
X387500D01*
X386319Y257508D02*
Y259870D01*
X384744Y255736D02*
Y261642D01*
X387894Y255736D02*
Y261642D01*
X384744Y255736D02*
X387894D01*
X384744Y261642D02*
X387894D01*
X380217Y258689D02*
X382579D01*
X381398Y257508D02*
Y259870D01*
X379823Y255736D02*
Y261642D01*
X382972Y255736D02*
Y261642D01*
X379823Y255736D02*
X382972D01*
X379823Y261642D02*
X382972D01*
X399902Y258689D02*
X402264D01*
X401083Y257508D02*
Y259870D01*
X402658Y255736D02*
Y261642D01*
X399508Y255736D02*
Y261642D01*
X402658D01*
X399508Y255736D02*
X402658D01*
X428445Y258689D02*
X430807D01*
X429626Y257508D02*
Y259870D01*
X428051Y255736D02*
Y261642D01*
X431201Y255736D02*
Y261642D01*
X428051Y255736D02*
X431201D01*
X428051Y261642D02*
X431201D01*
X443209Y258689D02*
X445571D01*
X444390Y257508D02*
Y259870D01*
X442815Y255736D02*
Y261642D01*
X445965Y255736D02*
Y261642D01*
X442815Y255736D02*
X445965D01*
X442815Y261642D02*
X445965D01*
X486122Y252736D02*
X489272D01*
X486122Y258642D02*
X489272D01*
X486122Y252736D02*
Y258642D01*
X489272Y252736D02*
Y258642D01*
X487697Y254508D02*
Y256870D01*
X486516Y255689D02*
X488878D01*
X549415Y133858D02*
X551777D01*
X550596Y132677D02*
Y135039D01*
X549021Y130905D02*
Y136811D01*
X552171Y130905D02*
Y136811D01*
X549021Y130905D02*
X552171D01*
X549021Y136811D02*
X552171D01*
X544095Y133858D02*
X546457D01*
X545276Y132677D02*
Y135039D01*
X546850Y130905D02*
Y136811D01*
X543701Y130905D02*
Y136811D01*
X546850D01*
X543701Y130905D02*
X546850D01*
X549415Y173228D02*
X551777D01*
X550596Y172047D02*
Y174409D01*
X549021Y170276D02*
Y176181D01*
X552171Y170276D02*
Y176181D01*
X549021Y170276D02*
X552171D01*
X549021Y176181D02*
X552171D01*
X559915Y133858D02*
X562277D01*
X561096Y132677D02*
Y135039D01*
X559521Y130905D02*
Y136811D01*
X562671Y130905D02*
Y136811D01*
X559521Y130905D02*
X562671D01*
X559521Y136811D02*
X562671D01*
X618110Y105118D02*
Y107480D01*
X616929Y106299D02*
X619291D01*
X615158Y104724D02*
X621063D01*
X615158Y107874D02*
X621063D01*
Y104724D02*
Y107874D01*
X615158Y104724D02*
Y107874D01*
X618110Y109055D02*
Y111417D01*
X616929Y110236D02*
X619291D01*
X615158Y108661D02*
X621063D01*
X615158Y111811D02*
X621063D01*
Y108661D02*
Y111811D01*
X615158Y108661D02*
Y111811D01*
X649606Y109055D02*
Y111417D01*
X648425Y110236D02*
X650787D01*
X646654Y111811D02*
X652559D01*
X646654Y108661D02*
X652559D01*
X646654D02*
Y111811D01*
X652559Y108661D02*
Y111811D01*
X612992Y216535D02*
X615354D01*
X614173Y215354D02*
Y217717D01*
X615748Y213583D02*
Y219488D01*
X612598Y213583D02*
Y219488D01*
X615748D01*
X612598Y213583D02*
X615748D01*
X616142Y192913D02*
X618504D01*
X617323Y191732D02*
Y194095D01*
X615748Y189961D02*
Y195866D01*
X618898Y189961D02*
Y195866D01*
X615748Y189961D02*
X618898D01*
X615748Y195866D02*
X618898D01*
X612992Y192913D02*
X615354D01*
X614173Y191732D02*
Y194095D01*
X612598Y189961D02*
Y195866D01*
X615748Y189961D02*
Y195866D01*
X612598Y189961D02*
X615748D01*
X612598Y195866D02*
X615748D01*
X630709Y140484D02*
X633071D01*
X631890Y139303D02*
Y141665D01*
X630315Y137531D02*
Y143437D01*
X633465Y137531D02*
Y143437D01*
X630315Y137531D02*
X633465D01*
X630315Y143437D02*
X633465D01*
X634646Y140484D02*
X637008D01*
X635827Y139303D02*
Y141665D01*
X634252Y137531D02*
Y143437D01*
X637402Y137531D02*
Y143437D01*
X634252Y137531D02*
X637402D01*
X634252Y143437D02*
X637402D01*
X649606Y149409D02*
Y151772D01*
X648425Y150591D02*
X650787D01*
X646654Y149016D02*
X652559D01*
X646654Y152165D02*
X652559D01*
Y149016D02*
Y152165D01*
X646654Y149016D02*
Y152165D01*
X508268Y200787D02*
X510630D01*
X509449Y199606D02*
Y201969D01*
X507874Y197835D02*
Y203740D01*
X511024Y197835D02*
Y203740D01*
X507874Y197835D02*
X511024D01*
X507874Y203740D02*
X511024D01*
X551968Y200787D02*
X554331D01*
X553150Y199606D02*
Y201969D01*
X554724Y197835D02*
Y203740D01*
X551575Y197835D02*
Y203740D01*
X554724D01*
X551575Y197835D02*
X554724D01*
X538189Y200787D02*
X540551D01*
X539370Y199606D02*
Y201969D01*
X540945Y197835D02*
Y203740D01*
X537795Y197835D02*
Y203740D01*
X540945D01*
X537795Y197835D02*
X540945D01*
X508268Y225118D02*
X510630D01*
X509449Y223937D02*
Y226299D01*
X511024Y222165D02*
Y228071D01*
X507874Y222165D02*
Y228071D01*
X511024D01*
X507874Y222165D02*
X511024D01*
X508268Y215827D02*
X510630D01*
X509449Y214646D02*
Y217008D01*
X507874Y212874D02*
Y218779D01*
X511024Y212874D02*
Y218779D01*
X507874Y212874D02*
X511024D01*
X507874Y218779D02*
X511024D01*
X508268Y242835D02*
X510630D01*
X509449Y241653D02*
Y244016D01*
X511024Y239882D02*
Y245787D01*
X507874Y239882D02*
Y245787D01*
X511024D01*
X507874Y239882D02*
X511024D01*
X504331Y242835D02*
X506693D01*
X505512Y241653D02*
Y244016D01*
X503937Y239882D02*
Y245787D01*
X507087Y239882D02*
Y245787D01*
X503937Y239882D02*
X507087D01*
X503937Y245787D02*
X507087D01*
X512205Y225118D02*
X514567D01*
X513386Y223937D02*
Y226299D01*
X511811Y222165D02*
Y228071D01*
X514961Y222165D02*
Y228071D01*
X511811Y222165D02*
X514961D01*
X511811Y228071D02*
X514961D01*
X512205Y215827D02*
X514567D01*
X513386Y214646D02*
Y217008D01*
X514961Y212874D02*
Y218779D01*
X511811Y212874D02*
Y218779D01*
X514961D01*
X511811Y212874D02*
X514961D01*
M02*
