%TF.GenerationSoftware,Altium Limited,Altium Designer,20.0.13 (296)*%
G04 Layer_Color=128*
%FSLAX26Y26*%
%MOIN*%
%TF.FileFunction,Paste,Bot*%
%TF.Part,Single*%
G01*
G75*
%TA.AperFunction,SMDPad,CuDef*%
%ADD11R,0.031496X0.019685*%
%ADD17R,0.018504X0.020472*%
%ADD23R,0.020472X0.018504*%
%ADD30R,0.015748X0.015748*%
%ADD31R,0.015748X0.015748*%
%ADD32R,0.019685X0.031496*%
%ADD40R,0.039370X0.017716*%
%ADD41R,0.019685X0.051181*%
%ADD42R,0.051181X0.019685*%
%ADD43R,0.039370X0.011811*%
%ADD44R,0.011811X0.039370*%
%ADD45C,0.039370*%
%ADD46R,0.061024X0.023622*%
%ADD47R,0.109840X0.029130*%
%ADD48R,0.027559X0.019685*%
%ADD49R,0.165354X0.133858*%
%ADD50R,0.023622X0.015748*%
%ADD51R,0.019685X0.023622*%
%ADD52R,0.031496X0.059055*%
%ADD53R,0.057087X0.078740*%
%ADD54R,0.070866X0.055118*%
%TA.AperFunction,NonConductor*%
%ADD55R,0.109840X0.029140*%
D11*
X1698425Y884646D02*
D03*
Y809843D02*
D03*
X1800787D02*
D03*
Y847244D02*
D03*
Y884646D02*
D03*
D17*
X213780Y612402D02*
D03*
X179921D02*
D03*
X1968504Y987992D02*
D03*
X1934646D02*
D03*
X1968504Y1037992D02*
D03*
X1934646D02*
D03*
X1968504Y1137992D02*
D03*
X1934646D02*
D03*
X1968504Y1087992D02*
D03*
X1934646D02*
D03*
X2076378Y452756D02*
D03*
X2110236D02*
D03*
X2139370D02*
D03*
X2173228D02*
D03*
X2170866Y0D02*
D03*
X2204724D02*
D03*
X2089370Y1274213D02*
D03*
X2123228D02*
D03*
X2089370Y1374213D02*
D03*
X2123228D02*
D03*
X1931890Y1274213D02*
D03*
X1965748D02*
D03*
X1931890Y1374213D02*
D03*
X1965748D02*
D03*
X2246850Y1277165D02*
D03*
X2280709D02*
D03*
X2246850Y1377166D02*
D03*
X2280709D02*
D03*
X1299213Y0D02*
D03*
X1265354D02*
D03*
X607480Y112402D02*
D03*
X573622D02*
D03*
X607480Y162402D02*
D03*
X573622D02*
D03*
X607480Y212402D02*
D03*
X573622D02*
D03*
X179921Y62402D02*
D03*
X213780D02*
D03*
X179921Y112402D02*
D03*
X213780D02*
D03*
X179921Y162402D02*
D03*
X213780D02*
D03*
X2969685Y112402D02*
D03*
X2935827D02*
D03*
X2969685Y162402D02*
D03*
X2935827D02*
D03*
X2542126Y62402D02*
D03*
X2575984D02*
D03*
X2542126Y112402D02*
D03*
X2575984D02*
D03*
X2542126Y162402D02*
D03*
X2575984D02*
D03*
X607480Y1462402D02*
D03*
X573622D02*
D03*
X607480Y1512402D02*
D03*
X573622D02*
D03*
X179921Y1412402D02*
D03*
X213780D02*
D03*
X179921Y1462402D02*
D03*
X213780D02*
D03*
X2969685Y1462402D02*
D03*
X2935827D02*
D03*
X2969685Y1512402D02*
D03*
X2935827D02*
D03*
X2542126Y1412402D02*
D03*
X2575984D02*
D03*
X2542126Y1462402D02*
D03*
X2575984D02*
D03*
X1535433Y1152559D02*
D03*
X1501575D02*
D03*
X1968504Y770472D02*
D03*
X1934646D02*
D03*
X1968504Y809842D02*
D03*
X1934646D02*
D03*
X2173228Y805118D02*
D03*
X2139370D02*
D03*
X2173228Y875984D02*
D03*
X2139370D02*
D03*
X1535433Y1374213D02*
D03*
X1501575D02*
D03*
X179921Y662402D02*
D03*
X213780D02*
D03*
X179921Y712402D02*
D03*
X213780D02*
D03*
X179921Y762402D02*
D03*
X213780D02*
D03*
X179921Y812402D02*
D03*
X213780D02*
D03*
X179921Y862402D02*
D03*
X213780D02*
D03*
X179921Y912402D02*
D03*
X213780D02*
D03*
X179921Y962402D02*
D03*
X213780D02*
D03*
X179921Y1012402D02*
D03*
X213780D02*
D03*
X179921Y1062402D02*
D03*
X213780D02*
D03*
X179921Y1112402D02*
D03*
X213780D02*
D03*
X179921Y1162402D02*
D03*
X213780D02*
D03*
X179921Y1212402D02*
D03*
X213780D02*
D03*
X179921Y1262402D02*
D03*
X213780D02*
D03*
X2542126Y262402D02*
D03*
X2575984D02*
D03*
X2542126Y312402D02*
D03*
X2575984D02*
D03*
X2542126Y362402D02*
D03*
X2575984D02*
D03*
X2542126Y412402D02*
D03*
X2575984D02*
D03*
X2542126Y462402D02*
D03*
X2575984D02*
D03*
X2542126Y512402D02*
D03*
X2575984D02*
D03*
X2542126Y562402D02*
D03*
X2575984D02*
D03*
X2542126Y612402D02*
D03*
X2575984D02*
D03*
X2542126Y662402D02*
D03*
X2575984D02*
D03*
X2542126Y712402D02*
D03*
X2575984D02*
D03*
X2542126Y762402D02*
D03*
X2575984D02*
D03*
X2542126Y812402D02*
D03*
X2575984D02*
D03*
X2542126Y862402D02*
D03*
X2575984D02*
D03*
X2542126Y912402D02*
D03*
X2575984D02*
D03*
X2542126Y962402D02*
D03*
X2575984D02*
D03*
X2542126Y1012402D02*
D03*
X2575984D02*
D03*
X2542126Y1062402D02*
D03*
X2575984D02*
D03*
X2542126Y1112402D02*
D03*
X2575984D02*
D03*
X2542126Y1162402D02*
D03*
X2575984D02*
D03*
X2542126Y1212402D02*
D03*
X2575984D02*
D03*
X2542126Y1262402D02*
D03*
X2575984D02*
D03*
X2542126Y1312402D02*
D03*
X2575984D02*
D03*
X2542126Y1362402D02*
D03*
X2575984D02*
D03*
X2969685Y212402D02*
D03*
X2935827D02*
D03*
X2969685Y262402D02*
D03*
X2935827D02*
D03*
X2969685Y312402D02*
D03*
X2935827D02*
D03*
X2969685Y362402D02*
D03*
X2935827D02*
D03*
X2969685Y412402D02*
D03*
X2935827D02*
D03*
X2969685Y462402D02*
D03*
X2935827D02*
D03*
X2969685Y512402D02*
D03*
X2935827D02*
D03*
X2969685Y562402D02*
D03*
X2935827D02*
D03*
X2969685Y812402D02*
D03*
X2935827D02*
D03*
X2969685Y762402D02*
D03*
X2935827D02*
D03*
X2969685Y712402D02*
D03*
X2935827D02*
D03*
X2969685Y662402D02*
D03*
X2935827D02*
D03*
X2969685Y1362402D02*
D03*
X2935827D02*
D03*
X2969685Y1312402D02*
D03*
X2935827D02*
D03*
X2969685Y1262402D02*
D03*
X2935827D02*
D03*
X2969685Y1212402D02*
D03*
X2935827D02*
D03*
X2969685Y1162402D02*
D03*
X2935827D02*
D03*
X2969685Y1112402D02*
D03*
X2935827D02*
D03*
X2969685Y1062402D02*
D03*
X2935827D02*
D03*
X2969685Y1012402D02*
D03*
X2935827D02*
D03*
X607480Y1362401D02*
D03*
X573622D02*
D03*
X607480Y1312401D02*
D03*
X573622D02*
D03*
X607480Y1262401D02*
D03*
X573622D02*
D03*
X607480Y1212401D02*
D03*
X573622D02*
D03*
X607480Y1162401D02*
D03*
X573622D02*
D03*
X607480Y1112401D02*
D03*
X573622D02*
D03*
X607480Y1062402D02*
D03*
X573622D02*
D03*
X607480Y1012402D02*
D03*
X573622D02*
D03*
X607480Y312402D02*
D03*
X573622D02*
D03*
X607480Y262402D02*
D03*
X573622D02*
D03*
X607480Y412402D02*
D03*
X573622D02*
D03*
X607480Y362402D02*
D03*
X573622D02*
D03*
X607480Y512402D02*
D03*
X573622D02*
D03*
X607480Y462402D02*
D03*
X573622D02*
D03*
X607480Y612402D02*
D03*
X573622D02*
D03*
X607480Y562402D02*
D03*
X573622D02*
D03*
X607480Y712402D02*
D03*
X573622D02*
D03*
X607480Y662402D02*
D03*
X573622D02*
D03*
X607480Y812402D02*
D03*
X573622D02*
D03*
X607480Y762402D02*
D03*
X573622D02*
D03*
X607480Y862402D02*
D03*
X573622D02*
D03*
X607480Y912402D02*
D03*
X573622D02*
D03*
X607480Y962402D02*
D03*
X573622D02*
D03*
X179921Y1312402D02*
D03*
X213780D02*
D03*
X179921Y1362402D02*
D03*
X213780D02*
D03*
X2969685Y612402D02*
D03*
X2935827D02*
D03*
X2969685Y862402D02*
D03*
X2935827D02*
D03*
X2969685Y912402D02*
D03*
X2935827D02*
D03*
X2969685Y962402D02*
D03*
X2935827D02*
D03*
X1782677Y1552067D02*
D03*
X1816535D02*
D03*
X1782677Y1512402D02*
D03*
X1816535D02*
D03*
X2123228Y1224213D02*
D03*
X2089370D02*
D03*
X1782677Y1591732D02*
D03*
X1816535D02*
D03*
X1965748Y1224213D02*
D03*
X1931890D02*
D03*
X2280709Y1227165D02*
D03*
X2246850D02*
D03*
X1535433Y1073819D02*
D03*
X1501575D02*
D03*
X1535433Y1113189D02*
D03*
X1501575D02*
D03*
X2173228Y769685D02*
D03*
X2139370D02*
D03*
X2173228Y734252D02*
D03*
X2139370D02*
D03*
X2173228Y840551D02*
D03*
X2139370D02*
D03*
X2173228Y911417D02*
D03*
X2139370D02*
D03*
X1884252Y884646D02*
D03*
X1850394D02*
D03*
X1884252Y809843D02*
D03*
X1850394D02*
D03*
X1501575Y1274213D02*
D03*
X1535433D02*
D03*
X1501575Y1224213D02*
D03*
X1535433D02*
D03*
X213780Y262402D02*
D03*
X179921D02*
D03*
X213780Y312402D02*
D03*
X179921D02*
D03*
X213780Y362402D02*
D03*
X179921D02*
D03*
X213780Y412402D02*
D03*
X179921D02*
D03*
X213780Y462402D02*
D03*
X179921D02*
D03*
X213780Y512402D02*
D03*
X179921D02*
D03*
X213780Y562402D02*
D03*
X179921D02*
D03*
D23*
X2283465Y1037992D02*
D03*
Y1071850D02*
D03*
X1692913Y692716D02*
D03*
Y658858D02*
D03*
X1850394D02*
D03*
Y692716D02*
D03*
X1535433Y724606D02*
D03*
Y758465D02*
D03*
X1616142Y843701D02*
D03*
Y809843D02*
D03*
X1535433Y1554134D02*
D03*
Y1587992D02*
D03*
X1968504Y620866D02*
D03*
Y654724D02*
D03*
X2283465Y526378D02*
D03*
Y560236D02*
D03*
X1889764Y208268D02*
D03*
Y242126D02*
D03*
X1145473Y1591732D02*
D03*
Y1557874D02*
D03*
X1535433Y601378D02*
D03*
Y567520D02*
D03*
X1850394D02*
D03*
Y601378D02*
D03*
Y112795D02*
D03*
Y146654D02*
D03*
X1535433Y112795D02*
D03*
Y146654D02*
D03*
Y351378D02*
D03*
Y317520D02*
D03*
X1003937Y742520D02*
D03*
Y708661D02*
D03*
X787402Y329134D02*
D03*
Y295276D02*
D03*
X1377953Y757087D02*
D03*
Y723228D02*
D03*
X1062992Y851575D02*
D03*
Y817717D02*
D03*
X1496063Y393701D02*
D03*
Y427559D02*
D03*
X925197Y708661D02*
D03*
Y742520D02*
D03*
X1653543Y843701D02*
D03*
Y809843D02*
D03*
X1850394Y758465D02*
D03*
Y724606D02*
D03*
X1535433Y692716D02*
D03*
Y658858D02*
D03*
X1535433Y843701D02*
D03*
Y809843D02*
D03*
X1578740Y843701D02*
D03*
Y809843D02*
D03*
X1850394Y242126D02*
D03*
Y208268D02*
D03*
X1102165Y1557874D02*
D03*
Y1591732D02*
D03*
X1275394Y1557874D02*
D03*
Y1591732D02*
D03*
X1188779Y1557874D02*
D03*
Y1591732D02*
D03*
X1058858Y1557874D02*
D03*
Y1591732D02*
D03*
X1889764Y567520D02*
D03*
Y601378D02*
D03*
X1496063Y317520D02*
D03*
Y351378D02*
D03*
X964567Y742520D02*
D03*
Y708661D02*
D03*
D30*
X2047244Y875984D02*
D03*
X2017717D02*
D03*
X2121063Y1306496D02*
D03*
X2091535D02*
D03*
X1963583D02*
D03*
X1934055D02*
D03*
X2278543Y1309449D02*
D03*
X2249016D02*
D03*
D31*
X2032480Y911417D02*
D03*
X2106299Y1341929D02*
D03*
X1948819D02*
D03*
X2263780Y1344882D02*
D03*
D32*
X1769685Y751968D02*
D03*
X1807087D02*
D03*
X1732283D02*
D03*
Y665354D02*
D03*
X1769685D02*
D03*
X1807087D02*
D03*
X1632716Y1518504D02*
D03*
Y1581496D02*
D03*
X1597284D02*
D03*
Y1518504D02*
D03*
X1616142Y751968D02*
D03*
X1653543D02*
D03*
X1578740D02*
D03*
Y665354D02*
D03*
X1616142D02*
D03*
X1653543D02*
D03*
D40*
X1807087Y223425D02*
D03*
Y197835D02*
D03*
Y172244D02*
D03*
Y249016D02*
D03*
Y274606D02*
D03*
Y300197D02*
D03*
Y325787D02*
D03*
Y146654D02*
D03*
X1578740Y223425D02*
D03*
Y197835D02*
D03*
Y172244D02*
D03*
Y249016D02*
D03*
Y274606D02*
D03*
Y300197D02*
D03*
Y325787D02*
D03*
Y146654D02*
D03*
Y121063D02*
D03*
X1807087D02*
D03*
X1578740Y351378D02*
D03*
X1807087D02*
D03*
X1578740Y1075787D02*
D03*
Y1101378D02*
D03*
Y1126968D02*
D03*
Y1050197D02*
D03*
Y1024606D02*
D03*
Y999016D02*
D03*
Y973425D02*
D03*
Y1152559D02*
D03*
X1807087Y1075787D02*
D03*
Y1101378D02*
D03*
Y1126968D02*
D03*
Y1050197D02*
D03*
Y1024606D02*
D03*
Y999016D02*
D03*
Y973425D02*
D03*
Y1152559D02*
D03*
Y601378D02*
D03*
Y422244D02*
D03*
Y447835D02*
D03*
Y473425D02*
D03*
Y499016D02*
D03*
Y575787D02*
D03*
Y550197D02*
D03*
Y524606D02*
D03*
X1578740Y601378D02*
D03*
Y422244D02*
D03*
Y447835D02*
D03*
Y473425D02*
D03*
Y499016D02*
D03*
Y575787D02*
D03*
Y550197D02*
D03*
Y524606D02*
D03*
D41*
X2015748Y393701D02*
D03*
X2047244D02*
D03*
X2078740D02*
D03*
X2110236D02*
D03*
X2141732D02*
D03*
X2173228D02*
D03*
X2204724D02*
D03*
X2236220D02*
D03*
Y59055D02*
D03*
X2204724D02*
D03*
X2173228D02*
D03*
X2141732D02*
D03*
X2110236D02*
D03*
X2078740D02*
D03*
X2047244D02*
D03*
X2015748D02*
D03*
D42*
X2293307Y336614D02*
D03*
Y305118D02*
D03*
Y273622D02*
D03*
Y242126D02*
D03*
Y210630D02*
D03*
Y179134D02*
D03*
Y147638D02*
D03*
Y116142D02*
D03*
X1958661D02*
D03*
Y147638D02*
D03*
Y179134D02*
D03*
Y210630D02*
D03*
Y242126D02*
D03*
Y273622D02*
D03*
Y305118D02*
D03*
Y336614D02*
D03*
D43*
X840551Y118110D02*
D03*
Y137795D02*
D03*
Y157480D02*
D03*
Y177165D02*
D03*
Y196850D02*
D03*
Y216535D02*
D03*
Y236220D02*
D03*
Y255905D02*
D03*
Y275591D02*
D03*
Y295276D02*
D03*
Y314961D02*
D03*
Y334646D02*
D03*
Y354331D02*
D03*
Y374016D02*
D03*
Y393701D02*
D03*
Y413386D02*
D03*
Y433071D02*
D03*
Y452756D02*
D03*
Y472441D02*
D03*
Y492126D02*
D03*
Y511811D02*
D03*
Y531496D02*
D03*
Y551181D02*
D03*
Y570866D02*
D03*
Y590551D02*
D03*
X1442913D02*
D03*
Y570866D02*
D03*
Y551181D02*
D03*
Y531496D02*
D03*
Y511811D02*
D03*
Y492126D02*
D03*
Y472441D02*
D03*
Y452756D02*
D03*
Y433071D02*
D03*
Y413386D02*
D03*
Y393701D02*
D03*
Y374016D02*
D03*
Y354331D02*
D03*
Y334646D02*
D03*
Y314961D02*
D03*
Y295276D02*
D03*
Y275591D02*
D03*
Y255905D02*
D03*
Y236220D02*
D03*
Y216535D02*
D03*
Y196850D02*
D03*
Y177165D02*
D03*
Y157480D02*
D03*
Y137795D02*
D03*
Y118110D02*
D03*
D44*
X905512Y655512D02*
D03*
X925197D02*
D03*
X944882D02*
D03*
X964567D02*
D03*
X984252D02*
D03*
X1003937D02*
D03*
X1023622D02*
D03*
X1043307D02*
D03*
X1062992D02*
D03*
X1082677D02*
D03*
X1102362D02*
D03*
X1122047D02*
D03*
X1141732D02*
D03*
X1161417D02*
D03*
X1181102D02*
D03*
X1200787D02*
D03*
X1220473D02*
D03*
X1240158D02*
D03*
X1259842D02*
D03*
X1279528D02*
D03*
X1299213D02*
D03*
X1318898D02*
D03*
X1338583D02*
D03*
X1358268D02*
D03*
X1377953D02*
D03*
Y53150D02*
D03*
X1358268D02*
D03*
X1338583D02*
D03*
X1318898D02*
D03*
X1299213D02*
D03*
X1279528D02*
D03*
X1259842D02*
D03*
X1240158D02*
D03*
X1220473D02*
D03*
X1200787D02*
D03*
X1181102D02*
D03*
X1161417D02*
D03*
X1141732D02*
D03*
X1122047D02*
D03*
X1102362D02*
D03*
X1082677D02*
D03*
X1062992D02*
D03*
X1043307D02*
D03*
X1023622D02*
D03*
X1003937D02*
D03*
X984252D02*
D03*
X964567D02*
D03*
X944882D02*
D03*
X925197D02*
D03*
X905512D02*
D03*
D45*
X1535433Y39370D02*
D03*
X1771653D02*
D03*
X1850394D02*
D03*
X1692913D02*
D03*
X1614173D02*
D03*
D46*
X1799213Y1374213D02*
D03*
Y1324213D02*
D03*
Y1274213D02*
D03*
Y1224213D02*
D03*
X1586614D02*
D03*
Y1274213D02*
D03*
Y1324213D02*
D03*
Y1374213D02*
D03*
D47*
X2835905Y1512402D02*
D03*
X2675905D02*
D03*
X2835905Y1462402D02*
D03*
X2675905D02*
D03*
X2835905Y1412402D02*
D03*
X2675905D02*
D03*
X2835905Y1362402D02*
D03*
X2675905D02*
D03*
X2835905Y1312402D02*
D03*
X2675905D02*
D03*
X2835905Y1262402D02*
D03*
X2675905D02*
D03*
X2835905Y1212402D02*
D03*
X2675905D02*
D03*
X2835905Y1162402D02*
D03*
X2675905D02*
D03*
X2835905Y1112402D02*
D03*
X2675905D02*
D03*
X2835905Y1062402D02*
D03*
X2675905D02*
D03*
X2835905Y1012402D02*
D03*
X2675905D02*
D03*
X2835905Y962402D02*
D03*
X2675905D02*
D03*
X2835905Y912402D02*
D03*
X2675905D02*
D03*
X2835905Y862402D02*
D03*
X2675905D02*
D03*
X2835905Y812402D02*
D03*
X2675905D02*
D03*
X2835905Y762402D02*
D03*
X2675905D02*
D03*
X2835905Y712402D02*
D03*
X2675905D02*
D03*
X2835905Y662402D02*
D03*
X2675905D02*
D03*
X2835905Y612402D02*
D03*
X2675905D02*
D03*
X2835905Y562402D02*
D03*
X2675905D02*
D03*
X2835905Y512402D02*
D03*
X2675905D02*
D03*
X2835905Y462402D02*
D03*
X2675905D02*
D03*
X2835905Y412402D02*
D03*
X2675905D02*
D03*
X2835905Y362402D02*
D03*
X2675905D02*
D03*
X2835905Y312402D02*
D03*
X2675905D02*
D03*
X2835905Y262402D02*
D03*
X2675905D02*
D03*
X2835905Y212402D02*
D03*
X2675905D02*
D03*
X2835905Y162402D02*
D03*
X2675905D02*
D03*
X2835905Y112402D02*
D03*
X2675905D02*
D03*
X2835905Y62402D02*
D03*
X2675905D02*
D03*
X473701Y1512402D02*
D03*
X313701D02*
D03*
X473701Y1462402D02*
D03*
X313701D02*
D03*
X473701Y1412402D02*
D03*
X313701D02*
D03*
X473701Y1362402D02*
D03*
X313701D02*
D03*
X473701Y1312402D02*
D03*
X313701D02*
D03*
X473701Y1262402D02*
D03*
X313701D02*
D03*
X473701Y1212402D02*
D03*
X313701D02*
D03*
X473701Y1162402D02*
D03*
X313701D02*
D03*
X473701Y1112402D02*
D03*
X313701D02*
D03*
X473701Y1062402D02*
D03*
X313701D02*
D03*
X473701Y1012402D02*
D03*
X313701D02*
D03*
X473701Y962402D02*
D03*
X313701D02*
D03*
X473701Y912402D02*
D03*
X313701D02*
D03*
X473701Y862402D02*
D03*
X313701D02*
D03*
X473701Y812402D02*
D03*
X313701D02*
D03*
X473701Y762402D02*
D03*
X313701D02*
D03*
X473701Y712402D02*
D03*
X313701D02*
D03*
X473701Y662402D02*
D03*
X313701D02*
D03*
X473701Y612402D02*
D03*
X313701D02*
D03*
X473701Y562402D02*
D03*
X313701D02*
D03*
X473701Y512402D02*
D03*
X313701D02*
D03*
X473701Y462402D02*
D03*
X313701D02*
D03*
X473701Y412402D02*
D03*
X313701D02*
D03*
X473701Y362402D02*
D03*
X313701D02*
D03*
X473701Y312402D02*
D03*
X313701D02*
D03*
X473701Y262402D02*
D03*
X313701D02*
D03*
X473701Y212402D02*
D03*
X313701D02*
D03*
X473701Y162402D02*
D03*
X313701D02*
D03*
X473701Y112402D02*
D03*
X313701D02*
D03*
X473701Y62402D02*
D03*
X313701D02*
D03*
D48*
X2070866Y840551D02*
D03*
Y805118D02*
D03*
Y769685D02*
D03*
Y734252D02*
D03*
X2023622D02*
D03*
Y769685D02*
D03*
Y805118D02*
D03*
Y840551D02*
D03*
D49*
X2125984Y1062992D02*
D03*
D50*
X2019685Y987992D02*
D03*
Y1037992D02*
D03*
Y1087992D02*
D03*
Y1137992D02*
D03*
X2232284D02*
D03*
Y1087992D02*
D03*
Y1037992D02*
D03*
Y987992D02*
D03*
D51*
X1934646Y884646D02*
D03*
X1970079D02*
D03*
D52*
X1145473Y1122047D02*
D03*
X1188780D02*
D03*
X1102165D02*
D03*
X1058858D02*
D03*
X1015551D02*
D03*
X1232087D02*
D03*
X1275394D02*
D03*
X1318701D02*
D03*
D53*
X871063Y1346457D02*
D03*
X1412402D02*
D03*
Y1019685D02*
D03*
X871063D02*
D03*
D54*
X1133858Y740158D02*
D03*
X1307087D02*
D03*
Y834646D02*
D03*
X1133858D02*
D03*
X2212599Y543307D02*
D03*
X2039370D02*
D03*
Y637795D02*
D03*
X2212599D02*
D03*
D55*
X2835900Y1512398D02*
D03*
X2675911Y1512398D02*
D03*
X2835900Y1462398D02*
D03*
X2675911Y1462398D02*
D03*
X2835900Y1412398D02*
D03*
X2675911Y1412398D02*
D03*
X2835900Y1362398D02*
D03*
X2675911Y1362398D02*
D03*
X2835900Y1312398D02*
D03*
X2675911Y1312398D02*
D03*
X2835900Y1262398D02*
D03*
X2675911Y1262398D02*
D03*
X2835900Y1212398D02*
D03*
X2675911Y1212398D02*
D03*
X2835900Y1162398D02*
D03*
X2675911Y1162398D02*
D03*
X2835900Y1112398D02*
D03*
X2675911Y1112398D02*
D03*
X2835900Y1062398D02*
D03*
X2675911Y1062398D02*
D03*
X2835900Y1012398D02*
D03*
X2675911Y1012398D02*
D03*
X2835900Y962398D02*
D03*
X2675911Y962398D02*
D03*
X2835900Y912398D02*
D03*
X2675911Y912398D02*
D03*
X2835900Y862398D02*
D03*
X2675911Y862398D02*
D03*
X2835896Y812408D02*
D03*
X2675913Y812406D02*
D03*
X2835897Y762426D02*
D03*
X2675914Y762425D02*
D03*
X2835900Y712410D02*
D03*
X2675911Y712409D02*
D03*
X2835900Y662410D02*
D03*
X2675911Y662409D02*
D03*
X2835900Y612410D02*
D03*
X2675911Y612409D02*
D03*
X2835900Y562410D02*
D03*
X2675911Y562409D02*
D03*
X2835900Y512410D02*
D03*
X2675911Y512409D02*
D03*
X2835900Y462410D02*
D03*
X2675911Y462409D02*
D03*
X2835900Y412410D02*
D03*
X2675911Y412409D02*
D03*
X2835900Y362410D02*
D03*
X2675911Y362409D02*
D03*
X2835900Y312410D02*
D03*
X2675911Y312409D02*
D03*
X2835900Y262410D02*
D03*
X2675911Y262409D02*
D03*
X2835900Y212410D02*
D03*
X2675911Y212409D02*
D03*
X2835900Y162410D02*
D03*
X2675911Y162409D02*
D03*
X2835900Y112410D02*
D03*
X2675911Y112409D02*
D03*
X2835900Y62410D02*
D03*
X2675911Y62409D02*
D03*
X473701Y1512402D02*
D03*
X313701D02*
D03*
X473701Y1462402D02*
D03*
X313701D02*
D03*
X473701Y1412402D02*
D03*
X313701D02*
D03*
X473701Y1362402D02*
D03*
X313701D02*
D03*
X473701Y1312402D02*
D03*
X313701D02*
D03*
X473701Y1262402D02*
D03*
X313701D02*
D03*
X473701Y1212402D02*
D03*
X313701D02*
D03*
X473701Y1162402D02*
D03*
X313701D02*
D03*
X473701Y1112402D02*
D03*
X313701D02*
D03*
X473701Y1062402D02*
D03*
X313701D02*
D03*
X473701Y1012402D02*
D03*
X313701D02*
D03*
X473701Y962402D02*
D03*
X313701D02*
D03*
X473701Y912402D02*
D03*
X313701D02*
D03*
X473701Y862402D02*
D03*
X313701D02*
D03*
X473701Y812402D02*
D03*
X313701D02*
D03*
X473701Y762402D02*
D03*
X313701D02*
D03*
X473701Y712402D02*
D03*
X313701D02*
D03*
X473701Y662402D02*
D03*
X313701D02*
D03*
X473701Y612402D02*
D03*
X313701D02*
D03*
X473701Y562402D02*
D03*
X313701D02*
D03*
X473701Y512402D02*
D03*
X313701D02*
D03*
X473701Y462402D02*
D03*
X313701D02*
D03*
X473701Y412402D02*
D03*
X313701D02*
D03*
X473701Y362402D02*
D03*
X313701D02*
D03*
X473701Y312402D02*
D03*
X313701D02*
D03*
X473701Y262402D02*
D03*
X313701D02*
D03*
X473701Y212402D02*
D03*
X313701D02*
D03*
X473701Y162402D02*
D03*
X313701D02*
D03*
X473701Y112402D02*
D03*
X313701D02*
D03*
X473701Y62402D02*
D03*
X313701D02*
D03*
%TF.MD5,57bf19a0a81c48c0dff0219e55015b3b*%
M02*
