%TF.GenerationSoftware,Altium Limited,Altium Designer,20.0.13 (296)*%
G04 Layer_Color=32768*
%FSLAX26Y26*%
%MOIN*%
%TF.FileFunction,Other,Mechanical_15*%
%TF.Part,Single*%
G01*
G75*
%TA.AperFunction,NonConductor*%
%ADD59C,0.003937*%
%ADD62C,0.001968*%
%ADD63C,0.000787*%
D59*
X2696850Y29527D02*
X2893701D01*
X2696850D02*
Y206693D01*
X2893701D01*
Y29527D02*
Y206693D01*
X1098472Y712402D02*
Y862402D01*
X1343472D01*
Y712402D02*
Y862402D01*
X1098472Y712402D02*
X1343472D01*
X1751968Y29527D02*
X1948819D01*
X1751968D02*
Y206693D01*
X1948819D01*
Y29527D02*
Y206693D01*
X2224409Y29527D02*
X2421260D01*
X2224409D02*
Y206693D01*
X2421260D01*
Y29527D02*
Y206693D01*
X2002984Y665551D02*
X2247984D01*
X2002984Y515551D02*
Y665551D01*
Y515551D02*
X2247984D01*
Y665551D01*
D62*
X1466323Y774087D02*
Y840087D01*
X1368323D02*
X1466323D01*
X1368323Y774087D02*
Y840087D01*
Y774087D02*
X1466323D01*
X605181Y332701D02*
Y454701D01*
X497181Y332701D02*
X605181D01*
X497181Y454701D02*
X605181D01*
X497181Y332701D02*
Y454701D01*
X1557913Y103221D02*
Y370221D01*
X1826913D01*
Y103221D02*
Y370221D01*
X1557913Y103221D02*
X1826913D01*
X1827913Y963992D02*
Y1161992D01*
X1558913Y963992D02*
X1827913D01*
X1558913D02*
Y1161992D01*
X1827913D01*
X1919291Y19685D02*
Y433071D01*
Y19685D02*
X2332677D01*
Y433071D01*
X1919291D02*
X2332677D01*
X1709685Y772661D02*
X1829685D01*
X1709685Y644661D02*
Y772661D01*
Y644661D02*
X1829685D01*
Y772661D01*
X1679606Y787244D02*
Y907244D01*
Y787244D02*
X1819606D01*
Y907244D01*
X1679606D02*
X1819606D01*
X2057480Y864701D02*
Y922701D01*
X2007480Y864701D02*
Y922701D01*
X2057480D01*
X2007480Y864701D02*
X2057480D01*
X1553913Y1196213D02*
Y1402213D01*
X1831913D01*
X1553913Y1196213D02*
X1831913D01*
Y1402213D01*
X2007244Y722402D02*
X2087244D01*
X2007244Y852402D02*
X2087244D01*
Y722402D02*
Y852402D01*
X2007244Y722402D02*
Y852402D01*
X1252213Y243850D02*
X1346213D01*
Y149850D02*
Y243850D01*
X1252213Y149850D02*
X1346213D01*
X1252213D02*
Y243850D01*
X1472032Y293441D02*
Y652441D01*
X1075032D02*
X1472032D01*
X1075032Y293441D02*
Y652441D01*
Y293441D02*
X1472032D01*
X306701Y480701D02*
X480701D01*
Y306701D02*
Y480701D01*
X306701Y306701D02*
X480701D01*
X306701D02*
Y480701D01*
X2992811Y917992D02*
Y1017992D01*
X3030811Y917992D02*
Y1017992D01*
X2992811Y917992D02*
X3030811D01*
X2992811Y1017992D02*
X3030811D01*
X2877835Y296772D02*
Y1406772D01*
X1767835Y296772D02*
Y1406772D01*
Y296772D02*
X2877835D01*
X1767835Y1406772D02*
X2877835D01*
X896614Y406441D02*
Y539441D01*
Y406441D02*
X976614D01*
Y539441D01*
X896614D02*
X976614D01*
X1919708Y1612937D02*
X2076708D01*
X1919708Y1424937D02*
X2076708D01*
Y1612937D01*
X1919708Y1424937D02*
Y1612937D01*
X842732Y919047D02*
Y1491047D01*
X1440732Y919047D02*
Y1491047D01*
X842732Y919047D02*
X1440732D01*
X842732Y1491047D02*
X1440732D01*
X-17205Y399811D02*
X292795D01*
X-17205D02*
Y623811D01*
X292795D01*
Y399811D02*
Y623811D01*
X255220Y737402D02*
Y837402D01*
X217220Y737402D02*
Y837402D01*
X255220D01*
X217220Y737402D02*
X255220D01*
X-17205Y950992D02*
X292795D01*
X-17205D02*
Y1174992D01*
X292795D01*
Y950992D02*
Y1174992D01*
X-17205Y1187213D02*
X292795D01*
X-17205D02*
Y1411213D01*
X292795D01*
Y1187213D02*
Y1411213D01*
X-17205Y163591D02*
X292795D01*
X-17205D02*
Y387591D01*
X292795D01*
Y163591D02*
Y387591D01*
X3055807Y1065732D02*
X3155807D01*
X3055807Y1027732D02*
X3155807D01*
X3055807D02*
Y1065732D01*
X3155807Y1027732D02*
Y1065732D01*
X2930807Y1027732D02*
X3030807D01*
X2930807Y1065732D02*
X3030807D01*
Y1027732D02*
Y1065732D01*
X2930807Y1027732D02*
Y1065732D01*
X1466323Y911882D02*
Y977882D01*
X1368323D02*
X1466323D01*
X1368323Y911882D02*
Y977882D01*
Y911882D02*
X1466323D01*
X1582000Y1501000D02*
X1648000D01*
X1582000D02*
Y1599000D01*
X1648000D01*
Y1501000D02*
Y1599000D01*
X3055803Y917992D02*
Y1017992D01*
X3093803Y917992D02*
Y1017992D01*
X3055803Y917992D02*
X3093803D01*
X3055803Y1017992D02*
X3093803D01*
X306701Y1268102D02*
X480701D01*
Y1094102D02*
Y1268102D01*
X306701Y1094102D02*
X480701D01*
X306701D02*
Y1268102D01*
X3067441Y471748D02*
Y529748D01*
X3117441Y471748D02*
Y529748D01*
X3067441D02*
X3117441D01*
X3067441Y471748D02*
X3117441D01*
X2999685D02*
Y529748D01*
X3049685Y471748D02*
Y529748D01*
X2999685D02*
X3049685D01*
X2999685Y471748D02*
X3049685D01*
X1392323Y1211158D02*
Y1269158D01*
X1442323Y1211158D02*
Y1269158D01*
X1392323D02*
X1442323D01*
X1392323Y1211158D02*
X1442323D01*
X1234842D02*
Y1269158D01*
X1284842Y1211158D02*
Y1269158D01*
X1234842D02*
X1284842D01*
X1234842Y1211158D02*
X1284842D01*
X1077362D02*
Y1269158D01*
X1127362Y1211158D02*
Y1269158D01*
X1077362D02*
X1127362D01*
X1077362Y1211158D02*
X1127362D01*
X919882D02*
Y1269158D01*
X969882Y1211158D02*
Y1269158D01*
X919882D02*
X969882D01*
X919882Y1211158D02*
X969882D01*
X2131299Y1295213D02*
Y1353213D01*
X2081299Y1295213D02*
Y1353213D01*
X2131299D01*
X2081299Y1295213D02*
X2131299D01*
X1973819D02*
Y1353213D01*
X1923819Y1295213D02*
Y1353213D01*
X1973819D01*
X1923819Y1295213D02*
X1973819D01*
X2288780Y1298165D02*
Y1356165D01*
X2238780Y1298165D02*
Y1356165D01*
X2288780D01*
X2238780Y1298165D02*
X2288780D01*
X1127362Y856827D02*
Y914827D01*
X1077362Y856827D02*
Y914827D01*
Y856827D02*
X1127362D01*
X1077362Y914827D02*
X1127362D01*
X1284842Y856827D02*
Y914827D01*
X1234842Y856827D02*
Y914827D01*
Y856827D02*
X1284842D01*
X1234842Y914827D02*
X1284842D01*
X969882Y856827D02*
Y914827D01*
X919882Y856827D02*
Y914827D01*
Y856827D02*
X969882D01*
X919882Y914827D02*
X969882D01*
X605181Y1120102D02*
Y1242102D01*
X497181Y1120102D02*
X605181D01*
X497181Y1242102D02*
X605181D01*
X497181Y1120102D02*
Y1242102D01*
X2989213Y835142D02*
X3109213D01*
Y707142D02*
Y835142D01*
X2989213Y707142D02*
X3109213D01*
X2989213D02*
Y835142D01*
X615181Y727402D02*
Y847402D01*
X487181Y727402D02*
X615181D01*
X487181D02*
Y847402D01*
X615181D01*
X48110D02*
X188110D01*
X48110Y727402D02*
Y847402D01*
Y727402D02*
X188110D01*
Y847402D01*
X1556142Y772661D02*
X1676142D01*
X1556142Y644661D02*
Y772661D01*
Y644661D02*
X1676142D01*
Y772661D01*
X1558913Y610811D02*
X1827913D01*
X1558913Y412811D02*
Y610811D01*
Y412811D02*
X1827913D01*
Y610811D01*
D63*
X974409Y1165102D02*
Y1196599D01*
X915354Y1165102D02*
Y1196599D01*
Y1165354D02*
X974409D01*
X915354Y1196850D02*
X974409D01*
X1922835Y868898D02*
X1981890D01*
X1922835Y900394D02*
X1981890D01*
X1922835Y869150D02*
Y900646D01*
X1981890Y869150D02*
Y900646D01*
X2085653Y1511811D02*
X2117149D01*
X2085653Y1570866D02*
X2117149D01*
X2085905Y1511811D02*
Y1570866D01*
X2117401Y1511811D02*
Y1570866D01*
X226378Y596905D02*
Y628402D01*
X167323Y596905D02*
Y628402D01*
Y628150D02*
X226378D01*
X167323Y596654D02*
X226378D01*
X397890Y1072835D02*
X429386D01*
X397890Y1013779D02*
X429386D01*
X429134D02*
Y1072835D01*
X397638Y1013779D02*
Y1072835D01*
X436756Y1013779D02*
X468252D01*
X436756Y1072835D02*
X468252D01*
X437008Y1013779D02*
Y1072835D01*
X468504Y1013779D02*
Y1072835D01*
X437260Y1348425D02*
X468756D01*
X437260Y1289370D02*
X468756D01*
X468504D02*
Y1348425D01*
X437008Y1289370D02*
Y1348425D01*
X397386Y1289370D02*
X428882D01*
X397386Y1348425D02*
X428882D01*
X397638Y1289370D02*
Y1348425D01*
X429134Y1289370D02*
Y1348425D01*
X397890Y285433D02*
X429386D01*
X397890Y226378D02*
X429386D01*
X429134D02*
Y285433D01*
X397638Y226378D02*
Y285433D01*
X436756Y226378D02*
X468252D01*
X436756Y285433D02*
X468252D01*
X437008Y226378D02*
Y285433D01*
X468504Y226378D02*
Y285433D01*
X397890Y561024D02*
X429386D01*
X397890Y501969D02*
X429386D01*
X429134D02*
Y561024D01*
X397638Y501969D02*
Y561024D01*
X436756Y501969D02*
X468252D01*
X436756Y561024D02*
X468252D01*
X437008Y501969D02*
Y561024D01*
X468504Y501969D02*
Y561024D01*
X600394Y222976D02*
Y254472D01*
X541338Y222976D02*
Y254472D01*
Y223228D02*
X600394D01*
X541338Y254724D02*
X600394D01*
X3055709Y1070606D02*
Y1102102D01*
X3114764Y1070606D02*
Y1102102D01*
X3055709Y1101850D02*
X3114764D01*
X3055709Y1070354D02*
X3114764D01*
X3055709Y1109976D02*
Y1141472D01*
X3114764Y1109976D02*
Y1141472D01*
X3055709Y1141220D02*
X3114764D01*
X3055709Y1109724D02*
X3114764D01*
X3071118Y682559D02*
X3102614D01*
X3071118Y623504D02*
X3102614D01*
X3102362D02*
Y682559D01*
X3070866Y623504D02*
Y682559D01*
X2995811Y623504D02*
X3027307D01*
X2995811Y682559D02*
X3027307D01*
X2996063Y623504D02*
Y682559D01*
X3027559Y623504D02*
Y682559D01*
X2949000Y818543D02*
X2980496D01*
X2949000Y877598D02*
X2980496D01*
X2949252Y818543D02*
Y877598D01*
X2980748Y818543D02*
Y877598D01*
X3030906Y1070102D02*
Y1101599D01*
X2971850Y1070102D02*
Y1101599D01*
Y1070354D02*
X3030906D01*
X2971850Y1101850D02*
X3030906D01*
Y1109472D02*
Y1140968D01*
X2971850Y1109472D02*
Y1140968D01*
Y1109724D02*
X3030906D01*
X2971850Y1141220D02*
X3030906D01*
X698819Y810772D02*
Y842268D01*
X639764Y810772D02*
Y842268D01*
Y811024D02*
X698819D01*
X639764Y842520D02*
X698819D01*
X462599Y732032D02*
Y763528D01*
X403543Y732032D02*
Y763528D01*
Y732284D02*
X462599D01*
X403543Y763779D02*
X462599D01*
X403543Y811276D02*
Y842772D01*
X462599Y811276D02*
Y842772D01*
X403543Y842520D02*
X462599D01*
X403543Y811024D02*
X462599D01*
X-16000Y778346D02*
X15496D01*
X-16000Y837402D02*
X15496D01*
X-15748Y778346D02*
Y837402D01*
X15748Y778346D02*
Y837402D01*
X260094Y831004D02*
X291591D01*
X260094Y771949D02*
X291591D01*
X291339D02*
Y831004D01*
X259843Y771949D02*
Y831004D01*
X298961Y771949D02*
X330457D01*
X298961Y831004D02*
X330457D01*
X299213Y771949D02*
Y831004D01*
X330709Y771949D02*
Y831004D01*
X2897890Y651772D02*
X2929386D01*
X2897890Y592716D02*
X2929386D01*
X2929134D02*
Y651772D01*
X2897638Y592716D02*
Y651772D01*
X2267968Y1025394D02*
X2299465D01*
X2267968Y1084449D02*
X2299465D01*
X2299213Y1025394D02*
Y1084449D01*
X2267716Y1025394D02*
Y1084449D01*
X1981102Y972496D02*
Y1003992D01*
X1922047Y972496D02*
Y1003992D01*
Y1003740D02*
X1981102D01*
X1922047Y972244D02*
X1981102D01*
Y1022496D02*
Y1053992D01*
X1922047Y1022496D02*
Y1053992D01*
Y1053740D02*
X1981102D01*
X1922047Y1022244D02*
X1981102D01*
Y1122496D02*
Y1153992D01*
X1922047Y1122496D02*
Y1153992D01*
Y1153740D02*
X1981102D01*
X1922047Y1122244D02*
X1981102D01*
Y1072496D02*
Y1103992D01*
X1922047Y1072496D02*
Y1103992D01*
Y1103740D02*
X1981102D01*
X1922047Y1072244D02*
X1981102D01*
X2239511Y1511811D02*
X2271007D01*
X2239511Y1570866D02*
X2271007D01*
X2239763Y1511811D02*
Y1570866D01*
X2271259Y1511811D02*
Y1570866D01*
X2130653Y1511811D02*
X2162149D01*
X2130653Y1570866D02*
X2162149D01*
X2130905Y1511811D02*
Y1570866D01*
X2162401Y1511811D02*
Y1570866D01*
X3121968Y426992D02*
Y458488D01*
X3062913Y426992D02*
Y458488D01*
Y427244D02*
X3121968D01*
X3062913Y458740D02*
X3121968D01*
X3054213Y426992D02*
Y458488D01*
X2995157Y426992D02*
Y458488D01*
Y427244D02*
X3054213D01*
X2995157Y458740D02*
X3054213D01*
X1978346Y132142D02*
Y163638D01*
X2037402Y132142D02*
Y163638D01*
X1978346Y163386D02*
X2037402D01*
X1978346Y131890D02*
X2037402D01*
X1978346Y92772D02*
Y124268D01*
X2037402Y92772D02*
Y124268D01*
X1978346Y124016D02*
X2037402D01*
X1978346Y92520D02*
X2037402D01*
X1978346Y53401D02*
Y84898D01*
X2037402Y53401D02*
Y84898D01*
X1978346Y84646D02*
X2037402D01*
X1978346Y53150D02*
X2037402D01*
X1785181Y218504D02*
X1816677D01*
X1785181Y277559D02*
X1816677D01*
X1785433Y218504D02*
Y277559D01*
X1816929Y218504D02*
Y277559D01*
X1824551Y218504D02*
X1856047D01*
X1824551Y277559D02*
X1856047D01*
X1824803Y218504D02*
Y277559D01*
X1856299Y218504D02*
Y277559D01*
X1805370Y9843D02*
X1836866D01*
X1805370Y-49213D02*
X1836866D01*
X1836614D02*
Y9843D01*
X1805118Y-49213D02*
Y9843D01*
X2450787Y171512D02*
Y203008D01*
X2509843Y171512D02*
Y203008D01*
X2450787Y202756D02*
X2509843D01*
X2450787Y171260D02*
X2509843D01*
X2450787Y132142D02*
Y163638D01*
X2509843Y132142D02*
Y163638D01*
X2450787Y163386D02*
X2509843D01*
X2450787Y131890D02*
X2509843D01*
X2450787Y92772D02*
Y124268D01*
X2509843Y92772D02*
Y124268D01*
X2450787Y124016D02*
X2509843D01*
X2450787Y92520D02*
X2509843D01*
X2257622Y218504D02*
X2289118D01*
X2257622Y277559D02*
X2289118D01*
X2257874Y218504D02*
Y277559D01*
X2289370Y218504D02*
Y277559D01*
X2296992Y218504D02*
X2328488D01*
X2296992Y277559D02*
X2328488D01*
X2297244Y218504D02*
Y277559D01*
X2328740Y218504D02*
Y277559D01*
X2336362Y218504D02*
X2367858D01*
X2336362Y277559D02*
X2367858D01*
X2336614Y218504D02*
Y277559D01*
X2368110Y218504D02*
Y277559D01*
X2258126Y9843D02*
X2289622D01*
X2258126Y-49213D02*
X2289622D01*
X2289370D02*
Y9843D01*
X2257874Y-49213D02*
Y9843D01*
X2297496D02*
X2328992D01*
X2297496Y-49213D02*
X2328992D01*
X2328740D02*
Y9843D01*
X2297244Y-49213D02*
Y9843D01*
X2336866D02*
X2368362D01*
X2336866Y-49213D02*
X2368362D01*
X2368110D02*
Y9843D01*
X2336614Y-49213D02*
Y9843D01*
X2923228Y132142D02*
Y163638D01*
X2982284Y132142D02*
Y163638D01*
X2923228Y163386D02*
X2982284D01*
X2923228Y131890D02*
X2982284D01*
X2923228Y92772D02*
Y124268D01*
X2982284Y92772D02*
Y124268D01*
X2923228Y124016D02*
X2982284D01*
X2923228Y92520D02*
X2982284D01*
X2923228Y53401D02*
Y84898D01*
X2982284Y53401D02*
Y84898D01*
X2923228Y84646D02*
X2982284D01*
X2923228Y53150D02*
X2982284D01*
X2710378Y218504D02*
X2741874D01*
X2710378Y277559D02*
X2741874D01*
X2710630Y218504D02*
Y277559D01*
X2742126Y218504D02*
Y277559D01*
X2749748Y218504D02*
X2781244D01*
X2749748Y277559D02*
X2781244D01*
X2750000Y218504D02*
Y277559D01*
X2781496Y218504D02*
Y277559D01*
X2789118Y218504D02*
X2820614D01*
X2789118Y277559D02*
X2820614D01*
X2789370Y218504D02*
Y277559D01*
X2820866Y218504D02*
Y277559D01*
X2828488Y218504D02*
X2859984D01*
X2828488Y277559D02*
X2859984D01*
X2828740Y218504D02*
Y277559D01*
X2860236Y218504D02*
Y277559D01*
X2710882Y9843D02*
X2742378D01*
X2710882Y-49213D02*
X2742378D01*
X2742126D02*
Y9843D01*
X2710630Y-49213D02*
Y9843D01*
X2750252D02*
X2781748D01*
X2750252Y-49213D02*
X2781748D01*
X2781496D02*
Y9843D01*
X2750000Y-49213D02*
Y9843D01*
X2789622D02*
X2821118D01*
X2789622Y-49213D02*
X2821118D01*
X2820866D02*
Y9843D01*
X2789370Y-49213D02*
Y9843D01*
X2828992D02*
X2860488D01*
X2828992Y-49213D02*
X2860488D01*
X2860236D02*
Y9843D01*
X2828740Y-49213D02*
Y9843D01*
X1446850Y1125732D02*
Y1157228D01*
X1387795Y1125732D02*
Y1157228D01*
Y1125984D02*
X1446850D01*
X1387795Y1157480D02*
X1446850D01*
X1387795Y1283716D02*
Y1315213D01*
X1446850Y1283716D02*
Y1315213D01*
X1387795Y1314961D02*
X1446850D01*
X1387795Y1283465D02*
X1446850D01*
X1230315Y1323087D02*
Y1354583D01*
X1289370Y1323087D02*
Y1354583D01*
X1230315Y1354331D02*
X1289370D01*
X1230315Y1322835D02*
X1289370D01*
X1131890Y1125732D02*
Y1157228D01*
X1072835Y1125732D02*
Y1157228D01*
Y1125984D02*
X1131890D01*
X1072835Y1157480D02*
X1131890D01*
X1072835Y1323087D02*
Y1354583D01*
X1131890Y1323087D02*
Y1354583D01*
X1072835Y1354331D02*
X1131890D01*
X1072835Y1322835D02*
X1131890D01*
X974409Y1125732D02*
Y1157228D01*
X915354Y1125732D02*
Y1157228D01*
Y1125984D02*
X974409D01*
X915354Y1157480D02*
X974409D01*
X915354Y1323087D02*
Y1354583D01*
X974409Y1323087D02*
Y1354583D01*
X915354Y1354331D02*
X974409D01*
X915354Y1322835D02*
X974409D01*
X1677165Y646260D02*
Y705315D01*
X1708661Y646260D02*
Y705315D01*
X1677417D02*
X1708913D01*
X1677417Y646260D02*
X1708913D01*
X1866142D02*
Y705315D01*
X1834646Y646260D02*
Y705315D01*
X1834394Y646260D02*
X1865890D01*
X1834394Y705315D02*
X1865890D01*
X1551181Y712008D02*
Y771063D01*
X1519685Y712008D02*
Y771063D01*
X1519433Y712008D02*
X1550929D01*
X1519433Y771063D02*
X1550929D01*
X1600394Y797244D02*
Y856299D01*
X1631890Y797244D02*
Y856299D01*
X1600646D02*
X1632142D01*
X1600646Y797244D02*
X1632142D01*
X2063780Y437008D02*
X2122835D01*
X2063780Y468504D02*
X2122835D01*
X2063780Y437260D02*
Y468756D01*
X2122835Y437260D02*
Y468756D01*
X2126772Y437008D02*
X2185827D01*
X2126772Y468504D02*
X2185827D01*
X2126772Y437260D02*
Y468756D01*
X2185827Y437260D02*
Y468756D01*
X2158268Y-15748D02*
X2217323D01*
X2158268Y15748D02*
X2217323D01*
X2158268Y-15496D02*
Y16000D01*
X2217323Y-15496D02*
Y16000D01*
X2076772Y1258213D02*
Y1289709D01*
X2135827Y1258213D02*
Y1289709D01*
X2076772Y1258465D02*
X2135827D01*
X2076772Y1289961D02*
X2135827D01*
X2076772Y1358213D02*
Y1389709D01*
X2135827Y1358213D02*
Y1389709D01*
X2076772Y1358465D02*
X2135827D01*
X2076772Y1389961D02*
X2135827D01*
X1519937Y1541535D02*
X1551433D01*
X1519937Y1600591D02*
X1551433D01*
X1551181Y1541535D02*
Y1600591D01*
X1519685Y1541535D02*
Y1600591D01*
X1919291Y1258213D02*
Y1289709D01*
X1978347Y1258213D02*
Y1289709D01*
X1919291Y1258465D02*
X1978347D01*
X1919291Y1289961D02*
X1978347D01*
X1919291Y1358213D02*
Y1389709D01*
X1978347Y1358213D02*
Y1389709D01*
X1919291Y1358465D02*
X1978347D01*
X1919291Y1389961D02*
X1978347D01*
X2234252Y1261165D02*
Y1292661D01*
X2293307Y1261165D02*
Y1292661D01*
X2234252Y1261417D02*
X2293307D01*
X2234252Y1292913D02*
X2293307D01*
X2234252Y1361166D02*
Y1392662D01*
X2293307Y1361166D02*
Y1392662D01*
X2234252Y1361418D02*
X2293307D01*
X2234252Y1392914D02*
X2293307D01*
X1984252Y608268D02*
Y667323D01*
X1952756Y608268D02*
Y667323D01*
X1952504Y608268D02*
X1984000D01*
X1952504Y667323D02*
X1984000D01*
X2299213Y513779D02*
Y572835D01*
X2267717Y513779D02*
Y572835D01*
X2267465Y513779D02*
X2298961D01*
X2267465Y572835D02*
X2298961D01*
X1905512Y195669D02*
Y254724D01*
X1874016Y195669D02*
Y254724D01*
X1873764Y195669D02*
X1905260D01*
X1873764Y254724D02*
X1905260D01*
X1129725Y1545275D02*
Y1604331D01*
X1161220Y1545275D02*
Y1604331D01*
X1129976D02*
X1161473D01*
X1129976Y1545275D02*
X1161473D01*
X1519685Y554921D02*
Y613976D01*
X1551181Y554921D02*
Y613976D01*
X1519937D02*
X1551433D01*
X1519937Y554921D02*
X1551433D01*
X1866142D02*
Y613976D01*
X1834646Y554921D02*
Y613976D01*
X1834394Y554921D02*
X1865890D01*
X1834394Y613976D02*
X1865890D01*
X1866142Y100197D02*
Y159252D01*
X1834646Y100197D02*
Y159252D01*
X1834394Y100197D02*
X1865890D01*
X1834394Y159252D02*
X1865890D01*
X1551181Y100197D02*
Y159252D01*
X1519685Y100197D02*
Y159252D01*
X1519433Y100197D02*
X1550929D01*
X1519433Y159252D02*
X1550929D01*
X1519685Y304921D02*
Y363976D01*
X1551181Y304921D02*
Y363976D01*
X1519937D02*
X1551433D01*
X1519937Y304921D02*
X1551433D01*
X1125732Y167323D02*
X1157228D01*
X1125732Y226378D02*
X1157228D01*
X1125984Y167323D02*
Y226378D01*
X1157480Y167323D02*
Y226378D01*
X1165102Y167323D02*
X1196599D01*
X1165102Y226378D02*
X1196599D01*
X1165354Y167323D02*
Y226378D01*
X1196850Y167323D02*
Y226378D01*
X1387795Y161669D02*
Y193165D01*
X1446850Y161669D02*
Y193165D01*
X1387795Y192913D02*
X1446850D01*
X1387795Y161417D02*
X1446850D01*
X1086866Y226378D02*
X1118362D01*
X1086866Y167323D02*
X1118362D01*
X1118110D02*
Y226378D01*
X1086614Y167323D02*
Y226378D01*
X1046992Y167323D02*
X1078488D01*
X1046992Y226378D02*
X1078488D01*
X1047244Y167323D02*
Y226378D01*
X1078740Y167323D02*
Y226378D01*
X988189Y696063D02*
Y755118D01*
X1019685Y696063D02*
Y755118D01*
X988441D02*
X1019937D01*
X988441Y696063D02*
X1019937D01*
X771654Y282677D02*
Y341732D01*
X803150Y282677D02*
Y341732D01*
X771905D02*
X803402D01*
X771905Y282677D02*
X803402D01*
X1362205Y710630D02*
Y769685D01*
X1393701Y710630D02*
Y769685D01*
X1362457D02*
X1393953D01*
X1362457Y710630D02*
X1393953D01*
X1047244Y805118D02*
Y864173D01*
X1078740Y805118D02*
Y864173D01*
X1047496D02*
X1078992D01*
X1047496Y805118D02*
X1078992D01*
X1311811Y-15496D02*
Y16000D01*
X1252756Y-15496D02*
Y16000D01*
Y15748D02*
X1311811D01*
X1252756Y-15748D02*
X1311811D01*
X1480567Y381102D02*
X1512063D01*
X1480567Y440158D02*
X1512063D01*
X1511811Y381102D02*
Y440158D01*
X1480315Y381102D02*
Y440158D01*
X909701Y696063D02*
X941197D01*
X909701Y755118D02*
X941197D01*
X940945Y696063D02*
Y755118D01*
X909449Y696063D02*
Y755118D01*
X1072835Y968756D02*
Y1000252D01*
X1131890Y968756D02*
Y1000252D01*
X1072835Y1000000D02*
X1131890D01*
X1072835Y968504D02*
X1131890D01*
X1072835Y811276D02*
Y842772D01*
X1131890Y811276D02*
Y842772D01*
X1072835Y842520D02*
X1131890D01*
X1072835Y811024D02*
X1131890D01*
X1322583Y777559D02*
X1354079D01*
X1322583Y836614D02*
X1354079D01*
X1322835Y777559D02*
Y836614D01*
X1354331Y777559D02*
Y836614D01*
X1230315Y968756D02*
Y1000252D01*
X1289370Y968756D02*
Y1000252D01*
X1230315Y1000000D02*
X1289370D01*
X1230315Y968504D02*
X1289370D01*
X1230315Y811276D02*
Y842772D01*
X1289370Y811276D02*
Y842772D01*
X1230315Y842520D02*
X1289370D01*
X1230315Y811024D02*
X1289370D01*
X915354Y968756D02*
Y1000252D01*
X974409Y968756D02*
Y1000252D01*
X915354Y1000000D02*
X974409D01*
X915354Y968504D02*
X974409D01*
X915354Y811276D02*
Y842772D01*
X974409Y811276D02*
Y842772D01*
X915354Y842520D02*
X974409D01*
X915354Y811024D02*
X974409D01*
X561024Y128150D02*
X620079D01*
X561024Y96654D02*
X620079D01*
Y96402D02*
Y127898D01*
X561024Y96402D02*
Y127898D01*
Y178150D02*
X620079D01*
X561024Y146654D02*
X620079D01*
Y146402D02*
Y177898D01*
X561024Y146402D02*
Y177898D01*
Y228150D02*
X620079D01*
X561024Y196654D02*
X620079D01*
Y196402D02*
Y227898D01*
X561024Y196402D02*
Y227898D01*
X167323Y46654D02*
X226378D01*
X167323Y78150D02*
X226378D01*
X167323Y46906D02*
Y78402D01*
X226378Y46906D02*
Y78402D01*
X167323Y96654D02*
X226378D01*
X167323Y128150D02*
X226378D01*
X167323Y96906D02*
Y128402D01*
X226378Y96906D02*
Y128402D01*
X167323Y146654D02*
X226378D01*
X167323Y178150D02*
X226378D01*
X167323Y146905D02*
Y178402D01*
X226378Y146905D02*
Y178402D01*
X2923228Y128150D02*
X2982284D01*
X2923228Y96654D02*
X2982284D01*
Y96402D02*
Y127898D01*
X2923228Y96402D02*
Y127898D01*
Y178150D02*
X2982284D01*
X2923228Y146654D02*
X2982284D01*
Y146402D02*
Y177898D01*
X2923228Y146402D02*
Y177898D01*
X2529528Y46654D02*
X2588583D01*
X2529528Y78150D02*
X2588583D01*
X2529528Y46906D02*
Y78402D01*
X2588583Y46906D02*
Y78402D01*
X2529528Y96654D02*
X2588583D01*
X2529528Y128150D02*
X2588583D01*
X2529528Y96906D02*
Y128402D01*
X2588583Y96906D02*
Y128402D01*
X2529528Y146654D02*
X2588583D01*
X2529528Y178150D02*
X2588583D01*
X2529528Y146905D02*
Y178402D01*
X2588583Y146905D02*
Y178402D01*
X561024Y1478150D02*
X620079D01*
X561024Y1446654D02*
X620079D01*
Y1446402D02*
Y1477898D01*
X561024Y1446402D02*
Y1477898D01*
Y1528150D02*
X620079D01*
X561024Y1496654D02*
X620079D01*
Y1496402D02*
Y1527898D01*
X561024Y1496402D02*
Y1527898D01*
X167323Y1396654D02*
X226378D01*
X167323Y1428150D02*
X226378D01*
X167323Y1396906D02*
Y1428402D01*
X226378Y1396906D02*
Y1428402D01*
X167323Y1446654D02*
X226378D01*
X167323Y1478150D02*
X226378D01*
X167323Y1446906D02*
Y1478402D01*
X226378Y1446906D02*
Y1478402D01*
X2923228Y1478150D02*
X2982284D01*
X2923228Y1446654D02*
X2982284D01*
Y1446402D02*
Y1477898D01*
X2923228Y1446402D02*
Y1477898D01*
Y1528150D02*
X2982284D01*
X2923228Y1496654D02*
X2982284D01*
Y1496402D02*
Y1527898D01*
X2923228Y1496402D02*
Y1527898D01*
X2529528Y1396654D02*
X2588583D01*
X2529528Y1428150D02*
X2588583D01*
X2529528Y1396906D02*
Y1428402D01*
X2588583Y1396906D02*
Y1428402D01*
X2529528Y1446654D02*
X2588583D01*
X2529528Y1478150D02*
X2588583D01*
X2529528Y1446906D02*
Y1478402D01*
X2588583Y1446906D02*
Y1478402D01*
X1548032Y1137063D02*
Y1168559D01*
X1488976Y1137063D02*
Y1168559D01*
Y1168307D02*
X1548032D01*
X1488976Y1136811D02*
X1548032D01*
X1981102Y754976D02*
Y786472D01*
X1922047Y754976D02*
Y786472D01*
Y786220D02*
X1981102D01*
X1922047Y754724D02*
X1981102D01*
Y794346D02*
Y825842D01*
X1922047Y794346D02*
Y825842D01*
Y825591D02*
X1981102D01*
X1922047Y794095D02*
X1981102D01*
X2185827Y789622D02*
Y821118D01*
X2126772Y789622D02*
Y821118D01*
Y820866D02*
X2185827D01*
X2126772Y789370D02*
X2185827D01*
Y860488D02*
Y891984D01*
X2126772Y860488D02*
Y891984D01*
Y891732D02*
X2185827D01*
X2126772Y860236D02*
X2185827D01*
X1637543Y856299D02*
X1669040D01*
X1637543Y797244D02*
X1669040D01*
X1637795D02*
Y856299D01*
X1669291Y797244D02*
Y856299D01*
X1548032Y1358716D02*
Y1390213D01*
X1488976Y1358716D02*
Y1390213D01*
Y1389961D02*
X1548032D01*
X1488976Y1358465D02*
X1548032D01*
X954724Y319150D02*
Y350646D01*
X1013780Y319150D02*
Y350646D01*
X954724Y350394D02*
X1013780D01*
X954724Y318898D02*
X1013780D01*
X167323Y646654D02*
X226378D01*
X167323Y678150D02*
X226378D01*
X167323Y646905D02*
Y678402D01*
X226378Y646905D02*
Y678402D01*
X167323Y696654D02*
X226378D01*
X167323Y728150D02*
X226378D01*
X167323Y696905D02*
Y728402D01*
X226378Y696905D02*
Y728402D01*
X167323Y746654D02*
X226378D01*
X167323Y778150D02*
X226378D01*
X167323Y746905D02*
Y778402D01*
X226378Y746905D02*
Y778402D01*
X167323Y796654D02*
X226378D01*
X167323Y828150D02*
X226378D01*
X167323Y796905D02*
Y828402D01*
X226378Y796905D02*
Y828402D01*
X167323Y846654D02*
X226378D01*
X167323Y878150D02*
X226378D01*
X167323Y846905D02*
Y878402D01*
X226378Y846905D02*
Y878402D01*
X167323Y896654D02*
X226378D01*
X167323Y928150D02*
X226378D01*
X167323Y896905D02*
Y928402D01*
X226378Y896905D02*
Y928402D01*
X167323Y946654D02*
X226378D01*
X167323Y978150D02*
X226378D01*
X167323Y946905D02*
Y978402D01*
X226378Y946905D02*
Y978402D01*
X167323Y996654D02*
X226378D01*
X167323Y1028150D02*
X226378D01*
X167323Y996905D02*
Y1028402D01*
X226378Y996905D02*
Y1028402D01*
X167323Y1046654D02*
X226378D01*
X167323Y1078150D02*
X226378D01*
X167323Y1046906D02*
Y1078402D01*
X226378Y1046906D02*
Y1078402D01*
X167323Y1096654D02*
X226378D01*
X167323Y1128150D02*
X226378D01*
X167323Y1096906D02*
Y1128402D01*
X226378Y1096906D02*
Y1128402D01*
X167323Y1146654D02*
X226378D01*
X167323Y1178150D02*
X226378D01*
X167323Y1146906D02*
Y1178402D01*
X226378Y1146906D02*
Y1178402D01*
X167323Y1196654D02*
X226378D01*
X167323Y1228150D02*
X226378D01*
X167323Y1196906D02*
Y1228402D01*
X226378Y1196906D02*
Y1228402D01*
X167323Y1246654D02*
X226378D01*
X167323Y1278150D02*
X226378D01*
X167323Y1246906D02*
Y1278402D01*
X226378Y1246906D02*
Y1278402D01*
X2529528Y246654D02*
X2588583D01*
X2529528Y278150D02*
X2588583D01*
X2529528Y246905D02*
Y278402D01*
X2588583Y246905D02*
Y278402D01*
X2529528Y296654D02*
X2588583D01*
X2529528Y328150D02*
X2588583D01*
X2529528Y296906D02*
Y328402D01*
X2588583Y296906D02*
Y328402D01*
X2529528Y346654D02*
X2588583D01*
X2529528Y378150D02*
X2588583D01*
X2529528Y346906D02*
Y378402D01*
X2588583Y346906D02*
Y378402D01*
X2529528Y396654D02*
X2588583D01*
X2529528Y428150D02*
X2588583D01*
X2529528Y396906D02*
Y428402D01*
X2588583Y396906D02*
Y428402D01*
X2529528Y446654D02*
X2588583D01*
X2529528Y478150D02*
X2588583D01*
X2529528Y446906D02*
Y478402D01*
X2588583Y446906D02*
Y478402D01*
X2529528Y496654D02*
X2588583D01*
X2529528Y528150D02*
X2588583D01*
X2529528Y496906D02*
Y528402D01*
X2588583Y496906D02*
Y528402D01*
X2529528Y546654D02*
X2588583D01*
X2529528Y578150D02*
X2588583D01*
X2529528Y546905D02*
Y578402D01*
X2588583Y546905D02*
Y578402D01*
X2529528Y596654D02*
X2588583D01*
X2529528Y628150D02*
X2588583D01*
X2529528Y596905D02*
Y628402D01*
X2588583Y596905D02*
Y628402D01*
X2529528Y646654D02*
X2588583D01*
X2529528Y678150D02*
X2588583D01*
X2529528Y646905D02*
Y678402D01*
X2588583Y646905D02*
Y678402D01*
X2529528Y696654D02*
X2588583D01*
X2529528Y728150D02*
X2588583D01*
X2529528Y696905D02*
Y728402D01*
X2588583Y696905D02*
Y728402D01*
X2529528Y746654D02*
X2588583D01*
X2529528Y778150D02*
X2588583D01*
X2529528Y746905D02*
Y778402D01*
X2588583Y746905D02*
Y778402D01*
X2529528Y796654D02*
X2588583D01*
X2529528Y828150D02*
X2588583D01*
X2529528Y796905D02*
Y828402D01*
X2588583Y796905D02*
Y828402D01*
X2529528Y846654D02*
X2588583D01*
X2529528Y878150D02*
X2588583D01*
X2529528Y846905D02*
Y878402D01*
X2588583Y846905D02*
Y878402D01*
X2529528Y896654D02*
X2588583D01*
X2529528Y928150D02*
X2588583D01*
X2529528Y896905D02*
Y928402D01*
X2588583Y896905D02*
Y928402D01*
X2529528Y946654D02*
X2588583D01*
X2529528Y978150D02*
X2588583D01*
X2529528Y946905D02*
Y978402D01*
X2588583Y946905D02*
Y978402D01*
X2529528Y996654D02*
X2588583D01*
X2529528Y1028150D02*
X2588583D01*
X2529528Y996905D02*
Y1028402D01*
X2588583Y996905D02*
Y1028402D01*
X2529528Y1046654D02*
X2588583D01*
X2529528Y1078150D02*
X2588583D01*
X2529528Y1046906D02*
Y1078402D01*
X2588583Y1046906D02*
Y1078402D01*
X2529528Y1096654D02*
X2588583D01*
X2529528Y1128150D02*
X2588583D01*
X2529528Y1096906D02*
Y1128402D01*
X2588583Y1096906D02*
Y1128402D01*
X2529528Y1146654D02*
X2588583D01*
X2529528Y1178150D02*
X2588583D01*
X2529528Y1146906D02*
Y1178402D01*
X2588583Y1146906D02*
Y1178402D01*
X2529528Y1196654D02*
X2588583D01*
X2529528Y1228150D02*
X2588583D01*
X2529528Y1196906D02*
Y1228402D01*
X2588583Y1196906D02*
Y1228402D01*
X2529528Y1246654D02*
X2588583D01*
X2529528Y1278150D02*
X2588583D01*
X2529528Y1246906D02*
Y1278402D01*
X2588583Y1246906D02*
Y1278402D01*
X2529528Y1296654D02*
X2588583D01*
X2529528Y1328150D02*
X2588583D01*
X2529528Y1296906D02*
Y1328402D01*
X2588583Y1296906D02*
Y1328402D01*
X2529528Y1346654D02*
X2588583D01*
X2529528Y1378150D02*
X2588583D01*
X2529528Y1346906D02*
Y1378402D01*
X2588583Y1346906D02*
Y1378402D01*
X2923228Y228150D02*
X2982284D01*
X2923228Y196654D02*
X2982284D01*
Y196402D02*
Y227898D01*
X2923228Y196402D02*
Y227898D01*
Y278150D02*
X2982284D01*
X2923228Y246654D02*
X2982284D01*
Y246402D02*
Y277898D01*
X2923228Y246402D02*
Y277898D01*
Y328150D02*
X2982284D01*
X2923228Y296654D02*
X2982284D01*
Y296402D02*
Y327898D01*
X2923228Y296402D02*
Y327898D01*
Y378150D02*
X2982284D01*
X2923228Y346654D02*
X2982284D01*
Y346402D02*
Y377898D01*
X2923228Y346402D02*
Y377898D01*
Y428150D02*
X2982284D01*
X2923228Y396654D02*
X2982284D01*
Y396402D02*
Y427898D01*
X2923228Y396402D02*
Y427898D01*
Y478150D02*
X2982284D01*
X2923228Y446654D02*
X2982284D01*
Y446402D02*
Y477898D01*
X2923228Y446402D02*
Y477898D01*
Y528150D02*
X2982284D01*
X2923228Y496654D02*
X2982284D01*
Y496402D02*
Y527898D01*
X2923228Y496402D02*
Y527898D01*
Y578150D02*
X2982284D01*
X2923228Y546654D02*
X2982284D01*
Y546402D02*
Y577898D01*
X2923228Y546402D02*
Y577898D01*
Y828150D02*
X2982284D01*
X2923228Y796654D02*
X2982284D01*
Y796402D02*
Y827898D01*
X2923228Y796402D02*
Y827898D01*
Y778150D02*
X2982284D01*
X2923228Y746654D02*
X2982284D01*
Y746402D02*
Y777898D01*
X2923228Y746402D02*
Y777898D01*
Y728150D02*
X2982284D01*
X2923228Y696654D02*
X2982284D01*
Y696402D02*
Y727898D01*
X2923228Y696402D02*
Y727898D01*
Y678150D02*
X2982284D01*
X2923228Y646654D02*
X2982284D01*
Y646402D02*
Y677898D01*
X2923228Y646402D02*
Y677898D01*
Y1378150D02*
X2982284D01*
X2923228Y1346654D02*
X2982284D01*
Y1346402D02*
Y1377898D01*
X2923228Y1346402D02*
Y1377898D01*
Y1328150D02*
X2982284D01*
X2923228Y1296654D02*
X2982284D01*
Y1296402D02*
Y1327898D01*
X2923228Y1296402D02*
Y1327898D01*
Y1278150D02*
X2982284D01*
X2923228Y1246654D02*
X2982284D01*
Y1246402D02*
Y1277898D01*
X2923228Y1246402D02*
Y1277898D01*
Y1228150D02*
X2982284D01*
X2923228Y1196654D02*
X2982284D01*
Y1196402D02*
Y1227898D01*
X2923228Y1196402D02*
Y1227898D01*
Y1178150D02*
X2982284D01*
X2923228Y1146654D02*
X2982284D01*
Y1146402D02*
Y1177898D01*
X2923228Y1146402D02*
Y1177898D01*
Y1128150D02*
X2982284D01*
X2923228Y1096654D02*
X2982284D01*
Y1096402D02*
Y1127898D01*
X2923228Y1096402D02*
Y1127898D01*
Y1078150D02*
X2982284D01*
X2923228Y1046654D02*
X2982284D01*
Y1046402D02*
Y1077898D01*
X2923228Y1046402D02*
Y1077898D01*
Y1028150D02*
X2982284D01*
X2923228Y996654D02*
X2982284D01*
Y996402D02*
Y1027898D01*
X2923228Y996402D02*
Y1027898D01*
X561024Y1378149D02*
X620079D01*
X561024Y1346653D02*
X620079D01*
Y1346401D02*
Y1377897D01*
X561024Y1346401D02*
Y1377897D01*
Y1328149D02*
X620079D01*
X561024Y1296653D02*
X620079D01*
Y1296401D02*
Y1327897D01*
X561024Y1296401D02*
Y1327897D01*
Y1278149D02*
X620079D01*
X561024Y1246653D02*
X620079D01*
Y1246401D02*
Y1277897D01*
X561024Y1246401D02*
Y1277897D01*
Y1228149D02*
X620079D01*
X561024Y1196653D02*
X620079D01*
Y1196401D02*
Y1227897D01*
X561024Y1196401D02*
Y1227897D01*
Y1178149D02*
X620079D01*
X561024Y1146653D02*
X620079D01*
Y1146401D02*
Y1177898D01*
X561024Y1146401D02*
Y1177898D01*
Y1128149D02*
X620079D01*
X561024Y1096653D02*
X620079D01*
Y1096401D02*
Y1127898D01*
X561024Y1096401D02*
Y1127898D01*
Y1078150D02*
X620079D01*
X561024Y1046654D02*
X620079D01*
Y1046402D02*
Y1077898D01*
X561024Y1046402D02*
Y1077898D01*
Y1028150D02*
X620079D01*
X561024Y996654D02*
X620079D01*
Y996402D02*
Y1027898D01*
X561024Y996402D02*
Y1027898D01*
Y328150D02*
X620079D01*
X561024Y296654D02*
X620079D01*
Y296402D02*
Y327898D01*
X561024Y296402D02*
Y327898D01*
Y278150D02*
X620079D01*
X561024Y246654D02*
X620079D01*
Y246402D02*
Y277898D01*
X561024Y246402D02*
Y277898D01*
Y428150D02*
X620079D01*
X561024Y396654D02*
X620079D01*
Y396402D02*
Y427898D01*
X561024Y396402D02*
Y427898D01*
Y378150D02*
X620079D01*
X561024Y346654D02*
X620079D01*
Y346402D02*
Y377898D01*
X561024Y346402D02*
Y377898D01*
Y528150D02*
X620079D01*
X561024Y496654D02*
X620079D01*
Y496402D02*
Y527898D01*
X561024Y496402D02*
Y527898D01*
Y478150D02*
X620079D01*
X561024Y446654D02*
X620079D01*
Y446402D02*
Y477898D01*
X561024Y446402D02*
Y477898D01*
Y628150D02*
X620079D01*
X561024Y596654D02*
X620079D01*
Y596402D02*
Y627898D01*
X561024Y596402D02*
Y627898D01*
Y578150D02*
X620079D01*
X561024Y546654D02*
X620079D01*
Y546402D02*
Y577898D01*
X561024Y546402D02*
Y577898D01*
Y728150D02*
X620079D01*
X561024Y696654D02*
X620079D01*
Y696402D02*
Y727898D01*
X561024Y696402D02*
Y727898D01*
Y678150D02*
X620079D01*
X561024Y646654D02*
X620079D01*
Y646402D02*
Y677898D01*
X561024Y646402D02*
Y677898D01*
Y828150D02*
X620079D01*
X561024Y796654D02*
X620079D01*
Y796402D02*
Y827898D01*
X561024Y796402D02*
Y827898D01*
Y778150D02*
X620079D01*
X561024Y746654D02*
X620079D01*
Y746402D02*
Y777898D01*
X561024Y746402D02*
Y777898D01*
Y878150D02*
X620079D01*
X561024Y846654D02*
X620079D01*
Y846402D02*
Y877898D01*
X561024Y846402D02*
Y877898D01*
Y928150D02*
X620079D01*
X561024Y896654D02*
X620079D01*
Y896402D02*
Y927898D01*
X561024Y896402D02*
Y927898D01*
Y978150D02*
X620079D01*
X561024Y946654D02*
X620079D01*
Y946402D02*
Y977898D01*
X561024Y946402D02*
Y977898D01*
X167323Y1296654D02*
X226378D01*
X167323Y1328150D02*
X226378D01*
X167323Y1296906D02*
Y1328402D01*
X226378Y1296906D02*
Y1328402D01*
X167323Y1346654D02*
X226378D01*
X167323Y1378150D02*
X226378D01*
X167323Y1346906D02*
Y1378402D01*
X226378Y1346906D02*
Y1378402D01*
X2923228Y628150D02*
X2982284D01*
X2923228Y596654D02*
X2982284D01*
Y596402D02*
Y627898D01*
X2923228Y596402D02*
Y627898D01*
Y878150D02*
X2982284D01*
X2923228Y846654D02*
X2982284D01*
Y846402D02*
Y877898D01*
X2923228Y846402D02*
Y877898D01*
Y928150D02*
X2982284D01*
X2923228Y896654D02*
X2982284D01*
Y896402D02*
Y927898D01*
X2923228Y896402D02*
Y927898D01*
Y978150D02*
X2982284D01*
X2923228Y946654D02*
X2982284D01*
Y946402D02*
Y977898D01*
X2923228Y946402D02*
Y977898D01*
X2289511Y1511811D02*
X2321007D01*
X2289511Y1570866D02*
X2321007D01*
X2289763Y1511811D02*
Y1570866D01*
X2321259Y1511811D02*
Y1570866D01*
X541338Y1252614D02*
Y1284110D01*
X600394Y1252614D02*
Y1284110D01*
X541338Y1283858D02*
X600394D01*
X541338Y1252362D02*
X600394D01*
X541338Y1286472D02*
Y1317968D01*
X600394Y1286472D02*
Y1317968D01*
X541338Y1317716D02*
X600394D01*
X541338Y1286220D02*
X600394D01*
Y1319827D02*
Y1351323D01*
X541338Y1319827D02*
Y1351323D01*
Y1320079D02*
X600394D01*
X541338Y1351575D02*
X600394D01*
X541338Y465213D02*
Y496709D01*
X600394Y465213D02*
Y496709D01*
X541338Y496457D02*
X600394D01*
X541338Y464961D02*
X600394D01*
X541338Y499071D02*
Y530567D01*
X600394Y499071D02*
Y530567D01*
X541338Y530315D02*
X600394D01*
X541338Y498819D02*
X600394D01*
Y256835D02*
Y288331D01*
X541338Y256835D02*
Y288331D01*
Y257087D02*
X600394D01*
X541338Y288583D02*
X600394D01*
Y532425D02*
Y563921D01*
X541338Y532425D02*
Y563921D01*
Y532677D02*
X600394D01*
X541338Y564173D02*
X600394D01*
X3058268Y849000D02*
Y880496D01*
X2999213Y849000D02*
Y880496D01*
Y849252D02*
X3058268D01*
X2999213Y880748D02*
X3058268D01*
X3033716Y682559D02*
X3065213D01*
X3033716Y623504D02*
X3065213D01*
X3064961D02*
Y682559D01*
X3033465Y623504D02*
Y682559D01*
X639764Y771905D02*
Y803402D01*
X698819Y771905D02*
Y803402D01*
X639764Y803150D02*
X698819D01*
X639764Y771654D02*
X698819D01*
X462599Y771402D02*
Y802898D01*
X403543Y771402D02*
Y802898D01*
Y771654D02*
X462599D01*
X403543Y803150D02*
X462599D01*
X1716535Y1122637D02*
Y1181693D01*
X1748032Y1122637D02*
Y1181693D01*
X1716787Y1122637D02*
X1748284D01*
X1716787Y1181693D02*
X1748284D01*
X1716535Y484842D02*
Y543898D01*
X1748032Y484842D02*
Y543898D01*
X1716787Y484842D02*
X1748284D01*
X1716787Y543898D02*
X1748284D01*
X2228110Y1502937D02*
Y1534433D01*
X2169054Y1502937D02*
Y1534433D01*
Y1503189D02*
X2228110D01*
X2169054Y1534685D02*
X2228110D01*
X3121968Y348252D02*
Y379748D01*
X3062913Y348252D02*
Y379748D01*
Y348504D02*
X3121968D01*
X3062913Y380000D02*
X3121968D01*
X3054213Y348252D02*
Y379748D01*
X2995157Y348252D02*
Y379748D01*
Y348504D02*
X3054213D01*
X2995157Y380000D02*
X3054213D01*
X3062913Y388126D02*
Y419622D01*
X3121968Y388126D02*
Y419622D01*
X3062913Y419370D02*
X3121968D01*
X3062913Y387874D02*
X3121968D01*
X2995157Y388126D02*
Y419622D01*
X3054213Y388126D02*
Y419622D01*
X2995157Y419370D02*
X3054213D01*
X2995157Y387874D02*
X3054213D01*
X2037402Y171008D02*
Y202504D01*
X1978346Y171008D02*
Y202504D01*
Y171260D02*
X2037402D01*
X1978346Y202756D02*
X2037402D01*
X2509843Y52898D02*
Y84394D01*
X2450787Y52898D02*
Y84394D01*
Y53150D02*
X2509843D01*
X2450787Y84646D02*
X2509843D01*
X2376236Y277559D02*
X2407732D01*
X2376236Y218504D02*
X2407732D01*
X2407480D02*
Y277559D01*
X2375984Y218504D02*
Y277559D01*
X2868362D02*
X2899858D01*
X2868362Y218504D02*
X2899858D01*
X2899606D02*
Y277559D01*
X2868110Y218504D02*
Y277559D01*
X2982284Y171008D02*
Y202504D01*
X2923228Y171008D02*
Y202504D01*
Y171260D02*
X2982284D01*
X2923228Y202756D02*
X2982284D01*
X1446850Y1165102D02*
Y1196599D01*
X1387795Y1165102D02*
Y1196599D01*
Y1165354D02*
X1446850D01*
X1387795Y1196850D02*
X1446850D01*
Y1086362D02*
Y1117858D01*
X1387795Y1086362D02*
Y1117858D01*
Y1086614D02*
X1446850D01*
X1387795Y1118110D02*
X1446850D01*
X1289370Y1283213D02*
Y1314709D01*
X1230315Y1283213D02*
Y1314709D01*
Y1283465D02*
X1289370D01*
X1230315Y1314961D02*
X1289370D01*
X1131890Y1283213D02*
Y1314709D01*
X1072835Y1283213D02*
Y1314709D01*
Y1283465D02*
X1131890D01*
X1072835Y1314961D02*
X1131890D01*
X1072835Y1086866D02*
Y1118362D01*
X1131890Y1086866D02*
Y1118362D01*
X1072835Y1118110D02*
X1131890D01*
X1072835Y1086614D02*
X1131890D01*
X915354Y1086866D02*
Y1118362D01*
X974409Y1086866D02*
Y1118362D01*
X915354Y1118110D02*
X974409D01*
X915354Y1086614D02*
X974409D01*
X1834646Y712008D02*
Y771063D01*
X1866142Y712008D02*
Y771063D01*
X1834898D02*
X1866394D01*
X1834898Y712008D02*
X1866394D01*
X1519685Y646260D02*
Y705315D01*
X1551181Y646260D02*
Y705315D01*
X1519937D02*
X1551433D01*
X1519937Y646260D02*
X1551433D01*
X1519685Y797244D02*
Y856299D01*
X1551181Y797244D02*
Y856299D01*
X1519937D02*
X1551433D01*
X1519937Y797244D02*
X1551433D01*
X1562992D02*
Y856299D01*
X1594488Y797244D02*
Y856299D01*
X1563244D02*
X1594740D01*
X1563244Y797244D02*
X1594740D01*
X1770079Y1536067D02*
Y1567563D01*
X1829134Y1536067D02*
Y1567563D01*
X1770079Y1536319D02*
X1829134D01*
X1770079Y1567815D02*
X1829134D01*
X1770079Y1496402D02*
Y1527898D01*
X1829134Y1496402D02*
Y1527898D01*
X1770079Y1496654D02*
X1829134D01*
X1770079Y1528150D02*
X1829134D01*
X2135827Y1208716D02*
Y1240213D01*
X2076772Y1208716D02*
Y1240213D01*
Y1239960D02*
X2135827D01*
X2076772Y1208465D02*
X2135827D01*
X1770079Y1575732D02*
Y1607228D01*
X1829134Y1575732D02*
Y1607228D01*
X1770079Y1575984D02*
X1829134D01*
X1770079Y1607480D02*
X1829134D01*
X1978347Y1208716D02*
Y1240213D01*
X1919291Y1208716D02*
Y1240213D01*
Y1239960D02*
X1978347D01*
X1919291Y1208465D02*
X1978347D01*
X1834646Y195669D02*
Y254724D01*
X1866142Y195669D02*
Y254724D01*
X1834898D02*
X1866394D01*
X1834898Y195669D02*
X1866394D01*
X2293307Y1211669D02*
Y1243165D01*
X2234252Y1211669D02*
Y1243165D01*
Y1242913D02*
X2293307D01*
X2234252Y1211417D02*
X2293307D01*
X1117913Y1545275D02*
Y1604331D01*
X1086417Y1545275D02*
Y1604331D01*
X1086165Y1545275D02*
X1117661D01*
X1086165Y1604331D02*
X1117661D01*
X1291142Y1545275D02*
Y1604331D01*
X1259646Y1545275D02*
Y1604331D01*
X1259394Y1545275D02*
X1290890D01*
X1259394Y1604331D02*
X1290890D01*
X1204527Y1545275D02*
Y1604331D01*
X1173031Y1545275D02*
Y1604331D01*
X1172779Y1545275D02*
X1204275D01*
X1172779Y1604331D02*
X1204275D01*
X1074606Y1545275D02*
Y1604331D01*
X1043110Y1545275D02*
Y1604331D01*
X1042858Y1545275D02*
X1074354D01*
X1042858Y1604331D02*
X1074354D01*
X1905512Y554921D02*
Y613976D01*
X1874016Y554921D02*
Y613976D01*
X1873764Y554921D02*
X1905260D01*
X1873764Y613976D02*
X1905260D01*
X1511811Y304921D02*
Y363976D01*
X1480315Y304921D02*
Y363976D01*
X1480063Y304921D02*
X1511559D01*
X1480063Y363976D02*
X1511559D01*
X1387795Y201039D02*
Y232535D01*
X1446850Y201039D02*
Y232535D01*
X1387795Y232283D02*
X1446850D01*
X1387795Y200787D02*
X1446850D01*
X948567Y755118D02*
X980063D01*
X948567Y696063D02*
X980063D01*
X948819D02*
Y755118D01*
X980315Y696063D02*
Y755118D01*
X1072835Y771905D02*
Y803402D01*
X1131890Y771905D02*
Y803402D01*
X1072835Y803150D02*
X1131890D01*
X1072835Y771654D02*
X1131890D01*
Y928882D02*
Y960378D01*
X1072835Y928882D02*
Y960378D01*
Y929134D02*
X1131890D01*
X1072835Y960630D02*
X1131890D01*
X1230315Y771905D02*
Y803402D01*
X1289370Y771905D02*
Y803402D01*
X1230315Y803150D02*
X1289370D01*
X1230315Y771654D02*
X1289370D01*
Y928882D02*
Y960378D01*
X1230315Y928882D02*
Y960378D01*
Y929134D02*
X1289370D01*
X1230315Y960630D02*
X1289370D01*
X915354Y771905D02*
Y803402D01*
X974409Y771905D02*
Y803402D01*
X915354Y803150D02*
X974409D01*
X915354Y771654D02*
X974409D01*
Y928882D02*
Y960378D01*
X915354Y928882D02*
Y960378D01*
Y929134D02*
X974409D01*
X915354Y960630D02*
X974409D01*
X1488976Y1089567D02*
X1548032D01*
X1488976Y1058071D02*
X1548032D01*
Y1057819D02*
Y1089315D01*
X1488976Y1057819D02*
Y1089315D01*
Y1128937D02*
X1548032D01*
X1488976Y1097441D02*
X1548032D01*
Y1097189D02*
Y1128685D01*
X1488976Y1097189D02*
Y1128685D01*
X2185827Y754189D02*
Y785685D01*
X2126772Y754189D02*
Y785685D01*
Y785433D02*
X2185827D01*
X2126772Y753937D02*
X2185827D01*
Y718756D02*
Y750252D01*
X2126772Y718756D02*
Y750252D01*
Y750000D02*
X2185827D01*
X2126772Y718504D02*
X2185827D01*
Y825055D02*
Y856551D01*
X2126772Y825055D02*
Y856551D01*
Y856299D02*
X2185827D01*
X2126772Y824803D02*
X2185827D01*
Y895921D02*
Y927417D01*
X2126772Y895921D02*
Y927417D01*
Y927165D02*
X2185827D01*
X2126772Y895669D02*
X2185827D01*
X1896850Y869150D02*
Y900646D01*
X1837795Y869150D02*
Y900646D01*
Y900394D02*
X1896850D01*
X1837795Y868898D02*
X1896850D01*
Y794346D02*
Y825843D01*
X1837795Y794346D02*
Y825843D01*
Y825591D02*
X1896850D01*
X1837795Y794095D02*
X1896850D01*
X1488976Y1258213D02*
Y1289709D01*
X1548032Y1258213D02*
Y1289709D01*
X1488976Y1258465D02*
X1548032D01*
X1488976Y1289961D02*
X1548032D01*
X1488976Y1208213D02*
Y1239709D01*
X1548032Y1208213D02*
Y1239709D01*
X1488976Y1208465D02*
X1548032D01*
X1488976Y1239961D02*
X1548032D01*
X1013780Y554866D02*
Y586362D01*
X954724Y554866D02*
Y586362D01*
Y555118D02*
X1013780D01*
X954724Y586614D02*
X1013780D01*
X954724Y358520D02*
Y390016D01*
X1013780Y358520D02*
Y390016D01*
X954724Y389764D02*
X1013780D01*
X954724Y358268D02*
X1013780D01*
X974409Y1283213D02*
Y1314709D01*
X915354Y1283213D02*
Y1314709D01*
Y1283465D02*
X974409D01*
X915354Y1314961D02*
X974409D01*
X1289370Y1165102D02*
Y1196599D01*
X1230315Y1165102D02*
Y1196599D01*
Y1165354D02*
X1289370D01*
X1230315Y1196850D02*
X1289370D01*
X1131890Y1165102D02*
Y1196599D01*
X1072835Y1165102D02*
Y1196599D01*
Y1165354D02*
X1131890D01*
X1072835Y1196850D02*
X1131890D01*
X226378Y246905D02*
Y278402D01*
X167323Y246905D02*
Y278402D01*
Y278150D02*
X226378D01*
X167323Y246654D02*
X226378D01*
Y296906D02*
Y328402D01*
X167323Y296906D02*
Y328402D01*
Y328150D02*
X226378D01*
X167323Y296654D02*
X226378D01*
Y346906D02*
Y378402D01*
X167323Y346906D02*
Y378402D01*
Y378150D02*
X226378D01*
X167323Y346654D02*
X226378D01*
Y396906D02*
Y428402D01*
X167323Y396906D02*
Y428402D01*
Y428150D02*
X226378D01*
X167323Y396654D02*
X226378D01*
Y446906D02*
Y478402D01*
X167323Y446906D02*
Y478402D01*
Y478150D02*
X226378D01*
X167323Y446654D02*
X226378D01*
Y496906D02*
Y528402D01*
X167323Y496906D02*
Y528402D01*
Y528150D02*
X226378D01*
X167323Y496654D02*
X226378D01*
Y546905D02*
Y578402D01*
X167323Y546905D02*
Y578402D01*
Y578150D02*
X226378D01*
X167323Y546654D02*
X226378D01*
%TF.MD5,c625a8bccbc01fdc4793a9e8fee36b07*%
M02*
