M48
;Layer_Color=9474304
;FILE_FORMAT=2:5
INCH,LZ
;TYPE=PLATED
T1F00S00C0.00787
%
T01
X0182087Y0002756
X0199606Y0003347
X0197835Y-0000984
X0195955Y0008858
Y0014764
X0206201Y000935
X0212598Y0017815
X0219685Y0024803
X0227362Y0020965
X0229921
X0233366
X0237402Y0029429
X0243199Y0014764
Y0009874
X0242913Y0002165
X0246406Y0003851
X0253346Y-0000984
X0262303Y0004921
X0273667Y0002372
X0276575
X0279478Y0002461
X0284449Y0002372
X0287402Y000502
X0290571Y0007874
Y0014
X028248Y0021181
X0279043Y0021012
X0276575Y0020965
X0272855
X0270571Y0014272
X0262894Y001939
X0263878Y0028248
X0264173Y0039114
X027126
Y0046201
X0278346
X0285433
X0288878Y0043898
X0298524Y0046752
X0298327Y003622
X0304161Y0032677
X0301279Y0029429
X0310937Y0032685
X0288386Y0029921
X0279528Y0034843
X0278346Y0039114
X0264173Y0046201
X0257087
X0262795Y006191
X0286614Y0063917
X0288583Y0071358
X0301181Y006989
X0311221Y0061516
X0301575Y0006004
X0290059Y-0000984
X0280118Y0007677
X0238189Y-0000984
X0233268Y0002435
X0230512
X0227362
X022185Y0002362
X0202658Y0025
X0200394Y0039114
X0193307
X0186221Y0039114
X0183268Y0035236
X0182887Y0020984
X0180131Y0020997
X0179134Y0049744
X0181595Y0060335
X020748Y0039114
X0214567
X0172736Y0035039
X0158858
X0156595Y0024016
X0168799Y0019488
X0177362Y0018701
X0177028Y000502
X0174705Y0001575
X0168405Y0006004
X0138878Y0005413
X0128839Y0008661
X0126378Y0013453
X0133465Y0016142
X0136555Y001811
X0136221Y002372
X0133465Y0027608
X0143602Y0035039
X0141339Y0061319
X0135039Y0055807
X0146457Y0070669
X0108366Y0058268
X0103032Y0057087
X0096614Y0055
X007874Y0055118
Y0059055
Y003937
Y0035433
X0092795
X0096949Y0022835
X0097835Y0007776
X0110728Y001063
X0110236Y0014902
X0114173
X0120768Y0022441
X0123524Y0003347
X0079528Y0006988
X0058957Y0007087
X0042717Y0006791
X004685Y0012795
X0034154Y0021752
X003937Y0027559
X0049705Y0033071
X005878Y0031309
X0066043Y0018602
X0052165Y0048094
X0033563Y0053839
X0059842Y0070866
X0106102Y0041535
X0110138Y0037992
X0002953Y008248
X0034252Y008184
X0033268Y0074803
X0047894Y0074902
Y0082579
X0062343
X0092795Y0075
X0108543
X0124291
X0138583Y0075197
X0144882
X0148622
X0156004Y0076378
X016063Y0084744
X0148917Y0091043
X0149016Y0096358
X0144882Y01
X0138583
X0141535Y0104429
X0147165Y0110236
X0147343Y011752
X0143405Y0120276
X0137992Y0125787
X0131417Y0129921
Y011811
X0115669
X0117224Y0113681
X0119587Y0108957
X0122933Y0102854
X0114567Y0096457
X0115561Y0090463
X0131309
X0130905Y0095965
X0138583Y0088976
X0141339Y0086319
X0144882Y0088976
X0135945Y0082441
X0099705Y0090354
X0099921Y011811
Y0129921
X0115669Y0129871
X0117815Y0123524
X0175394Y010315
X0178248Y0075197
X003937Y0106299
X0030807Y0129921
X0186221Y0124153
X0186811Y010935
X0186221Y0102894
Y0095807
X0193209Y0101969
X0205906Y010748
X0223819
X0220276Y0100394
X023248Y0098228
X0210433Y00875
X0193307Y0081634
X027126Y0074213
X0271358Y0095177
X0289272Y0089764
X0298721Y0084055
X0308661Y0076531
X0306831Y0116339
X0301831
X0290256Y012185
X0290551Y013002
X028002Y0131102
X027126Y013124
X026998Y0124409
X026309Y0124213
X026063Y013124
X025876Y0106102
X0289862Y0109252
M30
