M48
;Layer_Color=9474304
;FILE_FORMAT=2:5
INCH,LZ
;TYPE=PLATED
T1F00S00C0.00787
%
T01
X0192028Y0011417
X0211811Y0007874
X0227801Y0005906
X0222441Y0021358
Y0033612
X0222933Y005
X0218898Y0050197
X0216339Y005315
X0211614Y005
X020748Y0043799
X0222933Y0057579
X025315Y005624
Y005124
Y004624
Y004124
Y003624
Y003124
Y002624
X0258071Y0039075
X0265256Y0020079
X0283472Y0021124
X0283661Y002624
X0283465Y003124
Y003624
X0286221Y0038386
X0283465Y004124
Y004624
Y005124
Y005624
Y006124
X0286024Y005876
X025315Y006124
X0181988Y0057579
X0285925Y0012894
X0178347Y0036909
X0164764Y0035138
X0168209Y0044193
X0161614Y005
X0145669Y0049263
X0143705Y0051181
X0145669Y005315
X0143705Y0055118
Y0047244
X0145669Y0045276
X0143705Y0043307
X0145669Y0041339
X014589Y0019685
Y0015748
Y0011811
X0143705Y001378
Y0017717
X0153839Y0018504
X0143307Y0004528
X0137795Y0003717
X0133858
X0135827Y0005902
X0125984Y0016138
X0124016Y0014173
X0120129
X0122047Y0016138
X011811
X0116142Y0014173
X0114173Y0016138
X0112205Y0014173
X0110236Y0024114
X0108268Y002215
X0104381
X0106299Y0024114
X0102362
X0100394Y002215
X0098425Y0024114
X0096457Y002215
X0099384Y003349
X0101349Y0035458
X0111024Y0031004
X0112324Y0054848
X0114123Y0056693
X0110236
X0108268Y0054728
X0116142
X011811Y0056693
X0120079Y0054728
X0122047Y0056693
X0155709Y0071161
X0066142Y005124
Y004624
X0031496Y004624
Y004124
Y003624
Y003124
X0031496Y002624
Y005124
X0031496Y005624
Y006124
X0036713Y0073622
X0027953Y0086024
X0031496Y009124
Y009624
Y010124
X0031496Y010624
X0031496Y011124
Y011624
Y012124
Y012624
X0047244Y012624
Y012124
Y011624
Y011124
X0047343Y0106358
X0047244Y010124
X0037008Y0109843
Y0137106
X0047244Y013624
X0047244Y013124
X0038386Y0148327
X0248622Y015502
X0286713Y0088484
X0298622Y0089862
M30
