G04*
G04 #@! TF.GenerationSoftware,Altium Limited,Altium Designer,20.0.13 (296)*
G04*
G04 Layer_Color=32896*
%FSLAX25Y25*%
%MOIN*%
G70*
G01*
G75*
%ADD109C,0.01000*%
G36*
X167261Y-54174D02*
X167295Y-54177D01*
X167334Y-54184D01*
X167378Y-54190D01*
X167428Y-54200D01*
X167478Y-54210D01*
X167531Y-54227D01*
X167584Y-54244D01*
X167638Y-54267D01*
X167687Y-54294D01*
X167741Y-54324D01*
X167787Y-54360D01*
X167831Y-54400D01*
X167834Y-54403D01*
X167841Y-54410D01*
X167851Y-54423D01*
X167867Y-54443D01*
X167884Y-54467D01*
X167901Y-54497D01*
X167920Y-54533D01*
X167944Y-54573D01*
X167964Y-54623D01*
X167984Y-54673D01*
X168000Y-54733D01*
X168020Y-54796D01*
X168034Y-54866D01*
X168044Y-54940D01*
X168050Y-55023D01*
X168054Y-55109D01*
Y-57017D01*
X167581D01*
Y-55266D01*
Y-55263D01*
Y-55253D01*
Y-55239D01*
Y-55219D01*
Y-55196D01*
X167578Y-55169D01*
X167574Y-55109D01*
X167571Y-55043D01*
X167561Y-54976D01*
X167551Y-54913D01*
X167541Y-54883D01*
X167534Y-54860D01*
X167531Y-54853D01*
X167524Y-54840D01*
X167514Y-54816D01*
X167498Y-54786D01*
X167474Y-54753D01*
X167444Y-54720D01*
X167411Y-54686D01*
X167368Y-54656D01*
X167361Y-54653D01*
X167348Y-54643D01*
X167321Y-54633D01*
X167288Y-54616D01*
X167245Y-54603D01*
X167198Y-54593D01*
X167145Y-54583D01*
X167085Y-54580D01*
X167058D01*
X167035Y-54583D01*
X167011Y-54587D01*
X166981Y-54590D01*
X166948Y-54597D01*
X166915Y-54603D01*
X166838Y-54627D01*
X166798Y-54643D01*
X166755Y-54663D01*
X166715Y-54686D01*
X166675Y-54710D01*
X166635Y-54743D01*
X166598Y-54776D01*
X166595Y-54780D01*
X166592Y-54786D01*
X166582Y-54796D01*
X166569Y-54813D01*
X166555Y-54836D01*
X166539Y-54860D01*
X166519Y-54893D01*
X166502Y-54930D01*
X166485Y-54970D01*
X166465Y-55016D01*
X166449Y-55066D01*
X166435Y-55123D01*
X166422Y-55186D01*
X166415Y-55253D01*
X166409Y-55326D01*
X166405Y-55402D01*
Y-57017D01*
X165933D01*
Y-55209D01*
Y-55206D01*
Y-55196D01*
Y-55179D01*
X165929Y-55159D01*
Y-55133D01*
X165926Y-55103D01*
X165919Y-55033D01*
X165902Y-54956D01*
X165883Y-54880D01*
X165856Y-54806D01*
X165836Y-54770D01*
X165816Y-54740D01*
Y-54736D01*
X165809Y-54733D01*
X165793Y-54713D01*
X165766Y-54690D01*
X165726Y-54660D01*
X165676Y-54630D01*
X165610Y-54603D01*
X165573Y-54593D01*
X165533Y-54587D01*
X165486Y-54583D01*
X165440Y-54580D01*
X165406D01*
X165390Y-54583D01*
X165366Y-54587D01*
X165320Y-54593D01*
X165263Y-54607D01*
X165200Y-54623D01*
X165133Y-54650D01*
X165070Y-54686D01*
X165067D01*
X165063Y-54690D01*
X165043Y-54707D01*
X165013Y-54730D01*
X164977Y-54763D01*
X164937Y-54806D01*
X164897Y-54860D01*
X164860Y-54923D01*
X164827Y-54993D01*
Y-54996D01*
X164824Y-55003D01*
X164820Y-55013D01*
X164817Y-55029D01*
X164810Y-55053D01*
X164804Y-55076D01*
X164797Y-55106D01*
X164790Y-55143D01*
X164784Y-55179D01*
X164777Y-55223D01*
X164770Y-55273D01*
X164764Y-55326D01*
X164760Y-55379D01*
X164757Y-55442D01*
X164754Y-55506D01*
Y-55576D01*
Y-57017D01*
X164281D01*
Y-54234D01*
X164704D01*
Y-54623D01*
X164710Y-54616D01*
X164717Y-54607D01*
X164727Y-54593D01*
X164757Y-54553D01*
X164797Y-54507D01*
X164847Y-54457D01*
X164903Y-54400D01*
X164973Y-54347D01*
X165050Y-54297D01*
X165053D01*
X165060Y-54290D01*
X165073Y-54284D01*
X165090Y-54277D01*
X165110Y-54267D01*
X165133Y-54257D01*
X165163Y-54247D01*
X165193Y-54234D01*
X165267Y-54210D01*
X165350Y-54190D01*
X165446Y-54177D01*
X165546Y-54170D01*
X165576D01*
X165596Y-54174D01*
X165623D01*
X165656Y-54177D01*
X165689Y-54180D01*
X165726Y-54187D01*
X165806Y-54200D01*
X165889Y-54224D01*
X165976Y-54257D01*
X166052Y-54300D01*
X166056D01*
X166062Y-54307D01*
X166072Y-54313D01*
X166086Y-54324D01*
X166119Y-54353D01*
X166162Y-54393D01*
X166206Y-54443D01*
X166252Y-54507D01*
X166296Y-54580D01*
X166332Y-54660D01*
X166335Y-54653D01*
X166349Y-54640D01*
X166365Y-54613D01*
X166392Y-54583D01*
X166425Y-54547D01*
X166465Y-54503D01*
X166512Y-54460D01*
X166562Y-54413D01*
X166622Y-54370D01*
X166688Y-54324D01*
X166758Y-54284D01*
X166835Y-54247D01*
X166915Y-54217D01*
X167001Y-54190D01*
X167095Y-54177D01*
X167191Y-54170D01*
X167231D01*
X167261Y-54174D01*
D02*
G37*
G36*
X162792D02*
X162826Y-54177D01*
X162866Y-54184D01*
X162909Y-54190D01*
X162959Y-54200D01*
X163009Y-54210D01*
X163062Y-54227D01*
X163115Y-54244D01*
X163169Y-54267D01*
X163219Y-54294D01*
X163272Y-54324D01*
X163319Y-54360D01*
X163362Y-54400D01*
X163365Y-54403D01*
X163372Y-54410D01*
X163382Y-54423D01*
X163398Y-54443D01*
X163415Y-54467D01*
X163432Y-54497D01*
X163452Y-54533D01*
X163475Y-54573D01*
X163495Y-54623D01*
X163515Y-54673D01*
X163532Y-54733D01*
X163552Y-54796D01*
X163565Y-54866D01*
X163575Y-54940D01*
X163582Y-55023D01*
X163585Y-55109D01*
Y-57017D01*
X163112D01*
Y-55266D01*
Y-55263D01*
Y-55253D01*
Y-55239D01*
Y-55219D01*
Y-55196D01*
X163109Y-55169D01*
X163105Y-55109D01*
X163102Y-55043D01*
X163092Y-54976D01*
X163082Y-54913D01*
X163072Y-54883D01*
X163065Y-54860D01*
X163062Y-54853D01*
X163055Y-54840D01*
X163045Y-54816D01*
X163029Y-54786D01*
X163005Y-54753D01*
X162976Y-54720D01*
X162942Y-54686D01*
X162899Y-54656D01*
X162892Y-54653D01*
X162879Y-54643D01*
X162852Y-54633D01*
X162819Y-54616D01*
X162776Y-54603D01*
X162729Y-54593D01*
X162676Y-54583D01*
X162616Y-54580D01*
X162589D01*
X162566Y-54583D01*
X162543Y-54587D01*
X162513Y-54590D01*
X162479Y-54597D01*
X162446Y-54603D01*
X162369Y-54627D01*
X162329Y-54643D01*
X162286Y-54663D01*
X162246Y-54686D01*
X162206Y-54710D01*
X162166Y-54743D01*
X162130Y-54776D01*
X162126Y-54780D01*
X162123Y-54786D01*
X162113Y-54796D01*
X162100Y-54813D01*
X162086Y-54836D01*
X162070Y-54860D01*
X162050Y-54893D01*
X162033Y-54930D01*
X162016Y-54970D01*
X161996Y-55016D01*
X161980Y-55066D01*
X161967Y-55123D01*
X161953Y-55186D01*
X161946Y-55253D01*
X161940Y-55326D01*
X161936Y-55402D01*
Y-57017D01*
X161464D01*
Y-55209D01*
Y-55206D01*
Y-55196D01*
Y-55179D01*
X161460Y-55159D01*
Y-55133D01*
X161457Y-55103D01*
X161450Y-55033D01*
X161434Y-54956D01*
X161414Y-54880D01*
X161387Y-54806D01*
X161367Y-54770D01*
X161347Y-54740D01*
Y-54736D01*
X161340Y-54733D01*
X161324Y-54713D01*
X161297Y-54690D01*
X161257Y-54660D01*
X161207Y-54630D01*
X161141Y-54603D01*
X161104Y-54593D01*
X161064Y-54587D01*
X161017Y-54583D01*
X160971Y-54580D01*
X160938D01*
X160921Y-54583D01*
X160898Y-54587D01*
X160851Y-54593D01*
X160794Y-54607D01*
X160731Y-54623D01*
X160664Y-54650D01*
X160601Y-54686D01*
X160598D01*
X160594Y-54690D01*
X160574Y-54707D01*
X160545Y-54730D01*
X160508Y-54763D01*
X160468Y-54806D01*
X160428Y-54860D01*
X160391Y-54923D01*
X160358Y-54993D01*
Y-54996D01*
X160355Y-55003D01*
X160351Y-55013D01*
X160348Y-55029D01*
X160342Y-55053D01*
X160335Y-55076D01*
X160328Y-55106D01*
X160321Y-55143D01*
X160315Y-55179D01*
X160308Y-55223D01*
X160301Y-55273D01*
X160295Y-55326D01*
X160292Y-55379D01*
X160288Y-55442D01*
X160285Y-55506D01*
Y-55576D01*
Y-57017D01*
X159812D01*
Y-54234D01*
X160235D01*
Y-54623D01*
X160242Y-54616D01*
X160248Y-54607D01*
X160258Y-54593D01*
X160288Y-54553D01*
X160328Y-54507D01*
X160378Y-54457D01*
X160435Y-54400D01*
X160505Y-54347D01*
X160581Y-54297D01*
X160584D01*
X160591Y-54290D01*
X160605Y-54284D01*
X160621Y-54277D01*
X160641Y-54267D01*
X160664Y-54257D01*
X160694Y-54247D01*
X160724Y-54234D01*
X160798Y-54210D01*
X160881Y-54190D01*
X160977Y-54177D01*
X161077Y-54170D01*
X161107D01*
X161127Y-54174D01*
X161154D01*
X161187Y-54177D01*
X161221Y-54180D01*
X161257Y-54187D01*
X161337Y-54200D01*
X161420Y-54224D01*
X161507Y-54257D01*
X161583Y-54300D01*
X161587D01*
X161593Y-54307D01*
X161603Y-54313D01*
X161617Y-54324D01*
X161650Y-54353D01*
X161693Y-54393D01*
X161737Y-54443D01*
X161783Y-54507D01*
X161827Y-54580D01*
X161863Y-54660D01*
X161867Y-54653D01*
X161880Y-54640D01*
X161897Y-54613D01*
X161923Y-54583D01*
X161957Y-54547D01*
X161996Y-54503D01*
X162043Y-54460D01*
X162093Y-54413D01*
X162153Y-54370D01*
X162220Y-54324D01*
X162290Y-54284D01*
X162366Y-54247D01*
X162446Y-54217D01*
X162533Y-54190D01*
X162626Y-54177D01*
X162722Y-54170D01*
X162762D01*
X162792Y-54174D01*
D02*
G37*
G36*
X154727Y-53168D02*
X154754D01*
X154784Y-53171D01*
X154817Y-53175D01*
X154857Y-53181D01*
X154940Y-53195D01*
X155030Y-53218D01*
X155123Y-53248D01*
X155213Y-53291D01*
X155217D01*
X155223Y-53298D01*
X155237Y-53304D01*
X155253Y-53315D01*
X155273Y-53328D01*
X155297Y-53341D01*
X155350Y-53381D01*
X155413Y-53434D01*
X155476Y-53494D01*
X155540Y-53568D01*
X155599Y-53651D01*
X155603Y-53654D01*
X155606Y-53661D01*
X155613Y-53674D01*
X155626Y-53691D01*
X155636Y-53714D01*
X155653Y-53741D01*
X155669Y-53774D01*
X155686Y-53811D01*
X155706Y-53847D01*
X155726Y-53891D01*
X155746Y-53941D01*
X155766Y-53991D01*
X155803Y-54100D01*
X155839Y-54220D01*
Y-54224D01*
X155843Y-54237D01*
X155846Y-54254D01*
X155853Y-54280D01*
X155859Y-54317D01*
X155866Y-54357D01*
X155876Y-54403D01*
X155883Y-54460D01*
X155889Y-54520D01*
X155899Y-54590D01*
X155906Y-54663D01*
X155913Y-54743D01*
X155919Y-54830D01*
X155922Y-54923D01*
X155926Y-55023D01*
Y-55126D01*
Y-55129D01*
Y-55133D01*
Y-55143D01*
Y-55156D01*
Y-55193D01*
X155922Y-55239D01*
Y-55296D01*
X155919Y-55362D01*
X155916Y-55436D01*
X155909Y-55516D01*
X155903Y-55602D01*
X155893Y-55689D01*
X155866Y-55872D01*
X155853Y-55962D01*
X155833Y-56052D01*
X155809Y-56138D01*
X155786Y-56218D01*
Y-56222D01*
X155779Y-56235D01*
X155773Y-56258D01*
X155759Y-56285D01*
X155746Y-56322D01*
X155726Y-56362D01*
X155706Y-56405D01*
X155683Y-56451D01*
X155623Y-56555D01*
X155553Y-56661D01*
X155466Y-56764D01*
X155420Y-56814D01*
X155370Y-56858D01*
X155366Y-56861D01*
X155356Y-56868D01*
X155343Y-56878D01*
X155320Y-56891D01*
X155293Y-56911D01*
X155260Y-56928D01*
X155223Y-56948D01*
X155180Y-56968D01*
X155130Y-56991D01*
X155080Y-57011D01*
X155020Y-57028D01*
X154960Y-57044D01*
X154894Y-57061D01*
X154824Y-57071D01*
X154750Y-57077D01*
X154674Y-57081D01*
X154650D01*
X154621Y-57077D01*
X154580Y-57074D01*
X154534Y-57067D01*
X154481Y-57061D01*
X154421Y-57047D01*
X154357Y-57031D01*
X154288Y-57011D01*
X154218Y-56984D01*
X154144Y-56954D01*
X154071Y-56914D01*
X153998Y-56871D01*
X153931Y-56818D01*
X153865Y-56758D01*
X153801Y-56688D01*
X153798Y-56681D01*
X153785Y-56665D01*
X153768Y-56634D01*
X153741Y-56595D01*
X153715Y-56541D01*
X153681Y-56478D01*
X153648Y-56401D01*
X153612Y-56312D01*
X153575Y-56208D01*
X153542Y-56095D01*
X153508Y-55965D01*
X153482Y-55825D01*
X153468Y-55749D01*
X153458Y-55672D01*
X153448Y-55589D01*
X153438Y-55502D01*
X153432Y-55412D01*
X153425Y-55322D01*
X153422Y-55226D01*
Y-55126D01*
Y-55123D01*
Y-55119D01*
Y-55109D01*
Y-55096D01*
Y-55059D01*
X153425Y-55013D01*
Y-54956D01*
X153428Y-54890D01*
X153435Y-54816D01*
X153438Y-54733D01*
X153448Y-54650D01*
X153455Y-54560D01*
X153482Y-54377D01*
X153498Y-54287D01*
X153515Y-54197D01*
X153538Y-54110D01*
X153562Y-54031D01*
X153565Y-54027D01*
X153568Y-54010D01*
X153575Y-53991D01*
X153588Y-53961D01*
X153602Y-53927D01*
X153621Y-53887D01*
X153641Y-53844D01*
X153665Y-53794D01*
X153725Y-53691D01*
X153795Y-53584D01*
X153881Y-53481D01*
X153928Y-53434D01*
X153978Y-53391D01*
X153981Y-53388D01*
X153991Y-53381D01*
X154008Y-53371D01*
X154028Y-53355D01*
X154054Y-53338D01*
X154088Y-53318D01*
X154124Y-53298D01*
X154168Y-53278D01*
X154218Y-53258D01*
X154271Y-53235D01*
X154327Y-53218D01*
X154387Y-53201D01*
X154454Y-53185D01*
X154524Y-53175D01*
X154597Y-53168D01*
X154674Y-53165D01*
X154704D01*
X154727Y-53168D01*
D02*
G37*
G36*
X151743D02*
X151770D01*
X151800Y-53171D01*
X151833Y-53175D01*
X151873Y-53181D01*
X151956Y-53195D01*
X152046Y-53218D01*
X152140Y-53248D01*
X152230Y-53291D01*
X152233D01*
X152240Y-53298D01*
X152253Y-53304D01*
X152269Y-53315D01*
X152289Y-53328D01*
X152313Y-53341D01*
X152366Y-53381D01*
X152429Y-53434D01*
X152493Y-53494D01*
X152556Y-53568D01*
X152616Y-53651D01*
X152619Y-53654D01*
X152622Y-53661D01*
X152629Y-53674D01*
X152643Y-53691D01*
X152653Y-53714D01*
X152669Y-53741D01*
X152686Y-53774D01*
X152702Y-53811D01*
X152722Y-53847D01*
X152742Y-53891D01*
X152762Y-53941D01*
X152782Y-53991D01*
X152819Y-54100D01*
X152856Y-54220D01*
Y-54224D01*
X152859Y-54237D01*
X152862Y-54254D01*
X152869Y-54280D01*
X152876Y-54317D01*
X152882Y-54357D01*
X152892Y-54403D01*
X152899Y-54460D01*
X152906Y-54520D01*
X152916Y-54590D01*
X152922Y-54663D01*
X152929Y-54743D01*
X152936Y-54830D01*
X152939Y-54923D01*
X152942Y-55023D01*
Y-55126D01*
Y-55129D01*
Y-55133D01*
Y-55143D01*
Y-55156D01*
Y-55193D01*
X152939Y-55239D01*
Y-55296D01*
X152936Y-55362D01*
X152932Y-55436D01*
X152926Y-55516D01*
X152919Y-55602D01*
X152909Y-55689D01*
X152882Y-55872D01*
X152869Y-55962D01*
X152849Y-56052D01*
X152826Y-56138D01*
X152802Y-56218D01*
Y-56222D01*
X152796Y-56235D01*
X152789Y-56258D01*
X152776Y-56285D01*
X152762Y-56322D01*
X152742Y-56362D01*
X152722Y-56405D01*
X152699Y-56451D01*
X152639Y-56555D01*
X152569Y-56661D01*
X152483Y-56764D01*
X152436Y-56814D01*
X152386Y-56858D01*
X152383Y-56861D01*
X152373Y-56868D01*
X152359Y-56878D01*
X152336Y-56891D01*
X152310Y-56911D01*
X152276Y-56928D01*
X152240Y-56948D01*
X152196Y-56968D01*
X152146Y-56991D01*
X152096Y-57011D01*
X152036Y-57028D01*
X151977Y-57044D01*
X151910Y-57061D01*
X151840Y-57071D01*
X151767Y-57077D01*
X151690Y-57081D01*
X151667D01*
X151637Y-57077D01*
X151597Y-57074D01*
X151550Y-57067D01*
X151497Y-57061D01*
X151437Y-57047D01*
X151374Y-57031D01*
X151304Y-57011D01*
X151234Y-56984D01*
X151161Y-56954D01*
X151087Y-56914D01*
X151014Y-56871D01*
X150947Y-56818D01*
X150881Y-56758D01*
X150818Y-56688D01*
X150814Y-56681D01*
X150801Y-56665D01*
X150784Y-56634D01*
X150758Y-56595D01*
X150731Y-56541D01*
X150698Y-56478D01*
X150664Y-56401D01*
X150628Y-56312D01*
X150591Y-56208D01*
X150558Y-56095D01*
X150525Y-55965D01*
X150498Y-55825D01*
X150485Y-55749D01*
X150475Y-55672D01*
X150465Y-55589D01*
X150455Y-55502D01*
X150448Y-55412D01*
X150441Y-55322D01*
X150438Y-55226D01*
Y-55126D01*
Y-55123D01*
Y-55119D01*
Y-55109D01*
Y-55096D01*
Y-55059D01*
X150441Y-55013D01*
Y-54956D01*
X150445Y-54890D01*
X150451Y-54816D01*
X150455Y-54733D01*
X150465Y-54650D01*
X150471Y-54560D01*
X150498Y-54377D01*
X150515Y-54287D01*
X150531Y-54197D01*
X150555Y-54110D01*
X150578Y-54031D01*
X150581Y-54027D01*
X150584Y-54010D01*
X150591Y-53991D01*
X150604Y-53961D01*
X150618Y-53927D01*
X150638Y-53887D01*
X150658Y-53844D01*
X150681Y-53794D01*
X150741Y-53691D01*
X150811Y-53584D01*
X150898Y-53481D01*
X150944Y-53434D01*
X150994Y-53391D01*
X150997Y-53388D01*
X151007Y-53381D01*
X151024Y-53371D01*
X151044Y-53355D01*
X151071Y-53338D01*
X151104Y-53318D01*
X151141Y-53298D01*
X151184Y-53278D01*
X151234Y-53258D01*
X151287Y-53235D01*
X151344Y-53218D01*
X151404Y-53201D01*
X151470Y-53185D01*
X151540Y-53175D01*
X151613Y-53168D01*
X151690Y-53165D01*
X151720D01*
X151743Y-53168D01*
D02*
G37*
G36*
X147268D02*
X147294D01*
X147325Y-53171D01*
X147358Y-53175D01*
X147398Y-53181D01*
X147481Y-53195D01*
X147571Y-53218D01*
X147664Y-53248D01*
X147754Y-53291D01*
X147757D01*
X147764Y-53298D01*
X147777Y-53304D01*
X147794Y-53315D01*
X147814Y-53328D01*
X147837Y-53341D01*
X147891Y-53381D01*
X147954Y-53434D01*
X148017Y-53494D01*
X148080Y-53568D01*
X148140Y-53651D01*
X148144Y-53654D01*
X148147Y-53661D01*
X148154Y-53674D01*
X148167Y-53691D01*
X148177Y-53714D01*
X148194Y-53741D01*
X148210Y-53774D01*
X148227Y-53811D01*
X148247Y-53847D01*
X148267Y-53891D01*
X148287Y-53941D01*
X148307Y-53991D01*
X148344Y-54100D01*
X148380Y-54220D01*
Y-54224D01*
X148383Y-54237D01*
X148387Y-54254D01*
X148393Y-54280D01*
X148400Y-54317D01*
X148407Y-54357D01*
X148417Y-54403D01*
X148423Y-54460D01*
X148430Y-54520D01*
X148440Y-54590D01*
X148447Y-54663D01*
X148453Y-54743D01*
X148460Y-54830D01*
X148463Y-54923D01*
X148467Y-55023D01*
Y-55126D01*
Y-55129D01*
Y-55133D01*
Y-55143D01*
Y-55156D01*
Y-55193D01*
X148463Y-55239D01*
Y-55296D01*
X148460Y-55362D01*
X148457Y-55436D01*
X148450Y-55516D01*
X148443Y-55602D01*
X148433Y-55689D01*
X148407Y-55872D01*
X148393Y-55962D01*
X148373Y-56052D01*
X148350Y-56138D01*
X148327Y-56218D01*
Y-56222D01*
X148320Y-56235D01*
X148313Y-56258D01*
X148300Y-56285D01*
X148287Y-56322D01*
X148267Y-56362D01*
X148247Y-56405D01*
X148224Y-56451D01*
X148164Y-56555D01*
X148094Y-56661D01*
X148007Y-56764D01*
X147960Y-56814D01*
X147911Y-56858D01*
X147907Y-56861D01*
X147897Y-56868D01*
X147884Y-56878D01*
X147861Y-56891D01*
X147834Y-56911D01*
X147801Y-56928D01*
X147764Y-56948D01*
X147721Y-56968D01*
X147671Y-56991D01*
X147621Y-57011D01*
X147561Y-57028D01*
X147501Y-57044D01*
X147434Y-57061D01*
X147364Y-57071D01*
X147291Y-57077D01*
X147215Y-57081D01*
X147191D01*
X147161Y-57077D01*
X147121Y-57074D01*
X147075Y-57067D01*
X147021Y-57061D01*
X146961Y-57047D01*
X146898Y-57031D01*
X146828Y-57011D01*
X146758Y-56984D01*
X146685Y-56954D01*
X146612Y-56914D01*
X146539Y-56871D01*
X146472Y-56818D01*
X146405Y-56758D01*
X146342Y-56688D01*
X146339Y-56681D01*
X146326Y-56665D01*
X146309Y-56634D01*
X146282Y-56595D01*
X146256Y-56541D01*
X146222Y-56478D01*
X146189Y-56401D01*
X146152Y-56312D01*
X146116Y-56208D01*
X146082Y-56095D01*
X146049Y-55965D01*
X146022Y-55825D01*
X146009Y-55749D01*
X145999Y-55672D01*
X145989Y-55589D01*
X145979Y-55502D01*
X145973Y-55412D01*
X145966Y-55322D01*
X145963Y-55226D01*
Y-55126D01*
Y-55123D01*
Y-55119D01*
Y-55109D01*
Y-55096D01*
Y-55059D01*
X145966Y-55013D01*
Y-54956D01*
X145969Y-54890D01*
X145976Y-54816D01*
X145979Y-54733D01*
X145989Y-54650D01*
X145996Y-54560D01*
X146022Y-54377D01*
X146039Y-54287D01*
X146056Y-54197D01*
X146079Y-54110D01*
X146102Y-54031D01*
X146106Y-54027D01*
X146109Y-54010D01*
X146116Y-53991D01*
X146129Y-53961D01*
X146142Y-53927D01*
X146162Y-53887D01*
X146182Y-53844D01*
X146206Y-53794D01*
X146265Y-53691D01*
X146335Y-53584D01*
X146422Y-53481D01*
X146469Y-53434D01*
X146519Y-53391D01*
X146522Y-53388D01*
X146532Y-53381D01*
X146549Y-53371D01*
X146569Y-53355D01*
X146595Y-53338D01*
X146628Y-53318D01*
X146665Y-53298D01*
X146708Y-53278D01*
X146758Y-53258D01*
X146812Y-53235D01*
X146868Y-53218D01*
X146928Y-53201D01*
X146995Y-53185D01*
X147065Y-53175D01*
X147138Y-53168D01*
X147215Y-53165D01*
X147245D01*
X147268Y-53168D01*
D02*
G37*
G36*
X144278D02*
X144311D01*
X144354Y-53175D01*
X144404Y-53181D01*
X144457Y-53188D01*
X144517Y-53201D01*
X144581Y-53218D01*
X144647Y-53235D01*
X144714Y-53261D01*
X144780Y-53288D01*
X144847Y-53321D01*
X144914Y-53361D01*
X144977Y-53404D01*
X145037Y-53458D01*
X145040Y-53461D01*
X145050Y-53471D01*
X145067Y-53488D01*
X145087Y-53511D01*
X145110Y-53538D01*
X145133Y-53571D01*
X145163Y-53611D01*
X145193Y-53658D01*
X145220Y-53704D01*
X145250Y-53761D01*
X145273Y-53817D01*
X145300Y-53881D01*
X145317Y-53947D01*
X145333Y-54017D01*
X145343Y-54090D01*
X145346Y-54167D01*
Y-54170D01*
Y-54180D01*
Y-54194D01*
X145343Y-54210D01*
Y-54234D01*
X145340Y-54260D01*
X145330Y-54324D01*
X145313Y-54397D01*
X145287Y-54477D01*
X145250Y-54557D01*
X145230Y-54597D01*
X145203Y-54633D01*
Y-54637D01*
X145197Y-54643D01*
X145190Y-54653D01*
X145177Y-54667D01*
X145163Y-54683D01*
X145143Y-54700D01*
X145123Y-54723D01*
X145097Y-54743D01*
X145070Y-54770D01*
X145037Y-54793D01*
X145003Y-54820D01*
X144964Y-54843D01*
X144924Y-54870D01*
X144877Y-54893D01*
X144830Y-54916D01*
X144777Y-54936D01*
X144780D01*
X144794Y-54943D01*
X144810Y-54949D01*
X144834Y-54959D01*
X144864Y-54970D01*
X144900Y-54986D01*
X144937Y-55006D01*
X144977Y-55026D01*
X145063Y-55079D01*
X145153Y-55143D01*
X145240Y-55219D01*
X145280Y-55263D01*
X145317Y-55309D01*
X145320Y-55313D01*
X145323Y-55319D01*
X145333Y-55336D01*
X145346Y-55356D01*
X145360Y-55379D01*
X145376Y-55409D01*
X145393Y-55442D01*
X145410Y-55482D01*
X145426Y-55526D01*
X145443Y-55569D01*
X145460Y-55622D01*
X145473Y-55676D01*
X145496Y-55792D01*
X145500Y-55852D01*
X145503Y-55919D01*
Y-55925D01*
Y-55942D01*
X145500Y-55965D01*
X145496Y-56002D01*
X145493Y-56042D01*
X145483Y-56092D01*
X145473Y-56148D01*
X145460Y-56208D01*
X145440Y-56272D01*
X145416Y-56338D01*
X145390Y-56405D01*
X145356Y-56475D01*
X145317Y-56545D01*
X145270Y-56615D01*
X145217Y-56684D01*
X145153Y-56748D01*
X145150Y-56751D01*
X145137Y-56761D01*
X145117Y-56778D01*
X145090Y-56801D01*
X145053Y-56824D01*
X145013Y-56854D01*
X144964Y-56884D01*
X144907Y-56914D01*
X144844Y-56944D01*
X144777Y-56974D01*
X144700Y-57004D01*
X144621Y-57028D01*
X144534Y-57051D01*
X144441Y-57067D01*
X144341Y-57077D01*
X144238Y-57081D01*
X144211D01*
X144184Y-57077D01*
X144144Y-57074D01*
X144094Y-57071D01*
X144038Y-57064D01*
X143978Y-57054D01*
X143908Y-57038D01*
X143838Y-57021D01*
X143765Y-56998D01*
X143688Y-56971D01*
X143608Y-56938D01*
X143532Y-56901D01*
X143458Y-56854D01*
X143385Y-56804D01*
X143318Y-56744D01*
X143315Y-56741D01*
X143305Y-56728D01*
X143285Y-56711D01*
X143265Y-56684D01*
X143239Y-56651D01*
X143209Y-56611D01*
X143179Y-56565D01*
X143145Y-56515D01*
X143112Y-56455D01*
X143082Y-56391D01*
X143052Y-56325D01*
X143026Y-56248D01*
X143006Y-56172D01*
X142989Y-56088D01*
X142975Y-56002D01*
X142972Y-55909D01*
Y-55905D01*
Y-55892D01*
Y-55872D01*
X142975Y-55845D01*
X142979Y-55812D01*
X142982Y-55775D01*
X142989Y-55735D01*
X142996Y-55689D01*
X143019Y-55589D01*
X143035Y-55536D01*
X143052Y-55486D01*
X143075Y-55432D01*
X143099Y-55379D01*
X143129Y-55329D01*
X143162Y-55279D01*
X143165Y-55276D01*
X143172Y-55269D01*
X143182Y-55256D01*
X143199Y-55239D01*
X143215Y-55219D01*
X143242Y-55193D01*
X143269Y-55169D01*
X143302Y-55143D01*
X143339Y-55113D01*
X143378Y-55083D01*
X143422Y-55056D01*
X143472Y-55026D01*
X143525Y-55003D01*
X143582Y-54976D01*
X143641Y-54956D01*
X143705Y-54936D01*
X143701D01*
X143692Y-54930D01*
X143678Y-54926D01*
X143655Y-54916D01*
X143631Y-54906D01*
X143605Y-54893D01*
X143538Y-54856D01*
X143468Y-54813D01*
X143395Y-54763D01*
X143325Y-54700D01*
X143295Y-54667D01*
X143265Y-54630D01*
Y-54627D01*
X143259Y-54620D01*
X143252Y-54610D01*
X143242Y-54593D01*
X143232Y-54577D01*
X143222Y-54553D01*
X143209Y-54527D01*
X143195Y-54497D01*
X143169Y-54427D01*
X143149Y-54343D01*
X143132Y-54254D01*
X143125Y-54154D01*
Y-54150D01*
Y-54134D01*
X143129Y-54114D01*
Y-54084D01*
X143135Y-54047D01*
X143142Y-54007D01*
X143152Y-53961D01*
X143162Y-53911D01*
X143179Y-53857D01*
X143199Y-53801D01*
X143222Y-53741D01*
X143252Y-53681D01*
X143285Y-53621D01*
X143325Y-53564D01*
X143372Y-53508D01*
X143425Y-53451D01*
X143428Y-53448D01*
X143438Y-53438D01*
X143455Y-53424D01*
X143482Y-53408D01*
X143512Y-53385D01*
X143548Y-53361D01*
X143592Y-53334D01*
X143638Y-53308D01*
X143695Y-53281D01*
X143755Y-53255D01*
X143821Y-53231D01*
X143891Y-53208D01*
X143968Y-53191D01*
X144051Y-53178D01*
X144138Y-53168D01*
X144228Y-53165D01*
X144251D01*
X144278Y-53168D01*
D02*
G37*
G36*
X149735Y-57017D02*
Y-57021D01*
Y-57031D01*
Y-57044D01*
Y-57067D01*
X149732Y-57091D01*
X149729Y-57121D01*
X149722Y-57187D01*
X149709Y-57264D01*
X149692Y-57341D01*
X149665Y-57420D01*
X149629Y-57494D01*
Y-57497D01*
X149626Y-57500D01*
X149619Y-57510D01*
X149609Y-57524D01*
X149585Y-57557D01*
X149549Y-57597D01*
X149502Y-57644D01*
X149446Y-57690D01*
X149379Y-57737D01*
X149299Y-57777D01*
X149169Y-57574D01*
X149173D01*
X149176Y-57570D01*
X149193Y-57560D01*
X149219Y-57547D01*
X149252Y-57524D01*
X149286Y-57497D01*
X149322Y-57464D01*
X149356Y-57424D01*
X149386Y-57380D01*
X149389Y-57374D01*
X149396Y-57357D01*
X149409Y-57327D01*
X149422Y-57287D01*
X149436Y-57237D01*
X149449Y-57174D01*
X149459Y-57101D01*
X149466Y-57017D01*
X149199D01*
Y-56481D01*
X149735D01*
Y-57017D01*
D02*
G37*
G36*
X169056Y-53115D02*
X169063Y-53118D01*
X169069Y-53128D01*
X169079Y-53141D01*
X169089Y-53158D01*
X169103Y-53178D01*
X169136Y-53225D01*
X169179Y-53285D01*
X169226Y-53355D01*
X169276Y-53434D01*
X169332Y-53524D01*
X169389Y-53621D01*
X169452Y-53724D01*
X169512Y-53834D01*
X169572Y-53947D01*
X169629Y-54064D01*
X169685Y-54187D01*
X169739Y-54310D01*
X169785Y-54433D01*
X169789Y-54440D01*
X169795Y-54460D01*
X169805Y-54490D01*
X169819Y-54533D01*
X169832Y-54583D01*
X169849Y-54646D01*
X169869Y-54716D01*
X169889Y-54796D01*
X169905Y-54883D01*
X169925Y-54976D01*
X169942Y-55073D01*
X169958Y-55179D01*
X169968Y-55286D01*
X169978Y-55399D01*
X169985Y-55512D01*
X169989Y-55629D01*
Y-55632D01*
Y-55635D01*
Y-55646D01*
Y-55659D01*
Y-55679D01*
X169985Y-55699D01*
Y-55749D01*
X169982Y-55812D01*
X169975Y-55885D01*
X169965Y-55972D01*
X169955Y-56065D01*
X169939Y-56165D01*
X169922Y-56272D01*
X169899Y-56385D01*
X169872Y-56501D01*
X169842Y-56625D01*
X169805Y-56748D01*
X169762Y-56871D01*
X169715Y-56994D01*
Y-56998D01*
X169712Y-57001D01*
X169709Y-57011D01*
X169702Y-57024D01*
X169689Y-57057D01*
X169666Y-57104D01*
X169639Y-57161D01*
X169609Y-57227D01*
X169572Y-57304D01*
X169532Y-57384D01*
X169486Y-57474D01*
X169436Y-57564D01*
X169379Y-57660D01*
X169323Y-57757D01*
X169259Y-57857D01*
X169196Y-57956D01*
X169126Y-58053D01*
X169056Y-58146D01*
X168720D01*
X168723Y-58143D01*
X168730Y-58133D01*
X168740Y-58113D01*
X168753Y-58090D01*
X168770Y-58060D01*
X168793Y-58023D01*
X168816Y-57980D01*
X168843Y-57930D01*
X168870Y-57877D01*
X168903Y-57817D01*
X168933Y-57753D01*
X168966Y-57683D01*
X169003Y-57607D01*
X169039Y-57530D01*
X169076Y-57447D01*
X169113Y-57361D01*
X169149Y-57271D01*
X169183Y-57177D01*
X169256Y-56981D01*
X169323Y-56771D01*
X169379Y-56555D01*
X169429Y-56328D01*
X169452Y-56215D01*
X169469Y-56098D01*
X169482Y-55982D01*
X169492Y-55865D01*
X169499Y-55745D01*
X169502Y-55629D01*
Y-55622D01*
Y-55606D01*
Y-55579D01*
Y-55546D01*
X169499Y-55499D01*
X169496Y-55449D01*
X169492Y-55389D01*
X169489Y-55322D01*
X169482Y-55253D01*
X169476Y-55176D01*
X169466Y-55096D01*
X169456Y-55010D01*
X169426Y-54833D01*
X169389Y-54653D01*
Y-54650D01*
X169386Y-54637D01*
X169379Y-54613D01*
X169372Y-54587D01*
X169362Y-54550D01*
X169352Y-54510D01*
X169339Y-54463D01*
X169326Y-54410D01*
X169306Y-54357D01*
X169289Y-54297D01*
X169246Y-54167D01*
X169196Y-54034D01*
X169139Y-53897D01*
Y-53894D01*
X169136Y-53887D01*
X169129Y-53871D01*
X169119Y-53851D01*
X169106Y-53827D01*
X169089Y-53794D01*
X169069Y-53757D01*
X169049Y-53711D01*
X169023Y-53661D01*
X168993Y-53604D01*
X168956Y-53538D01*
X168920Y-53468D01*
X168876Y-53388D01*
X168830Y-53304D01*
X168776Y-53211D01*
X168720Y-53111D01*
X169056D01*
Y-53115D01*
D02*
G37*
G36*
X159266Y-53118D02*
X159256Y-53135D01*
X159239Y-53165D01*
X159219Y-53201D01*
X159193Y-53245D01*
X159163Y-53298D01*
X159129Y-53355D01*
X159096Y-53414D01*
X159026Y-53541D01*
X158956Y-53671D01*
X158926Y-53731D01*
X158896Y-53791D01*
X158870Y-53844D01*
X158850Y-53891D01*
X158846Y-53894D01*
X158843Y-53907D01*
X158833Y-53927D01*
X158823Y-53954D01*
X158810Y-53987D01*
X158793Y-54027D01*
X158776Y-54070D01*
X158760Y-54120D01*
X158740Y-54177D01*
X158716Y-54234D01*
X158696Y-54297D01*
X158676Y-54364D01*
X158633Y-54500D01*
X158597Y-54646D01*
Y-54653D01*
X158593Y-54670D01*
X158587Y-54697D01*
X158580Y-54730D01*
X158570Y-54776D01*
X158563Y-54826D01*
X158553Y-54886D01*
X158543Y-54953D01*
X158530Y-55026D01*
X158520Y-55103D01*
X158513Y-55183D01*
X158503Y-55266D01*
X158490Y-55446D01*
X158487Y-55629D01*
Y-55632D01*
Y-55642D01*
Y-55662D01*
Y-55686D01*
X158490Y-55715D01*
X158493Y-55752D01*
Y-55795D01*
X158500Y-55845D01*
X158503Y-55899D01*
X158510Y-55958D01*
X158520Y-56025D01*
X158527Y-56095D01*
X158540Y-56168D01*
X158553Y-56248D01*
X158567Y-56331D01*
X158583Y-56418D01*
X158603Y-56508D01*
X158626Y-56601D01*
X158676Y-56798D01*
X158740Y-57007D01*
X158776Y-57114D01*
X158816Y-57224D01*
X158860Y-57334D01*
X158906Y-57447D01*
X158956Y-57564D01*
X159009Y-57677D01*
X159069Y-57793D01*
X159133Y-57910D01*
X159199Y-58030D01*
X159269Y-58146D01*
X158933D01*
X158930Y-58140D01*
X158916Y-58123D01*
X158896Y-58096D01*
X158866Y-58060D01*
X158833Y-58013D01*
X158793Y-57956D01*
X158750Y-57890D01*
X158703Y-57817D01*
X158653Y-57737D01*
X158600Y-57647D01*
X158543Y-57554D01*
X158487Y-57454D01*
X158430Y-57344D01*
X158377Y-57234D01*
X158324Y-57114D01*
X158270Y-56994D01*
Y-56991D01*
X158267Y-56988D01*
X158264Y-56977D01*
X158260Y-56964D01*
X158254Y-56948D01*
X158247Y-56928D01*
X158227Y-56881D01*
X158207Y-56821D01*
X158184Y-56748D01*
X158160Y-56668D01*
X158137Y-56575D01*
X158110Y-56478D01*
X158087Y-56371D01*
X158064Y-56258D01*
X158044Y-56138D01*
X158027Y-56019D01*
X158014Y-55889D01*
X158004Y-55762D01*
X158001Y-55629D01*
Y-55625D01*
Y-55622D01*
Y-55612D01*
Y-55602D01*
Y-55566D01*
X158004Y-55522D01*
X158007Y-55466D01*
X158010Y-55399D01*
X158017Y-55326D01*
X158027Y-55246D01*
X158037Y-55156D01*
X158050Y-55063D01*
X158067Y-54963D01*
X158084Y-54860D01*
X158107Y-54756D01*
X158134Y-54646D01*
X158164Y-54540D01*
X158200Y-54433D01*
Y-54430D01*
X158204Y-54427D01*
X158207Y-54417D01*
X158210Y-54403D01*
X158217Y-54387D01*
X158227Y-54367D01*
X158244Y-54320D01*
X158270Y-54260D01*
X158300Y-54190D01*
X158337Y-54107D01*
X158380Y-54021D01*
X158430Y-53924D01*
X158483Y-53821D01*
X158543Y-53711D01*
X158610Y-53598D01*
X158680Y-53478D01*
X158760Y-53358D01*
X158843Y-53235D01*
X158933Y-53111D01*
X159269D01*
X159266Y-53118D01*
D02*
G37*
G36*
X366199Y91320D02*
X366249D01*
X366312Y91317D01*
X366385Y91310D01*
X366472Y91300D01*
X366565Y91290D01*
X366665Y91273D01*
X366772Y91257D01*
X366885Y91233D01*
X367001Y91207D01*
X367125Y91177D01*
X367248Y91140D01*
X367371Y91097D01*
X367494Y91050D01*
X367497D01*
X367501Y91047D01*
X367511Y91044D01*
X367524Y91037D01*
X367557Y91023D01*
X367604Y91000D01*
X367661Y90974D01*
X367727Y90944D01*
X367804Y90907D01*
X367884Y90867D01*
X367974Y90820D01*
X368064Y90770D01*
X368160Y90714D01*
X368257Y90657D01*
X368357Y90594D01*
X368457Y90531D01*
X368553Y90461D01*
X368646Y90391D01*
Y90055D01*
X368643Y90058D01*
X368633Y90065D01*
X368613Y90074D01*
X368590Y90088D01*
X368560Y90104D01*
X368523Y90128D01*
X368480Y90151D01*
X368430Y90178D01*
X368377Y90204D01*
X368317Y90238D01*
X368253Y90268D01*
X368183Y90301D01*
X368107Y90338D01*
X368030Y90374D01*
X367947Y90411D01*
X367861Y90447D01*
X367771Y90484D01*
X367677Y90517D01*
X367481Y90591D01*
X367271Y90657D01*
X367055Y90714D01*
X366828Y90764D01*
X366715Y90787D01*
X366598Y90804D01*
X366482Y90817D01*
X366365Y90827D01*
X366245Y90834D01*
X366129Y90837D01*
X366122D01*
X366106D01*
X366079D01*
X366046D01*
X365999Y90834D01*
X365949Y90830D01*
X365889Y90827D01*
X365823Y90824D01*
X365753Y90817D01*
X365676Y90810D01*
X365596Y90800D01*
X365510Y90790D01*
X365333Y90760D01*
X365153Y90724D01*
X365150D01*
X365137Y90720D01*
X365113Y90714D01*
X365087Y90707D01*
X365050Y90697D01*
X365010Y90687D01*
X364963Y90674D01*
X364910Y90661D01*
X364857Y90641D01*
X364797Y90624D01*
X364667Y90581D01*
X364534Y90531D01*
X364397Y90474D01*
X364394D01*
X364387Y90471D01*
X364371Y90464D01*
X364351Y90454D01*
X364327Y90441D01*
X364294Y90424D01*
X364257Y90404D01*
X364211Y90384D01*
X364161Y90358D01*
X364104Y90328D01*
X364038Y90291D01*
X363968Y90254D01*
X363888Y90211D01*
X363805Y90164D01*
X363711Y90111D01*
X363611Y90055D01*
Y90391D01*
X363615D01*
X363618Y90398D01*
X363628Y90404D01*
X363641Y90414D01*
X363658Y90424D01*
X363678Y90437D01*
X363725Y90471D01*
X363785Y90514D01*
X363855Y90561D01*
X363934Y90611D01*
X364024Y90667D01*
X364121Y90724D01*
X364224Y90787D01*
X364334Y90847D01*
X364447Y90907D01*
X364564Y90964D01*
X364687Y91020D01*
X364810Y91074D01*
X364933Y91120D01*
X364940Y91123D01*
X364960Y91130D01*
X364990Y91140D01*
X365033Y91153D01*
X365083Y91167D01*
X365146Y91183D01*
X365216Y91203D01*
X365296Y91223D01*
X365383Y91240D01*
X365476Y91260D01*
X365573Y91277D01*
X365679Y91293D01*
X365786Y91303D01*
X365899Y91313D01*
X366012Y91320D01*
X366129Y91323D01*
X366132D01*
X366136D01*
X366145D01*
X366159D01*
X366179D01*
X366199Y91320D01*
D02*
G37*
G36*
X367517Y88916D02*
X365766D01*
X365763D01*
X365753D01*
X365739D01*
X365719D01*
X365696D01*
X365669Y88912D01*
X365609Y88909D01*
X365543Y88906D01*
X365476Y88896D01*
X365413Y88886D01*
X365383Y88876D01*
X365360Y88869D01*
X365353Y88866D01*
X365340Y88859D01*
X365316Y88849D01*
X365286Y88832D01*
X365253Y88809D01*
X365220Y88779D01*
X365187Y88746D01*
X365157Y88702D01*
X365153Y88696D01*
X365143Y88683D01*
X365133Y88656D01*
X365117Y88623D01*
X365103Y88579D01*
X365093Y88533D01*
X365083Y88479D01*
X365080Y88420D01*
Y88393D01*
X365083Y88370D01*
X365087Y88346D01*
X365090Y88316D01*
X365097Y88283D01*
X365103Y88250D01*
X365126Y88173D01*
X365143Y88133D01*
X365163Y88090D01*
X365187Y88050D01*
X365210Y88010D01*
X365243Y87970D01*
X365276Y87933D01*
X365280Y87930D01*
X365286Y87927D01*
X365296Y87917D01*
X365313Y87903D01*
X365336Y87890D01*
X365360Y87873D01*
X365393Y87853D01*
X365430Y87837D01*
X365470Y87820D01*
X365516Y87800D01*
X365566Y87783D01*
X365623Y87770D01*
X365686Y87757D01*
X365753Y87750D01*
X365826Y87744D01*
X365902Y87740D01*
X367517D01*
Y87267D01*
X365709D01*
X365706D01*
X365696D01*
X365679D01*
X365659Y87264D01*
X365633D01*
X365603Y87261D01*
X365533Y87254D01*
X365456Y87237D01*
X365380Y87217D01*
X365306Y87191D01*
X365270Y87171D01*
X365240Y87151D01*
X365236D01*
X365233Y87144D01*
X365213Y87127D01*
X365190Y87101D01*
X365160Y87061D01*
X365130Y87011D01*
X365103Y86944D01*
X365093Y86908D01*
X365087Y86868D01*
X365083Y86821D01*
X365080Y86774D01*
Y86741D01*
X365083Y86725D01*
X365087Y86701D01*
X365093Y86655D01*
X365107Y86598D01*
X365123Y86535D01*
X365150Y86468D01*
X365187Y86405D01*
Y86401D01*
X365190Y86398D01*
X365207Y86378D01*
X365230Y86348D01*
X365263Y86312D01*
X365306Y86272D01*
X365360Y86232D01*
X365423Y86195D01*
X365493Y86162D01*
X365496D01*
X365503Y86158D01*
X365513Y86155D01*
X365529Y86152D01*
X365553Y86145D01*
X365576Y86138D01*
X365606Y86132D01*
X365643Y86125D01*
X365679Y86118D01*
X365723Y86112D01*
X365773Y86105D01*
X365826Y86098D01*
X365879Y86095D01*
X365942Y86092D01*
X366006Y86089D01*
X366076D01*
X367517D01*
Y85616D01*
X364734D01*
Y86039D01*
X365123D01*
X365117Y86045D01*
X365107Y86052D01*
X365093Y86062D01*
X365053Y86092D01*
X365007Y86132D01*
X364957Y86182D01*
X364900Y86238D01*
X364847Y86308D01*
X364797Y86385D01*
Y86388D01*
X364790Y86395D01*
X364784Y86408D01*
X364777Y86425D01*
X364767Y86445D01*
X364757Y86468D01*
X364747Y86498D01*
X364734Y86528D01*
X364710Y86601D01*
X364690Y86685D01*
X364677Y86781D01*
X364670Y86881D01*
Y86911D01*
X364674Y86931D01*
Y86958D01*
X364677Y86991D01*
X364680Y87024D01*
X364687Y87061D01*
X364700Y87141D01*
X364724Y87224D01*
X364757Y87311D01*
X364800Y87387D01*
Y87391D01*
X364807Y87397D01*
X364813Y87407D01*
X364824Y87420D01*
X364854Y87454D01*
X364893Y87497D01*
X364943Y87540D01*
X365007Y87587D01*
X365080Y87630D01*
X365160Y87667D01*
X365153Y87670D01*
X365140Y87683D01*
X365113Y87700D01*
X365083Y87727D01*
X365047Y87760D01*
X365003Y87800D01*
X364960Y87847D01*
X364913Y87897D01*
X364870Y87957D01*
X364824Y88023D01*
X364784Y88093D01*
X364747Y88170D01*
X364717Y88250D01*
X364690Y88336D01*
X364677Y88429D01*
X364670Y88526D01*
Y88566D01*
X364674Y88596D01*
X364677Y88629D01*
X364684Y88669D01*
X364690Y88713D01*
X364700Y88762D01*
X364710Y88812D01*
X364727Y88866D01*
X364744Y88919D01*
X364767Y88972D01*
X364793Y89022D01*
X364824Y89075D01*
X364860Y89122D01*
X364900Y89165D01*
X364903Y89169D01*
X364910Y89175D01*
X364923Y89185D01*
X364943Y89202D01*
X364967Y89219D01*
X364997Y89235D01*
X365033Y89255D01*
X365073Y89279D01*
X365123Y89299D01*
X365173Y89319D01*
X365233Y89335D01*
X365296Y89355D01*
X365366Y89368D01*
X365440Y89378D01*
X365523Y89385D01*
X365609Y89389D01*
X367517D01*
Y88916D01*
D02*
G37*
G36*
Y84447D02*
X365766D01*
X365763D01*
X365753D01*
X365739D01*
X365719D01*
X365696D01*
X365669Y84443D01*
X365609Y84440D01*
X365543Y84437D01*
X365476Y84427D01*
X365413Y84417D01*
X365383Y84407D01*
X365360Y84400D01*
X365353Y84397D01*
X365340Y84390D01*
X365316Y84380D01*
X365286Y84364D01*
X365253Y84340D01*
X365220Y84310D01*
X365187Y84277D01*
X365157Y84234D01*
X365153Y84227D01*
X365143Y84214D01*
X365133Y84187D01*
X365117Y84154D01*
X365103Y84110D01*
X365093Y84064D01*
X365083Y84010D01*
X365080Y83951D01*
Y83924D01*
X365083Y83901D01*
X365087Y83877D01*
X365090Y83847D01*
X365097Y83814D01*
X365103Y83781D01*
X365126Y83704D01*
X365143Y83664D01*
X365163Y83621D01*
X365187Y83581D01*
X365210Y83541D01*
X365243Y83501D01*
X365276Y83464D01*
X365280Y83461D01*
X365286Y83458D01*
X365296Y83448D01*
X365313Y83434D01*
X365336Y83421D01*
X365360Y83404D01*
X365393Y83385D01*
X365430Y83368D01*
X365470Y83351D01*
X365516Y83331D01*
X365566Y83315D01*
X365623Y83301D01*
X365686Y83288D01*
X365753Y83281D01*
X365826Y83275D01*
X365902Y83271D01*
X367517D01*
Y82798D01*
X365709D01*
X365706D01*
X365696D01*
X365679D01*
X365659Y82795D01*
X365633D01*
X365603Y82792D01*
X365533Y82785D01*
X365456Y82768D01*
X365380Y82749D01*
X365306Y82722D01*
X365270Y82702D01*
X365240Y82682D01*
X365236D01*
X365233Y82675D01*
X365213Y82659D01*
X365190Y82632D01*
X365160Y82592D01*
X365130Y82542D01*
X365103Y82475D01*
X365093Y82439D01*
X365087Y82399D01*
X365083Y82352D01*
X365080Y82306D01*
Y82272D01*
X365083Y82256D01*
X365087Y82232D01*
X365093Y82186D01*
X365107Y82129D01*
X365123Y82066D01*
X365150Y81999D01*
X365187Y81936D01*
Y81933D01*
X365190Y81929D01*
X365207Y81909D01*
X365230Y81879D01*
X365263Y81843D01*
X365306Y81803D01*
X365360Y81763D01*
X365423Y81726D01*
X365493Y81693D01*
X365496D01*
X365503Y81690D01*
X365513Y81686D01*
X365529Y81683D01*
X365553Y81676D01*
X365576Y81670D01*
X365606Y81663D01*
X365643Y81656D01*
X365679Y81650D01*
X365723Y81643D01*
X365773Y81636D01*
X365826Y81630D01*
X365879Y81626D01*
X365942Y81623D01*
X366006Y81620D01*
X366076D01*
X367517D01*
Y81147D01*
X364734D01*
Y81570D01*
X365123D01*
X365117Y81576D01*
X365107Y81583D01*
X365093Y81593D01*
X365053Y81623D01*
X365007Y81663D01*
X364957Y81713D01*
X364900Y81769D01*
X364847Y81839D01*
X364797Y81916D01*
Y81919D01*
X364790Y81926D01*
X364784Y81939D01*
X364777Y81956D01*
X364767Y81976D01*
X364757Y81999D01*
X364747Y82029D01*
X364734Y82059D01*
X364710Y82132D01*
X364690Y82216D01*
X364677Y82312D01*
X364670Y82412D01*
Y82442D01*
X364674Y82462D01*
Y82489D01*
X364677Y82522D01*
X364680Y82555D01*
X364687Y82592D01*
X364700Y82672D01*
X364724Y82755D01*
X364757Y82842D01*
X364800Y82918D01*
Y82922D01*
X364807Y82928D01*
X364813Y82938D01*
X364824Y82952D01*
X364854Y82985D01*
X364893Y83028D01*
X364943Y83072D01*
X365007Y83118D01*
X365080Y83161D01*
X365160Y83198D01*
X365153Y83201D01*
X365140Y83215D01*
X365113Y83231D01*
X365083Y83258D01*
X365047Y83291D01*
X365003Y83331D01*
X364960Y83378D01*
X364913Y83428D01*
X364870Y83488D01*
X364824Y83554D01*
X364784Y83624D01*
X364747Y83701D01*
X364717Y83781D01*
X364690Y83867D01*
X364677Y83961D01*
X364670Y84057D01*
Y84097D01*
X364674Y84127D01*
X364677Y84160D01*
X364684Y84200D01*
X364690Y84244D01*
X364700Y84294D01*
X364710Y84343D01*
X364727Y84397D01*
X364744Y84450D01*
X364767Y84503D01*
X364793Y84553D01*
X364824Y84607D01*
X364860Y84653D01*
X364900Y84697D01*
X364903Y84700D01*
X364910Y84706D01*
X364923Y84716D01*
X364943Y84733D01*
X364967Y84750D01*
X364997Y84766D01*
X365033Y84786D01*
X365073Y84810D01*
X365123Y84830D01*
X365173Y84850D01*
X365233Y84866D01*
X365296Y84886D01*
X365366Y84900D01*
X365440Y84910D01*
X365523Y84916D01*
X365609Y84920D01*
X367517D01*
Y84447D01*
D02*
G37*
G36*
X368646Y80268D02*
X368640Y80264D01*
X368623Y80251D01*
X368596Y80231D01*
X368560Y80201D01*
X368513Y80168D01*
X368457Y80128D01*
X368390Y80085D01*
X368317Y80038D01*
X368237Y79988D01*
X368147Y79935D01*
X368054Y79878D01*
X367954Y79821D01*
X367844Y79765D01*
X367734Y79712D01*
X367614Y79658D01*
X367494Y79605D01*
X367491D01*
X367488Y79602D01*
X367477Y79598D01*
X367464Y79595D01*
X367448Y79588D01*
X367428Y79582D01*
X367381Y79562D01*
X367321Y79542D01*
X367248Y79518D01*
X367168Y79495D01*
X367075Y79472D01*
X366978Y79445D01*
X366872Y79422D01*
X366758Y79399D01*
X366638Y79378D01*
X366518Y79362D01*
X366389Y79348D01*
X366262Y79339D01*
X366129Y79335D01*
X366125D01*
X366122D01*
X366112D01*
X366102D01*
X366066D01*
X366022Y79339D01*
X365966Y79342D01*
X365899Y79345D01*
X365826Y79352D01*
X365746Y79362D01*
X365656Y79372D01*
X365563Y79385D01*
X365463Y79402D01*
X365360Y79418D01*
X365256Y79442D01*
X365146Y79468D01*
X365040Y79498D01*
X364933Y79535D01*
X364930D01*
X364927Y79538D01*
X364917Y79542D01*
X364903Y79545D01*
X364887Y79552D01*
X364867Y79562D01*
X364820Y79578D01*
X364760Y79605D01*
X364690Y79635D01*
X364607Y79672D01*
X364521Y79715D01*
X364424Y79765D01*
X364321Y79818D01*
X364211Y79878D01*
X364098Y79945D01*
X363978Y80014D01*
X363858Y80094D01*
X363735Y80178D01*
X363611Y80268D01*
Y80604D01*
X363618Y80601D01*
X363635Y80591D01*
X363665Y80574D01*
X363701Y80554D01*
X363745Y80527D01*
X363798Y80497D01*
X363855Y80464D01*
X363914Y80431D01*
X364041Y80361D01*
X364171Y80291D01*
X364231Y80261D01*
X364291Y80231D01*
X364344Y80204D01*
X364391Y80184D01*
X364394Y80181D01*
X364407Y80178D01*
X364427Y80168D01*
X364454Y80158D01*
X364487Y80144D01*
X364527Y80128D01*
X364570Y80111D01*
X364620Y80094D01*
X364677Y80075D01*
X364734Y80051D01*
X364797Y80031D01*
X364863Y80011D01*
X365000Y79968D01*
X365146Y79931D01*
X365153D01*
X365170Y79928D01*
X365196Y79921D01*
X365230Y79915D01*
X365276Y79905D01*
X365326Y79898D01*
X365386Y79888D01*
X365453Y79878D01*
X365526Y79865D01*
X365603Y79855D01*
X365683Y79848D01*
X365766Y79838D01*
X365946Y79825D01*
X366129Y79821D01*
X366132D01*
X366142D01*
X366162D01*
X366185D01*
X366215Y79825D01*
X366252Y79828D01*
X366295D01*
X366345Y79835D01*
X366399Y79838D01*
X366459Y79845D01*
X366525Y79855D01*
X366595Y79861D01*
X366668Y79875D01*
X366748Y79888D01*
X366831Y79901D01*
X366918Y79918D01*
X367008Y79938D01*
X367101Y79961D01*
X367298Y80011D01*
X367508Y80075D01*
X367614Y80111D01*
X367724Y80151D01*
X367834Y80194D01*
X367947Y80241D01*
X368064Y80291D01*
X368177Y80344D01*
X368293Y80404D01*
X368410Y80467D01*
X368530Y80534D01*
X368646Y80604D01*
Y80268D01*
D02*
G37*
G36*
X365739Y77257D02*
X365796D01*
X365862Y77254D01*
X365936Y77251D01*
X366016Y77244D01*
X366102Y77237D01*
X366189Y77227D01*
X366372Y77201D01*
X366462Y77187D01*
X366552Y77167D01*
X366638Y77144D01*
X366718Y77121D01*
X366722D01*
X366735Y77114D01*
X366758Y77107D01*
X366785Y77094D01*
X366822Y77081D01*
X366862Y77061D01*
X366905Y77041D01*
X366951Y77017D01*
X367055Y76958D01*
X367161Y76888D01*
X367264Y76801D01*
X367314Y76754D01*
X367358Y76705D01*
X367361Y76701D01*
X367368Y76691D01*
X367378Y76678D01*
X367391Y76655D01*
X367411Y76628D01*
X367428Y76595D01*
X367448Y76558D01*
X367467Y76515D01*
X367491Y76465D01*
X367511Y76415D01*
X367528Y76355D01*
X367544Y76295D01*
X367561Y76228D01*
X367571Y76158D01*
X367577Y76085D01*
X367581Y76009D01*
Y75985D01*
X367577Y75955D01*
X367574Y75915D01*
X367567Y75869D01*
X367561Y75815D01*
X367547Y75756D01*
X367531Y75692D01*
X367511Y75622D01*
X367484Y75552D01*
X367454Y75479D01*
X367414Y75406D01*
X367371Y75333D01*
X367318Y75266D01*
X367258Y75199D01*
X367188Y75136D01*
X367181Y75133D01*
X367164Y75119D01*
X367134Y75103D01*
X367095Y75076D01*
X367041Y75050D01*
X366978Y75016D01*
X366901Y74983D01*
X366811Y74946D01*
X366708Y74910D01*
X366595Y74876D01*
X366465Y74843D01*
X366325Y74816D01*
X366249Y74803D01*
X366172Y74793D01*
X366089Y74783D01*
X366002Y74773D01*
X365912Y74766D01*
X365823Y74760D01*
X365726Y74756D01*
X365626D01*
X365623D01*
X365619D01*
X365609D01*
X365596D01*
X365559D01*
X365513Y74760D01*
X365456D01*
X365390Y74763D01*
X365316Y74770D01*
X365233Y74773D01*
X365150Y74783D01*
X365060Y74790D01*
X364877Y74816D01*
X364787Y74833D01*
X364697Y74850D01*
X364610Y74873D01*
X364530Y74896D01*
X364527Y74900D01*
X364510Y74903D01*
X364491Y74910D01*
X364460Y74923D01*
X364427Y74936D01*
X364387Y74956D01*
X364344Y74976D01*
X364294Y75000D01*
X364191Y75059D01*
X364084Y75129D01*
X363981Y75216D01*
X363934Y75263D01*
X363891Y75313D01*
X363888Y75316D01*
X363881Y75326D01*
X363871Y75343D01*
X363855Y75362D01*
X363838Y75389D01*
X363818Y75423D01*
X363798Y75459D01*
X363778Y75502D01*
X363758Y75552D01*
X363735Y75606D01*
X363718Y75662D01*
X363701Y75722D01*
X363685Y75789D01*
X363675Y75859D01*
X363668Y75932D01*
X363665Y76009D01*
Y76038D01*
X363668Y76062D01*
Y76089D01*
X363671Y76118D01*
X363675Y76152D01*
X363681Y76192D01*
X363695Y76275D01*
X363718Y76365D01*
X363748Y76458D01*
X363791Y76548D01*
Y76551D01*
X363798Y76558D01*
X363805Y76571D01*
X363814Y76588D01*
X363828Y76608D01*
X363841Y76631D01*
X363881Y76684D01*
X363934Y76748D01*
X363994Y76811D01*
X364068Y76874D01*
X364151Y76934D01*
X364154Y76938D01*
X364161Y76941D01*
X364174Y76948D01*
X364191Y76961D01*
X364214Y76971D01*
X364241Y76988D01*
X364274Y77004D01*
X364311Y77021D01*
X364347Y77041D01*
X364391Y77061D01*
X364441Y77081D01*
X364491Y77101D01*
X364600Y77137D01*
X364720Y77174D01*
X364724D01*
X364737Y77177D01*
X364754Y77181D01*
X364780Y77187D01*
X364817Y77194D01*
X364857Y77201D01*
X364903Y77211D01*
X364960Y77217D01*
X365020Y77224D01*
X365090Y77234D01*
X365163Y77241D01*
X365243Y77247D01*
X365330Y77254D01*
X365423Y77257D01*
X365523Y77261D01*
X365626D01*
X365629D01*
X365633D01*
X365643D01*
X365656D01*
X365693D01*
X365739Y77257D01*
D02*
G37*
G36*
Y74274D02*
X365796D01*
X365862Y74270D01*
X365936Y74267D01*
X366016Y74260D01*
X366102Y74254D01*
X366189Y74244D01*
X366372Y74217D01*
X366462Y74204D01*
X366552Y74184D01*
X366638Y74160D01*
X366718Y74137D01*
X366722D01*
X366735Y74130D01*
X366758Y74124D01*
X366785Y74111D01*
X366822Y74097D01*
X366862Y74077D01*
X366905Y74057D01*
X366951Y74034D01*
X367055Y73974D01*
X367161Y73904D01*
X367264Y73817D01*
X367314Y73771D01*
X367358Y73721D01*
X367361Y73717D01*
X367368Y73707D01*
X367378Y73694D01*
X367391Y73671D01*
X367411Y73644D01*
X367428Y73611D01*
X367448Y73574D01*
X367467Y73531D01*
X367491Y73481D01*
X367511Y73431D01*
X367528Y73371D01*
X367544Y73311D01*
X367561Y73245D01*
X367571Y73175D01*
X367577Y73102D01*
X367581Y73025D01*
Y73002D01*
X367577Y72972D01*
X367574Y72932D01*
X367567Y72885D01*
X367561Y72832D01*
X367547Y72772D01*
X367531Y72708D01*
X367511Y72639D01*
X367484Y72569D01*
X367454Y72495D01*
X367414Y72422D01*
X367371Y72349D01*
X367318Y72282D01*
X367258Y72216D01*
X367188Y72152D01*
X367181Y72149D01*
X367164Y72136D01*
X367134Y72119D01*
X367095Y72092D01*
X367041Y72066D01*
X366978Y72032D01*
X366901Y71999D01*
X366811Y71963D01*
X366708Y71926D01*
X366595Y71893D01*
X366465Y71859D01*
X366325Y71833D01*
X366249Y71819D01*
X366172Y71809D01*
X366089Y71799D01*
X366002Y71789D01*
X365912Y71783D01*
X365823Y71776D01*
X365726Y71773D01*
X365626D01*
X365623D01*
X365619D01*
X365609D01*
X365596D01*
X365559D01*
X365513Y71776D01*
X365456D01*
X365390Y71779D01*
X365316Y71786D01*
X365233Y71789D01*
X365150Y71799D01*
X365060Y71806D01*
X364877Y71833D01*
X364787Y71849D01*
X364697Y71866D01*
X364610Y71889D01*
X364530Y71913D01*
X364527Y71916D01*
X364510Y71919D01*
X364491Y71926D01*
X364460Y71939D01*
X364427Y71953D01*
X364387Y71973D01*
X364344Y71993D01*
X364294Y72016D01*
X364191Y72076D01*
X364084Y72146D01*
X363981Y72232D01*
X363934Y72279D01*
X363891Y72329D01*
X363888Y72332D01*
X363881Y72342D01*
X363871Y72359D01*
X363855Y72379D01*
X363838Y72405D01*
X363818Y72439D01*
X363798Y72475D01*
X363778Y72519D01*
X363758Y72569D01*
X363735Y72622D01*
X363718Y72679D01*
X363701Y72738D01*
X363685Y72805D01*
X363675Y72875D01*
X363668Y72948D01*
X363665Y73025D01*
Y73055D01*
X363668Y73078D01*
Y73105D01*
X363671Y73135D01*
X363675Y73168D01*
X363681Y73208D01*
X363695Y73291D01*
X363718Y73381D01*
X363748Y73474D01*
X363791Y73564D01*
Y73568D01*
X363798Y73574D01*
X363805Y73588D01*
X363814Y73604D01*
X363828Y73624D01*
X363841Y73648D01*
X363881Y73701D01*
X363934Y73764D01*
X363994Y73827D01*
X364068Y73891D01*
X364151Y73951D01*
X364154Y73954D01*
X364161Y73957D01*
X364174Y73964D01*
X364191Y73977D01*
X364214Y73987D01*
X364241Y74004D01*
X364274Y74020D01*
X364311Y74037D01*
X364347Y74057D01*
X364391Y74077D01*
X364441Y74097D01*
X364491Y74117D01*
X364600Y74154D01*
X364720Y74190D01*
X364724D01*
X364737Y74194D01*
X364754Y74197D01*
X364780Y74204D01*
X364817Y74210D01*
X364857Y74217D01*
X364903Y74227D01*
X364960Y74234D01*
X365020Y74240D01*
X365090Y74250D01*
X365163Y74257D01*
X365243Y74264D01*
X365330Y74270D01*
X365423Y74274D01*
X365523Y74277D01*
X365626D01*
X365629D01*
X365633D01*
X365643D01*
X365656D01*
X365693D01*
X365739Y74274D01*
D02*
G37*
G36*
X367591Y71067D02*
X367621Y71064D01*
X367687Y71057D01*
X367764Y71043D01*
X367841Y71027D01*
X367920Y71000D01*
X367994Y70964D01*
X367997D01*
X368000Y70960D01*
X368010Y70954D01*
X368024Y70944D01*
X368057Y70920D01*
X368097Y70884D01*
X368144Y70837D01*
X368190Y70780D01*
X368237Y70714D01*
X368277Y70634D01*
X368074Y70504D01*
Y70507D01*
X368070Y70511D01*
X368060Y70527D01*
X368047Y70554D01*
X368024Y70587D01*
X367997Y70621D01*
X367964Y70657D01*
X367924Y70691D01*
X367881Y70720D01*
X367874Y70724D01*
X367857Y70731D01*
X367827Y70744D01*
X367787Y70757D01*
X367737Y70771D01*
X367674Y70784D01*
X367601Y70794D01*
X367517Y70800D01*
Y70534D01*
X366981D01*
Y71070D01*
X367517D01*
X367521D01*
X367531D01*
X367544D01*
X367567D01*
X367591Y71067D01*
D02*
G37*
G36*
X365739Y69798D02*
X365796D01*
X365862Y69795D01*
X365936Y69791D01*
X366016Y69785D01*
X366102Y69778D01*
X366189Y69768D01*
X366372Y69741D01*
X366462Y69728D01*
X366552Y69708D01*
X366638Y69685D01*
X366718Y69662D01*
X366722D01*
X366735Y69655D01*
X366758Y69648D01*
X366785Y69635D01*
X366822Y69622D01*
X366862Y69602D01*
X366905Y69582D01*
X366951Y69558D01*
X367055Y69498D01*
X367161Y69428D01*
X367264Y69342D01*
X367314Y69295D01*
X367358Y69245D01*
X367361Y69242D01*
X367368Y69232D01*
X367378Y69219D01*
X367391Y69195D01*
X367411Y69169D01*
X367428Y69135D01*
X367448Y69099D01*
X367467Y69055D01*
X367491Y69006D01*
X367511Y68956D01*
X367528Y68896D01*
X367544Y68836D01*
X367561Y68769D01*
X367571Y68699D01*
X367577Y68626D01*
X367581Y68549D01*
Y68526D01*
X367577Y68496D01*
X367574Y68456D01*
X367567Y68410D01*
X367561Y68356D01*
X367547Y68296D01*
X367531Y68233D01*
X367511Y68163D01*
X367484Y68093D01*
X367454Y68020D01*
X367414Y67947D01*
X367371Y67873D01*
X367318Y67807D01*
X367258Y67740D01*
X367188Y67677D01*
X367181Y67674D01*
X367164Y67660D01*
X367134Y67644D01*
X367095Y67617D01*
X367041Y67590D01*
X366978Y67557D01*
X366901Y67524D01*
X366811Y67487D01*
X366708Y67450D01*
X366595Y67417D01*
X366465Y67384D01*
X366325Y67357D01*
X366249Y67344D01*
X366172Y67334D01*
X366089Y67324D01*
X366002Y67314D01*
X365912Y67307D01*
X365823Y67301D01*
X365726Y67297D01*
X365626D01*
X365623D01*
X365619D01*
X365609D01*
X365596D01*
X365559D01*
X365513Y67301D01*
X365456D01*
X365390Y67304D01*
X365316Y67311D01*
X365233Y67314D01*
X365150Y67324D01*
X365060Y67331D01*
X364877Y67357D01*
X364787Y67374D01*
X364697Y67391D01*
X364610Y67414D01*
X364530Y67437D01*
X364527Y67440D01*
X364510Y67444D01*
X364491Y67450D01*
X364460Y67464D01*
X364427Y67477D01*
X364387Y67497D01*
X364344Y67517D01*
X364294Y67540D01*
X364191Y67600D01*
X364084Y67670D01*
X363981Y67757D01*
X363934Y67803D01*
X363891Y67853D01*
X363888Y67857D01*
X363881Y67867D01*
X363871Y67883D01*
X363855Y67903D01*
X363838Y67930D01*
X363818Y67963D01*
X363798Y68000D01*
X363778Y68043D01*
X363758Y68093D01*
X363735Y68146D01*
X363718Y68203D01*
X363701Y68263D01*
X363685Y68330D01*
X363675Y68400D01*
X363668Y68473D01*
X363665Y68549D01*
Y68579D01*
X363668Y68603D01*
Y68629D01*
X363671Y68659D01*
X363675Y68692D01*
X363681Y68733D01*
X363695Y68816D01*
X363718Y68906D01*
X363748Y68999D01*
X363791Y69089D01*
Y69092D01*
X363798Y69099D01*
X363805Y69112D01*
X363814Y69129D01*
X363828Y69149D01*
X363841Y69172D01*
X363881Y69225D01*
X363934Y69289D01*
X363994Y69352D01*
X364068Y69415D01*
X364151Y69475D01*
X364154Y69478D01*
X364161Y69482D01*
X364174Y69488D01*
X364191Y69502D01*
X364214Y69512D01*
X364241Y69528D01*
X364274Y69545D01*
X364311Y69562D01*
X364347Y69582D01*
X364391Y69602D01*
X364441Y69622D01*
X364491Y69642D01*
X364600Y69678D01*
X364720Y69715D01*
X364724D01*
X364737Y69718D01*
X364754Y69722D01*
X364780Y69728D01*
X364817Y69735D01*
X364857Y69741D01*
X364903Y69752D01*
X364960Y69758D01*
X365020Y69765D01*
X365090Y69775D01*
X365163Y69781D01*
X365243Y69788D01*
X365330Y69795D01*
X365423Y69798D01*
X365523Y69801D01*
X365626D01*
X365629D01*
X365633D01*
X365643D01*
X365656D01*
X365693D01*
X365739Y69798D01*
D02*
G37*
G36*
X366598Y66295D02*
X367517D01*
Y65822D01*
X366598D01*
Y64157D01*
X366165D01*
X363678Y65909D01*
Y66295D01*
X366165D01*
Y66814D01*
X366598D01*
Y66295D01*
D02*
G37*
%LPC*%
G36*
X154667Y-53554D02*
X154654D01*
X154637Y-53558D01*
X154614D01*
X154587Y-53564D01*
X154554Y-53568D01*
X154521Y-53578D01*
X154481Y-53588D01*
X154441Y-53604D01*
X154397Y-53621D01*
X154354Y-53644D01*
X154311Y-53671D01*
X154268Y-53701D01*
X154228Y-53741D01*
X154188Y-53781D01*
X154148Y-53831D01*
X154144Y-53834D01*
X154138Y-53847D01*
X154124Y-53871D01*
X154111Y-53901D01*
X154091Y-53941D01*
X154071Y-53991D01*
X154051Y-54050D01*
X154028Y-54124D01*
X154005Y-54207D01*
X153984Y-54300D01*
X153964Y-54407D01*
X153945Y-54523D01*
X153931Y-54656D01*
X153918Y-54800D01*
X153915Y-54876D01*
X153911Y-54956D01*
X153908Y-55040D01*
Y-55126D01*
Y-55129D01*
Y-55136D01*
Y-55149D01*
Y-55166D01*
Y-55189D01*
Y-55216D01*
X153911Y-55246D01*
Y-55279D01*
X153915Y-55356D01*
X153921Y-55442D01*
X153928Y-55536D01*
X153935Y-55639D01*
X153948Y-55742D01*
X153961Y-55849D01*
X153978Y-55955D01*
X154001Y-56055D01*
X154024Y-56152D01*
X154054Y-56242D01*
X154088Y-56318D01*
X154108Y-56355D01*
X154128Y-56385D01*
X154131Y-56388D01*
X154138Y-56398D01*
X154151Y-56415D01*
X154168Y-56431D01*
X154188Y-56458D01*
X154214Y-56481D01*
X154244Y-56511D01*
X154278Y-56538D01*
X154317Y-56568D01*
X154357Y-56598D01*
X154404Y-56621D01*
X154451Y-56644D01*
X154504Y-56665D01*
X154557Y-56681D01*
X154614Y-56691D01*
X154674Y-56695D01*
X154687D01*
X154704Y-56691D01*
X154727Y-56688D01*
X154757Y-56684D01*
X154787Y-56678D01*
X154824Y-56668D01*
X154864Y-56655D01*
X154904Y-56638D01*
X154947Y-56618D01*
X154993Y-56591D01*
X155040Y-56561D01*
X155083Y-56528D01*
X155130Y-56485D01*
X155173Y-56438D01*
X155217Y-56381D01*
X155220Y-56378D01*
X155227Y-56365D01*
X155237Y-56345D01*
X155253Y-56318D01*
X155270Y-56282D01*
X155287Y-56232D01*
X155306Y-56175D01*
X155330Y-56108D01*
X155350Y-56028D01*
X155370Y-55939D01*
X155386Y-55835D01*
X155406Y-55719D01*
X155413Y-55659D01*
X155420Y-55592D01*
X155426Y-55522D01*
X155430Y-55449D01*
X155433Y-55376D01*
X155436Y-55296D01*
X155440Y-55213D01*
Y-55126D01*
Y-55123D01*
Y-55116D01*
Y-55103D01*
Y-55086D01*
Y-55063D01*
Y-55036D01*
X155436Y-55006D01*
Y-54973D01*
X155433Y-54896D01*
X155426Y-54810D01*
X155420Y-54716D01*
X155413Y-54613D01*
X155400Y-54510D01*
X155386Y-54403D01*
X155366Y-54297D01*
X155347Y-54197D01*
X155320Y-54100D01*
X155290Y-54010D01*
X155256Y-53934D01*
X155237Y-53897D01*
X155217Y-53867D01*
X155213Y-53864D01*
X155207Y-53854D01*
X155193Y-53837D01*
X155177Y-53817D01*
X155157Y-53794D01*
X155130Y-53767D01*
X155100Y-53741D01*
X155067Y-53711D01*
X155027Y-53681D01*
X154987Y-53654D01*
X154940Y-53628D01*
X154894Y-53604D01*
X154840Y-53584D01*
X154787Y-53568D01*
X154727Y-53558D01*
X154667Y-53554D01*
D02*
G37*
G36*
X151683D02*
X151670D01*
X151654Y-53558D01*
X151630D01*
X151603Y-53564D01*
X151570Y-53568D01*
X151537Y-53578D01*
X151497Y-53588D01*
X151457Y-53604D01*
X151414Y-53621D01*
X151370Y-53644D01*
X151327Y-53671D01*
X151284Y-53701D01*
X151244Y-53741D01*
X151204Y-53781D01*
X151164Y-53831D01*
X151161Y-53834D01*
X151154Y-53847D01*
X151141Y-53871D01*
X151127Y-53901D01*
X151107Y-53941D01*
X151087Y-53991D01*
X151067Y-54050D01*
X151044Y-54124D01*
X151021Y-54207D01*
X151001Y-54300D01*
X150981Y-54407D01*
X150961Y-54523D01*
X150947Y-54656D01*
X150934Y-54800D01*
X150931Y-54876D01*
X150927Y-54956D01*
X150924Y-55040D01*
Y-55126D01*
Y-55129D01*
Y-55136D01*
Y-55149D01*
Y-55166D01*
Y-55189D01*
Y-55216D01*
X150927Y-55246D01*
Y-55279D01*
X150931Y-55356D01*
X150937Y-55442D01*
X150944Y-55536D01*
X150951Y-55639D01*
X150964Y-55742D01*
X150978Y-55849D01*
X150994Y-55955D01*
X151017Y-56055D01*
X151041Y-56152D01*
X151071Y-56242D01*
X151104Y-56318D01*
X151124Y-56355D01*
X151144Y-56385D01*
X151147Y-56388D01*
X151154Y-56398D01*
X151167Y-56415D01*
X151184Y-56431D01*
X151204Y-56458D01*
X151231Y-56481D01*
X151260Y-56511D01*
X151294Y-56538D01*
X151334Y-56568D01*
X151374Y-56598D01*
X151420Y-56621D01*
X151467Y-56644D01*
X151520Y-56665D01*
X151574Y-56681D01*
X151630Y-56691D01*
X151690Y-56695D01*
X151703D01*
X151720Y-56691D01*
X151743Y-56688D01*
X151773Y-56684D01*
X151803Y-56678D01*
X151840Y-56668D01*
X151880Y-56655D01*
X151920Y-56638D01*
X151963Y-56618D01*
X152010Y-56591D01*
X152056Y-56561D01*
X152100Y-56528D01*
X152146Y-56485D01*
X152190Y-56438D01*
X152233Y-56381D01*
X152236Y-56378D01*
X152243Y-56365D01*
X152253Y-56345D01*
X152269Y-56318D01*
X152286Y-56282D01*
X152303Y-56232D01*
X152323Y-56175D01*
X152346Y-56108D01*
X152366Y-56028D01*
X152386Y-55939D01*
X152403Y-55835D01*
X152423Y-55719D01*
X152429Y-55659D01*
X152436Y-55592D01*
X152443Y-55522D01*
X152446Y-55449D01*
X152449Y-55376D01*
X152453Y-55296D01*
X152456Y-55213D01*
Y-55126D01*
Y-55123D01*
Y-55116D01*
Y-55103D01*
Y-55086D01*
Y-55063D01*
Y-55036D01*
X152453Y-55006D01*
Y-54973D01*
X152449Y-54896D01*
X152443Y-54810D01*
X152436Y-54716D01*
X152429Y-54613D01*
X152416Y-54510D01*
X152403Y-54403D01*
X152383Y-54297D01*
X152363Y-54197D01*
X152336Y-54100D01*
X152306Y-54010D01*
X152273Y-53934D01*
X152253Y-53897D01*
X152233Y-53867D01*
X152230Y-53864D01*
X152223Y-53854D01*
X152210Y-53837D01*
X152193Y-53817D01*
X152173Y-53794D01*
X152146Y-53767D01*
X152116Y-53741D01*
X152083Y-53711D01*
X152043Y-53681D01*
X152003Y-53654D01*
X151956Y-53628D01*
X151910Y-53604D01*
X151857Y-53584D01*
X151803Y-53568D01*
X151743Y-53558D01*
X151683Y-53554D01*
D02*
G37*
G36*
X147208D02*
X147195D01*
X147178Y-53558D01*
X147155D01*
X147128Y-53564D01*
X147095Y-53568D01*
X147061Y-53578D01*
X147021Y-53588D01*
X146982Y-53604D01*
X146938Y-53621D01*
X146895Y-53644D01*
X146852Y-53671D01*
X146808Y-53701D01*
X146768Y-53741D01*
X146728Y-53781D01*
X146688Y-53831D01*
X146685Y-53834D01*
X146678Y-53847D01*
X146665Y-53871D01*
X146652Y-53901D01*
X146632Y-53941D01*
X146612Y-53991D01*
X146592Y-54050D01*
X146569Y-54124D01*
X146545Y-54207D01*
X146525Y-54300D01*
X146505Y-54407D01*
X146485Y-54523D01*
X146472Y-54656D01*
X146459Y-54800D01*
X146455Y-54876D01*
X146452Y-54956D01*
X146449Y-55040D01*
Y-55126D01*
Y-55129D01*
Y-55136D01*
Y-55149D01*
Y-55166D01*
Y-55189D01*
Y-55216D01*
X146452Y-55246D01*
Y-55279D01*
X146455Y-55356D01*
X146462Y-55442D01*
X146469Y-55536D01*
X146475Y-55639D01*
X146489Y-55742D01*
X146502Y-55849D01*
X146519Y-55955D01*
X146542Y-56055D01*
X146565Y-56152D01*
X146595Y-56242D01*
X146628Y-56318D01*
X146649Y-56355D01*
X146669Y-56385D01*
X146672Y-56388D01*
X146678Y-56398D01*
X146692Y-56415D01*
X146708Y-56431D01*
X146728Y-56458D01*
X146755Y-56481D01*
X146785Y-56511D01*
X146818Y-56538D01*
X146858Y-56568D01*
X146898Y-56598D01*
X146945Y-56621D01*
X146992Y-56644D01*
X147045Y-56665D01*
X147098Y-56681D01*
X147155Y-56691D01*
X147215Y-56695D01*
X147228D01*
X147245Y-56691D01*
X147268Y-56688D01*
X147298Y-56684D01*
X147328Y-56678D01*
X147364Y-56668D01*
X147404Y-56655D01*
X147444Y-56638D01*
X147488Y-56618D01*
X147534Y-56591D01*
X147581Y-56561D01*
X147624Y-56528D01*
X147671Y-56485D01*
X147714Y-56438D01*
X147757Y-56381D01*
X147761Y-56378D01*
X147767Y-56365D01*
X147777Y-56345D01*
X147794Y-56318D01*
X147811Y-56282D01*
X147827Y-56232D01*
X147847Y-56175D01*
X147871Y-56108D01*
X147891Y-56028D01*
X147911Y-55939D01*
X147927Y-55835D01*
X147947Y-55719D01*
X147954Y-55659D01*
X147960Y-55592D01*
X147967Y-55522D01*
X147970Y-55449D01*
X147974Y-55376D01*
X147977Y-55296D01*
X147980Y-55213D01*
Y-55126D01*
Y-55123D01*
Y-55116D01*
Y-55103D01*
Y-55086D01*
Y-55063D01*
Y-55036D01*
X147977Y-55006D01*
Y-54973D01*
X147974Y-54896D01*
X147967Y-54810D01*
X147960Y-54716D01*
X147954Y-54613D01*
X147941Y-54510D01*
X147927Y-54403D01*
X147907Y-54297D01*
X147887Y-54197D01*
X147861Y-54100D01*
X147831Y-54010D01*
X147797Y-53934D01*
X147777Y-53897D01*
X147757Y-53867D01*
X147754Y-53864D01*
X147747Y-53854D01*
X147734Y-53837D01*
X147717Y-53817D01*
X147697Y-53794D01*
X147671Y-53767D01*
X147641Y-53741D01*
X147608Y-53711D01*
X147568Y-53681D01*
X147528Y-53654D01*
X147481Y-53628D01*
X147434Y-53604D01*
X147381Y-53584D01*
X147328Y-53568D01*
X147268Y-53558D01*
X147208Y-53554D01*
D02*
G37*
G36*
X144234Y-53551D02*
X144208D01*
X144191Y-53554D01*
X144168Y-53558D01*
X144141Y-53561D01*
X144078Y-53571D01*
X144008Y-53594D01*
X143931Y-53624D01*
X143895Y-53644D01*
X143858Y-53667D01*
X143821Y-53694D01*
X143788Y-53724D01*
X143785Y-53727D01*
X143781Y-53731D01*
X143771Y-53741D01*
X143761Y-53754D01*
X143748Y-53771D01*
X143731Y-53791D01*
X143701Y-53841D01*
X143668Y-53901D01*
X143638Y-53970D01*
X143618Y-54050D01*
X143615Y-54094D01*
X143612Y-54137D01*
Y-54140D01*
Y-54150D01*
Y-54164D01*
X143615Y-54184D01*
X143618Y-54207D01*
X143622Y-54234D01*
X143635Y-54294D01*
X143655Y-54367D01*
X143685Y-54440D01*
X143705Y-54477D01*
X143728Y-54513D01*
X143755Y-54550D01*
X143785Y-54583D01*
X143788Y-54587D01*
X143791Y-54590D01*
X143801Y-54600D01*
X143815Y-54610D01*
X143835Y-54623D01*
X143855Y-54637D01*
X143878Y-54653D01*
X143908Y-54667D01*
X143971Y-54700D01*
X144051Y-54726D01*
X144141Y-54746D01*
X144188Y-54750D01*
X144241Y-54753D01*
X144267D01*
X144288Y-54750D01*
X144311Y-54746D01*
X144337Y-54743D01*
X144401Y-54733D01*
X144471Y-54713D01*
X144544Y-54680D01*
X144581Y-54663D01*
X144617Y-54640D01*
X144654Y-54613D01*
X144687Y-54583D01*
X144691Y-54580D01*
X144694Y-54577D01*
X144704Y-54567D01*
X144714Y-54553D01*
X144727Y-54537D01*
X144740Y-54517D01*
X144774Y-54467D01*
X144807Y-54407D01*
X144834Y-54334D01*
X144854Y-54254D01*
X144857Y-54210D01*
X144860Y-54164D01*
Y-54160D01*
Y-54154D01*
Y-54137D01*
X144857Y-54120D01*
X144854Y-54097D01*
X144850Y-54070D01*
X144837Y-54010D01*
X144817Y-53944D01*
X144784Y-53871D01*
X144764Y-53834D01*
X144740Y-53797D01*
X144714Y-53761D01*
X144681Y-53727D01*
X144677Y-53724D01*
X144674Y-53721D01*
X144664Y-53711D01*
X144647Y-53701D01*
X144631Y-53688D01*
X144611Y-53671D01*
X144587Y-53654D01*
X144557Y-53637D01*
X144494Y-53608D01*
X144417Y-53578D01*
X144331Y-53558D01*
X144284Y-53554D01*
X144234Y-53551D01*
D02*
G37*
G36*
X144224Y-55139D02*
X144191D01*
X144168Y-55143D01*
X144141Y-55146D01*
X144108Y-55153D01*
X144071Y-55159D01*
X144031Y-55166D01*
X143945Y-55193D01*
X143898Y-55213D01*
X143851Y-55233D01*
X143805Y-55259D01*
X143761Y-55289D01*
X143718Y-55322D01*
X143675Y-55362D01*
X143672Y-55366D01*
X143665Y-55373D01*
X143655Y-55386D01*
X143641Y-55402D01*
X143625Y-55422D01*
X143605Y-55449D01*
X143588Y-55479D01*
X143568Y-55512D01*
X143545Y-55552D01*
X143528Y-55592D01*
X143508Y-55639D01*
X143492Y-55686D01*
X143478Y-55739D01*
X143468Y-55792D01*
X143462Y-55852D01*
X143458Y-55912D01*
Y-55915D01*
Y-55922D01*
Y-55932D01*
Y-55945D01*
X143462Y-55965D01*
X143465Y-55985D01*
X143472Y-56035D01*
X143482Y-56095D01*
X143498Y-56162D01*
X143522Y-56232D01*
X143552Y-56301D01*
Y-56305D01*
X143555Y-56308D01*
X143562Y-56318D01*
X143568Y-56331D01*
X143592Y-56365D01*
X143622Y-56408D01*
X143661Y-56455D01*
X143711Y-56501D01*
X143768Y-56548D01*
X143835Y-56591D01*
X143838D01*
X143845Y-56595D01*
X143855Y-56601D01*
X143868Y-56608D01*
X143885Y-56615D01*
X143905Y-56625D01*
X143958Y-56641D01*
X144018Y-56661D01*
X144088Y-56678D01*
X144161Y-56691D01*
X144241Y-56695D01*
X144274D01*
X144298Y-56691D01*
X144324Y-56688D01*
X144357Y-56684D01*
X144397Y-56678D01*
X144437Y-56668D01*
X144524Y-56641D01*
X144571Y-56625D01*
X144617Y-56605D01*
X144664Y-56578D01*
X144710Y-56548D01*
X144754Y-56515D01*
X144797Y-56478D01*
X144800Y-56475D01*
X144807Y-56468D01*
X144817Y-56455D01*
X144830Y-56438D01*
X144847Y-56418D01*
X144867Y-56391D01*
X144887Y-56362D01*
X144907Y-56328D01*
X144927Y-56288D01*
X144947Y-56248D01*
X144967Y-56202D01*
X144983Y-56155D01*
X144997Y-56102D01*
X145007Y-56045D01*
X145013Y-55985D01*
X145017Y-55925D01*
Y-55922D01*
Y-55909D01*
Y-55892D01*
X145013Y-55869D01*
X145010Y-55839D01*
X145003Y-55805D01*
X144997Y-55769D01*
X144990Y-55729D01*
X144960Y-55639D01*
X144943Y-55592D01*
X144920Y-55546D01*
X144897Y-55496D01*
X144864Y-55449D01*
X144830Y-55406D01*
X144790Y-55362D01*
X144787Y-55359D01*
X144780Y-55352D01*
X144767Y-55343D01*
X144750Y-55326D01*
X144727Y-55309D01*
X144700Y-55292D01*
X144670Y-55273D01*
X144634Y-55249D01*
X144597Y-55229D01*
X144554Y-55209D01*
X144507Y-55193D01*
X144457Y-55173D01*
X144404Y-55159D01*
X144348Y-55149D01*
X144288Y-55143D01*
X144224Y-55139D01*
D02*
G37*
G36*
X365713Y76775D02*
X365626D01*
X365623D01*
X365616D01*
X365603D01*
X365586D01*
X365563D01*
X365536D01*
X365506Y76771D01*
X365473D01*
X365396Y76768D01*
X365310Y76761D01*
X365216Y76754D01*
X365113Y76748D01*
X365010Y76735D01*
X364903Y76721D01*
X364797Y76701D01*
X364697Y76681D01*
X364600Y76655D01*
X364510Y76625D01*
X364434Y76591D01*
X364397Y76571D01*
X364367Y76551D01*
X364364Y76548D01*
X364354Y76541D01*
X364337Y76528D01*
X364317Y76511D01*
X364294Y76491D01*
X364267Y76465D01*
X364241Y76435D01*
X364211Y76402D01*
X364181Y76362D01*
X364154Y76322D01*
X364127Y76275D01*
X364104Y76228D01*
X364084Y76175D01*
X364068Y76122D01*
X364058Y76062D01*
X364054Y76002D01*
Y75989D01*
X364058Y75972D01*
Y75949D01*
X364064Y75922D01*
X364068Y75889D01*
X364078Y75855D01*
X364088Y75815D01*
X364104Y75775D01*
X364121Y75732D01*
X364144Y75689D01*
X364171Y75646D01*
X364201Y75602D01*
X364241Y75562D01*
X364281Y75522D01*
X364331Y75482D01*
X364334Y75479D01*
X364347Y75472D01*
X364371Y75459D01*
X364401Y75446D01*
X364441Y75426D01*
X364491Y75406D01*
X364550Y75386D01*
X364624Y75362D01*
X364707Y75339D01*
X364800Y75319D01*
X364907Y75299D01*
X365023Y75279D01*
X365157Y75266D01*
X365300Y75253D01*
X365376Y75249D01*
X365456Y75246D01*
X365540Y75243D01*
X365626D01*
X365629D01*
X365636D01*
X365649D01*
X365666D01*
X365689D01*
X365716D01*
X365746Y75246D01*
X365779D01*
X365856Y75249D01*
X365942Y75256D01*
X366036Y75263D01*
X366139Y75269D01*
X366242Y75283D01*
X366349Y75296D01*
X366455Y75313D01*
X366555Y75336D01*
X366652Y75359D01*
X366742Y75389D01*
X366818Y75423D01*
X366855Y75442D01*
X366885Y75462D01*
X366888Y75466D01*
X366898Y75472D01*
X366915Y75486D01*
X366931Y75502D01*
X366958Y75522D01*
X366981Y75549D01*
X367011Y75579D01*
X367038Y75612D01*
X367068Y75652D01*
X367098Y75692D01*
X367121Y75739D01*
X367144Y75785D01*
X367164Y75839D01*
X367181Y75892D01*
X367191Y75949D01*
X367195Y76009D01*
Y76022D01*
X367191Y76038D01*
X367188Y76062D01*
X367184Y76092D01*
X367178Y76122D01*
X367168Y76158D01*
X367155Y76198D01*
X367138Y76238D01*
X367118Y76282D01*
X367091Y76328D01*
X367061Y76375D01*
X367028Y76418D01*
X366985Y76465D01*
X366938Y76508D01*
X366881Y76551D01*
X366878Y76555D01*
X366865Y76561D01*
X366845Y76571D01*
X366818Y76588D01*
X366782Y76605D01*
X366732Y76621D01*
X366675Y76641D01*
X366608Y76665D01*
X366529Y76684D01*
X366439Y76705D01*
X366335Y76721D01*
X366219Y76741D01*
X366159Y76748D01*
X366092Y76754D01*
X366022Y76761D01*
X365949Y76765D01*
X365876Y76768D01*
X365796Y76771D01*
X365713Y76775D01*
D02*
G37*
G36*
Y73791D02*
X365626D01*
X365623D01*
X365616D01*
X365603D01*
X365586D01*
X365563D01*
X365536D01*
X365506Y73787D01*
X365473D01*
X365396Y73784D01*
X365310Y73777D01*
X365216Y73771D01*
X365113Y73764D01*
X365010Y73751D01*
X364903Y73738D01*
X364797Y73717D01*
X364697Y73698D01*
X364600Y73671D01*
X364510Y73641D01*
X364434Y73608D01*
X364397Y73588D01*
X364367Y73568D01*
X364364Y73564D01*
X364354Y73558D01*
X364337Y73544D01*
X364317Y73528D01*
X364294Y73508D01*
X364267Y73481D01*
X364241Y73451D01*
X364211Y73418D01*
X364181Y73378D01*
X364154Y73338D01*
X364127Y73291D01*
X364104Y73245D01*
X364084Y73191D01*
X364068Y73138D01*
X364058Y73078D01*
X364054Y73018D01*
Y73005D01*
X364058Y72988D01*
Y72965D01*
X364064Y72938D01*
X364068Y72905D01*
X364078Y72872D01*
X364088Y72832D01*
X364104Y72792D01*
X364121Y72749D01*
X364144Y72705D01*
X364171Y72662D01*
X364201Y72619D01*
X364241Y72579D01*
X364281Y72539D01*
X364331Y72499D01*
X364334Y72495D01*
X364347Y72489D01*
X364371Y72475D01*
X364401Y72462D01*
X364441Y72442D01*
X364491Y72422D01*
X364550Y72402D01*
X364624Y72379D01*
X364707Y72356D01*
X364800Y72336D01*
X364907Y72316D01*
X365023Y72296D01*
X365157Y72282D01*
X365300Y72269D01*
X365376Y72266D01*
X365456Y72262D01*
X365540Y72259D01*
X365626D01*
X365629D01*
X365636D01*
X365649D01*
X365666D01*
X365689D01*
X365716D01*
X365746Y72262D01*
X365779D01*
X365856Y72266D01*
X365942Y72272D01*
X366036Y72279D01*
X366139Y72286D01*
X366242Y72299D01*
X366349Y72312D01*
X366455Y72329D01*
X366555Y72352D01*
X366652Y72376D01*
X366742Y72405D01*
X366818Y72439D01*
X366855Y72459D01*
X366885Y72479D01*
X366888Y72482D01*
X366898Y72489D01*
X366915Y72502D01*
X366931Y72519D01*
X366958Y72539D01*
X366981Y72565D01*
X367011Y72595D01*
X367038Y72629D01*
X367068Y72669D01*
X367098Y72708D01*
X367121Y72755D01*
X367144Y72802D01*
X367164Y72855D01*
X367181Y72908D01*
X367191Y72965D01*
X367195Y73025D01*
Y73038D01*
X367191Y73055D01*
X367188Y73078D01*
X367184Y73108D01*
X367178Y73138D01*
X367168Y73175D01*
X367155Y73215D01*
X367138Y73255D01*
X367118Y73298D01*
X367091Y73345D01*
X367061Y73391D01*
X367028Y73435D01*
X366985Y73481D01*
X366938Y73524D01*
X366881Y73568D01*
X366878Y73571D01*
X366865Y73578D01*
X366845Y73588D01*
X366818Y73604D01*
X366782Y73621D01*
X366732Y73638D01*
X366675Y73658D01*
X366608Y73681D01*
X366529Y73701D01*
X366439Y73721D01*
X366335Y73738D01*
X366219Y73757D01*
X366159Y73764D01*
X366092Y73771D01*
X366022Y73777D01*
X365949Y73781D01*
X365876Y73784D01*
X365796Y73787D01*
X365713Y73791D01*
D02*
G37*
G36*
Y69315D02*
X365626D01*
X365623D01*
X365616D01*
X365603D01*
X365586D01*
X365563D01*
X365536D01*
X365506Y69312D01*
X365473D01*
X365396Y69309D01*
X365310Y69302D01*
X365216Y69295D01*
X365113Y69289D01*
X365010Y69275D01*
X364903Y69262D01*
X364797Y69242D01*
X364697Y69222D01*
X364600Y69195D01*
X364510Y69165D01*
X364434Y69132D01*
X364397Y69112D01*
X364367Y69092D01*
X364364Y69089D01*
X364354Y69082D01*
X364337Y69069D01*
X364317Y69052D01*
X364294Y69032D01*
X364267Y69006D01*
X364241Y68976D01*
X364211Y68942D01*
X364181Y68902D01*
X364154Y68862D01*
X364127Y68816D01*
X364104Y68769D01*
X364084Y68716D01*
X364068Y68663D01*
X364058Y68603D01*
X364054Y68543D01*
Y68529D01*
X364058Y68513D01*
Y68489D01*
X364064Y68463D01*
X364068Y68429D01*
X364078Y68396D01*
X364088Y68356D01*
X364104Y68316D01*
X364121Y68273D01*
X364144Y68230D01*
X364171Y68186D01*
X364201Y68143D01*
X364241Y68103D01*
X364281Y68063D01*
X364331Y68023D01*
X364334Y68020D01*
X364347Y68013D01*
X364371Y68000D01*
X364401Y67987D01*
X364441Y67967D01*
X364491Y67947D01*
X364550Y67927D01*
X364624Y67903D01*
X364707Y67880D01*
X364800Y67860D01*
X364907Y67840D01*
X365023Y67820D01*
X365157Y67807D01*
X365300Y67793D01*
X365376Y67790D01*
X365456Y67787D01*
X365540Y67783D01*
X365626D01*
X365629D01*
X365636D01*
X365649D01*
X365666D01*
X365689D01*
X365716D01*
X365746Y67787D01*
X365779D01*
X365856Y67790D01*
X365942Y67797D01*
X366036Y67803D01*
X366139Y67810D01*
X366242Y67823D01*
X366349Y67837D01*
X366455Y67853D01*
X366555Y67877D01*
X366652Y67900D01*
X366742Y67930D01*
X366818Y67963D01*
X366855Y67983D01*
X366885Y68003D01*
X366888Y68007D01*
X366898Y68013D01*
X366915Y68027D01*
X366931Y68043D01*
X366958Y68063D01*
X366981Y68090D01*
X367011Y68120D01*
X367038Y68153D01*
X367068Y68193D01*
X367098Y68233D01*
X367121Y68280D01*
X367144Y68326D01*
X367164Y68379D01*
X367181Y68433D01*
X367191Y68489D01*
X367195Y68549D01*
Y68563D01*
X367191Y68579D01*
X367188Y68603D01*
X367184Y68633D01*
X367178Y68663D01*
X367168Y68699D01*
X367155Y68739D01*
X367138Y68779D01*
X367118Y68822D01*
X367091Y68869D01*
X367061Y68916D01*
X367028Y68959D01*
X366985Y69006D01*
X366938Y69049D01*
X366881Y69092D01*
X366878Y69095D01*
X366865Y69102D01*
X366845Y69112D01*
X366818Y69129D01*
X366782Y69145D01*
X366732Y69162D01*
X366675Y69182D01*
X366608Y69205D01*
X366529Y69225D01*
X366439Y69245D01*
X366335Y69262D01*
X366219Y69282D01*
X366159Y69289D01*
X366092Y69295D01*
X366022Y69302D01*
X365949Y69305D01*
X365876Y69309D01*
X365796Y69312D01*
X365713Y69315D01*
D02*
G37*
G36*
X366165Y65822D02*
X364437D01*
X366165Y64620D01*
Y65822D01*
D02*
G37*
%LPD*%
D109*
X0Y-54500D02*
X6000Y-52500D01*
X0Y-54500D02*
X6000Y-56500D01*
X308961D02*
X314961Y-54500D01*
X308961Y-52500D02*
X314961Y-54500D01*
X0D02*
X141972D01*
X170989D02*
X314961D01*
X0Y-55500D02*
Y0D01*
X314961Y-55500D02*
Y0D01*
X365000Y157480D02*
X367000Y151480D01*
X363000D02*
X365000Y157480D01*
X363000Y6000D02*
X365000Y0D01*
X367000Y6000D01*
X365000Y92323D02*
Y157480D01*
Y0D02*
Y63157D01*
X314961Y157480D02*
X366000D01*
X315000Y0D02*
X366000D01*
M02*
