G04*
G04 #@! TF.GenerationSoftware,Altium Limited,Altium Designer,20.0.13 (296)*
G04*
G04 Layer_Color=2752767*
%FSLAX25Y25*%
%MOIN*%
G70*
G01*
G75*
%ADD111C,0.00200*%
D111*
X206693Y33846D02*
X205893Y35446D01*
X207493D01*
X206693Y33846D01*
X202165Y16129D02*
X201365Y17729D01*
X202965D01*
X202165Y16129D01*
X116929Y43688D02*
X116129Y45288D01*
X117729D01*
X116929Y43688D01*
X112795Y31484D02*
X111995Y33084D01*
X113595D01*
X112795Y31484D01*
X114547Y151247D02*
X113747Y152847D01*
X115347D01*
X114547Y151247D01*
X127539D02*
X126739Y152847D01*
X128339D01*
X127539Y151247D01*
X118799Y151169D02*
X117999Y152769D01*
X119599D01*
X118799Y151169D01*
X110216Y151247D02*
X109416Y152847D01*
X111016D01*
X110216Y151247D01*
X105886D02*
X105086Y152847D01*
X106686D01*
X105886Y151247D01*
X185394Y150440D02*
X184594Y152040D01*
X186194D01*
X185394Y150440D01*
Y154407D02*
X184594Y156007D01*
X186194D01*
X185394Y154407D01*
X196575Y140361D02*
X195775Y141961D01*
X197375D01*
X196575Y140361D01*
X185394Y158373D02*
X184594Y159973D01*
X186194D01*
X185394Y158373D01*
X228150Y140735D02*
X227350Y142335D01*
X228950D01*
X228150Y140735D01*
X212323Y140361D02*
X211523Y141961D01*
X213123D01*
X212323Y140361D01*
X54528Y90440D02*
X53728Y92040D01*
X55328D01*
X54528Y90440D01*
X184449Y106779D02*
X183649Y108379D01*
X185249D01*
X184449Y106779D01*
X22736Y-1095D02*
X21936Y505D01*
X23536D01*
X22736Y-1095D01*
X82579Y775D02*
X81779Y2375D01*
X83379D01*
X82579Y775D01*
X93701Y12881D02*
X92901Y14481D01*
X94501D01*
X93701Y12881D01*
X141831Y74889D02*
X141031Y76489D01*
X142631D01*
X141831Y74889D01*
X122441Y84535D02*
X121641Y86135D01*
X123241D01*
X122441Y84535D01*
X86319Y65834D02*
X85519Y67434D01*
X87119D01*
X86319Y65834D01*
X79724Y73019D02*
X78924Y74619D01*
X80524D01*
X79724Y73019D01*
X210512Y79712D02*
X209712Y81312D01*
X211312D01*
X210512Y79712D01*
X135827Y59047D02*
X135027Y60646D01*
X136627D01*
X135827Y59047D01*
X155709Y75046D02*
X154909Y76647D01*
X156509D01*
X155709Y75046D01*
X165945Y-3556D02*
X165145Y-1956D01*
X166745D01*
X165945Y-3556D01*
X169291Y6657D02*
X168491Y8257D01*
X170091D01*
X169291Y6657D01*
X154134Y49102D02*
X153334Y50702D01*
X154934D01*
X154134Y49102D01*
Y46543D02*
X153334Y48142D01*
X154934D01*
X154134Y46543D01*
Y41424D02*
X153334Y43024D01*
X154934D01*
X154134Y41424D01*
X157874Y62625D02*
X157074Y64225D01*
X158674D01*
X157874Y62625D01*
X105886Y105700D02*
X105086Y107300D01*
X106686D01*
X105886Y105700D01*
X118799Y105779D02*
X117999Y107379D01*
X119599D01*
X118799Y105779D01*
X127539Y105700D02*
X126739Y107300D01*
X128339D01*
X127539Y105700D01*
X114547D02*
X113747Y107300D01*
X115347D01*
X114547Y105700D01*
X110217D02*
X109417Y107300D01*
X111017D01*
X110217Y105700D01*
X164173Y121621D02*
X163373Y123221D01*
X164973D01*
X164173Y121621D01*
Y126661D02*
X163373Y128261D01*
X164973D01*
X164173Y126661D01*
X220472Y1365D02*
X219672Y2965D01*
X221272D01*
X220472Y1365D01*
X223622Y8846D02*
X222822Y10446D01*
X224422D01*
X223622Y8846D01*
X225590Y10814D02*
X224791Y12414D01*
X226391D01*
X225590Y10814D01*
X210630Y23413D02*
X209830Y25013D01*
X211430D01*
X210630Y23413D01*
X176969Y43984D02*
X176169Y45584D01*
X177769D01*
X176969Y43984D01*
Y49102D02*
X176169Y50702D01*
X177769D01*
X176969Y49102D01*
Y51661D02*
X176169Y53261D01*
X177769D01*
X176969Y51661D01*
Y59338D02*
X176169Y60938D01*
X177769D01*
X176969Y59338D01*
Y56779D02*
X176169Y58379D01*
X177769D01*
X176969Y56779D01*
X182874Y75381D02*
X182074Y76981D01*
X183674D01*
X182874Y75381D01*
X140772Y18885D02*
X139972Y20485D01*
X141572D01*
X140772Y18885D01*
X138587Y22822D02*
X137787Y24422D01*
X139387D01*
X138587Y22822D01*
X140772Y14948D02*
X139972Y16548D01*
X141572D01*
X140772Y14948D01*
X138587Y26759D02*
X137787Y28359D01*
X139387D01*
X138587Y26759D01*
X156341Y157999D02*
X155541Y159599D01*
X157141D01*
X156341Y157999D01*
X184449Y109338D02*
X183649Y110938D01*
X185249D01*
X184449Y109338D01*
X161614Y114554D02*
X160814Y116154D01*
X162414D01*
X161614Y114554D01*
X167323Y65086D02*
X166523Y66686D01*
X168123D01*
X167323Y65086D01*
X165354Y86306D02*
X164554Y87906D01*
X166154D01*
X165354Y86306D01*
X188425Y83924D02*
X187625Y85524D01*
X189225D01*
X188425Y83924D01*
X182874Y65086D02*
X182074Y66686D01*
X183674D01*
X182874Y65086D01*
X150492Y59338D02*
X149692Y60938D01*
X151292D01*
X150492Y59338D01*
X150984Y13865D02*
X150184Y15465D01*
X151784D01*
X150984Y13865D01*
X185039Y16946D02*
X184239Y18546D01*
X185839D01*
X185039Y16946D01*
X211024Y33747D02*
X210224Y35347D01*
X211824D01*
X211024Y33747D01*
X220374Y90342D02*
X219574Y91942D01*
X221174D01*
X220374Y90342D01*
Y83255D02*
X219574Y84855D01*
X221174D01*
X220374Y83255D01*
Y76169D02*
X219574Y77768D01*
X221174D01*
X220374Y76169D01*
X199606Y76208D02*
X198806Y77808D01*
X200406D01*
X199606Y76208D01*
Y79948D02*
X198806Y81548D01*
X200406D01*
X199606Y79948D01*
X94488Y28728D02*
X93688Y30328D01*
X95288D01*
X94488Y28728D01*
X90551Y10220D02*
X89751Y11820D01*
X91351D01*
X90551Y10220D01*
X161614Y54220D02*
X160814Y55820D01*
X162414D01*
X161614Y54220D01*
X140551Y24791D02*
X139751Y26391D01*
X141351D01*
X140551Y24791D01*
X185039Y6657D02*
X184239Y8257D01*
X185839D01*
X185039Y6657D01*
X182913Y80184D02*
X182113Y81784D01*
X183713D01*
X182913Y80184D01*
Y87665D02*
X182113Y89265D01*
X183713D01*
X182913Y87665D01*
X184449Y99102D02*
X183649Y100702D01*
X185249D01*
X184449Y99102D01*
Y101661D02*
X183649Y103261D01*
X185249D01*
X184449Y101661D01*
Y104220D02*
X183649Y105820D01*
X185249D01*
X184449Y104220D01*
X210512Y72625D02*
X209712Y74225D01*
X211312D01*
X210512Y72625D01*
Y76169D02*
X209712Y77768D01*
X211312D01*
X210512Y76169D01*
X177165Y6657D02*
X176365Y8257D01*
X177965D01*
X177165Y6657D01*
X161417D02*
X160617Y8257D01*
X162217D01*
X161417Y6657D01*
X153543D02*
X152743Y8257D01*
X154343D01*
X153543Y6657D01*
X225590Y20263D02*
X224791Y21863D01*
X226391D01*
X225590Y20263D01*
X260433Y110440D02*
X259633Y112040D01*
X261233D01*
X260433Y110440D01*
Y115440D02*
X259633Y117040D01*
X261233D01*
X260433Y115440D01*
Y120440D02*
X259633Y122040D01*
X261233D01*
X260433Y120440D01*
X169488Y46543D02*
X168688Y48142D01*
X170288D01*
X169488Y46543D01*
X54528Y80440D02*
X53728Y82040D01*
X55328D01*
X54528Y80440D01*
X125984Y61011D02*
X125184Y62611D01*
X126784D01*
X125984Y61011D01*
X54528Y85440D02*
X53728Y87040D01*
X55328D01*
X54528Y85440D01*
X75590Y16917D02*
X74791Y18517D01*
X76390D01*
X75590Y16917D01*
X68898Y12979D02*
X68098Y14580D01*
X69698D01*
X68898Y12979D01*
X66929Y14948D02*
X66129Y16548D01*
X67729D01*
X66929Y14948D01*
X54528Y10440D02*
X53728Y12040D01*
X55328D01*
X54528Y10440D01*
X54525Y25437D02*
X53725Y27037D01*
X55325D01*
X54525Y25437D01*
X54528Y20440D02*
X53728Y22040D01*
X55328D01*
X54528Y20440D01*
Y70440D02*
X53728Y72040D01*
X55328D01*
X54528Y70440D01*
Y75440D02*
X53728Y77040D01*
X55328D01*
X54528Y75440D01*
Y15440D02*
X53728Y17040D01*
X55328D01*
X54528Y15440D01*
X70866Y22822D02*
X70066Y24422D01*
X71666D01*
X70866Y22822D01*
X72835Y20854D02*
X72035Y22454D01*
X73635D01*
X72835Y20854D01*
X24213Y130440D02*
X23413Y132040D01*
X25013D01*
X24213Y130440D01*
X290748Y135440D02*
X289948Y137040D01*
X291548D01*
X290748Y135440D01*
Y145440D02*
X289948Y147040D01*
X291548D01*
X290748Y145440D01*
X129921Y61011D02*
X129121Y62611D01*
X130721D01*
X129921Y61011D01*
X127953Y59047D02*
X127153Y60646D01*
X128753D01*
X127953Y59047D01*
X138587Y54318D02*
X137787Y55918D01*
X139387D01*
X138587Y54318D01*
X131890Y59047D02*
X131090Y60646D01*
X132690D01*
X131890Y59047D01*
X124016D02*
X123216Y60646D01*
X124816D01*
X124016Y59047D01*
X169488Y54220D02*
X168688Y55820D01*
X170288D01*
X169488Y54220D01*
X161614Y96543D02*
X160814Y98142D01*
X162414D01*
X161614Y96543D01*
Y99102D02*
X160814Y100702D01*
X162414D01*
X161614Y99102D01*
Y101661D02*
X160814Y103261D01*
X162414D01*
X161614Y101661D01*
Y104220D02*
X160814Y105820D01*
X162414D01*
X161614Y104220D01*
Y109338D02*
X160814Y110938D01*
X162414D01*
X161614Y109338D01*
Y111897D02*
X160814Y113497D01*
X162414D01*
X161614Y111897D01*
X163579Y43984D02*
X162779Y45584D01*
X164379D01*
X163579Y43984D01*
Y51661D02*
X162779Y53261D01*
X164379D01*
X163579Y51661D01*
X201575Y42212D02*
X200775Y43812D01*
X202375D01*
X201575Y42212D01*
X176969Y26661D02*
X176169Y28261D01*
X177769D01*
X176969Y26661D01*
Y29220D02*
X176169Y30820D01*
X177769D01*
X176969Y29220D01*
Y31779D02*
X176169Y33379D01*
X177769D01*
X176969Y31779D01*
X201571Y29712D02*
X200771Y31312D01*
X202371D01*
X201571Y29712D01*
X176969Y24102D02*
X176169Y25702D01*
X177769D01*
X176969Y24102D01*
X161614D02*
X160814Y25702D01*
X162414D01*
X161614Y24102D01*
Y26661D02*
X160814Y28261D01*
X162414D01*
X161614Y26661D01*
Y29220D02*
X160814Y30820D01*
X162414D01*
X161614Y29220D01*
Y34338D02*
X160814Y35938D01*
X162414D01*
X161614Y34338D01*
Y31779D02*
X160814Y33379D01*
X162414D01*
X161614Y31779D01*
X260433Y95440D02*
X259633Y97040D01*
X261233D01*
X260433Y95440D01*
Y100440D02*
X259633Y102040D01*
X261233D01*
X260433Y100440D01*
X225787Y102999D02*
X224987Y104599D01*
X226587D01*
X225787Y102999D01*
X199409Y100676D02*
X198609Y102276D01*
X200209D01*
X199409Y100676D01*
Y105696D02*
X198609Y107296D01*
X200209D01*
X199409Y105696D01*
Y112999D02*
X198609Y114599D01*
X200209D01*
X199409Y112999D01*
X212377Y117827D02*
X211577Y119427D01*
X213177D01*
X212377Y117827D01*
X196575Y117881D02*
X195775Y119481D01*
X197375D01*
X196575Y117881D01*
X228125Y118122D02*
X227325Y119722D01*
X228925D01*
X228125Y118122D01*
X199606Y10814D02*
X198806Y12414D01*
X200406D01*
X199606Y10814D01*
X260433Y75440D02*
X259633Y77040D01*
X261233D01*
X260433Y75440D01*
X201571Y32861D02*
X200771Y34461D01*
X202371D01*
X201571Y32861D01*
Y26562D02*
X200771Y28162D01*
X202371D01*
X201571Y26562D01*
X225590Y17113D02*
X224791Y18713D01*
X226391D01*
X225590Y17113D01*
Y13964D02*
X224791Y15564D01*
X226391D01*
X225590Y13964D01*
X260433Y65440D02*
X259633Y67040D01*
X261233D01*
X260433Y65440D01*
Y5440D02*
X259633Y7040D01*
X261233D01*
X260433Y5440D01*
Y10440D02*
X259633Y12040D01*
X261233D01*
X260433Y10440D01*
Y15440D02*
X259633Y17040D01*
X261233D01*
X260433Y15440D01*
X204724Y8846D02*
X203924Y10446D01*
X205524D01*
X204724Y8846D01*
X201575D02*
X200775Y10446D01*
X202375D01*
X201575Y8846D01*
X225590Y23413D02*
X224791Y25013D01*
X226391D01*
X225590Y23413D01*
X260433Y70440D02*
X259633Y72040D01*
X261233D01*
X260433Y70440D01*
X290748Y75440D02*
X289948Y77040D01*
X291548D01*
X290748Y75440D01*
Y70440D02*
X289948Y72040D01*
X291548D01*
X290748Y70440D01*
X87795Y44425D02*
X86995Y46025D01*
X88595D01*
X87795Y44425D01*
X24213Y70440D02*
X23413Y72040D01*
X25013D01*
X24213Y70440D01*
X24210Y75437D02*
X23410Y77037D01*
X25010D01*
X24210Y75437D01*
X87795Y48413D02*
X86995Y50013D01*
X88595D01*
X87795Y48413D01*
X92520Y61011D02*
X91720Y62611D01*
X93320D01*
X92520Y61011D01*
X108268Y8255D02*
X107468Y9855D01*
X109068D01*
X108268Y8255D01*
X106299Y10220D02*
X105499Y11820D01*
X107099D01*
X106299Y10220D01*
X104381Y8255D02*
X103581Y9855D01*
X105181D01*
X104381Y8255D01*
X102362Y10220D02*
X101562Y11820D01*
X103162D01*
X102362Y10220D01*
X100394Y8255D02*
X99594Y9855D01*
X101194D01*
X100394Y8255D01*
X98425Y10220D02*
X97625Y11820D01*
X99225D01*
X98425Y10220D01*
X96457Y8255D02*
X95657Y9855D01*
X97257D01*
X96457Y8255D01*
X24213Y90440D02*
X23413Y92040D01*
X25013D01*
X24213Y90440D01*
Y95440D02*
X23413Y97040D01*
X25013D01*
X24213Y95440D01*
Y100440D02*
X23413Y102040D01*
X25013D01*
X24213Y100440D01*
X24213Y105440D02*
X23413Y107040D01*
X25013D01*
X24213Y105440D01*
X24213Y110440D02*
X23413Y112040D01*
X25013D01*
X24213Y110440D01*
Y115440D02*
X23413Y117040D01*
X25013D01*
X24213Y115440D01*
Y120440D02*
X23413Y122040D01*
X25013D01*
X24213Y120440D01*
Y125440D02*
X23413Y127040D01*
X25013D01*
X24213Y125440D01*
X125984Y10220D02*
X125184Y11820D01*
X126784D01*
X125984Y10220D01*
X124016Y8255D02*
X123216Y9855D01*
X124816D01*
X124016Y8255D01*
X122047Y10220D02*
X121247Y11820D01*
X122847D01*
X122047Y10220D01*
X120129Y8255D02*
X119329Y9855D01*
X120929D01*
X120129Y8255D01*
X118110Y10220D02*
X117310Y11820D01*
X118910D01*
X118110Y10220D01*
X260433Y60440D02*
X259633Y62040D01*
X261233D01*
X260433Y60440D01*
Y55440D02*
X259633Y57040D01*
X261233D01*
X260433Y55440D01*
Y40440D02*
X259633Y42040D01*
X261233D01*
X260433Y40440D01*
Y45440D02*
X259633Y47040D01*
X261233D01*
X260433Y45440D01*
Y50440D02*
X259633Y52040D01*
X261233D01*
X260433Y50440D01*
X290748Y20440D02*
X289948Y22040D01*
X291548D01*
X290748Y20440D01*
X290945Y25440D02*
X290145Y27040D01*
X291745D01*
X290945Y25440D01*
X290748Y30440D02*
X289948Y32040D01*
X291548D01*
X290748Y30440D01*
Y35440D02*
X289948Y37040D01*
X291548D01*
X290748Y35440D01*
Y40440D02*
X289948Y42040D01*
X291548D01*
X290748Y40440D01*
Y45440D02*
X289948Y47040D01*
X291548D01*
X290748Y45440D01*
Y50440D02*
X289948Y52040D01*
X291548D01*
X290748Y50440D01*
Y55440D02*
X289948Y57040D01*
X291548D01*
X290748Y55440D01*
X100394Y59047D02*
X99594Y60646D01*
X101194D01*
X100394Y59047D01*
X138587Y38570D02*
X137787Y40170D01*
X139387D01*
X138587Y38570D01*
X98425Y61011D02*
X97625Y62611D01*
X99225D01*
X98425Y61011D01*
X133858D02*
X133058Y62611D01*
X134658D01*
X133858Y61011D01*
X138587Y12979D02*
X137787Y14580D01*
X139387D01*
X138587Y12979D01*
X140772Y11011D02*
X139972Y12611D01*
X141572D01*
X140772Y11011D01*
X138587Y16917D02*
X137787Y18517D01*
X139387D01*
X138587Y16917D01*
Y30696D02*
X137787Y32296D01*
X139387D01*
X138587Y30696D01*
Y34633D02*
X137787Y36233D01*
X139387D01*
X138587Y34633D01*
X140551Y28778D02*
X139751Y30378D01*
X141351D01*
X140551Y28778D01*
Y32665D02*
X139751Y34265D01*
X141351D01*
X140551Y32665D01*
X89735Y34658D02*
X88934Y36258D01*
X90535D01*
X89735Y34658D01*
X87770Y36576D02*
X86970Y38176D01*
X88570D01*
X87770Y36576D01*
Y32690D02*
X86970Y34290D01*
X88570D01*
X87770Y32690D01*
X87795Y40539D02*
X86995Y42139D01*
X88595D01*
X87795Y40539D01*
Y52350D02*
X86995Y53950D01*
X88595D01*
X87795Y52350D01*
X89760Y38570D02*
X88960Y40170D01*
X90560D01*
X89760Y38570D01*
Y42507D02*
X88960Y44107D01*
X90560D01*
X89760Y42507D01*
Y46444D02*
X88960Y48044D01*
X90560D01*
X89760Y46444D01*
Y50381D02*
X88960Y51981D01*
X90560D01*
X89760Y50381D01*
X87795Y18834D02*
X86995Y20434D01*
X88595D01*
X87795Y18834D01*
X91339Y26759D02*
X90539Y28359D01*
X92139D01*
X91339Y26759D01*
X89764Y24791D02*
X88964Y26390D01*
X90564D01*
X89764Y24791D01*
X112205Y8255D02*
X111405Y9855D01*
X113005D01*
X112205Y8255D01*
X114173Y10220D02*
X113373Y11820D01*
X114973D01*
X114173Y10220D01*
X116142Y8255D02*
X115342Y9855D01*
X116942D01*
X116142Y8255D01*
X110236Y10220D02*
X109436Y11820D01*
X111036D01*
X110236Y10220D01*
X140551Y52350D02*
X139751Y53950D01*
X141351D01*
X140551Y52350D01*
Y48463D02*
X139751Y50063D01*
X141351D01*
X140551Y48463D01*
Y40539D02*
X139751Y42139D01*
X141351D01*
X140551Y40539D01*
X138587Y50381D02*
X137787Y51981D01*
X139387D01*
X138587Y50381D01*
Y46444D02*
X137787Y48044D01*
X139387D01*
X138587Y46444D01*
Y42507D02*
X137787Y44107D01*
X139387D01*
X138587Y42507D01*
X140551Y44476D02*
X139751Y46076D01*
X141351D01*
X140551Y44476D01*
X118110Y61011D02*
X117310Y62611D01*
X118910D01*
X118110Y61011D01*
X120079Y59047D02*
X119279Y60646D01*
X120879D01*
X120079Y59047D01*
X116142D02*
X115342Y60646D01*
X116942D01*
X116142Y59047D01*
X112205D02*
X111405Y60646D01*
X113005D01*
X112205Y59047D01*
X108268D02*
X107468Y60646D01*
X109068D01*
X108268Y59047D01*
X24213Y5440D02*
X23413Y7040D01*
X25013D01*
X24213Y5440D01*
Y10440D02*
X23413Y12040D01*
X25013D01*
X24213Y10440D01*
Y15440D02*
X23413Y17040D01*
X25013D01*
X24213Y15440D01*
X54528Y30440D02*
X53728Y32040D01*
X55328D01*
X54528Y30440D01*
Y35440D02*
X53728Y37040D01*
X55328D01*
X54528Y35440D01*
Y40440D02*
X53728Y42040D01*
X55328D01*
X54528Y40440D01*
Y45440D02*
X53728Y47040D01*
X55328D01*
X54528Y45440D01*
Y50440D02*
X53728Y52040D01*
X55328D01*
X54528Y50440D01*
Y55440D02*
X53728Y57040D01*
X55328D01*
X54528Y55440D01*
Y115440D02*
X53728Y117040D01*
X55328D01*
X54528Y115440D01*
Y120440D02*
X53728Y122040D01*
X55328D01*
X54528Y120440D01*
Y125440D02*
X53728Y127040D01*
X55328D01*
X54528Y125440D01*
X54528Y130440D02*
X53728Y132040D01*
X55328D01*
X54528Y130440D01*
X24213Y25440D02*
X23413Y27040D01*
X25013D01*
X24213Y25440D01*
Y50440D02*
X23413Y52040D01*
X25013D01*
X24213Y50440D01*
X260433Y30440D02*
X259633Y32040D01*
X261233D01*
X260433Y30440D01*
Y35440D02*
X259633Y37040D01*
X261233D01*
X260433Y35440D01*
Y135440D02*
X259633Y137040D01*
X261233D01*
X260433Y135440D01*
Y125440D02*
X259633Y127040D01*
X261233D01*
X260433Y125440D01*
X290748Y60440D02*
X289948Y62040D01*
X291548D01*
X290748Y60440D01*
X122047Y61011D02*
X121247Y62611D01*
X122847D01*
X122047Y61011D01*
X114123D02*
X113323Y62611D01*
X114923D01*
X114123Y61011D01*
X110236D02*
X109436Y62611D01*
X111036D01*
X110236Y61011D01*
X137795Y8035D02*
X136995Y9635D01*
X138595D01*
X137795Y8035D01*
X133858D02*
X133058Y9635D01*
X134658D01*
X133858Y8035D01*
X135827Y10220D02*
X135027Y11820D01*
X136627D01*
X135827Y10220D01*
X54528Y110440D02*
X53728Y112040D01*
X55328D01*
X54528Y110440D01*
X54646Y105559D02*
X53847Y107159D01*
X55446D01*
X54646Y105559D01*
X24213Y30440D02*
X23413Y32040D01*
X25013D01*
X24213Y30440D01*
X131890Y10220D02*
X131090Y11820D01*
X132690D01*
X131890Y10220D01*
X129921Y8035D02*
X129121Y9635D01*
X130721D01*
X129921Y8035D01*
X54528Y60440D02*
X53728Y62040D01*
X55328D01*
X54528Y60440D01*
Y65440D02*
X53728Y67040D01*
X55328D01*
X54528Y65440D01*
Y95440D02*
X53728Y97040D01*
X55328D01*
X54528Y95440D01*
Y100440D02*
X53728Y102040D01*
X55328D01*
X54528Y100440D01*
Y135440D02*
X53728Y137040D01*
X55328D01*
X54528Y135440D01*
Y145440D02*
X53728Y147040D01*
X55328D01*
X54528Y145440D01*
Y150440D02*
X53728Y152040D01*
X55328D01*
X54528Y150440D01*
X24213Y145440D02*
X23413Y147040D01*
X25013D01*
X24213Y145440D01*
Y140440D02*
X23413Y142040D01*
X25013D01*
X24213Y140440D01*
Y135440D02*
X23413Y137040D01*
X25013D01*
X24213Y135440D01*
Y85440D02*
X23413Y87040D01*
X25013D01*
X24213Y85440D01*
Y80440D02*
X23413Y82040D01*
X25013D01*
X24213Y80440D01*
Y65440D02*
X23413Y67040D01*
X25013D01*
X24213Y65440D01*
Y60440D02*
X23413Y62040D01*
X25013D01*
X24213Y60440D01*
Y55440D02*
X23413Y57040D01*
X25013D01*
X24213Y55440D01*
Y45440D02*
X23413Y47040D01*
X25013D01*
X24213Y45440D01*
Y40440D02*
X23413Y42040D01*
X25013D01*
X24213Y40440D01*
Y35440D02*
X23413Y37040D01*
X25013D01*
X24213Y35440D01*
X260433Y25440D02*
X259633Y27040D01*
X261233D01*
X260433Y25440D01*
Y80440D02*
X259633Y82040D01*
X261233D01*
X260433Y80440D01*
Y85440D02*
X259633Y87040D01*
X261233D01*
X260433Y85440D01*
Y90440D02*
X259633Y92040D01*
X261233D01*
X260433Y90440D01*
Y105440D02*
X259633Y107040D01*
X261233D01*
X260433Y105440D01*
Y130440D02*
X259633Y132040D01*
X261233D01*
X260433Y130440D01*
Y140440D02*
X259633Y142040D01*
X261233D01*
X260433Y140440D01*
Y145440D02*
X259633Y147040D01*
X261233D01*
X260433Y145440D01*
X290748Y150440D02*
X289948Y152040D01*
X291548D01*
X290748Y150440D01*
Y10440D02*
X289948Y12040D01*
X291548D01*
X290748Y10440D01*
Y15440D02*
X289948Y17040D01*
X291548D01*
X290748Y15440D01*
Y65440D02*
X289948Y67040D01*
X291548D01*
X290748Y65440D01*
Y80440D02*
X289948Y82040D01*
X291548D01*
X290748Y80440D01*
Y85440D02*
X289948Y87040D01*
X291548D01*
X290748Y85440D01*
Y90440D02*
X289948Y92040D01*
X291548D01*
X290748Y90440D01*
Y95440D02*
X289948Y97040D01*
X291548D01*
X290748Y95440D01*
Y100440D02*
X289948Y102040D01*
X291548D01*
X290748Y100440D01*
Y105440D02*
X289948Y107040D01*
X291548D01*
X290748Y105440D01*
Y110440D02*
X289948Y112040D01*
X291548D01*
X290748Y110440D01*
Y115440D02*
X289948Y117040D01*
X291548D01*
X290748Y115440D01*
Y120440D02*
X289948Y122040D01*
X291548D01*
X290748Y120440D01*
Y125440D02*
X289948Y127040D01*
X291548D01*
X290748Y125440D01*
Y130440D02*
X289948Y132040D01*
X291548D01*
X290748Y130440D01*
M02*
