M48
;Layer_Color=9474304
;FILE_FORMAT=2:5
INCH,LZ
;TYPE=PLATED
T3F00S00C0.01968
%
G90
G05
T03
G00X1003937Y025374
M15
G01Y0255709
M16
G00X1012598Y0263976
M15
G01Y026752
M16
G00X1003937Y0275787
M15
G01Y0277756
M16
G00X1003937Y0312795
M15
G01Y0314764
M16
G00X1012598Y0323031
M15
G01Y0326575
M16
G00X1003937Y0334842
M15
G01Y0336811
M16
G00X1003937Y037185
M15
G01Y0373819
M16
G00X1012598Y0382087
M15
G01Y038563
M16
G00X1003937Y0393898
M15
G01Y0395866
M16
G00X1003937Y0430905
M15
G01Y0432874
M16
G00X1012598Y0441142
M15
G01Y0444685
M16
G00X1003937Y0452953
M15
G01Y0454921
M16
M17
M30
