M48
;Layer_Color=9474304
;FILE_FORMAT=2:5
INCH,LZ
;TYPE=PLATED
T1F00S00C0.00787
T2F00S00C0.01968
T4F00S00C0.04016
T6F00S00C0.04724
T7F00S00C0.11811
%
T01
X0018307Y003937
X0032874
X0041929
X0056496
X0065551
X0080118
X0089173
X010374
X0112795
X0127362
X0136417
X0139862Y0080459
X0137716Y0083874
X0114094
X011624Y0080459
X0092618
X0090472Y0083874
X006685
X0068996Y0080459
X0045374
X0043228Y0083874
X0019685
X0021752Y0080459
X0163484
X0161339Y0083874
X0184961
X0187106Y0080459
X0226476
X022441Y0083874
X0247953
X0250098Y0080459
X0273721
X0271575Y0083874
X0295197
X0297342Y0080459
X0293898Y003937
X0284842
X0270276
X0261221
X0246654
X0237598
X0223031
X0198228
X0183661
X0174606
X0160039
X0150984
X0308465
X031752
X0332087
X0341142
X0355709
X0364764
X0379331
X0388386
X0402953
X0427756
X0442323
X0451378
X0454823Y0080459
X0452677Y0083874
X0429134
X0431201Y0080459
X0391831
X0389685Y0083874
X0366063
X0368209Y0080459
X0344587
X0342441Y0083874
X0318819
X0320965Y0080459
X0478445
X0476299Y0083874
X0499921
X0502067Y0080459
X0525689
X0523543Y0083874
X0547165
X0549311Y0080459
X0572933
X0570787Y0083874
X0594409
X0596555Y0080459
X059311Y003937
X0584055
X0569488
X0560433
X0545866
X0536811
X0522244
X0513189
X0498622
X0489567
X0475
X0465945
X0607677
X063248
X0647047
X0656102
X0670669
X0679724
X0694291
X0703346
X0717913
X0726968
X0741535
X0750591
X0765158
X0754035Y0080459
X075189Y0083874
X0728268
X0730413Y0080459
X0706791
X0704646Y0083874
X0681024
X0683169Y0080459
X0659547
X0657402Y0083874
X0633858
X0635925Y0080459
X0777658
X0775512Y0083874
X0799134
X080128Y0080459
X084065
X0838583Y0083874
X0862126
X0864272Y0080459
X0887894
X0885748Y0083874
X090937
X0911516Y0080459
X0908071Y003937
X0899016
X0884449
X0875394
X0860827
X0851772
X0837205
X0812402
X0797835
X0788779
X0774213
X0922638
X0931693
X094626
X0955315
X0969882
X0978937
X0993504
X1002559
X1017126
X1006004Y0080459
X1003858Y0083874
X0980236
X0982382Y0080459
X095876
X0956614Y0083874
X0932992
X0935138Y0080459
X0945315Y0102362
Y01425
X0955315
X0965315
X0975315
X0985315
X0995315
X1005315
X1015315
X081059
X0800591
X079059
X078059
X0842953Y0102362
X074059
Y01425
X0750591
X0760591
X077059
X0638228Y0102362
X0605866Y01425
X0595866
X0585866
X0575866
X0565866
X0555866
X0545866
X0535866
Y0102362
X0433504
X0401142Y01425
X0391142
X0381142
X0371142
X0361142
X0351142
X0341142
X0331142
Y0102362
X022878
X0196417Y01425
X0186417
X0176417
X0166417
X0156417
X0146417
X0136417
X0126417
Y0102362
X0024055
X005487Y0273146
X0078988
X0059055Y0335236
Y0349803
X0046997Y0393701
X0071271
X0114173Y034626
Y034252
Y0338779
X0109843Y0335236
X015748
Y0349803
X0188091Y0387303
X0206248Y038752
X0263779Y0386417
Y0307677
X0180945Y0277289
X0153296Y0271
X0362205Y0286831
Y0296831
Y0301831
X0379921
Y0296831
Y0286831
Y0281831
Y0306831
Y0311831
Y0316831
Y0321831
Y0326831
Y0331831
Y0336831
Y0341831
Y0346831
Y0351831
Y0356831
Y0371831
Y0376831
X0362205Y0381831
Y0386831
Y0391831
Y0396831
Y0366831
Y0361831
X0403543
Y0356831
Y0351831
Y0346831
Y0341831
Y0336831
Y0331831
Y0326831
Y0321831
Y0316831
Y0311831
Y0306831
Y0291831
Y0366831
Y0371831
Y0376831
Y0381831
Y0386831
Y0391831
Y0396831
X0538713Y0339713
X0616142Y0341831
Y0336831
Y0331831
Y0326831
Y0321831
Y0316831
Y0311831
Y0306831
Y0301831
Y0296831
Y0286831
Y0281831
Y0346831
Y0351831
Y0356831
Y0361831
Y0366831
Y0371831
Y0376831
Y0381831
Y0386831
Y0391831
Y0396831
X0639764
Y0391831
Y0386831
Y0381831
Y0376831
Y0371831
Y0366831
Y0361831
Y0356831
Y0351831
Y0346831
Y0341831
Y0336831
Y0331831
Y0326831
Y0321831
Y0316831
Y0311831
Y0306831
Y0301831
Y0296831
Y0291831
Y0286831
X0761988Y0322726
X0765512Y0333926
X0761988Y0381782
X0765512Y0392981
X077928Y0383858
Y0324803
X0880118Y0331741
X0889764Y0331957
X0894Y032311
X0895225Y0385551
X0902165Y0383858
X0916732
X0880118Y0390796
X096Y0391945
X0966343
X0977366Y0388976
Y037874
X0971657Y0374445
X0968114Y037464
X0964571Y0374803
X0966343Y033289
X096
X0977366Y0329921
Y0319685
X0971657Y031539
X0968114Y0315585
X0964571Y0315748
X0966343Y0273835
X096
X0977366Y0270866
Y026063
X0971657Y0256335
X0968114Y025653
X0964571Y0256693
X1007874Y026063
Y0263189
Y0265748
Y0319685
Y0322244
Y0324803
Y037874
Y0381299
Y0383858
Y0437795
Y0440354
Y0442913
X0977366Y0437795
X0971657Y04335
X0968114Y0433695
X0964571Y0433858
X0966343Y0451
X096
X0977366Y0448032
X0916732Y0442913
X0902165
X0895225Y0444606
X0880118Y0449851
X0814319Y0442913
X077928
X0778978Y0543307
X0774057
X0783899
X087445
X0879372
X0884293
X0889214
X0894135
X0769135
X0764214
X0765512Y0452036
X0761988Y0440837
X0639764Y0426831
Y0421831
Y0416831
Y0406831
Y0401831
X0616142
Y0406831
Y0411831
Y0416831
Y0421831
X0520622Y0414476
X0507866
X0490622
X0494882Y0543654
X0504882
X0514882
X0524882
X0563307
X0573307
X0583307
X0593307
X0603307
X0613307
X0484882
X0402009Y0538138
X0397088
X0392167
X0387246
X03955Y0482
X0403543Y0426831
Y0421831
Y0406831
Y0401831
X0417323Y0416831
X0362205
Y0421831
Y0411831
Y0406831
Y0401831
X0315395Y0538138
X0310474
X0305553
X0300631
X0228031Y0533654
X0221417Y0543654
X0211417
X0201417
X0191417
X0181417Y0543654
X0171417
X0188091Y0410925
X0206248Y0411142
X0111417Y05145
X0102362Y0531496
T02
X0003937Y0019685
Y0023622
Y0027559
Y0031496
Y0035433
Y003937
Y0043307
Y0047244
Y0051181
Y0055118
Y0059055
Y0062992
Y0066929
Y0070866
Y0074803
Y007874
Y0082677
Y0086614
X0019686Y0003937
X0023623
X002756
X0031497
X0035434
X0039371
X0043308
X0047245
X0051182
X0055119
X0059056
X0062993
X006693
X0070867
X0074804
X0078741
X0082678
X0086615
X0090552
X0094489
X0098426
X0102363
X01063
X0110237
X0114174
X0118111
X0122048
X0125985
X0129922
X0133859
X0137796
X0141733
X014567
X0149607
X0153544
X0157481
X0161418
X0165355
X0169292
X0173229
X0177166
X0181103
X018504
X0188977
X0192914
X0196851
X0200788
X0204725
X0208662
X0212599
X0216536
X0220473
X022441
X0228347
X0232284
X0236221
X0240158
X0244095
X0248032
X0251969
X0255906
X0259843
X026378
X0267717
X0271654
X0275591
X0279528
X0283465
X0287402
X0291339
X0295276
X0299213
X030315
X0307087
X0311024
X0314961
X0318898
X0322835
X0326772
X0330709
X0334646
X0338583
X034252
X0346457
X0350394
X0354331
X0358268
X0362205
X0366142
X0370079
X0374016
X0377953
X038189
X0385827
X0389764
X0393701
X0397638
X0401575
X0405512
X0409449
X0413386
X0417323
X042126
X0425197
X0429134
X0433071
X0437008
X0440945
X0444882
X0448819
X0452756
X0456693
X046063
X0464567
X0468504
X0472441
X0476378
X0480315
X0484252
X0488189
X0492126
X0496063
X05
X0503937
X0507874
X0511811
X0515748
X0519685
X0523622
X0527559
X0531496
X0535433
X053937
X0543307
X0547244
X0551181
X0555118
X0559055
X0562992
X0566929
X0570866
X0574803
X057874
X0582677
X0586614
X0590551
X0594488
X0598425
X0602362
X0606299
X0610236
X0614173
X061811
X0622047
X0625984
X0629921
X0633858
X0637795
X0641732
X0645669
X0649606
X0653543
X065748
X0661417
X0665354
X0669291
X0673228
X0677165
X0681102
X0685039
X0688976
X0692913
X069685
X0700787
X0704724
X0708661
X0712598
X0716535
X0720472
X0724409
X0728346
X0732283
X073622
X0740157
X0744094
X0748031
X0751968
X0755905
X0759842
X0763779
X0767716
X0771653
X077559
X0779527
X0783464
X0787401
X0791338
X0795275
X0799212
X0803149
X0807086
X0811023
X081496
X0818897
X0822834
X0826771
X0830708
X0834645
X0838582
X0842519
X0846456
X0850393
X085433
X0858267
X0862204
X0866141
X0870078
X0874015
X0877952
X0881889
X0885826
X0889763
X08937
X0897637
X0901574
X0905511
X0909448
X0913385
X0917322
X0921259
X0925196
X0929133
X093307
X0937007
X0940944
X0944881
X0948818
X0952755
X0956692
X0960629
X0964566
X0968503
X097244
X0976377
X0980314
X0984251
X0988188
X0992125
X0996062
X0999999
X1003936
X1007873
X101181
X1015747
X1019684
X1023621
X103937Y0019686
Y0023623
Y002756
Y0031497
Y0035434
Y0039371
Y0043308
Y0047245
Y0051182
Y0055119
Y0059056
Y0062993
Y006693
Y0070867
Y0074804
Y0078741
Y0082678
Y0086615
Y0090552
Y0094489
Y0098426
Y0102363
Y01063
Y0110237
Y0114174
Y0118111
Y0122048
Y0125985
Y0129922
Y0133859
Y0137796
Y0141733
Y014567
Y0149607
Y0153544
Y0157481
Y0161418
Y0165355
Y0169292
Y0173229
Y0177166
Y0181103
Y018504
Y0188977
Y0192914
Y0196851
Y0200788
Y0204725
Y0208662
Y0212599
Y0216536
Y0220473
Y022441
Y0228347
Y0232284
Y0236221
Y0240158
Y0244095
X0003937Y0244094
Y0240157
Y023622
Y0232283
Y0228346
Y0224409
Y0220472
Y0216535
Y0212598
Y0208661
Y0204724
Y0200787
Y019685
Y0192913
Y0188976
Y0185039
Y0181102
Y0177165
Y0173228
Y0169291
Y0165354
Y0161417
Y015748
Y0153543
Y0149606
Y0145669
Y0141732
Y0137795
Y0133858
Y0129921
Y0125984
Y0122047
Y011811
Y0114173
Y0110236
Y0106299
Y0102362
Y0098425
Y0094488
Y0090551
Y0248031
Y0251968
Y0255905
Y0259842
Y0263779
Y0267716
Y0271653
Y027559
Y0279527
Y0283464
Y0287401
Y0291338
Y0295275
Y0299212
Y0303149
Y0307086
Y0311023
Y031496
Y0318897
Y0322834
Y0326771
Y0330708
Y0334645
Y0338582
Y0342519
Y0346456
Y0350393
Y035433
Y0358267
Y0362204
Y0366141
Y0370078
Y0374015
Y0377952
Y0381889
Y0385826
Y0389763
Y03937
Y0397637
Y0401574
X103937Y0401575
Y0397638
Y0393701
Y0389764
Y0385827
Y038189
Y0377953
Y0374016
Y0370079
Y0366142
Y0362205
Y0358268
Y0354331
Y0350394
Y0346457
Y034252
Y0338583
Y0334646
Y0330709
Y0326772
Y0322835
Y0318898
Y0314961
Y0311024
Y0307087
Y030315
Y0299213
Y0295276
Y0291339
Y0287402
Y0283465
Y0279528
Y0275591
Y0271654
Y0267717
Y026378
Y0259843
Y0255906
Y0251969
Y0248032
Y0405512
Y0409449
Y0413386
Y0417323
Y042126
Y0425197
Y0429134
Y0433071
Y0437008
Y0440945
Y0444882
Y0448819
Y0452756
Y0456693
Y046063
Y0464567
Y0468504
Y0472441
Y0476378
Y0480315
Y0484252
Y0488189
Y0492126
Y0496063
Y05
Y0503937
Y0507874
Y0511811
Y0515748
Y0519685
Y0523622
Y0527559
Y0531496
Y0535433
Y053937
Y0543307
Y0547244
Y0551181
Y0555118
X0003937Y0555117
Y055118
Y0547243
Y0543306
Y0539369
Y0535432
Y0531495
Y0527558
Y0523621
Y0519684
Y0515747
Y051181
Y0507873
Y0503936
Y0499999
Y0496062
Y0492125
Y0488188
Y0484251
Y0480314
Y0476377
Y047244
Y0468503
Y0464566
Y0460629
Y0456692
Y0452755
Y0448818
Y0444881
Y0440944
Y0437007
Y043307
Y0429133
Y0425196
Y0421259
Y0417322
Y0413385
Y0409448
Y0405511
Y0559054
Y0562991
Y0566928
Y0570865
X0019686Y0586614
X0023623
X002756
X0031497
X0035434
X0039371
X0043308
X0047245
X0051182
X0055119
X0059056
X0062993
X006693
X0070867
X0074804
X0078741
X0082678
X0086615
X0090552
X0094489
X0098426
X0102363
X0106299
X0110237
X0114174
X0118111
X0122048
X0125985
X0129922
X0133859
X0137796
X0141733
X014567
X0149607
X0153544
X0157481
X0161418
X0165355
X0169292
X0173229
X0177166
X0181103
X018504
X0188977
X0192914
X0196851
X0200788
X0204725
X0208662
X0212598
X0216536
X0220473
X022441
X0228346
X0232284
X0236221
X0240158
X0244094
X0248032
X0251969
X0255906
X0259842
X026378
X0267717
X0271654
X027559
X0279528
X0283465
X0287402
X0291338
X0295276
X0299213
X030315
X0307086
X0311023
X0314961
X0318898
X0322834
X0326771
X0330709
X0334646
X0338582
X0342519
X0346457
X0350394
X035433
X0358267
X0362205
X0366142
X0370078
X0374015
X0377953
X038189
X0385826
X0389763
X0393701
X0397638
X0401575
X0405512
X0409448
X0413385
X0417322
X042126
X0425197
X0429134
X0433071
X0437008
X0440944
X0444881
X0448818
X0452756
X0456693
X046063
X0464567
X0468504
X047244
X0476377
X0480314
X0484252
X0488189
X0492126
X0496063
X05
X0503936
X0507873
X051181
X0515747
X0519685
X0523622
X0527559
X0531496
X0535432
X0539369
X0543306
X0547243
X0551181
X0555118
X0559055
X0562992
X0566928
X0570865
X0574802
X057874
X0582677
X0586614
X0590551
X0594488
X0598424
X0602361
X0606298
X0610236
X0614173
X061811
X0622047
X0625984
X0629921
X0633857
X0637794
X0641732
X0645669
X0649606
X0653543
X065748
X0661417
X0665353
X066929
X0673228
X0677165
X0681102
X0685039
X0688976
X0692913
X0696849
X0700786
X0704724
X0708661
X0712598
X0716535
X0720472
X0724409
X0728346
X0732282
X073622
X0740157
X0744094
X0748031
X0751968
X0755905
X0759842
X0763778
X0767716
X0771653
X077559
X0779527
X0783464
X0787401
X0791338
X0795274
X0799212
X0803148
X0807086
X0811022
X081496
X0818897
X0822834
X0826771
X0830708
X0834645
X0838582
X0842519
X0846456
X0850393
X085433
X0858267
X0862204
X0866141
X0870078
X0874015
X0877952
X0881889
X0885826
X0889763
X08937
X0897637
X0901574
X0905511
X0909448
X0913385
X0917322
X0921259
X0925196
X0929133
X093307
X0937007
X0940944
X0944881
X0948818
X0952755
X0956691
X0960629
X0964566
X0968503
X097244
X0976377
X0980314
X0984251
X0988188
X0992125
X0996062
X0999999
X1003936
X1007873
X101181
X1015747
X1019683
X1023621
X103937Y0570866
Y0566929
Y0562992
Y0559055
T04
X0934134Y0165354
X0944134
X0954134
X0964134
X0924134
X0914134
X0904134
X075941
X0749409
X0739409
X072941
X071941
X070941
X0699409
X0554685
X0544685
X0534685
X0524685
X0514685
X0504685
X0494685
X0349961
X0339961
X0329961
X0319961
X0309961
X0299961
X0289961
X0145236
X0135236
X0125236
X0115236
X0105236
X0095236
X0085236
X0955315Y0519685
X0965315
X0975315
X0985315
X0995315
X091689
X090689
X089689
X088689
X087689
X086689
X085689
X0806653
X0796654
X0786654
X0776653
X0766653
X0756653
X0746654
X0688228
X0678228
X0668228
X0658228
X0648228
X0601614
X0591614
X0581614
X0571614
X0561614
X0513189
X0503189
X0493189
X0483189
X0473189
X0463189
X0453189
X0239724
X0229724
X0219724
X0209724
X0199724
X0189724
X0179724
T06
X0059055Y0515748
X0045276Y0535433
T07
X0011811Y0011811
X1031496
X0354012Y027559
X0668973
Y0433071
X0354012
X0011811Y057874
X1031496
M30
