%TF.GenerationSoftware,Altium Limited,Altium Designer,20.0.13 (296)*%
G04 Layer_Physical_Order=3*
G04 Layer_Color=16440176*
%FSLAX26Y26*%
%MOIN*%
%TF.FileFunction,Copper,L3,Inr,Signal*%
%TF.Part,Single*%
G01*
G75*
%TA.AperFunction,Conductor*%
%ADD33C,0.015748*%
%ADD34C,0.007874*%
%TA.AperFunction,ViaPad*%
%ADD38C,0.019685*%
%ADD39C,0.118110*%
G36*
X3106544Y1620952D02*
X3104849Y1619561D01*
X3096977Y1609969D01*
X3091128Y1599026D01*
X3087526Y1587152D01*
X3086309Y1574803D01*
X3087526Y1562455D01*
X3091128Y1550581D01*
X3096977Y1539637D01*
X3104849Y1530045D01*
X3114440Y1522174D01*
X3125384Y1516324D01*
X3137258Y1512723D01*
X3149606Y1511506D01*
X3161955Y1512723D01*
X3173829Y1516324D01*
X3180426Y1519851D01*
X3184715Y1517280D01*
Y686828D01*
X3179715Y684757D01*
X3114815Y749657D01*
X3110908Y752267D01*
X3106299Y753184D01*
X3106299Y753184D01*
X2841602D01*
X2807318Y787469D01*
Y1487138D01*
X2819786Y1499606D01*
X2836867D01*
X2837143Y1499422D01*
X2842520Y1498352D01*
X2847896Y1499422D01*
X2852454Y1502467D01*
X2855500Y1507025D01*
X2856569Y1512402D01*
X2855500Y1517778D01*
X2852454Y1522336D01*
X2847896Y1525382D01*
X2842520Y1526451D01*
X2837143Y1525382D01*
X2834613Y1523691D01*
X2814798D01*
X2810189Y1522774D01*
X2806283Y1520164D01*
X2806282Y1520163D01*
X2786760Y1500641D01*
X2784150Y1496734D01*
X2783233Y1492126D01*
X2783233Y1492126D01*
Y1403996D01*
X2778614Y1402082D01*
X2739110Y1441586D01*
X2739109Y1441587D01*
X2709779Y1470917D01*
X2705872Y1473527D01*
X2701264Y1474444D01*
X2701263Y1474444D01*
X2656386D01*
X2654983Y1475382D01*
X2649606Y1476451D01*
X2644230Y1475382D01*
X2639672Y1472336D01*
X2636626Y1467778D01*
X2635557Y1462402D01*
X2636626Y1457025D01*
X2639672Y1452467D01*
X2644230Y1449422D01*
X2649606Y1448352D01*
X2654983Y1449422D01*
X2656386Y1450359D01*
X2696275D01*
X2717191Y1429444D01*
X2715120Y1424444D01*
X2656386D01*
X2654983Y1425382D01*
X2649606Y1426451D01*
X2644230Y1425382D01*
X2639672Y1422336D01*
X2636626Y1417778D01*
X2635557Y1412402D01*
X2636626Y1407025D01*
X2639672Y1402467D01*
X2644230Y1399422D01*
X2649606Y1398352D01*
X2654983Y1399422D01*
X2656386Y1400359D01*
X2718437D01*
X2743863Y1374933D01*
Y766173D01*
X2743863Y766173D01*
X2744780Y761565D01*
X2747390Y757658D01*
X2814666Y690382D01*
X2818573Y687772D01*
X2823181Y686855D01*
X2823182Y686855D01*
X3057197D01*
X3058600Y685918D01*
X3063976Y684848D01*
X3069353Y685918D01*
X3069629Y686102D01*
X3088206D01*
X3122800Y651508D01*
Y251611D01*
X3015122Y143932D01*
X2976445D01*
X2965552Y154826D01*
Y156749D01*
X2965736Y157025D01*
X2966805Y162402D01*
X2965736Y167778D01*
X2962690Y172336D01*
X2958132Y175382D01*
X2952756Y176451D01*
X2947379Y175382D01*
X2942821Y172336D01*
X2939776Y167778D01*
X2938706Y162402D01*
X2939776Y157025D01*
X2941467Y154495D01*
Y149838D01*
X2941467Y149837D01*
X2942383Y145229D01*
X2944994Y141322D01*
X2955266Y131050D01*
X2952803Y126442D01*
X2952756Y126451D01*
X2947379Y125382D01*
X2942821Y122336D01*
X2939776Y117778D01*
X2938706Y112402D01*
X2939776Y107025D01*
X2942821Y102467D01*
X2947379Y99422D01*
X2952756Y98352D01*
X2958132Y99422D01*
X2959241Y100162D01*
X3020497D01*
X3022410Y95543D01*
X3007807Y80940D01*
X2670704D01*
X2669301Y81877D01*
X2663924Y82947D01*
X2658548Y81877D01*
X2657145Y80940D01*
X2447728D01*
X2445814Y85559D01*
X2486992Y126737D01*
X2615157D01*
X2615157Y126737D01*
X2619766Y127654D01*
X2623673Y130264D01*
X2643768Y150359D01*
X2662512D01*
X2663915Y149422D01*
X2669291Y148352D01*
X2674668Y149422D01*
X2679226Y152467D01*
X2682271Y157025D01*
X2683341Y162402D01*
X2682271Y167778D01*
X2679226Y172336D01*
X2674668Y175382D01*
X2669291Y176451D01*
X2663915Y175382D01*
X2662512Y174444D01*
X2638780D01*
X2638780Y174444D01*
X2634171Y173527D01*
X2630264Y170917D01*
X2610169Y150822D01*
X2489662D01*
X2487748Y155441D01*
X2634347Y302040D01*
X2646252D01*
X2649452Y298840D01*
Y248032D01*
X2650063Y244959D01*
X2651803Y242355D01*
X2660579Y233579D01*
X2660724Y233196D01*
X2661303Y232582D01*
X2661721Y232076D01*
X2662072Y231587D01*
X2662359Y231116D01*
X2662588Y230663D01*
X2662766Y230225D01*
X2662899Y229795D01*
X2662990Y229369D01*
X2663043Y228934D01*
X2663064Y228302D01*
X2663172Y228066D01*
X2664185Y222970D01*
X2667231Y218412D01*
X2671789Y215367D01*
X2677165Y214297D01*
X2682542Y215367D01*
X2687100Y218412D01*
X2690145Y222970D01*
X2691215Y228346D01*
X2690145Y233723D01*
X2687100Y238281D01*
X2682542Y241327D01*
X2681441Y241546D01*
Y246643D01*
X2682542Y246863D01*
X2686862Y249749D01*
X2687105Y249840D01*
X2687568Y250273D01*
X2687911Y250541D01*
X2688278Y250779D01*
X2688675Y250988D01*
X2689111Y251173D01*
X2689595Y251332D01*
X2690129Y251461D01*
X2690722Y251559D01*
X2691377Y251621D01*
X2692220Y251646D01*
X2692594Y251814D01*
X2696850D01*
X2699923Y252425D01*
X2702527Y254166D01*
X2721228Y272866D01*
X2721228Y272866D01*
X2722968Y275471D01*
X2723579Y278543D01*
Y335600D01*
X2723580Y335601D01*
X2722968Y338673D01*
X2721228Y341278D01*
X2721228Y341278D01*
X2703483Y359023D01*
X2700878Y360764D01*
X2697806Y361375D01*
X2624191D01*
X2624190Y361375D01*
X2621118Y360764D01*
X2618513Y359023D01*
X2618513Y359023D01*
X2570719Y311229D01*
X2566099Y313142D01*
Y420831D01*
X2566246Y420866D01*
X2566389Y421101D01*
X2566647Y421198D01*
X2567256Y421768D01*
X2567737Y422157D01*
X2568184Y422464D01*
X2568598Y422698D01*
X2568978Y422869D01*
X2569331Y422986D01*
X2569666Y423060D01*
X2569995Y423097D01*
X2570337Y423098D01*
X2570915Y423039D01*
X2571518Y423220D01*
X2572835Y422958D01*
X2578211Y424028D01*
X2582769Y427073D01*
X2585815Y431631D01*
X2586884Y437008D01*
X2585815Y442384D01*
X2582769Y446942D01*
X2578211Y449988D01*
X2572835Y451057D01*
X2567458Y449988D01*
X2565502Y448681D01*
X2562315Y452565D01*
X2615895Y506145D01*
X2697169D01*
X2697543Y505977D01*
X2698386Y505951D01*
X2699041Y505889D01*
X2699634Y505791D01*
X2700169Y505662D01*
X2700652Y505504D01*
X2701088Y505319D01*
X2701485Y505110D01*
X2701852Y504872D01*
X2702196Y504603D01*
X2702658Y504171D01*
X2702901Y504080D01*
X2707221Y501193D01*
X2712598Y500124D01*
X2717974Y501193D01*
X2722532Y504239D01*
X2725578Y508797D01*
X2726647Y514173D01*
X2725578Y519550D01*
X2722532Y524108D01*
X2717974Y527153D01*
X2712598Y528223D01*
X2707221Y527153D01*
X2702901Y524267D01*
X2702658Y524175D01*
X2702195Y523742D01*
X2701852Y523474D01*
X2701485Y523237D01*
X2701088Y523027D01*
X2700652Y522843D01*
X2700168Y522684D01*
X2699634Y522555D01*
X2699041Y522457D01*
X2698386Y522395D01*
X2697543Y522370D01*
X2697169Y522201D01*
X2685757D01*
X2683844Y526821D01*
X2698945Y541922D01*
X2699041Y541913D01*
X2699634Y541815D01*
X2700169Y541686D01*
X2700652Y541527D01*
X2701088Y541343D01*
X2701485Y541133D01*
X2701852Y540896D01*
X2702196Y540627D01*
X2702658Y540195D01*
X2702901Y540103D01*
X2707221Y537217D01*
X2712598Y536147D01*
X2717974Y537217D01*
X2722532Y540262D01*
X2725578Y544820D01*
X2726647Y550197D01*
X2725578Y555573D01*
X2722532Y560131D01*
X2717974Y563177D01*
X2715804Y563609D01*
X2715080Y564245D01*
X2713300Y569096D01*
X2713805Y569852D01*
X2717974Y570681D01*
X2722532Y573727D01*
X2725578Y578285D01*
X2726647Y583661D01*
X2725578Y589038D01*
X2722532Y593596D01*
X2717974Y596641D01*
X2712598Y597711D01*
X2707221Y596641D01*
X2702663Y593596D01*
X2699618Y589038D01*
X2698604Y583942D01*
X2698497Y583706D01*
X2698476Y583073D01*
X2698423Y582640D01*
X2698331Y582212D01*
X2698199Y581783D01*
X2698021Y581345D01*
X2697791Y580891D01*
X2697504Y580421D01*
X2697155Y579933D01*
X2696735Y579426D01*
X2696157Y578812D01*
X2696011Y578429D01*
X2663997Y546414D01*
X2603376D01*
X2603376Y546414D01*
X2600303Y545803D01*
X2597699Y544063D01*
X2597698Y544062D01*
X2516961Y463325D01*
X2515221Y460720D01*
X2514610Y457648D01*
Y321932D01*
X2337516Y144839D01*
X2299213D01*
X2299213Y144839D01*
X2296140Y144228D01*
X2293536Y142488D01*
X2223052Y72005D01*
X1833050D01*
X1829077Y75978D01*
X1829088Y76340D01*
X1829150Y76994D01*
X1829248Y77587D01*
X1829377Y78122D01*
X1829536Y78605D01*
X1829720Y79042D01*
X1829930Y79438D01*
X1830167Y79805D01*
X1830436Y80149D01*
X1830868Y80611D01*
X1830960Y80855D01*
X1833846Y85174D01*
X1834916Y90551D01*
X1833846Y95927D01*
X1830801Y100486D01*
X1826243Y103531D01*
X1820866Y104600D01*
X1815490Y103531D01*
X1810932Y100486D01*
X1807886Y95927D01*
X1806817Y90551D01*
X1807886Y85174D01*
X1810773Y80855D01*
X1810864Y80611D01*
X1811297Y80148D01*
X1811565Y79805D01*
X1811802Y79439D01*
X1812012Y79042D01*
X1812197Y78605D01*
X1812355Y78122D01*
X1812485Y77587D01*
X1812582Y76994D01*
X1812644Y76340D01*
X1812670Y75496D01*
X1812838Y75123D01*
Y72835D01*
X1813449Y69762D01*
X1815189Y67158D01*
X1817534Y64813D01*
X1815620Y60194D01*
X1489546D01*
X1458816Y90924D01*
Y284448D01*
X1458816Y284449D01*
X1458205Y287521D01*
X1456464Y290126D01*
X1456464Y290126D01*
X1362359Y384231D01*
Y440280D01*
X1362527Y440654D01*
X1362553Y441497D01*
X1362614Y442152D01*
X1362712Y442745D01*
X1362842Y443280D01*
X1363000Y443763D01*
X1363185Y444199D01*
X1363394Y444596D01*
X1363631Y444962D01*
X1363900Y445307D01*
X1364333Y445769D01*
X1364424Y446012D01*
X1367311Y450332D01*
X1368380Y455709D01*
X1367311Y461085D01*
X1364265Y465643D01*
X1359707Y468689D01*
X1354331Y469758D01*
X1348954Y468689D01*
X1344396Y465643D01*
X1341351Y461085D01*
X1340281Y455709D01*
X1341351Y450332D01*
X1342741Y448252D01*
X1340937Y445485D01*
X1339435Y444199D01*
X1334646Y445152D01*
X1329856Y444199D01*
X1328354Y445485D01*
X1326550Y448252D01*
X1327941Y450332D01*
X1329010Y455709D01*
X1327941Y461085D01*
X1324895Y465643D01*
X1321825Y467695D01*
X1321655Y468217D01*
Y472728D01*
X1321825Y473250D01*
X1324895Y475302D01*
X1327941Y479860D01*
X1328252Y481424D01*
X1328686Y481998D01*
X1328852Y482634D01*
X1329018Y483136D01*
X1329224Y483644D01*
X1329469Y484158D01*
X1329758Y484679D01*
X1330094Y485211D01*
X1330447Y485709D01*
X1331434Y486896D01*
X1332004Y487490D01*
X1332156Y487882D01*
X1333293Y489019D01*
X1466163D01*
X1472633Y482549D01*
Y463238D01*
X1473244Y460165D01*
X1474985Y457561D01*
X1493940Y438605D01*
Y437672D01*
X1493772Y437299D01*
X1493747Y436455D01*
X1493685Y435801D01*
X1493587Y435208D01*
X1493457Y434673D01*
X1493299Y434190D01*
X1493114Y433753D01*
X1492905Y433357D01*
X1492668Y432990D01*
X1492399Y432646D01*
X1491966Y432184D01*
X1491875Y431941D01*
X1488988Y427621D01*
X1487919Y422244D01*
X1488988Y416868D01*
X1492034Y412310D01*
X1496592Y409264D01*
X1501968Y408195D01*
X1507345Y409264D01*
X1511903Y412310D01*
X1514948Y416868D01*
X1516018Y422244D01*
X1514948Y427621D01*
X1512062Y431941D01*
X1511971Y432184D01*
X1511538Y432647D01*
X1511270Y432990D01*
X1511032Y433357D01*
X1510822Y433753D01*
X1510638Y434190D01*
X1510479Y434673D01*
X1510350Y435208D01*
X1510252Y435801D01*
X1510190Y436455D01*
X1510165Y437299D01*
X1509997Y437673D01*
Y441930D01*
X1509997Y441931D01*
X1509386Y445003D01*
X1507645Y447608D01*
X1500728Y454524D01*
X1501361Y457000D01*
X1502786Y459538D01*
X1507345Y460445D01*
X1511903Y463491D01*
X1514948Y468049D01*
X1516018Y473425D01*
X1514948Y478802D01*
X1511903Y483360D01*
X1511363Y483720D01*
Y488721D01*
X1511903Y489081D01*
X1514948Y493639D01*
X1516018Y499016D01*
X1514948Y504392D01*
X1512778Y507641D01*
X1514442Y511983D01*
X1514993Y512641D01*
X1642717D01*
X1645789Y513252D01*
X1648393Y514992D01*
X1649979Y516578D01*
X1659729D01*
X1660103Y516410D01*
X1660115Y516409D01*
X1662362Y512116D01*
X1662335Y511822D01*
X1662269Y511509D01*
X1662207Y511318D01*
X1662163Y511218D01*
X1661946Y510898D01*
X1651803Y500756D01*
X1650063Y498151D01*
X1649452Y495079D01*
Y490003D01*
X1649386Y489909D01*
X1649452Y489526D01*
Y489488D01*
X1649284Y489120D01*
X1649256Y488286D01*
X1649191Y487686D01*
X1649092Y487175D01*
X1648969Y486750D01*
X1648829Y486400D01*
X1648677Y486114D01*
X1648512Y485873D01*
X1648327Y485661D01*
X1648111Y485463D01*
X1647663Y485138D01*
X1647263Y484486D01*
X1645577Y483360D01*
X1642532Y478802D01*
X1641462Y473425D01*
X1642532Y468049D01*
X1645577Y463491D01*
X1650135Y460445D01*
X1655512Y459376D01*
X1660888Y460445D01*
X1665446Y463491D01*
X1668492Y468049D01*
X1669561Y473425D01*
X1668492Y478802D01*
X1667410Y480421D01*
X1667279Y481197D01*
X1666929Y481756D01*
X1666682Y482216D01*
X1666460Y482707D01*
X1666264Y483229D01*
X1666093Y483790D01*
X1665950Y484386D01*
X1665844Y484971D01*
X1665696Y486489D01*
X1665678Y487303D01*
X1665508Y487686D01*
Y491753D01*
X1672617Y498861D01*
X1685039D01*
X1688112Y499473D01*
X1690716Y501213D01*
X1719259Y529756D01*
X1719260Y529756D01*
X1721000Y532361D01*
X1721611Y535433D01*
Y596456D01*
X1721611Y596457D01*
X1721000Y599529D01*
X1719260Y602134D01*
X1719259Y602134D01*
X1710401Y610992D01*
X1707797Y612732D01*
X1704724Y613343D01*
X1678150D01*
X1678150Y613343D01*
X1675077Y612732D01*
X1672473Y610992D01*
X1672473Y610992D01*
X1667551Y606071D01*
X1667493Y605983D01*
X1613830Y552320D01*
X1006890D01*
X1003817Y551708D01*
X1001213Y549968D01*
X1001212Y549968D01*
X999327Y548082D01*
X998944Y547937D01*
X998329Y547359D01*
X997824Y546941D01*
X997335Y546590D01*
X996864Y546303D01*
X996411Y546073D01*
X995973Y545895D01*
X995543Y545763D01*
X995116Y545672D01*
X994682Y545618D01*
X994050Y545597D01*
X993814Y545490D01*
X988718Y544476D01*
X984160Y541431D01*
X981114Y536873D01*
X980045Y531496D01*
X981114Y526120D01*
X984160Y521562D01*
X988718Y518516D01*
X994094Y517447D01*
X995525Y517731D01*
X999777Y513479D01*
X999486Y512015D01*
X999862Y510126D01*
X995610Y505874D01*
X994094Y506175D01*
X988718Y505106D01*
X984160Y502060D01*
X981114Y497502D01*
X980045Y492126D01*
X981114Y486750D01*
X984160Y482192D01*
X988718Y479146D01*
X994094Y478077D01*
X995780Y478412D01*
X1000032Y474160D01*
X999691Y472441D01*
X1000137Y470195D01*
X995964Y465927D01*
X994094Y466299D01*
X988718Y465229D01*
X984160Y462184D01*
X981114Y457626D01*
X980045Y452249D01*
X981114Y446873D01*
X984160Y442315D01*
X988718Y439269D01*
X994094Y438200D01*
X997230Y434459D01*
X997253Y431210D01*
X994094Y427435D01*
X988718Y426366D01*
X984160Y423320D01*
X981114Y418762D01*
X980045Y413386D01*
X981114Y408009D01*
X984160Y403451D01*
X988718Y400406D01*
X994094Y399336D01*
X995182Y399553D01*
X998927Y396219D01*
Y391183D01*
X995182Y387849D01*
X994095Y388065D01*
X988718Y386996D01*
X984160Y383950D01*
X981115Y379392D01*
X980045Y374016D01*
X981115Y368639D01*
X984160Y364081D01*
X988718Y361036D01*
X994095Y359966D01*
X999471Y361036D01*
X1004029Y364081D01*
X1007074Y368639D01*
X1008144Y374016D01*
X1007802Y375735D01*
X1012054Y379987D01*
X1013740Y379651D01*
X1019116Y380721D01*
X1023674Y383766D01*
X1026720Y388324D01*
X1027790Y393701D01*
X1026720Y399077D01*
X1023674Y403635D01*
X1019116Y406681D01*
X1013740Y407750D01*
X1012880Y407579D01*
X1009058Y410969D01*
X1009071Y415624D01*
X1012795Y419021D01*
X1018172Y420091D01*
X1022730Y423136D01*
X1025775Y427694D01*
X1026845Y433071D01*
X1025775Y438447D01*
X1022730Y443005D01*
X1018172Y446051D01*
X1012795Y447120D01*
X1012198Y447002D01*
X1007946Y451254D01*
X1008144Y452249D01*
X1007697Y454495D01*
X1011870Y458763D01*
X1013740Y458391D01*
X1019116Y459461D01*
X1023674Y462506D01*
X1026720Y467064D01*
X1027790Y472441D01*
X1026720Y477817D01*
X1023674Y482375D01*
X1025123Y487144D01*
X1025222Y487293D01*
X1050570Y512641D01*
X1269361D01*
X1271274Y508022D01*
X1269914Y506661D01*
X1268173Y504057D01*
X1267562Y500984D01*
Y500664D01*
X1267394Y500291D01*
X1267369Y499448D01*
X1267307Y498793D01*
X1267209Y498200D01*
X1267079Y497665D01*
X1266921Y497182D01*
X1266737Y496745D01*
X1266527Y496349D01*
X1266290Y495982D01*
X1266021Y495638D01*
X1265589Y495176D01*
X1265497Y494933D01*
X1262611Y490613D01*
X1261541Y485236D01*
X1262611Y479860D01*
X1265656Y475302D01*
X1268726Y473250D01*
X1268897Y472728D01*
Y468217D01*
X1268726Y467695D01*
X1265656Y465643D01*
X1262611Y461085D01*
X1261541Y455709D01*
X1262611Y450332D01*
X1264001Y448252D01*
X1262197Y445485D01*
X1260695Y444199D01*
X1255906Y445152D01*
X1251116Y444199D01*
X1249614Y445485D01*
X1247810Y448252D01*
X1249200Y450332D01*
X1250270Y455709D01*
X1249200Y461085D01*
X1246155Y465643D01*
X1241597Y468689D01*
X1236220Y469758D01*
X1230844Y468689D01*
X1226286Y465643D01*
X1223241Y461085D01*
X1222171Y455709D01*
X1223241Y450332D01*
X1226286Y445774D01*
X1230844Y442729D01*
X1236220Y441659D01*
X1241010Y442612D01*
X1242512Y441326D01*
X1244316Y438560D01*
X1242926Y436479D01*
X1241856Y431102D01*
X1242926Y425726D01*
X1245971Y421168D01*
X1250529Y418122D01*
X1255906Y417053D01*
X1261282Y418122D01*
X1265840Y421168D01*
X1268886Y425726D01*
X1269955Y431102D01*
X1268886Y436479D01*
X1267495Y438560D01*
X1269299Y441326D01*
X1270801Y442612D01*
X1275591Y441659D01*
X1280380Y442612D01*
X1281882Y441326D01*
X1283686Y438560D01*
X1282296Y436479D01*
X1281226Y431102D01*
X1282296Y425726D01*
X1285182Y421406D01*
X1285274Y421163D01*
X1285706Y420700D01*
X1285975Y420357D01*
X1286212Y419990D01*
X1286422Y419593D01*
X1286606Y419156D01*
X1286765Y418673D01*
X1286894Y418139D01*
X1286992Y417546D01*
X1287054Y416891D01*
X1287079Y416048D01*
X1287247Y415674D01*
Y389851D01*
X1287858Y386779D01*
X1289599Y384174D01*
X1407326Y266447D01*
Y176702D01*
X1405451Y175700D01*
X1402326Y174534D01*
X1397638Y175467D01*
X1392261Y174397D01*
X1387703Y171352D01*
X1384658Y166794D01*
X1383588Y161417D01*
X1384658Y156041D01*
X1387544Y151720D01*
X1387636Y151477D01*
X1388068Y151015D01*
X1388337Y150672D01*
X1388574Y150305D01*
X1388784Y149908D01*
X1388968Y149471D01*
X1389127Y148988D01*
X1389256Y148453D01*
X1389354Y147861D01*
X1389416Y147206D01*
X1389441Y146363D01*
X1389610Y145989D01*
Y79113D01*
X1335257Y24761D01*
X799219D01*
X736375Y87604D01*
Y266068D01*
X736543Y266442D01*
X736568Y267285D01*
X736630Y267939D01*
X736728Y268532D01*
X736858Y269067D01*
X737016Y269550D01*
X737201Y269987D01*
X737410Y270383D01*
X737647Y270750D01*
X737916Y271094D01*
X738349Y271556D01*
X738440Y271800D01*
X741327Y276120D01*
X742396Y281496D01*
X741327Y286873D01*
X738281Y291430D01*
X733723Y294476D01*
X728346Y295546D01*
X722970Y294476D01*
X718412Y291430D01*
X715366Y286873D01*
X714297Y281496D01*
X715052Y277701D01*
X712353Y274143D01*
X711200Y273387D01*
X708661Y273892D01*
X703285Y272822D01*
X698727Y269777D01*
X695681Y265219D01*
X694612Y259842D01*
X695681Y254466D01*
X698727Y249908D01*
X703285Y246863D01*
X708661Y245793D01*
X714038Y246863D01*
X715318Y247718D01*
X720318Y245045D01*
Y84279D01*
X720929Y81207D01*
X722670Y78602D01*
X783626Y17646D01*
X781712Y13027D01*
X712665D01*
X641964Y83728D01*
Y205622D01*
X642901Y207025D01*
X643971Y212402D01*
X642901Y217778D01*
X639856Y222336D01*
X635298Y225382D01*
X629921Y226451D01*
X624545Y225382D01*
X619987Y222336D01*
X616941Y217778D01*
X615872Y212402D01*
X616941Y207025D01*
X617879Y205622D01*
Y78741D01*
X617879Y78740D01*
X618796Y74132D01*
X621406Y70225D01*
X693670Y-2039D01*
X691756Y-6658D01*
X457744D01*
X404759Y46327D01*
Y55622D01*
X405697Y57025D01*
X406766Y62402D01*
X405697Y67778D01*
X404759Y69181D01*
Y297409D01*
X405697Y298813D01*
X406766Y304189D01*
X405697Y309566D01*
X405251Y310233D01*
Y1085492D01*
X405697Y1086159D01*
X406766Y1091535D01*
X405743Y1096678D01*
Y1455642D01*
X450461Y1500359D01*
X603457D01*
X604860Y1499422D01*
X610236Y1498352D01*
X615613Y1499422D01*
X620171Y1502467D01*
X623216Y1507025D01*
X624286Y1512402D01*
X623216Y1517778D01*
X620171Y1522336D01*
X615613Y1525382D01*
X610236Y1526451D01*
X604860Y1525382D01*
X603457Y1524444D01*
X445473D01*
X445473Y1524444D01*
X440864Y1523527D01*
X436957Y1520917D01*
X436957Y1520917D01*
X385185Y1469145D01*
X382575Y1465238D01*
X381658Y1460630D01*
X381658Y1460629D01*
Y1099788D01*
X379737Y1096912D01*
X378667Y1091535D01*
X379737Y1086159D01*
X381166Y1084019D01*
Y311705D01*
X379737Y309566D01*
X378667Y304189D01*
X379737Y298813D01*
X380674Y297409D01*
Y69181D01*
X379737Y67778D01*
X378667Y62402D01*
X379737Y57025D01*
X380674Y55622D01*
Y40585D01*
X381591Y35977D01*
X384201Y32070D01*
X386471Y30554D01*
X444240Y-27216D01*
X444241Y-27216D01*
X448147Y-29826D01*
X449566Y-30109D01*
X449073Y-35109D01*
X162726D01*
Y0D01*
X161478Y3013D01*
X158465Y4261D01*
X66400D01*
X64502Y8544D01*
X67512Y12471D01*
X158465D01*
X161478Y13719D01*
X162726Y16732D01*
Y50209D01*
X165436Y51568D01*
X167726Y52136D01*
X171789Y49422D01*
X177165Y48352D01*
X182542Y49422D01*
X187100Y52467D01*
X190145Y57025D01*
X191215Y62402D01*
X190145Y67778D01*
X187100Y72336D01*
X182542Y75382D01*
X177165Y76451D01*
X171789Y75382D01*
X167726Y72667D01*
X165436Y73236D01*
X162726Y74594D01*
Y150209D01*
X165436Y151568D01*
X167726Y152136D01*
X171789Y149422D01*
X177165Y148352D01*
X182542Y149422D01*
X187100Y152467D01*
X190145Y157025D01*
X191215Y162402D01*
X190145Y167778D01*
X187259Y172099D01*
X187167Y172342D01*
X186735Y172804D01*
X186466Y173147D01*
X186229Y173514D01*
X186019Y173911D01*
X185835Y174348D01*
X185676Y174831D01*
X185547Y175365D01*
X185449Y175958D01*
X185387Y176613D01*
X185362Y177456D01*
X185194Y177830D01*
Y1379549D01*
X224180Y1418535D01*
X224181Y1418536D01*
X225921Y1421140D01*
X226532Y1424213D01*
X226532Y1424213D01*
Y1521368D01*
X275876Y1570712D01*
X1326767D01*
X1346069Y1551410D01*
X1348674Y1549669D01*
X1351746Y1549058D01*
X1508486D01*
X1522473Y1535072D01*
X1522473Y1535071D01*
X1525078Y1533331D01*
X1528150Y1532720D01*
X1547977D01*
X1548351Y1532552D01*
X1549194Y1532526D01*
X1549849Y1532464D01*
X1550442Y1532367D01*
X1550977Y1532237D01*
X1551460Y1532079D01*
X1551896Y1531894D01*
X1552293Y1531685D01*
X1552659Y1531447D01*
X1553004Y1531178D01*
X1553466Y1530746D01*
X1553709Y1530655D01*
X1558029Y1527768D01*
X1563406Y1526699D01*
X1568782Y1527768D01*
X1573340Y1530814D01*
X1576386Y1535372D01*
X1577455Y1540748D01*
X1576386Y1546125D01*
X1573340Y1550683D01*
X1568782Y1553728D01*
X1563406Y1554798D01*
X1558029Y1553728D01*
X1553709Y1550842D01*
X1553466Y1550750D01*
X1553003Y1550317D01*
X1552660Y1550049D01*
X1552293Y1549812D01*
X1551896Y1549602D01*
X1551460Y1549418D01*
X1550976Y1549259D01*
X1550442Y1549130D01*
X1549849Y1549032D01*
X1549194Y1548970D01*
X1548351Y1548945D01*
X1547977Y1548776D01*
X1531475D01*
X1517488Y1562764D01*
X1514884Y1564504D01*
X1511812Y1565115D01*
X1393237D01*
X1392236Y1566989D01*
X1391070Y1570115D01*
X1392002Y1574803D01*
X1390933Y1580180D01*
X1387887Y1584738D01*
X1383329Y1587783D01*
X1377953Y1588853D01*
X1372576Y1587783D01*
X1371173Y1586845D01*
X1361289D01*
X1350623Y1597511D01*
X1352536Y1602131D01*
X1371173D01*
X1372576Y1601193D01*
X1377953Y1600124D01*
X1383329Y1601193D01*
X1387887Y1604239D01*
X1390933Y1608797D01*
X1392002Y1614173D01*
X1390933Y1619550D01*
X1390191Y1620660D01*
X1392864Y1625660D01*
X3104859D01*
X3106544Y1620952D01*
D02*
G37*
G36*
X1556377Y1533858D02*
X1555777Y1534419D01*
X1555135Y1534921D01*
X1554450Y1535364D01*
X1553724Y1535748D01*
X1552955Y1536073D01*
X1552144Y1536339D01*
X1551291Y1536545D01*
X1550396Y1536693D01*
X1549459Y1536782D01*
X1548479Y1536811D01*
Y1544685D01*
X1549459Y1544715D01*
X1550396Y1544803D01*
X1551291Y1544951D01*
X1552144Y1545158D01*
X1552955Y1545423D01*
X1553724Y1545748D01*
X1554450Y1546132D01*
X1555135Y1546575D01*
X1555777Y1547077D01*
X1556377Y1547638D01*
Y1533858D01*
D02*
G37*
G36*
X1687853Y580202D02*
X1687253Y580763D01*
X1686611Y581265D01*
X1685927Y581708D01*
X1685200Y582092D01*
X1684431Y582417D01*
X1683621Y582682D01*
X1682768Y582889D01*
X1681872Y583037D01*
X1680935Y583125D01*
X1679956Y583155D01*
Y591029D01*
X1680935Y591058D01*
X1681872Y591147D01*
X1682768Y591294D01*
X1683621Y591501D01*
X1684431Y591767D01*
X1685200Y592092D01*
X1685927Y592476D01*
X1686611Y592918D01*
X1687253Y593420D01*
X1687853Y593981D01*
Y580202D01*
D02*
G37*
G36*
X2712499Y573819D02*
X2711678Y573792D01*
X2710869Y573693D01*
X2710072Y573522D01*
X2709287Y573280D01*
X2708514Y572966D01*
X2707753Y572581D01*
X2707003Y572124D01*
X2706266Y571595D01*
X2705541Y570995D01*
X2704827Y570323D01*
X2699259Y575891D01*
X2699931Y576604D01*
X2700531Y577330D01*
X2701060Y578067D01*
X2701517Y578817D01*
X2701902Y579578D01*
X2702216Y580351D01*
X2702459Y581136D01*
X2702629Y581933D01*
X2702728Y582742D01*
X2702756Y583563D01*
X2712499Y573819D01*
D02*
G37*
G36*
X2705569Y543307D02*
X2704969Y543868D01*
X2704327Y544370D01*
X2703642Y544813D01*
X2702916Y545197D01*
X2702147Y545522D01*
X2701337Y545788D01*
X2700484Y545994D01*
X2699588Y546142D01*
X2698651Y546230D01*
X2697671Y546260D01*
Y554134D01*
X2698651Y554163D01*
X2699588Y554252D01*
X2700484Y554400D01*
X2701337Y554606D01*
X2702147Y554872D01*
X2702916Y555197D01*
X2703642Y555581D01*
X2704327Y556024D01*
X2704969Y556526D01*
X2705569Y557087D01*
Y543307D01*
D02*
G37*
G36*
X1007433Y539267D02*
X1006761Y538553D01*
X1006161Y537828D01*
X1005632Y537090D01*
X1005175Y536341D01*
X1004790Y535580D01*
X1004476Y534807D01*
X1004234Y534021D01*
X1004063Y533224D01*
X1003964Y532415D01*
X1003936Y531595D01*
X994193Y541338D01*
X995014Y541366D01*
X995823Y541465D01*
X996620Y541635D01*
X997405Y541878D01*
X998178Y542192D01*
X998939Y542577D01*
X999689Y543034D01*
X1000426Y543562D01*
X1001152Y544163D01*
X1001865Y544835D01*
X1007433Y539267D01*
D02*
G37*
G36*
X1668129Y517717D02*
X1667529Y518278D01*
X1666887Y518779D01*
X1666202Y519222D01*
X1665476Y519606D01*
X1664707Y519931D01*
X1663896Y520197D01*
X1663043Y520404D01*
X1662148Y520551D01*
X1661211Y520640D01*
X1660231Y520669D01*
Y528543D01*
X1661211Y528573D01*
X1662148Y528661D01*
X1663043Y528809D01*
X1663896Y529016D01*
X1664707Y529282D01*
X1665476Y529606D01*
X1666202Y529990D01*
X1666887Y530433D01*
X1667529Y530935D01*
X1668129Y531496D01*
Y517717D01*
D02*
G37*
G36*
X1026985Y519488D02*
X1026314Y518777D01*
X1025711Y518053D01*
X1025178Y517317D01*
X1024714Y516568D01*
X1024318Y515808D01*
X1023992Y515036D01*
X1023735Y514251D01*
X1023546Y513454D01*
X1023427Y512645D01*
X1023376Y511825D01*
X1013923Y521850D01*
X1014742Y521855D01*
X1015550Y521934D01*
X1016346Y522087D01*
X1017131Y522314D01*
X1017904Y522615D01*
X1018666Y522991D01*
X1019416Y523440D01*
X1020154Y523964D01*
X1020881Y524562D01*
X1021596Y525235D01*
X1026985Y519488D01*
D02*
G37*
G36*
X2705569Y507283D02*
X2704969Y507844D01*
X2704327Y508346D01*
X2703642Y508789D01*
X2702916Y509173D01*
X2702147Y509498D01*
X2701337Y509764D01*
X2700484Y509970D01*
X2699588Y510118D01*
X2698651Y510207D01*
X2697671Y510236D01*
Y518110D01*
X2698651Y518140D01*
X2699588Y518228D01*
X2700484Y518376D01*
X2701337Y518582D01*
X2702147Y518848D01*
X2702916Y519173D01*
X2703642Y519557D01*
X2704327Y520000D01*
X2704969Y520502D01*
X2705569Y521063D01*
Y507283D01*
D02*
G37*
G36*
X1494926Y510971D02*
X1496195Y509868D01*
X1496771Y509436D01*
X1497309Y509084D01*
X1497808Y508812D01*
X1498269Y508620D01*
X1498691Y508507D01*
X1499074Y508475D01*
X1499419Y508522D01*
X1492260Y500632D01*
X1492271Y500972D01*
X1492200Y501357D01*
X1492047Y501788D01*
X1491811Y502264D01*
X1491493Y502785D01*
X1491093Y503352D01*
X1490610Y503965D01*
X1489397Y505326D01*
X1488667Y506074D01*
X1494234Y511642D01*
X1494926Y510971D01*
D02*
G37*
G36*
X1328925Y490437D02*
X1328254Y489735D01*
X1327067Y488309D01*
X1326552Y487584D01*
X1326090Y486851D01*
X1325680Y486111D01*
X1325322Y485363D01*
X1325016Y484607D01*
X1324763Y483843D01*
X1324562Y483072D01*
X1317316Y494793D01*
X1318089Y494647D01*
X1318856Y494594D01*
X1319618Y494631D01*
X1320375Y494760D01*
X1321126Y494981D01*
X1321873Y495293D01*
X1322615Y495697D01*
X1323351Y496192D01*
X1324082Y496778D01*
X1324809Y497456D01*
X1328925Y490437D01*
D02*
G37*
G36*
X1279557Y499183D02*
X1279646Y498246D01*
X1279793Y497350D01*
X1280000Y496497D01*
X1280266Y495687D01*
X1280591Y494918D01*
X1280974Y494192D01*
X1281417Y493507D01*
X1281919Y492865D01*
X1282480Y492265D01*
X1268701D01*
X1269262Y492865D01*
X1269764Y493507D01*
X1270207Y494192D01*
X1270591Y494918D01*
X1270915Y495687D01*
X1271181Y496497D01*
X1271388Y497350D01*
X1271535Y498246D01*
X1271624Y499183D01*
X1271654Y500163D01*
X1279528D01*
X1279557Y499183D01*
D02*
G37*
G36*
X1017770Y486176D02*
X1017917Y484299D01*
X1018045Y483486D01*
X1018210Y482756D01*
X1018412Y482110D01*
X1018650Y481548D01*
X1018924Y481068D01*
X1019236Y480673D01*
X1019584Y480361D01*
X1008018Y480449D01*
X1008371Y480756D01*
X1008687Y481146D01*
X1008966Y481618D01*
X1009208Y482174D01*
X1009413Y482812D01*
X1009580Y483532D01*
X1009711Y484335D01*
X1009804Y485221D01*
X1009878Y487240D01*
X1017752D01*
X1017770Y486176D01*
D02*
G37*
G36*
X1661417Y487205D02*
X1661440Y486233D01*
X1661620Y484387D01*
X1661777Y483511D01*
X1661980Y482668D01*
X1662227Y481857D01*
X1662520Y481078D01*
X1662858Y480332D01*
X1663240Y479617D01*
X1663668Y478934D01*
X1650167Y481690D01*
X1650808Y482156D01*
X1651382Y482680D01*
X1651889Y483263D01*
X1652328Y483904D01*
X1652699Y484603D01*
X1653003Y485360D01*
X1653239Y486176D01*
X1653408Y487051D01*
X1653509Y487983D01*
X1653543Y488974D01*
X1661417Y487205D01*
D02*
G37*
G36*
X1360659Y448080D02*
X1360158Y447438D01*
X1359715Y446753D01*
X1359331Y446027D01*
X1359006Y445258D01*
X1358740Y444447D01*
X1358533Y443594D01*
X1358386Y442699D01*
X1358297Y441762D01*
X1358268Y440782D01*
X1350394D01*
X1350364Y441762D01*
X1350276Y442699D01*
X1350128Y443594D01*
X1349921Y444447D01*
X1349656Y445258D01*
X1349331Y446027D01*
X1348947Y446753D01*
X1348504Y447438D01*
X1348002Y448080D01*
X1347441Y448680D01*
X1361220D01*
X1360659Y448080D01*
D02*
G37*
G36*
X1321289D02*
X1320787Y447438D01*
X1320344Y446753D01*
X1319961Y446027D01*
X1319636Y445258D01*
X1319370Y444447D01*
X1319163Y443594D01*
X1319016Y442699D01*
X1318927Y441762D01*
X1318898Y440782D01*
X1311024D01*
X1310994Y441762D01*
X1310906Y442699D01*
X1310758Y443594D01*
X1310551Y444447D01*
X1310285Y445258D01*
X1309961Y446027D01*
X1309577Y446753D01*
X1309134Y447438D01*
X1308632Y448080D01*
X1308071Y448680D01*
X1321850D01*
X1321289Y448080D01*
D02*
G37*
G36*
X1505935Y436191D02*
X1506024Y435253D01*
X1506171Y434358D01*
X1506378Y433505D01*
X1506644Y432695D01*
X1506968Y431926D01*
X1507352Y431199D01*
X1507795Y430515D01*
X1508297Y429873D01*
X1508858Y429273D01*
X1495079D01*
X1495640Y429873D01*
X1496142Y430515D01*
X1496585Y431199D01*
X1496968Y431926D01*
X1497293Y432695D01*
X1497559Y433505D01*
X1497766Y434358D01*
X1497913Y435253D01*
X1498002Y436191D01*
X1498032Y437170D01*
X1505906D01*
X1505935Y436191D01*
D02*
G37*
G36*
X2571345Y427279D02*
X2570544Y427360D01*
X2569753Y427357D01*
X2568970Y427270D01*
X2568196Y427099D01*
X2567430Y426845D01*
X2566674Y426506D01*
X2565926Y426083D01*
X2565187Y425576D01*
X2564457Y424985D01*
X2563735Y424310D01*
X2559039Y430749D01*
X2559710Y431455D01*
X2560321Y432172D01*
X2560873Y432899D01*
X2561366Y433638D01*
X2561799Y434388D01*
X2562173Y435149D01*
X2562488Y435921D01*
X2562744Y436704D01*
X2562940Y437498D01*
X2563078Y438303D01*
X2571345Y427279D01*
D02*
G37*
G36*
X1340974Y423474D02*
X1340473Y422831D01*
X1340030Y422147D01*
X1339646Y421421D01*
X1339321Y420652D01*
X1339055Y419841D01*
X1338848Y418988D01*
X1338701Y418093D01*
X1338612Y417156D01*
X1338583Y416176D01*
X1330709D01*
X1330679Y417156D01*
X1330591Y418093D01*
X1330443Y418988D01*
X1330236Y419841D01*
X1329970Y420652D01*
X1329646Y421421D01*
X1329262Y422147D01*
X1328819Y422831D01*
X1328317Y423474D01*
X1327756Y424073D01*
X1341535D01*
X1340974Y423474D01*
D02*
G37*
G36*
X1301604D02*
X1301102Y422831D01*
X1300659Y422147D01*
X1300276Y421421D01*
X1299951Y420652D01*
X1299685Y419841D01*
X1299478Y418988D01*
X1299331Y418093D01*
X1299242Y417156D01*
X1299213Y416176D01*
X1291339D01*
X1291309Y417156D01*
X1291220Y418093D01*
X1291073Y418988D01*
X1290866Y419841D01*
X1290600Y420652D01*
X1290276Y421421D01*
X1289892Y422147D01*
X1289449Y422831D01*
X1288947Y423474D01*
X1288386Y424073D01*
X1302165D01*
X1301604Y423474D01*
D02*
G37*
G36*
X2670838Y315295D02*
X2670189Y315798D01*
X2669504Y316248D01*
X2668783Y316645D01*
X2668025Y316990D01*
X2667231Y317281D01*
X2666401Y317519D01*
X2665535Y317704D01*
X2664633Y317837D01*
X2663694Y317916D01*
X2662719Y317942D01*
X2661880Y325817D01*
X2662865Y325848D01*
X2663800Y325944D01*
X2664686Y326104D01*
X2665523Y326327D01*
X2666309Y326615D01*
X2667047Y326966D01*
X2667735Y327381D01*
X2668373Y327860D01*
X2668962Y328403D01*
X2669501Y329010D01*
X2670838Y315295D01*
D02*
G37*
G36*
X2684794Y297667D02*
X2685436Y297165D01*
X2686121Y296722D01*
X2686847Y296339D01*
X2687616Y296014D01*
X2688427Y295748D01*
X2689280Y295541D01*
X2690175Y295394D01*
X2691112Y295305D01*
X2692092Y295276D01*
Y287402D01*
X2691112Y287372D01*
X2690175Y287284D01*
X2689280Y287136D01*
X2688427Y286929D01*
X2687616Y286663D01*
X2686847Y286339D01*
X2686121Y285955D01*
X2685436Y285512D01*
X2684794Y285010D01*
X2684194Y284449D01*
Y298228D01*
X2684794Y297667D01*
D02*
G37*
G36*
X734675Y273867D02*
X734173Y273225D01*
X733730Y272541D01*
X733346Y271814D01*
X733022Y271046D01*
X732756Y270235D01*
X732549Y269382D01*
X732402Y268487D01*
X732313Y267549D01*
X732284Y266570D01*
X724409D01*
X724380Y267549D01*
X724291Y268487D01*
X724144Y269382D01*
X723937Y270235D01*
X723671Y271046D01*
X723346Y271814D01*
X722963Y272541D01*
X722520Y273225D01*
X722018Y273867D01*
X721457Y274467D01*
X735236D01*
X734675Y273867D01*
D02*
G37*
G36*
X2684794Y266171D02*
X2685436Y265669D01*
X2686121Y265226D01*
X2686847Y264842D01*
X2687616Y264518D01*
X2688427Y264252D01*
X2689280Y264045D01*
X2690175Y263898D01*
X2691112Y263809D01*
X2692092Y263779D01*
Y255905D01*
X2691112Y255876D01*
X2690175Y255787D01*
X2689280Y255640D01*
X2688427Y255433D01*
X2687616Y255167D01*
X2686847Y254843D01*
X2686121Y254459D01*
X2685436Y254016D01*
X2684794Y253514D01*
X2684194Y252953D01*
Y266732D01*
X2684794Y266171D01*
D02*
G37*
G36*
X2670108Y241013D02*
X2670834Y240413D01*
X2671571Y239884D01*
X2672320Y239427D01*
X2673082Y239042D01*
X2673855Y238728D01*
X2674640Y238486D01*
X2675437Y238315D01*
X2676246Y238216D01*
X2677067Y238189D01*
X2667323Y228445D01*
X2667296Y229266D01*
X2667197Y230075D01*
X2667026Y230872D01*
X2666784Y231657D01*
X2666470Y232430D01*
X2666085Y233191D01*
X2665628Y233941D01*
X2665099Y234678D01*
X2664499Y235404D01*
X2663827Y236117D01*
X2669395Y241685D01*
X2670108Y241013D01*
D02*
G37*
G36*
X181132Y176349D02*
X181220Y175411D01*
X181368Y174516D01*
X181575Y173663D01*
X181841Y172852D01*
X182165Y172083D01*
X182549Y171357D01*
X182992Y170673D01*
X183494Y170031D01*
X184055Y169431D01*
X170276D01*
X170837Y170031D01*
X171339Y170673D01*
X171782Y171357D01*
X172165Y172083D01*
X172490Y172852D01*
X172756Y173663D01*
X172963Y174516D01*
X173110Y175411D01*
X173199Y176349D01*
X173228Y177328D01*
X181102D01*
X181132Y176349D01*
D02*
G37*
G36*
X1403966Y153788D02*
X1403465Y153146D01*
X1403022Y152462D01*
X1402638Y151736D01*
X1402313Y150967D01*
X1402047Y150156D01*
X1401841Y149303D01*
X1401693Y148408D01*
X1401604Y147470D01*
X1401575Y146491D01*
X1393701D01*
X1393671Y147470D01*
X1393583Y148408D01*
X1393435Y149303D01*
X1393228Y150156D01*
X1392963Y150967D01*
X1392638Y151736D01*
X1392254Y152462D01*
X1391811Y153146D01*
X1391309Y153788D01*
X1390748Y154388D01*
X1404528D01*
X1403966Y153788D01*
D02*
G37*
G36*
X2318456Y98322D02*
X2317785Y97608D01*
X2317184Y96883D01*
X2316656Y96145D01*
X2316199Y95396D01*
X2315814Y94635D01*
X2315500Y93862D01*
X2315257Y93076D01*
X2315087Y92279D01*
X2314988Y91470D01*
X2314960Y90649D01*
X2305216Y100393D01*
X2306037Y100421D01*
X2306846Y100520D01*
X2307644Y100690D01*
X2308429Y100933D01*
X2309202Y101246D01*
X2309963Y101632D01*
X2310712Y102089D01*
X2311450Y102617D01*
X2312175Y103218D01*
X2312889Y103889D01*
X2318456Y98322D01*
D02*
G37*
G36*
X2291346D02*
X2290674Y97608D01*
X2290074Y96883D01*
X2289545Y96145D01*
X2289088Y95396D01*
X2288703Y94635D01*
X2288389Y93862D01*
X2288147Y93076D01*
X2287976Y92279D01*
X2287877Y91470D01*
X2287849Y90649D01*
X2278106Y100393D01*
X2278927Y100421D01*
X2279736Y100520D01*
X2280533Y100690D01*
X2281318Y100933D01*
X2282091Y101246D01*
X2282852Y101632D01*
X2283602Y102089D01*
X2284339Y102617D01*
X2285065Y103218D01*
X2285778Y103889D01*
X2291346Y98322D01*
D02*
G37*
G36*
X2339643Y97567D02*
X2340001Y97395D01*
X2340452Y97244D01*
X2340997Y97112D01*
X2341636Y97001D01*
X2343193Y96839D01*
X2345124Y96758D01*
X2346229Y96748D01*
X2346951Y88874D01*
X2346110Y88856D01*
X2344652Y88714D01*
X2344034Y88590D01*
X2343491Y88430D01*
X2343023Y88234D01*
X2342629Y88004D01*
X2342309Y87737D01*
X2342064Y87435D01*
X2341894Y87098D01*
X2339379Y97759D01*
X2339643Y97567D01*
D02*
G37*
G36*
X1827195Y82922D02*
X1826693Y82280D01*
X1826250Y81596D01*
X1825866Y80869D01*
X1825541Y80101D01*
X1825275Y79290D01*
X1825069Y78437D01*
X1824921Y77542D01*
X1824833Y76604D01*
X1824803Y75625D01*
X1816929D01*
X1816900Y76604D01*
X1816811Y77542D01*
X1816663Y78437D01*
X1816457Y79290D01*
X1816191Y80101D01*
X1815866Y80869D01*
X1815482Y81596D01*
X1815039Y82280D01*
X1814537Y82922D01*
X1813976Y83522D01*
X1827756D01*
X1827195Y82922D01*
D02*
G37*
%LPC*%
G36*
X2336614Y1570152D02*
X2331238Y1569082D01*
X2326680Y1566037D01*
X2323634Y1561479D01*
X2322565Y1556102D01*
X2323634Y1550726D01*
X2326680Y1546168D01*
X2328140Y1545192D01*
X2326624Y1540192D01*
X2228494D01*
X2226978Y1545192D01*
X2228438Y1546168D01*
X2231484Y1550726D01*
X2232553Y1556102D01*
X2231484Y1561479D01*
X2228438Y1566037D01*
X2223880Y1569082D01*
X2218504Y1570152D01*
X2213127Y1569082D01*
X2208569Y1566037D01*
X2205524Y1561479D01*
X2204454Y1556102D01*
X2205524Y1550726D01*
X2208569Y1546168D01*
X2210030Y1545192D01*
X2208514Y1540192D01*
X2189124D01*
X2187608Y1545192D01*
X2189068Y1546168D01*
X2192114Y1550726D01*
X2193183Y1556102D01*
X2192114Y1561479D01*
X2189068Y1566037D01*
X2184510Y1569082D01*
X2179134Y1570152D01*
X2173757Y1569082D01*
X2169199Y1566037D01*
X2166154Y1561479D01*
X2165084Y1556102D01*
X2166154Y1550726D01*
X2169199Y1546168D01*
X2170660Y1545192D01*
X2169143Y1540192D01*
X2071014D01*
X2069497Y1545192D01*
X2070958Y1546168D01*
X2074003Y1550726D01*
X2075073Y1556102D01*
X2074003Y1561479D01*
X2070958Y1566037D01*
X2066400Y1569082D01*
X2061023Y1570152D01*
X2055647Y1569082D01*
X2051089Y1566037D01*
X2048044Y1561479D01*
X2046974Y1556102D01*
X2048044Y1550726D01*
X2051089Y1546168D01*
X2052550Y1545192D01*
X2051033Y1540192D01*
X2039763D01*
X2039111Y1540727D01*
Y1558189D01*
X2037863Y1561202D01*
X2034850Y1562450D01*
X1932487D01*
X1929474Y1561202D01*
X1928226Y1558189D01*
Y1479448D01*
X1929474Y1476435D01*
X1932487Y1475187D01*
X2034850D01*
X2037863Y1476435D01*
X2039111Y1479448D01*
Y1497147D01*
X2039763Y1497682D01*
X2336614D01*
X2337472Y1497853D01*
X2342402Y1497682D01*
D01*
X2347321Y1497594D01*
X2362166Y1496132D01*
X2381170Y1490367D01*
X2398684Y1481005D01*
X2414036Y1468407D01*
X2426635Y1453055D01*
X2435996Y1435540D01*
X2441761Y1416536D01*
X2443577Y1398104D01*
X2443312Y1396772D01*
Y1347834D01*
X2444930Y1339700D01*
X2449537Y1332805D01*
X2456433Y1328197D01*
X2464566Y1326579D01*
X2472700Y1328197D01*
X2479596Y1332805D01*
X2484203Y1339700D01*
X2485821Y1347834D01*
Y1396772D01*
X2485855D01*
X2484089Y1419213D01*
X2478834Y1441102D01*
X2470220Y1461899D01*
X2458458Y1481092D01*
X2443839Y1498209D01*
X2426722Y1512828D01*
X2407528Y1524590D01*
X2386731Y1533205D01*
X2364843Y1538459D01*
X2346207Y1539926D01*
X2344871Y1545047D01*
X2346549Y1546168D01*
X2349594Y1550726D01*
X2350664Y1556102D01*
X2349594Y1561479D01*
X2346549Y1566037D01*
X2341991Y1569082D01*
X2336614Y1570152D01*
D02*
G37*
G36*
Y1491412D02*
X2331238Y1490342D01*
X2326680Y1487297D01*
X2323634Y1482739D01*
X2322565Y1477362D01*
X2323634Y1471986D01*
X2326680Y1467428D01*
X2331238Y1464382D01*
X2336614Y1463313D01*
X2341991Y1464382D01*
X2346549Y1467428D01*
X2349594Y1471986D01*
X2350664Y1477362D01*
X2349594Y1482739D01*
X2346549Y1487297D01*
X2341991Y1490342D01*
X2336614Y1491412D01*
D02*
G37*
G36*
X2297244D02*
X2291867Y1490342D01*
X2287309Y1487297D01*
X2284264Y1482739D01*
X2283195Y1477362D01*
X2284264Y1471986D01*
X2287309Y1467428D01*
X2291867Y1464382D01*
X2297244Y1463313D01*
X2302620Y1464382D01*
X2307178Y1467428D01*
X2310224Y1471986D01*
X2311294Y1477362D01*
X2310224Y1482739D01*
X2307178Y1487297D01*
X2302620Y1490342D01*
X2297244Y1491412D01*
D02*
G37*
G36*
X2257874D02*
X2252497Y1490342D01*
X2247939Y1487297D01*
X2244894Y1482739D01*
X2243825Y1477362D01*
X2244894Y1471986D01*
X2247939Y1467428D01*
X2252497Y1464382D01*
X2257874Y1463313D01*
X2263251Y1464382D01*
X2267809Y1467428D01*
X2270854Y1471986D01*
X2271923Y1477362D01*
X2270854Y1482739D01*
X2267809Y1487297D01*
X2263251Y1490342D01*
X2257874Y1491412D01*
D02*
G37*
G36*
X2218504D02*
X2213127Y1490342D01*
X2208569Y1487297D01*
X2205524Y1482739D01*
X2204454Y1477362D01*
X2205524Y1471986D01*
X2208569Y1467428D01*
X2213127Y1464382D01*
X2218504Y1463313D01*
X2223880Y1464382D01*
X2228438Y1467428D01*
X2231484Y1471986D01*
X2232553Y1477362D01*
X2231484Y1482739D01*
X2228438Y1487297D01*
X2223880Y1490342D01*
X2218504Y1491412D01*
D02*
G37*
G36*
X2179134D02*
X2173757Y1490342D01*
X2169199Y1487297D01*
X2166154Y1482739D01*
X2165084Y1477362D01*
X2166154Y1471986D01*
X2169199Y1467428D01*
X2173757Y1464382D01*
X2179134Y1463313D01*
X2184510Y1464382D01*
X2189068Y1467428D01*
X2192114Y1471986D01*
X2193183Y1477362D01*
X2192114Y1482739D01*
X2189068Y1487297D01*
X2184510Y1490342D01*
X2179134Y1491412D01*
D02*
G37*
G36*
X2139764D02*
X2134387Y1490342D01*
X2129829Y1487297D01*
X2126784Y1482739D01*
X2125714Y1477362D01*
X2126784Y1471986D01*
X2129829Y1467428D01*
X2134387Y1464382D01*
X2139764Y1463313D01*
X2145140Y1464382D01*
X2149698Y1467428D01*
X2152744Y1471986D01*
X2153813Y1477362D01*
X2152744Y1482739D01*
X2149698Y1487297D01*
X2145140Y1490342D01*
X2139764Y1491412D01*
D02*
G37*
G36*
X2100394D02*
X2095017Y1490342D01*
X2090459Y1487297D01*
X2087414Y1482739D01*
X2086344Y1477362D01*
X2087414Y1471986D01*
X2090459Y1467428D01*
X2095017Y1464382D01*
X2100394Y1463313D01*
X2105770Y1464382D01*
X2110328Y1467428D01*
X2113374Y1471986D01*
X2114443Y1477362D01*
X2113374Y1482739D01*
X2110328Y1487297D01*
X2105770Y1490342D01*
X2100394Y1491412D01*
D02*
G37*
G36*
X2061023D02*
X2055647Y1490342D01*
X2051089Y1487297D01*
X2048044Y1482739D01*
X2046974Y1477362D01*
X2048044Y1471986D01*
X2051089Y1467428D01*
X2055647Y1464382D01*
X2061023Y1463313D01*
X2066400Y1464382D01*
X2070958Y1467428D01*
X2074003Y1471986D01*
X2075073Y1477362D01*
X2074003Y1482739D01*
X2070958Y1487297D01*
X2066400Y1490342D01*
X2061023Y1491412D01*
D02*
G37*
G36*
X2992736Y1376972D02*
X2987359Y1375902D01*
X2982801Y1372857D01*
X2979756Y1368299D01*
X2978686Y1362922D01*
X2979756Y1357546D01*
X2982801Y1352988D01*
X2987359Y1349942D01*
X2992736Y1348873D01*
X2998112Y1349942D01*
X3002670Y1352988D01*
X3005716Y1357546D01*
X3006785Y1362922D01*
X3005716Y1368299D01*
X3002670Y1372857D01*
X2998112Y1375902D01*
X2992736Y1376972D01*
D02*
G37*
G36*
X2649606Y1376451D02*
X2644230Y1375382D01*
X2639909Y1372495D01*
X2639666Y1372404D01*
X2639204Y1371971D01*
X2638860Y1371703D01*
X2638494Y1371465D01*
X2638097Y1371256D01*
X2637660Y1371071D01*
X2637177Y1370913D01*
X2636642Y1370783D01*
X2636050Y1370685D01*
X2635395Y1370623D01*
X2634552Y1370598D01*
X2634178Y1370430D01*
X2584843D01*
X2581770Y1369819D01*
X2579166Y1368079D01*
X2561252Y1350165D01*
X2559512Y1347560D01*
X2558901Y1344488D01*
Y1250373D01*
X2541950Y1233422D01*
X1841565D01*
X1841564Y1233422D01*
X1838492Y1232811D01*
X1835888Y1231071D01*
X1733908Y1129091D01*
X1513780D01*
X1513780Y1129091D01*
X1510707Y1128480D01*
X1508103Y1126740D01*
X1486832Y1105469D01*
X1351948D01*
X1330760Y1126657D01*
X1330614Y1127040D01*
X1330036Y1127655D01*
X1329618Y1128160D01*
X1329267Y1128650D01*
X1328980Y1129120D01*
X1328751Y1129573D01*
X1328573Y1130011D01*
X1328440Y1130441D01*
X1328349Y1130868D01*
X1328295Y1131302D01*
X1328274Y1131934D01*
X1328167Y1132170D01*
X1327153Y1137266D01*
X1324108Y1141824D01*
X1319550Y1144870D01*
X1314173Y1145939D01*
X1308797Y1144870D01*
X1304476Y1141983D01*
X1304233Y1141892D01*
X1303771Y1141460D01*
X1303428Y1141191D01*
X1303061Y1140954D01*
X1302664Y1140744D01*
X1302227Y1140559D01*
X1301744Y1140401D01*
X1301209Y1140271D01*
X1300617Y1140174D01*
X1299962Y1140112D01*
X1299119Y1140086D01*
X1298745Y1139918D01*
X1007875D01*
X1007874Y1139918D01*
X1004802Y1139307D01*
X1002197Y1137567D01*
X1002197Y1137566D01*
X919520Y1054890D01*
X917780Y1052285D01*
X917169Y1049213D01*
Y586294D01*
X917000Y585921D01*
X916975Y585077D01*
X916913Y584423D01*
X916815Y583830D01*
X916686Y583295D01*
X916527Y582812D01*
X916343Y582375D01*
X916133Y581979D01*
X915896Y581612D01*
X915627Y581268D01*
X915195Y580806D01*
X915103Y580563D01*
X912217Y576243D01*
X911147Y570866D01*
X912217Y565490D01*
X915262Y560932D01*
X915780Y560585D01*
Y554572D01*
X915262Y554226D01*
X912217Y549668D01*
X911147Y544291D01*
X912217Y538915D01*
X915262Y534357D01*
X919820Y531311D01*
X925197Y530242D01*
X930573Y531311D01*
X935131Y534357D01*
X938177Y538915D01*
X939191Y544011D01*
X939298Y544247D01*
X939319Y544879D01*
X939372Y545313D01*
X939464Y545740D01*
X939596Y546169D01*
X939774Y546608D01*
X940004Y547062D01*
X940290Y547532D01*
X940640Y548020D01*
X941059Y548526D01*
X941638Y549141D01*
X942813Y549208D01*
X947680Y544899D01*
Y361221D01*
X948291Y358148D01*
X950032Y355544D01*
X970701Y334875D01*
X970701Y334874D01*
X973306Y333134D01*
X976378Y332523D01*
X1033465D01*
X1036537Y333134D01*
X1039141Y334874D01*
X1066700Y362433D01*
X1068441Y365038D01*
X1069052Y368110D01*
Y433391D01*
X1069220Y433764D01*
X1069245Y434608D01*
X1069307Y435262D01*
X1069405Y435855D01*
X1069535Y436390D01*
X1069693Y436873D01*
X1069878Y437310D01*
X1070087Y437706D01*
X1070324Y438073D01*
X1070593Y438417D01*
X1071026Y438879D01*
X1071117Y439122D01*
X1074004Y443442D01*
X1075073Y448819D01*
X1074004Y454195D01*
X1070958Y458753D01*
X1066400Y461799D01*
X1061024Y462868D01*
X1055647Y461799D01*
X1051089Y458753D01*
X1048044Y454195D01*
X1046974Y448819D01*
X1048044Y443442D01*
X1050930Y439122D01*
X1051022Y438879D01*
X1051454Y438417D01*
X1051723Y438073D01*
X1051960Y437706D01*
X1052170Y437310D01*
X1052354Y436873D01*
X1052513Y436389D01*
X1052642Y435855D01*
X1052740Y435262D01*
X1052802Y434608D01*
X1052827Y433764D01*
X1052995Y433390D01*
Y371436D01*
X1030139Y348579D01*
X979703D01*
X963737Y364546D01*
Y593504D01*
X963126Y596576D01*
X961385Y599181D01*
X956847Y603719D01*
Y1036103D01*
X1020984Y1100239D01*
X1288997D01*
X1321095Y1068142D01*
X1323699Y1066402D01*
X1326772Y1065791D01*
X1638407D01*
X1642562Y1061635D01*
Y1043307D01*
X1643173Y1040235D01*
X1644914Y1037630D01*
X1652705Y1029839D01*
X1652850Y1029456D01*
X1653429Y1028841D01*
X1653847Y1028336D01*
X1654198Y1027847D01*
X1654485Y1027376D01*
X1654714Y1026923D01*
X1654892Y1026485D01*
X1655025Y1026055D01*
X1655116Y1025629D01*
X1655169Y1025194D01*
X1655190Y1024562D01*
X1655298Y1024326D01*
X1656311Y1019230D01*
X1659357Y1014672D01*
X1659897Y1014311D01*
Y1009311D01*
X1659357Y1008950D01*
X1656311Y1004392D01*
X1655242Y999016D01*
X1656311Y993639D01*
X1659357Y989081D01*
X1659897Y988721D01*
Y983721D01*
X1659357Y983360D01*
X1656311Y978802D01*
X1655242Y973425D01*
X1656311Y968049D01*
X1659357Y963491D01*
X1663915Y960445D01*
X1669291Y959376D01*
X1674668Y960445D01*
X1679226Y963491D01*
X1682271Y968049D01*
X1683341Y973425D01*
X1682271Y978802D01*
X1679226Y983360D01*
X1678686Y983721D01*
Y988721D01*
X1679226Y989081D01*
X1682271Y993639D01*
X1683341Y999016D01*
X1682271Y1004392D01*
X1679226Y1008950D01*
X1678686Y1009311D01*
Y1014311D01*
X1679226Y1014672D01*
X1682271Y1019230D01*
X1683341Y1024606D01*
X1682271Y1029983D01*
X1679226Y1034541D01*
X1678686Y1034902D01*
Y1039902D01*
X1679226Y1040262D01*
X1682271Y1044820D01*
X1683341Y1050197D01*
X1682271Y1055573D01*
X1679385Y1059894D01*
X1679293Y1060137D01*
X1678861Y1060599D01*
X1678592Y1060943D01*
X1678355Y1061309D01*
X1678145Y1061706D01*
X1677961Y1062143D01*
X1677802Y1062626D01*
X1677673Y1063161D01*
X1677575Y1063754D01*
X1677513Y1064408D01*
X1677488Y1065252D01*
X1677320Y1065625D01*
Y1070866D01*
X1677320Y1070867D01*
X1676709Y1073939D01*
X1674968Y1076544D01*
X1674968Y1076544D01*
X1662178Y1089334D01*
X1664249Y1094334D01*
X1735236D01*
X1738309Y1094945D01*
X1740913Y1096685D01*
X1848601Y1204373D01*
X2543627D01*
X2544001Y1204205D01*
X2544844Y1204180D01*
X2545498Y1204118D01*
X2546091Y1204020D01*
X2546626Y1203890D01*
X2547109Y1203732D01*
X2547546Y1203548D01*
X2547942Y1203338D01*
X2548309Y1203101D01*
X2548653Y1202832D01*
X2549115Y1202400D01*
X2549358Y1202308D01*
X2553679Y1199422D01*
X2559055Y1198352D01*
X2564432Y1199422D01*
X2568990Y1202467D01*
X2572035Y1207025D01*
X2573105Y1212402D01*
X2572035Y1217778D01*
X2568990Y1222336D01*
X2564432Y1225382D01*
X2563812Y1225505D01*
X2562166Y1230930D01*
X2572606Y1241370D01*
X2572606Y1241370D01*
X2574346Y1243975D01*
X2574957Y1247047D01*
X2574957Y1247048D01*
Y1341163D01*
X2588168Y1354373D01*
X2634178D01*
X2634552Y1354205D01*
X2635395Y1354180D01*
X2636050Y1354118D01*
X2636643Y1354020D01*
X2637178Y1353890D01*
X2637660Y1353732D01*
X2638097Y1353548D01*
X2638493Y1353338D01*
X2638860Y1353101D01*
X2639204Y1352832D01*
X2639666Y1352400D01*
X2639909Y1352308D01*
X2644230Y1349422D01*
X2649606Y1348352D01*
X2654983Y1349422D01*
X2659541Y1352467D01*
X2662586Y1357025D01*
X2663656Y1362402D01*
X2662586Y1367778D01*
X2659541Y1372336D01*
X2654983Y1375382D01*
X2649606Y1376451D01*
D02*
G37*
G36*
X2992736Y1326972D02*
X2987359Y1325902D01*
X2982801Y1322857D01*
X2979756Y1318299D01*
X2978686Y1312922D01*
X2979756Y1307546D01*
X2982801Y1302988D01*
X2987359Y1299942D01*
X2992736Y1298873D01*
X2998112Y1299942D01*
X3002670Y1302988D01*
X3005716Y1307546D01*
X3006785Y1312922D01*
X3005716Y1318299D01*
X3002670Y1322857D01*
X2998112Y1325902D01*
X2992736Y1326972D01*
D02*
G37*
G36*
X1617126Y1288656D02*
X1611749Y1287586D01*
X1607191Y1284541D01*
X1604146Y1279983D01*
X1603076Y1274606D01*
X1604146Y1269230D01*
X1607191Y1264672D01*
X1611749Y1261626D01*
X1617126Y1260557D01*
X1622503Y1261626D01*
X1627061Y1264672D01*
X1630106Y1269230D01*
X1631176Y1274606D01*
X1630106Y1279983D01*
X1627061Y1284541D01*
X1622503Y1287586D01*
X1617126Y1288656D01*
D02*
G37*
G36*
X2856299Y1276451D02*
X2850923Y1275382D01*
X2846365Y1272336D01*
X2843319Y1267778D01*
X2842250Y1262402D01*
X2843319Y1257025D01*
X2846365Y1252467D01*
X2850923Y1249422D01*
X2856299Y1248352D01*
X2861676Y1249422D01*
X2866234Y1252467D01*
X2869279Y1257025D01*
X2870349Y1262402D01*
X2869279Y1267778D01*
X2866234Y1272336D01*
X2861676Y1275382D01*
X2856299Y1276451D01*
D02*
G37*
G36*
X1617126Y1238262D02*
X1611749Y1237193D01*
X1607191Y1234147D01*
X1604146Y1229589D01*
X1603076Y1224213D01*
X1604146Y1218836D01*
X1607191Y1214278D01*
X1611749Y1211233D01*
X1617126Y1210163D01*
X1622503Y1211233D01*
X1627061Y1214278D01*
X1630106Y1218836D01*
X1631176Y1224213D01*
X1630106Y1229589D01*
X1627061Y1234147D01*
X1622503Y1237193D01*
X1617126Y1238262D01*
D02*
G37*
G36*
X2856299Y1226451D02*
X2850923Y1225382D01*
X2846365Y1222336D01*
X2843319Y1217778D01*
X2842250Y1212402D01*
X2843319Y1207025D01*
X2846365Y1202467D01*
X2850923Y1199422D01*
X2856299Y1198352D01*
X2861676Y1199422D01*
X2866234Y1202467D01*
X2869279Y1207025D01*
X2870349Y1212402D01*
X2869279Y1217778D01*
X2866234Y1222336D01*
X2861676Y1225382D01*
X2856299Y1226451D01*
D02*
G37*
G36*
X2993256Y1177492D02*
X2987880Y1176423D01*
X2983322Y1173377D01*
X2980276Y1168819D01*
X2979207Y1163443D01*
X2980276Y1158066D01*
X2983322Y1153508D01*
X2987880Y1150463D01*
X2993256Y1149393D01*
X2998633Y1150463D01*
X3003191Y1153508D01*
X3006236Y1158066D01*
X3007306Y1163443D01*
X3006236Y1168819D01*
X3003191Y1173377D01*
X2998633Y1176423D01*
X2993256Y1177492D01*
D02*
G37*
G36*
X2559055Y1176451D02*
X2553679Y1175382D01*
X2549121Y1172336D01*
X2546075Y1167778D01*
X2545006Y1162402D01*
X2546075Y1157025D01*
X2549121Y1152467D01*
X2553679Y1149422D01*
X2559055Y1148352D01*
X2564432Y1149422D01*
X2568990Y1152467D01*
X2572035Y1157025D01*
X2573105Y1162402D01*
X2572035Y1167778D01*
X2568990Y1172336D01*
X2564432Y1175382D01*
X2559055Y1176451D01*
D02*
G37*
G36*
X2856299Y1126451D02*
X2850923Y1125382D01*
X2846365Y1122336D01*
X2843319Y1117778D01*
X2842250Y1112402D01*
X2843319Y1107025D01*
X2846365Y1102467D01*
X2850923Y1099422D01*
X2856299Y1098352D01*
X2861676Y1099422D01*
X2866234Y1102467D01*
X2869279Y1107025D01*
X2870349Y1112402D01*
X2869279Y1117778D01*
X2866234Y1122336D01*
X2861676Y1125382D01*
X2856299Y1126451D01*
D02*
G37*
G36*
X2559055Y1126451D02*
X2553679Y1125382D01*
X2549121Y1122336D01*
X2546075Y1117778D01*
X2545006Y1112402D01*
X2546075Y1107025D01*
X2549121Y1102467D01*
X2553679Y1099422D01*
X2559055Y1098352D01*
X2564432Y1099422D01*
X2568990Y1102467D01*
X2572035Y1107025D01*
X2573105Y1112402D01*
X2572035Y1117778D01*
X2568990Y1122336D01*
X2564432Y1125382D01*
X2559055Y1126451D01*
D02*
G37*
G36*
X1994094Y1113459D02*
X1988718Y1112389D01*
X1984160Y1109344D01*
X1981114Y1104786D01*
X1980045Y1099409D01*
X1981114Y1094033D01*
X1984160Y1089475D01*
X1988718Y1086429D01*
X1994094Y1085360D01*
X1999471Y1086429D01*
X2004029Y1089475D01*
X2007074Y1094033D01*
X2008144Y1099409D01*
X2007074Y1104786D01*
X2004029Y1109344D01*
X1999471Y1112389D01*
X1994094Y1113459D01*
D02*
G37*
G36*
X1964567Y1079010D02*
X1959190Y1077941D01*
X1954632Y1074895D01*
X1951587Y1070337D01*
X1950517Y1064961D01*
X1951587Y1059584D01*
X1954632Y1055026D01*
X1959190Y1051981D01*
X1964567Y1050911D01*
X1969943Y1051981D01*
X1974501Y1055026D01*
X1977547Y1059584D01*
X1978616Y1064961D01*
X1977547Y1070337D01*
X1974501Y1074895D01*
X1969943Y1077941D01*
X1964567Y1079010D01*
D02*
G37*
G36*
X2856299Y1076451D02*
X2850923Y1075382D01*
X2846365Y1072336D01*
X2843319Y1067778D01*
X2842250Y1062402D01*
X2843319Y1057025D01*
X2846365Y1052467D01*
X2850923Y1049422D01*
X2856299Y1048352D01*
X2861676Y1049422D01*
X2866234Y1052467D01*
X2869279Y1057025D01*
X2870349Y1062402D01*
X2869279Y1067778D01*
X2866234Y1072336D01*
X2861676Y1075382D01*
X2856299Y1076451D01*
D02*
G37*
G36*
X1276575Y1072989D02*
X1117126D01*
X1114054Y1072378D01*
X1111449Y1070638D01*
X1111449Y1070637D01*
X1096489Y1055677D01*
X1094748Y1053072D01*
X1094137Y1050000D01*
Y1041058D01*
X1093969Y1040684D01*
X1093944Y1039841D01*
X1093882Y1039187D01*
X1093784Y1038593D01*
X1093654Y1038059D01*
X1093496Y1037576D01*
X1093312Y1037139D01*
X1093102Y1036743D01*
X1092865Y1036376D01*
X1092596Y1036032D01*
X1092163Y1035570D01*
X1092072Y1035326D01*
X1089186Y1031006D01*
X1088116Y1025630D01*
X1089186Y1020253D01*
X1092231Y1015695D01*
X1096789Y1012650D01*
X1102166Y1011580D01*
X1107542Y1012650D01*
X1112100Y1015695D01*
X1115146Y1020253D01*
X1116215Y1025630D01*
X1115146Y1031006D01*
X1112259Y1035326D01*
X1112168Y1035570D01*
X1111735Y1036033D01*
X1111467Y1036376D01*
X1111229Y1036742D01*
X1111020Y1037139D01*
X1110835Y1037576D01*
X1110677Y1038059D01*
X1110547Y1038594D01*
X1110449Y1039187D01*
X1110387Y1039841D01*
X1110362Y1040685D01*
X1110194Y1041058D01*
Y1046675D01*
X1120451Y1056932D01*
X1273249D01*
X1287369Y1042813D01*
X1287590Y1041239D01*
X1287270Y1040051D01*
X1281702Y1037987D01*
X1280770Y1038610D01*
X1275394Y1039679D01*
X1270017Y1038610D01*
X1265459Y1035564D01*
X1262414Y1031006D01*
X1261344Y1025630D01*
X1262414Y1020253D01*
X1265301Y1015933D01*
X1265392Y1015690D01*
X1265824Y1015228D01*
X1266093Y1014884D01*
X1266330Y1014517D01*
X1266540Y1014120D01*
X1266724Y1013684D01*
X1266883Y1013201D01*
X1267012Y1012666D01*
X1267110Y1012073D01*
X1267172Y1011418D01*
X1267197Y1010575D01*
X1267366Y1010202D01*
Y981496D01*
X1267977Y978424D01*
X1269717Y975819D01*
X1323063Y922473D01*
X1325668Y920732D01*
X1328740Y920121D01*
X1657108D01*
X1729176Y848053D01*
Y541339D01*
X1729787Y538266D01*
X1731528Y535662D01*
X1761657Y505533D01*
Y423893D01*
X1761488Y423519D01*
X1761463Y422676D01*
X1761401Y422021D01*
X1761303Y421428D01*
X1761174Y420893D01*
X1761015Y420410D01*
X1760831Y419974D01*
X1760621Y419577D01*
X1760384Y419211D01*
X1760115Y418866D01*
X1759683Y418404D01*
X1759592Y418161D01*
X1756705Y413841D01*
X1755636Y408464D01*
X1756705Y403088D01*
X1759751Y398530D01*
X1764309Y395485D01*
X1769685Y394415D01*
X1775062Y395485D01*
X1779620Y398530D01*
X1781794Y401785D01*
X1781935Y401892D01*
X1786313Y402826D01*
X1787691Y402727D01*
X1839413Y351005D01*
Y225737D01*
X1790011Y176335D01*
X1755964D01*
X1752891Y175724D01*
X1750287Y173984D01*
X1750286Y173984D01*
X1739843Y163540D01*
X1678642D01*
X1678642Y163540D01*
X1675570Y162929D01*
X1672965Y161189D01*
X1662521Y150745D01*
X1605315D01*
X1602243Y150134D01*
X1599638Y148393D01*
X1599638Y148393D01*
X1580937Y129693D01*
X1579197Y127088D01*
X1578586Y124016D01*
Y105979D01*
X1578418Y105606D01*
X1578392Y104762D01*
X1578330Y104108D01*
X1578233Y103515D01*
X1578103Y102980D01*
X1577945Y102497D01*
X1577760Y102060D01*
X1577551Y101664D01*
X1577313Y101297D01*
X1577044Y100953D01*
X1576612Y100491D01*
X1576521Y100248D01*
X1573634Y95927D01*
X1572565Y90551D01*
X1573634Y85174D01*
X1576680Y80617D01*
X1581238Y77571D01*
X1586614Y76501D01*
X1591991Y77571D01*
X1596549Y80617D01*
X1599594Y85174D01*
X1600664Y90551D01*
X1599594Y95927D01*
X1596707Y100248D01*
X1596616Y100491D01*
X1596184Y100953D01*
X1595915Y101297D01*
X1595678Y101663D01*
X1595468Y102060D01*
X1595284Y102497D01*
X1595125Y102980D01*
X1594996Y103515D01*
X1594898Y104108D01*
X1594836Y104762D01*
X1594811Y105606D01*
X1594642Y105979D01*
Y116814D01*
X1596563Y118238D01*
X1596880Y118333D01*
X1602931Y117023D01*
X1604239Y115066D01*
X1608797Y112020D01*
X1614173Y110951D01*
X1619550Y112020D01*
X1624108Y115066D01*
X1624465Y115601D01*
X1624833Y115770D01*
X1625246Y116216D01*
X1625536Y116474D01*
X1625847Y116700D01*
X1626187Y116900D01*
X1626568Y117077D01*
X1627002Y117232D01*
X1627496Y117362D01*
X1628057Y117461D01*
X1628689Y117525D01*
X1629527Y117552D01*
X1629633Y117600D01*
X1629744Y117564D01*
X1630045Y117720D01*
X1667087D01*
X1670159Y118331D01*
X1672764Y120071D01*
X1674417Y121725D01*
X1679843Y120079D01*
X1679933Y119624D01*
X1682979Y115066D01*
X1687537Y112020D01*
X1692913Y110951D01*
X1698290Y112020D01*
X1702848Y115066D01*
X1703206Y115601D01*
X1703573Y115770D01*
X1703986Y116216D01*
X1704276Y116474D01*
X1704587Y116700D01*
X1704928Y116900D01*
X1705309Y117077D01*
X1705742Y117232D01*
X1706237Y117362D01*
X1706797Y117461D01*
X1707430Y117525D01*
X1708267Y117552D01*
X1708373Y117600D01*
X1708484Y117564D01*
X1708786Y117720D01*
X1746811D01*
X1749883Y118331D01*
X1752143Y117395D01*
X1752768Y114254D01*
X1755814Y109696D01*
X1760372Y106650D01*
X1765748Y105581D01*
X1771125Y106650D01*
X1775683Y109696D01*
X1778728Y114254D01*
X1779308Y117168D01*
X1779432Y117356D01*
X1779521Y117384D01*
X1779931Y117464D01*
X1780515Y117525D01*
X1781385Y117552D01*
X1781757Y117720D01*
X1781913D01*
X1782245Y117667D01*
X1782318Y117720D01*
X1802913D01*
X1805986Y118331D01*
X1808590Y120071D01*
X1837746Y149227D01*
X1842365Y147313D01*
Y141176D01*
X1842197Y140803D01*
X1842172Y139959D01*
X1842110Y139305D01*
X1842012Y138712D01*
X1841882Y138177D01*
X1841724Y137694D01*
X1841540Y137257D01*
X1841330Y136861D01*
X1841093Y136494D01*
X1840824Y136150D01*
X1840391Y135688D01*
X1840300Y135445D01*
X1837414Y131125D01*
X1836344Y125748D01*
X1837414Y120371D01*
X1840459Y115814D01*
X1845017Y112768D01*
X1850394Y111698D01*
X1855770Y112768D01*
X1860328Y115814D01*
X1863374Y120371D01*
X1864443Y125748D01*
X1863374Y131125D01*
X1860487Y135445D01*
X1860396Y135688D01*
X1859963Y136151D01*
X1859695Y136494D01*
X1859457Y136861D01*
X1859248Y137257D01*
X1859063Y137694D01*
X1858905Y138177D01*
X1858775Y138712D01*
X1858678Y139305D01*
X1858616Y139959D01*
X1858590Y140803D01*
X1858422Y141176D01*
Y153200D01*
X1872182Y166959D01*
X1876801Y165046D01*
Y157601D01*
X1876633Y157227D01*
X1876608Y156384D01*
X1876546Y155729D01*
X1876448Y155136D01*
X1876318Y154601D01*
X1876160Y154118D01*
X1875976Y153681D01*
X1875766Y153285D01*
X1875529Y152918D01*
X1875260Y152574D01*
X1874828Y152112D01*
X1874736Y151869D01*
X1871850Y147549D01*
X1870780Y142172D01*
X1871850Y136796D01*
X1874895Y132238D01*
X1879453Y129192D01*
X1884830Y128123D01*
X1890206Y129192D01*
X1894764Y132238D01*
X1897810Y136796D01*
X1898879Y142172D01*
X1897810Y147549D01*
X1894923Y151869D01*
X1894832Y152112D01*
X1894399Y152574D01*
X1894131Y152918D01*
X1893893Y153285D01*
X1893684Y153682D01*
X1893499Y154118D01*
X1893341Y154602D01*
X1893211Y155136D01*
X1893113Y155729D01*
X1893052Y156384D01*
X1893026Y157227D01*
X1892858Y157601D01*
Y170932D01*
X1997362Y275436D01*
X2072806D01*
X2075878Y276047D01*
X2078483Y277788D01*
X2110580Y309885D01*
X2154528D01*
X2157600Y310496D01*
X2160204Y312236D01*
X2176936Y328969D01*
X2176937Y328969D01*
X2178677Y331573D01*
X2179288Y334646D01*
Y372047D01*
X2179288Y372047D01*
X2178677Y375120D01*
X2176937Y377724D01*
X2176936Y377724D01*
X2156267Y398393D01*
X2153663Y400134D01*
X2150591Y400745D01*
X2125665D01*
X2125291Y400913D01*
X2124448Y400938D01*
X2123793Y401000D01*
X2123200Y401098D01*
X2122665Y401228D01*
X2122182Y401386D01*
X2121746Y401570D01*
X2121349Y401780D01*
X2120983Y402017D01*
X2120638Y402286D01*
X2120176Y402719D01*
X2119933Y402810D01*
X2115613Y405697D01*
X2110236Y406766D01*
X2104860Y405697D01*
X2100540Y402810D01*
X2100297Y402719D01*
X2099834Y402286D01*
X2099491Y402018D01*
X2099124Y401780D01*
X2098727Y401570D01*
X2098290Y401386D01*
X2097807Y401228D01*
X2097273Y401098D01*
X2096680Y401000D01*
X2096025Y400938D01*
X2095182Y400913D01*
X2094808Y400745D01*
X1909793D01*
X1878679Y431858D01*
X1878679Y431858D01*
X1850548Y459989D01*
Y713210D01*
X1871819Y734481D01*
X1873559Y737085D01*
X1874170Y740158D01*
X1874170Y740158D01*
Y746383D01*
X1874338Y746756D01*
X1874364Y747600D01*
X1874426Y748254D01*
X1874523Y748847D01*
X1874653Y749382D01*
X1874811Y749865D01*
X1874996Y750302D01*
X1875205Y750698D01*
X1875443Y751065D01*
X1875712Y751409D01*
X1876144Y751871D01*
X1876235Y752114D01*
X1879122Y756434D01*
X1880191Y761811D01*
X1879122Y767188D01*
X1876076Y771745D01*
X1871518Y774791D01*
X1866142Y775861D01*
X1860765Y774791D01*
X1856207Y771745D01*
X1853162Y767188D01*
X1852092Y761811D01*
X1853162Y756434D01*
X1856049Y752114D01*
X1856140Y751871D01*
X1856572Y751409D01*
X1856841Y751065D01*
X1857078Y750698D01*
X1857288Y750302D01*
X1857472Y749865D01*
X1857631Y749382D01*
X1857760Y748847D01*
X1857858Y748254D01*
X1857920Y747600D01*
X1857945Y746756D01*
X1858113Y746383D01*
Y743483D01*
X1836843Y722212D01*
X1835102Y719608D01*
X1834491Y716535D01*
Y456664D01*
X1835102Y453591D01*
X1836843Y450987D01*
X1867325Y420505D01*
X1867325Y420504D01*
X1867326Y420504D01*
X1900790Y387040D01*
X1903395Y385299D01*
X1906467Y384688D01*
X1906468Y384688D01*
X2094808D01*
X2095182Y384520D01*
X2096025Y384495D01*
X2096680Y384433D01*
X2097273Y384335D01*
X2097808Y384205D01*
X2098290Y384047D01*
X2098727Y383863D01*
X2099124Y383653D01*
X2099490Y383416D01*
X2099834Y383147D01*
X2100297Y382714D01*
X2100540Y382623D01*
X2104860Y379736D01*
X2110236Y378667D01*
X2115613Y379736D01*
X2119933Y382623D01*
X2120176Y382714D01*
X2120639Y383147D01*
X2120982Y383415D01*
X2121349Y383653D01*
X2121746Y383863D01*
X2122182Y384047D01*
X2122666Y384205D01*
X2123200Y384335D01*
X2123793Y384433D01*
X2124448Y384495D01*
X2125291Y384520D01*
X2125665Y384688D01*
X2147265D01*
X2163231Y368722D01*
Y345810D01*
X2160639Y344985D01*
X2158231Y344978D01*
X2155604Y348911D01*
X2151046Y351956D01*
X2145669Y353026D01*
X2140293Y351956D01*
X2135972Y349070D01*
X2135729Y348978D01*
X2135267Y348546D01*
X2134923Y348277D01*
X2134557Y348040D01*
X2134160Y347830D01*
X2133723Y347646D01*
X2133240Y347487D01*
X2132705Y347358D01*
X2132112Y347260D01*
X2131458Y347198D01*
X2130614Y347173D01*
X2130241Y347005D01*
X2111614D01*
X2108542Y346394D01*
X2105937Y344653D01*
X2091606Y330322D01*
X2087723Y333510D01*
X2087783Y333600D01*
X2088852Y338976D01*
X2087783Y344353D01*
X2084737Y348911D01*
X2080179Y351956D01*
X2074803Y353026D01*
X2069426Y351956D01*
X2065106Y349070D01*
X2064863Y348978D01*
X2064401Y348546D01*
X2064057Y348277D01*
X2063690Y348040D01*
X2063294Y347830D01*
X2062857Y347646D01*
X2062374Y347487D01*
X2061839Y347358D01*
X2061246Y347260D01*
X2060591Y347198D01*
X2059748Y347173D01*
X2059374Y347005D01*
X2047638D01*
X2047638Y347005D01*
X2044565Y346394D01*
X2041961Y344653D01*
X2034301Y336994D01*
X2029682Y338907D01*
Y349409D01*
X2029682Y349409D01*
X2029071Y352482D01*
X2027330Y355086D01*
X2027330Y355087D01*
X2016504Y365913D01*
X2013899Y367653D01*
X2010827Y368264D01*
X1984252D01*
X1984252Y368265D01*
X1981180Y367653D01*
X1978575Y365913D01*
X1959667Y347005D01*
X1948499D01*
X1948125Y347173D01*
X1947282Y347198D01*
X1946627Y347260D01*
X1946034Y347358D01*
X1945499Y347488D01*
X1945017Y347646D01*
X1944580Y347830D01*
X1944184Y348040D01*
X1943817Y348277D01*
X1943473Y348546D01*
X1943011Y348978D01*
X1942767Y349070D01*
X1938447Y351956D01*
X1933071Y353026D01*
X1927694Y351956D01*
X1923136Y348911D01*
X1920091Y344353D01*
X1919021Y338976D01*
X1920091Y333600D01*
X1923136Y329042D01*
X1927694Y325996D01*
X1933071Y324927D01*
X1938447Y325996D01*
X1942767Y328883D01*
X1943011Y328974D01*
X1943473Y329407D01*
X1943816Y329675D01*
X1944183Y329913D01*
X1944580Y330122D01*
X1945017Y330307D01*
X1945500Y330465D01*
X1946034Y330595D01*
X1946627Y330693D01*
X1947282Y330755D01*
X1948125Y330780D01*
X1948499Y330948D01*
X1954794D01*
X1956707Y326329D01*
X1860089Y229710D01*
X1855469Y231624D01*
Y354331D01*
X1854858Y357403D01*
X1853118Y360008D01*
X1853118Y360008D01*
X1799367Y413759D01*
Y429847D01*
X1799535Y430221D01*
X1799561Y431064D01*
X1799622Y431719D01*
X1799720Y432312D01*
X1799850Y432847D01*
X1800008Y433330D01*
X1800193Y433766D01*
X1800402Y434163D01*
X1800639Y434529D01*
X1800909Y434874D01*
X1801341Y435336D01*
X1801432Y435579D01*
X1804319Y439899D01*
X1805388Y445276D01*
X1804319Y450652D01*
X1801273Y455210D01*
X1796715Y458256D01*
X1791339Y459325D01*
X1785962Y458256D01*
X1782713Y456085D01*
X1778371Y457749D01*
X1777713Y458300D01*
Y508858D01*
X1777713Y508858D01*
X1777172Y511578D01*
X1777197Y512082D01*
X1780011Y516578D01*
X1793627D01*
X1794001Y516410D01*
X1794844Y516384D01*
X1795498Y516322D01*
X1796091Y516225D01*
X1796627Y516095D01*
X1797109Y515937D01*
X1797546Y515752D01*
X1797942Y515543D01*
X1798309Y515306D01*
X1798653Y515037D01*
X1799115Y514604D01*
X1799359Y514513D01*
X1803679Y511626D01*
X1809055Y510557D01*
X1814432Y511626D01*
X1818990Y514672D01*
X1822035Y519230D01*
X1823105Y524606D01*
X1822035Y529983D01*
X1818990Y534541D01*
X1814432Y537586D01*
X1809055Y538656D01*
X1803679Y537586D01*
X1799359Y534700D01*
X1799115Y534609D01*
X1798652Y534176D01*
X1798309Y533907D01*
X1797943Y533670D01*
X1797546Y533460D01*
X1797109Y533276D01*
X1796626Y533117D01*
X1796091Y532988D01*
X1795498Y532890D01*
X1794844Y532828D01*
X1794001Y532803D01*
X1793627Y532635D01*
X1775963D01*
X1757044Y551554D01*
Y619719D01*
X1762044Y622391D01*
X1764309Y620878D01*
X1769685Y619809D01*
X1775062Y620878D01*
X1779620Y623924D01*
X1782665Y628482D01*
X1783735Y633858D01*
X1782665Y639235D01*
X1779620Y643793D01*
X1775062Y646838D01*
X1769685Y647908D01*
X1764309Y646838D01*
X1762044Y645325D01*
X1757044Y647998D01*
Y856270D01*
X1757044Y856270D01*
X1756433Y859343D01*
X1754693Y861947D01*
X1754692Y861947D01*
X1671002Y945638D01*
X1668398Y947378D01*
X1665325Y947989D01*
X1336958D01*
X1305272Y979674D01*
Y1044291D01*
X1304661Y1047364D01*
X1302921Y1049968D01*
X1282252Y1070638D01*
X1279647Y1072378D01*
X1276575Y1072989D01*
D02*
G37*
G36*
X2293280Y1052014D02*
X2287903Y1050945D01*
X2283345Y1047899D01*
X2280300Y1043341D01*
X2279230Y1037965D01*
X2280300Y1032588D01*
X2283345Y1028030D01*
X2287903Y1024985D01*
X2293280Y1023915D01*
X2298656Y1024985D01*
X2303214Y1028030D01*
X2306260Y1032588D01*
X2307329Y1037965D01*
X2306260Y1043341D01*
X2303214Y1047899D01*
X2298656Y1050945D01*
X2293280Y1052014D01*
D02*
G37*
G36*
X1994094Y1050467D02*
X1988718Y1049397D01*
X1984160Y1046352D01*
X1981114Y1041794D01*
X1980045Y1036417D01*
X1981114Y1031041D01*
X1984160Y1026483D01*
X1988718Y1023437D01*
X1994094Y1022368D01*
X1999471Y1023437D01*
X2004029Y1026483D01*
X2007074Y1031041D01*
X2008144Y1036417D01*
X2007074Y1041794D01*
X2004029Y1046352D01*
X1999471Y1049397D01*
X1994094Y1050467D01*
D02*
G37*
G36*
X1187992Y1040467D02*
X1182616Y1039397D01*
X1178058Y1036352D01*
X1175012Y1031794D01*
X1173943Y1026417D01*
X1175012Y1021041D01*
X1178058Y1016483D01*
X1182616Y1013437D01*
X1187992Y1012368D01*
X1193369Y1013437D01*
X1197927Y1016483D01*
X1200972Y1021041D01*
X1202042Y1026417D01*
X1200972Y1031794D01*
X1197927Y1036352D01*
X1193369Y1039397D01*
X1187992Y1040467D01*
D02*
G37*
G36*
X1058858Y1039679D02*
X1053482Y1038610D01*
X1048924Y1035564D01*
X1045878Y1031006D01*
X1044809Y1025630D01*
X1045878Y1020253D01*
X1048924Y1015695D01*
X1053482Y1012650D01*
X1058858Y1011580D01*
X1064235Y1012650D01*
X1068793Y1015695D01*
X1071838Y1020253D01*
X1072908Y1025630D01*
X1071838Y1031006D01*
X1068793Y1035564D01*
X1064235Y1038610D01*
X1058858Y1039679D01*
D02*
G37*
G36*
X2856299Y1026451D02*
X2850923Y1025382D01*
X2846365Y1022336D01*
X2843319Y1017778D01*
X2842250Y1012402D01*
X2843319Y1007025D01*
X2846365Y1002467D01*
X2850923Y999422D01*
X2856299Y998352D01*
X2861676Y999422D01*
X2866234Y1002467D01*
X2869279Y1007025D01*
X2870349Y1012402D01*
X2869279Y1017778D01*
X2866234Y1022336D01*
X2861676Y1025382D01*
X2856299Y1026451D01*
D02*
G37*
G36*
X618111Y976451D02*
X612734Y975382D01*
X608176Y972336D01*
X605130Y967778D01*
X604061Y962402D01*
X605130Y957025D01*
X608176Y952467D01*
X612734Y949422D01*
X618111Y948352D01*
X623487Y949422D01*
X628045Y952467D01*
X631091Y957025D01*
X632160Y962402D01*
X631091Y967778D01*
X628045Y972336D01*
X623487Y975382D01*
X618111Y976451D01*
D02*
G37*
G36*
X1260925Y918676D02*
X1255549Y917606D01*
X1250991Y914561D01*
X1247945Y910003D01*
X1246876Y904626D01*
X1247945Y899250D01*
X1250991Y894692D01*
X1255549Y891646D01*
X1260925Y890577D01*
X1266302Y891646D01*
X1270860Y894692D01*
X1273905Y899250D01*
X1274975Y904626D01*
X1273905Y910003D01*
X1270860Y914561D01*
X1266302Y917606D01*
X1260925Y918676D01*
D02*
G37*
G36*
X1207776D02*
X1202399Y917606D01*
X1197841Y914561D01*
X1194796Y910003D01*
X1193726Y904626D01*
X1194796Y899250D01*
X1197841Y894692D01*
X1202399Y891646D01*
X1207776Y890577D01*
X1213152Y891646D01*
X1217710Y894692D01*
X1220756Y899250D01*
X1221825Y904626D01*
X1220756Y910003D01*
X1217710Y914561D01*
X1213152Y917606D01*
X1207776Y918676D01*
D02*
G37*
G36*
X1049213Y917593D02*
X1043836Y916523D01*
X1039278Y913478D01*
X1036233Y908920D01*
X1035163Y903543D01*
X1036233Y898167D01*
X1039278Y893609D01*
X1043836Y890563D01*
X1049213Y889494D01*
X1054589Y890563D01*
X1059147Y893609D01*
X1062193Y898167D01*
X1063262Y903543D01*
X1062193Y908920D01*
X1059147Y913478D01*
X1054589Y916523D01*
X1049213Y917593D01*
D02*
G37*
G36*
X3125000Y840821D02*
X3119624Y839752D01*
X3115066Y836706D01*
X3112020Y832148D01*
X3110950Y826772D01*
X3112020Y821395D01*
X3115066Y816837D01*
X3119624Y813792D01*
X3125000Y812722D01*
X3130376Y813792D01*
X3134934Y816837D01*
X3137980Y821395D01*
X3139050Y826772D01*
X3137980Y832148D01*
X3134934Y836706D01*
X3130376Y839752D01*
X3125000Y840821D01*
D02*
G37*
G36*
X2142520Y819168D02*
X2137143Y818098D01*
X2132585Y815053D01*
X2129540Y810495D01*
X2128470Y805118D01*
X2129540Y799742D01*
X2132585Y795184D01*
X2137143Y792138D01*
X2142520Y791069D01*
X2147896Y792138D01*
X2152454Y795184D01*
X2155500Y799742D01*
X2156569Y805118D01*
X2155500Y810495D01*
X2152454Y815053D01*
X2147896Y818098D01*
X2142520Y819168D01*
D02*
G37*
G36*
X3086614Y810860D02*
X3081238Y809791D01*
X3076680Y806745D01*
X3073634Y802187D01*
X3072565Y796811D01*
X3073634Y791434D01*
X3076680Y786876D01*
X3081238Y783831D01*
X3086614Y782761D01*
X3091991Y783831D01*
X3096549Y786876D01*
X3099594Y791434D01*
X3100664Y796811D01*
X3099594Y802187D01*
X3096549Y806745D01*
X3091991Y809791D01*
X3086614Y810860D01*
D02*
G37*
G36*
X3154528Y801451D02*
X3149151Y800382D01*
X3144593Y797336D01*
X3141548Y792778D01*
X3140478Y787402D01*
X3141548Y782025D01*
X3144593Y777467D01*
X3149151Y774422D01*
X3154528Y773352D01*
X3159904Y774422D01*
X3164462Y777467D01*
X3167508Y782025D01*
X3168577Y787402D01*
X3167508Y792778D01*
X3164462Y797336D01*
X3159904Y800382D01*
X3154528Y801451D01*
D02*
G37*
G36*
X2041339Y784128D02*
X2035962Y783059D01*
X2031404Y780013D01*
X2028359Y775455D01*
X2027289Y770079D01*
X2028359Y764702D01*
X2031404Y760144D01*
X2035962Y757099D01*
X2041339Y756029D01*
X2046715Y757099D01*
X2051273Y760144D01*
X2054319Y764702D01*
X2055388Y770079D01*
X2054319Y775455D01*
X2051273Y780013D01*
X2046715Y783059D01*
X2041339Y784128D01*
D02*
G37*
G36*
X661417Y763065D02*
X656041Y761996D01*
X651483Y758950D01*
X648437Y754392D01*
X647368Y749016D01*
X648437Y743639D01*
X651483Y739081D01*
X656041Y736036D01*
X661417Y734966D01*
X666794Y736036D01*
X671352Y739081D01*
X674397Y743639D01*
X675467Y749016D01*
X674397Y754392D01*
X671352Y758950D01*
X666794Y761996D01*
X661417Y763065D01*
D02*
G37*
G36*
Y726451D02*
X656041Y725382D01*
X651483Y722336D01*
X648437Y717778D01*
X647368Y712402D01*
X648437Y707025D01*
X651483Y702467D01*
X656041Y699422D01*
X661417Y698352D01*
X666794Y699422D01*
X671352Y702467D01*
X674397Y707025D01*
X675467Y712402D01*
X674397Y717778D01*
X671352Y722336D01*
X666794Y725382D01*
X661417Y726451D01*
D02*
G37*
G36*
X984252Y703026D02*
X978875Y701956D01*
X974317Y698911D01*
X971272Y694353D01*
X970202Y688976D01*
X971272Y683600D01*
X974317Y679042D01*
X978875Y675996D01*
X984252Y674927D01*
X989629Y675996D01*
X994187Y679042D01*
X997232Y683600D01*
X998302Y688976D01*
X997232Y694353D01*
X994187Y698911D01*
X989629Y701956D01*
X984252Y703026D01*
D02*
G37*
G36*
X661417Y676451D02*
X656041Y675382D01*
X651483Y672336D01*
X648437Y667778D01*
X647368Y662402D01*
X648437Y657025D01*
X651483Y652467D01*
X656041Y649422D01*
X661417Y648352D01*
X666794Y649422D01*
X671352Y652467D01*
X674397Y657025D01*
X675467Y662402D01*
X674397Y667778D01*
X671352Y672336D01*
X666794Y675382D01*
X661417Y676451D01*
D02*
G37*
G36*
X2834646Y653223D02*
X2829269Y652153D01*
X2824711Y649108D01*
X2821666Y644550D01*
X2820596Y639173D01*
X2821666Y633797D01*
X2824711Y629239D01*
X2829269Y626193D01*
X2834646Y625124D01*
X2840022Y626193D01*
X2844580Y629239D01*
X2847626Y633797D01*
X2848695Y639173D01*
X2847626Y644550D01*
X2844580Y649108D01*
X2840022Y652153D01*
X2834646Y653223D01*
D02*
G37*
G36*
X661417Y626451D02*
X656041Y625382D01*
X651483Y622336D01*
X648437Y617778D01*
X647368Y612402D01*
X648437Y607025D01*
X651483Y602467D01*
X656041Y599422D01*
X661417Y598352D01*
X666794Y599422D01*
X671352Y602467D01*
X674397Y607025D01*
X675467Y612402D01*
X674397Y617778D01*
X671352Y622336D01*
X666794Y625382D01*
X661417Y626451D01*
D02*
G37*
G36*
Y576451D02*
X656041Y575382D01*
X651483Y572336D01*
X648437Y567778D01*
X647368Y562402D01*
X648437Y557025D01*
X651483Y552467D01*
X656041Y549422D01*
X661417Y548352D01*
X666794Y549422D01*
X671352Y552467D01*
X674397Y557025D01*
X675467Y562402D01*
X674397Y567778D01*
X671352Y572336D01*
X666794Y575382D01*
X661417Y576451D01*
D02*
G37*
G36*
X1635787Y422514D02*
X1630411Y421445D01*
X1625853Y418399D01*
X1622807Y413841D01*
X1621738Y408464D01*
X1622807Y403088D01*
X1625853Y398530D01*
X1630411Y395485D01*
X1635787Y394415D01*
X1641164Y395485D01*
X1645722Y398530D01*
X1648767Y403088D01*
X1649837Y408464D01*
X1648767Y413841D01*
X1645722Y418399D01*
X1641164Y421445D01*
X1635787Y422514D01*
D02*
G37*
G36*
X2255905Y405782D02*
X2250529Y404712D01*
X2245971Y401667D01*
X2242925Y397109D01*
X2241856Y391732D01*
X2242925Y386356D01*
X2245971Y381798D01*
X2250529Y378752D01*
X2255905Y377683D01*
X2261282Y378752D01*
X2265840Y381798D01*
X2268885Y386356D01*
X2269955Y391732D01*
X2268885Y397109D01*
X2265840Y401667D01*
X2261282Y404712D01*
X2255905Y405782D01*
D02*
G37*
G36*
X1674213Y397908D02*
X1668836Y396838D01*
X1664278Y393793D01*
X1661233Y389235D01*
X1660163Y383858D01*
X1661233Y378482D01*
X1664278Y373924D01*
X1668836Y370878D01*
X1674213Y369809D01*
X1679589Y370878D01*
X1684147Y373924D01*
X1687193Y378482D01*
X1688262Y383858D01*
X1687193Y389235D01*
X1684147Y393793D01*
X1679589Y396838D01*
X1674213Y397908D01*
D02*
G37*
G36*
X881890Y289640D02*
X876513Y288570D01*
X871955Y285525D01*
X868910Y280967D01*
X867840Y275591D01*
X868910Y270214D01*
X871955Y265656D01*
X876513Y262611D01*
X881890Y261541D01*
X887266Y262611D01*
X891824Y265656D01*
X894870Y270214D01*
X895939Y275591D01*
X894870Y280967D01*
X891824Y285525D01*
X887266Y288570D01*
X881890Y289640D01*
D02*
G37*
G36*
X480315Y176451D02*
X474939Y175382D01*
X470381Y172336D01*
X467335Y167778D01*
X466266Y162402D01*
X467335Y157025D01*
X470381Y152467D01*
X474939Y149422D01*
X480315Y148352D01*
X485692Y149422D01*
X490250Y152467D01*
X493295Y157025D01*
X494365Y162402D01*
X493295Y167778D01*
X490250Y172336D01*
X485692Y175382D01*
X480315Y176451D01*
D02*
G37*
G36*
X511811Y126451D02*
X506435Y125382D01*
X501877Y122336D01*
X498831Y117778D01*
X497762Y112402D01*
X498831Y107025D01*
X501877Y102467D01*
X506435Y99422D01*
X511811Y98352D01*
X517188Y99422D01*
X521745Y102467D01*
X524791Y107025D01*
X525861Y112402D01*
X524791Y117778D01*
X521745Y122336D01*
X517188Y125382D01*
X511811Y126451D01*
D02*
G37*
G36*
X1959547Y124286D02*
X1954171Y123216D01*
X1949613Y120171D01*
X1946567Y115613D01*
X1945498Y110236D01*
X1946567Y104860D01*
X1949613Y100302D01*
X1954171Y97256D01*
X1959547Y96187D01*
X1964924Y97256D01*
X1969482Y100302D01*
X1972527Y104860D01*
X1973597Y110236D01*
X1972527Y115613D01*
X1969482Y120171D01*
X1964924Y123216D01*
X1959547Y124286D01*
D02*
G37*
G36*
X1318898Y73065D02*
X1313521Y71996D01*
X1308963Y68950D01*
X1305918Y64392D01*
X1304848Y59016D01*
X1305918Y53639D01*
X1308963Y49081D01*
X1313521Y46036D01*
X1318898Y44966D01*
X1324274Y46036D01*
X1328832Y49081D01*
X1331878Y53639D01*
X1332947Y59016D01*
X1331878Y64392D01*
X1328832Y68950D01*
X1324274Y71996D01*
X1318898Y73065D01*
D02*
G37*
%LPD*%
G36*
X2642577Y1355512D02*
X2641977Y1356073D01*
X2641335Y1356575D01*
X2640651Y1357018D01*
X2639924Y1357402D01*
X2639156Y1357726D01*
X2638345Y1357992D01*
X2637492Y1358199D01*
X2636597Y1358347D01*
X2635659Y1358435D01*
X2634680Y1358465D01*
Y1366339D01*
X2635659Y1366368D01*
X2636597Y1366457D01*
X2637492Y1366604D01*
X2638345Y1366811D01*
X2639156Y1367077D01*
X2639924Y1367402D01*
X2640651Y1367785D01*
X2641335Y1368228D01*
X2641977Y1368730D01*
X2642577Y1369291D01*
Y1355512D01*
D02*
G37*
G36*
X2552026Y1205512D02*
X2551426Y1206073D01*
X2550784Y1206575D01*
X2550100Y1207018D01*
X2549373Y1207402D01*
X2548605Y1207726D01*
X2547794Y1207992D01*
X2546941Y1208199D01*
X2546046Y1208347D01*
X2545108Y1208435D01*
X2544129Y1208465D01*
Y1216339D01*
X2545108Y1216368D01*
X2546046Y1216457D01*
X2546941Y1216604D01*
X2547794Y1216811D01*
X2548605Y1217077D01*
X2549373Y1217402D01*
X2550100Y1217785D01*
X2550784Y1218228D01*
X2551426Y1218730D01*
X2552026Y1219291D01*
Y1205512D01*
D02*
G37*
G36*
X1307144Y1125000D02*
X1306544Y1125561D01*
X1305902Y1126063D01*
X1305218Y1126506D01*
X1304491Y1126890D01*
X1303723Y1127215D01*
X1302912Y1127480D01*
X1302059Y1127687D01*
X1301164Y1127835D01*
X1300226Y1127923D01*
X1299247Y1127953D01*
Y1135827D01*
X1300226Y1135856D01*
X1301164Y1135945D01*
X1302059Y1136092D01*
X1302912Y1136299D01*
X1303723Y1136565D01*
X1304491Y1136890D01*
X1305218Y1137274D01*
X1305902Y1137717D01*
X1306544Y1138218D01*
X1307144Y1138780D01*
Y1125000D01*
D02*
G37*
G36*
X1324043Y1130970D02*
X1324142Y1130161D01*
X1324312Y1129364D01*
X1324555Y1128579D01*
X1324869Y1127806D01*
X1325254Y1127045D01*
X1325711Y1126295D01*
X1326240Y1125558D01*
X1326840Y1124833D01*
X1327512Y1124119D01*
X1321944Y1118551D01*
X1321230Y1119223D01*
X1320505Y1119823D01*
X1319767Y1120352D01*
X1319018Y1120809D01*
X1318257Y1121194D01*
X1317484Y1121508D01*
X1316699Y1121751D01*
X1315901Y1121921D01*
X1315093Y1122020D01*
X1314272Y1122048D01*
X1324015Y1131791D01*
X1324043Y1130970D01*
D02*
G37*
G36*
X1532039Y1108891D02*
X1532626Y1108347D01*
X1533263Y1107867D01*
X1533949Y1107451D01*
X1534686Y1107099D01*
X1535472Y1106811D01*
X1536307Y1106587D01*
X1537193Y1106427D01*
X1538128Y1106331D01*
X1539113Y1106299D01*
X1538248Y1098425D01*
X1537274Y1098399D01*
X1536335Y1098320D01*
X1535432Y1098188D01*
X1534566Y1098003D01*
X1533735Y1097766D01*
X1532941Y1097476D01*
X1532182Y1097133D01*
X1531460Y1096738D01*
X1530774Y1096289D01*
X1530124Y1095788D01*
X1531502Y1109499D01*
X1532039Y1108891D01*
D02*
G37*
G36*
X1673258Y1064144D02*
X1673347Y1063206D01*
X1673494Y1062311D01*
X1673701Y1061458D01*
X1673967Y1060647D01*
X1674291Y1059879D01*
X1674675Y1059152D01*
X1675118Y1058468D01*
X1675620Y1057826D01*
X1676181Y1057226D01*
X1662402D01*
X1662963Y1057826D01*
X1663465Y1058468D01*
X1663908Y1059152D01*
X1664291Y1059879D01*
X1664616Y1060647D01*
X1664882Y1061458D01*
X1665089Y1062311D01*
X1665236Y1063206D01*
X1665325Y1064144D01*
X1665354Y1065123D01*
X1673228D01*
X1673258Y1064144D01*
D02*
G37*
G36*
X1662234Y1037273D02*
X1662960Y1036673D01*
X1663697Y1036144D01*
X1664446Y1035687D01*
X1665208Y1035302D01*
X1665981Y1034988D01*
X1666766Y1034746D01*
X1667563Y1034575D01*
X1668372Y1034476D01*
X1669193Y1034448D01*
X1659449Y1024705D01*
X1659422Y1025526D01*
X1659323Y1026335D01*
X1659152Y1027132D01*
X1658910Y1027917D01*
X1658596Y1028690D01*
X1658211Y1029451D01*
X1657754Y1030201D01*
X1657225Y1030938D01*
X1656625Y1031664D01*
X1655953Y1032377D01*
X1661521Y1037945D01*
X1662234Y1037273D01*
D02*
G37*
G36*
X929163Y584813D02*
X929252Y583875D01*
X929400Y582980D01*
X929606Y582127D01*
X929872Y581317D01*
X930197Y580548D01*
X930581Y579821D01*
X931024Y579137D01*
X931526Y578495D01*
X932087Y577895D01*
X918307D01*
X918868Y578495D01*
X919370Y579137D01*
X919813Y579821D01*
X920197Y580548D01*
X920522Y581317D01*
X920788Y582127D01*
X920994Y582980D01*
X921142Y583875D01*
X921230Y584813D01*
X921260Y585792D01*
X929134D01*
X929163Y584813D01*
D02*
G37*
G36*
X938535Y552062D02*
X937864Y551348D01*
X937263Y550623D01*
X936735Y549886D01*
X936278Y549136D01*
X935892Y548375D01*
X935578Y547602D01*
X935336Y546817D01*
X935165Y546020D01*
X935066Y545211D01*
X935039Y544390D01*
X925295Y554133D01*
X926116Y554161D01*
X926925Y554260D01*
X927722Y554431D01*
X928507Y554673D01*
X929281Y554987D01*
X930042Y555372D01*
X930791Y555829D01*
X931529Y556358D01*
X932254Y556958D01*
X932967Y557630D01*
X938535Y552062D01*
D02*
G37*
G36*
X1067352Y441190D02*
X1066850Y440548D01*
X1066407Y439864D01*
X1066024Y439137D01*
X1065699Y438368D01*
X1065433Y437558D01*
X1065226Y436705D01*
X1065079Y435810D01*
X1064990Y434872D01*
X1064961Y433893D01*
X1057087D01*
X1057057Y434872D01*
X1056968Y435810D01*
X1056821Y436705D01*
X1056614Y437558D01*
X1056348Y438368D01*
X1056024Y439137D01*
X1055640Y439864D01*
X1055197Y440548D01*
X1054695Y441190D01*
X1054134Y441790D01*
X1067913D01*
X1067352Y441190D01*
D02*
G37*
G36*
X1106132Y1039577D02*
X1106221Y1038639D01*
X1106368Y1037744D01*
X1106575Y1036891D01*
X1106841Y1036080D01*
X1107166Y1035312D01*
X1107549Y1034585D01*
X1107992Y1033901D01*
X1108494Y1033259D01*
X1109055Y1032659D01*
X1095276D01*
X1095837Y1033259D01*
X1096339Y1033901D01*
X1096782Y1034585D01*
X1097166Y1035312D01*
X1097490Y1036080D01*
X1097756Y1036891D01*
X1097963Y1037744D01*
X1098110Y1038639D01*
X1098199Y1039577D01*
X1098228Y1040556D01*
X1106102D01*
X1106132Y1039577D01*
D02*
G37*
G36*
X1281723Y1018001D02*
X1281221Y1017359D01*
X1280778Y1016675D01*
X1280394Y1015948D01*
X1280069Y1015179D01*
X1279803Y1014369D01*
X1279597Y1013516D01*
X1279449Y1012620D01*
X1279360Y1011683D01*
X1279331Y1010704D01*
X1271457D01*
X1271427Y1011683D01*
X1271339Y1012620D01*
X1271191Y1013516D01*
X1270984Y1014369D01*
X1270719Y1015179D01*
X1270394Y1015948D01*
X1270010Y1016675D01*
X1269567Y1017359D01*
X1269065Y1018001D01*
X1268504Y1018601D01*
X1282284D01*
X1281723Y1018001D01*
D02*
G37*
G36*
X1872470Y754182D02*
X1871969Y753540D01*
X1871526Y752856D01*
X1871142Y752129D01*
X1870817Y751361D01*
X1870551Y750550D01*
X1870344Y749697D01*
X1870197Y748802D01*
X1870108Y747864D01*
X1870079Y746885D01*
X1862205D01*
X1862175Y747864D01*
X1862087Y748802D01*
X1861939Y749697D01*
X1861732Y750550D01*
X1861467Y751361D01*
X1861142Y752129D01*
X1860758Y752856D01*
X1860315Y753540D01*
X1859813Y754182D01*
X1859252Y754782D01*
X1873032D01*
X1872470Y754182D01*
D02*
G37*
G36*
X1802026Y517717D02*
X1801426Y518278D01*
X1800784Y518779D01*
X1800100Y519222D01*
X1799373Y519606D01*
X1798605Y519931D01*
X1797794Y520197D01*
X1796941Y520404D01*
X1796046Y520551D01*
X1795108Y520640D01*
X1794129Y520669D01*
Y528543D01*
X1795108Y528573D01*
X1796046Y528661D01*
X1796941Y528809D01*
X1797794Y529016D01*
X1798605Y529282D01*
X1799373Y529606D01*
X1800100Y529990D01*
X1800784Y530433D01*
X1801426Y530935D01*
X1802026Y531496D01*
Y517717D01*
D02*
G37*
G36*
X1797667Y437647D02*
X1797165Y437005D01*
X1796722Y436320D01*
X1796339Y435594D01*
X1796014Y434825D01*
X1795748Y434014D01*
X1795541Y433161D01*
X1795394Y432266D01*
X1795305Y431329D01*
X1795276Y430349D01*
X1787402D01*
X1787372Y431329D01*
X1787284Y432266D01*
X1787136Y433161D01*
X1786929Y434014D01*
X1786663Y434825D01*
X1786339Y435594D01*
X1785955Y436320D01*
X1785512Y437005D01*
X1785010Y437647D01*
X1784449Y438247D01*
X1798228D01*
X1797667Y437647D01*
D02*
G37*
G36*
X1773651Y422411D02*
X1773740Y421474D01*
X1773888Y420579D01*
X1774094Y419726D01*
X1774360Y418915D01*
X1774685Y418146D01*
X1775069Y417420D01*
X1775512Y416736D01*
X1776014Y416093D01*
X1776575Y415493D01*
X1762795D01*
X1763356Y416093D01*
X1763858Y416736D01*
X1764301Y417420D01*
X1764685Y418146D01*
X1765010Y418915D01*
X1765276Y419726D01*
X1765482Y420579D01*
X1765630Y421474D01*
X1765718Y422411D01*
X1765748Y423391D01*
X1773622D01*
X1773651Y422411D01*
D02*
G37*
G36*
X2117865Y399045D02*
X2118507Y398543D01*
X2119192Y398100D01*
X2119918Y397716D01*
X2120687Y397392D01*
X2121497Y397126D01*
X2122351Y396919D01*
X2123246Y396772D01*
X2124183Y396683D01*
X2125163Y396654D01*
Y388779D01*
X2124183Y388750D01*
X2123246Y388661D01*
X2122351Y388514D01*
X2121497Y388307D01*
X2120687Y388041D01*
X2119918Y387716D01*
X2119192Y387333D01*
X2118507Y386890D01*
X2117865Y386388D01*
X2117265Y385827D01*
Y399606D01*
X2117865Y399045D01*
D02*
G37*
G36*
X2103207Y385827D02*
X2102607Y386388D01*
X2101965Y386890D01*
X2101281Y387333D01*
X2100555Y387716D01*
X2099786Y388041D01*
X2098975Y388307D01*
X2098122Y388514D01*
X2097227Y388661D01*
X2096289Y388750D01*
X2095310Y388779D01*
Y396654D01*
X2096289Y396683D01*
X2097227Y396772D01*
X2098122Y396919D01*
X2098975Y397126D01*
X2099786Y397392D01*
X2100555Y397716D01*
X2101281Y398100D01*
X2101965Y398543D01*
X2102607Y399045D01*
X2103207Y399606D01*
Y385827D01*
D02*
G37*
G36*
X2138640Y332087D02*
X2138040Y332648D01*
X2137398Y333150D01*
X2136714Y333593D01*
X2135987Y333976D01*
X2135219Y334301D01*
X2134408Y334567D01*
X2133555Y334774D01*
X2132660Y334921D01*
X2131722Y335010D01*
X2130743Y335039D01*
Y342913D01*
X2131722Y342943D01*
X2132660Y343031D01*
X2133555Y343179D01*
X2134408Y343386D01*
X2135219Y343652D01*
X2135987Y343976D01*
X2136714Y344360D01*
X2137398Y344803D01*
X2138040Y345305D01*
X2138640Y345866D01*
Y332087D01*
D02*
G37*
G36*
X2067774D02*
X2067174Y332648D01*
X2066532Y333150D01*
X2065848Y333593D01*
X2065121Y333976D01*
X2064352Y334301D01*
X2063542Y334567D01*
X2062689Y334774D01*
X2061794Y334921D01*
X2060856Y335010D01*
X2059877Y335039D01*
Y342913D01*
X2060856Y342943D01*
X2061794Y343031D01*
X2062689Y343179D01*
X2063542Y343386D01*
X2064352Y343652D01*
X2065121Y343976D01*
X2065848Y344360D01*
X2066532Y344803D01*
X2067174Y345305D01*
X2067774Y345866D01*
Y332087D01*
D02*
G37*
G36*
X1996908D02*
X1996308Y332648D01*
X1995666Y333150D01*
X1994982Y333593D01*
X1994255Y333976D01*
X1993486Y334301D01*
X1992676Y334567D01*
X1991823Y334774D01*
X1990927Y334921D01*
X1989990Y335010D01*
X1989011Y335039D01*
Y342913D01*
X1989990Y342943D01*
X1990927Y343031D01*
X1991823Y343179D01*
X1992676Y343386D01*
X1993486Y343652D01*
X1994255Y343976D01*
X1994982Y344360D01*
X1995666Y344803D01*
X1996308Y345305D01*
X1996908Y345866D01*
Y332087D01*
D02*
G37*
G36*
X1940700Y345305D02*
X1941342Y344803D01*
X1942026Y344360D01*
X1942753Y343976D01*
X1943521Y343652D01*
X1944332Y343386D01*
X1945185Y343179D01*
X1946080Y343031D01*
X1947017Y342943D01*
X1947997Y342913D01*
Y335039D01*
X1947017Y335010D01*
X1946080Y334921D01*
X1945185Y334774D01*
X1944332Y334567D01*
X1943521Y334301D01*
X1942753Y333976D01*
X1942026Y333593D01*
X1941342Y333150D01*
X1940700Y332648D01*
X1940100Y332087D01*
Y345866D01*
X1940700Y345305D01*
D02*
G37*
G36*
X1888796Y156119D02*
X1888885Y155182D01*
X1889032Y154286D01*
X1889239Y153433D01*
X1889505Y152623D01*
X1889830Y151854D01*
X1890213Y151127D01*
X1890656Y150443D01*
X1891158Y149801D01*
X1891719Y149201D01*
X1877940D01*
X1878501Y149801D01*
X1879003Y150443D01*
X1879446Y151127D01*
X1879830Y151854D01*
X1880154Y152623D01*
X1880420Y153433D01*
X1880627Y154286D01*
X1880774Y155182D01*
X1880863Y156119D01*
X1880893Y157099D01*
X1888767D01*
X1888796Y156119D01*
D02*
G37*
G36*
X1854360Y139695D02*
X1854449Y138757D01*
X1854596Y137862D01*
X1854803Y137009D01*
X1855069Y136198D01*
X1855394Y135430D01*
X1855777Y134703D01*
X1856220Y134019D01*
X1856722Y133377D01*
X1857283Y132777D01*
X1843504D01*
X1844065Y133377D01*
X1844567Y134019D01*
X1845010Y134703D01*
X1845394Y135430D01*
X1845718Y136198D01*
X1845984Y137009D01*
X1846191Y137862D01*
X1846339Y138757D01*
X1846427Y139695D01*
X1846457Y140674D01*
X1854331D01*
X1854360Y139695D01*
D02*
G37*
G36*
X1700038Y131887D02*
X1700715Y131425D01*
X1701429Y131017D01*
X1702181Y130664D01*
X1702970Y130365D01*
X1703796Y130120D01*
X1704660Y129930D01*
X1705561Y129794D01*
X1706499Y129712D01*
X1707475Y129685D01*
X1708130Y121811D01*
X1707147Y121779D01*
X1706211Y121685D01*
X1705323Y121528D01*
X1704483Y121308D01*
X1703690Y121024D01*
X1702946Y120678D01*
X1702249Y120269D01*
X1701600Y119797D01*
X1700999Y119262D01*
X1700446Y118664D01*
X1699398Y132404D01*
X1700038Y131887D01*
D02*
G37*
G36*
X1621298D02*
X1621975Y131425D01*
X1622689Y131017D01*
X1623440Y130664D01*
X1624229Y130365D01*
X1625056Y130120D01*
X1625919Y129930D01*
X1626821Y129794D01*
X1627759Y129712D01*
X1628735Y129685D01*
X1629390Y121811D01*
X1628407Y121779D01*
X1627471Y121685D01*
X1626583Y121528D01*
X1625742Y121308D01*
X1624950Y121024D01*
X1624205Y120678D01*
X1623509Y120269D01*
X1622860Y119797D01*
X1622259Y119262D01*
X1621705Y118664D01*
X1620658Y132404D01*
X1621298Y131887D01*
D02*
G37*
G36*
X1781252Y121811D02*
X1780226Y121779D01*
X1779302Y121683D01*
X1778478Y121522D01*
X1777756Y121298D01*
X1777134Y121009D01*
X1776613Y120656D01*
X1776193Y120239D01*
X1775873Y119757D01*
X1775655Y119212D01*
X1775537Y118602D01*
X1767940Y129226D01*
X1779364Y129685D01*
X1781252Y121811D01*
D02*
G37*
G36*
X1590581Y104498D02*
X1590669Y103560D01*
X1590817Y102665D01*
X1591024Y101812D01*
X1591289Y101001D01*
X1591614Y100233D01*
X1591998Y99506D01*
X1592441Y98822D01*
X1592943Y98180D01*
X1593504Y97580D01*
X1579724D01*
X1580285Y98180D01*
X1580787Y98822D01*
X1581230Y99506D01*
X1581614Y100233D01*
X1581939Y101001D01*
X1582205Y101812D01*
X1582411Y102665D01*
X1582559Y103560D01*
X1582648Y104498D01*
X1582677Y105477D01*
X1590551D01*
X1590581Y104498D01*
D02*
G37*
D33*
X452756Y-18701D02*
X2352362D01*
X2439960Y68897D01*
X393470Y40585D02*
X452756Y-18701D01*
X392717Y40585D02*
Y61648D01*
Y62402D02*
Y304189D01*
X177165Y1533465D02*
X257874Y1614173D01*
X1377953D01*
X266028Y1594488D02*
X1336616D01*
X1356301Y1574803D02*
X1377953D01*
X1336616Y1594488D02*
X1356301Y1574803D01*
X202756Y1531216D02*
X266028Y1594488D01*
X2649606Y1462402D02*
X2701264D01*
X707677Y984D02*
X2344209D01*
X629921Y78740D02*
X707677Y984D01*
X2344209D02*
X2482004Y138780D01*
X2843227Y1511648D02*
X2843250Y1511671D01*
X2814798Y1511648D02*
X2843227D01*
X2795276Y1492126D02*
X2814798Y1511648D01*
X2795276Y782480D02*
Y1492126D01*
X2775591Y774327D02*
Y1388075D01*
X2823181Y698898D02*
X3063976D01*
X2775591Y774327D02*
X2828461Y721457D01*
X2755906Y766173D02*
Y1379921D01*
X2795276Y782480D02*
X2836614Y741142D01*
X2828461Y721457D02*
X3097721D01*
X2755906Y766173D02*
X2823181Y698898D01*
X2836614Y741142D02*
X3106299D01*
X2723425Y1412402D02*
X2755906Y1379921D01*
X2730595Y1433071D02*
X2775591Y1388075D01*
X3106299Y741142D02*
X3174213Y673228D01*
X3097721Y721457D02*
X3154528Y664650D01*
X3174213Y230315D02*
Y673228D01*
X3064729Y698144D02*
X3093194D01*
X3134843Y656496D01*
Y246622D02*
Y656496D01*
X3154528Y238469D02*
Y664650D01*
X3063976Y698898D02*
X3064729Y698144D01*
X3028264Y112205D02*
X3154528Y238469D01*
X3020110Y131890D02*
X3134843Y246622D01*
X3012795Y68898D02*
X3174213Y230315D01*
X2971457Y131890D02*
X3020110D01*
X2952953Y112205D02*
X3028264D01*
X2665743Y68898D02*
X3012795D01*
X2482004Y138780D02*
X2615157D01*
X2439960Y68897D02*
X2663924D01*
X393701Y1091535D02*
Y1460630D01*
X445473Y1512402D02*
X610236D01*
X393701Y1460630D02*
X445473Y1512402D01*
X629921Y78740D02*
Y212402D01*
X177918Y1413155D02*
Y1426934D01*
X177165Y1412402D02*
X177918Y1413155D01*
X177165Y1462402D02*
Y1533465D01*
X202756Y1451772D02*
Y1531216D01*
X2842520Y1512402D02*
X2843250Y1511671D01*
X2649606Y1412402D02*
X2723425D01*
X2701264Y1462402D02*
X2730594Y1433071D01*
X2730595D01*
X177918Y1426934D02*
X202756Y1451772D01*
X2638780Y162402D02*
X2669291D01*
X2615157Y138780D02*
X2638780Y162402D01*
X2952756Y112402D02*
X2952953Y112205D01*
X2952756Y162402D02*
X2953509Y161649D01*
Y149837D02*
Y161649D01*
Y149837D02*
X2971457Y131890D01*
X392717Y1091535D02*
X393209Y1091043D01*
X393701Y1091535D01*
X393209Y304681D02*
Y1091043D01*
D34*
X1351746Y1557087D02*
X1511812D01*
X1528150Y1540748D02*
X1563406D01*
X1511812Y1557087D02*
X1528150Y1540748D01*
X272551Y1578740D02*
X1330092D01*
X1351746Y1557087D01*
X218504Y1524693D02*
X272551Y1578740D01*
X2566929Y1247047D02*
Y1344488D01*
X1841564Y1225394D02*
X2545276D01*
X2566929Y1247047D01*
X2584843Y1362402D02*
X2649606D01*
X2566929Y1344488D02*
X2584843Y1362402D01*
X1845276Y1212402D02*
X2559055D01*
X1354331Y380906D02*
Y455709D01*
Y380906D02*
X1450787Y284449D01*
X1397638Y75787D02*
Y161417D01*
X795893Y16732D02*
X1338583D01*
X1397638Y75787D01*
X1450787Y87599D02*
Y284449D01*
X1476436Y28543D02*
X2332794D01*
X1427165Y77814D02*
Y274664D01*
X1438976Y82707D02*
Y279557D01*
X1481328Y40354D02*
X2327901D01*
X2332794Y28543D02*
X2626130Y321880D01*
X2327901Y40354D02*
X2629082Y341535D01*
X1450787Y87599D02*
X1486221Y52165D01*
X1438976Y82707D02*
X1481328Y40354D01*
X1415354Y72922D02*
X1471544Y16732D01*
X2337686D02*
X2631022Y310068D01*
X1427165Y77814D02*
X1476436Y28543D01*
X1471544Y16732D02*
X2337686D01*
X1486221Y52165D02*
X2323009D01*
X1415354Y72922D02*
Y269772D01*
X1334646Y383887D02*
X1438976Y279557D01*
X1314961Y386869D02*
X1427165Y274664D01*
X1295276Y389851D02*
X1415354Y269772D01*
X728346Y84279D02*
X795893Y16732D01*
X2340842Y136811D02*
X2522638Y318607D01*
X2626130Y321880D02*
X2676210D01*
X2324731Y110163D02*
X2347601D01*
X2546260Y308823D02*
Y447864D01*
X2299213Y136811D02*
X2340842D01*
X2534449Y313715D02*
Y452756D01*
X2522638Y318607D02*
Y457648D01*
X2624190Y353346D02*
X2697806D01*
X2312456Y125000D02*
X2345734D01*
X2347601Y110163D02*
X2546260Y308823D01*
X2629082Y341535D02*
X2692913D01*
X2631022Y310068D02*
X2649577D01*
X2334937Y92811D02*
X2346951D01*
X2323009Y52165D02*
X2624190Y353346D01*
X2346951Y92811D02*
X2558071Y303930D01*
Y424213D01*
X2345734Y125000D02*
X2534449Y313715D01*
X177165Y162402D02*
Y1382874D01*
X218504Y1424213D02*
Y1524693D01*
X177165Y1382874D02*
X218504Y1424213D01*
X1820866Y72835D02*
Y90551D01*
X1829724Y63976D02*
X2226378D01*
X1820866Y72835D02*
X1829724Y63976D01*
X2226378D02*
X2299213Y136811D01*
X1793336Y168307D02*
X1847441Y222412D01*
X1791339Y410433D02*
X1847441Y354331D01*
Y222412D02*
Y354331D01*
X1791339Y410433D02*
Y445276D01*
X1314173Y1131890D02*
X1348622Y1097441D01*
X1490157D01*
X1007874Y1131890D02*
X1314173D01*
X1737234Y1121063D02*
X1841564Y1225394D01*
X1735236Y1102362D02*
X1845276Y1212402D01*
X1524803Y1102362D02*
X1735236D01*
X1490157Y1097441D02*
X1513780Y1121063D01*
X1737234D01*
X1523819Y1103346D02*
X1524803Y1102362D01*
X1866142Y740158D02*
Y761811D01*
X1676659Y587092D02*
X1694882D01*
X1693661Y125748D02*
X1746811D01*
X1692913Y125000D02*
X1693661Y125748D01*
X955709Y361221D02*
X976378Y340551D01*
X1033465D01*
X1061024Y368110D02*
Y448819D01*
X1033465Y340551D02*
X1061024Y368110D01*
X948819Y600394D02*
X955709Y593504D01*
Y361221D02*
Y593504D01*
X943898Y562992D02*
Y585630D01*
X925197Y544291D02*
X943898Y562992D01*
X937008Y592520D02*
X943898Y585630D01*
X937008Y592520D02*
Y1044321D01*
X1013815Y487240D02*
X1047244Y520669D01*
X1013815Y472516D02*
Y487240D01*
X1013740Y472441D02*
X1013815Y472516D01*
X994094Y531496D02*
X1006890Y544291D01*
X948819Y600394D02*
Y1039428D01*
X1017658Y1108268D01*
X925197Y1049213D02*
X1007874Y1131890D01*
X1332677Y1085630D02*
X1654528D01*
X937008Y1044321D02*
X1012766Y1120079D01*
X1298228D02*
X1332677Y1085630D01*
X925197Y570866D02*
Y1049213D01*
X1012766Y1120079D02*
X1298228D01*
X1654528Y1085630D02*
X1669291Y1070867D01*
Y1050197D02*
Y1070867D01*
X1017658Y1108268D02*
X1292323D01*
X1326772Y1073819D01*
X1117126Y1064961D02*
X1276575D01*
X1297244Y1044291D01*
Y976349D02*
Y1044291D01*
X1102166Y1050000D02*
X1117126Y1064961D01*
X1326772Y1073819D02*
X1641732D01*
X1650591Y1064961D01*
Y1043307D02*
X1669291Y1024606D01*
X1650591Y1043307D02*
Y1064961D01*
X2570866Y437008D02*
X2572835D01*
X2657480Y248032D02*
X2677165Y228346D01*
X2332677Y90551D02*
X2334937Y92811D01*
X2278008Y90551D02*
X2312456Y125000D01*
X2612569Y514173D02*
X2712598D01*
X1765748Y119630D02*
X1771866Y125748D01*
X1501968Y422244D02*
Y441931D01*
X1480661Y463238D02*
Y485874D01*
Y463238D02*
X1501968Y441931D01*
X1469488Y497047D02*
X1480661Y485874D01*
X1329968Y497047D02*
X1469488D01*
X1314961Y485236D02*
X1318157D01*
X1329968Y497047D01*
X1275591Y485236D02*
Y500984D01*
X1283465Y508858D02*
X1491450D01*
X1275591Y500984D02*
X1283465Y508858D01*
X1501293Y499016D02*
X1501968D01*
X1491450Y508858D02*
X1501293Y499016D01*
X1665325Y939961D02*
X1749016Y856270D01*
X1737205Y541339D02*
Y851378D01*
X1328740Y928150D02*
X1660433D01*
X1737205Y851378D01*
X1333632Y939961D02*
X1665325D01*
X1749016Y548228D02*
Y856270D01*
X1769685Y408464D02*
Y508858D01*
X1737205Y541339D02*
X1769685Y508858D01*
X1749016Y548228D02*
X1772638Y524606D01*
X1809055D01*
X1704724Y605315D02*
X1713583Y596457D01*
X1685039Y506890D02*
X1713583Y535433D01*
Y596457D01*
X1297244Y976349D02*
X1333632Y939961D01*
X1102166Y1025630D02*
Y1050000D01*
X1275394Y981496D02*
X1328740Y928150D01*
X1275394Y981496D02*
Y1025630D01*
X1657480Y475394D02*
Y495079D01*
X1655512Y473425D02*
X1657480Y475394D01*
X1984252Y360236D02*
X2010827D01*
X2021653Y329695D02*
Y349409D01*
X2010827Y360236D02*
X2021653Y349409D01*
X1962992Y338976D02*
X1984252Y360236D01*
X1933071Y338976D02*
X1962992D01*
X2072806Y283465D02*
X2107255Y317913D01*
X1994036Y283465D02*
X2072806D01*
X1884830Y174258D02*
X1994036Y283465D01*
X1850394Y156525D02*
X1989144Y295276D01*
X1755964Y168307D02*
X1793336D01*
X1771866Y125748D02*
X1802913D01*
X1977362Y318898D02*
X2010856D01*
X1802913Y125748D02*
X1984252Y307087D01*
X1798228Y156496D02*
X1980709Y338976D01*
X1884830Y142172D02*
Y174258D01*
X1765748Y144685D02*
X1803150D01*
X1760856Y156496D02*
X1798228D01*
X1989144Y295276D02*
X2067914D01*
X1803150Y144685D02*
X1977362Y318898D01*
X1980709Y338976D02*
X2003937D01*
X1850394Y125748D02*
Y156525D01*
X1984252Y307087D02*
X2015748D01*
X2067914Y295276D02*
X2092520Y319882D01*
X2015748Y307087D02*
X2047638Y338976D01*
X2010856Y318898D02*
X2021653Y329695D01*
X2047638Y338976D02*
X2074803D01*
X1906467Y392716D02*
X2110236D01*
X1873003Y426181D02*
X1906467Y392716D01*
X1873002Y426181D02*
X1873003D01*
X2110236Y392716D02*
X2150591D01*
X1842520Y456664D02*
X1873002Y426181D01*
X1842520Y456664D02*
Y716535D01*
X1866142Y740158D01*
X1678642Y155512D02*
X1743168D01*
X1755964Y168307D01*
X1605315Y142716D02*
X1665847D01*
X1614921Y125748D02*
X1667087D01*
X1614173Y125000D02*
X1614921Y125748D01*
X1665847Y142716D02*
X1678642Y155512D01*
X1586614Y90551D02*
Y124016D01*
X1605315Y142716D01*
X728346Y84279D02*
Y281496D01*
X2154528Y317913D02*
X2171260Y334646D01*
X2107255Y317913D02*
X2154528D01*
X2111614Y338976D02*
X2145669D01*
X2092520Y319882D02*
X2111614Y338976D01*
X2092520Y319882D02*
Y319882D01*
X2150591Y392716D02*
X2171260Y372047D01*
Y334646D02*
Y372047D01*
X1013535Y512015D02*
X1013944D01*
X2657480Y248032D02*
Y302165D01*
X2649577Y310068D02*
X2657480Y302165D01*
X2305118Y90551D02*
X2324731Y110163D01*
X1314961Y386869D02*
Y455709D01*
X2676210Y321880D02*
X2677165Y322835D01*
Y259842D02*
X2696850D01*
X2677165Y291339D02*
X2692913D01*
X1334646Y383887D02*
Y431102D01*
X2692913Y291339D02*
X2703740Y302165D01*
X2692913Y341535D02*
X2703740Y330709D01*
Y302165D02*
Y330709D01*
X2696850Y259842D02*
X2715551Y278543D01*
X2697806Y353346D02*
X2715551Y335601D01*
Y278543D02*
Y335601D01*
X1295276Y389851D02*
Y431102D01*
X1673228Y600394D02*
X1678150Y605315D01*
X1704724D01*
X1617155Y544291D02*
X1673228Y600365D01*
Y600394D01*
X1034409Y532480D02*
X1622047D01*
X1676659Y587092D01*
X1006890Y544291D02*
X1617155D01*
X1642717Y520669D02*
X1646654Y524606D01*
X1675158D01*
X1047244Y520669D02*
X1642717D01*
X1669291Y506890D02*
X1685039D01*
X1657480Y495079D02*
X1669291Y506890D01*
X1013944Y512015D02*
X1034409Y532480D01*
X1685039Y143701D02*
X1748061D01*
X1760856Y156496D01*
X1667087Y125748D02*
X1685039Y143701D01*
X1746811Y125748D02*
X1765748Y144685D01*
X2608268Y526575D02*
X2672244D01*
X2695866Y550197D02*
X2712598D01*
X2672244Y526575D02*
X2695866Y550197D01*
X2667322Y538386D02*
X2712598Y583661D01*
X2603376Y538386D02*
X2667322D01*
X2712598Y583661D02*
X2712598D01*
X2522638Y457648D02*
X2603376Y538386D01*
X2546260Y447864D02*
X2612569Y514173D01*
X2558071Y424213D02*
X2570866Y437008D01*
X2534449Y452756D02*
X2608268Y526575D01*
D38*
X3031496Y-78740D02*
D03*
X3070866D02*
D03*
X2992126D02*
D03*
X2952756D02*
D03*
X2913386D02*
D03*
X2874016D02*
D03*
X2677166D02*
D03*
X2716536D02*
D03*
X2755906D02*
D03*
X2795276D02*
D03*
X2834646D02*
D03*
X2440946D02*
D03*
X2401576D02*
D03*
X2362206D02*
D03*
X2322836D02*
D03*
X2283466D02*
D03*
X2480316D02*
D03*
X2519686D02*
D03*
X2559056D02*
D03*
X2598426D02*
D03*
X2637796D02*
D03*
X2047246D02*
D03*
X2007876D02*
D03*
X1968506D02*
D03*
X1929136D02*
D03*
X1889766D02*
D03*
X2086616D02*
D03*
X2125986D02*
D03*
X2165356D02*
D03*
X2204726D02*
D03*
X2244096D02*
D03*
X1653546D02*
D03*
X1614176D02*
D03*
X1574806D02*
D03*
X1535436D02*
D03*
X1496066D02*
D03*
X1692916D02*
D03*
X1732286D02*
D03*
X1771656D02*
D03*
X1811026D02*
D03*
X1850396D02*
D03*
X1259846D02*
D03*
X1220476D02*
D03*
X1181106D02*
D03*
X1141736D02*
D03*
X1102366D02*
D03*
X1299216D02*
D03*
X1338586D02*
D03*
X1377956D02*
D03*
X1417326D02*
D03*
X1456696D02*
D03*
X866146D02*
D03*
X826776D02*
D03*
X787406D02*
D03*
X748036D02*
D03*
X708666D02*
D03*
X905516D02*
D03*
X944886D02*
D03*
X984256D02*
D03*
X1023626D02*
D03*
X1062996D02*
D03*
X472446D02*
D03*
X433076D02*
D03*
X393706D02*
D03*
X354336D02*
D03*
X314966D02*
D03*
X511816D02*
D03*
X551186D02*
D03*
X590556D02*
D03*
X629926D02*
D03*
X669296D02*
D03*
X78746D02*
D03*
X118116D02*
D03*
X157486D02*
D03*
X196856D02*
D03*
X236226D02*
D03*
X275596D02*
D03*
X2874010Y1653543D02*
D03*
X2913380D02*
D03*
X2952750D02*
D03*
X2992120D02*
D03*
X3031490D02*
D03*
X3070860D02*
D03*
X2480310D02*
D03*
X2519680D02*
D03*
X2559050D02*
D03*
X2598420D02*
D03*
X2637790D02*
D03*
X2834640D02*
D03*
X2795270D02*
D03*
X2755900D02*
D03*
X2716530D02*
D03*
X2677160D02*
D03*
X2086610D02*
D03*
X2125980D02*
D03*
X2165350D02*
D03*
X2204720D02*
D03*
X2244090D02*
D03*
X2440940D02*
D03*
X2401570D02*
D03*
X2362200D02*
D03*
X2322830D02*
D03*
X2283460D02*
D03*
X1692910D02*
D03*
X1732280D02*
D03*
X1771650D02*
D03*
X1811020D02*
D03*
X1850390D02*
D03*
X2047240D02*
D03*
X2007870D02*
D03*
X1968500D02*
D03*
X1929130D02*
D03*
X1889760D02*
D03*
X1299210D02*
D03*
X1338580D02*
D03*
X1377950D02*
D03*
X1417320D02*
D03*
X1456690D02*
D03*
X1653540D02*
D03*
X1614170D02*
D03*
X1574800D02*
D03*
X1535430D02*
D03*
X1496060D02*
D03*
X905510D02*
D03*
X944880D02*
D03*
X984250D02*
D03*
X1023620D02*
D03*
X1062990D02*
D03*
X1259840D02*
D03*
X1220470D02*
D03*
X1181100D02*
D03*
X1141730D02*
D03*
X1102360D02*
D03*
X511810D02*
D03*
X551180D02*
D03*
X590550D02*
D03*
X629920D02*
D03*
X669290D02*
D03*
X866140D02*
D03*
X826770D02*
D03*
X787400D02*
D03*
X748030D02*
D03*
X708660D02*
D03*
X314960D02*
D03*
X354330D02*
D03*
X393700D02*
D03*
X433070D02*
D03*
X472440D02*
D03*
X275590D02*
D03*
X236220D02*
D03*
X196850D02*
D03*
X157480D02*
D03*
X78740D02*
D03*
X118110D02*
D03*
X3228346Y1299213D02*
D03*
Y1259843D02*
D03*
Y1220473D02*
D03*
Y1181102D02*
D03*
Y1141732D02*
D03*
Y1102362D02*
D03*
Y1062992D02*
D03*
Y1023622D02*
D03*
Y984252D02*
D03*
Y944882D02*
D03*
Y905512D02*
D03*
Y866142D02*
D03*
Y826772D02*
D03*
Y787402D02*
D03*
Y748032D02*
D03*
Y708662D02*
D03*
Y669291D02*
D03*
Y629921D02*
D03*
Y590551D02*
D03*
Y551181D02*
D03*
Y78740D02*
D03*
Y118110D02*
D03*
Y157480D02*
D03*
Y196850D02*
D03*
Y236220D02*
D03*
Y275591D02*
D03*
Y314961D02*
D03*
Y354331D02*
D03*
Y393701D02*
D03*
Y433071D02*
D03*
Y472441D02*
D03*
Y511811D02*
D03*
Y1338583D02*
D03*
Y1377953D02*
D03*
Y1417323D02*
D03*
Y1456693D02*
D03*
Y1496063D02*
D03*
X-78740Y78740D02*
D03*
Y118110D02*
D03*
Y157480D02*
D03*
Y196850D02*
D03*
Y236220D02*
D03*
Y1062992D02*
D03*
Y1102362D02*
D03*
Y1141732D02*
D03*
Y1181102D02*
D03*
Y1220473D02*
D03*
Y1259842D02*
D03*
Y1299213D02*
D03*
Y1338583D02*
D03*
Y1377953D02*
D03*
Y1417323D02*
D03*
Y1456693D02*
D03*
Y1496063D02*
D03*
Y1023622D02*
D03*
Y984252D02*
D03*
Y944882D02*
D03*
Y905512D02*
D03*
Y866142D02*
D03*
Y826772D02*
D03*
Y787402D02*
D03*
Y748032D02*
D03*
Y708661D02*
D03*
Y669291D02*
D03*
Y629921D02*
D03*
Y590551D02*
D03*
Y551181D02*
D03*
Y511811D02*
D03*
Y472441D02*
D03*
Y433071D02*
D03*
Y393701D02*
D03*
Y354331D02*
D03*
Y314961D02*
D03*
Y275591D02*
D03*
X392717Y62402D02*
D03*
X1377953Y1574803D02*
D03*
Y1614173D02*
D03*
X2559055Y1212402D02*
D03*
X1354331Y455709D02*
D03*
X1299213Y134534D02*
D03*
X2486220Y106244D02*
D03*
X1397638Y161417D02*
D03*
X1318898Y59016D02*
D03*
X3063976Y698898D02*
D03*
X1141732Y116976D02*
D03*
X480315Y1462402D02*
D03*
X1959547Y213835D02*
D03*
X2649606Y1412402D02*
D03*
X177165Y162402D02*
D03*
X392717Y304189D02*
D03*
X2293280Y1037965D02*
D03*
X2856299Y1112402D02*
D03*
X2100394Y1477362D02*
D03*
X2139764D02*
D03*
X2179134D02*
D03*
X2218504D02*
D03*
X2257874D02*
D03*
X2297244D02*
D03*
X2336614D02*
D03*
Y1556102D02*
D03*
X2218504D02*
D03*
X2179134D02*
D03*
X2061023Y1477362D02*
D03*
Y1556102D02*
D03*
X708661Y259842D02*
D03*
X2041339Y770079D02*
D03*
X1003937Y665354D02*
D03*
X2142520Y805118D02*
D03*
X1523819Y1103346D02*
D03*
X2649606Y1362402D02*
D03*
X1434055Y1153543D02*
D03*
X1866142Y761811D02*
D03*
X1694882Y587092D02*
D03*
X2255905Y391732D02*
D03*
X1959547Y110236D02*
D03*
X2874016Y25591D02*
D03*
X3086614Y796811D02*
D03*
X1769685Y633858D02*
D03*
X984252Y688976D02*
D03*
X618111Y962402D02*
D03*
X1674213Y383858D02*
D03*
X1692913Y125000D02*
D03*
X1061024Y448819D02*
D03*
X994094Y452249D02*
D03*
Y413386D02*
D03*
Y492126D02*
D03*
Y531496D02*
D03*
X1314173Y1131890D02*
D03*
X1669291Y1050197D02*
D03*
X925197Y570866D02*
D03*
X1669291Y1024606D02*
D03*
X925197Y544291D02*
D03*
X661417Y749016D02*
D03*
X629921Y212402D02*
D03*
X2572835Y437008D02*
D03*
X2677165Y228346D02*
D03*
X2669291Y162402D02*
D03*
Y112402D02*
D03*
X1236220Y455709D02*
D03*
X2332677Y90551D02*
D03*
X2278008D02*
D03*
X2952756Y112402D02*
D03*
X2663924Y68897D02*
D03*
X2712598Y514173D02*
D03*
X1765748Y119630D02*
D03*
X2928150Y29528D02*
D03*
X2834646Y639173D02*
D03*
X1187992Y1026417D02*
D03*
X1501968Y473425D02*
D03*
X1275591Y485236D02*
D03*
X1314961D02*
D03*
X1058858Y1025630D02*
D03*
X1791339Y445276D02*
D03*
Y658858D02*
D03*
X1809055Y524606D02*
D03*
X1655512Y473425D02*
D03*
X2003937Y338976D02*
D03*
X1933071D02*
D03*
X1614173Y125000D02*
D03*
X1769685Y408464D02*
D03*
X1275394Y1025630D02*
D03*
X1145473D02*
D03*
X1102166D02*
D03*
X1617126Y1224213D02*
D03*
Y1274606D02*
D03*
X1669291Y999016D02*
D03*
Y973425D02*
D03*
X2110236Y392716D02*
D03*
X1635787Y408464D02*
D03*
X1501968Y422244D02*
D03*
Y499016D02*
D03*
X728346Y281496D02*
D03*
X661417Y712402D02*
D03*
Y662402D02*
D03*
Y612402D02*
D03*
Y562402D02*
D03*
X2952756Y162402D02*
D03*
X392717Y1091535D02*
D03*
X177165Y1462402D02*
D03*
X3154528Y787402D02*
D03*
X3125000Y826772D02*
D03*
X2649606Y1462402D02*
D03*
X433071Y944882D02*
D03*
X1633858Y658858D02*
D03*
X1465551Y601378D02*
D03*
X2145669Y338976D02*
D03*
X1012795Y433071D02*
D03*
X1013740Y472441D02*
D03*
X1013535Y512015D02*
D03*
X1013740Y393701D02*
D03*
X1586614Y90551D02*
D03*
X2305118D02*
D03*
X1820866D02*
D03*
X2677165Y259842D02*
D03*
X1275591Y455709D02*
D03*
X2842520Y1462402D02*
D03*
Y1512402D02*
D03*
X511811Y112402D02*
D03*
X480315Y162402D02*
D03*
X610236Y1512402D02*
D03*
X177165Y1412402D02*
D03*
X177165Y112402D02*
D03*
Y62402D02*
D03*
X1884830Y142172D02*
D03*
X1791339Y1101378D02*
D03*
X1663386Y1153543D02*
D03*
X1563406Y1540748D02*
D03*
X1433110Y393701D02*
D03*
X2856299Y1212402D02*
D03*
Y1012402D02*
D03*
Y1062402D02*
D03*
X1255906Y431102D02*
D03*
X2992736Y1312922D02*
D03*
Y1362922D02*
D03*
X2993256Y1163443D02*
D03*
X2856299Y1262402D02*
D03*
X2677165Y322835D02*
D03*
Y291339D02*
D03*
X1334646Y431102D02*
D03*
X1295276D02*
D03*
X1314961Y455709D02*
D03*
X881890Y275591D02*
D03*
X1675158Y524606D02*
D03*
X2074803Y338976D02*
D03*
X1850394Y125748D02*
D03*
X2712598Y550197D02*
D03*
Y583661D02*
D03*
X994095Y374016D02*
D03*
X2559055Y1112402D02*
D03*
X1964567Y1064961D02*
D03*
X1994094Y1099409D02*
D03*
Y1036417D02*
D03*
X1207776Y904626D02*
D03*
X1260925D02*
D03*
X1049213Y903543D02*
D03*
X2559055Y1162402D02*
D03*
D39*
X3149606Y1574803D02*
D03*
Y0D02*
D03*
X0Y1574803D02*
D03*
Y0D02*
D03*
%TF.MD5,74e764fbe7b72731752193d1d64a3462*%
M02*
