%TF.GenerationSoftware,Altium Limited,Altium Designer,20.0.13 (296)*%
G04 Layer_Color=16711935*
%FSLAX26Y26*%
%MOIN*%
%TF.FileFunction,Soldermask,Bot*%
%TF.Part,Single*%
G01*
G75*
%TA.AperFunction,ViaPad*%
%ADD36C,0.029528*%
%TA.AperFunction,NonConductor*%
%ADD65R,0.113860X0.033150*%
%ADD66R,3.150000X0.039370*%
%ADD67R,3.150000X0.039370*%
%ADD68R,0.039370X1.574803*%
%TA.AperFunction,SMDPad,CuDef*%
%ADD69R,0.040157X0.018504*%
%ADD70R,0.020472X0.051968*%
%ADD71R,0.051968X0.020472*%
%ADD72R,0.040157X0.012598*%
%ADD73R,0.012598X0.040157*%
%ADD74C,0.040157*%
%ADD75R,0.020472X0.032283*%
%ADD76R,0.032283X0.020472*%
%ADD77R,0.016535X0.016535*%
%ADD78R,0.016535X0.016535*%
%ADD79R,0.061811X0.024409*%
%ADD80R,0.113777X0.033067*%
%ADD81R,0.028346X0.020472*%
%ADD82R,0.166142X0.134646*%
%ADD83R,0.024409X0.016535*%
%ADD84R,0.020472X0.024409*%
%ADD85R,0.032283X0.059843*%
%ADD86R,0.057874X0.079528*%
%ADD87R,0.019291X0.021260*%
%ADD88R,0.071653X0.055906*%
%ADD89R,0.021260X0.019291*%
%ADD90R,0.017323X0.017323*%
%ADD91R,0.017323X0.017323*%
%TA.AperFunction,ViaPad*%
%ADD92C,0.197638*%
D36*
X3031496Y-78740D02*
D03*
X3070866D02*
D03*
X2992126D02*
D03*
X2952756D02*
D03*
X2913386D02*
D03*
X2874016D02*
D03*
X2677166D02*
D03*
X2716536D02*
D03*
X2755906D02*
D03*
X2795276D02*
D03*
X2834646D02*
D03*
X2440946D02*
D03*
X2401576D02*
D03*
X2362206D02*
D03*
X2322836D02*
D03*
X2283466D02*
D03*
X2480316D02*
D03*
X2519686D02*
D03*
X2559056D02*
D03*
X2598426D02*
D03*
X2637796D02*
D03*
X2047246D02*
D03*
X2007876D02*
D03*
X1968506D02*
D03*
X1929136D02*
D03*
X1889766D02*
D03*
X2086616D02*
D03*
X2125986D02*
D03*
X2165356D02*
D03*
X2204726D02*
D03*
X2244096D02*
D03*
X1653546D02*
D03*
X1614176D02*
D03*
X1574806D02*
D03*
X1535436D02*
D03*
X1496066D02*
D03*
X1692916D02*
D03*
X1732286D02*
D03*
X1771656D02*
D03*
X1811026D02*
D03*
X1850396D02*
D03*
X1259846D02*
D03*
X1220476D02*
D03*
X1181106D02*
D03*
X1141736D02*
D03*
X1102366D02*
D03*
X1299216D02*
D03*
X1338586D02*
D03*
X1377956D02*
D03*
X1417326D02*
D03*
X1456696D02*
D03*
X866146D02*
D03*
X826776D02*
D03*
X787406D02*
D03*
X748036D02*
D03*
X708666D02*
D03*
X905516D02*
D03*
X944886D02*
D03*
X984256D02*
D03*
X1023626D02*
D03*
X1062996D02*
D03*
X472446D02*
D03*
X433076D02*
D03*
X393706D02*
D03*
X354336D02*
D03*
X314966D02*
D03*
X511816D02*
D03*
X551186D02*
D03*
X590556D02*
D03*
X629926D02*
D03*
X669296D02*
D03*
X78746D02*
D03*
X118116D02*
D03*
X157486D02*
D03*
X196856D02*
D03*
X236226D02*
D03*
X275596D02*
D03*
X2874010Y1653543D02*
D03*
X2913380D02*
D03*
X2952750D02*
D03*
X2992120D02*
D03*
X3031490D02*
D03*
X3070860D02*
D03*
X2480310D02*
D03*
X2519680D02*
D03*
X2559050D02*
D03*
X2598420D02*
D03*
X2637790D02*
D03*
X2834640D02*
D03*
X2795270D02*
D03*
X2755900D02*
D03*
X2716530D02*
D03*
X2677160D02*
D03*
X2086610D02*
D03*
X2125980D02*
D03*
X2165350D02*
D03*
X2204720D02*
D03*
X2244090D02*
D03*
X2440940D02*
D03*
X2401570D02*
D03*
X2362200D02*
D03*
X2322830D02*
D03*
X2283460D02*
D03*
X1692910D02*
D03*
X1732280D02*
D03*
X1771650D02*
D03*
X1811020D02*
D03*
X1850390D02*
D03*
X2047240D02*
D03*
X2007870D02*
D03*
X1968500D02*
D03*
X1929130D02*
D03*
X1889760D02*
D03*
X1299210D02*
D03*
X1338580D02*
D03*
X1377950D02*
D03*
X1417320D02*
D03*
X1456690D02*
D03*
X1653540D02*
D03*
X1614170D02*
D03*
X1574800D02*
D03*
X1535430D02*
D03*
X1496060D02*
D03*
X905510D02*
D03*
X944880D02*
D03*
X984250D02*
D03*
X1023620D02*
D03*
X1062990D02*
D03*
X1259840D02*
D03*
X1220470D02*
D03*
X1181100D02*
D03*
X1141730D02*
D03*
X1102360D02*
D03*
X511810D02*
D03*
X551180D02*
D03*
X590550D02*
D03*
X629920D02*
D03*
X669290D02*
D03*
X866140D02*
D03*
X826770D02*
D03*
X787400D02*
D03*
X748030D02*
D03*
X708660D02*
D03*
X314960D02*
D03*
X354330D02*
D03*
X393700D02*
D03*
X433070D02*
D03*
X472440D02*
D03*
X275590D02*
D03*
X236220D02*
D03*
X196850D02*
D03*
X157480D02*
D03*
X78740D02*
D03*
X118110D02*
D03*
X3228346Y1299213D02*
D03*
Y1259843D02*
D03*
Y1220473D02*
D03*
Y1181102D02*
D03*
Y1141732D02*
D03*
Y1102362D02*
D03*
Y1062992D02*
D03*
Y1023622D02*
D03*
Y984252D02*
D03*
Y944882D02*
D03*
Y905512D02*
D03*
Y866142D02*
D03*
Y826772D02*
D03*
Y787402D02*
D03*
Y748032D02*
D03*
Y708662D02*
D03*
Y669291D02*
D03*
Y629921D02*
D03*
Y590551D02*
D03*
Y551181D02*
D03*
Y78740D02*
D03*
Y118110D02*
D03*
Y157480D02*
D03*
Y196850D02*
D03*
Y236220D02*
D03*
Y275591D02*
D03*
Y314961D02*
D03*
Y354331D02*
D03*
Y393701D02*
D03*
Y433071D02*
D03*
Y472441D02*
D03*
Y511811D02*
D03*
Y1338583D02*
D03*
Y1377953D02*
D03*
Y1417323D02*
D03*
Y1456693D02*
D03*
Y1496063D02*
D03*
X-78740Y78740D02*
D03*
Y118110D02*
D03*
Y157480D02*
D03*
Y196850D02*
D03*
Y236220D02*
D03*
Y1062992D02*
D03*
Y1102362D02*
D03*
Y1141732D02*
D03*
Y1181102D02*
D03*
Y1220473D02*
D03*
Y1259842D02*
D03*
Y1299213D02*
D03*
Y1338583D02*
D03*
Y1377953D02*
D03*
Y1417323D02*
D03*
Y1456693D02*
D03*
Y1496063D02*
D03*
Y1023622D02*
D03*
Y984252D02*
D03*
Y944882D02*
D03*
Y905512D02*
D03*
Y866142D02*
D03*
Y826772D02*
D03*
Y787402D02*
D03*
Y748032D02*
D03*
Y708661D02*
D03*
Y669291D02*
D03*
Y629921D02*
D03*
Y590551D02*
D03*
Y551181D02*
D03*
Y511811D02*
D03*
Y472441D02*
D03*
Y433071D02*
D03*
Y393701D02*
D03*
Y354331D02*
D03*
Y314961D02*
D03*
Y275591D02*
D03*
D65*
X2835900Y1512402D02*
D03*
X2675911Y1512402D02*
D03*
X2835900Y1462402D02*
D03*
X2675911Y1462402D02*
D03*
X2835900Y1412402D02*
D03*
X2675911Y1412402D02*
D03*
X2835900Y1362402D02*
D03*
X2675911Y1362402D02*
D03*
X2835900Y1312402D02*
D03*
X2675911Y1312402D02*
D03*
X2835900Y1262402D02*
D03*
X2675911Y1262402D02*
D03*
X2835900Y1212402D02*
D03*
X2675911Y1212402D02*
D03*
X2835900Y1162402D02*
D03*
X2675911Y1162402D02*
D03*
X2835900Y1112402D02*
D03*
X2675911Y1112402D02*
D03*
X2835900Y1062402D02*
D03*
X2675911Y1062402D02*
D03*
X2835900Y1012402D02*
D03*
X2675911Y1012402D02*
D03*
X2835900Y962402D02*
D03*
X2675911Y962402D02*
D03*
X2835900Y912402D02*
D03*
X2675911Y912402D02*
D03*
X2835900Y862402D02*
D03*
X2675911Y862402D02*
D03*
X2835896Y812412D02*
D03*
X2675913Y812411D02*
D03*
X2835897Y762421D02*
D03*
X2675914Y762419D02*
D03*
X2835900Y712404D02*
D03*
X2675911Y712404D02*
D03*
X2835900Y662404D02*
D03*
X2675911Y662404D02*
D03*
X2835900Y612404D02*
D03*
X2675911Y612404D02*
D03*
X2835900Y562404D02*
D03*
X2675911Y562404D02*
D03*
X2835900Y512404D02*
D03*
X2675911Y512404D02*
D03*
X2835900Y462404D02*
D03*
X2675911Y462404D02*
D03*
X2835900Y412404D02*
D03*
X2675911Y412404D02*
D03*
X2835900Y362404D02*
D03*
X2675911Y362404D02*
D03*
X2835900Y312404D02*
D03*
X2675911Y312404D02*
D03*
X2835900Y262404D02*
D03*
X2675911Y262404D02*
D03*
X2835900Y212404D02*
D03*
X2675911Y212404D02*
D03*
X2835900Y162404D02*
D03*
X2675911Y162404D02*
D03*
X2835900Y112404D02*
D03*
X2675911Y112404D02*
D03*
X2835900Y62404D02*
D03*
X2675911Y62404D02*
D03*
X473701Y1512407D02*
D03*
X313701D02*
D03*
X473701Y1462407D02*
D03*
X313701D02*
D03*
X473701Y1412407D02*
D03*
X313701D02*
D03*
X473701Y1362407D02*
D03*
X313701D02*
D03*
X473701Y1312407D02*
D03*
X313701D02*
D03*
X473701Y1262407D02*
D03*
X313701D02*
D03*
X473701Y1212407D02*
D03*
X313701D02*
D03*
X473701Y1162407D02*
D03*
X313701D02*
D03*
X473701Y1112407D02*
D03*
X313701D02*
D03*
X473701Y1062407D02*
D03*
X313701D02*
D03*
X473701Y1012407D02*
D03*
X313701D02*
D03*
X473701Y962407D02*
D03*
X313701D02*
D03*
X473701Y912407D02*
D03*
X313701D02*
D03*
X473701Y862407D02*
D03*
X313701D02*
D03*
X473701Y812407D02*
D03*
X313701D02*
D03*
X473701Y762397D02*
D03*
X313701D02*
D03*
X473701Y712397D02*
D03*
X313701D02*
D03*
X473701Y662397D02*
D03*
X313701D02*
D03*
X473701Y612397D02*
D03*
X313701D02*
D03*
X473701Y562397D02*
D03*
X313701D02*
D03*
X473701Y512397D02*
D03*
X313701D02*
D03*
X473701Y462397D02*
D03*
X313701D02*
D03*
X473701Y412397D02*
D03*
X313701D02*
D03*
X473701Y362397D02*
D03*
X313701D02*
D03*
X473701Y312397D02*
D03*
X313701D02*
D03*
X473701Y262397D02*
D03*
X313701D02*
D03*
X473701Y212397D02*
D03*
X313701D02*
D03*
X473701Y162397D02*
D03*
X313701D02*
D03*
X473701Y112397D02*
D03*
X313701D02*
D03*
X473701Y62397D02*
D03*
X313701D02*
D03*
D66*
X1574803Y-78740D02*
D03*
D67*
X1575000Y1653543D02*
D03*
D68*
X3228346Y787402D02*
D03*
X-78740D02*
D03*
D69*
X1807087Y223425D02*
D03*
Y197835D02*
D03*
Y172244D02*
D03*
Y249016D02*
D03*
Y274606D02*
D03*
Y300197D02*
D03*
Y325787D02*
D03*
Y146654D02*
D03*
X1578740Y223425D02*
D03*
Y197835D02*
D03*
Y172244D02*
D03*
Y249016D02*
D03*
Y274606D02*
D03*
Y300197D02*
D03*
Y325787D02*
D03*
Y146654D02*
D03*
Y121063D02*
D03*
X1807087D02*
D03*
X1578740Y351378D02*
D03*
X1807087D02*
D03*
X1578740Y1075787D02*
D03*
Y1101378D02*
D03*
Y1126968D02*
D03*
Y1050197D02*
D03*
Y1024606D02*
D03*
Y999016D02*
D03*
Y973425D02*
D03*
Y1152559D02*
D03*
X1807087Y1075787D02*
D03*
Y1101378D02*
D03*
Y1126968D02*
D03*
Y1050197D02*
D03*
Y1024606D02*
D03*
Y999016D02*
D03*
Y973425D02*
D03*
Y1152559D02*
D03*
Y601378D02*
D03*
Y422244D02*
D03*
Y447835D02*
D03*
Y473425D02*
D03*
Y499016D02*
D03*
Y575787D02*
D03*
Y550197D02*
D03*
Y524606D02*
D03*
X1578740Y601378D02*
D03*
Y422244D02*
D03*
Y447835D02*
D03*
Y473425D02*
D03*
Y499016D02*
D03*
Y575787D02*
D03*
Y550197D02*
D03*
Y524606D02*
D03*
D70*
X2015748Y393701D02*
D03*
X2047244D02*
D03*
X2078740D02*
D03*
X2110236D02*
D03*
X2141732D02*
D03*
X2173228D02*
D03*
X2204724D02*
D03*
X2236220D02*
D03*
Y59055D02*
D03*
X2204724D02*
D03*
X2173228D02*
D03*
X2141732D02*
D03*
X2110236D02*
D03*
X2078740D02*
D03*
X2047244D02*
D03*
X2015748D02*
D03*
D71*
X2293307Y336614D02*
D03*
Y305118D02*
D03*
Y273622D02*
D03*
Y242126D02*
D03*
Y210630D02*
D03*
Y179134D02*
D03*
Y147638D02*
D03*
Y116142D02*
D03*
X1958661D02*
D03*
Y147638D02*
D03*
Y179134D02*
D03*
Y210630D02*
D03*
Y242126D02*
D03*
Y273622D02*
D03*
Y305118D02*
D03*
Y336614D02*
D03*
D72*
X840551Y118110D02*
D03*
Y137795D02*
D03*
Y157480D02*
D03*
Y177165D02*
D03*
Y196850D02*
D03*
Y216535D02*
D03*
Y236220D02*
D03*
Y255905D02*
D03*
Y275591D02*
D03*
Y295276D02*
D03*
Y314961D02*
D03*
Y334646D02*
D03*
Y354331D02*
D03*
Y374016D02*
D03*
Y393701D02*
D03*
Y413386D02*
D03*
Y433071D02*
D03*
Y452756D02*
D03*
Y472441D02*
D03*
Y492126D02*
D03*
Y511811D02*
D03*
Y531496D02*
D03*
Y551181D02*
D03*
Y570866D02*
D03*
Y590551D02*
D03*
X1442913D02*
D03*
Y570866D02*
D03*
Y551181D02*
D03*
Y531496D02*
D03*
Y511811D02*
D03*
Y492126D02*
D03*
Y472441D02*
D03*
Y452756D02*
D03*
Y433071D02*
D03*
Y413386D02*
D03*
Y393701D02*
D03*
Y374016D02*
D03*
Y354331D02*
D03*
Y334646D02*
D03*
Y314961D02*
D03*
Y295276D02*
D03*
Y275591D02*
D03*
Y255905D02*
D03*
Y236220D02*
D03*
Y216535D02*
D03*
Y196850D02*
D03*
Y177165D02*
D03*
Y157480D02*
D03*
Y137795D02*
D03*
Y118110D02*
D03*
D73*
X905512Y655512D02*
D03*
X925197D02*
D03*
X944882D02*
D03*
X964567D02*
D03*
X984252D02*
D03*
X1003937D02*
D03*
X1023622D02*
D03*
X1043307D02*
D03*
X1062992D02*
D03*
X1082677D02*
D03*
X1102362D02*
D03*
X1122047D02*
D03*
X1141732D02*
D03*
X1161417D02*
D03*
X1181102D02*
D03*
X1200787D02*
D03*
X1220473D02*
D03*
X1240158D02*
D03*
X1259842D02*
D03*
X1279528D02*
D03*
X1299213D02*
D03*
X1318898D02*
D03*
X1338583D02*
D03*
X1358268D02*
D03*
X1377953D02*
D03*
Y53150D02*
D03*
X1358268D02*
D03*
X1338583D02*
D03*
X1318898D02*
D03*
X1299213D02*
D03*
X1279528D02*
D03*
X1259842D02*
D03*
X1240158D02*
D03*
X1220473D02*
D03*
X1200787D02*
D03*
X1181102D02*
D03*
X1161417D02*
D03*
X1141732D02*
D03*
X1122047D02*
D03*
X1102362D02*
D03*
X1082677D02*
D03*
X1062992D02*
D03*
X1043307D02*
D03*
X1023622D02*
D03*
X1003937D02*
D03*
X984252D02*
D03*
X964567D02*
D03*
X944882D02*
D03*
X925197D02*
D03*
X905512D02*
D03*
D74*
X1535433Y39370D02*
D03*
X1771653D02*
D03*
X1850394D02*
D03*
X1692913D02*
D03*
X1614173D02*
D03*
D75*
X1769685Y751968D02*
D03*
X1807087D02*
D03*
X1732283D02*
D03*
Y665354D02*
D03*
X1769685D02*
D03*
X1807087D02*
D03*
X1632716Y1518504D02*
D03*
Y1581496D02*
D03*
X1597284D02*
D03*
Y1518504D02*
D03*
X1616142Y751968D02*
D03*
X1653543D02*
D03*
X1578740D02*
D03*
Y665354D02*
D03*
X1616142D02*
D03*
X1653543D02*
D03*
D76*
X1698425Y884646D02*
D03*
Y809843D02*
D03*
X1800787D02*
D03*
Y847244D02*
D03*
Y884646D02*
D03*
D77*
X2047244Y875984D02*
D03*
X2017717D02*
D03*
D78*
X2032480Y911417D02*
D03*
X2106299Y1341929D02*
D03*
D79*
X1799213Y1374213D02*
D03*
Y1324213D02*
D03*
Y1274213D02*
D03*
Y1224213D02*
D03*
X1586614D02*
D03*
Y1274213D02*
D03*
Y1324213D02*
D03*
Y1374213D02*
D03*
D80*
X2835905Y1512402D02*
D03*
X2675905D02*
D03*
X2835905Y1462402D02*
D03*
X2675905D02*
D03*
X2835905Y1412402D02*
D03*
X2675905D02*
D03*
X2835905Y1362402D02*
D03*
X2675905D02*
D03*
X2835905Y1312402D02*
D03*
X2675905D02*
D03*
X2835905Y1262402D02*
D03*
X2675905D02*
D03*
X2835905Y1212402D02*
D03*
X2675905D02*
D03*
X2835905Y1162402D02*
D03*
X2675905D02*
D03*
X2835905Y1112402D02*
D03*
X2675905D02*
D03*
X2835905Y1062402D02*
D03*
X2675905D02*
D03*
X2835905Y1012402D02*
D03*
X2675905D02*
D03*
X2835905Y962402D02*
D03*
X2675905D02*
D03*
X2835905Y912402D02*
D03*
X2675905D02*
D03*
X2835905Y862402D02*
D03*
X2675905D02*
D03*
X2835905Y812402D02*
D03*
X2675905D02*
D03*
X2835905Y762402D02*
D03*
X2675905D02*
D03*
X2835905Y712402D02*
D03*
X2675905D02*
D03*
X2835905Y662402D02*
D03*
X2675905D02*
D03*
X2835905Y612402D02*
D03*
X2675905D02*
D03*
X2835905Y562402D02*
D03*
X2675905D02*
D03*
X2835905Y512402D02*
D03*
X2675905D02*
D03*
X2835905Y462402D02*
D03*
X2675905D02*
D03*
X2835905Y412402D02*
D03*
X2675905D02*
D03*
X2835905Y362402D02*
D03*
X2675905D02*
D03*
X2835905Y312402D02*
D03*
X2675905D02*
D03*
X2835905Y262402D02*
D03*
X2675905D02*
D03*
X2835905Y212402D02*
D03*
X2675905D02*
D03*
X2835905Y162402D02*
D03*
X2675905D02*
D03*
X2835905Y112402D02*
D03*
X2675905D02*
D03*
X2835905Y62402D02*
D03*
X2675905D02*
D03*
X473701Y1512402D02*
D03*
X313701D02*
D03*
X473701Y1462402D02*
D03*
X313701D02*
D03*
X473701Y1412402D02*
D03*
X313701D02*
D03*
X473701Y1362402D02*
D03*
X313701D02*
D03*
X473701Y1312402D02*
D03*
X313701D02*
D03*
X473701Y1262402D02*
D03*
X313701D02*
D03*
X473701Y1212402D02*
D03*
X313701D02*
D03*
X473701Y1162402D02*
D03*
X313701D02*
D03*
X473701Y1112402D02*
D03*
X313701D02*
D03*
X473701Y1062402D02*
D03*
X313701D02*
D03*
X473701Y1012402D02*
D03*
X313701D02*
D03*
X473701Y962402D02*
D03*
X313701D02*
D03*
X473701Y912402D02*
D03*
X313701D02*
D03*
X473701Y862402D02*
D03*
X313701D02*
D03*
X473701Y812402D02*
D03*
X313701D02*
D03*
X473701Y762402D02*
D03*
X313701D02*
D03*
X473701Y712402D02*
D03*
X313701D02*
D03*
X473701Y662402D02*
D03*
X313701D02*
D03*
X473701Y612402D02*
D03*
X313701D02*
D03*
X473701Y562402D02*
D03*
X313701D02*
D03*
X473701Y512402D02*
D03*
X313701D02*
D03*
X473701Y462402D02*
D03*
X313701D02*
D03*
X473701Y412402D02*
D03*
X313701D02*
D03*
X473701Y362402D02*
D03*
X313701D02*
D03*
X473701Y312402D02*
D03*
X313701D02*
D03*
X473701Y262402D02*
D03*
X313701D02*
D03*
X473701Y212402D02*
D03*
X313701D02*
D03*
X473701Y162402D02*
D03*
X313701D02*
D03*
X473701Y112402D02*
D03*
X313701D02*
D03*
X473701Y62402D02*
D03*
X313701D02*
D03*
D81*
X2070866Y840551D02*
D03*
Y805118D02*
D03*
Y769685D02*
D03*
Y734252D02*
D03*
X2023622D02*
D03*
Y769685D02*
D03*
Y805118D02*
D03*
Y840551D02*
D03*
D82*
X2125984Y1062992D02*
D03*
D83*
X2019685Y987992D02*
D03*
Y1037992D02*
D03*
Y1087992D02*
D03*
Y1137992D02*
D03*
X2232284D02*
D03*
Y1087992D02*
D03*
Y1037992D02*
D03*
Y987992D02*
D03*
D84*
X1934646Y884646D02*
D03*
X1970079D02*
D03*
D85*
X1145473Y1122047D02*
D03*
X1188780D02*
D03*
X1102165D02*
D03*
X1058858D02*
D03*
X1015551D02*
D03*
X1232087D02*
D03*
X1275394D02*
D03*
X1318701D02*
D03*
D86*
X871063Y1346457D02*
D03*
X1412402D02*
D03*
Y1019685D02*
D03*
X871063D02*
D03*
D87*
X213780Y612402D02*
D03*
X179921D02*
D03*
X1968504Y987992D02*
D03*
X1934646D02*
D03*
X1968504Y1037992D02*
D03*
X1934646D02*
D03*
X1968504Y1137992D02*
D03*
X1934646D02*
D03*
X1968504Y1087992D02*
D03*
X1934646D02*
D03*
X2076378Y452756D02*
D03*
X2110236D02*
D03*
X2139370D02*
D03*
X2173228D02*
D03*
X2170866Y0D02*
D03*
X2204724D02*
D03*
X2089370Y1274213D02*
D03*
X2123228D02*
D03*
X2089370Y1374213D02*
D03*
X2123228D02*
D03*
X1931890Y1274213D02*
D03*
X1965748D02*
D03*
X1931890Y1374213D02*
D03*
X1965748D02*
D03*
X2246850Y1277165D02*
D03*
X2280709D02*
D03*
X2246850Y1377166D02*
D03*
X2280709D02*
D03*
X1299213Y0D02*
D03*
X1265354D02*
D03*
X607480Y112402D02*
D03*
X573622D02*
D03*
X607480Y162402D02*
D03*
X573622D02*
D03*
X607480Y212402D02*
D03*
X573622D02*
D03*
X179921Y62402D02*
D03*
X213780D02*
D03*
X179921Y112402D02*
D03*
X213780D02*
D03*
X179921Y162402D02*
D03*
X213780D02*
D03*
X2969685Y112402D02*
D03*
X2935827D02*
D03*
X2969685Y162402D02*
D03*
X2935827D02*
D03*
X2542126Y62402D02*
D03*
X2575984D02*
D03*
X2542126Y112402D02*
D03*
X2575984D02*
D03*
X2542126Y162402D02*
D03*
X2575984D02*
D03*
X607480Y1462402D02*
D03*
X573622D02*
D03*
X607480Y1512402D02*
D03*
X573622D02*
D03*
X179921Y1412402D02*
D03*
X213780D02*
D03*
X179921Y1462402D02*
D03*
X213780D02*
D03*
X2969685Y1462402D02*
D03*
X2935827D02*
D03*
X2969685Y1512402D02*
D03*
X2935827D02*
D03*
X2542126Y1412402D02*
D03*
X2575984D02*
D03*
X2542126Y1462402D02*
D03*
X2575984D02*
D03*
X1535433Y1152559D02*
D03*
X1501575D02*
D03*
X1968504Y770472D02*
D03*
X1934646D02*
D03*
X1968504Y809842D02*
D03*
X1934646D02*
D03*
X2173228Y805118D02*
D03*
X2139370D02*
D03*
X2173228Y875984D02*
D03*
X2139370D02*
D03*
X1535433Y1374213D02*
D03*
X1501575D02*
D03*
X179921Y662402D02*
D03*
X213780D02*
D03*
X179921Y712402D02*
D03*
X213780D02*
D03*
X179921Y762402D02*
D03*
X213780D02*
D03*
X179921Y812402D02*
D03*
X213780D02*
D03*
X179921Y862402D02*
D03*
X213780D02*
D03*
X179921Y912402D02*
D03*
X213780D02*
D03*
X179921Y962402D02*
D03*
X213780D02*
D03*
X179921Y1012402D02*
D03*
X213780D02*
D03*
X179921Y1062402D02*
D03*
X213780D02*
D03*
X179921Y1112402D02*
D03*
X213780D02*
D03*
X179921Y1162402D02*
D03*
X213780D02*
D03*
X179921Y1212402D02*
D03*
X213780D02*
D03*
X179921Y1262402D02*
D03*
X213780D02*
D03*
X2542126Y262402D02*
D03*
X2575984D02*
D03*
X2542126Y312402D02*
D03*
X2575984D02*
D03*
X2542126Y362402D02*
D03*
X2575984D02*
D03*
X2542126Y412402D02*
D03*
X2575984D02*
D03*
X2542126Y462402D02*
D03*
X2575984D02*
D03*
X2542126Y512402D02*
D03*
X2575984D02*
D03*
X2542126Y562402D02*
D03*
X2575984D02*
D03*
X2542126Y612402D02*
D03*
X2575984D02*
D03*
X2542126Y662402D02*
D03*
X2575984D02*
D03*
X2542126Y712402D02*
D03*
X2575984D02*
D03*
X2542126Y762402D02*
D03*
X2575984D02*
D03*
X2542126Y812402D02*
D03*
X2575984D02*
D03*
X2542126Y862402D02*
D03*
X2575984D02*
D03*
X2542126Y912402D02*
D03*
X2575984D02*
D03*
X2542126Y962402D02*
D03*
X2575984D02*
D03*
X2542126Y1012402D02*
D03*
X2575984D02*
D03*
X2542126Y1062402D02*
D03*
X2575984D02*
D03*
X2542126Y1112402D02*
D03*
X2575984D02*
D03*
X2542126Y1162402D02*
D03*
X2575984D02*
D03*
X2542126Y1212402D02*
D03*
X2575984D02*
D03*
X2542126Y1262402D02*
D03*
X2575984D02*
D03*
X2542126Y1312402D02*
D03*
X2575984D02*
D03*
X2542126Y1362402D02*
D03*
X2575984D02*
D03*
X2969685Y212402D02*
D03*
X2935827D02*
D03*
X2969685Y262402D02*
D03*
X2935827D02*
D03*
X2969685Y312402D02*
D03*
X2935827D02*
D03*
X2969685Y362402D02*
D03*
X2935827D02*
D03*
X2969685Y412402D02*
D03*
X2935827D02*
D03*
X2969685Y462402D02*
D03*
X2935827D02*
D03*
X2969685Y512402D02*
D03*
X2935827D02*
D03*
X2969685Y562402D02*
D03*
X2935827D02*
D03*
X2969685Y812402D02*
D03*
X2935827D02*
D03*
X2969685Y762402D02*
D03*
X2935827D02*
D03*
X2969685Y712402D02*
D03*
X2935827D02*
D03*
X2969685Y662402D02*
D03*
X2935827D02*
D03*
X2969685Y1362402D02*
D03*
X2935827D02*
D03*
X2969685Y1312402D02*
D03*
X2935827D02*
D03*
X2969685Y1262402D02*
D03*
X2935827D02*
D03*
X2969685Y1212402D02*
D03*
X2935827D02*
D03*
X2969685Y1162402D02*
D03*
X2935827D02*
D03*
X2969685Y1112402D02*
D03*
X2935827D02*
D03*
X2969685Y1062402D02*
D03*
X2935827D02*
D03*
X2969685Y1012402D02*
D03*
X2935827D02*
D03*
X607480Y1362401D02*
D03*
X573622D02*
D03*
X607480Y1312401D02*
D03*
X573622D02*
D03*
X607480Y1262401D02*
D03*
X573622D02*
D03*
X607480Y1212401D02*
D03*
X573622D02*
D03*
X607480Y1162401D02*
D03*
X573622D02*
D03*
X607480Y1112401D02*
D03*
X573622D02*
D03*
X607480Y1062402D02*
D03*
X573622D02*
D03*
X607480Y1012402D02*
D03*
X573622D02*
D03*
X607480Y312402D02*
D03*
X573622D02*
D03*
X607480Y262402D02*
D03*
X573622D02*
D03*
X607480Y412402D02*
D03*
X573622D02*
D03*
X607480Y362402D02*
D03*
X573622D02*
D03*
X607480Y512402D02*
D03*
X573622D02*
D03*
X607480Y462402D02*
D03*
X573622D02*
D03*
X607480Y612402D02*
D03*
X573622D02*
D03*
X607480Y562402D02*
D03*
X573622D02*
D03*
X607480Y712402D02*
D03*
X573622D02*
D03*
X607480Y662402D02*
D03*
X573622D02*
D03*
X607480Y812402D02*
D03*
X573622D02*
D03*
X607480Y762402D02*
D03*
X573622D02*
D03*
X607480Y862402D02*
D03*
X573622D02*
D03*
X607480Y912402D02*
D03*
X573622D02*
D03*
X607480Y962402D02*
D03*
X573622D02*
D03*
X179921Y1312402D02*
D03*
X213780D02*
D03*
X179921Y1362402D02*
D03*
X213780D02*
D03*
X2969685Y612402D02*
D03*
X2935827D02*
D03*
X2969685Y862402D02*
D03*
X2935827D02*
D03*
X2969685Y912402D02*
D03*
X2935827D02*
D03*
X2969685Y962402D02*
D03*
X2935827D02*
D03*
X1782677Y1552067D02*
D03*
X1816535D02*
D03*
X1782677Y1512402D02*
D03*
X1816535D02*
D03*
X2123228Y1224213D02*
D03*
X2089370D02*
D03*
X1782677Y1591732D02*
D03*
X1816535D02*
D03*
X1965748Y1224213D02*
D03*
X1931890D02*
D03*
X2280709Y1227165D02*
D03*
X2246850D02*
D03*
X1535433Y1073819D02*
D03*
X1501575D02*
D03*
X1535433Y1113189D02*
D03*
X1501575D02*
D03*
X2173228Y769685D02*
D03*
X2139370D02*
D03*
X2173228Y734252D02*
D03*
X2139370D02*
D03*
X2173228Y840551D02*
D03*
X2139370D02*
D03*
X2173228Y911417D02*
D03*
X2139370D02*
D03*
X1884252Y884646D02*
D03*
X1850394D02*
D03*
X1884252Y809843D02*
D03*
X1850394D02*
D03*
X1501575Y1274213D02*
D03*
X1535433D02*
D03*
X1501575Y1224213D02*
D03*
X1535433D02*
D03*
X213780Y262402D02*
D03*
X179921D02*
D03*
X213780Y312402D02*
D03*
X179921D02*
D03*
X213780Y362402D02*
D03*
X179921D02*
D03*
X213780Y412402D02*
D03*
X179921D02*
D03*
X213780Y462402D02*
D03*
X179921D02*
D03*
X213780Y512402D02*
D03*
X179921D02*
D03*
X213780Y562402D02*
D03*
X179921D02*
D03*
D88*
X1133858Y740158D02*
D03*
X1307087D02*
D03*
Y834646D02*
D03*
X1133858D02*
D03*
X2212599Y543307D02*
D03*
X2039370D02*
D03*
Y637795D02*
D03*
X2212599D02*
D03*
D89*
X2283465Y1037992D02*
D03*
Y1071850D02*
D03*
X1692913Y692716D02*
D03*
Y658858D02*
D03*
X1850394D02*
D03*
Y692716D02*
D03*
X1535433Y724606D02*
D03*
Y758465D02*
D03*
X1616142Y843701D02*
D03*
Y809843D02*
D03*
X1535433Y1554134D02*
D03*
Y1587992D02*
D03*
X1968504Y620866D02*
D03*
Y654724D02*
D03*
X2283465Y526378D02*
D03*
Y560236D02*
D03*
X1889764Y208268D02*
D03*
Y242126D02*
D03*
X1145473Y1591732D02*
D03*
Y1557874D02*
D03*
X1535433Y601378D02*
D03*
Y567520D02*
D03*
X1850394D02*
D03*
Y601378D02*
D03*
Y112795D02*
D03*
Y146654D02*
D03*
X1535433Y112795D02*
D03*
Y146654D02*
D03*
Y351378D02*
D03*
Y317520D02*
D03*
X1003937Y742520D02*
D03*
Y708661D02*
D03*
X787402Y329134D02*
D03*
Y295276D02*
D03*
X1377953Y757087D02*
D03*
Y723228D02*
D03*
X1062992Y851575D02*
D03*
Y817717D02*
D03*
X1496063Y393701D02*
D03*
Y427559D02*
D03*
X925197Y708661D02*
D03*
Y742520D02*
D03*
X1653543Y843701D02*
D03*
Y809843D02*
D03*
X1850394Y758465D02*
D03*
Y724606D02*
D03*
X1535433Y692716D02*
D03*
Y658858D02*
D03*
X1535433Y843701D02*
D03*
Y809843D02*
D03*
X1578740Y843701D02*
D03*
Y809843D02*
D03*
X1850394Y242126D02*
D03*
Y208268D02*
D03*
X1102165Y1557874D02*
D03*
Y1591732D02*
D03*
X1275394Y1557874D02*
D03*
Y1591732D02*
D03*
X1188779Y1557874D02*
D03*
Y1591732D02*
D03*
X1058858Y1557874D02*
D03*
Y1591732D02*
D03*
X1889764Y567520D02*
D03*
Y601378D02*
D03*
X1496063Y317520D02*
D03*
Y351378D02*
D03*
X964567Y742520D02*
D03*
Y708661D02*
D03*
D90*
X2121063Y1306496D02*
D03*
X2091535D02*
D03*
X1963583D02*
D03*
X1934055D02*
D03*
X2278543Y1309449D02*
D03*
X2249016D02*
D03*
D91*
X1948819Y1341929D02*
D03*
X2263780Y1344882D02*
D03*
D92*
X3149606Y1574803D02*
D03*
Y0D02*
D03*
X0Y1574803D02*
D03*
Y0D02*
D03*
%TF.MD5,891f3f19fe79bdc91f540144bdd94715*%
M02*
