%TF.GenerationSoftware,Altium Limited,Altium Designer,20.0.13 (296)*%
G04 Layer_Color=128*
%FSLAX26Y26*%
%MOIN*%
%TF.FileFunction,Drillmap*%
%TF.Part,Single*%
G01*
G75*
%TA.AperFunction,NonConductor*%
%ADD93C,0.005000*%
D93*
X388780Y62402D02*
X396654D01*
X392717Y58465D02*
Y66339D01*
X2482284Y106244D02*
X2490157D01*
X2486220Y102307D02*
Y110181D01*
X1393701Y161417D02*
X1401575D01*
X1397638Y157480D02*
Y165354D01*
X1137795Y116976D02*
X1145669D01*
X1141732Y113039D02*
Y120913D01*
X1955610Y213835D02*
X1963484D01*
X1959547Y209899D02*
Y217773D01*
X388780Y304189D02*
X396654D01*
X392717Y300252D02*
Y308126D01*
X1057087Y448819D02*
X1064961D01*
X1061024Y444882D02*
Y452756D01*
X1310236Y1131890D02*
X1318110D01*
X1314173Y1127953D02*
Y1135827D01*
X921260Y544291D02*
X929134D01*
X925197Y540354D02*
Y548228D01*
X1787402Y445276D02*
X1795276D01*
X1791339Y441339D02*
Y449213D01*
X2000000Y338976D02*
X2007874D01*
X2003937Y335039D02*
Y342913D01*
X1929134Y338976D02*
X1937008D01*
X1933071Y335039D02*
Y342913D01*
X388780Y1091535D02*
X396654D01*
X392717Y1087598D02*
Y1095472D01*
X2141732Y338976D02*
X2149606D01*
X2145669Y335039D02*
Y342913D01*
X2070866Y338976D02*
X2078740D01*
X2074803Y335039D02*
Y342913D01*
%TF.MD5,f97668cc078d1bbc01e78e1228746c28*%
M02*
