%TF.GenerationSoftware,Altium Limited,Altium Designer,20.0.13 (296)*%
G04 Layer_Color=8388736*
%FSLAX26Y26*%
%MOIN*%
%TF.FileFunction,Other,Top_Assembly*%
%TF.Part,Single*%
G01*
G75*
%TA.AperFunction,NonConductor*%
%ADD62C,0.001968*%
D62*
X1466323Y774087D02*
Y840087D01*
X1368323D02*
X1466323D01*
X1368323Y774087D02*
Y840087D01*
Y774087D02*
X1466323D01*
X915354Y1165354D02*
Y1196850D01*
X974409Y1165354D02*
Y1196850D01*
X915354D02*
X974409D01*
X915354Y1165354D02*
X974409D01*
X2085905Y1570866D02*
X2117401D01*
X2085905Y1511811D02*
X2117401D01*
Y1570866D01*
X2085905Y1511811D02*
Y1570866D01*
X2994811Y1015992D02*
X3028811D01*
X2994811Y919992D02*
Y1015992D01*
X3028811Y919992D02*
Y1015992D01*
X2994811Y919992D02*
X3028811D01*
X2041708Y1460937D02*
Y1577937D01*
X1919708Y1460937D02*
Y1577937D01*
X2041708D01*
X1919708Y1460937D02*
X2041708D01*
X219220Y739402D02*
X253220D01*
Y835402D01*
X219220Y739402D02*
Y835402D01*
X253220D01*
X397638Y1013779D02*
X429134D01*
X397638Y1072835D02*
X429134D01*
X397638Y1013779D02*
Y1072835D01*
X429134Y1013779D02*
Y1072835D01*
X437008D02*
X468504D01*
X437008Y1013779D02*
X468504D01*
Y1072835D01*
X437008Y1013779D02*
Y1072835D01*
Y1289370D02*
X468504D01*
X437008Y1348425D02*
X468504D01*
X437008Y1289370D02*
Y1348425D01*
X468504Y1289370D02*
Y1348425D01*
X397638D02*
X429134D01*
X397638Y1289370D02*
X429134D01*
Y1348425D01*
X397638Y1289370D02*
Y1348425D01*
X397638Y226378D02*
X429134D01*
X397638Y285433D02*
X429134D01*
X397638Y226378D02*
Y285433D01*
X429134Y226378D02*
Y285433D01*
X437008D02*
X468504D01*
X437008Y226378D02*
X468504D01*
Y285433D01*
X437008Y226378D02*
Y285433D01*
X397638Y501969D02*
X429134D01*
X397638Y561024D02*
X429134D01*
X397638Y501969D02*
Y561024D01*
X429134Y501969D02*
Y561024D01*
X437008D02*
X468504D01*
X437008Y501969D02*
X468504D01*
Y561024D01*
X437008Y501969D02*
Y561024D01*
X541338Y223228D02*
Y254724D01*
X600394Y223228D02*
Y254724D01*
X541338D02*
X600394D01*
X541338Y223228D02*
X600394D01*
X3153807Y1029732D02*
Y1063732D01*
X3057807D02*
X3153807D01*
X3057807Y1029732D02*
X3153807D01*
X3057807D02*
Y1063732D01*
X3114764Y1070354D02*
Y1101850D01*
X3055709Y1070354D02*
Y1101850D01*
Y1070354D02*
X3114764D01*
X3055709Y1101850D02*
X3114764D01*
Y1109724D02*
Y1141220D01*
X3055709Y1109724D02*
Y1141220D01*
Y1109724D02*
X3114764D01*
X3055709Y1141220D02*
X3114764D01*
X3070866Y623504D02*
X3102362D01*
X3070866Y682559D02*
X3102362D01*
X3070866Y623504D02*
Y682559D01*
X3102362Y623504D02*
Y682559D01*
X2996063D02*
X3027559D01*
X2996063Y623504D02*
X3027559D01*
Y682559D01*
X2996063Y623504D02*
Y682559D01*
X2949252Y877598D02*
X2980748D01*
X2949252Y818543D02*
X2980748D01*
Y877598D01*
X2949252Y818543D02*
Y877598D01*
X2932807Y1029732D02*
Y1063732D01*
Y1029732D02*
X3028807D01*
X2932807Y1063732D02*
X3028807D01*
Y1029732D02*
Y1063732D01*
X2971850Y1070354D02*
Y1101850D01*
X3030906Y1070354D02*
Y1101850D01*
X2971850D02*
X3030906D01*
X2971850Y1070354D02*
X3030906D01*
X2971850Y1109724D02*
Y1141220D01*
X3030906Y1109724D02*
Y1141220D01*
X2971850D02*
X3030906D01*
X2971850Y1109724D02*
X3030906D01*
X639764Y811024D02*
Y842520D01*
X698819Y811024D02*
Y842520D01*
X639764D02*
X698819D01*
X639764Y811024D02*
X698819D01*
X403543Y732284D02*
Y763779D01*
X462599Y732284D02*
Y763779D01*
X403543D02*
X462599D01*
X403543Y732284D02*
X462599D01*
Y811024D02*
Y842520D01*
X403543Y811024D02*
Y842520D01*
Y811024D02*
X462599D01*
X403543Y842520D02*
X462599D01*
X-15748Y837402D02*
X15748D01*
X-15748Y778346D02*
X15748D01*
Y837402D01*
X-15748Y778346D02*
Y837402D01*
X259843Y771949D02*
X291339D01*
X259843Y831004D02*
X291339D01*
X259843Y771949D02*
Y831004D01*
X291339Y771949D02*
Y831004D01*
X299213D02*
X330709D01*
X299213Y771949D02*
X330709D01*
Y831004D01*
X299213Y771949D02*
Y831004D01*
X2897638Y592716D02*
X2929134D01*
X2897638Y651772D02*
X2929134D01*
X2897638Y592716D02*
Y651772D01*
X2929134Y592716D02*
Y651772D01*
X2239763Y1570866D02*
X2271259D01*
X2239763Y1511811D02*
X2271259D01*
Y1570866D01*
X2239763Y1511811D02*
Y1570866D01*
X2130905D02*
X2162401D01*
X2130905Y1511811D02*
X2162401D01*
Y1570866D01*
X2130905Y1511811D02*
Y1570866D01*
X3062913Y427244D02*
Y458740D01*
X3121968Y427244D02*
Y458740D01*
X3062913D02*
X3121968D01*
X3062913Y427244D02*
X3121968D01*
X2995157D02*
Y458740D01*
X3054213Y427244D02*
Y458740D01*
X2995157D02*
X3054213D01*
X2995157Y427244D02*
X3054213D01*
X2037402Y131890D02*
Y163386D01*
X1978346Y131890D02*
Y163386D01*
Y131890D02*
X2037402D01*
X1978346Y163386D02*
X2037402D01*
Y92520D02*
Y124016D01*
X1978346Y92520D02*
Y124016D01*
Y92520D02*
X2037402D01*
X1978346Y124016D02*
X2037402D01*
Y53150D02*
Y84646D01*
X1978346Y53150D02*
Y84646D01*
Y53150D02*
X2037402D01*
X1978346Y84646D02*
X2037402D01*
X1785433Y277559D02*
X1816929D01*
X1785433Y218504D02*
X1816929D01*
Y277559D01*
X1785433Y218504D02*
Y277559D01*
X1824803D02*
X1856299D01*
X1824803Y218504D02*
X1856299D01*
Y277559D01*
X1824803Y218504D02*
Y277559D01*
X1805118Y-49213D02*
X1836614D01*
X1805118Y9843D02*
X1836614D01*
X1805118Y-49213D02*
Y9843D01*
X1836614Y-49213D02*
Y9843D01*
X2509843Y171260D02*
Y202756D01*
X2450787Y171260D02*
Y202756D01*
Y171260D02*
X2509843D01*
X2450787Y202756D02*
X2509843D01*
Y131890D02*
Y163386D01*
X2450787Y131890D02*
Y163386D01*
Y131890D02*
X2509843D01*
X2450787Y163386D02*
X2509843D01*
Y92520D02*
Y124016D01*
X2450787Y92520D02*
Y124016D01*
Y92520D02*
X2509843D01*
X2450787Y124016D02*
X2509843D01*
X2257874Y277559D02*
X2289370D01*
X2257874Y218504D02*
X2289370D01*
Y277559D01*
X2257874Y218504D02*
Y277559D01*
X2297244D02*
X2328740D01*
X2297244Y218504D02*
X2328740D01*
Y277559D01*
X2297244Y218504D02*
Y277559D01*
X2336614D02*
X2368110D01*
X2336614Y218504D02*
X2368110D01*
Y277559D01*
X2336614Y218504D02*
Y277559D01*
X2257874Y-49213D02*
X2289370D01*
X2257874Y9843D02*
X2289370D01*
X2257874Y-49213D02*
Y9843D01*
X2289370Y-49213D02*
Y9843D01*
X2297244Y-49213D02*
X2328740D01*
X2297244Y9843D02*
X2328740D01*
X2297244Y-49213D02*
Y9843D01*
X2328740Y-49213D02*
Y9843D01*
X2336614Y-49213D02*
X2368110D01*
X2336614Y9843D02*
X2368110D01*
X2336614Y-49213D02*
Y9843D01*
X2368110Y-49213D02*
Y9843D01*
X2982284Y131890D02*
Y163386D01*
X2923228Y131890D02*
Y163386D01*
Y131890D02*
X2982284D01*
X2923228Y163386D02*
X2982284D01*
Y92520D02*
Y124016D01*
X2923228Y92520D02*
Y124016D01*
Y92520D02*
X2982284D01*
X2923228Y124016D02*
X2982284D01*
Y53150D02*
Y84646D01*
X2923228Y53150D02*
Y84646D01*
Y53150D02*
X2982284D01*
X2923228Y84646D02*
X2982284D01*
X2710630Y277559D02*
X2742126D01*
X2710630Y218504D02*
X2742126D01*
Y277559D01*
X2710630Y218504D02*
Y277559D01*
X2750000D02*
X2781496D01*
X2750000Y218504D02*
X2781496D01*
Y277559D01*
X2750000Y218504D02*
Y277559D01*
X2789370D02*
X2820866D01*
X2789370Y218504D02*
X2820866D01*
Y277559D01*
X2789370Y218504D02*
Y277559D01*
X2828740D02*
X2860236D01*
X2828740Y218504D02*
X2860236D01*
Y277559D01*
X2828740Y218504D02*
Y277559D01*
X2710630Y-49213D02*
X2742126D01*
X2710630Y9843D02*
X2742126D01*
X2710630Y-49213D02*
Y9843D01*
X2742126Y-49213D02*
Y9843D01*
X2750000Y-49213D02*
X2781496D01*
X2750000Y9843D02*
X2781496D01*
X2750000Y-49213D02*
Y9843D01*
X2781496Y-49213D02*
Y9843D01*
X2789370Y-49213D02*
X2820866D01*
X2789370Y9843D02*
X2820866D01*
X2789370Y-49213D02*
Y9843D01*
X2820866Y-49213D02*
Y9843D01*
X2828740Y-49213D02*
X2860236D01*
X2828740Y9843D02*
X2860236D01*
X2828740Y-49213D02*
Y9843D01*
X2860236Y-49213D02*
Y9843D01*
X1387795Y1125984D02*
Y1157480D01*
X1446850Y1125984D02*
Y1157480D01*
X1387795D02*
X1446850D01*
X1387795Y1125984D02*
X1446850D01*
Y1283465D02*
Y1314961D01*
X1387795Y1283465D02*
Y1314961D01*
Y1283465D02*
X1446850D01*
X1387795Y1314961D02*
X1446850D01*
X1289370Y1322835D02*
Y1354331D01*
X1230315Y1322835D02*
Y1354331D01*
Y1322835D02*
X1289370D01*
X1230315Y1354331D02*
X1289370D01*
X1072835Y1125984D02*
Y1157480D01*
X1131890Y1125984D02*
Y1157480D01*
X1072835D02*
X1131890D01*
X1072835Y1125984D02*
X1131890D01*
Y1322835D02*
Y1354331D01*
X1072835Y1322835D02*
Y1354331D01*
Y1322835D02*
X1131890D01*
X1072835Y1354331D02*
X1131890D01*
X915354Y1125984D02*
Y1157480D01*
X974409Y1125984D02*
Y1157480D01*
X915354D02*
X974409D01*
X915354Y1125984D02*
X974409D01*
Y1322835D02*
Y1354331D01*
X915354Y1322835D02*
Y1354331D01*
Y1322835D02*
X974409D01*
X915354Y1354331D02*
X974409D01*
X1125984Y226378D02*
X1157480D01*
X1125984Y167323D02*
X1157480D01*
Y226378D01*
X1125984Y167323D02*
Y226378D01*
X1165354D02*
X1196850D01*
X1165354Y167323D02*
X1196850D01*
Y226378D01*
X1165354Y167323D02*
Y226378D01*
X1446850Y161417D02*
Y192913D01*
X1387795Y161417D02*
Y192913D01*
Y161417D02*
X1446850D01*
X1387795Y192913D02*
X1446850D01*
X1086614Y167323D02*
X1118110D01*
X1086614Y226378D02*
X1118110D01*
X1086614Y167323D02*
Y226378D01*
X1118110Y167323D02*
Y226378D01*
X1047244D02*
X1078740D01*
X1047244Y167323D02*
X1078740D01*
Y226378D01*
X1047244Y167323D02*
Y226378D01*
X1131890Y968504D02*
Y1000000D01*
X1072835Y968504D02*
Y1000000D01*
Y968504D02*
X1131890D01*
X1072835Y1000000D02*
X1131890D01*
Y811024D02*
Y842520D01*
X1072835Y811024D02*
Y842520D01*
Y811024D02*
X1131890D01*
X1072835Y842520D02*
X1131890D01*
X1322835Y836614D02*
X1354331D01*
X1322835Y777559D02*
X1354331D01*
Y836614D01*
X1322835Y777559D02*
Y836614D01*
X1289370Y968504D02*
Y1000000D01*
X1230315Y968504D02*
Y1000000D01*
Y968504D02*
X1289370D01*
X1230315Y1000000D02*
X1289370D01*
Y811024D02*
Y842520D01*
X1230315Y811024D02*
Y842520D01*
Y811024D02*
X1289370D01*
X1230315Y842520D02*
X1289370D01*
X974409Y968504D02*
Y1000000D01*
X915354Y968504D02*
Y1000000D01*
Y968504D02*
X974409D01*
X915354Y1000000D02*
X974409D01*
Y811024D02*
Y842520D01*
X915354Y811024D02*
Y842520D01*
Y811024D02*
X974409D01*
X915354Y842520D02*
X974409D01*
X1013780Y318898D02*
Y350394D01*
X954724Y318898D02*
Y350394D01*
Y318898D02*
X1013780D01*
X954724Y350394D02*
X1013780D01*
X1466323Y911882D02*
Y977882D01*
X1368323D02*
X1466323D01*
X1368323Y911882D02*
Y977882D01*
Y911882D02*
X1466323D01*
X3057803Y1015992D02*
X3091803D01*
X3057803Y919992D02*
Y1015992D01*
X3091803Y919992D02*
Y1015992D01*
X3057803Y919992D02*
X3091803D01*
X2289763Y1570866D02*
X2321259D01*
X2289763Y1511811D02*
X2321259D01*
Y1570866D01*
X2289763Y1511811D02*
Y1570866D01*
X600394Y1252362D02*
Y1283858D01*
X541338Y1252362D02*
Y1283858D01*
Y1252362D02*
X600394D01*
X541338Y1283858D02*
X600394D01*
Y1286220D02*
Y1317716D01*
X541338Y1286220D02*
Y1317716D01*
Y1286220D02*
X600394D01*
X541338Y1317716D02*
X600394D01*
X541338Y1320079D02*
Y1351575D01*
X600394Y1320079D02*
Y1351575D01*
X541338D02*
X600394D01*
X541338Y1320079D02*
X600394D01*
Y464961D02*
Y496457D01*
X541338Y464961D02*
Y496457D01*
Y464961D02*
X600394D01*
X541338Y496457D02*
X600394D01*
Y498819D02*
Y530315D01*
X541338Y498819D02*
Y530315D01*
Y498819D02*
X600394D01*
X541338Y530315D02*
X600394D01*
X541338Y257087D02*
Y288583D01*
X600394Y257087D02*
Y288583D01*
X541338D02*
X600394D01*
X541338Y257087D02*
X600394D01*
X541338Y532677D02*
Y564173D01*
X600394Y532677D02*
Y564173D01*
X541338D02*
X600394D01*
X541338Y532677D02*
X600394D01*
X2999213Y849252D02*
Y880748D01*
X3058268Y849252D02*
Y880748D01*
X2999213D02*
X3058268D01*
X2999213Y849252D02*
X3058268D01*
X3033465Y623504D02*
X3064961D01*
X3033465Y682559D02*
X3064961D01*
X3033465Y623504D02*
Y682559D01*
X3064961Y623504D02*
Y682559D01*
X698819Y771654D02*
Y803150D01*
X639764Y771654D02*
Y803150D01*
Y771654D02*
X698819D01*
X639764Y803150D02*
X698819D01*
X403543Y771654D02*
Y803150D01*
X462599Y771654D02*
Y803150D01*
X403543D02*
X462599D01*
X403543Y771654D02*
X462599D01*
X1748032Y1122637D02*
Y1181693D01*
X1716535Y1122637D02*
Y1181693D01*
X1748032D01*
X1716535Y1122637D02*
X1748032D01*
Y484842D02*
Y543898D01*
X1716535Y484842D02*
Y543898D01*
X1748032D01*
X1716535Y484842D02*
X1748032D01*
X2169054Y1503189D02*
Y1534685D01*
X2228110Y1503189D02*
Y1534685D01*
X2169054D02*
X2228110D01*
X2169054Y1503189D02*
X2228110D01*
X3062913Y348504D02*
Y380000D01*
X3121968Y348504D02*
Y380000D01*
X3062913D02*
X3121968D01*
X3062913Y348504D02*
X3121968D01*
X2995157D02*
Y380000D01*
X3054213Y348504D02*
Y380000D01*
X2995157D02*
X3054213D01*
X2995157Y348504D02*
X3054213D01*
X3121968Y387874D02*
Y419370D01*
X3062913Y387874D02*
Y419370D01*
Y387874D02*
X3121968D01*
X3062913Y419370D02*
X3121968D01*
X3054213Y387874D02*
Y419370D01*
X2995157Y387874D02*
Y419370D01*
Y387874D02*
X3054213D01*
X2995157Y419370D02*
X3054213D01*
X1978346Y171260D02*
Y202756D01*
X2037402Y171260D02*
Y202756D01*
X1978346D02*
X2037402D01*
X1978346Y171260D02*
X2037402D01*
X2450787Y53150D02*
Y84646D01*
X2509843Y53150D02*
Y84646D01*
X2450787D02*
X2509843D01*
X2450787Y53150D02*
X2509843D01*
X2375984Y218504D02*
X2407480D01*
X2375984Y277559D02*
X2407480D01*
X2375984Y218504D02*
Y277559D01*
X2407480Y218504D02*
Y277559D01*
X2868110Y218504D02*
X2899606D01*
X2868110Y277559D02*
X2899606D01*
X2868110Y218504D02*
Y277559D01*
X2899606Y218504D02*
Y277559D01*
X2923228Y171260D02*
Y202756D01*
X2982284Y171260D02*
Y202756D01*
X2923228D02*
X2982284D01*
X2923228Y171260D02*
X2982284D01*
X1387795Y1165354D02*
Y1196850D01*
X1446850Y1165354D02*
Y1196850D01*
X1387795D02*
X1446850D01*
X1387795Y1165354D02*
X1446850D01*
X1387795Y1086614D02*
Y1118110D01*
X1446850Y1086614D02*
Y1118110D01*
X1387795D02*
X1446850D01*
X1387795Y1086614D02*
X1446850D01*
X1230315Y1283465D02*
Y1314961D01*
X1289370Y1283465D02*
Y1314961D01*
X1230315D02*
X1289370D01*
X1230315Y1283465D02*
X1289370D01*
X1072835D02*
Y1314961D01*
X1131890Y1283465D02*
Y1314961D01*
X1072835D02*
X1131890D01*
X1072835Y1283465D02*
X1131890D01*
Y1086614D02*
Y1118110D01*
X1072835Y1086614D02*
Y1118110D01*
Y1086614D02*
X1131890D01*
X1072835Y1118110D02*
X1131890D01*
X974409Y1086614D02*
Y1118110D01*
X915354Y1086614D02*
Y1118110D01*
Y1086614D02*
X974409D01*
X915354Y1118110D02*
X974409D01*
X1446850Y200787D02*
Y232283D01*
X1387795Y200787D02*
Y232283D01*
Y200787D02*
X1446850D01*
X1387795Y232283D02*
X1446850D01*
X1131890Y771654D02*
Y803150D01*
X1072835Y771654D02*
Y803150D01*
Y771654D02*
X1131890D01*
X1072835Y803150D02*
X1131890D01*
X1072835Y929134D02*
Y960630D01*
X1131890Y929134D02*
Y960630D01*
X1072835D02*
X1131890D01*
X1072835Y929134D02*
X1131890D01*
X1289370Y771654D02*
Y803150D01*
X1230315Y771654D02*
Y803150D01*
Y771654D02*
X1289370D01*
X1230315Y803150D02*
X1289370D01*
X1230315Y929134D02*
Y960630D01*
X1289370Y929134D02*
Y960630D01*
X1230315D02*
X1289370D01*
X1230315Y929134D02*
X1289370D01*
X974409Y771654D02*
Y803150D01*
X915354Y771654D02*
Y803150D01*
Y771654D02*
X974409D01*
X915354Y803150D02*
X974409D01*
X915354Y929134D02*
Y960630D01*
X974409Y929134D02*
Y960630D01*
X915354D02*
X974409D01*
X915354Y929134D02*
X974409D01*
X954724Y555118D02*
Y586614D01*
X1013780Y555118D02*
Y586614D01*
X954724D02*
X1013780D01*
X954724Y555118D02*
X1013780D01*
Y358268D02*
Y389764D01*
X954724Y358268D02*
Y389764D01*
Y358268D02*
X1013780D01*
X954724Y389764D02*
X1013780D01*
X915354Y1283465D02*
Y1314961D01*
X974409Y1283465D02*
Y1314961D01*
X915354D02*
X974409D01*
X915354Y1283465D02*
X974409D01*
X1230315Y1165354D02*
Y1196850D01*
X1289370Y1165354D02*
Y1196850D01*
X1230315D02*
X1289370D01*
X1230315Y1165354D02*
X1289370D01*
X1072835D02*
Y1196850D01*
X1131890Y1165354D02*
Y1196850D01*
X1072835D02*
X1131890D01*
X1072835Y1165354D02*
X1131890D01*
%TF.MD5,a66f48fa635fee66405f8dd74d2c0a4f*%
M02*
