%TF.GenerationSoftware,Altium Limited,Altium Designer,20.0.13 (296)*%
G04 Layer_Color=0*
%FSLAX26Y26*%
%MOIN*%
%TF.FileFunction,Plated,1,6,PTH,Drill*%
%TF.Part,Single*%
G01*
G75*
%TA.AperFunction,OtherDrill,Pad Free-3 (3031.496mil,-78.74mil)*%
%ADD114C,0.019685*%
%TA.AperFunction,OtherDrill,Pad Free-3 (3070.866mil,-78.74mil)*%
%ADD115C,0.019685*%
%TA.AperFunction,OtherDrill,Pad Free-3 (2992.126mil,-78.74mil)*%
%ADD116C,0.019685*%
%TA.AperFunction,OtherDrill,Pad Free-3 (2952.756mil,-78.74mil)*%
%ADD117C,0.019685*%
%TA.AperFunction,OtherDrill,Pad Free-3 (2913.386mil,-78.74mil)*%
%ADD118C,0.019685*%
%TA.AperFunction,OtherDrill,Pad Free-3 (2874.016mil,-78.74mil)*%
%ADD119C,0.019685*%
%TA.AperFunction,OtherDrill,Pad Free-3 (2677.166mil,-78.74mil)*%
%ADD120C,0.019685*%
%TA.AperFunction,OtherDrill,Pad Free-3 (2716.536mil,-78.74mil)*%
%ADD121C,0.019685*%
%TA.AperFunction,OtherDrill,Pad Free-3 (2755.906mil,-78.74mil)*%
%ADD122C,0.019685*%
%TA.AperFunction,OtherDrill,Pad Free-3 (2795.276mil,-78.74mil)*%
%ADD123C,0.019685*%
%TA.AperFunction,OtherDrill,Pad Free-3 (2834.646mil,-78.74mil)*%
%ADD124C,0.019685*%
%TA.AperFunction,OtherDrill,Pad Free-3 (2440.946mil,-78.74mil)*%
%ADD125C,0.019685*%
%TA.AperFunction,OtherDrill,Pad Free-3 (2401.576mil,-78.74mil)*%
%ADD126C,0.019685*%
%TA.AperFunction,OtherDrill,Pad Free-3 (2362.206mil,-78.74mil)*%
%ADD127C,0.019685*%
%TA.AperFunction,OtherDrill,Pad Free-3 (2322.836mil,-78.74mil)*%
%ADD128C,0.019685*%
%TA.AperFunction,OtherDrill,Pad Free-3 (2283.466mil,-78.74mil)*%
%ADD129C,0.019685*%
%TA.AperFunction,OtherDrill,Pad Free-3 (2480.316mil,-78.74mil)*%
%ADD130C,0.019685*%
%TA.AperFunction,OtherDrill,Pad Free-3 (2519.686mil,-78.74mil)*%
%ADD131C,0.019685*%
%TA.AperFunction,OtherDrill,Pad Free-3 (2559.056mil,-78.74mil)*%
%ADD132C,0.019685*%
%TA.AperFunction,OtherDrill,Pad Free-3 (2598.426mil,-78.74mil)*%
%ADD133C,0.019685*%
%TA.AperFunction,OtherDrill,Pad Free-3 (2637.796mil,-78.74mil)*%
%ADD134C,0.019685*%
%TA.AperFunction,OtherDrill,Pad Free-3 (2047.246mil,-78.74mil)*%
%ADD135C,0.019685*%
%TA.AperFunction,OtherDrill,Pad Free-3 (2007.876mil,-78.74mil)*%
%ADD136C,0.019685*%
%TA.AperFunction,OtherDrill,Pad Free-3 (1968.506mil,-78.74mil)*%
%ADD137C,0.019685*%
%TA.AperFunction,OtherDrill,Pad Free-3 (1929.136mil,-78.74mil)*%
%ADD138C,0.019685*%
%TA.AperFunction,OtherDrill,Pad Free-3 (1889.766mil,-78.74mil)*%
%ADD139C,0.019685*%
%TA.AperFunction,OtherDrill,Pad Free-3 (2086.616mil,-78.74mil)*%
%ADD140C,0.019685*%
%TA.AperFunction,OtherDrill,Pad Free-3 (2125.986mil,-78.74mil)*%
%ADD141C,0.019685*%
%TA.AperFunction,OtherDrill,Pad Free-3 (2165.356mil,-78.74mil)*%
%ADD142C,0.019685*%
%TA.AperFunction,OtherDrill,Pad Free-3 (2204.726mil,-78.74mil)*%
%ADD143C,0.019685*%
%TA.AperFunction,OtherDrill,Pad Free-3 (2244.096mil,-78.74mil)*%
%ADD144C,0.019685*%
%TA.AperFunction,OtherDrill,Pad Free-3 (1653.546mil,-78.74mil)*%
%ADD145C,0.019685*%
%TA.AperFunction,OtherDrill,Pad Free-3 (1614.176mil,-78.74mil)*%
%ADD146C,0.019685*%
%TA.AperFunction,OtherDrill,Pad Free-3 (1574.806mil,-78.74mil)*%
%ADD147C,0.019685*%
%TA.AperFunction,OtherDrill,Pad Free-3 (1535.436mil,-78.74mil)*%
%ADD148C,0.019685*%
%TA.AperFunction,OtherDrill,Pad Free-3 (1496.066mil,-78.74mil)*%
%ADD149C,0.019685*%
%TA.AperFunction,OtherDrill,Pad Free-3 (1692.916mil,-78.74mil)*%
%ADD150C,0.019685*%
%TA.AperFunction,OtherDrill,Pad Free-3 (1732.286mil,-78.74mil)*%
%ADD151C,0.019685*%
%TA.AperFunction,OtherDrill,Pad Free-3 (1771.656mil,-78.74mil)*%
%ADD152C,0.019685*%
%TA.AperFunction,OtherDrill,Pad Free-3 (1811.026mil,-78.74mil)*%
%ADD153C,0.019685*%
%TA.AperFunction,OtherDrill,Pad Free-3 (1850.396mil,-78.74mil)*%
%ADD154C,0.019685*%
%TA.AperFunction,OtherDrill,Pad Free-3 (1259.846mil,-78.74mil)*%
%ADD155C,0.019685*%
%TA.AperFunction,OtherDrill,Pad Free-3 (1220.476mil,-78.74mil)*%
%ADD156C,0.019685*%
%TA.AperFunction,OtherDrill,Pad Free-3 (1181.106mil,-78.74mil)*%
%ADD157C,0.019685*%
%TA.AperFunction,OtherDrill,Pad Free-3 (1141.736mil,-78.74mil)*%
%ADD158C,0.019685*%
%TA.AperFunction,OtherDrill,Pad Free-3 (1102.366mil,-78.74mil)*%
%ADD159C,0.019685*%
%TA.AperFunction,OtherDrill,Pad Free-3 (1299.216mil,-78.74mil)*%
%ADD160C,0.019685*%
%TA.AperFunction,OtherDrill,Pad Free-3 (1338.586mil,-78.74mil)*%
%ADD161C,0.019685*%
%TA.AperFunction,OtherDrill,Pad Free-3 (1377.956mil,-78.74mil)*%
%ADD162C,0.019685*%
%TA.AperFunction,OtherDrill,Pad Free-3 (1417.326mil,-78.74mil)*%
%ADD163C,0.019685*%
%TA.AperFunction,OtherDrill,Pad Free-3 (1456.696mil,-78.74mil)*%
%ADD164C,0.019685*%
%TA.AperFunction,OtherDrill,Pad Free-3 (866.146mil,-78.74mil)*%
%ADD165C,0.019685*%
%TA.AperFunction,OtherDrill,Pad Free-3 (826.776mil,-78.74mil)*%
%ADD166C,0.019685*%
%TA.AperFunction,OtherDrill,Pad Free-3 (787.406mil,-78.74mil)*%
%ADD167C,0.019685*%
%TA.AperFunction,OtherDrill,Pad Free-3 (748.036mil,-78.74mil)*%
%ADD168C,0.019685*%
%TA.AperFunction,OtherDrill,Pad Free-3 (708.666mil,-78.74mil)*%
%ADD169C,0.019685*%
%TA.AperFunction,OtherDrill,Pad Free-3 (905.516mil,-78.74mil)*%
%ADD170C,0.019685*%
%TA.AperFunction,OtherDrill,Pad Free-3 (944.886mil,-78.74mil)*%
%ADD171C,0.019685*%
%TA.AperFunction,OtherDrill,Pad Free-3 (984.256mil,-78.74mil)*%
%ADD172C,0.019685*%
%TA.AperFunction,OtherDrill,Pad Free-3 (1023.626mil,-78.74mil)*%
%ADD173C,0.019685*%
%TA.AperFunction,OtherDrill,Pad Free-3 (1062.996mil,-78.74mil)*%
%ADD174C,0.019685*%
%TA.AperFunction,OtherDrill,Pad Free-3 (472.446mil,-78.74mil)*%
%ADD175C,0.019685*%
%TA.AperFunction,OtherDrill,Pad Free-3 (433.076mil,-78.74mil)*%
%ADD176C,0.019685*%
%TA.AperFunction,OtherDrill,Pad Free-3 (393.706mil,-78.74mil)*%
%ADD177C,0.019685*%
%TA.AperFunction,OtherDrill,Pad Free-3 (354.336mil,-78.74mil)*%
%ADD178C,0.019685*%
%TA.AperFunction,OtherDrill,Pad Free-3 (314.966mil,-78.74mil)*%
%ADD179C,0.019685*%
%TA.AperFunction,OtherDrill,Pad Free-3 (511.816mil,-78.74mil)*%
%ADD180C,0.019685*%
%TA.AperFunction,OtherDrill,Pad Free-3 (551.186mil,-78.74mil)*%
%ADD181C,0.019685*%
%TA.AperFunction,OtherDrill,Pad Free-3 (590.556mil,-78.74mil)*%
%ADD182C,0.019685*%
%TA.AperFunction,OtherDrill,Pad Free-3 (629.926mil,-78.74mil)*%
%ADD183C,0.019685*%
%TA.AperFunction,OtherDrill,Pad Free-3 (669.296mil,-78.74mil)*%
%ADD184C,0.019685*%
%TA.AperFunction,OtherDrill,Pad Free-3 (78.746mil,-78.74mil)*%
%ADD185C,0.019685*%
%TA.AperFunction,OtherDrill,Pad Free-3 (118.116mil,-78.74mil)*%
%ADD186C,0.019685*%
%TA.AperFunction,OtherDrill,Pad Free-3 (157.486mil,-78.74mil)*%
%ADD187C,0.019685*%
%TA.AperFunction,OtherDrill,Pad Free-3 (196.856mil,-78.74mil)*%
%ADD188C,0.019685*%
%TA.AperFunction,OtherDrill,Pad Free-3 (236.226mil,-78.74mil)*%
%ADD189C,0.019685*%
%TA.AperFunction,OtherDrill,Pad Free-3 (275.596mil,-78.74mil)*%
%ADD190C,0.019685*%
%TA.AperFunction,OtherDrill,Pad Free-3 (2874.01mil,1653.543mil)*%
%ADD191C,0.019685*%
%TA.AperFunction,OtherDrill,Pad Free-3 (2913.38mil,1653.543mil)*%
%ADD192C,0.019685*%
%TA.AperFunction,OtherDrill,Pad Free-3 (2952.75mil,1653.543mil)*%
%ADD193C,0.019685*%
%TA.AperFunction,OtherDrill,Pad Free-3 (2992.12mil,1653.543mil)*%
%ADD194C,0.019685*%
%TA.AperFunction,OtherDrill,Pad Free-3 (3031.49mil,1653.543mil)*%
%ADD195C,0.019685*%
%TA.AperFunction,OtherDrill,Pad Free-3 (3070.86mil,1653.543mil)*%
%ADD196C,0.019685*%
%TA.AperFunction,OtherDrill,Pad Free-3 (2480.31mil,1653.543mil)*%
%ADD197C,0.019685*%
%TA.AperFunction,OtherDrill,Pad Free-3 (2519.68mil,1653.543mil)*%
%ADD198C,0.019685*%
%TA.AperFunction,OtherDrill,Pad Free-3 (2559.05mil,1653.543mil)*%
%ADD199C,0.019685*%
%TA.AperFunction,OtherDrill,Pad Free-3 (2598.42mil,1653.543mil)*%
%ADD200C,0.019685*%
%TA.AperFunction,OtherDrill,Pad Free-3 (2637.79mil,1653.543mil)*%
%ADD201C,0.019685*%
%TA.AperFunction,OtherDrill,Pad Free-3 (2834.64mil,1653.543mil)*%
%ADD202C,0.019685*%
%TA.AperFunction,OtherDrill,Pad Free-3 (2795.27mil,1653.543mil)*%
%ADD203C,0.019685*%
%TA.AperFunction,OtherDrill,Pad Free-3 (2755.9mil,1653.543mil)*%
%ADD204C,0.019685*%
%TA.AperFunction,OtherDrill,Pad Free-3 (2716.53mil,1653.543mil)*%
%ADD205C,0.019685*%
%TA.AperFunction,OtherDrill,Pad Free-3 (2677.16mil,1653.543mil)*%
%ADD206C,0.019685*%
%TA.AperFunction,OtherDrill,Pad Free-3 (2086.61mil,1653.543mil)*%
%ADD207C,0.019685*%
%TA.AperFunction,OtherDrill,Pad Free-3 (2125.98mil,1653.543mil)*%
%ADD208C,0.019685*%
%TA.AperFunction,OtherDrill,Pad Free-3 (2165.35mil,1653.543mil)*%
%ADD209C,0.019685*%
%TA.AperFunction,OtherDrill,Pad Free-3 (2204.72mil,1653.543mil)*%
%ADD210C,0.019685*%
%TA.AperFunction,OtherDrill,Pad Free-3 (2244.09mil,1653.543mil)*%
%ADD211C,0.019685*%
%TA.AperFunction,OtherDrill,Pad Free-3 (2440.94mil,1653.543mil)*%
%ADD212C,0.019685*%
%TA.AperFunction,OtherDrill,Pad Free-3 (2401.57mil,1653.543mil)*%
%ADD213C,0.019685*%
%TA.AperFunction,OtherDrill,Pad Free-3 (2362.2mil,1653.543mil)*%
%ADD214C,0.019685*%
%TA.AperFunction,OtherDrill,Pad Free-3 (2322.83mil,1653.543mil)*%
%ADD215C,0.019685*%
%TA.AperFunction,OtherDrill,Pad Free-3 (2283.46mil,1653.543mil)*%
%ADD216C,0.019685*%
%TA.AperFunction,OtherDrill,Pad Free-3 (1692.91mil,1653.543mil)*%
%ADD217C,0.019685*%
%TA.AperFunction,OtherDrill,Pad Free-3 (1732.28mil,1653.543mil)*%
%ADD218C,0.019685*%
%TA.AperFunction,OtherDrill,Pad Free-3 (1771.65mil,1653.543mil)*%
%ADD219C,0.019685*%
%TA.AperFunction,OtherDrill,Pad Free-3 (1811.02mil,1653.543mil)*%
%ADD220C,0.019685*%
%TA.AperFunction,OtherDrill,Pad Free-3 (1850.39mil,1653.543mil)*%
%ADD221C,0.019685*%
%TA.AperFunction,OtherDrill,Pad Free-3 (2047.24mil,1653.543mil)*%
%ADD222C,0.019685*%
%TA.AperFunction,OtherDrill,Pad Free-3 (2007.87mil,1653.543mil)*%
%ADD223C,0.019685*%
%TA.AperFunction,OtherDrill,Pad Free-3 (1968.5mil,1653.543mil)*%
%ADD224C,0.019685*%
%TA.AperFunction,OtherDrill,Pad Free-3 (1929.13mil,1653.543mil)*%
%ADD225C,0.019685*%
%TA.AperFunction,OtherDrill,Pad Free-3 (1889.76mil,1653.543mil)*%
%ADD226C,0.019685*%
%TA.AperFunction,OtherDrill,Pad Free-3 (1299.21mil,1653.543mil)*%
%ADD227C,0.019685*%
%TA.AperFunction,OtherDrill,Pad Free-3 (1338.58mil,1653.543mil)*%
%ADD228C,0.019685*%
%TA.AperFunction,OtherDrill,Pad Free-3 (1377.95mil,1653.543mil)*%
%ADD229C,0.019685*%
%TA.AperFunction,OtherDrill,Pad Free-3 (1417.32mil,1653.543mil)*%
%ADD230C,0.019685*%
%TA.AperFunction,OtherDrill,Pad Free-3 (1456.69mil,1653.543mil)*%
%ADD231C,0.019685*%
%TA.AperFunction,OtherDrill,Pad Free-3 (1653.54mil,1653.543mil)*%
%ADD232C,0.019685*%
%TA.AperFunction,OtherDrill,Pad Free-3 (1614.17mil,1653.543mil)*%
%ADD233C,0.019685*%
%TA.AperFunction,OtherDrill,Pad Free-3 (1574.8mil,1653.543mil)*%
%ADD234C,0.019685*%
%TA.AperFunction,OtherDrill,Pad Free-3 (1535.43mil,1653.543mil)*%
%ADD235C,0.019685*%
%TA.AperFunction,OtherDrill,Pad Free-3 (1496.06mil,1653.543mil)*%
%ADD236C,0.019685*%
%TA.AperFunction,OtherDrill,Pad Free-3 (905.51mil,1653.543mil)*%
%ADD237C,0.019685*%
%TA.AperFunction,OtherDrill,Pad Free-3 (944.88mil,1653.543mil)*%
%ADD238C,0.019685*%
%TA.AperFunction,OtherDrill,Pad Free-3 (984.25mil,1653.543mil)*%
%ADD239C,0.019685*%
%TA.AperFunction,OtherDrill,Pad Free-3 (1023.62mil,1653.543mil)*%
%ADD240C,0.019685*%
%TA.AperFunction,OtherDrill,Pad Free-3 (1062.99mil,1653.543mil)*%
%ADD241C,0.019685*%
%TA.AperFunction,OtherDrill,Pad Free-3 (1259.84mil,1653.543mil)*%
%ADD242C,0.019685*%
%TA.AperFunction,OtherDrill,Pad Free-3 (1220.47mil,1653.543mil)*%
%ADD243C,0.019685*%
%TA.AperFunction,OtherDrill,Pad Free-3 (1181.1mil,1653.543mil)*%
%ADD244C,0.019685*%
%TA.AperFunction,OtherDrill,Pad Free-3 (1141.73mil,1653.543mil)*%
%ADD245C,0.019685*%
%TA.AperFunction,OtherDrill,Pad Free-3 (1102.36mil,1653.543mil)*%
%ADD246C,0.019685*%
%TA.AperFunction,OtherDrill,Pad Free-3 (511.81mil,1653.543mil)*%
%ADD247C,0.019685*%
%TA.AperFunction,OtherDrill,Pad Free-3 (551.18mil,1653.543mil)*%
%ADD248C,0.019685*%
%TA.AperFunction,OtherDrill,Pad Free-3 (590.55mil,1653.543mil)*%
%ADD249C,0.019685*%
%TA.AperFunction,OtherDrill,Pad Free-3 (629.92mil,1653.543mil)*%
%ADD250C,0.019685*%
%TA.AperFunction,OtherDrill,Pad Free-3 (669.29mil,1653.543mil)*%
%ADD251C,0.019685*%
%TA.AperFunction,OtherDrill,Pad Free-3 (866.14mil,1653.543mil)*%
%ADD252C,0.019685*%
%TA.AperFunction,OtherDrill,Pad Free-3 (826.77mil,1653.543mil)*%
%ADD253C,0.019685*%
%TA.AperFunction,OtherDrill,Pad Free-3 (787.4mil,1653.543mil)*%
%ADD254C,0.019685*%
%TA.AperFunction,OtherDrill,Pad Free-3 (748.03mil,1653.543mil)*%
%ADD255C,0.019685*%
%TA.AperFunction,OtherDrill,Pad Free-3 (708.66mil,1653.543mil)*%
%ADD256C,0.019685*%
%TA.AperFunction,OtherDrill,Pad Free-3 (314.96mil,1653.543mil)*%
%ADD257C,0.019685*%
%TA.AperFunction,OtherDrill,Pad Free-3 (354.33mil,1653.543mil)*%
%ADD258C,0.019685*%
%TA.AperFunction,OtherDrill,Pad Free-3 (393.7mil,1653.543mil)*%
%ADD259C,0.019685*%
%TA.AperFunction,OtherDrill,Pad Free-3 (433.07mil,1653.543mil)*%
%ADD260C,0.019685*%
%TA.AperFunction,OtherDrill,Pad Free-3 (472.44mil,1653.543mil)*%
%ADD261C,0.019685*%
%TA.AperFunction,OtherDrill,Pad Free-3 (275.59mil,1653.543mil)*%
%ADD262C,0.019685*%
%TA.AperFunction,OtherDrill,Pad Free-3 (236.22mil,1653.543mil)*%
%ADD263C,0.019685*%
%TA.AperFunction,OtherDrill,Pad Free-3 (196.85mil,1653.543mil)*%
%ADD264C,0.019685*%
%TA.AperFunction,OtherDrill,Pad Free-3 (157.48mil,1653.543mil)*%
%ADD265C,0.019685*%
%TA.AperFunction,OtherDrill,Pad Free-3 (78.74mil,1653.543mil)*%
%ADD266C,0.019685*%
%TA.AperFunction,OtherDrill,Pad Free-3 (118.11mil,1653.543mil)*%
%ADD267C,0.019685*%
%TA.AperFunction,OtherDrill,Pad Free-3 (3228.346mil,1299.213mil)*%
%ADD268C,0.019685*%
%TA.AperFunction,OtherDrill,Pad Free-3 (3228.346mil,1259.843mil)*%
%ADD269C,0.019685*%
%TA.AperFunction,OtherDrill,Pad Free-3 (3228.346mil,1220.473mil)*%
%ADD270C,0.019685*%
%TA.AperFunction,OtherDrill,Pad Free-3 (3228.346mil,1181.102mil)*%
%ADD271C,0.019685*%
%TA.AperFunction,OtherDrill,Pad Free-3 (3228.346mil,1141.732mil)*%
%ADD272C,0.019685*%
%TA.AperFunction,OtherDrill,Pad Free-3 (3228.346mil,1102.362mil)*%
%ADD273C,0.019685*%
%TA.AperFunction,OtherDrill,Pad Free-3 (3228.346mil,1062.992mil)*%
%ADD274C,0.019685*%
%TA.AperFunction,OtherDrill,Pad Free-3 (3228.346mil,1023.622mil)*%
%ADD275C,0.019685*%
%TA.AperFunction,OtherDrill,Pad Free-3 (3228.346mil,984.252mil)*%
%ADD276C,0.019685*%
%TA.AperFunction,OtherDrill,Pad Free-3 (3228.346mil,944.882mil)*%
%ADD277C,0.019685*%
%TA.AperFunction,OtherDrill,Pad Free-3 (3228.346mil,905.512mil)*%
%ADD278C,0.019685*%
%TA.AperFunction,OtherDrill,Pad Free-3 (3228.346mil,866.142mil)*%
%ADD279C,0.019685*%
%TA.AperFunction,OtherDrill,Pad Free-3 (3228.346mil,826.772mil)*%
%ADD280C,0.019685*%
%TA.AperFunction,OtherDrill,Pad Free-3 (3228.346mil,787.402mil)*%
%ADD281C,0.019685*%
%TA.AperFunction,OtherDrill,Pad Free-3 (3228.346mil,748.032mil)*%
%ADD282C,0.019685*%
%TA.AperFunction,OtherDrill,Pad Free-3 (3228.346mil,708.662mil)*%
%ADD283C,0.019685*%
%TA.AperFunction,OtherDrill,Pad Free-3 (3228.346mil,669.291mil)*%
%ADD284C,0.019685*%
%TA.AperFunction,OtherDrill,Pad Free-3 (3228.346mil,629.921mil)*%
%ADD285C,0.019685*%
%TA.AperFunction,OtherDrill,Pad Free-3 (3228.346mil,590.551mil)*%
%ADD286C,0.019685*%
%TA.AperFunction,OtherDrill,Pad Free-3 (3228.346mil,551.181mil)*%
%ADD287C,0.019685*%
%TA.AperFunction,OtherDrill,Pad Free-3 (3228.346mil,78.74mil)*%
%ADD288C,0.019685*%
%TA.AperFunction,OtherDrill,Pad Free-3 (3228.346mil,118.11mil)*%
%ADD289C,0.019685*%
%TA.AperFunction,OtherDrill,Pad Free-3 (3228.346mil,157.48mil)*%
%ADD290C,0.019685*%
%TA.AperFunction,OtherDrill,Pad Free-3 (3228.346mil,196.85mil)*%
%ADD291C,0.019685*%
%TA.AperFunction,OtherDrill,Pad Free-3 (3228.346mil,236.22mil)*%
%ADD292C,0.019685*%
%TA.AperFunction,OtherDrill,Pad Free-3 (3228.346mil,275.591mil)*%
%ADD293C,0.019685*%
%TA.AperFunction,OtherDrill,Pad Free-3 (3228.346mil,314.961mil)*%
%ADD294C,0.019685*%
%TA.AperFunction,OtherDrill,Pad Free-3 (3228.346mil,354.331mil)*%
%ADD295C,0.019685*%
%TA.AperFunction,OtherDrill,Pad Free-3 (3228.346mil,393.701mil)*%
%ADD296C,0.019685*%
%TA.AperFunction,OtherDrill,Pad Free-3 (3228.346mil,433.071mil)*%
%ADD297C,0.019685*%
%TA.AperFunction,OtherDrill,Pad Free-3 (3228.346mil,472.441mil)*%
%ADD298C,0.019685*%
%TA.AperFunction,OtherDrill,Pad Free-3 (3228.346mil,511.811mil)*%
%ADD299C,0.019685*%
%TA.AperFunction,OtherDrill,Pad Free-3 (3228.346mil,1338.583mil)*%
%ADD300C,0.019685*%
%TA.AperFunction,OtherDrill,Pad Free-3 (3228.346mil,1377.953mil)*%
%ADD301C,0.019685*%
%TA.AperFunction,OtherDrill,Pad Free-3 (3228.346mil,1417.323mil)*%
%ADD302C,0.019685*%
%TA.AperFunction,OtherDrill,Pad Free-3 (3228.346mil,1456.693mil)*%
%ADD303C,0.019685*%
%TA.AperFunction,OtherDrill,Pad Free-3 (3228.346mil,1496.063mil)*%
%ADD304C,0.019685*%
%TA.AperFunction,OtherDrill,Pad Free-2 (3149.606mil,1574.803mil)*%
%ADD305C,0.118110*%
%TA.AperFunction,OtherDrill,Pad Free-2 (3149.606mil,0mil)*%
%ADD306C,0.118110*%
%TA.AperFunction,OtherDrill,Pad Free-2 (0mil,1574.803mil)*%
%ADD307C,0.118110*%
%TA.AperFunction,OtherDrill,Pad Free-2 (0mil,0mil)*%
%ADD308C,0.118110*%
%TA.AperFunction,OtherDrill,Pad Free-3 (-78.74mil,78.74mil)*%
%ADD309C,0.019685*%
%TA.AperFunction,OtherDrill,Pad Free-3 (-78.74mil,118.11mil)*%
%ADD310C,0.019685*%
%TA.AperFunction,OtherDrill,Pad Free-3 (-78.74mil,157.48mil)*%
%ADD311C,0.019685*%
%TA.AperFunction,OtherDrill,Pad Free-3 (-78.74mil,196.85mil)*%
%ADD312C,0.019685*%
%TA.AperFunction,OtherDrill,Pad Free-3 (-78.74mil,236.22mil)*%
%ADD313C,0.019685*%
%TA.AperFunction,OtherDrill,Pad Free-3 (-78.74mil,1062.992mil)*%
%ADD314C,0.019685*%
%TA.AperFunction,OtherDrill,Pad Free-3 (-78.74mil,1102.362mil)*%
%ADD315C,0.019685*%
%TA.AperFunction,OtherDrill,Pad Free-3 (-78.74mil,1141.732mil)*%
%ADD316C,0.019685*%
%TA.AperFunction,OtherDrill,Pad Free-3 (-78.74mil,1181.102mil)*%
%ADD317C,0.019685*%
%TA.AperFunction,OtherDrill,Pad Free-3 (-78.74mil,1220.473mil)*%
%ADD318C,0.019685*%
%TA.AperFunction,OtherDrill,Pad Free-3 (-78.74mil,1259.842mil)*%
%ADD319C,0.019685*%
%TA.AperFunction,OtherDrill,Pad Free-3 (-78.74mil,1299.213mil)*%
%ADD320C,0.019685*%
%TA.AperFunction,OtherDrill,Pad Free-3 (-78.74mil,1338.583mil)*%
%ADD321C,0.019685*%
%TA.AperFunction,OtherDrill,Pad Free-3 (-78.74mil,1377.953mil)*%
%ADD322C,0.019685*%
%TA.AperFunction,OtherDrill,Pad Free-3 (-78.74mil,1417.323mil)*%
%ADD323C,0.019685*%
%TA.AperFunction,OtherDrill,Pad Free-3 (-78.74mil,1456.693mil)*%
%ADD324C,0.019685*%
%TA.AperFunction,OtherDrill,Pad Free-3 (-78.74mil,1496.063mil)*%
%ADD325C,0.019685*%
%TA.AperFunction,OtherDrill,Pad Free-3 (-78.74mil,1023.622mil)*%
%ADD326C,0.019685*%
%TA.AperFunction,OtherDrill,Pad Free-3 (-78.74mil,984.252mil)*%
%ADD327C,0.019685*%
%TA.AperFunction,OtherDrill,Pad Free-3 (-78.74mil,944.882mil)*%
%ADD328C,0.019685*%
%TA.AperFunction,OtherDrill,Pad Free-3 (-78.74mil,905.512mil)*%
%ADD329C,0.019685*%
%TA.AperFunction,OtherDrill,Pad Free-3 (-78.74mil,866.142mil)*%
%ADD330C,0.019685*%
%TA.AperFunction,OtherDrill,Pad Free-3 (-78.74mil,826.772mil)*%
%ADD331C,0.019685*%
%TA.AperFunction,OtherDrill,Pad Free-3 (-78.74mil,787.402mil)*%
%ADD332C,0.019685*%
%TA.AperFunction,OtherDrill,Pad Free-3 (-78.74mil,748.032mil)*%
%ADD333C,0.019685*%
%TA.AperFunction,OtherDrill,Pad Free-3 (-78.74mil,708.661mil)*%
%ADD334C,0.019685*%
%TA.AperFunction,OtherDrill,Pad Free-3 (-78.74mil,669.291mil)*%
%ADD335C,0.019685*%
%TA.AperFunction,OtherDrill,Pad Free-3 (-78.74mil,629.921mil)*%
%ADD336C,0.019685*%
%TA.AperFunction,OtherDrill,Pad Free-3 (-78.74mil,590.551mil)*%
%ADD337C,0.019685*%
%TA.AperFunction,OtherDrill,Pad Free-3 (-78.74mil,551.181mil)*%
%ADD338C,0.019685*%
%TA.AperFunction,OtherDrill,Pad Free-3 (-78.74mil,511.811mil)*%
%ADD339C,0.019685*%
%TA.AperFunction,OtherDrill,Pad Free-3 (-78.74mil,472.441mil)*%
%ADD340C,0.019685*%
%TA.AperFunction,OtherDrill,Pad Free-3 (-78.74mil,433.071mil)*%
%ADD341C,0.019685*%
%TA.AperFunction,OtherDrill,Pad Free-3 (-78.74mil,393.701mil)*%
%ADD342C,0.019685*%
%TA.AperFunction,OtherDrill,Pad Free-3 (-78.74mil,354.331mil)*%
%ADD343C,0.019685*%
%TA.AperFunction,OtherDrill,Pad Free-3 (-78.74mil,314.961mil)*%
%ADD344C,0.019685*%
%TA.AperFunction,OtherDrill,Pad Free-3 (-78.74mil,275.591mil)*%
%ADD345C,0.019685*%
%TA.AperFunction,ViaDrill,NotFilled*%
%ADD346C,0.007874*%
D114*
X3031496Y-78740D02*
D03*
D115*
X3070866D02*
D03*
D116*
X2992126D02*
D03*
D117*
X2952756D02*
D03*
D118*
X2913386D02*
D03*
D119*
X2874016D02*
D03*
D120*
X2677166D02*
D03*
D121*
X2716536D02*
D03*
D122*
X2755906D02*
D03*
D123*
X2795276D02*
D03*
D124*
X2834646D02*
D03*
D125*
X2440946D02*
D03*
D126*
X2401576D02*
D03*
D127*
X2362206D02*
D03*
D128*
X2322836D02*
D03*
D129*
X2283466D02*
D03*
D130*
X2480316D02*
D03*
D131*
X2519686D02*
D03*
D132*
X2559056D02*
D03*
D133*
X2598426D02*
D03*
D134*
X2637796D02*
D03*
D135*
X2047246D02*
D03*
D136*
X2007876D02*
D03*
D137*
X1968506D02*
D03*
D138*
X1929136D02*
D03*
D139*
X1889766D02*
D03*
D140*
X2086616D02*
D03*
D141*
X2125986D02*
D03*
D142*
X2165356D02*
D03*
D143*
X2204726D02*
D03*
D144*
X2244096D02*
D03*
D145*
X1653546D02*
D03*
D146*
X1614176D02*
D03*
D147*
X1574806D02*
D03*
D148*
X1535436D02*
D03*
D149*
X1496066D02*
D03*
D150*
X1692916D02*
D03*
D151*
X1732286D02*
D03*
D152*
X1771656D02*
D03*
D153*
X1811026D02*
D03*
D154*
X1850396D02*
D03*
D155*
X1259846D02*
D03*
D156*
X1220476D02*
D03*
D157*
X1181106D02*
D03*
D158*
X1141736D02*
D03*
D159*
X1102366D02*
D03*
D160*
X1299216D02*
D03*
D161*
X1338586D02*
D03*
D162*
X1377956D02*
D03*
D163*
X1417326D02*
D03*
D164*
X1456696D02*
D03*
D165*
X866146D02*
D03*
D166*
X826776D02*
D03*
D167*
X787406D02*
D03*
D168*
X748036D02*
D03*
D169*
X708666D02*
D03*
D170*
X905516D02*
D03*
D171*
X944886D02*
D03*
D172*
X984256D02*
D03*
D173*
X1023626D02*
D03*
D174*
X1062996D02*
D03*
D175*
X472446D02*
D03*
D176*
X433076D02*
D03*
D177*
X393706D02*
D03*
D178*
X354336D02*
D03*
D179*
X314966D02*
D03*
D180*
X511816D02*
D03*
D181*
X551186D02*
D03*
D182*
X590556D02*
D03*
D183*
X629926D02*
D03*
D184*
X669296D02*
D03*
D185*
X78746D02*
D03*
D186*
X118116D02*
D03*
D187*
X157486D02*
D03*
D188*
X196856D02*
D03*
D189*
X236226D02*
D03*
D190*
X275596D02*
D03*
D191*
X2874010Y1653543D02*
D03*
D192*
X2913380D02*
D03*
D193*
X2952750D02*
D03*
D194*
X2992120D02*
D03*
D195*
X3031490D02*
D03*
D196*
X3070860D02*
D03*
D197*
X2480310D02*
D03*
D198*
X2519680D02*
D03*
D199*
X2559050D02*
D03*
D200*
X2598420D02*
D03*
D201*
X2637790D02*
D03*
D202*
X2834640D02*
D03*
D203*
X2795270D02*
D03*
D204*
X2755900D02*
D03*
D205*
X2716530D02*
D03*
D206*
X2677160D02*
D03*
D207*
X2086610D02*
D03*
D208*
X2125980D02*
D03*
D209*
X2165350D02*
D03*
D210*
X2204720D02*
D03*
D211*
X2244090D02*
D03*
D212*
X2440940D02*
D03*
D213*
X2401570D02*
D03*
D214*
X2362200D02*
D03*
D215*
X2322830D02*
D03*
D216*
X2283460D02*
D03*
D217*
X1692910D02*
D03*
D218*
X1732280D02*
D03*
D219*
X1771650D02*
D03*
D220*
X1811020D02*
D03*
D221*
X1850390D02*
D03*
D222*
X2047240D02*
D03*
D223*
X2007870D02*
D03*
D224*
X1968500D02*
D03*
D225*
X1929130D02*
D03*
D226*
X1889760D02*
D03*
D227*
X1299210D02*
D03*
D228*
X1338580D02*
D03*
D229*
X1377950D02*
D03*
D230*
X1417320D02*
D03*
D231*
X1456690D02*
D03*
D232*
X1653540D02*
D03*
D233*
X1614170D02*
D03*
D234*
X1574800D02*
D03*
D235*
X1535430D02*
D03*
D236*
X1496060D02*
D03*
D237*
X905510D02*
D03*
D238*
X944880D02*
D03*
D239*
X984250D02*
D03*
D240*
X1023620D02*
D03*
D241*
X1062990D02*
D03*
D242*
X1259840D02*
D03*
D243*
X1220470D02*
D03*
D244*
X1181100D02*
D03*
D245*
X1141730D02*
D03*
D246*
X1102360D02*
D03*
D247*
X511810D02*
D03*
D248*
X551180D02*
D03*
D249*
X590550D02*
D03*
D250*
X629920D02*
D03*
D251*
X669290D02*
D03*
D252*
X866140D02*
D03*
D253*
X826770D02*
D03*
D254*
X787400D02*
D03*
D255*
X748030D02*
D03*
D256*
X708660D02*
D03*
D257*
X314960D02*
D03*
D258*
X354330D02*
D03*
D259*
X393700D02*
D03*
D260*
X433070D02*
D03*
D261*
X472440D02*
D03*
D262*
X275590D02*
D03*
D263*
X236220D02*
D03*
D264*
X196850D02*
D03*
D265*
X157480D02*
D03*
D266*
X78740D02*
D03*
D267*
X118110D02*
D03*
D268*
X3228346Y1299213D02*
D03*
D269*
Y1259843D02*
D03*
D270*
Y1220473D02*
D03*
D271*
Y1181102D02*
D03*
D272*
Y1141732D02*
D03*
D273*
Y1102362D02*
D03*
D274*
Y1062992D02*
D03*
D275*
Y1023622D02*
D03*
D276*
Y984252D02*
D03*
D277*
Y944882D02*
D03*
D278*
Y905512D02*
D03*
D279*
Y866142D02*
D03*
D280*
Y826772D02*
D03*
D281*
Y787402D02*
D03*
D282*
Y748032D02*
D03*
D283*
Y708662D02*
D03*
D284*
Y669291D02*
D03*
D285*
Y629921D02*
D03*
D286*
Y590551D02*
D03*
D287*
Y551181D02*
D03*
D288*
Y78740D02*
D03*
D289*
Y118110D02*
D03*
D290*
Y157480D02*
D03*
D291*
Y196850D02*
D03*
D292*
Y236220D02*
D03*
D293*
Y275591D02*
D03*
D294*
Y314961D02*
D03*
D295*
Y354331D02*
D03*
D296*
Y393701D02*
D03*
D297*
Y433071D02*
D03*
D298*
Y472441D02*
D03*
D299*
Y511811D02*
D03*
D300*
Y1338583D02*
D03*
D301*
Y1377953D02*
D03*
D302*
Y1417323D02*
D03*
D303*
Y1456693D02*
D03*
D304*
Y1496063D02*
D03*
D305*
X3149606Y1574803D02*
D03*
D306*
Y0D02*
D03*
D307*
X0Y1574803D02*
D03*
D308*
Y0D02*
D03*
D309*
X-78740Y78740D02*
D03*
D310*
Y118110D02*
D03*
D311*
Y157480D02*
D03*
D312*
Y196850D02*
D03*
D313*
Y236220D02*
D03*
D314*
Y1062992D02*
D03*
D315*
Y1102362D02*
D03*
D316*
Y1141732D02*
D03*
D317*
Y1181102D02*
D03*
D318*
Y1220473D02*
D03*
D319*
Y1259842D02*
D03*
D320*
Y1299213D02*
D03*
D321*
Y1338583D02*
D03*
D322*
Y1377953D02*
D03*
D323*
Y1417323D02*
D03*
D324*
Y1456693D02*
D03*
D325*
Y1496063D02*
D03*
D326*
Y1023622D02*
D03*
D327*
Y984252D02*
D03*
D328*
Y944882D02*
D03*
D329*
Y905512D02*
D03*
D330*
Y866142D02*
D03*
D331*
Y826772D02*
D03*
D332*
Y787402D02*
D03*
D333*
Y748032D02*
D03*
D334*
Y708661D02*
D03*
D335*
Y669291D02*
D03*
D336*
Y629921D02*
D03*
D337*
Y590551D02*
D03*
D338*
Y551181D02*
D03*
D339*
Y511811D02*
D03*
D340*
Y472441D02*
D03*
D341*
Y433071D02*
D03*
D342*
Y393701D02*
D03*
D343*
Y354331D02*
D03*
D344*
Y314961D02*
D03*
D345*
Y275591D02*
D03*
D346*
X2100394Y1477362D02*
D03*
X2139764D02*
D03*
X2179134D02*
D03*
X2218504D02*
D03*
X2257874D02*
D03*
X2297244D02*
D03*
X2336614D02*
D03*
Y1556102D02*
D03*
X2218504D02*
D03*
X2179134D02*
D03*
X2061023Y1477362D02*
D03*
Y1556102D02*
D03*
%TF.MD5,ea18e54be10acb641353cabc4768362c*%
M02*
