%TF.GenerationSoftware,Altium Limited,Altium Designer,20.0.13 (296)*%
G04 Layer_Color=2752767*
%FSLAX26Y26*%
%MOIN*%
%TF.FileFunction,Drawing*%
%TF.Part,Single*%
G01*
G75*
%TA.AperFunction,NonConductor*%
%ADD93C,0.005000*%
D93*
X1599409Y1341220D02*
X1579409Y1381220D01*
X1619409D01*
X1599409Y1341220D01*
X819882Y1036102D02*
X799882Y1076102D01*
X839882D01*
X819882Y1036102D01*
X424213Y1368780D02*
X404213Y1408780D01*
X444213D01*
X424213Y1368780D01*
X199803Y1149291D02*
X179803Y1189291D01*
X219803D01*
X199803Y1149291D01*
X195866Y805787D02*
X175866Y845787D01*
X215866D01*
X195866Y805787D01*
X326772Y143386D02*
X306772Y183386D01*
X346772D01*
X326772Y143386D01*
X667323Y321535D02*
X647323Y361535D01*
X687323D01*
X667323Y321535D01*
X750000Y552835D02*
X730000Y592835D01*
X770000D01*
X750000Y552835D01*
X1464567Y685709D02*
X1444567Y725709D01*
X1484567D01*
X1464567Y685709D01*
X1659449Y1078425D02*
X1639449Y1118425D01*
X1679449D01*
X1659449Y1078425D01*
X1458661Y1024291D02*
X1438661Y1064291D01*
X1478661D01*
X1458661Y1024291D01*
X1785433Y688661D02*
X1765433Y728661D01*
X1805433D01*
X1785433Y688661D01*
X1844488Y826457D02*
X1824488Y866457D01*
X1864488D01*
X1844488Y826457D01*
X1848425Y919961D02*
X1828425Y959961D01*
X1868425D01*
X1848425Y919961D01*
X1936024Y933740D02*
X1916024Y973740D01*
X1956024D01*
X1936024Y933740D01*
X2102362Y1109921D02*
X2082362Y1149921D01*
X2122362D01*
X2102362Y1109921D01*
X2372047Y1114842D02*
X2352047Y1154842D01*
X2392047D01*
X2372047Y1114842D01*
X2825787Y1302835D02*
X2805787Y1342835D01*
X2845787D01*
X2825787Y1302835D01*
X2639764Y1154213D02*
X2619764Y1194213D01*
X2659764D01*
X2639764Y1154213D01*
X2707677Y958346D02*
X2687677Y998346D01*
X2727677D01*
X2707677Y958346D01*
X2713583Y728032D02*
X2693583Y768032D01*
X2733583D01*
X2713583Y728032D01*
X2847441Y123701D02*
X2827441Y163701D01*
X2867441D01*
X2847441Y123701D01*
X2641732Y553819D02*
X2621732Y593819D01*
X2661732D01*
X2641732Y553819D01*
X2672244Y385512D02*
X2652244Y425512D01*
X2692244D01*
X2672244Y385512D01*
X2401575Y108937D02*
X2381575Y148937D01*
X2421575D01*
X2401575Y108937D01*
X2510827Y102047D02*
X2490827Y142047D01*
X2530827D01*
X2510827Y102047D01*
X2109252Y59724D02*
X2089252Y99724D01*
X2129252D01*
X2109252Y59724D01*
X1780512Y154213D02*
X1760512Y194213D01*
X1800512D01*
X1780512Y154213D01*
X1563976Y142402D02*
X1543976Y182402D01*
X1583976D01*
X1563976Y142402D01*
X1446850Y18386D02*
X1426850Y58386D01*
X1466850D01*
X1446850Y18386D01*
X1171260Y190630D02*
X1151260Y230630D01*
X1191260D01*
X1171260Y190630D01*
X2224409Y316122D02*
X2204409Y356122D01*
X2244409D01*
X2224409Y316122D01*
X1557087Y691614D02*
X1537087Y731614D01*
X1577087D01*
X1557087Y691614D01*
X1123241Y528477D02*
X1103241Y568477D01*
X1143241D01*
X1123241Y528477D01*
X1220473Y546929D02*
X1200473Y586929D01*
X1240473D01*
X1220473Y546929D01*
X1102362D02*
X1082362Y586929D01*
X1122362D01*
X1102362Y546929D01*
X1141226D02*
X1121226Y586929D01*
X1161226D01*
X1141226Y546929D01*
X1181102D02*
X1161102Y586929D01*
X1201102D01*
X1181102Y546929D01*
X984252Y221142D02*
X964252Y261142D01*
X1004252D01*
X984252Y221142D01*
X1102362D02*
X1082362Y261142D01*
X1122362D01*
X1102362Y221142D01*
X2531496Y542402D02*
X2511496Y582402D01*
X2551496D01*
X2531496Y542402D01*
X2224409Y193583D02*
X2204409Y233583D01*
X2244409D01*
X2224409Y193583D01*
X2278008Y39055D02*
X2258008Y79055D01*
X2298008D01*
X2278008Y39055D01*
X2836614Y242402D02*
X2816614Y282402D01*
X2856614D01*
X2836614Y242402D01*
X2834646Y292402D02*
X2814646Y332402D01*
X2854646D01*
X2834646Y292402D01*
Y592402D02*
X2814646Y632402D01*
X2854646D01*
X2834646Y592402D01*
X2188976Y481969D02*
X2168976Y521969D01*
X2208976D01*
X2188976Y481969D01*
X2229331Y555787D02*
X2209331Y595787D01*
X2249331D01*
X2229331Y555787D01*
Y480000D02*
X2209331Y520000D01*
X2249331D01*
X2229331Y480000D01*
X2116142D02*
X2096142Y520000D01*
X2136142D01*
X2116142Y480000D01*
X1819882Y555787D02*
X1799882Y595787D01*
X1839882D01*
X1819882Y555787D01*
X1647638Y331378D02*
X1627638Y371378D01*
X1667638D01*
X1647638Y331378D01*
X2163386Y511496D02*
X2143386Y551496D01*
X2183386D01*
X2163386Y511496D01*
X1616142Y480000D02*
X1596142Y520000D01*
X1636142D01*
X1616142Y480000D01*
X1013487Y334584D02*
X993487Y374584D01*
X1033487D01*
X1013487Y334584D01*
X1458898Y176850D02*
X1438898Y216850D01*
X1478898D01*
X1458898Y176850D01*
Y137480D02*
X1438898Y177480D01*
X1478898D01*
X1458898Y137480D01*
X2834717Y191237D02*
X2814717Y231237D01*
X2854717D01*
X2834717Y191237D01*
X2834646Y342402D02*
X2814646Y382402D01*
X2854646D01*
X2834646Y342402D01*
Y492402D02*
X2814646Y532402D01*
X2854646D01*
X2834646Y492402D01*
Y542402D02*
X2814646Y582402D01*
X2854646D01*
X2834646Y542402D01*
Y392402D02*
X2814646Y432402D01*
X2854646D01*
X2834646Y392402D01*
Y442402D02*
X2814646Y482402D01*
X2854646D01*
X2834646Y442402D01*
X1161417Y527284D02*
X1141417Y567284D01*
X1181417D01*
X1161417Y527284D01*
X1200787D02*
X1180787Y567284D01*
X1220787D01*
X1200787Y527284D01*
X1082677D02*
X1062677Y567284D01*
X1102677D01*
X1082677Y527284D01*
X314961Y542402D02*
X294961Y582402D01*
X334961D01*
X314961Y542402D01*
Y392402D02*
X294961Y432402D01*
X334961D01*
X314961Y392402D01*
X472441Y992402D02*
X452441Y1032402D01*
X492441D01*
X472441Y992402D01*
X1437047Y531181D02*
X1417047Y571181D01*
X1457047D01*
X1437047Y531181D01*
X2531496Y242402D02*
X2511496Y282402D01*
X2551496D01*
X2531496Y242402D01*
Y292402D02*
X2511496Y332402D01*
X2551496D01*
X2531496Y292402D01*
Y342402D02*
X2511496Y382402D01*
X2551496D01*
X2531496Y342402D01*
Y392402D02*
X2511496Y432402D01*
X2551496D01*
X2531496Y392402D01*
Y442402D02*
X2511496Y482402D01*
X2551496D01*
X2531496Y442402D01*
Y492402D02*
X2511496Y532402D01*
X2551496D01*
X2531496Y492402D01*
Y592402D02*
X2511496Y632402D01*
X2551496D01*
X2531496Y592402D01*
X661417Y442402D02*
X641417Y482402D01*
X681417D01*
X661417Y442402D01*
X993841Y314899D02*
X973841Y354899D01*
X1013841D01*
X993841Y314899D01*
X661417Y492402D02*
X641417Y532402D01*
X681417D01*
X661417Y492402D01*
X473425Y1043579D02*
X453425Y1083579D01*
X493425D01*
X473425Y1043579D01*
X1082677Y201496D02*
X1062677Y241496D01*
X1102677D01*
X1082677Y201496D01*
X1062992Y221142D02*
X1042992Y261142D01*
X1082992D01*
X1062992Y221142D01*
X1043814Y201496D02*
X1023814Y241496D01*
X1063814D01*
X1043814Y201496D01*
X1023622Y221142D02*
X1003622Y261142D01*
X1043622D01*
X1023622Y221142D01*
X1003937Y201496D02*
X983937Y241496D01*
X1023937D01*
X1003937Y201496D01*
X964567D02*
X944567Y241496D01*
X984567D01*
X964567Y201496D01*
X1437047Y452441D02*
X1417047Y492441D01*
X1457047D01*
X1437047Y452441D01*
Y491811D02*
X1417047Y531811D01*
X1457047D01*
X1437047Y491811D01*
X314961Y892402D02*
X294961Y932402D01*
X334961D01*
X314961Y892402D01*
Y942402D02*
X294961Y982402D01*
X334961D01*
X314961Y942402D01*
Y992402D02*
X294961Y1032402D01*
X334961D01*
X314961Y992402D01*
X314961Y1042402D02*
X294961Y1082402D01*
X334961D01*
X314961Y1042402D01*
X314961Y1092402D02*
X294961Y1132402D01*
X334961D01*
X314961Y1092402D01*
Y1142402D02*
X294961Y1182402D01*
X334961D01*
X314961Y1142402D01*
Y1192402D02*
X294961Y1232402D01*
X334961D01*
X314961Y1192402D01*
Y1242402D02*
X294961Y1282402D01*
X334961D01*
X314961Y1242402D01*
X1259843Y141378D02*
X1239843Y181378D01*
X1279843D01*
X1259843Y141378D01*
X1240158Y121732D02*
X1220158Y161732D01*
X1260158D01*
X1240158Y121732D01*
X1220473Y141378D02*
X1200473Y181378D01*
X1240473D01*
X1220473Y141378D01*
X1201294Y121732D02*
X1181294Y161732D01*
X1221294D01*
X1201294Y121732D01*
X1181102Y141378D02*
X1161102Y181378D01*
X1201102D01*
X1181102Y141378D01*
X1161417Y121732D02*
X1141417Y161732D01*
X1181417D01*
X1161417Y121732D01*
X1141732Y141378D02*
X1121732Y181378D01*
X1161732D01*
X1141732Y141378D01*
X1122047Y121732D02*
X1102047Y161732D01*
X1142047D01*
X1122047Y121732D01*
X1458898Y98110D02*
X1438898Y138110D01*
X1478898D01*
X1458898Y98110D01*
X1338583Y17165D02*
X1318583Y57165D01*
X1358583D01*
X1338583Y17165D01*
X1377953D02*
X1357953Y57165D01*
X1397953D01*
X1377953Y17165D01*
X314961Y592402D02*
X294961Y632402D01*
X334961D01*
X314961Y592402D01*
X314961Y492402D02*
X294961Y532402D01*
X334961D01*
X314961Y492402D01*
X314961Y442402D02*
X294961Y482402D01*
X334961D01*
X314961Y442402D01*
Y342402D02*
X294961Y382402D01*
X334961D01*
X314961Y342402D01*
Y292402D02*
X294961Y332402D01*
X334961D01*
X314961Y292402D01*
X314961Y242402D02*
X294961Y282402D01*
X334961D01*
X314961Y242402D01*
X1437047Y157165D02*
X1417047Y197165D01*
X1457047D01*
X1437047Y157165D01*
Y117795D02*
X1417047Y157795D01*
X1457047D01*
X1437047Y117795D01*
X1358268Y39016D02*
X1338268Y79016D01*
X1378268D01*
X1358268Y39016D01*
X1456693Y393386D02*
X1436693Y433386D01*
X1476693D01*
X1456693Y393386D01*
X1437047Y413071D02*
X1417047Y453071D01*
X1457047D01*
X1437047Y413071D01*
X1456693Y432756D02*
X1436693Y472756D01*
X1476693D01*
X1456693Y432756D01*
Y472633D02*
X1436693Y512633D01*
X1476693D01*
X1456693Y472633D01*
Y511496D02*
X1436693Y551496D01*
X1476693D01*
X1456693Y511496D01*
X472441Y1092401D02*
X452441Y1132401D01*
X492441D01*
X472441Y1092401D01*
Y1142401D02*
X452441Y1182401D01*
X492441D01*
X472441Y1142401D01*
Y1192401D02*
X452441Y1232401D01*
X492441D01*
X472441Y1192401D01*
Y1242401D02*
X452441Y1282401D01*
X492441D01*
X472441Y1242401D01*
X472441Y1292401D02*
X452441Y1332401D01*
X492441D01*
X472441Y1292401D01*
X472441Y1342401D02*
X452441Y1382401D01*
X492441D01*
X472441Y1342401D01*
%TF.MD5,124e8ac946f12bfb941668a4f6f8cd68*%
M02*
