%TF.GenerationSoftware,Altium Limited,Altium Designer,20.0.13 (296)*%
G04 Layer_Color=2752767*
%FSLAX26Y26*%
%MOIN*%
%TF.FileFunction,Drawing*%
%TF.Part,Single*%
G01*
G75*
%TA.AperFunction,NonConductor*%
%ADD93C,0.005000*%
D93*
X392717Y42402D02*
X372717Y82402D01*
X412717D01*
X392717Y42402D01*
X2486220Y86244D02*
X2466220Y126244D01*
X2506220D01*
X2486220Y86244D01*
X1397638Y141417D02*
X1377638Y181417D01*
X1417638D01*
X1397638Y141417D01*
X1141732Y96976D02*
X1121732Y136976D01*
X1161732D01*
X1141732Y96976D01*
X1959547Y193835D02*
X1939547Y233835D01*
X1979547D01*
X1959547Y193835D01*
X392717Y284189D02*
X372717Y324189D01*
X412717D01*
X392717Y284189D01*
X1061024Y428819D02*
X1041024Y468819D01*
X1081024D01*
X1061024Y428819D01*
X1314173Y1111890D02*
X1294173Y1151890D01*
X1334173D01*
X1314173Y1111890D01*
X925197Y524291D02*
X905197Y564291D01*
X945197D01*
X925197Y524291D01*
X1791339Y425276D02*
X1771339Y465276D01*
X1811339D01*
X1791339Y425276D01*
X2003937Y318976D02*
X1983937Y358976D01*
X2023937D01*
X2003937Y318976D01*
X1933071D02*
X1913071Y358976D01*
X1953071D01*
X1933071Y318976D01*
X392717Y1071535D02*
X372717Y1111535D01*
X412717D01*
X392717Y1071535D01*
X2145669Y318976D02*
X2125669Y358976D01*
X2165669D01*
X2145669Y318976D01*
X2074803D02*
X2054803Y358976D01*
X2094803D01*
X2074803Y318976D01*
%TF.MD5,4f5c2650c338704302c0c8af6372ba8d*%
M02*
