%TF.GenerationSoftware,Altium Limited,Altium Designer,20.0.13 (296)*%
G04 Layer_Color=32768*
%FSLAX26Y26*%
%MOIN*%
%TF.FileFunction,Other,Bottom_Assembly*%
%TF.Part,Single*%
G01*
G75*
%TA.AperFunction,NonConductor*%
%ADD59C,0.003937*%
%ADD62C,0.001968*%
D59*
X921260Y114173D02*
G03*
X921260Y114173I-19685J0D01*
G01*
X866142Y629921D02*
X1417323D01*
X866142Y78740D02*
X1417323D01*
Y629921D01*
X866142Y78740D02*
Y629921D01*
D62*
X2094244Y716402D02*
Y858402D01*
X2000244Y716402D02*
Y858402D01*
Y716402D02*
X2094244D01*
X2000244Y858402D02*
X2094244D01*
X1922835Y900394D02*
X1981890D01*
X1922835Y868898D02*
X1981890D01*
Y900394D01*
X1922835Y868898D02*
Y900394D01*
X842732Y919047D02*
X1440732D01*
X842732Y1491047D02*
X1440732D01*
X842732Y919047D02*
Y1491047D01*
X1440732Y919047D02*
Y1491047D01*
X167323Y596654D02*
Y628150D01*
X226378Y596654D02*
Y628150D01*
X167323Y596654D02*
X226378D01*
X167323Y628150D02*
X226378D01*
X1098472Y712402D02*
Y862402D01*
X1343472D01*
Y712402D02*
Y862402D01*
X1098472Y712402D02*
X1343472D01*
X2267716Y1084449D02*
X2299213D01*
X2267716Y1025394D02*
X2299213D01*
X2267716D02*
Y1084449D01*
X2299213Y1025394D02*
Y1084449D01*
X1922047Y972244D02*
Y1003740D01*
X1981102Y972244D02*
Y1003740D01*
X1922047Y972244D02*
X1981102D01*
X1922047Y1003740D02*
X1981102D01*
X1922047Y1022244D02*
Y1053740D01*
X1981102Y1022244D02*
Y1053740D01*
X1922047Y1022244D02*
X1981102D01*
X1922047Y1053740D02*
X1981102D01*
X1922047Y1122244D02*
Y1153740D01*
X1981102Y1122244D02*
Y1153740D01*
X1922047Y1122244D02*
X1981102D01*
X1922047Y1153740D02*
X1981102D01*
X1922047Y1072244D02*
Y1103740D01*
X1981102Y1072244D02*
Y1103740D01*
X1922047Y1072244D02*
X1981102D01*
X1922047Y1103740D02*
X1981102D01*
X1708661Y646260D02*
Y705315D01*
X1677165Y646260D02*
Y705315D01*
Y646260D02*
X1708661D01*
X1677165Y705315D02*
X1708661D01*
X1834646Y646260D02*
Y705315D01*
X1866142Y646260D02*
Y705315D01*
X1834646D02*
X1866142D01*
X1834646Y646260D02*
X1866142D01*
X1519685Y712008D02*
Y771063D01*
X1551181Y712008D02*
Y771063D01*
X1519685D02*
X1551181D01*
X1519685Y712008D02*
X1551181D01*
X1631890Y797244D02*
Y856299D01*
X1600394Y797244D02*
Y856299D01*
Y797244D02*
X1631890D01*
X1600394Y856299D02*
X1631890D01*
X2063780Y468504D02*
X2122835D01*
X2063780Y437008D02*
X2122835D01*
Y468504D01*
X2063780Y437008D02*
Y468504D01*
X2126772D02*
X2185827D01*
X2126772Y437008D02*
X2185827D01*
Y468504D01*
X2126772Y437008D02*
Y468504D01*
X2158268Y15748D02*
X2217323D01*
X2158268Y-15748D02*
X2217323D01*
Y15748D01*
X2158268Y-15748D02*
Y15748D01*
X2135827Y1258465D02*
Y1289961D01*
X2076772Y1258465D02*
Y1289961D01*
X2135827D01*
X2076772Y1258465D02*
X2135827D01*
Y1358465D02*
Y1389961D01*
X2076772Y1358465D02*
Y1389961D01*
X2135827D01*
X2076772Y1358465D02*
X2135827D01*
X1519685Y1600591D02*
X1551181D01*
X1519685Y1541535D02*
X1551181D01*
X1519685D02*
Y1600591D01*
X1551181Y1541535D02*
Y1600591D01*
X1978347Y1258465D02*
Y1289961D01*
X1919291Y1258465D02*
Y1289961D01*
X1978347D01*
X1919291Y1258465D02*
X1978347D01*
Y1358465D02*
Y1389961D01*
X1919291Y1358465D02*
Y1389961D01*
X1978347D01*
X1919291Y1358465D02*
X1978347D01*
X2293307Y1261417D02*
Y1292913D01*
X2234252Y1261417D02*
Y1292913D01*
X2293307D01*
X2234252Y1261417D02*
X2293307D01*
Y1361418D02*
Y1392914D01*
X2234252Y1361418D02*
Y1392914D01*
X2293307D01*
X2234252Y1361418D02*
X2293307D01*
X1952756Y608268D02*
Y667323D01*
X1984252Y608268D02*
Y667323D01*
X1952756D02*
X1984252D01*
X1952756Y608268D02*
X1984252D01*
X2267717Y513779D02*
Y572835D01*
X2299213Y513779D02*
Y572835D01*
X2267717D02*
X2299213D01*
X2267717Y513779D02*
X2299213D01*
X1874016Y195669D02*
Y254724D01*
X1905512Y195669D02*
Y254724D01*
X1874016D02*
X1905512D01*
X1874016Y195669D02*
X1905512D01*
X1161220Y1545275D02*
Y1604331D01*
X1129725Y1545275D02*
Y1604331D01*
Y1545275D02*
X1161220D01*
X1129725Y1604331D02*
X1161220D01*
X1551181Y554921D02*
Y613976D01*
X1519685Y554921D02*
Y613976D01*
Y554921D02*
X1551181D01*
X1519685Y613976D02*
X1551181D01*
X1834646Y554921D02*
Y613976D01*
X1866142Y554921D02*
Y613976D01*
X1834646D02*
X1866142D01*
X1834646Y554921D02*
X1866142D01*
X1834646Y100197D02*
Y159252D01*
X1866142Y100197D02*
Y159252D01*
X1834646D02*
X1866142D01*
X1834646Y100197D02*
X1866142D01*
X1519685D02*
Y159252D01*
X1551181Y100197D02*
Y159252D01*
X1519685D02*
X1551181D01*
X1519685Y100197D02*
X1551181D01*
Y304921D02*
Y363976D01*
X1519685Y304921D02*
Y363976D01*
Y304921D02*
X1551181D01*
X1519685Y363976D02*
X1551181D01*
X1019685Y696063D02*
Y755118D01*
X988189Y696063D02*
Y755118D01*
Y696063D02*
X1019685D01*
X988189Y755118D02*
X1019685D01*
X803150Y282677D02*
Y341732D01*
X771654Y282677D02*
Y341732D01*
Y282677D02*
X803150D01*
X771654Y341732D02*
X803150D01*
X1393701Y710630D02*
Y769685D01*
X1362205Y710630D02*
Y769685D01*
Y710630D02*
X1393701D01*
X1362205Y769685D02*
X1393701D01*
X1078740Y805118D02*
Y864173D01*
X1047244Y805118D02*
Y864173D01*
Y805118D02*
X1078740D01*
X1047244Y864173D02*
X1078740D01*
X1252756Y-15748D02*
Y15748D01*
X1311811Y-15748D02*
Y15748D01*
X1252756Y-15748D02*
X1311811D01*
X1252756Y15748D02*
X1311811D01*
X1480315Y440158D02*
X1511811D01*
X1480315Y381102D02*
X1511811D01*
X1480315D02*
Y440158D01*
X1511811Y381102D02*
Y440158D01*
X909449Y755118D02*
X940945D01*
X909449Y696063D02*
X940945D01*
X909449D02*
Y755118D01*
X940945Y696063D02*
Y755118D01*
X561024Y96654D02*
X620079D01*
X561024Y128150D02*
X620079D01*
X561024Y96654D02*
Y128150D01*
X620079Y96654D02*
Y128150D01*
X561024Y146654D02*
X620079D01*
X561024Y178150D02*
X620079D01*
X561024Y146654D02*
Y178150D01*
X620079Y146654D02*
Y178150D01*
X561024Y196654D02*
X620079D01*
X561024Y228150D02*
X620079D01*
X561024Y196654D02*
Y228150D01*
X620079Y196654D02*
Y228150D01*
X167323Y78150D02*
X226378D01*
X167323Y46654D02*
X226378D01*
Y78150D01*
X167323Y46654D02*
Y78150D01*
Y128150D02*
X226378D01*
X167323Y96654D02*
X226378D01*
Y128150D01*
X167323Y96654D02*
Y128150D01*
Y178150D02*
X226378D01*
X167323Y146654D02*
X226378D01*
Y178150D01*
X167323Y146654D02*
Y178150D01*
X2923228Y96654D02*
X2982284D01*
X2923228Y128150D02*
X2982284D01*
X2923228Y96654D02*
Y128150D01*
X2982284Y96654D02*
Y128150D01*
X2923228Y146654D02*
X2982284D01*
X2923228Y178150D02*
X2982284D01*
X2923228Y146654D02*
Y178150D01*
X2982284Y146654D02*
Y178150D01*
X2529528Y78150D02*
X2588583D01*
X2529528Y46654D02*
X2588583D01*
Y78150D01*
X2529528Y46654D02*
Y78150D01*
Y128150D02*
X2588583D01*
X2529528Y96654D02*
X2588583D01*
Y128150D01*
X2529528Y96654D02*
Y128150D01*
Y178150D02*
X2588583D01*
X2529528Y146654D02*
X2588583D01*
Y178150D01*
X2529528Y146654D02*
Y178150D01*
X561024Y1446654D02*
X620079D01*
X561024Y1478150D02*
X620079D01*
X561024Y1446654D02*
Y1478150D01*
X620079Y1446654D02*
Y1478150D01*
X561024Y1496654D02*
X620079D01*
X561024Y1528150D02*
X620079D01*
X561024Y1496654D02*
Y1528150D01*
X620079Y1496654D02*
Y1528150D01*
X167323Y1428150D02*
X226378D01*
X167323Y1396654D02*
X226378D01*
Y1428150D01*
X167323Y1396654D02*
Y1428150D01*
Y1478150D02*
X226378D01*
X167323Y1446654D02*
X226378D01*
Y1478150D01*
X167323Y1446654D02*
Y1478150D01*
X2923228Y1446654D02*
X2982284D01*
X2923228Y1478150D02*
X2982284D01*
X2923228Y1446654D02*
Y1478150D01*
X2982284Y1446654D02*
Y1478150D01*
X2923228Y1496654D02*
X2982284D01*
X2923228Y1528150D02*
X2982284D01*
X2923228Y1496654D02*
Y1528150D01*
X2982284Y1496654D02*
Y1528150D01*
X2529528Y1428150D02*
X2588583D01*
X2529528Y1396654D02*
X2588583D01*
Y1428150D01*
X2529528Y1396654D02*
Y1428150D01*
Y1478150D02*
X2588583D01*
X2529528Y1446654D02*
X2588583D01*
Y1478150D01*
X2529528Y1446654D02*
Y1478150D01*
X1488976Y1136811D02*
Y1168307D01*
X1548032Y1136811D02*
Y1168307D01*
X1488976Y1136811D02*
X1548032D01*
X1488976Y1168307D02*
X1548032D01*
X1922047Y754724D02*
Y786220D01*
X1981102Y754724D02*
Y786220D01*
X1922047Y754724D02*
X1981102D01*
X1922047Y786220D02*
X1981102D01*
X1922047Y794095D02*
Y825591D01*
X1981102Y794095D02*
Y825591D01*
X1922047Y794095D02*
X1981102D01*
X1922047Y825591D02*
X1981102D01*
X2126772Y789370D02*
Y820866D01*
X2185827Y789370D02*
Y820866D01*
X2126772Y789370D02*
X2185827D01*
X2126772Y820866D02*
X2185827D01*
X2126772Y860236D02*
Y891732D01*
X2185827Y860236D02*
Y891732D01*
X2126772Y860236D02*
X2185827D01*
X2126772Y891732D02*
X2185827D01*
X1637795Y797244D02*
X1669291D01*
X1637795Y856299D02*
X1669291D01*
Y797244D02*
Y856299D01*
X1637795Y797244D02*
Y856299D01*
X1488976Y1358465D02*
Y1389961D01*
X1548032Y1358465D02*
Y1389961D01*
X1488976Y1358465D02*
X1548032D01*
X1488976Y1389961D02*
X1548032D01*
X167323Y678150D02*
X226378D01*
X167323Y646654D02*
X226378D01*
Y678150D01*
X167323Y646654D02*
Y678150D01*
Y728150D02*
X226378D01*
X167323Y696654D02*
X226378D01*
Y728150D01*
X167323Y696654D02*
Y728150D01*
Y778150D02*
X226378D01*
X167323Y746654D02*
X226378D01*
Y778150D01*
X167323Y746654D02*
Y778150D01*
Y828150D02*
X226378D01*
X167323Y796654D02*
X226378D01*
Y828150D01*
X167323Y796654D02*
Y828150D01*
Y878150D02*
X226378D01*
X167323Y846654D02*
X226378D01*
Y878150D01*
X167323Y846654D02*
Y878150D01*
Y928150D02*
X226378D01*
X167323Y896654D02*
X226378D01*
Y928150D01*
X167323Y896654D02*
Y928150D01*
Y978150D02*
X226378D01*
X167323Y946654D02*
X226378D01*
Y978150D01*
X167323Y946654D02*
Y978150D01*
Y1028150D02*
X226378D01*
X167323Y996654D02*
X226378D01*
Y1028150D01*
X167323Y996654D02*
Y1028150D01*
Y1078150D02*
X226378D01*
X167323Y1046654D02*
X226378D01*
Y1078150D01*
X167323Y1046654D02*
Y1078150D01*
Y1128150D02*
X226378D01*
X167323Y1096654D02*
X226378D01*
Y1128150D01*
X167323Y1096654D02*
Y1128150D01*
Y1178150D02*
X226378D01*
X167323Y1146654D02*
X226378D01*
Y1178150D01*
X167323Y1146654D02*
Y1178150D01*
Y1228150D02*
X226378D01*
X167323Y1196654D02*
X226378D01*
Y1228150D01*
X167323Y1196654D02*
Y1228150D01*
Y1278150D02*
X226378D01*
X167323Y1246654D02*
X226378D01*
Y1278150D01*
X167323Y1246654D02*
Y1278150D01*
X2529528Y278150D02*
X2588583D01*
X2529528Y246654D02*
X2588583D01*
Y278150D01*
X2529528Y246654D02*
Y278150D01*
Y328150D02*
X2588583D01*
X2529528Y296654D02*
X2588583D01*
Y328150D01*
X2529528Y296654D02*
Y328150D01*
Y378150D02*
X2588583D01*
X2529528Y346654D02*
X2588583D01*
Y378150D01*
X2529528Y346654D02*
Y378150D01*
Y428150D02*
X2588583D01*
X2529528Y396654D02*
X2588583D01*
Y428150D01*
X2529528Y396654D02*
Y428150D01*
Y478150D02*
X2588583D01*
X2529528Y446654D02*
X2588583D01*
Y478150D01*
X2529528Y446654D02*
Y478150D01*
Y528150D02*
X2588583D01*
X2529528Y496654D02*
X2588583D01*
Y528150D01*
X2529528Y496654D02*
Y528150D01*
Y578150D02*
X2588583D01*
X2529528Y546654D02*
X2588583D01*
Y578150D01*
X2529528Y546654D02*
Y578150D01*
Y628150D02*
X2588583D01*
X2529528Y596654D02*
X2588583D01*
Y628150D01*
X2529528Y596654D02*
Y628150D01*
Y678150D02*
X2588583D01*
X2529528Y646654D02*
X2588583D01*
Y678150D01*
X2529528Y646654D02*
Y678150D01*
Y728150D02*
X2588583D01*
X2529528Y696654D02*
X2588583D01*
Y728150D01*
X2529528Y696654D02*
Y728150D01*
Y778150D02*
X2588583D01*
X2529528Y746654D02*
X2588583D01*
Y778150D01*
X2529528Y746654D02*
Y778150D01*
Y828150D02*
X2588583D01*
X2529528Y796654D02*
X2588583D01*
Y828150D01*
X2529528Y796654D02*
Y828150D01*
Y878150D02*
X2588583D01*
X2529528Y846654D02*
X2588583D01*
Y878150D01*
X2529528Y846654D02*
Y878150D01*
Y928150D02*
X2588583D01*
X2529528Y896654D02*
X2588583D01*
Y928150D01*
X2529528Y896654D02*
Y928150D01*
Y978150D02*
X2588583D01*
X2529528Y946654D02*
X2588583D01*
Y978150D01*
X2529528Y946654D02*
Y978150D01*
Y1028150D02*
X2588583D01*
X2529528Y996654D02*
X2588583D01*
Y1028150D01*
X2529528Y996654D02*
Y1028150D01*
Y1078150D02*
X2588583D01*
X2529528Y1046654D02*
X2588583D01*
Y1078150D01*
X2529528Y1046654D02*
Y1078150D01*
Y1128150D02*
X2588583D01*
X2529528Y1096654D02*
X2588583D01*
Y1128150D01*
X2529528Y1096654D02*
Y1128150D01*
Y1178150D02*
X2588583D01*
X2529528Y1146654D02*
X2588583D01*
Y1178150D01*
X2529528Y1146654D02*
Y1178150D01*
Y1228150D02*
X2588583D01*
X2529528Y1196654D02*
X2588583D01*
Y1228150D01*
X2529528Y1196654D02*
Y1228150D01*
Y1278150D02*
X2588583D01*
X2529528Y1246654D02*
X2588583D01*
Y1278150D01*
X2529528Y1246654D02*
Y1278150D01*
Y1328150D02*
X2588583D01*
X2529528Y1296654D02*
X2588583D01*
Y1328150D01*
X2529528Y1296654D02*
Y1328150D01*
Y1378150D02*
X2588583D01*
X2529528Y1346654D02*
X2588583D01*
Y1378150D01*
X2529528Y1346654D02*
Y1378150D01*
X2923228Y196654D02*
X2982284D01*
X2923228Y228150D02*
X2982284D01*
X2923228Y196654D02*
Y228150D01*
X2982284Y196654D02*
Y228150D01*
X2923228Y246654D02*
X2982284D01*
X2923228Y278150D02*
X2982284D01*
X2923228Y246654D02*
Y278150D01*
X2982284Y246654D02*
Y278150D01*
X2923228Y296654D02*
X2982284D01*
X2923228Y328150D02*
X2982284D01*
X2923228Y296654D02*
Y328150D01*
X2982284Y296654D02*
Y328150D01*
X2923228Y346654D02*
X2982284D01*
X2923228Y378150D02*
X2982284D01*
X2923228Y346654D02*
Y378150D01*
X2982284Y346654D02*
Y378150D01*
X2923228Y396654D02*
X2982284D01*
X2923228Y428150D02*
X2982284D01*
X2923228Y396654D02*
Y428150D01*
X2982284Y396654D02*
Y428150D01*
X2923228Y446654D02*
X2982284D01*
X2923228Y478150D02*
X2982284D01*
X2923228Y446654D02*
Y478150D01*
X2982284Y446654D02*
Y478150D01*
X2923228Y496654D02*
X2982284D01*
X2923228Y528150D02*
X2982284D01*
X2923228Y496654D02*
Y528150D01*
X2982284Y496654D02*
Y528150D01*
X2923228Y546654D02*
X2982284D01*
X2923228Y578150D02*
X2982284D01*
X2923228Y546654D02*
Y578150D01*
X2982284Y546654D02*
Y578150D01*
X2923228Y796654D02*
X2982284D01*
X2923228Y828150D02*
X2982284D01*
X2923228Y796654D02*
Y828150D01*
X2982284Y796654D02*
Y828150D01*
X2923228Y746654D02*
X2982284D01*
X2923228Y778150D02*
X2982284D01*
X2923228Y746654D02*
Y778150D01*
X2982284Y746654D02*
Y778150D01*
X2923228Y696654D02*
X2982284D01*
X2923228Y728150D02*
X2982284D01*
X2923228Y696654D02*
Y728150D01*
X2982284Y696654D02*
Y728150D01*
X2923228Y646654D02*
X2982284D01*
X2923228Y678150D02*
X2982284D01*
X2923228Y646654D02*
Y678150D01*
X2982284Y646654D02*
Y678150D01*
X2923228Y1346654D02*
X2982284D01*
X2923228Y1378150D02*
X2982284D01*
X2923228Y1346654D02*
Y1378150D01*
X2982284Y1346654D02*
Y1378150D01*
X2923228Y1296654D02*
X2982284D01*
X2923228Y1328150D02*
X2982284D01*
X2923228Y1296654D02*
Y1328150D01*
X2982284Y1296654D02*
Y1328150D01*
X2923228Y1246654D02*
X2982284D01*
X2923228Y1278150D02*
X2982284D01*
X2923228Y1246654D02*
Y1278150D01*
X2982284Y1246654D02*
Y1278150D01*
X2923228Y1196654D02*
X2982284D01*
X2923228Y1228150D02*
X2982284D01*
X2923228Y1196654D02*
Y1228150D01*
X2982284Y1196654D02*
Y1228150D01*
X2923228Y1146654D02*
X2982284D01*
X2923228Y1178150D02*
X2982284D01*
X2923228Y1146654D02*
Y1178150D01*
X2982284Y1146654D02*
Y1178150D01*
X2923228Y1096654D02*
X2982284D01*
X2923228Y1128150D02*
X2982284D01*
X2923228Y1096654D02*
Y1128150D01*
X2982284Y1096654D02*
Y1128150D01*
X2923228Y1046654D02*
X2982284D01*
X2923228Y1078150D02*
X2982284D01*
X2923228Y1046654D02*
Y1078150D01*
X2982284Y1046654D02*
Y1078150D01*
X2923228Y996654D02*
X2982284D01*
X2923228Y1028150D02*
X2982284D01*
X2923228Y996654D02*
Y1028150D01*
X2982284Y996654D02*
Y1028150D01*
X561024Y1346653D02*
X620079D01*
X561024Y1378149D02*
X620079D01*
X561024Y1346653D02*
Y1378149D01*
X620079Y1346653D02*
Y1378149D01*
X561024Y1296653D02*
X620079D01*
X561024Y1328149D02*
X620079D01*
X561024Y1296653D02*
Y1328149D01*
X620079Y1296653D02*
Y1328149D01*
X561024Y1246653D02*
X620079D01*
X561024Y1278149D02*
X620079D01*
X561024Y1246653D02*
Y1278149D01*
X620079Y1246653D02*
Y1278149D01*
X561024Y1196653D02*
X620079D01*
X561024Y1228149D02*
X620079D01*
X561024Y1196653D02*
Y1228149D01*
X620079Y1196653D02*
Y1228149D01*
X561024Y1146653D02*
X620079D01*
X561024Y1178149D02*
X620079D01*
X561024Y1146653D02*
Y1178149D01*
X620079Y1146653D02*
Y1178149D01*
X561024Y1096653D02*
X620079D01*
X561024Y1128149D02*
X620079D01*
X561024Y1096653D02*
Y1128149D01*
X620079Y1096653D02*
Y1128149D01*
X561024Y1046654D02*
X620079D01*
X561024Y1078150D02*
X620079D01*
X561024Y1046654D02*
Y1078150D01*
X620079Y1046654D02*
Y1078150D01*
X561024Y996654D02*
X620079D01*
X561024Y1028150D02*
X620079D01*
X561024Y996654D02*
Y1028150D01*
X620079Y996654D02*
Y1028150D01*
X561024Y296654D02*
X620079D01*
X561024Y328150D02*
X620079D01*
X561024Y296654D02*
Y328150D01*
X620079Y296654D02*
Y328150D01*
X561024Y246654D02*
X620079D01*
X561024Y278150D02*
X620079D01*
X561024Y246654D02*
Y278150D01*
X620079Y246654D02*
Y278150D01*
X561024Y396654D02*
X620079D01*
X561024Y428150D02*
X620079D01*
X561024Y396654D02*
Y428150D01*
X620079Y396654D02*
Y428150D01*
X561024Y346654D02*
X620079D01*
X561024Y378150D02*
X620079D01*
X561024Y346654D02*
Y378150D01*
X620079Y346654D02*
Y378150D01*
X561024Y496654D02*
X620079D01*
X561024Y528150D02*
X620079D01*
X561024Y496654D02*
Y528150D01*
X620079Y496654D02*
Y528150D01*
X561024Y446654D02*
X620079D01*
X561024Y478150D02*
X620079D01*
X561024Y446654D02*
Y478150D01*
X620079Y446654D02*
Y478150D01*
X561024Y596654D02*
X620079D01*
X561024Y628150D02*
X620079D01*
X561024Y596654D02*
Y628150D01*
X620079Y596654D02*
Y628150D01*
X561024Y546654D02*
X620079D01*
X561024Y578150D02*
X620079D01*
X561024Y546654D02*
Y578150D01*
X620079Y546654D02*
Y578150D01*
X561024Y696654D02*
X620079D01*
X561024Y728150D02*
X620079D01*
X561024Y696654D02*
Y728150D01*
X620079Y696654D02*
Y728150D01*
X561024Y646654D02*
X620079D01*
X561024Y678150D02*
X620079D01*
X561024Y646654D02*
Y678150D01*
X620079Y646654D02*
Y678150D01*
X561024Y796654D02*
X620079D01*
X561024Y828150D02*
X620079D01*
X561024Y796654D02*
Y828150D01*
X620079Y796654D02*
Y828150D01*
X561024Y746654D02*
X620079D01*
X561024Y778150D02*
X620079D01*
X561024Y746654D02*
Y778150D01*
X620079Y746654D02*
Y778150D01*
X561024Y846654D02*
X620079D01*
X561024Y878150D02*
X620079D01*
X561024Y846654D02*
Y878150D01*
X620079Y846654D02*
Y878150D01*
X561024Y896654D02*
X620079D01*
X561024Y928150D02*
X620079D01*
X561024Y896654D02*
Y928150D01*
X620079Y896654D02*
Y928150D01*
X561024Y946654D02*
X620079D01*
X561024Y978150D02*
X620079D01*
X561024Y946654D02*
Y978150D01*
X620079Y946654D02*
Y978150D01*
X167323Y1328150D02*
X226378D01*
X167323Y1296654D02*
X226378D01*
Y1328150D01*
X167323Y1296654D02*
Y1328150D01*
Y1378150D02*
X226378D01*
X167323Y1346654D02*
X226378D01*
Y1378150D01*
X167323Y1346654D02*
Y1378150D01*
X2923228Y596654D02*
X2982284D01*
X2923228Y628150D02*
X2982284D01*
X2923228Y596654D02*
Y628150D01*
X2982284Y596654D02*
Y628150D01*
X2923228Y846654D02*
X2982284D01*
X2923228Y878150D02*
X2982284D01*
X2923228Y846654D02*
Y878150D01*
X2982284Y846654D02*
Y878150D01*
X2923228Y896654D02*
X2982284D01*
X2923228Y928150D02*
X2982284D01*
X2923228Y896654D02*
Y928150D01*
X2982284Y896654D02*
Y928150D01*
X2923228Y946654D02*
X2982284D01*
X2923228Y978150D02*
X2982284D01*
X2923228Y946654D02*
Y978150D01*
X2982284Y946654D02*
Y978150D01*
X1582000Y1501000D02*
X1648000D01*
X1582000D02*
Y1599000D01*
X1648000D01*
Y1501000D02*
Y1599000D01*
X1866142Y712008D02*
Y771063D01*
X1834646Y712008D02*
Y771063D01*
Y712008D02*
X1866142D01*
X1834646Y771063D02*
X1866142D01*
X1551181Y646260D02*
Y705315D01*
X1519685Y646260D02*
Y705315D01*
Y646260D02*
X1551181D01*
X1519685Y705315D02*
X1551181D01*
X1551181Y797244D02*
Y856299D01*
X1519685Y797244D02*
Y856299D01*
Y797244D02*
X1551181D01*
X1519685Y856299D02*
X1551181D01*
X1594488Y797244D02*
Y856299D01*
X1562992Y797244D02*
Y856299D01*
Y797244D02*
X1594488D01*
X1562992Y856299D02*
X1594488D01*
X1829134Y1536319D02*
Y1567815D01*
X1770079Y1536319D02*
Y1567815D01*
X1829134D01*
X1770079Y1536319D02*
X1829134D01*
Y1496654D02*
Y1528150D01*
X1770079Y1496654D02*
Y1528150D01*
X1829134D01*
X1770079Y1496654D02*
X1829134D01*
X2076772Y1208465D02*
Y1239960D01*
X2135827Y1208465D02*
Y1239960D01*
X2076772Y1208465D02*
X2135827D01*
X2076772Y1239960D02*
X2135827D01*
X1829134Y1575984D02*
Y1607480D01*
X1770079Y1575984D02*
Y1607480D01*
X1829134D01*
X1770079Y1575984D02*
X1829134D01*
X1919291Y1208465D02*
Y1239960D01*
X1978347Y1208465D02*
Y1239960D01*
X1919291Y1208465D02*
X1978347D01*
X1919291Y1239960D02*
X1978347D01*
X1866142Y195669D02*
Y254724D01*
X1834646Y195669D02*
Y254724D01*
Y195669D02*
X1866142D01*
X1834646Y254724D02*
X1866142D01*
X2234252Y1211417D02*
Y1242913D01*
X2293307Y1211417D02*
Y1242913D01*
X2234252Y1211417D02*
X2293307D01*
X2234252Y1242913D02*
X2293307D01*
X1086417Y1545275D02*
Y1604331D01*
X1117913Y1545275D02*
Y1604331D01*
X1086417D02*
X1117913D01*
X1086417Y1545275D02*
X1117913D01*
X1259646D02*
Y1604331D01*
X1291142Y1545275D02*
Y1604331D01*
X1259646D02*
X1291142D01*
X1259646Y1545275D02*
X1291142D01*
X1173031D02*
Y1604331D01*
X1204527Y1545275D02*
Y1604331D01*
X1173031D02*
X1204527D01*
X1173031Y1545275D02*
X1204527D01*
X1043110D02*
Y1604331D01*
X1074606Y1545275D02*
Y1604331D01*
X1043110D02*
X1074606D01*
X1043110Y1545275D02*
X1074606D01*
X1874016Y554921D02*
Y613976D01*
X1905512Y554921D02*
Y613976D01*
X1874016D02*
X1905512D01*
X1874016Y554921D02*
X1905512D01*
X1480315Y304921D02*
Y363976D01*
X1511811Y304921D02*
Y363976D01*
X1480315D02*
X1511811D01*
X1480315Y304921D02*
X1511811D01*
X948819Y696063D02*
X980315D01*
X948819Y755118D02*
X980315D01*
Y696063D02*
Y755118D01*
X948819Y696063D02*
Y755118D01*
X1488976Y1058071D02*
X1548032D01*
X1488976Y1089567D02*
X1548032D01*
X1488976Y1058071D02*
Y1089567D01*
X1548032Y1058071D02*
Y1089567D01*
X1488976Y1097441D02*
X1548032D01*
X1488976Y1128937D02*
X1548032D01*
X1488976Y1097441D02*
Y1128937D01*
X1548032Y1097441D02*
Y1128937D01*
X2126772Y753937D02*
Y785433D01*
X2185827Y753937D02*
Y785433D01*
X2126772Y753937D02*
X2185827D01*
X2126772Y785433D02*
X2185827D01*
X2126772Y718504D02*
Y750000D01*
X2185827Y718504D02*
Y750000D01*
X2126772Y718504D02*
X2185827D01*
X2126772Y750000D02*
X2185827D01*
X2126772Y824803D02*
Y856299D01*
X2185827Y824803D02*
Y856299D01*
X2126772Y824803D02*
X2185827D01*
X2126772Y856299D02*
X2185827D01*
X2126772Y895669D02*
Y927165D01*
X2185827Y895669D02*
Y927165D01*
X2126772Y895669D02*
X2185827D01*
X2126772Y927165D02*
X2185827D01*
X1837795Y868898D02*
Y900394D01*
X1896850Y868898D02*
Y900394D01*
X1837795Y868898D02*
X1896850D01*
X1837795Y900394D02*
X1896850D01*
X1837795Y794095D02*
Y825591D01*
X1896850Y794095D02*
Y825591D01*
X1837795Y794095D02*
X1896850D01*
X1837795Y825591D02*
X1896850D01*
X1548032Y1258465D02*
Y1289961D01*
X1488976Y1258465D02*
Y1289961D01*
X1548032D01*
X1488976Y1258465D02*
X1548032D01*
Y1208465D02*
Y1239961D01*
X1488976Y1208465D02*
Y1239961D01*
X1548032D01*
X1488976Y1208465D02*
X1548032D01*
X2002984Y665551D02*
X2247984D01*
X2002984Y515551D02*
Y665551D01*
Y515551D02*
X2247984D01*
Y665551D01*
X167323Y246654D02*
Y278150D01*
X226378Y246654D02*
Y278150D01*
X167323Y246654D02*
X226378D01*
X167323Y278150D02*
X226378D01*
X167323Y296654D02*
Y328150D01*
X226378Y296654D02*
Y328150D01*
X167323Y296654D02*
X226378D01*
X167323Y328150D02*
X226378D01*
X167323Y346654D02*
Y378150D01*
X226378Y346654D02*
Y378150D01*
X167323Y346654D02*
X226378D01*
X167323Y378150D02*
X226378D01*
X167323Y396654D02*
Y428150D01*
X226378Y396654D02*
Y428150D01*
X167323Y396654D02*
X226378D01*
X167323Y428150D02*
X226378D01*
X167323Y446654D02*
Y478150D01*
X226378Y446654D02*
Y478150D01*
X167323Y446654D02*
X226378D01*
X167323Y478150D02*
X226378D01*
X167323Y496654D02*
Y528150D01*
X226378Y496654D02*
Y528150D01*
X167323Y496654D02*
X226378D01*
X167323Y528150D02*
X226378D01*
X167323Y546654D02*
Y578150D01*
X226378Y546654D02*
Y578150D01*
X167323Y546654D02*
X226378D01*
X167323Y578150D02*
X226378D01*
%TF.MD5,5034645836ba293d32d518d34cb36121*%
M02*
