%TF.GenerationSoftware,Altium Limited,Altium Designer,20.0.13 (296)*%
G04 Layer_Color=2752767*
%FSLAX26Y26*%
%MOIN*%
%TF.FileFunction,Drawing*%
%TF.Part,Single*%
G01*
G75*
%TA.AperFunction,NonConductor*%
%ADD93C,0.005000*%
%ADD348C,0.006667*%
D93*
X3011496Y-98740D02*
Y-58740D01*
X3051496D01*
Y-98740D01*
X3011496D01*
X3050866D02*
Y-58740D01*
X3090866D01*
Y-98740D01*
X3050866D01*
X2972126D02*
Y-58740D01*
X3012126D01*
Y-98740D01*
X2972126D01*
X2932756D02*
Y-58740D01*
X2972756D01*
Y-98740D01*
X2932756D01*
X2893386D02*
Y-58740D01*
X2933386D01*
Y-98740D01*
X2893386D01*
X2854016D02*
Y-58740D01*
X2894016D01*
Y-98740D01*
X2854016D01*
X2657166D02*
Y-58740D01*
X2697166D01*
Y-98740D01*
X2657166D01*
X2696536D02*
Y-58740D01*
X2736536D01*
Y-98740D01*
X2696536D01*
X2735906D02*
Y-58740D01*
X2775906D01*
Y-98740D01*
X2735906D01*
X2775276D02*
Y-58740D01*
X2815276D01*
Y-98740D01*
X2775276D01*
X2814646D02*
Y-58740D01*
X2854646D01*
Y-98740D01*
X2814646D01*
X2420946D02*
Y-58740D01*
X2460946D01*
Y-98740D01*
X2420946D01*
X2381576D02*
Y-58740D01*
X2421576D01*
Y-98740D01*
X2381576D01*
X2342206D02*
Y-58740D01*
X2382206D01*
Y-98740D01*
X2342206D01*
X2302836D02*
Y-58740D01*
X2342836D01*
Y-98740D01*
X2302836D01*
X2263466D02*
Y-58740D01*
X2303466D01*
Y-98740D01*
X2263466D01*
X2460316D02*
Y-58740D01*
X2500316D01*
Y-98740D01*
X2460316D01*
X2499686D02*
Y-58740D01*
X2539686D01*
Y-98740D01*
X2499686D01*
X2539056D02*
Y-58740D01*
X2579056D01*
Y-98740D01*
X2539056D01*
X2578426D02*
Y-58740D01*
X2618426D01*
Y-98740D01*
X2578426D01*
X2617796D02*
Y-58740D01*
X2657796D01*
Y-98740D01*
X2617796D01*
X2027246D02*
Y-58740D01*
X2067246D01*
Y-98740D01*
X2027246D01*
X1987876D02*
Y-58740D01*
X2027876D01*
Y-98740D01*
X1987876D01*
X1948506D02*
Y-58740D01*
X1988506D01*
Y-98740D01*
X1948506D01*
X1909136D02*
Y-58740D01*
X1949136D01*
Y-98740D01*
X1909136D01*
X1869766D02*
Y-58740D01*
X1909766D01*
Y-98740D01*
X1869766D01*
X2066616D02*
Y-58740D01*
X2106616D01*
Y-98740D01*
X2066616D01*
X2105986D02*
Y-58740D01*
X2145986D01*
Y-98740D01*
X2105986D01*
X2145356D02*
Y-58740D01*
X2185356D01*
Y-98740D01*
X2145356D01*
X2184726D02*
Y-58740D01*
X2224726D01*
Y-98740D01*
X2184726D01*
X2224096D02*
Y-58740D01*
X2264096D01*
Y-98740D01*
X2224096D01*
X1633546D02*
Y-58740D01*
X1673546D01*
Y-98740D01*
X1633546D01*
X1594176D02*
Y-58740D01*
X1634176D01*
Y-98740D01*
X1594176D01*
X1554806D02*
Y-58740D01*
X1594806D01*
Y-98740D01*
X1554806D01*
X1515436D02*
Y-58740D01*
X1555436D01*
Y-98740D01*
X1515436D01*
X1476066D02*
Y-58740D01*
X1516066D01*
Y-98740D01*
X1476066D01*
X1672916D02*
Y-58740D01*
X1712916D01*
Y-98740D01*
X1672916D01*
X1712286D02*
Y-58740D01*
X1752286D01*
Y-98740D01*
X1712286D01*
X1751656D02*
Y-58740D01*
X1791656D01*
Y-98740D01*
X1751656D01*
X1791026D02*
Y-58740D01*
X1831026D01*
Y-98740D01*
X1791026D01*
X1830396D02*
Y-58740D01*
X1870396D01*
Y-98740D01*
X1830396D01*
X1239846D02*
Y-58740D01*
X1279846D01*
Y-98740D01*
X1239846D01*
X1200476D02*
Y-58740D01*
X1240476D01*
Y-98740D01*
X1200476D01*
X1161106D02*
Y-58740D01*
X1201106D01*
Y-98740D01*
X1161106D01*
X1121736D02*
Y-58740D01*
X1161736D01*
Y-98740D01*
X1121736D01*
X1082366D02*
Y-58740D01*
X1122366D01*
Y-98740D01*
X1082366D01*
X1279216D02*
Y-58740D01*
X1319216D01*
Y-98740D01*
X1279216D01*
X1318586D02*
Y-58740D01*
X1358586D01*
Y-98740D01*
X1318586D01*
X1357956D02*
Y-58740D01*
X1397956D01*
Y-98740D01*
X1357956D01*
X1397326D02*
Y-58740D01*
X1437326D01*
Y-98740D01*
X1397326D01*
X1436696D02*
Y-58740D01*
X1476696D01*
Y-98740D01*
X1436696D01*
X846146D02*
Y-58740D01*
X886146D01*
Y-98740D01*
X846146D01*
X806776D02*
Y-58740D01*
X846776D01*
Y-98740D01*
X806776D01*
X767406D02*
Y-58740D01*
X807406D01*
Y-98740D01*
X767406D01*
X728036D02*
Y-58740D01*
X768036D01*
Y-98740D01*
X728036D01*
X688666D02*
Y-58740D01*
X728666D01*
Y-98740D01*
X688666D01*
X885516D02*
Y-58740D01*
X925516D01*
Y-98740D01*
X885516D01*
X924886D02*
Y-58740D01*
X964886D01*
Y-98740D01*
X924886D01*
X964256D02*
Y-58740D01*
X1004256D01*
Y-98740D01*
X964256D01*
X1003626D02*
Y-58740D01*
X1043626D01*
Y-98740D01*
X1003626D01*
X1042996D02*
Y-58740D01*
X1082996D01*
Y-98740D01*
X1042996D01*
X452446D02*
Y-58740D01*
X492446D01*
Y-98740D01*
X452446D01*
X413076D02*
Y-58740D01*
X453076D01*
Y-98740D01*
X413076D01*
X373706D02*
Y-58740D01*
X413706D01*
Y-98740D01*
X373706D01*
X334336D02*
Y-58740D01*
X374336D01*
Y-98740D01*
X334336D01*
X294966D02*
Y-58740D01*
X334966D01*
Y-98740D01*
X294966D01*
X491816D02*
Y-58740D01*
X531816D01*
Y-98740D01*
X491816D01*
X531186D02*
Y-58740D01*
X571186D01*
Y-98740D01*
X531186D01*
X570556D02*
Y-58740D01*
X610556D01*
Y-98740D01*
X570556D01*
X609926D02*
Y-58740D01*
X649926D01*
Y-98740D01*
X609926D01*
X649296D02*
Y-58740D01*
X689296D01*
Y-98740D01*
X649296D01*
X58746D02*
Y-58740D01*
X98746D01*
Y-98740D01*
X58746D01*
X98116D02*
Y-58740D01*
X138116D01*
Y-98740D01*
X98116D01*
X137486D02*
Y-58740D01*
X177486D01*
Y-98740D01*
X137486D01*
X176856D02*
Y-58740D01*
X216856D01*
Y-98740D01*
X176856D01*
X216226D02*
Y-58740D01*
X256226D01*
Y-98740D01*
X216226D01*
X255596D02*
Y-58740D01*
X295596D01*
Y-98740D01*
X255596D01*
X2854010Y1633543D02*
Y1673543D01*
X2894010D01*
Y1633543D01*
X2854010D01*
X2893380D02*
Y1673543D01*
X2933380D01*
Y1633543D01*
X2893380D01*
X2932750D02*
Y1673543D01*
X2972750D01*
Y1633543D01*
X2932750D01*
X2972120D02*
Y1673543D01*
X3012120D01*
Y1633543D01*
X2972120D01*
X3011490D02*
Y1673543D01*
X3051490D01*
Y1633543D01*
X3011490D01*
X3050860D02*
Y1673543D01*
X3090860D01*
Y1633543D01*
X3050860D01*
X2460310D02*
Y1673543D01*
X2500310D01*
Y1633543D01*
X2460310D01*
X2499680D02*
Y1673543D01*
X2539680D01*
Y1633543D01*
X2499680D01*
X2539050D02*
Y1673543D01*
X2579050D01*
Y1633543D01*
X2539050D01*
X2578420D02*
Y1673543D01*
X2618420D01*
Y1633543D01*
X2578420D01*
X2617790D02*
Y1673543D01*
X2657790D01*
Y1633543D01*
X2617790D01*
X2814640D02*
Y1673543D01*
X2854640D01*
Y1633543D01*
X2814640D01*
X2775270D02*
Y1673543D01*
X2815270D01*
Y1633543D01*
X2775270D01*
X2735900D02*
Y1673543D01*
X2775900D01*
Y1633543D01*
X2735900D01*
X2696530D02*
Y1673543D01*
X2736530D01*
Y1633543D01*
X2696530D01*
X2657160D02*
Y1673543D01*
X2697160D01*
Y1633543D01*
X2657160D01*
X2066610D02*
Y1673543D01*
X2106610D01*
Y1633543D01*
X2066610D01*
X2105980D02*
Y1673543D01*
X2145980D01*
Y1633543D01*
X2105980D01*
X2145350D02*
Y1673543D01*
X2185350D01*
Y1633543D01*
X2145350D01*
X2184720D02*
Y1673543D01*
X2224720D01*
Y1633543D01*
X2184720D01*
X2224090D02*
Y1673543D01*
X2264090D01*
Y1633543D01*
X2224090D01*
X2420940D02*
Y1673543D01*
X2460940D01*
Y1633543D01*
X2420940D01*
X2381570D02*
Y1673543D01*
X2421570D01*
Y1633543D01*
X2381570D01*
X2342200D02*
Y1673543D01*
X2382200D01*
Y1633543D01*
X2342200D01*
X2302830D02*
Y1673543D01*
X2342830D01*
Y1633543D01*
X2302830D01*
X2263460D02*
Y1673543D01*
X2303460D01*
Y1633543D01*
X2263460D01*
X1672910D02*
Y1673543D01*
X1712910D01*
Y1633543D01*
X1672910D01*
X1712280D02*
Y1673543D01*
X1752280D01*
Y1633543D01*
X1712280D01*
X1751650D02*
Y1673543D01*
X1791650D01*
Y1633543D01*
X1751650D01*
X1791020D02*
Y1673543D01*
X1831020D01*
Y1633543D01*
X1791020D01*
X1830390D02*
Y1673543D01*
X1870390D01*
Y1633543D01*
X1830390D01*
X2027240D02*
Y1673543D01*
X2067240D01*
Y1633543D01*
X2027240D01*
X1987870D02*
Y1673543D01*
X2027870D01*
Y1633543D01*
X1987870D01*
X1948500D02*
Y1673543D01*
X1988500D01*
Y1633543D01*
X1948500D01*
X1909130D02*
Y1673543D01*
X1949130D01*
Y1633543D01*
X1909130D01*
X1869760D02*
Y1673543D01*
X1909760D01*
Y1633543D01*
X1869760D01*
X1279210D02*
Y1673543D01*
X1319210D01*
Y1633543D01*
X1279210D01*
X1318580D02*
Y1673543D01*
X1358580D01*
Y1633543D01*
X1318580D01*
X1357950D02*
Y1673543D01*
X1397950D01*
Y1633543D01*
X1357950D01*
X1397320D02*
Y1673543D01*
X1437320D01*
Y1633543D01*
X1397320D01*
X1436690D02*
Y1673543D01*
X1476690D01*
Y1633543D01*
X1436690D01*
X1633540D02*
Y1673543D01*
X1673540D01*
Y1633543D01*
X1633540D01*
X1594170D02*
Y1673543D01*
X1634170D01*
Y1633543D01*
X1594170D01*
X1554800D02*
Y1673543D01*
X1594800D01*
Y1633543D01*
X1554800D01*
X1515430D02*
Y1673543D01*
X1555430D01*
Y1633543D01*
X1515430D01*
X1476060D02*
Y1673543D01*
X1516060D01*
Y1633543D01*
X1476060D01*
X885510D02*
Y1673543D01*
X925510D01*
Y1633543D01*
X885510D01*
X924880D02*
Y1673543D01*
X964880D01*
Y1633543D01*
X924880D01*
X964250D02*
Y1673543D01*
X1004250D01*
Y1633543D01*
X964250D01*
X1003620D02*
Y1673543D01*
X1043620D01*
Y1633543D01*
X1003620D01*
X1042990D02*
Y1673543D01*
X1082990D01*
Y1633543D01*
X1042990D01*
X1239840D02*
Y1673543D01*
X1279840D01*
Y1633543D01*
X1239840D01*
X1200470D02*
Y1673543D01*
X1240470D01*
Y1633543D01*
X1200470D01*
X1161100D02*
Y1673543D01*
X1201100D01*
Y1633543D01*
X1161100D01*
X1121730D02*
Y1673543D01*
X1161730D01*
Y1633543D01*
X1121730D01*
X1082360D02*
Y1673543D01*
X1122360D01*
Y1633543D01*
X1082360D01*
X491810D02*
Y1673543D01*
X531810D01*
Y1633543D01*
X491810D01*
X531180D02*
Y1673543D01*
X571180D01*
Y1633543D01*
X531180D01*
X570550D02*
Y1673543D01*
X610550D01*
Y1633543D01*
X570550D01*
X609920D02*
Y1673543D01*
X649920D01*
Y1633543D01*
X609920D01*
X649290D02*
Y1673543D01*
X689290D01*
Y1633543D01*
X649290D01*
X846140D02*
Y1673543D01*
X886140D01*
Y1633543D01*
X846140D01*
X806770D02*
Y1673543D01*
X846770D01*
Y1633543D01*
X806770D01*
X767400D02*
Y1673543D01*
X807400D01*
Y1633543D01*
X767400D01*
X728030D02*
Y1673543D01*
X768030D01*
Y1633543D01*
X728030D01*
X688660D02*
Y1673543D01*
X728660D01*
Y1633543D01*
X688660D01*
X294960D02*
Y1673543D01*
X334960D01*
Y1633543D01*
X294960D01*
X334330D02*
Y1673543D01*
X374330D01*
Y1633543D01*
X334330D01*
X373700D02*
Y1673543D01*
X413700D01*
Y1633543D01*
X373700D01*
X413070D02*
Y1673543D01*
X453070D01*
Y1633543D01*
X413070D01*
X452440D02*
Y1673543D01*
X492440D01*
Y1633543D01*
X452440D01*
X255590D02*
Y1673543D01*
X295590D01*
Y1633543D01*
X255590D01*
X216220D02*
Y1673543D01*
X256220D01*
Y1633543D01*
X216220D01*
X176850D02*
Y1673543D01*
X216850D01*
Y1633543D01*
X176850D01*
X137480D02*
Y1673543D01*
X177480D01*
Y1633543D01*
X137480D01*
X58740D02*
Y1673543D01*
X98740D01*
Y1633543D01*
X58740D01*
X98110D02*
Y1673543D01*
X138110D01*
Y1633543D01*
X98110D01*
X3208346Y1279213D02*
Y1319213D01*
X3248346D01*
Y1279213D01*
X3208346D01*
Y1239843D02*
Y1279843D01*
X3248346D01*
Y1239843D01*
X3208346D01*
Y1200473D02*
Y1240473D01*
X3248346D01*
Y1200473D01*
X3208346D01*
Y1161102D02*
Y1201102D01*
X3248346D01*
Y1161102D01*
X3208346D01*
Y1121732D02*
Y1161732D01*
X3248346D01*
Y1121732D01*
X3208346D01*
Y1082362D02*
Y1122362D01*
X3248346D01*
Y1082362D01*
X3208346D01*
Y1042992D02*
Y1082992D01*
X3248346D01*
Y1042992D01*
X3208346D01*
Y1003622D02*
Y1043622D01*
X3248346D01*
Y1003622D01*
X3208346D01*
Y964252D02*
Y1004252D01*
X3248346D01*
Y964252D01*
X3208346D01*
Y924882D02*
Y964882D01*
X3248346D01*
Y924882D01*
X3208346D01*
Y885512D02*
Y925512D01*
X3248346D01*
Y885512D01*
X3208346D01*
Y846142D02*
Y886142D01*
X3248346D01*
Y846142D01*
X3208346D01*
Y806772D02*
Y846772D01*
X3248346D01*
Y806772D01*
X3208346D01*
Y767402D02*
Y807402D01*
X3248346D01*
Y767402D01*
X3208346D01*
Y728032D02*
Y768032D01*
X3248346D01*
Y728032D01*
X3208346D01*
Y688662D02*
Y728662D01*
X3248346D01*
Y688662D01*
X3208346D01*
Y649291D02*
Y689291D01*
X3248346D01*
Y649291D01*
X3208346D01*
Y609921D02*
Y649921D01*
X3248346D01*
Y609921D01*
X3208346D01*
Y570551D02*
Y610551D01*
X3248346D01*
Y570551D01*
X3208346D01*
Y531181D02*
Y571181D01*
X3248346D01*
Y531181D01*
X3208346D01*
Y58740D02*
Y98740D01*
X3248346D01*
Y58740D01*
X3208346D01*
Y98110D02*
Y138110D01*
X3248346D01*
Y98110D01*
X3208346D01*
Y137480D02*
Y177480D01*
X3248346D01*
Y137480D01*
X3208346D01*
Y176850D02*
Y216850D01*
X3248346D01*
Y176850D01*
X3208346D01*
Y216220D02*
Y256221D01*
X3248346D01*
Y216220D01*
X3208346D01*
Y255591D02*
Y295591D01*
X3248346D01*
Y255591D01*
X3208346D01*
Y294961D02*
Y334961D01*
X3248346D01*
Y294961D01*
X3208346D01*
Y334331D02*
Y374331D01*
X3248346D01*
Y334331D01*
X3208346D01*
Y373701D02*
Y413701D01*
X3248346D01*
Y373701D01*
X3208346D01*
Y413071D02*
Y453071D01*
X3248346D01*
Y413071D01*
X3208346D01*
Y452441D02*
Y492441D01*
X3248346D01*
Y452441D01*
X3208346D01*
Y491811D02*
Y531811D01*
X3248346D01*
Y491811D01*
X3208346D01*
Y1318583D02*
Y1358583D01*
X3248346D01*
Y1318583D01*
X3208346D01*
Y1357953D02*
Y1397953D01*
X3248346D01*
Y1357953D01*
X3208346D01*
Y1397323D02*
Y1437323D01*
X3248346D01*
Y1397323D01*
X3208346D01*
Y1436693D02*
Y1476693D01*
X3248346D01*
Y1436693D01*
X3208346D01*
Y1476063D02*
Y1516063D01*
X3248346D01*
Y1476063D01*
X3208346D01*
X-98740Y58740D02*
Y98740D01*
X-58740D01*
Y58740D01*
X-98740D01*
Y98110D02*
Y138110D01*
X-58740D01*
Y98110D01*
X-98740D01*
Y137480D02*
Y177480D01*
X-58740D01*
Y137480D01*
X-98740D01*
Y176850D02*
Y216850D01*
X-58740D01*
Y176850D01*
X-98740D01*
Y216220D02*
Y256221D01*
X-58740D01*
Y216220D01*
X-98740D01*
Y1042992D02*
Y1082992D01*
X-58740D01*
Y1042992D01*
X-98740D01*
Y1082362D02*
Y1122362D01*
X-58740D01*
Y1082362D01*
X-98740D01*
Y1121732D02*
Y1161732D01*
X-58740D01*
Y1121732D01*
X-98740D01*
Y1161102D02*
Y1201102D01*
X-58740D01*
Y1161102D01*
X-98740D01*
Y1200473D02*
Y1240473D01*
X-58740D01*
Y1200473D01*
X-98740D01*
Y1239842D02*
Y1279842D01*
X-58740D01*
Y1239842D01*
X-98740D01*
Y1279213D02*
Y1319213D01*
X-58740D01*
Y1279213D01*
X-98740D01*
Y1318583D02*
Y1358583D01*
X-58740D01*
Y1318583D01*
X-98740D01*
Y1357953D02*
Y1397953D01*
X-58740D01*
Y1357953D01*
X-98740D01*
Y1397323D02*
Y1437323D01*
X-58740D01*
Y1397323D01*
X-98740D01*
Y1436693D02*
Y1476693D01*
X-58740D01*
Y1436693D01*
X-98740D01*
Y1476063D02*
Y1516063D01*
X-58740D01*
Y1476063D01*
X-98740D01*
Y1003622D02*
Y1043622D01*
X-58740D01*
Y1003622D01*
X-98740D01*
Y964252D02*
Y1004252D01*
X-58740D01*
Y964252D01*
X-98740D01*
Y924882D02*
Y964882D01*
X-58740D01*
Y924882D01*
X-98740D01*
Y885512D02*
Y925512D01*
X-58740D01*
Y885512D01*
X-98740D01*
Y846142D02*
Y886142D01*
X-58740D01*
Y846142D01*
X-98740D01*
Y806772D02*
Y846772D01*
X-58740D01*
Y806772D01*
X-98740D01*
Y767402D02*
Y807402D01*
X-58740D01*
Y767402D01*
X-98740D01*
Y728032D02*
Y768032D01*
X-58740D01*
Y728032D01*
X-98740D01*
Y688661D02*
Y728661D01*
X-58740D01*
Y688661D01*
X-98740D01*
Y649291D02*
Y689291D01*
X-58740D01*
Y649291D01*
X-98740D01*
Y609921D02*
Y649921D01*
X-58740D01*
Y609921D01*
X-98740D01*
Y570551D02*
Y610551D01*
X-58740D01*
Y570551D01*
X-98740D01*
Y531181D02*
Y571181D01*
X-58740D01*
Y531181D01*
X-98740D01*
Y491811D02*
Y531811D01*
X-58740D01*
Y491811D01*
X-98740D01*
Y452441D02*
Y492441D01*
X-58740D01*
Y452441D01*
X-98740D01*
Y413071D02*
Y453071D01*
X-58740D01*
Y413071D01*
X-98740D01*
Y373701D02*
Y413701D01*
X-58740D01*
Y373701D01*
X-98740D01*
Y334331D02*
Y374331D01*
X-58740D01*
Y334331D01*
X-98740D01*
Y294961D02*
Y334961D01*
X-58740D01*
Y294961D01*
X-98740D01*
Y255590D02*
Y295591D01*
X-58740D01*
Y255590D01*
X-98740D01*
X2100394Y1457362D02*
X2080394Y1497362D01*
X2120394D01*
X2100394Y1457362D01*
X2139764D02*
X2119764Y1497362D01*
X2159764D01*
X2139764Y1457362D01*
X2179134D02*
X2159134Y1497362D01*
X2199134D01*
X2179134Y1457362D01*
X2218504D02*
X2198504Y1497362D01*
X2238504D01*
X2218504Y1457362D01*
X2257874D02*
X2237874Y1497362D01*
X2277874D01*
X2257874Y1457362D01*
X2297244D02*
X2277244Y1497362D01*
X2317244D01*
X2297244Y1457362D01*
X2336614D02*
X2316614Y1497362D01*
X2356614D01*
X2336614Y1457362D01*
Y1536102D02*
X2316614Y1576102D01*
X2356614D01*
X2336614Y1536102D01*
X2218504D02*
X2198504Y1576102D01*
X2238504D01*
X2218504Y1536102D01*
X2179134D02*
X2159134Y1576102D01*
X2199134D01*
X2179134Y1536102D01*
X2061023Y1457362D02*
X2041024Y1497362D01*
X2081023D01*
X2061023Y1457362D01*
Y1536102D02*
X2041024Y1576102D01*
X2081023D01*
X2061023Y1536102D01*
D348*
X3169606Y1574803D02*
G03*
X3169606Y1574803I-20000J0D01*
G01*
Y0D02*
G03*
X3169606Y0I-20000J0D01*
G01*
X20000Y1574803D02*
G03*
X20000Y1574803I-20000J0D01*
G01*
Y0D02*
G03*
X20000Y0I-20000J0D01*
G01*
%TF.MD5,df4db67c9cf29217d73e02cf747cfb30*%
M02*
