%TF.GenerationSoftware,Altium Limited,Altium Designer,20.0.13 (296)*%
G04 Layer_Color=16711935*
%FSLAX26Y26*%
%MOIN*%
%TF.FileFunction,Other,Mechanical_13*%
%TF.Part,Single*%
G01*
G75*
%TA.AperFunction,NonConductor*%
%ADD59C,0.003937*%
%ADD60C,0.007874*%
%ADD62C,0.001968*%
D59*
X497181Y332701D02*
Y454701D01*
X605181D01*
Y332701D02*
Y454701D01*
X497181Y332701D02*
X605181D01*
X2873032Y50197D02*
Y186024D01*
X2717520D02*
X2873032D01*
X2717520Y50197D02*
Y186024D01*
Y50197D02*
X2873032D01*
X1558913Y103221D02*
X1826913D01*
Y370221D01*
X1558913D02*
X1826913D01*
X1558913Y103221D02*
Y370221D01*
Y1161992D02*
X1826913D01*
X1558913Y963992D02*
Y1161992D01*
Y963992D02*
X1826913D01*
Y1161992D01*
X1988189Y332677D02*
X2019685Y364173D01*
X1988189D02*
X2263780D01*
Y88583D02*
Y364173D01*
X1988189Y88583D02*
X2263780D01*
X1988189D02*
Y364173D01*
X1826772Y677165D02*
Y740158D01*
X1712598D02*
X1826772D01*
X1712598Y677165D02*
Y740158D01*
Y677165D02*
X1826772D01*
X1789370D02*
X1826772Y714567D01*
X1718110Y904331D02*
X1781102D01*
X1718110Y790158D02*
Y904331D01*
Y790158D02*
X1781102D01*
Y904331D01*
X1743701D02*
X1781102Y866929D01*
X2010827Y874016D02*
Y913386D01*
X2054134D01*
Y874016D02*
Y913386D01*
X2010827Y874016D02*
X2054134D01*
X1571913Y1200213D02*
Y1398213D01*
Y1200213D02*
X1813913D01*
Y1398213D01*
X1571913D02*
X1813913D01*
X1792323Y1397803D02*
X1813504Y1376622D01*
X1093032Y293441D02*
X1452032D01*
X1093032D02*
Y652441D01*
X1452032D01*
Y293441D02*
Y652441D01*
X306701Y306701D02*
Y480701D01*
X480701D01*
X306701Y306701D02*
X480701D01*
Y480701D01*
X896614Y539441D02*
X976614D01*
Y406441D02*
Y539441D01*
X896614Y406441D02*
X976614D01*
X896614D02*
Y539441D01*
X1919684Y1467756D02*
X2041732D01*
Y1570118D01*
X1919684D02*
X2041732D01*
X1919684Y1467756D02*
Y1570118D01*
X33465Y407480D02*
Y616142D01*
X189961D01*
X242126Y563976D01*
Y459646D02*
Y563976D01*
X189961Y407480D02*
X242126Y459646D01*
X33465Y407480D02*
X189961D01*
X1098472Y712402D02*
X1343472D01*
Y862402D01*
X1098472D02*
X1343472D01*
X1098472Y712402D02*
Y862402D01*
X33465Y958661D02*
Y1167323D01*
X189961D01*
X242126Y1115158D01*
Y1010827D02*
Y1115158D01*
X189961Y958661D02*
X242126Y1010827D01*
X33465Y958661D02*
X189961D01*
X33465Y1194882D02*
Y1403543D01*
X189961D01*
X242126Y1351378D01*
Y1247047D02*
Y1351378D01*
X189961Y1194882D02*
X242126Y1247047D01*
X33465Y1194882D02*
X189961D01*
X33465Y171260D02*
Y379921D01*
X189961D01*
X242126Y327756D01*
Y223425D02*
Y327756D01*
X189961Y171260D02*
X242126Y223425D01*
X33465Y171260D02*
X189961D01*
X306701Y1094102D02*
Y1268102D01*
X480701D01*
X306701Y1094102D02*
X480701D01*
Y1268102D01*
X3114094Y481063D02*
Y520433D01*
X3070787D02*
X3114094D01*
X3070787Y481063D02*
Y520433D01*
Y481063D02*
X3114094D01*
X3046338D02*
Y520433D01*
X3003032D02*
X3046338D01*
X3003032Y481063D02*
Y520433D01*
Y481063D02*
X3046338D01*
X1438976Y1220473D02*
Y1259842D01*
X1395669D02*
X1438976D01*
X1395669Y1220473D02*
Y1259842D01*
Y1220473D02*
X1438976D01*
X1281496D02*
Y1259842D01*
X1238189D02*
X1281496D01*
X1238189Y1220473D02*
Y1259842D01*
Y1220473D02*
X1281496D01*
X1124016D02*
Y1259842D01*
X1080709D02*
X1124016D01*
X1080709Y1220473D02*
Y1259842D01*
Y1220473D02*
X1124016D01*
X966535D02*
Y1259842D01*
X923228D02*
X966535D01*
X923228Y1220473D02*
Y1259842D01*
Y1220473D02*
X966535D01*
X2084646Y1304528D02*
Y1343898D01*
X2127953D01*
Y1304528D02*
Y1343898D01*
X2084646Y1304528D02*
X2127953D01*
X1927165D02*
Y1343898D01*
X1970472D01*
Y1304528D02*
Y1343898D01*
X1927165Y1304528D02*
X1970472D01*
X2242126Y1307480D02*
Y1346850D01*
X2285433D01*
Y1307480D02*
Y1346850D01*
X2242126Y1307480D02*
X2285433D01*
X1080709Y866142D02*
Y905512D01*
Y866142D02*
X1124016D01*
Y905512D01*
X1080709D02*
X1124016D01*
X1238189Y866142D02*
Y905512D01*
Y866142D02*
X1281496D01*
Y905512D01*
X1238189D02*
X1281496D01*
X923228Y866142D02*
Y905512D01*
Y866142D02*
X966535D01*
Y905512D01*
X923228D02*
X966535D01*
X497181Y1120102D02*
Y1242102D01*
X605181D01*
Y1120102D02*
Y1242102D01*
X497181Y1120102D02*
X605181D01*
X2992126Y739646D02*
Y802638D01*
X3106299D01*
Y739646D02*
Y802638D01*
X2992126Y739646D02*
X3106299D01*
X2992126Y777047D02*
X3029528Y739646D01*
X519685Y844488D02*
X582677D01*
Y730315D02*
Y844488D01*
X519685Y730315D02*
X582677D01*
X519685D02*
Y844488D01*
Y807087D02*
X557087Y844488D01*
X86614Y807087D02*
X124016Y844488D01*
X86614Y730315D02*
Y844488D01*
Y730315D02*
X149606D01*
Y844488D01*
X86614D02*
X149606D01*
X1928150Y50197D02*
Y186024D01*
X1772638D02*
X1928150D01*
X1772638Y50197D02*
Y186024D01*
Y50197D02*
X1928150D01*
X2400590D02*
Y186024D01*
X2245079D02*
X2400590D01*
X2245079Y50197D02*
Y186024D01*
Y50197D02*
X2400590D01*
X1673228Y677165D02*
Y740158D01*
X1559055D02*
X1673228D01*
X1559055Y677165D02*
Y740158D01*
Y677165D02*
X1673228D01*
X1635827D02*
X1673228Y714567D01*
X1826913Y412811D02*
Y610811D01*
X1558913Y412811D02*
X1826913D01*
X1558913D02*
Y610811D01*
X1826913D01*
X2247984Y515551D02*
Y665551D01*
X2002984Y515551D02*
X2247984D01*
X2002984D02*
Y665551D01*
X2247984D01*
D60*
X2006244Y851402D02*
X2086244D01*
Y722402D02*
Y851402D01*
X2006244Y722402D02*
X2086244D01*
X2006244D02*
Y851402D01*
X1440732Y920047D02*
Y1491047D01*
X842732Y920047D02*
X1440732D01*
X842732D02*
Y1491047D01*
X1440732D01*
D62*
X1368323Y774087D02*
X1466323D01*
X1368323D02*
Y840087D01*
X1466323D01*
Y774087D02*
Y840087D01*
X1257213Y238850D02*
X1341213D01*
X1257213Y154850D02*
Y238850D01*
Y164850D02*
X1267213Y154850D01*
X1257213D02*
X1341213D01*
Y238850D01*
X1368323Y911882D02*
X1466323D01*
X1368323D02*
Y977882D01*
X1466323D01*
Y911882D02*
Y977882D01*
X1648000Y1501000D02*
Y1599000D01*
X1582000D02*
X1648000D01*
X1582000Y1501000D02*
Y1599000D01*
Y1501000D02*
X1648000D01*
%TF.MD5,4469c7a0be7a59060fdcb1ba97021ba8*%
M02*
