%TF.GenerationSoftware,Altium Limited,Altium Designer,20.0.13 (296)*%
G04 Layer_Color=128*
%FSLAX26Y26*%
%MOIN*%
%TF.FileFunction,Drillmap*%
%TF.Part,Single*%
G01*
G75*
%TA.AperFunction,NonConductor*%
%ADD93C,0.005000*%
D93*
X2620079Y217520D02*
X2627953D01*
X2624016Y213583D02*
Y221457D01*
X2622047Y103347D02*
X2629921D01*
X2625984Y99409D02*
Y107284D01*
X2899606Y-13780D02*
X2907480D01*
X2903543Y-17716D02*
Y-9842D01*
X3083661Y243110D02*
X3091535D01*
X3087598Y239173D02*
Y247047D01*
X2982284Y467520D02*
X2990157D01*
X2986220Y463583D02*
Y471457D01*
X3114173Y585630D02*
X3122047D01*
X3118110Y581693D02*
Y589567D01*
X2069882Y1306102D02*
X2077756D01*
X2073819Y1302165D02*
Y1310039D01*
X1220472Y1465551D02*
X1228346D01*
X1224409Y1461614D02*
Y1469488D01*
X1409449Y1045276D02*
X1417323D01*
X1413386Y1041339D02*
Y1049213D01*
X1619094Y852362D02*
X1626968D01*
X1623032Y848425D02*
Y856299D01*
X2105315Y1094488D02*
X2113189D01*
X2109252Y1090551D02*
Y1098425D01*
X2101378Y991142D02*
X2109252D01*
X2105315Y987205D02*
Y995079D01*
X2329724Y927165D02*
X2337598D01*
X2333661Y923228D02*
Y931102D01*
X2835630Y1346457D02*
X2843504D01*
X2839567Y1342520D02*
Y1350394D01*
X2981299Y1237205D02*
X2989173D01*
X2985236Y1233268D02*
Y1241142D01*
X2847441Y589567D02*
X2855315D01*
X2851378Y585630D02*
Y593504D01*
X2856299Y872047D02*
X2864173D01*
X2860236Y868110D02*
Y875984D01*
X2855315Y948819D02*
X2863189D01*
X2859252Y944882D02*
Y952756D01*
X2603347Y1049213D02*
X2611220D01*
X2607284Y1045276D02*
Y1053150D01*
X2606299Y865158D02*
X2614173D01*
X2610236Y861221D02*
Y869095D01*
X2607284Y695866D02*
X2615157D01*
X2611220Y691929D02*
Y699803D01*
X2634843Y532480D02*
X2642716D01*
X2638780Y528543D02*
Y536417D01*
X2829724Y336614D02*
X2837598D01*
X2833661Y332677D02*
Y340551D01*
X2691929Y187992D02*
X2699803D01*
X2695866Y184055D02*
Y191929D01*
X2709646Y57087D02*
X2717520D01*
X2713583Y53150D02*
Y61024D01*
X1918307Y30512D02*
X1926181D01*
X1922244Y26575D02*
Y34449D01*
Y118110D02*
X1930118D01*
X1926181Y114173D02*
Y122047D01*
X2419291Y23622D02*
X2427165D01*
X2423228Y19685D02*
Y27559D01*
X2140748Y201772D02*
X2148622D01*
X2144685Y197835D02*
Y205709D01*
X2137795Y76772D02*
X2145669D01*
X2141732Y72835D02*
Y80709D01*
X1171260Y244095D02*
X1179134D01*
X1175197Y240157D02*
Y248031D01*
X1204724Y86614D02*
X1212598D01*
X1208661Y82677D02*
Y90551D01*
X1428150Y97441D02*
X1436024D01*
X1432087Y93504D02*
Y101378D01*
X1561024Y194882D02*
X1568898D01*
X1564961Y190945D02*
Y198819D01*
X1729331Y722441D02*
X1737205D01*
X1733268Y718504D02*
Y726378D01*
X1017716Y1252953D02*
X1025591D01*
X1021654Y1249016D02*
Y1256890D01*
X1175197Y1255906D02*
X1183071D01*
X1179134Y1251968D02*
Y1259842D01*
X1316929Y1254921D02*
X1324803D01*
X1320866Y1250984D02*
Y1258858D01*
X1512795Y1231299D02*
X1520669D01*
X1516732Y1227362D02*
Y1235236D01*
X1531496Y952756D02*
X1539370D01*
X1535433Y948819D02*
Y956693D01*
X1149606Y750000D02*
X1157480D01*
X1153543Y746063D02*
Y753937D01*
X1305118Y748032D02*
X1312992D01*
X1309055Y744095D02*
Y751968D01*
X1312008Y666339D02*
X1319882D01*
X1315945Y662402D02*
Y670276D01*
X1102362Y669291D02*
X1110236D01*
X1106299Y665354D02*
Y673228D01*
X1001968Y754921D02*
X1009842D01*
X1005905Y750984D02*
Y758858D01*
X545276Y791339D02*
X553150D01*
X549213Y787402D02*
Y795276D01*
X841535Y625000D02*
X849409D01*
X845472Y621063D02*
Y628937D01*
X849409Y406496D02*
X857284D01*
X853346Y402559D02*
Y410433D01*
X697835Y339567D02*
X705709D01*
X701772Y335630D02*
Y343504D01*
X637795Y262795D02*
X645669D01*
X641732Y258858D02*
Y266732D01*
X773622Y128937D02*
X781496D01*
X777559Y125000D02*
Y132874D01*
X348425Y1532480D02*
X356299D01*
X352362Y1528543D02*
Y1536417D01*
X651575Y1451772D02*
X659449D01*
X655512Y1447835D02*
Y1455709D01*
X799213Y1306102D02*
X807087D01*
X803150Y1302165D02*
Y1310039D01*
X723425Y1089567D02*
X731299D01*
X727362Y1085630D02*
Y1093504D01*
X479331Y992126D02*
X487205D01*
X483268Y988189D02*
Y996063D01*
X471457Y904528D02*
X479331D01*
X475394Y900591D02*
Y908465D01*
X779528Y899606D02*
X787402D01*
X783465Y895669D02*
Y903543D01*
X719488Y531496D02*
X727362D01*
X723425Y527559D02*
Y535433D01*
X774606Y703740D02*
X782480D01*
X778543Y699803D02*
Y707677D01*
X341535Y638779D02*
X349409D01*
X345472Y634842D02*
Y642716D01*
X488189Y634842D02*
X496063D01*
X492126Y630905D02*
Y638779D01*
X423228Y393701D02*
X431102D01*
X427165Y389764D02*
Y397638D01*
X3064370Y1163386D02*
X3072244D01*
X3068307Y1159449D02*
Y1167323D01*
X3014370Y1163386D02*
X3022244D01*
X3018307Y1159449D02*
Y1167323D01*
X2708662Y1312401D02*
X2716536D01*
X2712599Y1308464D02*
Y1316338D01*
X2602362Y1312401D02*
X2610236D01*
X2606299Y1308464D02*
Y1316338D01*
X1330709Y276083D02*
X1338583D01*
X1334646Y272146D02*
Y280020D01*
X1097441Y379921D02*
X1105315D01*
X1101378Y375984D02*
Y383858D01*
X1081496Y750000D02*
X1089370D01*
X1085433Y746063D02*
Y753937D01*
X1238976Y750000D02*
X1246850D01*
X1242913Y746063D02*
Y753937D01*
X1381890Y751968D02*
X1389764D01*
X1385827Y748032D02*
Y755905D01*
X1482284Y751968D02*
X1490158D01*
X1486220Y748032D02*
Y755905D01*
X1444882Y751968D02*
X1452756D01*
X1448819Y748032D02*
Y755905D01*
X924016Y750000D02*
X931890D01*
X927953Y746063D02*
Y753937D01*
X1858268Y391142D02*
X1866142D01*
X1862205Y387205D02*
Y395079D01*
X1259842Y134534D02*
X1267716D01*
X1263780Y130597D02*
Y138471D01*
X924016Y354331D02*
X931890D01*
X927953Y350394D02*
Y358268D01*
X1929134Y816338D02*
X1937008D01*
X1933071Y812401D02*
Y820275D01*
X2529528Y-9843D02*
X2537402D01*
X2533465Y-13780D02*
Y-5906D01*
X2377953Y-9843D02*
X2385827D01*
X2381890Y-13780D02*
Y-5906D01*
X2328740Y24353D02*
X2336614D01*
X2332677Y20416D02*
Y28290D01*
X2301181Y24353D02*
X2309055D01*
X2305118Y20416D02*
Y28290D01*
X2269685Y24353D02*
X2277559D01*
X2273622Y20416D02*
Y28290D01*
X1974409Y-9843D02*
X1982284D01*
X1978347Y-13780D02*
Y-5906D01*
X1955610Y147638D02*
X1963484D01*
X1959547Y143701D02*
Y151575D01*
X1955610Y88583D02*
X1963484D01*
X1959547Y84646D02*
Y92520D01*
X2870079Y50197D02*
X2877953D01*
X2874016Y46260D02*
Y54134D01*
X2428051Y147638D02*
X2435925D01*
X2431988Y143701D02*
Y151575D01*
X2460123Y38509D02*
X2467997D01*
X2464060Y34572D02*
Y42446D01*
X2428051Y98740D02*
X2435925D01*
X2431988Y94803D02*
Y102677D01*
X3082677Y765315D02*
X3090551D01*
X3086614Y761378D02*
Y769252D01*
X619488Y825787D02*
X627362D01*
X623425Y821850D02*
Y829724D01*
X1057087Y415354D02*
X1064961D01*
X1061024Y411417D02*
Y419291D01*
X1026378Y570866D02*
X1034252D01*
X1030315Y566929D02*
Y574803D01*
X962205Y550000D02*
X970079D01*
X966142Y546063D02*
Y553937D01*
X475000Y749016D02*
X482874D01*
X478937Y745079D02*
Y752953D01*
X1816929Y27559D02*
X1824803D01*
X1820866Y23622D02*
Y31496D01*
X1766339Y50197D02*
X1774213D01*
X1770276Y46260D02*
Y54134D01*
X2862204Y639173D02*
X2870078D01*
X2866141Y635236D02*
Y643110D01*
X1309154Y904626D02*
X1317028D01*
X1313091Y900689D02*
Y908563D01*
X2901772Y78740D02*
X2909646D01*
X2905709Y74803D02*
Y82677D01*
X1787402Y497441D02*
X1795276D01*
X1791339Y493504D02*
Y501378D01*
X783465Y393701D02*
X791339D01*
X787402Y389764D02*
Y397638D01*
X783465Y590551D02*
X791339D01*
X787402Y586614D02*
Y594488D01*
X783465Y354331D02*
X791339D01*
X787402Y350394D02*
Y358268D01*
X783465Y551181D02*
X791339D01*
X787402Y547244D02*
Y555118D01*
X1330709Y161417D02*
X1338583D01*
X1334646Y157480D02*
Y165354D01*
X1361614Y181102D02*
X1369488D01*
X1365551Y177165D02*
Y185039D01*
X1098425Y149016D02*
X1106299D01*
X1102362Y145079D02*
Y152953D01*
X1137795Y149016D02*
X1145669D01*
X1141732Y145079D02*
Y152953D01*
X1355512Y824409D02*
X1363386D01*
X1359449Y820472D02*
Y828346D01*
X304134Y1299213D02*
X312008D01*
X308071Y1295276D02*
Y1303150D01*
X389764Y1062992D02*
X397638D01*
X393701Y1059055D02*
Y1066929D01*
X3105433Y326850D02*
X3113307D01*
X3109370Y322913D02*
Y330787D01*
X3037677Y326772D02*
X3045551D01*
X3041614Y322835D02*
Y330709D01*
X25591Y824803D02*
X33465D01*
X29528Y820866D02*
Y828740D01*
X1430118Y1202756D02*
X1437992D01*
X1434055Y1198819D02*
Y1206693D01*
X389764Y275591D02*
X397638D01*
X393701Y271654D02*
Y279528D01*
X2901772Y140000D02*
X2909646D01*
X2905709Y136063D02*
Y143937D01*
X3007874Y698898D02*
X3015748D01*
X3011811Y694961D02*
Y702835D01*
X517716Y480945D02*
X525591D01*
X521654Y477008D02*
Y484882D01*
X475000Y825787D02*
X482874D01*
X478937Y821850D02*
Y829724D01*
X338583Y818405D02*
X346457D01*
X342520Y814468D02*
Y822342D01*
X2269685Y209646D02*
X2277559D01*
X2273622Y205709D02*
Y213583D01*
X2329724Y209646D02*
X2337598D01*
X2333661Y205709D02*
Y213583D01*
X2295276Y209646D02*
X2303150D01*
X2299213Y205709D02*
Y213583D01*
X2786492Y210125D02*
X2794367D01*
X2790430Y206188D02*
Y214062D01*
X2820866Y211811D02*
X2828740D01*
X2824803Y207874D02*
Y215748D01*
X2761811Y209646D02*
X2769685D01*
X2765748Y205709D02*
Y213583D01*
X2724619Y209646D02*
X2732492D01*
X2728555Y205709D02*
Y213583D01*
X583858Y313091D02*
X591732D01*
X587795Y309154D02*
Y317027D01*
X1797370Y209968D02*
X1805244D01*
X1801307Y206031D02*
Y213905D01*
X1824934Y209843D02*
X1832807D01*
X1828870Y205905D02*
Y213780D01*
X1381890Y889764D02*
X1389764D01*
X1385827Y885827D02*
Y893701D01*
X2779527Y462008D02*
X2787401D01*
X2783464Y458071D02*
Y465945D01*
X2566929Y462008D02*
X2574803D01*
X2570866Y458071D02*
Y465945D01*
X2708661Y391142D02*
X2716535D01*
X2712598Y387205D02*
Y395079D01*
X2637795Y391142D02*
X2645669D01*
X2641732Y387205D02*
Y395079D01*
X2790839Y24606D02*
X2798713D01*
X2794776Y20669D02*
Y28543D01*
X2732733Y23720D02*
X2740607D01*
X2736670Y19783D02*
Y27657D01*
X2761811Y23720D02*
X2769685D01*
X2765748Y19783D02*
Y27657D01*
X2840551Y23720D02*
X2848425D01*
X2844488Y19783D02*
Y27657D01*
X1858268Y1241535D02*
X1866142D01*
X1862205Y1237598D02*
Y1245472D01*
X1864173Y1093504D02*
X1872047D01*
X1868110Y1089567D02*
Y1097441D01*
X1858268Y1028937D02*
X1866142D01*
X1862205Y1025000D02*
Y1032874D01*
X1858268Y958071D02*
X1866142D01*
X1862205Y954134D02*
Y962008D01*
X1929134Y391142D02*
X1937008D01*
X1933071Y387205D02*
Y395079D01*
X2000000Y391142D02*
X2007874D01*
X2003937Y387205D02*
Y395079D01*
X2070866Y391142D02*
X2078740D01*
X2074803Y387205D02*
Y395079D01*
X2141732Y391142D02*
X2149606D01*
X2145669Y387205D02*
Y395079D01*
X2637795Y462008D02*
X2645669D01*
X2641732Y458071D02*
Y465945D01*
X2708661Y462008D02*
X2716535D01*
X2712598Y458071D02*
Y465945D01*
X2850393Y462008D02*
X2858267D01*
X2854330Y458071D02*
Y465945D01*
X2779527Y391142D02*
X2787401D01*
X2783464Y387205D02*
Y395079D01*
X1310236Y1299213D02*
X1318110D01*
X1314173Y1295276D02*
Y1303150D01*
X1444882Y889764D02*
X1452756D01*
X1448819Y885827D02*
Y893701D01*
X1444882Y1000000D02*
X1452756D01*
X1448819Y996063D02*
Y1003937D01*
X1152756Y1298706D02*
X1160630D01*
X1156693Y1294769D02*
Y1302643D01*
X1381890Y1000000D02*
X1389764D01*
X1385827Y996063D02*
Y1003937D01*
X1151673Y904626D02*
X1159547D01*
X1155610Y900689D02*
Y908563D01*
X993110Y903543D02*
X1000984D01*
X997047Y899606D02*
Y907480D01*
X1467716Y1102362D02*
X1475591D01*
X1471653Y1098425D02*
Y1106299D01*
X1375984Y1257874D02*
X1383858D01*
X1379921Y1253937D02*
Y1261811D01*
X1310236Y1181102D02*
X1318110D01*
X1314173Y1177165D02*
Y1185039D01*
X1152756Y1181102D02*
X1160630D01*
X1156693Y1177165D02*
Y1185039D01*
X995276Y1299213D02*
X1003150D01*
X999213Y1295276D02*
Y1303150D01*
X995276Y1181102D02*
X1003150D01*
X999213Y1177165D02*
Y1185039D01*
%TF.MD5,99b13dc63c5a86f136d926daf8681868*%
M02*
