%TF.GenerationSoftware,Altium Limited,Altium Designer,20.0.13 (296)*%
G04 Layer_Color=128*
%FSLAX26Y26*%
%MOIN*%
%TF.FileFunction,Paste,Bot*%
%TF.Part,Single*%
G01*
G75*
%TA.AperFunction,SMDPad,CuDef*%
%ADD11R,0.031496X0.019685*%
%ADD17R,0.018504X0.020472*%
%ADD23R,0.020472X0.018504*%
%ADD30R,0.015748X0.015748*%
%ADD31R,0.015748X0.015748*%
%ADD32R,0.019685X0.031496*%
%ADD40R,0.039370X0.017716*%
%ADD41R,0.051181X0.019685*%
%ADD42R,0.019685X0.051181*%
%ADD43R,0.011811X0.039370*%
%ADD44R,0.039370X0.011811*%
%ADD45C,0.039370*%
%ADD46R,0.061024X0.023622*%
%ADD47R,0.109840X0.029130*%
%ADD48R,0.027559X0.019685*%
%ADD49R,0.023622X0.015748*%
%ADD50R,0.165354X0.133858*%
%ADD51R,0.019685X0.023622*%
%ADD52R,0.057087X0.078740*%
%ADD53R,0.031496X0.059055*%
%ADD54R,0.070866X0.055118*%
%TA.AperFunction,NonConductor*%
%ADD55R,0.109840X0.029140*%
D11*
X1800787Y884646D02*
D03*
Y847244D02*
D03*
Y809843D02*
D03*
X1698425D02*
D03*
Y884646D02*
D03*
D17*
X179921Y612402D02*
D03*
X213780D02*
D03*
X1934646Y987992D02*
D03*
X1968504D02*
D03*
X1934646Y1037992D02*
D03*
X1968504D02*
D03*
X1934646Y1137992D02*
D03*
X1968504D02*
D03*
X1934646Y1087992D02*
D03*
X1968504D02*
D03*
X2110236Y452756D02*
D03*
X2076378D02*
D03*
X2173228D02*
D03*
X2139370D02*
D03*
X2204724Y0D02*
D03*
X2170866D02*
D03*
X2123228Y1274213D02*
D03*
X2089370D02*
D03*
X2123228Y1374213D02*
D03*
X2089370D02*
D03*
X1965748Y1274213D02*
D03*
X1931890D02*
D03*
X1965748Y1374213D02*
D03*
X1931890D02*
D03*
X2280709Y1277165D02*
D03*
X2246850D02*
D03*
X2280709Y1377166D02*
D03*
X2246850D02*
D03*
X1265354Y0D02*
D03*
X1299213D02*
D03*
X573622Y112402D02*
D03*
X607480D02*
D03*
X573622Y162402D02*
D03*
X607480D02*
D03*
X573622Y212402D02*
D03*
X607480D02*
D03*
X213780Y62402D02*
D03*
X179921D02*
D03*
X213780Y112402D02*
D03*
X179921D02*
D03*
X213780Y162402D02*
D03*
X179921D02*
D03*
X2935827Y112402D02*
D03*
X2969685D02*
D03*
X2935827Y162402D02*
D03*
X2969685D02*
D03*
X2575984Y62402D02*
D03*
X2542126D02*
D03*
X2575984Y112402D02*
D03*
X2542126D02*
D03*
X2575984Y162402D02*
D03*
X2542126D02*
D03*
X573622Y1462402D02*
D03*
X607480D02*
D03*
X573622Y1512402D02*
D03*
X607480D02*
D03*
X213780Y1412402D02*
D03*
X179921D02*
D03*
X213780Y1462402D02*
D03*
X179921D02*
D03*
X2935827Y1462402D02*
D03*
X2969685D02*
D03*
X2935827Y1512402D02*
D03*
X2969685D02*
D03*
X2575984Y1412402D02*
D03*
X2542126D02*
D03*
X2575984Y1462402D02*
D03*
X2542126D02*
D03*
X1501575Y1152559D02*
D03*
X1535433D02*
D03*
X1934646Y770472D02*
D03*
X1968504D02*
D03*
X1934646Y809842D02*
D03*
X1968504D02*
D03*
X2139370Y805118D02*
D03*
X2173228D02*
D03*
X2139370Y875984D02*
D03*
X2173228D02*
D03*
X1501575Y1374213D02*
D03*
X1535433D02*
D03*
X213780Y662402D02*
D03*
X179921D02*
D03*
X213780Y712402D02*
D03*
X179921D02*
D03*
X213780Y762402D02*
D03*
X179921D02*
D03*
X213780Y812402D02*
D03*
X179921D02*
D03*
X213780Y862402D02*
D03*
X179921D02*
D03*
X213780Y912402D02*
D03*
X179921D02*
D03*
X213780Y962402D02*
D03*
X179921D02*
D03*
X213780Y1012402D02*
D03*
X179921D02*
D03*
X213780Y1062402D02*
D03*
X179921D02*
D03*
X213780Y1112402D02*
D03*
X179921D02*
D03*
X213780Y1162402D02*
D03*
X179921D02*
D03*
X213780Y1212402D02*
D03*
X179921D02*
D03*
X213780Y1262402D02*
D03*
X179921D02*
D03*
X2575984Y262402D02*
D03*
X2542126D02*
D03*
X2575984Y312402D02*
D03*
X2542126D02*
D03*
X2575984Y362402D02*
D03*
X2542126D02*
D03*
X2575984Y412402D02*
D03*
X2542126D02*
D03*
X2575984Y462402D02*
D03*
X2542126D02*
D03*
X2575984Y512402D02*
D03*
X2542126D02*
D03*
X2575984Y562402D02*
D03*
X2542126D02*
D03*
X2575984Y612402D02*
D03*
X2542126D02*
D03*
X2575984Y662402D02*
D03*
X2542126D02*
D03*
X2575984Y712402D02*
D03*
X2542126D02*
D03*
X2575984Y762402D02*
D03*
X2542126D02*
D03*
X2575984Y812402D02*
D03*
X2542126D02*
D03*
X2575984Y862402D02*
D03*
X2542126D02*
D03*
X2575984Y912402D02*
D03*
X2542126D02*
D03*
X2575984Y962402D02*
D03*
X2542126D02*
D03*
X2575984Y1012402D02*
D03*
X2542126D02*
D03*
X2575984Y1062402D02*
D03*
X2542126D02*
D03*
X2575984Y1112402D02*
D03*
X2542126D02*
D03*
X2575984Y1162402D02*
D03*
X2542126D02*
D03*
X2575984Y1212402D02*
D03*
X2542126D02*
D03*
X2575984Y1262402D02*
D03*
X2542126D02*
D03*
X2575984Y1312402D02*
D03*
X2542126D02*
D03*
X2575984Y1362402D02*
D03*
X2542126D02*
D03*
X2935827Y212402D02*
D03*
X2969685D02*
D03*
X2935827Y262402D02*
D03*
X2969685D02*
D03*
X2935827Y312402D02*
D03*
X2969685D02*
D03*
X2935827Y362402D02*
D03*
X2969685D02*
D03*
X2935827Y412402D02*
D03*
X2969685D02*
D03*
X2935827Y462402D02*
D03*
X2969685D02*
D03*
X2935827Y512402D02*
D03*
X2969685D02*
D03*
X2935827Y562402D02*
D03*
X2969685D02*
D03*
X2935827Y812402D02*
D03*
X2969685D02*
D03*
X2935827Y762402D02*
D03*
X2969685D02*
D03*
X2935827Y712402D02*
D03*
X2969685D02*
D03*
X2935827Y662402D02*
D03*
X2969685D02*
D03*
X2935827Y1362402D02*
D03*
X2969685D02*
D03*
X2935827Y1312402D02*
D03*
X2969685D02*
D03*
X2935827Y1262402D02*
D03*
X2969685D02*
D03*
X2935827Y1212402D02*
D03*
X2969685D02*
D03*
X2935827Y1162402D02*
D03*
X2969685D02*
D03*
X2935827Y1112402D02*
D03*
X2969685D02*
D03*
X2935827Y1062402D02*
D03*
X2969685D02*
D03*
X2935827Y1012402D02*
D03*
X2969685D02*
D03*
X573622Y1362401D02*
D03*
X607480D02*
D03*
X573622Y1312401D02*
D03*
X607480D02*
D03*
X573622Y1262401D02*
D03*
X607480D02*
D03*
X573622Y1212401D02*
D03*
X607480D02*
D03*
X573622Y1162401D02*
D03*
X607480D02*
D03*
X573622Y1112401D02*
D03*
X607480D02*
D03*
X573622Y1062402D02*
D03*
X607480D02*
D03*
X573622Y1012402D02*
D03*
X607480D02*
D03*
X573622Y312402D02*
D03*
X607480D02*
D03*
X573622Y262402D02*
D03*
X607480D02*
D03*
X573622Y412402D02*
D03*
X607480D02*
D03*
X573622Y362402D02*
D03*
X607480D02*
D03*
X573622Y512402D02*
D03*
X607480D02*
D03*
X573622Y462402D02*
D03*
X607480D02*
D03*
X573622Y612402D02*
D03*
X607480D02*
D03*
X573622Y562402D02*
D03*
X607480D02*
D03*
X573622Y712402D02*
D03*
X607480D02*
D03*
X573622Y662402D02*
D03*
X607480D02*
D03*
X573622Y812402D02*
D03*
X607480D02*
D03*
X573622Y762402D02*
D03*
X607480D02*
D03*
X573622Y862402D02*
D03*
X607480D02*
D03*
X573622Y912402D02*
D03*
X607480D02*
D03*
X573622Y962402D02*
D03*
X607480D02*
D03*
X213780Y1312402D02*
D03*
X179921D02*
D03*
X213780Y1362402D02*
D03*
X179921D02*
D03*
X2935827Y612402D02*
D03*
X2969685D02*
D03*
X2935827Y862402D02*
D03*
X2969685D02*
D03*
X2935827Y912402D02*
D03*
X2969685D02*
D03*
X2935827Y962402D02*
D03*
X2969685D02*
D03*
X1816535Y1552067D02*
D03*
X1782677D02*
D03*
X1816535Y1512402D02*
D03*
X1782677D02*
D03*
X2089370Y1224213D02*
D03*
X2123228D02*
D03*
X1816535Y1591732D02*
D03*
X1782677D02*
D03*
X1931890Y1224213D02*
D03*
X1965748D02*
D03*
X2246850Y1227165D02*
D03*
X2280709D02*
D03*
X1501575Y1073819D02*
D03*
X1535433D02*
D03*
X1501575Y1113189D02*
D03*
X1535433D02*
D03*
X2139370Y769685D02*
D03*
X2173228D02*
D03*
X2139370Y734252D02*
D03*
X2173228D02*
D03*
X2139370Y840551D02*
D03*
X2173228D02*
D03*
X2139370Y911417D02*
D03*
X2173228D02*
D03*
X1850394Y884646D02*
D03*
X1884252D02*
D03*
X1850394Y809843D02*
D03*
X1884252D02*
D03*
X1535433Y1274213D02*
D03*
X1501575D02*
D03*
X1535433Y1224213D02*
D03*
X1501575D02*
D03*
X179921Y262402D02*
D03*
X213780D02*
D03*
X179921Y312402D02*
D03*
X213780D02*
D03*
X179921Y362402D02*
D03*
X213780D02*
D03*
X179921Y412402D02*
D03*
X213780D02*
D03*
X179921Y462402D02*
D03*
X213780D02*
D03*
X179921Y512402D02*
D03*
X213780D02*
D03*
X179921Y562402D02*
D03*
X213780D02*
D03*
D23*
X2283465Y1071850D02*
D03*
Y1037992D02*
D03*
X1692913Y658858D02*
D03*
Y692716D02*
D03*
X1850394D02*
D03*
Y658858D02*
D03*
X1535433Y758465D02*
D03*
Y724606D02*
D03*
X1616142Y809843D02*
D03*
Y843701D02*
D03*
X1535433Y1587992D02*
D03*
Y1554134D02*
D03*
X1968504Y654724D02*
D03*
Y620866D02*
D03*
X2283465Y560236D02*
D03*
Y526378D02*
D03*
X1889764Y242126D02*
D03*
Y208268D02*
D03*
X1145473Y1557874D02*
D03*
Y1591732D02*
D03*
X1535433Y567520D02*
D03*
Y601378D02*
D03*
X1850394D02*
D03*
Y567520D02*
D03*
Y146654D02*
D03*
Y112795D02*
D03*
X1535433Y146654D02*
D03*
Y112795D02*
D03*
Y317520D02*
D03*
Y351378D02*
D03*
X1003937Y708661D02*
D03*
Y742520D02*
D03*
X787402Y295276D02*
D03*
Y329134D02*
D03*
X1377953Y723228D02*
D03*
Y757087D02*
D03*
X1062992Y817717D02*
D03*
Y851575D02*
D03*
X1496063Y427559D02*
D03*
Y393701D02*
D03*
X925197Y742520D02*
D03*
Y708661D02*
D03*
X1653543Y809843D02*
D03*
Y843701D02*
D03*
X1850394Y724606D02*
D03*
Y758465D02*
D03*
X1535433Y658858D02*
D03*
Y692716D02*
D03*
X1535433Y809843D02*
D03*
Y843701D02*
D03*
X1578740Y809843D02*
D03*
Y843701D02*
D03*
X1850394Y208268D02*
D03*
Y242126D02*
D03*
X1102165Y1591732D02*
D03*
Y1557874D02*
D03*
X1275394Y1591732D02*
D03*
Y1557874D02*
D03*
X1188779Y1591732D02*
D03*
Y1557874D02*
D03*
X1058858Y1591732D02*
D03*
Y1557874D02*
D03*
X1889764Y601378D02*
D03*
Y567520D02*
D03*
X1496063Y351378D02*
D03*
Y317520D02*
D03*
X964567Y708661D02*
D03*
Y742520D02*
D03*
D30*
X2032480Y911417D02*
D03*
X2106299Y1341929D02*
D03*
X1948819D02*
D03*
X2263780Y1344882D02*
D03*
D31*
X2017717Y875984D02*
D03*
X2047244D02*
D03*
X2091535Y1306496D02*
D03*
X2121063D02*
D03*
X1934055D02*
D03*
X1963583D02*
D03*
X2249016Y1309449D02*
D03*
X2278543D02*
D03*
D32*
X1807087Y665354D02*
D03*
X1769685D02*
D03*
X1732283D02*
D03*
Y751968D02*
D03*
X1807087D02*
D03*
X1769685D02*
D03*
X1597284Y1518504D02*
D03*
Y1581496D02*
D03*
X1632716D02*
D03*
Y1518504D02*
D03*
X1653543Y665354D02*
D03*
X1616142D02*
D03*
X1578740D02*
D03*
Y751968D02*
D03*
X1653543D02*
D03*
X1616142D02*
D03*
D40*
X1807087Y351378D02*
D03*
X1578740D02*
D03*
X1807087Y121063D02*
D03*
X1578740D02*
D03*
Y146654D02*
D03*
Y325787D02*
D03*
Y300197D02*
D03*
Y274606D02*
D03*
Y249016D02*
D03*
Y172244D02*
D03*
Y197835D02*
D03*
Y223425D02*
D03*
X1807087Y146654D02*
D03*
Y325787D02*
D03*
Y300197D02*
D03*
Y274606D02*
D03*
Y249016D02*
D03*
Y172244D02*
D03*
Y197835D02*
D03*
Y223425D02*
D03*
Y1152559D02*
D03*
Y973425D02*
D03*
Y999016D02*
D03*
Y1024606D02*
D03*
Y1050197D02*
D03*
Y1126968D02*
D03*
Y1101378D02*
D03*
Y1075787D02*
D03*
X1578740Y1152559D02*
D03*
Y973425D02*
D03*
Y999016D02*
D03*
Y1024606D02*
D03*
Y1050197D02*
D03*
Y1126968D02*
D03*
Y1101378D02*
D03*
Y1075787D02*
D03*
Y524606D02*
D03*
Y550197D02*
D03*
Y575787D02*
D03*
Y499016D02*
D03*
Y473425D02*
D03*
Y447835D02*
D03*
Y422244D02*
D03*
Y601378D02*
D03*
X1807087Y524606D02*
D03*
Y550197D02*
D03*
Y575787D02*
D03*
Y499016D02*
D03*
Y473425D02*
D03*
Y447835D02*
D03*
Y422244D02*
D03*
Y601378D02*
D03*
D41*
X1958661Y336614D02*
D03*
Y305118D02*
D03*
Y273622D02*
D03*
Y242126D02*
D03*
Y210630D02*
D03*
Y179134D02*
D03*
Y147638D02*
D03*
Y116142D02*
D03*
X2293307D02*
D03*
Y147638D02*
D03*
Y179134D02*
D03*
Y210630D02*
D03*
Y242126D02*
D03*
Y273622D02*
D03*
Y305118D02*
D03*
Y336614D02*
D03*
D42*
X2015748Y59055D02*
D03*
X2047244D02*
D03*
X2078740D02*
D03*
X2110236D02*
D03*
X2141732D02*
D03*
X2173228D02*
D03*
X2204724D02*
D03*
X2236220D02*
D03*
Y393701D02*
D03*
X2204724D02*
D03*
X2173228D02*
D03*
X2141732D02*
D03*
X2110236D02*
D03*
X2078740D02*
D03*
X2047244D02*
D03*
X2015748D02*
D03*
D43*
X905512Y53150D02*
D03*
X925197D02*
D03*
X944882D02*
D03*
X964567D02*
D03*
X984252D02*
D03*
X1003937D02*
D03*
X1023622D02*
D03*
X1043307D02*
D03*
X1062992D02*
D03*
X1082677D02*
D03*
X1102362D02*
D03*
X1122047D02*
D03*
X1141732D02*
D03*
X1161417D02*
D03*
X1181102D02*
D03*
X1200787D02*
D03*
X1220473D02*
D03*
X1240158D02*
D03*
X1259842D02*
D03*
X1279528D02*
D03*
X1299213D02*
D03*
X1318898D02*
D03*
X1338583D02*
D03*
X1358268D02*
D03*
X1377953D02*
D03*
Y655512D02*
D03*
X1358268D02*
D03*
X1338583D02*
D03*
X1318898D02*
D03*
X1299213D02*
D03*
X1279528D02*
D03*
X1259842D02*
D03*
X1240158D02*
D03*
X1220473D02*
D03*
X1200787D02*
D03*
X1181102D02*
D03*
X1161417D02*
D03*
X1141732D02*
D03*
X1122047D02*
D03*
X1102362D02*
D03*
X1082677D02*
D03*
X1062992D02*
D03*
X1043307D02*
D03*
X1023622D02*
D03*
X1003937D02*
D03*
X984252D02*
D03*
X964567D02*
D03*
X944882D02*
D03*
X925197D02*
D03*
X905512D02*
D03*
D44*
X1442913Y118110D02*
D03*
Y137795D02*
D03*
Y157480D02*
D03*
Y177165D02*
D03*
Y196850D02*
D03*
Y216535D02*
D03*
Y236220D02*
D03*
Y255905D02*
D03*
Y275591D02*
D03*
Y295276D02*
D03*
Y314961D02*
D03*
Y334646D02*
D03*
Y354331D02*
D03*
Y374016D02*
D03*
Y393701D02*
D03*
Y413386D02*
D03*
Y433071D02*
D03*
Y452756D02*
D03*
Y472441D02*
D03*
Y492126D02*
D03*
Y511811D02*
D03*
Y531496D02*
D03*
Y551181D02*
D03*
Y570866D02*
D03*
Y590551D02*
D03*
X840551D02*
D03*
Y570866D02*
D03*
Y551181D02*
D03*
Y531496D02*
D03*
Y511811D02*
D03*
Y492126D02*
D03*
Y472441D02*
D03*
Y452756D02*
D03*
Y433071D02*
D03*
Y413386D02*
D03*
Y393701D02*
D03*
Y374016D02*
D03*
Y354331D02*
D03*
Y334646D02*
D03*
Y314961D02*
D03*
Y295276D02*
D03*
Y275591D02*
D03*
Y255905D02*
D03*
Y236220D02*
D03*
Y216535D02*
D03*
Y196850D02*
D03*
Y177165D02*
D03*
Y157480D02*
D03*
Y137795D02*
D03*
Y118110D02*
D03*
D45*
X1535433Y39370D02*
D03*
X1771653D02*
D03*
X1850394D02*
D03*
X1692913D02*
D03*
X1614173D02*
D03*
D46*
X1586614Y1374213D02*
D03*
Y1324213D02*
D03*
Y1274213D02*
D03*
Y1224213D02*
D03*
X1799213D02*
D03*
Y1274213D02*
D03*
Y1324213D02*
D03*
Y1374213D02*
D03*
D47*
X2675905Y62402D02*
D03*
X2835905D02*
D03*
X2675905Y112402D02*
D03*
X2835905D02*
D03*
X2675905Y162402D02*
D03*
X2835905D02*
D03*
X2675905Y212402D02*
D03*
X2835905D02*
D03*
X2675905Y262402D02*
D03*
X2835905D02*
D03*
X2675905Y312402D02*
D03*
X2835905D02*
D03*
X2675905Y362402D02*
D03*
X2835905D02*
D03*
X2675905Y412402D02*
D03*
X2835905D02*
D03*
X2675905Y462402D02*
D03*
X2835905D02*
D03*
X2675905Y512402D02*
D03*
X2835905D02*
D03*
X2675905Y562402D02*
D03*
X2835905D02*
D03*
X2675905Y612402D02*
D03*
X2835905D02*
D03*
X2675905Y662402D02*
D03*
X2835905D02*
D03*
X2675905Y712402D02*
D03*
X2835905D02*
D03*
X2675905Y762402D02*
D03*
X2835905D02*
D03*
X2675905Y812402D02*
D03*
X2835905D02*
D03*
X2675905Y862402D02*
D03*
X2835905D02*
D03*
X2675905Y912402D02*
D03*
X2835905D02*
D03*
X2675905Y962402D02*
D03*
X2835905D02*
D03*
X2675905Y1012402D02*
D03*
X2835905D02*
D03*
X2675905Y1062402D02*
D03*
X2835905D02*
D03*
X2675905Y1112402D02*
D03*
X2835905D02*
D03*
X2675905Y1162402D02*
D03*
X2835905D02*
D03*
X2675905Y1212402D02*
D03*
X2835905D02*
D03*
X2675905Y1262402D02*
D03*
X2835905D02*
D03*
X2675905Y1312402D02*
D03*
X2835905D02*
D03*
X2675905Y1362402D02*
D03*
X2835905D02*
D03*
X2675905Y1412402D02*
D03*
X2835905D02*
D03*
X2675905Y1462402D02*
D03*
X2835905D02*
D03*
X2675905Y1512402D02*
D03*
X2835905D02*
D03*
X313701Y62402D02*
D03*
X473701D02*
D03*
X313701Y112402D02*
D03*
X473701D02*
D03*
X313701Y162402D02*
D03*
X473701D02*
D03*
X313701Y212402D02*
D03*
X473701D02*
D03*
X313701Y262402D02*
D03*
X473701D02*
D03*
X313701Y312402D02*
D03*
X473701D02*
D03*
X313701Y362402D02*
D03*
X473701D02*
D03*
X313701Y412402D02*
D03*
X473701D02*
D03*
X313701Y462402D02*
D03*
X473701D02*
D03*
X313701Y512402D02*
D03*
X473701D02*
D03*
X313701Y562402D02*
D03*
X473701D02*
D03*
X313701Y612402D02*
D03*
X473701D02*
D03*
X313701Y662402D02*
D03*
X473701D02*
D03*
X313701Y712402D02*
D03*
X473701D02*
D03*
X313701Y762402D02*
D03*
X473701D02*
D03*
X313701Y812402D02*
D03*
X473701D02*
D03*
X313701Y862402D02*
D03*
X473701D02*
D03*
X313701Y912402D02*
D03*
X473701D02*
D03*
X313701Y962402D02*
D03*
X473701D02*
D03*
X313701Y1012402D02*
D03*
X473701D02*
D03*
X313701Y1062402D02*
D03*
X473701D02*
D03*
X313701Y1112402D02*
D03*
X473701D02*
D03*
X313701Y1162402D02*
D03*
X473701D02*
D03*
X313701Y1212402D02*
D03*
X473701D02*
D03*
X313701Y1262402D02*
D03*
X473701D02*
D03*
X313701Y1312402D02*
D03*
X473701D02*
D03*
X313701Y1362402D02*
D03*
X473701D02*
D03*
X313701Y1412402D02*
D03*
X473701D02*
D03*
X313701Y1462402D02*
D03*
X473701D02*
D03*
X313701Y1512402D02*
D03*
X473701D02*
D03*
D48*
X2023622Y840551D02*
D03*
Y805118D02*
D03*
Y769685D02*
D03*
Y734252D02*
D03*
X2070866D02*
D03*
Y769685D02*
D03*
Y805118D02*
D03*
Y840551D02*
D03*
D49*
X2232284Y987992D02*
D03*
Y1037992D02*
D03*
Y1087992D02*
D03*
Y1137992D02*
D03*
X2019685D02*
D03*
Y1087992D02*
D03*
Y1037992D02*
D03*
Y987992D02*
D03*
D50*
X2125984Y1062992D02*
D03*
D51*
X1970079Y884646D02*
D03*
X1934646D02*
D03*
D52*
X871063Y1019685D02*
D03*
X1412402D02*
D03*
Y1346457D02*
D03*
X871063D02*
D03*
D53*
X1318701Y1122047D02*
D03*
X1275394D02*
D03*
X1232087D02*
D03*
X1015551D02*
D03*
X1058858D02*
D03*
X1102165D02*
D03*
X1188780D02*
D03*
X1145473D02*
D03*
D54*
X1133858Y834646D02*
D03*
X1307087D02*
D03*
Y740158D02*
D03*
X1133858D02*
D03*
X2212599Y637795D02*
D03*
X2039370D02*
D03*
Y543307D02*
D03*
X2212599D02*
D03*
D55*
X2675914Y62412D02*
D03*
X2835898Y62413D02*
D03*
X2675914Y112412D02*
D03*
X2835898Y112413D02*
D03*
X2675914Y162412D02*
D03*
X2835898Y162413D02*
D03*
X2675914Y212412D02*
D03*
X2835898Y212413D02*
D03*
X2675914Y262412D02*
D03*
X2835898Y262413D02*
D03*
X2675914Y312412D02*
D03*
X2835898Y312413D02*
D03*
X2675914Y362412D02*
D03*
X2835898Y362413D02*
D03*
X2675914Y412412D02*
D03*
X2835898Y412413D02*
D03*
X2675914Y462412D02*
D03*
X2835898Y462413D02*
D03*
X2675914Y512412D02*
D03*
X2835898Y512413D02*
D03*
X2675914Y562412D02*
D03*
X2835898Y562413D02*
D03*
X2675914Y612412D02*
D03*
X2835898Y612413D02*
D03*
X2675914Y662412D02*
D03*
X2835898Y662413D02*
D03*
X2675914Y712412D02*
D03*
X2835898Y712413D02*
D03*
X2675919Y762433D02*
D03*
X2835892Y762435D02*
D03*
X2675917Y812405D02*
D03*
X2835891Y812408D02*
D03*
X2675913Y862395D02*
D03*
X2835897Y862395D02*
D03*
X2675913Y912395D02*
D03*
X2835897Y912395D02*
D03*
X2675913Y962395D02*
D03*
X2835897Y962395D02*
D03*
X2675913Y1012395D02*
D03*
X2835897Y1012395D02*
D03*
X2675913Y1062395D02*
D03*
X2835897Y1062395D02*
D03*
X2675913Y1112395D02*
D03*
X2835897Y1112395D02*
D03*
X2675913Y1162395D02*
D03*
X2835897Y1162395D02*
D03*
X2675913Y1212395D02*
D03*
X2835897Y1212395D02*
D03*
X2675913Y1262395D02*
D03*
X2835897Y1262395D02*
D03*
X2675913Y1312395D02*
D03*
X2835897Y1312395D02*
D03*
X2675913Y1362395D02*
D03*
X2835897Y1362395D02*
D03*
X2675913Y1412395D02*
D03*
X2835897Y1412395D02*
D03*
X2675913Y1462395D02*
D03*
X2835897Y1462395D02*
D03*
X2675913Y1512395D02*
D03*
X2835897Y1512395D02*
D03*
X313701Y62402D02*
D03*
X473701D02*
D03*
X313701Y112402D02*
D03*
X473701D02*
D03*
X313701Y162402D02*
D03*
X473701D02*
D03*
X313701Y212402D02*
D03*
X473701D02*
D03*
X313701Y262402D02*
D03*
X473701D02*
D03*
X313701Y312402D02*
D03*
X473701D02*
D03*
X313701Y362402D02*
D03*
X473701D02*
D03*
X313701Y412402D02*
D03*
X473701D02*
D03*
X313701Y462402D02*
D03*
X473701D02*
D03*
X313701Y512402D02*
D03*
X473701D02*
D03*
X313701Y562402D02*
D03*
X473701D02*
D03*
X313701Y612402D02*
D03*
X473701D02*
D03*
X313701Y662402D02*
D03*
X473701D02*
D03*
X313701Y712402D02*
D03*
X473701D02*
D03*
X313701Y762402D02*
D03*
X473701D02*
D03*
X313701Y812402D02*
D03*
X473701D02*
D03*
X313701Y862402D02*
D03*
X473701D02*
D03*
X313701Y912402D02*
D03*
X473701D02*
D03*
X313701Y962402D02*
D03*
X473701D02*
D03*
X313701Y1012402D02*
D03*
X473701D02*
D03*
X313701Y1062402D02*
D03*
X473701D02*
D03*
X313701Y1112402D02*
D03*
X473701D02*
D03*
X313701Y1162402D02*
D03*
X473701D02*
D03*
X313701Y1212402D02*
D03*
X473701D02*
D03*
X313701Y1262402D02*
D03*
X473701D02*
D03*
X313701Y1312402D02*
D03*
X473701D02*
D03*
X313701Y1362402D02*
D03*
X473701D02*
D03*
X313701Y1412402D02*
D03*
X473701D02*
D03*
X313701Y1462402D02*
D03*
X473701D02*
D03*
X313701Y1512402D02*
D03*
X473701D02*
D03*
%TF.MD5,77693c9d8b9079db2772d7cf11c6fd75*%
M02*
