%TF.GenerationSoftware,Altium Limited,Altium Designer,20.0.13 (296)*%
G04 Layer_Color=128*
%FSLAX26Y26*%
%MOIN*%
%TF.FileFunction,Drillmap*%
%TF.Part,Single*%
G01*
G75*
%TA.AperFunction,NonConductor*%
%ADD93C,0.005000*%
D93*
X3021654Y-78740D02*
X3041339D01*
X3031496Y-88583D02*
Y-68898D01*
X3061024Y-78740D02*
X3080709D01*
X3070866Y-88583D02*
Y-68898D01*
X2982284Y-78740D02*
X3001969D01*
X2992126Y-88583D02*
Y-68898D01*
X2942914Y-78740D02*
X2962599D01*
X2952756Y-88583D02*
Y-68898D01*
X2903544Y-78740D02*
X2923229D01*
X2913386Y-88583D02*
Y-68898D01*
X2864174Y-78740D02*
X2883859D01*
X2874016Y-88583D02*
Y-68898D01*
X2667324Y-78740D02*
X2687009D01*
X2677166Y-88583D02*
Y-68898D01*
X2706694Y-78740D02*
X2726379D01*
X2716536Y-88583D02*
Y-68898D01*
X2746064Y-78740D02*
X2765749D01*
X2755906Y-88583D02*
Y-68898D01*
X2785434Y-78740D02*
X2805119D01*
X2795276Y-88583D02*
Y-68898D01*
X2824804Y-78740D02*
X2844489D01*
X2834646Y-88583D02*
Y-68898D01*
X2431104Y-78740D02*
X2450789D01*
X2440946Y-88583D02*
Y-68898D01*
X2391734Y-78740D02*
X2411419D01*
X2401576Y-88583D02*
Y-68898D01*
X2352364Y-78740D02*
X2372049D01*
X2362206Y-88583D02*
Y-68898D01*
X2312994Y-78740D02*
X2332679D01*
X2322836Y-88583D02*
Y-68898D01*
X2273624Y-78740D02*
X2293309D01*
X2283466Y-88583D02*
Y-68898D01*
X2470474Y-78740D02*
X2490159D01*
X2480316Y-88583D02*
Y-68898D01*
X2509844Y-78740D02*
X2529529D01*
X2519686Y-88583D02*
Y-68898D01*
X2549214Y-78740D02*
X2568899D01*
X2559056Y-88583D02*
Y-68898D01*
X2588584Y-78740D02*
X2608269D01*
X2598426Y-88583D02*
Y-68898D01*
X2627954Y-78740D02*
X2647639D01*
X2637796Y-88583D02*
Y-68898D01*
X2037404Y-78740D02*
X2057089D01*
X2047246Y-88583D02*
Y-68898D01*
X1998034Y-78740D02*
X2017719D01*
X2007876Y-88583D02*
Y-68898D01*
X1958664Y-78740D02*
X1978349D01*
X1968506Y-88583D02*
Y-68898D01*
X1919294Y-78740D02*
X1938979D01*
X1929136Y-88583D02*
Y-68898D01*
X1879924Y-78740D02*
X1899609D01*
X1889766Y-88583D02*
Y-68898D01*
X2076774Y-78740D02*
X2096459D01*
X2086616Y-88583D02*
Y-68898D01*
X2116144Y-78740D02*
X2135829D01*
X2125986Y-88583D02*
Y-68898D01*
X2155514Y-78740D02*
X2175199D01*
X2165356Y-88583D02*
Y-68898D01*
X2194884Y-78740D02*
X2214569D01*
X2204726Y-88583D02*
Y-68898D01*
X2234254Y-78740D02*
X2253939D01*
X2244096Y-88583D02*
Y-68898D01*
X1643704Y-78740D02*
X1663389D01*
X1653546Y-88583D02*
Y-68898D01*
X1604334Y-78740D02*
X1624019D01*
X1614176Y-88583D02*
Y-68898D01*
X1564964Y-78740D02*
X1584649D01*
X1574806Y-88583D02*
Y-68898D01*
X1525594Y-78740D02*
X1545279D01*
X1535436Y-88583D02*
Y-68898D01*
X1486224Y-78740D02*
X1505909D01*
X1496066Y-88583D02*
Y-68898D01*
X1683074Y-78740D02*
X1702759D01*
X1692916Y-88583D02*
Y-68898D01*
X1722444Y-78740D02*
X1742129D01*
X1732286Y-88583D02*
Y-68898D01*
X1761814Y-78740D02*
X1781499D01*
X1771656Y-88583D02*
Y-68898D01*
X1801184Y-78740D02*
X1820869D01*
X1811026Y-88583D02*
Y-68898D01*
X1840554Y-78740D02*
X1860239D01*
X1850396Y-88583D02*
Y-68898D01*
X1250004Y-78740D02*
X1269689D01*
X1259846Y-88583D02*
Y-68898D01*
X1210634Y-78740D02*
X1230319D01*
X1220476Y-88583D02*
Y-68898D01*
X1171264Y-78740D02*
X1190949D01*
X1181106Y-88583D02*
Y-68898D01*
X1131894Y-78740D02*
X1151579D01*
X1141736Y-88583D02*
Y-68898D01*
X1092524Y-78740D02*
X1112209D01*
X1102366Y-88583D02*
Y-68898D01*
X1289374Y-78740D02*
X1309059D01*
X1299216Y-88583D02*
Y-68898D01*
X1328744Y-78740D02*
X1348429D01*
X1338586Y-88583D02*
Y-68898D01*
X1368114Y-78740D02*
X1387799D01*
X1377956Y-88583D02*
Y-68898D01*
X1407484Y-78740D02*
X1427169D01*
X1417326Y-88583D02*
Y-68898D01*
X1446854Y-78740D02*
X1466539D01*
X1456696Y-88583D02*
Y-68898D01*
X856304Y-78740D02*
X875989D01*
X866146Y-88583D02*
Y-68898D01*
X816934Y-78740D02*
X836619D01*
X826776Y-88583D02*
Y-68898D01*
X777564Y-78740D02*
X797249D01*
X787406Y-88583D02*
Y-68898D01*
X738194Y-78740D02*
X757879D01*
X748036Y-88583D02*
Y-68898D01*
X698824Y-78740D02*
X718509D01*
X708666Y-88583D02*
Y-68898D01*
X895674Y-78740D02*
X915359D01*
X905516Y-88583D02*
Y-68898D01*
X935044Y-78740D02*
X954729D01*
X944886Y-88583D02*
Y-68898D01*
X974414Y-78740D02*
X994099D01*
X984256Y-88583D02*
Y-68898D01*
X1013784Y-78740D02*
X1033469D01*
X1023626Y-88583D02*
Y-68898D01*
X1053154Y-78740D02*
X1072839D01*
X1062996Y-88583D02*
Y-68898D01*
X462604Y-78740D02*
X482289D01*
X472446Y-88583D02*
Y-68898D01*
X423234Y-78740D02*
X442919D01*
X433076Y-88583D02*
Y-68898D01*
X383864Y-78740D02*
X403549D01*
X393706Y-88583D02*
Y-68898D01*
X344494Y-78740D02*
X364179D01*
X354336Y-88583D02*
Y-68898D01*
X305124Y-78740D02*
X324809D01*
X314966Y-88583D02*
Y-68898D01*
X501974Y-78740D02*
X521659D01*
X511816Y-88583D02*
Y-68898D01*
X541344Y-78740D02*
X561029D01*
X551186Y-88583D02*
Y-68898D01*
X580714Y-78740D02*
X600399D01*
X590556Y-88583D02*
Y-68898D01*
X620084Y-78740D02*
X639769D01*
X629926Y-88583D02*
Y-68898D01*
X659454Y-78740D02*
X679139D01*
X669296Y-88583D02*
Y-68898D01*
X68904Y-78740D02*
X88589D01*
X78746Y-88583D02*
Y-68898D01*
X108274Y-78740D02*
X127959D01*
X118116Y-88583D02*
Y-68898D01*
X147644Y-78740D02*
X167329D01*
X157486Y-88583D02*
Y-68898D01*
X187014Y-78740D02*
X206699D01*
X196856Y-88583D02*
Y-68898D01*
X226384Y-78740D02*
X246069D01*
X236226Y-88583D02*
Y-68898D01*
X265754Y-78740D02*
X285439D01*
X275596Y-88583D02*
Y-68898D01*
X2864168Y1653543D02*
X2883853D01*
X2874010Y1643701D02*
Y1663386D01*
X2903538Y1653543D02*
X2923223D01*
X2913380Y1643701D02*
Y1663386D01*
X2942908Y1653543D02*
X2962593D01*
X2952750Y1643701D02*
Y1663386D01*
X2982278Y1653543D02*
X3001963D01*
X2992120Y1643701D02*
Y1663386D01*
X3021648Y1653543D02*
X3041333D01*
X3031490Y1643701D02*
Y1663386D01*
X3061018Y1653543D02*
X3080703D01*
X3070860Y1643701D02*
Y1663386D01*
X2470468Y1653543D02*
X2490153D01*
X2480310Y1643701D02*
Y1663386D01*
X2509838Y1653543D02*
X2529523D01*
X2519680Y1643701D02*
Y1663386D01*
X2549208Y1653543D02*
X2568893D01*
X2559050Y1643701D02*
Y1663386D01*
X2588578Y1653543D02*
X2608263D01*
X2598420Y1643701D02*
Y1663386D01*
X2627948Y1653543D02*
X2647633D01*
X2637790Y1643701D02*
Y1663386D01*
X2824798Y1653543D02*
X2844483D01*
X2834640Y1643701D02*
Y1663386D01*
X2785428Y1653543D02*
X2805113D01*
X2795270Y1643701D02*
Y1663386D01*
X2746058Y1653543D02*
X2765743D01*
X2755900Y1643701D02*
Y1663386D01*
X2706688Y1653543D02*
X2726373D01*
X2716530Y1643701D02*
Y1663386D01*
X2667318Y1653543D02*
X2687003D01*
X2677160Y1643701D02*
Y1663386D01*
X2076768Y1653543D02*
X2096453D01*
X2086610Y1643701D02*
Y1663386D01*
X2116138Y1653543D02*
X2135823D01*
X2125980Y1643701D02*
Y1663386D01*
X2155508Y1653543D02*
X2175193D01*
X2165350Y1643701D02*
Y1663386D01*
X2194878Y1653543D02*
X2214563D01*
X2204720Y1643701D02*
Y1663386D01*
X2234248Y1653543D02*
X2253933D01*
X2244090Y1643701D02*
Y1663386D01*
X2431098Y1653543D02*
X2450783D01*
X2440940Y1643701D02*
Y1663386D01*
X2391728Y1653543D02*
X2411413D01*
X2401570Y1643701D02*
Y1663386D01*
X2352358Y1653543D02*
X2372043D01*
X2362200Y1643701D02*
Y1663386D01*
X2312988Y1653543D02*
X2332673D01*
X2322830Y1643701D02*
Y1663386D01*
X2273618Y1653543D02*
X2293303D01*
X2283460Y1643701D02*
Y1663386D01*
X1683068Y1653543D02*
X1702753D01*
X1692910Y1643701D02*
Y1663386D01*
X1722438Y1653543D02*
X1742123D01*
X1732280Y1643701D02*
Y1663386D01*
X1761808Y1653543D02*
X1781493D01*
X1771650Y1643701D02*
Y1663386D01*
X1801178Y1653543D02*
X1820863D01*
X1811020Y1643701D02*
Y1663386D01*
X1840548Y1653543D02*
X1860233D01*
X1850390Y1643701D02*
Y1663386D01*
X2037398Y1653543D02*
X2057083D01*
X2047240Y1643701D02*
Y1663386D01*
X1998028Y1653543D02*
X2017713D01*
X2007870Y1643701D02*
Y1663386D01*
X1958658Y1653543D02*
X1978343D01*
X1968500Y1643701D02*
Y1663386D01*
X1919288Y1653543D02*
X1938973D01*
X1929130Y1643701D02*
Y1663386D01*
X1879918Y1653543D02*
X1899603D01*
X1889760Y1643701D02*
Y1663386D01*
X1289368Y1653543D02*
X1309053D01*
X1299210Y1643701D02*
Y1663386D01*
X1328738Y1653543D02*
X1348423D01*
X1338580Y1643701D02*
Y1663386D01*
X1368108Y1653543D02*
X1387793D01*
X1377950Y1643701D02*
Y1663386D01*
X1407478Y1653543D02*
X1427163D01*
X1417320Y1643701D02*
Y1663386D01*
X1446848Y1653543D02*
X1466533D01*
X1456690Y1643701D02*
Y1663386D01*
X1643698Y1653543D02*
X1663383D01*
X1653540Y1643701D02*
Y1663386D01*
X1604328Y1653543D02*
X1624013D01*
X1614170Y1643701D02*
Y1663386D01*
X1564958Y1653543D02*
X1584643D01*
X1574800Y1643701D02*
Y1663386D01*
X1525588Y1653543D02*
X1545273D01*
X1535430Y1643701D02*
Y1663386D01*
X1486218Y1653543D02*
X1505903D01*
X1496060Y1643701D02*
Y1663386D01*
X895668Y1653543D02*
X915353D01*
X905510Y1643701D02*
Y1663386D01*
X935038Y1653543D02*
X954723D01*
X944880Y1643701D02*
Y1663386D01*
X974408Y1653543D02*
X994093D01*
X984250Y1643701D02*
Y1663386D01*
X1013778Y1653543D02*
X1033463D01*
X1023620Y1643701D02*
Y1663386D01*
X1053148Y1653543D02*
X1072833D01*
X1062990Y1643701D02*
Y1663386D01*
X1249998Y1653543D02*
X1269683D01*
X1259840Y1643701D02*
Y1663386D01*
X1210628Y1653543D02*
X1230313D01*
X1220470Y1643701D02*
Y1663386D01*
X1171258Y1653543D02*
X1190943D01*
X1181100Y1643701D02*
Y1663386D01*
X1131888Y1653543D02*
X1151573D01*
X1141730Y1643701D02*
Y1663386D01*
X1092518Y1653543D02*
X1112203D01*
X1102360Y1643701D02*
Y1663386D01*
X501968Y1653543D02*
X521653D01*
X511810Y1643701D02*
Y1663386D01*
X541338Y1653543D02*
X561023D01*
X551180Y1643701D02*
Y1663386D01*
X580708Y1653543D02*
X600393D01*
X590550Y1643701D02*
Y1663386D01*
X620078Y1653543D02*
X639763D01*
X629920Y1643701D02*
Y1663386D01*
X659448Y1653543D02*
X679133D01*
X669290Y1643701D02*
Y1663386D01*
X856298Y1653543D02*
X875983D01*
X866140Y1643701D02*
Y1663386D01*
X816928Y1653543D02*
X836613D01*
X826770Y1643701D02*
Y1663386D01*
X777558Y1653543D02*
X797243D01*
X787400Y1643701D02*
Y1663386D01*
X738188Y1653543D02*
X757873D01*
X748030Y1643701D02*
Y1663386D01*
X698818Y1653543D02*
X718503D01*
X708660Y1643701D02*
Y1663386D01*
X305118Y1653543D02*
X324803D01*
X314960Y1643701D02*
Y1663386D01*
X344488Y1653543D02*
X364173D01*
X354330Y1643701D02*
Y1663386D01*
X383858Y1653543D02*
X403543D01*
X393700Y1643701D02*
Y1663386D01*
X423228Y1653543D02*
X442913D01*
X433070Y1643701D02*
Y1663386D01*
X462598Y1653543D02*
X482283D01*
X472440Y1643701D02*
Y1663386D01*
X265748Y1653543D02*
X285433D01*
X275590Y1643701D02*
Y1663386D01*
X226378Y1653543D02*
X246063D01*
X236220Y1643701D02*
Y1663386D01*
X187008Y1653543D02*
X206693D01*
X196850Y1643701D02*
Y1663386D01*
X147638Y1653543D02*
X167323D01*
X157480Y1643701D02*
Y1663386D01*
X68898Y1653543D02*
X88583D01*
X78740Y1643701D02*
Y1663386D01*
X108268Y1653543D02*
X127953D01*
X118110Y1643701D02*
Y1663386D01*
X3218504Y1299213D02*
X3238189D01*
X3228346Y1289370D02*
Y1309055D01*
X3218504Y1259843D02*
X3238189D01*
X3228346Y1250000D02*
Y1269685D01*
X3218504Y1220473D02*
X3238189D01*
X3228346Y1210630D02*
Y1230315D01*
X3218504Y1181102D02*
X3238189D01*
X3228346Y1171260D02*
Y1190945D01*
X3218504Y1141732D02*
X3238189D01*
X3228346Y1131890D02*
Y1151575D01*
X3218504Y1102362D02*
X3238189D01*
X3228346Y1092520D02*
Y1112205D01*
X3218504Y1062992D02*
X3238189D01*
X3228346Y1053150D02*
Y1072835D01*
X3218504Y1023622D02*
X3238189D01*
X3228346Y1013780D02*
Y1033465D01*
X3218504Y984252D02*
X3238189D01*
X3228346Y974410D02*
Y994095D01*
X3218504Y944882D02*
X3238189D01*
X3228346Y935039D02*
Y954725D01*
X3218504Y905512D02*
X3238189D01*
X3228346Y895669D02*
Y915354D01*
X3218504Y866142D02*
X3238189D01*
X3228346Y856299D02*
Y875984D01*
X3218504Y826772D02*
X3238189D01*
X3228346Y816929D02*
Y836614D01*
X3218504Y787402D02*
X3238189D01*
X3228346Y777559D02*
Y797244D01*
X3218504Y748032D02*
X3238189D01*
X3228346Y738189D02*
Y757874D01*
X3218504Y708662D02*
X3238189D01*
X3228346Y698819D02*
Y718504D01*
X3218504Y669291D02*
X3238189D01*
X3228346Y659449D02*
Y679134D01*
X3218504Y629921D02*
X3238189D01*
X3228346Y620079D02*
Y639764D01*
X3218504Y590551D02*
X3238189D01*
X3228346Y580709D02*
Y600394D01*
X3218504Y551181D02*
X3238189D01*
X3228346Y541339D02*
Y561024D01*
X3218504Y78740D02*
X3238189D01*
X3228346Y68898D02*
Y88583D01*
X3218504Y118110D02*
X3238189D01*
X3228346Y108268D02*
Y127953D01*
X3218504Y157480D02*
X3238189D01*
X3228346Y147638D02*
Y167323D01*
X3218504Y196850D02*
X3238189D01*
X3228346Y187008D02*
Y206693D01*
X3218504Y236220D02*
X3238189D01*
X3228346Y226378D02*
Y246063D01*
X3218504Y275591D02*
X3238189D01*
X3228346Y265748D02*
Y285433D01*
X3218504Y314961D02*
X3238189D01*
X3228346Y305118D02*
Y324803D01*
X3218504Y354331D02*
X3238189D01*
X3228346Y344488D02*
Y364173D01*
X3218504Y393701D02*
X3238189D01*
X3228346Y383858D02*
Y403543D01*
X3218504Y433071D02*
X3238189D01*
X3228346Y423228D02*
Y442913D01*
X3218504Y472441D02*
X3238189D01*
X3228346Y462599D02*
Y482284D01*
X3218504Y511811D02*
X3238189D01*
X3228346Y501969D02*
Y521654D01*
X3218504Y1338583D02*
X3238189D01*
X3228346Y1328740D02*
Y1348425D01*
X3218504Y1377953D02*
X3238189D01*
X3228346Y1368110D02*
Y1387795D01*
X3218504Y1417323D02*
X3238189D01*
X3228346Y1407480D02*
Y1427165D01*
X3218504Y1456693D02*
X3238189D01*
X3228346Y1446851D02*
Y1466535D01*
X3218504Y1496063D02*
X3238189D01*
X3228346Y1486221D02*
Y1505906D01*
X3090551Y1574803D02*
X3208661D01*
X3149606Y1515748D02*
Y1633858D01*
X3090551Y0D02*
X3208661D01*
X3149606Y-59055D02*
Y59055D01*
X-59055Y1574803D02*
X59055D01*
X0Y1515748D02*
Y1633858D01*
X-59055Y0D02*
X59055D01*
X0Y-59055D02*
Y59055D01*
X-88583Y78740D02*
X-68898D01*
X-78740Y68898D02*
Y88583D01*
X-88583Y118110D02*
X-68898D01*
X-78740Y108268D02*
Y127953D01*
X-88583Y157480D02*
X-68898D01*
X-78740Y147638D02*
Y167323D01*
X-88583Y196850D02*
X-68898D01*
X-78740Y187008D02*
Y206693D01*
X-88583Y236220D02*
X-68898D01*
X-78740Y226378D02*
Y246063D01*
X-88583Y1062992D02*
X-68898D01*
X-78740Y1053150D02*
Y1072835D01*
X-88583Y1102362D02*
X-68898D01*
X-78740Y1092520D02*
Y1112205D01*
X-88583Y1141732D02*
X-68898D01*
X-78740Y1131890D02*
Y1151575D01*
X-88583Y1181102D02*
X-68898D01*
X-78740Y1171260D02*
Y1190945D01*
X-88583Y1220473D02*
X-68898D01*
X-78740Y1210630D02*
Y1230315D01*
X-88583Y1259842D02*
X-68898D01*
X-78740Y1250000D02*
Y1269685D01*
X-88583Y1299213D02*
X-68898D01*
X-78740Y1289370D02*
Y1309055D01*
X-88583Y1338583D02*
X-68898D01*
X-78740Y1328740D02*
Y1348425D01*
X-88583Y1377953D02*
X-68898D01*
X-78740Y1368110D02*
Y1387795D01*
X-88583Y1417323D02*
X-68898D01*
X-78740Y1407480D02*
Y1427165D01*
X-88583Y1456693D02*
X-68898D01*
X-78740Y1446850D02*
Y1466535D01*
X-88583Y1496063D02*
X-68898D01*
X-78740Y1486220D02*
Y1505906D01*
X-88583Y1023622D02*
X-68898D01*
X-78740Y1013779D02*
Y1033465D01*
X-88583Y984252D02*
X-68898D01*
X-78740Y974409D02*
Y994094D01*
X-88583Y944882D02*
X-68898D01*
X-78740Y935039D02*
Y954724D01*
X-88583Y905512D02*
X-68898D01*
X-78740Y895669D02*
Y915354D01*
X-88583Y866142D02*
X-68898D01*
X-78740Y856299D02*
Y875984D01*
X-88583Y826772D02*
X-68898D01*
X-78740Y816929D02*
Y836614D01*
X-88583Y787402D02*
X-68898D01*
X-78740Y777559D02*
Y797244D01*
X-88583Y748032D02*
X-68898D01*
X-78740Y738189D02*
Y757874D01*
X-88583Y708661D02*
X-68898D01*
X-78740Y698819D02*
Y718504D01*
X-88583Y669291D02*
X-68898D01*
X-78740Y659449D02*
Y679134D01*
X-88583Y629921D02*
X-68898D01*
X-78740Y620079D02*
Y639764D01*
X-88583Y590551D02*
X-68898D01*
X-78740Y580709D02*
Y600394D01*
X-88583Y551181D02*
X-68898D01*
X-78740Y541339D02*
Y561024D01*
X-88583Y511811D02*
X-68898D01*
X-78740Y501969D02*
Y521654D01*
X-88583Y472441D02*
X-68898D01*
X-78740Y462598D02*
Y482283D01*
X-88583Y433071D02*
X-68898D01*
X-78740Y423228D02*
Y442913D01*
X-88583Y393701D02*
X-68898D01*
X-78740Y383858D02*
Y403543D01*
X-88583Y354331D02*
X-68898D01*
X-78740Y344488D02*
Y364173D01*
X-88583Y314961D02*
X-68898D01*
X-78740Y305118D02*
Y324803D01*
X-88583Y275591D02*
X-68898D01*
X-78740Y265748D02*
Y285433D01*
X2096457Y1477362D02*
X2104331D01*
X2100394Y1473425D02*
Y1481299D01*
X2135827Y1477362D02*
X2143701D01*
X2139764Y1473425D02*
Y1481299D01*
X2175197Y1477362D02*
X2183071D01*
X2179134Y1473425D02*
Y1481299D01*
X2214567Y1477362D02*
X2222441D01*
X2218504Y1473425D02*
Y1481299D01*
X2253937Y1477362D02*
X2261811D01*
X2257874Y1473425D02*
Y1481299D01*
X2293307Y1477362D02*
X2301181D01*
X2297244Y1473425D02*
Y1481299D01*
X2332677Y1477362D02*
X2340551D01*
X2336614Y1473425D02*
Y1481299D01*
X2332677Y1556102D02*
X2340551D01*
X2336614Y1552165D02*
Y1560039D01*
X2214567Y1556102D02*
X2222441D01*
X2218504Y1552165D02*
Y1560039D01*
X2175197Y1556102D02*
X2183071D01*
X2179134Y1552165D02*
Y1560039D01*
X2057086Y1477362D02*
X2064961D01*
X2061023Y1473425D02*
Y1481299D01*
X2057086Y1556102D02*
X2064961D01*
X2061023Y1552165D02*
Y1560039D01*
%TF.MD5,4d0b3fa36a4bc91274986e916d0fcc9e*%
M02*
