%TF.GenerationSoftware,Altium Limited,Altium Designer,20.0.13 (296)*%
G04 Layer_Color=8388736*
%FSLAX26Y26*%
%MOIN*%
%TF.FileFunction,Soldermask,Top*%
%TF.Part,Single*%
G01*
G75*
%TA.AperFunction,ViaPad*%
%ADD36C,0.029528*%
%TA.AperFunction,NonConductor*%
%ADD68R,0.039370X1.574803*%
%TA.AperFunction,SMDPad,CuDef*%
%ADD75R,0.020472X0.032283*%
%ADD76R,0.032283X0.020472*%
%ADD77R,0.016535X0.016535*%
%ADD78R,0.016535X0.016535*%
%ADD87R,0.019291X0.021260*%
%ADD89R,0.021260X0.019291*%
%TA.AperFunction,ViaPad*%
%ADD92C,0.197638*%
%TA.AperFunction,NonConductor*%
%ADD94R,3.149606X0.039370*%
%TA.AperFunction,SMDPad,CuDef*%
%ADD95R,0.024409X0.010630*%
%ADD96R,0.036221X0.010630*%
%ADD97R,0.051968X0.010630*%
%ADD98R,0.101181X0.081496*%
%ADD99R,0.010630X0.024409*%
%ADD100R,0.040157X0.040157*%
%ADD101R,0.020472X0.010630*%
%ADD102R,0.010630X0.020472*%
%ADD103R,0.051968X0.134646*%
%ADD104R,0.134646X0.039370*%
%ADD105R,0.032283X0.032283*%
G04:AMPARAMS|DCode=106|XSize=28.346mil|YSize=28.346mil|CornerRadius=3.15mil|HoleSize=0mil|Usage=FLASHONLY|Rotation=0.000|XOffset=0mil|YOffset=0mil|HoleType=Round|Shape=RoundedRectangle|*
%AMROUNDEDRECTD106*
21,1,0.028346,0.022047,0,0,0.0*
21,1,0.022047,0.028346,0,0,0.0*
1,1,0.006299,0.011024,-0.011024*
1,1,0.006299,-0.011024,-0.011024*
1,1,0.006299,-0.011024,0.011024*
1,1,0.006299,0.011024,0.011024*
%
%ADD106ROUNDEDRECTD106*%
%ADD107R,0.057874X0.069685*%
%ADD108R,0.024409X0.040157*%
%ADD109R,0.079528X0.040157*%
%ADD110R,0.032283X0.032283*%
G36*
X2926476Y1574163D02*
X2929011D01*
Y1573530D01*
X2934080D01*
Y1574163D01*
X2940416D01*
Y1573530D01*
X2946752D01*
Y1572896D01*
X2950553D01*
Y1572262D01*
X2953088D01*
Y1571629D01*
X2953722D01*
Y1570995D01*
X2954989D01*
Y1570361D01*
X2956256D01*
Y1569728D01*
X2956890D01*
Y1569094D01*
X2957523D01*
Y1568461D01*
X2958157D01*
Y1567827D01*
X2958791D01*
Y1567194D01*
X2959424D01*
Y1566560D01*
X2960058D01*
Y1565926D01*
Y1565293D01*
X2959424D01*
Y1564659D01*
Y1564025D01*
X2960058D01*
Y1564659D01*
X2960691D01*
Y1565293D01*
X2961325D01*
Y1564659D01*
Y1564025D01*
X2961959D01*
Y1563392D01*
Y1562758D01*
X2963226D01*
Y1562125D01*
X2962592D01*
Y1561491D01*
X2963859D01*
Y1560857D01*
X2964493D01*
Y1560224D01*
Y1559590D01*
Y1558957D01*
X2965127D01*
Y1558323D01*
X2965760D01*
Y1557689D01*
Y1557056D01*
X2966394D01*
Y1556422D01*
Y1555789D01*
Y1555155D01*
X2967027D01*
Y1554521D01*
Y1553888D01*
X2967661D01*
Y1553254D01*
Y1552620D01*
X2968295D01*
Y1551987D01*
Y1551353D01*
X2968928D01*
Y1550720D01*
X2969562D01*
Y1550086D01*
Y1549452D01*
X2970195D01*
Y1548819D01*
Y1548185D01*
X2970829D01*
Y1547552D01*
X2971463D01*
Y1546918D01*
X2970829D01*
Y1546284D01*
X2971463D01*
Y1545651D01*
X2972096D01*
Y1545017D01*
Y1544383D01*
Y1543750D01*
X2972730D01*
Y1543116D01*
Y1542483D01*
Y1541849D01*
X2973363D01*
Y1541216D01*
Y1540582D01*
Y1539948D01*
Y1539315D01*
Y1538681D01*
X2973997D01*
Y1538047D01*
Y1537414D01*
X2982234D01*
Y1536780D01*
X2981601D01*
Y1536147D01*
X2980333D01*
Y1535513D01*
X2977799D01*
Y1534879D01*
X2981601D01*
Y1534246D01*
X2980967D01*
Y1533612D01*
X2980333D01*
Y1534246D01*
X2979700D01*
Y1533612D01*
X2979066D01*
Y1532978D01*
X2974631D01*
Y1532345D01*
Y1531711D01*
Y1531078D01*
Y1530444D01*
Y1529811D01*
Y1529177D01*
Y1528543D01*
Y1527910D01*
Y1527276D01*
Y1526642D01*
X2973997D01*
Y1526009D01*
Y1525375D01*
Y1524742D01*
Y1524108D01*
X2973363D01*
Y1523474D01*
X2972730D01*
Y1522841D01*
X2973363D01*
Y1522207D01*
X2972730D01*
Y1521573D01*
X2972096D01*
Y1520940D01*
X2971463D01*
Y1520306D01*
X2972096D01*
Y1519673D01*
X2971463D01*
Y1519039D01*
Y1518406D01*
X2970829D01*
Y1519039D01*
X2970195D01*
Y1518406D01*
X2970829D01*
Y1517772D01*
Y1517138D01*
X2970195D01*
Y1516505D01*
X2969562D01*
Y1515871D01*
Y1515237D01*
X2968928D01*
Y1514604D01*
X2967661D01*
Y1513970D01*
Y1513337D01*
X2966394D01*
Y1512703D01*
X2965760D01*
Y1512069D01*
X2964493D01*
Y1511436D01*
X2962592D01*
Y1510802D01*
X2959424D01*
Y1511436D01*
X2957523D01*
Y1512069D01*
X2956256D01*
Y1512703D01*
X2955622D01*
Y1513337D01*
X2954989D01*
Y1513970D01*
X2954355D01*
Y1514604D01*
Y1515237D01*
Y1515871D01*
X2953722D01*
Y1516505D01*
Y1517138D01*
X2953088D01*
Y1517772D01*
Y1518406D01*
Y1519039D01*
Y1519673D01*
X2953722D01*
Y1520306D01*
X2954355D01*
Y1520940D01*
X2953722D01*
Y1521573D01*
X2954355D01*
Y1522207D01*
Y1522841D01*
X2954989D01*
Y1523474D01*
X2955622D01*
Y1524108D01*
X2956256D01*
Y1524742D01*
X2958157D01*
Y1524108D01*
X2958791D01*
Y1523474D01*
Y1522841D01*
X2958157D01*
Y1522207D01*
X2958791D01*
Y1521573D01*
Y1520940D01*
X2958157D01*
Y1520306D01*
X2957523D01*
Y1519673D01*
Y1519039D01*
Y1518406D01*
X2958157D01*
Y1517772D01*
X2959424D01*
Y1517138D01*
X2961325D01*
Y1517772D01*
X2962592D01*
Y1518406D01*
X2963226D01*
Y1519039D01*
X2963859D01*
Y1519673D01*
Y1520306D01*
Y1520940D01*
X2964493D01*
Y1521573D01*
X2965127D01*
Y1522207D01*
X2964493D01*
Y1522841D01*
X2965127D01*
Y1523474D01*
Y1524108D01*
Y1524742D01*
Y1525375D01*
Y1526009D01*
Y1526642D01*
Y1527276D01*
Y1527910D01*
Y1528543D01*
Y1529177D01*
Y1529811D01*
Y1530444D01*
X2965760D01*
Y1531078D01*
X2965127D01*
Y1531711D01*
Y1532345D01*
X2964493D01*
Y1532978D01*
Y1533612D01*
X2963859D01*
Y1534246D01*
Y1534879D01*
Y1535513D01*
X2963226D01*
Y1536147D01*
Y1536780D01*
X2962592D01*
Y1537414D01*
Y1538047D01*
X2961959D01*
Y1538681D01*
X2958157D01*
Y1538047D01*
X2956256D01*
Y1538681D01*
X2955622D01*
Y1539315D01*
X2954355D01*
Y1539948D01*
X2953722D01*
Y1540582D01*
X2952454D01*
Y1541216D01*
X2948019D01*
Y1540582D01*
X2947385D01*
Y1539948D01*
X2946118D01*
Y1539315D01*
Y1538681D01*
X2944217D01*
Y1538047D01*
Y1537414D01*
X2942950D01*
Y1536780D01*
X2941683D01*
Y1537414D01*
X2941049D01*
Y1536780D01*
X2939782D01*
Y1537414D01*
X2938515D01*
Y1538047D01*
X2937248D01*
Y1538681D01*
X2935981D01*
Y1539315D01*
Y1539948D01*
X2935347D01*
Y1539315D01*
X2934713D01*
Y1539948D01*
X2934080D01*
Y1540582D01*
X2933446D01*
Y1541216D01*
Y1541849D01*
X2934080D01*
Y1542483D01*
X2932812D01*
Y1541849D01*
Y1541216D01*
X2932179D01*
Y1541849D01*
X2931545D01*
Y1542483D01*
X2930912D01*
Y1543116D01*
X2930278D01*
Y1543750D01*
X2929644D01*
Y1544383D01*
X2929011D01*
Y1545017D01*
X2928377D01*
Y1545651D01*
X2927744D01*
Y1546284D01*
Y1546918D01*
X2927110D01*
Y1547552D01*
X2926476D01*
Y1548185D01*
X2925843D01*
Y1548819D01*
Y1549452D01*
X2925209D01*
Y1550086D01*
X2924575D01*
Y1550720D01*
Y1551353D01*
X2923942D01*
Y1550720D01*
Y1550086D01*
X2924575D01*
Y1549452D01*
Y1548819D01*
X2925209D01*
Y1548185D01*
Y1547552D01*
X2925843D01*
Y1546918D01*
X2926476D01*
Y1546284D01*
X2927110D01*
Y1545651D01*
Y1545017D01*
X2927744D01*
Y1544383D01*
X2928377D01*
Y1543750D01*
X2929011D01*
Y1543116D01*
X2929644D01*
Y1542483D01*
X2930278D01*
Y1541849D01*
X2931545D01*
Y1541216D01*
X2932179D01*
Y1540582D01*
X2932812D01*
Y1539948D01*
X2933446D01*
Y1539315D01*
X2934713D01*
Y1538681D01*
X2935347D01*
Y1538047D01*
Y1537414D01*
X2936614D01*
Y1536780D01*
Y1536147D01*
Y1535513D01*
Y1534879D01*
Y1534246D01*
Y1533612D01*
Y1532978D01*
Y1532345D01*
X2937248D01*
Y1531711D01*
Y1531078D01*
Y1530444D01*
Y1529811D01*
Y1529177D01*
Y1528543D01*
Y1527910D01*
Y1527276D01*
X2937881D01*
Y1526642D01*
X2938515D01*
Y1526009D01*
Y1525375D01*
Y1524742D01*
X2939149D01*
Y1524108D01*
Y1523474D01*
X2939782D01*
Y1522841D01*
Y1522207D01*
Y1521573D01*
Y1520940D01*
Y1520306D01*
X2940416D01*
Y1519673D01*
Y1519039D01*
Y1518406D01*
X2941049D01*
Y1517772D01*
Y1517138D01*
X2940416D01*
Y1516505D01*
X2941049D01*
Y1515871D01*
X2941683D01*
Y1515237D01*
Y1514604D01*
X2941049D01*
Y1513970D01*
X2941683D01*
Y1513337D01*
Y1512703D01*
X2942317D01*
Y1512069D01*
Y1511436D01*
Y1510802D01*
X2942950D01*
Y1510169D01*
Y1509535D01*
Y1508901D01*
Y1508268D01*
X2943584D01*
Y1507634D01*
Y1507001D01*
Y1506367D01*
X2944217D01*
Y1505733D01*
X2943584D01*
Y1505100D01*
X2944217D01*
Y1504466D01*
X2944851D01*
Y1503832D01*
Y1503199D01*
Y1502565D01*
X2945485D01*
Y1501932D01*
Y1501298D01*
Y1500664D01*
X2946118D01*
Y1500031D01*
X2945485D01*
Y1499397D01*
X2946118D01*
Y1498764D01*
Y1498130D01*
X2946752D01*
Y1497496D01*
X2946118D01*
Y1496863D01*
X2946752D01*
Y1496229D01*
Y1495595D01*
Y1494962D01*
Y1494328D01*
Y1493695D01*
X2947385D01*
Y1493061D01*
Y1492428D01*
Y1491794D01*
X2948019D01*
Y1491160D01*
Y1490527D01*
X2948653D01*
Y1489893D01*
Y1489259D01*
X2949286D01*
Y1488626D01*
Y1487992D01*
X2949920D01*
Y1487359D01*
X2950553D01*
Y1486725D01*
Y1486091D01*
X2951187D01*
Y1485458D01*
X2951821D01*
Y1484824D01*
X2952454D01*
Y1484190D01*
Y1483557D01*
X2951821D01*
Y1482923D01*
X2949920D01*
Y1482290D01*
X2944217D01*
Y1481656D01*
X2943584D01*
Y1482290D01*
X2939149D01*
Y1482923D01*
Y1483557D01*
X2938515D01*
Y1484190D01*
Y1484824D01*
Y1485458D01*
Y1486091D01*
X2939149D01*
Y1486725D01*
Y1487359D01*
X2939782D01*
Y1487992D01*
X2940416D01*
Y1488626D01*
Y1489259D01*
X2939782D01*
Y1489893D01*
Y1490527D01*
Y1491160D01*
X2939149D01*
Y1491794D01*
Y1492428D01*
Y1493061D01*
X2938515D01*
Y1493695D01*
Y1494328D01*
Y1494962D01*
X2937881D01*
Y1495595D01*
Y1496229D01*
X2937248D01*
Y1496863D01*
Y1497496D01*
X2936614D01*
Y1498130D01*
Y1498764D01*
X2935981D01*
Y1499397D01*
Y1500031D01*
X2935347D01*
Y1500664D01*
X2934713D01*
Y1501298D01*
Y1501932D01*
X2934080D01*
Y1502565D01*
X2934713D01*
Y1503199D01*
X2933446D01*
Y1503832D01*
Y1504466D01*
Y1505100D01*
X2932179D01*
Y1505733D01*
Y1506367D01*
X2931545D01*
Y1507001D01*
Y1507634D01*
X2930912D01*
Y1508268D01*
X2930278D01*
Y1508901D01*
X2931545D01*
Y1509535D01*
X2929644D01*
Y1510169D01*
X2929011D01*
Y1510802D01*
Y1511436D01*
X2928377D01*
Y1512069D01*
X2927744D01*
Y1512703D01*
X2927110D01*
Y1513337D01*
X2926476D01*
Y1513970D01*
X2925843D01*
Y1514604D01*
X2925209D01*
Y1515237D01*
X2924575D01*
Y1515871D01*
X2923942D01*
Y1516505D01*
X2923308D01*
Y1517138D01*
X2922675D01*
Y1517772D01*
X2922041D01*
Y1518406D01*
Y1519039D01*
X2921407D01*
Y1519673D01*
X2920774D01*
Y1520306D01*
Y1520940D01*
X2920140D01*
Y1521573D01*
X2919507D01*
Y1522207D01*
Y1522841D01*
X2918873D01*
Y1523474D01*
Y1524108D01*
X2918239D01*
Y1524742D01*
Y1525375D01*
X2917606D01*
Y1524742D01*
Y1524108D01*
X2918239D01*
Y1523474D01*
Y1522841D01*
X2918873D01*
Y1522207D01*
Y1521573D01*
X2919507D01*
Y1520940D01*
Y1520306D01*
X2920140D01*
Y1519673D01*
X2920774D01*
Y1519039D01*
Y1518406D01*
X2921407D01*
Y1517772D01*
X2922041D01*
Y1517138D01*
Y1516505D01*
X2922675D01*
Y1515871D01*
Y1515237D01*
Y1514604D01*
Y1513970D01*
X2922041D01*
Y1513337D01*
Y1512703D01*
Y1512069D01*
X2921407D01*
Y1511436D01*
Y1510802D01*
Y1510169D01*
X2920774D01*
Y1509535D01*
Y1508901D01*
X2920140D01*
Y1508268D01*
Y1507634D01*
Y1507001D01*
X2919507D01*
Y1506367D01*
Y1505733D01*
Y1505100D01*
X2918873D01*
Y1504466D01*
Y1503832D01*
Y1503199D01*
Y1502565D01*
X2918239D01*
Y1501932D01*
Y1501298D01*
Y1500664D01*
Y1500031D01*
X2917606D01*
Y1499397D01*
Y1498764D01*
Y1498130D01*
X2916972D01*
Y1497496D01*
Y1496863D01*
X2916339D01*
Y1496229D01*
Y1495595D01*
Y1494962D01*
X2915705D01*
Y1494328D01*
Y1493695D01*
X2915071D01*
Y1493061D01*
Y1492428D01*
Y1491794D01*
Y1491160D01*
Y1490527D01*
X2914438D01*
Y1489893D01*
Y1489259D01*
X2915071D01*
Y1488626D01*
Y1487992D01*
Y1487359D01*
X2915705D01*
Y1486725D01*
X2916339D01*
Y1486091D01*
X2916972D01*
Y1485458D01*
X2917606D01*
Y1484824D01*
X2918239D01*
Y1484190D01*
Y1483557D01*
X2918873D01*
Y1482923D01*
Y1482290D01*
Y1481656D01*
X2917606D01*
Y1481023D01*
X2909369D01*
Y1481656D01*
X2907468D01*
Y1481023D01*
X2904300D01*
Y1481656D01*
X2903666D01*
Y1482290D01*
Y1482923D01*
Y1483557D01*
Y1484190D01*
X2904300D01*
Y1484824D01*
Y1485458D01*
X2904934D01*
Y1486091D01*
X2906201D01*
Y1486725D01*
Y1487359D01*
Y1487992D01*
X2906834D01*
Y1488626D01*
X2906201D01*
Y1489259D01*
Y1489893D01*
Y1490527D01*
Y1491160D01*
Y1491794D01*
Y1492428D01*
Y1493061D01*
Y1493695D01*
Y1494328D01*
Y1494962D01*
Y1495595D01*
X2906834D01*
Y1496229D01*
Y1496863D01*
Y1497496D01*
Y1498130D01*
Y1498764D01*
Y1499397D01*
Y1500031D01*
Y1500664D01*
X2907468D01*
Y1501298D01*
Y1501932D01*
Y1502565D01*
Y1503199D01*
Y1503832D01*
X2908102D01*
Y1504466D01*
Y1505100D01*
Y1505733D01*
Y1506367D01*
Y1507001D01*
Y1507634D01*
X2908735D01*
Y1508268D01*
Y1508901D01*
Y1509535D01*
Y1510169D01*
Y1510802D01*
Y1511436D01*
Y1512069D01*
Y1512703D01*
Y1513337D01*
Y1513970D01*
Y1514604D01*
Y1515237D01*
X2909369D01*
Y1515871D01*
X2908735D01*
Y1516505D01*
Y1517138D01*
Y1517772D01*
Y1518406D01*
Y1519039D01*
Y1519673D01*
Y1520306D01*
Y1520940D01*
X2908102D01*
Y1521573D01*
Y1522207D01*
Y1522841D01*
X2906834D01*
Y1522207D01*
X2905567D01*
Y1521573D01*
X2904300D01*
Y1520940D01*
X2903033D01*
Y1520306D01*
X2901132D01*
Y1519673D01*
X2899231D01*
Y1519039D01*
X2896063D01*
Y1518406D01*
X2894796D01*
Y1519039D01*
X2892895D01*
Y1518406D01*
X2888460D01*
Y1519039D01*
X2887826D01*
Y1518406D01*
X2888460D01*
Y1517772D01*
X2887193D01*
Y1517138D01*
Y1516505D01*
X2886559D01*
Y1515871D01*
X2885925D01*
Y1515237D01*
X2885292D01*
Y1514604D01*
X2884658D01*
Y1513970D01*
X2884024D01*
Y1513337D01*
X2883391D01*
Y1512703D01*
X2882757D01*
Y1512069D01*
X2882124D01*
Y1511436D01*
Y1510802D01*
X2881490D01*
Y1510169D01*
Y1509535D01*
Y1508901D01*
X2880856D01*
Y1508268D01*
Y1507634D01*
X2880223D01*
Y1507001D01*
Y1506367D01*
Y1505733D01*
X2879589D01*
Y1505100D01*
Y1504466D01*
Y1503832D01*
Y1503199D01*
X2880223D01*
Y1502565D01*
Y1501932D01*
Y1501298D01*
Y1500664D01*
Y1500031D01*
Y1499397D01*
Y1498764D01*
Y1498130D01*
Y1497496D01*
Y1496863D01*
Y1496229D01*
Y1495595D01*
Y1494962D01*
Y1494328D01*
Y1493695D01*
Y1493061D01*
X2880856D01*
Y1492428D01*
Y1491794D01*
Y1491160D01*
X2881490D01*
Y1490527D01*
Y1489893D01*
X2882124D01*
Y1489259D01*
X2882757D01*
Y1488626D01*
X2883391D01*
Y1487992D01*
X2884024D01*
Y1487359D01*
X2884658D01*
Y1486725D01*
X2885292D01*
Y1486091D01*
X2885925D01*
Y1485458D01*
X2886559D01*
Y1484824D01*
Y1484190D01*
Y1483557D01*
X2885925D01*
Y1482923D01*
X2871986D01*
Y1483557D01*
X2870719D01*
Y1484190D01*
Y1484824D01*
Y1485458D01*
Y1486091D01*
Y1486725D01*
Y1487359D01*
Y1487992D01*
Y1488626D01*
Y1489259D01*
Y1489893D01*
Y1490527D01*
Y1491160D01*
Y1491794D01*
Y1492428D01*
X2871352D01*
Y1493061D01*
Y1493695D01*
Y1494328D01*
Y1494962D01*
Y1495595D01*
X2871986D01*
Y1496229D01*
Y1496863D01*
Y1497496D01*
Y1498130D01*
Y1498764D01*
Y1499397D01*
Y1500031D01*
Y1500664D01*
Y1501298D01*
Y1501932D01*
Y1502565D01*
Y1503199D01*
Y1503832D01*
Y1504466D01*
Y1505100D01*
Y1505733D01*
X2871352D01*
Y1506367D01*
Y1507001D01*
Y1507634D01*
Y1508268D01*
Y1508901D01*
Y1509535D01*
Y1510169D01*
X2870719D01*
Y1510802D01*
X2870085D01*
Y1511436D01*
X2869451D01*
Y1512069D01*
X2870085D01*
Y1512703D01*
X2870719D01*
Y1513337D01*
X2871352D01*
Y1513970D01*
X2871986D01*
Y1514604D01*
X2872619D01*
Y1515237D01*
Y1515871D01*
X2873253D01*
Y1516505D01*
X2874520D01*
Y1517138D01*
Y1517772D01*
Y1518406D01*
X2873887D01*
Y1517772D01*
X2873253D01*
Y1517138D01*
X2872619D01*
Y1516505D01*
X2871986D01*
Y1515871D01*
Y1515237D01*
X2871352D01*
Y1514604D01*
X2870719D01*
Y1515237D01*
X2869451D01*
Y1514604D01*
X2870719D01*
Y1513970D01*
X2870085D01*
Y1513337D01*
X2869451D01*
Y1512703D01*
X2868818D01*
Y1512069D01*
Y1511436D01*
X2868184D01*
Y1510802D01*
X2867551D01*
Y1510169D01*
X2866917D01*
Y1509535D01*
X2866283D01*
Y1508901D01*
Y1508268D01*
X2865650D01*
Y1507634D01*
X2865016D01*
Y1507001D01*
Y1506367D01*
X2864383D01*
Y1505733D01*
Y1505100D01*
X2863115D01*
Y1504466D01*
X2863749D01*
Y1503832D01*
X2863115D01*
Y1503199D01*
X2862482D01*
Y1502565D01*
Y1501932D01*
Y1501298D01*
X2861848D01*
Y1500664D01*
Y1500031D01*
X2861215D01*
Y1499397D01*
Y1498764D01*
X2860581D01*
Y1498130D01*
X2861215D01*
Y1497496D01*
X2860581D01*
Y1496863D01*
Y1496229D01*
Y1495595D01*
Y1494962D01*
X2859947D01*
Y1495595D01*
X2859314D01*
Y1494962D01*
X2859947D01*
Y1494328D01*
Y1493695D01*
Y1493061D01*
Y1492428D01*
X2859314D01*
Y1491794D01*
Y1491160D01*
Y1490527D01*
X2858680D01*
Y1489893D01*
Y1489259D01*
Y1488626D01*
X2858046D01*
Y1487992D01*
X2858680D01*
Y1487359D01*
Y1486725D01*
Y1486091D01*
X2859314D01*
Y1485458D01*
X2858680D01*
Y1486091D01*
X2858046D01*
Y1485458D01*
X2858680D01*
Y1484824D01*
Y1484190D01*
Y1483557D01*
X2857413D01*
Y1482923D01*
X2856779D01*
Y1483557D01*
X2851077D01*
Y1484190D01*
X2850443D01*
Y1484824D01*
X2849809D01*
Y1485458D01*
Y1486091D01*
X2849176D01*
Y1486725D01*
Y1487359D01*
Y1487992D01*
Y1488626D01*
Y1489259D01*
Y1489893D01*
X2849809D01*
Y1490527D01*
Y1491160D01*
X2850443D01*
Y1491794D01*
X2851077D01*
Y1492428D01*
X2851710D01*
Y1493061D01*
X2852344D01*
Y1492428D01*
X2852978D01*
Y1493061D01*
X2852344D01*
Y1493695D01*
Y1494328D01*
Y1494962D01*
Y1495595D01*
X2852978D01*
Y1496229D01*
Y1496863D01*
Y1497496D01*
X2853611D01*
Y1498130D01*
Y1498764D01*
X2854245D01*
Y1499397D01*
Y1500031D01*
X2852978D01*
Y1499397D01*
X2852344D01*
Y1500031D01*
Y1500664D01*
X2851077D01*
Y1501298D01*
Y1501932D01*
X2851710D01*
Y1502565D01*
Y1503199D01*
Y1503832D01*
Y1504466D01*
Y1505100D01*
X2852344D01*
Y1505733D01*
Y1506367D01*
Y1507001D01*
X2852978D01*
Y1507634D01*
Y1508268D01*
Y1508901D01*
Y1509535D01*
X2853611D01*
Y1510169D01*
Y1510802D01*
Y1511436D01*
X2854245D01*
Y1512069D01*
Y1512703D01*
Y1513337D01*
X2854878D01*
Y1513970D01*
Y1514604D01*
Y1515237D01*
Y1515871D01*
X2855512D01*
Y1515237D01*
X2856146D01*
Y1514604D01*
Y1513970D01*
Y1513337D01*
Y1512703D01*
X2855512D01*
Y1512069D01*
Y1511436D01*
Y1510802D01*
Y1510169D01*
X2854878D01*
Y1509535D01*
Y1508901D01*
Y1508268D01*
X2854245D01*
Y1507634D01*
Y1507001D01*
Y1506367D01*
Y1505733D01*
Y1505100D01*
Y1504466D01*
Y1503832D01*
Y1503199D01*
Y1502565D01*
Y1501932D01*
Y1501298D01*
X2853611D01*
Y1500664D01*
X2854878D01*
Y1501298D01*
Y1501932D01*
Y1502565D01*
X2855512D01*
Y1503199D01*
Y1503832D01*
Y1504466D01*
Y1505100D01*
X2856146D01*
Y1505733D01*
Y1506367D01*
Y1507001D01*
Y1507634D01*
Y1508268D01*
X2856779D01*
Y1508901D01*
Y1509535D01*
Y1510169D01*
Y1510802D01*
Y1511436D01*
Y1512069D01*
Y1512703D01*
Y1513337D01*
Y1513970D01*
Y1514604D01*
Y1515237D01*
Y1515871D01*
X2856146D01*
Y1516505D01*
X2855512D01*
Y1517138D01*
Y1517772D01*
Y1518406D01*
X2856146D01*
Y1519039D01*
Y1519673D01*
Y1520306D01*
Y1520940D01*
Y1521573D01*
Y1522207D01*
Y1522841D01*
Y1523474D01*
X2856779D01*
Y1524108D01*
Y1524742D01*
Y1525375D01*
Y1526009D01*
Y1526642D01*
Y1527276D01*
Y1527910D01*
X2857413D01*
Y1528543D01*
Y1529177D01*
Y1529811D01*
Y1530444D01*
Y1531078D01*
Y1531711D01*
Y1532345D01*
Y1532978D01*
Y1533612D01*
Y1534246D01*
Y1534879D01*
Y1535513D01*
Y1536147D01*
Y1536780D01*
Y1537414D01*
Y1538047D01*
Y1538681D01*
Y1539315D01*
Y1539948D01*
X2858046D01*
Y1540582D01*
Y1541216D01*
Y1541849D01*
Y1542483D01*
Y1543116D01*
X2858680D01*
Y1543750D01*
Y1544383D01*
X2859314D01*
Y1545017D01*
Y1545651D01*
Y1546284D01*
X2859947D01*
Y1546918D01*
X2860581D01*
Y1547552D01*
Y1548185D01*
X2861215D01*
Y1548819D01*
Y1549452D01*
X2862482D01*
Y1550086D01*
Y1550720D01*
Y1551353D01*
X2863115D01*
Y1551987D01*
X2863749D01*
Y1552620D01*
X2865016D01*
Y1553254D01*
X2864383D01*
Y1553888D01*
X2865016D01*
Y1554521D01*
X2865650D01*
Y1555155D01*
Y1555789D01*
X2866283D01*
Y1556422D01*
X2866917D01*
Y1557056D01*
Y1557689D01*
X2867551D01*
Y1558323D01*
X2868184D01*
Y1558957D01*
X2868818D01*
Y1558323D01*
X2869451D01*
Y1558957D01*
X2868818D01*
Y1559590D01*
Y1560224D01*
X2869451D01*
Y1560857D01*
X2870085D01*
Y1561491D01*
X2870719D01*
Y1562125D01*
X2871352D01*
Y1562758D01*
X2873253D01*
Y1563392D01*
Y1564025D01*
X2873887D01*
Y1563392D01*
X2874520D01*
Y1564025D01*
Y1564659D01*
X2875787D01*
Y1565293D01*
X2877055D01*
Y1565926D01*
X2879589D01*
Y1566560D01*
X2881490D01*
Y1565926D01*
X2882124D01*
Y1566560D01*
X2881490D01*
Y1567194D01*
X2886559D01*
Y1567827D01*
X2901766D01*
Y1568461D01*
X2904934D01*
Y1569094D01*
X2906834D01*
Y1569728D01*
X2908735D01*
Y1570361D01*
X2910636D01*
Y1570995D01*
X2913171D01*
Y1571629D01*
X2915071D01*
Y1572262D01*
X2917606D01*
Y1572896D01*
X2918873D01*
Y1573530D01*
X2920774D01*
Y1574163D01*
X2921407D01*
Y1573530D01*
X2922041D01*
Y1574163D01*
X2922675D01*
Y1573530D01*
X2923308D01*
Y1574163D01*
X2922675D01*
Y1574797D01*
X2926476D01*
Y1574163D01*
D02*
G37*
G36*
X787402Y39370D02*
X393701D01*
Y118110D01*
X787402D01*
Y39370D01*
D02*
G37*
G36*
X2779993Y1565571D02*
X2780781Y1565440D01*
X2781633Y1565178D01*
X2782617Y1564784D01*
X2783601Y1564194D01*
X2784520Y1563472D01*
X2784651Y1563406D01*
X2784848Y1563144D01*
X2785110Y1562816D01*
X2785373Y1562554D01*
X2785438Y1562488D01*
X2785569Y1562226D01*
X2785832Y1561898D01*
X2786094Y1561504D01*
X2819025Y1504366D01*
X2819091Y1504235D01*
X2819288Y1503907D01*
X2819550Y1503317D01*
X2819813Y1502530D01*
X2820075Y1501611D01*
X2820206Y1500627D01*
X2820272Y1499447D01*
X2820075Y1498266D01*
Y1498200D01*
X2820009Y1497938D01*
X2819878Y1497544D01*
X2819681Y1497085D01*
Y1497019D01*
X2819550Y1496757D01*
X2819419Y1496363D01*
X2819157Y1495904D01*
X2819091Y1495773D01*
X2818829Y1495445D01*
X2818435Y1494920D01*
X2817910Y1494330D01*
X2817254Y1493674D01*
X2816401Y1493083D01*
X2815483Y1492493D01*
X2814368Y1492034D01*
X2814237D01*
X2813909Y1491902D01*
X2813515Y1491837D01*
X2813187Y1491771D01*
X2813121D01*
X2812925Y1491706D01*
X2812531D01*
X2812006Y1491640D01*
X2745291D01*
X2744701Y1491771D01*
X2743913Y1491902D01*
X2742995Y1492165D01*
X2742011Y1492558D01*
X2741027Y1493149D01*
X2740043Y1493870D01*
X2739977Y1493936D01*
X2739715Y1494133D01*
X2739453Y1494461D01*
X2739190Y1494789D01*
X2739125Y1494854D01*
X2738928Y1495117D01*
X2738731Y1495445D01*
X2738534Y1495838D01*
X2738469D01*
Y1495904D01*
X2738403Y1496035D01*
X2738206Y1496363D01*
X2738009Y1496954D01*
X2737747Y1497675D01*
X2737550Y1498528D01*
X2737419Y1499512D01*
Y1500627D01*
X2737550Y1501808D01*
Y1501874D01*
X2737616Y1501939D01*
X2737681Y1502267D01*
X2737747Y1502661D01*
X2737878Y1502923D01*
Y1502989D01*
X2738009Y1503251D01*
X2738141Y1503645D01*
X2738403Y1504104D01*
Y1504170D01*
X2738469Y1504235D01*
X2771465Y1561373D01*
X2771531Y1561438D01*
X2771662Y1561635D01*
X2771859Y1561963D01*
X2772121Y1562357D01*
X2772449Y1562816D01*
X2772909Y1563275D01*
X2773433Y1563734D01*
X2773958Y1564128D01*
X2774024D01*
X2774089Y1564259D01*
X2774286Y1564325D01*
X2774549Y1564522D01*
X2774614Y1564587D01*
X2774877Y1564718D01*
X2775270Y1564915D01*
X2775795Y1565112D01*
X2776451Y1565309D01*
X2777173Y1565506D01*
X2777960Y1565637D01*
X2778813Y1565702D01*
X2779337D01*
X2779993Y1565571D01*
D02*
G37*
G36*
X2678313D02*
X2679101Y1565440D01*
X2679953Y1565178D01*
X2680937Y1564784D01*
X2681921Y1564194D01*
X2682840Y1563472D01*
X2682971Y1563406D01*
X2683168Y1563144D01*
X2683430Y1562816D01*
X2683693Y1562554D01*
X2683758Y1562488D01*
X2683889Y1562226D01*
X2684152Y1561898D01*
X2684414Y1561504D01*
X2717345Y1504366D01*
X2717411Y1504235D01*
X2717608Y1503907D01*
X2717870Y1503317D01*
X2718133Y1502530D01*
X2718395Y1501611D01*
X2718526Y1500627D01*
X2718592Y1499446D01*
X2718395Y1498266D01*
Y1498200D01*
X2718329Y1497938D01*
X2718198Y1497544D01*
X2718001Y1497085D01*
Y1497019D01*
X2717870Y1496757D01*
X2717739Y1496363D01*
X2717477Y1495904D01*
X2717411Y1495773D01*
X2717149Y1495445D01*
X2716755Y1494920D01*
X2716230Y1494330D01*
X2715574Y1493674D01*
X2714721Y1493083D01*
X2713803Y1492493D01*
X2712688Y1492034D01*
X2712557D01*
X2712229Y1491902D01*
X2711835Y1491837D01*
X2711507Y1491771D01*
X2711441D01*
X2711245Y1491706D01*
X2710851D01*
X2710326Y1491640D01*
X2643611D01*
X2643021Y1491771D01*
X2642233Y1491902D01*
X2641315Y1492165D01*
X2640331Y1492558D01*
X2639347Y1493149D01*
X2638363Y1493870D01*
X2638297Y1493936D01*
X2638035Y1494133D01*
X2637773Y1494461D01*
X2637510Y1494789D01*
X2637445Y1494854D01*
X2637248Y1495117D01*
X2637051Y1495445D01*
X2636854Y1495838D01*
X2636789D01*
Y1495904D01*
X2636723Y1496035D01*
X2636526Y1496363D01*
X2636329Y1496954D01*
X2636067Y1497675D01*
X2635870Y1498528D01*
X2635739Y1499512D01*
Y1500627D01*
X2635870Y1501808D01*
Y1501874D01*
X2635936Y1501939D01*
X2636001Y1502267D01*
X2636067Y1502661D01*
X2636198Y1502923D01*
Y1502989D01*
X2636329Y1503251D01*
X2636461Y1503645D01*
X2636723Y1504104D01*
Y1504170D01*
X2636789Y1504235D01*
X2669785Y1561373D01*
X2669851Y1561438D01*
X2669982Y1561635D01*
X2670179Y1561963D01*
X2670441Y1562357D01*
X2670769Y1562816D01*
X2671229Y1563275D01*
X2671753Y1563734D01*
X2672278Y1564128D01*
X2672344D01*
X2672409Y1564259D01*
X2672606Y1564325D01*
X2672869Y1564522D01*
X2672934Y1564587D01*
X2673197Y1564718D01*
X2673590Y1564915D01*
X2674115Y1565112D01*
X2674771Y1565309D01*
X2675493Y1565506D01*
X2676280Y1565637D01*
X2677133Y1565702D01*
X2677657D01*
X2678313Y1565571D01*
D02*
G37*
G36*
X2576633D02*
X2577421Y1565440D01*
X2578273Y1565178D01*
X2579257Y1564784D01*
X2580241Y1564194D01*
X2581160Y1563472D01*
X2581291Y1563406D01*
X2581488Y1563144D01*
X2581750Y1562816D01*
X2582013Y1562554D01*
X2582078Y1562488D01*
X2582209Y1562226D01*
X2582472Y1561898D01*
X2582734Y1561504D01*
X2615665Y1504366D01*
X2615731Y1504235D01*
X2615928Y1503907D01*
X2616190Y1503317D01*
X2616453Y1502530D01*
X2616715Y1501611D01*
X2616846Y1500627D01*
X2616912Y1499446D01*
X2616715Y1498266D01*
Y1498200D01*
X2616649Y1497938D01*
X2616518Y1497544D01*
X2616321Y1497085D01*
Y1497019D01*
X2616190Y1496757D01*
X2616059Y1496363D01*
X2615797Y1495904D01*
X2615731Y1495773D01*
X2615469Y1495445D01*
X2615075Y1494920D01*
X2614550Y1494330D01*
X2613894Y1493674D01*
X2613041Y1493083D01*
X2612123Y1492493D01*
X2611008Y1492034D01*
X2610877D01*
X2610549Y1491902D01*
X2610155Y1491837D01*
X2609827Y1491771D01*
X2609761D01*
X2609565Y1491706D01*
X2609171D01*
X2608646Y1491640D01*
X2541931D01*
X2541341Y1491771D01*
X2540553Y1491902D01*
X2539635Y1492165D01*
X2538651Y1492558D01*
X2537667Y1493149D01*
X2536683Y1493870D01*
X2536617Y1493936D01*
X2536355Y1494133D01*
X2536093Y1494461D01*
X2535830Y1494789D01*
X2535765Y1494854D01*
X2535568Y1495117D01*
X2535371Y1495445D01*
X2535174Y1495838D01*
X2535109D01*
Y1495904D01*
X2535043Y1496035D01*
X2534846Y1496363D01*
X2534649Y1496954D01*
X2534387Y1497675D01*
X2534190Y1498528D01*
X2534059Y1499512D01*
Y1500627D01*
X2534190Y1501808D01*
Y1501874D01*
X2534256Y1501939D01*
X2534321Y1502267D01*
X2534387Y1502661D01*
X2534518Y1502923D01*
Y1502989D01*
X2534649Y1503251D01*
X2534781Y1503645D01*
X2535043Y1504104D01*
Y1504170D01*
X2535109Y1504235D01*
X2568105Y1561373D01*
X2568171Y1561438D01*
X2568302Y1561635D01*
X2568499Y1561963D01*
X2568761Y1562357D01*
X2569089Y1562816D01*
X2569549Y1563275D01*
X2570073Y1563734D01*
X2570598Y1564128D01*
X2570664D01*
X2570729Y1564259D01*
X2570926Y1564325D01*
X2571189Y1564522D01*
X2571254Y1564587D01*
X2571517Y1564718D01*
X2571910Y1564915D01*
X2572435Y1565112D01*
X2573091Y1565309D01*
X2573813Y1565506D01*
X2574600Y1565637D01*
X2575453Y1565702D01*
X2575977D01*
X2576633Y1565571D01*
D02*
G37*
G36*
X2717477Y1479832D02*
X2716033D01*
X2710523Y1488032D01*
Y1479832D01*
X2709211D01*
Y1490262D01*
X2710654D01*
X2716099Y1482062D01*
Y1490262D01*
X2717477D01*
Y1479832D01*
D02*
G37*
G36*
X2682512D02*
X2681069D01*
X2675558Y1488032D01*
Y1479832D01*
X2674246D01*
Y1490262D01*
X2675689D01*
X2681200Y1482062D01*
Y1490262D01*
X2682512D01*
Y1479832D01*
D02*
G37*
G36*
X2615797D02*
X2614353D01*
X2608843Y1488032D01*
Y1479832D01*
X2607531D01*
Y1490262D01*
X2608974D01*
X2614419Y1482062D01*
Y1490262D01*
X2615797D01*
Y1479832D01*
D02*
G37*
G36*
X2580832D02*
X2579389D01*
X2573878Y1488032D01*
Y1479832D01*
X2572566D01*
Y1490262D01*
X2574009D01*
X2579520Y1482062D01*
Y1490262D01*
X2580832D01*
Y1479832D01*
D02*
G37*
G36*
X2695435D02*
X2693992D01*
Y1490262D01*
X2695435D01*
Y1479832D01*
D02*
G37*
G36*
X2692352Y1489016D02*
X2688875D01*
Y1479832D01*
X2687497D01*
Y1489016D01*
X2684021D01*
Y1490262D01*
X2692352D01*
Y1489016D01*
D02*
G37*
G36*
X2672147D02*
X2665915D01*
Y1485802D01*
X2671753D01*
Y1484621D01*
X2665915D01*
Y1481013D01*
X2672344D01*
Y1479832D01*
X2664537D01*
Y1490262D01*
X2672147D01*
Y1489016D01*
D02*
G37*
G36*
X2663094D02*
X2659617D01*
Y1479832D01*
X2658240D01*
Y1489016D01*
X2654763D01*
Y1490262D01*
X2663094D01*
Y1489016D01*
D02*
G37*
G36*
X2654173D02*
X2650696D01*
Y1479832D01*
X2649318D01*
Y1489016D01*
X2645841D01*
Y1490262D01*
X2654173D01*
Y1489016D01*
D02*
G37*
G36*
X2646629Y1479832D02*
X2645054D01*
X2643808Y1482981D01*
X2639413D01*
X2638297Y1479832D01*
X2636789D01*
X2640856Y1490262D01*
X2642299D01*
X2646629Y1479832D01*
D02*
G37*
G36*
X2593755D02*
X2592312D01*
Y1490262D01*
X2593755D01*
Y1479832D01*
D02*
G37*
G36*
X2590672Y1489016D02*
X2587195D01*
Y1479832D01*
X2585817D01*
Y1489016D01*
X2582341D01*
Y1490262D01*
X2590672D01*
Y1489016D01*
D02*
G37*
G36*
X2570467D02*
X2564235D01*
Y1485802D01*
X2570073D01*
Y1484621D01*
X2564235D01*
Y1481013D01*
X2570664D01*
Y1479832D01*
X2562857D01*
Y1490262D01*
X2570467D01*
Y1489016D01*
D02*
G37*
G36*
X2561414D02*
X2557937D01*
Y1479832D01*
X2556560D01*
Y1489016D01*
X2553083D01*
Y1490262D01*
X2561414D01*
Y1489016D01*
D02*
G37*
G36*
X2552493D02*
X2549016D01*
Y1479832D01*
X2547638D01*
Y1489016D01*
X2544161D01*
Y1490262D01*
X2552493D01*
Y1489016D01*
D02*
G37*
G36*
X2544949Y1479832D02*
X2543374D01*
X2542128Y1482981D01*
X2537733D01*
X2536617Y1479832D01*
X2535109D01*
X2539176Y1490262D01*
X2540619D01*
X2544949Y1479832D01*
D02*
G37*
G36*
X2702979Y1490394D02*
X2703307D01*
X2704160Y1490131D01*
X2704619Y1490000D01*
X2705078Y1489738D01*
X2705144D01*
X2705275Y1489606D01*
X2705472Y1489475D01*
X2705734Y1489278D01*
X2706325Y1488688D01*
X2706849Y1487835D01*
Y1487770D01*
X2706915Y1487638D01*
X2707046Y1487376D01*
X2707177Y1487048D01*
X2707243Y1486589D01*
X2707374Y1486130D01*
X2707440Y1485014D01*
Y1484949D01*
Y1484752D01*
Y1484424D01*
X2707374Y1484096D01*
X2707177Y1483178D01*
X2706784Y1482194D01*
Y1482128D01*
X2706653Y1481997D01*
X2706521Y1481734D01*
X2706325Y1481472D01*
X2705734Y1480882D01*
X2704947Y1480291D01*
X2704881D01*
X2704750Y1480160D01*
X2704488Y1480094D01*
X2704225Y1479963D01*
X2703373Y1479766D01*
X2702454Y1479635D01*
X2702192D01*
X2701929Y1479701D01*
X2701536D01*
X2700683Y1479963D01*
X2700224Y1480094D01*
X2699765Y1480357D01*
X2699699D01*
X2699568Y1480488D01*
X2699371Y1480619D01*
X2699109Y1480816D01*
X2698518Y1481406D01*
X2697993Y1482259D01*
Y1482325D01*
X2697928Y1482456D01*
X2697797Y1482718D01*
X2697731Y1483046D01*
X2697600Y1483440D01*
X2697469Y1483899D01*
X2697403Y1484949D01*
Y1485080D01*
Y1485342D01*
X2697469Y1485867D01*
X2697600Y1486392D01*
X2697731Y1487048D01*
X2697993Y1487770D01*
X2698321Y1488426D01*
X2698781Y1489016D01*
X2698846Y1489082D01*
X2699043Y1489213D01*
X2699371Y1489475D01*
X2699765Y1489738D01*
X2700289Y1490000D01*
X2700945Y1490262D01*
X2701667Y1490394D01*
X2702454Y1490459D01*
X2702717D01*
X2702979Y1490394D01*
D02*
G37*
G36*
X2601299D02*
X2601627D01*
X2602480Y1490131D01*
X2602939Y1490000D01*
X2603398Y1489738D01*
X2603464D01*
X2603595Y1489606D01*
X2603792Y1489475D01*
X2604054Y1489278D01*
X2604645Y1488688D01*
X2605169Y1487835D01*
Y1487770D01*
X2605235Y1487638D01*
X2605366Y1487376D01*
X2605497Y1487048D01*
X2605563Y1486589D01*
X2605694Y1486130D01*
X2605760Y1485014D01*
Y1484949D01*
Y1484752D01*
Y1484424D01*
X2605694Y1484096D01*
X2605497Y1483178D01*
X2605104Y1482194D01*
Y1482128D01*
X2604973Y1481997D01*
X2604841Y1481734D01*
X2604645Y1481472D01*
X2604054Y1480882D01*
X2603267Y1480291D01*
X2603201D01*
X2603070Y1480160D01*
X2602808Y1480094D01*
X2602545Y1479963D01*
X2601693Y1479766D01*
X2600774Y1479635D01*
X2600512D01*
X2600249Y1479701D01*
X2599856D01*
X2599003Y1479963D01*
X2598544Y1480094D01*
X2598085Y1480357D01*
X2598019D01*
X2597888Y1480488D01*
X2597691Y1480619D01*
X2597429Y1480816D01*
X2596838Y1481406D01*
X2596313Y1482259D01*
Y1482325D01*
X2596248Y1482456D01*
X2596117Y1482718D01*
X2596051Y1483046D01*
X2595920Y1483440D01*
X2595789Y1483899D01*
X2595723Y1484949D01*
Y1485080D01*
Y1485342D01*
X2595789Y1485867D01*
X2595920Y1486392D01*
X2596051Y1487048D01*
X2596313Y1487770D01*
X2596641Y1488426D01*
X2597101Y1489016D01*
X2597166Y1489082D01*
X2597363Y1489213D01*
X2597691Y1489475D01*
X2598085Y1489738D01*
X2598609Y1490000D01*
X2599265Y1490262D01*
X2599987Y1490394D01*
X2600774Y1490459D01*
X2601037D01*
X2601299Y1490394D01*
D02*
G37*
G36*
X2685529Y1478126D02*
X2685857Y1478061D01*
X2685923Y1477995D01*
X2686120Y1477930D01*
X2686317Y1477733D01*
X2686513Y1477470D01*
X2686579Y1477405D01*
X2686645Y1477274D01*
X2686710Y1477011D01*
X2686776Y1476683D01*
X2686120Y1476618D01*
Y1476683D01*
X2686054Y1476880D01*
X2685989Y1477142D01*
X2685792Y1477339D01*
X2685726Y1477405D01*
X2685529Y1477470D01*
X2685267Y1477536D01*
X2684873Y1477602D01*
X2684545D01*
X2684217Y1477536D01*
X2683955Y1477405D01*
X2683889Y1477339D01*
X2683824Y1477208D01*
X2683693Y1477077D01*
X2683627Y1476814D01*
Y1476749D01*
X2683693Y1476683D01*
X2683758Y1476486D01*
X2683889Y1476355D01*
X2683955D01*
X2684086Y1476224D01*
X2684414Y1476093D01*
X2684873Y1475962D01*
X2685005D01*
X2685398Y1475830D01*
X2685792Y1475765D01*
X2686054Y1475634D01*
X2686120Y1475568D01*
X2686317Y1475502D01*
X2686513Y1475306D01*
X2686710Y1475109D01*
X2686776Y1475043D01*
X2686841Y1474912D01*
X2686907Y1474650D01*
X2686973Y1474387D01*
Y1474322D01*
Y1474125D01*
X2686841Y1473862D01*
X2686710Y1473600D01*
X2686645Y1473534D01*
X2686513Y1473403D01*
X2686317Y1473272D01*
X2686054Y1473141D01*
X2685989Y1473075D01*
X2685726Y1473010D01*
X2685398Y1472944D01*
X2685005Y1472878D01*
X2684873D01*
X2684611Y1472944D01*
X2684217Y1473010D01*
X2683824Y1473141D01*
X2683758D01*
X2683561Y1473272D01*
X2683299Y1473403D01*
X2683102Y1473666D01*
X2683037Y1473731D01*
X2682971Y1473928D01*
X2682840Y1474190D01*
X2682774Y1474584D01*
X2683430Y1474650D01*
Y1474584D01*
Y1474453D01*
X2683496Y1474190D01*
X2683627Y1473994D01*
Y1473928D01*
X2683758Y1473862D01*
X2683889Y1473731D01*
X2684152Y1473600D01*
X2684414D01*
X2684677Y1473534D01*
X2685726D01*
X2685857Y1473600D01*
X2685989Y1473731D01*
X2686120Y1473862D01*
X2686185Y1473928D01*
X2686251Y1473994D01*
X2686317Y1474125D01*
Y1474322D01*
Y1474387D01*
Y1474453D01*
X2686251Y1474584D01*
X2686120Y1474715D01*
Y1474781D01*
X2685989Y1474846D01*
X2685857Y1474912D01*
X2685661Y1475043D01*
X2685529Y1475109D01*
X2685201Y1475174D01*
X2684742Y1475306D01*
X2684611Y1475371D01*
X2684349Y1475437D01*
X2684021Y1475502D01*
X2683693Y1475634D01*
X2683627Y1475699D01*
X2683496Y1475765D01*
X2683168Y1476158D01*
Y1476224D01*
X2683102Y1476355D01*
X2683037Y1476552D01*
X2682971Y1476749D01*
Y1476814D01*
X2683037Y1477011D01*
X2683102Y1477274D01*
X2683233Y1477536D01*
Y1477602D01*
X2683365Y1477733D01*
X2683561Y1477930D01*
X2683889Y1478061D01*
X2683955D01*
X2684152Y1478126D01*
X2684414Y1478192D01*
X2685136D01*
X2685529Y1478126D01*
D02*
G37*
G36*
X2705406D02*
X2705865Y1478061D01*
X2706259Y1477798D01*
X2706325Y1477733D01*
X2706521Y1477536D01*
X2706784Y1477142D01*
X2706981Y1476683D01*
X2706325Y1476552D01*
X2706259Y1476618D01*
X2706193Y1476880D01*
X2705997Y1477142D01*
X2705800Y1477339D01*
X2705734Y1477405D01*
X2705603Y1477470D01*
X2705275Y1477536D01*
X2704947Y1477602D01*
X2704619D01*
X2704225Y1477470D01*
X2703897Y1477339D01*
X2703832Y1477274D01*
X2703701Y1477142D01*
X2703504Y1476880D01*
X2703307Y1476552D01*
Y1476486D01*
X2703241Y1476290D01*
X2703176Y1475962D01*
Y1475568D01*
Y1475437D01*
Y1475174D01*
X2703241Y1474781D01*
X2703373Y1474387D01*
X2703438Y1474322D01*
X2703504Y1474125D01*
X2703701Y1473862D01*
X2703963Y1473666D01*
X2704029D01*
X2704225Y1473600D01*
X2704553Y1473534D01*
X2704881Y1473469D01*
X2705013D01*
X2705209Y1473534D01*
X2705537Y1473600D01*
X2705865Y1473731D01*
X2705931Y1473797D01*
X2706062Y1473994D01*
X2706259Y1474256D01*
X2706390Y1474715D01*
X2707112Y1474518D01*
Y1474453D01*
X2707046Y1474387D01*
X2706915Y1474059D01*
X2706653Y1473666D01*
X2706325Y1473338D01*
X2706193Y1473272D01*
X2705931Y1473141D01*
X2705472Y1472944D01*
X2704947Y1472878D01*
X2704816D01*
X2704422Y1472944D01*
X2703963Y1473075D01*
X2703569Y1473272D01*
X2703504Y1473338D01*
X2703241Y1473469D01*
X2702979Y1473731D01*
X2702717Y1474125D01*
Y1474190D01*
X2702651Y1474256D01*
X2702585Y1474584D01*
X2702520Y1475043D01*
X2702454Y1475568D01*
Y1475634D01*
Y1475699D01*
X2702520Y1476027D01*
X2702585Y1476486D01*
X2702782Y1477011D01*
X2702848Y1477077D01*
X2702979Y1477339D01*
X2703241Y1477602D01*
X2703635Y1477864D01*
X2703766Y1477930D01*
X2704029Y1478061D01*
X2704422Y1478126D01*
X2704947Y1478192D01*
X2705078D01*
X2705406Y1478126D01*
D02*
G37*
G36*
X2664997D02*
X2665456Y1478061D01*
X2665915Y1477798D01*
X2665981Y1477733D01*
X2666177Y1477536D01*
X2666440Y1477142D01*
X2666637Y1476683D01*
X2665981Y1476552D01*
X2665915Y1476618D01*
X2665849Y1476880D01*
X2665653Y1477077D01*
X2665456Y1477339D01*
X2665390Y1477405D01*
X2665193Y1477470D01*
X2664931Y1477536D01*
X2664537Y1477602D01*
X2664209D01*
X2663881Y1477470D01*
X2663553Y1477339D01*
X2663488Y1477274D01*
X2663357Y1477142D01*
X2663160Y1476880D01*
X2662963Y1476552D01*
Y1476486D01*
X2662897Y1476224D01*
X2662832Y1475896D01*
X2662766Y1475568D01*
Y1475437D01*
X2662832Y1475174D01*
X2662897Y1474781D01*
X2663029Y1474387D01*
X2663094Y1474322D01*
X2663160Y1474125D01*
X2663357Y1473862D01*
X2663619Y1473666D01*
X2663685D01*
X2663881Y1473600D01*
X2664209Y1473534D01*
X2664537Y1473469D01*
X2664669D01*
X2664865Y1473534D01*
X2665193Y1473600D01*
X2665456Y1473731D01*
X2665521Y1473797D01*
X2665653Y1473928D01*
X2665849Y1474256D01*
X2666046Y1474715D01*
X2666768Y1474518D01*
Y1474453D01*
X2666702Y1474387D01*
X2666571Y1474059D01*
X2666309Y1473666D01*
X2665981Y1473338D01*
X2665849Y1473272D01*
X2665587Y1473141D01*
X2665128Y1472944D01*
X2664537Y1472878D01*
X2664406D01*
X2664078Y1472944D01*
X2663619Y1473075D01*
X2663160Y1473272D01*
X2663094Y1473338D01*
X2662897Y1473469D01*
X2662635Y1473731D01*
X2662373Y1474125D01*
Y1474190D01*
X2662307Y1474256D01*
X2662241Y1474584D01*
X2662176Y1475043D01*
X2662110Y1475568D01*
Y1475634D01*
Y1475699D01*
X2662176Y1476027D01*
X2662241Y1476486D01*
X2662438Y1477011D01*
X2662504Y1477077D01*
X2662635Y1477339D01*
X2662897Y1477602D01*
X2663291Y1477864D01*
X2663422Y1477930D01*
X2663685Y1478061D01*
X2664078Y1478126D01*
X2664537Y1478192D01*
X2664669D01*
X2664997Y1478126D01*
D02*
G37*
G36*
X2701405Y1473010D02*
X2700749D01*
Y1478126D01*
X2701405D01*
Y1473010D01*
D02*
G37*
G36*
X2699896Y1477536D02*
X2698190D01*
Y1473010D01*
X2697469D01*
Y1477536D01*
X2695763D01*
Y1478126D01*
X2699896D01*
Y1477536D01*
D02*
G37*
G36*
X2696157Y1473010D02*
X2695369D01*
X2694713Y1474453D01*
X2692549D01*
X2691958Y1473010D01*
X2691237D01*
X2693270Y1478126D01*
X2693992D01*
X2696157Y1473010D01*
D02*
G37*
G36*
X2691630Y1477536D02*
X2689925D01*
Y1473010D01*
X2689203D01*
Y1477536D01*
X2687497D01*
Y1478126D01*
X2691630D01*
Y1477536D01*
D02*
G37*
G36*
X2675099Y1478061D02*
X2675427Y1477995D01*
X2675493Y1477930D01*
X2675624Y1477864D01*
X2675821Y1477667D01*
X2676017Y1477470D01*
X2676083Y1477405D01*
X2676149Y1477208D01*
X2676214Y1477011D01*
X2676280Y1476749D01*
Y1476683D01*
X2676214Y1476421D01*
X2676149Y1476093D01*
X2675886Y1475765D01*
X2675821Y1475699D01*
X2675624Y1475568D01*
X2675296Y1475371D01*
X2674771Y1475240D01*
X2674837D01*
X2674902Y1475174D01*
X2675230Y1475043D01*
X2675296Y1474978D01*
X2675361Y1474846D01*
X2675558Y1474650D01*
X2675755Y1474322D01*
X2676673Y1473010D01*
X2675821D01*
X2675099Y1473994D01*
X2675033Y1474059D01*
X2674902Y1474256D01*
X2674771Y1474518D01*
X2674640Y1474715D01*
X2674574Y1474781D01*
X2674509Y1474846D01*
X2674377Y1474978D01*
X2674246Y1475043D01*
X2674181Y1475109D01*
X2674115D01*
X2673918Y1475174D01*
X2673853Y1475240D01*
X2672737D01*
Y1473010D01*
X2672081D01*
Y1478126D01*
X2674771D01*
X2675099Y1478061D01*
D02*
G37*
G36*
X2671360Y1477536D02*
X2669589D01*
Y1473010D01*
X2668933D01*
Y1477536D01*
X2667161D01*
Y1478126D01*
X2671360D01*
Y1477536D01*
D02*
G37*
G36*
X2661192D02*
X2658109D01*
Y1475896D01*
X2661061D01*
Y1475306D01*
X2658109D01*
Y1473534D01*
X2661323D01*
Y1473010D01*
X2657453D01*
Y1478126D01*
X2661192D01*
Y1477536D01*
D02*
G37*
G36*
X2654041Y1473534D02*
X2656600D01*
Y1473010D01*
X2653320D01*
Y1478126D01*
X2654041D01*
Y1473534D01*
D02*
G37*
G36*
X2652270Y1477536D02*
X2649187D01*
Y1475896D01*
X2652073D01*
Y1475306D01*
X2649187D01*
Y1473534D01*
X2652401D01*
Y1473010D01*
X2648465D01*
Y1478126D01*
X2652270D01*
Y1477536D01*
D02*
G37*
G36*
X2680085Y1478126D02*
X2680478Y1478061D01*
X2680937Y1477864D01*
X2681069Y1477798D01*
X2681265Y1477602D01*
X2681528Y1477339D01*
X2681790Y1476880D01*
X2681856Y1476814D01*
X2681987Y1476486D01*
X2682053Y1476093D01*
X2682118Y1475502D01*
Y1475437D01*
Y1475371D01*
X2682053Y1474978D01*
X2681987Y1474518D01*
X2681790Y1474059D01*
X2681725Y1473994D01*
X2681528Y1473731D01*
X2681265Y1473469D01*
X2680872Y1473206D01*
X2680806Y1473141D01*
X2680544Y1473075D01*
X2680150Y1472944D01*
X2679625Y1472878D01*
X2679494D01*
X2679166Y1472944D01*
X2678773Y1473075D01*
X2678313Y1473272D01*
X2678182Y1473338D01*
X2677985Y1473469D01*
X2677657Y1473731D01*
X2677461Y1474125D01*
X2677395Y1474190D01*
X2677329Y1474518D01*
X2677198Y1474912D01*
X2677133Y1475437D01*
Y1475502D01*
Y1475634D01*
X2677198Y1475896D01*
Y1476158D01*
X2677395Y1476880D01*
X2677789Y1477470D01*
X2677854Y1477536D01*
X2677920Y1477602D01*
X2678313Y1477864D01*
X2678838Y1478061D01*
X2679232Y1478192D01*
X2679757D01*
X2680085Y1478126D01*
D02*
G37*
G36*
X2661979Y1471173D02*
X2662373Y1471042D01*
X2662438Y1470976D01*
X2662635Y1470910D01*
X2662832Y1470714D01*
X2663029Y1470451D01*
X2663094Y1470386D01*
X2663160Y1470254D01*
X2663225Y1469926D01*
X2663291Y1469598D01*
X2662635D01*
Y1469664D01*
X2662569Y1469861D01*
X2662438Y1470123D01*
X2662241Y1470320D01*
X2662176Y1470386D01*
X2661979Y1470451D01*
X2661717Y1470517D01*
X2661323Y1470582D01*
X2660995D01*
X2660733Y1470451D01*
X2660470Y1470320D01*
X2660405Y1470254D01*
X2660339Y1470189D01*
X2660208Y1469992D01*
X2660142Y1469795D01*
Y1469730D01*
Y1469664D01*
X2660208Y1469467D01*
X2660339Y1469336D01*
X2660405D01*
X2660601Y1469270D01*
X2660864Y1469139D01*
X2661389Y1468942D01*
X2661520D01*
X2661782Y1468877D01*
X2662110Y1468811D01*
X2662569Y1468614D01*
X2662635Y1468549D01*
X2662832Y1468483D01*
X2663029Y1468286D01*
X2663225Y1468090D01*
X2663291Y1468024D01*
X2663357Y1467893D01*
X2663422Y1467630D01*
Y1467368D01*
Y1467302D01*
Y1467106D01*
X2663357Y1466843D01*
X2663225Y1466515D01*
X2663160Y1466450D01*
X2663029Y1466318D01*
X2662832Y1466187D01*
X2662504Y1465990D01*
X2662438D01*
X2662241Y1465925D01*
X2661913Y1465859D01*
X2661520Y1465794D01*
X2661126D01*
X2660733Y1465859D01*
X2660339Y1465990D01*
X2660273Y1466056D01*
X2660077Y1466122D01*
X2659814Y1466318D01*
X2659552Y1466581D01*
X2659486Y1466646D01*
X2659421Y1466909D01*
X2659355Y1467237D01*
X2659289Y1467565D01*
X2659945Y1467630D01*
Y1467565D01*
Y1467434D01*
X2660011Y1467171D01*
X2660142Y1466974D01*
X2660273Y1466843D01*
X2660405Y1466712D01*
X2660667Y1466515D01*
X2660733D01*
X2660929Y1466450D01*
X2661192Y1466384D01*
X2661717D01*
X2661979Y1466450D01*
X2662176Y1466515D01*
X2662241D01*
X2662373Y1466581D01*
X2662504Y1466712D01*
X2662635Y1466843D01*
Y1466909D01*
X2662701Y1466974D01*
X2662766Y1467302D01*
Y1467368D01*
Y1467434D01*
X2662635Y1467696D01*
Y1467762D01*
X2662504Y1467827D01*
X2662176Y1468024D01*
X2662110D01*
X2661913Y1468090D01*
X2661585Y1468221D01*
X2661192Y1468286D01*
X2661061D01*
X2660798Y1468352D01*
X2660470Y1468483D01*
X2660208Y1468614D01*
X2660142Y1468680D01*
X2660011Y1468746D01*
X2659814Y1468877D01*
X2659683Y1469074D01*
Y1469139D01*
X2659617Y1469270D01*
X2659552Y1469467D01*
X2659486Y1469730D01*
Y1469795D01*
X2659552Y1469992D01*
X2659617Y1470254D01*
X2659749Y1470517D01*
Y1470582D01*
X2659880Y1470714D01*
X2660077Y1470910D01*
X2660339Y1471042D01*
X2660405Y1471107D01*
X2660667Y1471173D01*
X2660995Y1471238D01*
X2661651D01*
X2661979Y1471173D01*
D02*
G37*
G36*
X2646891D02*
X2647285Y1471042D01*
X2647350Y1470976D01*
X2647547Y1470910D01*
X2647809Y1470714D01*
X2648006Y1470451D01*
X2648072Y1470386D01*
X2648137Y1470189D01*
X2648203Y1469926D01*
X2648269Y1469598D01*
X2647547D01*
Y1469664D01*
X2647481Y1469861D01*
X2647416Y1470123D01*
X2647219Y1470320D01*
X2647153Y1470386D01*
X2646957Y1470451D01*
X2646694Y1470517D01*
X2646301Y1470582D01*
X2645973D01*
X2645645Y1470451D01*
X2645382Y1470320D01*
X2645317Y1470254D01*
X2645251Y1470189D01*
X2645185Y1469992D01*
X2645120Y1469795D01*
Y1469730D01*
Y1469664D01*
X2645185Y1469467D01*
X2645317Y1469336D01*
X2645382D01*
X2645513Y1469270D01*
X2645841Y1469139D01*
X2646366Y1468942D01*
X2646497D01*
X2646760Y1468877D01*
X2647153Y1468746D01*
X2647481Y1468614D01*
X2647547Y1468549D01*
X2647744Y1468483D01*
X2647941Y1468286D01*
X2648137Y1468090D01*
X2648203Y1468024D01*
X2648269Y1467893D01*
X2648334Y1467630D01*
X2648400Y1467368D01*
Y1467302D01*
Y1467106D01*
X2648269Y1466843D01*
X2648137Y1466515D01*
X2648072Y1466450D01*
X2648006Y1466318D01*
X2647809Y1466187D01*
X2647481Y1465990D01*
X2647416D01*
X2647219Y1465925D01*
X2646891Y1465859D01*
X2646497Y1465794D01*
X2646104D01*
X2645645Y1465859D01*
X2645251Y1465990D01*
X2645185Y1466056D01*
X2644989Y1466122D01*
X2644726Y1466318D01*
X2644529Y1466581D01*
X2644464Y1466646D01*
X2644398Y1466909D01*
X2644267Y1467237D01*
X2644201Y1467565D01*
X2644923Y1467630D01*
Y1467565D01*
Y1467368D01*
X2644989Y1467171D01*
X2645120Y1466974D01*
X2645251Y1466843D01*
X2645382Y1466712D01*
X2645645Y1466515D01*
X2645710D01*
X2645907Y1466450D01*
X2646169Y1466384D01*
X2646694D01*
X2647153Y1466515D01*
X2647219Y1466581D01*
X2647285Y1466646D01*
X2647547Y1466843D01*
X2647613Y1466909D01*
X2647678Y1466974D01*
X2647744Y1467106D01*
Y1467302D01*
Y1467368D01*
Y1467434D01*
X2647678Y1467565D01*
X2647547Y1467696D01*
Y1467762D01*
X2647481Y1467827D01*
X2647153Y1468024D01*
X2647088Y1468090D01*
X2646825Y1468155D01*
X2646497Y1468221D01*
X2646169Y1468286D01*
X2646038D01*
X2645776Y1468352D01*
X2645448Y1468483D01*
X2645185Y1468614D01*
X2645120Y1468680D01*
X2644989Y1468746D01*
X2644792Y1468877D01*
X2644595Y1469074D01*
Y1469139D01*
X2644529Y1469270D01*
X2644464Y1469730D01*
Y1469795D01*
Y1469992D01*
X2644529Y1470254D01*
X2644661Y1470517D01*
X2644726Y1470582D01*
X2644857Y1470714D01*
X2645054Y1470910D01*
X2645317Y1471042D01*
X2645382Y1471107D01*
X2645579Y1471173D01*
X2645907Y1471238D01*
X2646563D01*
X2646891Y1471173D01*
D02*
G37*
G36*
X2704488D02*
X2704947Y1471042D01*
X2705406Y1470779D01*
X2705472Y1470714D01*
X2705669Y1470517D01*
X2705931Y1470123D01*
X2706128Y1469664D01*
X2705472Y1469533D01*
X2705406Y1469598D01*
X2705341Y1469861D01*
X2705144Y1470123D01*
X2704947Y1470320D01*
X2704881Y1470386D01*
X2704685Y1470517D01*
X2704422Y1470582D01*
X2704029Y1470648D01*
X2703963D01*
X2703701Y1470582D01*
X2703373Y1470517D01*
X2703045Y1470320D01*
X2702979Y1470254D01*
X2702782Y1470123D01*
X2702585Y1469861D01*
X2702454Y1469533D01*
Y1469467D01*
X2702389Y1469270D01*
X2702323Y1468942D01*
Y1468549D01*
Y1468418D01*
Y1468155D01*
X2702389Y1467762D01*
X2702520Y1467368D01*
X2702585Y1467302D01*
X2702651Y1467106D01*
X2702848Y1466843D01*
X2703110Y1466646D01*
X2703176Y1466581D01*
X2703373Y1466515D01*
X2703635Y1466450D01*
X2703963Y1466384D01*
X2704029D01*
X2704291Y1466450D01*
X2704619Y1466515D01*
X2704947Y1466712D01*
X2705013Y1466778D01*
X2705144Y1466974D01*
X2705341Y1467237D01*
X2705537Y1467696D01*
X2706193Y1467565D01*
Y1467499D01*
X2706128Y1467434D01*
X2705997Y1467106D01*
X2705800Y1466646D01*
X2705406Y1466253D01*
X2705275Y1466187D01*
X2705013Y1466056D01*
X2704553Y1465859D01*
X2704029Y1465794D01*
X2703897D01*
X2703569Y1465859D01*
X2703110Y1465925D01*
X2702651Y1466122D01*
X2702585Y1466187D01*
X2702389Y1466384D01*
X2702126Y1466712D01*
X2701864Y1467106D01*
X2701798Y1467237D01*
X2701733Y1467565D01*
X2701667Y1468024D01*
X2701601Y1468549D01*
Y1468614D01*
Y1468680D01*
X2701667Y1469008D01*
X2701733Y1469467D01*
X2701864Y1469926D01*
X2701929Y1470058D01*
X2702126Y1470320D01*
X2702389Y1470648D01*
X2702782Y1470910D01*
X2702913Y1470976D01*
X2703176Y1471107D01*
X2703569Y1471173D01*
X2704029Y1471238D01*
X2704160D01*
X2704488Y1471173D01*
D02*
G37*
G36*
X2658371Y1465859D02*
X2657649D01*
X2654894Y1469992D01*
Y1465859D01*
X2654238D01*
Y1471107D01*
X2654894D01*
X2657649Y1466974D01*
Y1471107D01*
X2658371D01*
Y1465859D01*
D02*
G37*
G36*
X2697075D02*
X2696353D01*
X2694320Y1471107D01*
X2695107D01*
X2696419Y1467302D01*
X2696485Y1467237D01*
X2696550Y1466974D01*
X2696681Y1466712D01*
X2696747Y1466450D01*
Y1466515D01*
X2696813Y1466712D01*
X2696878Y1466974D01*
X2697009Y1467302D01*
X2698453Y1471107D01*
X2699109D01*
X2697075Y1465859D01*
D02*
G37*
G36*
X2675099D02*
X2674443D01*
X2672409Y1471107D01*
X2673131D01*
X2674509Y1467302D01*
Y1467237D01*
X2674574Y1467106D01*
X2674640Y1466843D01*
X2674771Y1466450D01*
Y1466515D01*
X2674837Y1466712D01*
X2674968Y1466974D01*
X2675099Y1467302D01*
X2676477Y1471107D01*
X2677198D01*
X2675099Y1465859D01*
D02*
G37*
G36*
X2710851Y1470517D02*
X2707768D01*
Y1468877D01*
X2710654D01*
Y1468286D01*
X2707768D01*
Y1466515D01*
X2710982D01*
Y1465859D01*
X2707112D01*
Y1471107D01*
X2710851D01*
Y1470517D01*
D02*
G37*
G36*
X2700552Y1465859D02*
X2699896D01*
Y1471107D01*
X2700552D01*
Y1465859D01*
D02*
G37*
G36*
X2693795Y1470517D02*
X2690712D01*
Y1468877D01*
X2693598D01*
Y1468286D01*
X2690712D01*
Y1466515D01*
X2693926D01*
Y1465859D01*
X2689990D01*
Y1471107D01*
X2693795D01*
Y1470517D01*
D02*
G37*
G36*
X2687432Y1471042D02*
X2687497D01*
X2687694Y1470976D01*
X2688219Y1470648D01*
X2688285Y1470582D01*
X2688481Y1470386D01*
X2688678Y1470123D01*
X2688809Y1469730D01*
X2688875Y1469664D01*
X2688941Y1469402D01*
X2689006Y1469008D01*
Y1468549D01*
Y1468418D01*
Y1468155D01*
X2688941Y1467762D01*
X2688875Y1467434D01*
Y1467368D01*
X2688809Y1467171D01*
X2688547Y1466712D01*
X2688481Y1466646D01*
X2688416Y1466515D01*
X2688219Y1466384D01*
X2688088Y1466253D01*
X2688022D01*
X2687891Y1466122D01*
X2687432Y1465925D01*
X2687235D01*
X2686907Y1465859D01*
X2684742D01*
Y1471107D01*
X2687104D01*
X2687432Y1471042D01*
D02*
G37*
G36*
X2681593Y1470517D02*
X2678510D01*
Y1468877D01*
X2681397D01*
Y1468286D01*
X2678510D01*
Y1466515D01*
X2681725D01*
Y1465859D01*
X2677789D01*
Y1471107D01*
X2681593D01*
Y1470517D01*
D02*
G37*
G36*
X2671753Y1465859D02*
X2670966D01*
Y1471107D01*
X2671753D01*
Y1465859D01*
D02*
G37*
G36*
X2670179Y1470517D02*
X2668473D01*
Y1465859D01*
X2667752D01*
Y1470517D01*
X2666046D01*
Y1471107D01*
X2670179D01*
Y1470517D01*
D02*
G37*
G36*
X2665193Y1465859D02*
X2664537D01*
Y1471107D01*
X2665193D01*
Y1465859D01*
D02*
G37*
G36*
X2653123Y1470517D02*
X2650040D01*
Y1468877D01*
X2652992D01*
Y1468286D01*
X2650040D01*
Y1466515D01*
X2653254D01*
Y1465859D01*
X2649384D01*
Y1471107D01*
X2653123D01*
Y1470517D01*
D02*
G37*
%LPC*%
G36*
X2929644Y1570995D02*
X2929011D01*
Y1570361D01*
X2929644D01*
Y1569728D01*
X2930278D01*
Y1570361D01*
X2929644D01*
Y1570995D01*
D02*
G37*
G36*
Y1569728D02*
X2929011D01*
Y1569094D01*
X2929644D01*
Y1569728D01*
D02*
G37*
G36*
X2929011Y1569094D02*
X2928377D01*
Y1568461D01*
X2929011D01*
Y1569094D01*
D02*
G37*
G36*
X2927744D02*
X2925843D01*
Y1568461D01*
X2927744D01*
Y1569094D01*
D02*
G37*
G36*
X2925843Y1568461D02*
X2923942D01*
Y1567827D01*
X2922675D01*
Y1567194D01*
X2921407D01*
Y1566560D01*
X2920774D01*
Y1565926D01*
X2920140D01*
Y1565293D01*
X2919507D01*
Y1564659D01*
Y1564025D01*
Y1563392D01*
Y1562758D01*
Y1562125D01*
Y1561491D01*
Y1560857D01*
Y1560224D01*
Y1559590D01*
X2920140D01*
Y1558957D01*
Y1558323D01*
Y1557689D01*
Y1557056D01*
X2920774D01*
Y1556422D01*
Y1555789D01*
Y1555155D01*
X2921407D01*
Y1555789D01*
Y1556422D01*
Y1557056D01*
X2920774D01*
Y1557689D01*
Y1558323D01*
Y1558957D01*
Y1559590D01*
Y1560224D01*
X2920140D01*
Y1560857D01*
Y1561491D01*
Y1562125D01*
Y1562758D01*
Y1563392D01*
Y1564025D01*
Y1564659D01*
X2920774D01*
Y1565293D01*
X2921407D01*
Y1564659D01*
X2922041D01*
Y1565293D01*
X2921407D01*
Y1565926D01*
X2922675D01*
Y1566560D01*
X2923308D01*
Y1567194D01*
X2924575D01*
Y1567827D01*
X2925843D01*
Y1568461D01*
D02*
G37*
G36*
X2873253Y1562125D02*
X2872619D01*
Y1561491D01*
X2873253D01*
Y1562125D01*
D02*
G37*
G36*
X2953722Y1561491D02*
X2953088D01*
Y1560857D01*
X2953722D01*
Y1560224D01*
X2955622D01*
Y1559590D01*
X2956256D01*
Y1560224D01*
X2956890D01*
Y1560857D01*
X2953722D01*
Y1561491D01*
D02*
G37*
G36*
X2956256Y1562758D02*
X2954355D01*
Y1562125D01*
X2956256D01*
Y1561491D01*
X2956890D01*
Y1560857D01*
X2957523D01*
Y1560224D01*
Y1559590D01*
Y1558957D01*
X2958157D01*
Y1559590D01*
Y1560224D01*
Y1560857D01*
X2957523D01*
Y1561491D01*
X2956890D01*
Y1562125D01*
X2956256D01*
Y1562758D01*
D02*
G37*
G36*
X2918873Y1560224D02*
X2918239D01*
Y1559590D01*
Y1558957D01*
X2919507D01*
Y1559590D01*
X2918873D01*
Y1560224D01*
D02*
G37*
G36*
X2922041Y1554521D02*
X2921407D01*
Y1553888D01*
X2922041D01*
Y1554521D01*
D02*
G37*
G36*
X2923942Y1552620D02*
X2923308D01*
Y1551987D01*
X2923942D01*
Y1552620D01*
D02*
G37*
G36*
X2951187Y1551987D02*
X2950553D01*
Y1551353D01*
X2951187D01*
Y1551987D01*
D02*
G37*
G36*
X2951821Y1550086D02*
X2951187D01*
Y1549452D01*
Y1548819D01*
Y1548185D01*
X2951821D01*
Y1548819D01*
Y1549452D01*
Y1550086D01*
D02*
G37*
G36*
X2949920Y1545651D02*
X2949286D01*
Y1545017D01*
X2949920D01*
Y1545651D01*
D02*
G37*
G36*
X2951187Y1546918D02*
X2950553D01*
Y1546284D01*
Y1545651D01*
Y1545017D01*
X2951187D01*
Y1544383D01*
X2951821D01*
Y1545017D01*
X2951187D01*
Y1545651D01*
Y1546284D01*
Y1546918D01*
D02*
G37*
G36*
X2950553Y1544383D02*
X2949920D01*
Y1543750D01*
Y1543116D01*
X2950553D01*
Y1543750D01*
Y1544383D01*
D02*
G37*
G36*
X2949920Y1543116D02*
X2949286D01*
Y1542483D01*
Y1541849D01*
X2949920D01*
Y1542483D01*
Y1543116D01*
D02*
G37*
G36*
X2956890Y1539315D02*
X2956256D01*
Y1538681D01*
X2956890D01*
Y1539315D01*
D02*
G37*
G36*
X2933446D02*
X2932812D01*
Y1538681D01*
X2933446D01*
Y1539315D01*
D02*
G37*
G36*
X2943584Y1538681D02*
X2942950D01*
Y1538047D01*
X2943584D01*
Y1538681D01*
D02*
G37*
G36*
X2878322Y1530444D02*
X2877688D01*
Y1529811D01*
X2878322D01*
Y1530444D01*
D02*
G37*
G36*
X2916972Y1528543D02*
X2916339D01*
Y1527910D01*
X2916972D01*
Y1528543D01*
D02*
G37*
G36*
X2917606Y1526642D02*
X2916972D01*
Y1526009D01*
X2917606D01*
Y1526642D01*
D02*
G37*
G36*
X2878322Y1527910D02*
X2877688D01*
Y1527276D01*
Y1526642D01*
Y1526009D01*
X2878322D01*
Y1526642D01*
Y1527276D01*
Y1527910D01*
D02*
G37*
G36*
X2958157Y1524108D02*
X2956890D01*
Y1523474D01*
X2958157D01*
Y1524108D01*
D02*
G37*
G36*
X2877055Y1526009D02*
X2876421D01*
Y1525375D01*
X2877055D01*
Y1524742D01*
Y1524108D01*
Y1523474D01*
X2877688D01*
Y1524108D01*
Y1524742D01*
Y1525375D01*
X2877055D01*
Y1526009D01*
D02*
G37*
G36*
X2958157Y1522207D02*
X2957523D01*
Y1521573D01*
X2958157D01*
Y1522207D01*
D02*
G37*
G36*
X2939782Y1520306D02*
X2939149D01*
Y1519673D01*
X2939782D01*
Y1520306D01*
D02*
G37*
G36*
X2877055Y1523474D02*
X2876421D01*
Y1522841D01*
Y1522207D01*
X2875787D01*
Y1521573D01*
Y1520940D01*
X2875154D01*
Y1520306D01*
Y1519673D01*
X2874520D01*
Y1519039D01*
Y1518406D01*
X2875154D01*
Y1519039D01*
X2875787D01*
Y1519673D01*
Y1520306D01*
X2876421D01*
Y1520940D01*
Y1521573D01*
X2877055D01*
Y1522207D01*
Y1522841D01*
Y1523474D01*
D02*
G37*
G36*
X2957523Y1518406D02*
X2956890D01*
Y1517772D01*
X2957523D01*
Y1518406D01*
D02*
G37*
G36*
X2935347Y1503832D02*
X2934713D01*
Y1503199D01*
X2935347D01*
Y1503832D01*
D02*
G37*
G36*
X2944851Y1502565D02*
X2944217D01*
Y1501932D01*
X2944851D01*
Y1502565D01*
D02*
G37*
G36*
X2861215Y1501298D02*
X2860581D01*
Y1500664D01*
X2861215D01*
Y1501298D01*
D02*
G37*
G36*
X2855512Y1500031D02*
X2854878D01*
Y1499397D01*
X2855512D01*
Y1500031D01*
D02*
G37*
G36*
X2858680Y1491794D02*
X2858046D01*
Y1491160D01*
X2858680D01*
Y1491794D01*
D02*
G37*
G36*
X2853611Y1484824D02*
X2852978D01*
Y1484190D01*
X2853611D01*
Y1484824D01*
D02*
G37*
G36*
X546353Y98059D02*
X540449D01*
X540187Y97403D01*
X539892Y96813D01*
X539564Y96223D01*
X539203Y95632D01*
X538842Y95107D01*
X538448Y94615D01*
X538055Y94156D01*
X537694Y93730D01*
X537333Y93336D01*
X536972Y93008D01*
X536677Y92713D01*
X536415Y92451D01*
X536185Y92254D01*
X535988Y92123D01*
X535890Y92024D01*
X535857Y91991D01*
X535234Y91532D01*
X534644Y91106D01*
X534053Y90712D01*
X533496Y90351D01*
X532971Y90023D01*
X532446Y89728D01*
X531987Y89499D01*
X531560Y89269D01*
X531134Y89072D01*
X530806Y88908D01*
X530478Y88777D01*
X530216Y88679D01*
X530019Y88580D01*
X529855Y88515D01*
X529756Y88482D01*
X529724D01*
D01*
Y81889D01*
X530708Y82250D01*
X531659Y82643D01*
X532577Y83037D01*
X533463Y83496D01*
X534283Y83955D01*
X535070Y84415D01*
X535759Y84841D01*
X536448Y85300D01*
X537038Y85727D01*
X537563Y86087D01*
X538022Y86448D01*
X538383Y86776D01*
X538711Y87006D01*
X538908Y87203D01*
X539072Y87334D01*
X539104Y87367D01*
Y60077D01*
X529724D01*
D01*
X546353D01*
Y98059D01*
D02*
G37*
G36*
X581744D02*
X557177D01*
X569444D01*
X568428Y98027D01*
X567509Y97895D01*
X566624Y97699D01*
X565771Y97436D01*
X565016Y97141D01*
X564328Y96813D01*
X563672Y96485D01*
X563114Y96124D01*
X562589Y95731D01*
X562130Y95403D01*
X561769Y95075D01*
X561441Y94779D01*
X561212Y94517D01*
X561015Y94320D01*
X560916Y94189D01*
X560884Y94156D01*
X560556Y93697D01*
X560228Y93205D01*
X559670Y92155D01*
X559178Y91007D01*
X558752Y89761D01*
X558391Y88515D01*
X558096Y87235D01*
X557833Y85956D01*
X557636Y84710D01*
X557472Y83529D01*
X557374Y82414D01*
X557276Y81397D01*
Y80938D01*
X557243Y80511D01*
X557210Y80151D01*
Y79790D01*
X557177Y79495D01*
Y77756D01*
X557210Y76805D01*
X557276Y75887D01*
X557308Y75001D01*
X557407Y74148D01*
X557505Y73328D01*
X557604Y72574D01*
X557702Y71819D01*
X557833Y71098D01*
X557964Y70442D01*
X558096Y69819D01*
X558260Y69195D01*
X558391Y68638D01*
X558555Y68113D01*
X558719Y67588D01*
X558883Y67129D01*
X559178Y66276D01*
X559473Y65555D01*
X559768Y64964D01*
X560031Y64472D01*
X560260Y64111D01*
X560424Y63849D01*
X560523Y63718D01*
X560556Y63652D01*
X561212Y62898D01*
X561900Y62242D01*
X562622Y61684D01*
X563376Y61192D01*
X564131Y60799D01*
X564852Y60471D01*
X565574Y60175D01*
X566263Y59946D01*
X566919Y59782D01*
X567509Y59651D01*
X568067Y59552D01*
X568526Y59487D01*
X568920Y59454D01*
X569215Y59421D01*
X569444D01*
X570461Y59454D01*
X571380Y59585D01*
X572298Y59782D01*
X573118Y60011D01*
X573872Y60307D01*
X574561Y60635D01*
X575217Y60995D01*
X575808Y61356D01*
X576300Y61717D01*
X576759Y62078D01*
X577120Y62406D01*
X577448Y62701D01*
X577677Y62931D01*
X577874Y63127D01*
X577972Y63259D01*
X578005Y63291D01*
X578333Y63751D01*
X578661Y64243D01*
X579252Y65292D01*
X579744Y66473D01*
X580170Y67687D01*
X580531Y68933D01*
X580826Y70245D01*
X581088Y71524D01*
X581285Y72771D01*
X581416Y73951D01*
X581548Y75067D01*
X581646Y76083D01*
Y76543D01*
X581679Y76969D01*
X581712Y77330D01*
Y77691D01*
X581744Y77986D01*
Y60471D01*
Y79691D01*
X581712Y80643D01*
X581646Y81561D01*
X581580Y82447D01*
X581515Y83299D01*
X581416Y84119D01*
X581285Y84907D01*
X581154Y85661D01*
X581023Y86383D01*
X580892Y87039D01*
X580728Y87695D01*
X580564Y88318D01*
X580236Y89433D01*
X579908Y90450D01*
X579547Y91335D01*
X579219Y92090D01*
X578891Y92713D01*
X578628Y93238D01*
X578366Y93631D01*
X578202Y93894D01*
X578071Y94058D01*
X578038Y94123D01*
X577448Y94812D01*
X576792Y95435D01*
X576103Y95960D01*
X575381Y96387D01*
X574692Y96780D01*
X573971Y97108D01*
X573249Y97371D01*
X572593Y97567D01*
X571937Y97731D01*
X571347Y97863D01*
X570822Y97928D01*
X570363Y97994D01*
X569969Y98027D01*
X569674Y98059D01*
X581744D01*
D01*
D02*
G37*
G36*
X689820Y97895D02*
X651871Y97895D01*
X666565D01*
X651871Y60077D01*
X659972D01*
X663088Y68671D01*
X678209D01*
X681489Y60077D01*
X668327Y60077D01*
X689820Y60077D01*
X674700Y97895D01*
X689820Y97895D01*
D01*
D02*
G37*
G36*
X651674Y97895D02*
X613724D01*
X628419D01*
X613724Y60077D01*
X621826D01*
X624942Y68671D01*
X640063D01*
X643343Y60077D01*
X651674D01*
X636553Y97895D01*
X651674D01*
D01*
D02*
G37*
G36*
X507485D02*
X491282D01*
Y60077D01*
X522967D01*
Y71032D01*
X522934Y71623D01*
X522901Y72213D01*
X522803Y72771D01*
X522672Y73295D01*
X522540Y73820D01*
X522376Y74279D01*
X522212Y74706D01*
X522048Y75132D01*
X521852Y75493D01*
X521688Y75788D01*
X521524Y76083D01*
X521392Y76313D01*
X521261Y76510D01*
X521163Y76641D01*
X521130Y76707D01*
X521097Y76739D01*
X520736Y77166D01*
X520343Y77592D01*
X519490Y78314D01*
X518604Y78904D01*
X517752Y79363D01*
X517358Y79560D01*
X516997Y79724D01*
X516636Y79888D01*
X516341Y79987D01*
X516112Y80085D01*
X515948Y80151D01*
X515816Y80183D01*
X515784D01*
X516669Y80643D01*
X517424Y81167D01*
X518080Y81692D01*
X518637Y82250D01*
X519064Y82742D01*
X519392Y83135D01*
X519523Y83299D01*
X519588Y83398D01*
X519654Y83463D01*
Y83496D01*
X519916Y83923D01*
X520146Y84349D01*
X520474Y85202D01*
X520736Y86022D01*
X520933Y86776D01*
X520966Y87104D01*
X521032Y87432D01*
X521064Y87695D01*
Y87924D01*
X521097Y88121D01*
Y88252D01*
Y88351D01*
Y88383D01*
X521032Y89269D01*
X520900Y90089D01*
X520736Y90843D01*
X520507Y91499D01*
X520408Y91762D01*
X520277Y92024D01*
X520179Y92254D01*
X520113Y92451D01*
X520015Y92582D01*
X519982Y92680D01*
X519916Y92746D01*
Y92779D01*
X519457Y93467D01*
X518998Y94091D01*
X518506Y94648D01*
X518047Y95107D01*
X517653Y95435D01*
X517325Y95698D01*
X517194Y95796D01*
X517096Y95862D01*
X517063Y95927D01*
X517030D01*
X516374Y96354D01*
X515685Y96682D01*
X514996Y96944D01*
X514406Y97174D01*
X513848Y97338D01*
X513619Y97371D01*
X513422Y97436D01*
X513291Y97469D01*
X513160D01*
X513094Y97502D01*
X513061D01*
X512635Y97567D01*
X512143Y97633D01*
X511618Y97699D01*
X511093Y97731D01*
X509978Y97797D01*
X508896Y97863D01*
X507912D01*
X507485Y97895D01*
D02*
G37*
G36*
X599063Y98059D02*
X598833D01*
X597816Y98027D01*
X596898Y97895D01*
X596012Y97699D01*
X595160Y97436D01*
X594405Y97141D01*
X593716Y96813D01*
X593060Y96485D01*
X592503Y96124D01*
X591978Y95731D01*
X591519Y95403D01*
X591158Y95075D01*
X590830Y94779D01*
X590600Y94517D01*
X590404Y94320D01*
X590305Y94189D01*
X590272Y94156D01*
X589944Y93697D01*
X589616Y93205D01*
X589059Y92155D01*
X588567Y91007D01*
X588140Y89761D01*
X587780Y88515D01*
X587484Y87235D01*
X587222Y85956D01*
X587025Y84710D01*
X586861Y83529D01*
X586763Y82414D01*
X586664Y81397D01*
Y80938D01*
X586632Y80511D01*
X586599Y80151D01*
Y79790D01*
X586566Y79495D01*
Y77756D01*
X586599Y76805D01*
X586664Y75887D01*
X586697Y75001D01*
X586796Y74148D01*
X586894Y73328D01*
X586992Y72574D01*
X587091Y71819D01*
X587222Y71098D01*
X587353Y70442D01*
X587484Y69819D01*
X587648Y69195D01*
X587780Y68638D01*
X587944Y68113D01*
X588108Y67588D01*
X588272Y67129D01*
X588567Y66276D01*
X588862Y65555D01*
X589157Y64964D01*
X589420Y64472D01*
X589649Y64111D01*
X589813Y63849D01*
X589912Y63718D01*
X589944Y63652D01*
X590600Y62898D01*
X591289Y62242D01*
X592011Y61684D01*
X592765Y61192D01*
X593520Y60799D01*
X594241Y60471D01*
X594963Y60175D01*
X595652Y59946D01*
X596308Y59782D01*
X596898Y59651D01*
X597456Y59552D01*
X597915Y59487D01*
X598308Y59454D01*
X598604Y59421D01*
X586566D01*
D01*
X611133D01*
Y79691D01*
X611100Y80643D01*
X611035Y81561D01*
X610969Y82447D01*
X610904Y83299D01*
X610805Y84119D01*
X610674Y84907D01*
X610543Y85661D01*
X610412Y86383D01*
X610280Y87039D01*
X610116Y87695D01*
X609952Y88318D01*
X609624Y89433D01*
X609296Y90450D01*
X608936Y91335D01*
X608608Y92090D01*
X608280Y92713D01*
X608017Y93238D01*
X607755Y93631D01*
X607591Y93894D01*
X607460Y94058D01*
X607427Y94123D01*
X606836Y94812D01*
X606180Y95435D01*
X605492Y95960D01*
X604770Y96387D01*
X604081Y96780D01*
X603360Y97108D01*
X602638Y97371D01*
X601982Y97567D01*
X601326Y97731D01*
X600736Y97863D01*
X600211Y97928D01*
X599752Y97994D01*
X599358Y98027D01*
X599063Y98059D01*
D02*
G37*
%LPD*%
G36*
X569936Y92024D02*
X570363Y91926D01*
X570756Y91795D01*
X571117Y91631D01*
X571380Y91467D01*
X571609Y91335D01*
X571740Y91237D01*
X571773Y91204D01*
X571970Y91040D01*
X572134Y90811D01*
X572495Y90319D01*
X572790Y89761D01*
X573020Y89203D01*
X573216Y88679D01*
X573282Y88449D01*
X573348Y88252D01*
X573413Y88088D01*
X573446Y87957D01*
X573479Y87891D01*
Y87859D01*
X573610Y87334D01*
X573708Y86743D01*
X573807Y86087D01*
X573872Y85366D01*
X573938Y84644D01*
X574004Y83857D01*
X574069Y82348D01*
X574102Y81627D01*
X574135Y80938D01*
Y80315D01*
X574168Y79790D01*
Y79331D01*
Y79003D01*
Y78871D01*
Y78773D01*
Y78740D01*
Y78707D01*
Y77494D01*
X574135Y76379D01*
X574102Y75362D01*
X574036Y74411D01*
X574004Y73558D01*
X573938Y72803D01*
X573872Y72115D01*
X573807Y71491D01*
X573708Y70967D01*
X573643Y70507D01*
X573577Y70114D01*
X573544Y69786D01*
X573479Y69556D01*
X573446Y69392D01*
X573413Y69294D01*
Y69261D01*
X573184Y68507D01*
X572921Y67883D01*
X572626Y67359D01*
X572364Y66932D01*
X572134Y66637D01*
X571937Y66407D01*
X571806Y66276D01*
X571773Y66243D01*
X571380Y65981D01*
X570986Y65784D01*
X570592Y65620D01*
X570232Y65522D01*
X569904Y65456D01*
X569674Y65423D01*
X569444D01*
X568952Y65456D01*
X568526Y65555D01*
X568132Y65686D01*
X567804Y65850D01*
X567509Y65981D01*
X567312Y66112D01*
X567148Y66211D01*
X567116Y66243D01*
X566919Y66407D01*
X566755Y66637D01*
X566427Y67096D01*
X566132Y67654D01*
X565869Y68211D01*
X565672Y68736D01*
X565607Y68966D01*
X565541Y69163D01*
X565476Y69327D01*
X565443Y69458D01*
X565410Y69523D01*
Y69556D01*
X565312Y70081D01*
X565180Y70671D01*
X565115Y71327D01*
X565016Y72049D01*
X564984Y72771D01*
X564918Y73558D01*
X564852Y75067D01*
X564820Y75788D01*
X564787Y76477D01*
Y77100D01*
X564754Y77625D01*
Y78084D01*
Y78412D01*
Y78543D01*
Y78642D01*
Y78675D01*
Y78707D01*
Y79921D01*
X564787Y81036D01*
X564820Y82053D01*
X564852Y83004D01*
X564918Y83857D01*
X564984Y84644D01*
X565049Y85333D01*
X565115Y85956D01*
X565180Y86481D01*
X565246Y86940D01*
X565312Y87334D01*
X565377Y87629D01*
X565410Y87891D01*
X565443Y88055D01*
X565476Y88154D01*
Y88187D01*
X565705Y88941D01*
X565968Y89564D01*
X566230Y90089D01*
X566492Y90515D01*
X566722Y90811D01*
X566919Y91040D01*
X567050Y91171D01*
X567083Y91204D01*
X567476Y91499D01*
X567903Y91696D01*
X568296Y91860D01*
X568657Y91959D01*
X568985Y92024D01*
X569215Y92057D01*
X569444D01*
X569936Y92024D01*
D02*
G37*
G36*
X675749Y75067D02*
X665417D01*
X670534Y89072D01*
X675749Y75067D01*
D02*
G37*
G36*
X637603D02*
X627271D01*
X632388Y89072D01*
X637603Y75067D01*
D02*
G37*
G36*
X506567Y91565D02*
X507715D01*
X508174Y91532D01*
X508896D01*
X509158Y91499D01*
X509552D01*
X509683Y91467D01*
X509814D01*
X510470Y91335D01*
X511060Y91171D01*
X511552Y90942D01*
X511946Y90712D01*
X512274Y90483D01*
X512504Y90286D01*
X512635Y90187D01*
X512668Y90122D01*
X512996Y89695D01*
X513225Y89236D01*
X513422Y88744D01*
X513520Y88285D01*
X513586Y87891D01*
X513652Y87563D01*
Y87432D01*
Y87334D01*
Y87301D01*
Y87268D01*
X513619Y86612D01*
X513488Y86055D01*
X513291Y85530D01*
X513094Y85103D01*
X512864Y84775D01*
X512700Y84513D01*
X512569Y84382D01*
X512504Y84316D01*
X512044Y83955D01*
X511552Y83627D01*
X511060Y83398D01*
X510568Y83234D01*
X510109Y83103D01*
X509781Y83037D01*
X509650Y83004D01*
X509552Y82971D01*
X509224D01*
X508896Y82939D01*
X508535D01*
X508141Y82906D01*
X507223D01*
X506272Y82873D01*
X498924D01*
Y91598D01*
X505878D01*
X506567Y91565D01*
D02*
G37*
G36*
X506895Y76543D02*
X507649Y76510D01*
X508338Y76477D01*
X508961Y76444D01*
X509519Y76411D01*
X510011Y76346D01*
X510437Y76313D01*
X510798Y76247D01*
X511093Y76182D01*
X511323Y76149D01*
X511520Y76116D01*
X511684Y76083D01*
X511782Y76051D01*
X511815Y76018D01*
X511848D01*
X512405Y75788D01*
X512897Y75526D01*
X513291Y75231D01*
X513652Y74968D01*
X513914Y74706D01*
X514078Y74476D01*
X514209Y74345D01*
X514242Y74279D01*
X514537Y73820D01*
X514734Y73328D01*
X514898Y72836D01*
X514996Y72410D01*
X515062Y71983D01*
X515095Y71688D01*
Y71557D01*
Y71459D01*
Y71426D01*
Y71393D01*
X515062Y70671D01*
X514931Y70048D01*
X514767Y69491D01*
X514570Y69031D01*
X514340Y68671D01*
X514176Y68408D01*
X514045Y68244D01*
X514012Y68179D01*
X513586Y67785D01*
X513127Y67457D01*
X512668Y67195D01*
X512208Y66998D01*
X511815Y66867D01*
X511520Y66768D01*
X511388Y66735D01*
X511290Y66703D01*
X511224D01*
X510995Y66670D01*
X510667Y66637D01*
X510339Y66604D01*
X509945Y66571D01*
X509060Y66539D01*
X508174Y66506D01*
X507748D01*
X507354Y66473D01*
X498924D01*
Y76575D01*
X506042D01*
X506895Y76543D01*
D02*
G37*
G36*
X522967Y60077D02*
X505452D01*
X506632Y60110D01*
X507715D01*
X508666Y60143D01*
X509519D01*
X510273Y60175D01*
X510929D01*
X511487Y60208D01*
X511979Y60241D01*
X512372D01*
X512700Y60274D01*
X513127D01*
X513258Y60307D01*
X513356D01*
X514439Y60503D01*
X515456Y60733D01*
X516308Y61028D01*
X516702Y61192D01*
X517063Y61356D01*
X517391Y61487D01*
X517653Y61651D01*
X517916Y61750D01*
X518112Y61881D01*
X518276Y61979D01*
X518375Y62045D01*
X518440Y62111D01*
X518473D01*
X519195Y62701D01*
X519851Y63357D01*
X520408Y63980D01*
X520900Y64603D01*
X521261Y65161D01*
X521425Y65391D01*
X521524Y65620D01*
X521622Y65784D01*
X521688Y65915D01*
X521753Y65981D01*
Y66014D01*
X522147Y66932D01*
X522442Y67818D01*
X522672Y68671D01*
X522803Y69425D01*
X522868Y69786D01*
X522901Y70081D01*
X522934Y70343D01*
Y70606D01*
X522967Y70770D01*
Y60077D01*
D02*
G37*
G36*
X599325Y92024D02*
X599752Y91926D01*
X600145Y91795D01*
X600506Y91631D01*
X600768Y91467D01*
X600998Y91335D01*
X601129Y91237D01*
X601162Y91204D01*
X601359Y91040D01*
X601523Y90811D01*
X601884Y90319D01*
X602179Y89761D01*
X602408Y89203D01*
X602605Y88679D01*
X602671Y88449D01*
X602736Y88252D01*
X602802Y88088D01*
X602835Y87957D01*
X602868Y87891D01*
Y87859D01*
X602999Y87334D01*
X603097Y86743D01*
X603196Y86087D01*
X603261Y85366D01*
X603327Y84644D01*
X603392Y83857D01*
X603458Y82348D01*
X603491Y81627D01*
X603524Y80938D01*
Y80315D01*
X603556Y79790D01*
Y79331D01*
Y79003D01*
Y78871D01*
Y78773D01*
Y78740D01*
Y78707D01*
Y77494D01*
X603524Y76379D01*
X603491Y75362D01*
X603425Y74411D01*
X603392Y73558D01*
X603327Y72803D01*
X603261Y72115D01*
X603196Y71491D01*
X603097Y70967D01*
X603032Y70507D01*
X602966Y70114D01*
X602933Y69786D01*
X602868Y69556D01*
X602835Y69392D01*
X602802Y69294D01*
Y69261D01*
X602572Y68507D01*
X602310Y67883D01*
X602015Y67359D01*
X601752Y66932D01*
X601523Y66637D01*
X601326Y66407D01*
X601195Y66276D01*
X601162Y66243D01*
X600768Y65981D01*
X600375Y65784D01*
X599981Y65620D01*
X599620Y65522D01*
X599292Y65456D01*
X599063Y65423D01*
X598833D01*
X598341Y65456D01*
X597915Y65555D01*
X597521Y65686D01*
X597193Y65850D01*
X596898Y65981D01*
X596701Y66112D01*
X596537Y66211D01*
X596504Y66243D01*
X596308Y66407D01*
X596144Y66637D01*
X595816Y67096D01*
X595520Y67654D01*
X595258Y68211D01*
X595061Y68736D01*
X594996Y68966D01*
X594930Y69163D01*
X594864Y69327D01*
X594832Y69458D01*
X594799Y69523D01*
Y69556D01*
X594700Y70081D01*
X594569Y70671D01*
X594504Y71327D01*
X594405Y72049D01*
X594372Y72771D01*
X594307Y73558D01*
X594241Y75067D01*
X594208Y75788D01*
X594176Y76477D01*
Y77100D01*
X594143Y77625D01*
Y78084D01*
Y78412D01*
Y78543D01*
Y78642D01*
Y78675D01*
Y78707D01*
Y79921D01*
X594176Y81036D01*
X594208Y82053D01*
X594241Y83004D01*
X594307Y83857D01*
X594372Y84644D01*
X594438Y85333D01*
X594504Y85956D01*
X594569Y86481D01*
X594635Y86940D01*
X594700Y87334D01*
X594766Y87629D01*
X594799Y87891D01*
X594832Y88055D01*
X594864Y88154D01*
Y88187D01*
X595094Y88941D01*
X595356Y89564D01*
X595619Y90089D01*
X595881Y90515D01*
X596111Y90811D01*
X596308Y91040D01*
X596439Y91171D01*
X596472Y91204D01*
X596865Y91499D01*
X597292Y91696D01*
X597685Y91860D01*
X598046Y91959D01*
X598374Y92024D01*
X598604Y92057D01*
X598833D01*
X599325Y92024D01*
D02*
G37*
G36*
X611133Y59421D02*
X598833D01*
X599850Y59454D01*
X600768Y59585D01*
X601687Y59782D01*
X602507Y60011D01*
X603261Y60307D01*
X603950Y60635D01*
X604606Y60995D01*
X605196Y61356D01*
X605688Y61717D01*
X606148Y62078D01*
X606508Y62406D01*
X606836Y62701D01*
X607066Y62931D01*
X607263Y63127D01*
X607361Y63259D01*
X607394Y63291D01*
X607722Y63751D01*
X608050Y64243D01*
X608640Y65292D01*
X609132Y66473D01*
X609559Y67687D01*
X609920Y68933D01*
X610215Y70245D01*
X610477Y71524D01*
X610674Y72771D01*
X610805Y73951D01*
X610936Y75067D01*
X611035Y76083D01*
Y76543D01*
X611068Y76969D01*
X611100Y77330D01*
Y77691D01*
X611133Y77986D01*
Y59421D01*
D02*
G37*
%LPC*%
G36*
X2778813Y1560126D02*
X2778353D01*
X2778091Y1560061D01*
X2777304Y1559864D01*
X2776517Y1559470D01*
X2776451Y1559405D01*
X2776320Y1559339D01*
X2776254D01*
X2776189Y1559274D01*
X2776123D01*
X2776057Y1559142D01*
X2775729Y1558814D01*
X2775270Y1558355D01*
X2774877Y1557765D01*
X2774811D01*
X2743454Y1503448D01*
X2743520D01*
X2743454Y1503382D01*
Y1503317D01*
X2743323Y1503120D01*
X2743257Y1502923D01*
X2743192Y1502792D01*
Y1502726D01*
X2743126Y1502530D01*
X2743061Y1502333D01*
X2742995Y1502136D01*
Y1502070D01*
X2742929Y1501874D01*
Y1501546D01*
Y1501086D01*
Y1500627D01*
X2743061Y1500037D01*
X2743257Y1499512D01*
X2743520Y1498922D01*
Y1498856D01*
X2743651Y1498725D01*
X2743913Y1498397D01*
Y1498331D01*
X2744045Y1498266D01*
X2744176Y1498069D01*
X2744373Y1497872D01*
X2744438Y1497806D01*
X2744569Y1497675D01*
X2744897Y1497478D01*
X2745225Y1497282D01*
X2745685Y1497019D01*
X2746209Y1496822D01*
X2746865Y1496691D01*
X2747521Y1496626D01*
X2810169D01*
X2810235Y1496691D01*
X2810957D01*
X2811088Y1496757D01*
X2811416Y1496822D01*
X2811547Y1496888D01*
X2811613D01*
X2811809Y1497019D01*
X2812137Y1497150D01*
X2812465Y1497347D01*
X2812925Y1497610D01*
X2813318Y1497938D01*
X2813712Y1498397D01*
X2814105Y1498922D01*
Y1498987D01*
X2814237Y1499118D01*
X2814302Y1499315D01*
X2814433Y1499643D01*
X2814630Y1500365D01*
X2814761Y1501218D01*
Y1501283D01*
Y1501349D01*
X2814696Y1501611D01*
Y1501677D01*
Y1501808D01*
X2814630Y1502005D01*
Y1502202D01*
X2814433Y1502858D01*
X2814105Y1503514D01*
Y1503579D01*
X2782749Y1557830D01*
X2782683Y1557896D01*
X2782617Y1558027D01*
X2782355Y1558355D01*
Y1558421D01*
X2782224Y1558486D01*
X2782093Y1558683D01*
X2781896Y1558880D01*
X2781830Y1558946D01*
X2781633Y1559077D01*
X2781371Y1559274D01*
X2781043Y1559470D01*
X2780584Y1559667D01*
X2780059Y1559864D01*
X2779469Y1559995D01*
X2778813Y1560061D01*
Y1560126D01*
D02*
G37*
%LPD*%
G36*
X2769760Y1522800D02*
X2790358Y1533493D01*
X2777829Y1507450D01*
X2782355Y1508565D01*
X2774877Y1499774D01*
X2773105Y1510270D01*
X2776582Y1507581D01*
X2781437Y1526342D01*
X2765627Y1518536D01*
X2775729Y1553698D01*
X2783208Y1553960D01*
X2769760Y1522800D01*
D02*
G37*
%LPC*%
G36*
X2677133Y1560126D02*
X2676673D01*
X2676411Y1560061D01*
X2675689Y1559864D01*
X2674837Y1559470D01*
X2674771D01*
X2674705Y1559405D01*
X2674574Y1559339D01*
X2674509Y1559274D01*
X2674443D01*
X2674377Y1559142D01*
X2674049Y1558814D01*
X2673590Y1558355D01*
X2673197Y1557765D01*
X2658371Y1532181D01*
X2663225Y1529360D01*
X2663291Y1529491D01*
X2663619Y1529754D01*
X2664078Y1530213D01*
X2664734Y1530803D01*
X2664800D01*
X2664865Y1530869D01*
X2665259Y1531131D01*
X2665784Y1531525D01*
X2666571Y1532050D01*
X2666637D01*
X2666702Y1532115D01*
X2667030Y1532312D01*
X2667096Y1532378D01*
X2667227Y1532443D01*
X2667621Y1532706D01*
X2667686Y1532771D01*
X2667817Y1532837D01*
X2668277Y1533099D01*
X2668736Y1533427D01*
X2668998Y1533558D01*
X2669129Y1533624D01*
X2669195D01*
X2669261Y1533690D01*
X2669589Y1533952D01*
X2670179Y1534346D01*
X2670835Y1534805D01*
X2671622Y1535330D01*
X2672541Y1535789D01*
X2673393Y1536248D01*
X2674246Y1536576D01*
X2674377Y1536642D01*
X2674705Y1536707D01*
X2675165Y1536838D01*
X2675821Y1536970D01*
X2676673Y1537101D01*
X2677592Y1537166D01*
X2678641Y1537232D01*
X2680281D01*
X2680609Y1537166D01*
X2681790D01*
X2682118Y1537101D01*
X2683037D01*
X2683627Y1537035D01*
X2685201D01*
X2685529Y1537101D01*
X2685923D01*
X2686448Y1537166D01*
X2687038Y1537298D01*
X2688153Y1537691D01*
X2691827Y1539200D01*
X2681069Y1557830D01*
Y1557896D01*
X2680937Y1558027D01*
X2680675Y1558355D01*
X2680609Y1558421D01*
X2680544Y1558552D01*
X2680216Y1558880D01*
X2680150Y1558946D01*
X2679953Y1559077D01*
X2679691Y1559274D01*
X2679363Y1559470D01*
X2678904Y1559667D01*
X2678379Y1559864D01*
X2677789Y1559995D01*
X2677133Y1560061D01*
Y1560126D01*
D02*
G37*
G36*
X2692417Y1538150D02*
X2688613Y1536576D01*
X2688547D01*
X2688350Y1536445D01*
X2687957Y1536314D01*
X2687497Y1536182D01*
X2686973Y1536051D01*
X2686382Y1535920D01*
X2685005Y1535789D01*
X2683889D01*
X2683299Y1535854D01*
X2682709D01*
X2681397Y1535920D01*
X2680872D01*
X2680544Y1535986D01*
X2677985D01*
X2677198Y1535920D01*
X2676345Y1535789D01*
X2675493Y1535658D01*
X2674640Y1535395D01*
X2674574D01*
X2674246Y1535264D01*
X2673853Y1535067D01*
X2673262Y1534805D01*
X2672541Y1534411D01*
X2671753Y1533952D01*
X2670835Y1533362D01*
X2669851Y1532706D01*
X2669785Y1532640D01*
X2669457Y1532443D01*
X2668933Y1532115D01*
X2668211Y1531656D01*
X2668145D01*
X2668014Y1531525D01*
X2667686Y1531328D01*
X2667227Y1531066D01*
X2667161D01*
X2667096Y1531000D01*
X2666702Y1530738D01*
X2666112Y1530344D01*
X2665456Y1529819D01*
X2665325Y1529754D01*
X2665062Y1529491D01*
X2664734Y1529163D01*
X2664275Y1528770D01*
X2687957Y1515059D01*
X2688088Y1515125D01*
X2688350Y1515190D01*
X2688809Y1515387D01*
X2689465Y1515715D01*
X2690187Y1516240D01*
X2691105Y1516830D01*
X2692089Y1517683D01*
X2693139Y1518733D01*
X2693205Y1518798D01*
X2693401Y1518995D01*
X2693664Y1519258D01*
X2693992Y1519586D01*
X2694057Y1519651D01*
X2694189Y1519848D01*
X2694517Y1520307D01*
X2694582Y1520438D01*
X2694648Y1520570D01*
X2694779Y1520766D01*
X2694910Y1521029D01*
X2695107Y1521422D01*
X2695304Y1521882D01*
X2695501Y1522406D01*
Y1522472D01*
X2695566Y1522669D01*
X2695697Y1522931D01*
X2695829Y1523259D01*
X2696157Y1523981D01*
X2696485Y1524702D01*
Y1524768D01*
X2696616Y1524899D01*
X2696747Y1525096D01*
X2696878Y1525358D01*
X2697337Y1525949D01*
X2697862Y1526539D01*
X2697928Y1526605D01*
X2698125Y1526802D01*
X2698387Y1527064D01*
X2698715Y1527261D01*
X2692417Y1538150D01*
D02*
G37*
G36*
X2675427Y1518077D02*
Y1518011D01*
X2675361Y1517749D01*
Y1517486D01*
Y1517224D01*
Y1517158D01*
Y1516896D01*
X2675427Y1516568D01*
X2675558Y1516240D01*
X2675624Y1516109D01*
X2675689Y1515978D01*
X2675755Y1515846D01*
X2675886Y1515518D01*
X2676083Y1515125D01*
X2676345Y1514797D01*
X2676411Y1514862D01*
X2676542Y1514994D01*
X2676739Y1515125D01*
X2677067Y1515387D01*
X2677723Y1515846D01*
X2678379Y1516371D01*
X2675427Y1518077D01*
D02*
G37*
G36*
X2672213Y1519914D02*
X2672147Y1519848D01*
X2672016Y1519651D01*
X2671885Y1519389D01*
X2671753Y1518995D01*
Y1518864D01*
X2671688Y1518602D01*
X2671622Y1518274D01*
Y1517814D01*
Y1517749D01*
Y1517486D01*
Y1517224D01*
Y1516830D01*
Y1516502D01*
Y1516174D01*
Y1515912D01*
Y1515846D01*
Y1515781D01*
Y1515650D01*
Y1515256D01*
X2671688Y1514666D01*
X2671819Y1514141D01*
Y1514010D01*
X2671885Y1513878D01*
X2671950Y1513682D01*
Y1513616D01*
X2672016Y1513485D01*
X2672147Y1513222D01*
X2672213Y1513091D01*
X2672344Y1512763D01*
X2672606Y1512238D01*
X2673000Y1511582D01*
X2673065Y1511648D01*
X2673197Y1511845D01*
X2673262Y1511910D01*
X2673393Y1512107D01*
X2673459Y1512173D01*
X2673525Y1512304D01*
X2673721Y1512501D01*
X2673984Y1512698D01*
X2674640Y1513354D01*
X2675361Y1514010D01*
X2675296Y1514075D01*
X2675165Y1514403D01*
X2674902Y1514862D01*
X2674574Y1515518D01*
Y1515584D01*
X2674509Y1515650D01*
X2674443Y1515781D01*
X2674377Y1515912D01*
X2674312Y1516174D01*
X2674181Y1516634D01*
X2674115Y1517224D01*
Y1517290D01*
Y1517355D01*
X2674181Y1517683D01*
X2674246Y1518142D01*
X2674377Y1518733D01*
X2672213Y1519914D01*
D02*
G37*
G36*
X2669392Y1521619D02*
Y1521554D01*
X2669326Y1521488D01*
X2669261Y1521291D01*
X2669195Y1521029D01*
X2668867Y1520373D01*
X2668605Y1519914D01*
X2668277Y1519454D01*
Y1519389D01*
X2668145Y1519323D01*
X2667949Y1518930D01*
X2667686Y1518405D01*
X2667489Y1517946D01*
Y1517814D01*
Y1517683D01*
X2667555Y1517421D01*
X2667621Y1517093D01*
X2667686Y1516699D01*
X2667817Y1516174D01*
X2668014Y1515518D01*
Y1515453D01*
X2668145Y1515190D01*
X2668211Y1514862D01*
X2668342Y1514403D01*
X2668473Y1513550D01*
X2668539Y1513157D01*
X2668473Y1512829D01*
Y1512763D01*
X2668408Y1512632D01*
Y1512435D01*
X2668342Y1512107D01*
Y1511386D01*
Y1510533D01*
Y1510402D01*
Y1510270D01*
X2668408Y1510205D01*
Y1510139D01*
X2668473D01*
X2668605Y1510074D01*
X2668736Y1510008D01*
X2668801Y1509942D01*
X2668736D01*
X2668801Y1509877D01*
X2668867Y1509811D01*
X2669064Y1509746D01*
X2669129Y1509680D01*
X2669261Y1509614D01*
X2669457Y1509483D01*
X2669523Y1509352D01*
Y1509286D01*
X2669654Y1509221D01*
X2669917Y1509024D01*
X2670245Y1508827D01*
X2670310Y1508762D01*
X2670507Y1508696D01*
X2670769Y1508565D01*
X2670966Y1508434D01*
Y1508499D01*
X2671032Y1508630D01*
X2671163Y1508827D01*
X2671294Y1509090D01*
X2671688Y1509746D01*
X2672213Y1510598D01*
Y1510664D01*
X2672081Y1510795D01*
X2671950Y1510992D01*
X2671819Y1511254D01*
X2671425Y1511910D01*
X2671032Y1512698D01*
X2670966Y1512829D01*
X2670901Y1513026D01*
X2670769Y1513222D01*
Y1513288D01*
Y1513354D01*
X2670704Y1513485D01*
X2670573Y1513813D01*
Y1513878D01*
Y1514010D01*
X2670507Y1514338D01*
X2670441Y1514600D01*
Y1514928D01*
X2670376Y1515387D01*
Y1515846D01*
Y1515912D01*
Y1516109D01*
Y1516437D01*
Y1516765D01*
Y1516830D01*
Y1517093D01*
Y1517421D01*
Y1517814D01*
Y1517880D01*
Y1517946D01*
Y1518339D01*
X2670441Y1518798D01*
X2670573Y1519323D01*
Y1519389D01*
X2670638Y1519454D01*
X2670704Y1519782D01*
X2670901Y1520176D01*
X2671163Y1520570D01*
X2669392Y1521619D01*
D02*
G37*
G36*
X2682840Y1510664D02*
X2682774D01*
X2682709Y1510598D01*
X2682315Y1510336D01*
X2681921Y1510074D01*
X2681528Y1509811D01*
X2681397Y1509680D01*
X2681134Y1509418D01*
X2680675Y1508893D01*
X2680281Y1508171D01*
X2680216Y1508106D01*
X2680150Y1507974D01*
Y1507909D01*
X2680085Y1507843D01*
X2680150Y1507778D01*
X2680347Y1507712D01*
X2680609Y1507581D01*
X2680937Y1507450D01*
X2681003D01*
X2681134Y1507384D01*
X2681331Y1507318D01*
X2681593D01*
X2682315Y1507187D01*
X2683168Y1507122D01*
X2683299D01*
X2683693Y1507187D01*
X2684086Y1507318D01*
X2684283Y1507384D01*
X2684414Y1507450D01*
Y1507515D01*
Y1507581D01*
X2684480Y1507646D01*
X2684545Y1507974D01*
X2684611Y1508302D01*
X2684677Y1508565D01*
Y1508630D01*
Y1508762D01*
X2684611Y1508958D01*
X2684480Y1509221D01*
X2684414Y1509286D01*
X2684283D01*
Y1509352D01*
X2684217Y1509418D01*
X2684086Y1509549D01*
X2683693Y1510008D01*
X2683233Y1510467D01*
X2683037Y1510598D01*
X2682840Y1510664D01*
D02*
G37*
G36*
X2679560Y1515715D02*
X2679494Y1515650D01*
X2679363Y1515584D01*
X2679101Y1515387D01*
X2678838Y1515190D01*
X2678445Y1514862D01*
X2677985Y1514534D01*
X2677001Y1513747D01*
X2676936Y1513682D01*
X2676739Y1513550D01*
X2676477Y1513354D01*
X2676149Y1513026D01*
X2675230Y1512238D01*
X2674312Y1511254D01*
X2674181Y1511123D01*
X2673853Y1510730D01*
X2673459Y1510139D01*
X2672934Y1509418D01*
X2672409Y1508565D01*
X2672016Y1507581D01*
X2671688Y1506597D01*
X2671557Y1505547D01*
X2671622Y1505613D01*
X2671688Y1505810D01*
X2671753Y1506006D01*
X2671885Y1506138D01*
X2671950D01*
X2672016Y1506269D01*
X2672344Y1506531D01*
X2672869Y1506859D01*
X2673525Y1507122D01*
X2673590D01*
X2673721Y1507187D01*
X2673853Y1507253D01*
X2674115D01*
X2674181Y1507318D01*
X2674377D01*
X2674574Y1507384D01*
X2674640D01*
X2674837Y1507450D01*
X2675099D01*
X2675427Y1507515D01*
X2676214Y1507581D01*
X2677001Y1507515D01*
X2677067D01*
X2677198Y1507450D01*
X2677592Y1507384D01*
X2677657D01*
X2677854Y1507318D01*
X2678117Y1507253D01*
X2678510Y1507056D01*
Y1507122D01*
X2678576Y1507253D01*
X2678707Y1507581D01*
Y1507646D01*
X2678773Y1507909D01*
X2678904Y1508237D01*
X2679166Y1508696D01*
Y1508762D01*
X2679297Y1508893D01*
X2679429Y1509155D01*
X2679625Y1509483D01*
X2680150Y1510139D01*
X2680806Y1510795D01*
X2680872Y1510861D01*
X2681069Y1510992D01*
X2681265Y1511123D01*
X2681528Y1511254D01*
X2681856Y1511451D01*
X2682249Y1511714D01*
X2682315Y1511779D01*
X2682446Y1511845D01*
X2682709Y1512042D01*
X2682971Y1512238D01*
X2683561Y1512632D01*
X2683889Y1512894D01*
X2684086Y1513091D01*
X2679560Y1515715D01*
D02*
G37*
G36*
X2679691Y1506662D02*
X2679625Y1506531D01*
Y1506400D01*
X2679560Y1506138D01*
Y1506072D01*
X2679494Y1506006D01*
Y1505810D01*
X2679363Y1505547D01*
X2679101Y1504957D01*
X2678707Y1504170D01*
X2678773Y1504104D01*
X2679101Y1503907D01*
X2679494Y1503776D01*
X2680085Y1503645D01*
X2680216D01*
X2680478Y1503710D01*
X2680806Y1503842D01*
X2681134Y1504038D01*
X2681200Y1504104D01*
X2681265Y1504170D01*
X2681397Y1504366D01*
Y1504432D01*
X2681462Y1504563D01*
X2681528Y1504694D01*
Y1504760D01*
Y1504826D01*
Y1505154D01*
X2681397Y1505613D01*
X2681134Y1506138D01*
X2681069D01*
X2680937Y1506203D01*
X2680741Y1506269D01*
X2680544Y1506334D01*
X2680478Y1506400D01*
X2680216Y1506466D01*
X2679953Y1506531D01*
X2679691Y1506662D01*
D02*
G37*
G36*
X2661979Y1525883D02*
Y1525818D01*
X2661913Y1525686D01*
X2661848Y1525358D01*
X2661782Y1525030D01*
X2661585Y1524506D01*
X2661389Y1523981D01*
X2661061Y1523325D01*
X2660733Y1522603D01*
Y1522538D01*
X2660601Y1522341D01*
X2660470Y1522078D01*
X2660339Y1521750D01*
X2660077Y1521029D01*
X2659945Y1520701D01*
X2659880Y1520438D01*
Y1520373D01*
Y1520242D01*
X2659814Y1519979D01*
Y1519651D01*
X2659880Y1519192D01*
X2659945Y1518536D01*
X2660142Y1517814D01*
X2660339Y1516962D01*
X2660405Y1516830D01*
X2660470Y1516568D01*
X2660601Y1516174D01*
X2660667Y1515781D01*
Y1515715D01*
Y1515650D01*
X2660733Y1515518D01*
X2660798Y1515322D01*
X2660864Y1514994D01*
X2660929Y1514534D01*
X2660995Y1514010D01*
X2661126Y1513354D01*
X2661192Y1512632D01*
Y1512566D01*
X2661257Y1512370D01*
Y1512042D01*
X2661323Y1511648D01*
X2661454Y1510795D01*
X2661585Y1510336D01*
X2661651Y1509942D01*
Y1509877D01*
X2661717Y1509746D01*
X2661782Y1509549D01*
X2661913Y1509286D01*
X2662176Y1508630D01*
X2662504Y1507843D01*
Y1507778D01*
X2662569Y1507712D01*
X2662701Y1507318D01*
X2662897Y1506859D01*
X2663029Y1506466D01*
X2663094D01*
X2663225Y1506531D01*
X2663291D01*
X2663422Y1506597D01*
X2664144D01*
X2664406Y1506531D01*
X2664734Y1506400D01*
X2665128Y1506203D01*
X2665587Y1505875D01*
X2665981Y1505482D01*
X2666374Y1504957D01*
Y1504891D01*
X2666440Y1504760D01*
X2666571Y1504629D01*
X2666702Y1504498D01*
X2666768Y1504366D01*
X2666899Y1504104D01*
X2667096Y1503776D01*
X2667227Y1503382D01*
Y1503317D01*
X2667293Y1503186D01*
Y1502989D01*
Y1502726D01*
Y1502661D01*
Y1502530D01*
Y1502333D01*
X2667227Y1502202D01*
X2667293D01*
X2667358Y1502267D01*
X2667424Y1502333D01*
X2667489Y1502398D01*
X2667555Y1502464D01*
X2667621Y1502530D01*
X2668014Y1502923D01*
X2668408Y1503514D01*
X2668539Y1503842D01*
X2668605Y1504235D01*
Y1504301D01*
Y1504432D01*
X2668539Y1504629D01*
X2668473Y1505022D01*
X2668342Y1505547D01*
X2668211Y1506269D01*
X2667949Y1507187D01*
X2667621Y1508302D01*
Y1508434D01*
X2667555Y1508630D01*
X2667489Y1508827D01*
X2667424Y1509090D01*
X2667358Y1509221D01*
X2667293Y1509483D01*
X2667227Y1509811D01*
Y1509877D01*
X2667161Y1510074D01*
Y1510139D01*
Y1510205D01*
Y1510467D01*
Y1510533D01*
Y1510664D01*
Y1510926D01*
Y1511320D01*
Y1512107D01*
X2667358Y1513091D01*
Y1513157D01*
Y1513288D01*
Y1513485D01*
X2667293Y1513747D01*
X2667227Y1514075D01*
X2667096Y1514534D01*
X2666899Y1515059D01*
Y1515125D01*
X2666768Y1515387D01*
X2666702Y1515781D01*
X2666571Y1516240D01*
X2666374Y1517290D01*
X2666309Y1517749D01*
Y1518142D01*
Y1518208D01*
X2666374Y1518274D01*
X2666505Y1518667D01*
X2666768Y1519323D01*
X2667030Y1519717D01*
X2667293Y1520110D01*
X2667358Y1520176D01*
X2667424Y1520307D01*
X2667555Y1520570D01*
X2667752Y1520898D01*
X2668080Y1521554D01*
X2668145Y1521947D01*
X2668211Y1522275D01*
X2661979Y1525883D01*
D02*
G37*
G36*
X2676805Y1506990D02*
X2676214D01*
X2675886Y1506925D01*
X2675427D01*
X2674902Y1506859D01*
X2674443Y1506728D01*
X2674377D01*
X2674246Y1506662D01*
X2674049D01*
X2673984Y1506597D01*
X2673853Y1506531D01*
X2673656D01*
X2673590Y1506466D01*
X2673262Y1506334D01*
X2672803Y1506006D01*
X2672344Y1505678D01*
Y1505613D01*
X2672213Y1505482D01*
X2672081Y1505154D01*
X2671950Y1504891D01*
X2671819Y1504563D01*
Y1504498D01*
X2671753Y1504432D01*
X2671688Y1504235D01*
X2671622Y1503973D01*
Y1503907D01*
X2671688Y1503776D01*
X2671819Y1503382D01*
X2672016Y1502858D01*
X2672409Y1502333D01*
X2672475Y1502267D01*
X2672606Y1502202D01*
X2672869Y1502070D01*
X2673328Y1501939D01*
X2673853D01*
X2674312Y1502005D01*
X2674574D01*
X2674771Y1502070D01*
X2675033Y1502202D01*
X2675099D01*
X2675230Y1502267D01*
X2675427Y1502398D01*
X2675821Y1502595D01*
X2675952Y1502661D01*
X2676214Y1502989D01*
X2676411Y1503251D01*
X2676673Y1503514D01*
X2677001Y1503907D01*
X2677329Y1504366D01*
X2677395Y1504432D01*
X2677461Y1504563D01*
X2677657Y1504826D01*
X2677854Y1505088D01*
X2678182Y1505810D01*
X2678313Y1506138D01*
X2678379Y1506400D01*
X2678313Y1506466D01*
X2677985Y1506597D01*
X2677526Y1506794D01*
X2676805Y1506990D01*
D02*
G37*
G36*
X2663881Y1506006D02*
X2663750D01*
X2663357Y1505941D01*
X2663291D01*
X2663225Y1505875D01*
X2663357Y1505547D01*
X2663422Y1505416D01*
X2663488Y1505154D01*
X2663619Y1504760D01*
X2663816Y1504301D01*
X2664275Y1503251D01*
X2664537Y1502858D01*
X2664734Y1502530D01*
X2664865Y1502398D01*
X2665128Y1502202D01*
X2665521Y1501939D01*
X2665784Y1501874D01*
X2666046Y1501808D01*
X2666571D01*
X2666637Y1501874D01*
Y1501939D01*
Y1502070D01*
Y1502202D01*
Y1502267D01*
Y1502398D01*
Y1502726D01*
Y1502792D01*
Y1502923D01*
Y1503120D01*
Y1503186D01*
Y1503251D01*
X2666505Y1503448D01*
X2666374Y1503776D01*
X2666177Y1504104D01*
X2666112Y1504170D01*
X2665981Y1504366D01*
X2665915Y1504432D01*
X2665849Y1504694D01*
X2665784Y1504760D01*
X2665718Y1504891D01*
X2665325Y1505350D01*
X2664669Y1505810D01*
X2664275Y1505941D01*
X2663881Y1506006D01*
D02*
G37*
G36*
X2699371Y1526211D02*
X2699305D01*
X2699240Y1526146D01*
X2699109Y1526080D01*
X2698715Y1525686D01*
X2698649Y1525621D01*
X2698387Y1525293D01*
X2697993Y1524834D01*
X2697534Y1524112D01*
Y1524046D01*
X2697469Y1523915D01*
X2697403Y1523784D01*
X2697272Y1523587D01*
X2697141Y1523325D01*
X2697009Y1522997D01*
X2696813Y1522538D01*
X2696616Y1522013D01*
Y1521947D01*
X2696550Y1521750D01*
X2696419Y1521488D01*
X2696288Y1521160D01*
X2695960Y1520373D01*
X2695763Y1519979D01*
X2695566Y1519651D01*
X2695501Y1519586D01*
X2695369Y1519389D01*
X2695173Y1519126D01*
X2694910Y1518798D01*
X2694845Y1518733D01*
X2694582Y1518470D01*
X2694320Y1518142D01*
X2693992Y1517880D01*
X2693861Y1517749D01*
X2693533Y1517486D01*
X2693073Y1517027D01*
X2692417Y1516502D01*
X2691696Y1515846D01*
X2690909Y1515256D01*
X2690121Y1514731D01*
X2689269Y1514272D01*
X2713016Y1500562D01*
Y1500627D01*
X2713081Y1500693D01*
Y1500955D01*
Y1501218D01*
Y1501283D01*
Y1501349D01*
X2713016Y1501611D01*
X2713081D01*
Y1501677D01*
Y1501808D01*
X2713016Y1502005D01*
X2712950Y1502267D01*
X2712753Y1502858D01*
X2712425Y1503514D01*
Y1503579D01*
X2699371Y1526211D01*
D02*
G37*
G36*
X2656534Y1528966D02*
X2641840Y1503448D01*
X2641774Y1503382D01*
Y1503317D01*
X2641643Y1503120D01*
X2641577Y1502923D01*
X2641512Y1502792D01*
Y1502726D01*
X2641446Y1502595D01*
X2641381Y1502398D01*
X2641315Y1502136D01*
Y1502070D01*
X2641249Y1501808D01*
Y1501480D01*
Y1501086D01*
X2641315Y1500562D01*
X2641381Y1500037D01*
X2641577Y1499446D01*
X2641840Y1498922D01*
Y1498856D01*
X2641971Y1498790D01*
X2642233Y1498397D01*
Y1498331D01*
X2642365Y1498266D01*
X2642496Y1498069D01*
X2642693Y1497872D01*
X2642758Y1497806D01*
X2642955Y1497675D01*
X2643217Y1497478D01*
X2643611Y1497282D01*
X2644070Y1497019D01*
X2644595Y1496822D01*
X2645185Y1496691D01*
X2645841Y1496626D01*
X2708489D01*
X2708555Y1496691D01*
X2709211D01*
X2709342Y1496757D01*
X2709539Y1496822D01*
X2709736Y1496888D01*
X2709933D01*
X2709998Y1496954D01*
X2710261Y1497019D01*
X2710654Y1497216D01*
X2711048Y1497478D01*
X2685201Y1512435D01*
X2685070Y1512370D01*
X2684808Y1512107D01*
X2684414Y1511714D01*
X2683955Y1511386D01*
X2684021Y1511320D01*
X2684283Y1511123D01*
X2684677Y1510730D01*
X2685201Y1510205D01*
X2685267Y1510139D01*
X2685333Y1510008D01*
X2685398Y1509877D01*
X2685661Y1509549D01*
X2685857Y1509090D01*
X2685923Y1508499D01*
Y1508368D01*
X2685857Y1508106D01*
X2685792Y1507646D01*
X2685595Y1507122D01*
X2685529Y1507056D01*
X2685333Y1506728D01*
X2685201Y1506597D01*
X2685070Y1506466D01*
X2684873Y1506334D01*
X2684545Y1506203D01*
X2684152Y1506072D01*
X2683693Y1506006D01*
X2683168Y1505941D01*
X2682643D01*
Y1505875D01*
Y1505810D01*
X2682709Y1505482D01*
X2682774Y1504957D01*
X2682709Y1504432D01*
Y1504366D01*
X2682643Y1504301D01*
X2682577Y1504104D01*
X2682512Y1503842D01*
Y1503776D01*
X2682381Y1503645D01*
X2682315Y1503514D01*
X2682184Y1503382D01*
Y1503317D01*
X2682118Y1503251D01*
X2682053Y1503186D01*
X2681987Y1503120D01*
X2681921Y1503054D01*
X2681725Y1502923D01*
X2681528Y1502792D01*
X2680806Y1502530D01*
X2680413Y1502464D01*
X2679757D01*
X2679560Y1502530D01*
X2679297D01*
X2678707Y1502792D01*
X2678313Y1502923D01*
X2677985Y1503186D01*
Y1503120D01*
X2677854Y1503054D01*
X2677526Y1502661D01*
X2677067Y1502136D01*
X2676542Y1501677D01*
X2676477Y1501611D01*
X2676280Y1501480D01*
X2675952Y1501283D01*
X2675558Y1501086D01*
X2675493Y1501021D01*
X2675230Y1500955D01*
X2674837Y1500824D01*
X2674443Y1500758D01*
X2673000D01*
X2672541Y1500890D01*
X2672081Y1501152D01*
X2671557Y1501480D01*
X2671491Y1501546D01*
X2671360Y1501677D01*
X2671163Y1501939D01*
X2670966Y1502333D01*
X2670769Y1502858D01*
X2670573Y1503448D01*
X2670441Y1504235D01*
X2670376Y1505088D01*
Y1505154D01*
Y1505219D01*
Y1505285D01*
Y1505416D01*
Y1505482D01*
Y1505547D01*
Y1505941D01*
X2670441Y1506466D01*
X2670573Y1507122D01*
X2670441Y1507253D01*
X2670179Y1507450D01*
X2669917Y1507581D01*
X2669654Y1507778D01*
X2669589Y1507843D01*
X2669392Y1507909D01*
X2669129Y1508106D01*
X2668933Y1508237D01*
Y1508171D01*
X2668998Y1508106D01*
X2669064Y1507712D01*
X2669195Y1507187D01*
X2669392Y1506597D01*
X2669523Y1505875D01*
X2669654Y1505219D01*
X2669785Y1504629D01*
Y1504170D01*
Y1504104D01*
X2669720Y1503907D01*
X2669654Y1503645D01*
X2669523Y1503251D01*
X2669392Y1502792D01*
X2669064Y1502398D01*
X2668736Y1501939D01*
X2668277Y1501480D01*
X2668211Y1501414D01*
X2667949Y1501218D01*
X2667621Y1501021D01*
X2667227Y1500824D01*
X2667096Y1500758D01*
X2666833Y1500693D01*
X2666440Y1500627D01*
X2665981Y1500562D01*
X2665915D01*
X2665784Y1500627D01*
X2665521Y1500693D01*
X2665193Y1500758D01*
X2664865Y1500890D01*
X2664537Y1501086D01*
X2664144Y1501414D01*
X2663816Y1501742D01*
X2663750Y1501808D01*
X2663685Y1501939D01*
X2663553Y1502136D01*
X2663357Y1502530D01*
X2663094Y1502989D01*
X2662832Y1503514D01*
X2662569Y1504235D01*
X2662241Y1505088D01*
Y1505154D01*
X2662176Y1505350D01*
X2662110Y1505547D01*
X2662045Y1505613D01*
Y1505678D01*
X2661979Y1505744D01*
X2661913Y1505875D01*
X2661848Y1506138D01*
X2661717Y1506400D01*
X2661585Y1506794D01*
X2661389Y1507318D01*
Y1507384D01*
X2661257Y1507581D01*
X2661192Y1507843D01*
X2661061Y1508171D01*
X2660733Y1508893D01*
X2660601Y1509221D01*
X2660536Y1509549D01*
Y1509614D01*
X2660470Y1509680D01*
Y1509877D01*
X2660405Y1510205D01*
X2660273Y1510598D01*
X2660208Y1511058D01*
X2660142Y1511714D01*
X2660011Y1512435D01*
Y1512501D01*
X2659945Y1512763D01*
Y1513157D01*
X2659880Y1513550D01*
X2659683Y1514600D01*
X2659617Y1515059D01*
X2659486Y1515453D01*
Y1515518D01*
Y1515584D01*
X2659421Y1515781D01*
X2659355Y1516174D01*
X2659158Y1516634D01*
Y1516699D01*
Y1516765D01*
X2659027Y1517093D01*
X2658896Y1517618D01*
X2658830Y1518274D01*
X2658633Y1519651D01*
Y1520242D01*
X2658699Y1520766D01*
Y1520832D01*
X2658765Y1520898D01*
X2658830Y1521094D01*
X2658896Y1521357D01*
X2659027Y1521750D01*
X2659224Y1522144D01*
X2659421Y1522603D01*
X2659683Y1523128D01*
X2659749Y1523194D01*
X2659814Y1523456D01*
X2660011Y1523850D01*
X2660208Y1524309D01*
X2660601Y1525424D01*
X2660733Y1526014D01*
X2660798Y1526539D01*
X2656534Y1528966D01*
D02*
G37*
G36*
X2575453Y1560126D02*
X2574993D01*
X2574731Y1560061D01*
X2574009Y1559864D01*
X2573157Y1559470D01*
X2573091D01*
X2573025Y1559405D01*
X2572894Y1559339D01*
X2572829Y1559274D01*
X2572763D01*
X2572697Y1559142D01*
X2572369Y1558814D01*
X2571910Y1558355D01*
X2571517Y1557765D01*
X2540160Y1503448D01*
X2540094Y1503382D01*
Y1503317D01*
X2539963Y1503120D01*
X2539897Y1502923D01*
X2539832Y1502792D01*
Y1502726D01*
X2539766Y1502595D01*
X2539701Y1502398D01*
X2539635Y1502136D01*
Y1502070D01*
X2539569Y1501808D01*
Y1501480D01*
Y1501086D01*
X2539635Y1500562D01*
X2539701Y1500037D01*
X2539897Y1499446D01*
X2540160Y1498922D01*
Y1498856D01*
X2540291Y1498790D01*
X2540553Y1498397D01*
Y1498331D01*
X2540685Y1498266D01*
X2540816Y1498069D01*
X2541013Y1497872D01*
X2541078Y1497806D01*
X2541275Y1497675D01*
X2541537Y1497478D01*
X2541931Y1497282D01*
X2542390Y1497019D01*
X2542915Y1496822D01*
X2543505Y1496691D01*
X2544161Y1496626D01*
X2606809D01*
X2606875Y1496691D01*
X2607531D01*
X2607662Y1496757D01*
X2607859Y1496822D01*
X2608056Y1496888D01*
X2608253D01*
X2608449Y1497019D01*
X2608777Y1497150D01*
X2609105Y1497347D01*
X2609565Y1497610D01*
X2609958Y1497938D01*
X2610352Y1498397D01*
X2610745Y1498922D01*
X2610811D01*
Y1498987D01*
X2610877Y1499118D01*
X2611008Y1499315D01*
X2611139Y1499578D01*
X2611336Y1500365D01*
X2611401Y1501218D01*
Y1501283D01*
Y1501349D01*
X2611336Y1501611D01*
X2611401D01*
Y1501677D01*
Y1501808D01*
X2611336Y1502005D01*
X2611270Y1502267D01*
X2611073Y1502858D01*
X2610745Y1503514D01*
Y1503579D01*
X2579389Y1557830D01*
Y1557896D01*
X2579257Y1558027D01*
X2578995Y1558355D01*
X2578929Y1558421D01*
X2578864Y1558552D01*
X2578536Y1558880D01*
X2578470Y1558946D01*
X2578273Y1559077D01*
X2578011Y1559274D01*
X2577683Y1559470D01*
X2577224Y1559667D01*
X2576699Y1559864D01*
X2576109Y1559995D01*
X2575453Y1560061D01*
Y1560126D01*
D02*
G37*
%LPD*%
G36*
Y1548909D02*
X2579848D01*
Y1548778D01*
Y1548450D01*
Y1547925D01*
Y1547269D01*
Y1546482D01*
Y1545563D01*
Y1544579D01*
Y1543595D01*
Y1543464D01*
Y1543136D01*
Y1542611D01*
Y1541955D01*
Y1541168D01*
Y1540250D01*
Y1539266D01*
Y1538282D01*
Y1538216D01*
Y1538085D01*
X2579782Y1537888D01*
X2579717Y1537560D01*
Y1537166D01*
X2579585Y1536642D01*
X2579520Y1535920D01*
Y1535789D01*
Y1535658D01*
X2579454Y1535461D01*
Y1535133D01*
X2579389Y1534739D01*
X2579323Y1534280D01*
X2579257Y1533690D01*
X2579192Y1533034D01*
X2579061Y1532181D01*
X2578929Y1531262D01*
X2578798Y1530213D01*
X2578667Y1528966D01*
X2578536Y1527654D01*
X2578339Y1526146D01*
X2578142Y1524440D01*
Y1524309D01*
Y1524178D01*
Y1523915D01*
X2578077Y1523587D01*
X2578011Y1523128D01*
X2577945Y1522538D01*
X2577880Y1521750D01*
Y1521685D01*
Y1521422D01*
X2577814Y1521029D01*
X2577749Y1520635D01*
X2577683Y1520242D01*
X2577617Y1519848D01*
X2577486Y1519520D01*
X2577421Y1519389D01*
X2575912D01*
X2574600Y1519323D01*
X2573353D01*
Y1519389D01*
Y1519520D01*
X2573288Y1519848D01*
Y1520110D01*
X2573222Y1520438D01*
X2573157Y1520832D01*
X2573091Y1521357D01*
X2573025Y1522013D01*
X2572960Y1522734D01*
X2572829Y1523522D01*
X2572697Y1524506D01*
X2572566Y1525621D01*
X2572435Y1526867D01*
Y1526933D01*
X2572369Y1527195D01*
Y1527523D01*
X2572304Y1527982D01*
X2572238Y1528507D01*
X2572173Y1529098D01*
X2571976Y1530475D01*
X2571845Y1531787D01*
X2571779Y1532378D01*
X2571713Y1532968D01*
X2571648Y1533427D01*
X2571582Y1533821D01*
X2571517Y1534083D01*
Y1534214D01*
Y1534280D01*
Y1534477D01*
X2571451Y1534674D01*
Y1535002D01*
X2571385Y1535658D01*
X2571320Y1535920D01*
X2571254Y1536182D01*
Y1536314D01*
X2571189Y1536642D01*
X2571123Y1537232D01*
X2571057Y1538019D01*
Y1538150D01*
Y1538478D01*
Y1539003D01*
Y1539725D01*
Y1540578D01*
Y1541496D01*
Y1543464D01*
Y1543595D01*
Y1543923D01*
Y1544514D01*
Y1545170D01*
Y1546022D01*
Y1546941D01*
Y1548974D01*
X2573878D01*
X2575453Y1548909D01*
D02*
G37*
G36*
X2579389Y1515715D02*
Y1515453D01*
Y1515059D01*
Y1514534D01*
Y1513944D01*
Y1513288D01*
Y1511779D01*
Y1511714D01*
Y1511451D01*
Y1511058D01*
Y1510533D01*
Y1509942D01*
Y1509286D01*
Y1507778D01*
X2571057D01*
Y1507843D01*
Y1508106D01*
Y1508499D01*
Y1509024D01*
Y1509680D01*
Y1510336D01*
Y1511779D01*
Y1511845D01*
Y1512107D01*
Y1512501D01*
Y1513026D01*
Y1513682D01*
Y1514338D01*
Y1515781D01*
X2579389D01*
Y1515715D01*
D02*
G37*
%LPC*%
G36*
X2641577Y1489147D02*
Y1489082D01*
X2641512Y1488950D01*
Y1488754D01*
X2641381Y1488557D01*
X2641249Y1487901D01*
X2640987Y1487179D01*
X2639806Y1484096D01*
X2643349D01*
X2642299Y1486982D01*
Y1487048D01*
X2642233Y1487179D01*
X2642168Y1487442D01*
X2642037Y1487704D01*
X2641774Y1488426D01*
X2641577Y1489147D01*
D02*
G37*
G36*
X2539897D02*
Y1489082D01*
X2539832Y1488950D01*
Y1488754D01*
X2539701Y1488557D01*
X2539569Y1487901D01*
X2539307Y1487179D01*
X2538126Y1484096D01*
X2541669D01*
X2540619Y1486982D01*
Y1487048D01*
X2540553Y1487179D01*
X2540488Y1487442D01*
X2540357Y1487704D01*
X2540094Y1488426D01*
X2539897Y1489147D01*
D02*
G37*
G36*
X2702454Y1489278D02*
X2702192D01*
X2701929Y1489213D01*
X2701601Y1489147D01*
X2701142Y1489016D01*
X2700749Y1488885D01*
X2700289Y1488622D01*
X2699896Y1488294D01*
X2699830Y1488229D01*
X2699765Y1488098D01*
X2699568Y1487835D01*
X2699371Y1487507D01*
X2699174Y1486982D01*
X2699043Y1486392D01*
X2698912Y1485736D01*
X2698846Y1484883D01*
Y1484818D01*
Y1484555D01*
X2698912Y1484227D01*
X2698977Y1483834D01*
X2699109Y1483374D01*
X2699240Y1482850D01*
X2699502Y1482390D01*
X2699830Y1481931D01*
X2699896Y1481866D01*
X2700027Y1481734D01*
X2700224Y1481603D01*
X2700552Y1481406D01*
X2700945Y1481144D01*
X2701405Y1481013D01*
X2701864Y1480882D01*
X2702454Y1480816D01*
X2702717D01*
X2702979Y1480882D01*
X2703373Y1480947D01*
X2703766Y1481078D01*
X2704160Y1481275D01*
X2704619Y1481538D01*
X2705013Y1481931D01*
X2705078Y1481997D01*
X2705144Y1482128D01*
X2705341Y1482390D01*
X2705537Y1482718D01*
X2705669Y1483178D01*
X2705865Y1483702D01*
X2705931Y1484293D01*
X2705997Y1485014D01*
Y1485080D01*
Y1485211D01*
Y1485474D01*
X2705931Y1485736D01*
X2705800Y1486458D01*
X2705537Y1487245D01*
Y1487310D01*
X2705472Y1487376D01*
X2705209Y1487770D01*
X2704816Y1488294D01*
X2704291Y1488754D01*
X2704225D01*
X2704160Y1488819D01*
X2703766Y1489016D01*
X2703176Y1489213D01*
X2702454Y1489278D01*
D02*
G37*
G36*
X2600774D02*
X2600512D01*
X2600249Y1489213D01*
X2599921Y1489147D01*
X2599462Y1489016D01*
X2599069Y1488885D01*
X2598609Y1488622D01*
X2598216Y1488294D01*
X2598150Y1488229D01*
X2598085Y1488098D01*
X2597888Y1487835D01*
X2597691Y1487507D01*
X2597494Y1486982D01*
X2597363Y1486392D01*
X2597232Y1485736D01*
X2597166Y1484883D01*
Y1484818D01*
Y1484555D01*
X2597232Y1484227D01*
X2597297Y1483834D01*
X2597429Y1483374D01*
X2597560Y1482850D01*
X2597822Y1482390D01*
X2598150Y1481931D01*
X2598216Y1481866D01*
X2598347Y1481734D01*
X2598544Y1481603D01*
X2598872Y1481406D01*
X2599265Y1481144D01*
X2599725Y1481013D01*
X2600184Y1480882D01*
X2600774Y1480816D01*
X2601037D01*
X2601299Y1480882D01*
X2601693Y1480947D01*
X2602086Y1481078D01*
X2602480Y1481275D01*
X2602939Y1481538D01*
X2603333Y1481931D01*
X2603398Y1481997D01*
X2603464Y1482128D01*
X2603661Y1482390D01*
X2603857Y1482718D01*
X2603989Y1483178D01*
X2604185Y1483702D01*
X2604251Y1484293D01*
X2604317Y1485014D01*
Y1485080D01*
Y1485211D01*
Y1485474D01*
X2604251Y1485736D01*
X2604120Y1486458D01*
X2603857Y1487245D01*
Y1487310D01*
X2603792Y1487376D01*
X2603529Y1487770D01*
X2603136Y1488294D01*
X2602611Y1488754D01*
X2602545D01*
X2602480Y1488819D01*
X2602086Y1489016D01*
X2601496Y1489213D01*
X2600774Y1489278D01*
D02*
G37*
G36*
X2693598Y1477602D02*
Y1477536D01*
X2693533Y1477339D01*
X2693467Y1477011D01*
X2693336Y1476552D01*
X2692745Y1475043D01*
X2694517D01*
X2693992Y1476486D01*
Y1476552D01*
X2693926Y1476618D01*
X2693861Y1476880D01*
X2693729Y1477274D01*
X2693598Y1477602D01*
D02*
G37*
G36*
X2674771Y1477536D02*
X2672737D01*
Y1475830D01*
X2674509D01*
X2674968Y1475896D01*
X2675033D01*
X2675099Y1475962D01*
X2675361Y1476224D01*
X2675427Y1476290D01*
X2675493Y1476355D01*
X2675558Y1476552D01*
Y1476749D01*
Y1476814D01*
X2675493Y1476946D01*
X2675427Y1477142D01*
X2675230Y1477339D01*
X2675165Y1477405D01*
X2675033Y1477470D01*
X2674771Y1477536D01*
D02*
G37*
G36*
X2679625Y1477602D02*
X2679494D01*
X2679232Y1477536D01*
X2678773Y1477405D01*
X2678379Y1477142D01*
X2678313Y1477011D01*
X2678117Y1476683D01*
X2677920Y1476158D01*
X2677854Y1475437D01*
Y1475371D01*
Y1475306D01*
X2677920Y1474912D01*
X2678051Y1474387D01*
X2678313Y1473928D01*
X2678379Y1473862D01*
X2678707Y1473731D01*
X2679101Y1473534D01*
X2679625Y1473469D01*
X2679757D01*
X2680085Y1473534D01*
X2680544Y1473666D01*
X2680937Y1473928D01*
X2681003Y1474059D01*
X2681200Y1474322D01*
X2681331Y1474846D01*
X2681397Y1475502D01*
Y1475634D01*
Y1475896D01*
X2681331Y1476224D01*
X2681200Y1476618D01*
X2681134Y1476683D01*
X2681003Y1476880D01*
X2680806Y1477142D01*
X2680544Y1477339D01*
X2680478Y1477405D01*
X2680281Y1477470D01*
X2680019Y1477536D01*
X2679625Y1477602D01*
D02*
G37*
G36*
X2686907Y1470517D02*
X2685398D01*
Y1466515D01*
X2687104D01*
X2687366Y1466581D01*
X2687432D01*
X2687497Y1466646D01*
X2687825Y1466843D01*
X2687891Y1466909D01*
X2687957Y1467040D01*
X2688022Y1467237D01*
X2688153Y1467499D01*
X2688219Y1467565D01*
X2688285Y1467827D01*
X2688350Y1468155D01*
Y1468549D01*
Y1468614D01*
Y1468680D01*
Y1469008D01*
X2688219Y1469467D01*
X2688088Y1469795D01*
X2688022Y1469861D01*
X2687891Y1470058D01*
X2687629Y1470254D01*
X2687366Y1470386D01*
X2687301D01*
X2687169Y1470451D01*
X2686907Y1470517D01*
D02*
G37*
%LPD*%
D36*
X3031496Y-78740D02*
D03*
X3070866D02*
D03*
X2992126D02*
D03*
X2952756D02*
D03*
X2913386D02*
D03*
X2874016D02*
D03*
X2677166D02*
D03*
X2716536D02*
D03*
X2755906D02*
D03*
X2795276D02*
D03*
X2834646D02*
D03*
X2440946D02*
D03*
X2401576D02*
D03*
X2362206D02*
D03*
X2322836D02*
D03*
X2283466D02*
D03*
X2480316D02*
D03*
X2519686D02*
D03*
X2559056D02*
D03*
X2598426D02*
D03*
X2637796D02*
D03*
X2047246D02*
D03*
X2007876D02*
D03*
X1968506D02*
D03*
X1929136D02*
D03*
X1889766D02*
D03*
X2086616D02*
D03*
X2125986D02*
D03*
X2165356D02*
D03*
X2204726D02*
D03*
X2244096D02*
D03*
X1653546D02*
D03*
X1614176D02*
D03*
X1574806D02*
D03*
X1535436D02*
D03*
X1496066D02*
D03*
X1692916D02*
D03*
X1732286D02*
D03*
X1771656D02*
D03*
X1811026D02*
D03*
X1850396D02*
D03*
X1259846D02*
D03*
X1220476D02*
D03*
X1181106D02*
D03*
X1141736D02*
D03*
X1102366D02*
D03*
X1299216D02*
D03*
X1338586D02*
D03*
X1377956D02*
D03*
X1417326D02*
D03*
X1456696D02*
D03*
X866146D02*
D03*
X826776D02*
D03*
X787406D02*
D03*
X748036D02*
D03*
X708666D02*
D03*
X905516D02*
D03*
X944886D02*
D03*
X984256D02*
D03*
X1023626D02*
D03*
X1062996D02*
D03*
X472446D02*
D03*
X433076D02*
D03*
X393706D02*
D03*
X354336D02*
D03*
X314966D02*
D03*
X511816D02*
D03*
X551186D02*
D03*
X590556D02*
D03*
X629926D02*
D03*
X669296D02*
D03*
X78746D02*
D03*
X118116D02*
D03*
X157486D02*
D03*
X196856D02*
D03*
X236226D02*
D03*
X275596D02*
D03*
X2874010Y1653543D02*
D03*
X2913380D02*
D03*
X2952750D02*
D03*
X2992120D02*
D03*
X3031490D02*
D03*
X3070860D02*
D03*
X2480310D02*
D03*
X2519680D02*
D03*
X2559050D02*
D03*
X2598420D02*
D03*
X2637790D02*
D03*
X2834640D02*
D03*
X2795270D02*
D03*
X2755900D02*
D03*
X2716530D02*
D03*
X2677160D02*
D03*
X2086610D02*
D03*
X2125980D02*
D03*
X2165350D02*
D03*
X2204720D02*
D03*
X2244090D02*
D03*
X2440940D02*
D03*
X2401570D02*
D03*
X2362200D02*
D03*
X2322830D02*
D03*
X2283460D02*
D03*
X1692910D02*
D03*
X1732280D02*
D03*
X1771650D02*
D03*
X1811020D02*
D03*
X1850390D02*
D03*
X2047240D02*
D03*
X2007870D02*
D03*
X1968500D02*
D03*
X1929130D02*
D03*
X1889760D02*
D03*
X1299210D02*
D03*
X1338580D02*
D03*
X1377950D02*
D03*
X1417320D02*
D03*
X1456690D02*
D03*
X1653540D02*
D03*
X1614170D02*
D03*
X1574800D02*
D03*
X1535430D02*
D03*
X1496060D02*
D03*
X905510D02*
D03*
X944880D02*
D03*
X984250D02*
D03*
X1023620D02*
D03*
X1062990D02*
D03*
X1259840D02*
D03*
X1220470D02*
D03*
X1181100D02*
D03*
X1141730D02*
D03*
X1102360D02*
D03*
X511810D02*
D03*
X551180D02*
D03*
X590550D02*
D03*
X629920D02*
D03*
X669290D02*
D03*
X866140D02*
D03*
X826770D02*
D03*
X787400D02*
D03*
X748030D02*
D03*
X708660D02*
D03*
X314960D02*
D03*
X354330D02*
D03*
X393700D02*
D03*
X433070D02*
D03*
X472440D02*
D03*
X275590D02*
D03*
X236220D02*
D03*
X196850D02*
D03*
X157480D02*
D03*
X78740D02*
D03*
X118110D02*
D03*
X3228346Y1299213D02*
D03*
Y1259843D02*
D03*
Y1220473D02*
D03*
Y1181102D02*
D03*
Y1141732D02*
D03*
Y1102362D02*
D03*
Y1062992D02*
D03*
Y1023622D02*
D03*
Y984252D02*
D03*
Y944882D02*
D03*
Y905512D02*
D03*
Y866142D02*
D03*
Y826772D02*
D03*
Y787402D02*
D03*
Y748032D02*
D03*
Y708662D02*
D03*
Y669291D02*
D03*
Y629921D02*
D03*
Y590551D02*
D03*
Y551181D02*
D03*
Y78740D02*
D03*
Y118110D02*
D03*
Y157480D02*
D03*
Y196850D02*
D03*
Y236220D02*
D03*
Y275591D02*
D03*
Y314961D02*
D03*
Y354331D02*
D03*
Y393701D02*
D03*
Y433071D02*
D03*
Y472441D02*
D03*
Y511811D02*
D03*
Y1338583D02*
D03*
Y1377953D02*
D03*
Y1417323D02*
D03*
Y1456693D02*
D03*
Y1496063D02*
D03*
X-78740Y78740D02*
D03*
Y118110D02*
D03*
Y157480D02*
D03*
Y196850D02*
D03*
Y236220D02*
D03*
Y1062992D02*
D03*
Y1102362D02*
D03*
Y1141732D02*
D03*
Y1181102D02*
D03*
Y1220473D02*
D03*
Y1259842D02*
D03*
Y1299213D02*
D03*
Y1338583D02*
D03*
Y1377953D02*
D03*
Y1417323D02*
D03*
Y1456693D02*
D03*
Y1496063D02*
D03*
Y1023622D02*
D03*
Y984252D02*
D03*
Y944882D02*
D03*
Y905512D02*
D03*
Y866142D02*
D03*
Y826772D02*
D03*
Y787402D02*
D03*
Y748032D02*
D03*
Y708661D02*
D03*
Y669291D02*
D03*
Y629921D02*
D03*
Y590551D02*
D03*
Y551181D02*
D03*
Y511811D02*
D03*
Y472441D02*
D03*
Y433071D02*
D03*
Y393701D02*
D03*
Y354331D02*
D03*
Y314961D02*
D03*
Y275591D02*
D03*
D68*
X3228346Y787402D02*
D03*
X-78740D02*
D03*
D75*
X3011811Y727835D02*
D03*
X3049213D02*
D03*
X3086614D02*
D03*
Y814449D02*
D03*
X3011811D02*
D03*
X3049213D02*
D03*
D76*
X1448819Y824803D02*
D03*
X1385827D02*
D03*
Y789370D02*
D03*
X1448819D02*
D03*
Y962598D02*
D03*
X1385827D02*
D03*
Y927165D02*
D03*
X1448819D02*
D03*
X507874Y824803D02*
D03*
Y787402D02*
D03*
Y750000D02*
D03*
X594488D02*
D03*
Y824803D02*
D03*
Y787402D02*
D03*
X169291Y824803D02*
D03*
Y750000D02*
D03*
X66929D02*
D03*
Y787402D02*
D03*
Y824803D02*
D03*
D77*
X3092441Y518465D02*
D03*
X3024685D02*
D03*
X1417323Y1257874D02*
D03*
X1259842D02*
D03*
X1102362D02*
D03*
X944882D02*
D03*
X1102362Y868110D02*
D03*
X1259842D02*
D03*
X944882D02*
D03*
D78*
X3107205Y483031D02*
D03*
X3077677D02*
D03*
X3039449D02*
D03*
X3009921D02*
D03*
X1432087Y1222441D02*
D03*
X1402559D02*
D03*
X1274606D02*
D03*
X1245079D02*
D03*
X1117126D02*
D03*
X1087598D02*
D03*
X959646D02*
D03*
X930118D02*
D03*
X1087598Y903543D02*
D03*
X1117126D02*
D03*
X1245079D02*
D03*
X1274606D02*
D03*
X930118D02*
D03*
X959646D02*
D03*
D87*
X927953Y1181102D02*
D03*
X961811D02*
D03*
X553937Y238976D02*
D03*
X587795D02*
D03*
X3102165Y1086102D02*
D03*
X3068307D02*
D03*
X3102165Y1125472D02*
D03*
X3068307D02*
D03*
X2984449Y1086102D02*
D03*
X3018307D02*
D03*
X2984449Y1125472D02*
D03*
X3018307D02*
D03*
X652362Y826772D02*
D03*
X686220D02*
D03*
X416142Y748032D02*
D03*
X450000D02*
D03*
Y826772D02*
D03*
X416142D02*
D03*
X3075512Y442992D02*
D03*
X3109370D02*
D03*
X3007756D02*
D03*
X3041614D02*
D03*
X2024803Y147638D02*
D03*
X1990945D02*
D03*
X2024803Y108268D02*
D03*
X1990945D02*
D03*
X2024803Y68898D02*
D03*
X1990945D02*
D03*
X2497244Y187008D02*
D03*
X2463386D02*
D03*
X2497244Y147638D02*
D03*
X2463386D02*
D03*
X2497244Y108268D02*
D03*
X2463386D02*
D03*
X2969685Y147638D02*
D03*
X2935827D02*
D03*
X2969685Y108268D02*
D03*
X2935827D02*
D03*
X2969685Y68898D02*
D03*
X2935827D02*
D03*
X1400394Y1141732D02*
D03*
X1434252D02*
D03*
Y1299213D02*
D03*
X1400394D02*
D03*
X1276772Y1338583D02*
D03*
X1242913D02*
D03*
X1085433Y1141732D02*
D03*
X1119291D02*
D03*
Y1338583D02*
D03*
X1085433D02*
D03*
X927953Y1141732D02*
D03*
X961811D02*
D03*
Y1338583D02*
D03*
X927953D02*
D03*
X1434252Y177165D02*
D03*
X1400394D02*
D03*
X1119291Y984252D02*
D03*
X1085433D02*
D03*
X1119291Y826772D02*
D03*
X1085433D02*
D03*
X1276772Y984252D02*
D03*
X1242913D02*
D03*
X1276772Y826772D02*
D03*
X1242913D02*
D03*
X961811Y984252D02*
D03*
X927953D02*
D03*
X961811Y826772D02*
D03*
X927953D02*
D03*
X1001181Y334646D02*
D03*
X967323D02*
D03*
X587795Y1268110D02*
D03*
X553937D02*
D03*
X587795Y1301968D02*
D03*
X553937D02*
D03*
Y1335827D02*
D03*
X587795D02*
D03*
Y480709D02*
D03*
X553937D02*
D03*
X587795Y514567D02*
D03*
X553937D02*
D03*
Y272835D02*
D03*
X587795D02*
D03*
X553937Y548425D02*
D03*
X587795D02*
D03*
X3011811Y865000D02*
D03*
X3045669D02*
D03*
X686220Y787402D02*
D03*
X652362D02*
D03*
X416142D02*
D03*
X450000D02*
D03*
X2181653Y1518937D02*
D03*
X2215511D02*
D03*
X3075512Y364252D02*
D03*
X3109370D02*
D03*
X3007756D02*
D03*
X3041614D02*
D03*
X3109370Y403622D02*
D03*
X3075512D02*
D03*
X3041614D02*
D03*
X3007756D02*
D03*
X1990945Y187008D02*
D03*
X2024803D02*
D03*
X2463386Y68898D02*
D03*
X2497244D02*
D03*
X2935827Y187008D02*
D03*
X2969685D02*
D03*
X1400394Y1181102D02*
D03*
X1434252D02*
D03*
X1400394Y1102362D02*
D03*
X1434252D02*
D03*
X1242913Y1299213D02*
D03*
X1276772D02*
D03*
X1085433D02*
D03*
X1119291D02*
D03*
Y1102362D02*
D03*
X1085433D02*
D03*
X961811D02*
D03*
X927953D02*
D03*
X1434252Y216535D02*
D03*
X1400394D02*
D03*
X1119291Y787402D02*
D03*
X1085433D02*
D03*
Y944882D02*
D03*
X1119291D02*
D03*
X1276772Y787402D02*
D03*
X1242913D02*
D03*
Y944882D02*
D03*
X1276772D02*
D03*
X961811Y787402D02*
D03*
X927953D02*
D03*
Y944882D02*
D03*
X961811D02*
D03*
X967323Y570866D02*
D03*
X1001181D02*
D03*
Y374016D02*
D03*
X967323D02*
D03*
X927953Y1299213D02*
D03*
X961811D02*
D03*
X1242913Y1181102D02*
D03*
X1276772D02*
D03*
X1085433D02*
D03*
X1119291D02*
D03*
D89*
X2101653Y1558268D02*
D03*
Y1524409D02*
D03*
X413386Y1026378D02*
D03*
Y1060236D02*
D03*
X452756D02*
D03*
Y1026378D02*
D03*
Y1301968D02*
D03*
Y1335827D02*
D03*
X413386D02*
D03*
Y1301968D02*
D03*
X413386Y238976D02*
D03*
Y272835D02*
D03*
X452756D02*
D03*
Y238976D02*
D03*
X413386Y514567D02*
D03*
Y548425D02*
D03*
X452756D02*
D03*
Y514567D02*
D03*
X3086614Y636102D02*
D03*
Y669961D02*
D03*
X3011811D02*
D03*
Y636102D02*
D03*
X2965000Y865000D02*
D03*
Y831142D02*
D03*
X0Y824803D02*
D03*
Y790945D02*
D03*
X275591Y784547D02*
D03*
Y818405D02*
D03*
X314961D02*
D03*
Y784547D02*
D03*
X2913386Y605315D02*
D03*
Y639173D02*
D03*
X2255511Y1558268D02*
D03*
Y1524409D02*
D03*
X2146653Y1558268D02*
D03*
Y1524409D02*
D03*
X1801181Y264961D02*
D03*
Y231102D02*
D03*
X1840551Y264961D02*
D03*
Y231102D02*
D03*
X1820866Y-36614D02*
D03*
Y-2756D02*
D03*
X2273622Y264961D02*
D03*
Y231102D02*
D03*
X2312992Y264961D02*
D03*
Y231102D02*
D03*
X2352362Y264961D02*
D03*
Y231102D02*
D03*
X2273622Y-36614D02*
D03*
Y-2756D02*
D03*
X2312992Y-36614D02*
D03*
Y-2756D02*
D03*
X2352362Y-36614D02*
D03*
Y-2756D02*
D03*
X2726378Y264961D02*
D03*
Y231102D02*
D03*
X2765748Y264961D02*
D03*
Y231102D02*
D03*
X2805118Y264961D02*
D03*
Y231102D02*
D03*
X2844488Y264961D02*
D03*
Y231102D02*
D03*
X2726378Y-36614D02*
D03*
Y-2756D02*
D03*
X2765748Y-36614D02*
D03*
Y-2756D02*
D03*
X2805118Y-36614D02*
D03*
Y-2756D02*
D03*
X2844488Y-36614D02*
D03*
Y-2756D02*
D03*
X1141732Y213780D02*
D03*
Y179921D02*
D03*
X1181102Y213780D02*
D03*
Y179921D02*
D03*
X1102362D02*
D03*
Y213780D02*
D03*
X1062992D02*
D03*
Y179921D02*
D03*
X1338583Y824016D02*
D03*
Y790158D02*
D03*
X2305511Y1558268D02*
D03*
Y1524409D02*
D03*
X3049213Y636102D02*
D03*
Y669961D02*
D03*
X1732284Y1169094D02*
D03*
Y1135236D02*
D03*
Y531299D02*
D03*
Y497441D02*
D03*
X2391732Y231102D02*
D03*
Y264961D02*
D03*
X2883858Y231102D02*
D03*
Y264961D02*
D03*
D92*
X3149606Y1574803D02*
D03*
Y0D02*
D03*
X0Y1574803D02*
D03*
Y0D02*
D03*
D94*
X1574803Y-78740D02*
D03*
Y1653543D02*
D03*
D95*
X586614Y433071D02*
D03*
Y413386D02*
D03*
Y393701D02*
D03*
Y374016D02*
D03*
Y354331D02*
D03*
X2873032Y88583D02*
D03*
X2717520D02*
D03*
Y147638D02*
D03*
X2873032D02*
D03*
X586614Y1220473D02*
D03*
Y1200787D02*
D03*
Y1181102D02*
D03*
Y1161417D02*
D03*
Y1141732D02*
D03*
X1928150Y88583D02*
D03*
X1772638D02*
D03*
Y147638D02*
D03*
X1928150D02*
D03*
X2400590Y88583D02*
D03*
X2245079D02*
D03*
Y147638D02*
D03*
X2400590D02*
D03*
D96*
X521654Y354331D02*
D03*
Y374016D02*
D03*
Y413386D02*
D03*
Y433071D02*
D03*
Y1141732D02*
D03*
Y1161417D02*
D03*
Y1200787D02*
D03*
Y1220473D02*
D03*
D97*
X529528Y393701D02*
D03*
Y1181102D02*
D03*
D98*
X2795276Y118110D02*
D03*
X1850394D02*
D03*
X2322835D02*
D03*
D99*
X2844488Y50197D02*
D03*
X2824803D02*
D03*
X2805118D02*
D03*
X2785433D02*
D03*
X2765748D02*
D03*
X2746063D02*
D03*
Y186024D02*
D03*
X2765748D02*
D03*
X2785433D02*
D03*
X2805118D02*
D03*
X2824803D02*
D03*
X2844488D02*
D03*
X1899606Y50197D02*
D03*
X1879921D02*
D03*
X1860236D02*
D03*
X1840551D02*
D03*
X1820866D02*
D03*
X1801181D02*
D03*
Y186024D02*
D03*
X1820866D02*
D03*
X1840551D02*
D03*
X1860236D02*
D03*
X1879921D02*
D03*
X1899606D02*
D03*
X2372047Y50197D02*
D03*
X2352362D02*
D03*
X2332677D02*
D03*
X2312992D02*
D03*
X2293307D02*
D03*
X2273622D02*
D03*
Y186024D02*
D03*
X2293307D02*
D03*
X2312992D02*
D03*
X2332677D02*
D03*
X2352362D02*
D03*
X2372047D02*
D03*
D100*
X1299213Y196850D02*
D03*
D101*
X1263780Y181102D02*
D03*
Y196850D02*
D03*
Y212598D02*
D03*
X1334646D02*
D03*
Y196850D02*
D03*
Y181102D02*
D03*
D102*
X1283465Y232284D02*
D03*
X1299213D02*
D03*
X1314961D02*
D03*
Y161417D02*
D03*
X1299213D02*
D03*
X1283465D02*
D03*
X946457Y529528D02*
D03*
X926772D02*
D03*
X907087D02*
D03*
X966142D02*
D03*
X946457Y415354D02*
D03*
X926772D02*
D03*
X907087D02*
D03*
X966142D02*
D03*
D103*
X1444291Y472441D02*
D03*
X1101772D02*
D03*
D104*
X393701Y347047D02*
D03*
Y440354D02*
D03*
Y1134449D02*
D03*
Y1227756D02*
D03*
D105*
X3011811Y936988D02*
D03*
Y998996D02*
D03*
X236220Y818405D02*
D03*
Y756398D02*
D03*
X3074803Y936988D02*
D03*
Y998996D02*
D03*
D106*
X1826772Y426575D02*
D03*
X1897638D02*
D03*
X1826772Y568307D02*
D03*
Y497441D02*
D03*
X1897638Y355709D02*
D03*
X1968504D02*
D03*
X1897638Y497441D02*
D03*
X1968504Y426575D02*
D03*
Y497441D02*
D03*
X1826772Y780905D02*
D03*
Y639173D02*
D03*
Y710039D02*
D03*
X1897638Y639173D02*
D03*
Y568307D02*
D03*
Y780905D02*
D03*
X1968504Y639173D02*
D03*
X1897638Y710039D02*
D03*
X2039370Y426575D02*
D03*
Y355709D02*
D03*
X2110236D02*
D03*
X2181102D02*
D03*
X2110236Y426575D02*
D03*
X2251968Y355709D02*
D03*
X2181102Y426575D02*
D03*
X1968504Y710039D02*
D03*
X2039370Y497441D02*
D03*
X1968504Y568307D02*
D03*
X2110236Y497441D02*
D03*
X2251968Y426575D02*
D03*
X2039370Y568307D02*
D03*
X2251968Y497441D02*
D03*
X2181102D02*
D03*
X1826772Y922638D02*
D03*
Y851771D02*
D03*
Y1064370D02*
D03*
Y993504D02*
D03*
X1897638Y851771D02*
D03*
X1968504Y780905D02*
D03*
X1897638Y1064370D02*
D03*
Y922638D02*
D03*
Y993504D02*
D03*
X1826772Y1135236D02*
D03*
X1897638D02*
D03*
X1826772Y1206102D02*
D03*
Y1276968D02*
D03*
X1968504Y1135236D02*
D03*
Y1064370D02*
D03*
X1897638Y1347834D02*
D03*
Y1206102D02*
D03*
Y1276968D02*
D03*
X1968504Y922638D02*
D03*
Y851771D02*
D03*
Y1276968D02*
D03*
Y993504D02*
D03*
Y1206102D02*
D03*
X2039370D02*
D03*
Y1135236D02*
D03*
X2110236Y1206102D02*
D03*
X2251968D02*
D03*
X2181102D02*
D03*
X1968504Y1347834D02*
D03*
X2039370Y1276968D02*
D03*
Y1347834D02*
D03*
X2110236Y1276968D02*
D03*
X2181102D02*
D03*
X2110236Y1347834D02*
D03*
X2251968D02*
D03*
X2181102D02*
D03*
X2322834Y355709D02*
D03*
X2393700D02*
D03*
X2322834Y426575D02*
D03*
X2393700D02*
D03*
X2464566Y355709D02*
D03*
X2535433D02*
D03*
X2464566Y426575D02*
D03*
X2606299Y355709D02*
D03*
X2677165Y426575D02*
D03*
X2393700Y497441D02*
D03*
X2535433Y426575D02*
D03*
X2322834Y497441D02*
D03*
X2535433D02*
D03*
X2464566D02*
D03*
X2606299D02*
D03*
Y426575D02*
D03*
Y568307D02*
D03*
X2677165Y497441D02*
D03*
Y780905D02*
D03*
Y355709D02*
D03*
X2748031Y426575D02*
D03*
X2677165Y639173D02*
D03*
X2748031Y497441D02*
D03*
X2677165Y568307D02*
D03*
X2748031Y355709D02*
D03*
X2818897Y426575D02*
D03*
X2748031Y568307D02*
D03*
X2818897Y497441D02*
D03*
Y568307D02*
D03*
X2677165Y710039D02*
D03*
X2748031Y639173D02*
D03*
Y851771D02*
D03*
Y710039D02*
D03*
Y780905D02*
D03*
X2818897D02*
D03*
Y639173D02*
D03*
Y710039D02*
D03*
X2322834Y1206102D02*
D03*
X2393700D02*
D03*
X2322834Y1276968D02*
D03*
X2464566Y1206102D02*
D03*
X2677165Y922638D02*
D03*
Y851771D02*
D03*
X2535433Y1206102D02*
D03*
X2606299Y1135236D02*
D03*
Y1206102D02*
D03*
X2251968Y1276968D02*
D03*
X2393700D02*
D03*
X2322834Y1347834D02*
D03*
X2464566Y1276968D02*
D03*
X2393700Y1347834D02*
D03*
X2535433Y1276968D02*
D03*
X2606299D02*
D03*
X2464566Y1347834D02*
D03*
X2606299D02*
D03*
X2535433D02*
D03*
X2677165Y993504D02*
D03*
X2748031Y922638D02*
D03*
X2677165Y1135236D02*
D03*
X2748031Y993504D02*
D03*
X2677165Y1064370D02*
D03*
X2818897Y922638D02*
D03*
Y851771D02*
D03*
X2748031Y1064370D02*
D03*
X2818897Y993504D02*
D03*
Y1064370D02*
D03*
X2677165Y1206102D02*
D03*
X2748031Y1135236D02*
D03*
X2677165Y1347834D02*
D03*
X2748031Y1206102D02*
D03*
X2677165Y1276968D02*
D03*
X2818897Y1206102D02*
D03*
Y1135236D02*
D03*
X2748031Y1276968D02*
D03*
X2818897D02*
D03*
X2748031Y1347834D02*
D03*
D107*
X936614Y472441D02*
D03*
D108*
X2039763Y1518937D02*
D03*
D109*
X1980708Y1570118D02*
D03*
Y1467756D02*
D03*
X39370Y511811D02*
D03*
X236220D02*
D03*
X39370Y1062992D02*
D03*
X236220D02*
D03*
X39370Y1299213D02*
D03*
X236220D02*
D03*
X39370Y275591D02*
D03*
X236220D02*
D03*
D110*
X3074803Y1046732D02*
D03*
X3136811D02*
D03*
X3011811D02*
D03*
X2949803D02*
D03*
%TF.MD5,faf85b75fcf06590ac9f0d9ba405a255*%
M02*
