%TF.GenerationSoftware,Altium Limited,Altium Designer,20.0.13 (296)*%
G04 Layer_Color=255*
%FSLAX26Y26*%
%MOIN*%
%TF.FileFunction,Pads,Top*%
%TF.Part,Single*%
G01*
G75*
%TA.AperFunction,SMDPad,CuDef*%
%ADD11R,0.031496X0.019685*%
%ADD12R,0.023622X0.009842*%
%ADD13R,0.035433X0.009842*%
%ADD14R,0.051181X0.009842*%
%ADD15R,0.100394X0.080709*%
%ADD16R,0.009842X0.023622*%
%ADD17R,0.018504X0.020472*%
%ADD18R,0.039370X0.039370*%
%ADD19R,0.019685X0.009842*%
%ADD20R,0.009842X0.019685*%
%ADD21R,0.051181X0.133858*%
%ADD22R,0.133858X0.038583*%
%ADD23R,0.020472X0.018504*%
%ADD24R,0.031496X0.031496*%
G04:AMPARAMS|DCode=25|XSize=27.559mil|YSize=27.559mil|CornerRadius=2.756mil|HoleSize=0mil|Usage=FLASHONLY|Rotation=0.000|XOffset=0mil|YOffset=0mil|HoleType=Round|Shape=RoundedRectangle|*
%AMROUNDEDRECTD25*
21,1,0.027559,0.022047,0,0,0.0*
21,1,0.022047,0.027559,0,0,0.0*
1,1,0.005512,0.011024,-0.011024*
1,1,0.005512,-0.011024,-0.011024*
1,1,0.005512,-0.011024,0.011024*
1,1,0.005512,0.011024,0.011024*
%
%ADD25ROUNDEDRECTD25*%
%ADD26R,0.057087X0.068898*%
%ADD27R,0.023622X0.039370*%
%ADD28R,0.078740X0.039370*%
%ADD29R,0.031496X0.031496*%
%ADD30R,0.015748X0.015748*%
%ADD31R,0.015748X0.015748*%
%ADD32R,0.019685X0.031496*%
%TA.AperFunction,ViaPad*%
%ADD36C,0.029528*%
%ADD37C,0.196850*%
D11*
X1448819Y824803D02*
D03*
X1385827D02*
D03*
Y789370D02*
D03*
X1448819D02*
D03*
Y962598D02*
D03*
X1385827D02*
D03*
Y927165D02*
D03*
X1448819D02*
D03*
X507874Y824803D02*
D03*
Y787402D02*
D03*
Y750000D02*
D03*
X594488D02*
D03*
Y824803D02*
D03*
Y787402D02*
D03*
X169291Y824803D02*
D03*
Y750000D02*
D03*
X66929D02*
D03*
Y787402D02*
D03*
Y824803D02*
D03*
D12*
X586614Y433071D02*
D03*
Y413386D02*
D03*
Y393701D02*
D03*
Y374016D02*
D03*
Y354331D02*
D03*
X2873032Y88583D02*
D03*
X2717520D02*
D03*
Y147638D02*
D03*
X2873032D02*
D03*
X586614Y1220473D02*
D03*
Y1200787D02*
D03*
Y1181102D02*
D03*
Y1161417D02*
D03*
Y1141732D02*
D03*
X1928150Y88583D02*
D03*
X1772638D02*
D03*
Y147638D02*
D03*
X1928150D02*
D03*
X2400590Y88583D02*
D03*
X2245079D02*
D03*
Y147638D02*
D03*
X2400590D02*
D03*
D13*
X521654Y354331D02*
D03*
Y374016D02*
D03*
Y413386D02*
D03*
Y433071D02*
D03*
Y1141732D02*
D03*
Y1161417D02*
D03*
Y1200787D02*
D03*
Y1220473D02*
D03*
D14*
X529528Y393701D02*
D03*
Y1181102D02*
D03*
D15*
X2795276Y118110D02*
D03*
X1850394D02*
D03*
X2322835D02*
D03*
D16*
X2844488Y50197D02*
D03*
X2824803D02*
D03*
X2805118D02*
D03*
X2785433D02*
D03*
X2765748D02*
D03*
X2746063D02*
D03*
Y186024D02*
D03*
X2765748D02*
D03*
X2785433D02*
D03*
X2805118D02*
D03*
X2824803D02*
D03*
X2844488D02*
D03*
X1899606Y50197D02*
D03*
X1879921D02*
D03*
X1860236D02*
D03*
X1840551D02*
D03*
X1820866D02*
D03*
X1801181D02*
D03*
Y186024D02*
D03*
X1820866D02*
D03*
X1840551D02*
D03*
X1860236D02*
D03*
X1879921D02*
D03*
X1899606D02*
D03*
X2372047Y50197D02*
D03*
X2352362D02*
D03*
X2332677D02*
D03*
X2312992D02*
D03*
X2293307D02*
D03*
X2273622D02*
D03*
Y186024D02*
D03*
X2293307D02*
D03*
X2312992D02*
D03*
X2332677D02*
D03*
X2352362D02*
D03*
X2372047D02*
D03*
D17*
X927953Y1181102D02*
D03*
X961811D02*
D03*
X553937Y238976D02*
D03*
X587795D02*
D03*
X3102165Y1086102D02*
D03*
X3068307D02*
D03*
X3102165Y1125472D02*
D03*
X3068307D02*
D03*
X2984449Y1086102D02*
D03*
X3018307D02*
D03*
X2984449Y1125472D02*
D03*
X3018307D02*
D03*
X652362Y826772D02*
D03*
X686220D02*
D03*
X416142Y748032D02*
D03*
X450000D02*
D03*
Y826772D02*
D03*
X416142D02*
D03*
X3075512Y442992D02*
D03*
X3109370D02*
D03*
X3007756D02*
D03*
X3041614D02*
D03*
X2024803Y147638D02*
D03*
X1990945D02*
D03*
X2024803Y108268D02*
D03*
X1990945D02*
D03*
X2024803Y68898D02*
D03*
X1990945D02*
D03*
X2497244Y187008D02*
D03*
X2463386D02*
D03*
X2497244Y147638D02*
D03*
X2463386D02*
D03*
X2497244Y108268D02*
D03*
X2463386D02*
D03*
X2969685Y147638D02*
D03*
X2935827D02*
D03*
X2969685Y108268D02*
D03*
X2935827D02*
D03*
X2969685Y68898D02*
D03*
X2935827D02*
D03*
X1400394Y1141732D02*
D03*
X1434252D02*
D03*
Y1299213D02*
D03*
X1400394D02*
D03*
X1276772Y1338583D02*
D03*
X1242913D02*
D03*
X1085433Y1141732D02*
D03*
X1119291D02*
D03*
Y1338583D02*
D03*
X1085433D02*
D03*
X927953Y1141732D02*
D03*
X961811D02*
D03*
Y1338583D02*
D03*
X927953D02*
D03*
X1434252Y177165D02*
D03*
X1400394D02*
D03*
X1119291Y984252D02*
D03*
X1085433D02*
D03*
X1119291Y826772D02*
D03*
X1085433D02*
D03*
X1276772Y984252D02*
D03*
X1242913D02*
D03*
X1276772Y826772D02*
D03*
X1242913D02*
D03*
X961811Y984252D02*
D03*
X927953D02*
D03*
X961811Y826772D02*
D03*
X927953D02*
D03*
X1001181Y334646D02*
D03*
X967323D02*
D03*
X587795Y1268110D02*
D03*
X553937D02*
D03*
X587795Y1301968D02*
D03*
X553937D02*
D03*
Y1335827D02*
D03*
X587795D02*
D03*
Y480709D02*
D03*
X553937D02*
D03*
X587795Y514567D02*
D03*
X553937D02*
D03*
Y272835D02*
D03*
X587795D02*
D03*
X553937Y548425D02*
D03*
X587795D02*
D03*
X3011811Y865000D02*
D03*
X3045669D02*
D03*
X686220Y787402D02*
D03*
X652362D02*
D03*
X416142D02*
D03*
X450000D02*
D03*
X2181653Y1518937D02*
D03*
X2215511D02*
D03*
X3075512Y364252D02*
D03*
X3109370D02*
D03*
X3007756D02*
D03*
X3041614D02*
D03*
X3109370Y403622D02*
D03*
X3075512D02*
D03*
X3041614D02*
D03*
X3007756D02*
D03*
X1990945Y187008D02*
D03*
X2024803D02*
D03*
X2463386Y68898D02*
D03*
X2497244D02*
D03*
X2935827Y187008D02*
D03*
X2969685D02*
D03*
X1400394Y1181102D02*
D03*
X1434252D02*
D03*
X1400394Y1102362D02*
D03*
X1434252D02*
D03*
X1242913Y1299213D02*
D03*
X1276772D02*
D03*
X1085433D02*
D03*
X1119291D02*
D03*
Y1102362D02*
D03*
X1085433D02*
D03*
X961811D02*
D03*
X927953D02*
D03*
X1434252Y216535D02*
D03*
X1400394D02*
D03*
X1119291Y787402D02*
D03*
X1085433D02*
D03*
Y944882D02*
D03*
X1119291D02*
D03*
X1276772Y787402D02*
D03*
X1242913D02*
D03*
Y944882D02*
D03*
X1276772D02*
D03*
X961811Y787402D02*
D03*
X927953D02*
D03*
Y944882D02*
D03*
X961811D02*
D03*
X967323Y570866D02*
D03*
X1001181D02*
D03*
Y374016D02*
D03*
X967323D02*
D03*
X927953Y1299213D02*
D03*
X961811D02*
D03*
X1242913Y1181102D02*
D03*
X1276772D02*
D03*
X1085433D02*
D03*
X1119291D02*
D03*
D18*
X1299213Y196850D02*
D03*
D19*
X1263780Y181102D02*
D03*
Y196850D02*
D03*
Y212598D02*
D03*
X1334646D02*
D03*
Y196850D02*
D03*
Y181102D02*
D03*
D20*
X1283465Y232284D02*
D03*
X1299213D02*
D03*
X1314961D02*
D03*
Y161417D02*
D03*
X1299213D02*
D03*
X1283465D02*
D03*
X946457Y529528D02*
D03*
X926772D02*
D03*
X907087D02*
D03*
X966142D02*
D03*
X946457Y415354D02*
D03*
X926772D02*
D03*
X907087D02*
D03*
X966142D02*
D03*
D21*
X1444291Y472441D02*
D03*
X1101772D02*
D03*
D22*
X393701Y347047D02*
D03*
Y440354D02*
D03*
Y1134449D02*
D03*
Y1227756D02*
D03*
D23*
X2101653Y1558268D02*
D03*
Y1524409D02*
D03*
X413386Y1026378D02*
D03*
Y1060236D02*
D03*
X452756D02*
D03*
Y1026378D02*
D03*
Y1301968D02*
D03*
Y1335827D02*
D03*
X413386D02*
D03*
Y1301968D02*
D03*
X413386Y238976D02*
D03*
Y272835D02*
D03*
X452756D02*
D03*
Y238976D02*
D03*
X413386Y514567D02*
D03*
Y548425D02*
D03*
X452756D02*
D03*
Y514567D02*
D03*
X3086614Y636102D02*
D03*
Y669961D02*
D03*
X3011811D02*
D03*
Y636102D02*
D03*
X2965000Y865000D02*
D03*
Y831142D02*
D03*
X0Y824803D02*
D03*
Y790945D02*
D03*
X275591Y784547D02*
D03*
Y818405D02*
D03*
X314961D02*
D03*
Y784547D02*
D03*
X2913386Y605315D02*
D03*
Y639173D02*
D03*
X2255511Y1558268D02*
D03*
Y1524409D02*
D03*
X2146653Y1558268D02*
D03*
Y1524409D02*
D03*
X1801181Y264961D02*
D03*
Y231102D02*
D03*
X1840551Y264961D02*
D03*
Y231102D02*
D03*
X1820866Y-36614D02*
D03*
Y-2756D02*
D03*
X2273622Y264961D02*
D03*
Y231102D02*
D03*
X2312992Y264961D02*
D03*
Y231102D02*
D03*
X2352362Y264961D02*
D03*
Y231102D02*
D03*
X2273622Y-36614D02*
D03*
Y-2756D02*
D03*
X2312992Y-36614D02*
D03*
Y-2756D02*
D03*
X2352362Y-36614D02*
D03*
Y-2756D02*
D03*
X2726378Y264961D02*
D03*
Y231102D02*
D03*
X2765748Y264961D02*
D03*
Y231102D02*
D03*
X2805118Y264961D02*
D03*
Y231102D02*
D03*
X2844488Y264961D02*
D03*
Y231102D02*
D03*
X2726378Y-36614D02*
D03*
Y-2756D02*
D03*
X2765748Y-36614D02*
D03*
Y-2756D02*
D03*
X2805118Y-36614D02*
D03*
Y-2756D02*
D03*
X2844488Y-36614D02*
D03*
Y-2756D02*
D03*
X1141732Y213780D02*
D03*
Y179921D02*
D03*
X1181102Y213780D02*
D03*
Y179921D02*
D03*
X1102362D02*
D03*
Y213780D02*
D03*
X1062992D02*
D03*
Y179921D02*
D03*
X1338583Y824016D02*
D03*
Y790158D02*
D03*
X2305511Y1558268D02*
D03*
Y1524409D02*
D03*
X3049213Y636102D02*
D03*
Y669961D02*
D03*
X1732284Y1169094D02*
D03*
Y1135236D02*
D03*
Y531299D02*
D03*
Y497441D02*
D03*
X2391732Y231102D02*
D03*
Y264961D02*
D03*
X2883858Y231102D02*
D03*
Y264961D02*
D03*
D24*
X3011811Y936988D02*
D03*
Y998996D02*
D03*
X236220Y818405D02*
D03*
Y756398D02*
D03*
X3074803Y936988D02*
D03*
Y998996D02*
D03*
D25*
X1826772Y426575D02*
D03*
X1897638D02*
D03*
X1826772Y568307D02*
D03*
Y497441D02*
D03*
X1897638Y355709D02*
D03*
X1968504D02*
D03*
X1897638Y497441D02*
D03*
X1968504Y426575D02*
D03*
Y497441D02*
D03*
X1826772Y780905D02*
D03*
Y639173D02*
D03*
Y710039D02*
D03*
X1897638Y639173D02*
D03*
Y568307D02*
D03*
Y780905D02*
D03*
X1968504Y639173D02*
D03*
X1897638Y710039D02*
D03*
X2039370Y426575D02*
D03*
Y355709D02*
D03*
X2110236D02*
D03*
X2181102D02*
D03*
X2110236Y426575D02*
D03*
X2251968Y355709D02*
D03*
X2181102Y426575D02*
D03*
X1968504Y710039D02*
D03*
X2039370Y497441D02*
D03*
X1968504Y568307D02*
D03*
X2110236Y497441D02*
D03*
X2251968Y426575D02*
D03*
X2039370Y568307D02*
D03*
X2251968Y497441D02*
D03*
X2181102D02*
D03*
X1826772Y922638D02*
D03*
Y851771D02*
D03*
Y1064370D02*
D03*
Y993504D02*
D03*
X1897638Y851771D02*
D03*
X1968504Y780905D02*
D03*
X1897638Y1064370D02*
D03*
Y922638D02*
D03*
Y993504D02*
D03*
X1826772Y1135236D02*
D03*
X1897638D02*
D03*
X1826772Y1206102D02*
D03*
Y1276968D02*
D03*
X1968504Y1135236D02*
D03*
Y1064370D02*
D03*
X1897638Y1347834D02*
D03*
Y1206102D02*
D03*
Y1276968D02*
D03*
X1968504Y922638D02*
D03*
Y851771D02*
D03*
Y1276968D02*
D03*
Y993504D02*
D03*
Y1206102D02*
D03*
X2039370D02*
D03*
Y1135236D02*
D03*
X2110236Y1206102D02*
D03*
X2251968D02*
D03*
X2181102D02*
D03*
X1968504Y1347834D02*
D03*
X2039370Y1276968D02*
D03*
Y1347834D02*
D03*
X2110236Y1276968D02*
D03*
X2181102D02*
D03*
X2110236Y1347834D02*
D03*
X2251968D02*
D03*
X2181102D02*
D03*
X2322834Y355709D02*
D03*
X2393700D02*
D03*
X2322834Y426575D02*
D03*
X2393700D02*
D03*
X2464566Y355709D02*
D03*
X2535433D02*
D03*
X2464566Y426575D02*
D03*
X2606299Y355709D02*
D03*
X2677165Y426575D02*
D03*
X2393700Y497441D02*
D03*
X2535433Y426575D02*
D03*
X2322834Y497441D02*
D03*
X2535433D02*
D03*
X2464566D02*
D03*
X2606299D02*
D03*
Y426575D02*
D03*
Y568307D02*
D03*
X2677165Y497441D02*
D03*
Y780905D02*
D03*
Y355709D02*
D03*
X2748031Y426575D02*
D03*
X2677165Y639173D02*
D03*
X2748031Y497441D02*
D03*
X2677165Y568307D02*
D03*
X2748031Y355709D02*
D03*
X2818897Y426575D02*
D03*
X2748031Y568307D02*
D03*
X2818897Y497441D02*
D03*
Y568307D02*
D03*
X2677165Y710039D02*
D03*
X2748031Y639173D02*
D03*
Y851771D02*
D03*
Y710039D02*
D03*
Y780905D02*
D03*
X2818897D02*
D03*
Y639173D02*
D03*
Y710039D02*
D03*
X2322834Y1206102D02*
D03*
X2393700D02*
D03*
X2322834Y1276968D02*
D03*
X2464566Y1206102D02*
D03*
X2677165Y922638D02*
D03*
Y851771D02*
D03*
X2535433Y1206102D02*
D03*
X2606299Y1135236D02*
D03*
Y1206102D02*
D03*
X2251968Y1276968D02*
D03*
X2393700D02*
D03*
X2322834Y1347834D02*
D03*
X2464566Y1276968D02*
D03*
X2393700Y1347834D02*
D03*
X2535433Y1276968D02*
D03*
X2606299D02*
D03*
X2464566Y1347834D02*
D03*
X2606299D02*
D03*
X2535433D02*
D03*
X2677165Y993504D02*
D03*
X2748031Y922638D02*
D03*
X2677165Y1135236D02*
D03*
X2748031Y993504D02*
D03*
X2677165Y1064370D02*
D03*
X2818897Y922638D02*
D03*
Y851771D02*
D03*
X2748031Y1064370D02*
D03*
X2818897Y993504D02*
D03*
Y1064370D02*
D03*
X2677165Y1206102D02*
D03*
X2748031Y1135236D02*
D03*
X2677165Y1347834D02*
D03*
X2748031Y1206102D02*
D03*
X2677165Y1276968D02*
D03*
X2818897Y1206102D02*
D03*
Y1135236D02*
D03*
X2748031Y1276968D02*
D03*
X2818897D02*
D03*
X2748031Y1347834D02*
D03*
D26*
X936614Y472441D02*
D03*
D27*
X2039763Y1518937D02*
D03*
D28*
X1980708Y1570118D02*
D03*
Y1467756D02*
D03*
X39370Y511811D02*
D03*
X236220D02*
D03*
X39370Y1062992D02*
D03*
X236220D02*
D03*
X39370Y1299213D02*
D03*
X236220D02*
D03*
X39370Y275591D02*
D03*
X236220D02*
D03*
D29*
X3074803Y1046732D02*
D03*
X3136811D02*
D03*
X3011811D02*
D03*
X2949803D02*
D03*
D30*
X3092441Y518465D02*
D03*
X3024685D02*
D03*
X1417323Y1257874D02*
D03*
X1259842D02*
D03*
X1102362D02*
D03*
X944882D02*
D03*
X1102362Y868110D02*
D03*
X1259842D02*
D03*
X944882D02*
D03*
D31*
X3107205Y483031D02*
D03*
X3077677D02*
D03*
X3039449D02*
D03*
X3009921D02*
D03*
X1432087Y1222441D02*
D03*
X1402559D02*
D03*
X1274606D02*
D03*
X1245079D02*
D03*
X1117126D02*
D03*
X1087598D02*
D03*
X959646D02*
D03*
X930118D02*
D03*
X1087598Y903543D02*
D03*
X1117126D02*
D03*
X1245079D02*
D03*
X1274606D02*
D03*
X930118D02*
D03*
X959646D02*
D03*
D32*
X3011811Y727835D02*
D03*
X3049213D02*
D03*
X3086614D02*
D03*
Y814449D02*
D03*
X3011811D02*
D03*
X3049213D02*
D03*
D36*
X3031496Y-78740D02*
D03*
X3070866D02*
D03*
X2992126D02*
D03*
X2952756D02*
D03*
X2913386D02*
D03*
X2874016D02*
D03*
X2677166D02*
D03*
X2716536D02*
D03*
X2755906D02*
D03*
X2795276D02*
D03*
X2834646D02*
D03*
X2440946D02*
D03*
X2401576D02*
D03*
X2362206D02*
D03*
X2322836D02*
D03*
X2283466D02*
D03*
X2480316D02*
D03*
X2519686D02*
D03*
X2559056D02*
D03*
X2598426D02*
D03*
X2637796D02*
D03*
X2047246D02*
D03*
X2007876D02*
D03*
X1968506D02*
D03*
X1929136D02*
D03*
X1889766D02*
D03*
X2086616D02*
D03*
X2125986D02*
D03*
X2165356D02*
D03*
X2204726D02*
D03*
X2244096D02*
D03*
X1653546D02*
D03*
X1614176D02*
D03*
X1574806D02*
D03*
X1535436D02*
D03*
X1496066D02*
D03*
X1692916D02*
D03*
X1732286D02*
D03*
X1771656D02*
D03*
X1811026D02*
D03*
X1850396D02*
D03*
X1259846D02*
D03*
X1220476D02*
D03*
X1181106D02*
D03*
X1141736D02*
D03*
X1102366D02*
D03*
X1299216D02*
D03*
X1338586D02*
D03*
X1377956D02*
D03*
X1417326D02*
D03*
X1456696D02*
D03*
X866146D02*
D03*
X826776D02*
D03*
X787406D02*
D03*
X748036D02*
D03*
X708666D02*
D03*
X905516D02*
D03*
X944886D02*
D03*
X984256D02*
D03*
X1023626D02*
D03*
X1062996D02*
D03*
X472446D02*
D03*
X433076D02*
D03*
X393706D02*
D03*
X354336D02*
D03*
X314966D02*
D03*
X511816D02*
D03*
X551186D02*
D03*
X590556D02*
D03*
X629926D02*
D03*
X669296D02*
D03*
X78746D02*
D03*
X118116D02*
D03*
X157486D02*
D03*
X196856D02*
D03*
X236226D02*
D03*
X275596D02*
D03*
X2874010Y1653543D02*
D03*
X2913380D02*
D03*
X2952750D02*
D03*
X2992120D02*
D03*
X3031490D02*
D03*
X3070860D02*
D03*
X2480310D02*
D03*
X2519680D02*
D03*
X2559050D02*
D03*
X2598420D02*
D03*
X2637790D02*
D03*
X2834640D02*
D03*
X2795270D02*
D03*
X2755900D02*
D03*
X2716530D02*
D03*
X2677160D02*
D03*
X2086610D02*
D03*
X2125980D02*
D03*
X2165350D02*
D03*
X2204720D02*
D03*
X2244090D02*
D03*
X2440940D02*
D03*
X2401570D02*
D03*
X2362200D02*
D03*
X2322830D02*
D03*
X2283460D02*
D03*
X1692910D02*
D03*
X1732280D02*
D03*
X1771650D02*
D03*
X1811020D02*
D03*
X1850390D02*
D03*
X2047240D02*
D03*
X2007870D02*
D03*
X1968500D02*
D03*
X1929130D02*
D03*
X1889760D02*
D03*
X1299210D02*
D03*
X1338580D02*
D03*
X1377950D02*
D03*
X1417320D02*
D03*
X1456690D02*
D03*
X1653540D02*
D03*
X1614170D02*
D03*
X1574800D02*
D03*
X1535430D02*
D03*
X1496060D02*
D03*
X905510D02*
D03*
X944880D02*
D03*
X984250D02*
D03*
X1023620D02*
D03*
X1062990D02*
D03*
X1259840D02*
D03*
X1220470D02*
D03*
X1181100D02*
D03*
X1141730D02*
D03*
X1102360D02*
D03*
X511810D02*
D03*
X551180D02*
D03*
X590550D02*
D03*
X629920D02*
D03*
X669290D02*
D03*
X866140D02*
D03*
X826770D02*
D03*
X787400D02*
D03*
X748030D02*
D03*
X708660D02*
D03*
X314960D02*
D03*
X354330D02*
D03*
X393700D02*
D03*
X433070D02*
D03*
X472440D02*
D03*
X275590D02*
D03*
X236220D02*
D03*
X196850D02*
D03*
X157480D02*
D03*
X78740D02*
D03*
X118110D02*
D03*
X3228346Y1299213D02*
D03*
Y1259843D02*
D03*
Y1220473D02*
D03*
Y1181102D02*
D03*
Y1141732D02*
D03*
Y1102362D02*
D03*
Y1062992D02*
D03*
Y1023622D02*
D03*
Y984252D02*
D03*
Y944882D02*
D03*
Y905512D02*
D03*
Y866142D02*
D03*
Y826772D02*
D03*
Y787402D02*
D03*
Y748032D02*
D03*
Y708662D02*
D03*
Y669291D02*
D03*
Y629921D02*
D03*
Y590551D02*
D03*
Y551181D02*
D03*
Y78740D02*
D03*
Y118110D02*
D03*
Y157480D02*
D03*
Y196850D02*
D03*
Y236220D02*
D03*
Y275591D02*
D03*
Y314961D02*
D03*
Y354331D02*
D03*
Y393701D02*
D03*
Y433071D02*
D03*
Y472441D02*
D03*
Y511811D02*
D03*
Y1338583D02*
D03*
Y1377953D02*
D03*
Y1417323D02*
D03*
Y1456693D02*
D03*
Y1496063D02*
D03*
X-78740Y78740D02*
D03*
Y118110D02*
D03*
Y157480D02*
D03*
Y196850D02*
D03*
Y236220D02*
D03*
Y1062992D02*
D03*
Y1102362D02*
D03*
Y1141732D02*
D03*
Y1181102D02*
D03*
Y1220473D02*
D03*
Y1259842D02*
D03*
Y1299213D02*
D03*
Y1338583D02*
D03*
Y1377953D02*
D03*
Y1417323D02*
D03*
Y1456693D02*
D03*
Y1496063D02*
D03*
Y1023622D02*
D03*
Y984252D02*
D03*
Y944882D02*
D03*
Y905512D02*
D03*
Y866142D02*
D03*
Y826772D02*
D03*
Y787402D02*
D03*
Y748032D02*
D03*
Y708661D02*
D03*
Y669291D02*
D03*
Y629921D02*
D03*
Y590551D02*
D03*
Y551181D02*
D03*
Y511811D02*
D03*
Y472441D02*
D03*
Y433071D02*
D03*
Y393701D02*
D03*
Y354331D02*
D03*
Y314961D02*
D03*
Y275591D02*
D03*
D37*
X3149606Y1574803D02*
D03*
Y0D02*
D03*
X0Y1574803D02*
D03*
Y0D02*
D03*
%TF.MD5,b7e326ab4fb1e2389b144588b8fe54ff*%
M02*
