%TF.GenerationSoftware,Altium Limited,Altium Designer,20.0.13 (296)*%
G04 Layer_Color=16711935*
%FSLAX26Y26*%
%MOIN*%
%TF.FileFunction,Other,Bottom_Courtyard*%
%TF.Part,Single*%
G01*
G75*
%TA.AperFunction,NonConductor*%
%ADD59C,0.003937*%
%ADD62C,0.001968*%
D59*
X1141732Y334646D02*
Y374016D01*
X1122047Y354331D02*
X1161417D01*
D62*
X2114173Y226378D02*
X2137795D01*
X2125984Y214567D02*
Y238189D01*
X1918984Y19378D02*
Y433378D01*
Y19378D02*
X2332984D01*
Y433378D01*
X1918984D02*
X2332984D01*
X812008Y684055D02*
X1471457D01*
X812008Y24606D02*
X1471457D01*
Y684055D01*
X812008Y24606D02*
Y684055D01*
X1757874Y708661D02*
X1781496D01*
X1769685Y696850D02*
Y720472D01*
X1829685Y643661D02*
Y772661D01*
X1709685D02*
X1829685D01*
X1709685Y643661D02*
Y772661D01*
Y643661D02*
X1829685D01*
X1749606Y835433D02*
Y859055D01*
X1737795Y847244D02*
X1761417D01*
X1679606Y907244D02*
X1819606D01*
X1679606Y787244D02*
Y907244D01*
Y787244D02*
X1819606D01*
Y907244D01*
X2032480Y881890D02*
Y905512D01*
X2020669Y893701D02*
X2044291D01*
X2007480Y863701D02*
X2057480D01*
Y923701D01*
X2007480D02*
X2057480D01*
X2007480Y863701D02*
Y923701D01*
X2047244Y775591D02*
Y799213D01*
X2035433Y787402D02*
X2059055D01*
X2003244Y855402D02*
X2091244D01*
Y719402D02*
Y855402D01*
X2003244Y719402D02*
X2091244D01*
X2003244D02*
Y855402D01*
X1952362Y872835D02*
Y896457D01*
X1940551Y884646D02*
X1964173D01*
X1922835Y900394D02*
X1981890D01*
X1922835Y868898D02*
X1981890D01*
Y900394D01*
X1922835Y868898D02*
Y900394D01*
X1440732Y919047D02*
Y1491047D01*
X842732Y919047D02*
X1440732D01*
X842732D02*
Y1491047D01*
X1440732D01*
X1129921Y1122047D02*
X1153543D01*
X1141732Y1110236D02*
Y1133858D01*
X167323Y596654D02*
Y628150D01*
X226378Y596654D02*
Y628150D01*
X167323Y596654D02*
X226378D01*
X167323Y628150D02*
X226378D01*
X185039Y612402D02*
X208661D01*
X196850Y600591D02*
Y624213D01*
X1220472Y776591D02*
Y800213D01*
X1208661Y788402D02*
X1232283D01*
X1098472Y712402D02*
X1343472D01*
Y862402D01*
X1098472D02*
X1343472D01*
X1098472Y712402D02*
Y862402D01*
X2267716Y1084449D02*
X2299213D01*
X2267716Y1025394D02*
X2299213D01*
X2267716D02*
Y1084449D01*
X2299213Y1025394D02*
Y1084449D01*
X2283465Y1043110D02*
Y1066732D01*
X2271653Y1054921D02*
X2295276D01*
X1922047Y972244D02*
Y1003740D01*
X1981102Y972244D02*
Y1003740D01*
X1922047Y972244D02*
X1981102D01*
X1922047Y1003740D02*
X1981102D01*
X1939764Y987992D02*
X1963386D01*
X1951575Y976181D02*
Y999803D01*
X1922047Y1022244D02*
Y1053740D01*
X1981102Y1022244D02*
Y1053740D01*
X1922047Y1022244D02*
X1981102D01*
X1922047Y1053740D02*
X1981102D01*
X1939764Y1037992D02*
X1963386D01*
X1951575Y1026181D02*
Y1049803D01*
X1922047Y1122244D02*
Y1153740D01*
X1981102Y1122244D02*
Y1153740D01*
X1922047Y1122244D02*
X1981102D01*
X1922047Y1153740D02*
X1981102D01*
X1939764Y1137992D02*
X1963386D01*
X1951575Y1126181D02*
Y1149803D01*
X1922047Y1072244D02*
Y1103740D01*
X1981102Y1072244D02*
Y1103740D01*
X1922047Y1072244D02*
X1981102D01*
X1922047Y1103740D02*
X1981102D01*
X1939764Y1087992D02*
X1963386D01*
X1951575Y1076181D02*
Y1099803D01*
X1681102Y675787D02*
X1704724D01*
X1692913Y663976D02*
Y687598D01*
X1708661Y646260D02*
Y705315D01*
X1677165Y646260D02*
Y705315D01*
Y646260D02*
X1708661D01*
X1677165Y705315D02*
X1708661D01*
X1838583Y675787D02*
X1862205D01*
X1850394Y663976D02*
Y687598D01*
X1834646Y646260D02*
Y705315D01*
X1866142Y646260D02*
Y705315D01*
X1834646D02*
X1866142D01*
X1834646Y646260D02*
X1866142D01*
X1523622Y741535D02*
X1547244D01*
X1535433Y729725D02*
Y753346D01*
X1519685Y712008D02*
Y771063D01*
X1551181Y712008D02*
Y771063D01*
X1519685D02*
X1551181D01*
X1519685Y712008D02*
X1551181D01*
X1604331Y826772D02*
X1627953D01*
X1616142Y814961D02*
Y838583D01*
X1631890Y797244D02*
Y856299D01*
X1600394Y797244D02*
Y856299D01*
Y797244D02*
X1631890D01*
X1600394Y856299D02*
X1631890D01*
X2093307Y440945D02*
Y464567D01*
X2081496Y452756D02*
X2105118D01*
X2063780Y468504D02*
X2122835D01*
X2063780Y437008D02*
X2122835D01*
Y468504D01*
X2063780Y437008D02*
Y468504D01*
X2156299Y440945D02*
Y464567D01*
X2144488Y452756D02*
X2168110D01*
X2126772Y468504D02*
X2185827D01*
X2126772Y437008D02*
X2185827D01*
Y468504D01*
X2126772Y437008D02*
Y468504D01*
X2187795Y-11811D02*
Y11811D01*
X2175984Y0D02*
X2199606D01*
X2158268Y15748D02*
X2217323D01*
X2158268Y-15748D02*
X2217323D01*
Y15748D01*
X2158268Y-15748D02*
Y15748D01*
X2135827Y1258465D02*
Y1289961D01*
X2076772Y1258465D02*
Y1289961D01*
X2135827D01*
X2076772Y1258465D02*
X2135827D01*
X2094488Y1274213D02*
X2118110D01*
X2106299Y1262402D02*
Y1286024D01*
X2135827Y1358465D02*
Y1389961D01*
X2076772Y1358465D02*
Y1389961D01*
X2135827D01*
X2076772Y1358465D02*
X2135827D01*
X2094488Y1374213D02*
X2118110D01*
X2106299Y1362402D02*
Y1386024D01*
X1519685Y1600591D02*
X1551181D01*
X1519685Y1541535D02*
X1551181D01*
X1519685D02*
Y1600591D01*
X1551181Y1541535D02*
Y1600591D01*
X1535433Y1559252D02*
Y1582874D01*
X1523622Y1571063D02*
X1547244D01*
X1978347Y1258465D02*
Y1289961D01*
X1919291Y1258465D02*
Y1289961D01*
X1978347D01*
X1919291Y1258465D02*
X1978347D01*
X1937008Y1274213D02*
X1960630D01*
X1948819Y1262402D02*
Y1286024D01*
X1978347Y1358465D02*
Y1389961D01*
X1919291Y1358465D02*
Y1389961D01*
X1978347D01*
X1919291Y1358465D02*
X1978347D01*
X1937008Y1374213D02*
X1960630D01*
X1948819Y1362402D02*
Y1386024D01*
X2293307Y1261417D02*
Y1292913D01*
X2234252Y1261417D02*
Y1292913D01*
X2293307D01*
X2234252Y1261417D02*
X2293307D01*
X2251968Y1277165D02*
X2275590D01*
X2263780Y1265354D02*
Y1288976D01*
X2293307Y1361417D02*
Y1392914D01*
X2234252Y1361417D02*
Y1392914D01*
X2293307D01*
X2234252Y1361417D02*
X2293307D01*
X2251968Y1377166D02*
X2275590D01*
X2263780Y1365354D02*
Y1388976D01*
X1956693Y637795D02*
X1980315D01*
X1968504Y625984D02*
Y649606D01*
X1952756Y608268D02*
Y667323D01*
X1984252Y608268D02*
Y667323D01*
X1952756D02*
X1984252D01*
X1952756Y608268D02*
X1984252D01*
X2271654Y543307D02*
X2295276D01*
X2283465Y531496D02*
Y555118D01*
X2267716Y513779D02*
Y572835D01*
X2299213Y513779D02*
Y572835D01*
X2267716D02*
X2299213D01*
X2267716Y513779D02*
X2299213D01*
X1877953Y225197D02*
X1901575D01*
X1889764Y213386D02*
Y237008D01*
X1874016Y195669D02*
Y254724D01*
X1905512Y195669D02*
Y254724D01*
X1874016D02*
X1905512D01*
X1874016Y195669D02*
X1905512D01*
X1133661Y1574803D02*
X1157284D01*
X1145473Y1562992D02*
Y1586614D01*
X1161221Y1545275D02*
Y1604331D01*
X1129725Y1545275D02*
Y1604331D01*
Y1545275D02*
X1161221D01*
X1129725Y1604331D02*
X1161221D01*
X1523622Y584449D02*
X1547244D01*
X1535433Y572638D02*
Y596260D01*
X1551181Y554921D02*
Y613976D01*
X1519685Y554921D02*
Y613976D01*
Y554921D02*
X1551181D01*
X1519685Y613976D02*
X1551181D01*
X1838583Y584449D02*
X1862205D01*
X1850394Y572638D02*
Y596260D01*
X1834646Y554921D02*
Y613976D01*
X1866142Y554921D02*
Y613976D01*
X1834646D02*
X1866142D01*
X1834646Y554921D02*
X1866142D01*
X1838583Y129725D02*
X1862205D01*
X1850394Y117913D02*
Y141536D01*
X1834646Y100197D02*
Y159252D01*
X1866142Y100197D02*
Y159252D01*
X1834646D02*
X1866142D01*
X1834646Y100197D02*
X1866142D01*
X1523622Y129725D02*
X1547244D01*
X1535433Y117913D02*
Y141536D01*
X1519685Y100197D02*
Y159252D01*
X1551181Y100197D02*
Y159252D01*
X1519685D02*
X1551181D01*
X1519685Y100197D02*
X1551181D01*
X1523622Y334449D02*
X1547244D01*
X1535433Y322638D02*
Y346260D01*
X1551181Y304921D02*
Y363976D01*
X1519685Y304921D02*
Y363976D01*
Y304921D02*
X1551181D01*
X1519685Y363976D02*
X1551181D01*
X992126Y725591D02*
X1015748D01*
X1003937Y713779D02*
Y737402D01*
X1019685Y696063D02*
Y755118D01*
X988189Y696063D02*
Y755118D01*
Y696063D02*
X1019685D01*
X988189Y755118D02*
X1019685D01*
X775591Y312205D02*
X799213D01*
X787402Y300394D02*
Y324016D01*
X803150Y282677D02*
Y341732D01*
X771654Y282677D02*
Y341732D01*
Y282677D02*
X803150D01*
X771654Y341732D02*
X803150D01*
X1366142Y740158D02*
X1389764D01*
X1377953Y728346D02*
Y751968D01*
X1393701Y710630D02*
Y769685D01*
X1362205Y710630D02*
Y769685D01*
Y710630D02*
X1393701D01*
X1362205Y769685D02*
X1393701D01*
X1051181Y834646D02*
X1074803D01*
X1062992Y822835D02*
Y846457D01*
X1078740Y805118D02*
Y864173D01*
X1047244Y805118D02*
Y864173D01*
Y805118D02*
X1078740D01*
X1047244Y864173D02*
X1078740D01*
X1252756Y-15748D02*
Y15748D01*
X1311811Y-15748D02*
Y15748D01*
X1252756Y-15748D02*
X1311811D01*
X1252756Y15748D02*
X1311811D01*
X1270473Y0D02*
X1294094D01*
X1282284Y-11811D02*
Y11811D01*
X1480315Y440158D02*
X1511811D01*
X1480315Y381102D02*
X1511811D01*
X1480315D02*
Y440158D01*
X1511811Y381102D02*
Y440158D01*
X1496063Y398819D02*
Y422441D01*
X1484252Y410630D02*
X1507874D01*
X909449Y755118D02*
X940945D01*
X909449Y696063D02*
X940945D01*
X909449D02*
Y755118D01*
X940945Y696063D02*
Y755118D01*
X925197Y713779D02*
Y737402D01*
X913386Y725591D02*
X937008D01*
X590551Y100591D02*
Y124213D01*
X578740Y112402D02*
X602362D01*
X561024Y96654D02*
X620079D01*
X561024Y128150D02*
X620079D01*
X561024Y96654D02*
Y128150D01*
X620079Y96654D02*
Y128150D01*
X590551Y150591D02*
Y174213D01*
X578740Y162402D02*
X602362D01*
X561024Y146654D02*
X620079D01*
X561024Y178150D02*
X620079D01*
X561024Y146654D02*
Y178150D01*
X620079Y146654D02*
Y178150D01*
X590551Y200591D02*
Y224213D01*
X578740Y212402D02*
X602362D01*
X561024Y196654D02*
X620079D01*
X561024Y228150D02*
X620079D01*
X561024Y196654D02*
Y228150D01*
X620079Y196654D02*
Y228150D01*
X196850Y50591D02*
Y74213D01*
X185039Y62402D02*
X208661D01*
X167323Y78150D02*
X226378D01*
X167323Y46654D02*
X226378D01*
Y78150D01*
X167323Y46654D02*
Y78150D01*
X196850Y100591D02*
Y124213D01*
X185039Y112402D02*
X208661D01*
X167323Y128150D02*
X226378D01*
X167323Y96654D02*
X226378D01*
Y128150D01*
X167323Y96654D02*
Y128150D01*
X196850Y150591D02*
Y174213D01*
X185039Y162402D02*
X208661D01*
X167323Y178150D02*
X226378D01*
X167323Y146654D02*
X226378D01*
Y178150D01*
X167323Y146654D02*
Y178150D01*
X2952756Y100591D02*
Y124213D01*
X2940945Y112402D02*
X2964567D01*
X2923228Y96654D02*
X2982284D01*
X2923228Y128150D02*
X2982284D01*
X2923228Y96654D02*
Y128150D01*
X2982284Y96654D02*
Y128150D01*
X2952756Y150591D02*
Y174213D01*
X2940945Y162402D02*
X2964567D01*
X2923228Y146654D02*
X2982284D01*
X2923228Y178150D02*
X2982284D01*
X2923228Y146654D02*
Y178150D01*
X2982284Y146654D02*
Y178150D01*
X2559055Y50591D02*
Y74213D01*
X2547244Y62402D02*
X2570866D01*
X2529528Y78150D02*
X2588583D01*
X2529528Y46654D02*
X2588583D01*
Y78150D01*
X2529528Y46654D02*
Y78150D01*
X2559055Y100591D02*
Y124213D01*
X2547244Y112402D02*
X2570866D01*
X2529528Y128150D02*
X2588583D01*
X2529528Y96654D02*
X2588583D01*
Y128150D01*
X2529528Y96654D02*
Y128150D01*
X2559055Y150591D02*
Y174213D01*
X2547244Y162402D02*
X2570866D01*
X2529528Y178150D02*
X2588583D01*
X2529528Y146654D02*
X2588583D01*
Y178150D01*
X2529528Y146654D02*
Y178150D01*
X590551Y1450591D02*
Y1474213D01*
X578740Y1462402D02*
X602362D01*
X561024Y1446654D02*
X620079D01*
X561024Y1478150D02*
X620079D01*
X561024Y1446654D02*
Y1478150D01*
X620079Y1446654D02*
Y1478150D01*
X590551Y1500591D02*
Y1524213D01*
X578740Y1512402D02*
X602362D01*
X561024Y1496654D02*
X620079D01*
X561024Y1528150D02*
X620079D01*
X561024Y1496654D02*
Y1528150D01*
X620079Y1496654D02*
Y1528150D01*
X196850Y1400591D02*
Y1424213D01*
X185039Y1412402D02*
X208661D01*
X167323Y1428150D02*
X226378D01*
X167323Y1396654D02*
X226378D01*
Y1428150D01*
X167323Y1396654D02*
Y1428150D01*
X196850Y1450591D02*
Y1474213D01*
X185039Y1462402D02*
X208661D01*
X167323Y1478150D02*
X226378D01*
X167323Y1446654D02*
X226378D01*
Y1478150D01*
X167323Y1446654D02*
Y1478150D01*
X2952756Y1450591D02*
Y1474213D01*
X2940945Y1462402D02*
X2964567D01*
X2923228Y1446654D02*
X2982284D01*
X2923228Y1478150D02*
X2982284D01*
X2923228Y1446654D02*
Y1478150D01*
X2982284Y1446654D02*
Y1478150D01*
X2952756Y1500591D02*
Y1524213D01*
X2940945Y1512402D02*
X2964567D01*
X2923228Y1496654D02*
X2982284D01*
X2923228Y1528150D02*
X2982284D01*
X2923228Y1496654D02*
Y1528150D01*
X2982284Y1496654D02*
Y1528150D01*
X2559055Y1400591D02*
Y1424213D01*
X2547244Y1412402D02*
X2570866D01*
X2529528Y1428150D02*
X2588583D01*
X2529528Y1396654D02*
X2588583D01*
Y1428150D01*
X2529528Y1396654D02*
Y1428150D01*
X2559055Y1450591D02*
Y1474213D01*
X2547244Y1462402D02*
X2570866D01*
X2529528Y1478150D02*
X2588583D01*
X2529528Y1446654D02*
X2588583D01*
Y1478150D01*
X2529528Y1446654D02*
Y1478150D01*
X1488976Y1136811D02*
Y1168307D01*
X1548032Y1136811D02*
Y1168307D01*
X1488976Y1136811D02*
X1548032D01*
X1488976Y1168307D02*
X1548032D01*
X1506693Y1152559D02*
X1530315D01*
X1518504Y1140748D02*
Y1164370D01*
X1922047Y754724D02*
Y786221D01*
X1981102Y754724D02*
Y786221D01*
X1922047Y754724D02*
X1981102D01*
X1922047Y786221D02*
X1981102D01*
X1939764Y770472D02*
X1963386D01*
X1951575Y758661D02*
Y782283D01*
X1922047Y794095D02*
Y825591D01*
X1981102Y794095D02*
Y825591D01*
X1922047Y794095D02*
X1981102D01*
X1922047Y825591D02*
X1981102D01*
X1939764Y809842D02*
X1963386D01*
X1951575Y798032D02*
Y821654D01*
X2126772Y789370D02*
Y820866D01*
X2185827Y789370D02*
Y820866D01*
X2126772Y789370D02*
X2185827D01*
X2126772Y820866D02*
X2185827D01*
X2144488Y805118D02*
X2168110D01*
X2156299Y793307D02*
Y816929D01*
X2126772Y860236D02*
Y891732D01*
X2185827Y860236D02*
Y891732D01*
X2126772Y860236D02*
X2185827D01*
X2126772Y891732D02*
X2185827D01*
X2144488Y875984D02*
X2168110D01*
X2156299Y864173D02*
Y887795D01*
X1637795Y797244D02*
X1669291D01*
X1637795Y856299D02*
X1669291D01*
Y797244D02*
Y856299D01*
X1637795Y797244D02*
Y856299D01*
X1653543Y814961D02*
Y838583D01*
X1641732Y826772D02*
X1665354D01*
X1488976Y1358465D02*
Y1389961D01*
X1548032Y1358465D02*
Y1389961D01*
X1488976Y1358465D02*
X1548032D01*
X1488976Y1389961D02*
X1548032D01*
X1506693Y1374213D02*
X1530315D01*
X1518504Y1362402D02*
Y1386024D01*
X196850Y650591D02*
Y674213D01*
X185039Y662402D02*
X208661D01*
X167323Y678150D02*
X226378D01*
X167323Y646654D02*
X226378D01*
Y678150D01*
X167323Y646654D02*
Y678150D01*
X196850Y700591D02*
Y724213D01*
X185039Y712402D02*
X208661D01*
X167323Y728150D02*
X226378D01*
X167323Y696654D02*
X226378D01*
Y728150D01*
X167323Y696654D02*
Y728150D01*
X196850Y750591D02*
Y774213D01*
X185039Y762402D02*
X208661D01*
X167323Y778150D02*
X226378D01*
X167323Y746654D02*
X226378D01*
Y778150D01*
X167323Y746654D02*
Y778150D01*
X196850Y800591D02*
Y824213D01*
X185039Y812402D02*
X208661D01*
X167323Y828150D02*
X226378D01*
X167323Y796654D02*
X226378D01*
Y828150D01*
X167323Y796654D02*
Y828150D01*
X196850Y850591D02*
Y874213D01*
X185039Y862402D02*
X208661D01*
X167323Y878150D02*
X226378D01*
X167323Y846654D02*
X226378D01*
Y878150D01*
X167323Y846654D02*
Y878150D01*
X196850Y900591D02*
Y924213D01*
X185039Y912402D02*
X208661D01*
X167323Y928150D02*
X226378D01*
X167323Y896654D02*
X226378D01*
Y928150D01*
X167323Y896654D02*
Y928150D01*
X196850Y950591D02*
Y974213D01*
X185039Y962402D02*
X208661D01*
X167323Y978150D02*
X226378D01*
X167323Y946654D02*
X226378D01*
Y978150D01*
X167323Y946654D02*
Y978150D01*
X196850Y1000591D02*
Y1024213D01*
X185039Y1012402D02*
X208661D01*
X167323Y1028150D02*
X226378D01*
X167323Y996654D02*
X226378D01*
Y1028150D01*
X167323Y996654D02*
Y1028150D01*
X196850Y1050591D02*
Y1074213D01*
X185039Y1062402D02*
X208661D01*
X167323Y1078150D02*
X226378D01*
X167323Y1046654D02*
X226378D01*
Y1078150D01*
X167323Y1046654D02*
Y1078150D01*
X196850Y1100591D02*
Y1124213D01*
X185039Y1112402D02*
X208661D01*
X167323Y1128150D02*
X226378D01*
X167323Y1096654D02*
X226378D01*
Y1128150D01*
X167323Y1096654D02*
Y1128150D01*
X196850Y1150591D02*
Y1174213D01*
X185039Y1162402D02*
X208661D01*
X167323Y1178150D02*
X226378D01*
X167323Y1146654D02*
X226378D01*
Y1178150D01*
X167323Y1146654D02*
Y1178150D01*
X196850Y1200591D02*
Y1224213D01*
X185039Y1212402D02*
X208661D01*
X167323Y1228150D02*
X226378D01*
X167323Y1196654D02*
X226378D01*
Y1228150D01*
X167323Y1196654D02*
Y1228150D01*
X196850Y1250591D02*
Y1274213D01*
X185039Y1262402D02*
X208661D01*
X167323Y1278150D02*
X226378D01*
X167323Y1246654D02*
X226378D01*
Y1278150D01*
X167323Y1246654D02*
Y1278150D01*
X2559055Y250591D02*
Y274213D01*
X2547244Y262402D02*
X2570866D01*
X2529528Y278150D02*
X2588583D01*
X2529528Y246654D02*
X2588583D01*
Y278150D01*
X2529528Y246654D02*
Y278150D01*
X2559055Y300591D02*
Y324213D01*
X2547244Y312402D02*
X2570866D01*
X2529528Y328150D02*
X2588583D01*
X2529528Y296654D02*
X2588583D01*
Y328150D01*
X2529528Y296654D02*
Y328150D01*
X2559055Y350591D02*
Y374213D01*
X2547244Y362402D02*
X2570866D01*
X2529528Y378150D02*
X2588583D01*
X2529528Y346654D02*
X2588583D01*
Y378150D01*
X2529528Y346654D02*
Y378150D01*
X2559055Y400591D02*
Y424213D01*
X2547244Y412402D02*
X2570866D01*
X2529528Y428150D02*
X2588583D01*
X2529528Y396654D02*
X2588583D01*
Y428150D01*
X2529528Y396654D02*
Y428150D01*
X2559055Y450591D02*
Y474213D01*
X2547244Y462402D02*
X2570866D01*
X2529528Y478150D02*
X2588583D01*
X2529528Y446654D02*
X2588583D01*
Y478150D01*
X2529528Y446654D02*
Y478150D01*
X2559055Y500591D02*
Y524213D01*
X2547244Y512402D02*
X2570866D01*
X2529528Y528150D02*
X2588583D01*
X2529528Y496654D02*
X2588583D01*
Y528150D01*
X2529528Y496654D02*
Y528150D01*
X2559055Y550591D02*
Y574213D01*
X2547244Y562402D02*
X2570866D01*
X2529528Y578150D02*
X2588583D01*
X2529528Y546654D02*
X2588583D01*
Y578150D01*
X2529528Y546654D02*
Y578150D01*
X2559055Y600591D02*
Y624213D01*
X2547244Y612402D02*
X2570866D01*
X2529528Y628150D02*
X2588583D01*
X2529528Y596654D02*
X2588583D01*
Y628150D01*
X2529528Y596654D02*
Y628150D01*
X2559055Y650591D02*
Y674213D01*
X2547244Y662402D02*
X2570866D01*
X2529528Y678150D02*
X2588583D01*
X2529528Y646654D02*
X2588583D01*
Y678150D01*
X2529528Y646654D02*
Y678150D01*
X2559055Y700591D02*
Y724213D01*
X2547244Y712402D02*
X2570866D01*
X2529528Y728150D02*
X2588583D01*
X2529528Y696654D02*
X2588583D01*
Y728150D01*
X2529528Y696654D02*
Y728150D01*
X2559055Y750591D02*
Y774213D01*
X2547244Y762402D02*
X2570866D01*
X2529528Y778150D02*
X2588583D01*
X2529528Y746654D02*
X2588583D01*
Y778150D01*
X2529528Y746654D02*
Y778150D01*
X2559055Y800591D02*
Y824213D01*
X2547244Y812402D02*
X2570866D01*
X2529528Y828150D02*
X2588583D01*
X2529528Y796654D02*
X2588583D01*
Y828150D01*
X2529528Y796654D02*
Y828150D01*
X2559055Y850591D02*
Y874213D01*
X2547244Y862402D02*
X2570866D01*
X2529528Y878150D02*
X2588583D01*
X2529528Y846654D02*
X2588583D01*
Y878150D01*
X2529528Y846654D02*
Y878150D01*
X2559055Y900591D02*
Y924213D01*
X2547244Y912402D02*
X2570866D01*
X2529528Y928150D02*
X2588583D01*
X2529528Y896654D02*
X2588583D01*
Y928150D01*
X2529528Y896654D02*
Y928150D01*
X2559055Y950591D02*
Y974213D01*
X2547244Y962402D02*
X2570866D01*
X2529528Y978150D02*
X2588583D01*
X2529528Y946654D02*
X2588583D01*
Y978150D01*
X2529528Y946654D02*
Y978150D01*
X2559055Y1000591D02*
Y1024213D01*
X2547244Y1012402D02*
X2570866D01*
X2529528Y1028150D02*
X2588583D01*
X2529528Y996654D02*
X2588583D01*
Y1028150D01*
X2529528Y996654D02*
Y1028150D01*
X2559055Y1050591D02*
Y1074213D01*
X2547244Y1062402D02*
X2570866D01*
X2529528Y1078150D02*
X2588583D01*
X2529528Y1046654D02*
X2588583D01*
Y1078150D01*
X2529528Y1046654D02*
Y1078150D01*
X2559055Y1100591D02*
Y1124213D01*
X2547244Y1112402D02*
X2570866D01*
X2529528Y1128150D02*
X2588583D01*
X2529528Y1096654D02*
X2588583D01*
Y1128150D01*
X2529528Y1096654D02*
Y1128150D01*
X2559055Y1150591D02*
Y1174213D01*
X2547244Y1162402D02*
X2570866D01*
X2529528Y1178150D02*
X2588583D01*
X2529528Y1146654D02*
X2588583D01*
Y1178150D01*
X2529528Y1146654D02*
Y1178150D01*
X2559055Y1200591D02*
Y1224213D01*
X2547244Y1212402D02*
X2570866D01*
X2529528Y1228150D02*
X2588583D01*
X2529528Y1196654D02*
X2588583D01*
Y1228150D01*
X2529528Y1196654D02*
Y1228150D01*
X2559055Y1250591D02*
Y1274213D01*
X2547244Y1262402D02*
X2570866D01*
X2529528Y1278150D02*
X2588583D01*
X2529528Y1246654D02*
X2588583D01*
Y1278150D01*
X2529528Y1246654D02*
Y1278150D01*
X2559055Y1300591D02*
Y1324213D01*
X2547244Y1312402D02*
X2570866D01*
X2529528Y1328150D02*
X2588583D01*
X2529528Y1296654D02*
X2588583D01*
Y1328150D01*
X2529528Y1296654D02*
Y1328150D01*
X2559055Y1350591D02*
Y1374213D01*
X2547244Y1362402D02*
X2570866D01*
X2529528Y1378150D02*
X2588583D01*
X2529528Y1346654D02*
X2588583D01*
Y1378150D01*
X2529528Y1346654D02*
Y1378150D01*
X2952756Y200591D02*
Y224213D01*
X2940945Y212402D02*
X2964567D01*
X2923228Y196654D02*
X2982284D01*
X2923228Y228150D02*
X2982284D01*
X2923228Y196654D02*
Y228150D01*
X2982284Y196654D02*
Y228150D01*
X2952756Y250591D02*
Y274213D01*
X2940945Y262402D02*
X2964567D01*
X2923228Y246654D02*
X2982284D01*
X2923228Y278150D02*
X2982284D01*
X2923228Y246654D02*
Y278150D01*
X2982284Y246654D02*
Y278150D01*
X2952756Y300591D02*
Y324213D01*
X2940945Y312402D02*
X2964567D01*
X2923228Y296654D02*
X2982284D01*
X2923228Y328150D02*
X2982284D01*
X2923228Y296654D02*
Y328150D01*
X2982284Y296654D02*
Y328150D01*
X2952756Y350591D02*
Y374213D01*
X2940945Y362402D02*
X2964567D01*
X2923228Y346654D02*
X2982284D01*
X2923228Y378150D02*
X2982284D01*
X2923228Y346654D02*
Y378150D01*
X2982284Y346654D02*
Y378150D01*
X2952756Y400591D02*
Y424213D01*
X2940945Y412402D02*
X2964567D01*
X2923228Y396654D02*
X2982284D01*
X2923228Y428150D02*
X2982284D01*
X2923228Y396654D02*
Y428150D01*
X2982284Y396654D02*
Y428150D01*
X2952756Y450591D02*
Y474213D01*
X2940945Y462402D02*
X2964567D01*
X2923228Y446654D02*
X2982284D01*
X2923228Y478150D02*
X2982284D01*
X2923228Y446654D02*
Y478150D01*
X2982284Y446654D02*
Y478150D01*
X2952756Y500591D02*
Y524213D01*
X2940945Y512402D02*
X2964567D01*
X2923228Y496654D02*
X2982284D01*
X2923228Y528150D02*
X2982284D01*
X2923228Y496654D02*
Y528150D01*
X2982284Y496654D02*
Y528150D01*
X2952756Y550591D02*
Y574213D01*
X2940945Y562402D02*
X2964567D01*
X2923228Y546654D02*
X2982284D01*
X2923228Y578150D02*
X2982284D01*
X2923228Y546654D02*
Y578150D01*
X2982284Y546654D02*
Y578150D01*
X2952756Y800591D02*
Y824213D01*
X2940945Y812402D02*
X2964567D01*
X2923228Y796654D02*
X2982284D01*
X2923228Y828150D02*
X2982284D01*
X2923228Y796654D02*
Y828150D01*
X2982284Y796654D02*
Y828150D01*
X2952756Y750591D02*
Y774213D01*
X2940945Y762402D02*
X2964567D01*
X2923228Y746654D02*
X2982284D01*
X2923228Y778150D02*
X2982284D01*
X2923228Y746654D02*
Y778150D01*
X2982284Y746654D02*
Y778150D01*
X2952756Y700591D02*
Y724213D01*
X2940945Y712402D02*
X2964567D01*
X2923228Y696654D02*
X2982284D01*
X2923228Y728150D02*
X2982284D01*
X2923228Y696654D02*
Y728150D01*
X2982284Y696654D02*
Y728150D01*
X2952756Y650591D02*
Y674213D01*
X2940945Y662402D02*
X2964567D01*
X2923228Y646654D02*
X2982284D01*
X2923228Y678150D02*
X2982284D01*
X2923228Y646654D02*
Y678150D01*
X2982284Y646654D02*
Y678150D01*
X2952756Y1350591D02*
Y1374213D01*
X2940945Y1362402D02*
X2964567D01*
X2923228Y1346654D02*
X2982284D01*
X2923228Y1378150D02*
X2982284D01*
X2923228Y1346654D02*
Y1378150D01*
X2982284Y1346654D02*
Y1378150D01*
X2952756Y1300591D02*
Y1324213D01*
X2940945Y1312402D02*
X2964567D01*
X2923228Y1296654D02*
X2982284D01*
X2923228Y1328150D02*
X2982284D01*
X2923228Y1296654D02*
Y1328150D01*
X2982284Y1296654D02*
Y1328150D01*
X2952756Y1250591D02*
Y1274213D01*
X2940945Y1262402D02*
X2964567D01*
X2923228Y1246654D02*
X2982284D01*
X2923228Y1278150D02*
X2982284D01*
X2923228Y1246654D02*
Y1278150D01*
X2982284Y1246654D02*
Y1278150D01*
X2952756Y1200591D02*
Y1224213D01*
X2940945Y1212402D02*
X2964567D01*
X2923228Y1196654D02*
X2982284D01*
X2923228Y1228150D02*
X2982284D01*
X2923228Y1196654D02*
Y1228150D01*
X2982284Y1196654D02*
Y1228150D01*
X2952756Y1150591D02*
Y1174213D01*
X2940945Y1162402D02*
X2964567D01*
X2923228Y1146654D02*
X2982284D01*
X2923228Y1178150D02*
X2982284D01*
X2923228Y1146654D02*
Y1178150D01*
X2982284Y1146654D02*
Y1178150D01*
X2952756Y1100591D02*
Y1124213D01*
X2940945Y1112402D02*
X2964567D01*
X2923228Y1096654D02*
X2982284D01*
X2923228Y1128150D02*
X2982284D01*
X2923228Y1096654D02*
Y1128150D01*
X2982284Y1096654D02*
Y1128150D01*
X2952756Y1050591D02*
Y1074213D01*
X2940945Y1062402D02*
X2964567D01*
X2923228Y1046654D02*
X2982284D01*
X2923228Y1078150D02*
X2982284D01*
X2923228Y1046654D02*
Y1078150D01*
X2982284Y1046654D02*
Y1078150D01*
X2952756Y1000591D02*
Y1024213D01*
X2940945Y1012402D02*
X2964567D01*
X2923228Y996654D02*
X2982284D01*
X2923228Y1028150D02*
X2982284D01*
X2923228Y996654D02*
Y1028150D01*
X2982284Y996654D02*
Y1028150D01*
X590551Y1350590D02*
Y1374212D01*
X578740Y1362401D02*
X602362D01*
X561024Y1346653D02*
X620079D01*
X561024Y1378149D02*
X620079D01*
X561024Y1346653D02*
Y1378149D01*
X620079Y1346653D02*
Y1378149D01*
X590551Y1300590D02*
Y1324212D01*
X578740Y1312401D02*
X602362D01*
X561024Y1296653D02*
X620079D01*
X561024Y1328149D02*
X620079D01*
X561024Y1296653D02*
Y1328149D01*
X620079Y1296653D02*
Y1328149D01*
X590551Y1250590D02*
Y1274212D01*
X578740Y1262401D02*
X602362D01*
X561024Y1246653D02*
X620079D01*
X561024Y1278149D02*
X620079D01*
X561024Y1246653D02*
Y1278149D01*
X620079Y1246653D02*
Y1278149D01*
X590551Y1200590D02*
Y1224212D01*
X578740Y1212401D02*
X602362D01*
X561024Y1196653D02*
X620079D01*
X561024Y1228149D02*
X620079D01*
X561024Y1196653D02*
Y1228149D01*
X620079Y1196653D02*
Y1228149D01*
X590551Y1150590D02*
Y1174212D01*
X578740Y1162401D02*
X602362D01*
X561024Y1146653D02*
X620079D01*
X561024Y1178149D02*
X620079D01*
X561024Y1146653D02*
Y1178149D01*
X620079Y1146653D02*
Y1178149D01*
X590551Y1100591D02*
Y1124213D01*
X578740Y1112401D02*
X602362D01*
X561024Y1096653D02*
X620079D01*
X561024Y1128149D02*
X620079D01*
X561024Y1096653D02*
Y1128149D01*
X620079Y1096653D02*
Y1128149D01*
X590551Y1050591D02*
Y1074213D01*
X578740Y1062402D02*
X602362D01*
X561024Y1046653D02*
X620079D01*
X561024Y1078150D02*
X620079D01*
X561024Y1046653D02*
Y1078150D01*
X620079Y1046653D02*
Y1078150D01*
X590551Y1000591D02*
Y1024213D01*
X578740Y1012402D02*
X602362D01*
X561024Y996654D02*
X620079D01*
X561024Y1028150D02*
X620079D01*
X561024Y996654D02*
Y1028150D01*
X620079Y996654D02*
Y1028150D01*
X590551Y300591D02*
Y324213D01*
X578740Y312402D02*
X602362D01*
X561024Y296654D02*
X620079D01*
X561024Y328150D02*
X620079D01*
X561024Y296654D02*
Y328150D01*
X620079Y296654D02*
Y328150D01*
X590551Y250591D02*
Y274213D01*
X578740Y262402D02*
X602362D01*
X561024Y246654D02*
X620079D01*
X561024Y278150D02*
X620079D01*
X561024Y246654D02*
Y278150D01*
X620079Y246654D02*
Y278150D01*
X590551Y400591D02*
Y424213D01*
X578740Y412402D02*
X602362D01*
X561024Y396654D02*
X620079D01*
X561024Y428150D02*
X620079D01*
X561024Y396654D02*
Y428150D01*
X620079Y396654D02*
Y428150D01*
X590551Y350591D02*
Y374213D01*
X578740Y362402D02*
X602362D01*
X561024Y346654D02*
X620079D01*
X561024Y378150D02*
X620079D01*
X561024Y346654D02*
Y378150D01*
X620079Y346654D02*
Y378150D01*
X590551Y500591D02*
Y524213D01*
X578740Y512402D02*
X602362D01*
X561024Y496654D02*
X620079D01*
X561024Y528150D02*
X620079D01*
X561024Y496654D02*
Y528150D01*
X620079Y496654D02*
Y528150D01*
X590551Y450591D02*
Y474213D01*
X578740Y462402D02*
X602362D01*
X561024Y446654D02*
X620079D01*
X561024Y478150D02*
X620079D01*
X561024Y446654D02*
Y478150D01*
X620079Y446654D02*
Y478150D01*
X590551Y600591D02*
Y624213D01*
X578740Y612402D02*
X602362D01*
X561024Y596654D02*
X620079D01*
X561024Y628150D02*
X620079D01*
X561024Y596654D02*
Y628150D01*
X620079Y596654D02*
Y628150D01*
X590551Y550591D02*
Y574213D01*
X578740Y562402D02*
X602362D01*
X561024Y546654D02*
X620079D01*
X561024Y578150D02*
X620079D01*
X561024Y546654D02*
Y578150D01*
X620079Y546654D02*
Y578150D01*
X590551Y700591D02*
Y724213D01*
X578740Y712402D02*
X602362D01*
X561024Y696654D02*
X620079D01*
X561024Y728150D02*
X620079D01*
X561024Y696654D02*
Y728150D01*
X620079Y696654D02*
Y728150D01*
X590551Y650591D02*
Y674213D01*
X578740Y662402D02*
X602362D01*
X561024Y646654D02*
X620079D01*
X561024Y678150D02*
X620079D01*
X561024Y646654D02*
Y678150D01*
X620079Y646654D02*
Y678150D01*
X590551Y800591D02*
Y824213D01*
X578740Y812402D02*
X602362D01*
X561024Y796654D02*
X620079D01*
X561024Y828150D02*
X620079D01*
X561024Y796654D02*
Y828150D01*
X620079Y796654D02*
Y828150D01*
X590551Y750591D02*
Y774213D01*
X578740Y762402D02*
X602362D01*
X561024Y746654D02*
X620079D01*
X561024Y778150D02*
X620079D01*
X561024Y746654D02*
Y778150D01*
X620079Y746654D02*
Y778150D01*
X590551Y850591D02*
Y874213D01*
X578740Y862402D02*
X602362D01*
X561024Y846654D02*
X620079D01*
X561024Y878150D02*
X620079D01*
X561024Y846654D02*
Y878150D01*
X620079Y846654D02*
Y878150D01*
X590551Y900591D02*
Y924213D01*
X578740Y912402D02*
X602362D01*
X561024Y896654D02*
X620079D01*
X561024Y928150D02*
X620079D01*
X561024Y896654D02*
Y928150D01*
X620079Y896654D02*
Y928150D01*
X590551Y950591D02*
Y974213D01*
X578740Y962402D02*
X602362D01*
X561024Y946654D02*
X620079D01*
X561024Y978150D02*
X620079D01*
X561024Y946654D02*
Y978150D01*
X620079Y946654D02*
Y978150D01*
X196850Y1300591D02*
Y1324213D01*
X185039Y1312402D02*
X208661D01*
X167323Y1328150D02*
X226378D01*
X167323Y1296654D02*
X226378D01*
Y1328150D01*
X167323Y1296654D02*
Y1328150D01*
X196850Y1350591D02*
Y1374213D01*
X185039Y1362402D02*
X208661D01*
X167323Y1378150D02*
X226378D01*
X167323Y1346654D02*
X226378D01*
Y1378150D01*
X167323Y1346654D02*
Y1378150D01*
X2952756Y600591D02*
Y624213D01*
X2940945Y612402D02*
X2964567D01*
X2923228Y596654D02*
X2982284D01*
X2923228Y628150D02*
X2982284D01*
X2923228Y596654D02*
Y628150D01*
X2982284Y596654D02*
Y628150D01*
X2952756Y850591D02*
Y874213D01*
X2940945Y862402D02*
X2964567D01*
X2923228Y846654D02*
X2982284D01*
X2923228Y878150D02*
X2982284D01*
X2923228Y846654D02*
Y878150D01*
X2982284Y846654D02*
Y878150D01*
X2952756Y900591D02*
Y924213D01*
X2940945Y912402D02*
X2964567D01*
X2923228Y896654D02*
X2982284D01*
X2923228Y928150D02*
X2982284D01*
X2923228Y896654D02*
Y928150D01*
X2982284Y896654D02*
Y928150D01*
X2952756Y950591D02*
Y974213D01*
X2940945Y962402D02*
X2964567D01*
X2923228Y946654D02*
X2982284D01*
X2923228Y978150D02*
X2982284D01*
X2923228Y946654D02*
Y978150D01*
X2982284Y946654D02*
Y978150D01*
X1602189Y1550000D02*
X1625811D01*
X1614000Y1538189D02*
Y1561811D01*
X1648000Y1501000D02*
Y1599000D01*
X1582000D02*
X1648000D01*
X1582000Y1501000D02*
Y1599000D01*
Y1501000D02*
X1648000D01*
X2106299Y1312402D02*
Y1336024D01*
X2094488Y1324213D02*
X2118110D01*
X2081299Y1294213D02*
X2131299D01*
Y1354213D01*
X2081299D02*
X2131299D01*
X2081299Y1294213D02*
Y1354213D01*
X1948819Y1312402D02*
Y1336024D01*
X1937008Y1324213D02*
X1960630D01*
X1923819Y1294213D02*
X1973819D01*
Y1354213D01*
X1923819D02*
X1973819D01*
X1923819Y1294213D02*
Y1354213D01*
X2263780Y1315354D02*
Y1338976D01*
X2251968Y1327165D02*
X2275590D01*
X2238780Y1297165D02*
X2288780D01*
Y1357165D01*
X2238780D02*
X2288780D01*
X2238780Y1297165D02*
Y1357165D01*
X1838583Y741535D02*
X1862205D01*
X1850394Y729725D02*
Y753346D01*
X1866142Y712008D02*
Y771063D01*
X1834646Y712008D02*
Y771063D01*
Y712008D02*
X1866142D01*
X1834646Y771063D02*
X1866142D01*
X1523622Y675787D02*
X1547244D01*
X1535433Y663976D02*
Y687598D01*
X1551181Y646260D02*
Y705315D01*
X1519685Y646260D02*
Y705315D01*
Y646260D02*
X1551181D01*
X1519685Y705315D02*
X1551181D01*
X1523622Y826772D02*
X1547244D01*
X1535433Y814961D02*
Y838583D01*
X1551181Y797244D02*
Y856299D01*
X1519685Y797244D02*
Y856299D01*
Y797244D02*
X1551181D01*
X1519685Y856299D02*
X1551181D01*
X1566929Y826772D02*
X1590551D01*
X1578740Y814961D02*
Y838583D01*
X1594488Y797244D02*
Y856299D01*
X1562992Y797244D02*
Y856299D01*
Y797244D02*
X1594488D01*
X1562992Y856299D02*
X1594488D01*
X1829134Y1536319D02*
Y1567815D01*
X1770079Y1536319D02*
Y1567815D01*
X1829134D01*
X1770079Y1536319D02*
X1829134D01*
X1787795Y1552067D02*
X1811417D01*
X1799606Y1540256D02*
Y1563878D01*
X1829134Y1496654D02*
Y1528150D01*
X1770079Y1496654D02*
Y1528150D01*
X1829134D01*
X1770079Y1496654D02*
X1829134D01*
X1787795Y1512402D02*
X1811417D01*
X1799606Y1500591D02*
Y1524213D01*
X2076772Y1208465D02*
Y1239961D01*
X2135827Y1208465D02*
Y1239961D01*
X2076772Y1208465D02*
X2135827D01*
X2076772Y1239961D02*
X2135827D01*
X2094488Y1224213D02*
X2118110D01*
X2106299Y1212401D02*
Y1236024D01*
X1829134Y1575984D02*
Y1607480D01*
X1770079Y1575984D02*
Y1607480D01*
X1829134D01*
X1770079Y1575984D02*
X1829134D01*
X1787795Y1591732D02*
X1811417D01*
X1799606Y1579921D02*
Y1603543D01*
X1919291Y1208465D02*
Y1239961D01*
X1978347Y1208465D02*
Y1239961D01*
X1919291Y1208465D02*
X1978347D01*
X1919291Y1239961D02*
X1978347D01*
X1937008Y1224213D02*
X1960630D01*
X1948819Y1212401D02*
Y1236024D01*
X1838583Y225197D02*
X1862205D01*
X1850394Y213386D02*
Y237008D01*
X1866142Y195669D02*
Y254724D01*
X1834646Y195669D02*
Y254724D01*
Y195669D02*
X1866142D01*
X1834646Y254724D02*
X1866142D01*
X2234252Y1211417D02*
Y1242913D01*
X2293307Y1211417D02*
Y1242913D01*
X2234252Y1211417D02*
X2293307D01*
X2234252Y1242913D02*
X2293307D01*
X2251968Y1227165D02*
X2275590D01*
X2263780Y1215354D02*
Y1238976D01*
X1090354Y1574803D02*
X1113976D01*
X1102165Y1562992D02*
Y1586614D01*
X1086417Y1545275D02*
Y1604331D01*
X1117913Y1545275D02*
Y1604331D01*
X1086417D02*
X1117913D01*
X1086417Y1545275D02*
X1117913D01*
X1263583Y1574803D02*
X1287205D01*
X1275394Y1562992D02*
Y1586614D01*
X1259646Y1545275D02*
Y1604331D01*
X1291142Y1545275D02*
Y1604331D01*
X1259646D02*
X1291142D01*
X1259646Y1545275D02*
X1291142D01*
X1176968Y1574803D02*
X1200590D01*
X1188779Y1562992D02*
Y1586614D01*
X1173031Y1545275D02*
Y1604331D01*
X1204527Y1545275D02*
Y1604331D01*
X1173031D02*
X1204527D01*
X1173031Y1545275D02*
X1204527D01*
X1047047Y1574803D02*
X1070669D01*
X1058858Y1562992D02*
Y1586614D01*
X1043110Y1545275D02*
Y1604331D01*
X1074606Y1545275D02*
Y1604331D01*
X1043110D02*
X1074606D01*
X1043110Y1545275D02*
X1074606D01*
X1877953Y584449D02*
X1901575D01*
X1889764Y572638D02*
Y596260D01*
X1874016Y554921D02*
Y613976D01*
X1905512Y554921D02*
Y613976D01*
X1874016D02*
X1905512D01*
X1874016Y554921D02*
X1905512D01*
X1484252Y334449D02*
X1507874D01*
X1496063Y322638D02*
Y346260D01*
X1480315Y304921D02*
Y363976D01*
X1511811Y304921D02*
Y363976D01*
X1480315D02*
X1511811D01*
X1480315Y304921D02*
X1511811D01*
X948819Y696063D02*
X980315D01*
X948819Y755118D02*
X980315D01*
Y696063D02*
Y755118D01*
X948819Y696063D02*
Y755118D01*
X964567Y713779D02*
Y737402D01*
X952756Y725591D02*
X976378D01*
X1518504Y1062008D02*
Y1085630D01*
X1506693Y1073819D02*
X1530315D01*
X1488976Y1058071D02*
X1548032D01*
X1488976Y1089567D02*
X1548032D01*
X1488976Y1058071D02*
Y1089567D01*
X1548032Y1058071D02*
Y1089567D01*
X1518504Y1101378D02*
Y1125000D01*
X1506693Y1113189D02*
X1530315D01*
X1488976Y1097441D02*
X1548032D01*
X1488976Y1128937D02*
X1548032D01*
X1488976Y1097441D02*
Y1128937D01*
X1548032Y1097441D02*
Y1128937D01*
X2126772Y753937D02*
Y785433D01*
X2185827Y753937D02*
Y785433D01*
X2126772Y753937D02*
X2185827D01*
X2126772Y785433D02*
X2185827D01*
X2144488Y769685D02*
X2168110D01*
X2156299Y757874D02*
Y781496D01*
X2126772Y718504D02*
Y750000D01*
X2185827Y718504D02*
Y750000D01*
X2126772Y718504D02*
X2185827D01*
X2126772Y750000D02*
X2185827D01*
X2144488Y734252D02*
X2168110D01*
X2156299Y722441D02*
Y746063D01*
X2126772Y824803D02*
Y856299D01*
X2185827Y824803D02*
Y856299D01*
X2126772Y824803D02*
X2185827D01*
X2126772Y856299D02*
X2185827D01*
X2144488Y840551D02*
X2168110D01*
X2156299Y828740D02*
Y852362D01*
X2126772Y895669D02*
Y927165D01*
X2185827Y895669D02*
Y927165D01*
X2126772Y895669D02*
X2185827D01*
X2126772Y927165D02*
X2185827D01*
X2144488Y911417D02*
X2168110D01*
X2156299Y899606D02*
Y923228D01*
X1837795Y868898D02*
Y900394D01*
X1896850Y868898D02*
Y900394D01*
X1837795Y868898D02*
X1896850D01*
X1837795Y900394D02*
X1896850D01*
X1855512Y884646D02*
X1879134D01*
X1867323Y872835D02*
Y896457D01*
X1837795Y794095D02*
Y825591D01*
X1896850Y794095D02*
Y825591D01*
X1837795Y794095D02*
X1896850D01*
X1837795Y825591D02*
X1896850D01*
X1855512Y809843D02*
X1879134D01*
X1867323Y798032D02*
Y821654D01*
X1548032Y1258465D02*
Y1289961D01*
X1488976Y1258465D02*
Y1289961D01*
X1548032D01*
X1488976Y1258465D02*
X1548032D01*
X1506693Y1274213D02*
X1530315D01*
X1518504Y1262402D02*
Y1286024D01*
X1548032Y1208465D02*
Y1239961D01*
X1488976Y1208465D02*
Y1239961D01*
X1548032D01*
X1488976Y1208465D02*
X1548032D01*
X1506693Y1224213D02*
X1530315D01*
X1518504Y1212402D02*
Y1236024D01*
X1604331Y708661D02*
X1627953D01*
X1616142Y696850D02*
Y720472D01*
X1676142Y643661D02*
Y772661D01*
X1556142D02*
X1676142D01*
X1556142Y643661D02*
Y772661D01*
Y643661D02*
X1676142D01*
X2247984Y515551D02*
Y665551D01*
X2002984Y515551D02*
X2247984D01*
X2002984D02*
Y665551D01*
X2247984D01*
X2114173Y589551D02*
X2137795D01*
X2125984Y577740D02*
Y601362D01*
X167323Y246654D02*
Y278150D01*
X226378Y246654D02*
Y278150D01*
X167323Y246654D02*
X226378D01*
X167323Y278150D02*
X226378D01*
X185039Y262402D02*
X208661D01*
X196850Y250591D02*
Y274213D01*
X167323Y296654D02*
Y328150D01*
X226378Y296654D02*
Y328150D01*
X167323Y296654D02*
X226378D01*
X167323Y328150D02*
X226378D01*
X185039Y312402D02*
X208661D01*
X196850Y300591D02*
Y324213D01*
X167323Y346654D02*
Y378150D01*
X226378Y346654D02*
Y378150D01*
X167323Y346654D02*
X226378D01*
X167323Y378150D02*
X226378D01*
X185039Y362402D02*
X208661D01*
X196850Y350591D02*
Y374213D01*
X167323Y396654D02*
Y428150D01*
X226378Y396654D02*
Y428150D01*
X167323Y396654D02*
X226378D01*
X167323Y428150D02*
X226378D01*
X185039Y412402D02*
X208661D01*
X196850Y400591D02*
Y424213D01*
X167323Y446654D02*
Y478150D01*
X226378Y446654D02*
Y478150D01*
X167323Y446654D02*
X226378D01*
X167323Y478150D02*
X226378D01*
X185039Y462402D02*
X208661D01*
X196850Y450591D02*
Y474213D01*
X167323Y496654D02*
Y528150D01*
X226378Y496654D02*
Y528150D01*
X167323Y496654D02*
X226378D01*
X167323Y528150D02*
X226378D01*
X185039Y512402D02*
X208661D01*
X196850Y500591D02*
Y524213D01*
X167323Y546654D02*
Y578150D01*
X226378Y546654D02*
Y578150D01*
X167323Y546654D02*
X226378D01*
X167323Y578150D02*
X226378D01*
X185039Y562402D02*
X208661D01*
X196850Y550591D02*
Y574213D01*
%TF.MD5,c74328db168c1c6b05b08d9917a26700*%
M02*
