%TF.GenerationSoftware,Altium Limited,Altium Designer,20.0.13 (296)*%
G04 Layer_Color=128*
%FSLAX26Y26*%
%MOIN*%
%TF.FileFunction,Drillmap*%
%TF.Part,Single*%
G01*
G75*
%TA.AperFunction,NonConductor*%
%ADD93C,0.005000*%
D93*
X1595472Y1361220D02*
X1603346D01*
X1599409Y1357284D02*
Y1365158D01*
X815945Y1056102D02*
X823819D01*
X819882Y1052165D02*
Y1060039D01*
X420276Y1388780D02*
X428150D01*
X424213Y1384842D02*
Y1392716D01*
X195866Y1169291D02*
X203740D01*
X199803Y1165354D02*
Y1173228D01*
X191929Y825787D02*
X199803D01*
X195866Y821850D02*
Y829724D01*
X322835Y163386D02*
X330709D01*
X326772Y159449D02*
Y167323D01*
X663386Y341535D02*
X671260D01*
X667323Y337598D02*
Y345472D01*
X746063Y572835D02*
X753937D01*
X750000Y568898D02*
Y576772D01*
X1460630Y705709D02*
X1468504D01*
X1464567Y701772D02*
Y709646D01*
X1655512Y1098425D02*
X1663386D01*
X1659449Y1094488D02*
Y1102362D01*
X1454724Y1044291D02*
X1462598D01*
X1458661Y1040354D02*
Y1048228D01*
X1781496Y708661D02*
X1789370D01*
X1785433Y704724D02*
Y712598D01*
X1840551Y846457D02*
X1848425D01*
X1844488Y842520D02*
Y850394D01*
Y939961D02*
X1852362D01*
X1848425Y936024D02*
Y943898D01*
X1932087Y953740D02*
X1939961D01*
X1936024Y949803D02*
Y957677D01*
X2098425Y1129921D02*
X2106299D01*
X2102362Y1125984D02*
Y1133858D01*
X2368110Y1134842D02*
X2375984D01*
X2372047Y1130906D02*
Y1138780D01*
X2821850Y1322835D02*
X2829724D01*
X2825787Y1318898D02*
Y1326772D01*
X2635827Y1174213D02*
X2643701D01*
X2639764Y1170276D02*
Y1178150D01*
X2703740Y978346D02*
X2711614D01*
X2707677Y974409D02*
Y982284D01*
X2709646Y748032D02*
X2717520D01*
X2713583Y744095D02*
Y751968D01*
X2843504Y143701D02*
X2851378D01*
X2847441Y139764D02*
Y147638D01*
X2637795Y573819D02*
X2645669D01*
X2641732Y569882D02*
Y577756D01*
X2668307Y405512D02*
X2676181D01*
X2672244Y401575D02*
Y409449D01*
X2397638Y128937D02*
X2405512D01*
X2401575Y125000D02*
Y132874D01*
X2506890Y122047D02*
X2514764D01*
X2510827Y118110D02*
Y125984D01*
X2105315Y79724D02*
X2113189D01*
X2109252Y75787D02*
Y83661D01*
X1776575Y174213D02*
X1784449D01*
X1780512Y170276D02*
Y178150D01*
X1560039Y162402D02*
X1567913D01*
X1563976Y158465D02*
Y166339D01*
X1442913Y38386D02*
X1450787D01*
X1446850Y34449D02*
Y42323D01*
X1167323Y210630D02*
X1175197D01*
X1171260Y206693D02*
Y214567D01*
X2220472Y336122D02*
X2228346D01*
X2224409Y332185D02*
Y340059D01*
X1553150Y711614D02*
X1561024D01*
X1557087Y707677D02*
Y715551D01*
X1119304Y548477D02*
X1127178D01*
X1123241Y544540D02*
Y552414D01*
X1216535Y566929D02*
X1224409D01*
X1220473Y562992D02*
Y570866D01*
X1098425Y566929D02*
X1106299D01*
X1102362Y562992D02*
Y570866D01*
X1137289Y566929D02*
X1145163D01*
X1141226Y562992D02*
Y570866D01*
X1177165Y566929D02*
X1185039D01*
X1181102Y562992D02*
Y570866D01*
X980315Y241142D02*
X988189D01*
X984252Y237205D02*
Y245079D01*
X1098425Y241142D02*
X1106299D01*
X1102362Y237205D02*
Y245079D01*
X2527559Y562402D02*
X2535433D01*
X2531496Y558465D02*
Y566339D01*
X2220472Y213583D02*
X2228346D01*
X2224409Y209646D02*
Y217520D01*
X2274070Y59055D02*
X2281945D01*
X2278008Y55118D02*
Y62992D01*
X2832677Y262402D02*
X2840551D01*
X2836614Y258465D02*
Y266339D01*
X2830709Y312402D02*
X2838582D01*
X2834646Y308465D02*
Y316339D01*
X2830709Y612402D02*
X2838582D01*
X2834646Y608465D02*
Y616339D01*
X2185039Y501969D02*
X2192913D01*
X2188976Y498032D02*
Y505906D01*
X2225394Y575787D02*
X2233268D01*
X2229331Y571850D02*
Y579724D01*
X2225394Y500000D02*
X2233268D01*
X2229331Y496063D02*
Y503937D01*
X2112205Y500000D02*
X2120079D01*
X2116142Y496063D02*
Y503937D01*
X1815945Y575787D02*
X1823819D01*
X1819882Y571850D02*
Y579724D01*
X1643701Y351378D02*
X1651575D01*
X1647638Y347441D02*
Y355315D01*
X2159449Y531496D02*
X2167323D01*
X2163386Y527559D02*
Y535433D01*
X1612205Y500000D02*
X1620079D01*
X1616142Y496063D02*
Y503937D01*
X1009550Y354584D02*
X1017424D01*
X1013487Y350647D02*
Y358521D01*
X1454961Y196850D02*
X1462835D01*
X1458898Y192913D02*
Y200787D01*
X1454961Y157480D02*
X1462835D01*
X1458898Y153543D02*
Y161417D01*
X2830780Y211237D02*
X2838654D01*
X2834717Y207300D02*
Y215174D01*
X2830709Y362402D02*
X2838582D01*
X2834646Y358465D02*
Y366339D01*
X2830709Y512402D02*
X2838582D01*
X2834646Y508465D02*
Y516339D01*
X2830709Y562402D02*
X2838582D01*
X2834646Y558465D02*
Y566339D01*
X2830709Y412402D02*
X2838582D01*
X2834646Y408465D02*
Y416339D01*
X2830709Y462402D02*
X2838582D01*
X2834646Y458465D02*
Y466339D01*
X1157480Y547284D02*
X1165354D01*
X1161417Y543346D02*
Y551221D01*
X1196850Y547284D02*
X1204724D01*
X1200787Y543346D02*
Y551221D01*
X1078740Y547284D02*
X1086614D01*
X1082677Y543346D02*
Y551221D01*
X311024Y562402D02*
X318898D01*
X314961Y558465D02*
Y566339D01*
X311024Y412402D02*
X318898D01*
X314961Y408465D02*
Y416339D01*
X468504Y1012402D02*
X476378D01*
X472441Y1008465D02*
Y1016339D01*
X1433110Y551181D02*
X1440984D01*
X1437047Y547244D02*
Y555118D01*
X2527559Y262402D02*
X2535433D01*
X2531496Y258465D02*
Y266339D01*
X2527559Y312402D02*
X2535433D01*
X2531496Y308465D02*
Y316339D01*
X2527559Y362402D02*
X2535433D01*
X2531496Y358465D02*
Y366339D01*
X2527559Y412402D02*
X2535433D01*
X2531496Y408465D02*
Y416339D01*
X2527559Y462402D02*
X2535433D01*
X2531496Y458465D02*
Y466339D01*
X2527559Y512402D02*
X2535433D01*
X2531496Y508465D02*
Y516339D01*
X2527559Y612402D02*
X2535433D01*
X2531496Y608465D02*
Y616339D01*
X657480Y462402D02*
X665354D01*
X661417Y458465D02*
Y466339D01*
X989904Y334899D02*
X997778D01*
X993841Y330962D02*
Y338836D01*
X657480Y512402D02*
X665354D01*
X661417Y508465D02*
Y516339D01*
X469488Y1063579D02*
X477362D01*
X473425Y1059641D02*
Y1067515D01*
X1078740Y221496D02*
X1086614D01*
X1082677Y217559D02*
Y225433D01*
X1059055Y241142D02*
X1066929D01*
X1062992Y237205D02*
Y245079D01*
X1039877Y221496D02*
X1047751D01*
X1043814Y217559D02*
Y225433D01*
X1019685Y241142D02*
X1027559D01*
X1023622Y237205D02*
Y245079D01*
X1000000Y221496D02*
X1007874D01*
X1003937Y217559D02*
Y225433D01*
X960630Y221496D02*
X968504D01*
X964567Y217559D02*
Y225433D01*
X1433110Y472441D02*
X1440984D01*
X1437047Y468504D02*
Y476378D01*
X1433110Y511811D02*
X1440984D01*
X1437047Y507874D02*
Y515748D01*
X311024Y912402D02*
X318898D01*
X314961Y908465D02*
Y916339D01*
X311024Y962402D02*
X318898D01*
X314961Y958465D02*
Y966339D01*
X311024Y1012402D02*
X318898D01*
X314961Y1008465D02*
Y1016339D01*
X311024Y1062402D02*
X318898D01*
X314961Y1058465D02*
Y1066339D01*
X311024Y1112402D02*
X318898D01*
X314961Y1108465D02*
Y1116339D01*
X311024Y1162402D02*
X318898D01*
X314961Y1158465D02*
Y1166339D01*
X311024Y1212402D02*
X318898D01*
X314961Y1208465D02*
Y1216339D01*
X311024Y1262402D02*
X318898D01*
X314961Y1258465D02*
Y1266339D01*
X1255906Y161378D02*
X1263780D01*
X1259843Y157441D02*
Y165315D01*
X1236221Y141732D02*
X1244095D01*
X1240158Y137795D02*
Y145669D01*
X1216535Y161378D02*
X1224409D01*
X1220473Y157441D02*
Y165315D01*
X1197357Y141732D02*
X1205231D01*
X1201294Y137795D02*
Y145669D01*
X1177166Y161378D02*
X1185040D01*
X1181102Y157441D02*
Y165315D01*
X1157480Y141732D02*
X1165354D01*
X1161417Y137795D02*
Y145669D01*
X1137795Y161378D02*
X1145669D01*
X1141732Y157441D02*
Y165315D01*
X1118110Y141732D02*
X1125984D01*
X1122047Y137795D02*
Y145669D01*
X1454961Y118110D02*
X1462835D01*
X1458898Y114173D02*
Y122047D01*
X1334646Y37165D02*
X1342520D01*
X1338583Y33228D02*
Y41102D01*
X1374016Y37165D02*
X1381890D01*
X1377953Y33228D02*
Y41102D01*
X311024Y612402D02*
X318898D01*
X314961Y608465D02*
Y616339D01*
X311024Y512402D02*
X318898D01*
X314961Y508465D02*
Y516339D01*
X311024Y462402D02*
X318898D01*
X314961Y458465D02*
Y466339D01*
X311024Y362402D02*
X318898D01*
X314961Y358465D02*
Y366339D01*
X311024Y312402D02*
X318898D01*
X314961Y308465D02*
Y316339D01*
X311024Y262402D02*
X318898D01*
X314961Y258465D02*
Y266339D01*
X1433110Y177165D02*
X1440984D01*
X1437047Y173228D02*
Y181102D01*
X1433110Y137795D02*
X1440984D01*
X1437047Y133858D02*
Y141732D01*
X1354331Y59016D02*
X1362205D01*
X1358268Y55079D02*
Y62953D01*
X1452756Y413386D02*
X1460630D01*
X1456693Y409449D02*
Y417323D01*
X1433110Y433071D02*
X1440984D01*
X1437047Y429134D02*
Y437008D01*
X1452756Y452756D02*
X1460630D01*
X1456693Y448819D02*
Y456693D01*
X1452756Y492633D02*
X1460630D01*
X1456693Y488696D02*
Y496570D01*
X1452756Y531496D02*
X1460630D01*
X1456693Y527559D02*
Y535433D01*
X468504Y1112401D02*
X476378D01*
X472441Y1108465D02*
Y1116339D01*
X468504Y1162401D02*
X476378D01*
X472441Y1158464D02*
Y1166338D01*
X468504Y1212401D02*
X476378D01*
X472441Y1208464D02*
Y1216338D01*
X468504Y1262401D02*
X476378D01*
X472441Y1258464D02*
Y1266338D01*
X468504Y1312401D02*
X476378D01*
X472441Y1308464D02*
Y1316338D01*
X468504Y1362401D02*
X476378D01*
X472441Y1358464D02*
Y1366338D01*
%TF.MD5,27ea5a2af271fd903641c3449293f7d7*%
M02*
