M48
;Layer_Color=9474304
;FILE_FORMAT=2:5
INCH,LZ
;TYPE=PLATED
T1F00S00C0.00787
%
T01
X0182087Y0002756
X0192224Y0003051
X0192618Y0011811
X0195955Y0014764
Y0008858
X0197835Y-0000984
X0214173Y0007677
X0214469Y0020177
X0227362Y0020965
X0229921
X0233366
X0243199Y0014764
Y0009874
X0242323Y0002362
X0246406Y0003851
X0253346Y-0000984
X0238189
X0233268Y0002435
X0230512
X0227362
X0262598Y0010335
X0262402Y0021752
X0269587Y0018799
X0272855Y0020965
X0276575
X0279043Y0021012
X028248Y0021181
X0283366Y0033661
X0278346Y0039114
Y0046201
X027126
Y0039114
X0264173
Y0046201
X0257087
X0263878Y0053248
X0261122Y0069587
X0286614Y0063917
X0285138Y0058957
X0285433Y0046201
X0298622Y0046752
X0304161Y0032677
X0310937Y0032685
X030876Y0024311
X0290571Y0014
Y0007874
X0287402Y000502
X0284449Y0002372
X0279478Y0002461
X0276575Y0002372
X0273667
X0271358Y0005709
X0290354Y-0001378
X0311811Y0058563
X0301181Y006989
X0214567Y0039114
X020748
X0200394
X0193307
X0186221Y0039114
X0179134Y0049744
X0180131Y0020997
X0182887Y0020984
X0177028Y000502
X0156496Y0019488
X0136555Y001811
X0133465Y0016142
X0126378Y0013453
X0120866Y0008661
X0114173Y0014902
X0110236
X011752Y0024409
X0133465Y0027608
X0143209Y0009744
X0110138Y0037992
X0106102Y0041535
X0103032Y0057087
X0096614Y0055
X007874Y0055118
Y0059055
X0084547Y00625
X0077854Y0070374
X0072342Y005315
X007874Y003937
Y0035433
X0070177Y0033957
X0064173Y002628
X005878Y0031309
X003937Y0027559
X0042717Y003937
X0052165Y0048094
X0049213Y0063484
X0034547Y0063878
X0085335Y004065
X0092795Y0035433
X0077756Y0012894
X011063Y0066929
X0131595Y0066634
X0002953Y008248
X0034252Y008184
X0047894Y0082579
Y0074902
X0054921Y0079134
X0062343Y0082579
X0047539Y0090453
X0048327Y0099213
X003937Y0106299
X0030807Y0129921
X0035236Y0153248
X0065551Y0145177
X0080315Y013061
X0099921Y0129921
X0102165Y0125295
X0099921Y011811
X0115669
X0117913Y0125591
X0115669Y0129871
X0131417Y0129921
X0132087Y0125492
X0137992Y0125787
X0143405Y0120276
X0151673Y012313
X0147165Y0110236
X0141339Y0104528
X0138583Y01
X0144882
Y0088976
X0138583
X0131309Y0090463
X0135945Y0082441
X0138583Y0075197
X0144882
X0148622
X0130905Y0074803
X0124291Y0075
X0115354
X0108543
X0100591Y0075492
X0092795Y0075
X0099705Y0090354
X0115561Y0090463
X0078347Y0089961
X0072736Y0108957
X0131417Y011811
X0122441Y0146555
X0153543Y0095276
X0162303Y0085236
X0173327Y0072244
X0193307Y0081634
X0186221Y0095807
Y0102894
X0186811Y010935
X0186221Y0124153
X0207382Y013061
X0210925Y0109449
X0210531Y0099114
X0233366Y0092716
X0261024Y0086516
X0260728Y0104921
X026063Y013124
X027126
X0283957Y0134646
X0298524Y0123721
X0301831Y0116339
X0306831
X0308661Y0076531
X0286024Y0087205
X0285925Y0094882
M30
