M48
;Layer_Color=9474304
;FILE_FORMAT=2:5
INCH,LZ
;TYPE=PLATED
T1F00S00C0.00787
T2F00S00C0.01968
T3F00S00C0.11811
%
T01
X0206102Y0147736
X0210039
X0213976
X0217913
X022185
X0225787
X0229724
X0233661
Y015561
X022185
X0217913
X0206102
T02
X0181103Y-0007874
X018504
X0188977
X0192914
X0196851
X0200788
X0204725
X0208662
X0212599
X0216536
X0220473
X022441
X0228347
X0232284
X0236221
X0240158
X0244095
X0248032
X0251969
X0255906
X0259843
X026378
X0267717
X0271654
X0275591
X0279528
X0283465
X0287402
X0291339
X0295276
X0299213
X030315
X0307087
X0322835Y0007874
Y0011811
Y0015748
Y0019685
Y0023622
Y0027559
Y0031496
Y0035433
Y003937
Y0043307
Y0047244
Y0051181
Y0055118
Y0059055
Y0062992
Y0066929
Y0070866
X0177166Y-0007874
X0173229
X0169292
X0165355
X0161418
X0157481
X0153544
X0149607
X014567
X0141733
X0137796
X0133859
X0129922
X0125985
X0122048
X0118111
X0114174
X0110237
X01063
X0102363
X0098426
X0094489
X0090552
X0086615
X0082678
X0078741
X0074804
X0070867
X006693
X0062993
X0059056
X0055119
X0051182
X0047245
X0043308
X0039371
X0035434
X0031497
X002756
X0023623
X0019686
X0015749
X0011812
X0007875
X-0007874Y0007874
Y0011811
Y0015748
Y0019685
Y0023622
Y0027559
Y0031496
Y0035433
Y003937
Y0043307
Y0047244
Y0051181
Y0055118
Y0059055
Y0062992
Y0066929
Y0070866
Y0074803
Y007874
Y0082677
Y0086614
Y0090551
Y0094488
Y0098425
Y0102362
Y0106299
Y0110236
Y0114173
Y011811
Y0122047
Y0125984
Y0129921
Y0133858
Y0137795
Y0141732
Y0145669
Y0149606
X0007874Y0165354
X0011811
X0015748
X0019685
X0023622
X0027559
X0031496
X0035433
X003937
X0043307
X0047244
X0051181
X0055118
X0059055
X0062992
X0066929
X0070866
X0074803
X007874
X0082677
X0086614
X0090551
X0094488
X0098425
X0102362
X0106299
X0110236
X0114173
X011811
X0122047
X0125984
X0129921
X0133858
X0137795
X0141732
X0145669
X0149606
X0153543
X015748
X0161417
X0165354
X0169291
X0173228
X0177165
X0181102
X0185039
X0188976
X0192913
X019685
X0200787
X0204724
X0208661
X0212598
X0216535
X0220472
X0224409
X0228346
X0232283
X023622
X0240157
X0244094
X0248031
X0251968
X0255905
X0259842
X0263779
X0267716
X0271653
X027559
X0279527
X0283464
X0287401
X0291338
X0295275
X0299212
X0303149
X0307086
X0322835Y0149606
Y0145669
Y0141732
Y0137795
Y0133858
Y0129921
Y0125984
Y0122047
Y011811
Y0114173
Y0110236
Y0106299
Y0102362
Y0098425
Y0094488
Y0090551
Y0086614
Y0082677
Y007874
Y0074803
T03
X0314961Y0
X0
Y015748
X0314961
M30
