M48
;Layer_Color=9474304
;FILE_FORMAT=2:5
INCH,LZ
;TYPE=PLATED
T1F00S00C0.00787
%
T01
X0210925Y0007972
X0227801Y0005906
X0240158Y0012894
X0251083Y0012205
X025315Y002624
Y003124
Y003624
Y004124
Y004624
Y005124
Y005624
Y006124
X0264173Y0057382
X0267224Y0040551
X0283465Y004124
Y003624
Y003124
X0283661Y002624
X0283472Y0021124
X0284744Y001437
X0283465Y004624
Y005124
Y005624
Y006124
X0222933Y0057579
Y005
X0218898Y0050197
X0216339Y005315
X0211614Y005
X0222441Y0033612
Y0021358
X0181988Y0057579
X0178543Y0070866
X0155709Y0071161
X0146457Y0070571
X0143705Y0055118
X0145669Y005315
Y0049263
X0143705Y0051181
Y0047244
X0145669Y0045276
X0143705Y0043307
X0145669Y0041339
X014589Y0019685
Y0015748
Y0011811
X0143705Y001378
Y0017717
X0156398Y001624
X0178051Y0017421
X0164764Y0035138
X0161614Y005
X0122047Y0056693
X0120079Y0054728
X011811Y0056693
X0116142Y0054728
X0112324Y0054848
X0114123Y0056693
X0110236
X0108268Y0054728
X0101349Y0035458
X0099384Y003349
X0098425Y0024114
X0100394Y002215
X0102362Y0024114
X0106299
X0104381Y002215
X0108268
X0110236Y0024114
X0117126Y0021063
X011811Y0016138
X0116142Y0014173
X0114173Y0016138
X0112205Y0014173
X0120129
X0122047Y0016138
X0124016Y0014173
X0125984Y0016138
X0135827Y0005902
X0133858Y0003717
X0137795
X0144685Y0003839
X0096457Y002215
X0066732Y0034154
X0066142Y004624
Y005124
X0075Y0057284
X0031496Y005624
Y006124
X0031496Y005124
X0031496Y004624
Y004124
Y003624
Y003124
X0031496Y002624
X0032677Y0016339
X0019587Y0082579
X001998Y0116929
X0031496Y011624
Y011124
X0031496Y010624
X0031496Y010124
Y009624
Y009124
X0047244Y010124
X0047343Y0106358
X0047244Y011124
Y011624
Y012124
Y012624
X0047244Y013124
X0047244Y013624
X0042421Y0138878
X0031496Y012624
Y012124
X0081988Y010561
X0145866Y0104429
X0165945Y0109843
X0159941Y0136122
X0184843Y0093996
X0184449Y0084646
X0193602Y0095374
X0210236Y0112992
X0237205Y0113484
X0263976Y0117421
X0270768Y0097835
X0271358Y0074803
X0282579Y0132283
M30
