G04*
G04 #@! TF.GenerationSoftware,Altium Limited,Altium Designer,20.0.13 (296)*
G04*
G04 Layer_Color=16711935*
%FSLAX25Y25*%
%MOIN*%
G70*
G01*
G75*
%ADD10C,0.00787*%
%ADD11C,0.00394*%
%ADD12C,0.03937*%
%ADD15C,0.00500*%
%ADD18C,0.00197*%
%ADD19C,0.01000*%
%ADD20C,0.00079*%
%ADD21C,0.00394*%
G36*
X519893Y210006D02*
Y210002D01*
Y209992D01*
Y209976D01*
X519891Y209955D01*
Y209930D01*
X519889Y209901D01*
X519887Y209868D01*
X519884Y209831D01*
X519880Y209794D01*
X519875Y209754D01*
X519863Y209673D01*
X519845Y209594D01*
X519835Y209558D01*
X519823Y209523D01*
Y209521D01*
X519819Y209516D01*
X519816Y209505D01*
X519809Y209493D01*
X519802Y209477D01*
X519791Y209460D01*
X519781Y209440D01*
X519767Y209419D01*
X519751Y209397D01*
X519732Y209374D01*
X519712Y209349D01*
X519690Y209325D01*
X519663Y209300D01*
X519637Y209278D01*
X519607Y209253D01*
X519574Y209232D01*
X519572Y209230D01*
X519565Y209227D01*
X519557Y209222D01*
X519541Y209215D01*
X519523Y209206D01*
X519502Y209197D01*
X519478Y209187D01*
X519448Y209176D01*
X519417Y209166D01*
X519382Y209155D01*
X519341Y209146D01*
X519301Y209138D01*
X519256Y209131D01*
X519208Y209125D01*
X519158Y209122D01*
X519103Y209120D01*
X519075D01*
X519056Y209122D01*
X519032Y209124D01*
X519004Y209125D01*
X518974Y209129D01*
X518939Y209133D01*
X518904Y209138D01*
X518865Y209143D01*
X518788Y209160D01*
X518750Y209173D01*
X518711Y209185D01*
X518675Y209199D01*
X518640Y209216D01*
X518638Y209218D01*
X518633Y209222D01*
X518622Y209227D01*
X518610Y209234D01*
X518596Y209244D01*
X518578Y209257D01*
X518561Y209273D01*
X518542Y209288D01*
X518521Y209308D01*
X518500Y209329D01*
X518477Y209351D01*
X518456Y209378D01*
X518437Y209405D01*
X518417Y209435D01*
X518400Y209467D01*
X518384Y209500D01*
Y209502D01*
X518381Y209509D01*
X518377Y209519D01*
X518372Y209533D01*
X518367Y209553D01*
X518360Y209575D01*
X518353Y209601D01*
X518346Y209633D01*
X518339Y209666D01*
X518332Y209705D01*
X518325Y209747D01*
X518319Y209792D01*
X518314Y209840D01*
X518311Y209892D01*
X518309Y209948D01*
X518307Y210006D01*
Y211171D01*
X518575D01*
Y210008D01*
Y210004D01*
Y209995D01*
Y209983D01*
Y209964D01*
X518577Y209943D01*
Y209918D01*
X518578Y209890D01*
X518580Y209860D01*
X518587Y209798D01*
X518594Y209735D01*
X518601Y209703D01*
X518606Y209673D01*
X518613Y209645D01*
X518622Y209621D01*
Y209619D01*
X518624Y209615D01*
X518627Y209609D01*
X518631Y209600D01*
X518638Y209589D01*
X518643Y209579D01*
X518662Y209551D01*
X518685Y209519D01*
X518713Y209488D01*
X518748Y209456D01*
X518790Y209428D01*
X518792D01*
X518795Y209425D01*
X518802Y209423D01*
X518811Y209418D01*
X518823Y209413D01*
X518837Y209407D01*
X518853Y209402D01*
X518871Y209395D01*
X518892Y209388D01*
X518913Y209383D01*
X518937Y209378D01*
X518963Y209372D01*
X519019Y209365D01*
X519081Y209362D01*
X519093D01*
X519109Y209364D01*
X519128D01*
X519152Y209365D01*
X519180Y209369D01*
X519210Y209372D01*
X519243Y209379D01*
X519277Y209386D01*
X519312Y209395D01*
X519347Y209405D01*
X519382Y209418D01*
X519415Y209434D01*
X519445Y209451D01*
X519474Y209472D01*
X519499Y209495D01*
X519501Y209496D01*
X519504Y209502D01*
X519511Y209509D01*
X519518Y209521D01*
X519529Y209537D01*
X519539Y209558D01*
X519550Y209580D01*
X519562Y209609D01*
X519574Y209642D01*
X519585Y209679D01*
X519595Y209720D01*
X519606Y209768D01*
X519613Y209819D01*
X519620Y209876D01*
X519623Y209939D01*
X519625Y210008D01*
Y211171D01*
X519893D01*
Y210006D01*
D02*
G37*
G36*
X522847Y209864D02*
X523120D01*
Y209636D01*
X522847D01*
Y209154D01*
X522598D01*
Y209636D01*
X521723D01*
Y209864D01*
X522644Y211171D01*
X522847D01*
Y209864D01*
D02*
G37*
G36*
X520934Y211176D02*
X520953D01*
X520978Y211173D01*
X521007Y211170D01*
X521039Y211164D01*
X521072Y211159D01*
X521109Y211150D01*
X521146Y211140D01*
X521184Y211126D01*
X521223Y211110D01*
X521261Y211092D01*
X521298Y211070D01*
X521333Y211045D01*
X521366Y211017D01*
X521368Y211016D01*
X521373Y211010D01*
X521382Y211001D01*
X521392Y210989D01*
X521406Y210974D01*
X521420Y210954D01*
X521434Y210931D01*
X521452Y210907D01*
X521468Y210879D01*
X521482Y210849D01*
X521497Y210816D01*
X521510Y210781D01*
X521520Y210744D01*
X521529Y210704D01*
X521534Y210662D01*
X521536Y210618D01*
Y210616D01*
Y210613D01*
Y210606D01*
Y210597D01*
X521534Y210587D01*
Y210573D01*
X521529Y210543D01*
X521524Y210506D01*
X521515Y210466D01*
X521503Y210422D01*
X521485Y210379D01*
Y210377D01*
X521483Y210373D01*
X521480Y210366D01*
X521476Y210359D01*
X521471Y210347D01*
X521464Y210335D01*
X521455Y210321D01*
X521447Y210305D01*
X521424Y210268D01*
X521396Y210226D01*
X521361Y210181D01*
X521321Y210134D01*
X521319Y210132D01*
X521315Y210128D01*
X521308Y210120D01*
X521300Y210109D01*
X521286Y210097D01*
X521270Y210081D01*
X521252Y210062D01*
X521231Y210041D01*
X521205Y210016D01*
X521177Y209990D01*
X521147Y209960D01*
X521112Y209929D01*
X521076Y209895D01*
X521034Y209859D01*
X520990Y209820D01*
X520941Y209778D01*
X520939Y209776D01*
X520930Y209770D01*
X520920Y209761D01*
X520904Y209749D01*
X520887Y209733D01*
X520867Y209715D01*
X520845Y209696D01*
X520822Y209677D01*
X520773Y209635D01*
X520726Y209593D01*
X520705Y209574D01*
X520684Y209554D01*
X520668Y209539D01*
X520654Y209524D01*
X520650Y209521D01*
X520643Y209514D01*
X520631Y209500D01*
X520617Y209483D01*
X520601Y209463D01*
X520584Y209440D01*
X520566Y209416D01*
X520551Y209391D01*
X521539D01*
Y209154D01*
X520206D01*
Y209155D01*
Y209157D01*
Y209162D01*
Y209169D01*
Y209187D01*
X520208Y209208D01*
X520211Y209234D01*
X520216Y209264D01*
X520223Y209294D01*
X520234Y209325D01*
Y209327D01*
X520236Y209332D01*
X520239Y209339D01*
X520244Y209348D01*
X520250Y209360D01*
X520257Y209376D01*
X520264Y209391D01*
X520274Y209409D01*
X520295Y209451D01*
X520325Y209495D01*
X520358Y209544D01*
X520397Y209593D01*
X520398Y209594D01*
X520402Y209598D01*
X520409Y209607D01*
X520418Y209615D01*
X520430Y209628D01*
X520444Y209644D01*
X520460Y209661D01*
X520479Y209680D01*
X520502Y209701D01*
X520524Y209724D01*
X520552Y209750D01*
X520580Y209776D01*
X520612Y209805D01*
X520645Y209834D01*
X520682Y209866D01*
X520720Y209897D01*
X520722D01*
X520724Y209901D01*
X520734Y209910D01*
X520752Y209924D01*
X520773Y209943D01*
X520801Y209965D01*
X520831Y209992D01*
X520864Y210021D01*
X520899Y210053D01*
X520936Y210086D01*
X520974Y210121D01*
X521011Y210156D01*
X521048Y210193D01*
X521081Y210228D01*
X521112Y210263D01*
X521140Y210295D01*
X521165Y210326D01*
X521167Y210328D01*
X521170Y210333D01*
X521175Y210342D01*
X521182Y210352D01*
X521191Y210366D01*
X521202Y210384D01*
X521212Y210401D01*
X521223Y210422D01*
X521244Y210468D01*
X521263Y210519D01*
X521270Y210545D01*
X521275Y210571D01*
X521279Y210597D01*
X521280Y210624D01*
Y210625D01*
Y210630D01*
Y210637D01*
X521279Y210648D01*
X521277Y210660D01*
X521275Y210676D01*
X521272Y210692D01*
X521268Y210709D01*
X521254Y210750D01*
X521247Y210769D01*
X521237Y210790D01*
X521224Y210811D01*
X521210Y210832D01*
X521195Y210853D01*
X521175Y210872D01*
X521174Y210874D01*
X521170Y210877D01*
X521165Y210881D01*
X521156Y210888D01*
X521146Y210895D01*
X521133Y210904D01*
X521119Y210914D01*
X521102Y210923D01*
X521083Y210931D01*
X521062Y210942D01*
X521039Y210951D01*
X521014Y210958D01*
X520990Y210965D01*
X520962Y210970D01*
X520932Y210972D01*
X520901Y210974D01*
X520883D01*
X520871Y210972D01*
X520857Y210970D01*
X520839Y210968D01*
X520818Y210965D01*
X520797Y210960D01*
X520752Y210947D01*
X520729Y210939D01*
X520705Y210928D01*
X520682Y210916D01*
X520659Y210900D01*
X520636Y210884D01*
X520615Y210865D01*
X520614Y210863D01*
X520610Y210860D01*
X520605Y210855D01*
X520600Y210846D01*
X520591Y210834D01*
X520582Y210821D01*
X520572Y210806D01*
X520563Y210788D01*
X520552Y210767D01*
X520542Y210744D01*
X520533Y210720D01*
X520526Y210694D01*
X520519Y210665D01*
X520514Y210634D01*
X520510Y210602D01*
X520509Y210567D01*
X520253Y210594D01*
Y210597D01*
X520255Y210606D01*
X520257Y210622D01*
X520260Y210641D01*
X520264Y210664D01*
X520271Y210692D01*
X520278Y210721D01*
X520286Y210755D01*
X520299Y210790D01*
X520311Y210825D01*
X520327Y210861D01*
X520346Y210896D01*
X520367Y210933D01*
X520390Y210966D01*
X520418Y210998D01*
X520447Y211028D01*
X520449Y211030D01*
X520456Y211035D01*
X520465Y211042D01*
X520479Y211051D01*
X520496Y211063D01*
X520517Y211075D01*
X520542Y211089D01*
X520570Y211103D01*
X520600Y211117D01*
X520635Y211131D01*
X520673Y211143D01*
X520713Y211156D01*
X520757Y211164D01*
X520804Y211171D01*
X520853Y211176D01*
X520906Y211178D01*
X520918D01*
X520934Y211176D01*
D02*
G37*
%LPC*%
G36*
X522598Y210772D02*
X521966Y209864D01*
X522598D01*
Y210772D01*
D02*
G37*
%LPD*%
D10*
X158319Y286854D02*
G03*
X158319Y286854I-394J0D01*
G01*
X504953Y146592D02*
Y174392D01*
X538353D01*
Y146592D02*
Y174392D01*
X504953Y146592D02*
X538353D01*
X456929Y267354D02*
Y287189D01*
X417126D02*
X456929D01*
X417126Y267354D02*
Y287189D01*
Y267354D02*
X456929D01*
X495315D02*
Y287189D01*
X465256D02*
X495315D01*
X465256Y267354D02*
Y287189D01*
Y267354D02*
X495315D01*
X178300Y188704D02*
Y291004D01*
Y188704D02*
X253000D01*
Y291004D01*
X178300D02*
X253000D01*
X378642Y267354D02*
X408701D01*
X378642D02*
Y287189D01*
X408701D01*
Y267354D02*
Y287189D01*
X339271Y267354D02*
X369331D01*
X339271D02*
Y287189D01*
X369331D01*
Y267354D02*
Y287189D01*
D11*
X584646Y212598D02*
Y251969D01*
X517717Y212598D02*
X584646D01*
X517717Y251969D02*
X584646D01*
X517717Y212598D02*
Y251969D01*
X641858Y147580D02*
Y167380D01*
X625858Y147580D02*
X641858D01*
X625858D02*
Y167380D01*
X641858D01*
X609973Y199124D02*
X618373D01*
Y210324D01*
X609973D02*
X618373D01*
X609973Y199124D02*
Y210324D01*
X375689Y238976D02*
Y245276D01*
X387106D01*
Y238976D02*
Y245276D01*
X375689Y238976D02*
X387106D01*
X375689Y242717D02*
X379429Y238976D01*
X546260Y198622D02*
X550197D01*
Y202953D01*
X546260D02*
X550197D01*
X546260Y198622D02*
Y202953D01*
X625984Y98425D02*
X641732D01*
X625984D02*
Y114173D01*
X641732D01*
Y98425D02*
Y114173D01*
X639764Y98425D02*
X641732Y100394D01*
X644658Y234258D02*
Y246058D01*
X623158Y234258D02*
X644658D01*
X623158D02*
Y246058D01*
X644658D01*
X587850Y98673D02*
X589968Y96555D01*
X590009Y74514D02*
Y98714D01*
X571409D02*
X590009D01*
X571409Y74514D02*
Y98714D01*
Y74514D02*
X590009D01*
X558858Y281299D02*
Y293504D01*
Y281299D02*
X569095D01*
Y293504D01*
X558858D02*
X569095D01*
X577461Y167913D02*
X593110D01*
X572244Y162697D02*
X577461Y167913D01*
X572244Y152264D02*
Y162697D01*
Y152264D02*
X577461Y147047D01*
X593110D01*
Y167913D01*
X518405Y144291D02*
X534055D01*
X513189Y139075D02*
X518405Y144291D01*
X513189Y128642D02*
Y139075D01*
Y128642D02*
X518405Y123425D01*
X534055D01*
Y144291D01*
X577461D02*
X593110D01*
X572244Y139075D02*
X577461Y144291D01*
X572244Y128642D02*
Y139075D01*
Y128642D02*
X577461Y123425D01*
X593110D01*
Y144291D01*
X148873Y98673D02*
X150991Y96555D01*
X151032Y74514D02*
Y98714D01*
X132432D02*
X151032D01*
X132432Y74514D02*
Y98714D01*
Y74514D02*
X151032D01*
X176432Y98673D02*
X178550Y96555D01*
X178591Y74514D02*
Y98714D01*
X159991D02*
X178591D01*
X159991Y74514D02*
Y98714D01*
Y74514D02*
X178591D01*
X203991Y98673D02*
X206109Y96555D01*
X206150Y74514D02*
Y98714D01*
X187550D02*
X206150D01*
X187550Y74514D02*
Y98714D01*
Y74514D02*
X206150D01*
X231550Y98673D02*
X233668Y96555D01*
X233710Y74514D02*
Y98714D01*
X215109D02*
X233710D01*
X215109Y74514D02*
Y98714D01*
Y74514D02*
X233710D01*
X259109Y98673D02*
X261228Y96555D01*
X261268Y74514D02*
Y98714D01*
X242669D02*
X261268D01*
X242669Y74514D02*
Y98714D01*
Y74514D02*
X261268D01*
X286668Y98673D02*
X288787Y96555D01*
X288828Y74514D02*
Y98714D01*
X270228D02*
X288828D01*
X270228Y74514D02*
Y98714D01*
Y74514D02*
X288828D01*
X314228Y98673D02*
X316346Y96555D01*
X316387Y74514D02*
Y98714D01*
X297787D02*
X316387D01*
X297787Y74514D02*
Y98714D01*
Y74514D02*
X316387D01*
X341787Y98673D02*
X343905Y96555D01*
X343946Y74514D02*
Y98714D01*
X325346D02*
X343946D01*
X325346Y74514D02*
Y98714D01*
Y74514D02*
X343946D01*
X394936Y98673D02*
X397054Y96555D01*
X397095Y74514D02*
Y98714D01*
X378495D02*
X397095D01*
X378495Y74514D02*
Y98714D01*
Y74514D02*
X397095D01*
X422495Y98673D02*
X424613Y96555D01*
X424654Y74514D02*
Y98714D01*
X406054D02*
X424654D01*
X406054Y74514D02*
Y98714D01*
Y74514D02*
X424654D01*
X450054Y98673D02*
X452173Y96555D01*
X452213Y74514D02*
Y98714D01*
X433613D02*
X452213D01*
X433613Y74514D02*
Y98714D01*
Y74514D02*
X452213D01*
X477613Y98673D02*
X479732Y96555D01*
X479772Y74514D02*
Y98714D01*
X461172D02*
X479772D01*
X461172Y74514D02*
Y98714D01*
Y74514D02*
X479772D01*
X505172Y98673D02*
X507291Y96555D01*
X507332Y74514D02*
Y98714D01*
X488731D02*
X507332D01*
X488731Y74514D02*
Y98714D01*
Y74514D02*
X507332D01*
X532731Y98673D02*
X534850Y96555D01*
X534891Y74514D02*
Y98714D01*
X516291D02*
X534891D01*
X516291Y74514D02*
Y98714D01*
Y74514D02*
X534891D01*
X560290Y98673D02*
X562409Y96555D01*
X562450Y74514D02*
Y98714D01*
X543850D02*
X562450D01*
X543850Y74514D02*
Y98714D01*
Y74514D02*
X562450D01*
X447808Y236226D02*
Y248026D01*
X426308Y236226D02*
X447808D01*
X426308D02*
Y248026D01*
X447808D01*
X641858Y147580D02*
Y167380D01*
X625858Y147580D02*
X641858D01*
X625858D02*
Y167380D01*
X641858D01*
X505553Y147192D02*
Y173792D01*
Y147192D02*
X537753D01*
Y173792D01*
X505553D02*
X537753D01*
X474938Y241638D02*
X495338D01*
X474938Y213638D02*
Y241638D01*
Y213638D02*
X495338D01*
Y241638D01*
D12*
X611647Y59055D02*
G03*
X611647Y59055I-394J0D01*
G01*
D15*
X369094Y68110D02*
X595472D01*
Y20866D02*
Y68110D01*
X369094Y20866D02*
X595472D01*
X369094D02*
Y68110D01*
X14764Y20866D02*
Y68110D01*
Y20866D02*
X103347D01*
Y68110D01*
X14764D02*
X103347D01*
X615158D02*
X648622D01*
Y20866D02*
Y68110D01*
X615158Y20866D02*
X648622D01*
X615158D02*
Y68110D01*
X149067Y261933D02*
Y291067D01*
X119933Y261933D02*
X149067D01*
X119933D02*
Y291067D01*
X149067D01*
X122295Y237032D02*
X146705D01*
Y250969D01*
X122295D02*
X146705D01*
X122295Y237032D02*
Y250969D01*
X123031Y68110D02*
X349410D01*
Y20866D02*
Y68110D01*
X123031Y20866D02*
X349410D01*
X123031D02*
Y68110D01*
D18*
X178800Y189304D02*
Y290504D01*
Y189304D02*
X252400D01*
Y290504D01*
X178800D02*
X252400D01*
X111862Y284925D02*
Y288075D01*
X105957Y284925D02*
Y288075D01*
X111862D01*
X105957Y284925D02*
X111862D01*
X107728Y286500D02*
X110091D01*
X108909Y285319D02*
Y287681D01*
X157138Y264925D02*
Y268075D01*
X163043Y264925D02*
Y268075D01*
X157138Y264925D02*
X163043D01*
X157138Y268075D02*
X163043D01*
X158909Y266500D02*
X161272D01*
X160091Y265319D02*
Y267681D01*
X111862Y264925D02*
Y268075D01*
X105957Y264925D02*
Y268075D01*
X111862D01*
X105957Y264925D02*
X111862D01*
X107728Y266500D02*
X110091D01*
X108909Y265319D02*
Y267681D01*
X157138Y284925D02*
Y288075D01*
X163043Y284925D02*
Y288075D01*
X157138Y284925D02*
X163043D01*
X157138Y288075D02*
X163043D01*
X158909Y286500D02*
X161272D01*
X160091Y285319D02*
Y287681D01*
X109303Y245260D02*
X112453D01*
X109303Y239354D02*
X112453D01*
X109303D02*
Y245260D01*
X112453Y239354D02*
Y245260D01*
X110878Y241126D02*
Y243488D01*
X109697Y242307D02*
X112059D01*
X108909Y278652D02*
Y281014D01*
X107728Y279833D02*
X110091D01*
X105957Y281408D02*
X111862D01*
X105957Y278258D02*
X111862D01*
Y281408D01*
X105957Y278258D02*
Y281408D01*
X160091Y271986D02*
Y274348D01*
X158909Y273167D02*
X161272D01*
X157138Y271592D02*
X163043D01*
X157138Y274742D02*
X163043D01*
X157138Y271592D02*
Y274742D01*
X163043Y271592D02*
Y274742D01*
X108909Y271986D02*
Y274348D01*
X107728Y273167D02*
X110091D01*
X105957Y274742D02*
X111862D01*
X105957Y271592D02*
X111862D01*
Y274742D01*
X105957Y271592D02*
Y274742D01*
X160091Y278652D02*
Y281014D01*
X158909Y279833D02*
X161272D01*
X157138Y278258D02*
X163043D01*
X157138Y281408D02*
X163043D01*
X157138Y278258D02*
Y281408D01*
X163043Y278258D02*
Y281408D01*
X105760Y242307D02*
X108122D01*
X106941Y241126D02*
Y243488D01*
X105366Y239354D02*
Y245260D01*
X108516Y239354D02*
Y245260D01*
X105366D02*
X108516D01*
X105366Y239354D02*
X108516D01*
X549218Y146643D02*
X561018D01*
X549218Y160443D02*
X561018D01*
X549218Y146643D02*
Y160443D01*
X561018Y146643D02*
Y160443D01*
X646858Y180724D02*
Y228824D01*
X620858Y180724D02*
X646858D01*
X620858Y228824D02*
X646858D01*
X620858Y180724D02*
Y228824D01*
X562402Y266732D02*
X565551D01*
X562402Y260827D02*
X565551D01*
Y266732D01*
X562402Y260827D02*
Y266732D01*
X574293Y17511D02*
X589093D01*
X574293Y6111D02*
X589093D01*
Y17511D01*
X574293Y6111D02*
Y17511D01*
X555512Y203661D02*
X558661D01*
X555512Y197756D02*
X558661D01*
Y203661D01*
X555512Y197756D02*
Y203661D01*
X580977Y194580D02*
X584377D01*
Y204180D01*
X580977Y194580D02*
Y204180D01*
X584377D01*
X351378Y258268D02*
X357283D01*
X351378Y261417D02*
X357283D01*
Y258268D02*
Y261417D01*
X351378Y258268D02*
Y261417D01*
X417126Y287653D02*
X456929D01*
X417126Y267354D02*
X456929D01*
X417126D02*
Y287653D01*
X456929Y267354D02*
Y287653D01*
X465215D02*
X495315D01*
X465215Y267354D02*
X495315D01*
X465215D02*
Y287653D01*
X495315Y267354D02*
Y287653D01*
X558176Y281302D02*
X569876D01*
X558176Y293502D02*
X569876D01*
Y281302D02*
Y293502D01*
X558176Y281302D02*
Y293502D01*
X575072Y204180D02*
X578472D01*
X575072Y194580D02*
Y204180D01*
X578472Y194580D02*
Y204180D01*
X575072Y194580D02*
X578472D01*
X514961Y239882D02*
Y245787D01*
X511811Y239882D02*
Y245787D01*
X514961D01*
X511811Y239882D02*
X514961D01*
X127925Y100138D02*
X131075D01*
X127925Y94232D02*
X131075D01*
Y100138D01*
X127925Y94232D02*
Y100138D01*
X137657Y109252D02*
X140807D01*
X137657Y103347D02*
X140807D01*
Y109252D01*
X137657Y103347D02*
Y109252D01*
X147658D02*
X150807D01*
X147658Y103347D02*
X150807D01*
Y109252D01*
X147658Y103347D02*
Y109252D01*
X155425Y100138D02*
X158575D01*
X155425Y94232D02*
X158575D01*
Y100138D01*
X155425Y94232D02*
Y100138D01*
X165217Y109252D02*
X168366D01*
X165217Y103347D02*
X168366D01*
Y109252D01*
X165217Y103347D02*
Y109252D01*
X175217D02*
X178366D01*
X175217Y103347D02*
X178366D01*
Y109252D01*
X175217Y103347D02*
Y109252D01*
X183425Y100138D02*
X186575D01*
X183425Y94232D02*
X186575D01*
Y100138D01*
X183425Y94232D02*
Y100138D01*
X192776Y109252D02*
X195925D01*
X192776Y103347D02*
X195925D01*
Y109252D01*
X192776Y103347D02*
Y109252D01*
X202776D02*
X205925D01*
X202776Y103347D02*
X205925D01*
Y109252D01*
X202776Y103347D02*
Y109252D01*
X210925Y100138D02*
X214075D01*
X210925Y94232D02*
X214075D01*
Y100138D01*
X210925Y94232D02*
Y100138D01*
X220335Y109252D02*
X223484D01*
X220335Y103347D02*
X223484D01*
Y109252D01*
X220335Y103347D02*
Y109252D01*
X230335D02*
X233484D01*
X230335Y103347D02*
X233484D01*
Y109252D01*
X230335Y103347D02*
Y109252D01*
X238425Y100138D02*
X241575D01*
X238425Y94232D02*
X241575D01*
Y100138D01*
X238425Y94232D02*
Y100138D01*
X247894Y109252D02*
X251043D01*
X247894Y103347D02*
X251043D01*
Y109252D01*
X247894Y103347D02*
Y109252D01*
X257894D02*
X261043D01*
X257894Y103347D02*
X261043D01*
Y109252D01*
X257894Y103347D02*
Y109252D01*
X266425Y100138D02*
X269575D01*
X266425Y94232D02*
X269575D01*
Y100138D01*
X266425Y94232D02*
Y100138D01*
X275453Y109252D02*
X278602D01*
X275453Y103347D02*
X278602D01*
Y109252D01*
X275453Y103347D02*
Y109252D01*
X285453D02*
X288602D01*
X285453Y103347D02*
X288602D01*
Y109252D01*
X285453Y103347D02*
Y109252D01*
X293925Y100138D02*
X297075D01*
X293925Y94232D02*
X297075D01*
Y100138D01*
X293925Y94232D02*
Y100138D01*
X303012Y109252D02*
X306161D01*
X303012Y103347D02*
X306161D01*
Y109252D01*
X303012Y103347D02*
Y109252D01*
X313012D02*
X316161D01*
X313012Y103347D02*
X316161D01*
Y109252D01*
X313012Y103347D02*
Y109252D01*
X321425Y100138D02*
X324575D01*
X321425Y94232D02*
X324575D01*
Y100138D01*
X321425Y94232D02*
Y100138D01*
X330571Y109252D02*
X333720D01*
X330571Y103347D02*
X333720D01*
Y109252D01*
X330571Y103347D02*
Y109252D01*
X340571D02*
X343721D01*
X340571Y103347D02*
X343721D01*
Y109252D01*
X340571Y103347D02*
Y109252D01*
X374925Y100138D02*
X378075D01*
X374925Y94232D02*
X378075D01*
Y100138D01*
X374925Y94232D02*
Y100138D01*
X383720Y109252D02*
X386870D01*
X383720Y103347D02*
X386870D01*
Y109252D01*
X383720Y103347D02*
Y109252D01*
X393721D02*
X396870D01*
X393721Y103347D02*
X396870D01*
Y109252D01*
X393721Y103347D02*
Y109252D01*
X402425Y100138D02*
X405575D01*
X402425Y94232D02*
X405575D01*
Y100138D01*
X402425Y94232D02*
Y100138D01*
X411279Y109252D02*
X414429D01*
X411279Y103347D02*
X414429D01*
Y109252D01*
X411279Y103347D02*
Y109252D01*
X421279D02*
X424429D01*
X421279Y103347D02*
X424429D01*
Y109252D01*
X421279Y103347D02*
Y109252D01*
X429925Y100138D02*
X433075D01*
X429925Y94232D02*
X433075D01*
Y100138D01*
X429925Y94232D02*
Y100138D01*
X438839Y109252D02*
X441988D01*
X438839Y103347D02*
X441988D01*
Y109252D01*
X438839Y103347D02*
Y109252D01*
X448839D02*
X451988D01*
X448839Y103347D02*
X451988D01*
Y109252D01*
X448839Y103347D02*
Y109252D01*
X457425Y100138D02*
X460575D01*
X457425Y94232D02*
X460575D01*
Y100138D01*
X457425Y94232D02*
Y100138D01*
X466398Y109252D02*
X469547D01*
X466398Y103347D02*
X469547D01*
Y109252D01*
X466398Y103347D02*
Y109252D01*
X476398D02*
X479547D01*
X476398Y103347D02*
X479547D01*
Y109252D01*
X476398Y103347D02*
Y109252D01*
X485425Y100138D02*
X488575D01*
X485425Y94232D02*
X488575D01*
Y100138D01*
X485425Y94232D02*
Y100138D01*
X493957Y109252D02*
X497106D01*
X493957Y103347D02*
X497106D01*
Y109252D01*
X493957Y103347D02*
Y109252D01*
X503957D02*
X507106D01*
X503957Y103347D02*
X507106D01*
Y109252D01*
X503957Y103347D02*
Y109252D01*
X512425Y100138D02*
X515575D01*
X512425Y94232D02*
X515575D01*
Y100138D01*
X512425Y94232D02*
Y100138D01*
X521516Y109252D02*
X524665D01*
X521516Y103347D02*
X524665D01*
Y109252D01*
X521516Y103347D02*
Y109252D01*
X531516D02*
X534665D01*
X531516Y103347D02*
X534665D01*
Y109252D01*
X531516Y103347D02*
Y109252D01*
X539925Y100138D02*
X543075D01*
X539925Y94232D02*
X543075D01*
Y100138D01*
X539925Y94232D02*
Y100138D01*
X549075Y109252D02*
X552224D01*
X549075Y103347D02*
X552224D01*
Y109252D01*
X549075Y103347D02*
Y109252D01*
X559075D02*
X562224D01*
X559075Y103347D02*
X562224D01*
Y109252D01*
X559075Y103347D02*
Y109252D01*
X567925Y100138D02*
X571075D01*
X567925Y94232D02*
X571075D01*
Y100138D01*
X567925Y94232D02*
Y100138D01*
X576634Y109252D02*
X579783D01*
X576634Y103347D02*
X579783D01*
Y109252D01*
X576634Y103347D02*
Y109252D01*
X586634D02*
X589783D01*
X586634Y103347D02*
X589783D01*
Y109252D01*
X586634Y103347D02*
Y109252D01*
X206669Y233839D02*
X209819D01*
X206669Y227933D02*
X209819D01*
Y233839D01*
X206669Y227933D02*
Y233839D01*
X206669Y271240D02*
X209819D01*
X206669Y277146D02*
X209819D01*
X206669Y271240D02*
Y277146D01*
X209819Y271240D02*
Y277146D01*
X219425Y271240D02*
X222575D01*
X219425Y277146D02*
X222575D01*
X219425Y271240D02*
Y277146D01*
X222575Y271240D02*
Y277146D01*
X236118Y271240D02*
X239268D01*
X236118Y277146D02*
X239268D01*
X236118Y271240D02*
Y277146D01*
X239268Y271240D02*
Y277146D01*
X232181Y271240D02*
X235331D01*
X232181Y277146D02*
X235331D01*
X232181Y271240D02*
Y277146D01*
X235331Y271240D02*
Y277146D01*
X392815Y255736D02*
Y261642D01*
X389665Y255736D02*
Y261642D01*
X392815D01*
X389665Y255736D02*
X392815D01*
X373130Y236535D02*
Y242441D01*
X369980Y236535D02*
Y242441D01*
X373130D01*
X369980Y236535D02*
X373130D01*
X378051Y255736D02*
Y261642D01*
X374902Y255736D02*
Y261642D01*
X378051D01*
X374902Y255736D02*
X378051D01*
X422736Y241319D02*
Y247224D01*
X425886Y241319D02*
Y247224D01*
X422736Y241319D02*
X425886D01*
X422736Y247224D02*
X425886D01*
X448130Y241319D02*
Y247224D01*
X451279Y241319D02*
Y247224D01*
X448130Y241319D02*
X451279D01*
X448130Y247224D02*
X451279D01*
X481201Y258642D02*
X484350D01*
X481201Y252736D02*
X484350D01*
Y258642D01*
X481201Y252736D02*
Y258642D01*
X500591Y168799D02*
Y174705D01*
X503740Y168799D02*
Y174705D01*
X500591Y168799D02*
X503740D01*
X500591Y174705D02*
X503740D01*
X556021Y170276D02*
Y176181D01*
X559171Y170276D02*
Y176181D01*
X556021Y170276D02*
X559171D01*
X556021Y176181D02*
X559171D01*
X543701Y153268D02*
Y159173D01*
X546850Y153268D02*
Y159173D01*
X543701Y153268D02*
X546850D01*
X543701Y159173D02*
X546850D01*
X559171Y130905D02*
Y136811D01*
X556021Y130905D02*
Y136811D01*
X559171D01*
X556021Y130905D02*
X559171D01*
X555694D02*
Y136811D01*
X552545Y130905D02*
Y136811D01*
X555694D01*
X552545Y130905D02*
X555694D01*
X552545Y170276D02*
Y176181D01*
X555694Y170276D02*
Y176181D01*
X552545Y170276D02*
X555694D01*
X552545Y176181D02*
X555694D01*
X543701Y170276D02*
Y176181D01*
X546850Y170276D02*
Y176181D01*
X543701Y170276D02*
X546850D01*
X543701Y176181D02*
X546850D01*
Y145945D02*
Y151850D01*
X543701Y145945D02*
Y151850D01*
X546850D01*
X543701Y145945D02*
X546850D01*
X630315Y83661D02*
Y89567D01*
X633465Y83661D02*
Y89567D01*
X630315Y83661D02*
X633465D01*
X630315Y89567D02*
X633465D01*
X634252Y83661D02*
Y89567D01*
X637402Y83661D02*
Y89567D01*
X634252Y83661D02*
X637402D01*
X634252Y89567D02*
X637402D01*
X638189Y83661D02*
Y89567D01*
X641339Y83661D02*
Y89567D01*
X638189Y83661D02*
X641339D01*
X638189Y89567D02*
X641339D01*
X642126Y83661D02*
Y89567D01*
X645276Y83661D02*
Y89567D01*
X642126Y83661D02*
X645276D01*
X642126Y89567D02*
X645276D01*
X626378Y83661D02*
Y89567D01*
X629528Y83661D02*
Y89567D01*
X626378Y83661D02*
X629528D01*
X626378Y89567D02*
X629528D01*
X622441Y83661D02*
Y89567D01*
X625591Y83661D02*
Y89567D01*
X622441Y83661D02*
X625591D01*
X622441Y89567D02*
X625591D01*
X654315Y57795D02*
Y63701D01*
X657465Y57795D02*
Y63701D01*
X654315Y57795D02*
X657465D01*
X654315Y63701D02*
X657465D01*
X645276Y123031D02*
Y128937D01*
X642126Y123031D02*
Y128937D01*
X645276D01*
X642126Y123031D02*
X645276D01*
X637402D02*
Y128937D01*
X634252Y123031D02*
Y128937D01*
X637402D01*
X634252Y123031D02*
X637402D01*
X641339D02*
Y128937D01*
X638189Y123031D02*
Y128937D01*
X641339D01*
X638189Y123031D02*
X641339D01*
X604724Y204409D02*
Y210315D01*
X607874Y204409D02*
Y210315D01*
X604724Y204409D02*
X607874D01*
X604724Y210315D02*
X607874D01*
X637874Y249606D02*
X643780D01*
X637874Y246457D02*
X643780D01*
X637874D02*
Y249606D01*
X643780Y246457D02*
Y249606D01*
X623937Y246457D02*
X629843D01*
X623937Y249606D02*
X629843D01*
Y246457D02*
Y249606D01*
X623937Y246457D02*
Y249606D01*
X351378Y254331D02*
X357283D01*
X351378Y257480D02*
X357283D01*
Y254331D02*
Y257480D01*
X351378Y254331D02*
Y257480D01*
X615748Y213583D02*
Y219488D01*
X618898Y213583D02*
Y219488D01*
X615748Y213583D02*
X618898D01*
X615748Y219488D02*
X618898D01*
X615158Y156890D02*
X621063D01*
X615158Y160039D02*
X621063D01*
Y156890D02*
Y160039D01*
X615158Y156890D02*
Y160039D01*
X590158Y195020D02*
Y200925D01*
X587008Y195020D02*
Y200925D01*
X590158D01*
X587008Y195020D02*
X590158D01*
X569291Y197835D02*
Y203740D01*
X572441Y197835D02*
Y203740D01*
X569291Y197835D02*
X572441D01*
X569291Y203740D02*
X572441D01*
X568504Y197835D02*
Y203740D01*
X565354Y197835D02*
Y203740D01*
X568504D01*
X565354Y197835D02*
X568504D01*
X511811D02*
Y203740D01*
X514961Y197835D02*
Y203740D01*
X511811Y197835D02*
X514961D01*
X511811Y203740D02*
X514961D01*
X541732Y197835D02*
Y203740D01*
X544882Y197835D02*
Y203740D01*
X541732Y197835D02*
X544882D01*
X541732Y203740D02*
X544882D01*
X135317Y17511D02*
X150117D01*
X135317Y6111D02*
X150117D01*
Y17511D01*
X135317Y6111D02*
Y17511D01*
X162876D02*
X177676D01*
X162876Y6111D02*
X177676D01*
Y17511D01*
X162876Y6111D02*
Y17511D01*
X190435D02*
X205235D01*
X190435Y6111D02*
X205235D01*
Y17511D01*
X190435Y6111D02*
Y17511D01*
X217994D02*
X232794D01*
X217994Y6111D02*
X232794D01*
Y17511D01*
X217994Y6111D02*
Y17511D01*
X245553D02*
X260353D01*
X245553Y6111D02*
X260353D01*
Y17511D01*
X245553Y6111D02*
Y17511D01*
X273112D02*
X287912D01*
X273112Y6111D02*
X287912D01*
Y17511D01*
X273112Y6111D02*
Y17511D01*
X300671D02*
X315471D01*
X300671Y6111D02*
X315471D01*
Y17511D01*
X300671Y6111D02*
Y17511D01*
X328230D02*
X343030D01*
X328230Y6111D02*
X343030D01*
Y17511D01*
X328230Y6111D02*
Y17511D01*
X381380D02*
X396180D01*
X381380Y6111D02*
X396180D01*
Y17511D01*
X381380Y6111D02*
Y17511D01*
X408939D02*
X423739D01*
X408939Y6111D02*
X423739D01*
Y17511D01*
X408939Y6111D02*
Y17511D01*
X436498D02*
X451298D01*
X436498Y6111D02*
X451298D01*
Y17511D01*
X436498Y6111D02*
Y17511D01*
X464057D02*
X478857D01*
X464057Y6111D02*
X478857D01*
Y17511D01*
X464057Y6111D02*
Y17511D01*
X491616D02*
X506416D01*
X491616Y6111D02*
X506416D01*
Y17511D01*
X491616Y6111D02*
Y17511D01*
X519175D02*
X533975D01*
X519175Y6111D02*
X533975D01*
Y17511D01*
X519175Y6111D02*
Y17511D01*
X546734D02*
X561534D01*
X546734Y6111D02*
X561534D01*
Y17511D01*
X546734Y6111D02*
Y17511D01*
X397736Y255736D02*
Y261642D01*
X394587Y255736D02*
Y261642D01*
X397736D01*
X394587Y255736D02*
X397736D01*
X436122D02*
Y261642D01*
X432972Y255736D02*
Y261642D01*
X436122D01*
X432972Y255736D02*
X436122D01*
X441043D02*
Y261642D01*
X437894Y255736D02*
Y261642D01*
X441043D01*
X437894Y255736D02*
X441043D01*
X476279Y252736D02*
X479429D01*
X476279Y258642D02*
X479429D01*
X476279Y252736D02*
Y258642D01*
X479429Y252736D02*
Y258642D01*
X650378Y57795D02*
Y63701D01*
X653528Y57795D02*
Y63701D01*
X650378Y57795D02*
X653528D01*
X650378Y63701D02*
X653528D01*
X408701Y267354D02*
Y287653D01*
X378601Y267354D02*
Y287653D01*
Y267354D02*
X408701D01*
X378601Y287653D02*
X408701D01*
X369331Y267354D02*
Y287653D01*
X339231Y267354D02*
Y287653D01*
Y267354D02*
X369331D01*
X339231Y287653D02*
X369331D01*
X130315Y12795D02*
Y18701D01*
X133465Y12795D02*
Y18701D01*
X130315Y12795D02*
X133465D01*
X130315Y18701D02*
X133465D01*
X132658Y103347D02*
Y109252D01*
X135807Y103347D02*
Y109252D01*
X132658Y103347D02*
X135807D01*
X132658Y109252D02*
X135807D01*
X142657Y103347D02*
Y109252D01*
X145807Y103347D02*
Y109252D01*
X142657Y103347D02*
X145807D01*
X142657Y109252D02*
X145807D01*
X157874Y12795D02*
Y18701D01*
X161024Y12795D02*
Y18701D01*
X157874Y12795D02*
X161024D01*
X157874Y18701D02*
X161024D01*
X160217Y103347D02*
Y109252D01*
X163366Y103347D02*
Y109252D01*
X160217Y103347D02*
X163366D01*
X160217Y109252D02*
X163366D01*
X170217Y103347D02*
Y109252D01*
X173366Y103347D02*
Y109252D01*
X170217Y103347D02*
X173366D01*
X170217Y109252D02*
X173366D01*
X185433Y12795D02*
Y18701D01*
X188583Y12795D02*
Y18701D01*
X185433Y12795D02*
X188583D01*
X185433Y18701D02*
X188583D01*
X187776Y103347D02*
Y109252D01*
X190925Y103347D02*
Y109252D01*
X187776Y103347D02*
X190925D01*
X187776Y109252D02*
X190925D01*
X197776Y103347D02*
Y109252D01*
X200925Y103347D02*
Y109252D01*
X197776Y103347D02*
X200925D01*
X197776Y109252D02*
X200925D01*
X212992Y12795D02*
Y18701D01*
X216142Y12795D02*
Y18701D01*
X212992Y12795D02*
X216142D01*
X212992Y18701D02*
X216142D01*
X215335Y103347D02*
Y109252D01*
X218484Y103347D02*
Y109252D01*
X215335Y103347D02*
X218484D01*
X215335Y109252D02*
X218484D01*
X225335Y103347D02*
Y109252D01*
X228484Y103347D02*
Y109252D01*
X225335Y103347D02*
X228484D01*
X225335Y109252D02*
X228484D01*
X240551Y12795D02*
Y18701D01*
X243701Y12795D02*
Y18701D01*
X240551Y12795D02*
X243701D01*
X240551Y18701D02*
X243701D01*
X242894Y103347D02*
Y109252D01*
X246043Y103347D02*
Y109252D01*
X242894Y103347D02*
X246043D01*
X242894Y109252D02*
X246043D01*
X252894Y103347D02*
Y109252D01*
X256043Y103347D02*
Y109252D01*
X252894Y103347D02*
X256043D01*
X252894Y109252D02*
X256043D01*
X268110Y12795D02*
Y18701D01*
X271260Y12795D02*
Y18701D01*
X268110Y12795D02*
X271260D01*
X268110Y18701D02*
X271260D01*
X270453Y103347D02*
Y109252D01*
X273602Y103347D02*
Y109252D01*
X270453Y103347D02*
X273602D01*
X270453Y109252D02*
X273602D01*
X280453Y103347D02*
Y109252D01*
X283602Y103347D02*
Y109252D01*
X280453Y103347D02*
X283602D01*
X280453Y109252D02*
X283602D01*
X295669Y12795D02*
Y18701D01*
X298819Y12795D02*
Y18701D01*
X295669Y12795D02*
X298819D01*
X295669Y18701D02*
X298819D01*
X298012Y103347D02*
Y109252D01*
X301161Y103347D02*
Y109252D01*
X298012Y103347D02*
X301161D01*
X298012Y109252D02*
X301161D01*
X308012Y103347D02*
Y109252D01*
X311161Y103347D02*
Y109252D01*
X308012Y103347D02*
X311161D01*
X308012Y109252D02*
X311161D01*
X323228Y12795D02*
Y18701D01*
X326378Y12795D02*
Y18701D01*
X323228Y12795D02*
X326378D01*
X323228Y18701D02*
X326378D01*
X325571Y103347D02*
Y109252D01*
X328720Y103347D02*
Y109252D01*
X325571Y103347D02*
X328720D01*
X325571Y109252D02*
X328720D01*
X335571Y103347D02*
Y109252D01*
X338720Y103347D02*
Y109252D01*
X335571Y103347D02*
X338720D01*
X335571Y109252D02*
X338720D01*
X376378Y12795D02*
Y18701D01*
X379528Y12795D02*
Y18701D01*
X376378Y12795D02*
X379528D01*
X376378Y18701D02*
X379528D01*
X378720Y103347D02*
Y109252D01*
X381870Y103347D02*
Y109252D01*
X378720Y103347D02*
X381870D01*
X378720Y109252D02*
X381870D01*
X388720Y103347D02*
Y109252D01*
X391870Y103347D02*
Y109252D01*
X388720Y103347D02*
X391870D01*
X388720Y109252D02*
X391870D01*
X403937Y12795D02*
Y18701D01*
X407087Y12795D02*
Y18701D01*
X403937Y12795D02*
X407087D01*
X403937Y18701D02*
X407087D01*
X406280Y103347D02*
Y109252D01*
X409429Y103347D02*
Y109252D01*
X406280Y103347D02*
X409429D01*
X406280Y109252D02*
X409429D01*
X416280Y103347D02*
Y109252D01*
X419429Y103347D02*
Y109252D01*
X416280Y103347D02*
X419429D01*
X416280Y109252D02*
X419429D01*
X431496Y12795D02*
Y18701D01*
X434646Y12795D02*
Y18701D01*
X431496Y12795D02*
X434646D01*
X431496Y18701D02*
X434646D01*
X433839Y103347D02*
Y109252D01*
X436988Y103347D02*
Y109252D01*
X433839Y103347D02*
X436988D01*
X433839Y109252D02*
X436988D01*
X443839Y103347D02*
Y109252D01*
X446988Y103347D02*
Y109252D01*
X443839Y103347D02*
X446988D01*
X443839Y109252D02*
X446988D01*
X459055Y12795D02*
Y18701D01*
X462205Y12795D02*
Y18701D01*
X459055Y12795D02*
X462205D01*
X459055Y18701D02*
X462205D01*
X461398Y103347D02*
Y109252D01*
X464547Y103347D02*
Y109252D01*
X461398Y103347D02*
X464547D01*
X461398Y109252D02*
X464547D01*
X471398Y103347D02*
Y109252D01*
X474547Y103347D02*
Y109252D01*
X471398Y103347D02*
X474547D01*
X471398Y109252D02*
X474547D01*
X486614Y12795D02*
Y18701D01*
X489764Y12795D02*
Y18701D01*
X486614Y12795D02*
X489764D01*
X486614Y18701D02*
X489764D01*
X488957Y103347D02*
Y109252D01*
X492106Y103347D02*
Y109252D01*
X488957Y103347D02*
X492106D01*
X488957Y109252D02*
X492106D01*
X498957Y103347D02*
Y109252D01*
X502106Y103347D02*
Y109252D01*
X498957Y103347D02*
X502106D01*
X498957Y109252D02*
X502106D01*
X514173Y12795D02*
Y18701D01*
X517323Y12795D02*
Y18701D01*
X514173Y12795D02*
X517323D01*
X514173Y18701D02*
X517323D01*
X516516Y103347D02*
Y109252D01*
X519665Y103347D02*
Y109252D01*
X516516Y103347D02*
X519665D01*
X516516Y109252D02*
X519665D01*
X526516Y103347D02*
Y109252D01*
X529665Y103347D02*
Y109252D01*
X526516Y103347D02*
X529665D01*
X526516Y109252D02*
X529665D01*
X541732Y12795D02*
Y18701D01*
X544882Y12795D02*
Y18701D01*
X541732Y12795D02*
X544882D01*
X541732Y18701D02*
X544882D01*
X544075Y103347D02*
Y109252D01*
X547224Y103347D02*
Y109252D01*
X544075Y103347D02*
X547224D01*
X544075Y109252D02*
X547224D01*
X554075Y103347D02*
Y109252D01*
X557224Y103347D02*
Y109252D01*
X554075Y103347D02*
X557224D01*
X554075Y109252D02*
X557224D01*
X569291Y12795D02*
Y18701D01*
X572441Y12795D02*
Y18701D01*
X569291Y12795D02*
X572441D01*
X569291Y18701D02*
X572441D01*
X571634Y103347D02*
Y109252D01*
X574784Y103347D02*
Y109252D01*
X571634Y103347D02*
X574784D01*
X571634Y109252D02*
X574784D01*
X581634Y103347D02*
Y109252D01*
X584784Y103347D02*
Y109252D01*
X581634Y103347D02*
X584784D01*
X581634Y109252D02*
X584784D01*
X384744Y261642D02*
X387894D01*
X384744Y255736D02*
X387894D01*
Y261642D01*
X384744Y255736D02*
Y261642D01*
X379823D02*
X382972D01*
X379823Y255736D02*
X382972D01*
Y261642D01*
X379823Y255736D02*
Y261642D01*
X399508Y255736D02*
X402658D01*
X399508Y261642D02*
X402658D01*
X399508Y255736D02*
Y261642D01*
X402658Y255736D02*
Y261642D01*
X428051D02*
X431201D01*
X428051Y255736D02*
X431201D01*
Y261642D01*
X428051Y255736D02*
Y261642D01*
X442815D02*
X445965D01*
X442815Y255736D02*
X445965D01*
Y261642D01*
X442815Y255736D02*
Y261642D01*
X489272Y252736D02*
Y258642D01*
X486122Y252736D02*
Y258642D01*
X489272D01*
X486122Y252736D02*
X489272D01*
X549021Y136811D02*
X552171D01*
X549021Y130905D02*
X552171D01*
Y136811D01*
X549021Y130905D02*
Y136811D01*
X543701Y130905D02*
X546850D01*
X543701Y136811D02*
X546850D01*
X543701Y130905D02*
Y136811D01*
X546850Y130905D02*
Y136811D01*
X549021Y176181D02*
X552171D01*
X549021Y170276D02*
X552171D01*
Y176181D01*
X549021Y170276D02*
Y176181D01*
X559521Y136811D02*
X562671D01*
X559521Y130905D02*
X562671D01*
Y136811D01*
X559521Y130905D02*
Y136811D01*
X615158Y104724D02*
Y107874D01*
X621063Y104724D02*
Y107874D01*
X615158D02*
X621063D01*
X615158Y104724D02*
X621063D01*
X615158Y108661D02*
Y111811D01*
X621063Y108661D02*
Y111811D01*
X615158D02*
X621063D01*
X615158Y108661D02*
X621063D01*
X652559Y108661D02*
Y111811D01*
X646654Y108661D02*
Y111811D01*
Y108661D02*
X652559D01*
X646654Y111811D02*
X652559D01*
X612598Y213583D02*
X615748D01*
X612598Y219488D02*
X615748D01*
X612598Y213583D02*
Y219488D01*
X615748Y213583D02*
Y219488D01*
X615748Y195866D02*
X618898D01*
X615748Y189961D02*
X618898D01*
Y195866D01*
X615748Y189961D02*
Y195866D01*
X612598D02*
X615748D01*
X612598Y189961D02*
X615748D01*
Y195866D01*
X612598Y189961D02*
Y195866D01*
X630315Y143437D02*
X633465D01*
X630315Y137531D02*
X633465D01*
Y143437D01*
X630315Y137531D02*
Y143437D01*
X634252D02*
X637402D01*
X634252Y137531D02*
X637402D01*
Y143437D01*
X634252Y137531D02*
Y143437D01*
X646654Y149016D02*
Y152165D01*
X652559Y149016D02*
Y152165D01*
X646654D02*
X652559D01*
X646654Y149016D02*
X652559D01*
X507874Y203740D02*
X511024D01*
X507874Y197835D02*
X511024D01*
Y203740D01*
X507874Y197835D02*
Y203740D01*
X551575Y197835D02*
X554724D01*
X551575Y203740D02*
X554724D01*
X551575Y197835D02*
Y203740D01*
X554724Y197835D02*
Y203740D01*
X537795Y197835D02*
X540945D01*
X537795Y203740D02*
X540945D01*
X537795Y197835D02*
Y203740D01*
X540945Y197835D02*
Y203740D01*
X507874Y222165D02*
X511024D01*
X507874Y228071D02*
X511024D01*
X507874Y222165D02*
Y228071D01*
X511024Y222165D02*
Y228071D01*
X507874Y218779D02*
X511024D01*
X507874Y212874D02*
X511024D01*
Y218779D01*
X507874Y212874D02*
Y218779D01*
Y239882D02*
X511024D01*
X507874Y245787D02*
X511024D01*
X507874Y239882D02*
Y245787D01*
X511024Y239882D02*
Y245787D01*
X503937D02*
X507087D01*
X503937Y239882D02*
X507087D01*
Y245787D01*
X503937Y239882D02*
Y245787D01*
X511811Y228071D02*
X514961D01*
X511811Y222165D02*
X514961D01*
Y228071D01*
X511811Y222165D02*
Y228071D01*
Y212874D02*
X514961D01*
X511811Y218779D02*
X514961D01*
X511811Y212874D02*
Y218779D01*
X514961Y212874D02*
Y218779D01*
X178800Y290504D02*
X252400D01*
X178800Y189304D02*
X252400D01*
X178800D02*
Y290504D01*
X252400Y189304D02*
Y290504D01*
X111862Y284925D02*
Y288075D01*
X105957Y284925D02*
Y288075D01*
X111862D01*
X105957Y284925D02*
X111862D01*
X157138Y264925D02*
Y268075D01*
X163043Y264925D02*
Y268075D01*
X157138Y264925D02*
X163043D01*
X157138Y268075D02*
X163043D01*
X111862Y264925D02*
Y268075D01*
X105957Y264925D02*
Y268075D01*
X111862D01*
X105957Y264925D02*
X111862D01*
X157138Y284925D02*
Y288075D01*
X163043Y284925D02*
Y288075D01*
X157138Y284925D02*
X163043D01*
X157138Y288075D02*
X163043D01*
X109303Y245260D02*
X112453D01*
X109303Y239354D02*
X112453D01*
X109303D02*
Y245260D01*
X112453Y239354D02*
Y245260D01*
X105957Y281408D02*
X111862D01*
X105957Y278258D02*
X111862D01*
Y281408D01*
X105957Y278258D02*
Y281408D01*
X157138Y271592D02*
X163043D01*
X157138Y274742D02*
X163043D01*
X157138Y271592D02*
Y274742D01*
X163043Y271592D02*
Y274742D01*
X105957Y274741D02*
X111862D01*
X105957Y271592D02*
X111862D01*
Y274741D01*
X105957Y271592D02*
Y274741D01*
X157138Y278258D02*
X163043D01*
X157138Y281408D02*
X163043D01*
X157138Y278258D02*
Y281408D01*
X163043Y278258D02*
Y281408D01*
X105366Y239354D02*
Y245260D01*
X108516Y239354D02*
Y245260D01*
X105366D02*
X108516D01*
X105366Y239354D02*
X108516D01*
X625858Y167380D02*
X641858D01*
X625858Y147580D02*
Y167380D01*
Y147580D02*
X641858D01*
Y167380D01*
X633858Y156299D02*
Y158661D01*
X632677Y157480D02*
X635039D01*
X561018Y146643D02*
Y160443D01*
X549218Y146643D02*
X561018D01*
X549218Y160443D02*
X561018D01*
X549218Y146643D02*
Y160443D01*
X555118Y152362D02*
Y154724D01*
X553937Y153543D02*
X556299D01*
X380217Y242126D02*
X382579D01*
X381398Y240945D02*
Y243307D01*
X375398Y235626D02*
Y248526D01*
X387398D01*
Y235626D02*
Y248526D01*
X375398Y235626D02*
X387398D01*
X547047Y200787D02*
X549409D01*
X548228Y199606D02*
Y201969D01*
X545228Y198287D02*
Y203287D01*
X551228D01*
Y198287D02*
Y203287D01*
X545228Y198287D02*
X551228D01*
X620858Y180724D02*
X646858D01*
X620858Y228824D02*
X646858D01*
X620858Y180724D02*
Y228824D01*
X646858Y180724D02*
Y228824D01*
X633858Y203543D02*
Y205906D01*
X632677Y204724D02*
X635039D01*
X562402Y266732D02*
X565551D01*
X562402Y260827D02*
X565551D01*
Y266732D01*
X562402Y260827D02*
Y266732D01*
X563976Y262598D02*
Y264961D01*
X562795Y263779D02*
X565158D01*
X574293Y17511D02*
X589093D01*
X574293Y6111D02*
X589093D01*
Y17511D01*
X574293Y6111D02*
Y17511D01*
X581693Y10630D02*
Y12992D01*
X580512Y11811D02*
X582874D01*
X555512Y203661D02*
X558661D01*
X555512Y197756D02*
X558661D01*
Y203661D01*
X555512Y197756D02*
Y203661D01*
X557087Y199528D02*
Y201890D01*
X555905Y200709D02*
X558268D01*
X584577Y194380D02*
Y204380D01*
X580777D02*
X584577D01*
X580777Y194380D02*
X584577D01*
X580777D02*
Y204380D01*
X582677Y198199D02*
Y200561D01*
X581496Y199380D02*
X583858D01*
X354331Y258661D02*
Y261024D01*
X353150Y259842D02*
X355512D01*
X351378Y258268D02*
X357283D01*
X351378Y261417D02*
X357283D01*
Y258268D02*
Y261417D01*
X351378Y258268D02*
Y261417D01*
X458929Y264054D02*
Y288053D01*
X415158D02*
X458929D01*
X415158Y264054D02*
Y288053D01*
Y264054D02*
X458929D01*
X440748Y271654D02*
X443110D01*
X441929Y270472D02*
Y272835D01*
X497315Y264054D02*
Y288053D01*
X463315D02*
X497315D01*
X463315Y264054D02*
Y288053D01*
Y264054D02*
X497315D01*
X479134Y271654D02*
X481496D01*
X480315Y270472D02*
Y272835D01*
X554576Y277802D02*
Y293502D01*
Y277802D02*
X573376D01*
Y293502D01*
X554576D02*
X573376D01*
X562795Y287402D02*
X565158D01*
X563976Y286221D02*
Y288583D01*
X574872Y194380D02*
Y204380D01*
Y194380D02*
X578672D01*
X574872Y204380D02*
X578672D01*
Y194380D02*
Y204380D01*
X576772Y198199D02*
Y200561D01*
X575591Y199380D02*
X577953D01*
X512205Y242835D02*
X514567D01*
X513386Y241653D02*
Y244016D01*
X514961Y239882D02*
Y245787D01*
X511811Y239882D02*
Y245787D01*
X514961D01*
X511811Y239882D02*
X514961D01*
X127925Y100138D02*
X131075D01*
X127925Y94232D02*
X131075D01*
Y100138D01*
X127925Y94232D02*
Y100138D01*
X129500Y96004D02*
Y98366D01*
X128319Y97185D02*
X130681D01*
X137657Y109252D02*
X140807D01*
X137657Y103347D02*
X140807D01*
Y109252D01*
X137657Y103347D02*
Y109252D01*
X139232Y105118D02*
Y107480D01*
X138051Y106299D02*
X140413D01*
X147658Y109252D02*
X150807D01*
X147658Y103347D02*
X150807D01*
Y109252D01*
X147658Y103347D02*
Y109252D01*
X149232Y105118D02*
Y107480D01*
X148051Y106299D02*
X150413D01*
X155425Y100138D02*
X158575D01*
X155425Y94232D02*
X158575D01*
Y100138D01*
X155425Y94232D02*
Y100138D01*
X157000Y96004D02*
Y98366D01*
X155819Y97185D02*
X158181D01*
X165217Y109252D02*
X168366D01*
X165217Y103347D02*
X168366D01*
Y109252D01*
X165217Y103347D02*
Y109252D01*
X166791Y105118D02*
Y107480D01*
X165610Y106299D02*
X167973D01*
X175216Y109252D02*
X178366D01*
X175216Y103347D02*
X178366D01*
Y109252D01*
X175216Y103347D02*
Y109252D01*
X176791Y105118D02*
Y107480D01*
X175610Y106299D02*
X177972D01*
X183425Y100138D02*
X186575D01*
X183425Y94232D02*
X186575D01*
Y100138D01*
X183425Y94232D02*
Y100138D01*
X185000Y96004D02*
Y98366D01*
X183819Y97185D02*
X186181D01*
X192776Y109252D02*
X195925D01*
X192776Y103347D02*
X195925D01*
Y109252D01*
X192776Y103347D02*
Y109252D01*
X194350Y105118D02*
Y107480D01*
X193169Y106299D02*
X195531D01*
X202776Y109252D02*
X205925D01*
X202776Y103347D02*
X205925D01*
Y109252D01*
X202776Y103347D02*
Y109252D01*
X204350Y105118D02*
Y107480D01*
X203169Y106299D02*
X205532D01*
X210925Y100138D02*
X214075D01*
X210925Y94232D02*
X214075D01*
Y100138D01*
X210925Y94232D02*
Y100138D01*
X212500Y96004D02*
Y98366D01*
X211319Y97185D02*
X213681D01*
X220335Y109252D02*
X223484D01*
X220335Y103347D02*
X223484D01*
Y109252D01*
X220335Y103347D02*
Y109252D01*
X221909Y105118D02*
Y107480D01*
X220728Y106299D02*
X223091D01*
X230335Y109252D02*
X233484D01*
X230335Y103347D02*
X233484D01*
Y109252D01*
X230335Y103347D02*
Y109252D01*
X231909Y105118D02*
Y107480D01*
X230728Y106299D02*
X233091D01*
X238425Y100138D02*
X241575D01*
X238425Y94232D02*
X241575D01*
Y100138D01*
X238425Y94232D02*
Y100138D01*
X240000Y96004D02*
Y98366D01*
X238819Y97185D02*
X241181D01*
X247894Y109252D02*
X251043D01*
X247894Y103347D02*
X251043D01*
Y109252D01*
X247894Y103347D02*
Y109252D01*
X249468Y105118D02*
Y107480D01*
X248287Y106299D02*
X250650D01*
X257894Y109252D02*
X261043D01*
X257894Y103347D02*
X261043D01*
Y109252D01*
X257894Y103347D02*
Y109252D01*
X259469Y105118D02*
Y107480D01*
X258287Y106299D02*
X260650D01*
X266425Y100138D02*
X269575D01*
X266425Y94232D02*
X269575D01*
Y100138D01*
X266425Y94232D02*
Y100138D01*
X268000Y96004D02*
Y98366D01*
X266819Y97185D02*
X269181D01*
X275453Y109252D02*
X278602D01*
X275453Y103347D02*
X278602D01*
Y109252D01*
X275453Y103347D02*
Y109252D01*
X277028Y105118D02*
Y107480D01*
X275847Y106299D02*
X278209D01*
X285453Y109252D02*
X288602D01*
X285453Y103347D02*
X288602D01*
Y109252D01*
X285453Y103347D02*
Y109252D01*
X287028Y105118D02*
Y107480D01*
X285846Y106299D02*
X288209D01*
X293925Y100138D02*
X297075D01*
X293925Y94232D02*
X297075D01*
Y100138D01*
X293925Y94232D02*
Y100138D01*
X295500Y96004D02*
Y98366D01*
X294319Y97185D02*
X296681D01*
X303012Y109252D02*
X306161D01*
X303012Y103347D02*
X306161D01*
Y109252D01*
X303012Y103347D02*
Y109252D01*
X304587Y105118D02*
Y107480D01*
X303405Y106299D02*
X305768D01*
X313012Y109252D02*
X316161D01*
X313012Y103347D02*
X316161D01*
Y109252D01*
X313012Y103347D02*
Y109252D01*
X314587Y105118D02*
Y107480D01*
X313405Y106299D02*
X315768D01*
X321425Y100138D02*
X324575D01*
X321425Y94232D02*
X324575D01*
Y100138D01*
X321425Y94232D02*
Y100138D01*
X323000Y96004D02*
Y98366D01*
X321819Y97185D02*
X324181D01*
X330571Y109252D02*
X333720D01*
X330571Y103347D02*
X333720D01*
Y109252D01*
X330571Y103347D02*
Y109252D01*
X332146Y105118D02*
Y107480D01*
X330965Y106299D02*
X333327D01*
X340571Y109252D02*
X343721D01*
X340571Y103347D02*
X343721D01*
Y109252D01*
X340571Y103347D02*
Y109252D01*
X342146Y105118D02*
Y107480D01*
X340965Y106299D02*
X343327D01*
X374925Y100138D02*
X378075D01*
X374925Y94232D02*
X378075D01*
Y100138D01*
X374925Y94232D02*
Y100138D01*
X376500Y96004D02*
Y98366D01*
X375319Y97185D02*
X377681D01*
X383720Y109252D02*
X386870D01*
X383720Y103347D02*
X386870D01*
Y109252D01*
X383720Y103347D02*
Y109252D01*
X385295Y105118D02*
Y107480D01*
X384114Y106299D02*
X386476D01*
X393721Y109252D02*
X396870D01*
X393721Y103347D02*
X396870D01*
Y109252D01*
X393721Y103347D02*
Y109252D01*
X395295Y105118D02*
Y107480D01*
X394114Y106299D02*
X396476D01*
X402425Y100138D02*
X405575D01*
X402425Y94232D02*
X405575D01*
Y100138D01*
X402425Y94232D02*
Y100138D01*
X404000Y96004D02*
Y98366D01*
X402819Y97185D02*
X405181D01*
X411279Y109252D02*
X414429D01*
X411279Y103347D02*
X414429D01*
Y109252D01*
X411279Y103347D02*
Y109252D01*
X412854Y105118D02*
Y107480D01*
X411673Y106299D02*
X414035D01*
X421279Y109252D02*
X424429D01*
X421279Y103347D02*
X424429D01*
Y109252D01*
X421279Y103347D02*
Y109252D01*
X422854Y105118D02*
Y107480D01*
X421673Y106299D02*
X424035D01*
X429925Y100138D02*
X433075D01*
X429925Y94232D02*
X433075D01*
Y100138D01*
X429925Y94232D02*
Y100138D01*
X431500Y96004D02*
Y98366D01*
X430319Y97185D02*
X432681D01*
X438839Y109252D02*
X441988D01*
X438839Y103347D02*
X441988D01*
Y109252D01*
X438839Y103347D02*
Y109252D01*
X440413Y105118D02*
Y107480D01*
X439232Y106299D02*
X441595D01*
X448839Y109252D02*
X451988D01*
X448839Y103347D02*
X451988D01*
Y109252D01*
X448839Y103347D02*
Y109252D01*
X450413Y105118D02*
Y107480D01*
X449232Y106299D02*
X451594D01*
X457425Y100138D02*
X460575D01*
X457425Y94232D02*
X460575D01*
Y100138D01*
X457425Y94232D02*
Y100138D01*
X459000Y96004D02*
Y98366D01*
X457819Y97185D02*
X460181D01*
X466398Y109252D02*
X469547D01*
X466398Y103347D02*
X469547D01*
Y109252D01*
X466398Y103347D02*
Y109252D01*
X467973Y105118D02*
Y107480D01*
X466791Y106299D02*
X469153D01*
X476398Y109252D02*
X479547D01*
X476398Y103347D02*
X479547D01*
Y109252D01*
X476398Y103347D02*
Y109252D01*
X477973Y105118D02*
Y107480D01*
X476791Y106299D02*
X479153D01*
X485425Y100138D02*
X488575D01*
X485425Y94232D02*
X488575D01*
Y100138D01*
X485425Y94232D02*
Y100138D01*
X487000Y96004D02*
Y98366D01*
X485819Y97185D02*
X488181D01*
X493957Y109252D02*
X497106D01*
X493957Y103347D02*
X497106D01*
Y109252D01*
X493957Y103347D02*
Y109252D01*
X495532Y105118D02*
Y107480D01*
X494350Y106299D02*
X496713D01*
X503957Y109252D02*
X507106D01*
X503957Y103347D02*
X507106D01*
Y109252D01*
X503957Y103347D02*
Y109252D01*
X505532Y105118D02*
Y107480D01*
X504350Y106299D02*
X506713D01*
X512425Y100138D02*
X515575D01*
X512425Y94232D02*
X515575D01*
Y100138D01*
X512425Y94232D02*
Y100138D01*
X514000Y96004D02*
Y98366D01*
X512819Y97185D02*
X515181D01*
X521516Y109252D02*
X524665D01*
X521516Y103347D02*
X524665D01*
Y109252D01*
X521516Y103347D02*
Y109252D01*
X523091Y105118D02*
Y107480D01*
X521910Y106299D02*
X524272D01*
X531516Y109252D02*
X534665D01*
X531516Y103347D02*
X534665D01*
Y109252D01*
X531516Y103347D02*
Y109252D01*
X533091Y105118D02*
Y107480D01*
X531910Y106299D02*
X534272D01*
X539925Y100138D02*
X543075D01*
X539925Y94232D02*
X543075D01*
Y100138D01*
X539925Y94232D02*
Y100138D01*
X541500Y96004D02*
Y98366D01*
X540319Y97185D02*
X542681D01*
X549075Y109252D02*
X552224D01*
X549075Y103347D02*
X552224D01*
Y109252D01*
X549075Y103347D02*
Y109252D01*
X550650Y105118D02*
Y107480D01*
X549469Y106299D02*
X551831D01*
X559075Y109252D02*
X562224D01*
X559075Y103347D02*
X562224D01*
Y109252D01*
X559075Y103347D02*
Y109252D01*
X560650Y105118D02*
Y107480D01*
X559469Y106299D02*
X561831D01*
X567925Y100138D02*
X571075D01*
X567925Y94232D02*
X571075D01*
Y100138D01*
X567925Y94232D02*
Y100138D01*
X569500Y96004D02*
Y98366D01*
X568319Y97185D02*
X570681D01*
X576634Y109252D02*
X579783D01*
X576634Y103347D02*
X579783D01*
Y109252D01*
X576634Y103347D02*
Y109252D01*
X578209Y105118D02*
Y107480D01*
X577028Y106299D02*
X579390D01*
X586634Y109252D02*
X589783D01*
X586634Y103347D02*
X589783D01*
Y109252D01*
X586634Y103347D02*
Y109252D01*
X588209Y105118D02*
Y107480D01*
X587028Y106299D02*
X589390D01*
X206669Y233839D02*
X209819D01*
X206669Y227933D02*
X209819D01*
Y233839D01*
X206669Y227933D02*
Y233839D01*
X208244Y229705D02*
Y232067D01*
X207063Y230886D02*
X209425D01*
X206669Y271240D02*
X209819D01*
X206669Y277146D02*
X209819D01*
X206669Y271240D02*
Y277146D01*
X209819Y271240D02*
Y277146D01*
X208244Y273012D02*
Y275374D01*
X207063Y274193D02*
X209425D01*
X219425Y271240D02*
X222575D01*
X219425Y277146D02*
X222575D01*
X219425Y271240D02*
Y277146D01*
X222575Y271240D02*
Y277146D01*
X221000Y273012D02*
Y275374D01*
X219819Y274193D02*
X222181D01*
X236118Y271240D02*
X239268D01*
X236118Y277146D02*
X239268D01*
X236118Y271240D02*
Y277146D01*
X239268Y271240D02*
Y277146D01*
X237693Y273012D02*
Y275374D01*
X236512Y274193D02*
X238874D01*
X232181Y271240D02*
X235331D01*
X232181Y277146D02*
X235331D01*
X232181Y271240D02*
Y277146D01*
X235331Y271240D02*
Y277146D01*
X233756Y273012D02*
Y275374D01*
X232575Y274193D02*
X234937D01*
X390059Y258689D02*
X392421D01*
X391240Y257508D02*
Y259870D01*
X392815Y255736D02*
Y261642D01*
X389665Y255736D02*
Y261642D01*
X392815D01*
X389665Y255736D02*
X392815D01*
X370374Y239488D02*
X372736D01*
X371555Y238307D02*
Y240669D01*
X373130Y236535D02*
Y242441D01*
X369980Y236535D02*
Y242441D01*
X373130D01*
X369980Y236535D02*
X373130D01*
X375295Y258689D02*
X377658D01*
X376476Y257508D02*
Y259870D01*
X378051Y255736D02*
Y261642D01*
X374902Y255736D02*
Y261642D01*
X378051D01*
X374902Y255736D02*
X378051D01*
X423130Y244272D02*
X425492D01*
X424311Y243091D02*
Y245453D01*
X422736Y241319D02*
Y247224D01*
X425886Y241319D02*
Y247224D01*
X422736Y241319D02*
X425886D01*
X422736Y247224D02*
X425886D01*
X448524Y244272D02*
X450886D01*
X449705Y243091D02*
Y245453D01*
X448130Y241319D02*
Y247224D01*
X451279Y241319D02*
Y247224D01*
X448130Y241319D02*
X451279D01*
X448130Y247224D02*
X451279D01*
X481201Y258642D02*
X484350D01*
X481201Y252736D02*
X484350D01*
Y258642D01*
X481201Y252736D02*
Y258642D01*
X482776Y254508D02*
Y256870D01*
X481595Y255689D02*
X483957D01*
X500984Y171752D02*
X503346D01*
X502165Y170571D02*
Y172933D01*
X500591Y168799D02*
Y174705D01*
X503740Y168799D02*
Y174705D01*
X500591Y168799D02*
X503740D01*
X500591Y174705D02*
X503740D01*
X556415Y173228D02*
X558777D01*
X557596Y172047D02*
Y174409D01*
X556021Y170276D02*
Y176181D01*
X559171Y170276D02*
Y176181D01*
X556021Y170276D02*
X559171D01*
X556021Y176181D02*
X559171D01*
X544095Y156220D02*
X546457D01*
X545276Y155039D02*
Y157402D01*
X543701Y153268D02*
Y159173D01*
X546850Y153268D02*
Y159173D01*
X543701Y153268D02*
X546850D01*
X543701Y159173D02*
X546850D01*
X556415Y133858D02*
X558777D01*
X557596Y132677D02*
Y135039D01*
X559171Y130905D02*
Y136811D01*
X556021Y130905D02*
Y136811D01*
X559171D01*
X556021Y130905D02*
X559171D01*
X552939Y133858D02*
X555301D01*
X554119Y132677D02*
Y135039D01*
X555694Y130905D02*
Y136811D01*
X552545Y130905D02*
Y136811D01*
X555694D01*
X552545Y130905D02*
X555694D01*
X552939Y173228D02*
X555301D01*
X554120Y172047D02*
Y174409D01*
X552545Y170276D02*
Y176181D01*
X555694Y170276D02*
Y176181D01*
X552545Y170276D02*
X555694D01*
X552545Y176181D02*
X555694D01*
X544095Y173228D02*
X546457D01*
X545276Y172047D02*
Y174409D01*
X543701Y170276D02*
Y176181D01*
X546850Y170276D02*
Y176181D01*
X543701Y170276D02*
X546850D01*
X543701Y176181D02*
X546850D01*
X544095Y148898D02*
X546457D01*
X545276Y147716D02*
Y150079D01*
X546850Y145945D02*
Y151850D01*
X543701Y145945D02*
Y151850D01*
X546850D01*
X543701Y145945D02*
X546850D01*
X630709Y86614D02*
X633071D01*
X631890Y85433D02*
Y87795D01*
X630315Y83661D02*
Y89567D01*
X633465Y83661D02*
Y89567D01*
X630315Y83661D02*
X633465D01*
X630315Y89567D02*
X633465D01*
X634646Y86614D02*
X637008D01*
X635827Y85433D02*
Y87795D01*
X634252Y83661D02*
Y89567D01*
X637402Y83661D02*
Y89567D01*
X634252Y83661D02*
X637402D01*
X634252Y89567D02*
X637402D01*
X638583Y86614D02*
X640945D01*
X639764Y85433D02*
Y87795D01*
X638189Y83661D02*
Y89567D01*
X641339Y83661D02*
Y89567D01*
X638189Y83661D02*
X641339D01*
X638189Y89567D02*
X641339D01*
X642520Y86614D02*
X644882D01*
X643701Y85433D02*
Y87795D01*
X642126Y83661D02*
Y89567D01*
X645276Y83661D02*
Y89567D01*
X642126Y83661D02*
X645276D01*
X642126Y89567D02*
X645276D01*
X626772Y86614D02*
X629134D01*
X627953Y85433D02*
Y87795D01*
X626378Y83661D02*
Y89567D01*
X629528Y83661D02*
Y89567D01*
X626378Y83661D02*
X629528D01*
X626378Y89567D02*
X629528D01*
X622835Y86614D02*
X625197D01*
X624016Y85433D02*
Y87795D01*
X622441Y83661D02*
Y89567D01*
X625591Y83661D02*
Y89567D01*
X622441Y83661D02*
X625591D01*
X622441Y89567D02*
X625591D01*
X654709Y60748D02*
X657071D01*
X655890Y59567D02*
Y61929D01*
X654315Y57795D02*
Y63701D01*
X657465Y57795D02*
Y63701D01*
X654315Y57795D02*
X657465D01*
X654315Y63701D02*
X657465D01*
X642520Y125984D02*
X644882D01*
X643701Y124803D02*
Y127165D01*
X645276Y123031D02*
Y128937D01*
X642126Y123031D02*
Y128937D01*
X645276D01*
X642126Y123031D02*
X645276D01*
X634646Y125984D02*
X637008D01*
X635827Y124803D02*
Y127165D01*
X637402Y123031D02*
Y128937D01*
X634252Y123031D02*
Y128937D01*
X637402D01*
X634252Y123031D02*
X637402D01*
X638583Y125984D02*
X640945D01*
X639764Y124803D02*
Y127165D01*
X641339Y123031D02*
Y128937D01*
X638189Y123031D02*
Y128937D01*
X641339D01*
X638189Y123031D02*
X641339D01*
X605118Y207362D02*
X607480D01*
X606299Y206181D02*
Y208543D01*
X604724Y204409D02*
Y210315D01*
X607874Y204409D02*
Y210315D01*
X604724Y204409D02*
X607874D01*
X604724Y210315D02*
X607874D01*
X640827Y246850D02*
Y249213D01*
X639646Y248031D02*
X642008D01*
X637874Y249606D02*
X643780D01*
X637874Y246457D02*
X643780D01*
X637874D02*
Y249606D01*
X643780Y246457D02*
Y249606D01*
X626890Y246850D02*
Y249213D01*
X625709Y248031D02*
X628071D01*
X623937Y246457D02*
X629843D01*
X623937Y249606D02*
X629843D01*
Y246457D02*
Y249606D01*
X623937Y246457D02*
Y249606D01*
X354331Y254724D02*
Y257087D01*
X353150Y255906D02*
X355512D01*
X351378Y254331D02*
X357283D01*
X351378Y257480D02*
X357283D01*
Y254331D02*
Y257480D01*
X351378Y254331D02*
Y257480D01*
X616142Y216535D02*
X618504D01*
X617323Y215354D02*
Y217717D01*
X615748Y213583D02*
Y219488D01*
X618898Y213583D02*
Y219488D01*
X615748Y213583D02*
X618898D01*
X615748Y219488D02*
X618898D01*
X618110Y157283D02*
Y159646D01*
X616929Y158465D02*
X619291D01*
X615158Y156890D02*
X621063D01*
X615158Y160039D02*
X621063D01*
Y156890D02*
Y160039D01*
X615158Y156890D02*
Y160039D01*
X587402Y197972D02*
X589764D01*
X588583Y196791D02*
Y199153D01*
X590158Y195020D02*
Y200925D01*
X587008Y195020D02*
Y200925D01*
X590158D01*
X587008Y195020D02*
X590158D01*
X569685Y200787D02*
X572047D01*
X570866Y199606D02*
Y201969D01*
X569291Y197835D02*
Y203740D01*
X572441Y197835D02*
Y203740D01*
X569291Y197835D02*
X572441D01*
X569291Y203740D02*
X572441D01*
X565748Y200787D02*
X568110D01*
X566929Y199606D02*
Y201969D01*
X568504Y197835D02*
Y203740D01*
X565354Y197835D02*
Y203740D01*
X568504D01*
X565354Y197835D02*
X568504D01*
X512205Y200787D02*
X514567D01*
X513386Y199606D02*
Y201969D01*
X511811Y197835D02*
Y203740D01*
X514961Y197835D02*
Y203740D01*
X511811Y197835D02*
X514961D01*
X511811Y203740D02*
X514961D01*
X542126Y200787D02*
X544488D01*
X543307Y199606D02*
Y201969D01*
X541732Y197835D02*
Y203740D01*
X544882Y197835D02*
Y203740D01*
X541732Y197835D02*
X544882D01*
X541732Y203740D02*
X544882D01*
X135317Y17511D02*
X150117D01*
X135317Y6111D02*
X150117D01*
Y17511D01*
X135317Y6111D02*
Y17511D01*
X142717Y10630D02*
Y12992D01*
X141535Y11811D02*
X143898D01*
X162876Y17511D02*
X177676D01*
X162876Y6111D02*
X177676D01*
Y17511D01*
X162876Y6111D02*
Y17511D01*
X170276Y10630D02*
Y12992D01*
X169095Y11811D02*
X171457D01*
X190435Y17511D02*
X205235D01*
X190435Y6111D02*
X205235D01*
Y17511D01*
X190435Y6111D02*
Y17511D01*
X197835Y10630D02*
Y12992D01*
X196653Y11811D02*
X199016D01*
X217994Y17511D02*
X232794D01*
X217994Y6111D02*
X232794D01*
Y17511D01*
X217994Y6111D02*
Y17511D01*
X225394Y10630D02*
Y12992D01*
X224213Y11811D02*
X226575D01*
X245553Y17511D02*
X260353D01*
X245553Y6111D02*
X260353D01*
Y17511D01*
X245553Y6111D02*
Y17511D01*
X252953Y10630D02*
Y12992D01*
X251772Y11811D02*
X254134D01*
X273112Y17511D02*
X287912D01*
X273112Y6111D02*
X287912D01*
Y17511D01*
X273112Y6111D02*
Y17511D01*
X280512Y10630D02*
Y12992D01*
X279331Y11811D02*
X281693D01*
X300671Y17511D02*
X315471D01*
X300671Y6111D02*
X315471D01*
Y17511D01*
X300671Y6111D02*
Y17511D01*
X308071Y10630D02*
Y12992D01*
X306890Y11811D02*
X309252D01*
X328230Y17511D02*
X343030D01*
X328230Y6111D02*
X343030D01*
Y17511D01*
X328230Y6111D02*
Y17511D01*
X335630Y10630D02*
Y12992D01*
X334449Y11811D02*
X336811D01*
X381380Y17511D02*
X396180D01*
X381380Y6111D02*
X396180D01*
Y17511D01*
X381380Y6111D02*
Y17511D01*
X388779Y10630D02*
Y12992D01*
X387598Y11811D02*
X389961D01*
X408939Y17511D02*
X423739D01*
X408939Y6111D02*
X423739D01*
Y17511D01*
X408939Y6111D02*
Y17511D01*
X416339Y10630D02*
Y12992D01*
X415158Y11811D02*
X417520D01*
X436498Y17511D02*
X451298D01*
X436498Y6111D02*
X451298D01*
Y17511D01*
X436498Y6111D02*
Y17511D01*
X443898Y10630D02*
Y12992D01*
X442717Y11811D02*
X445079D01*
X464057Y17511D02*
X478857D01*
X464057Y6111D02*
X478857D01*
Y17511D01*
X464057Y6111D02*
Y17511D01*
X471457Y10630D02*
Y12992D01*
X470276Y11811D02*
X472638D01*
X491616Y17511D02*
X506416D01*
X491616Y6111D02*
X506416D01*
Y17511D01*
X491616Y6111D02*
Y17511D01*
X499016Y10630D02*
Y12992D01*
X497835Y11811D02*
X500197D01*
X519175Y17511D02*
X533975D01*
X519175Y6111D02*
X533975D01*
Y17511D01*
X519175Y6111D02*
Y17511D01*
X526575Y10630D02*
Y12992D01*
X525394Y11811D02*
X527756D01*
X546734Y17511D02*
X561534D01*
X546734Y6111D02*
X561534D01*
Y17511D01*
X546734Y6111D02*
Y17511D01*
X554134Y10630D02*
Y12992D01*
X552953Y11811D02*
X555315D01*
X394980Y258689D02*
X397342D01*
X396161Y257508D02*
Y259870D01*
X397736Y255736D02*
Y261642D01*
X394587Y255736D02*
Y261642D01*
X397736D01*
X394587Y255736D02*
X397736D01*
X433366Y258689D02*
X435728D01*
X434547Y257508D02*
Y259870D01*
X436122Y255736D02*
Y261642D01*
X432972Y255736D02*
Y261642D01*
X436122D01*
X432972Y255736D02*
X436122D01*
X438287Y258689D02*
X440650D01*
X439468Y257508D02*
Y259870D01*
X441043Y255736D02*
Y261642D01*
X437894Y255736D02*
Y261642D01*
X441043D01*
X437894Y255736D02*
X441043D01*
X476279Y252736D02*
X479429D01*
X476279Y258642D02*
X479429D01*
X476279Y252736D02*
Y258642D01*
X479429Y252736D02*
Y258642D01*
X477854Y254508D02*
Y256870D01*
X476673Y255689D02*
X479035D01*
X650772Y60748D02*
X653134D01*
X651953Y59567D02*
Y61929D01*
X650378Y57795D02*
Y63701D01*
X653528Y57795D02*
Y63701D01*
X650378Y57795D02*
X653528D01*
X650378Y63701D02*
X653528D01*
X393701Y270472D02*
Y272835D01*
X392520Y271654D02*
X394882D01*
X376701Y264054D02*
X410701D01*
X376701D02*
Y288053D01*
X410701D01*
Y264054D02*
Y288053D01*
X354331Y270472D02*
Y272835D01*
X353150Y271654D02*
X355512D01*
X337331Y264054D02*
X371331D01*
X337331D02*
Y288053D01*
X371331D01*
Y264054D02*
Y288053D01*
X130709Y15748D02*
X133071D01*
X131890Y14567D02*
Y16929D01*
X130315Y12795D02*
Y18701D01*
X133465Y12795D02*
Y18701D01*
X130315Y12795D02*
X133465D01*
X130315Y18701D02*
X133465D01*
X133051Y106299D02*
X135413D01*
X134232Y105118D02*
Y107480D01*
X132658Y103347D02*
Y109252D01*
X135807Y103347D02*
Y109252D01*
X132658Y103347D02*
X135807D01*
X132658Y109252D02*
X135807D01*
X143051Y106299D02*
X145413D01*
X144232Y105118D02*
Y107480D01*
X142657Y103347D02*
Y109252D01*
X145807Y103347D02*
Y109252D01*
X142657Y103347D02*
X145807D01*
X142657Y109252D02*
X145807D01*
X158268Y15748D02*
X160630D01*
X159449Y14567D02*
Y16929D01*
X157874Y12795D02*
Y18701D01*
X161024Y12795D02*
Y18701D01*
X157874Y12795D02*
X161024D01*
X157874Y18701D02*
X161024D01*
X160610Y106299D02*
X162972D01*
X161791Y105118D02*
Y107480D01*
X160216Y103347D02*
Y109252D01*
X163366Y103347D02*
Y109252D01*
X160216Y103347D02*
X163366D01*
X160216Y109252D02*
X163366D01*
X170610Y106299D02*
X172973D01*
X171791Y105118D02*
Y107480D01*
X170217Y103347D02*
Y109252D01*
X173366Y103347D02*
Y109252D01*
X170217Y103347D02*
X173366D01*
X170217Y109252D02*
X173366D01*
X185827Y15748D02*
X188189D01*
X187008Y14567D02*
Y16929D01*
X185433Y12795D02*
Y18701D01*
X188583Y12795D02*
Y18701D01*
X185433Y12795D02*
X188583D01*
X185433Y18701D02*
X188583D01*
X188169Y106299D02*
X190532D01*
X189350Y105118D02*
Y107480D01*
X187776Y103347D02*
Y109252D01*
X190925Y103347D02*
Y109252D01*
X187776Y103347D02*
X190925D01*
X187776Y109252D02*
X190925D01*
X198169Y106299D02*
X200532D01*
X199350Y105118D02*
Y107480D01*
X197776Y103347D02*
Y109252D01*
X200925Y103347D02*
Y109252D01*
X197776Y103347D02*
X200925D01*
X197776Y109252D02*
X200925D01*
X213386Y15748D02*
X215748D01*
X214567Y14567D02*
Y16929D01*
X212992Y12795D02*
Y18701D01*
X216142Y12795D02*
Y18701D01*
X212992Y12795D02*
X216142D01*
X212992Y18701D02*
X216142D01*
X215728Y106299D02*
X218091D01*
X216910Y105118D02*
Y107480D01*
X215335Y103347D02*
Y109252D01*
X218484Y103347D02*
Y109252D01*
X215335Y103347D02*
X218484D01*
X215335Y109252D02*
X218484D01*
X225728Y106299D02*
X228091D01*
X226909Y105118D02*
Y107480D01*
X225335Y103347D02*
Y109252D01*
X228484Y103347D02*
Y109252D01*
X225335Y103347D02*
X228484D01*
X225335Y109252D02*
X228484D01*
X240945Y15748D02*
X243307D01*
X242126Y14567D02*
Y16929D01*
X240551Y12795D02*
Y18701D01*
X243701Y12795D02*
Y18701D01*
X240551Y12795D02*
X243701D01*
X240551Y18701D02*
X243701D01*
X243287Y106299D02*
X245650D01*
X244468Y105118D02*
Y107480D01*
X242894Y103347D02*
Y109252D01*
X246043Y103347D02*
Y109252D01*
X242894Y103347D02*
X246043D01*
X242894Y109252D02*
X246043D01*
X253287Y106299D02*
X255650D01*
X254468Y105118D02*
Y107480D01*
X252894Y103347D02*
Y109252D01*
X256043Y103347D02*
Y109252D01*
X252894Y103347D02*
X256043D01*
X252894Y109252D02*
X256043D01*
X268504Y15748D02*
X270866D01*
X269685Y14567D02*
Y16929D01*
X268110Y12795D02*
Y18701D01*
X271260Y12795D02*
Y18701D01*
X268110Y12795D02*
X271260D01*
X268110Y18701D02*
X271260D01*
X270847Y106299D02*
X273209D01*
X272028Y105118D02*
Y107480D01*
X270453Y103347D02*
Y109252D01*
X273602Y103347D02*
Y109252D01*
X270453Y103347D02*
X273602D01*
X270453Y109252D02*
X273602D01*
X280847Y106299D02*
X283209D01*
X282028Y105118D02*
Y107480D01*
X280453Y103347D02*
Y109252D01*
X283602Y103347D02*
Y109252D01*
X280453Y103347D02*
X283602D01*
X280453Y109252D02*
X283602D01*
X296063Y15748D02*
X298425D01*
X297244Y14567D02*
Y16929D01*
X295669Y12795D02*
Y18701D01*
X298819Y12795D02*
Y18701D01*
X295669Y12795D02*
X298819D01*
X295669Y18701D02*
X298819D01*
X298406Y106299D02*
X300768D01*
X299587Y105118D02*
Y107480D01*
X298012Y103347D02*
Y109252D01*
X301161Y103347D02*
Y109252D01*
X298012Y103347D02*
X301161D01*
X298012Y109252D02*
X301161D01*
X308405Y106299D02*
X310768D01*
X309587Y105118D02*
Y107480D01*
X308012Y103347D02*
Y109252D01*
X311161Y103347D02*
Y109252D01*
X308012Y103347D02*
X311161D01*
X308012Y109252D02*
X311161D01*
X323622Y15748D02*
X325984D01*
X324803Y14567D02*
Y16929D01*
X323228Y12795D02*
Y18701D01*
X326378Y12795D02*
Y18701D01*
X323228Y12795D02*
X326378D01*
X323228Y18701D02*
X326378D01*
X325965Y106299D02*
X328327D01*
X327146Y105118D02*
Y107480D01*
X325571Y103347D02*
Y109252D01*
X328720Y103347D02*
Y109252D01*
X325571Y103347D02*
X328720D01*
X325571Y109252D02*
X328720D01*
X335965Y106299D02*
X338327D01*
X337146Y105118D02*
Y107480D01*
X335571Y103347D02*
Y109252D01*
X338720Y103347D02*
Y109252D01*
X335571Y103347D02*
X338720D01*
X335571Y109252D02*
X338720D01*
X376772Y15748D02*
X379134D01*
X377953Y14567D02*
Y16929D01*
X376378Y12795D02*
Y18701D01*
X379528Y12795D02*
Y18701D01*
X376378Y12795D02*
X379528D01*
X376378Y18701D02*
X379528D01*
X379114Y106299D02*
X381476D01*
X380295Y105118D02*
Y107480D01*
X378720Y103347D02*
Y109252D01*
X381870Y103347D02*
Y109252D01*
X378720Y103347D02*
X381870D01*
X378720Y109252D02*
X381870D01*
X389114Y106299D02*
X391476D01*
X390295Y105118D02*
Y107480D01*
X388720Y103347D02*
Y109252D01*
X391870Y103347D02*
Y109252D01*
X388720Y103347D02*
X391870D01*
X388720Y109252D02*
X391870D01*
X404331Y15748D02*
X406693D01*
X405512Y14567D02*
Y16929D01*
X403937Y12795D02*
Y18701D01*
X407087Y12795D02*
Y18701D01*
X403937Y12795D02*
X407087D01*
X403937Y18701D02*
X407087D01*
X406673Y106299D02*
X409035D01*
X407854Y105118D02*
Y107480D01*
X406280Y103347D02*
Y109252D01*
X409429Y103347D02*
Y109252D01*
X406280Y103347D02*
X409429D01*
X406280Y109252D02*
X409429D01*
X416673Y106299D02*
X419035D01*
X417854Y105118D02*
Y107480D01*
X416280Y103347D02*
Y109252D01*
X419429Y103347D02*
Y109252D01*
X416280Y103347D02*
X419429D01*
X416280Y109252D02*
X419429D01*
X431890Y15748D02*
X434252D01*
X433071Y14567D02*
Y16929D01*
X431496Y12795D02*
Y18701D01*
X434646Y12795D02*
Y18701D01*
X431496Y12795D02*
X434646D01*
X431496Y18701D02*
X434646D01*
X434232Y106299D02*
X436594D01*
X435413Y105118D02*
Y107480D01*
X433839Y103347D02*
Y109252D01*
X436988Y103347D02*
Y109252D01*
X433839Y103347D02*
X436988D01*
X433839Y109252D02*
X436988D01*
X444232Y106299D02*
X446594D01*
X445413Y105118D02*
Y107480D01*
X443839Y103347D02*
Y109252D01*
X446988Y103347D02*
Y109252D01*
X443839Y103347D02*
X446988D01*
X443839Y109252D02*
X446988D01*
X459449Y15748D02*
X461811D01*
X460630Y14567D02*
Y16929D01*
X459055Y12795D02*
Y18701D01*
X462205Y12795D02*
Y18701D01*
X459055Y12795D02*
X462205D01*
X459055Y18701D02*
X462205D01*
X461791Y106299D02*
X464153D01*
X462972Y105118D02*
Y107480D01*
X461398Y103347D02*
Y109252D01*
X464547Y103347D02*
Y109252D01*
X461398Y103347D02*
X464547D01*
X461398Y109252D02*
X464547D01*
X471791Y106299D02*
X474154D01*
X472972Y105118D02*
Y107480D01*
X471398Y103347D02*
Y109252D01*
X474547Y103347D02*
Y109252D01*
X471398Y103347D02*
X474547D01*
X471398Y109252D02*
X474547D01*
X487008Y15748D02*
X489370D01*
X488189Y14567D02*
Y16929D01*
X486614Y12795D02*
Y18701D01*
X489764Y12795D02*
Y18701D01*
X486614Y12795D02*
X489764D01*
X486614Y18701D02*
X489764D01*
X489350Y106299D02*
X491713D01*
X490531Y105118D02*
Y107480D01*
X488957Y103347D02*
Y109252D01*
X492106Y103347D02*
Y109252D01*
X488957Y103347D02*
X492106D01*
X488957Y109252D02*
X492106D01*
X499350Y106299D02*
X501713D01*
X500531Y105118D02*
Y107480D01*
X498957Y103347D02*
Y109252D01*
X502106Y103347D02*
Y109252D01*
X498957Y103347D02*
X502106D01*
X498957Y109252D02*
X502106D01*
X514567Y15748D02*
X516929D01*
X515748Y14567D02*
Y16929D01*
X514173Y12795D02*
Y18701D01*
X517323Y12795D02*
Y18701D01*
X514173Y12795D02*
X517323D01*
X514173Y18701D02*
X517323D01*
X516910Y106299D02*
X519272D01*
X518091Y105118D02*
Y107480D01*
X516516Y103347D02*
Y109252D01*
X519665Y103347D02*
Y109252D01*
X516516Y103347D02*
X519665D01*
X516516Y109252D02*
X519665D01*
X526909Y106299D02*
X529272D01*
X528091Y105118D02*
Y107480D01*
X526516Y103347D02*
Y109252D01*
X529665Y103347D02*
Y109252D01*
X526516Y103347D02*
X529665D01*
X526516Y109252D02*
X529665D01*
X542126Y15748D02*
X544488D01*
X543307Y14567D02*
Y16929D01*
X541732Y12795D02*
Y18701D01*
X544882Y12795D02*
Y18701D01*
X541732Y12795D02*
X544882D01*
X541732Y18701D02*
X544882D01*
X544468Y106299D02*
X546831D01*
X545650Y105118D02*
Y107480D01*
X544075Y103347D02*
Y109252D01*
X547224Y103347D02*
Y109252D01*
X544075Y103347D02*
X547224D01*
X544075Y109252D02*
X547224D01*
X554468Y106299D02*
X556831D01*
X555650Y105118D02*
Y107480D01*
X554075Y103347D02*
Y109252D01*
X557224Y103347D02*
Y109252D01*
X554075Y103347D02*
X557224D01*
X554075Y109252D02*
X557224D01*
X569685Y15748D02*
X572047D01*
X570866Y14567D02*
Y16929D01*
X569291Y12795D02*
Y18701D01*
X572441Y12795D02*
Y18701D01*
X569291Y12795D02*
X572441D01*
X569291Y18701D02*
X572441D01*
X572028Y106299D02*
X574390D01*
X573209Y105118D02*
Y107480D01*
X571634Y103347D02*
Y109252D01*
X574784Y103347D02*
Y109252D01*
X571634Y103347D02*
X574784D01*
X571634Y109252D02*
X574784D01*
X582028Y106299D02*
X584390D01*
X583209Y105118D02*
Y107480D01*
X581634Y103347D02*
Y109252D01*
X584784Y103347D02*
Y109252D01*
X581634Y103347D02*
X584784D01*
X581634Y109252D02*
X584784D01*
X384744Y261642D02*
X387894D01*
X384744Y255736D02*
X387894D01*
Y261642D01*
X384744Y255736D02*
Y261642D01*
X386319Y257508D02*
Y259870D01*
X385138Y258689D02*
X387500D01*
X379823Y261642D02*
X382972D01*
X379823Y255736D02*
X382972D01*
Y261642D01*
X379823Y255736D02*
Y261642D01*
X381398Y257508D02*
Y259870D01*
X380217Y258689D02*
X382579D01*
X399508Y255736D02*
X402658D01*
X399508Y261642D02*
X402658D01*
X399508Y255736D02*
Y261642D01*
X402658Y255736D02*
Y261642D01*
X401083Y257508D02*
Y259870D01*
X399902Y258689D02*
X402264D01*
X428051Y261642D02*
X431201D01*
X428051Y255736D02*
X431201D01*
Y261642D01*
X428051Y255736D02*
Y261642D01*
X429626Y257508D02*
Y259870D01*
X428445Y258689D02*
X430807D01*
X442815Y261642D02*
X445965D01*
X442815Y255736D02*
X445965D01*
Y261642D01*
X442815Y255736D02*
Y261642D01*
X444390Y257508D02*
Y259870D01*
X443209Y258689D02*
X445571D01*
X486516Y255689D02*
X488878D01*
X487697Y254508D02*
Y256870D01*
X489272Y252736D02*
Y258642D01*
X486122Y252736D02*
Y258642D01*
X489272D01*
X486122Y252736D02*
X489272D01*
X549021Y136811D02*
X552171D01*
X549021Y130905D02*
X552171D01*
Y136811D01*
X549021Y130905D02*
Y136811D01*
X550596Y132677D02*
Y135039D01*
X549415Y133858D02*
X551777D01*
X543701Y130905D02*
X546850D01*
X543701Y136811D02*
X546850D01*
X543701Y130905D02*
Y136811D01*
X546850Y130905D02*
Y136811D01*
X545276Y132677D02*
Y135039D01*
X544095Y133858D02*
X546457D01*
X549021Y176181D02*
X552171D01*
X549021Y170276D02*
X552171D01*
Y176181D01*
X549021Y170276D02*
Y176181D01*
X550596Y172047D02*
Y174409D01*
X549415Y173228D02*
X551777D01*
X559521Y136811D02*
X562671D01*
X559521Y130905D02*
X562671D01*
Y136811D01*
X559521Y130905D02*
Y136811D01*
X561096Y132677D02*
Y135039D01*
X559915Y133858D02*
X562277D01*
X615158Y104724D02*
Y107874D01*
X621063Y104724D02*
Y107874D01*
X615158D02*
X621063D01*
X615158Y104724D02*
X621063D01*
X616929Y106299D02*
X619291D01*
X618110Y105118D02*
Y107480D01*
X615158Y108661D02*
Y111811D01*
X621063Y108661D02*
Y111811D01*
X615158D02*
X621063D01*
X615158Y108661D02*
X621063D01*
X616929Y110236D02*
X619291D01*
X618110Y109055D02*
Y111417D01*
X652559Y108661D02*
Y111811D01*
X646654Y108661D02*
Y111811D01*
Y108661D02*
X652559D01*
X646654Y111811D02*
X652559D01*
X648425Y110236D02*
X650787D01*
X649606Y109055D02*
Y111417D01*
X612598Y213583D02*
X615748D01*
X612598Y219488D02*
X615748D01*
X612598Y213583D02*
Y219488D01*
X615748Y213583D02*
Y219488D01*
X614173Y215354D02*
Y217717D01*
X612992Y216535D02*
X615354D01*
X615748Y195866D02*
X618898D01*
X615748Y189961D02*
X618898D01*
Y195866D01*
X615748Y189961D02*
Y195866D01*
X617323Y191732D02*
Y194095D01*
X616142Y192913D02*
X618504D01*
X612598Y195866D02*
X615748D01*
X612598Y189961D02*
X615748D01*
Y195866D01*
X612598Y189961D02*
Y195866D01*
X614173Y191732D02*
Y194095D01*
X612992Y192913D02*
X615354D01*
X630315Y143437D02*
X633465D01*
X630315Y137531D02*
X633465D01*
Y143437D01*
X630315Y137531D02*
Y143437D01*
X631890Y139303D02*
Y141665D01*
X630709Y140484D02*
X633071D01*
X634252Y143437D02*
X637402D01*
X634252Y137531D02*
X637402D01*
Y143437D01*
X634252Y137531D02*
Y143437D01*
X635827Y139303D02*
Y141665D01*
X634646Y140484D02*
X637008D01*
X646654Y149016D02*
Y152165D01*
X652559Y149016D02*
Y152165D01*
X646654D02*
X652559D01*
X646654Y149016D02*
X652559D01*
X648425Y150591D02*
X650787D01*
X649606Y149409D02*
Y151772D01*
X507874Y203740D02*
X511024D01*
X507874Y197835D02*
X511024D01*
Y203740D01*
X507874Y197835D02*
Y203740D01*
X509449Y199606D02*
Y201969D01*
X508268Y200787D02*
X510630D01*
X551575Y197835D02*
X554724D01*
X551575Y203740D02*
X554724D01*
X551575Y197835D02*
Y203740D01*
X554724Y197835D02*
Y203740D01*
X553150Y199606D02*
Y201969D01*
X551968Y200787D02*
X554331D01*
X537795Y197835D02*
X540945D01*
X537795Y203740D02*
X540945D01*
X537795Y197835D02*
Y203740D01*
X540945Y197835D02*
Y203740D01*
X539370Y199606D02*
Y201969D01*
X538189Y200787D02*
X540551D01*
X507874Y222165D02*
X511024D01*
X507874Y228071D02*
X511024D01*
X507874Y222165D02*
Y228071D01*
X511024Y222165D02*
Y228071D01*
X509449Y223937D02*
Y226299D01*
X508268Y225118D02*
X510630D01*
X507874Y218779D02*
X511024D01*
X507874Y212874D02*
X511024D01*
Y218779D01*
X507874Y212874D02*
Y218779D01*
X509449Y214646D02*
Y217008D01*
X508268Y215827D02*
X510630D01*
X507874Y239882D02*
X511024D01*
X507874Y245787D02*
X511024D01*
X507874Y239882D02*
Y245787D01*
X511024Y239882D02*
Y245787D01*
X509449Y241653D02*
Y244016D01*
X508268Y242835D02*
X510630D01*
X503937Y245787D02*
X507087D01*
X503937Y239882D02*
X507087D01*
Y245787D01*
X503937Y239882D02*
Y245787D01*
X505512Y241653D02*
Y244016D01*
X504331Y242835D02*
X506693D01*
X511811Y228071D02*
X514961D01*
X511811Y222165D02*
X514961D01*
Y228071D01*
X511811Y222165D02*
Y228071D01*
X513386Y223937D02*
Y226299D01*
X512205Y225118D02*
X514567D01*
X511811Y212874D02*
X514961D01*
X511811Y218779D02*
X514961D01*
X511811Y212874D02*
Y218779D01*
X514961Y212874D02*
Y218779D01*
X513386Y214646D02*
Y217008D01*
X512205Y215827D02*
X514567D01*
X178800Y189304D02*
Y290504D01*
Y189304D02*
X252400D01*
Y290504D01*
X178800D02*
X252400D01*
X111862Y284925D02*
Y288075D01*
X105957Y284925D02*
Y288075D01*
X111862D01*
X105957Y284925D02*
X111862D01*
X107728Y286500D02*
X110091D01*
X108909Y285319D02*
Y287681D01*
X157138Y264925D02*
Y268075D01*
X163043Y264925D02*
Y268075D01*
X157138Y264925D02*
X163043D01*
X157138Y268075D02*
X163043D01*
X158909Y266500D02*
X161272D01*
X160091Y265319D02*
Y267681D01*
X111862Y264925D02*
Y268075D01*
X105957Y264925D02*
Y268075D01*
X111862D01*
X105957Y264925D02*
X111862D01*
X107728Y266500D02*
X110091D01*
X108909Y265319D02*
Y267681D01*
X157138Y284925D02*
Y288075D01*
X163043Y284925D02*
Y288075D01*
X157138Y284925D02*
X163043D01*
X157138Y288075D02*
X163043D01*
X158909Y286500D02*
X161272D01*
X160091Y285319D02*
Y287681D01*
X109303Y245260D02*
X112453D01*
X109303Y239354D02*
X112453D01*
X109303D02*
Y245260D01*
X112453Y239354D02*
Y245260D01*
X110878Y241126D02*
Y243488D01*
X109697Y242307D02*
X112059D01*
X108909Y278652D02*
Y281014D01*
X107728Y279833D02*
X110091D01*
X105957Y281408D02*
X111862D01*
X105957Y278258D02*
X111862D01*
Y281408D01*
X105957Y278258D02*
Y281408D01*
X160091Y271986D02*
Y274348D01*
X158909Y273167D02*
X161272D01*
X157138Y271592D02*
X163043D01*
X157138Y274742D02*
X163043D01*
X157138Y271592D02*
Y274742D01*
X163043Y271592D02*
Y274742D01*
X108909Y271986D02*
Y274348D01*
X107728Y273167D02*
X110091D01*
X105957Y274742D02*
X111862D01*
X105957Y271592D02*
X111862D01*
Y274742D01*
X105957Y271592D02*
Y274742D01*
X160091Y278652D02*
Y281014D01*
X158909Y279833D02*
X161272D01*
X157138Y278258D02*
X163043D01*
X157138Y281408D02*
X163043D01*
X157138Y278258D02*
Y281408D01*
X163043Y278258D02*
Y281408D01*
X105760Y242307D02*
X108122D01*
X106941Y241126D02*
Y243488D01*
X105366Y239354D02*
Y245260D01*
X108516Y239354D02*
Y245260D01*
X105366D02*
X108516D01*
X105366Y239354D02*
X108516D01*
X609973Y199124D02*
X618373D01*
Y210324D01*
X609973D02*
X618373D01*
X609973Y199124D02*
Y210324D01*
X368110Y69095D02*
X596457D01*
Y19882D02*
Y69095D01*
X368110Y19882D02*
X596457D01*
X368110D02*
Y69095D01*
X13780Y19882D02*
Y69095D01*
Y19882D02*
X104331D01*
Y69095D01*
X13780D02*
X104331D01*
X614173D02*
X649606D01*
Y19882D02*
Y69095D01*
X614173Y19882D02*
X649606D01*
X614173D02*
Y69095D01*
X375398Y235726D02*
Y248526D01*
Y235726D02*
X387398D01*
Y248526D01*
X375398D02*
X387398D01*
X545328Y198287D02*
Y203287D01*
X551128Y198287D02*
Y203287D01*
X545328Y198287D02*
X551128D01*
X545328Y203287D02*
X551128D01*
X156154Y260949D02*
Y292051D01*
X112847Y260949D02*
X156154D01*
X112847D02*
Y292051D01*
X156154D01*
X624858Y97299D02*
X642858D01*
X624858D02*
Y115299D01*
X642858D01*
Y97299D02*
Y115299D01*
X644658Y234258D02*
Y246058D01*
X623158Y234258D02*
X644658D01*
X623158D02*
Y246058D01*
X644658D01*
X580777Y194380D02*
Y204380D01*
X584577Y194380D02*
Y204380D01*
X580777Y194380D02*
X584577D01*
X580777Y204380D02*
X584577D01*
X571009Y73214D02*
X590409D01*
Y100014D01*
X571009Y73214D02*
Y100014D01*
X590409D01*
X113043Y236047D02*
Y251953D01*
X155957D01*
Y236047D02*
Y251953D01*
X113043Y236047D02*
X155957D01*
X415158Y264054D02*
X458929D01*
X415158Y288053D02*
X458929D01*
Y264054D02*
Y288053D01*
X415158Y264054D02*
Y288053D01*
X463315Y264054D02*
X497315D01*
X463315Y288053D02*
X497315D01*
Y264054D02*
Y288053D01*
X463315Y264054D02*
Y288053D01*
X554576Y293502D02*
X573376D01*
X554576Y277802D02*
X573376D01*
X554576D02*
Y293502D01*
X573376Y277802D02*
Y293502D01*
X178800Y189304D02*
X252400D01*
X178800Y290504D02*
X252400D01*
Y189304D02*
Y290504D01*
X178800Y189304D02*
Y290504D01*
X567177Y168680D02*
X598177D01*
Y146280D02*
Y168680D01*
X567177Y146280D02*
X598177D01*
X567177D02*
Y168680D01*
X578672Y194380D02*
Y204380D01*
X574872Y194380D02*
Y204380D01*
X578672D01*
X574872Y194380D02*
X578672D01*
X508122Y145058D02*
X539122D01*
Y122658D02*
Y145058D01*
X508122Y122658D02*
X539122D01*
X508122D02*
Y145058D01*
X567177D02*
X598177D01*
Y122658D02*
Y145058D01*
X567177Y122658D02*
X598177D01*
X567177D02*
Y145058D01*
X122047Y69095D02*
X350394D01*
Y19882D02*
Y69095D01*
X122047Y19882D02*
X350394D01*
X122047D02*
Y69095D01*
X376701Y264054D02*
Y288053D01*
X410701Y264054D02*
Y288053D01*
X376701D02*
X410701D01*
X376701Y264054D02*
X410701D01*
X337331D02*
Y288053D01*
X371331Y264054D02*
Y288053D01*
X337331D02*
X371331D01*
X337331Y264054D02*
X371331D01*
X132032Y73214D02*
X151432D01*
Y100014D01*
X132032Y73214D02*
Y100014D01*
X151432D01*
X159591Y73214D02*
X178991D01*
Y100014D01*
X159591Y73214D02*
Y100014D01*
X178991D01*
X187150Y73214D02*
X206550D01*
Y100014D01*
X187150Y73214D02*
Y100014D01*
X206550D01*
X214709Y73214D02*
X234109D01*
Y100014D01*
X214709Y73214D02*
Y100014D01*
X234109D01*
X242268Y73214D02*
X261668D01*
Y100014D01*
X242268Y73214D02*
Y100014D01*
X261668D01*
X269828Y73214D02*
X289228D01*
Y100014D01*
X269828Y73214D02*
Y100014D01*
X289228D01*
X297387Y73214D02*
X316787D01*
Y100014D01*
X297387Y73214D02*
Y100014D01*
X316787D01*
X324946Y73214D02*
X344346D01*
Y100014D01*
X324946Y73214D02*
Y100014D01*
X344346D01*
X378095Y73214D02*
X397495D01*
Y100014D01*
X378095Y73214D02*
Y100014D01*
X397495D01*
X405654Y73214D02*
X425054D01*
Y100014D01*
X405654Y73214D02*
Y100014D01*
X425054D01*
X433213Y73214D02*
X452613D01*
Y100014D01*
X433213Y73214D02*
Y100014D01*
X452613D01*
X460772Y73214D02*
X480172D01*
Y100014D01*
X460772Y73214D02*
Y100014D01*
X480172D01*
X488332Y73214D02*
X507731D01*
Y100014D01*
X488332Y73214D02*
Y100014D01*
X507731D01*
X515891Y73214D02*
X535290D01*
Y100014D01*
X515891Y73214D02*
Y100014D01*
X535290D01*
X543450Y73214D02*
X562850D01*
Y100014D01*
X543450Y73214D02*
Y100014D01*
X562850D01*
X447808Y236226D02*
Y248026D01*
X426308Y236226D02*
X447808D01*
X426308D02*
Y248026D01*
X447808D01*
D19*
X663386Y-11811D02*
G03*
X675197Y0I0J11811D01*
G01*
Y314961D02*
G03*
X663386Y326772I-11811J0D01*
G01*
X-11811Y-0D02*
G03*
X0Y-11811I11811J0D01*
G01*
Y326772D02*
G03*
X-11811Y314961I0J-11811D01*
G01*
X675197Y0D02*
Y314961D01*
X0Y326772D02*
X663386D01*
X-11811Y-0D02*
Y314961D01*
X0Y-11811D02*
X663386D01*
D20*
X553543Y150591D02*
Y156496D01*
X556693Y150591D02*
Y156496D01*
X553569Y150591D02*
X556718D01*
X553569Y156496D02*
X556718D01*
X620958Y228824D02*
X646858D01*
X620958Y180724D02*
X646858D01*
Y228824D01*
X620958Y180724D02*
Y228824D01*
X565551Y260827D02*
Y266732D01*
X562402Y260827D02*
Y266732D01*
X562376D02*
X565526D01*
X562376Y260827D02*
X565526D01*
X583268Y8858D02*
Y14764D01*
X580118Y8858D02*
Y14764D01*
X580093D02*
X583243D01*
X580093Y8858D02*
X583243D01*
X558661Y197756D02*
Y203661D01*
X555512Y197756D02*
Y203661D01*
X555487D02*
X558636D01*
X555487Y197756D02*
X558636D01*
X357283Y258243D02*
Y261392D01*
X351378Y258243D02*
Y261392D01*
Y258268D02*
X357283D01*
X351378Y261417D02*
X357283D01*
X511836Y245787D02*
X514986D01*
X511836Y239882D02*
X514986D01*
X514961D02*
Y245787D01*
X511811Y239882D02*
Y245787D01*
X131075Y94232D02*
Y100138D01*
X127925Y94232D02*
Y100138D01*
X127900D02*
X131050D01*
X127900Y94232D02*
X131050D01*
X140807Y103347D02*
Y109252D01*
X137657Y103347D02*
Y109252D01*
X137632D02*
X140782D01*
X137632Y103347D02*
X140782D01*
X150807D02*
Y109252D01*
X147658Y103347D02*
Y109252D01*
X147632D02*
X150782D01*
X147632Y103347D02*
X150782D01*
X158575Y94232D02*
Y100138D01*
X155425Y94232D02*
Y100138D01*
X155400D02*
X158550D01*
X155400Y94232D02*
X158550D01*
X168366Y103347D02*
Y109252D01*
X165217Y103347D02*
Y109252D01*
X165191D02*
X168341D01*
X165191Y103347D02*
X168341D01*
X178366D02*
Y109252D01*
X175217Y103347D02*
Y109252D01*
X175191D02*
X178341D01*
X175191Y103347D02*
X178341D01*
X186575Y94232D02*
Y100138D01*
X183425Y94232D02*
Y100138D01*
X183400D02*
X186550D01*
X183400Y94232D02*
X186550D01*
X195925Y103347D02*
Y109252D01*
X192776Y103347D02*
Y109252D01*
X192750D02*
X195900D01*
X192750Y103347D02*
X195900D01*
X205925D02*
Y109252D01*
X202776Y103347D02*
Y109252D01*
X202750D02*
X205900D01*
X202750Y103347D02*
X205900D01*
X214075Y94232D02*
Y100138D01*
X210925Y94232D02*
Y100138D01*
X210900D02*
X214050D01*
X210900Y94232D02*
X214050D01*
X223484Y103347D02*
Y109252D01*
X220335Y103347D02*
Y109252D01*
X220309D02*
X223459D01*
X220309Y103347D02*
X223459D01*
X233484D02*
Y109252D01*
X230335Y103347D02*
Y109252D01*
X230310D02*
X233459D01*
X230310Y103347D02*
X233459D01*
X241575Y94232D02*
Y100138D01*
X238425Y94232D02*
Y100138D01*
X238400D02*
X241550D01*
X238400Y94232D02*
X241550D01*
X251043Y103347D02*
Y109252D01*
X247894Y103347D02*
Y109252D01*
X247868D02*
X251018D01*
X247868Y103347D02*
X251018D01*
X261043D02*
Y109252D01*
X257894Y103347D02*
Y109252D01*
X257869D02*
X261018D01*
X257869Y103347D02*
X261018D01*
X269575Y94232D02*
Y100138D01*
X266425Y94232D02*
Y100138D01*
X266400D02*
X269550D01*
X266400Y94232D02*
X269550D01*
X278602Y103347D02*
Y109252D01*
X275453Y103347D02*
Y109252D01*
X275428D02*
X278577D01*
X275428Y103347D02*
X278577D01*
X288602D02*
Y109252D01*
X285453Y103347D02*
Y109252D01*
X285428D02*
X288577D01*
X285428Y103347D02*
X288577D01*
X297075Y94232D02*
Y100138D01*
X293925Y94232D02*
Y100138D01*
X293900D02*
X297050D01*
X293900Y94232D02*
X297050D01*
X306161Y103347D02*
Y109252D01*
X303012Y103347D02*
Y109252D01*
X302987D02*
X306136D01*
X302987Y103347D02*
X306136D01*
X316161D02*
Y109252D01*
X313012Y103347D02*
Y109252D01*
X312987D02*
X316136D01*
X312987Y103347D02*
X316136D01*
X324575Y94232D02*
Y100138D01*
X321425Y94232D02*
Y100138D01*
X321400D02*
X324550D01*
X321400Y94232D02*
X324550D01*
X333720Y103347D02*
Y109252D01*
X330571Y103347D02*
Y109252D01*
X330546D02*
X333695D01*
X330546Y103347D02*
X333695D01*
X343721D02*
Y109252D01*
X340571Y103347D02*
Y109252D01*
X340546D02*
X343695D01*
X340546Y103347D02*
X343695D01*
X378075Y94232D02*
Y100138D01*
X374925Y94232D02*
Y100138D01*
X374900D02*
X378050D01*
X374900Y94232D02*
X378050D01*
X386870Y103347D02*
Y109252D01*
X383720Y103347D02*
Y109252D01*
X383695D02*
X386845D01*
X383695Y103347D02*
X386845D01*
X396870D02*
Y109252D01*
X393721Y103347D02*
Y109252D01*
X393695D02*
X396845D01*
X393695Y103347D02*
X396845D01*
X405575Y94232D02*
Y100138D01*
X402425Y94232D02*
Y100138D01*
X402400D02*
X405550D01*
X402400Y94232D02*
X405550D01*
X414429Y103347D02*
Y109252D01*
X411279Y103347D02*
Y109252D01*
X411254D02*
X414404D01*
X411254Y103347D02*
X414404D01*
X424429D02*
Y109252D01*
X421279Y103347D02*
Y109252D01*
X421254D02*
X424404D01*
X421254Y103347D02*
X424404D01*
X433075Y94232D02*
Y100138D01*
X429925Y94232D02*
Y100138D01*
X429900D02*
X433050D01*
X429900Y94232D02*
X433050D01*
X441988Y103347D02*
Y109252D01*
X438839Y103347D02*
Y109252D01*
X438813D02*
X441963D01*
X438813Y103347D02*
X441963D01*
X451988D02*
Y109252D01*
X448839Y103347D02*
Y109252D01*
X448813D02*
X451963D01*
X448813Y103347D02*
X451963D01*
X460575Y94232D02*
Y100138D01*
X457425Y94232D02*
Y100138D01*
X457400D02*
X460550D01*
X457400Y94232D02*
X460550D01*
X469547Y103347D02*
Y109252D01*
X466398Y103347D02*
Y109252D01*
X466372D02*
X469522D01*
X466372Y103347D02*
X469522D01*
X479547D02*
Y109252D01*
X476398Y103347D02*
Y109252D01*
X476372D02*
X479522D01*
X476372Y103347D02*
X479522D01*
X488575Y94232D02*
Y100138D01*
X485425Y94232D02*
Y100138D01*
X485400D02*
X488550D01*
X485400Y94232D02*
X488550D01*
X497106Y103347D02*
Y109252D01*
X493957Y103347D02*
Y109252D01*
X493931D02*
X497081D01*
X493931Y103347D02*
X497081D01*
X507106D02*
Y109252D01*
X503957Y103347D02*
Y109252D01*
X503932D02*
X507081D01*
X503932Y103347D02*
X507081D01*
X515575Y94232D02*
Y100138D01*
X512425Y94232D02*
Y100138D01*
X512400D02*
X515550D01*
X512400Y94232D02*
X515550D01*
X524665Y103347D02*
Y109252D01*
X521516Y103347D02*
Y109252D01*
X521491D02*
X524640D01*
X521491Y103347D02*
X524640D01*
X534665D02*
Y109252D01*
X531516Y103347D02*
Y109252D01*
X531491D02*
X534640D01*
X531491Y103347D02*
X534640D01*
X543075Y94232D02*
Y100138D01*
X539925Y94232D02*
Y100138D01*
X539900D02*
X543050D01*
X539900Y94232D02*
X543050D01*
X552224Y103347D02*
Y109252D01*
X549075Y103347D02*
Y109252D01*
X549050D02*
X552199D01*
X549050Y103347D02*
X552199D01*
X562224D02*
Y109252D01*
X559075Y103347D02*
Y109252D01*
X559050D02*
X562199D01*
X559050Y103347D02*
X562199D01*
X571075Y94232D02*
Y100138D01*
X567925Y94232D02*
Y100138D01*
X567900D02*
X571050D01*
X567900Y94232D02*
X571050D01*
X579783Y103347D02*
Y109252D01*
X576634Y103347D02*
Y109252D01*
X576609D02*
X579758D01*
X576609Y103347D02*
X579758D01*
X589783D02*
Y109252D01*
X586634Y103347D02*
Y109252D01*
X586609D02*
X589758D01*
X586609Y103347D02*
X589758D01*
X209819Y227933D02*
Y233839D01*
X206669Y227933D02*
Y233839D01*
X206644D02*
X209794D01*
X206644Y227933D02*
X209794D01*
X206669Y271240D02*
Y277146D01*
X209819Y271240D02*
Y277146D01*
X206695Y271240D02*
X209844D01*
X206695Y277146D02*
X209844D01*
X219425Y271240D02*
Y277146D01*
X222575Y271240D02*
Y277146D01*
X219450Y271240D02*
X222600D01*
X219450Y277146D02*
X222600D01*
X236118Y271240D02*
Y277146D01*
X239268Y271240D02*
Y277146D01*
X236143Y271240D02*
X239293D01*
X236143Y277146D02*
X239293D01*
X232181Y271240D02*
Y277146D01*
X235331Y271240D02*
Y277146D01*
X232206Y271240D02*
X235356D01*
X232206Y277146D02*
X235356D01*
X389690Y261642D02*
X392840D01*
X389690Y255736D02*
X392840D01*
X392815D02*
Y261642D01*
X389665Y255736D02*
Y261642D01*
X370005Y242441D02*
X373155D01*
X370005Y236535D02*
X373155D01*
X373130D02*
Y242441D01*
X369980Y236535D02*
Y242441D01*
X374927Y261642D02*
X378076D01*
X374927Y255736D02*
X378076D01*
X378051D02*
Y261642D01*
X374902Y255736D02*
Y261642D01*
X422711Y241319D02*
X425861D01*
X422711Y247224D02*
X425861D01*
X422736Y241319D02*
Y247224D01*
X425886Y241319D02*
Y247224D01*
X448105Y241319D02*
X451254D01*
X448105Y247224D02*
X451254D01*
X448130Y241319D02*
Y247224D01*
X451279Y241319D02*
Y247224D01*
X105957Y288075D02*
X111862D01*
X105957Y284925D02*
X111862D01*
Y284900D02*
Y288050D01*
X105957Y284900D02*
Y288050D01*
X157138Y264925D02*
X163043D01*
X157138Y268075D02*
X163043D01*
X157138Y264950D02*
Y268100D01*
X163043Y264950D02*
Y268100D01*
X105957Y268075D02*
X111862D01*
X105957Y264925D02*
X111862D01*
Y264900D02*
Y268050D01*
X105957Y264900D02*
Y268050D01*
X157138Y284925D02*
X163043D01*
X157138Y288075D02*
X163043D01*
X157138Y284950D02*
Y288100D01*
X163043Y284950D02*
Y288100D01*
X484350Y252736D02*
Y258642D01*
X481201Y252736D02*
Y258642D01*
X481176D02*
X484325D01*
X481176Y252736D02*
X484325D01*
X109303Y239354D02*
Y245260D01*
X112453Y239354D02*
Y245260D01*
X109328D02*
X112478D01*
X109328Y239354D02*
X112478D01*
X500565Y168799D02*
X503715D01*
X500565Y174705D02*
X503715D01*
X500591Y168799D02*
Y174705D01*
X503740Y168799D02*
Y174705D01*
X555996Y170276D02*
X559146D01*
X555996Y176181D02*
X559146D01*
X556021Y170276D02*
Y176181D01*
X559171Y170276D02*
Y176181D01*
X543676Y153268D02*
X546825D01*
X543676Y159173D02*
X546825D01*
X543701Y153268D02*
Y159173D01*
X546850Y153268D02*
Y159173D01*
X556046Y136811D02*
X559196D01*
X556046Y130905D02*
X559196D01*
X559171D02*
Y136811D01*
X556021Y130905D02*
Y136811D01*
X552570D02*
X555720D01*
X552570Y130905D02*
X555720D01*
X555694D02*
Y136811D01*
X552545Y130905D02*
Y136811D01*
X552520Y170276D02*
X555669D01*
X552520Y176181D02*
X555669D01*
X552545Y170276D02*
Y176181D01*
X555694Y170276D02*
Y176181D01*
X543676Y170276D02*
X546825D01*
X543676Y176181D02*
X546825D01*
X543701Y170276D02*
Y176181D01*
X546850Y170276D02*
Y176181D01*
X543726Y151850D02*
X546876D01*
X543726Y145945D02*
X546876D01*
X546850D02*
Y151850D01*
X543701Y145945D02*
Y151850D01*
X630290Y83661D02*
X633439D01*
X630290Y89567D02*
X633439D01*
X630315Y83661D02*
Y89567D01*
X633465Y83661D02*
Y89567D01*
X634227Y83661D02*
X637376D01*
X634227Y89567D02*
X637376D01*
X634252Y83661D02*
Y89567D01*
X637402Y83661D02*
Y89567D01*
X638164Y83661D02*
X641313D01*
X638164Y89567D02*
X641313D01*
X638189Y83661D02*
Y89567D01*
X641339Y83661D02*
Y89567D01*
X642101Y83661D02*
X645250D01*
X642101Y89567D02*
X645250D01*
X642126Y83661D02*
Y89567D01*
X645276Y83661D02*
Y89567D01*
X626353Y83661D02*
X629502D01*
X626353Y89567D02*
X629502D01*
X626378Y83661D02*
Y89567D01*
X629528Y83661D02*
Y89567D01*
X622416Y83661D02*
X625565D01*
X622416Y89567D02*
X625565D01*
X622441Y83661D02*
Y89567D01*
X625591Y83661D02*
Y89567D01*
X654290Y57795D02*
X657439D01*
X654290Y63701D02*
X657439D01*
X654315Y57795D02*
Y63701D01*
X657465Y57795D02*
Y63701D01*
X642151Y128937D02*
X645301D01*
X642151Y123031D02*
X645301D01*
X645276D02*
Y128937D01*
X642126Y123031D02*
Y128937D01*
X634277D02*
X637427D01*
X634277Y123031D02*
X637427D01*
X637402D02*
Y128937D01*
X634252Y123031D02*
Y128937D01*
X638214D02*
X641364D01*
X638214Y123031D02*
X641364D01*
X641339D02*
Y128937D01*
X638189Y123031D02*
Y128937D01*
X604699Y204409D02*
X607849D01*
X604699Y210315D02*
X607849D01*
X604724Y204409D02*
Y210315D01*
X607874Y204409D02*
Y210315D01*
X637874Y246482D02*
Y249632D01*
X643780Y246482D02*
Y249632D01*
X637874Y249606D02*
X643780D01*
X637874Y246457D02*
X643780D01*
X629843Y246431D02*
Y249581D01*
X623937Y246431D02*
Y249581D01*
Y246457D02*
X629843D01*
X623937Y249606D02*
X629843D01*
X357283Y254306D02*
Y257455D01*
X351378Y254306D02*
Y257455D01*
Y254331D02*
X357283D01*
X351378Y257480D02*
X357283D01*
X615723Y213583D02*
X618872D01*
X615723Y219488D02*
X618872D01*
X615748Y213583D02*
Y219488D01*
X618898Y213583D02*
Y219488D01*
X621063Y156865D02*
Y160014D01*
X615158Y156865D02*
Y160014D01*
Y156890D02*
X621063D01*
X615158Y160039D02*
X621063D01*
X587033Y200925D02*
X590183D01*
X587033Y195020D02*
X590183D01*
X590158D02*
Y200925D01*
X587008Y195020D02*
Y200925D01*
X569266Y197835D02*
X572416D01*
X569266Y203740D02*
X572416D01*
X569291Y197835D02*
Y203740D01*
X572441Y197835D02*
Y203740D01*
X565379D02*
X568529D01*
X565379Y197835D02*
X568529D01*
X568504D02*
Y203740D01*
X565354Y197835D02*
Y203740D01*
X511786Y197835D02*
X514935D01*
X511786Y203740D02*
X514935D01*
X511811Y197835D02*
Y203740D01*
X514961Y197835D02*
Y203740D01*
X541707Y197835D02*
X544857D01*
X541707Y203740D02*
X544857D01*
X541732Y197835D02*
Y203740D01*
X544882Y197835D02*
Y203740D01*
X144291Y8858D02*
Y14764D01*
X141142Y8858D02*
Y14764D01*
X141116D02*
X144266D01*
X141116Y8858D02*
X144266D01*
X171850D02*
Y14764D01*
X168701Y8858D02*
Y14764D01*
X168676D02*
X171825D01*
X168676Y8858D02*
X171825D01*
X199409D02*
Y14764D01*
X196260Y8858D02*
Y14764D01*
X196235D02*
X199384D01*
X196235Y8858D02*
X199384D01*
X226969D02*
Y14764D01*
X223819Y8858D02*
Y14764D01*
X223794D02*
X226943D01*
X223794Y8858D02*
X226943D01*
X254528D02*
Y14764D01*
X251378Y8858D02*
Y14764D01*
X251353D02*
X254502D01*
X251353Y8858D02*
X254502D01*
X282087D02*
Y14764D01*
X278937Y8858D02*
Y14764D01*
X278912D02*
X282061D01*
X278912Y8858D02*
X282061D01*
X309646D02*
Y14764D01*
X306496Y8858D02*
Y14764D01*
X306471D02*
X309620D01*
X306471Y8858D02*
X309620D01*
X337205D02*
Y14764D01*
X334055Y8858D02*
Y14764D01*
X334030D02*
X337179D01*
X334030Y8858D02*
X337179D01*
X390354D02*
Y14764D01*
X387205Y8858D02*
Y14764D01*
X387179D02*
X390329D01*
X387179Y8858D02*
X390329D01*
X417913D02*
Y14764D01*
X414764Y8858D02*
Y14764D01*
X414739D02*
X417888D01*
X414739Y8858D02*
X417888D01*
X445472D02*
Y14764D01*
X442323Y8858D02*
Y14764D01*
X442298D02*
X445447D01*
X442298Y8858D02*
X445447D01*
X473032D02*
Y14764D01*
X469882Y8858D02*
Y14764D01*
X469857D02*
X473006D01*
X469857Y8858D02*
X473006D01*
X500591D02*
Y14764D01*
X497441Y8858D02*
Y14764D01*
X497416D02*
X500565D01*
X497416Y8858D02*
X500565D01*
X528150D02*
Y14764D01*
X525000Y8858D02*
Y14764D01*
X524975D02*
X528124D01*
X524975Y8858D02*
X528124D01*
X555709D02*
Y14764D01*
X552559Y8858D02*
Y14764D01*
X552534D02*
X555684D01*
X552534Y8858D02*
X555684D01*
X394612Y261642D02*
X397761D01*
X394612Y255736D02*
X397761D01*
X397736D02*
Y261642D01*
X394587Y255736D02*
Y261642D01*
X432998D02*
X436147D01*
X432998Y255736D02*
X436147D01*
X436122D02*
Y261642D01*
X432972Y255736D02*
Y261642D01*
X437919D02*
X441069D01*
X437919Y255736D02*
X441069D01*
X441043D02*
Y261642D01*
X437894Y255736D02*
Y261642D01*
X476279Y252736D02*
Y258642D01*
X479429Y252736D02*
Y258642D01*
X476305Y252736D02*
X479454D01*
X476305Y258642D02*
X479454D01*
X650353Y57795D02*
X653502D01*
X650353Y63701D02*
X653502D01*
X650378Y57795D02*
Y63701D01*
X653528Y57795D02*
Y63701D01*
X130290Y12795D02*
X133439D01*
X130290Y18701D02*
X133439D01*
X130315Y12795D02*
Y18701D01*
X133465Y12795D02*
Y18701D01*
X132632Y103347D02*
X135782D01*
X132632Y109252D02*
X135782D01*
X132658Y103347D02*
Y109252D01*
X135807Y103347D02*
Y109252D01*
X142632Y103347D02*
X145782D01*
X142632Y109252D02*
X145782D01*
X142657Y103347D02*
Y109252D01*
X145807Y103347D02*
Y109252D01*
X157849Y12795D02*
X160998D01*
X157849Y18701D02*
X160998D01*
X157874Y12795D02*
Y18701D01*
X161024Y12795D02*
Y18701D01*
X160191Y103347D02*
X163341D01*
X160191Y109252D02*
X163341D01*
X160217Y103347D02*
Y109252D01*
X163366Y103347D02*
Y109252D01*
X170191Y103347D02*
X173341D01*
X170191Y109252D02*
X173341D01*
X170217Y103347D02*
Y109252D01*
X173366Y103347D02*
Y109252D01*
X185408Y12795D02*
X188558D01*
X185408Y18701D02*
X188558D01*
X185433Y12795D02*
Y18701D01*
X188583Y12795D02*
Y18701D01*
X187750Y103347D02*
X190900D01*
X187750Y109252D02*
X190900D01*
X187776Y103347D02*
Y109252D01*
X190925Y103347D02*
Y109252D01*
X197750Y103347D02*
X200900D01*
X197750Y109252D02*
X200900D01*
X197776Y103347D02*
Y109252D01*
X200925Y103347D02*
Y109252D01*
X212967Y12795D02*
X216116D01*
X212967Y18701D02*
X216116D01*
X212992Y12795D02*
Y18701D01*
X216142Y12795D02*
Y18701D01*
X215310Y103347D02*
X218459D01*
X215310Y109252D02*
X218459D01*
X215335Y103347D02*
Y109252D01*
X218484Y103347D02*
Y109252D01*
X225309Y103347D02*
X228459D01*
X225309Y109252D02*
X228459D01*
X225335Y103347D02*
Y109252D01*
X228484Y103347D02*
Y109252D01*
X240526Y12795D02*
X243676D01*
X240526Y18701D02*
X243676D01*
X240551Y12795D02*
Y18701D01*
X243701Y12795D02*
Y18701D01*
X242868Y103347D02*
X246018D01*
X242868Y109252D02*
X246018D01*
X242894Y103347D02*
Y109252D01*
X246043Y103347D02*
Y109252D01*
X252869Y103347D02*
X256018D01*
X252869Y109252D02*
X256018D01*
X252894Y103347D02*
Y109252D01*
X256043Y103347D02*
Y109252D01*
X268085Y12795D02*
X271235D01*
X268085Y18701D02*
X271235D01*
X268110Y12795D02*
Y18701D01*
X271260Y12795D02*
Y18701D01*
X270428Y103347D02*
X273577D01*
X270428Y109252D02*
X273577D01*
X270453Y103347D02*
Y109252D01*
X273602Y103347D02*
Y109252D01*
X280428Y103347D02*
X283577D01*
X280428Y109252D02*
X283577D01*
X280453Y103347D02*
Y109252D01*
X283602Y103347D02*
Y109252D01*
X295644Y12795D02*
X298794D01*
X295644Y18701D02*
X298794D01*
X295669Y12795D02*
Y18701D01*
X298819Y12795D02*
Y18701D01*
X297987Y103347D02*
X301136D01*
X297987Y109252D02*
X301136D01*
X298012Y103347D02*
Y109252D01*
X301161Y103347D02*
Y109252D01*
X307987Y103347D02*
X311136D01*
X307987Y109252D02*
X311136D01*
X308012Y103347D02*
Y109252D01*
X311161Y103347D02*
Y109252D01*
X323203Y12795D02*
X326353D01*
X323203Y18701D02*
X326353D01*
X323228Y12795D02*
Y18701D01*
X326378Y12795D02*
Y18701D01*
X325546Y103347D02*
X328695D01*
X325546Y109252D02*
X328695D01*
X325571Y103347D02*
Y109252D01*
X328720Y103347D02*
Y109252D01*
X335546Y103347D02*
X338695D01*
X335546Y109252D02*
X338695D01*
X335571Y103347D02*
Y109252D01*
X338720Y103347D02*
Y109252D01*
X376353Y12795D02*
X379502D01*
X376353Y18701D02*
X379502D01*
X376378Y12795D02*
Y18701D01*
X379528Y12795D02*
Y18701D01*
X378695Y103347D02*
X381845D01*
X378695Y109252D02*
X381845D01*
X378720Y103347D02*
Y109252D01*
X381870Y103347D02*
Y109252D01*
X388695Y103347D02*
X391845D01*
X388695Y109252D02*
X391845D01*
X388720Y103347D02*
Y109252D01*
X391870Y103347D02*
Y109252D01*
X403912Y12795D02*
X407061D01*
X403912Y18701D02*
X407061D01*
X403937Y12795D02*
Y18701D01*
X407087Y12795D02*
Y18701D01*
X406254Y103347D02*
X409404D01*
X406254Y109252D02*
X409404D01*
X406280Y103347D02*
Y109252D01*
X409429Y103347D02*
Y109252D01*
X416254Y103347D02*
X419404D01*
X416254Y109252D02*
X419404D01*
X416280Y103347D02*
Y109252D01*
X419429Y103347D02*
Y109252D01*
X431471Y12795D02*
X434621D01*
X431471Y18701D02*
X434621D01*
X431496Y12795D02*
Y18701D01*
X434646Y12795D02*
Y18701D01*
X433813Y103347D02*
X436963D01*
X433813Y109252D02*
X436963D01*
X433839Y103347D02*
Y109252D01*
X436988Y103347D02*
Y109252D01*
X443813Y103347D02*
X446963D01*
X443813Y109252D02*
X446963D01*
X443839Y103347D02*
Y109252D01*
X446988Y103347D02*
Y109252D01*
X459030Y12795D02*
X462180D01*
X459030Y18701D02*
X462180D01*
X459055Y12795D02*
Y18701D01*
X462205Y12795D02*
Y18701D01*
X461373Y103347D02*
X464522D01*
X461373Y109252D02*
X464522D01*
X461398Y103347D02*
Y109252D01*
X464547Y103347D02*
Y109252D01*
X471373Y103347D02*
X474522D01*
X471373Y109252D02*
X474522D01*
X471398Y103347D02*
Y109252D01*
X474547Y103347D02*
Y109252D01*
X486589Y12795D02*
X489739D01*
X486589Y18701D02*
X489739D01*
X486614Y12795D02*
Y18701D01*
X489764Y12795D02*
Y18701D01*
X488932Y103347D02*
X492081D01*
X488932Y109252D02*
X492081D01*
X488957Y103347D02*
Y109252D01*
X492106Y103347D02*
Y109252D01*
X498932Y103347D02*
X502081D01*
X498932Y109252D02*
X502081D01*
X498957Y103347D02*
Y109252D01*
X502106Y103347D02*
Y109252D01*
X514148Y12795D02*
X517298D01*
X514148Y18701D02*
X517298D01*
X514173Y12795D02*
Y18701D01*
X517323Y12795D02*
Y18701D01*
X516491Y103347D02*
X519640D01*
X516491Y109252D02*
X519640D01*
X516516Y103347D02*
Y109252D01*
X519665Y103347D02*
Y109252D01*
X526491Y103347D02*
X529640D01*
X526491Y109252D02*
X529640D01*
X526516Y103347D02*
Y109252D01*
X529665Y103347D02*
Y109252D01*
X541707Y12795D02*
X544857D01*
X541707Y18701D02*
X544857D01*
X541732Y12795D02*
Y18701D01*
X544882Y12795D02*
Y18701D01*
X544050Y103347D02*
X547199D01*
X544050Y109252D02*
X547199D01*
X544075Y103347D02*
Y109252D01*
X547224Y103347D02*
Y109252D01*
X554050Y103347D02*
X557199D01*
X554050Y109252D02*
X557199D01*
X554075Y103347D02*
Y109252D01*
X557224Y103347D02*
Y109252D01*
X569266Y12795D02*
X572416D01*
X569266Y18701D02*
X572416D01*
X569291Y12795D02*
Y18701D01*
X572441Y12795D02*
Y18701D01*
X571609Y103347D02*
X574758D01*
X571609Y109252D02*
X574758D01*
X571634Y103347D02*
Y109252D01*
X574784Y103347D02*
Y109252D01*
X581609Y103347D02*
X584758D01*
X581609Y109252D02*
X584758D01*
X581634Y103347D02*
Y109252D01*
X584784Y103347D02*
Y109252D01*
X387894Y255736D02*
Y261642D01*
X384744Y255736D02*
Y261642D01*
X384719D02*
X387868D01*
X384719Y255736D02*
X387868D01*
X382972D02*
Y261642D01*
X379823Y255736D02*
Y261642D01*
X379798D02*
X382947D01*
X379798Y255736D02*
X382947D01*
X399508D02*
Y261642D01*
X402658Y255736D02*
Y261642D01*
X399533Y255736D02*
X402683D01*
X399533Y261642D02*
X402683D01*
X431201Y255736D02*
Y261642D01*
X428051Y255736D02*
Y261642D01*
X428026D02*
X431176D01*
X428026Y255736D02*
X431176D01*
X445965D02*
Y261642D01*
X442815Y255736D02*
Y261642D01*
X442790D02*
X445939D01*
X442790Y255736D02*
X445939D01*
X111862Y278284D02*
Y281433D01*
X105957Y278284D02*
Y281433D01*
Y281408D02*
X111862D01*
X105957Y278258D02*
X111862D01*
X157138Y271567D02*
Y274716D01*
X163043Y271567D02*
Y274716D01*
X157138Y271592D02*
X163043D01*
X157138Y274742D02*
X163043D01*
X111862Y271617D02*
Y274767D01*
X105957Y271617D02*
Y274767D01*
Y274741D02*
X111862D01*
X105957Y271592D02*
X111862D01*
X157138Y278233D02*
Y281383D01*
X163043Y278233D02*
Y281383D01*
X157138Y278258D02*
X163043D01*
X157138Y281408D02*
X163043D01*
X486147Y258642D02*
X489297D01*
X486147Y252736D02*
X489297D01*
X489272D02*
Y258642D01*
X486122Y252736D02*
Y258642D01*
X105341Y245260D02*
X108491D01*
X105341Y239354D02*
X108491D01*
X105366D02*
Y245260D01*
X108516Y239354D02*
Y245260D01*
X552171Y130905D02*
Y136811D01*
X549021Y130905D02*
Y136811D01*
X548996D02*
X552145D01*
X548996Y130905D02*
X552145D01*
X543701D02*
Y136811D01*
X546850Y130905D02*
Y136811D01*
X543726Y130905D02*
X546876D01*
X543726Y136811D02*
X546876D01*
X552171Y170276D02*
Y176181D01*
X549021Y170276D02*
Y176181D01*
X548996D02*
X552145D01*
X548996Y170276D02*
X552145D01*
X562671Y130905D02*
Y136811D01*
X559521Y130905D02*
Y136811D01*
X559496D02*
X562645D01*
X559496Y130905D02*
X562645D01*
X615158Y107874D02*
X621063D01*
X615158Y104724D02*
X621063D01*
X615158Y104699D02*
Y107849D01*
X621063Y104699D02*
Y107849D01*
X615158Y111811D02*
X621063D01*
X615158Y108661D02*
X621063D01*
X615158Y108636D02*
Y111786D01*
X621063Y108636D02*
Y111786D01*
X646654Y108661D02*
X652559D01*
X646654Y111811D02*
X652559D01*
Y108687D02*
Y111836D01*
X646654Y108687D02*
Y111836D01*
X612598Y213583D02*
Y219488D01*
X615748Y213583D02*
Y219488D01*
X612624Y213583D02*
X615773D01*
X612624Y219488D02*
X615773D01*
X618898Y189961D02*
Y195866D01*
X615748Y189961D02*
Y195866D01*
X615723D02*
X618872D01*
X615723Y189961D02*
X618872D01*
X615748D02*
Y195866D01*
X612598Y189961D02*
Y195866D01*
X612573D02*
X615723D01*
X612573Y189961D02*
X615723D01*
X633465Y137531D02*
Y143437D01*
X630315Y137531D02*
Y143437D01*
X630290D02*
X633439D01*
X630290Y137531D02*
X633439D01*
X637402D02*
Y143437D01*
X634252Y137531D02*
Y143437D01*
X634227D02*
X637376D01*
X634227Y137531D02*
X637376D01*
X646654Y152165D02*
X652559D01*
X646654Y149016D02*
X652559D01*
X646654Y148991D02*
Y152140D01*
X652559Y148991D02*
Y152140D01*
X511024Y197835D02*
Y203740D01*
X507874Y197835D02*
Y203740D01*
X507849D02*
X510998D01*
X507849Y197835D02*
X510998D01*
X551575D02*
Y203740D01*
X554724Y197835D02*
Y203740D01*
X551600Y197835D02*
X554750D01*
X551600Y203740D02*
X554750D01*
X537795Y197835D02*
Y203740D01*
X540945Y197835D02*
Y203740D01*
X537820Y197835D02*
X540970D01*
X537820Y203740D02*
X540970D01*
X507874Y222165D02*
Y228071D01*
X511024Y222165D02*
Y228071D01*
X507899Y222165D02*
X511049D01*
X507899Y228071D02*
X511049D01*
X511024Y212874D02*
Y218779D01*
X507874Y212874D02*
Y218779D01*
X507849D02*
X510998D01*
X507849Y212874D02*
X510998D01*
X507874Y239882D02*
Y245787D01*
X511024Y239882D02*
Y245787D01*
X507899Y239882D02*
X511049D01*
X507899Y245787D02*
X511049D01*
X507087Y239882D02*
Y245787D01*
X503937Y239882D02*
Y245787D01*
X503912D02*
X507061D01*
X503912Y239882D02*
X507061D01*
X514961Y222165D02*
Y228071D01*
X511811Y222165D02*
Y228071D01*
X511786D02*
X514935D01*
X511786Y222165D02*
X514935D01*
X511811Y212874D02*
Y218779D01*
X514961Y212874D02*
Y218779D01*
X511836Y212874D02*
X514986D01*
X511836Y218779D02*
X514986D01*
D21*
X29220Y285897D02*
X31720D01*
X29220Y284299D02*
X31720D01*
X29220D02*
Y285897D01*
X34220Y284099D02*
Y286099D01*
X36220D01*
Y284099D02*
Y286099D01*
X34220Y284099D02*
X36220D01*
X31720Y282598D02*
Y288449D01*
X43720Y285897D02*
X46220D01*
X43720Y284299D02*
X46220D01*
X39220Y284099D02*
Y286099D01*
X41220D01*
Y284099D02*
Y286099D01*
X39220Y284099D02*
X41220D01*
X31720Y288449D02*
X43720D01*
X46220Y284299D02*
Y285897D01*
X43720Y282598D02*
Y288449D01*
X34220Y279099D02*
X36220D01*
Y281099D01*
X34220D02*
X36220D01*
X34220Y279099D02*
Y281099D01*
X29220Y279299D02*
Y280897D01*
Y279299D02*
X31720D01*
X29220Y280897D02*
X31720D01*
Y277599D02*
Y282598D01*
X34220Y274098D02*
X36220D01*
Y276098D01*
X34220D02*
X36220D01*
X34220Y274098D02*
Y276098D01*
X29220Y274300D02*
Y275898D01*
Y274300D02*
X31720D01*
X29220Y275898D02*
X31720D01*
Y272599D02*
Y277599D01*
X34220Y271098D02*
X36220D01*
X29220Y269300D02*
Y270898D01*
Y269300D02*
X31720D01*
X29220Y270898D02*
X31720D01*
X39220Y279099D02*
X41220D01*
Y281099D01*
X39220D02*
X41220D01*
X39220Y279099D02*
Y281099D01*
X46220Y279299D02*
Y280897D01*
X43720D02*
X46220D01*
X43720Y279299D02*
X46220D01*
X43720Y277599D02*
Y282598D01*
X39220Y274098D02*
X41220D01*
Y276098D01*
X39220D02*
X41220D01*
X39220Y274098D02*
Y276098D01*
X46220Y274300D02*
Y275898D01*
X43720D02*
X46220D01*
X43720Y274300D02*
X46220D01*
X43720Y272599D02*
Y277599D01*
X39220Y271098D02*
X41220D01*
X46220Y269300D02*
Y270898D01*
X43720D02*
X46220D01*
X43720Y269300D02*
X46220D01*
X34220Y269098D02*
X36220D01*
Y271098D01*
X34220Y269098D02*
Y271098D01*
X31720Y267599D02*
Y272599D01*
X34220Y264099D02*
X36220D01*
Y266098D01*
X34220D02*
X36220D01*
X34220Y264099D02*
Y266098D01*
X29220Y264300D02*
Y265897D01*
Y264300D02*
X31720D01*
X29220Y265897D02*
X31720D01*
Y262598D02*
Y267599D01*
X34220Y259099D02*
X36220D01*
Y261099D01*
X34220D02*
X36220D01*
X34220Y259099D02*
Y261099D01*
X29220Y259299D02*
Y260897D01*
Y259299D02*
X31720D01*
X29220Y260897D02*
X31720D01*
Y257598D02*
Y262598D01*
X34220Y256099D02*
X36220D01*
X39220Y269098D02*
X41220D01*
Y271098D01*
X39220Y269098D02*
Y271098D01*
X43720Y267599D02*
Y272599D01*
X39220Y264099D02*
X41220D01*
Y266098D01*
X39220D02*
X41220D01*
X39220Y264099D02*
Y266098D01*
X46220Y264300D02*
Y265897D01*
X43720D02*
X46220D01*
X43720Y264300D02*
X46220D01*
X43720Y262598D02*
Y267599D01*
X39220Y259099D02*
X41220D01*
Y261099D01*
X39220D02*
X41220D01*
X39220Y259099D02*
Y261099D01*
X46220Y259299D02*
Y260897D01*
X43720D02*
X46220D01*
X43720Y259299D02*
X46220D01*
X43720Y257598D02*
Y262598D01*
X39220Y256099D02*
X41220D01*
X34220Y254099D02*
X36220D01*
Y256099D01*
X34220Y254099D02*
Y256099D01*
X29220Y254299D02*
Y255897D01*
Y254299D02*
X31720D01*
X29220Y255897D02*
X31720D01*
Y252599D02*
Y257598D01*
X34220Y249098D02*
X36220D01*
Y251098D01*
X34220D02*
X36220D01*
X34220Y249098D02*
Y251098D01*
X29220Y249300D02*
Y250898D01*
Y249300D02*
X31720D01*
X29220Y250898D02*
X31720D01*
Y247599D02*
Y252599D01*
X34220Y244098D02*
X36220D01*
Y246098D01*
X34220D02*
X36220D01*
X34220Y244098D02*
Y246098D01*
X29220Y244300D02*
Y245898D01*
Y244300D02*
X31720D01*
X29220Y245898D02*
X31720D01*
X39220Y254099D02*
X41220D01*
Y256099D01*
X39220Y254099D02*
Y256099D01*
X46220Y254299D02*
Y255897D01*
X43720D02*
X46220D01*
X43720Y254299D02*
X46220D01*
X43720Y252599D02*
Y257598D01*
X39220Y249098D02*
X41220D01*
Y251098D01*
X39220D02*
X41220D01*
X39220Y249098D02*
Y251098D01*
X46220Y249300D02*
Y250898D01*
X43720D02*
X46220D01*
X43720Y249300D02*
X46220D01*
X43720Y247599D02*
Y252599D01*
X39220Y244098D02*
X41220D01*
Y246098D01*
X39220D02*
X41220D01*
X39220Y244098D02*
Y246098D01*
X46220Y244300D02*
Y245898D01*
X43720D02*
X46220D01*
X43720Y244300D02*
X46220D01*
X31720Y242599D02*
Y247599D01*
X34220Y239099D02*
X36220D01*
Y241098D01*
X34220D02*
X36220D01*
X34220Y239099D02*
Y241098D01*
X29220Y239300D02*
Y240897D01*
Y239300D02*
X31720D01*
X29220Y240897D02*
X31720D01*
Y237598D02*
Y242599D01*
X34220Y234099D02*
X36220D01*
Y236099D01*
X34220D02*
X36220D01*
X34220Y234099D02*
Y236099D01*
X29220Y234299D02*
Y235897D01*
Y234299D02*
X31720D01*
X29220Y235897D02*
X31720D01*
Y232598D02*
Y237598D01*
X34220Y231099D02*
X36220D01*
X29220Y230897D02*
X31720D01*
X43720Y242599D02*
Y247599D01*
X39220Y239099D02*
X41220D01*
Y241098D01*
X39220D02*
X41220D01*
X39220Y239099D02*
Y241098D01*
X46220Y239300D02*
Y240897D01*
X43720D02*
X46220D01*
X43720Y239300D02*
X46220D01*
X43720Y237598D02*
Y242599D01*
X39220Y234099D02*
X41220D01*
Y236099D01*
X39220D02*
X41220D01*
X39220Y234099D02*
Y236099D01*
X46220Y234299D02*
Y235897D01*
X43720D02*
X46220D01*
X43720Y234299D02*
X46220D01*
X43720Y232598D02*
Y237598D01*
X39220Y231099D02*
X41220D01*
X43720Y230897D02*
X46220D01*
X34220Y229099D02*
X36220D01*
Y231099D01*
X34220Y229099D02*
Y231099D01*
X29220Y229299D02*
Y230897D01*
Y229299D02*
X31720D01*
Y227599D02*
Y232598D01*
X34220Y224098D02*
X36220D01*
Y226098D01*
X34220D02*
X36220D01*
X34220Y224098D02*
Y226098D01*
X29220Y224300D02*
Y225898D01*
Y224300D02*
X31720D01*
X29220Y225898D02*
X31720D01*
Y222599D02*
Y227599D01*
X34220Y219098D02*
X36220D01*
Y221098D01*
X34220D02*
X36220D01*
X34220Y219098D02*
Y221098D01*
X29220Y219300D02*
Y220898D01*
Y219300D02*
X31720D01*
X29220Y220898D02*
X31720D01*
Y217599D02*
Y222599D01*
X39220Y229099D02*
X41220D01*
Y231099D01*
X39220Y229099D02*
Y231099D01*
X46220Y229299D02*
Y230897D01*
X43720Y229299D02*
X46220D01*
X43720Y227599D02*
Y232598D01*
X39220Y224098D02*
X41220D01*
Y226098D01*
X39220D02*
X41220D01*
X39220Y224098D02*
Y226098D01*
X46220Y224300D02*
Y225898D01*
X43720D02*
X46220D01*
X43720Y224300D02*
X46220D01*
X43720Y222599D02*
Y227599D01*
X39220Y219098D02*
X41220D01*
Y221098D01*
X39220D02*
X41220D01*
X39220Y219098D02*
Y221098D01*
X46220Y219300D02*
Y220898D01*
X43720D02*
X46220D01*
X43720Y219300D02*
X46220D01*
X43720Y217599D02*
Y222599D01*
X34220Y214099D02*
X36220D01*
Y216098D01*
X34220D02*
X36220D01*
X34220Y214099D02*
Y216098D01*
X29220Y214300D02*
Y215897D01*
Y214300D02*
X31720D01*
X29220Y215897D02*
X31720D01*
Y212598D02*
Y217599D01*
X34220Y209099D02*
X36220D01*
Y211099D01*
X34220D02*
X36220D01*
X34220Y209099D02*
Y211099D01*
X29220Y209299D02*
Y210897D01*
Y209299D02*
X31720D01*
X29220Y210897D02*
X31720D01*
Y207598D02*
Y212598D01*
X34220Y204099D02*
X36220D01*
Y206099D01*
X34220D02*
X36220D01*
X34220Y204099D02*
Y206099D01*
X29220Y204299D02*
Y205897D01*
Y204299D02*
X31720D01*
X29220Y205897D02*
X31720D01*
X39220Y214099D02*
X41220D01*
Y216098D01*
X39220D02*
X41220D01*
X39220Y214099D02*
Y216098D01*
X46220Y214300D02*
Y215897D01*
X43720D02*
X46220D01*
X43720Y214300D02*
X46220D01*
X43720Y212598D02*
Y217599D01*
X39220Y209099D02*
X41220D01*
Y211099D01*
X39220D02*
X41220D01*
X39220Y209099D02*
Y211099D01*
X46220Y209299D02*
Y210897D01*
X43720D02*
X46220D01*
X43720Y209299D02*
X46220D01*
X43720Y207598D02*
Y212598D01*
X39220Y204099D02*
X41220D01*
Y206099D01*
X39220D02*
X41220D01*
X39220Y204099D02*
Y206099D01*
X46220Y204299D02*
Y205897D01*
X43720D02*
X46220D01*
X43720Y204299D02*
X46220D01*
X31720Y202599D02*
Y207598D01*
X34220Y199099D02*
X36220D01*
Y201098D01*
X34220D02*
X36220D01*
X34220Y199099D02*
Y201098D01*
X29220Y199300D02*
Y200898D01*
Y199300D02*
X31720D01*
X29220Y200898D02*
X31720D01*
Y197599D02*
Y202599D01*
X34220Y194098D02*
X36220D01*
Y196098D01*
X34220D02*
X36220D01*
X34220Y194098D02*
Y196098D01*
X29220Y194299D02*
Y195897D01*
Y194299D02*
X31720D01*
X29220Y195897D02*
X31720D01*
Y192598D02*
Y197599D01*
X34220Y191098D02*
X36220D01*
X29220Y190898D02*
X31720D01*
X43720Y202599D02*
Y207598D01*
X39220Y199099D02*
X41220D01*
Y201098D01*
X39220D02*
X41220D01*
X39220Y199099D02*
Y201098D01*
X46220Y199300D02*
Y200898D01*
X43720D02*
X46220D01*
X43720Y199300D02*
X46220D01*
X43720Y197599D02*
Y202599D01*
X39220Y194098D02*
X41220D01*
Y196098D01*
X39220D02*
X41220D01*
X39220Y194098D02*
Y196098D01*
X46220Y194299D02*
Y195897D01*
X43720D02*
X46220D01*
X43720Y194299D02*
X46220D01*
X43720Y192598D02*
Y197599D01*
X39220Y191098D02*
X41220D01*
X43720Y190898D02*
X46220D01*
X34220Y189099D02*
X36220D01*
Y191098D01*
X34220Y189099D02*
Y191098D01*
X29220Y189299D02*
Y190898D01*
Y189299D02*
X31720D01*
Y187599D02*
Y192598D01*
X34220Y184098D02*
X36220D01*
Y186099D01*
X34220D02*
X36220D01*
X34220Y184098D02*
Y186099D01*
X29220Y184300D02*
Y185898D01*
Y184300D02*
X31720D01*
X29220Y185898D02*
X31720D01*
Y182598D02*
Y187599D01*
X34220Y179098D02*
X36220D01*
Y181098D01*
X34220D02*
X36220D01*
X34220Y179098D02*
Y181098D01*
X29220Y179299D02*
Y180897D01*
Y179299D02*
X31720D01*
X29220Y180897D02*
X31720D01*
Y177599D02*
Y182598D01*
X39220Y189099D02*
X41220D01*
Y191098D01*
X39220Y189099D02*
Y191098D01*
X46220Y189299D02*
Y190898D01*
X43720Y189299D02*
X46220D01*
X43720Y187599D02*
Y192598D01*
X39220Y184098D02*
X41220D01*
Y186099D01*
X39220D02*
X41220D01*
X39220Y184098D02*
Y186099D01*
X46220Y184300D02*
Y185898D01*
X43720D02*
X46220D01*
X43720Y184300D02*
X46220D01*
X43720Y182598D02*
Y187599D01*
X39220Y179098D02*
X41220D01*
Y181098D01*
X39220D02*
X41220D01*
X39220Y179098D02*
Y181098D01*
X46220Y179299D02*
Y180897D01*
X43720D02*
X46220D01*
X43720Y179299D02*
X46220D01*
X43720Y177599D02*
Y182598D01*
X34220Y174099D02*
X36220D01*
Y176099D01*
X34220D02*
X36220D01*
X34220Y174099D02*
Y176099D01*
X29220Y174300D02*
Y175898D01*
Y174300D02*
X31720D01*
X29220Y175898D02*
X31720D01*
Y172599D02*
Y177599D01*
X34220Y169098D02*
X36220D01*
Y171098D01*
X34220D02*
X36220D01*
X34220Y169098D02*
Y171098D01*
X29220Y169299D02*
Y170897D01*
Y169299D02*
X31720D01*
X29220Y170897D02*
X31720D01*
Y167598D02*
Y172599D01*
X34220Y164099D02*
X36220D01*
Y166098D01*
X34220D02*
X36220D01*
X34220Y164099D02*
Y166098D01*
X29220Y164299D02*
Y165898D01*
Y164299D02*
X31720D01*
X29220Y165898D02*
X31720D01*
X39220Y174099D02*
X41220D01*
Y176099D01*
X39220D02*
X41220D01*
X39220Y174099D02*
Y176099D01*
X46220Y174300D02*
Y175898D01*
X43720D02*
X46220D01*
X43720Y174300D02*
X46220D01*
X43720Y172599D02*
Y177599D01*
X39220Y169098D02*
X41220D01*
Y171098D01*
X39220D02*
X41220D01*
X39220Y169098D02*
Y171098D01*
X46220Y169299D02*
Y170897D01*
X43720D02*
X46220D01*
X43720Y169299D02*
X46220D01*
X43720Y167598D02*
Y172599D01*
X39220Y164099D02*
X41220D01*
Y166098D01*
X39220D02*
X41220D01*
X39220Y164099D02*
Y166098D01*
X46220Y164299D02*
Y165898D01*
X43720D02*
X46220D01*
X43720Y164299D02*
X46220D01*
X31720Y162599D02*
Y167598D01*
X34220Y159098D02*
X36220D01*
Y161099D01*
X34220D02*
X36220D01*
X34220Y159098D02*
Y161099D01*
X29220Y159300D02*
Y160898D01*
Y159300D02*
X31720D01*
X29220Y160898D02*
X31720D01*
Y157598D02*
Y162599D01*
X34220Y154098D02*
X36220D01*
Y156098D01*
X34220D02*
X36220D01*
X34220Y154098D02*
Y156098D01*
X29220Y154299D02*
Y155897D01*
Y154299D02*
X31720D01*
X29220Y155897D02*
X31720D01*
Y152599D02*
Y157598D01*
X34220Y151099D02*
X36220D01*
X29220Y150898D02*
X31720D01*
X43720Y162599D02*
Y167598D01*
X39220Y159098D02*
X41220D01*
Y161099D01*
X39220D02*
X41220D01*
X39220Y159098D02*
Y161099D01*
X46220Y159300D02*
Y160898D01*
X43720D02*
X46220D01*
X43720Y159300D02*
X46220D01*
X43720Y157598D02*
Y162599D01*
X39220Y154098D02*
X41220D01*
Y156098D01*
X39220D02*
X41220D01*
X39220Y154098D02*
Y156098D01*
X46220Y154299D02*
Y155897D01*
X43720D02*
X46220D01*
X43720Y154299D02*
X46220D01*
X43720Y152599D02*
Y157598D01*
X39220Y151099D02*
X41220D01*
X43720Y150898D02*
X46220D01*
X34220Y149099D02*
X36220D01*
Y151099D01*
X34220Y149099D02*
Y151099D01*
X29220Y149300D02*
Y150898D01*
Y149300D02*
X31720D01*
Y147599D02*
Y152599D01*
X34220Y144098D02*
X36220D01*
Y146098D01*
X34220D02*
X36220D01*
X34220Y144098D02*
Y146098D01*
X29220Y144299D02*
Y145897D01*
Y144299D02*
X31720D01*
X29220Y145897D02*
X31720D01*
Y142598D02*
Y147599D01*
X29220Y139299D02*
X31720D01*
X29220Y140898D02*
X31720D01*
X29220Y139299D02*
Y140898D01*
X34220Y139099D02*
Y141098D01*
X36220D01*
Y139099D02*
Y141098D01*
X34220Y139099D02*
X36220D01*
X39220Y149099D02*
X41220D01*
Y151099D01*
X39220Y149099D02*
Y151099D01*
X46220Y149300D02*
Y150898D01*
X43720Y149300D02*
X46220D01*
X43720Y147599D02*
Y152599D01*
X39220Y144098D02*
X41220D01*
Y146098D01*
X39220D02*
X41220D01*
X39220Y144098D02*
Y146098D01*
X46220Y144299D02*
Y145897D01*
X43720D02*
X46220D01*
X43720Y144299D02*
X46220D01*
X43720Y142598D02*
Y147599D01*
Y139299D02*
X46220D01*
X43720Y140898D02*
X46220D01*
Y139299D02*
Y140898D01*
X39220Y139099D02*
Y141098D01*
X41220D01*
Y139099D02*
Y141098D01*
X39220Y139099D02*
X41220D01*
X31720Y136749D02*
Y142598D01*
Y136749D02*
X43720D01*
Y142598D01*
X265441Y285897D02*
X267941D01*
X265441Y284299D02*
X267941D01*
X265441D02*
Y285897D01*
X270441Y284099D02*
Y286099D01*
X272441D01*
Y284099D02*
Y286099D01*
X270441Y284099D02*
X272441D01*
X267941Y282598D02*
Y288449D01*
X279941Y285897D02*
X282441D01*
X279941Y284299D02*
X282441D01*
X275441Y284099D02*
Y286099D01*
X277441D01*
Y284099D02*
Y286099D01*
X275441Y284099D02*
X277441D01*
X267941Y288449D02*
X279941D01*
X282441Y284299D02*
Y285897D01*
X279941Y282598D02*
Y288449D01*
X270441Y279099D02*
X272441D01*
Y281099D01*
X270441D02*
X272441D01*
X270441Y279099D02*
Y281099D01*
X265441Y279299D02*
Y280897D01*
Y279299D02*
X267941D01*
X265441Y280897D02*
X267941D01*
Y277599D02*
Y282598D01*
X270441Y274098D02*
X272441D01*
Y276098D01*
X270441D02*
X272441D01*
X270441Y274098D02*
Y276098D01*
X265441Y274300D02*
Y275898D01*
Y274300D02*
X267941D01*
X265441Y275898D02*
X267941D01*
Y272599D02*
Y277599D01*
X270441Y271098D02*
X272441D01*
X265441Y269300D02*
Y270898D01*
Y269300D02*
X267941D01*
X265441Y270898D02*
X267941D01*
X275441Y279099D02*
X277441D01*
Y281099D01*
X275441D02*
X277441D01*
X275441Y279099D02*
Y281099D01*
X282441Y279299D02*
Y280897D01*
X279941D02*
X282441D01*
X279941Y279299D02*
X282441D01*
X279941Y277599D02*
Y282598D01*
X275441Y274098D02*
X277441D01*
Y276098D01*
X275441D02*
X277441D01*
X275441Y274098D02*
Y276098D01*
X282441Y274300D02*
Y275898D01*
X279941D02*
X282441D01*
X279941Y274300D02*
X282441D01*
X279941Y272599D02*
Y277599D01*
X275441Y271098D02*
X277441D01*
X282441Y269300D02*
Y270898D01*
X279941D02*
X282441D01*
X279941Y269300D02*
X282441D01*
X270441Y269098D02*
X272441D01*
Y271098D01*
X270441Y269098D02*
Y271098D01*
X267941Y267599D02*
Y272599D01*
X270441Y264099D02*
X272441D01*
Y266098D01*
X270441D02*
X272441D01*
X270441Y264099D02*
Y266098D01*
X265441Y264300D02*
Y265897D01*
Y264300D02*
X267941D01*
X265441Y265897D02*
X267941D01*
Y262598D02*
Y267599D01*
X270441Y259099D02*
X272441D01*
Y261099D01*
X270441D02*
X272441D01*
X270441Y259099D02*
Y261099D01*
X265441Y259299D02*
Y260897D01*
Y259299D02*
X267941D01*
X265441Y260897D02*
X267941D01*
Y257598D02*
Y262598D01*
X270441Y256099D02*
X272441D01*
X275441Y269098D02*
X277441D01*
Y271098D01*
X275441Y269098D02*
Y271098D01*
X279941Y267599D02*
Y272599D01*
X275441Y264099D02*
X277441D01*
Y266098D01*
X275441D02*
X277441D01*
X275441Y264099D02*
Y266098D01*
X282441Y264300D02*
Y265897D01*
X279941D02*
X282441D01*
X279941Y264300D02*
X282441D01*
X279941Y262598D02*
Y267599D01*
X275441Y259099D02*
X277441D01*
Y261099D01*
X275441D02*
X277441D01*
X275441Y259099D02*
Y261099D01*
X282441Y259299D02*
Y260897D01*
X279941D02*
X282441D01*
X279941Y259299D02*
X282441D01*
X279941Y257598D02*
Y262598D01*
X275441Y256099D02*
X277441D01*
X270441Y254099D02*
X272441D01*
Y256099D01*
X270441Y254099D02*
Y256099D01*
X265441Y254299D02*
Y255897D01*
Y254299D02*
X267941D01*
X265441Y255897D02*
X267941D01*
Y252599D02*
Y257598D01*
X270441Y249098D02*
X272441D01*
Y251098D01*
X270441D02*
X272441D01*
X270441Y249098D02*
Y251098D01*
X265441Y249300D02*
Y250898D01*
Y249300D02*
X267941D01*
X265441Y250898D02*
X267941D01*
Y247599D02*
Y252599D01*
X270441Y244098D02*
X272441D01*
Y246098D01*
X270441D02*
X272441D01*
X270441Y244098D02*
Y246098D01*
X265441Y244300D02*
Y245898D01*
Y244300D02*
X267941D01*
X265441Y245898D02*
X267941D01*
X275441Y254099D02*
X277441D01*
Y256099D01*
X275441Y254099D02*
Y256099D01*
X282441Y254299D02*
Y255897D01*
X279941D02*
X282441D01*
X279941Y254299D02*
X282441D01*
X279941Y252599D02*
Y257598D01*
X275441Y249098D02*
X277441D01*
Y251098D01*
X275441D02*
X277441D01*
X275441Y249098D02*
Y251098D01*
X282441Y249300D02*
Y250898D01*
X279941D02*
X282441D01*
X279941Y249300D02*
X282441D01*
X279941Y247599D02*
Y252599D01*
X275441Y244098D02*
X277441D01*
Y246098D01*
X275441D02*
X277441D01*
X275441Y244098D02*
Y246098D01*
X282441Y244300D02*
Y245898D01*
X279941D02*
X282441D01*
X279941Y244300D02*
X282441D01*
X267941Y242599D02*
Y247599D01*
X270441Y239099D02*
X272441D01*
Y241098D01*
X270441D02*
X272441D01*
X270441Y239099D02*
Y241098D01*
X265441Y239300D02*
Y240897D01*
Y239300D02*
X267941D01*
X265441Y240897D02*
X267941D01*
Y237598D02*
Y242599D01*
X270441Y234099D02*
X272441D01*
Y236099D01*
X270441D02*
X272441D01*
X270441Y234099D02*
Y236099D01*
X265441Y234299D02*
Y235897D01*
Y234299D02*
X267941D01*
X265441Y235897D02*
X267941D01*
Y232598D02*
Y237598D01*
X270441Y231099D02*
X272441D01*
X265441Y230897D02*
X267941D01*
X279941Y242599D02*
Y247599D01*
X275441Y239099D02*
X277441D01*
Y241098D01*
X275441D02*
X277441D01*
X275441Y239099D02*
Y241098D01*
X282441Y239300D02*
Y240897D01*
X279941D02*
X282441D01*
X279941Y239300D02*
X282441D01*
X279941Y237598D02*
Y242599D01*
X275441Y234099D02*
X277441D01*
Y236099D01*
X275441D02*
X277441D01*
X275441Y234099D02*
Y236099D01*
X282441Y234299D02*
Y235897D01*
X279941D02*
X282441D01*
X279941Y234299D02*
X282441D01*
X279941Y232598D02*
Y237598D01*
X275441Y231099D02*
X277441D01*
X279941Y230897D02*
X282441D01*
X270441Y229099D02*
X272441D01*
Y231099D01*
X270441Y229099D02*
Y231099D01*
X265441Y229299D02*
Y230897D01*
Y229299D02*
X267941D01*
Y227599D02*
Y232598D01*
X270441Y224098D02*
X272441D01*
Y226098D01*
X270441D02*
X272441D01*
X270441Y224098D02*
Y226098D01*
X265441Y224300D02*
Y225898D01*
Y224300D02*
X267941D01*
X265441Y225898D02*
X267941D01*
Y222599D02*
Y227599D01*
X270441Y219098D02*
X272441D01*
Y221098D01*
X270441D02*
X272441D01*
X270441Y219098D02*
Y221098D01*
X265441Y219300D02*
Y220898D01*
Y219300D02*
X267941D01*
X265441Y220898D02*
X267941D01*
Y217599D02*
Y222599D01*
X275441Y229099D02*
X277441D01*
Y231099D01*
X275441Y229099D02*
Y231099D01*
X282441Y229299D02*
Y230897D01*
X279941Y229299D02*
X282441D01*
X279941Y227599D02*
Y232598D01*
X275441Y224098D02*
X277441D01*
Y226098D01*
X275441D02*
X277441D01*
X275441Y224098D02*
Y226098D01*
X282441Y224300D02*
Y225898D01*
X279941D02*
X282441D01*
X279941Y224300D02*
X282441D01*
X279941Y222599D02*
Y227599D01*
X275441Y219098D02*
X277441D01*
Y221098D01*
X275441D02*
X277441D01*
X275441Y219098D02*
Y221098D01*
X282441Y219300D02*
Y220898D01*
X279941D02*
X282441D01*
X279941Y219300D02*
X282441D01*
X279941Y217599D02*
Y222599D01*
X270441Y214099D02*
X272441D01*
Y216098D01*
X270441D02*
X272441D01*
X270441Y214099D02*
Y216098D01*
X265441Y214300D02*
Y215897D01*
Y214300D02*
X267941D01*
X265441Y215897D02*
X267941D01*
Y212598D02*
Y217599D01*
X270441Y209099D02*
X272441D01*
Y211099D01*
X270441D02*
X272441D01*
X270441Y209099D02*
Y211099D01*
X265441Y209299D02*
Y210897D01*
Y209299D02*
X267941D01*
X265441Y210897D02*
X267941D01*
Y207598D02*
Y212598D01*
X270441Y204099D02*
X272441D01*
Y206099D01*
X270441D02*
X272441D01*
X270441Y204099D02*
Y206099D01*
X265441Y204299D02*
Y205897D01*
Y204299D02*
X267941D01*
X265441Y205897D02*
X267941D01*
X275441Y214099D02*
X277441D01*
Y216098D01*
X275441D02*
X277441D01*
X275441Y214099D02*
Y216098D01*
X282441Y214300D02*
Y215897D01*
X279941D02*
X282441D01*
X279941Y214300D02*
X282441D01*
X279941Y212598D02*
Y217599D01*
X275441Y209099D02*
X277441D01*
Y211099D01*
X275441D02*
X277441D01*
X275441Y209099D02*
Y211099D01*
X282441Y209299D02*
Y210897D01*
X279941D02*
X282441D01*
X279941Y209299D02*
X282441D01*
X279941Y207598D02*
Y212598D01*
X275441Y204099D02*
X277441D01*
Y206099D01*
X275441D02*
X277441D01*
X275441Y204099D02*
Y206099D01*
X282441Y204299D02*
Y205897D01*
X279941D02*
X282441D01*
X279941Y204299D02*
X282441D01*
X267941Y202599D02*
Y207598D01*
X270441Y199099D02*
X272441D01*
Y201098D01*
X270441D02*
X272441D01*
X270441Y199099D02*
Y201098D01*
X265441Y199300D02*
Y200898D01*
Y199300D02*
X267941D01*
X265441Y200898D02*
X267941D01*
Y197599D02*
Y202599D01*
X270441Y194098D02*
X272441D01*
Y196098D01*
X270441D02*
X272441D01*
X270441Y194098D02*
Y196098D01*
X265441Y194299D02*
Y195897D01*
Y194299D02*
X267941D01*
X265441Y195897D02*
X267941D01*
Y192598D02*
Y197599D01*
X270441Y191098D02*
X272441D01*
X265441Y190898D02*
X267941D01*
X279941Y202599D02*
Y207598D01*
X275441Y199099D02*
X277441D01*
Y201098D01*
X275441D02*
X277441D01*
X275441Y199099D02*
Y201098D01*
X282441Y199300D02*
Y200898D01*
X279941D02*
X282441D01*
X279941Y199300D02*
X282441D01*
X279941Y197599D02*
Y202599D01*
X275441Y194098D02*
X277441D01*
Y196098D01*
X275441D02*
X277441D01*
X275441Y194098D02*
Y196098D01*
X282441Y194299D02*
Y195897D01*
X279941D02*
X282441D01*
X279941Y194299D02*
X282441D01*
X279941Y192598D02*
Y197599D01*
X275441Y191098D02*
X277441D01*
X279941Y190898D02*
X282441D01*
X270441Y189099D02*
X272441D01*
Y191098D01*
X270441Y189099D02*
Y191098D01*
X265441Y189299D02*
Y190898D01*
Y189299D02*
X267941D01*
Y187599D02*
Y192598D01*
X270441Y184098D02*
X272441D01*
Y186099D01*
X270441D02*
X272441D01*
X270441Y184098D02*
Y186099D01*
X265441Y184300D02*
Y185898D01*
Y184300D02*
X267941D01*
X265441Y185898D02*
X267941D01*
Y182598D02*
Y187599D01*
X270441Y179098D02*
X272441D01*
Y181098D01*
X270441D02*
X272441D01*
X270441Y179098D02*
Y181098D01*
X265441Y179299D02*
Y180897D01*
Y179299D02*
X267941D01*
X265441Y180897D02*
X267941D01*
Y177599D02*
Y182598D01*
X275441Y189099D02*
X277441D01*
Y191098D01*
X275441Y189099D02*
Y191098D01*
X282441Y189299D02*
Y190898D01*
X279941Y189299D02*
X282441D01*
X279941Y187599D02*
Y192598D01*
X275441Y184098D02*
X277441D01*
Y186099D01*
X275441D02*
X277441D01*
X275441Y184098D02*
Y186099D01*
X282441Y184300D02*
Y185898D01*
X279941D02*
X282441D01*
X279941Y184300D02*
X282441D01*
X279941Y182598D02*
Y187599D01*
X275441Y179098D02*
X277441D01*
Y181098D01*
X275441D02*
X277441D01*
X275441Y179098D02*
Y181098D01*
X282441Y179299D02*
Y180897D01*
X279941D02*
X282441D01*
X279941Y179299D02*
X282441D01*
X279941Y177599D02*
Y182598D01*
X270441Y174099D02*
X272441D01*
Y176099D01*
X270441D02*
X272441D01*
X270441Y174099D02*
Y176099D01*
X265441Y174300D02*
Y175898D01*
Y174300D02*
X267941D01*
X265441Y175898D02*
X267941D01*
Y172599D02*
Y177599D01*
X270441Y169098D02*
X272441D01*
Y171098D01*
X270441D02*
X272441D01*
X270441Y169098D02*
Y171098D01*
X265441Y169299D02*
Y170897D01*
Y169299D02*
X267941D01*
X265441Y170897D02*
X267941D01*
Y167598D02*
Y172599D01*
X270441Y164099D02*
X272441D01*
Y166098D01*
X270441D02*
X272441D01*
X270441Y164099D02*
Y166098D01*
X265441Y164299D02*
Y165898D01*
Y164299D02*
X267941D01*
X265441Y165898D02*
X267941D01*
X275441Y174099D02*
X277441D01*
Y176099D01*
X275441D02*
X277441D01*
X275441Y174099D02*
Y176099D01*
X282441Y174300D02*
Y175898D01*
X279941D02*
X282441D01*
X279941Y174300D02*
X282441D01*
X279941Y172599D02*
Y177599D01*
X275441Y169098D02*
X277441D01*
Y171098D01*
X275441D02*
X277441D01*
X275441Y169098D02*
Y171098D01*
X282441Y169299D02*
Y170897D01*
X279941D02*
X282441D01*
X279941Y169299D02*
X282441D01*
X279941Y167598D02*
Y172599D01*
X275441Y164099D02*
X277441D01*
Y166098D01*
X275441D02*
X277441D01*
X275441Y164099D02*
Y166098D01*
X282441Y164299D02*
Y165898D01*
X279941D02*
X282441D01*
X279941Y164299D02*
X282441D01*
X267941Y162599D02*
Y167598D01*
X270441Y159098D02*
X272441D01*
Y161099D01*
X270441D02*
X272441D01*
X270441Y159098D02*
Y161099D01*
X265441Y159300D02*
Y160898D01*
Y159300D02*
X267941D01*
X265441Y160898D02*
X267941D01*
Y157598D02*
Y162599D01*
X270441Y154098D02*
X272441D01*
Y156098D01*
X270441D02*
X272441D01*
X270441Y154098D02*
Y156098D01*
X265441Y154299D02*
Y155897D01*
Y154299D02*
X267941D01*
X265441Y155897D02*
X267941D01*
Y152599D02*
Y157598D01*
X270441Y151099D02*
X272441D01*
X265441Y150898D02*
X267941D01*
X279941Y162599D02*
Y167598D01*
X275441Y159098D02*
X277441D01*
Y161099D01*
X275441D02*
X277441D01*
X275441Y159098D02*
Y161099D01*
X282441Y159300D02*
Y160898D01*
X279941D02*
X282441D01*
X279941Y159300D02*
X282441D01*
X279941Y157598D02*
Y162599D01*
X275441Y154098D02*
X277441D01*
Y156098D01*
X275441D02*
X277441D01*
X275441Y154098D02*
Y156098D01*
X282441Y154299D02*
Y155897D01*
X279941D02*
X282441D01*
X279941Y154299D02*
X282441D01*
X279941Y152599D02*
Y157598D01*
X275441Y151099D02*
X277441D01*
X279941Y150898D02*
X282441D01*
X270441Y149099D02*
X272441D01*
Y151099D01*
X270441Y149099D02*
Y151099D01*
X265441Y149300D02*
Y150898D01*
Y149300D02*
X267941D01*
Y147599D02*
Y152599D01*
X270441Y144098D02*
X272441D01*
Y146098D01*
X270441D02*
X272441D01*
X270441Y144098D02*
Y146098D01*
X265441Y144299D02*
Y145897D01*
Y144299D02*
X267941D01*
X265441Y145897D02*
X267941D01*
Y142598D02*
Y147599D01*
X265441Y139299D02*
X267941D01*
X265441Y140898D02*
X267941D01*
X265441Y139299D02*
Y140898D01*
X270441Y139099D02*
Y141098D01*
X272441D01*
Y139099D02*
Y141098D01*
X270441Y139099D02*
X272441D01*
X275441Y149099D02*
X277441D01*
Y151099D01*
X275441Y149099D02*
Y151099D01*
X282441Y149300D02*
Y150898D01*
X279941Y149300D02*
X282441D01*
X279941Y147599D02*
Y152599D01*
X275441Y144098D02*
X277441D01*
Y146098D01*
X275441D02*
X277441D01*
X275441Y144098D02*
Y146098D01*
X282441Y144299D02*
Y145897D01*
X279941D02*
X282441D01*
X279941Y144299D02*
X282441D01*
X279941Y142598D02*
Y147599D01*
Y139299D02*
X282441D01*
X279941Y140898D02*
X282441D01*
Y139299D02*
Y140898D01*
X275441Y139099D02*
Y141098D01*
X277441D01*
Y139099D02*
Y141098D01*
X275441Y139099D02*
X277441D01*
X267941Y136749D02*
Y142598D01*
Y136749D02*
X279941D01*
Y142598D01*
M02*
