G04*
G04 #@! TF.GenerationSoftware,Altium Limited,Altium Designer,20.0.13 (296)*
G04*
G04 Layer_Physical_Order=1*
G04 Layer_Color=255*
%FSLAX25Y25*%
%MOIN*%
G70*
G01*
G75*
%ADD11C,0.00787*%
%ADD14C,0.01575*%
%ADD16R,0.03150X0.01968*%
%ADD17R,0.03543X0.00984*%
%ADD18R,0.05118X0.00984*%
%ADD19R,0.02362X0.00984*%
%ADD20R,0.00984X0.02362*%
%ADD21R,0.10039X0.08071*%
%ADD22R,0.01850X0.02047*%
%ADD23R,0.00984X0.01968*%
%ADD24R,0.01968X0.00984*%
%ADD25R,0.03937X0.03937*%
%ADD26R,0.05118X0.13386*%
%ADD27R,0.13386X0.03858*%
%ADD28R,0.02047X0.01850*%
%ADD29R,0.03150X0.03150*%
G04:AMPARAMS|DCode=30|XSize=27.56mil|YSize=27.56mil|CornerRadius=2.76mil|HoleSize=0mil|Usage=FLASHONLY|Rotation=0.000|XOffset=0mil|YOffset=0mil|HoleType=Round|Shape=RoundedRectangle|*
%AMROUNDEDRECTD30*
21,1,0.02756,0.02205,0,0,0.0*
21,1,0.02205,0.02756,0,0,0.0*
1,1,0.00551,0.01102,-0.01102*
1,1,0.00551,-0.01102,-0.01102*
1,1,0.00551,-0.01102,0.01102*
1,1,0.00551,0.01102,0.01102*
%
%ADD30ROUNDEDRECTD30*%
%ADD31R,0.05709X0.06890*%
%ADD32R,0.07874X0.03937*%
%ADD33R,0.02362X0.03937*%
%ADD34R,0.03150X0.03150*%
%ADD35R,0.01575X0.01575*%
%ADD36R,0.01575X0.01575*%
%ADD37R,0.01968X0.03150*%
%ADD62C,0.02953*%
%ADD64C,0.03032*%
%ADD65C,0.01968*%
%ADD66C,0.19685*%
%ADD67C,0.01968*%
G36*
X315669Y168288D02*
X317074Y168103D01*
X318442Y167736D01*
X319751Y167194D01*
X320978Y166486D01*
X322102Y165623D01*
X323104Y164621D01*
X323966Y163497D01*
X324674Y162271D01*
X325217Y160962D01*
X325583Y159593D01*
X325768Y158189D01*
Y157480D01*
Y0D01*
Y-708D01*
X325583Y-2113D01*
X325217Y-3481D01*
X324674Y-4790D01*
X323966Y-6017D01*
X323104Y-7141D01*
X322102Y-8143D01*
X320978Y-9005D01*
X319751Y-9714D01*
X318442Y-10256D01*
X317074Y-10623D01*
X315669Y-10808D01*
X314961D01*
X-0Y-10808D01*
X-709D01*
X-2113Y-10623D01*
X-3482Y-10256D01*
X-4791Y-9714D01*
X-6017Y-9005D01*
X-7141Y-8143D01*
X-8143Y-7141D01*
X-9006Y-6017D01*
X-9714Y-4790D01*
X-10256Y-3481D01*
X-10623Y-2113D01*
X-10808Y-708D01*
Y-0D01*
Y157480D01*
Y158189D01*
X-10623Y159593D01*
X-10256Y160962D01*
X-9714Y162271D01*
X-9006Y163497D01*
X-8143Y164621D01*
X-7141Y165623D01*
X-6017Y166486D01*
X-4791Y167194D01*
X-3482Y167736D01*
X-2113Y168103D01*
X-709Y168288D01*
X0Y168288D01*
X314961D01*
X315669Y168288D01*
D02*
G37*
%LPC*%
G36*
X202795Y159768D02*
X198661D01*
Y157602D01*
X202795D01*
Y159768D01*
D02*
G37*
G36*
X197480D02*
X193346D01*
Y157602D01*
X197480D01*
Y159768D01*
D02*
G37*
G36*
X231968Y156598D02*
X230945D01*
Y155673D01*
X231968D01*
Y156598D01*
D02*
G37*
G36*
X230157D02*
X229134D01*
Y155673D01*
X230157D01*
Y156598D01*
D02*
G37*
G36*
X226968D02*
X225945D01*
Y155673D01*
X226968D01*
Y156598D01*
D02*
G37*
G36*
X225157D02*
X224134D01*
Y155673D01*
X225157D01*
Y156598D01*
D02*
G37*
G36*
X216083D02*
X215059D01*
Y155673D01*
X216083D01*
Y156598D01*
D02*
G37*
G36*
X214272D02*
X213248D01*
Y155673D01*
X214272D01*
Y156598D01*
D02*
G37*
G36*
X211583D02*
X210559D01*
Y155673D01*
X211583D01*
Y156598D01*
D02*
G37*
G36*
X209772D02*
X208748D01*
Y155673D01*
X209772D01*
Y156598D01*
D02*
G37*
G36*
X231968Y154886D02*
X229134D01*
Y153961D01*
X228683Y153841D01*
X227419D01*
X226968Y153961D01*
X226968Y154341D01*
Y154886D01*
X224134D01*
Y153961D01*
X223684Y153841D01*
X222441D01*
X221696Y153692D01*
X221125Y153311D01*
X220232D01*
Y150476D01*
X221125D01*
X221696Y150095D01*
X222441Y149947D01*
X234240D01*
X234365Y149972D01*
X236251Y149786D01*
X238184Y149199D01*
X239966Y148247D01*
X241528Y146965D01*
X242810Y145403D01*
X243762Y143621D01*
X244349Y141688D01*
X244500Y140152D01*
X243578Y139770D01*
X242385Y138855D01*
X241470Y137662D01*
X241033Y136607D01*
X240734Y136516D01*
X240472Y136568D01*
X239764D01*
Y134783D01*
Y132999D01*
X240472D01*
X240734Y133051D01*
X241033Y132960D01*
X241470Y131904D01*
X242385Y130712D01*
X243578Y129797D01*
X244633Y129360D01*
X244724Y129060D01*
X244672Y128799D01*
Y128091D01*
X248241D01*
Y128799D01*
X248189Y129060D01*
X248280Y129360D01*
X249336Y129797D01*
X250528Y130712D01*
X251443Y131904D01*
X251880Y132960D01*
X252180Y133051D01*
X252441Y132999D01*
X253150D01*
Y134783D01*
Y136568D01*
X252441D01*
X252180Y136516D01*
X251880Y136607D01*
X251443Y137662D01*
X250528Y138855D01*
X249336Y139770D01*
X248371Y140170D01*
X248235Y141894D01*
X247716Y144056D01*
X246865Y146110D01*
X245704Y148006D01*
X244260Y149697D01*
X242569Y151141D01*
X240673Y152302D01*
X238619Y153153D01*
X236457Y153672D01*
X234240Y153847D01*
Y153841D01*
X232419D01*
X231968Y153961D01*
X231968Y154341D01*
Y154886D01*
D02*
G37*
G36*
X202795Y156421D02*
X198071D01*
X193346D01*
Y156256D01*
X192953D01*
X192651Y156131D01*
X192527Y155830D01*
Y147956D01*
X192651Y147654D01*
X192953Y147529D01*
X193346D01*
Y147366D01*
X198071D01*
Y146776D01*
D01*
Y147366D01*
X202795D01*
Y147529D01*
X203189D01*
X203490Y147654D01*
X203615Y147956D01*
Y149531D01*
X205551D01*
Y149947D01*
X216929D01*
X217674Y150095D01*
X218245Y150476D01*
X219484D01*
Y153311D01*
X218245D01*
X217674Y153692D01*
X216929Y153841D01*
X216533D01*
X216083Y153961D01*
X216083Y154341D01*
Y154886D01*
X213248D01*
Y153961D01*
X212798Y153841D01*
X212033D01*
X211583Y153961D01*
X211583Y154341D01*
Y154886D01*
X208748D01*
Y153961D01*
X208298Y153841D01*
X205551D01*
Y154256D01*
X203615D01*
Y155830D01*
X203490Y156131D01*
X203189Y156256D01*
X202795D01*
Y156421D01*
D02*
G37*
G36*
Y146185D02*
X198661D01*
Y144020D01*
X202795D01*
Y146185D01*
D02*
G37*
G36*
X197480D02*
X193346D01*
Y144020D01*
X197480D01*
Y146185D01*
D02*
G37*
G36*
X299409Y141657D02*
X299409Y141657D01*
X262992D01*
X262992Y141657D01*
X262531Y141565D01*
X262141Y141304D01*
X259778Y138942D01*
X259517Y138551D01*
X259426Y138091D01*
X259426Y138091D01*
Y136548D01*
X259266Y136516D01*
X259045Y136368D01*
X258897Y136147D01*
X258845Y135886D01*
Y133681D01*
X258897Y133420D01*
X259045Y133198D01*
X259266Y133051D01*
X259426Y133019D01*
Y129461D01*
X259266Y129430D01*
X259045Y129282D01*
X258897Y129060D01*
X258845Y128799D01*
Y126594D01*
X258897Y126333D01*
X259045Y126112D01*
X259266Y125964D01*
X259527Y125912D01*
X261732D01*
X261993Y125964D01*
X262215Y126112D01*
X262363Y126333D01*
X262415Y126594D01*
Y128799D01*
X262363Y129060D01*
X262215Y129282D01*
X261993Y129430D01*
X261834Y129461D01*
Y133019D01*
X261993Y133051D01*
X262215Y133198D01*
X262363Y133420D01*
X262415Y133681D01*
Y135886D01*
X262363Y136147D01*
X262215Y136368D01*
X261993Y136516D01*
X261834Y136548D01*
Y137592D01*
X263491Y139249D01*
X298911D01*
X305627Y132533D01*
Y113965D01*
X305512D01*
Y111130D01*
X305627D01*
Y110028D01*
X305512D01*
Y107193D01*
X305627D01*
Y106642D01*
X305512D01*
Y102705D01*
X306276D01*
Y101868D01*
X305512D01*
Y97931D01*
X309449D01*
Y101868D01*
X308685D01*
Y102705D01*
X309449D01*
Y106642D01*
X308035D01*
Y107193D01*
X308150D01*
Y110028D01*
X308035D01*
Y111130D01*
X308150D01*
Y113965D01*
X308035D01*
Y133031D01*
X307943Y133492D01*
X307682Y133883D01*
X300261Y141304D01*
X299870Y141565D01*
X299409Y141657D01*
D02*
G37*
G36*
X218110Y140541D02*
X216620Y140345D01*
X215231Y139770D01*
X214039Y138855D01*
X213124Y137662D01*
X212687Y136607D01*
X212387Y136516D01*
X212126Y136568D01*
X211417D01*
Y134783D01*
Y132999D01*
X212126D01*
X212387Y133051D01*
X212687Y132960D01*
X213124Y131904D01*
X214039Y130712D01*
X215231Y129797D01*
X216286Y129360D01*
X216377Y129060D01*
X216325Y128799D01*
Y128091D01*
X219895D01*
Y128799D01*
X219843Y129060D01*
X219934Y129360D01*
X220989Y129797D01*
X222182Y130712D01*
X223097Y131904D01*
X223534Y132960D01*
X223833Y133051D01*
X224095Y132999D01*
X224803D01*
Y134783D01*
Y136568D01*
X224095D01*
X223833Y136516D01*
X223534Y136607D01*
X223097Y137662D01*
X222182Y138855D01*
X220989Y139770D01*
X219601Y140345D01*
X218110Y140541D01*
D02*
G37*
G36*
X275905Y136568D02*
X273701D01*
X273440Y136516D01*
X273218Y136368D01*
X273070Y136147D01*
X273039Y135988D01*
X269481D01*
X269449Y136147D01*
X269301Y136368D01*
X269080Y136516D01*
X268819Y136568D01*
X266614D01*
X266353Y136516D01*
X266132Y136368D01*
X265984Y136147D01*
X265932Y135886D01*
Y133681D01*
X265984Y133420D01*
X266132Y133198D01*
X266353Y133051D01*
X266512Y133019D01*
Y129461D01*
X266353Y129430D01*
X266132Y129282D01*
X265984Y129060D01*
X265932Y128799D01*
Y126594D01*
X265984Y126333D01*
X266132Y126112D01*
X266353Y125964D01*
X266614Y125912D01*
X268819D01*
X269080Y125964D01*
X269301Y126112D01*
X269449Y126333D01*
X269481Y126493D01*
X273039D01*
X273070Y126333D01*
X273218Y126112D01*
X273440Y125964D01*
X273701Y125912D01*
X275905D01*
X276167Y125964D01*
X276388Y126112D01*
X276536Y126333D01*
X276588Y126594D01*
Y128799D01*
X276536Y129060D01*
X276388Y129282D01*
X276167Y129430D01*
X275905Y129482D01*
X273701D01*
X273440Y129430D01*
X273218Y129282D01*
X273070Y129060D01*
X273039Y128901D01*
X269481D01*
X269449Y129060D01*
X269301Y129282D01*
X269080Y129430D01*
X268921Y129461D01*
Y133019D01*
X269080Y133051D01*
X269301Y133198D01*
X269449Y133420D01*
X269481Y133579D01*
X273039D01*
X273070Y133420D01*
X273218Y133198D01*
X273440Y133051D01*
X273701Y132999D01*
X275905D01*
X276167Y133051D01*
X276388Y133198D01*
X276536Y133420D01*
X276568Y133579D01*
X294344D01*
X300626Y127296D01*
Y113965D01*
X300512D01*
Y111130D01*
X300626D01*
Y110028D01*
X300512D01*
Y107193D01*
X300626D01*
Y106642D01*
X299213D01*
Y102705D01*
X299977D01*
Y101868D01*
X299213D01*
Y97931D01*
X303150D01*
Y101868D01*
X302385D01*
Y102705D01*
X303150D01*
Y106642D01*
X303035D01*
Y107193D01*
X303150D01*
Y110028D01*
X303035D01*
Y111130D01*
X303150D01*
Y113965D01*
X303035D01*
Y127795D01*
X303035Y127795D01*
X302943Y128256D01*
X302682Y128647D01*
X295694Y135635D01*
X295303Y135896D01*
X294843Y135988D01*
X294843Y135988D01*
X276568D01*
X276536Y136147D01*
X276388Y136368D01*
X276167Y136516D01*
X275905Y136568D01*
D02*
G37*
G36*
X254646D02*
X253937D01*
Y135177D01*
X255328D01*
Y135886D01*
X255276Y136147D01*
X255128Y136368D01*
X254907Y136516D01*
X254646Y136568D01*
D02*
G37*
G36*
X238976D02*
X238268D01*
X238006Y136516D01*
X237785Y136368D01*
X237637Y136147D01*
X237585Y135886D01*
Y135177D01*
X238976D01*
Y136568D01*
D02*
G37*
G36*
X233386D02*
X232677D01*
Y135177D01*
X234068D01*
Y135886D01*
X234016Y136147D01*
X233868Y136368D01*
X233647Y136516D01*
X233386Y136568D01*
D02*
G37*
G36*
X231890D02*
X231181D01*
X230920Y136516D01*
X230698Y136368D01*
X230551Y136147D01*
X230499Y135886D01*
Y135177D01*
X231890D01*
Y136568D01*
D02*
G37*
G36*
X226299D02*
X225590D01*
Y135177D01*
X226982D01*
Y135886D01*
X226930Y136147D01*
X226782Y136368D01*
X226560Y136516D01*
X226299Y136568D01*
D02*
G37*
G36*
X210630D02*
X209921D01*
X209660Y136516D01*
X209439Y136368D01*
X209291Y136147D01*
X209239Y135886D01*
Y135177D01*
X210630D01*
Y136568D01*
D02*
G37*
G36*
X109862Y135276D02*
X108937D01*
Y134252D01*
X109862D01*
Y135276D01*
D02*
G37*
G36*
X108150D02*
X107224D01*
Y134252D01*
X108150D01*
Y135276D01*
D02*
G37*
G36*
X125610D02*
X124685D01*
Y134252D01*
X125610D01*
Y135276D01*
D02*
G37*
G36*
X94114D02*
X93189D01*
Y134252D01*
X94114D01*
Y135276D01*
D02*
G37*
G36*
X123898D02*
X122973D01*
Y134252D01*
X123898D01*
Y135276D01*
D02*
G37*
G36*
X92402D02*
X91476D01*
Y134252D01*
X92402D01*
Y135276D01*
D02*
G37*
G36*
X46693Y134902D02*
X45669D01*
Y133976D01*
X46693D01*
Y134902D01*
D02*
G37*
G36*
X44882D02*
X43858D01*
Y133976D01*
X44882D01*
Y134902D01*
D02*
G37*
G36*
X56713Y135000D02*
X55787D01*
Y133976D01*
X56713D01*
Y135000D01*
D02*
G37*
G36*
X55000D02*
X54075D01*
Y133976D01*
X55000D01*
Y135000D01*
D02*
G37*
G36*
X42756Y134902D02*
X41732D01*
Y133976D01*
X42756D01*
Y134902D01*
D02*
G37*
G36*
X40945D02*
X39921D01*
Y133976D01*
X40945D01*
Y134902D01*
D02*
G37*
G36*
X255328Y134390D02*
X253937D01*
Y132999D01*
X254646D01*
X254907Y133051D01*
X255128Y133198D01*
X255276Y133420D01*
X255328Y133681D01*
Y134390D01*
D02*
G37*
G36*
X238976D02*
X237585D01*
Y133681D01*
X237637Y133420D01*
X237785Y133198D01*
X238006Y133051D01*
X238268Y132999D01*
X238976D01*
Y134390D01*
D02*
G37*
G36*
X234068D02*
X232677D01*
Y132999D01*
X233386D01*
X233647Y133051D01*
X233868Y133198D01*
X234016Y133420D01*
X234068Y133681D01*
Y134390D01*
D02*
G37*
G36*
X231890D02*
X230499D01*
Y133681D01*
X230551Y133420D01*
X230698Y133198D01*
X230920Y133051D01*
X231181Y132999D01*
X231890D01*
Y134390D01*
D02*
G37*
G36*
X226982D02*
X225590D01*
Y132999D01*
X226299D01*
X226560Y133051D01*
X226782Y133198D01*
X226930Y133420D01*
X226982Y133681D01*
Y134390D01*
D02*
G37*
G36*
X210630D02*
X209239D01*
Y133681D01*
X209291Y133420D01*
X209439Y133198D01*
X209660Y133051D01*
X209921Y132999D01*
X210630D01*
Y134390D01*
D02*
G37*
G36*
X205039Y136568D02*
X202835D01*
X202573Y136516D01*
X202352Y136368D01*
X202204Y136147D01*
X202152Y135886D01*
Y133681D01*
X202204Y133420D01*
X202352Y133198D01*
X202573Y133051D01*
X202835Y132999D01*
X205039D01*
X205300Y133051D01*
X205522Y133198D01*
X205670Y133420D01*
X205722Y133681D01*
Y135886D01*
X205670Y136147D01*
X205522Y136368D01*
X205300Y136516D01*
X205039Y136568D01*
D02*
G37*
G36*
X197953D02*
X195748D01*
X195487Y136516D01*
X195265Y136368D01*
X195118Y136147D01*
X195066Y135886D01*
Y133681D01*
X195118Y133420D01*
X195265Y133198D01*
X195487Y133051D01*
X195748Y132999D01*
X197953D01*
X198214Y133051D01*
X198435Y133198D01*
X198583Y133420D01*
X198635Y133681D01*
Y135886D01*
X198583Y136147D01*
X198435Y136368D01*
X198214Y136516D01*
X197953Y136568D01*
D02*
G37*
G36*
X190866D02*
X188661D01*
X188400Y136516D01*
X188179Y136368D01*
X188031Y136147D01*
X187979Y135886D01*
Y133681D01*
X188031Y133420D01*
X188179Y133198D01*
X188400Y133051D01*
X188661Y132999D01*
X190866D01*
X191127Y133051D01*
X191349Y133198D01*
X191497Y133420D01*
X191549Y133681D01*
Y135886D01*
X191497Y136147D01*
X191349Y136368D01*
X191127Y136516D01*
X190866Y136568D01*
D02*
G37*
G36*
X125610Y133465D02*
X124685D01*
Y132441D01*
X125610D01*
Y133465D01*
D02*
G37*
G36*
X123898D02*
X122973D01*
Y132441D01*
X123898D01*
Y133465D01*
D02*
G37*
G36*
X109862Y133465D02*
X108937D01*
Y132441D01*
X109862D01*
Y133465D01*
D02*
G37*
G36*
X108150D02*
X107224D01*
Y132441D01*
X108150D01*
Y133465D01*
D02*
G37*
G36*
X94114Y133465D02*
X93189D01*
Y132441D01*
X94114D01*
Y133465D01*
D02*
G37*
G36*
X92402D02*
X91476D01*
Y132441D01*
X92402D01*
Y133465D01*
D02*
G37*
G36*
X46693Y133189D02*
X45669D01*
Y132264D01*
X46693D01*
Y133189D01*
D02*
G37*
G36*
X44882D02*
X43858D01*
Y132264D01*
X44882D01*
Y133189D01*
D02*
G37*
G36*
X42756Y133189D02*
X41732D01*
Y132264D01*
X42756D01*
Y133189D01*
D02*
G37*
G36*
X40945D02*
X39921D01*
Y132264D01*
X40945D01*
Y133189D01*
D02*
G37*
G36*
X56713Y133189D02*
X55787D01*
Y132165D01*
X56713D01*
Y133189D01*
D02*
G37*
G36*
X55000D02*
X54075D01*
Y132165D01*
X55000D01*
Y133189D01*
D02*
G37*
G36*
X8268Y132283D02*
X4331D01*
Y130315D01*
X8268D01*
Y132283D01*
D02*
G37*
G36*
X3543D02*
X-394D01*
Y130315D01*
X3543D01*
Y132283D01*
D02*
G37*
G36*
X141358Y131339D02*
X140433D01*
Y130315D01*
X141358D01*
Y131339D01*
D02*
G37*
G36*
X139646D02*
X138721D01*
Y130315D01*
X139646D01*
Y131339D01*
D02*
G37*
G36*
X128996Y135276D02*
X126358D01*
Y132441D01*
X126874D01*
Y131339D01*
X126358D01*
Y128504D01*
X128996D01*
Y129118D01*
X130297D01*
X130424Y128928D01*
X130880Y128623D01*
X131417Y128516D01*
X131955Y128623D01*
X132411Y128928D01*
X132715Y129384D01*
X132822Y129921D01*
X132715Y130459D01*
X132411Y130915D01*
X131955Y131219D01*
X131417Y131326D01*
X130880Y131219D01*
X130424Y130915D01*
X130297Y130724D01*
X128996D01*
Y131339D01*
X128480D01*
Y132441D01*
X128996D01*
Y135276D01*
D02*
G37*
G36*
X97500D02*
X94862D01*
Y132441D01*
X95378D01*
Y131339D01*
X94862D01*
Y128504D01*
X97500D01*
Y129118D01*
X98800D01*
X98928Y128928D01*
X99384Y128623D01*
X99921Y128516D01*
X100459Y128623D01*
X100915Y128928D01*
X101219Y129384D01*
X101326Y129921D01*
X101219Y130459D01*
X100915Y130915D01*
X100459Y131219D01*
X99921Y131326D01*
X99384Y131219D01*
X98928Y130915D01*
X98800Y130724D01*
X97500D01*
Y131339D01*
X96984D01*
Y132441D01*
X97500D01*
Y135276D01*
D02*
G37*
G36*
X141358Y129528D02*
X140433D01*
Y128504D01*
X141358D01*
Y129528D01*
D02*
G37*
G36*
X139646D02*
X138721D01*
Y128504D01*
X139646D01*
Y129528D01*
D02*
G37*
G36*
X113248Y135276D02*
X110610D01*
Y132441D01*
X111126D01*
Y131339D01*
X110610D01*
Y128504D01*
X113248D01*
Y129093D01*
X114532D01*
X114676Y128877D01*
X115132Y128573D01*
X115669Y128466D01*
X116207Y128573D01*
X116663Y128877D01*
X116967Y129333D01*
X117074Y129871D01*
X116967Y130408D01*
X116663Y130864D01*
X116207Y131169D01*
X115669Y131275D01*
X115132Y131169D01*
X114676Y130864D01*
X114565Y130699D01*
X113248D01*
Y131339D01*
X112732D01*
Y132441D01*
X113248D01*
Y135276D01*
D02*
G37*
G36*
X282992Y129482D02*
X282283D01*
Y128091D01*
X283675D01*
Y128799D01*
X283623Y129060D01*
X283475Y129282D01*
X283253Y129430D01*
X282992Y129482D01*
D02*
G37*
G36*
X281496D02*
X280787D01*
X280526Y129430D01*
X280305Y129282D01*
X280157Y129060D01*
X280105Y128799D01*
Y128091D01*
X281496D01*
Y129482D01*
D02*
G37*
G36*
X254646D02*
X253937D01*
Y128091D01*
X255328D01*
Y128799D01*
X255276Y129060D01*
X255128Y129282D01*
X254907Y129430D01*
X254646Y129482D01*
D02*
G37*
G36*
X253150D02*
X252441D01*
X252180Y129430D01*
X251958Y129282D01*
X251810Y129060D01*
X251759Y128799D01*
Y128091D01*
X253150D01*
Y129482D01*
D02*
G37*
G36*
X240472D02*
X239764D01*
Y128091D01*
X241155D01*
Y128799D01*
X241103Y129060D01*
X240955Y129282D01*
X240734Y129430D01*
X240472Y129482D01*
D02*
G37*
G36*
X238976D02*
X238268D01*
X238006Y129430D01*
X237785Y129282D01*
X237637Y129060D01*
X237585Y128799D01*
Y128091D01*
X238976D01*
Y129482D01*
D02*
G37*
G36*
X233386D02*
X232677D01*
Y128091D01*
X234068D01*
Y128799D01*
X234016Y129060D01*
X233868Y129282D01*
X233647Y129430D01*
X233386Y129482D01*
D02*
G37*
G36*
X231890D02*
X231181D01*
X230920Y129430D01*
X230698Y129282D01*
X230551Y129060D01*
X230499Y128799D01*
Y128091D01*
X231890D01*
Y129482D01*
D02*
G37*
G36*
X226299D02*
X225590D01*
Y128091D01*
X226982D01*
Y128799D01*
X226930Y129060D01*
X226782Y129282D01*
X226560Y129430D01*
X226299Y129482D01*
D02*
G37*
G36*
X224803D02*
X224095D01*
X223833Y129430D01*
X223612Y129282D01*
X223464Y129060D01*
X223412Y128799D01*
Y128091D01*
X224803D01*
Y129482D01*
D02*
G37*
G36*
X212126D02*
X211417D01*
Y128091D01*
X212808D01*
Y128799D01*
X212756Y129060D01*
X212609Y129282D01*
X212387Y129430D01*
X212126Y129482D01*
D02*
G37*
G36*
X210630D02*
X209921D01*
X209660Y129430D01*
X209439Y129282D01*
X209291Y129060D01*
X209239Y128799D01*
Y128091D01*
X210630D01*
Y129482D01*
D02*
G37*
G36*
X183780D02*
X183071D01*
Y128091D01*
X184462D01*
Y128799D01*
X184410Y129060D01*
X184262Y129282D01*
X184041Y129430D01*
X183780Y129482D01*
D02*
G37*
G36*
X182283D02*
X181575D01*
X181314Y129430D01*
X181092Y129282D01*
X180944Y129060D01*
X180892Y128799D01*
Y128091D01*
X182283D01*
Y129482D01*
D02*
G37*
G36*
X8268Y129528D02*
X4331D01*
Y127559D01*
X8268D01*
Y129528D01*
D02*
G37*
G36*
X3543D02*
X-394D01*
Y127559D01*
X3543D01*
Y129528D01*
D02*
G37*
G36*
X144744Y131339D02*
X142106D01*
Y128504D01*
X142622D01*
Y126969D01*
X140551D01*
Y126590D01*
X139113D01*
X138986Y126781D01*
X138530Y127085D01*
X137992Y127192D01*
X137454Y127085D01*
X136999Y126781D01*
X136694Y126325D01*
X136587Y125787D01*
X136694Y125250D01*
X136999Y124794D01*
X137454Y124489D01*
X137992Y124382D01*
X138530Y124489D01*
X138986Y124794D01*
X139113Y124985D01*
X140551D01*
Y124606D01*
X142622D01*
Y123425D01*
X142028D01*
Y121063D01*
X142027Y121063D01*
X142058Y120563D01*
X142001Y120276D01*
X142054Y120006D01*
X142106Y119528D01*
X142106Y119527D01*
X142106Y119527D01*
Y116693D01*
X144744D01*
Y119527D01*
X144744Y119528D01*
X144760Y120021D01*
X144810Y120276D01*
X144703Y120813D01*
X144399Y121269D01*
X144390Y121275D01*
Y123425D01*
X144228D01*
Y128504D01*
X144744D01*
Y131339D01*
D02*
G37*
G36*
X283675Y127303D02*
X282283D01*
Y125912D01*
X282992D01*
X283253Y125964D01*
X283475Y126112D01*
X283623Y126333D01*
X283675Y126594D01*
Y127303D01*
D02*
G37*
G36*
X281496D02*
X280105D01*
Y126594D01*
X280157Y126333D01*
X280305Y126112D01*
X280526Y125964D01*
X280787Y125912D01*
X281496D01*
Y127303D01*
D02*
G37*
G36*
X255328D02*
X253937D01*
Y125912D01*
X254646D01*
X254907Y125964D01*
X255128Y126112D01*
X255276Y126333D01*
X255328Y126594D01*
Y127303D01*
D02*
G37*
G36*
X253150D02*
X251759D01*
Y126594D01*
X251810Y126333D01*
X251958Y126112D01*
X252180Y125964D01*
X252441Y125912D01*
X253150D01*
Y127303D01*
D02*
G37*
G36*
X248241D02*
X246850D01*
Y125912D01*
X247559D01*
X247820Y125964D01*
X248042Y126112D01*
X248189Y126333D01*
X248241Y126594D01*
Y127303D01*
D02*
G37*
G36*
X246063D02*
X244672D01*
Y126594D01*
X244724Y126333D01*
X244872Y126112D01*
X245093Y125964D01*
X245354Y125912D01*
X246063D01*
Y127303D01*
D02*
G37*
G36*
X241155D02*
X239764D01*
Y125912D01*
X240472D01*
X240734Y125964D01*
X240955Y126112D01*
X241103Y126333D01*
X241155Y126594D01*
Y127303D01*
D02*
G37*
G36*
X238976D02*
X237585D01*
Y126594D01*
X237637Y126333D01*
X237785Y126112D01*
X238006Y125964D01*
X238268Y125912D01*
X238976D01*
Y127303D01*
D02*
G37*
G36*
X234068D02*
X232677D01*
Y125912D01*
X233386D01*
X233647Y125964D01*
X233868Y126112D01*
X234016Y126333D01*
X234068Y126594D01*
Y127303D01*
D02*
G37*
G36*
X231890D02*
X230499D01*
Y126594D01*
X230551Y126333D01*
X230698Y126112D01*
X230920Y125964D01*
X231181Y125912D01*
X231890D01*
Y127303D01*
D02*
G37*
G36*
X226982D02*
X225590D01*
Y125912D01*
X226299D01*
X226560Y125964D01*
X226782Y126112D01*
X226930Y126333D01*
X226982Y126594D01*
Y127303D01*
D02*
G37*
G36*
X224803D02*
X223412D01*
Y126594D01*
X223464Y126333D01*
X223612Y126112D01*
X223833Y125964D01*
X224095Y125912D01*
X224803D01*
Y127303D01*
D02*
G37*
G36*
X219895D02*
X218504D01*
Y125912D01*
X219213D01*
X219474Y125964D01*
X219695Y126112D01*
X219843Y126333D01*
X219895Y126594D01*
Y127303D01*
D02*
G37*
G36*
X217717D02*
X216325D01*
Y126594D01*
X216377Y126333D01*
X216525Y126112D01*
X216747Y125964D01*
X217008Y125912D01*
X217717D01*
Y127303D01*
D02*
G37*
G36*
X212808D02*
X211417D01*
Y125912D01*
X212126D01*
X212387Y125964D01*
X212609Y126112D01*
X212756Y126333D01*
X212808Y126594D01*
Y127303D01*
D02*
G37*
G36*
X210630D02*
X209239D01*
Y126594D01*
X209291Y126333D01*
X209439Y126112D01*
X209660Y125964D01*
X209921Y125912D01*
X210630D01*
Y127303D01*
D02*
G37*
G36*
X205039Y129482D02*
X202835D01*
X202573Y129430D01*
X202352Y129282D01*
X202204Y129060D01*
X202152Y128799D01*
Y126594D01*
X202204Y126333D01*
X202352Y126112D01*
X202573Y125964D01*
X202835Y125912D01*
X205039D01*
X205300Y125964D01*
X205522Y126112D01*
X205670Y126333D01*
X205722Y126594D01*
Y128799D01*
X205670Y129060D01*
X205522Y129282D01*
X205300Y129430D01*
X205039Y129482D01*
D02*
G37*
G36*
X197953D02*
X195748D01*
X195487Y129430D01*
X195265Y129282D01*
X195118Y129060D01*
X195066Y128799D01*
Y126594D01*
X195118Y126333D01*
X195265Y126112D01*
X195487Y125964D01*
X195748Y125912D01*
X197953D01*
X198214Y125964D01*
X198435Y126112D01*
X198583Y126333D01*
X198635Y126594D01*
Y128799D01*
X198583Y129060D01*
X198435Y129282D01*
X198214Y129430D01*
X197953Y129482D01*
D02*
G37*
G36*
X190866D02*
X188661D01*
X188400Y129430D01*
X188179Y129282D01*
X188031Y129060D01*
X187979Y128799D01*
Y126594D01*
X188031Y126333D01*
X188179Y126112D01*
X188400Y125964D01*
X188661Y125912D01*
X190866D01*
X191127Y125964D01*
X191349Y126112D01*
X191497Y126333D01*
X191549Y126594D01*
Y128799D01*
X191497Y129060D01*
X191349Y129282D01*
X191127Y129430D01*
X190866Y129482D01*
D02*
G37*
G36*
X184462Y127303D02*
X183071D01*
Y125912D01*
X183780D01*
X184041Y125964D01*
X184262Y126112D01*
X184410Y126333D01*
X184462Y126594D01*
Y127303D01*
D02*
G37*
G36*
X182283D02*
X180892D01*
Y126594D01*
X180944Y126333D01*
X181092Y126112D01*
X181314Y125964D01*
X181575Y125912D01*
X182283D01*
Y127303D01*
D02*
G37*
G36*
X27953Y132283D02*
X19291D01*
Y127559D01*
X27953D01*
Y128516D01*
X48497D01*
X50760Y126253D01*
Y122933D01*
X50000D01*
Y121283D01*
X47330D01*
X46457Y122156D01*
Y125098D01*
X32283D01*
Y120453D01*
X44754D01*
X45979Y119227D01*
X45979Y119227D01*
X46370Y118966D01*
X46831Y118875D01*
X50000D01*
Y118504D01*
X52953D01*
X55905D01*
Y118996D01*
X54842D01*
X54575Y119496D01*
X54656Y119618D01*
X54748Y120079D01*
X54656Y120540D01*
X54522Y120740D01*
X54331Y121161D01*
Y122933D01*
X53570D01*
Y125406D01*
X54075D01*
Y125394D01*
X56713D01*
Y128228D01*
X56598D01*
Y128779D01*
X56713D01*
Y131614D01*
X54075D01*
Y128779D01*
X54189D01*
Y128228D01*
X54075D01*
Y128216D01*
X52771D01*
X50072Y130915D01*
X49616Y131219D01*
X49079Y131326D01*
X46693D01*
Y131516D01*
X43858D01*
Y131326D01*
X42756D01*
Y131516D01*
X39921D01*
Y131326D01*
X27953D01*
Y132283D01*
D02*
G37*
G36*
X125610Y131339D02*
X122973D01*
Y128504D01*
X123488D01*
Y127480D01*
X123550Y127173D01*
X123724Y126913D01*
X124803Y125833D01*
Y124606D01*
X127165D01*
Y126969D01*
X125938D01*
X125094Y127813D01*
Y128504D01*
X125610D01*
Y131339D01*
D02*
G37*
G36*
X109862D02*
X107224D01*
Y128504D01*
X107740D01*
Y127480D01*
X107802Y127173D01*
X107976Y126913D01*
X109055Y125833D01*
Y124606D01*
X111417D01*
Y126969D01*
X110190D01*
X109346Y127813D01*
Y128504D01*
X109862D01*
Y131339D01*
D02*
G37*
G36*
X94114D02*
X91476D01*
Y128504D01*
X91992D01*
Y127480D01*
X92054Y127173D01*
X92228Y126913D01*
X93307Y125833D01*
Y124606D01*
X95669D01*
Y126969D01*
X94442D01*
X93598Y127813D01*
Y128504D01*
X94114D01*
Y131339D01*
D02*
G37*
G36*
X186221Y125558D02*
X185683Y125452D01*
X185227Y125147D01*
X184923Y124691D01*
X184816Y124153D01*
X184860Y123929D01*
X183326Y122395D01*
X181575D01*
X181314Y122343D01*
X181092Y122195D01*
X180944Y121974D01*
X180892Y121713D01*
Y119508D01*
X180944Y119247D01*
X181092Y119025D01*
X181314Y118877D01*
X181575Y118825D01*
X183780D01*
X184041Y118877D01*
X184262Y119025D01*
X184410Y119247D01*
X184462Y119508D01*
Y121260D01*
X185996Y122793D01*
X186221Y122748D01*
X186758Y122855D01*
X187214Y123160D01*
X187519Y123616D01*
X187625Y124153D01*
X187519Y124691D01*
X187214Y125147D01*
X186758Y125452D01*
X186221Y125558D01*
D02*
G37*
G36*
X128642Y123425D02*
X127854D01*
Y122638D01*
X128642D01*
Y123425D01*
D02*
G37*
G36*
X127067D02*
X126279D01*
Y122638D01*
X127067D01*
Y123425D01*
D02*
G37*
G36*
X112894D02*
X112106D01*
Y122638D01*
X112894D01*
Y123425D01*
D02*
G37*
G36*
X111319D02*
X110531D01*
Y122638D01*
X111319D01*
Y123425D01*
D02*
G37*
G36*
X97146D02*
X96358D01*
Y122638D01*
X97146D01*
Y123425D01*
D02*
G37*
G36*
X95571D02*
X94784D01*
Y122638D01*
X95571D01*
Y123425D01*
D02*
G37*
G36*
X128642Y121850D02*
X127854D01*
Y121063D01*
X128642D01*
Y121850D01*
D02*
G37*
G36*
X127067D02*
X126279D01*
Y121063D01*
X127067D01*
Y121850D01*
D02*
G37*
G36*
X112894Y121850D02*
X112106D01*
Y121063D01*
X112894D01*
Y121850D01*
D02*
G37*
G36*
X111319D02*
X110531D01*
Y121063D01*
X111319D01*
Y121850D01*
D02*
G37*
G36*
X97146Y121850D02*
X96358D01*
Y121063D01*
X97146D01*
Y121850D01*
D02*
G37*
G36*
X95571D02*
X94784D01*
Y121063D01*
X95571D01*
Y121850D01*
D02*
G37*
G36*
X282992Y122395D02*
X282283D01*
Y121004D01*
X283675D01*
Y121713D01*
X283623Y121974D01*
X283475Y122195D01*
X283253Y122343D01*
X282992Y122395D01*
D02*
G37*
G36*
X281496D02*
X280787D01*
X280526Y122343D01*
X280305Y122195D01*
X280157Y121974D01*
X280105Y121713D01*
Y121004D01*
X281496D01*
Y122395D01*
D02*
G37*
G36*
X275905D02*
X275197D01*
Y121004D01*
X276588D01*
Y121713D01*
X276536Y121974D01*
X276388Y122195D01*
X276167Y122343D01*
X275905Y122395D01*
D02*
G37*
G36*
X274409D02*
X273701D01*
X273440Y122343D01*
X273218Y122195D01*
X273070Y121974D01*
X273018Y121713D01*
Y121004D01*
X274409D01*
Y122395D01*
D02*
G37*
G36*
X268819D02*
X268110D01*
Y121004D01*
X269501D01*
Y121713D01*
X269449Y121974D01*
X269301Y122195D01*
X269080Y122343D01*
X268819Y122395D01*
D02*
G37*
G36*
X267323D02*
X266614D01*
X266353Y122343D01*
X266132Y122195D01*
X265984Y121974D01*
X265932Y121713D01*
Y121004D01*
X267323D01*
Y122395D01*
D02*
G37*
G36*
X261732D02*
X261024D01*
Y121004D01*
X262415D01*
Y121713D01*
X262363Y121974D01*
X262215Y122195D01*
X261993Y122343D01*
X261732Y122395D01*
D02*
G37*
G36*
X260236D02*
X259527D01*
X259266Y122343D01*
X259045Y122195D01*
X258897Y121974D01*
X258845Y121713D01*
Y121004D01*
X260236D01*
Y122395D01*
D02*
G37*
G36*
X60098Y135000D02*
X57461D01*
Y132165D01*
X57575D01*
Y131614D01*
X57461D01*
Y128779D01*
X60098D01*
Y129394D01*
X61400D01*
X62189Y128604D01*
Y121691D01*
X61380Y120882D01*
X60620D01*
X60236Y121161D01*
X60236Y121465D01*
Y122933D01*
X59582D01*
Y125394D01*
X60098D01*
Y128228D01*
X57461D01*
Y125394D01*
X57977D01*
Y122933D01*
X57087D01*
Y121465D01*
X57087Y121161D01*
X57087Y120661D01*
X57087Y119193D01*
X57087Y118693D01*
Y118504D01*
X58661D01*
X60236D01*
Y118996D01*
X60620Y119276D01*
X61713D01*
X62020Y119337D01*
X62280Y119511D01*
X63560Y120791D01*
X63734Y121051D01*
X63795Y121358D01*
X63795Y121358D01*
Y128937D01*
X63734Y129244D01*
X63560Y129505D01*
X63560Y129505D01*
X62300Y130764D01*
X62040Y130939D01*
X61732Y131000D01*
X60098D01*
Y131614D01*
X59984D01*
Y132165D01*
X60098D01*
Y135000D01*
D02*
G37*
G36*
X283675Y120217D02*
X282283D01*
Y118825D01*
X282992D01*
X283253Y118877D01*
X283475Y119025D01*
X283623Y119247D01*
X283675Y119508D01*
Y120217D01*
D02*
G37*
G36*
X281496D02*
X280105D01*
Y119508D01*
X280157Y119247D01*
X280305Y119025D01*
X280526Y118877D01*
X280787Y118825D01*
X281496D01*
Y120217D01*
D02*
G37*
G36*
X276588D02*
X275197D01*
Y118825D01*
X275905D01*
X276167Y118877D01*
X276388Y119025D01*
X276536Y119247D01*
X276588Y119508D01*
Y120217D01*
D02*
G37*
G36*
X274409D02*
X273018D01*
Y119508D01*
X273070Y119247D01*
X273218Y119025D01*
X273440Y118877D01*
X273701Y118825D01*
X274409D01*
Y120217D01*
D02*
G37*
G36*
X269501D02*
X268110D01*
Y118825D01*
X268819D01*
X269080Y118877D01*
X269301Y119025D01*
X269449Y119247D01*
X269501Y119508D01*
Y120217D01*
D02*
G37*
G36*
X267323D02*
X265932D01*
Y119508D01*
X265984Y119247D01*
X266132Y119025D01*
X266353Y118877D01*
X266614Y118825D01*
X267323D01*
Y120217D01*
D02*
G37*
G36*
X262415D02*
X261024D01*
Y118825D01*
X261732D01*
X261993Y118877D01*
X262215Y119025D01*
X262363Y119247D01*
X262415Y119508D01*
Y120217D01*
D02*
G37*
G36*
X260236D02*
X258845D01*
Y119508D01*
X258897Y119247D01*
X259045Y119025D01*
X259266Y118877D01*
X259527Y118825D01*
X260236D01*
Y120217D01*
D02*
G37*
G36*
X254646Y122395D02*
X252441D01*
X252180Y122343D01*
X251958Y122195D01*
X251810Y121974D01*
X251759Y121713D01*
Y119508D01*
X251810Y119247D01*
X251958Y119025D01*
X252180Y118877D01*
X252441Y118825D01*
X254646D01*
X254907Y118877D01*
X255128Y119025D01*
X255276Y119247D01*
X255328Y119508D01*
Y121713D01*
X255276Y121974D01*
X255128Y122195D01*
X254907Y122343D01*
X254646Y122395D01*
D02*
G37*
G36*
X247559D02*
X245354D01*
X245093Y122343D01*
X244872Y122195D01*
X244724Y121974D01*
X244672Y121713D01*
Y119508D01*
X244724Y119247D01*
X244872Y119025D01*
X245093Y118877D01*
X245354Y118825D01*
X247559D01*
X247820Y118877D01*
X248042Y119025D01*
X248189Y119247D01*
X248241Y119508D01*
Y121713D01*
X248189Y121974D01*
X248042Y122195D01*
X247820Y122343D01*
X247559Y122395D01*
D02*
G37*
G36*
X240472D02*
X238268D01*
X238006Y122343D01*
X237785Y122195D01*
X237637Y121974D01*
X237585Y121713D01*
Y119508D01*
X237637Y119247D01*
X237785Y119025D01*
X238006Y118877D01*
X238268Y118825D01*
X240472D01*
X240734Y118877D01*
X240955Y119025D01*
X241103Y119247D01*
X241155Y119508D01*
Y121713D01*
X241103Y121974D01*
X240955Y122195D01*
X240734Y122343D01*
X240472Y122395D01*
D02*
G37*
G36*
X233386D02*
X231181D01*
X230920Y122343D01*
X230698Y122195D01*
X230551Y121974D01*
X230499Y121713D01*
Y119508D01*
X230551Y119247D01*
X230698Y119025D01*
X230920Y118877D01*
X231181Y118825D01*
X233386D01*
X233647Y118877D01*
X233868Y119025D01*
X234016Y119247D01*
X234068Y119508D01*
Y121713D01*
X234016Y121974D01*
X233868Y122195D01*
X233647Y122343D01*
X233386Y122395D01*
D02*
G37*
G36*
X226299D02*
X224095D01*
X223833Y122343D01*
X223612Y122195D01*
X223464Y121974D01*
X223412Y121713D01*
Y119508D01*
X223464Y119247D01*
X223612Y119025D01*
X223833Y118877D01*
X224095Y118825D01*
X226299D01*
X226560Y118877D01*
X226782Y119025D01*
X226930Y119247D01*
X226982Y119508D01*
Y121713D01*
X226930Y121974D01*
X226782Y122195D01*
X226560Y122343D01*
X226299Y122395D01*
D02*
G37*
G36*
X219213D02*
X217008D01*
X216747Y122343D01*
X216525Y122195D01*
X216377Y121974D01*
X216325Y121713D01*
Y119508D01*
X216377Y119247D01*
X216525Y119025D01*
X216747Y118877D01*
X217008Y118825D01*
X219213D01*
X219474Y118877D01*
X219695Y119025D01*
X219843Y119247D01*
X219895Y119508D01*
Y121713D01*
X219843Y121974D01*
X219695Y122195D01*
X219474Y122343D01*
X219213Y122395D01*
D02*
G37*
G36*
X212126D02*
X209921D01*
X209660Y122343D01*
X209439Y122195D01*
X209291Y121974D01*
X209239Y121713D01*
Y119508D01*
X209291Y119247D01*
X209439Y119025D01*
X209660Y118877D01*
X209921Y118825D01*
X212126D01*
X212387Y118877D01*
X212609Y119025D01*
X212756Y119247D01*
X212808Y119508D01*
Y121713D01*
X212756Y121974D01*
X212609Y122195D01*
X212387Y122343D01*
X212126Y122395D01*
D02*
G37*
G36*
X205039D02*
X202835D01*
X202573Y122343D01*
X202352Y122195D01*
X202204Y121974D01*
X202152Y121713D01*
Y119508D01*
X202204Y119247D01*
X202352Y119025D01*
X202573Y118877D01*
X202835Y118825D01*
X205039D01*
X205300Y118877D01*
X205522Y119025D01*
X205670Y119247D01*
X205722Y119508D01*
Y121713D01*
X205670Y121974D01*
X205522Y122195D01*
X205300Y122343D01*
X205039Y122395D01*
D02*
G37*
G36*
X197953D02*
X195748D01*
X195487Y122343D01*
X195265Y122195D01*
X195118Y121974D01*
X195066Y121713D01*
Y119508D01*
X195118Y119247D01*
X195265Y119025D01*
X195487Y118877D01*
X195748Y118825D01*
X197953D01*
X198214Y118877D01*
X198435Y119025D01*
X198583Y119247D01*
X198635Y119508D01*
Y121713D01*
X198583Y121974D01*
X198435Y122195D01*
X198214Y122343D01*
X197953Y122395D01*
D02*
G37*
G36*
X190866D02*
X188661D01*
X188400Y122343D01*
X188179Y122195D01*
X188031Y121974D01*
X187979Y121713D01*
Y119508D01*
X188031Y119247D01*
X188179Y119025D01*
X188400Y118877D01*
X188661Y118825D01*
X190866D01*
X191127Y118877D01*
X191349Y119025D01*
X191497Y119247D01*
X191549Y119508D01*
Y121713D01*
X191497Y121974D01*
X191349Y122195D01*
X191127Y122343D01*
X190866Y122395D01*
D02*
G37*
G36*
X128996Y119528D02*
X126358D01*
Y116693D01*
X128996D01*
Y117307D01*
X130297D01*
X130424Y117117D01*
X130880Y116812D01*
X131417Y116705D01*
X131955Y116812D01*
X132411Y117117D01*
X132715Y117573D01*
X132822Y118110D01*
X132715Y118648D01*
X132411Y119104D01*
X131955Y119408D01*
X131417Y119515D01*
X130880Y119408D01*
X130424Y119104D01*
X130297Y118913D01*
X128996D01*
Y119528D01*
D02*
G37*
G36*
X113248D02*
X110610D01*
Y116693D01*
X113248D01*
Y117307D01*
X114549D01*
X114676Y117117D01*
X115132Y116812D01*
X115669Y116705D01*
X116207Y116812D01*
X116663Y117117D01*
X116967Y117573D01*
X117074Y118110D01*
X116967Y118648D01*
X116663Y119104D01*
X116207Y119408D01*
X115669Y119515D01*
X115132Y119408D01*
X114676Y119104D01*
X114549Y118913D01*
X113248D01*
Y119528D01*
D02*
G37*
G36*
X97500D02*
X94862D01*
Y116693D01*
X97500D01*
Y117307D01*
X98800D01*
X98928Y117117D01*
X99384Y116812D01*
X99921Y116705D01*
X100459Y116812D01*
X100915Y117117D01*
X101219Y117573D01*
X101326Y118110D01*
X101219Y118648D01*
X100915Y119104D01*
X100459Y119408D01*
X99921Y119515D01*
X99384Y119408D01*
X98928Y119104D01*
X98800Y118913D01*
X97500D01*
Y119528D01*
D02*
G37*
G36*
X125689Y123425D02*
X123327D01*
Y121063D01*
X123597D01*
Y119528D01*
X122973D01*
Y116693D01*
X125610D01*
Y119528D01*
X125202D01*
Y121063D01*
X125689D01*
Y123425D01*
D02*
G37*
G36*
X60236Y117717D02*
X58661D01*
X57087D01*
Y117224D01*
X57087Y116724D01*
Y116535D01*
X58661D01*
X60236D01*
Y117028D01*
X60236Y117528D01*
Y117717D01*
D02*
G37*
G36*
X113248Y115591D02*
X112323D01*
Y114567D01*
X113248D01*
Y115591D01*
D02*
G37*
G36*
X111535D02*
X110610D01*
Y114567D01*
X111535D01*
Y115591D01*
D02*
G37*
G36*
X97500D02*
X96575D01*
Y114567D01*
X97500D01*
Y115591D01*
D02*
G37*
G36*
X95787D02*
X94862D01*
Y114567D01*
X95787D01*
Y115591D01*
D02*
G37*
G36*
X144744D02*
X143819D01*
Y114567D01*
X144744D01*
Y115591D01*
D02*
G37*
G36*
X143032D02*
X142106D01*
Y114567D01*
X143032D01*
Y115591D01*
D02*
G37*
G36*
X174646Y114842D02*
X173622D01*
Y113917D01*
X174646D01*
Y114842D01*
D02*
G37*
G36*
X172835D02*
X171811D01*
Y113917D01*
X172835D01*
Y114842D01*
D02*
G37*
G36*
X282992Y115308D02*
X282283D01*
Y113917D01*
X283675D01*
Y114626D01*
X283623Y114887D01*
X283475Y115109D01*
X283253Y115256D01*
X282992Y115308D01*
D02*
G37*
G36*
X281496D02*
X280787D01*
X280526Y115256D01*
X280305Y115109D01*
X280157Y114887D01*
X280105Y114626D01*
Y113917D01*
X281496D01*
Y115308D01*
D02*
G37*
G36*
X275905D02*
X275197D01*
Y113917D01*
X276588D01*
Y114626D01*
X276536Y114887D01*
X276388Y115109D01*
X276167Y115256D01*
X275905Y115308D01*
D02*
G37*
G36*
X274409D02*
X273701D01*
X273440Y115256D01*
X273218Y115109D01*
X273070Y114887D01*
X273018Y114626D01*
Y113917D01*
X274409D01*
Y115308D01*
D02*
G37*
G36*
X268819D02*
X268110D01*
Y113917D01*
X269501D01*
Y114626D01*
X269449Y114887D01*
X269301Y115109D01*
X269080Y115256D01*
X268819Y115308D01*
D02*
G37*
G36*
X267323D02*
X266614D01*
X266353Y115256D01*
X266132Y115109D01*
X265984Y114887D01*
X265932Y114626D01*
Y113917D01*
X267323D01*
Y115308D01*
D02*
G37*
G36*
X261732D02*
X261024D01*
Y113917D01*
X262415D01*
Y114626D01*
X262363Y114887D01*
X262215Y115109D01*
X261993Y115256D01*
X261732Y115308D01*
D02*
G37*
G36*
X260236D02*
X259527D01*
X259266Y115256D01*
X259045Y115109D01*
X258897Y114887D01*
X258845Y114626D01*
Y113917D01*
X260236D01*
Y115308D01*
D02*
G37*
G36*
X183780D02*
X183071D01*
Y113917D01*
X184462D01*
Y114626D01*
X184410Y114887D01*
X184262Y115109D01*
X184041Y115256D01*
X183780Y115308D01*
D02*
G37*
G36*
X182283D02*
X181575D01*
X181314Y115256D01*
X181092Y115109D01*
X180944Y114887D01*
X180892Y114626D01*
Y113917D01*
X182283D01*
Y115308D01*
D02*
G37*
G36*
X55905Y117717D02*
X52953D01*
X50000D01*
Y117346D01*
X46831D01*
X46370Y117254D01*
X45979Y116993D01*
X45979Y116993D01*
X44754Y115768D01*
X32283D01*
Y111122D01*
X46457D01*
Y114065D01*
X47330Y114937D01*
X50000D01*
Y113287D01*
X50760D01*
Y109747D01*
X48717Y107704D01*
X27953D01*
Y108661D01*
X19291D01*
Y103937D01*
X27953D01*
Y104894D01*
X39921D01*
Y104705D01*
X42756D01*
Y104894D01*
X43858D01*
Y104705D01*
X46693D01*
Y104894D01*
X49299D01*
X49837Y105001D01*
X50293Y105306D01*
X53159Y108172D01*
X53463Y108628D01*
X53570Y109165D01*
Y113287D01*
X54331D01*
Y113370D01*
X57087D01*
Y113287D01*
X60236D01*
Y114756D01*
X60236Y115059D01*
X60236Y115559D01*
Y115748D01*
X58661D01*
X57087D01*
Y115256D01*
X56703Y114976D01*
X54756D01*
X54519Y115475D01*
X54522Y115480D01*
X54656Y115681D01*
X54748Y116142D01*
X54656Y116603D01*
X54575Y116724D01*
X54842Y117224D01*
X55905D01*
Y117717D01*
D02*
G37*
G36*
X299764Y113965D02*
X298839D01*
Y112941D01*
X299764D01*
Y113965D01*
D02*
G37*
G36*
X298051D02*
X297126D01*
Y112941D01*
X298051D01*
Y113965D01*
D02*
G37*
G36*
X311535D02*
X310610D01*
Y112941D01*
X311535D01*
Y113965D01*
D02*
G37*
G36*
X309823D02*
X308898D01*
Y112941D01*
X309823D01*
Y113965D01*
D02*
G37*
G36*
X144744Y113779D02*
X143819D01*
Y112756D01*
X144744D01*
Y113779D01*
D02*
G37*
G36*
X143032D02*
X142106D01*
Y112756D01*
X143032D01*
Y113779D01*
D02*
G37*
G36*
X113248Y113779D02*
X112323D01*
Y112756D01*
X113248D01*
Y113779D01*
D02*
G37*
G36*
X111535D02*
X110610D01*
Y112756D01*
X111535D01*
Y113779D01*
D02*
G37*
G36*
X97500Y113779D02*
X96575D01*
Y112756D01*
X97500D01*
Y113779D01*
D02*
G37*
G36*
X95787D02*
X94862D01*
Y112756D01*
X95787D01*
Y113779D01*
D02*
G37*
G36*
X174646Y113130D02*
X173622D01*
Y112205D01*
X174646D01*
Y113130D01*
D02*
G37*
G36*
X172835D02*
X171811D01*
Y112205D01*
X172835D01*
Y113130D01*
D02*
G37*
G36*
X283675Y113130D02*
X282283D01*
Y111739D01*
X282992D01*
X283253Y111791D01*
X283475Y111939D01*
X283623Y112160D01*
X283675Y112421D01*
Y113130D01*
D02*
G37*
G36*
X281496D02*
X280105D01*
Y112421D01*
X280157Y112160D01*
X280305Y111939D01*
X280526Y111791D01*
X280787Y111739D01*
X281496D01*
Y113130D01*
D02*
G37*
G36*
X276588D02*
X275197D01*
Y111739D01*
X275905D01*
X276167Y111791D01*
X276388Y111939D01*
X276536Y112160D01*
X276588Y112421D01*
Y113130D01*
D02*
G37*
G36*
X274409D02*
X273018D01*
Y112421D01*
X273070Y112160D01*
X273218Y111939D01*
X273440Y111791D01*
X273701Y111739D01*
X274409D01*
Y113130D01*
D02*
G37*
G36*
X269501D02*
X268110D01*
Y111739D01*
X268819D01*
X269080Y111791D01*
X269301Y111939D01*
X269449Y112160D01*
X269501Y112421D01*
Y113130D01*
D02*
G37*
G36*
X267323D02*
X265932D01*
Y112421D01*
X265984Y112160D01*
X266132Y111939D01*
X266353Y111791D01*
X266614Y111739D01*
X267323D01*
Y113130D01*
D02*
G37*
G36*
X262415D02*
X261024D01*
Y111739D01*
X261732D01*
X261993Y111791D01*
X262215Y111939D01*
X262363Y112160D01*
X262415Y112421D01*
Y113130D01*
D02*
G37*
G36*
X260236D02*
X258845D01*
Y112421D01*
X258897Y112160D01*
X259045Y111939D01*
X259266Y111791D01*
X259527Y111739D01*
X260236D01*
Y113130D01*
D02*
G37*
G36*
X174646Y118228D02*
X171811D01*
Y115591D01*
X174646D01*
Y116107D01*
X202324D01*
X202658Y115736D01*
X202589Y115345D01*
X202522Y115222D01*
X202352Y115109D01*
X202204Y114887D01*
X202152Y114626D01*
Y112421D01*
X202204Y112160D01*
X202352Y111939D01*
X202573Y111791D01*
X202835Y111739D01*
X205039D01*
X205300Y111791D01*
X205522Y111939D01*
X205670Y112160D01*
X205722Y112421D01*
Y114626D01*
X205670Y114887D01*
X205522Y115109D01*
X205300Y115256D01*
X205064Y115303D01*
X204740Y115650D01*
X204679Y115957D01*
X204505Y116217D01*
X203245Y117477D01*
X202984Y117651D01*
X202677Y117712D01*
X174646D01*
Y118228D01*
D02*
G37*
G36*
X197953Y115308D02*
X195748D01*
X195487Y115256D01*
X195265Y115109D01*
X195118Y114887D01*
X195066Y114626D01*
Y112421D01*
X195118Y112160D01*
X195265Y111939D01*
X195487Y111791D01*
X195748Y111739D01*
X197953D01*
X198214Y111791D01*
X198435Y111939D01*
X198583Y112160D01*
X198635Y112421D01*
Y114626D01*
X198583Y114887D01*
X198435Y115109D01*
X198214Y115256D01*
X197953Y115308D01*
D02*
G37*
G36*
X190866D02*
X188661D01*
X188400Y115256D01*
X188179Y115109D01*
X188031Y114887D01*
X187979Y114626D01*
Y112421D01*
X188031Y112160D01*
X188179Y111939D01*
X188400Y111791D01*
X188661Y111739D01*
X190866D01*
X191127Y111791D01*
X191349Y111939D01*
X191497Y112160D01*
X191549Y112421D01*
Y114626D01*
X191497Y114887D01*
X191349Y115109D01*
X191127Y115256D01*
X190866Y115308D01*
D02*
G37*
G36*
X184462Y113130D02*
X183071D01*
Y111739D01*
X183780D01*
X184041Y111791D01*
X184262Y111939D01*
X184410Y112160D01*
X184462Y112421D01*
Y113130D01*
D02*
G37*
G36*
X182283D02*
X180892D01*
Y112421D01*
X180944Y112160D01*
X181092Y111939D01*
X181314Y111791D01*
X181575Y111739D01*
X182283D01*
Y113130D01*
D02*
G37*
G36*
X311535Y112153D02*
X310610D01*
Y111130D01*
X311535D01*
Y112153D01*
D02*
G37*
G36*
X309823D02*
X308898D01*
Y111130D01*
X309823D01*
Y112153D01*
D02*
G37*
G36*
X299764Y112153D02*
X298839D01*
Y111130D01*
X299764D01*
Y112153D01*
D02*
G37*
G36*
X298051D02*
X297126D01*
Y111130D01*
X298051D01*
Y112153D01*
D02*
G37*
G36*
X97500Y111653D02*
X96575D01*
Y110630D01*
X97500D01*
Y111653D01*
D02*
G37*
G36*
X95787D02*
X94862D01*
Y110630D01*
X95787D01*
Y111653D01*
D02*
G37*
G36*
X113248D02*
X112323D01*
Y110630D01*
X113248D01*
Y111653D01*
D02*
G37*
G36*
X111535D02*
X110610D01*
Y110630D01*
X111535D01*
Y111653D01*
D02*
G37*
G36*
X299764Y110028D02*
X298839D01*
Y109004D01*
X299764D01*
Y110028D01*
D02*
G37*
G36*
X298051D02*
X297126D01*
Y109004D01*
X298051D01*
Y110028D01*
D02*
G37*
G36*
X311535D02*
X310610D01*
Y109004D01*
X311535D01*
Y110028D01*
D02*
G37*
G36*
X309823D02*
X308898D01*
Y109004D01*
X309823D01*
Y110028D01*
D02*
G37*
G36*
X144744Y111653D02*
X142106D01*
Y108819D01*
X144744D01*
Y109433D01*
X146045D01*
X146172Y109243D01*
X146628Y108938D01*
X147165Y108831D01*
X147703Y108938D01*
X148159Y109243D01*
X148463Y109699D01*
X148570Y110236D01*
X148463Y110774D01*
X148159Y111230D01*
X147703Y111534D01*
X147165Y111641D01*
X146628Y111534D01*
X146172Y111230D01*
X146045Y111039D01*
X144744D01*
Y111653D01*
D02*
G37*
G36*
X141437Y123425D02*
X139075D01*
Y121063D01*
X139345D01*
Y119528D01*
X138721D01*
Y116693D01*
X139236D01*
Y115591D01*
X138721D01*
Y112756D01*
X139236D01*
Y111653D01*
X138721D01*
Y108819D01*
X141358D01*
Y111653D01*
X140842D01*
Y112756D01*
X141358D01*
Y115591D01*
X140842D01*
Y116693D01*
X141358D01*
Y119528D01*
X140951D01*
Y121063D01*
X141437D01*
Y123425D01*
D02*
G37*
G36*
X113248Y109843D02*
X112323D01*
Y108819D01*
X113248D01*
Y109843D01*
D02*
G37*
G36*
X111535D02*
X110610D01*
Y108819D01*
X111535D01*
Y109843D01*
D02*
G37*
G36*
X109941Y123425D02*
X107579D01*
Y121063D01*
X107849D01*
Y119528D01*
X107224D01*
Y116693D01*
X107740D01*
Y115591D01*
X107224D01*
Y112756D01*
X107740D01*
Y111653D01*
X107224D01*
Y108819D01*
X109862D01*
Y111653D01*
X109346D01*
Y112756D01*
X109862D01*
Y115591D01*
X109346D01*
Y116693D01*
X109862D01*
Y119528D01*
X109454D01*
Y121063D01*
X109941D01*
Y123425D01*
D02*
G37*
G36*
X97500Y109843D02*
X96575D01*
Y108819D01*
X97500D01*
Y109843D01*
D02*
G37*
G36*
X95787D02*
X94862D01*
Y108819D01*
X95787D01*
Y109843D01*
D02*
G37*
G36*
X94193Y123425D02*
X91831D01*
Y121063D01*
X92101D01*
Y119528D01*
X91476D01*
Y116693D01*
X91992D01*
Y115591D01*
X91476D01*
Y112756D01*
X91992D01*
Y111653D01*
X91476D01*
Y108819D01*
X94114D01*
Y111653D01*
X93598D01*
Y112756D01*
X94114D01*
Y115591D01*
X93598D01*
Y116693D01*
X94114D01*
Y119528D01*
X93706D01*
Y121063D01*
X94193D01*
Y123425D01*
D02*
G37*
G36*
X186811Y110755D02*
X186273Y110648D01*
X185818Y110344D01*
X185513Y109888D01*
X185406Y109350D01*
X185451Y109125D01*
X184339Y108014D01*
X184262Y108022D01*
X184041Y108170D01*
X183780Y108222D01*
X181575D01*
X181314Y108170D01*
X181092Y108022D01*
X180944Y107800D01*
X180892Y107539D01*
Y105335D01*
X180944Y105073D01*
X181092Y104852D01*
X181314Y104704D01*
X181575Y104652D01*
X183780D01*
X184041Y104704D01*
X184262Y104852D01*
X184410Y105073D01*
X184462Y105335D01*
Y105866D01*
X186586Y107990D01*
X186811Y107945D01*
X187349Y108052D01*
X187804Y108357D01*
X188109Y108813D01*
X188216Y109350D01*
X188109Y109888D01*
X187804Y110344D01*
X187349Y110648D01*
X186811Y110755D01*
D02*
G37*
G36*
X311535Y108217D02*
X310610D01*
Y107193D01*
X311535D01*
Y108217D01*
D02*
G37*
G36*
X309823D02*
X308898D01*
Y107193D01*
X309823D01*
Y108217D01*
D02*
G37*
G36*
X299764Y108217D02*
X298839D01*
Y107193D01*
X299764D01*
Y108217D01*
D02*
G37*
G36*
X298051D02*
X297126D01*
Y107193D01*
X298051D01*
Y108217D01*
D02*
G37*
G36*
X282992Y108222D02*
X282283D01*
Y106831D01*
X283675D01*
Y107539D01*
X283623Y107800D01*
X283475Y108022D01*
X283253Y108170D01*
X282992Y108222D01*
D02*
G37*
G36*
X281496D02*
X280787D01*
X280526Y108170D01*
X280305Y108022D01*
X280157Y107800D01*
X280105Y107539D01*
Y106831D01*
X281496D01*
Y108222D01*
D02*
G37*
G36*
X275905D02*
X275197D01*
Y106831D01*
X276588D01*
Y107539D01*
X276536Y107800D01*
X276388Y108022D01*
X276167Y108170D01*
X275905Y108222D01*
D02*
G37*
G36*
X274409D02*
X273701D01*
X273440Y108170D01*
X273218Y108022D01*
X273070Y107800D01*
X273018Y107539D01*
Y106831D01*
X274409D01*
Y108222D01*
D02*
G37*
G36*
X268819D02*
X268110D01*
Y106831D01*
X269501D01*
Y107539D01*
X269449Y107800D01*
X269301Y108022D01*
X269080Y108170D01*
X268819Y108222D01*
D02*
G37*
G36*
X267323D02*
X266614D01*
X266353Y108170D01*
X266132Y108022D01*
X265984Y107800D01*
X265932Y107539D01*
Y106831D01*
X267323D01*
Y108222D01*
D02*
G37*
G36*
X8268Y108661D02*
X4331D01*
Y106693D01*
X8268D01*
Y108661D01*
D02*
G37*
G36*
X3543D02*
X-394D01*
Y106693D01*
X3543D01*
Y108661D01*
D02*
G37*
G36*
X296949Y106642D02*
X295374D01*
Y105067D01*
X296949D01*
Y106642D01*
D02*
G37*
G36*
X294587D02*
X293012D01*
Y105067D01*
X294587D01*
Y106642D01*
D02*
G37*
G36*
X315650D02*
X314075D01*
Y105067D01*
X315650D01*
Y106642D01*
D02*
G37*
G36*
X313287D02*
X311713D01*
Y105067D01*
X313287D01*
Y106642D01*
D02*
G37*
G36*
X283675Y106043D02*
X282283D01*
Y104652D01*
X282992D01*
X283253Y104704D01*
X283475Y104852D01*
X283623Y105073D01*
X283675Y105335D01*
Y106043D01*
D02*
G37*
G36*
X281496D02*
X280105D01*
Y105335D01*
X280157Y105073D01*
X280305Y104852D01*
X280526Y104704D01*
X280787Y104652D01*
X281496D01*
Y106043D01*
D02*
G37*
G36*
X276588D02*
X275197D01*
Y104652D01*
X275905D01*
X276167Y104704D01*
X276388Y104852D01*
X276536Y105073D01*
X276588Y105335D01*
Y106043D01*
D02*
G37*
G36*
X274409D02*
X273018D01*
Y105335D01*
X273070Y105073D01*
X273218Y104852D01*
X273440Y104704D01*
X273701Y104652D01*
X274409D01*
Y106043D01*
D02*
G37*
G36*
X269501D02*
X268110D01*
Y104652D01*
X268819D01*
X269080Y104704D01*
X269301Y104852D01*
X269449Y105073D01*
X269501Y105335D01*
Y106043D01*
D02*
G37*
G36*
X267323D02*
X265932D01*
Y105335D01*
X265984Y105073D01*
X266132Y104852D01*
X266353Y104704D01*
X266614Y104652D01*
X267323D01*
Y106043D01*
D02*
G37*
G36*
X197953Y108222D02*
X195748D01*
X195487Y108170D01*
X195265Y108022D01*
X195118Y107800D01*
X195066Y107539D01*
Y105335D01*
X195118Y105073D01*
X195265Y104852D01*
X195487Y104704D01*
X195748Y104652D01*
X197953D01*
X198214Y104704D01*
X198435Y104852D01*
X198583Y105073D01*
X198635Y105335D01*
Y107539D01*
X198583Y107800D01*
X198435Y108022D01*
X198214Y108170D01*
X197953Y108222D01*
D02*
G37*
G36*
X190866D02*
X188661D01*
X188400Y108170D01*
X188179Y108022D01*
X188031Y107800D01*
X187979Y107539D01*
Y105335D01*
X188031Y105073D01*
X188179Y104852D01*
X188400Y104704D01*
X188661Y104652D01*
X190866D01*
X191127Y104704D01*
X191349Y104852D01*
X191497Y105073D01*
X191549Y105335D01*
Y107539D01*
X191497Y107800D01*
X191349Y108022D01*
X191127Y108170D01*
X190866Y108222D01*
D02*
G37*
G36*
X8268Y105905D02*
X4331D01*
Y103937D01*
X8268D01*
Y105905D01*
D02*
G37*
G36*
X3543D02*
X-394D01*
Y103937D01*
X3543D01*
Y105905D01*
D02*
G37*
G36*
X42756Y103957D02*
X41732D01*
Y103032D01*
X42756D01*
Y103957D01*
D02*
G37*
G36*
X46693D02*
X45669D01*
Y103032D01*
X46693D01*
Y103957D01*
D02*
G37*
G36*
X44882D02*
X43858D01*
Y103032D01*
X44882D01*
Y103957D01*
D02*
G37*
G36*
X40945D02*
X39921D01*
Y103032D01*
X40945D01*
Y103957D01*
D02*
G37*
G36*
X315650Y104279D02*
X314075D01*
Y102705D01*
X315650D01*
Y104279D01*
D02*
G37*
G36*
X313287D02*
X311713D01*
Y102705D01*
X313287D01*
Y104279D01*
D02*
G37*
G36*
X296949Y104279D02*
X295374D01*
Y102705D01*
X296949D01*
Y104279D01*
D02*
G37*
G36*
X294587D02*
X293012D01*
Y102705D01*
X294587D01*
Y104279D01*
D02*
G37*
G36*
X186221Y104299D02*
X185683Y104192D01*
X185227Y103887D01*
X184923Y103431D01*
X184816Y102894D01*
X184860Y102669D01*
X183326Y101135D01*
X181575D01*
X181314Y101083D01*
X181092Y100935D01*
X180944Y100714D01*
X180892Y100453D01*
Y98248D01*
X180944Y97987D01*
X181092Y97765D01*
X181314Y97618D01*
X181575Y97566D01*
X183780D01*
X184041Y97618D01*
X184262Y97765D01*
X184410Y97987D01*
X184462Y98248D01*
Y100000D01*
X185996Y101533D01*
X186221Y101489D01*
X186758Y101596D01*
X187214Y101900D01*
X187519Y102356D01*
X187625Y102894D01*
X187519Y103431D01*
X187214Y103887D01*
X186758Y104192D01*
X186221Y104299D01*
D02*
G37*
G36*
X46693Y102244D02*
X45669D01*
Y101319D01*
X46693D01*
Y102244D01*
D02*
G37*
G36*
X44882D02*
X43858D01*
Y101319D01*
X44882D01*
Y102244D01*
D02*
G37*
G36*
X42756D02*
X41732D01*
Y101319D01*
X42756D01*
Y102244D01*
D02*
G37*
G36*
X40945D02*
X39921D01*
Y101319D01*
X40945D01*
Y102244D01*
D02*
G37*
G36*
X282992Y101135D02*
X282283D01*
Y99744D01*
X283675D01*
Y100453D01*
X283623Y100714D01*
X283475Y100935D01*
X283253Y101083D01*
X282992Y101135D01*
D02*
G37*
G36*
X281496D02*
X280787D01*
X280526Y101083D01*
X280305Y100935D01*
X280157Y100714D01*
X280105Y100453D01*
Y99744D01*
X281496D01*
Y101135D01*
D02*
G37*
G36*
X275905D02*
X275197D01*
Y99744D01*
X276588D01*
Y100453D01*
X276536Y100714D01*
X276388Y100935D01*
X276167Y101083D01*
X275905Y101135D01*
D02*
G37*
G36*
X274409D02*
X273701D01*
X273440Y101083D01*
X273218Y100935D01*
X273070Y100714D01*
X273018Y100453D01*
Y99744D01*
X274409D01*
Y101135D01*
D02*
G37*
G36*
X268819D02*
X268110D01*
Y99744D01*
X269501D01*
Y100453D01*
X269449Y100714D01*
X269301Y100935D01*
X269080Y101083D01*
X268819Y101135D01*
D02*
G37*
G36*
X267323D02*
X266614D01*
X266353Y101083D01*
X266132Y100935D01*
X265984Y100714D01*
X265932Y100453D01*
Y99744D01*
X267323D01*
Y101135D01*
D02*
G37*
G36*
X109862Y99843D02*
X108937D01*
Y98819D01*
X109862D01*
Y99843D01*
D02*
G37*
G36*
X108150D02*
X107224D01*
Y98819D01*
X108150D01*
Y99843D01*
D02*
G37*
G36*
X125610D02*
X124685D01*
Y98819D01*
X125610D01*
Y99843D01*
D02*
G37*
G36*
X94114D02*
X93189D01*
Y98819D01*
X94114D01*
Y99843D01*
D02*
G37*
G36*
X123898D02*
X122973D01*
Y98819D01*
X123898D01*
Y99843D01*
D02*
G37*
G36*
X92402D02*
X91476D01*
Y98819D01*
X92402D01*
Y99843D01*
D02*
G37*
G36*
X283675Y98957D02*
X282283D01*
Y97566D01*
X282992D01*
X283253Y97618D01*
X283475Y97765D01*
X283623Y97987D01*
X283675Y98248D01*
Y98957D01*
D02*
G37*
G36*
X281496D02*
X280105D01*
Y98248D01*
X280157Y97987D01*
X280305Y97765D01*
X280526Y97618D01*
X280787Y97566D01*
X281496D01*
Y98957D01*
D02*
G37*
G36*
X276588D02*
X275197D01*
Y97566D01*
X275905D01*
X276167Y97618D01*
X276388Y97765D01*
X276536Y97987D01*
X276588Y98248D01*
Y98957D01*
D02*
G37*
G36*
X274409D02*
X273018D01*
Y98248D01*
X273070Y97987D01*
X273218Y97765D01*
X273440Y97618D01*
X273701Y97566D01*
X274409D01*
Y98957D01*
D02*
G37*
G36*
X269501D02*
X268110D01*
Y97566D01*
X268819D01*
X269080Y97618D01*
X269301Y97765D01*
X269449Y97987D01*
X269501Y98248D01*
Y98957D01*
D02*
G37*
G36*
X267323D02*
X265932D01*
Y98248D01*
X265984Y97987D01*
X266132Y97765D01*
X266353Y97618D01*
X266614Y97566D01*
X267323D01*
Y98957D01*
D02*
G37*
G36*
X197953Y101135D02*
X195748D01*
X195487Y101083D01*
X195265Y100935D01*
X195118Y100714D01*
X195066Y100453D01*
Y98248D01*
X195118Y97987D01*
X195265Y97765D01*
X195487Y97618D01*
X195748Y97566D01*
X197953D01*
X198214Y97618D01*
X198435Y97765D01*
X198583Y97987D01*
X198635Y98248D01*
Y100453D01*
X198583Y100714D01*
X198435Y100935D01*
X198214Y101083D01*
X197953Y101135D01*
D02*
G37*
G36*
X190866D02*
X188661D01*
X188400Y101083D01*
X188179Y100935D01*
X188031Y100714D01*
X187979Y100453D01*
Y98248D01*
X188031Y97987D01*
X188179Y97765D01*
X188400Y97618D01*
X188661Y97566D01*
X190866D01*
X191127Y97618D01*
X191349Y97765D01*
X191497Y97987D01*
X191549Y98248D01*
Y100453D01*
X191497Y100714D01*
X191349Y100935D01*
X191127Y101083D01*
X190866Y101135D01*
D02*
G37*
G36*
X125610Y98032D02*
X124685D01*
Y97008D01*
X125610D01*
Y98032D01*
D02*
G37*
G36*
X123898D02*
X122973D01*
Y97008D01*
X123898D01*
Y98032D01*
D02*
G37*
G36*
X109862Y98032D02*
X108937D01*
Y97008D01*
X109862D01*
Y98032D01*
D02*
G37*
G36*
X108150D02*
X107224D01*
Y97008D01*
X108150D01*
Y98032D01*
D02*
G37*
G36*
X94114Y98032D02*
X93189D01*
Y97008D01*
X94114D01*
Y98032D01*
D02*
G37*
G36*
X92402D02*
X91476D01*
Y97008D01*
X92402D01*
Y98032D01*
D02*
G37*
G36*
X309449Y95667D02*
X305512D01*
Y94903D01*
X303150D01*
Y95667D01*
X299213D01*
Y91730D01*
X299977D01*
Y87917D01*
X299862D01*
Y87704D01*
X297917D01*
Y87819D01*
X295083D01*
Y85181D01*
X297917D01*
Y85296D01*
X299862D01*
Y85083D01*
X299977D01*
Y83413D01*
X299803D01*
Y79476D01*
X302559D01*
Y83413D01*
X302385D01*
Y85083D01*
X302500D01*
Y87917D01*
X302385D01*
Y91730D01*
X303150D01*
Y92495D01*
X305512D01*
Y91730D01*
X309449D01*
Y95667D01*
D02*
G37*
G36*
X125610Y95906D02*
X124685D01*
Y94882D01*
X125610D01*
Y95906D01*
D02*
G37*
G36*
X94114D02*
X93189D01*
Y94882D01*
X94114D01*
Y95906D01*
D02*
G37*
G36*
X92402D02*
X91476D01*
Y94882D01*
X92402D01*
Y95906D01*
D02*
G37*
G36*
X123898D02*
X122973D01*
Y94882D01*
X123898D01*
Y95906D01*
D02*
G37*
G36*
X109862D02*
X108937D01*
Y94882D01*
X109862D01*
Y95906D01*
D02*
G37*
G36*
X144882Y101405D02*
X144344Y101298D01*
X143888Y100993D01*
X143584Y100538D01*
X143477Y100000D01*
X143584Y99462D01*
X143888Y99007D01*
X144079Y98879D01*
Y97638D01*
X142913D01*
Y94882D01*
X146850D01*
Y97638D01*
X145685D01*
Y98879D01*
X145875Y99007D01*
X146180Y99462D01*
X146287Y100000D01*
X146180Y100538D01*
X145875Y100993D01*
X145420Y101298D01*
X144882Y101405D01*
D02*
G37*
G36*
X138583D02*
X138045Y101298D01*
X137589Y100993D01*
X137285Y100538D01*
X137178Y100000D01*
X137285Y99462D01*
X137589Y99007D01*
X137780Y98879D01*
Y97638D01*
X136614D01*
Y94882D01*
X140551D01*
Y97638D01*
X139385D01*
Y98879D01*
X139576Y99007D01*
X139881Y99462D01*
X139988Y100000D01*
X139881Y100538D01*
X139576Y100993D01*
X139120Y101298D01*
X138583Y101405D01*
D02*
G37*
G36*
X108150Y95906D02*
X107224D01*
Y94882D01*
X108150D01*
Y95906D01*
D02*
G37*
G36*
X186221Y97212D02*
X185683Y97105D01*
X185227Y96801D01*
X184923Y96345D01*
X184816Y95807D01*
X184860Y95582D01*
X183326Y94049D01*
X181575D01*
X181314Y93997D01*
X181092Y93849D01*
X180944Y93627D01*
X180892Y93366D01*
Y91161D01*
X180944Y90900D01*
X181092Y90679D01*
X181314Y90531D01*
X181575Y90479D01*
X183780D01*
X184041Y90531D01*
X184262Y90679D01*
X184410Y90900D01*
X184462Y91161D01*
Y92913D01*
X185996Y94447D01*
X186221Y94402D01*
X186758Y94509D01*
X187214Y94814D01*
X187519Y95269D01*
X187625Y95807D01*
X187519Y96345D01*
X187214Y96801D01*
X186758Y97105D01*
X186221Y97212D01*
D02*
G37*
G36*
X125610Y94095D02*
X124685D01*
Y93071D01*
X125610D01*
Y94095D01*
D02*
G37*
G36*
X123898D02*
X122973D01*
Y93071D01*
X123898D01*
Y94095D01*
D02*
G37*
G36*
X109862Y94095D02*
X108937D01*
Y93071D01*
X109862D01*
Y94095D01*
D02*
G37*
G36*
X108150D02*
X107224D01*
Y93071D01*
X108150D01*
Y94095D01*
D02*
G37*
G36*
X94114Y94095D02*
X93189D01*
Y93071D01*
X94114D01*
Y94095D01*
D02*
G37*
G36*
X92402D02*
X91476D01*
Y93071D01*
X92402D01*
Y94095D01*
D02*
G37*
G36*
X94193Y91535D02*
X93405D01*
Y90748D01*
X94193D01*
Y91535D01*
D02*
G37*
G36*
X92618D02*
X91831D01*
Y90748D01*
X92618D01*
Y91535D01*
D02*
G37*
G36*
X109941D02*
X109153D01*
Y90748D01*
X109941D01*
Y91535D01*
D02*
G37*
G36*
X108366D02*
X107579D01*
Y90748D01*
X108366D01*
Y91535D01*
D02*
G37*
G36*
X125689D02*
X124902D01*
Y90748D01*
X125689D01*
Y91535D01*
D02*
G37*
G36*
X124114D02*
X123327D01*
Y90748D01*
X124114D01*
Y91535D01*
D02*
G37*
G36*
X282992Y94049D02*
X280787D01*
X280526Y93997D01*
X280305Y93849D01*
X280157Y93627D01*
X280105Y93366D01*
Y91161D01*
X280157Y90900D01*
X280305Y90679D01*
X280526Y90531D01*
X280787Y90479D01*
X282992D01*
X283253Y90531D01*
X283475Y90679D01*
X283623Y90900D01*
X283675Y91161D01*
Y93366D01*
X283623Y93627D01*
X283475Y93849D01*
X283253Y93997D01*
X282992Y94049D01*
D02*
G37*
G36*
X275905D02*
X273701D01*
X273440Y93997D01*
X273218Y93849D01*
X273070Y93627D01*
X273018Y93366D01*
Y91161D01*
X273070Y90900D01*
X273218Y90679D01*
X273440Y90531D01*
X273701Y90479D01*
X275905D01*
X276167Y90531D01*
X276388Y90679D01*
X276536Y90900D01*
X276588Y91161D01*
Y93366D01*
X276536Y93627D01*
X276388Y93849D01*
X276167Y93997D01*
X275905Y94049D01*
D02*
G37*
G36*
X268819D02*
X266614D01*
X266353Y93997D01*
X266132Y93849D01*
X265984Y93627D01*
X265932Y93366D01*
Y91161D01*
X265984Y90900D01*
X266132Y90679D01*
X266353Y90531D01*
X266614Y90479D01*
X268819D01*
X269080Y90531D01*
X269301Y90679D01*
X269449Y90900D01*
X269501Y91161D01*
Y93366D01*
X269449Y93627D01*
X269301Y93849D01*
X269080Y93997D01*
X268819Y94049D01*
D02*
G37*
G36*
X197953D02*
X195748D01*
X195487Y93997D01*
X195265Y93849D01*
X195118Y93627D01*
X195066Y93366D01*
Y91161D01*
X195118Y90900D01*
X195265Y90679D01*
X195487Y90531D01*
X195748Y90479D01*
X197953D01*
X198214Y90531D01*
X198435Y90679D01*
X198583Y90900D01*
X198635Y91161D01*
Y93366D01*
X198583Y93627D01*
X198435Y93849D01*
X198214Y93997D01*
X197953Y94049D01*
D02*
G37*
G36*
X190866D02*
X188661D01*
X188400Y93997D01*
X188179Y93849D01*
X188031Y93627D01*
X187979Y93366D01*
Y91161D01*
X188031Y90900D01*
X188179Y90679D01*
X188400Y90531D01*
X188661Y90479D01*
X190866D01*
X191127Y90531D01*
X191349Y90679D01*
X191497Y90900D01*
X191549Y91161D01*
Y93366D01*
X191497Y93627D01*
X191349Y93849D01*
X191127Y93997D01*
X190866Y94049D01*
D02*
G37*
G36*
X125689Y89961D02*
X124902D01*
Y89173D01*
X125689D01*
Y89961D01*
D02*
G37*
G36*
X124114D02*
X123327D01*
Y89173D01*
X124114D01*
Y89961D01*
D02*
G37*
G36*
X109941Y89961D02*
X109153D01*
Y89173D01*
X109941D01*
Y89961D01*
D02*
G37*
G36*
X108366D02*
X107579D01*
Y89173D01*
X108366D01*
Y89961D01*
D02*
G37*
G36*
X94193Y89961D02*
X93405D01*
Y89173D01*
X94193D01*
Y89961D01*
D02*
G37*
G36*
X92618D02*
X91831D01*
Y89173D01*
X92618D01*
Y89961D01*
D02*
G37*
G36*
X128996Y99843D02*
X126358D01*
Y97008D01*
X126874D01*
Y95906D01*
X126358D01*
Y93071D01*
X126766D01*
Y91535D01*
X126279D01*
Y89173D01*
X128642D01*
Y89660D01*
X130188D01*
X130316Y89469D01*
X130771Y89165D01*
X131309Y89058D01*
X131847Y89165D01*
X132302Y89469D01*
X132607Y89925D01*
X132714Y90463D01*
X132607Y91000D01*
X132302Y91456D01*
X131847Y91761D01*
X131309Y91868D01*
X130771Y91761D01*
X130316Y91456D01*
X130188Y91265D01*
X128642D01*
Y91535D01*
X128372D01*
Y93071D01*
X128996D01*
Y95906D01*
X128480D01*
Y97008D01*
X128996D01*
Y99843D01*
D02*
G37*
G36*
X113248D02*
X110610D01*
Y97008D01*
X111126D01*
Y95906D01*
X110610D01*
Y93071D01*
X111018D01*
Y91535D01*
X110531D01*
Y89173D01*
X112894D01*
Y89660D01*
X114440D01*
X114568Y89469D01*
X115023Y89165D01*
X115561Y89058D01*
X116099Y89165D01*
X116554Y89469D01*
X116859Y89925D01*
X116966Y90463D01*
X116859Y91000D01*
X116554Y91456D01*
X116099Y91761D01*
X115561Y91868D01*
X115023Y91761D01*
X114568Y91456D01*
X114440Y91265D01*
X112894D01*
Y91535D01*
X112624D01*
Y93071D01*
X113248D01*
Y95906D01*
X112732D01*
Y97008D01*
X113248D01*
Y99843D01*
D02*
G37*
G36*
X97500D02*
X94862D01*
Y97008D01*
X95378D01*
Y95906D01*
X94862D01*
Y93071D01*
X95270D01*
Y91535D01*
X94784D01*
Y89173D01*
X97146D01*
Y89552D01*
X98584D01*
X98711Y89361D01*
X99167Y89056D01*
X99705Y88949D01*
X100242Y89056D01*
X100698Y89361D01*
X101003Y89817D01*
X101110Y90354D01*
X101003Y90892D01*
X100698Y91348D01*
X100242Y91652D01*
X99705Y91759D01*
X99167Y91652D01*
X98711Y91348D01*
X98584Y91157D01*
X97146D01*
Y91535D01*
X96876D01*
Y93071D01*
X97500D01*
Y95906D01*
X96984D01*
Y97008D01*
X97500D01*
Y99843D01*
D02*
G37*
G36*
X146850Y94095D02*
X142913D01*
Y91339D01*
X144079D01*
Y90097D01*
X143888Y89970D01*
X143584Y89514D01*
X143477Y88976D01*
X143584Y88439D01*
X143888Y87983D01*
X144344Y87678D01*
X144882Y87571D01*
X145420Y87678D01*
X145875Y87983D01*
X146180Y88439D01*
X146287Y88976D01*
X146180Y89514D01*
X145875Y89970D01*
X145685Y90097D01*
Y91339D01*
X146850D01*
Y94095D01*
D02*
G37*
G36*
X140551D02*
X136614D01*
Y91339D01*
X137780D01*
Y90097D01*
X137589Y89970D01*
X137285Y89514D01*
X137178Y88976D01*
X137285Y88439D01*
X137589Y87983D01*
X138045Y87678D01*
X138583Y87571D01*
X139120Y87678D01*
X139576Y87983D01*
X139881Y88439D01*
X139988Y88976D01*
X139881Y89514D01*
X139576Y89970D01*
X139385Y90097D01*
Y91339D01*
X140551D01*
Y94095D01*
D02*
G37*
G36*
X282992Y86962D02*
X282283D01*
Y85571D01*
X283675D01*
Y86279D01*
X283623Y86541D01*
X283475Y86762D01*
X283253Y86910D01*
X282992Y86962D01*
D02*
G37*
G36*
X281496D02*
X280787D01*
X280526Y86910D01*
X280305Y86762D01*
X280157Y86541D01*
X280105Y86279D01*
Y85571D01*
X281496D01*
Y86962D01*
D02*
G37*
G36*
X275905D02*
X275197D01*
Y85571D01*
X276588D01*
Y86279D01*
X276536Y86541D01*
X276388Y86762D01*
X276167Y86910D01*
X275905Y86962D01*
D02*
G37*
G36*
X274409D02*
X273701D01*
X273440Y86910D01*
X273218Y86762D01*
X273070Y86541D01*
X273018Y86279D01*
Y85571D01*
X274409D01*
Y86962D01*
D02*
G37*
G36*
X2953Y83885D02*
X2415Y83778D01*
X2275Y83685D01*
X1417D01*
Y83799D01*
X-1417D01*
Y81161D01*
X1417D01*
Y81276D01*
X2275D01*
X2415Y81182D01*
X2953Y81075D01*
X3490Y81182D01*
X3631Y81276D01*
X4724D01*
Y81102D01*
X8661D01*
Y81276D01*
X9898D01*
X10115Y81059D01*
Y76421D01*
X9898Y76204D01*
X8661D01*
Y76378D01*
X4724D01*
Y73622D01*
X8661D01*
Y73796D01*
X10396D01*
X10396Y73796D01*
X10857Y73887D01*
X11248Y74148D01*
X12170Y75071D01*
X12170Y75071D01*
X12432Y75462D01*
X12523Y75923D01*
Y81558D01*
X12432Y82019D01*
X12170Y82409D01*
X12170Y82409D01*
X11248Y83332D01*
X10857Y83593D01*
X10396Y83685D01*
X10396Y83685D01*
X8661D01*
Y83858D01*
X4724D01*
Y83685D01*
X3631D01*
X3490Y83778D01*
X2953Y83885D01*
D02*
G37*
G36*
X297917Y84433D02*
X296894D01*
Y83508D01*
X297917D01*
Y84433D01*
D02*
G37*
G36*
X296106D02*
X295083D01*
Y83508D01*
X296106D01*
Y84433D01*
D02*
G37*
G36*
X283675Y84783D02*
X282283D01*
Y83392D01*
X282992D01*
X283253Y83444D01*
X283475Y83592D01*
X283623Y83814D01*
X283675Y84075D01*
Y84783D01*
D02*
G37*
G36*
X281496D02*
X280105D01*
Y84075D01*
X280157Y83814D01*
X280305Y83592D01*
X280526Y83444D01*
X280787Y83392D01*
X281496D01*
Y84783D01*
D02*
G37*
G36*
X276588D02*
X275197D01*
Y83392D01*
X275905D01*
X276167Y83444D01*
X276388Y83592D01*
X276536Y83814D01*
X276588Y84075D01*
Y84783D01*
D02*
G37*
G36*
X274409D02*
X273018D01*
Y84075D01*
X273070Y83814D01*
X273218Y83592D01*
X273440Y83444D01*
X273701Y83392D01*
X274409D01*
Y84783D01*
D02*
G37*
G36*
X268819Y86962D02*
X266614D01*
X266353Y86910D01*
X266132Y86762D01*
X265984Y86541D01*
X265932Y86279D01*
Y84075D01*
X265984Y83814D01*
X266132Y83592D01*
X266353Y83444D01*
X266614Y83392D01*
X268819D01*
X269080Y83444D01*
X269301Y83592D01*
X269449Y83814D01*
X269501Y84075D01*
Y86279D01*
X269449Y86541D01*
X269301Y86762D01*
X269080Y86910D01*
X268819Y86962D01*
D02*
G37*
G36*
X190866D02*
X188661D01*
X188400Y86910D01*
X188179Y86762D01*
X188031Y86541D01*
X187979Y86279D01*
Y84075D01*
X188031Y83814D01*
X188179Y83592D01*
X188400Y83444D01*
X188661Y83392D01*
X190866D01*
X191127Y83444D01*
X191349Y83592D01*
X191497Y83814D01*
X191549Y84075D01*
Y86279D01*
X191497Y86541D01*
X191349Y86762D01*
X191127Y86910D01*
X190866Y86962D01*
D02*
G37*
G36*
X183780D02*
X181575D01*
X181314Y86910D01*
X181092Y86762D01*
X180944Y86541D01*
X180892Y86279D01*
Y84075D01*
X180944Y83814D01*
X181092Y83592D01*
X181314Y83444D01*
X181575Y83392D01*
X183780D01*
X184041Y83444D01*
X184262Y83592D01*
X184410Y83814D01*
X184462Y84075D01*
Y86279D01*
X184410Y86541D01*
X184262Y86762D01*
X184041Y86910D01*
X183780Y86962D01*
D02*
G37*
G36*
X142981Y85055D02*
X142674Y84994D01*
X142413Y84820D01*
X142413Y84820D01*
X141263Y83669D01*
X141089Y83409D01*
X141051Y83219D01*
X140551Y83268D01*
Y83858D01*
X136614D01*
X136614Y83858D01*
Y83858D01*
X136114Y83812D01*
X135945Y83846D01*
X135740Y83805D01*
X135276Y83720D01*
X135276Y83720D01*
X135276Y83720D01*
X132441D01*
Y81083D01*
X135276D01*
X135276Y81083D01*
X135771Y81071D01*
X135945Y81036D01*
X136127Y81072D01*
X136614Y81102D01*
X136614Y81102D01*
X136614Y81102D01*
X140528D01*
X140551Y81102D01*
X141028Y81046D01*
Y80371D01*
X140551Y80315D01*
Y80315D01*
X136614D01*
Y77559D01*
X140551D01*
Y78134D01*
X141369D01*
X141677Y78195D01*
X141937Y78369D01*
X142398Y78831D01*
X142398Y78831D01*
X142413Y78853D01*
X142913Y78701D01*
Y77559D01*
X144079D01*
Y76019D01*
X142682Y74622D01*
X126612D01*
X125094Y76140D01*
Y77323D01*
X125610D01*
Y80158D01*
X122973D01*
Y77323D01*
X123488D01*
Y75807D01*
X123550Y75500D01*
X123724Y75239D01*
X125060Y73903D01*
X124869Y73441D01*
X111651D01*
X109346Y75746D01*
Y77323D01*
X109862D01*
Y80158D01*
X107224D01*
Y77323D01*
X107740D01*
Y75413D01*
X107802Y75106D01*
X107976Y74846D01*
X110100Y72721D01*
X109908Y72259D01*
X96888D01*
X93598Y75549D01*
Y77323D01*
X94114D01*
Y80158D01*
X91476D01*
Y77323D01*
X91992D01*
Y75217D01*
X92054Y74909D01*
X92228Y74649D01*
X95987Y70889D01*
X95987Y70889D01*
X96248Y70715D01*
X96555Y70654D01*
X143993D01*
X144300Y70715D01*
X144561Y70889D01*
X149583Y75912D01*
X149583Y75912D01*
X149758Y76172D01*
X149819Y76479D01*
Y82508D01*
X149819Y82508D01*
X149758Y82815D01*
X149583Y83076D01*
X149583Y83076D01*
X147840Y84820D01*
X147579Y84994D01*
X147272Y85055D01*
X142981D01*
X142981Y85055D01*
D02*
G37*
G36*
X109862Y84095D02*
X108937D01*
Y83071D01*
X109862D01*
Y84095D01*
D02*
G37*
G36*
X108150D02*
X107224D01*
Y83071D01*
X108150D01*
Y84095D01*
D02*
G37*
G36*
X69941D02*
X69016D01*
Y83071D01*
X69941D01*
Y84095D01*
D02*
G37*
G36*
X125610D02*
X124685D01*
Y83071D01*
X125610D01*
Y84095D01*
D02*
G37*
G36*
X94114D02*
X93189D01*
Y83071D01*
X94114D01*
Y84095D01*
D02*
G37*
G36*
X42933D02*
X42008D01*
Y83071D01*
X42933D01*
Y84095D01*
D02*
G37*
G36*
X123898D02*
X122973D01*
Y83071D01*
X123898D01*
Y84095D01*
D02*
G37*
G36*
X41221D02*
X40295D01*
Y83071D01*
X41221D01*
Y84095D01*
D02*
G37*
G36*
X92402D02*
X91476D01*
Y83071D01*
X92402D01*
Y84095D01*
D02*
G37*
G36*
X197953Y86962D02*
X195748D01*
X195487Y86910D01*
X195265Y86762D01*
X195118Y86541D01*
X195066Y86279D01*
Y84528D01*
X193532Y82994D01*
X193307Y83039D01*
X192769Y82932D01*
X192314Y82627D01*
X192009Y82171D01*
X191902Y81634D01*
X192009Y81096D01*
X192314Y80640D01*
X192769Y80336D01*
X193307Y80229D01*
X193845Y80336D01*
X194300Y80640D01*
X194605Y81096D01*
X194712Y81634D01*
X194667Y81859D01*
X196201Y83392D01*
X197953D01*
X198214Y83444D01*
X198435Y83592D01*
X198583Y83814D01*
X198635Y84075D01*
Y86279D01*
X198583Y86541D01*
X198435Y86762D01*
X198214Y86910D01*
X197953Y86962D01*
D02*
G37*
G36*
X68228Y84095D02*
X67303D01*
Y82484D01*
X66817Y82268D01*
X66555Y82476D01*
Y84095D01*
X63917D01*
Y83783D01*
X63020D01*
X62880Y83877D01*
X62343Y83984D01*
X61902Y83896D01*
X61417Y83858D01*
X61417Y83858D01*
X61417Y83858D01*
X57480D01*
Y81102D01*
X61417D01*
X61417Y81102D01*
X61917Y81258D01*
X62343Y81174D01*
X62880Y81281D01*
X63020Y81375D01*
X63917D01*
Y81260D01*
X65420D01*
X66060Y80619D01*
X65869Y80158D01*
X63917D01*
Y79543D01*
X61417D01*
Y80118D01*
X57480D01*
Y77362D01*
X61417D01*
Y77937D01*
X63917D01*
Y77323D01*
X66555D01*
Y79231D01*
X67055Y79463D01*
X67288Y79280D01*
Y79272D01*
X67303Y79194D01*
Y77323D01*
X69941D01*
Y80158D01*
X68748D01*
X68658Y80292D01*
X68152Y80798D01*
X68228Y80981D01*
Y82677D01*
Y84095D01*
D02*
G37*
G36*
X297917Y82721D02*
X296894D01*
Y81795D01*
X297917D01*
Y82721D01*
D02*
G37*
G36*
X296106D02*
X295083D01*
Y81795D01*
X296106D01*
Y82721D01*
D02*
G37*
G36*
X125610Y82284D02*
X124685D01*
Y81260D01*
X125610D01*
Y82284D01*
D02*
G37*
G36*
X123898D02*
X122973D01*
Y81260D01*
X123898D01*
Y82284D01*
D02*
G37*
G36*
X109862Y82284D02*
X108937D01*
Y81260D01*
X109862D01*
Y82284D01*
D02*
G37*
G36*
X108150D02*
X107224D01*
Y81260D01*
X108150D01*
Y82284D01*
D02*
G37*
G36*
X94114Y82284D02*
X93189D01*
Y81260D01*
X94114D01*
Y82284D01*
D02*
G37*
G36*
X92402D02*
X91476D01*
Y81260D01*
X92402D01*
Y82284D01*
D02*
G37*
G36*
X69941D02*
X69016D01*
Y81260D01*
X69941D01*
Y82284D01*
D02*
G37*
G36*
X42933D02*
X42008D01*
Y81260D01*
X42933D01*
Y82284D01*
D02*
G37*
G36*
X41221D02*
X40295D01*
Y81260D01*
X41221D01*
Y82284D01*
D02*
G37*
G36*
X46319Y84095D02*
X43681D01*
Y81260D01*
X46319D01*
Y81375D01*
X47216D01*
X47356Y81281D01*
X47894Y81174D01*
X48319Y81258D01*
X48819Y81102D01*
Y81102D01*
X52756D01*
Y83858D01*
X48819D01*
X48819Y83858D01*
X48335Y83896D01*
X47894Y83984D01*
X47356Y83877D01*
X47216Y83783D01*
X46319D01*
Y84095D01*
D02*
G37*
G36*
X18898Y83858D02*
X14961D01*
Y81102D01*
X18898D01*
Y81276D01*
X21654D01*
Y79872D01*
X25591D01*
Y80636D01*
X26142D01*
Y80522D01*
X28976D01*
Y80636D01*
X30079D01*
Y80522D01*
X32913D01*
Y80636D01*
X33574D01*
X33714Y80543D01*
X34252Y80436D01*
X34790Y80543D01*
X35245Y80847D01*
X35550Y81303D01*
X35657Y81840D01*
X35550Y82378D01*
X35245Y82834D01*
X34790Y83139D01*
X34252Y83245D01*
X33714Y83139D01*
X33574Y83045D01*
X32913D01*
Y83159D01*
X30079D01*
Y83045D01*
X28976D01*
Y83159D01*
X26142D01*
Y83045D01*
X25591D01*
Y83809D01*
X21654D01*
Y83685D01*
X18898D01*
Y83858D01*
D02*
G37*
G36*
X1417Y80413D02*
X394D01*
Y79488D01*
X1417D01*
Y80413D01*
D02*
G37*
G36*
X-394D02*
X-1417D01*
Y79488D01*
X-394D01*
Y80413D01*
D02*
G37*
G36*
X310039Y83413D02*
X307283D01*
Y79476D01*
X310039D01*
Y83413D01*
D02*
G37*
G36*
X305886Y87917D02*
X303248D01*
Y85083D01*
X303941D01*
Y83413D01*
X303543D01*
Y79476D01*
X306299D01*
Y83413D01*
X305547D01*
Y85083D01*
X305886D01*
Y87917D01*
D02*
G37*
G36*
X135276Y80335D02*
X134252D01*
Y79409D01*
X135276D01*
Y80335D01*
D02*
G37*
G36*
X133465D02*
X132441D01*
Y79409D01*
X133465D01*
Y80335D01*
D02*
G37*
G36*
X42933Y80158D02*
X42008D01*
Y79134D01*
X42933D01*
Y80158D01*
D02*
G37*
G36*
X52756Y80118D02*
X51181D01*
Y79134D01*
X52756D01*
Y80118D01*
D02*
G37*
G36*
X50394D02*
X48819D01*
Y79134D01*
X50394D01*
Y80118D01*
D02*
G37*
G36*
X8661D02*
X7087D01*
Y79134D01*
X8661D01*
Y80118D01*
D02*
G37*
G36*
X6299D02*
X4724D01*
Y79134D01*
X6299D01*
Y80118D01*
D02*
G37*
G36*
X41221Y80158D02*
X40295D01*
Y79134D01*
X41221D01*
Y80158D01*
D02*
G37*
G36*
X32913Y79774D02*
X31890D01*
Y78848D01*
X32913D01*
Y79774D01*
D02*
G37*
G36*
X31102D02*
X30079D01*
Y78848D01*
X31102D01*
Y79774D01*
D02*
G37*
G36*
X28976D02*
X27953D01*
Y78848D01*
X28976D01*
Y79774D01*
D02*
G37*
G36*
X27165D02*
X26142D01*
Y78848D01*
X27165D01*
Y79774D01*
D02*
G37*
G36*
X275905Y79875D02*
X275197D01*
Y78484D01*
X276588D01*
Y79193D01*
X276536Y79454D01*
X276388Y79675D01*
X276167Y79823D01*
X275905Y79875D01*
D02*
G37*
G36*
X274409D02*
X273701D01*
X273440Y79823D01*
X273218Y79675D01*
X273070Y79454D01*
X273018Y79193D01*
Y78484D01*
X274409D01*
Y79875D01*
D02*
G37*
G36*
X1417Y78701D02*
X394D01*
Y77776D01*
X1417D01*
Y78701D01*
D02*
G37*
G36*
X-394D02*
X-1417D01*
Y77776D01*
X-394D01*
Y78701D01*
D02*
G37*
G36*
X135276Y78622D02*
X134252D01*
Y77697D01*
X135276D01*
Y78622D01*
D02*
G37*
G36*
X133465D02*
X132441D01*
Y77697D01*
X133465D01*
Y78622D01*
D02*
G37*
G36*
X52756Y78347D02*
X51181D01*
Y77362D01*
X52756D01*
Y78347D01*
D02*
G37*
G36*
X50394D02*
X48819D01*
Y77362D01*
X50394D01*
Y78347D01*
D02*
G37*
G36*
X8661D02*
X7087D01*
Y77362D01*
X8661D01*
Y78347D01*
D02*
G37*
G36*
X6299D02*
X4724D01*
Y77362D01*
X6299D01*
Y78347D01*
D02*
G37*
G36*
X127165Y87992D02*
X124803D01*
Y85630D01*
X126030D01*
X126874Y84786D01*
Y84095D01*
X126358D01*
Y81260D01*
X126874D01*
Y80158D01*
X126358D01*
Y77323D01*
X128996D01*
Y80158D01*
X128480D01*
Y81260D01*
X128996D01*
Y84095D01*
X128480D01*
Y85118D01*
X128480Y85118D01*
X128419Y85425D01*
X128245Y85686D01*
X128245Y85686D01*
X127165Y86765D01*
Y87992D01*
D02*
G37*
G36*
X111417D02*
X109055D01*
Y85630D01*
X110282D01*
X111126Y84786D01*
Y84095D01*
X110610D01*
Y81260D01*
X111126D01*
Y80158D01*
X110610D01*
Y77323D01*
X113248D01*
Y80158D01*
X112732D01*
Y81260D01*
X113248D01*
Y84095D01*
X112732D01*
Y85118D01*
X112732Y85118D01*
X112671Y85425D01*
X112497Y85686D01*
X112497Y85686D01*
X111417Y86765D01*
Y87992D01*
D02*
G37*
G36*
X95669D02*
X93307D01*
Y85630D01*
X94534D01*
X95378Y84786D01*
Y84095D01*
X94862D01*
Y81260D01*
X95378D01*
Y80158D01*
X94862D01*
Y77323D01*
X97500D01*
Y80158D01*
X96984D01*
Y81260D01*
X97500D01*
Y84095D01*
X96984D01*
Y85118D01*
X96984Y85118D01*
X96923Y85425D01*
X96749Y85686D01*
X96749Y85686D01*
X95669Y86765D01*
Y87992D01*
D02*
G37*
G36*
X42933Y78347D02*
X42008D01*
Y77323D01*
X42933D01*
Y78347D01*
D02*
G37*
G36*
X41221D02*
X40295D01*
Y77323D01*
X41221D01*
Y78347D01*
D02*
G37*
G36*
X32913Y78061D02*
X31890D01*
Y77136D01*
X32913D01*
Y78061D01*
D02*
G37*
G36*
X31102D02*
X30079D01*
Y77136D01*
X31102D01*
Y78061D01*
D02*
G37*
G36*
X28976Y78061D02*
X27953D01*
Y77136D01*
X28976D01*
Y78061D01*
D02*
G37*
G36*
X27165D02*
X26142D01*
Y77136D01*
X27165D01*
Y78061D01*
D02*
G37*
G36*
X282992Y79875D02*
X280787D01*
X280526Y79823D01*
X280305Y79675D01*
X280157Y79454D01*
X280105Y79193D01*
Y76988D01*
X280157Y76727D01*
X280305Y76506D01*
X280526Y76358D01*
X280787Y76306D01*
X282992D01*
X283253Y76358D01*
X283475Y76506D01*
X283623Y76727D01*
X283675Y76988D01*
Y79193D01*
X283623Y79454D01*
X283475Y79675D01*
X283253Y79823D01*
X282992Y79875D01*
D02*
G37*
G36*
X276588Y77697D02*
X275197D01*
Y76306D01*
X275905D01*
X276167Y76358D01*
X276388Y76506D01*
X276536Y76727D01*
X276588Y76988D01*
Y77697D01*
D02*
G37*
G36*
X274409D02*
X273018D01*
Y76988D01*
X273070Y76727D01*
X273218Y76506D01*
X273440Y76358D01*
X273701Y76306D01*
X274409D01*
Y77697D01*
D02*
G37*
G36*
X268819Y79875D02*
X266614D01*
X266353Y79823D01*
X266132Y79675D01*
X265984Y79454D01*
X265932Y79193D01*
Y76988D01*
X265984Y76727D01*
X266132Y76506D01*
X266353Y76358D01*
X266614Y76306D01*
X268819D01*
X269080Y76358D01*
X269301Y76506D01*
X269449Y76727D01*
X269501Y76988D01*
Y79193D01*
X269449Y79454D01*
X269301Y79675D01*
X269080Y79823D01*
X268819Y79875D01*
D02*
G37*
G36*
X197953D02*
X195748D01*
X195487Y79823D01*
X195265Y79675D01*
X195118Y79454D01*
X195066Y79193D01*
Y76988D01*
X195118Y76727D01*
X195265Y76506D01*
X195487Y76358D01*
X195748Y76306D01*
X197953D01*
X198214Y76358D01*
X198435Y76506D01*
X198583Y76727D01*
X198635Y76988D01*
Y79193D01*
X198583Y79454D01*
X198435Y79675D01*
X198214Y79823D01*
X197953Y79875D01*
D02*
G37*
G36*
X190866D02*
X188661D01*
X188400Y79823D01*
X188179Y79675D01*
X188031Y79454D01*
X187979Y79193D01*
Y76988D01*
X188031Y76727D01*
X188179Y76506D01*
X188400Y76358D01*
X188661Y76306D01*
X190866D01*
X191127Y76358D01*
X191349Y76506D01*
X191497Y76727D01*
X191549Y76988D01*
Y79193D01*
X191497Y79454D01*
X191349Y79675D01*
X191127Y79823D01*
X190866Y79875D01*
D02*
G37*
G36*
X183780D02*
X181575D01*
X181314Y79823D01*
X181092Y79675D01*
X180944Y79454D01*
X180892Y79193D01*
Y76988D01*
X180944Y76727D01*
X181092Y76506D01*
X181314Y76358D01*
X181575Y76306D01*
X183780D01*
X184041Y76358D01*
X184262Y76506D01*
X184410Y76727D01*
X184462Y76988D01*
Y79193D01*
X184410Y79454D01*
X184262Y79675D01*
X184041Y79823D01*
X183780Y79875D01*
D02*
G37*
G36*
X25591Y77608D02*
X24016D01*
Y76034D01*
X25591D01*
Y77608D01*
D02*
G37*
G36*
X23228D02*
X21654D01*
Y76034D01*
X23228D01*
Y77608D01*
D02*
G37*
G36*
X42933Y76221D02*
X42008D01*
Y75197D01*
X42933D01*
Y76221D01*
D02*
G37*
G36*
X41221D02*
X40295D01*
Y75197D01*
X41221D01*
Y76221D01*
D02*
G37*
G36*
X25591Y75246D02*
X24016D01*
Y73671D01*
X25591D01*
Y75246D01*
D02*
G37*
G36*
X23228D02*
X21654D01*
Y73671D01*
X23228D01*
Y75246D01*
D02*
G37*
G36*
X61417Y76378D02*
X57480D01*
Y73622D01*
X61417D01*
Y76378D01*
D02*
G37*
G36*
X18898D02*
X14961D01*
Y73622D01*
X18898D01*
Y76378D01*
D02*
G37*
G36*
X46319Y80158D02*
X43681D01*
Y77323D01*
X44197D01*
Y76221D01*
X43681D01*
Y73386D01*
X46319D01*
Y74013D01*
X46819Y74030D01*
X46900Y73908D01*
X47356Y73604D01*
X47894Y73497D01*
X48335Y73584D01*
X48819Y73622D01*
X48819Y73622D01*
X48819Y73622D01*
X52756D01*
Y76378D01*
X48819D01*
X48819Y76378D01*
X48319Y76222D01*
X47894Y76306D01*
X47356Y76200D01*
X46900Y75895D01*
X46819Y75773D01*
X46319Y75790D01*
Y76221D01*
X45803D01*
Y77323D01*
X46319D01*
Y80158D01*
D02*
G37*
G36*
X42933Y74410D02*
X42008D01*
Y73386D01*
X42933D01*
Y74410D01*
D02*
G37*
G36*
X41221D02*
X40295D01*
Y73386D01*
X41221D01*
Y74410D01*
D02*
G37*
G36*
X306299Y74752D02*
X305315D01*
Y73177D01*
X306299D01*
Y74752D01*
D02*
G37*
G36*
X304528D02*
X303543D01*
Y73177D01*
X304528D01*
Y74752D01*
D02*
G37*
G36*
X282992Y72789D02*
X282283D01*
Y71398D01*
X283675D01*
Y72106D01*
X283623Y72367D01*
X283475Y72589D01*
X283253Y72737D01*
X282992Y72789D01*
D02*
G37*
G36*
X281496D02*
X280787D01*
X280526Y72737D01*
X280305Y72589D01*
X280157Y72367D01*
X280105Y72106D01*
Y71398D01*
X281496D01*
Y72789D01*
D02*
G37*
G36*
X275905D02*
X275197D01*
Y71398D01*
X276588D01*
Y72106D01*
X276536Y72367D01*
X276388Y72589D01*
X276167Y72737D01*
X275905Y72789D01*
D02*
G37*
G36*
X274409D02*
X273701D01*
X273440Y72737D01*
X273218Y72589D01*
X273070Y72367D01*
X273018Y72106D01*
Y71398D01*
X274409D01*
Y72789D01*
D02*
G37*
G36*
X306299Y72390D02*
X305315D01*
Y70815D01*
X306299D01*
Y72390D01*
D02*
G37*
G36*
X304528D02*
X303543D01*
Y70815D01*
X304528D01*
Y72390D01*
D02*
G37*
G36*
X283675Y70610D02*
X282283D01*
Y69219D01*
X282992D01*
X283253Y69271D01*
X283475Y69419D01*
X283623Y69640D01*
X283675Y69902D01*
Y70610D01*
D02*
G37*
G36*
X281496D02*
X280105D01*
Y69902D01*
X280157Y69640D01*
X280305Y69419D01*
X280526Y69271D01*
X280787Y69219D01*
X281496D01*
Y70610D01*
D02*
G37*
G36*
X276588D02*
X275197D01*
Y69219D01*
X275905D01*
X276167Y69271D01*
X276388Y69419D01*
X276536Y69640D01*
X276588Y69902D01*
Y70610D01*
D02*
G37*
G36*
X274409D02*
X273018D01*
Y69902D01*
X273070Y69640D01*
X273218Y69419D01*
X273440Y69271D01*
X273701Y69219D01*
X274409D01*
Y70610D01*
D02*
G37*
G36*
X268819Y72789D02*
X266614D01*
X266353Y72737D01*
X266132Y72589D01*
X265984Y72367D01*
X265932Y72106D01*
Y69902D01*
X265984Y69640D01*
X266132Y69419D01*
X266353Y69271D01*
X266614Y69219D01*
X268819D01*
X269080Y69271D01*
X269301Y69419D01*
X269449Y69640D01*
X269501Y69902D01*
Y72106D01*
X269449Y72367D01*
X269301Y72589D01*
X269080Y72737D01*
X268819Y72789D01*
D02*
G37*
G36*
X197953D02*
X195748D01*
X195487Y72737D01*
X195265Y72589D01*
X195118Y72367D01*
X195066Y72106D01*
Y69902D01*
X195118Y69640D01*
X195265Y69419D01*
X195487Y69271D01*
X195748Y69219D01*
X197953D01*
X198214Y69271D01*
X198435Y69419D01*
X198583Y69640D01*
X198635Y69902D01*
Y72106D01*
X198583Y72367D01*
X198435Y72589D01*
X198214Y72737D01*
X197953Y72789D01*
D02*
G37*
G36*
X190866D02*
X188661D01*
X188400Y72737D01*
X188179Y72589D01*
X188031Y72367D01*
X187979Y72106D01*
Y69902D01*
X188031Y69640D01*
X188179Y69419D01*
X188400Y69271D01*
X188661Y69219D01*
X190866D01*
X191127Y69271D01*
X191349Y69419D01*
X191497Y69640D01*
X191549Y69902D01*
Y72106D01*
X191497Y72367D01*
X191349Y72589D01*
X191127Y72737D01*
X190866Y72789D01*
D02*
G37*
G36*
X183780D02*
X181575D01*
X181314Y72737D01*
X181092Y72589D01*
X180944Y72367D01*
X180892Y72106D01*
Y69902D01*
X180944Y69640D01*
X181092Y69419D01*
X181314Y69271D01*
X181575Y69219D01*
X183780D01*
X184041Y69271D01*
X184262Y69419D01*
X184410Y69640D01*
X184462Y69902D01*
Y72106D01*
X184410Y72367D01*
X184262Y72589D01*
X184041Y72737D01*
X183780Y72789D01*
D02*
G37*
G36*
X308661Y77936D02*
X308124Y77829D01*
X307668Y77525D01*
X307363Y77069D01*
X307257Y76531D01*
X307363Y75994D01*
X307668Y75538D01*
X307859Y75411D01*
Y74752D01*
X307283D01*
Y70815D01*
X307859D01*
Y68315D01*
X307244D01*
Y67799D01*
X306339D01*
Y68315D01*
X303504D01*
Y65677D01*
X306339D01*
Y66193D01*
X307244D01*
Y65677D01*
X310079D01*
Y68315D01*
X309464D01*
Y70815D01*
X310039D01*
Y74752D01*
X309464D01*
Y75411D01*
X309655Y75538D01*
X309959Y75994D01*
X310066Y76531D01*
X309959Y77069D01*
X309655Y77525D01*
X309199Y77829D01*
X308661Y77936D01*
D02*
G37*
G36*
X302559Y74752D02*
X299803D01*
Y70815D01*
X299803Y70815D01*
X299861Y70315D01*
X299776Y69890D01*
X299883Y69352D01*
X299977Y69212D01*
Y68315D01*
X299764D01*
Y65677D01*
X302598D01*
Y68315D01*
X302385D01*
Y69212D01*
X302479Y69352D01*
X302586Y69890D01*
X302502Y70315D01*
X302559Y70815D01*
X302559D01*
Y74752D01*
D02*
G37*
G36*
X310079Y64929D02*
X309055D01*
Y64004D01*
X310079D01*
Y64929D01*
D02*
G37*
G36*
X306339D02*
X305315D01*
Y64004D01*
X306339D01*
Y64929D01*
D02*
G37*
G36*
X302598D02*
X301575D01*
Y64004D01*
X302598D01*
Y64929D01*
D02*
G37*
G36*
X300787D02*
X299764D01*
Y64004D01*
X300787D01*
Y64929D01*
D02*
G37*
G36*
X308268D02*
X307244D01*
Y64004D01*
X308268D01*
Y64929D01*
D02*
G37*
G36*
X304528D02*
X303504D01*
Y64004D01*
X304528D01*
Y64929D01*
D02*
G37*
G36*
X282992Y65702D02*
X280787D01*
X280526Y65650D01*
X280305Y65502D01*
X280157Y65281D01*
X280105Y65020D01*
Y62815D01*
X280157Y62554D01*
X280305Y62332D01*
X280526Y62185D01*
X280787Y62133D01*
X282992D01*
X283253Y62185D01*
X283475Y62332D01*
X283623Y62554D01*
X283675Y62815D01*
Y63115D01*
X285493D01*
X285621Y62924D01*
X286076Y62619D01*
X286614Y62512D01*
X287152Y62619D01*
X287608Y62924D01*
X287735Y63115D01*
X289921D01*
Y62598D01*
X292756D01*
Y65236D01*
X289921D01*
Y64720D01*
X287735D01*
X287608Y64911D01*
X287152Y65215D01*
X286614Y65322D01*
X286076Y65215D01*
X285621Y64911D01*
X285493Y64720D01*
X283675D01*
Y65020D01*
X283623Y65281D01*
X283475Y65502D01*
X283253Y65650D01*
X282992Y65702D01*
D02*
G37*
G36*
X310079Y63217D02*
X309055D01*
Y62291D01*
X310079D01*
Y63217D01*
D02*
G37*
G36*
X308268D02*
X307244D01*
Y62291D01*
X308268D01*
Y63217D01*
D02*
G37*
G36*
X306339D02*
X305315D01*
Y62291D01*
X306339D01*
Y63217D01*
D02*
G37*
G36*
X304528D02*
X303504D01*
Y62291D01*
X304528D01*
Y63217D01*
D02*
G37*
G36*
X302598D02*
X301575D01*
Y62291D01*
X302598D01*
Y63217D01*
D02*
G37*
G36*
X300787D02*
X299764D01*
Y62291D01*
X300787D01*
Y63217D01*
D02*
G37*
G36*
X275905Y65702D02*
X273701D01*
X273440Y65650D01*
X273218Y65502D01*
X273070Y65281D01*
X273018Y65020D01*
Y62815D01*
X273070Y62554D01*
X273218Y62332D01*
X273440Y62185D01*
X273701Y62133D01*
X275905D01*
X276167Y62185D01*
X276388Y62332D01*
X276536Y62554D01*
X276588Y62815D01*
Y65020D01*
X276536Y65281D01*
X276388Y65502D01*
X276167Y65650D01*
X275905Y65702D01*
D02*
G37*
G36*
X268819D02*
X266614D01*
X266353Y65650D01*
X266132Y65502D01*
X265984Y65281D01*
X265932Y65020D01*
Y62815D01*
X265984Y62554D01*
X266132Y62332D01*
X266353Y62185D01*
X266614Y62133D01*
X268819D01*
X269080Y62185D01*
X269301Y62332D01*
X269449Y62554D01*
X269501Y62815D01*
Y65020D01*
X269449Y65281D01*
X269301Y65502D01*
X269080Y65650D01*
X268819Y65702D01*
D02*
G37*
G36*
X197953D02*
X195748D01*
X195487Y65650D01*
X195265Y65502D01*
X195118Y65281D01*
X195066Y65020D01*
Y62815D01*
X195118Y62554D01*
X195265Y62332D01*
X195487Y62185D01*
X195748Y62133D01*
X197953D01*
X198214Y62185D01*
X198435Y62332D01*
X198583Y62554D01*
X198635Y62815D01*
Y65020D01*
X198583Y65281D01*
X198435Y65502D01*
X198214Y65650D01*
X197953Y65702D01*
D02*
G37*
G36*
X190866D02*
X188661D01*
X188400Y65650D01*
X188179Y65502D01*
X188031Y65281D01*
X187979Y65020D01*
Y62815D01*
X188031Y62554D01*
X188179Y62332D01*
X188400Y62185D01*
X188661Y62133D01*
X190866D01*
X191127Y62185D01*
X191349Y62332D01*
X191497Y62554D01*
X191549Y62815D01*
Y65020D01*
X191497Y65281D01*
X191349Y65502D01*
X191127Y65650D01*
X190866Y65702D01*
D02*
G37*
G36*
X183780D02*
X181575D01*
X181314Y65650D01*
X181092Y65502D01*
X180944Y65281D01*
X180892Y65020D01*
Y62815D01*
X180944Y62554D01*
X181092Y62332D01*
X181314Y62185D01*
X181575Y62133D01*
X183780D01*
X184041Y62185D01*
X184262Y62332D01*
X184410Y62554D01*
X184462Y62815D01*
Y65020D01*
X184410Y65281D01*
X184262Y65502D01*
X184041Y65650D01*
X183780Y65702D01*
D02*
G37*
G36*
X292756Y61850D02*
X291732D01*
Y60925D01*
X292756D01*
Y61850D01*
D02*
G37*
G36*
X290945D02*
X289921D01*
Y60925D01*
X290945D01*
Y61850D01*
D02*
G37*
G36*
X292756Y60138D02*
X291732D01*
Y59213D01*
X292756D01*
Y60138D01*
D02*
G37*
G36*
X290945D02*
X289921D01*
Y59213D01*
X290945D01*
Y60138D01*
D02*
G37*
G36*
X261732Y58615D02*
X261024D01*
Y57224D01*
X262415D01*
Y57933D01*
X262363Y58194D01*
X262215Y58416D01*
X261993Y58564D01*
X261732Y58615D01*
D02*
G37*
G36*
X260236D02*
X259527D01*
X259266Y58564D01*
X259045Y58416D01*
X258897Y58194D01*
X258845Y57933D01*
Y57224D01*
X260236D01*
Y58615D01*
D02*
G37*
G36*
X101437Y58504D02*
X98799D01*
Y55669D01*
X101437D01*
Y56284D01*
X101911D01*
X102038Y56093D01*
X102494Y55789D01*
X103032Y55682D01*
X103569Y55789D01*
X104025Y56093D01*
X104330Y56549D01*
X104436Y57087D01*
X104330Y57624D01*
X104025Y58080D01*
X103569Y58385D01*
X103032Y58492D01*
X102494Y58385D01*
X102038Y58080D01*
X101911Y57889D01*
X101437D01*
Y58504D01*
D02*
G37*
G36*
X42756Y56161D02*
X41732D01*
Y55236D01*
X42756D01*
Y56161D01*
D02*
G37*
G36*
X56713Y56260D02*
X55787D01*
Y55236D01*
X56713D01*
Y56260D01*
D02*
G37*
G36*
X46693Y56161D02*
X45669D01*
Y55236D01*
X46693D01*
Y56161D01*
D02*
G37*
G36*
X44882D02*
X43858D01*
Y55236D01*
X44882D01*
Y56161D01*
D02*
G37*
G36*
X55000Y56260D02*
X54075D01*
Y55236D01*
X55000D01*
Y56260D01*
D02*
G37*
G36*
X40945Y56161D02*
X39921D01*
Y55236D01*
X40945D01*
Y56161D01*
D02*
G37*
G36*
X275905Y58615D02*
X273701D01*
X273440Y58564D01*
X273218Y58416D01*
X273070Y58194D01*
X273018Y57933D01*
Y55728D01*
X273070Y55467D01*
X273218Y55246D01*
X273440Y55098D01*
X273701Y55046D01*
X275905D01*
X276167Y55098D01*
X276388Y55246D01*
X276536Y55467D01*
X276588Y55728D01*
Y57933D01*
X276536Y58194D01*
X276388Y58416D01*
X276167Y58564D01*
X275905Y58615D01*
D02*
G37*
G36*
X268819D02*
X266614D01*
X266353Y58564D01*
X266132Y58416D01*
X265984Y58194D01*
X265932Y57933D01*
Y55728D01*
X265984Y55467D01*
X266132Y55246D01*
X266353Y55098D01*
X266614Y55046D01*
X268819D01*
X269080Y55098D01*
X269301Y55246D01*
X269449Y55467D01*
X269501Y55728D01*
Y57933D01*
X269449Y58194D01*
X269301Y58416D01*
X269080Y58564D01*
X268819Y58615D01*
D02*
G37*
G36*
X262415Y56437D02*
X261024D01*
Y55046D01*
X261732D01*
X261993Y55098D01*
X262215Y55246D01*
X262363Y55467D01*
X262415Y55728D01*
Y56437D01*
D02*
G37*
G36*
X260236D02*
X258845D01*
Y55728D01*
X258897Y55467D01*
X259045Y55246D01*
X259266Y55098D01*
X259527Y55046D01*
X260236D01*
Y56437D01*
D02*
G37*
G36*
X205039Y58615D02*
X202835D01*
X202573Y58564D01*
X202352Y58416D01*
X202204Y58194D01*
X202152Y57933D01*
Y55728D01*
X202204Y55467D01*
X202352Y55246D01*
X202573Y55098D01*
X202835Y55046D01*
X205039D01*
X205300Y55098D01*
X205522Y55246D01*
X205670Y55467D01*
X205722Y55728D01*
Y57933D01*
X205670Y58194D01*
X205522Y58416D01*
X205300Y58564D01*
X205039Y58615D01*
D02*
G37*
G36*
X197953D02*
X195748D01*
X195487Y58564D01*
X195265Y58416D01*
X195118Y58194D01*
X195066Y57933D01*
Y55728D01*
X195118Y55467D01*
X195265Y55246D01*
X195487Y55098D01*
X195748Y55046D01*
X197953D01*
X198214Y55098D01*
X198435Y55246D01*
X198583Y55467D01*
X198635Y55728D01*
Y57933D01*
X198583Y58194D01*
X198435Y58416D01*
X198214Y58564D01*
X197953Y58615D01*
D02*
G37*
G36*
X190866D02*
X188661D01*
X188400Y58564D01*
X188179Y58416D01*
X188031Y58194D01*
X187979Y57933D01*
Y55728D01*
X188031Y55467D01*
X188179Y55246D01*
X188400Y55098D01*
X188661Y55046D01*
X190866D01*
X191127Y55098D01*
X191349Y55246D01*
X191497Y55467D01*
X191549Y55728D01*
Y57933D01*
X191497Y58194D01*
X191349Y58416D01*
X191127Y58564D01*
X190866Y58615D01*
D02*
G37*
G36*
X183780D02*
X181575D01*
X181314Y58564D01*
X181092Y58416D01*
X180944Y58194D01*
X180892Y57933D01*
Y55728D01*
X180944Y55467D01*
X181092Y55246D01*
X181314Y55098D01*
X181575Y55046D01*
X183780D01*
X184041Y55098D01*
X184262Y55246D01*
X184410Y55467D01*
X184462Y55728D01*
Y57933D01*
X184410Y58194D01*
X184262Y58416D01*
X184041Y58564D01*
X183780Y58615D01*
D02*
G37*
G36*
X46693Y54449D02*
X45669D01*
Y53524D01*
X46693D01*
Y54449D01*
D02*
G37*
G36*
X44882D02*
X43858D01*
Y53524D01*
X44882D01*
Y54449D01*
D02*
G37*
G36*
X42756D02*
X41732D01*
Y53524D01*
X42756D01*
Y54449D01*
D02*
G37*
G36*
X40945D02*
X39921D01*
Y53524D01*
X40945D01*
Y54449D01*
D02*
G37*
G36*
X56713D02*
X55787D01*
Y53425D01*
X56713D01*
Y54449D01*
D02*
G37*
G36*
X55000D02*
X54075D01*
Y53425D01*
X55000D01*
Y54449D01*
D02*
G37*
G36*
X8268Y53543D02*
X4331D01*
Y51575D01*
X8268D01*
Y53543D01*
D02*
G37*
G36*
X3543D02*
X-394D01*
Y51575D01*
X3543D01*
Y53543D01*
D02*
G37*
G36*
X282992Y58615D02*
X280787D01*
X280526Y58564D01*
X280305Y58416D01*
X280157Y58194D01*
X280105Y57933D01*
Y55728D01*
X280157Y55467D01*
X280305Y55246D01*
X280526Y55098D01*
X280787Y55046D01*
X282539D01*
X283362Y54223D01*
X283324Y53554D01*
X282047Y52277D01*
X281873Y52016D01*
X281812Y51709D01*
Y51529D01*
X280787D01*
X280526Y51477D01*
X280305Y51329D01*
X280157Y51108D01*
X280105Y50846D01*
Y48642D01*
X280157Y48381D01*
X280305Y48159D01*
X280526Y48011D01*
X280787Y47959D01*
X282992D01*
X283253Y48011D01*
X283475Y48159D01*
X283623Y48381D01*
X283675Y48642D01*
Y50846D01*
X283623Y51108D01*
X283475Y51329D01*
X283766Y51725D01*
X284486Y52445D01*
X301272D01*
Y52240D01*
X301287Y52163D01*
Y50665D01*
X303650D01*
Y53027D01*
X303309D01*
X303250Y53126D01*
X303533Y53626D01*
X307443D01*
X308063Y53006D01*
Y50665D01*
X310425D01*
Y53027D01*
X310183D01*
X309769Y53239D01*
X309708Y53546D01*
X309534Y53806D01*
X308343Y54997D01*
X308083Y55171D01*
X307776Y55232D01*
X284624D01*
X283675Y56181D01*
Y57933D01*
X283623Y58194D01*
X283475Y58416D01*
X283253Y58564D01*
X282992Y58615D01*
D02*
G37*
G36*
X183780Y51529D02*
X181575D01*
X181314Y51477D01*
X181092Y51329D01*
X180944Y51108D01*
X180892Y50846D01*
Y50547D01*
X180255D01*
X180127Y50738D01*
X179672Y51042D01*
X179134Y51149D01*
X178596Y51042D01*
X178140Y50738D01*
X177836Y50282D01*
X177729Y49744D01*
X177836Y49206D01*
X178140Y48751D01*
X178596Y48446D01*
X179134Y48339D01*
X179672Y48446D01*
X180127Y48751D01*
X180255Y48941D01*
X180892D01*
Y48642D01*
X180944Y48381D01*
X181092Y48159D01*
X181314Y48011D01*
X181575Y47959D01*
X183780D01*
X184041Y48011D01*
X184262Y48159D01*
X184410Y48381D01*
X184462Y48642D01*
Y50846D01*
X184410Y51108D01*
X184262Y51329D01*
X184041Y51477D01*
X183780Y51529D01*
D02*
G37*
G36*
X275905D02*
X275197D01*
Y50138D01*
X276588D01*
Y50846D01*
X276536Y51108D01*
X276388Y51329D01*
X276167Y51477D01*
X275905Y51529D01*
D02*
G37*
G36*
X274409D02*
X273701D01*
X273440Y51477D01*
X273218Y51329D01*
X273070Y51108D01*
X273018Y50846D01*
Y50138D01*
X274409D01*
Y51529D01*
D02*
G37*
G36*
X190866D02*
X190157D01*
Y50138D01*
X191549D01*
Y50846D01*
X191497Y51108D01*
X191349Y51329D01*
X191127Y51477D01*
X190866Y51529D01*
D02*
G37*
G36*
X189370D02*
X188661D01*
X188400Y51477D01*
X188179Y51329D01*
X188031Y51108D01*
X187979Y50846D01*
Y50138D01*
X189370D01*
Y51529D01*
D02*
G37*
G36*
X8268Y50787D02*
X4331D01*
Y48819D01*
X8268D01*
Y50787D01*
D02*
G37*
G36*
X3543D02*
X-394D01*
Y48819D01*
X3543D01*
Y50787D01*
D02*
G37*
G36*
X311902Y49484D02*
X311114D01*
Y48697D01*
X311902D01*
Y49484D01*
D02*
G37*
G36*
X310327D02*
X309539D01*
Y48697D01*
X310327D01*
Y49484D01*
D02*
G37*
G36*
X305126D02*
X304339D01*
Y48697D01*
X305126D01*
Y49484D01*
D02*
G37*
G36*
X303551D02*
X302764D01*
Y48697D01*
X303551D01*
Y49484D01*
D02*
G37*
G36*
X276588Y49350D02*
X275197D01*
Y47959D01*
X275905D01*
X276167Y48011D01*
X276388Y48159D01*
X276536Y48381D01*
X276588Y48642D01*
Y49350D01*
D02*
G37*
G36*
X274409D02*
X273018D01*
Y48642D01*
X273070Y48381D01*
X273218Y48159D01*
X273440Y48011D01*
X273701Y47959D01*
X274409D01*
Y49350D01*
D02*
G37*
G36*
X268819Y51529D02*
X266614D01*
X266353Y51477D01*
X266132Y51329D01*
X265984Y51108D01*
X265932Y50846D01*
Y48642D01*
X265984Y48381D01*
X266132Y48159D01*
X266353Y48011D01*
X266614Y47959D01*
X268819D01*
X269080Y48011D01*
X269301Y48159D01*
X269449Y48381D01*
X269501Y48642D01*
Y50846D01*
X269449Y51108D01*
X269301Y51329D01*
X269080Y51477D01*
X268819Y51529D01*
D02*
G37*
G36*
X261732D02*
X259527D01*
X259266Y51477D01*
X259045Y51329D01*
X258897Y51108D01*
X258845Y50846D01*
Y48642D01*
X258897Y48381D01*
X259045Y48159D01*
X259266Y48011D01*
X259527Y47959D01*
X261732D01*
X261993Y48011D01*
X262215Y48159D01*
X262363Y48381D01*
X262415Y48642D01*
Y50846D01*
X262363Y51108D01*
X262215Y51329D01*
X261993Y51477D01*
X261732Y51529D01*
D02*
G37*
G36*
X254646D02*
X252441D01*
X252180Y51477D01*
X251958Y51329D01*
X251810Y51108D01*
X251759Y50846D01*
Y48642D01*
X251810Y48381D01*
X251958Y48159D01*
X252180Y48011D01*
X252441Y47959D01*
X254646D01*
X254907Y48011D01*
X255128Y48159D01*
X255276Y48381D01*
X255328Y48642D01*
Y50846D01*
X255276Y51108D01*
X255128Y51329D01*
X254907Y51477D01*
X254646Y51529D01*
D02*
G37*
G36*
X247559D02*
X245354D01*
X245093Y51477D01*
X244872Y51329D01*
X244724Y51108D01*
X244672Y50846D01*
Y48642D01*
X244724Y48381D01*
X244872Y48159D01*
X245093Y48011D01*
X245354Y47959D01*
X247559D01*
X247820Y48011D01*
X248042Y48159D01*
X248189Y48381D01*
X248241Y48642D01*
Y50846D01*
X248189Y51108D01*
X248042Y51329D01*
X247820Y51477D01*
X247559Y51529D01*
D02*
G37*
G36*
X240472D02*
X238268D01*
X238006Y51477D01*
X237785Y51329D01*
X237637Y51108D01*
X237585Y50846D01*
Y48642D01*
X237637Y48381D01*
X237785Y48159D01*
X238006Y48011D01*
X238268Y47959D01*
X240472D01*
X240734Y48011D01*
X240955Y48159D01*
X241103Y48381D01*
X241155Y48642D01*
Y50846D01*
X241103Y51108D01*
X240955Y51329D01*
X240734Y51477D01*
X240472Y51529D01*
D02*
G37*
G36*
X233386D02*
X231181D01*
X230920Y51477D01*
X230698Y51329D01*
X230551Y51108D01*
X230499Y50846D01*
Y48642D01*
X230551Y48381D01*
X230698Y48159D01*
X230920Y48011D01*
X231181Y47959D01*
X233386D01*
X233647Y48011D01*
X233868Y48159D01*
X234016Y48381D01*
X234068Y48642D01*
Y50846D01*
X234016Y51108D01*
X233868Y51329D01*
X233647Y51477D01*
X233386Y51529D01*
D02*
G37*
G36*
X226299D02*
X224095D01*
X223833Y51477D01*
X223612Y51329D01*
X223464Y51108D01*
X223412Y50846D01*
Y48642D01*
X223464Y48381D01*
X223612Y48159D01*
X223833Y48011D01*
X224095Y47959D01*
X226299D01*
X226560Y48011D01*
X226782Y48159D01*
X226930Y48381D01*
X226982Y48642D01*
Y50846D01*
X226930Y51108D01*
X226782Y51329D01*
X226560Y51477D01*
X226299Y51529D01*
D02*
G37*
G36*
X219213D02*
X217008D01*
X216747Y51477D01*
X216525Y51329D01*
X216377Y51108D01*
X216325Y50846D01*
Y48642D01*
X216377Y48381D01*
X216525Y48159D01*
X216747Y48011D01*
X217008Y47959D01*
X219213D01*
X219474Y48011D01*
X219695Y48159D01*
X219843Y48381D01*
X219895Y48642D01*
Y50846D01*
X219843Y51108D01*
X219695Y51329D01*
X219474Y51477D01*
X219213Y51529D01*
D02*
G37*
G36*
X174646Y54449D02*
X171811D01*
Y51811D01*
X174646D01*
Y52327D01*
X202324D01*
X202658Y51957D01*
X202589Y51565D01*
X202522Y51442D01*
X202352Y51329D01*
X202204Y51108D01*
X202152Y50846D01*
Y48642D01*
X202204Y48381D01*
X202352Y48159D01*
X202573Y48011D01*
X202835Y47959D01*
X205039D01*
X205300Y48011D01*
X205522Y48159D01*
X205670Y48381D01*
X205722Y48642D01*
Y50846D01*
X205670Y51108D01*
X205522Y51329D01*
X205300Y51477D01*
X205039Y51529D01*
X204740D01*
Y51870D01*
X204679Y52177D01*
X204505Y52438D01*
X203245Y53698D01*
X202984Y53872D01*
X202677Y53933D01*
X174646D01*
Y54449D01*
D02*
G37*
G36*
X197953Y51529D02*
X195748D01*
X195487Y51477D01*
X195265Y51329D01*
X195118Y51108D01*
X195066Y50846D01*
Y48642D01*
X195118Y48381D01*
X195265Y48159D01*
X195487Y48011D01*
X195748Y47959D01*
X197953D01*
X198214Y48011D01*
X198435Y48159D01*
X198583Y48381D01*
X198635Y48642D01*
Y50846D01*
X198583Y51108D01*
X198435Y51329D01*
X198214Y51477D01*
X197953Y51529D01*
D02*
G37*
G36*
X191549Y49350D02*
X190157D01*
Y47959D01*
X190866D01*
X191127Y48011D01*
X191349Y48159D01*
X191497Y48381D01*
X191549Y48642D01*
Y49350D01*
D02*
G37*
G36*
X189370D02*
X187979D01*
Y48642D01*
X188031Y48381D01*
X188179Y48159D01*
X188400Y48011D01*
X188661Y47959D01*
X189370D01*
Y49350D01*
D02*
G37*
G36*
X311902Y47910D02*
X311114D01*
Y47122D01*
X311902D01*
Y47910D01*
D02*
G37*
G36*
X310327D02*
X309539D01*
Y47122D01*
X310327D01*
Y47910D01*
D02*
G37*
G36*
X305126Y47910D02*
X304339D01*
Y47122D01*
X305126D01*
Y47910D01*
D02*
G37*
G36*
X303551D02*
X302764D01*
Y47122D01*
X303551D01*
Y47910D01*
D02*
G37*
G36*
X212126Y51529D02*
X209921D01*
X209660Y51477D01*
X209439Y51329D01*
X209291Y51108D01*
X209239Y50846D01*
Y48642D01*
X209291Y48381D01*
X209439Y48159D01*
X209660Y48011D01*
X209921Y47959D01*
X210221D01*
Y47281D01*
X210002Y47063D01*
X175037D01*
X174175Y47925D01*
X174378Y48425D01*
X174646D01*
Y51063D01*
X171811D01*
Y48425D01*
X172425D01*
Y47736D01*
X172487Y47429D01*
X172661Y47168D01*
X174137Y45692D01*
X174137Y45692D01*
X174398Y45518D01*
X174705Y45457D01*
X210335D01*
X210642Y45518D01*
X210902Y45692D01*
X211591Y46381D01*
X211591Y46381D01*
X211765Y46642D01*
X211826Y46949D01*
Y47959D01*
X212126D01*
X212387Y48011D01*
X212609Y48159D01*
X212756Y48381D01*
X212808Y48642D01*
Y50846D01*
X212756Y51108D01*
X212609Y51329D01*
X212387Y51477D01*
X212126Y51529D01*
D02*
G37*
G36*
X27953Y53543D02*
X19291D01*
Y48819D01*
X27953D01*
Y49977D01*
X48580D01*
X50834Y47722D01*
X50867Y47557D01*
X50961Y47416D01*
Y44193D01*
X50000D01*
Y42543D01*
X47330D01*
X46457Y43416D01*
Y46358D01*
X32283D01*
Y41713D01*
X44754D01*
X45979Y40487D01*
X45979Y40487D01*
X46370Y40226D01*
X46831Y40134D01*
X50000D01*
Y39764D01*
X52953D01*
X55905D01*
Y40256D01*
X54842D01*
X54575Y40756D01*
X54656Y40878D01*
X54748Y41339D01*
X54656Y41799D01*
X54522Y42000D01*
X54331Y42421D01*
Y44193D01*
X53370D01*
Y46867D01*
X54075D01*
Y46654D01*
X56713D01*
Y49488D01*
X56598D01*
Y50039D01*
X56713D01*
Y52874D01*
X54075D01*
Y50039D01*
X54189D01*
Y49488D01*
X54075D01*
Y49275D01*
X52879D01*
X52703Y49393D01*
X52538Y49425D01*
X49930Y52033D01*
X49540Y52294D01*
X49079Y52385D01*
X49079Y52385D01*
X46693D01*
Y52776D01*
X43858D01*
Y52385D01*
X42756D01*
Y52776D01*
X39921D01*
Y52385D01*
X27953D01*
Y53543D01*
D02*
G37*
G36*
X285433Y47606D02*
X284895Y47499D01*
X284440Y47194D01*
X284135Y46738D01*
X284028Y46201D01*
X284073Y45976D01*
X282539Y44442D01*
X280787D01*
X280526Y44390D01*
X280305Y44242D01*
X280157Y44021D01*
X280105Y43760D01*
Y41555D01*
X280157Y41294D01*
X280305Y41073D01*
X280526Y40925D01*
X280787Y40873D01*
X282992D01*
X283253Y40925D01*
X283475Y41073D01*
X283623Y41294D01*
X283675Y41555D01*
Y43307D01*
X285208Y44841D01*
X285433Y44796D01*
X285971Y44903D01*
X286426Y45207D01*
X286731Y45663D01*
X286838Y46201D01*
X286731Y46738D01*
X286426Y47194D01*
X285971Y47499D01*
X285433Y47606D01*
D02*
G37*
G36*
X278346D02*
X277809Y47499D01*
X277353Y47194D01*
X277048Y46738D01*
X276941Y46201D01*
X276986Y45976D01*
X275452Y44442D01*
X273701D01*
X273440Y44390D01*
X273218Y44242D01*
X273070Y44021D01*
X273018Y43760D01*
Y41555D01*
X273070Y41294D01*
X273218Y41073D01*
X273440Y40925D01*
X273701Y40873D01*
X275905D01*
X276167Y40925D01*
X276388Y41073D01*
X276536Y41294D01*
X276588Y41555D01*
Y43307D01*
X278121Y44841D01*
X278346Y44796D01*
X278884Y44903D01*
X279340Y45207D01*
X279644Y45663D01*
X279751Y46201D01*
X279644Y46738D01*
X279340Y47194D01*
X278884Y47499D01*
X278346Y47606D01*
D02*
G37*
G36*
X271260D02*
X270722Y47499D01*
X270266Y47194D01*
X269962Y46738D01*
X269855Y46201D01*
X269900Y45976D01*
X268366Y44442D01*
X266614D01*
X266353Y44390D01*
X266132Y44242D01*
X265984Y44021D01*
X265932Y43760D01*
Y41555D01*
X265984Y41294D01*
X266132Y41073D01*
X266353Y40925D01*
X266614Y40873D01*
X268819D01*
X269080Y40925D01*
X269301Y41073D01*
X269449Y41294D01*
X269501Y41555D01*
Y43307D01*
X271035Y44841D01*
X271260Y44796D01*
X271797Y44903D01*
X272253Y45207D01*
X272558Y45663D01*
X272665Y46201D01*
X272558Y46738D01*
X272253Y47194D01*
X271797Y47499D01*
X271260Y47606D01*
D02*
G37*
G36*
X264173D02*
X263635Y47499D01*
X263180Y47194D01*
X262875Y46738D01*
X262768Y46201D01*
X262813Y45976D01*
X261279Y44442D01*
X259527D01*
X259266Y44390D01*
X259045Y44242D01*
X258897Y44021D01*
X258845Y43760D01*
Y41555D01*
X258897Y41294D01*
X259045Y41073D01*
X259266Y40925D01*
X259527Y40873D01*
X261732D01*
X261993Y40925D01*
X262215Y41073D01*
X262363Y41294D01*
X262415Y41555D01*
Y43307D01*
X263948Y44841D01*
X264173Y44796D01*
X264711Y44903D01*
X265167Y45207D01*
X265471Y45663D01*
X265578Y46201D01*
X265471Y46738D01*
X265167Y47194D01*
X264711Y47499D01*
X264173Y47606D01*
D02*
G37*
G36*
X257087D02*
X256549Y47499D01*
X256093Y47194D01*
X255789Y46738D01*
X255682Y46201D01*
X255726Y45976D01*
X254193Y44442D01*
X252441D01*
X252180Y44390D01*
X251958Y44242D01*
X251810Y44021D01*
X251759Y43760D01*
Y41555D01*
X251810Y41294D01*
X251958Y41073D01*
X252180Y40925D01*
X252441Y40873D01*
X254646D01*
X254907Y40925D01*
X255128Y41073D01*
X255276Y41294D01*
X255328Y41555D01*
Y43307D01*
X256862Y44841D01*
X257087Y44796D01*
X257624Y44903D01*
X258080Y45207D01*
X258385Y45663D01*
X258491Y46201D01*
X258385Y46738D01*
X258080Y47194D01*
X257624Y47499D01*
X257087Y47606D01*
D02*
G37*
G36*
X305480Y45717D02*
X304555D01*
Y44693D01*
X305480D01*
Y45717D01*
D02*
G37*
G36*
X303768D02*
X302842D01*
Y44693D01*
X303768D01*
Y45717D01*
D02*
G37*
G36*
X312256D02*
X311331D01*
Y44693D01*
X312256D01*
Y45717D01*
D02*
G37*
G36*
X310543D02*
X309618D01*
Y44693D01*
X310543D01*
Y45717D01*
D02*
G37*
G36*
X212126Y44442D02*
X211417D01*
Y43051D01*
X212808D01*
Y43760D01*
X212756Y44021D01*
X212609Y44242D01*
X212387Y44390D01*
X212126Y44442D01*
D02*
G37*
G36*
X210630D02*
X209921D01*
X209660Y44390D01*
X209439Y44242D01*
X209291Y44021D01*
X209239Y43760D01*
Y43051D01*
X210630D01*
Y44442D01*
D02*
G37*
G36*
X312256Y43905D02*
X311331D01*
Y42882D01*
X312256D01*
Y43905D01*
D02*
G37*
G36*
X310543D02*
X309618D01*
Y42882D01*
X310543D01*
Y43905D01*
D02*
G37*
G36*
X305480Y43905D02*
X304555D01*
Y42882D01*
X305480D01*
Y43905D01*
D02*
G37*
G36*
X303768D02*
X302842D01*
Y42882D01*
X303768D01*
Y43905D01*
D02*
G37*
G36*
X60098Y56260D02*
X57461D01*
Y53425D01*
X57575D01*
Y52874D01*
X57461D01*
Y50039D01*
X60098D01*
Y50165D01*
X60526Y50343D01*
X60910Y50031D01*
Y42635D01*
X60590Y42467D01*
X60236Y42717D01*
Y44193D01*
X59925D01*
Y46654D01*
X60098D01*
Y49488D01*
X57461D01*
Y46654D01*
X57516D01*
Y44193D01*
X57087D01*
Y42724D01*
X57087Y42421D01*
X57087Y41921D01*
X57087Y40453D01*
X57087Y39953D01*
Y39764D01*
X58661D01*
X60236D01*
Y40256D01*
X60620Y40536D01*
X60925D01*
X61232Y40597D01*
X61493Y40771D01*
X62280Y41558D01*
X62280Y41558D01*
X62454Y41819D01*
X62515Y42126D01*
X62515Y42126D01*
Y50394D01*
X62515Y50394D01*
X62454Y50701D01*
X62280Y50961D01*
X61217Y52024D01*
X60957Y52198D01*
X60650Y52259D01*
X60098D01*
Y52874D01*
X59984D01*
Y53425D01*
X60098D01*
Y56260D01*
D02*
G37*
G36*
X247559Y44442D02*
X245354D01*
X245093Y44390D01*
X244872Y44242D01*
X244724Y44021D01*
X244672Y43760D01*
Y41555D01*
X244724Y41294D01*
X244872Y41073D01*
X245093Y40925D01*
X245354Y40873D01*
X247559D01*
X247820Y40925D01*
X248042Y41073D01*
X248189Y41294D01*
X248241Y41555D01*
Y43760D01*
X248189Y44021D01*
X248042Y44242D01*
X247820Y44390D01*
X247559Y44442D01*
D02*
G37*
G36*
X240472D02*
X238268D01*
X238006Y44390D01*
X237785Y44242D01*
X237637Y44021D01*
X237585Y43760D01*
Y41555D01*
X237637Y41294D01*
X237785Y41073D01*
X238006Y40925D01*
X238268Y40873D01*
X240472D01*
X240734Y40925D01*
X240955Y41073D01*
X241103Y41294D01*
X241155Y41555D01*
Y43760D01*
X241103Y44021D01*
X240955Y44242D01*
X240734Y44390D01*
X240472Y44442D01*
D02*
G37*
G36*
X233386D02*
X231181D01*
X230920Y44390D01*
X230698Y44242D01*
X230551Y44021D01*
X230499Y43760D01*
Y41555D01*
X230551Y41294D01*
X230698Y41073D01*
X230920Y40925D01*
X231181Y40873D01*
X233386D01*
X233647Y40925D01*
X233868Y41073D01*
X234016Y41294D01*
X234068Y41555D01*
Y43760D01*
X234016Y44021D01*
X233868Y44242D01*
X233647Y44390D01*
X233386Y44442D01*
D02*
G37*
G36*
X226299D02*
X224095D01*
X223833Y44390D01*
X223612Y44242D01*
X223464Y44021D01*
X223412Y43760D01*
Y41555D01*
X223464Y41294D01*
X223612Y41073D01*
X223833Y40925D01*
X224095Y40873D01*
X226299D01*
X226560Y40925D01*
X226782Y41073D01*
X226930Y41294D01*
X226982Y41555D01*
Y43760D01*
X226930Y44021D01*
X226782Y44242D01*
X226560Y44390D01*
X226299Y44442D01*
D02*
G37*
G36*
X219213D02*
X217008D01*
X216747Y44390D01*
X216525Y44242D01*
X216377Y44021D01*
X216325Y43760D01*
Y41555D01*
X216377Y41294D01*
X216525Y41073D01*
X216747Y40925D01*
X217008Y40873D01*
X219213D01*
X219474Y40925D01*
X219695Y41073D01*
X219843Y41294D01*
X219895Y41555D01*
Y43760D01*
X219843Y44021D01*
X219695Y44242D01*
X219474Y44390D01*
X219213Y44442D01*
D02*
G37*
G36*
X212808Y42264D02*
X211417D01*
Y40873D01*
X212126D01*
X212387Y40925D01*
X212609Y41073D01*
X212756Y41294D01*
X212808Y41555D01*
Y42264D01*
D02*
G37*
G36*
X210630D02*
X209239D01*
Y41555D01*
X209291Y41294D01*
X209439Y41073D01*
X209660Y40925D01*
X209921Y40873D01*
X210630D01*
Y42264D01*
D02*
G37*
G36*
X205039Y44442D02*
X202835D01*
X202573Y44390D01*
X202352Y44242D01*
X202204Y44021D01*
X202152Y43760D01*
Y41555D01*
X202204Y41294D01*
X202352Y41073D01*
X202573Y40925D01*
X202835Y40873D01*
X205039D01*
X205300Y40925D01*
X205522Y41073D01*
X205670Y41294D01*
X205722Y41555D01*
Y43760D01*
X205670Y44021D01*
X205522Y44242D01*
X205300Y44390D01*
X205039Y44442D01*
D02*
G37*
G36*
X197953D02*
X195748D01*
X195487Y44390D01*
X195265Y44242D01*
X195118Y44021D01*
X195066Y43760D01*
Y41555D01*
X195118Y41294D01*
X195265Y41073D01*
X195487Y40925D01*
X195748Y40873D01*
X197953D01*
X198214Y40925D01*
X198435Y41073D01*
X198583Y41294D01*
X198635Y41555D01*
Y43760D01*
X198583Y44021D01*
X198435Y44242D01*
X198214Y44390D01*
X197953Y44442D01*
D02*
G37*
G36*
X183780D02*
X181575D01*
X181314Y44390D01*
X181092Y44242D01*
X180944Y44021D01*
X180892Y43760D01*
Y41555D01*
X180944Y41294D01*
X181092Y41073D01*
X181314Y40925D01*
X181575Y40873D01*
X183780D01*
X184041Y40925D01*
X184262Y41073D01*
X184410Y41294D01*
X184462Y41555D01*
Y43760D01*
X184410Y44021D01*
X184262Y44242D01*
X184041Y44390D01*
X183780Y44442D01*
D02*
G37*
G36*
X312256Y41780D02*
X311331D01*
Y40756D01*
X312256D01*
Y41780D01*
D02*
G37*
G36*
X310543D02*
X309618D01*
Y40756D01*
X310543D01*
Y41780D01*
D02*
G37*
G36*
X305480D02*
X304555D01*
Y40756D01*
X305480D01*
Y41780D01*
D02*
G37*
G36*
X303768D02*
X302842D01*
Y40756D01*
X303768D01*
Y41780D01*
D02*
G37*
G36*
X190866Y44442D02*
X188661D01*
X188400Y44390D01*
X188179Y44242D01*
X188031Y44021D01*
X187979Y43760D01*
Y42008D01*
X186445Y40474D01*
X186221Y40519D01*
X185683Y40412D01*
X185227Y40108D01*
X184923Y39652D01*
X184816Y39114D01*
X184923Y38576D01*
X185227Y38121D01*
X185683Y37816D01*
X186221Y37709D01*
X186758Y37816D01*
X187214Y38121D01*
X187519Y38576D01*
X187625Y39114D01*
X187581Y39339D01*
X189114Y40873D01*
X190866D01*
X191127Y40925D01*
X191349Y41073D01*
X191497Y41294D01*
X191549Y41555D01*
Y43760D01*
X191497Y44021D01*
X191349Y44242D01*
X191127Y44390D01*
X190866Y44442D01*
D02*
G37*
G36*
X78740Y60460D02*
X78202Y60353D01*
X77747Y60049D01*
X77442Y59593D01*
X77335Y59055D01*
X77442Y58517D01*
X77747Y58062D01*
X78202Y57757D01*
X78740Y57650D01*
X79278Y57757D01*
X79734Y58062D01*
X79861Y58252D01*
X80376D01*
X80874Y57755D01*
X80844Y57077D01*
X79865Y56099D01*
X79734Y56112D01*
X79278Y56416D01*
X78740Y56523D01*
X78202Y56416D01*
X77747Y56112D01*
X77442Y55656D01*
X77335Y55118D01*
X77442Y54580D01*
X77747Y54125D01*
X78202Y53820D01*
X78740Y53713D01*
X79278Y53820D01*
X79734Y54125D01*
X79930Y54419D01*
X80124D01*
X80431Y54480D01*
X80691Y54654D01*
X82025Y55989D01*
X89431D01*
X89906Y55514D01*
Y54331D01*
X89823D01*
Y51575D01*
X90394D01*
X90413Y51083D01*
X90413Y51075D01*
Y43413D01*
X90413Y43406D01*
X90394Y42913D01*
X89823D01*
Y40157D01*
X89823D01*
X89841Y39920D01*
X89431Y39484D01*
X80123D01*
X80038Y39908D01*
X79734Y40363D01*
X79278Y40668D01*
X78740Y40775D01*
X78202Y40668D01*
X77747Y40363D01*
X77442Y39908D01*
X77335Y39370D01*
X77442Y38832D01*
X77747Y38377D01*
X78202Y38072D01*
X78330Y38047D01*
X78495Y37504D01*
X78326Y37335D01*
X78152Y37075D01*
X78091Y36767D01*
Y36656D01*
X77747Y36426D01*
X77442Y35971D01*
X77335Y35433D01*
X77442Y34895D01*
X77747Y34440D01*
X78202Y34135D01*
X78740Y34028D01*
X79278Y34135D01*
X79734Y34440D01*
X80038Y34895D01*
X80145Y35433D01*
X80038Y35971D01*
X79859Y36238D01*
X80154Y36697D01*
X91381D01*
X91620Y36362D01*
X91658Y36212D01*
X91497Y35971D01*
X91390Y35433D01*
X91497Y34895D01*
X91802Y34440D01*
X92020Y34294D01*
X93701Y32613D01*
X93701Y32613D01*
X94091Y32352D01*
X94552Y32260D01*
X94552Y32260D01*
X95413D01*
Y32047D01*
X98051D01*
Y34882D01*
X97535D01*
Y35984D01*
X98051D01*
Y38819D01*
X95448D01*
Y39773D01*
X95728Y40157D01*
X96031Y40157D01*
X97500D01*
Y40449D01*
X98000Y40615D01*
X99296Y39319D01*
X99270Y38819D01*
X98799D01*
Y35984D01*
X101437D01*
Y38819D01*
X100921D01*
Y39632D01*
X100921Y39632D01*
X100860Y39940D01*
X100686Y40200D01*
X100686Y40200D01*
X100615Y40271D01*
X100807Y40733D01*
X104982D01*
X105109Y40542D01*
X105565Y40237D01*
X106102Y40130D01*
X106640Y40237D01*
X106724Y40294D01*
X107224Y40157D01*
Y40157D01*
X107224Y40157D01*
X113130D01*
Y54331D01*
X111587D01*
X111380Y54831D01*
X113620Y57071D01*
X147404D01*
X149394Y55081D01*
Y39014D01*
X148093Y37712D01*
X136417D01*
X136417Y37712D01*
X136110Y37651D01*
X135850Y37477D01*
X132897Y34524D01*
X132799Y34378D01*
X132299Y34500D01*
Y42778D01*
X135962Y46441D01*
X141476D01*
Y40157D01*
X147382D01*
Y54331D01*
X141476D01*
Y48047D01*
X135630D01*
X135323Y47986D01*
X135062Y47812D01*
X130928Y43678D01*
X130754Y43418D01*
X130693Y43110D01*
Y27547D01*
X130193Y27340D01*
X128422Y29111D01*
X128162Y29285D01*
X127854Y29346D01*
X109449D01*
X109142Y29285D01*
X108881Y29111D01*
X105731Y25961D01*
X105558Y25701D01*
X105496Y25394D01*
Y22697D01*
X104882D01*
Y20059D01*
X107717D01*
Y22697D01*
X107102D01*
Y25061D01*
X109781Y27740D01*
X111286D01*
X111478Y27279D01*
X109669Y25469D01*
X109494Y25209D01*
X109433Y24902D01*
Y22697D01*
X108819D01*
Y20059D01*
X111653D01*
Y22697D01*
X111039D01*
Y24569D01*
X113029Y26559D01*
X127030D01*
X127544Y26045D01*
Y24606D01*
X127461D01*
Y22146D01*
X125000D01*
Y22063D01*
X122638D01*
X122331Y22002D01*
X122070Y21827D01*
X122070Y21827D01*
X120791Y20548D01*
X120617Y20288D01*
X120555Y19980D01*
Y19132D01*
X120219Y18795D01*
X119528D01*
Y19311D01*
X116693D01*
Y16673D01*
X119528D01*
Y17189D01*
X120551D01*
X120858Y17250D01*
X121119Y17424D01*
X121275Y17580D01*
X121737Y17389D01*
Y14506D01*
X121026Y13795D01*
X115692D01*
X115425Y14295D01*
X115471Y14364D01*
X115578Y14902D01*
X115471Y15439D01*
X115167Y15895D01*
X114976Y16022D01*
Y16673D01*
X115591D01*
Y19311D01*
X112756D01*
Y16673D01*
X113370D01*
Y16022D01*
X113180Y15895D01*
X112875Y15439D01*
X112768Y14902D01*
X112875Y14364D01*
X112921Y14295D01*
X112654Y13795D01*
X111755D01*
X111488Y14295D01*
X111534Y14364D01*
X111641Y14902D01*
X111534Y15439D01*
X111230Y15895D01*
X111039Y16022D01*
Y16673D01*
X111653D01*
Y19311D01*
X108819D01*
Y16673D01*
X109433D01*
Y16022D01*
X109243Y15895D01*
X108938Y15439D01*
X108831Y14902D01*
X108878Y14667D01*
X108555Y14142D01*
X108516Y14119D01*
X108307Y14088D01*
X107102Y15293D01*
Y16673D01*
X107717D01*
Y19311D01*
X104882D01*
Y16673D01*
X105496D01*
Y14961D01*
X105558Y14653D01*
X105731Y14393D01*
X107700Y12424D01*
X107960Y12250D01*
X108268Y12189D01*
X108268Y12189D01*
X121358D01*
X121666Y12250D01*
X121926Y12424D01*
X123107Y13605D01*
X123107Y13605D01*
X123281Y13866D01*
X123342Y14173D01*
X123342Y14173D01*
Y18171D01*
X124053Y18882D01*
X125000D01*
Y17224D01*
X125575D01*
Y16603D01*
X125581Y16574D01*
X125575Y16544D01*
Y14574D01*
X125384Y14447D01*
X125080Y13991D01*
X124973Y13453D01*
X125080Y12916D01*
X125384Y12460D01*
X125840Y12155D01*
X126378Y12048D01*
X126916Y12155D01*
X127371Y12460D01*
X127676Y12916D01*
X127783Y13453D01*
X127676Y13991D01*
X127494Y14264D01*
X127728Y14764D01*
X132382D01*
X132382Y14764D01*
Y14764D01*
X132882Y14874D01*
X132927Y14844D01*
X133465Y14737D01*
X134002Y14844D01*
X134458Y15148D01*
X134585Y15339D01*
X138465D01*
X138772Y15400D01*
X139032Y15574D01*
X139757Y16299D01*
X141358D01*
Y19134D01*
X140842D01*
Y20236D01*
X141358D01*
Y23071D01*
X138721D01*
Y20236D01*
X139236D01*
Y19134D01*
X138721D01*
Y17620D01*
X138331Y17267D01*
X138257Y17278D01*
X138192Y17325D01*
X137905Y17835D01*
X137960Y18110D01*
X137853Y18648D01*
X137549Y19104D01*
X137093Y19408D01*
X136555Y19515D01*
X136018Y19408D01*
X135562Y19104D01*
X135434Y18913D01*
X134843D01*
Y19291D01*
X133465D01*
Y20079D01*
X134843D01*
Y22146D01*
X134267D01*
Y33624D01*
X136750Y36107D01*
X148425D01*
X148732Y36168D01*
X148993Y36342D01*
X150765Y38113D01*
X150939Y38374D01*
X151000Y38681D01*
Y55413D01*
X151000Y55413D01*
X150939Y55721D01*
X150765Y55981D01*
X150765Y55981D01*
X148304Y58442D01*
X148044Y58616D01*
X147736Y58677D01*
X113287D01*
X113287Y58677D01*
X112980Y58616D01*
X112720Y58442D01*
X109609Y55331D01*
X109435Y55071D01*
X109374Y54764D01*
Y54331D01*
X107224D01*
Y43044D01*
X106724Y42777D01*
X106640Y42833D01*
X106102Y42940D01*
X105565Y42833D01*
X105109Y42529D01*
X104982Y42338D01*
X97500D01*
Y42913D01*
X96928D01*
X96909Y43406D01*
X96909Y43413D01*
Y51075D01*
X96909Y51083D01*
X96928Y51575D01*
X97500D01*
Y53935D01*
X97608Y54007D01*
X97912Y54462D01*
X98019Y55000D01*
X97985Y55169D01*
X98051Y55669D01*
X98051D01*
X98051Y55669D01*
Y58504D01*
X95413D01*
Y55683D01*
X95316Y55538D01*
X95209Y55000D01*
X95243Y54831D01*
X95039Y54573D01*
Y52953D01*
X94252D01*
Y54331D01*
X93760D01*
X93480Y54715D01*
Y55548D01*
X93419Y55856D01*
X93245Y56116D01*
X90821Y58540D01*
X90560Y58714D01*
X90253Y58775D01*
X82124D01*
X81276Y59623D01*
X81016Y59797D01*
X80709Y59858D01*
X79861D01*
X79734Y60049D01*
X79278Y60353D01*
X78740Y60460D01*
D02*
G37*
G36*
X312256Y39968D02*
X311331D01*
Y38945D01*
X312256D01*
Y39968D01*
D02*
G37*
G36*
X310543D02*
X309618D01*
Y38945D01*
X310543D01*
Y39968D01*
D02*
G37*
G36*
X305480Y39968D02*
X304555D01*
Y38945D01*
X305480D01*
Y39968D01*
D02*
G37*
G36*
X303768D02*
X302842D01*
Y38945D01*
X303768D01*
Y39968D01*
D02*
G37*
G36*
X60236Y38976D02*
X58661D01*
X57087D01*
Y38484D01*
X57087Y37984D01*
Y37795D01*
X58661D01*
X60236D01*
Y38287D01*
X60236Y38787D01*
Y38976D01*
D02*
G37*
G36*
X278346Y40519D02*
X277809Y40412D01*
X277353Y40108D01*
X277048Y39652D01*
X276941Y39114D01*
X276986Y38889D01*
X275452Y37356D01*
X273701D01*
X273440Y37304D01*
X273218Y37156D01*
X273070Y36934D01*
X273018Y36673D01*
Y34468D01*
X273070Y34207D01*
X273218Y33986D01*
X273440Y33838D01*
X273701Y33786D01*
X275905D01*
X276167Y33838D01*
X276388Y33986D01*
X276536Y34207D01*
X276588Y34468D01*
Y36220D01*
X278121Y37754D01*
X278346Y37709D01*
X278884Y37816D01*
X279340Y38121D01*
X279644Y38576D01*
X279751Y39114D01*
X279644Y39652D01*
X279340Y40108D01*
X278884Y40412D01*
X278346Y40519D01*
D02*
G37*
G36*
X271260D02*
X270722Y40412D01*
X270266Y40108D01*
X269962Y39652D01*
X269855Y39114D01*
X269900Y38889D01*
X268366Y37356D01*
X266614D01*
X266353Y37304D01*
X266132Y37156D01*
X265984Y36934D01*
X265932Y36673D01*
Y34468D01*
X265984Y34207D01*
X266132Y33986D01*
X266353Y33838D01*
X266614Y33786D01*
X268819D01*
X269080Y33838D01*
X269301Y33986D01*
X269449Y34207D01*
X269501Y34468D01*
Y36220D01*
X271035Y37754D01*
X271260Y37709D01*
X271797Y37816D01*
X272253Y38121D01*
X272558Y38576D01*
X272665Y39114D01*
X272558Y39652D01*
X272253Y40108D01*
X271797Y40412D01*
X271260Y40519D01*
D02*
G37*
G36*
X264173D02*
X263635Y40412D01*
X263180Y40108D01*
X262875Y39652D01*
X262768Y39114D01*
X262813Y38889D01*
X261279Y37356D01*
X259527D01*
X259266Y37304D01*
X259045Y37156D01*
X258897Y36934D01*
X258845Y36673D01*
Y34468D01*
X258897Y34207D01*
X259045Y33986D01*
X259266Y33838D01*
X259527Y33786D01*
X261732D01*
X261993Y33838D01*
X262215Y33986D01*
X262363Y34207D01*
X262415Y34468D01*
Y36220D01*
X263948Y37754D01*
X264173Y37709D01*
X264711Y37816D01*
X265167Y38121D01*
X265471Y38576D01*
X265578Y39114D01*
X265471Y39652D01*
X265167Y40108D01*
X264711Y40412D01*
X264173Y40519D01*
D02*
G37*
G36*
X214567D02*
X214029Y40412D01*
X213574Y40108D01*
X213269Y39652D01*
X213162Y39114D01*
X213207Y38889D01*
X211673Y37356D01*
X209921D01*
X209660Y37304D01*
X209439Y37156D01*
X209291Y36934D01*
X209239Y36673D01*
Y34468D01*
X209291Y34207D01*
X209439Y33986D01*
X209660Y33838D01*
X209921Y33786D01*
X212126D01*
X212387Y33838D01*
X212609Y33986D01*
X212756Y34207D01*
X212808Y34468D01*
Y36220D01*
X214342Y37754D01*
X214567Y37709D01*
X215105Y37816D01*
X215560Y38121D01*
X215865Y38576D01*
X215972Y39114D01*
X215865Y39652D01*
X215560Y40108D01*
X215105Y40412D01*
X214567Y40519D01*
D02*
G37*
G36*
X207480D02*
X206943Y40412D01*
X206487Y40108D01*
X206182Y39652D01*
X206075Y39114D01*
X206120Y38889D01*
X204586Y37356D01*
X202835D01*
X202573Y37304D01*
X202352Y37156D01*
X202204Y36934D01*
X202152Y36673D01*
Y34468D01*
X202204Y34207D01*
X202352Y33986D01*
X202573Y33838D01*
X202835Y33786D01*
X205039D01*
X205300Y33838D01*
X205522Y33986D01*
X205670Y34207D01*
X205722Y34468D01*
Y36220D01*
X207255Y37754D01*
X207480Y37709D01*
X208018Y37816D01*
X208474Y38121D01*
X208778Y38576D01*
X208885Y39114D01*
X208778Y39652D01*
X208474Y40108D01*
X208018Y40412D01*
X207480Y40519D01*
D02*
G37*
G36*
X200394D02*
X199856Y40412D01*
X199400Y40108D01*
X199096Y39652D01*
X198989Y39114D01*
X199033Y38889D01*
X197500Y37356D01*
X195748D01*
X195487Y37304D01*
X195265Y37156D01*
X195118Y36934D01*
X195066Y36673D01*
Y34468D01*
X195118Y34207D01*
X195265Y33986D01*
X195487Y33838D01*
X195748Y33786D01*
X197953D01*
X198214Y33838D01*
X198435Y33986D01*
X198583Y34207D01*
X198635Y34468D01*
Y36220D01*
X200169Y37754D01*
X200394Y37709D01*
X200931Y37816D01*
X201387Y38121D01*
X201692Y38576D01*
X201799Y39114D01*
X201692Y39652D01*
X201387Y40108D01*
X200931Y40412D01*
X200394Y40519D01*
D02*
G37*
G36*
X193307D02*
X192769Y40412D01*
X192314Y40108D01*
X192009Y39652D01*
X191902Y39114D01*
X191947Y38889D01*
X190413Y37356D01*
X188661D01*
X188400Y37304D01*
X188179Y37156D01*
X188031Y36934D01*
X187979Y36673D01*
Y34468D01*
X188031Y34207D01*
X188179Y33986D01*
X188400Y33838D01*
X188661Y33786D01*
X190866D01*
X191127Y33838D01*
X191349Y33986D01*
X191497Y34207D01*
X191549Y34468D01*
Y36220D01*
X193082Y37754D01*
X193307Y37709D01*
X193845Y37816D01*
X194300Y38121D01*
X194605Y38576D01*
X194712Y39114D01*
X194605Y39652D01*
X194300Y40108D01*
X193845Y40412D01*
X193307Y40519D01*
D02*
G37*
G36*
X308949Y49484D02*
X306587D01*
Y47122D01*
X306857D01*
Y45717D01*
X306232D01*
Y42882D01*
X306857D01*
Y41780D01*
X306232D01*
Y38945D01*
X306857D01*
Y37843D01*
X306232D01*
Y35008D01*
X308870D01*
Y37843D01*
X308462D01*
Y38945D01*
X308870D01*
Y41780D01*
X308462D01*
Y42882D01*
X308870D01*
Y45717D01*
X308462D01*
Y47122D01*
X308949D01*
Y49484D01*
D02*
G37*
G36*
X302173D02*
X299811D01*
Y47122D01*
X300081D01*
Y45717D01*
X299457D01*
Y42882D01*
X300081D01*
Y41780D01*
X299457D01*
Y38945D01*
X300081D01*
Y37843D01*
X299457D01*
Y35008D01*
X302095D01*
Y37843D01*
X301687D01*
Y38945D01*
X302095D01*
Y41780D01*
X301687D01*
Y42882D01*
X302095D01*
Y45717D01*
X301687D01*
Y47122D01*
X302173D01*
Y49484D01*
D02*
G37*
G36*
X101437Y34882D02*
X100512D01*
Y33858D01*
X101437D01*
Y34882D01*
D02*
G37*
G36*
X99724D02*
X98799D01*
Y33858D01*
X99724D01*
Y34882D01*
D02*
G37*
G36*
X254646Y37356D02*
X252441D01*
X252180Y37304D01*
X251958Y37156D01*
X251810Y36934D01*
X251759Y36673D01*
Y34468D01*
X251810Y34207D01*
X251958Y33986D01*
X252180Y33838D01*
X252441Y33786D01*
X254646D01*
X254907Y33838D01*
X255128Y33986D01*
X255276Y34207D01*
X255328Y34468D01*
Y36673D01*
X255276Y36934D01*
X255128Y37156D01*
X254907Y37304D01*
X254646Y37356D01*
D02*
G37*
G36*
X247559D02*
X245354D01*
X245093Y37304D01*
X244872Y37156D01*
X244724Y36934D01*
X244672Y36673D01*
Y34468D01*
X244724Y34207D01*
X244872Y33986D01*
X245093Y33838D01*
X245354Y33786D01*
X247559D01*
X247820Y33838D01*
X248042Y33986D01*
X248189Y34207D01*
X248241Y34468D01*
Y36673D01*
X248189Y36934D01*
X248042Y37156D01*
X247820Y37304D01*
X247559Y37356D01*
D02*
G37*
G36*
X240472D02*
X238268D01*
X238006Y37304D01*
X237785Y37156D01*
X237637Y36934D01*
X237585Y36673D01*
Y34468D01*
X237637Y34207D01*
X237785Y33986D01*
X238006Y33838D01*
X238268Y33786D01*
X240472D01*
X240734Y33838D01*
X240955Y33986D01*
X241103Y34207D01*
X241155Y34468D01*
Y36673D01*
X241103Y36934D01*
X240955Y37156D01*
X240734Y37304D01*
X240472Y37356D01*
D02*
G37*
G36*
X233386D02*
X231181D01*
X230920Y37304D01*
X230698Y37156D01*
X230551Y36934D01*
X230499Y36673D01*
Y34468D01*
X230551Y34207D01*
X230698Y33986D01*
X230920Y33838D01*
X231181Y33786D01*
X233386D01*
X233647Y33838D01*
X233868Y33986D01*
X234016Y34207D01*
X234068Y34468D01*
Y36673D01*
X234016Y36934D01*
X233868Y37156D01*
X233647Y37304D01*
X233386Y37356D01*
D02*
G37*
G36*
X226299D02*
X224095D01*
X223833Y37304D01*
X223612Y37156D01*
X223464Y36934D01*
X223412Y36673D01*
Y34468D01*
X223464Y34207D01*
X223612Y33986D01*
X223833Y33838D01*
X224095Y33786D01*
X226299D01*
X226560Y33838D01*
X226782Y33986D01*
X226930Y34207D01*
X226982Y34468D01*
Y36673D01*
X226930Y36934D01*
X226782Y37156D01*
X226560Y37304D01*
X226299Y37356D01*
D02*
G37*
G36*
X219213D02*
X217008D01*
X216747Y37304D01*
X216525Y37156D01*
X216377Y36934D01*
X216325Y36673D01*
Y34468D01*
X216377Y34207D01*
X216525Y33986D01*
X216747Y33838D01*
X217008Y33786D01*
X219213D01*
X219474Y33838D01*
X219695Y33986D01*
X219843Y34207D01*
X219895Y34468D01*
Y36673D01*
X219843Y36934D01*
X219695Y37156D01*
X219474Y37304D01*
X219213Y37356D01*
D02*
G37*
G36*
X101437Y33071D02*
X100512D01*
Y32047D01*
X101437D01*
Y33071D01*
D02*
G37*
G36*
X99724D02*
X98799D01*
Y32047D01*
X99724D01*
Y33071D01*
D02*
G37*
G36*
X312256Y37843D02*
X309618D01*
Y35008D01*
X310134D01*
Y33806D01*
X309944Y33678D01*
X309639Y33223D01*
X309532Y32685D01*
X309639Y32147D01*
X309944Y31692D01*
X310399Y31387D01*
X310937Y31280D01*
X311475Y31387D01*
X311930Y31692D01*
X312235Y32147D01*
X312342Y32685D01*
X312235Y33223D01*
X311930Y33678D01*
X311740Y33806D01*
Y35008D01*
X312256D01*
Y37843D01*
D02*
G37*
G36*
X305480D02*
X302842D01*
Y35008D01*
X303359D01*
Y33798D01*
X303168Y33671D01*
X302863Y33215D01*
X302757Y32677D01*
X302863Y32140D01*
X303168Y31684D01*
X303624Y31379D01*
X304161Y31272D01*
X304699Y31379D01*
X305155Y31684D01*
X305459Y32140D01*
X305566Y32677D01*
X305459Y33215D01*
X305155Y33671D01*
X304964Y33798D01*
Y35008D01*
X305480D01*
Y37843D01*
D02*
G37*
G36*
X55905Y38976D02*
X52953D01*
X50000D01*
Y38606D01*
X46831D01*
X46370Y38514D01*
X45979Y38253D01*
X45979Y38253D01*
X44754Y37028D01*
X32283D01*
Y32382D01*
X46457D01*
Y35324D01*
X47330Y36197D01*
X50000D01*
Y34547D01*
X50961D01*
Y30924D01*
X48800Y28763D01*
X40048D01*
X39908Y28857D01*
X39370Y28964D01*
X38832Y28857D01*
X38692Y28763D01*
X27953D01*
Y29921D01*
X19291D01*
Y25197D01*
X27953D01*
Y26355D01*
X38692D01*
X38832Y26261D01*
X39370Y26154D01*
X39421Y26164D01*
X39921Y25965D01*
Y25965D01*
X42756D01*
Y26355D01*
X43858D01*
Y25965D01*
X46693D01*
Y26355D01*
X49299D01*
X49299Y26355D01*
X49760Y26447D01*
X50151Y26708D01*
X53017Y29574D01*
X53017Y29574D01*
X53278Y29964D01*
X53370Y30425D01*
Y34547D01*
X54331D01*
Y36319D01*
X54522Y36740D01*
X54656Y36941D01*
X54748Y37402D01*
X54656Y37862D01*
X54575Y37984D01*
X54842Y38484D01*
X55905D01*
Y38976D01*
D02*
G37*
G36*
X8268Y29921D02*
X4331D01*
Y27953D01*
X8268D01*
Y29921D01*
D02*
G37*
G36*
X3543D02*
X-394D01*
Y27953D01*
X3543D01*
Y29921D01*
D02*
G37*
G36*
X56713Y28701D02*
X55787D01*
Y27677D01*
X56713D01*
Y28701D01*
D02*
G37*
G36*
X55000D02*
X54075D01*
Y27677D01*
X55000D01*
Y28701D01*
D02*
G37*
G36*
X285866Y27815D02*
X284842D01*
Y26890D01*
X285866D01*
Y27815D01*
D02*
G37*
G36*
X284055D02*
X283032D01*
Y26890D01*
X284055D01*
Y27815D01*
D02*
G37*
G36*
X281929D02*
X280906D01*
Y26890D01*
X281929D01*
Y27815D01*
D02*
G37*
G36*
X280118D02*
X279095D01*
Y26890D01*
X280118D01*
Y27815D01*
D02*
G37*
G36*
X277992D02*
X276969D01*
Y26890D01*
X277992D01*
Y27815D01*
D02*
G37*
G36*
X276181D02*
X275157D01*
Y26890D01*
X276181D01*
Y27815D01*
D02*
G37*
G36*
X274055D02*
X273031D01*
Y26890D01*
X274055D01*
Y27815D01*
D02*
G37*
G36*
X272244D02*
X271220D01*
Y26890D01*
X272244D01*
Y27815D01*
D02*
G37*
G36*
X236653D02*
X235630D01*
Y26890D01*
X236653D01*
Y27815D01*
D02*
G37*
G36*
X234842D02*
X233819D01*
Y26890D01*
X234842D01*
Y27815D01*
D02*
G37*
G36*
X232716D02*
X231693D01*
Y26890D01*
X232716D01*
Y27815D01*
D02*
G37*
G36*
X230906D02*
X229882D01*
Y26890D01*
X230906D01*
Y27815D01*
D02*
G37*
G36*
X228780D02*
X227756D01*
Y26890D01*
X228780D01*
Y27815D01*
D02*
G37*
G36*
X226969D02*
X225945D01*
Y26890D01*
X226969D01*
Y27815D01*
D02*
G37*
G36*
X185472D02*
X184449D01*
Y26890D01*
X185472D01*
Y27815D01*
D02*
G37*
G36*
X183661D02*
X182638D01*
Y26890D01*
X183661D01*
Y27815D01*
D02*
G37*
G36*
X181535D02*
X180512D01*
Y26890D01*
X181535D01*
Y27815D01*
D02*
G37*
G36*
X179724D02*
X178701D01*
Y26890D01*
X179724D01*
Y27815D01*
D02*
G37*
G36*
X56713Y26890D02*
X55787D01*
Y25866D01*
X56713D01*
Y26890D01*
D02*
G37*
G36*
X55000D02*
X54075D01*
Y25866D01*
X55000D01*
Y26890D01*
D02*
G37*
G36*
X8268Y27165D02*
X4331D01*
Y25197D01*
X8268D01*
Y27165D01*
D02*
G37*
G36*
X3543D02*
X-394D01*
Y25197D01*
X3543D01*
Y27165D01*
D02*
G37*
G36*
X285866Y26102D02*
X284842D01*
Y25177D01*
X285866D01*
Y26102D01*
D02*
G37*
G36*
X284055D02*
X283032D01*
Y25177D01*
X284055D01*
Y26102D01*
D02*
G37*
G36*
X281929D02*
X280906D01*
Y25177D01*
X281929D01*
Y26102D01*
D02*
G37*
G36*
X280118D02*
X279095D01*
Y25177D01*
X280118D01*
Y26102D01*
D02*
G37*
G36*
X277992D02*
X276969D01*
Y25177D01*
X277992D01*
Y26102D01*
D02*
G37*
G36*
X276181D02*
X275157D01*
Y25177D01*
X276181D01*
Y26102D01*
D02*
G37*
G36*
X274055D02*
X273031D01*
Y25177D01*
X274055D01*
Y26102D01*
D02*
G37*
G36*
X272244D02*
X271220D01*
Y25177D01*
X272244D01*
Y26102D01*
D02*
G37*
G36*
X236653D02*
X235630D01*
Y25177D01*
X236653D01*
Y26102D01*
D02*
G37*
G36*
X234842D02*
X233819D01*
Y25177D01*
X234842D01*
Y26102D01*
D02*
G37*
G36*
X232716D02*
X231693D01*
Y25177D01*
X232716D01*
Y26102D01*
D02*
G37*
G36*
X230906D02*
X229882D01*
Y25177D01*
X230906D01*
Y26102D01*
D02*
G37*
G36*
X228780D02*
X227756D01*
Y25177D01*
X228780D01*
Y26102D01*
D02*
G37*
G36*
X226969D02*
X225945D01*
Y25177D01*
X226969D01*
Y26102D01*
D02*
G37*
G36*
X185472D02*
X184449D01*
Y25177D01*
X185472D01*
Y26102D01*
D02*
G37*
G36*
X183661D02*
X182638D01*
Y25177D01*
X183661D01*
Y26102D01*
D02*
G37*
G36*
X181535D02*
X180512D01*
Y25177D01*
X181535D01*
Y26102D01*
D02*
G37*
G36*
X179724D02*
X178701D01*
Y25177D01*
X179724D01*
Y26102D01*
D02*
G37*
G36*
X42756Y25216D02*
X41732D01*
Y24291D01*
X42756D01*
Y25216D01*
D02*
G37*
G36*
X56713Y25315D02*
X55787D01*
Y24291D01*
X56713D01*
Y25315D01*
D02*
G37*
G36*
X46693Y25216D02*
X45669D01*
Y24291D01*
X46693D01*
Y25216D01*
D02*
G37*
G36*
X44882D02*
X43858D01*
Y24291D01*
X44882D01*
Y25216D01*
D02*
G37*
G36*
X55000Y25315D02*
X54075D01*
Y24291D01*
X55000D01*
Y25315D01*
D02*
G37*
G36*
X40945Y25216D02*
X39921D01*
Y24291D01*
X40945D01*
Y25216D01*
D02*
G37*
G36*
X46693Y23504D02*
X45669D01*
Y22579D01*
X46693D01*
Y23504D01*
D02*
G37*
G36*
X44882D02*
X43858D01*
Y22579D01*
X44882D01*
Y23504D01*
D02*
G37*
G36*
X42756D02*
X41732D01*
Y22579D01*
X42756D01*
Y23504D01*
D02*
G37*
G36*
X40945D02*
X39921D01*
Y22579D01*
X40945D01*
Y23504D01*
D02*
G37*
G36*
X60236Y37008D02*
X58661D01*
X57087D01*
Y36516D01*
X57087Y36016D01*
Y34547D01*
X57977D01*
Y32430D01*
X57786Y32302D01*
X57481Y31847D01*
X57375Y31309D01*
X57481Y30771D01*
X57786Y30316D01*
X57977Y30188D01*
Y28701D01*
X57461D01*
Y25866D01*
X57977D01*
Y25315D01*
X57461D01*
Y22480D01*
X60098D01*
Y25315D01*
X59582D01*
Y25866D01*
X60098D01*
Y28701D01*
X59582D01*
Y30188D01*
X59773Y30316D01*
X60078Y30771D01*
X60185Y31309D01*
X60078Y31847D01*
X59773Y32302D01*
X59582Y32430D01*
Y34547D01*
X60236D01*
Y36016D01*
X60236Y36319D01*
X60236Y36819D01*
Y37008D01*
D02*
G37*
G36*
X56713Y23504D02*
X55787D01*
Y22480D01*
X56713D01*
Y23504D01*
D02*
G37*
G36*
X55000D02*
X54075D01*
Y22480D01*
X55000D01*
Y23504D01*
D02*
G37*
G36*
X240591Y24429D02*
X237756D01*
Y22927D01*
X237116Y22286D01*
X236653Y22478D01*
Y24429D01*
X233819D01*
Y22927D01*
X233236Y22344D01*
X233217Y22340D01*
X232716Y22743D01*
Y24429D01*
X229882D01*
Y22927D01*
X229580Y22624D01*
X229405Y22364D01*
X228902Y22395D01*
X228780Y22460D01*
Y24429D01*
X225945D01*
Y21791D01*
X225945Y21791D01*
X226022Y21291D01*
X225957Y20965D01*
X226064Y20427D01*
X226369Y19971D01*
X226476Y19899D01*
Y17028D01*
X227945D01*
X228248Y17028D01*
Y17028D01*
X228445D01*
Y17028D01*
X229913D01*
X230217Y17028D01*
Y17028D01*
X230413D01*
Y17028D01*
X232185D01*
X232185Y17028D01*
X232382D01*
Y17028D01*
X232685Y17028D01*
X233850D01*
X234154Y17028D01*
Y17028D01*
X234350D01*
Y17028D01*
X234842D01*
Y18602D01*
X235630D01*
Y17028D01*
X236122D01*
Y17028D01*
X236319D01*
Y17028D01*
X238090D01*
Y20177D01*
X238007D01*
Y20908D01*
X238891Y21791D01*
X240591D01*
Y24429D01*
D02*
G37*
G36*
X185472D02*
X182638D01*
Y22340D01*
X182349Y22282D01*
X182035Y22072D01*
X181579Y22256D01*
X181535Y22294D01*
Y24429D01*
X178701D01*
Y21791D01*
X178701Y21791D01*
X178784Y21291D01*
X178726Y20997D01*
X178833Y20459D01*
X179137Y20003D01*
X179232Y19940D01*
Y17028D01*
X180701D01*
X181004Y17028D01*
Y17028D01*
X181201D01*
Y17028D01*
X182669D01*
X182972Y17028D01*
Y17028D01*
X183169D01*
Y17028D01*
X184638D01*
X184941Y17028D01*
X185441Y17028D01*
X186909Y17028D01*
X187409Y17028D01*
X187598D01*
Y18602D01*
Y20177D01*
X187106D01*
X186606Y20177D01*
X185138Y20177D01*
X184561Y20177D01*
X184231Y20677D01*
X184292Y20984D01*
X184264Y21125D01*
X184331Y21225D01*
X184392Y21532D01*
Y21791D01*
X185472D01*
Y24429D01*
D02*
G37*
G36*
X144744Y23071D02*
X143819D01*
Y22047D01*
X144744D01*
Y23071D01*
D02*
G37*
G36*
X143032D02*
X142106D01*
Y22047D01*
X143032D01*
Y23071D01*
D02*
G37*
G36*
X289803Y27815D02*
X286968D01*
Y25177D01*
X289803D01*
Y25693D01*
X293841D01*
X296166Y23368D01*
Y20118D01*
X295650D01*
Y18247D01*
X295634Y18169D01*
Y18161D01*
X295402Y17978D01*
X294902Y18210D01*
Y20118D01*
X292264D01*
Y19504D01*
X285335D01*
Y20177D01*
X284068D01*
X283787Y20630D01*
X283785Y20677D01*
X283885Y21181D01*
X283831Y21455D01*
X284167Y21791D01*
X285866D01*
Y22307D01*
X286968D01*
Y21791D01*
X289803D01*
Y24429D01*
X286968D01*
Y23913D01*
X285866D01*
Y24429D01*
X283032D01*
Y22927D01*
X282656Y22551D01*
X282480Y22586D01*
X282429Y22576D01*
X281929Y22986D01*
Y24429D01*
X279095D01*
Y22927D01*
X278792Y22624D01*
X278618Y22364D01*
X278145Y22487D01*
X277992Y22569D01*
Y24429D01*
X275157D01*
Y21791D01*
X275157Y21791D01*
X275235Y21291D01*
X275170Y20965D01*
X275218Y20723D01*
X274920Y20304D01*
X274684Y20277D01*
X274497Y20296D01*
X274211Y20714D01*
X274260Y20965D01*
X274153Y21502D01*
X274055Y21791D01*
X274055Y21791D01*
X274055Y21791D01*
Y24429D01*
X271220D01*
Y21791D01*
X271220D01*
X271516Y21291D01*
X271451Y20965D01*
X271557Y20427D01*
X271862Y19971D01*
X272318Y19667D01*
X272429Y19645D01*
X273251Y18822D01*
X273251Y18822D01*
X273512Y18648D01*
X273721Y18607D01*
Y17028D01*
X275492D01*
X275492Y17028D01*
X275689D01*
Y17028D01*
X275992Y17028D01*
X277157D01*
X277461Y17028D01*
Y17028D01*
X277658D01*
Y17028D01*
X279126D01*
X279429Y17028D01*
Y17028D01*
X279626D01*
Y17028D01*
X281095D01*
X281398Y17028D01*
Y17028D01*
X281594D01*
Y17028D01*
X282087D01*
Y18602D01*
X282874D01*
Y17028D01*
X283063D01*
X283366Y17028D01*
X283866Y17028D01*
X285335D01*
Y17898D01*
X292264D01*
Y17284D01*
X294215D01*
X294407Y16822D01*
X293766Y16181D01*
X292264D01*
Y14803D01*
X291692D01*
X291564Y14994D01*
X291108Y15298D01*
X290571Y15405D01*
X290033Y15298D01*
X289577Y14994D01*
X289450Y14803D01*
X288884D01*
X288878Y14809D01*
Y15650D01*
X285728D01*
Y13878D01*
X287539D01*
X287984Y13432D01*
X287984Y13432D01*
X288245Y13258D01*
X288552Y13197D01*
X288552Y13197D01*
X289450D01*
X289577Y13006D01*
X290033Y12702D01*
X290571Y12595D01*
X291108Y12702D01*
X291564Y13006D01*
X291692Y13197D01*
X292590D01*
X292780Y13041D01*
Y12244D01*
X292264D01*
Y9409D01*
X294902D01*
Y12244D01*
X294386D01*
Y13347D01*
X294902D01*
Y14965D01*
X295163Y15173D01*
X295650Y14957D01*
Y13347D01*
X296575D01*
Y14764D01*
Y16460D01*
X296499Y16643D01*
X297005Y17149D01*
X297095Y17284D01*
X298287D01*
Y20118D01*
X297771D01*
Y23701D01*
X297771Y23701D01*
X297710Y24008D01*
X297536Y24269D01*
X294741Y27064D01*
X294480Y27238D01*
X294173Y27299D01*
X289803D01*
Y27815D01*
D02*
G37*
G36*
X119528Y22697D02*
X118504D01*
Y21772D01*
X119528D01*
Y22697D01*
D02*
G37*
G36*
X117717D02*
X116693D01*
Y21772D01*
X117717D01*
Y22697D01*
D02*
G37*
G36*
X115591D02*
X114567D01*
Y21772D01*
X115591D01*
Y22697D01*
D02*
G37*
G36*
X113779D02*
X112756D01*
Y21772D01*
X113779D01*
Y22697D01*
D02*
G37*
G36*
X144744Y21260D02*
X143819D01*
Y20236D01*
X144744D01*
Y21260D01*
D02*
G37*
G36*
X143032D02*
X142106D01*
Y20236D01*
X143032D01*
Y21260D01*
D02*
G37*
G36*
X189075Y20177D02*
X188575Y20177D01*
X188386D01*
Y18602D01*
Y17028D01*
X188878D01*
X189378Y17028D01*
X190847D01*
Y17898D01*
X197776D01*
Y17284D01*
X199727D01*
X199918Y16822D01*
X199278Y16181D01*
X197776D01*
Y15567D01*
X197075D01*
X196948Y15757D01*
X196492Y16062D01*
X195955Y16169D01*
X195417Y16062D01*
X194961Y15757D01*
X194890Y15650D01*
X194390Y15650D01*
Y15650D01*
X191240D01*
Y13878D01*
X194390D01*
Y13878D01*
X194890Y13878D01*
X194961Y13770D01*
X195417Y13466D01*
X195955Y13359D01*
X196492Y13466D01*
X196948Y13770D01*
X197075Y13961D01*
X197776D01*
Y13347D01*
X198292D01*
Y12244D01*
X197776D01*
Y9409D01*
X200413D01*
Y12244D01*
X199897D01*
Y13347D01*
X200413D01*
Y14965D01*
X200675Y15173D01*
X201161Y14957D01*
Y13347D01*
X202087D01*
Y14764D01*
Y16460D01*
X202011Y16643D01*
X202517Y17149D01*
X202607Y17284D01*
X203799D01*
Y20118D01*
X201161D01*
Y18247D01*
X201146Y18169D01*
Y18161D01*
X200913Y17978D01*
X200413Y18210D01*
Y20118D01*
X197776D01*
Y19504D01*
X190847D01*
Y20177D01*
X189378D01*
X189075Y20177D01*
D02*
G37*
G36*
X119528Y20984D02*
X118504D01*
Y20059D01*
X119528D01*
Y20984D01*
D02*
G37*
G36*
X117717D02*
X116693D01*
Y20059D01*
X117717D01*
Y20984D01*
D02*
G37*
G36*
X115591D02*
X114567D01*
Y20059D01*
X115591D01*
Y20984D01*
D02*
G37*
G36*
X113779D02*
X112756D01*
Y20059D01*
X113779D01*
Y20984D01*
D02*
G37*
G36*
X251043Y20118D02*
X250118D01*
Y19094D01*
X251043D01*
Y20118D01*
D02*
G37*
G36*
X249331D02*
X248406D01*
Y19094D01*
X249331D01*
Y20118D01*
D02*
G37*
G36*
X144744Y19134D02*
X143819D01*
Y18110D01*
X144744D01*
Y19134D01*
D02*
G37*
G36*
X143032D02*
X142106D01*
Y18110D01*
X143032D01*
Y19134D01*
D02*
G37*
G36*
X251043Y18307D02*
X250118D01*
Y17284D01*
X251043D01*
Y18307D01*
D02*
G37*
G36*
X249331D02*
X248406D01*
Y17284D01*
X249331D01*
Y18307D01*
D02*
G37*
G36*
X144744Y17323D02*
X143819D01*
Y16299D01*
X144744D01*
Y17323D01*
D02*
G37*
G36*
X143032D02*
X142106D01*
Y16299D01*
X143032D01*
Y17323D01*
D02*
G37*
G36*
X240591Y27815D02*
X237756D01*
Y25177D01*
X240591D01*
Y25693D01*
X243250D01*
X245536Y23408D01*
Y20118D01*
X245020D01*
Y17284D01*
X245536D01*
Y16181D01*
X245020D01*
Y15567D01*
X244320D01*
X244192Y15757D01*
X243737Y16062D01*
X243199Y16169D01*
X242661Y16062D01*
X242205Y15757D01*
X242134Y15650D01*
X241634Y15650D01*
Y15650D01*
X238484D01*
Y13878D01*
X241634D01*
Y13878D01*
X242134Y13878D01*
X242205Y13770D01*
X242661Y13466D01*
X243199Y13359D01*
X243737Y13466D01*
X244192Y13770D01*
X244320Y13961D01*
X245020D01*
Y13347D01*
X247657D01*
Y16181D01*
X247141D01*
Y17284D01*
X247657D01*
Y20118D01*
X247141D01*
Y23740D01*
X247141Y23740D01*
X247080Y24047D01*
X246906Y24308D01*
X246906Y24308D01*
X244150Y27064D01*
X243890Y27238D01*
X243583Y27299D01*
X240591D01*
Y27815D01*
D02*
G37*
G36*
X203799Y16181D02*
X202874D01*
Y15157D01*
X203799D01*
Y16181D01*
D02*
G37*
G36*
X226083Y15650D02*
X224902D01*
Y15157D01*
X226083D01*
Y15650D01*
D02*
G37*
G36*
X178839D02*
X177657D01*
Y15157D01*
X178839D01*
Y15650D01*
D02*
G37*
G36*
X273327D02*
X272146D01*
Y15157D01*
X273327D01*
Y15650D01*
D02*
G37*
G36*
X271358D02*
X270177D01*
Y15157D01*
X271358D01*
Y15650D01*
D02*
G37*
G36*
X176870D02*
X175689D01*
Y15157D01*
X176870D01*
Y15650D01*
D02*
G37*
G36*
X224114D02*
X222933D01*
Y15157D01*
X224114D01*
Y15650D01*
D02*
G37*
G36*
X251043Y16181D02*
X250118D01*
Y15157D01*
X251043D01*
Y16181D01*
D02*
G37*
G36*
X249331D02*
X248406D01*
Y15157D01*
X249331D01*
Y16181D01*
D02*
G37*
G36*
X298287D02*
X297362D01*
Y15157D01*
X298287D01*
Y16181D01*
D02*
G37*
G36*
X273327Y14370D02*
X272146D01*
Y13878D01*
X273327D01*
Y14370D01*
D02*
G37*
G36*
X271358D02*
X270177D01*
Y13878D01*
X271358D01*
Y14370D01*
D02*
G37*
G36*
X226083D02*
X224902D01*
Y13878D01*
X226083D01*
Y14370D01*
D02*
G37*
G36*
X224114D02*
X222933D01*
Y13878D01*
X224114D01*
Y14370D01*
D02*
G37*
G36*
X178839D02*
X177657D01*
Y13878D01*
X178839D01*
Y14370D01*
D02*
G37*
G36*
X176870D02*
X175689D01*
Y13878D01*
X176870D01*
Y14370D01*
D02*
G37*
G36*
X298287Y14370D02*
X297362D01*
Y13347D01*
X298287D01*
Y14370D01*
D02*
G37*
G36*
X251043Y14370D02*
X250118D01*
Y13347D01*
X251043D01*
Y14370D01*
D02*
G37*
G36*
X249331D02*
X248406D01*
Y13347D01*
X249331D01*
Y14370D01*
D02*
G37*
G36*
X203799Y14370D02*
X202874D01*
Y13347D01*
X203799D01*
Y14370D01*
D02*
G37*
G36*
X284941Y16240D02*
X279921D01*
Y12205D01*
X284941D01*
Y16240D01*
D02*
G37*
G36*
X190453D02*
X185433D01*
Y12205D01*
X190453D01*
Y16240D01*
D02*
G37*
G36*
X237697D02*
X232677D01*
Y12205D01*
X237697D01*
Y16240D01*
D02*
G37*
G36*
X231890D02*
X226870D01*
Y12205D01*
X231890D01*
Y16240D01*
D02*
G37*
G36*
X184646D02*
X179626D01*
Y12205D01*
X184646D01*
Y16240D01*
D02*
G37*
G36*
X279134D02*
X274114D01*
Y12205D01*
X279134D01*
Y16240D01*
D02*
G37*
G36*
X203799Y12244D02*
X202874D01*
Y11220D01*
X203799D01*
Y12244D01*
D02*
G37*
G36*
X202087D02*
X201161D01*
Y11220D01*
X202087D01*
Y12244D01*
D02*
G37*
G36*
X251043D02*
X250118D01*
Y11220D01*
X251043D01*
Y12244D01*
D02*
G37*
G36*
X249331D02*
X248406D01*
Y11220D01*
X249331D01*
Y12244D01*
D02*
G37*
G36*
X298287D02*
X297362D01*
Y11220D01*
X298287D01*
Y12244D01*
D02*
G37*
G36*
X296575D02*
X295650D01*
Y11220D01*
X296575D01*
Y12244D01*
D02*
G37*
G36*
X247657D02*
X245020D01*
Y11630D01*
X244327D01*
X244020Y11569D01*
X243759Y11394D01*
X243759Y11394D01*
X243570Y11205D01*
X243199Y11279D01*
X242661Y11172D01*
X242205Y10868D01*
X241901Y10412D01*
X241850Y10155D01*
X241687Y9845D01*
X241310Y9744D01*
X238484D01*
Y7972D01*
X241634D01*
Y8118D01*
X242421D01*
X242728Y8179D01*
X242989Y8354D01*
X243120Y8485D01*
X243199Y8469D01*
X243737Y8576D01*
X244192Y8881D01*
X244497Y9336D01*
X244520Y9451D01*
X245020Y9409D01*
Y9409D01*
X247657D01*
Y12244D01*
D02*
G37*
G36*
X298287Y10433D02*
X297362D01*
Y9409D01*
X298287D01*
Y10433D01*
D02*
G37*
G36*
X296575D02*
X295650D01*
Y9409D01*
X296575D01*
Y10433D01*
D02*
G37*
G36*
X251043Y10433D02*
X250118D01*
Y9409D01*
X251043D01*
Y10433D01*
D02*
G37*
G36*
X249331D02*
X248406D01*
Y9409D01*
X249331D01*
Y10433D01*
D02*
G37*
G36*
X203799Y10433D02*
X202874D01*
Y9409D01*
X203799D01*
Y10433D01*
D02*
G37*
G36*
X202087D02*
X201161D01*
Y9409D01*
X202087D01*
Y10433D01*
D02*
G37*
G36*
X226083Y9744D02*
X224902D01*
Y9252D01*
X226083D01*
Y9744D01*
D02*
G37*
G36*
X178839D02*
X177657D01*
Y9252D01*
X178839D01*
Y9744D01*
D02*
G37*
G36*
X273327D02*
X272146D01*
Y9252D01*
X273327D01*
Y9744D01*
D02*
G37*
G36*
X271358D02*
X270177D01*
Y9252D01*
X271358D01*
Y9744D01*
D02*
G37*
G36*
X176870D02*
X175689D01*
Y9252D01*
X176870D01*
Y9744D01*
D02*
G37*
G36*
X224114D02*
X222933D01*
Y9252D01*
X224114D01*
Y9744D01*
D02*
G37*
G36*
X273327Y8465D02*
X272146D01*
Y7972D01*
X273327D01*
Y8465D01*
D02*
G37*
G36*
X271358D02*
X270177D01*
Y7972D01*
X271358D01*
Y8465D01*
D02*
G37*
G36*
X226083D02*
X224902D01*
Y7972D01*
X226083D01*
Y8465D01*
D02*
G37*
G36*
X224114D02*
X222933D01*
Y7972D01*
X224114D01*
Y8465D01*
D02*
G37*
G36*
X178839D02*
X177657D01*
Y7972D01*
X178839D01*
Y8465D01*
D02*
G37*
G36*
X176870D02*
X175689D01*
Y7972D01*
X176870D01*
Y8465D01*
D02*
G37*
G36*
X284941Y11417D02*
X279921D01*
Y7382D01*
X284941D01*
Y11417D01*
D02*
G37*
G36*
X279134D02*
X274114D01*
Y7382D01*
X279134D01*
Y11417D01*
D02*
G37*
G36*
X237697D02*
X232677D01*
Y7382D01*
X237697D01*
Y11417D01*
D02*
G37*
G36*
X231890D02*
X226870D01*
Y7382D01*
X231890D01*
Y11417D01*
D02*
G37*
G36*
X190453D02*
X185433D01*
Y7382D01*
X190453D01*
Y11417D01*
D02*
G37*
G36*
X184646D02*
X179626D01*
Y7382D01*
X184646D01*
Y11417D01*
D02*
G37*
G36*
X203799Y8307D02*
X202874D01*
Y7283D01*
X203799D01*
Y8307D01*
D02*
G37*
G36*
X202087D02*
X201161D01*
Y7283D01*
X202087D01*
Y8307D01*
D02*
G37*
G36*
X298287D02*
X297362D01*
Y7283D01*
X298287D01*
Y8307D01*
D02*
G37*
G36*
X296575D02*
X295650D01*
Y7283D01*
X296575D01*
Y8307D01*
D02*
G37*
G36*
X188878Y6594D02*
X188878Y6594D01*
X187106Y6594D01*
X186606Y6594D01*
X185138Y6594D01*
X184638Y6594D01*
X183169D01*
Y6594D01*
X182972D01*
Y6594D01*
X182669Y6594D01*
X181504D01*
X181201Y6594D01*
Y6594D01*
X181004D01*
Y6594D01*
X179232D01*
Y5822D01*
X178148D01*
X178021Y6013D01*
X177565Y6318D01*
X177028Y6425D01*
X176490Y6318D01*
X176034Y6013D01*
X175730Y5557D01*
X175623Y5020D01*
X175730Y4482D01*
X176034Y4026D01*
X176490Y3722D01*
X177028Y3615D01*
X177565Y3722D01*
X178021Y4026D01*
X178148Y4217D01*
X179232D01*
Y3445D01*
X180334D01*
X180719Y2945D01*
X180682Y2756D01*
X180789Y2218D01*
X181093Y1763D01*
X181284Y1635D01*
Y1043D01*
X180669D01*
Y-1595D01*
X183504D01*
Y1043D01*
X182889D01*
Y1635D01*
X183080Y1763D01*
X183385Y2218D01*
X183492Y2756D01*
X183454Y2945D01*
X183839Y3445D01*
X184941Y3445D01*
X185441Y3445D01*
X186909Y3445D01*
X187409Y3445D01*
X188878D01*
Y3445D01*
X189075D01*
Y3445D01*
X190847D01*
Y4217D01*
X194549D01*
X196806Y1960D01*
Y-44D01*
X196537Y-447D01*
X196430Y-984D01*
X196537Y-1522D01*
X196841Y-1978D01*
X197297Y-2282D01*
X197835Y-2389D01*
X198372Y-2282D01*
X198828Y-1978D01*
X199133Y-1522D01*
X199240Y-984D01*
X199133Y-447D01*
X198828Y9D01*
X198412Y288D01*
Y2293D01*
X198350Y2600D01*
X198176Y2861D01*
X195450Y5587D01*
X195189Y5761D01*
X194882Y5822D01*
X190847D01*
Y6594D01*
X189075D01*
Y6594D01*
X188878D01*
D02*
G37*
G36*
X279429D02*
Y6594D01*
X277658Y6594D01*
X277157Y6594D01*
X275689D01*
Y6594D01*
X275492D01*
Y6594D01*
X273721D01*
Y3821D01*
X273667Y3777D01*
X273129Y3670D01*
X272674Y3365D01*
X272369Y2910D01*
X272262Y2372D01*
X272317Y2094D01*
X272160Y1937D01*
X271986Y1677D01*
X271925Y1369D01*
Y1043D01*
X271220D01*
Y-1595D01*
X274055D01*
Y1043D01*
X274055Y1043D01*
X274205Y1074D01*
X274586Y1329D01*
X274776Y1361D01*
X275105Y1309D01*
X275157Y1043D01*
X275157D01*
Y-1595D01*
X277992D01*
Y1043D01*
X277992D01*
X278032Y1376D01*
X278309Y1432D01*
X278567Y1412D01*
X278708Y1318D01*
X279095Y1043D01*
X279095Y798D01*
Y-1595D01*
X281929D01*
Y1043D01*
X281118D01*
Y1625D01*
X281237Y1736D01*
X281579Y1918D01*
X281582Y1916D01*
X281890Y1855D01*
X283003D01*
X283233Y1498D01*
X283032Y1043D01*
X283032D01*
Y-1595D01*
X285866D01*
Y1043D01*
X285774D01*
X285770Y1047D01*
X285552Y1543D01*
X285747Y1834D01*
X285854Y2372D01*
X285747Y2910D01*
X285442Y3365D01*
X285335Y3445D01*
Y4217D01*
X286281D01*
X286408Y4026D01*
X286864Y3722D01*
X287402Y3615D01*
X287939Y3722D01*
X288395Y4026D01*
X288700Y4482D01*
X288807Y5020D01*
X288700Y5557D01*
X288395Y6013D01*
X287939Y6318D01*
X287402Y6425D01*
X286864Y6318D01*
X286408Y6013D01*
X286281Y5822D01*
X285335D01*
Y6594D01*
X283563D01*
Y6594D01*
X283366D01*
Y6594D01*
X281594D01*
Y6594D01*
X281398D01*
Y6594D01*
X281095Y6594D01*
X279626D01*
Y6594D01*
X279429D01*
D02*
G37*
G36*
X298287Y6496D02*
X297362D01*
Y5472D01*
X298287D01*
Y6496D01*
D02*
G37*
G36*
X296575D02*
X295650D01*
Y5472D01*
X296575D01*
Y6496D01*
D02*
G37*
G36*
X288878Y9744D02*
X285728D01*
Y7972D01*
X288676D01*
X288925Y7922D01*
X289218Y7613D01*
X289273Y7336D01*
X289577Y6881D01*
X290033Y6576D01*
X290571Y6469D01*
X290842Y6523D01*
X291042Y6322D01*
X291303Y6148D01*
X291610Y6087D01*
X291610Y6087D01*
X292264D01*
Y5472D01*
X294902D01*
Y8307D01*
X292264D01*
Y8307D01*
X291831Y8469D01*
X291564Y8867D01*
X291108Y9172D01*
X290571Y9279D01*
X290392Y9243D01*
X290209Y9426D01*
X289949Y9600D01*
X289642Y9661D01*
X288878D01*
Y9744D01*
D02*
G37*
G36*
X203799Y6496D02*
X202874D01*
Y5472D01*
X203799D01*
Y6496D01*
D02*
G37*
G36*
X202087D02*
X201161D01*
Y5472D01*
X202087D01*
Y6496D01*
D02*
G37*
G36*
X195955Y10263D02*
X195417Y10156D01*
X194961Y9852D01*
X194890Y9745D01*
X194390Y9744D01*
Y9744D01*
X191240D01*
Y7972D01*
X194390D01*
Y7972D01*
X194890Y7972D01*
X194961Y7865D01*
X195417Y7560D01*
X195935Y7457D01*
X196882Y6510D01*
X197142Y6336D01*
X197449Y6275D01*
X197776Y5938D01*
Y5472D01*
X200413D01*
Y8307D01*
X197776D01*
Y8307D01*
X197758Y8300D01*
X197320Y8660D01*
X197360Y8858D01*
X197253Y9396D01*
X196948Y9852D01*
X196492Y10156D01*
X195955Y10263D01*
D02*
G37*
G36*
X251043Y8307D02*
X248406D01*
Y5472D01*
X248922D01*
Y4731D01*
X248845Y4654D01*
X247544D01*
X247465Y4747D01*
X247399Y4844D01*
X247358Y4872D01*
X247225Y5028D01*
X247372Y5472D01*
X247657D01*
Y8307D01*
X245020D01*
Y8025D01*
X244685Y7693D01*
X244378Y7632D01*
X244117Y7457D01*
X244117Y7457D01*
X242482Y5822D01*
X238090D01*
Y6594D01*
X236319D01*
Y6594D01*
X236122D01*
Y6594D01*
X234653D01*
X234350Y6594D01*
X233850Y6594D01*
X232685D01*
X232382Y6594D01*
Y6594D01*
X232185D01*
Y6594D01*
X230413D01*
X230413Y6594D01*
X230217D01*
Y6594D01*
X229913Y6594D01*
X228445Y6594D01*
X227945Y6594D01*
X226476D01*
Y3501D01*
X226369Y3429D01*
X226064Y2973D01*
X225957Y2435D01*
X226064Y1898D01*
X226301Y1543D01*
X226180Y1182D01*
X226080Y1043D01*
X225945D01*
Y-1595D01*
X228780D01*
Y1043D01*
X228645D01*
X228544Y1182D01*
X228423Y1543D01*
X228660Y1898D01*
X228682Y2008D01*
X229192D01*
X229214Y1898D01*
X229518Y1442D01*
X229564Y1412D01*
X229882Y1043D01*
Y-1595D01*
X232716D01*
Y357D01*
X233178Y548D01*
X233819Y-92D01*
Y-1595D01*
X236396D01*
X236653Y-1595D01*
X237072Y-1792D01*
X237195Y-1978D01*
X237651Y-2282D01*
X238189Y-2389D01*
X238727Y-2282D01*
X239182Y-1978D01*
X239310Y-1787D01*
X252226D01*
X252353Y-1978D01*
X252809Y-2282D01*
X253346Y-2389D01*
X253884Y-2282D01*
X254340Y-1978D01*
X254644Y-1522D01*
X254751Y-984D01*
X254644Y-447D01*
X254340Y9D01*
X253884Y314D01*
X253346Y421D01*
X252809Y314D01*
X252353Y9D01*
X252226Y-181D01*
X239310D01*
X239182Y9D01*
X238992Y137D01*
Y1203D01*
X238931Y1510D01*
X238757Y1771D01*
X238757Y1771D01*
X238007Y2520D01*
Y3445D01*
X238090D01*
Y4217D01*
X242815D01*
X243122Y4278D01*
X243383Y4452D01*
X244520Y5589D01*
X245020Y5472D01*
D01*
X245381Y5399D01*
X245519Y4916D01*
X245413Y4844D01*
X245108Y4389D01*
X245001Y3851D01*
X245108Y3313D01*
X245413Y2857D01*
X245868Y2553D01*
X246406Y2446D01*
X246944Y2553D01*
X247399Y2857D01*
X247527Y3048D01*
X249177D01*
X249484Y3109D01*
X249745Y3283D01*
X250292Y3831D01*
X250292Y3831D01*
X250466Y4091D01*
X250527Y4398D01*
Y5472D01*
X251043D01*
Y8307D01*
D02*
G37*
G36*
X277992Y-2342D02*
X276969D01*
Y-3268D01*
X277992D01*
Y-2342D01*
D02*
G37*
G36*
X274055D02*
X273031D01*
Y-3268D01*
X274055D01*
Y-2342D01*
D02*
G37*
G36*
X228780D02*
X227756D01*
Y-3268D01*
X228780D01*
Y-2342D01*
D02*
G37*
G36*
X232716D02*
X231693D01*
Y-3268D01*
X232716D01*
Y-2342D01*
D02*
G37*
G36*
X281929D02*
X280906D01*
Y-3268D01*
X281929D01*
Y-2342D01*
D02*
G37*
G36*
X236653D02*
X235630D01*
Y-3268D01*
X236653D01*
Y-2342D01*
D02*
G37*
G36*
X285866D02*
X284842D01*
Y-3268D01*
X285866D01*
Y-2342D01*
D02*
G37*
G36*
X183504D02*
X182480D01*
Y-3268D01*
X183504D01*
Y-2342D01*
D02*
G37*
G36*
X234842D02*
X233819D01*
Y-3268D01*
X234842D01*
Y-2342D01*
D02*
G37*
G36*
X284055D02*
X283032D01*
Y-3268D01*
X284055D01*
Y-2342D01*
D02*
G37*
G36*
X181693D02*
X180669D01*
Y-3268D01*
X181693D01*
Y-2342D01*
D02*
G37*
G36*
X230906D02*
X229882D01*
Y-3268D01*
X230906D01*
Y-2342D01*
D02*
G37*
G36*
X280118D02*
X279095D01*
Y-3268D01*
X280118D01*
Y-2342D01*
D02*
G37*
G36*
X272244D02*
X271220D01*
Y-3268D01*
X272244D01*
Y-2342D01*
D02*
G37*
G36*
X276181D02*
X275157D01*
Y-3268D01*
X276181D01*
Y-2342D01*
D02*
G37*
G36*
X226969D02*
X225945D01*
Y-3268D01*
X226969D01*
Y-2342D01*
D02*
G37*
G36*
X285866Y-4055D02*
X284842D01*
Y-4980D01*
X285866D01*
Y-4055D01*
D02*
G37*
G36*
X284055D02*
X283032D01*
Y-4980D01*
X284055D01*
Y-4055D01*
D02*
G37*
G36*
X281929D02*
X280906D01*
Y-4980D01*
X281929D01*
Y-4055D01*
D02*
G37*
G36*
X280118D02*
X279095D01*
Y-4980D01*
X280118D01*
Y-4055D01*
D02*
G37*
G36*
X277992D02*
X276969D01*
Y-4980D01*
X277992D01*
Y-4055D01*
D02*
G37*
G36*
X276181D02*
X275157D01*
Y-4980D01*
X276181D01*
Y-4055D01*
D02*
G37*
G36*
X274055D02*
X273031D01*
Y-4980D01*
X274055D01*
Y-4055D01*
D02*
G37*
G36*
X272244D02*
X271220D01*
Y-4980D01*
X272244D01*
Y-4055D01*
D02*
G37*
G36*
X236653D02*
X235630D01*
Y-4980D01*
X236653D01*
Y-4055D01*
D02*
G37*
G36*
X234842D02*
X233819D01*
Y-4980D01*
X234842D01*
Y-4055D01*
D02*
G37*
G36*
X232716D02*
X231693D01*
Y-4980D01*
X232716D01*
Y-4055D01*
D02*
G37*
G36*
X230906D02*
X229882D01*
Y-4980D01*
X230906D01*
Y-4055D01*
D02*
G37*
G36*
X228780D02*
X227756D01*
Y-4980D01*
X228780D01*
Y-4055D01*
D02*
G37*
G36*
X226969D02*
X225945D01*
Y-4980D01*
X226969D01*
Y-4055D01*
D02*
G37*
G36*
X183504D02*
X182480D01*
Y-4980D01*
X183504D01*
Y-4055D01*
D02*
G37*
G36*
X181693D02*
X180669D01*
Y-4980D01*
X181693D01*
Y-4055D01*
D02*
G37*
%LPD*%
D11*
X52165Y122047D02*
Y122559D01*
Y114173D02*
X58661D01*
X52165Y113661D02*
Y114173D01*
X193307Y81634D02*
X196850Y85177D01*
X238189Y-984D02*
X253346D01*
X237205Y2188D02*
Y5020D01*
Y2188D02*
X238189Y1203D01*
Y-984D02*
Y1203D01*
X229429Y3633D02*
X231299Y1763D01*
X229429Y3633D02*
Y4921D01*
X233268Y1595D02*
Y5020D01*
X197609Y-758D02*
Y2293D01*
X194882Y5020D02*
X197609Y2293D01*
X189961Y5020D02*
X194882D01*
X197609Y-758D02*
X197835Y-984D01*
X195955Y14764D02*
X199094D01*
X192815D02*
X195955D01*
Y8573D02*
Y8858D01*
X287402Y5020D02*
X287539D01*
X284449D02*
X287402D01*
X242421Y8921D02*
X244327Y10827D01*
X243199Y14764D02*
X246339D01*
X240059D02*
X243199D01*
X246406Y3851D02*
X249177D01*
X249724Y4398D01*
X195955Y8573D02*
X197449Y7078D01*
X242815Y5020D02*
X244685Y6890D01*
X237205Y5020D02*
X242815D01*
X244685Y6890D02*
X246339D01*
X308661Y72783D02*
Y76531D01*
X65236Y82579D02*
Y82677D01*
X58780Y130197D02*
X61732D01*
X62992Y128937D01*
Y121358D02*
Y128937D01*
X61713Y120079D02*
X62992Y121358D01*
X58661Y120079D02*
X61713D01*
X143504Y72638D02*
X147835Y76968D01*
X141831Y83102D02*
X142981Y84252D01*
X149016Y76479D02*
Y82508D01*
X111319Y72638D02*
X143504D01*
X147272Y84252D02*
X149016Y82508D01*
X124291Y75807D02*
X126279Y73819D01*
X96555Y71457D02*
X143993D01*
X149016Y76479D01*
X126279Y73819D02*
X143015D01*
X144882Y75686D01*
X142981Y84252D02*
X147272D01*
X92795Y75217D02*
X96555Y71457D01*
X108543Y75413D02*
X111319Y72638D01*
X141831Y79398D02*
Y83102D01*
X138583Y78937D02*
X138583Y78937D01*
X141369D01*
X141831Y79398D01*
X147835Y76968D02*
Y82019D01*
X147373Y82480D02*
X147835Y82019D01*
X144882Y82480D02*
X147373D01*
X92795Y75217D02*
Y78740D01*
X144882Y75686D02*
Y78937D01*
X124291Y75807D02*
Y78740D01*
X108543Y75413D02*
Y78740D01*
X98215Y41535D02*
X106102D01*
X96614Y55000D02*
Y56653D01*
Y52953D02*
Y55000D01*
X100000Y57087D02*
X100118D01*
X187992Y5020D02*
X189961D01*
X282480D02*
X284449D01*
X235236D02*
X237205D01*
X47894Y74902D02*
X50689D01*
X45098D02*
X47894D01*
X177028Y5020D02*
X180118D01*
Y20997D02*
Y23110D01*
Y18602D02*
Y20997D01*
X289642Y8858D02*
X291610Y6890D01*
X286614Y63917D02*
X291339D01*
X281890D02*
X286614D01*
X127569Y90463D02*
X131309D01*
X249724Y4398D02*
Y6890D01*
X192815Y8858D02*
X195669D01*
X198906Y7078D02*
X199094Y6890D01*
X197449Y7078D02*
X198906D01*
X179134Y49744D02*
X182677D01*
X78740Y39370D02*
X79060D01*
X78740Y59055D02*
X80709D01*
X79626Y37500D02*
X91535D01*
X78740Y35433D02*
X78893Y35586D01*
Y36767D01*
X79626Y37500D01*
X79060Y39370D02*
X79749Y38681D01*
X90020D01*
X81791Y57972D02*
X90253D01*
X80709Y59055D02*
X81791Y57972D01*
X81693Y56791D02*
X89764D01*
X78740Y55118D02*
X78844Y55222D01*
X80124D01*
X81693Y56791D01*
X90253Y57972D02*
X92677Y55548D01*
X89764Y56791D02*
X90709Y55847D01*
X92677Y52953D02*
Y55548D01*
X90709Y52953D02*
Y55847D01*
X100118Y37402D02*
Y39632D01*
Y57087D02*
X103032D01*
X98215Y41535D02*
X100118Y39632D01*
X96614Y41535D02*
X98215D01*
X90709Y39370D02*
Y41535D01*
X90020Y38681D02*
X90709Y39370D01*
X91535Y37500D02*
X92677Y38642D01*
Y41535D01*
X96732Y33563D02*
Y37402D01*
X94646Y38425D02*
Y41535D01*
X96242Y37892D02*
X96732Y37402D01*
X94646Y38425D02*
X95179Y37892D01*
X96242D01*
X129921Y19685D02*
X133465D01*
Y16142D02*
X138465D01*
X131496D02*
X133465D01*
Y18110D02*
X136555D01*
X140039Y17618D02*
Y17717D01*
X139508Y17087D02*
X140039Y17618D01*
X139409Y17087D02*
X139508D01*
X138465Y16142D02*
X139409Y17087D01*
X140039Y17717D02*
Y21654D01*
X110236Y14902D02*
Y17992D01*
X114173Y14902D02*
Y17992D01*
X122638Y21260D02*
X126378D01*
X121358Y19980D02*
X122638Y21260D01*
X120551Y17992D02*
X121358Y18799D01*
Y19980D01*
X123721Y19685D02*
X126378D01*
X122539Y14173D02*
Y18504D01*
X123721Y19685D01*
X121358Y12992D02*
X122539Y14173D01*
X118110Y17992D02*
X120551D01*
X108268Y12992D02*
X121358D01*
X110236Y21378D02*
Y24902D01*
X112697Y27362D01*
X106299Y21378D02*
Y25394D01*
X109449Y28543D01*
X106299Y14961D02*
Y17992D01*
Y14961D02*
X108268Y12992D01*
X126378Y13453D02*
Y16544D01*
X112697Y27362D02*
X127362D01*
X109449Y28543D02*
X127854D01*
X127362Y27362D02*
X128347Y26378D01*
X129921Y23228D02*
Y26476D01*
X127854Y28543D02*
X129921Y26476D01*
X128347Y23228D02*
Y26378D01*
X110177Y47244D02*
Y54764D01*
X113287Y57874D02*
X147736D01*
X110177Y54764D02*
X113287Y57874D01*
X147736D02*
X150197Y55413D01*
Y38681D02*
Y55413D01*
X148425Y36909D02*
X150197Y38681D01*
X136417Y36909D02*
X148425D01*
X133465Y33957D02*
X136417Y36909D01*
X133465Y21260D02*
Y33957D01*
X135630Y47244D02*
X144429D01*
X131496Y43110D02*
X135630Y47244D01*
X131496Y23228D02*
Y43110D01*
X128347Y16142D02*
X129921D01*
X126839D02*
X128347D01*
X126378Y16603D02*
Y18110D01*
Y16603D02*
X126839Y16142D01*
X126319Y18051D02*
X126378Y18110D01*
X59449Y78740D02*
X65236D01*
Y82579D02*
X68090Y79724D01*
Y79272D02*
Y79724D01*
Y79272D02*
X68622Y78740D01*
X135945Y82441D02*
X138543D01*
X133898D02*
X135945D01*
X310937Y32685D02*
Y36425D01*
X304161Y32677D02*
Y36425D01*
X296969Y18701D02*
Y23701D01*
X294173Y26496D02*
X296969Y23701D01*
X288386Y26496D02*
X294173D01*
X284449Y23110D02*
X288386D01*
X246339Y18701D02*
Y23740D01*
X243583Y26496D02*
X246339Y23740D01*
X239173Y26496D02*
X243583D01*
X143425Y118110D02*
Y129921D01*
X293583Y10827D02*
Y14665D01*
X290571Y14000D02*
X292590D01*
X288552D02*
X290571D01*
X230374Y22284D02*
X231201Y23110D01*
X230147Y22057D02*
X230374Y22284D01*
X227362Y20965D02*
Y23110D01*
Y18602D02*
Y20965D01*
X235138Y23110D02*
X235236D01*
X233592Y21565D02*
X235138Y23110D01*
X233592Y21191D02*
Y21565D01*
X233366Y20965D02*
X233592Y21191D01*
X233317Y20915D02*
X233366Y20965D01*
X233317Y18652D02*
Y20915D01*
X233268Y18602D02*
X233317Y18652D01*
X231201Y23110D02*
X231299D01*
X230147Y21082D02*
Y22057D01*
X229921Y20537D02*
Y20856D01*
X230147Y21082D01*
X229429Y20045D02*
X229921Y20537D01*
X229429Y18701D02*
Y20045D01*
X229331Y18602D02*
X229429Y18701D01*
X279043Y20693D02*
Y21012D01*
X279134Y20965D02*
X279360Y21191D01*
Y22057D02*
X280413Y23110D01*
X279360Y21191D02*
Y22057D01*
X278642Y20292D02*
X279043Y20693D01*
X276575Y20965D02*
Y23110D01*
Y18602D02*
Y20965D01*
X272855D02*
Y22893D01*
Y20353D02*
Y20965D01*
X278642Y18701D02*
Y20292D01*
X281379Y20955D02*
X282254D01*
X282480Y21181D01*
X280512Y18602D02*
X280610Y18701D01*
Y20186D01*
X281379Y20955D01*
X284350Y23110D02*
X284449D01*
X282480Y21240D02*
X284350Y23110D01*
X282480Y21181D02*
Y21240D01*
X280413Y23110D02*
X280512D01*
X278543Y18602D02*
X278642Y18701D01*
X272638Y23110D02*
X272855Y22893D01*
Y20353D02*
X273819Y19390D01*
X274508D01*
X274606Y19291D01*
Y18602D02*
Y19291D01*
X58780Y31309D02*
Y35335D01*
Y27283D02*
Y31309D01*
X60925Y41339D02*
X61713Y42126D01*
X58661Y41339D02*
X60925D01*
X61713Y42126D02*
Y50394D01*
X58780Y51457D02*
X60650D01*
X61713Y50394D01*
X180118Y20997D02*
X180131D01*
X182185Y20128D02*
X183589Y21532D01*
X182185Y18701D02*
Y20128D01*
X182087Y18602D02*
X182185Y18701D01*
X182087Y-276D02*
Y5020D01*
X183589Y21532D02*
Y22644D01*
X184055Y23110D01*
X138583Y88976D02*
Y92716D01*
X274803Y42658D02*
X278346Y46201D01*
X231299Y-276D02*
Y1763D01*
X229331Y5020D02*
X229429Y4921D01*
X267717Y35571D02*
X271260Y39114D01*
X260630Y35571D02*
X264173Y39114D01*
X278543Y4331D02*
X279252Y3622D01*
X278543Y4331D02*
Y5020D01*
X279503Y2486D02*
X280315Y1673D01*
X279252Y2687D02*
Y3622D01*
Y2687D02*
X279478Y2461D01*
X272728Y-186D02*
Y1369D01*
X272638Y-276D02*
X272728Y-186D01*
Y1369D02*
X274606Y3248D01*
X276575Y-276D02*
Y2372D01*
Y5020D01*
X283988Y2657D02*
X284449Y2196D01*
X280315Y-79D02*
X280512Y-276D01*
X280315Y-79D02*
Y1673D01*
X280610Y3937D02*
X281890Y2657D01*
X284449Y-276D02*
Y2196D01*
X281890Y2657D02*
X283988D01*
X280512Y5020D02*
X280610Y4921D01*
Y3937D02*
Y4921D01*
X274606Y3248D02*
Y5020D01*
X183268Y105807D02*
X186811Y109350D01*
X182677Y120610D02*
X186221Y124153D01*
X182677Y99350D02*
X186221Y102894D01*
X182677Y92264D02*
X186221Y95807D01*
X186221Y39114D02*
X189764Y42658D01*
Y35571D02*
X193307Y39114D01*
X196850Y35571D02*
X200394Y39114D01*
X203937Y35571D02*
X207480Y39114D01*
X211024Y35571D02*
X214567Y39114D01*
X253543Y42658D02*
X257087Y46201D01*
X260630Y42658D02*
X264173Y46201D01*
X267717Y42658D02*
X271260Y46201D01*
X281890Y42658D02*
X285433Y46201D01*
X274803Y35571D02*
X278346Y39114D01*
X284291Y54429D02*
X307776D01*
X308966Y52125D02*
X309244Y51846D01*
X308966Y52125D02*
Y53239D01*
X307776Y54429D02*
X308966Y53239D01*
X302075Y52240D02*
X302468Y51846D01*
X302075Y52240D02*
Y52787D01*
X301613Y53248D02*
X302075Y52787D01*
X284154Y53248D02*
X301613D01*
X282615Y51709D02*
X284154Y53248D01*
X281890Y49744D02*
X282615Y50469D01*
Y51709D01*
X281890Y56831D02*
X284291Y54429D01*
X127677Y129921D02*
X131417D01*
X144882Y88976D02*
Y92716D01*
Y96260D02*
Y100000D01*
X111929Y129921D02*
X111954Y129896D01*
X115644D01*
X115669Y129871D01*
X138583Y96260D02*
Y100000D01*
X111821Y90463D02*
X115561D01*
X95965Y90354D02*
X99705D01*
X143425Y110236D02*
X147165D01*
X137992Y125787D02*
X141732D01*
X127677Y118110D02*
X131417D01*
X111929D02*
X115669D01*
X96181Y129921D02*
X99921D01*
X96181Y118110D02*
X99921D01*
X173228Y116909D02*
X202677D01*
X203937Y113524D02*
Y115650D01*
X202677Y116909D02*
X203937Y115650D01*
X211024Y46949D02*
Y49744D01*
X174705Y46260D02*
X210335D01*
X211024Y46949D01*
X173228Y53130D02*
X202677D01*
X203937Y51870D01*
Y49744D02*
Y51870D01*
X173228Y47736D02*
Y49744D01*
Y47736D02*
X174705Y46260D01*
X45000Y74803D02*
Y78740D01*
X50689Y74902D02*
X50787Y75000D01*
X45000Y74803D02*
X45098Y74902D01*
X59449Y82480D02*
X59547Y82579D01*
X65138D02*
X65236Y82677D01*
X58780Y23898D02*
Y27283D01*
X58661Y35433D02*
X58681D01*
X58780Y35335D01*
X133858Y82402D02*
X133898Y82441D01*
X138543D02*
X138583Y82480D01*
X140039Y118110D02*
X140148Y118219D01*
Y122136D01*
X140256Y122244D01*
X140039Y114173D02*
Y118110D01*
Y110236D02*
Y114173D01*
X124400Y122136D02*
X124508Y122244D01*
X124400Y118219D02*
Y122136D01*
X124291Y118110D02*
X124400Y118219D01*
X124291Y127480D02*
Y129921D01*
Y127480D02*
X125984Y125787D01*
X127677Y129921D02*
Y133858D01*
X108543Y110236D02*
Y114173D01*
Y118110D01*
X108652Y122136D02*
X108760Y122244D01*
X108652Y118219D02*
Y122136D01*
X108543Y118110D02*
X108652Y118219D01*
X108543Y127480D02*
Y129921D01*
Y127480D02*
X110236Y125787D01*
X111929Y129921D02*
Y133858D01*
X96181Y129921D02*
Y133858D01*
X92795Y127480D02*
X94488Y125787D01*
X92795Y127480D02*
Y129921D01*
Y118110D02*
X92904Y118219D01*
Y122136D01*
X93012Y122244D01*
X92795Y114173D02*
Y118110D01*
Y110236D02*
Y114173D01*
X127677Y94488D02*
Y98425D01*
X127461Y90354D02*
X127569Y90463D01*
Y94380D01*
X127677Y94488D01*
Y82677D02*
Y85118D01*
X125984Y86811D02*
X127677Y85118D01*
Y78740D02*
Y82677D01*
X111929Y94488D02*
Y98425D01*
X111713Y90354D02*
X111821Y90463D01*
Y94380D01*
X111929Y94488D01*
Y82677D02*
Y85118D01*
X110236Y86811D02*
X111929Y85118D01*
Y78740D02*
Y82677D01*
X96181Y78740D02*
Y82677D01*
X94488Y86811D02*
X96181Y85118D01*
Y82677D02*
Y85118D01*
X96073Y94380D02*
X96181Y94488D01*
X96073Y90463D02*
Y94380D01*
X95965Y90354D02*
X96073Y90463D01*
X96181Y94488D02*
Y98425D01*
X293583Y14665D02*
Y14764D01*
X293051Y14134D02*
X293583Y14665D01*
X287992Y14764D02*
X288090Y14665D01*
Y14461D02*
Y14665D01*
Y14461D02*
X288552Y14000D01*
X287303Y14764D02*
X287992D01*
X292590Y14000D02*
X292724Y14134D01*
X293051D01*
X304744Y81622D02*
X304921Y81445D01*
X304744Y81622D02*
Y86323D01*
X304567Y86500D02*
X304744Y86323D01*
X308661Y66996D02*
Y72783D01*
X304921Y66996D02*
X308661D01*
X307659Y36533D02*
Y48195D01*
X307551Y36425D02*
X307659Y36533D01*
Y48195D02*
X307768Y48303D01*
X300884Y36533D02*
Y48195D01*
X300776Y36425D02*
X300884Y36533D01*
Y48195D02*
X300992Y48303D01*
X276575Y5020D02*
X276575Y5020D01*
X291610Y6890D02*
X293583D01*
X287303Y8858D02*
X289642D01*
X293583Y14764D02*
Y14862D01*
X296437Y17717D01*
Y18169D01*
X296969Y18701D01*
X284449Y18602D02*
X284547Y18701D01*
X293583D01*
X237205Y18602D02*
Y21240D01*
X239075Y23110D01*
X239173D01*
X244327Y10827D02*
X246339D01*
X240122Y8921D02*
X242421D01*
X240059Y8858D02*
X240122Y8921D01*
X246339Y14764D02*
Y18701D01*
X233268Y1595D02*
X235138Y-276D01*
X235236D01*
X227362Y5020D02*
X227362Y5020D01*
X227362Y-276D02*
Y5020D01*
X199094Y14764D02*
Y14862D01*
X201949Y17717D01*
Y18169D01*
X202480Y18701D01*
X190059D02*
X199094D01*
X189961Y18602D02*
X190059Y18701D01*
X199094Y10827D02*
Y14764D01*
X58780Y122146D02*
Y126811D01*
X58681Y122047D02*
X58780Y122146D01*
X58661Y122047D02*
X58681D01*
D14*
X46831Y120079D02*
X53543D01*
X44134Y122776D02*
X46831Y120079D01*
X52165Y126500D02*
Y126835D01*
X92795Y35433D02*
X92871Y35358D01*
Y35146D02*
Y35358D01*
Y35146D02*
X94552Y33465D01*
X59547Y82579D02*
X62343D01*
X94552Y33465D02*
X96732D01*
X6693Y82480D02*
X10396D01*
X2953D02*
X6693D01*
X0D02*
X2953D01*
X6693Y75000D02*
X10396D01*
X11319Y75923D01*
Y81558D01*
X10396Y82480D02*
X11319Y81558D01*
X301181Y69890D02*
Y72783D01*
Y66996D02*
Y69890D01*
X62343Y82579D02*
X65138D01*
X52165Y47760D02*
X52476Y48071D01*
X39370Y27559D02*
X49299D01*
X23622D02*
X39370D01*
X31496Y81840D02*
X34252D01*
X27559D02*
X31496D01*
X47894Y82579D02*
X50689D01*
X45098D02*
X47894D01*
X39370Y44035D02*
X44134D01*
X46831Y41339D01*
X53543D01*
X39370Y34705D02*
X44134D01*
X46831Y37402D01*
X53543D01*
X23622Y51181D02*
X49079D01*
X306831Y112547D02*
Y133031D01*
X262992Y140453D02*
X299409D01*
X306831Y133031D01*
X260630Y134783D02*
Y138091D01*
X262992Y140453D01*
X301831Y112547D02*
Y127795D01*
X294843Y134783D02*
X301831Y127795D01*
X274803Y134783D02*
X294843D01*
X267717Y127697D02*
X274803D01*
X267717Y134783D02*
X274803D01*
X267717Y127697D02*
Y134783D01*
X260630Y127697D02*
Y134783D01*
X45000Y82677D02*
X45098Y82579D01*
X50689D02*
X50787Y82480D01*
X23622Y81840D02*
X27559D01*
X16929Y82480D02*
X22982D01*
X23622Y81840D01*
X301181Y81445D02*
Y86500D01*
X306831Y105905D02*
Y108610D01*
Y112547D01*
X301831Y108610D02*
Y112547D01*
Y105905D02*
Y108610D01*
X307480Y99900D02*
Y104673D01*
X301181Y99900D02*
Y104673D01*
Y86500D02*
Y93699D01*
X307480D01*
X296500Y86500D02*
X301181D01*
X52476Y48071D02*
X55394D01*
Y51457D01*
X58780D02*
Y54843D01*
X58720Y48012D02*
X58780Y48071D01*
X58720Y43701D02*
Y48012D01*
X52165Y43701D02*
Y47760D01*
X49079Y51181D02*
X52165Y48094D01*
Y47760D02*
Y48094D01*
X49299Y27559D02*
X52165Y30425D01*
Y35039D01*
X46831Y116142D02*
X53543D01*
X44134Y113445D02*
X46831Y116142D01*
X39370Y113445D02*
X44134D01*
X39370Y122776D02*
X44134D01*
X52165Y126500D02*
X52476Y126811D01*
X55394D02*
Y130197D01*
X58780D02*
Y133583D01*
D16*
X144882Y78937D02*
D03*
X138583D02*
D03*
Y82480D02*
D03*
X144882D02*
D03*
Y92716D02*
D03*
X138583D02*
D03*
Y96260D02*
D03*
X144882D02*
D03*
X59449Y78740D02*
D03*
Y82480D02*
D03*
Y75000D02*
D03*
X50787D02*
D03*
Y78740D02*
D03*
Y82480D02*
D03*
X6693D02*
D03*
Y78740D02*
D03*
Y75000D02*
D03*
X16929D02*
D03*
Y82480D02*
D03*
D17*
X52165Y43307D02*
D03*
Y41339D02*
D03*
Y37402D02*
D03*
Y35433D02*
D03*
Y122047D02*
D03*
Y120079D02*
D03*
Y116142D02*
D03*
Y114173D02*
D03*
D18*
X52953Y39370D02*
D03*
Y118110D02*
D03*
D19*
X58661Y35433D02*
D03*
Y37402D02*
D03*
Y39370D02*
D03*
Y41339D02*
D03*
Y43307D02*
D03*
X287303Y14764D02*
D03*
X271752D02*
D03*
Y8858D02*
D03*
X287303D02*
D03*
X58661Y114173D02*
D03*
Y116142D02*
D03*
Y118110D02*
D03*
Y120079D02*
D03*
Y122047D02*
D03*
X192815Y14764D02*
D03*
X177264D02*
D03*
Y8858D02*
D03*
X192815D02*
D03*
X240059Y14764D02*
D03*
X224508D02*
D03*
Y8858D02*
D03*
X240059D02*
D03*
D20*
X284449Y18602D02*
D03*
X282480D02*
D03*
X280512D02*
D03*
X278543D02*
D03*
X276575D02*
D03*
X274606D02*
D03*
Y5020D02*
D03*
X276575D02*
D03*
X278543D02*
D03*
X280512D02*
D03*
X282480D02*
D03*
X284449D02*
D03*
X189961Y18602D02*
D03*
X187992D02*
D03*
X186024D02*
D03*
X184055D02*
D03*
X182087D02*
D03*
X180118D02*
D03*
Y5020D02*
D03*
X182087D02*
D03*
X184055D02*
D03*
X186024D02*
D03*
X187992D02*
D03*
X189961D02*
D03*
X237205Y18602D02*
D03*
X235236D02*
D03*
X233268D02*
D03*
X231299D02*
D03*
X229331D02*
D03*
X227362D02*
D03*
Y5020D02*
D03*
X229331D02*
D03*
X231299D02*
D03*
X233268D02*
D03*
X235236D02*
D03*
X237205D02*
D03*
D21*
X279528Y11811D02*
D03*
X185039D02*
D03*
X232283D02*
D03*
D22*
X96181Y118110D02*
D03*
X92795D02*
D03*
X58780Y23898D02*
D03*
X55394D02*
D03*
X306831Y108610D02*
D03*
X310216D02*
D03*
X306831Y112547D02*
D03*
X310216D02*
D03*
X301831Y108610D02*
D03*
X298445D02*
D03*
X301831Y112547D02*
D03*
X298445D02*
D03*
X68622Y82677D02*
D03*
X65236D02*
D03*
X45000Y74803D02*
D03*
X41614D02*
D03*
Y82677D02*
D03*
X45000D02*
D03*
X310937Y44299D02*
D03*
X307551D02*
D03*
X304161D02*
D03*
X300776D02*
D03*
X199094Y14764D02*
D03*
X202480D02*
D03*
X199094Y10827D02*
D03*
X202480D02*
D03*
X199094Y6890D02*
D03*
X202480D02*
D03*
X246339Y18701D02*
D03*
X249724D02*
D03*
X246339Y14764D02*
D03*
X249724D02*
D03*
X246339Y10827D02*
D03*
X249724D02*
D03*
X293583Y14764D02*
D03*
X296969D02*
D03*
X293583Y10827D02*
D03*
X296969D02*
D03*
X293583Y6890D02*
D03*
X296969D02*
D03*
X143425Y114173D02*
D03*
X140039D02*
D03*
Y129921D02*
D03*
X143425D02*
D03*
X124291Y133858D02*
D03*
X127677D02*
D03*
X111929Y114173D02*
D03*
X108543D02*
D03*
Y133858D02*
D03*
X111929D02*
D03*
X96181Y114173D02*
D03*
X92795D02*
D03*
Y133858D02*
D03*
X96181D02*
D03*
X140039Y17717D02*
D03*
X143425D02*
D03*
X108543Y98425D02*
D03*
X111929D02*
D03*
X108543Y82677D02*
D03*
X111929D02*
D03*
X124291Y98425D02*
D03*
X127677D02*
D03*
X124291Y82677D02*
D03*
X127677D02*
D03*
X92795Y98425D02*
D03*
X96181D02*
D03*
X92795Y82677D02*
D03*
X96181D02*
D03*
X96732Y33465D02*
D03*
X100118D02*
D03*
X55394Y126811D02*
D03*
X58780D02*
D03*
X55394Y130197D02*
D03*
X58780D02*
D03*
Y133583D02*
D03*
X55394D02*
D03*
Y48071D02*
D03*
X58780D02*
D03*
X55394Y51457D02*
D03*
X58780D02*
D03*
Y27283D02*
D03*
X55394D02*
D03*
X58780Y54843D02*
D03*
X55394D02*
D03*
X304567Y86500D02*
D03*
X301181D02*
D03*
X65236Y78740D02*
D03*
X68622D02*
D03*
X45000D02*
D03*
X41614D02*
D03*
X221551Y151894D02*
D03*
X218165D02*
D03*
X310937Y36425D02*
D03*
X307551D02*
D03*
X304161D02*
D03*
X300776D02*
D03*
X307551Y40362D02*
D03*
X310937D02*
D03*
X300776D02*
D03*
X304161D02*
D03*
X202480Y18701D02*
D03*
X199094D02*
D03*
X249724Y6890D02*
D03*
X246339D02*
D03*
X296969Y18701D02*
D03*
X293583D02*
D03*
X143425Y118110D02*
D03*
X140039D02*
D03*
X143425Y110236D02*
D03*
X140039D02*
D03*
X127677Y129921D02*
D03*
X124291D02*
D03*
X111929D02*
D03*
X108543D02*
D03*
Y110236D02*
D03*
X111929D02*
D03*
X92795D02*
D03*
X96181D02*
D03*
X140039Y21654D02*
D03*
X143425D02*
D03*
X108543Y78740D02*
D03*
X111929D02*
D03*
Y94488D02*
D03*
X108543D02*
D03*
X124291Y78740D02*
D03*
X127677D02*
D03*
Y94488D02*
D03*
X124291D02*
D03*
X92795Y78740D02*
D03*
X96181D02*
D03*
Y94488D02*
D03*
X92795D02*
D03*
X100118Y57087D02*
D03*
X96732D02*
D03*
Y37402D02*
D03*
X100118D02*
D03*
X96181Y129921D02*
D03*
X92795D02*
D03*
X127677Y118110D02*
D03*
X124291D02*
D03*
X111929D02*
D03*
X108543D02*
D03*
D23*
X128347Y16142D02*
D03*
X129921D02*
D03*
X131496D02*
D03*
Y23228D02*
D03*
X129921D02*
D03*
X128347D02*
D03*
X96614Y41535D02*
D03*
X90709D02*
D03*
X92677D02*
D03*
X94646D02*
D03*
X96614Y52953D02*
D03*
X90709D02*
D03*
X92677D02*
D03*
X94646D02*
D03*
D24*
X133465Y18110D02*
D03*
Y19685D02*
D03*
Y21260D02*
D03*
X126378D02*
D03*
Y19685D02*
D03*
Y18110D02*
D03*
D25*
X129921Y19685D02*
D03*
D26*
X110177Y47244D02*
D03*
X144429D02*
D03*
D27*
X39370Y44035D02*
D03*
Y34705D02*
D03*
Y122776D02*
D03*
Y113445D02*
D03*
D28*
X210165Y151894D02*
D03*
Y155280D02*
D03*
X41339Y106024D02*
D03*
Y102638D02*
D03*
X45276D02*
D03*
Y106024D02*
D03*
Y133583D02*
D03*
Y130197D02*
D03*
X41339D02*
D03*
Y133583D02*
D03*
X41339Y27283D02*
D03*
Y23898D02*
D03*
X45276D02*
D03*
Y27283D02*
D03*
X41339Y54843D02*
D03*
Y51457D02*
D03*
X45276D02*
D03*
Y54843D02*
D03*
X308661Y66996D02*
D03*
Y63610D02*
D03*
X301181D02*
D03*
Y66996D02*
D03*
X296500Y83114D02*
D03*
Y86500D02*
D03*
X0Y79094D02*
D03*
Y82480D02*
D03*
X27559Y81840D02*
D03*
Y78455D02*
D03*
X31496D02*
D03*
Y81840D02*
D03*
X291339Y63917D02*
D03*
Y60532D02*
D03*
X225551Y151894D02*
D03*
Y155280D02*
D03*
X214665Y151894D02*
D03*
Y155280D02*
D03*
X180118Y23110D02*
D03*
Y26496D02*
D03*
X184055Y23110D02*
D03*
Y26496D02*
D03*
X182087Y-276D02*
D03*
Y-3661D02*
D03*
X227362Y23110D02*
D03*
Y26496D02*
D03*
X231299Y23110D02*
D03*
Y26496D02*
D03*
X235236Y23110D02*
D03*
Y26496D02*
D03*
X227362Y-276D02*
D03*
Y-3661D02*
D03*
X231299Y-276D02*
D03*
Y-3661D02*
D03*
X235236Y-276D02*
D03*
Y-3661D02*
D03*
X272638Y23110D02*
D03*
Y26496D02*
D03*
X276575Y23110D02*
D03*
Y26496D02*
D03*
X280512Y23110D02*
D03*
Y26496D02*
D03*
X284449Y23110D02*
D03*
Y26496D02*
D03*
X272638Y-276D02*
D03*
Y-3661D02*
D03*
X276575Y-276D02*
D03*
Y-3661D02*
D03*
X280512Y-276D02*
D03*
Y-3661D02*
D03*
X284449Y-276D02*
D03*
Y-3661D02*
D03*
X114173Y17992D02*
D03*
Y21378D02*
D03*
X118110Y17992D02*
D03*
Y21378D02*
D03*
X110236D02*
D03*
Y17992D02*
D03*
X106299D02*
D03*
Y21378D02*
D03*
X133858Y79016D02*
D03*
Y82402D02*
D03*
X230551Y151894D02*
D03*
Y155280D02*
D03*
X304921Y66996D02*
D03*
Y63610D02*
D03*
X173228Y113524D02*
D03*
Y116909D02*
D03*
Y49744D02*
D03*
Y53130D02*
D03*
X239173Y26496D02*
D03*
Y23110D02*
D03*
X288386Y26496D02*
D03*
Y23110D02*
D03*
D29*
X301181Y99900D02*
D03*
Y93699D02*
D03*
X23622Y75640D02*
D03*
Y81840D02*
D03*
X307480Y99900D02*
D03*
Y93699D02*
D03*
D30*
X274803Y134783D02*
D03*
X281890Y127697D02*
D03*
X274803D02*
D03*
X281890Y113524D02*
D03*
Y120610D02*
D03*
X267717Y127697D02*
D03*
X274803Y120610D02*
D03*
X267717Y134783D02*
D03*
X274803Y113524D02*
D03*
X267717Y120610D02*
D03*
X281890Y106437D02*
D03*
Y99350D02*
D03*
X274803Y106437D02*
D03*
X281890Y85177D02*
D03*
Y92264D02*
D03*
X267717Y106437D02*
D03*
X274803Y99350D02*
D03*
X267717Y113524D02*
D03*
X274803Y92264D02*
D03*
X267717Y99350D02*
D03*
X253543Y134783D02*
D03*
X260630D02*
D03*
X246457D02*
D03*
X260630Y127697D02*
D03*
X253543D02*
D03*
X239370Y134783D02*
D03*
X246457Y127697D02*
D03*
X232283Y134783D02*
D03*
X239370Y127697D02*
D03*
X225197D02*
D03*
X260630Y120610D02*
D03*
Y113524D02*
D03*
X253543Y120610D02*
D03*
X267717Y85177D02*
D03*
Y92264D02*
D03*
X246457Y120610D02*
D03*
X232283Y127697D02*
D03*
X239370Y120610D02*
D03*
X232283D02*
D03*
X281890Y71004D02*
D03*
Y63917D02*
D03*
Y78091D02*
D03*
X274803D02*
D03*
Y71004D02*
D03*
Y85177D02*
D03*
Y63917D02*
D03*
X267717Y71004D02*
D03*
X281890Y56831D02*
D03*
Y49744D02*
D03*
X274803Y56831D02*
D03*
X281890Y42658D02*
D03*
X274803Y35571D02*
D03*
X267717Y56831D02*
D03*
X274803Y49744D02*
D03*
X267717Y63917D02*
D03*
X274803Y42658D02*
D03*
X267717Y35571D02*
D03*
Y78091D02*
D03*
Y49744D02*
D03*
X260630Y56831D02*
D03*
Y42658D02*
D03*
Y49744D02*
D03*
X246457D02*
D03*
X253543D02*
D03*
X232283D02*
D03*
X253543Y42658D02*
D03*
X239370Y49744D02*
D03*
X267717Y42658D02*
D03*
X260630Y35571D02*
D03*
X246457Y42658D02*
D03*
X253543Y35571D02*
D03*
X246457D02*
D03*
X239370Y42658D02*
D03*
X232283D02*
D03*
X239370Y35571D02*
D03*
X232283D02*
D03*
X218110Y134783D02*
D03*
X225197D02*
D03*
X211024D02*
D03*
X218110Y127697D02*
D03*
X211024D02*
D03*
X203937Y134783D02*
D03*
Y127697D02*
D03*
X196850Y134783D02*
D03*
X218110Y120610D02*
D03*
X225197D02*
D03*
X211024D02*
D03*
X203937Y113524D02*
D03*
Y120610D02*
D03*
X196850D02*
D03*
Y99350D02*
D03*
Y127697D02*
D03*
Y85177D02*
D03*
Y92264D02*
D03*
X189764Y127697D02*
D03*
Y120610D02*
D03*
Y134783D02*
D03*
X196850Y106437D02*
D03*
Y113524D02*
D03*
X182677Y127697D02*
D03*
Y120610D02*
D03*
X189764Y113524D02*
D03*
X182677D02*
D03*
X189764Y99350D02*
D03*
Y92264D02*
D03*
Y106437D02*
D03*
X196850Y78091D02*
D03*
X189764Y85177D02*
D03*
X182677Y99350D02*
D03*
Y106437D02*
D03*
Y85177D02*
D03*
Y92264D02*
D03*
X218110Y49744D02*
D03*
X225197D02*
D03*
X203937Y56831D02*
D03*
X225197Y42658D02*
D03*
X211024Y49744D02*
D03*
X196850Y56831D02*
D03*
X203937Y49744D02*
D03*
X196850Y71004D02*
D03*
X218110Y42658D02*
D03*
X225197Y35571D02*
D03*
X211024Y42658D02*
D03*
X218110Y35571D02*
D03*
X211024D02*
D03*
X203937D02*
D03*
Y42658D02*
D03*
X189764Y71004D02*
D03*
X196850Y63917D02*
D03*
X189764Y78091D02*
D03*
Y56831D02*
D03*
Y63917D02*
D03*
X182677Y71004D02*
D03*
Y63917D02*
D03*
Y78091D02*
D03*
X196850Y49744D02*
D03*
Y42658D02*
D03*
X189764Y49744D02*
D03*
X196850Y35571D02*
D03*
X189764D02*
D03*
X182677Y49744D02*
D03*
Y56831D02*
D03*
X189764Y42658D02*
D03*
X182677D02*
D03*
D31*
X93661Y47244D02*
D03*
D32*
X198071Y146776D02*
D03*
Y157012D02*
D03*
X23622Y51181D02*
D03*
X3937D02*
D03*
X23622Y106299D02*
D03*
X3937D02*
D03*
X23622Y129921D02*
D03*
X3937D02*
D03*
X23622Y27559D02*
D03*
X3937D02*
D03*
D33*
X203976Y151894D02*
D03*
D34*
X313681Y104673D02*
D03*
X307480D02*
D03*
X294980D02*
D03*
X301181D02*
D03*
D35*
X307768Y48303D02*
D03*
X310720D02*
D03*
X300992D02*
D03*
X303945D02*
D03*
X140256Y122244D02*
D03*
X143209D02*
D03*
X124508D02*
D03*
X127461D02*
D03*
X108760D02*
D03*
X111713D02*
D03*
X93012D02*
D03*
X95965D02*
D03*
X111713Y90354D02*
D03*
X108760D02*
D03*
X127461D02*
D03*
X124508D02*
D03*
X95965D02*
D03*
X93012D02*
D03*
D36*
X309244Y51846D02*
D03*
X302468D02*
D03*
X141732Y125787D02*
D03*
X125984D02*
D03*
X110236D02*
D03*
X94488D02*
D03*
X110236Y86811D02*
D03*
X125984D02*
D03*
X94488D02*
D03*
D37*
X304921Y81445D02*
D03*
X301181D02*
D03*
X308661D02*
D03*
Y72783D02*
D03*
X304921D02*
D03*
X301181D02*
D03*
D62*
X165228Y-7874D02*
D03*
X169165D02*
D03*
X173102D02*
D03*
X177039D02*
D03*
X180976D02*
D03*
X263653D02*
D03*
X267590D02*
D03*
X271528D02*
D03*
X275465D02*
D03*
X279402D02*
D03*
X283339D02*
D03*
X287276D02*
D03*
X291213D02*
D03*
X295150D02*
D03*
X299087D02*
D03*
X303024D02*
D03*
X306961D02*
D03*
X259717D02*
D03*
X255780D02*
D03*
X251842D02*
D03*
X247905D02*
D03*
X243969D02*
D03*
X240032D02*
D03*
X236094D02*
D03*
X232157D02*
D03*
X228221D02*
D03*
X224284D02*
D03*
X220346D02*
D03*
X216409D02*
D03*
X212472D02*
D03*
X208535D02*
D03*
X204598D02*
D03*
X200661D02*
D03*
X196724D02*
D03*
X192787D02*
D03*
X188850D02*
D03*
X184913D02*
D03*
X23496D02*
D03*
X27433D02*
D03*
X31370D02*
D03*
X35307D02*
D03*
X39244D02*
D03*
X121921D02*
D03*
X125858D02*
D03*
X129795D02*
D03*
X133732D02*
D03*
X137669D02*
D03*
X141606D02*
D03*
X145543D02*
D03*
X149480D02*
D03*
X153417D02*
D03*
X157354D02*
D03*
X161291D02*
D03*
X117984D02*
D03*
X114047D02*
D03*
X110110D02*
D03*
X106173D02*
D03*
X102236D02*
D03*
X98299D02*
D03*
X94362D02*
D03*
X90425D02*
D03*
X86488D02*
D03*
X82551D02*
D03*
X78614D02*
D03*
X74677D02*
D03*
X70740D02*
D03*
X66803D02*
D03*
X62866D02*
D03*
X58929D02*
D03*
X54992D02*
D03*
X51055D02*
D03*
X47118D02*
D03*
X43181D02*
D03*
X11685D02*
D03*
X15622D02*
D03*
X19559D02*
D03*
X7748D02*
D03*
X307213Y165354D02*
D03*
X295402D02*
D03*
X299339D02*
D03*
X303276D02*
D03*
X271779D02*
D03*
X267843D02*
D03*
X263906D02*
D03*
X259968D02*
D03*
X256031D02*
D03*
X252095D02*
D03*
X248158D02*
D03*
X244220D02*
D03*
X240283D02*
D03*
X236347D02*
D03*
X232410D02*
D03*
X228472D02*
D03*
X224535D02*
D03*
X220598D02*
D03*
X216661D02*
D03*
X212724D02*
D03*
X208787D02*
D03*
X204850D02*
D03*
X200913D02*
D03*
X196976D02*
D03*
X153669D02*
D03*
X157606D02*
D03*
X161543D02*
D03*
X165480D02*
D03*
X169417D02*
D03*
X173354D02*
D03*
X177291D02*
D03*
X181228D02*
D03*
X185165D02*
D03*
X189102D02*
D03*
X193039D02*
D03*
X275716D02*
D03*
X279654D02*
D03*
X283591D02*
D03*
X287528D02*
D03*
X291465D02*
D03*
X130047D02*
D03*
X126110D02*
D03*
X122173D02*
D03*
X118236D02*
D03*
X114299D02*
D03*
X110362D02*
D03*
X106425D02*
D03*
X102488D02*
D03*
X98551D02*
D03*
X94614D02*
D03*
X90677D02*
D03*
X86740D02*
D03*
X82803D02*
D03*
X78866D02*
D03*
X74929D02*
D03*
X70992D02*
D03*
X67055D02*
D03*
X63118D02*
D03*
X59181D02*
D03*
X55244D02*
D03*
X8000D02*
D03*
X11937D02*
D03*
X15874D02*
D03*
X19811D02*
D03*
X23748D02*
D03*
X27685D02*
D03*
X31622D02*
D03*
X35559D02*
D03*
X39496D02*
D03*
X43433D02*
D03*
X47370D02*
D03*
X51307D02*
D03*
X133984D02*
D03*
X137921D02*
D03*
X141858D02*
D03*
X145795D02*
D03*
X149732D02*
D03*
X322835Y129921D02*
D03*
Y125984D02*
D03*
Y122047D02*
D03*
Y118110D02*
D03*
Y114173D02*
D03*
Y110236D02*
D03*
Y106299D02*
D03*
Y102362D02*
D03*
Y98425D02*
D03*
Y94488D02*
D03*
Y90551D02*
D03*
Y86614D02*
D03*
Y82677D02*
D03*
Y78740D02*
D03*
Y74803D02*
D03*
Y70866D02*
D03*
Y66929D02*
D03*
Y62992D02*
D03*
Y59055D02*
D03*
Y55118D02*
D03*
Y7874D02*
D03*
Y11811D02*
D03*
Y15748D02*
D03*
Y19685D02*
D03*
Y23622D02*
D03*
Y27559D02*
D03*
Y31496D02*
D03*
Y35433D02*
D03*
Y39370D02*
D03*
Y43307D02*
D03*
Y47244D02*
D03*
Y51181D02*
D03*
Y133858D02*
D03*
Y137795D02*
D03*
Y141732D02*
D03*
Y145669D02*
D03*
Y149606D02*
D03*
X-7874Y7874D02*
D03*
Y11811D02*
D03*
Y15748D02*
D03*
Y19685D02*
D03*
Y23622D02*
D03*
Y106299D02*
D03*
Y110236D02*
D03*
Y114173D02*
D03*
Y118110D02*
D03*
Y122047D02*
D03*
Y125984D02*
D03*
Y129921D02*
D03*
Y133858D02*
D03*
Y137795D02*
D03*
Y141732D02*
D03*
Y145669D02*
D03*
Y149606D02*
D03*
Y102362D02*
D03*
Y98425D02*
D03*
Y94488D02*
D03*
Y90551D02*
D03*
Y86614D02*
D03*
Y82677D02*
D03*
Y78740D02*
D03*
Y74803D02*
D03*
Y70866D02*
D03*
Y66929D02*
D03*
Y62992D02*
D03*
Y59055D02*
D03*
Y55118D02*
D03*
Y51181D02*
D03*
Y47244D02*
D03*
Y43307D02*
D03*
Y39370D02*
D03*
Y35433D02*
D03*
Y31496D02*
D03*
Y27559D02*
D03*
D64*
X246457Y139677D02*
G03*
X234240Y151894I-12217J0D01*
G01*
X246457Y134783D02*
Y139677D01*
X230551Y151894D02*
X234240D01*
X222441D02*
X230551D01*
X214665D02*
X216929D01*
X210165D02*
X214665D01*
X204724D02*
X210165D01*
D65*
X30807Y129921D02*
X49079D01*
X52165Y122559D02*
Y126500D01*
X23622Y129921D02*
X30807D01*
X39370Y106299D02*
X49299D01*
X23622D02*
X39370D01*
X52165Y109165D02*
Y113661D01*
X49299Y106299D02*
X52165Y109165D01*
X49079Y129921D02*
X52165Y126835D01*
X52476Y126811D02*
X55118D01*
D66*
X314961Y157480D02*
D03*
Y0D02*
D03*
X0Y157480D02*
D03*
Y0D02*
D03*
D67*
X59842Y70866D02*
D03*
X33268Y74803D02*
D03*
X33563Y53839D02*
D03*
X49705Y33071D02*
D03*
X34154Y21752D02*
D03*
X46850Y12795D02*
D03*
X42717Y6791D02*
D03*
X58957Y7087D02*
D03*
X66043Y18602D02*
D03*
X79528Y6988D02*
D03*
X97835Y7776D02*
D03*
X96949Y22835D02*
D03*
X156595Y24016D02*
D03*
X212598Y17815D02*
D03*
X219685Y24803D02*
D03*
X202658Y25000D02*
D03*
X242913Y2165D02*
D03*
X280118Y7677D02*
D03*
X290059Y-984D02*
D03*
X301575Y6004D02*
D03*
X301279Y29429D02*
D03*
X298721Y84055D02*
D03*
X311221Y61516D02*
D03*
X298327Y36220D02*
D03*
X298524Y46752D02*
D03*
X262795Y61910D02*
D03*
X271260Y74213D02*
D03*
X271358Y95177D02*
D03*
X258760Y106102D02*
D03*
X263090Y124213D02*
D03*
X269980Y124409D02*
D03*
X280020Y131102D02*
D03*
X290551Y130020D02*
D03*
X290256Y121850D02*
D03*
X289862Y109252D02*
D03*
X289272Y89764D02*
D03*
X288583Y71358D02*
D03*
X288878Y43898D02*
D03*
X288386Y29921D02*
D03*
X279528Y34843D02*
D03*
X263878Y28248D02*
D03*
X262303Y4921D02*
D03*
X270571Y14272D02*
D03*
X262894Y19390D02*
D03*
X237402Y29429D02*
D03*
X221850Y2362D02*
D03*
X206201Y9350D02*
D03*
X199606Y3347D02*
D03*
X174705Y1575D02*
D03*
X177362Y18701D02*
D03*
X168799Y19488D02*
D03*
X138878Y5413D02*
D03*
X168405Y6004D02*
D03*
X128839Y8661D02*
D03*
X123524Y3347D02*
D03*
X110728Y10630D02*
D03*
X136221Y23720D02*
D03*
X120768Y22441D02*
D03*
X108366Y58268D02*
D03*
X135039Y55807D02*
D03*
X141339Y61319D02*
D03*
X143602Y34646D02*
D03*
X158858Y33760D02*
D03*
X172736Y34350D02*
D03*
X183268Y35236D02*
D03*
X181595Y60335D02*
D03*
X178248Y75197D02*
D03*
X156004Y76378D02*
D03*
X146457Y70669D02*
D03*
X118405Y74803D02*
D03*
X114567Y96457D02*
D03*
X130905Y95965D02*
D03*
X122933Y102854D02*
D03*
X117224Y113681D02*
D03*
X119587Y108957D02*
D03*
X117815Y123524D02*
D03*
X147343Y117520D02*
D03*
X141535Y104429D02*
D03*
X148917Y91043D02*
D03*
X149016Y96358D02*
D03*
X141339Y86319D02*
D03*
X160630Y84744D02*
D03*
X175394Y103150D02*
D03*
X193209Y101969D02*
D03*
X220276Y100394D02*
D03*
X210433Y87500D02*
D03*
X232480Y98228D02*
D03*
X223819Y107480D02*
D03*
X205906D02*
D03*
X242815Y62500D02*
D03*
X235531Y38780D02*
D03*
X102461Y76083D02*
D03*
X105807Y49311D02*
D03*
X18110Y128740D02*
D03*
X19587Y98622D02*
D03*
X19685Y58760D02*
D03*
X19783Y33760D02*
D03*
X72047Y34350D02*
D03*
Y53543D02*
D03*
X146850Y123524D02*
D03*
X235433Y131299D02*
D03*
X200197D02*
D03*
X275590Y146063D02*
D03*
X298819Y123819D02*
D03*
X309449Y116535D02*
D03*
Y127461D02*
D03*
Y55905D02*
D03*
X308661Y27264D02*
D03*
X255906Y78740D02*
D03*
Y88779D02*
D03*
X218799Y70177D02*
D03*
X211516Y95571D02*
D03*
X193209Y95177D02*
D03*
X169193Y84941D02*
D03*
Y78445D02*
D03*
X168799Y62795D02*
D03*
X193110Y63878D02*
D03*
X303508Y160555D02*
D03*
Y89689D02*
D03*
Y77878D02*
D03*
X291697Y160555D02*
D03*
X279886D02*
D03*
X268075D02*
D03*
X244453Y113311D02*
D03*
Y89689D02*
D03*
Y77878D02*
D03*
X232642Y113311D02*
D03*
Y89689D02*
D03*
Y77878D02*
D03*
Y54256D02*
D03*
X220831Y125122D02*
D03*
X209020Y66067D02*
D03*
X185398Y136933D02*
D03*
X173586Y148744D02*
D03*
Y136933D02*
D03*
Y125122D02*
D03*
X161776Y148744D02*
D03*
Y89689D02*
D03*
Y18823D02*
D03*
X149964Y148744D02*
D03*
X138154D02*
D03*
X126342Y136933D02*
D03*
X114531Y30634D02*
D03*
X102720Y148744D02*
D03*
Y136933D02*
D03*
Y125122D02*
D03*
Y101500D02*
D03*
X90909Y148744D02*
D03*
Y125122D02*
D03*
X79098Y148744D02*
D03*
Y136933D02*
D03*
Y125122D02*
D03*
Y113311D02*
D03*
Y101500D02*
D03*
Y89689D02*
D03*
Y66067D02*
D03*
X67287Y148744D02*
D03*
Y136933D02*
D03*
Y125122D02*
D03*
Y113311D02*
D03*
Y101500D02*
D03*
Y89689D02*
D03*
X20043Y160555D02*
D03*
X8232Y148744D02*
D03*
Y136933D02*
D03*
Y113311D02*
D03*
Y101500D02*
D03*
Y89689D02*
D03*
Y66067D02*
D03*
Y42445D02*
D03*
Y18823D02*
D03*
X-3579Y136933D02*
D03*
Y125122D02*
D03*
Y77878D02*
D03*
Y66067D02*
D03*
Y54256D02*
D03*
Y42445D02*
D03*
Y30634D02*
D03*
Y18823D02*
D03*
X210039Y147736D02*
D03*
X213976D02*
D03*
X217913D02*
D03*
X221850D02*
D03*
X225787D02*
D03*
X229724D02*
D03*
X233661D02*
D03*
Y155610D02*
D03*
X221850D02*
D03*
X217913D02*
D03*
X206102Y147736D02*
D03*
Y155610D02*
D03*
X92795Y35433D02*
D03*
X186221Y39114D02*
D03*
X193307Y81634D02*
D03*
X253346Y-984D02*
D03*
X238189D02*
D03*
X233268Y2435D02*
D03*
X230512D02*
D03*
X227362D02*
D03*
X197835Y-984D02*
D03*
X195955Y14764D02*
D03*
Y8858D02*
D03*
X287402Y5020D02*
D03*
X243199Y14764D02*
D03*
X246406Y3851D02*
D03*
X243199Y9874D02*
D03*
X308661Y76531D02*
D03*
X62343Y82579D02*
D03*
X106102Y41535D02*
D03*
X103032Y57087D02*
D03*
X96614Y55000D02*
D03*
X47894Y74902D02*
D03*
X182087Y2756D02*
D03*
X177028Y5020D02*
D03*
X286614Y63917D02*
D03*
X131309Y90463D02*
D03*
X290571Y7874D02*
D03*
X179134Y49744D02*
D03*
X78740Y39370D02*
D03*
Y59055D02*
D03*
Y35433D02*
D03*
Y55118D02*
D03*
X133465Y16142D02*
D03*
X136555Y18110D02*
D03*
X110236Y14902D02*
D03*
X114173D02*
D03*
X126378Y13453D02*
D03*
X135945Y82441D02*
D03*
X30807Y129921D02*
D03*
X39370Y106299D02*
D03*
X310937Y32685D02*
D03*
X304161Y32677D02*
D03*
X2953Y82480D02*
D03*
X143405Y120276D02*
D03*
X39370Y27559D02*
D03*
X290571Y14000D02*
D03*
X301181Y69890D02*
D03*
X52165Y48094D02*
D03*
X47894Y82579D02*
D03*
X34252Y81840D02*
D03*
X227362Y20965D02*
D03*
X233366D02*
D03*
X229921D02*
D03*
X279043Y21012D02*
D03*
X282480Y21181D02*
D03*
X276575Y20965D02*
D03*
X272855D02*
D03*
X58780Y31309D02*
D03*
X180131Y20997D02*
D03*
X182887Y20984D02*
D03*
X138583Y88976D02*
D03*
X278346Y46201D02*
D03*
X257087D02*
D03*
X271260Y39114D02*
D03*
X264173D02*
D03*
X279478Y2461D02*
D03*
X273667Y2372D02*
D03*
X276575D02*
D03*
X284449D02*
D03*
X186221Y124153D02*
D03*
X186811Y109350D02*
D03*
X186221Y102894D02*
D03*
Y95807D02*
D03*
X193307Y39114D02*
D03*
X200394D02*
D03*
X207480D02*
D03*
X214567D02*
D03*
X264173Y46201D02*
D03*
X271260D02*
D03*
X285433D02*
D03*
X278346Y39114D02*
D03*
X131417Y129921D02*
D03*
X144882Y88976D02*
D03*
Y100000D02*
D03*
X115669Y129871D02*
D03*
X138583Y100000D02*
D03*
X115561Y90463D02*
D03*
X99705Y90354D02*
D03*
X147165Y110236D02*
D03*
X137992Y125787D02*
D03*
X131417Y118110D02*
D03*
X115669D02*
D03*
X99921Y129921D02*
D03*
Y118110D02*
D03*
M02*
