G04*
G04 #@! TF.GenerationSoftware,Altium Limited,Altium Designer,20.0.13 (296)*
G04*
G04 Layer_Color=8388736*
%FSLAX25Y25*%
%MOIN*%
G70*
G01*
G75*
%ADD38R,3.14961X0.03937*%
%ADD39R,0.03937X1.57480*%
%ADD40R,0.03228X0.02047*%
%ADD41R,0.03622X0.01063*%
%ADD42R,0.05197X0.01063*%
%ADD43R,0.02441X0.01063*%
%ADD44R,0.01063X0.02441*%
%ADD45R,0.10118X0.08150*%
%ADD46R,0.01929X0.02126*%
%ADD47R,0.01063X0.02047*%
%ADD48R,0.02047X0.01063*%
%ADD49R,0.04016X0.04016*%
%ADD50R,0.05197X0.13465*%
%ADD51R,0.13465X0.03937*%
%ADD52R,0.02126X0.01929*%
%ADD53R,0.03228X0.03228*%
G04:AMPARAMS|DCode=54|XSize=28.35mil|YSize=28.35mil|CornerRadius=3.15mil|HoleSize=0mil|Usage=FLASHONLY|Rotation=0.000|XOffset=0mil|YOffset=0mil|HoleType=Round|Shape=RoundedRectangle|*
%AMROUNDEDRECTD54*
21,1,0.02835,0.02205,0,0,0.0*
21,1,0.02205,0.02835,0,0,0.0*
1,1,0.00630,0.01102,-0.01102*
1,1,0.00630,-0.01102,-0.01102*
1,1,0.00630,-0.01102,0.01102*
1,1,0.00630,0.01102,0.01102*
%
%ADD54ROUNDEDRECTD54*%
%ADD55R,0.05787X0.06969*%
%ADD56R,0.07953X0.04016*%
%ADD57R,0.02441X0.04016*%
%ADD58R,0.03228X0.03228*%
%ADD59R,0.01654X0.01654*%
%ADD60R,0.01654X0.01654*%
%ADD61R,0.02047X0.03228*%
%ADD62C,0.02953*%
%ADD63C,0.19764*%
G36*
X292648Y157416D02*
X292901D01*
Y157353D01*
X293408D01*
Y157416D01*
X294042D01*
Y157353D01*
X294675D01*
Y157290D01*
X295055D01*
Y157226D01*
X295309D01*
Y157163D01*
X295372D01*
Y157099D01*
X295499D01*
Y157036D01*
X295626D01*
Y156973D01*
X295689D01*
Y156909D01*
X295752D01*
Y156846D01*
X295816D01*
Y156783D01*
X295879D01*
Y156719D01*
X295942D01*
Y156656D01*
X296006D01*
Y156593D01*
Y156529D01*
X295942D01*
Y156466D01*
Y156403D01*
X296006D01*
Y156466D01*
X296069D01*
Y156529D01*
X296132D01*
Y156466D01*
Y156403D01*
X296196D01*
Y156339D01*
Y156276D01*
X296323D01*
Y156212D01*
X296259D01*
Y156149D01*
X296386D01*
Y156086D01*
X296449D01*
Y156022D01*
Y155959D01*
Y155896D01*
X296513D01*
Y155832D01*
X296576D01*
Y155769D01*
Y155706D01*
X296639D01*
Y155642D01*
Y155579D01*
Y155516D01*
X296703D01*
Y155452D01*
Y155389D01*
X296766D01*
Y155325D01*
Y155262D01*
X296830D01*
Y155199D01*
Y155135D01*
X296893D01*
Y155072D01*
X296956D01*
Y155009D01*
Y154945D01*
X297020D01*
Y154882D01*
Y154818D01*
X297083D01*
Y154755D01*
X297146D01*
Y154692D01*
X297083D01*
Y154628D01*
X297146D01*
Y154565D01*
X297210D01*
Y154502D01*
Y154438D01*
Y154375D01*
X297273D01*
Y154312D01*
Y154248D01*
Y154185D01*
X297336D01*
Y154122D01*
Y154058D01*
Y153995D01*
Y153931D01*
Y153868D01*
X297400D01*
Y153805D01*
Y153741D01*
X298223D01*
Y153678D01*
X298160D01*
Y153615D01*
X298033D01*
Y153551D01*
X297780D01*
Y153488D01*
X298160D01*
Y153425D01*
X298097D01*
Y153361D01*
X298033D01*
Y153425D01*
X297970D01*
Y153361D01*
X297907D01*
Y153298D01*
X297463D01*
Y153235D01*
Y153171D01*
Y153108D01*
Y153044D01*
Y152981D01*
Y152918D01*
Y152854D01*
Y152791D01*
Y152728D01*
Y152664D01*
X297400D01*
Y152601D01*
Y152538D01*
Y152474D01*
Y152411D01*
X297336D01*
Y152347D01*
X297273D01*
Y152284D01*
X297336D01*
Y152221D01*
X297273D01*
Y152157D01*
X297210D01*
Y152094D01*
X297146D01*
Y152031D01*
X297210D01*
Y151967D01*
X297146D01*
Y151904D01*
Y151841D01*
X297083D01*
Y151904D01*
X297020D01*
Y151841D01*
X297083D01*
Y151777D01*
Y151714D01*
X297020D01*
Y151651D01*
X296956D01*
Y151587D01*
Y151524D01*
X296893D01*
Y151460D01*
X296766D01*
Y151397D01*
Y151334D01*
X296639D01*
Y151270D01*
X296576D01*
Y151207D01*
X296449D01*
Y151144D01*
X296259D01*
Y151080D01*
X295942D01*
Y151144D01*
X295752D01*
Y151207D01*
X295626D01*
Y151270D01*
X295562D01*
Y151334D01*
X295499D01*
Y151397D01*
X295436D01*
Y151460D01*
Y151524D01*
Y151587D01*
X295372D01*
Y151651D01*
Y151714D01*
X295309D01*
Y151777D01*
Y151841D01*
Y151904D01*
Y151967D01*
X295372D01*
Y152031D01*
X295436D01*
Y152094D01*
X295372D01*
Y152157D01*
X295436D01*
Y152221D01*
Y152284D01*
X295499D01*
Y152347D01*
X295562D01*
Y152411D01*
X295626D01*
Y152474D01*
X295816D01*
Y152411D01*
X295879D01*
Y152347D01*
Y152284D01*
X295816D01*
Y152221D01*
X295879D01*
Y152157D01*
Y152094D01*
X295816D01*
Y152031D01*
X295752D01*
Y151967D01*
Y151904D01*
Y151841D01*
X295816D01*
Y151777D01*
X295942D01*
Y151714D01*
X296132D01*
Y151777D01*
X296259D01*
Y151841D01*
X296323D01*
Y151904D01*
X296386D01*
Y151967D01*
Y152031D01*
Y152094D01*
X296449D01*
Y152157D01*
X296513D01*
Y152221D01*
X296449D01*
Y152284D01*
X296513D01*
Y152347D01*
Y152411D01*
Y152474D01*
Y152538D01*
Y152601D01*
Y152664D01*
Y152728D01*
Y152791D01*
Y152854D01*
Y152918D01*
Y152981D01*
Y153044D01*
X296576D01*
Y153108D01*
X296513D01*
Y153171D01*
Y153235D01*
X296449D01*
Y153298D01*
Y153361D01*
X296386D01*
Y153425D01*
Y153488D01*
Y153551D01*
X296323D01*
Y153615D01*
Y153678D01*
X296259D01*
Y153741D01*
Y153805D01*
X296196D01*
Y153868D01*
X295816D01*
Y153805D01*
X295626D01*
Y153868D01*
X295562D01*
Y153931D01*
X295436D01*
Y153995D01*
X295372D01*
Y154058D01*
X295245D01*
Y154122D01*
X294802D01*
Y154058D01*
X294739D01*
Y153995D01*
X294612D01*
Y153931D01*
Y153868D01*
X294422D01*
Y153805D01*
Y153741D01*
X294295D01*
Y153678D01*
X294168D01*
Y153741D01*
X294105D01*
Y153678D01*
X293978D01*
Y153741D01*
X293851D01*
Y153805D01*
X293725D01*
Y153868D01*
X293598D01*
Y153931D01*
Y153995D01*
X293535D01*
Y153931D01*
X293471D01*
Y153995D01*
X293408D01*
Y154058D01*
X293345D01*
Y154122D01*
Y154185D01*
X293408D01*
Y154248D01*
X293281D01*
Y154185D01*
Y154122D01*
X293218D01*
Y154185D01*
X293155D01*
Y154248D01*
X293091D01*
Y154312D01*
X293028D01*
Y154375D01*
X292964D01*
Y154438D01*
X292901D01*
Y154502D01*
X292838D01*
Y154565D01*
X292774D01*
Y154628D01*
Y154692D01*
X292711D01*
Y154755D01*
X292648D01*
Y154818D01*
X292584D01*
Y154882D01*
Y154945D01*
X292521D01*
Y155009D01*
X292458D01*
Y155072D01*
Y155135D01*
X292394D01*
Y155072D01*
Y155009D01*
X292458D01*
Y154945D01*
Y154882D01*
X292521D01*
Y154818D01*
Y154755D01*
X292584D01*
Y154692D01*
X292648D01*
Y154628D01*
X292711D01*
Y154565D01*
Y154502D01*
X292774D01*
Y154438D01*
X292838D01*
Y154375D01*
X292901D01*
Y154312D01*
X292964D01*
Y154248D01*
X293028D01*
Y154185D01*
X293155D01*
Y154122D01*
X293218D01*
Y154058D01*
X293281D01*
Y153995D01*
X293345D01*
Y153931D01*
X293471D01*
Y153868D01*
X293535D01*
Y153805D01*
Y153741D01*
X293661D01*
Y153678D01*
Y153615D01*
Y153551D01*
Y153488D01*
Y153425D01*
Y153361D01*
Y153298D01*
Y153235D01*
X293725D01*
Y153171D01*
Y153108D01*
Y153044D01*
Y152981D01*
Y152918D01*
Y152854D01*
Y152791D01*
Y152728D01*
X293788D01*
Y152664D01*
X293851D01*
Y152601D01*
Y152538D01*
Y152474D01*
X293915D01*
Y152411D01*
Y152347D01*
X293978D01*
Y152284D01*
Y152221D01*
Y152157D01*
Y152094D01*
Y152031D01*
X294042D01*
Y151967D01*
Y151904D01*
Y151841D01*
X294105D01*
Y151777D01*
Y151714D01*
X294042D01*
Y151651D01*
X294105D01*
Y151587D01*
X294168D01*
Y151524D01*
Y151460D01*
X294105D01*
Y151397D01*
X294168D01*
Y151334D01*
Y151270D01*
X294232D01*
Y151207D01*
Y151144D01*
Y151080D01*
X294295D01*
Y151017D01*
Y150953D01*
Y150890D01*
Y150827D01*
X294358D01*
Y150763D01*
Y150700D01*
Y150637D01*
X294422D01*
Y150573D01*
X294358D01*
Y150510D01*
X294422D01*
Y150447D01*
X294485D01*
Y150383D01*
Y150320D01*
Y150257D01*
X294549D01*
Y150193D01*
Y150130D01*
Y150066D01*
X294612D01*
Y150003D01*
X294549D01*
Y149940D01*
X294612D01*
Y149876D01*
Y149813D01*
X294675D01*
Y149750D01*
X294612D01*
Y149686D01*
X294675D01*
Y149623D01*
Y149559D01*
Y149496D01*
Y149433D01*
Y149370D01*
X294739D01*
Y149306D01*
Y149243D01*
Y149179D01*
X294802D01*
Y149116D01*
Y149053D01*
X294865D01*
Y148989D01*
Y148926D01*
X294929D01*
Y148863D01*
Y148799D01*
X294992D01*
Y148736D01*
X295055D01*
Y148672D01*
Y148609D01*
X295119D01*
Y148546D01*
X295182D01*
Y148482D01*
X295245D01*
Y148419D01*
Y148356D01*
X295182D01*
Y148292D01*
X294992D01*
Y148229D01*
X294422D01*
Y148166D01*
X294358D01*
Y148229D01*
X293915D01*
Y148292D01*
Y148356D01*
X293851D01*
Y148419D01*
Y148482D01*
Y148546D01*
Y148609D01*
X293915D01*
Y148672D01*
Y148736D01*
X293978D01*
Y148799D01*
X294042D01*
Y148863D01*
Y148926D01*
X293978D01*
Y148989D01*
Y149053D01*
Y149116D01*
X293915D01*
Y149179D01*
Y149243D01*
Y149306D01*
X293851D01*
Y149370D01*
Y149433D01*
Y149496D01*
X293788D01*
Y149559D01*
Y149623D01*
X293725D01*
Y149686D01*
Y149750D01*
X293661D01*
Y149813D01*
Y149876D01*
X293598D01*
Y149940D01*
Y150003D01*
X293535D01*
Y150066D01*
X293471D01*
Y150130D01*
Y150193D01*
X293408D01*
Y150257D01*
X293471D01*
Y150320D01*
X293345D01*
Y150383D01*
Y150447D01*
Y150510D01*
X293218D01*
Y150573D01*
Y150637D01*
X293155D01*
Y150700D01*
Y150763D01*
X293091D01*
Y150827D01*
X293028D01*
Y150890D01*
X293155D01*
Y150953D01*
X292964D01*
Y151017D01*
X292901D01*
Y151080D01*
Y151144D01*
X292838D01*
Y151207D01*
X292774D01*
Y151270D01*
X292711D01*
Y151334D01*
X292648D01*
Y151397D01*
X292584D01*
Y151460D01*
X292521D01*
Y151524D01*
X292458D01*
Y151587D01*
X292394D01*
Y151651D01*
X292331D01*
Y151714D01*
X292267D01*
Y151777D01*
X292204D01*
Y151841D01*
Y151904D01*
X292141D01*
Y151967D01*
X292077D01*
Y152031D01*
Y152094D01*
X292014D01*
Y152157D01*
X291951D01*
Y152221D01*
Y152284D01*
X291887D01*
Y152347D01*
Y152411D01*
X291824D01*
Y152474D01*
Y152538D01*
X291761D01*
Y152474D01*
Y152411D01*
X291824D01*
Y152347D01*
Y152284D01*
X291887D01*
Y152221D01*
Y152157D01*
X291951D01*
Y152094D01*
Y152031D01*
X292014D01*
Y151967D01*
X292077D01*
Y151904D01*
Y151841D01*
X292141D01*
Y151777D01*
X292204D01*
Y151714D01*
Y151651D01*
X292267D01*
Y151587D01*
Y151524D01*
Y151460D01*
Y151397D01*
X292204D01*
Y151334D01*
Y151270D01*
Y151207D01*
X292141D01*
Y151144D01*
Y151080D01*
Y151017D01*
X292077D01*
Y150953D01*
Y150890D01*
X292014D01*
Y150827D01*
Y150763D01*
Y150700D01*
X291951D01*
Y150637D01*
Y150573D01*
Y150510D01*
X291887D01*
Y150447D01*
Y150383D01*
Y150320D01*
Y150257D01*
X291824D01*
Y150193D01*
Y150130D01*
Y150066D01*
Y150003D01*
X291761D01*
Y149940D01*
Y149876D01*
Y149813D01*
X291697D01*
Y149750D01*
Y149686D01*
X291634D01*
Y149623D01*
Y149559D01*
Y149496D01*
X291570D01*
Y149433D01*
Y149370D01*
X291507D01*
Y149306D01*
Y149243D01*
Y149179D01*
Y149116D01*
Y149053D01*
X291444D01*
Y148989D01*
Y148926D01*
X291507D01*
Y148863D01*
Y148799D01*
Y148736D01*
X291570D01*
Y148672D01*
X291634D01*
Y148609D01*
X291697D01*
Y148546D01*
X291761D01*
Y148482D01*
X291824D01*
Y148419D01*
Y148356D01*
X291887D01*
Y148292D01*
Y148229D01*
Y148166D01*
X291761D01*
Y148102D01*
X290937D01*
Y148166D01*
X290747D01*
Y148102D01*
X290430D01*
Y148166D01*
X290367D01*
Y148229D01*
Y148292D01*
Y148356D01*
Y148419D01*
X290430D01*
Y148482D01*
Y148546D01*
X290493D01*
Y148609D01*
X290620D01*
Y148672D01*
Y148736D01*
Y148799D01*
X290683D01*
Y148863D01*
X290620D01*
Y148926D01*
Y148989D01*
Y149053D01*
Y149116D01*
Y149179D01*
Y149243D01*
Y149306D01*
Y149370D01*
Y149433D01*
Y149496D01*
Y149559D01*
X290683D01*
Y149623D01*
Y149686D01*
Y149750D01*
Y149813D01*
Y149876D01*
Y149940D01*
Y150003D01*
Y150066D01*
X290747D01*
Y150130D01*
Y150193D01*
Y150257D01*
Y150320D01*
Y150383D01*
X290810D01*
Y150447D01*
Y150510D01*
Y150573D01*
Y150637D01*
Y150700D01*
Y150763D01*
X290874D01*
Y150827D01*
Y150890D01*
Y150953D01*
Y151017D01*
Y151080D01*
Y151144D01*
Y151207D01*
Y151270D01*
Y151334D01*
Y151397D01*
Y151460D01*
Y151524D01*
X290937D01*
Y151587D01*
X290874D01*
Y151651D01*
Y151714D01*
Y151777D01*
Y151841D01*
Y151904D01*
Y151967D01*
Y152031D01*
Y152094D01*
X290810D01*
Y152157D01*
Y152221D01*
Y152284D01*
X290683D01*
Y152221D01*
X290557D01*
Y152157D01*
X290430D01*
Y152094D01*
X290303D01*
Y152031D01*
X290113D01*
Y151967D01*
X289923D01*
Y151904D01*
X289606D01*
Y151841D01*
X289480D01*
Y151904D01*
X289289D01*
Y151841D01*
X288846D01*
Y151904D01*
X288783D01*
Y151841D01*
X288846D01*
Y151777D01*
X288719D01*
Y151714D01*
Y151651D01*
X288656D01*
Y151587D01*
X288593D01*
Y151524D01*
X288529D01*
Y151460D01*
X288466D01*
Y151397D01*
X288402D01*
Y151334D01*
X288339D01*
Y151270D01*
X288276D01*
Y151207D01*
X288212D01*
Y151144D01*
Y151080D01*
X288149D01*
Y151017D01*
Y150953D01*
Y150890D01*
X288086D01*
Y150827D01*
Y150763D01*
X288022D01*
Y150700D01*
Y150637D01*
Y150573D01*
X287959D01*
Y150510D01*
Y150447D01*
Y150383D01*
Y150320D01*
X288022D01*
Y150257D01*
Y150193D01*
Y150130D01*
Y150066D01*
Y150003D01*
Y149940D01*
Y149876D01*
Y149813D01*
Y149750D01*
Y149686D01*
Y149623D01*
Y149559D01*
Y149496D01*
Y149433D01*
Y149370D01*
Y149306D01*
X288086D01*
Y149243D01*
Y149179D01*
Y149116D01*
X288149D01*
Y149053D01*
Y148989D01*
X288212D01*
Y148926D01*
X288276D01*
Y148863D01*
X288339D01*
Y148799D01*
X288402D01*
Y148736D01*
X288466D01*
Y148672D01*
X288529D01*
Y148609D01*
X288593D01*
Y148546D01*
X288656D01*
Y148482D01*
Y148419D01*
Y148356D01*
X288593D01*
Y148292D01*
X287199D01*
Y148356D01*
X287072D01*
Y148419D01*
Y148482D01*
Y148546D01*
Y148609D01*
Y148672D01*
Y148736D01*
Y148799D01*
Y148863D01*
Y148926D01*
Y148989D01*
Y149053D01*
Y149116D01*
Y149179D01*
Y149243D01*
X287135D01*
Y149306D01*
Y149370D01*
Y149433D01*
Y149496D01*
Y149559D01*
X287199D01*
Y149623D01*
Y149686D01*
Y149750D01*
Y149813D01*
Y149876D01*
Y149940D01*
Y150003D01*
Y150066D01*
Y150130D01*
Y150193D01*
Y150257D01*
Y150320D01*
Y150383D01*
Y150447D01*
Y150510D01*
Y150573D01*
X287135D01*
Y150637D01*
Y150700D01*
Y150763D01*
Y150827D01*
Y150890D01*
Y150953D01*
Y151017D01*
X287072D01*
Y151080D01*
X287009D01*
Y151144D01*
X286945D01*
Y151207D01*
X287009D01*
Y151270D01*
X287072D01*
Y151334D01*
X287135D01*
Y151397D01*
X287199D01*
Y151460D01*
X287262D01*
Y151524D01*
Y151587D01*
X287325D01*
Y151651D01*
X287452D01*
Y151714D01*
Y151777D01*
Y151841D01*
X287389D01*
Y151777D01*
X287325D01*
Y151714D01*
X287262D01*
Y151651D01*
X287199D01*
Y151587D01*
Y151524D01*
X287135D01*
Y151460D01*
X287072D01*
Y151524D01*
X286945D01*
Y151460D01*
X287072D01*
Y151397D01*
X287009D01*
Y151334D01*
X286945D01*
Y151270D01*
X286882D01*
Y151207D01*
Y151144D01*
X286818D01*
Y151080D01*
X286755D01*
Y151017D01*
X286692D01*
Y150953D01*
X286628D01*
Y150890D01*
Y150827D01*
X286565D01*
Y150763D01*
X286502D01*
Y150700D01*
Y150637D01*
X286438D01*
Y150573D01*
Y150510D01*
X286312D01*
Y150447D01*
X286375D01*
Y150383D01*
X286312D01*
Y150320D01*
X286248D01*
Y150257D01*
Y150193D01*
Y150130D01*
X286185D01*
Y150066D01*
Y150003D01*
X286122D01*
Y149940D01*
Y149876D01*
X286058D01*
Y149813D01*
X286122D01*
Y149750D01*
X286058D01*
Y149686D01*
Y149623D01*
Y149559D01*
Y149496D01*
X285995D01*
Y149559D01*
X285931D01*
Y149496D01*
X285995D01*
Y149433D01*
Y149370D01*
Y149306D01*
Y149243D01*
X285931D01*
Y149179D01*
Y149116D01*
Y149053D01*
X285868D01*
Y148989D01*
Y148926D01*
Y148863D01*
X285805D01*
Y148799D01*
X285868D01*
Y148736D01*
Y148672D01*
Y148609D01*
X285931D01*
Y148546D01*
X285868D01*
Y148609D01*
X285805D01*
Y148546D01*
X285868D01*
Y148482D01*
Y148419D01*
Y148356D01*
X285741D01*
Y148292D01*
X285678D01*
Y148356D01*
X285108D01*
Y148419D01*
X285044D01*
Y148482D01*
X284981D01*
Y148546D01*
Y148609D01*
X284918D01*
Y148672D01*
Y148736D01*
Y148799D01*
Y148863D01*
Y148926D01*
Y148989D01*
X284981D01*
Y149053D01*
Y149116D01*
X285044D01*
Y149179D01*
X285108D01*
Y149243D01*
X285171D01*
Y149306D01*
X285234D01*
Y149243D01*
X285298D01*
Y149306D01*
X285234D01*
Y149370D01*
Y149433D01*
Y149496D01*
Y149559D01*
X285298D01*
Y149623D01*
Y149686D01*
Y149750D01*
X285361D01*
Y149813D01*
Y149876D01*
X285424D01*
Y149940D01*
Y150003D01*
X285298D01*
Y149940D01*
X285234D01*
Y150003D01*
Y150066D01*
X285108D01*
Y150130D01*
Y150193D01*
X285171D01*
Y150257D01*
Y150320D01*
Y150383D01*
Y150447D01*
Y150510D01*
X285234D01*
Y150573D01*
Y150637D01*
Y150700D01*
X285298D01*
Y150763D01*
Y150827D01*
Y150890D01*
Y150953D01*
X285361D01*
Y151017D01*
Y151080D01*
Y151144D01*
X285424D01*
Y151207D01*
Y151270D01*
Y151334D01*
X285488D01*
Y151397D01*
Y151460D01*
Y151524D01*
Y151587D01*
X285551D01*
Y151524D01*
X285615D01*
Y151460D01*
Y151397D01*
Y151334D01*
Y151270D01*
X285551D01*
Y151207D01*
Y151144D01*
Y151080D01*
Y151017D01*
X285488D01*
Y150953D01*
Y150890D01*
Y150827D01*
X285424D01*
Y150763D01*
Y150700D01*
Y150637D01*
Y150573D01*
Y150510D01*
Y150447D01*
Y150383D01*
Y150320D01*
Y150257D01*
Y150193D01*
Y150130D01*
X285361D01*
Y150066D01*
X285488D01*
Y150130D01*
Y150193D01*
Y150257D01*
X285551D01*
Y150320D01*
Y150383D01*
Y150447D01*
Y150510D01*
X285615D01*
Y150573D01*
Y150637D01*
Y150700D01*
Y150763D01*
Y150827D01*
X285678D01*
Y150890D01*
Y150953D01*
Y151017D01*
Y151080D01*
Y151144D01*
Y151207D01*
Y151270D01*
Y151334D01*
Y151397D01*
Y151460D01*
Y151524D01*
Y151587D01*
X285615D01*
Y151651D01*
X285551D01*
Y151714D01*
Y151777D01*
Y151841D01*
X285615D01*
Y151904D01*
Y151967D01*
Y152031D01*
Y152094D01*
Y152157D01*
Y152221D01*
Y152284D01*
Y152347D01*
X285678D01*
Y152411D01*
Y152474D01*
Y152538D01*
Y152601D01*
Y152664D01*
Y152728D01*
Y152791D01*
X285741D01*
Y152854D01*
Y152918D01*
Y152981D01*
Y153044D01*
Y153108D01*
Y153171D01*
Y153235D01*
Y153298D01*
Y153361D01*
Y153425D01*
Y153488D01*
Y153551D01*
Y153615D01*
Y153678D01*
Y153741D01*
Y153805D01*
Y153868D01*
Y153931D01*
Y153995D01*
X285805D01*
Y154058D01*
Y154122D01*
Y154185D01*
Y154248D01*
Y154312D01*
X285868D01*
Y154375D01*
Y154438D01*
X285931D01*
Y154502D01*
Y154565D01*
Y154628D01*
X285995D01*
Y154692D01*
X286058D01*
Y154755D01*
Y154818D01*
X286122D01*
Y154882D01*
Y154945D01*
X286248D01*
Y155009D01*
Y155072D01*
Y155135D01*
X286312D01*
Y155199D01*
X286375D01*
Y155262D01*
X286502D01*
Y155325D01*
X286438D01*
Y155389D01*
X286502D01*
Y155452D01*
X286565D01*
Y155516D01*
Y155579D01*
X286628D01*
Y155642D01*
X286692D01*
Y155706D01*
Y155769D01*
X286755D01*
Y155832D01*
X286818D01*
Y155896D01*
X286882D01*
Y155832D01*
X286945D01*
Y155896D01*
X286882D01*
Y155959D01*
Y156022D01*
X286945D01*
Y156086D01*
X287009D01*
Y156149D01*
X287072D01*
Y156212D01*
X287135D01*
Y156276D01*
X287325D01*
Y156339D01*
Y156403D01*
X287389D01*
Y156339D01*
X287452D01*
Y156403D01*
Y156466D01*
X287579D01*
Y156529D01*
X287705D01*
Y156593D01*
X287959D01*
Y156656D01*
X288149D01*
Y156593D01*
X288212D01*
Y156656D01*
X288149D01*
Y156719D01*
X288656D01*
Y156783D01*
X290177D01*
Y156846D01*
X290493D01*
Y156909D01*
X290683D01*
Y156973D01*
X290874D01*
Y157036D01*
X291064D01*
Y157099D01*
X291317D01*
Y157163D01*
X291507D01*
Y157226D01*
X291761D01*
Y157290D01*
X291887D01*
Y157353D01*
X292077D01*
Y157416D01*
X292141D01*
Y157353D01*
X292204D01*
Y157416D01*
X292267D01*
Y157353D01*
X292331D01*
Y157416D01*
X292267D01*
Y157480D01*
X292648D01*
Y157416D01*
D02*
G37*
G36*
X78740Y3937D02*
X39370D01*
Y11811D01*
X78740D01*
Y3937D01*
D02*
G37*
G36*
X277999Y156557D02*
X278078Y156544D01*
X278163Y156518D01*
X278262Y156478D01*
X278360Y156419D01*
X278452Y156347D01*
X278465Y156341D01*
X278485Y156314D01*
X278511Y156282D01*
X278537Y156255D01*
X278544Y156249D01*
X278557Y156223D01*
X278583Y156190D01*
X278609Y156150D01*
X281903Y150437D01*
X281909Y150424D01*
X281929Y150391D01*
X281955Y150332D01*
X281981Y150253D01*
X282008Y150161D01*
X282021Y150063D01*
X282027Y149945D01*
X282008Y149827D01*
Y149820D01*
X282001Y149794D01*
X281988Y149754D01*
X281968Y149708D01*
Y149702D01*
X281955Y149676D01*
X281942Y149636D01*
X281916Y149590D01*
X281909Y149577D01*
X281883Y149545D01*
X281843Y149492D01*
X281791Y149433D01*
X281725Y149367D01*
X281640Y149308D01*
X281548Y149249D01*
X281437Y149203D01*
X281424D01*
X281391Y149190D01*
X281351Y149184D01*
X281319Y149177D01*
X281312D01*
X281293Y149171D01*
X281253D01*
X281201Y149164D01*
X274529D01*
X274470Y149177D01*
X274391Y149190D01*
X274300Y149216D01*
X274201Y149256D01*
X274103Y149315D01*
X274004Y149387D01*
X273998Y149394D01*
X273972Y149413D01*
X273945Y149446D01*
X273919Y149479D01*
X273913Y149485D01*
X273893Y149512D01*
X273873Y149545D01*
X273853Y149584D01*
X273847D01*
Y149590D01*
X273840Y149603D01*
X273821Y149636D01*
X273801Y149695D01*
X273775Y149767D01*
X273755Y149853D01*
X273742Y149951D01*
Y150063D01*
X273755Y150181D01*
Y150187D01*
X273762Y150194D01*
X273768Y150227D01*
X273775Y150266D01*
X273788Y150292D01*
Y150299D01*
X273801Y150325D01*
X273814Y150364D01*
X273840Y150410D01*
Y150417D01*
X273847Y150424D01*
X277147Y156137D01*
X277153Y156144D01*
X277166Y156164D01*
X277186Y156196D01*
X277212Y156236D01*
X277245Y156282D01*
X277291Y156327D01*
X277343Y156373D01*
X277396Y156413D01*
X277402D01*
X277409Y156426D01*
X277429Y156432D01*
X277455Y156452D01*
X277461Y156459D01*
X277488Y156472D01*
X277527Y156491D01*
X277579Y156511D01*
X277645Y156531D01*
X277717Y156551D01*
X277796Y156564D01*
X277881Y156570D01*
X277934D01*
X277999Y156557D01*
D02*
G37*
G36*
X267831D02*
X267910Y156544D01*
X267995Y156518D01*
X268094Y156478D01*
X268192Y156419D01*
X268284Y156347D01*
X268297Y156341D01*
X268317Y156314D01*
X268343Y156282D01*
X268369Y156255D01*
X268376Y156249D01*
X268389Y156223D01*
X268415Y156190D01*
X268441Y156150D01*
X271734Y150437D01*
X271741Y150424D01*
X271761Y150391D01*
X271787Y150332D01*
X271813Y150253D01*
X271839Y150161D01*
X271853Y150063D01*
X271859Y149945D01*
X271839Y149827D01*
Y149820D01*
X271833Y149794D01*
X271820Y149754D01*
X271800Y149708D01*
Y149702D01*
X271787Y149676D01*
X271774Y149636D01*
X271748Y149590D01*
X271741Y149577D01*
X271715Y149545D01*
X271675Y149492D01*
X271623Y149433D01*
X271557Y149367D01*
X271472Y149308D01*
X271380Y149249D01*
X271269Y149203D01*
X271256D01*
X271223Y149190D01*
X271183Y149184D01*
X271151Y149177D01*
X271144D01*
X271125Y149171D01*
X271085D01*
X271033Y149164D01*
X264361D01*
X264302Y149177D01*
X264223Y149190D01*
X264131Y149216D01*
X264033Y149256D01*
X263935Y149315D01*
X263836Y149387D01*
X263830Y149394D01*
X263804Y149413D01*
X263777Y149446D01*
X263751Y149479D01*
X263744Y149485D01*
X263725Y149512D01*
X263705Y149545D01*
X263685Y149584D01*
X263679D01*
Y149590D01*
X263672Y149603D01*
X263653Y149636D01*
X263633Y149695D01*
X263607Y149767D01*
X263587Y149853D01*
X263574Y149951D01*
Y150063D01*
X263587Y150181D01*
Y150187D01*
X263594Y150194D01*
X263600Y150227D01*
X263607Y150266D01*
X263620Y150292D01*
Y150299D01*
X263633Y150325D01*
X263646Y150364D01*
X263672Y150410D01*
Y150417D01*
X263679Y150424D01*
X266979Y156137D01*
X266985Y156144D01*
X266998Y156164D01*
X267018Y156196D01*
X267044Y156236D01*
X267077Y156282D01*
X267123Y156327D01*
X267175Y156373D01*
X267228Y156413D01*
X267234D01*
X267241Y156426D01*
X267261Y156432D01*
X267287Y156452D01*
X267293Y156459D01*
X267320Y156472D01*
X267359Y156491D01*
X267411Y156511D01*
X267477Y156531D01*
X267549Y156551D01*
X267628Y156564D01*
X267713Y156570D01*
X267766D01*
X267831Y156557D01*
D02*
G37*
G36*
X257663D02*
X257742Y156544D01*
X257827Y156518D01*
X257926Y156478D01*
X258024Y156419D01*
X258116Y156347D01*
X258129Y156341D01*
X258149Y156314D01*
X258175Y156282D01*
X258201Y156255D01*
X258208Y156249D01*
X258221Y156223D01*
X258247Y156190D01*
X258273Y156150D01*
X261566Y150437D01*
X261573Y150424D01*
X261593Y150391D01*
X261619Y150332D01*
X261645Y150253D01*
X261671Y150161D01*
X261685Y150063D01*
X261691Y149945D01*
X261671Y149827D01*
Y149820D01*
X261665Y149794D01*
X261652Y149754D01*
X261632Y149708D01*
Y149702D01*
X261619Y149676D01*
X261606Y149636D01*
X261580Y149590D01*
X261573Y149577D01*
X261547Y149545D01*
X261508Y149492D01*
X261455Y149433D01*
X261389Y149367D01*
X261304Y149308D01*
X261212Y149249D01*
X261101Y149203D01*
X261088D01*
X261055Y149190D01*
X261016Y149184D01*
X260983Y149177D01*
X260976D01*
X260957Y149171D01*
X260917D01*
X260865Y149164D01*
X254193D01*
X254134Y149177D01*
X254055Y149190D01*
X253963Y149216D01*
X253865Y149256D01*
X253767Y149315D01*
X253668Y149387D01*
X253662Y149394D01*
X253636Y149413D01*
X253609Y149446D01*
X253583Y149479D01*
X253576Y149485D01*
X253557Y149512D01*
X253537Y149545D01*
X253517Y149584D01*
X253511D01*
Y149590D01*
X253504Y149603D01*
X253485Y149636D01*
X253465Y149695D01*
X253439Y149767D01*
X253419Y149853D01*
X253406Y149951D01*
Y150063D01*
X253419Y150181D01*
Y150187D01*
X253426Y150194D01*
X253432Y150227D01*
X253439Y150266D01*
X253452Y150292D01*
Y150299D01*
X253465Y150325D01*
X253478Y150364D01*
X253504Y150410D01*
Y150417D01*
X253511Y150424D01*
X256810Y156137D01*
X256817Y156144D01*
X256830Y156164D01*
X256850Y156196D01*
X256876Y156236D01*
X256909Y156282D01*
X256955Y156327D01*
X257007Y156373D01*
X257060Y156413D01*
X257066D01*
X257073Y156426D01*
X257093Y156432D01*
X257119Y156452D01*
X257125Y156459D01*
X257152Y156472D01*
X257191Y156491D01*
X257243Y156511D01*
X257309Y156531D01*
X257381Y156551D01*
X257460Y156564D01*
X257545Y156570D01*
X257598D01*
X257663Y156557D01*
D02*
G37*
G36*
X271748Y147983D02*
X271603D01*
X271052Y148803D01*
Y147983D01*
X270921D01*
Y149026D01*
X271065D01*
X271610Y148206D01*
Y149026D01*
X271748D01*
Y147983D01*
D02*
G37*
G36*
X268251D02*
X268107D01*
X267556Y148803D01*
Y147983D01*
X267425D01*
Y149026D01*
X267569D01*
X268120Y148206D01*
Y149026D01*
X268251D01*
Y147983D01*
D02*
G37*
G36*
X261580D02*
X261435D01*
X260884Y148803D01*
Y147983D01*
X260753D01*
Y149026D01*
X260897D01*
X261442Y148206D01*
Y149026D01*
X261580D01*
Y147983D01*
D02*
G37*
G36*
X258083D02*
X257939D01*
X257388Y148803D01*
Y147983D01*
X257257D01*
Y149026D01*
X257401D01*
X257952Y148206D01*
Y149026D01*
X258083D01*
Y147983D01*
D02*
G37*
G36*
X269544D02*
X269399D01*
Y149026D01*
X269544D01*
Y147983D01*
D02*
G37*
G36*
X269235Y148902D02*
X268887D01*
Y147983D01*
X268750D01*
Y148902D01*
X268402D01*
Y149026D01*
X269235D01*
Y148902D01*
D02*
G37*
G36*
X267215D02*
X266592D01*
Y148580D01*
X267175D01*
Y148462D01*
X266592D01*
Y148101D01*
X267234D01*
Y147983D01*
X266454D01*
Y149026D01*
X267215D01*
Y148902D01*
D02*
G37*
G36*
X266309D02*
X265962D01*
Y147983D01*
X265824D01*
Y148902D01*
X265476D01*
Y149026D01*
X266309D01*
Y148902D01*
D02*
G37*
G36*
X265417D02*
X265070D01*
Y147983D01*
X264932D01*
Y148902D01*
X264584D01*
Y149026D01*
X265417D01*
Y148902D01*
D02*
G37*
G36*
X264663Y147983D02*
X264505D01*
X264381Y148298D01*
X263941D01*
X263830Y147983D01*
X263679D01*
X264086Y149026D01*
X264230D01*
X264663Y147983D01*
D02*
G37*
G36*
X259376D02*
X259231D01*
Y149026D01*
X259376D01*
Y147983D01*
D02*
G37*
G36*
X259067Y148902D02*
X258719D01*
Y147983D01*
X258582D01*
Y148902D01*
X258234D01*
Y149026D01*
X259067D01*
Y148902D01*
D02*
G37*
G36*
X257047D02*
X256423D01*
Y148580D01*
X257007D01*
Y148462D01*
X256423D01*
Y148101D01*
X257066D01*
Y147983D01*
X256286D01*
Y149026D01*
X257047D01*
Y148902D01*
D02*
G37*
G36*
X256141D02*
X255794D01*
Y147983D01*
X255656D01*
Y148902D01*
X255308D01*
Y149026D01*
X256141D01*
Y148902D01*
D02*
G37*
G36*
X255249D02*
X254902D01*
Y147983D01*
X254764D01*
Y148902D01*
X254416D01*
Y149026D01*
X255249D01*
Y148902D01*
D02*
G37*
G36*
X254495Y147983D02*
X254337D01*
X254213Y148298D01*
X253773D01*
X253662Y147983D01*
X253511D01*
X253918Y149026D01*
X254062D01*
X254495Y147983D01*
D02*
G37*
G36*
X270298Y149039D02*
X270331D01*
X270416Y149013D01*
X270462Y149000D01*
X270508Y148974D01*
X270514D01*
X270528Y148961D01*
X270547Y148948D01*
X270573Y148928D01*
X270633Y148869D01*
X270685Y148784D01*
Y148777D01*
X270691Y148764D01*
X270705Y148738D01*
X270718Y148705D01*
X270724Y148659D01*
X270737Y148613D01*
X270744Y148501D01*
Y148495D01*
Y148475D01*
Y148442D01*
X270737Y148410D01*
X270718Y148318D01*
X270678Y148219D01*
Y148213D01*
X270665Y148200D01*
X270652Y148173D01*
X270633Y148147D01*
X270573Y148088D01*
X270495Y148029D01*
X270488D01*
X270475Y148016D01*
X270449Y148009D01*
X270423Y147996D01*
X270337Y147977D01*
X270245Y147964D01*
X270219D01*
X270193Y147970D01*
X270154D01*
X270068Y147996D01*
X270022Y148009D01*
X269976Y148036D01*
X269970D01*
X269957Y148049D01*
X269937Y148062D01*
X269911Y148082D01*
X269852Y148141D01*
X269799Y148226D01*
Y148232D01*
X269793Y148246D01*
X269780Y148272D01*
X269773Y148305D01*
X269760Y148344D01*
X269747Y148390D01*
X269740Y148495D01*
Y148508D01*
Y148534D01*
X269747Y148587D01*
X269760Y148639D01*
X269773Y148705D01*
X269799Y148777D01*
X269832Y148843D01*
X269878Y148902D01*
X269885Y148908D01*
X269904Y148921D01*
X269937Y148948D01*
X269976Y148974D01*
X270029Y149000D01*
X270094Y149026D01*
X270167Y149039D01*
X270245Y149046D01*
X270272D01*
X270298Y149039D01*
D02*
G37*
G36*
X260130D02*
X260163D01*
X260248Y149013D01*
X260294Y149000D01*
X260340Y148974D01*
X260346D01*
X260360Y148961D01*
X260379Y148948D01*
X260405Y148928D01*
X260465Y148869D01*
X260517Y148784D01*
Y148777D01*
X260524Y148764D01*
X260537Y148738D01*
X260550Y148705D01*
X260556Y148659D01*
X260569Y148613D01*
X260576Y148501D01*
Y148495D01*
Y148475D01*
Y148442D01*
X260569Y148410D01*
X260550Y148318D01*
X260510Y148219D01*
Y148213D01*
X260497Y148200D01*
X260484Y148173D01*
X260465Y148147D01*
X260405Y148088D01*
X260327Y148029D01*
X260320D01*
X260307Y148016D01*
X260281Y148009D01*
X260255Y147996D01*
X260169Y147977D01*
X260077Y147964D01*
X260051D01*
X260025Y147970D01*
X259986D01*
X259900Y147996D01*
X259854Y148009D01*
X259808Y148036D01*
X259802D01*
X259789Y148049D01*
X259769Y148062D01*
X259743Y148082D01*
X259684Y148141D01*
X259631Y148226D01*
Y148232D01*
X259625Y148246D01*
X259612Y148272D01*
X259605Y148305D01*
X259592Y148344D01*
X259579Y148390D01*
X259572Y148495D01*
Y148508D01*
Y148534D01*
X259579Y148587D01*
X259592Y148639D01*
X259605Y148705D01*
X259631Y148777D01*
X259664Y148843D01*
X259710Y148902D01*
X259717Y148908D01*
X259736Y148921D01*
X259769Y148948D01*
X259808Y148974D01*
X259861Y149000D01*
X259927Y149026D01*
X259999Y149039D01*
X260077Y149046D01*
X260104D01*
X260130Y149039D01*
D02*
G37*
G36*
X268553Y147813D02*
X268586Y147806D01*
X268592Y147800D01*
X268612Y147793D01*
X268632Y147773D01*
X268651Y147747D01*
X268658Y147740D01*
X268665Y147727D01*
X268671Y147701D01*
X268678Y147668D01*
X268612Y147662D01*
Y147668D01*
X268605Y147688D01*
X268599Y147714D01*
X268579Y147734D01*
X268573Y147740D01*
X268553Y147747D01*
X268527Y147754D01*
X268487Y147760D01*
X268455D01*
X268422Y147754D01*
X268395Y147740D01*
X268389Y147734D01*
X268382Y147721D01*
X268369Y147708D01*
X268363Y147681D01*
Y147675D01*
X268369Y147668D01*
X268376Y147649D01*
X268389Y147635D01*
X268395D01*
X268409Y147622D01*
X268441Y147609D01*
X268487Y147596D01*
X268500D01*
X268540Y147583D01*
X268579Y147576D01*
X268605Y147563D01*
X268612Y147557D01*
X268632Y147550D01*
X268651Y147531D01*
X268671Y147511D01*
X268678Y147504D01*
X268684Y147491D01*
X268691Y147465D01*
X268697Y147439D01*
Y147432D01*
Y147413D01*
X268684Y147386D01*
X268671Y147360D01*
X268665Y147353D01*
X268651Y147340D01*
X268632Y147327D01*
X268605Y147314D01*
X268599Y147308D01*
X268573Y147301D01*
X268540Y147294D01*
X268500Y147288D01*
X268487D01*
X268461Y147294D01*
X268422Y147301D01*
X268382Y147314D01*
X268376D01*
X268356Y147327D01*
X268330Y147340D01*
X268310Y147367D01*
X268304Y147373D01*
X268297Y147393D01*
X268284Y147419D01*
X268277Y147458D01*
X268343Y147465D01*
Y147458D01*
Y147445D01*
X268350Y147419D01*
X268363Y147399D01*
Y147393D01*
X268376Y147386D01*
X268389Y147373D01*
X268415Y147360D01*
X268441D01*
X268468Y147353D01*
X268573D01*
X268586Y147360D01*
X268599Y147373D01*
X268612Y147386D01*
X268618Y147393D01*
X268625Y147399D01*
X268632Y147413D01*
Y147432D01*
Y147439D01*
Y147445D01*
X268625Y147458D01*
X268612Y147471D01*
Y147478D01*
X268599Y147485D01*
X268586Y147491D01*
X268566Y147504D01*
X268553Y147511D01*
X268520Y147517D01*
X268474Y147531D01*
X268461Y147537D01*
X268435Y147544D01*
X268402Y147550D01*
X268369Y147563D01*
X268363Y147570D01*
X268350Y147576D01*
X268317Y147616D01*
Y147622D01*
X268310Y147635D01*
X268304Y147655D01*
X268297Y147675D01*
Y147681D01*
X268304Y147701D01*
X268310Y147727D01*
X268323Y147754D01*
Y147760D01*
X268337Y147773D01*
X268356Y147793D01*
X268389Y147806D01*
X268395D01*
X268415Y147813D01*
X268441Y147819D01*
X268514D01*
X268553Y147813D01*
D02*
G37*
G36*
X270541D02*
X270586Y147806D01*
X270626Y147780D01*
X270633Y147773D01*
X270652Y147754D01*
X270678Y147714D01*
X270698Y147668D01*
X270633Y147655D01*
X270626Y147662D01*
X270619Y147688D01*
X270600Y147714D01*
X270580Y147734D01*
X270573Y147740D01*
X270560Y147747D01*
X270528Y147754D01*
X270495Y147760D01*
X270462D01*
X270423Y147747D01*
X270390Y147734D01*
X270383Y147727D01*
X270370Y147714D01*
X270350Y147688D01*
X270331Y147655D01*
Y147649D01*
X270324Y147629D01*
X270318Y147596D01*
Y147557D01*
Y147544D01*
Y147517D01*
X270324Y147478D01*
X270337Y147439D01*
X270344Y147432D01*
X270350Y147413D01*
X270370Y147386D01*
X270396Y147367D01*
X270403D01*
X270423Y147360D01*
X270455Y147353D01*
X270488Y147347D01*
X270501D01*
X270521Y147353D01*
X270554Y147360D01*
X270586Y147373D01*
X270593Y147380D01*
X270606Y147399D01*
X270626Y147426D01*
X270639Y147471D01*
X270711Y147452D01*
Y147445D01*
X270705Y147439D01*
X270691Y147406D01*
X270665Y147367D01*
X270633Y147334D01*
X270619Y147327D01*
X270593Y147314D01*
X270547Y147294D01*
X270495Y147288D01*
X270482D01*
X270442Y147294D01*
X270396Y147308D01*
X270357Y147327D01*
X270350Y147334D01*
X270324Y147347D01*
X270298Y147373D01*
X270272Y147413D01*
Y147419D01*
X270265Y147426D01*
X270258Y147458D01*
X270252Y147504D01*
X270245Y147557D01*
Y147563D01*
Y147570D01*
X270252Y147603D01*
X270258Y147649D01*
X270278Y147701D01*
X270285Y147708D01*
X270298Y147734D01*
X270324Y147760D01*
X270363Y147786D01*
X270377Y147793D01*
X270403Y147806D01*
X270442Y147813D01*
X270495Y147819D01*
X270508D01*
X270541Y147813D01*
D02*
G37*
G36*
X266500D02*
X266546Y147806D01*
X266592Y147780D01*
X266598Y147773D01*
X266618Y147754D01*
X266644Y147714D01*
X266664Y147668D01*
X266598Y147655D01*
X266592Y147662D01*
X266585Y147688D01*
X266565Y147708D01*
X266546Y147734D01*
X266539Y147740D01*
X266519Y147747D01*
X266493Y147754D01*
X266454Y147760D01*
X266421D01*
X266388Y147747D01*
X266355Y147734D01*
X266349Y147727D01*
X266336Y147714D01*
X266316Y147688D01*
X266296Y147655D01*
Y147649D01*
X266290Y147622D01*
X266283Y147590D01*
X266277Y147557D01*
Y147544D01*
X266283Y147517D01*
X266290Y147478D01*
X266303Y147439D01*
X266309Y147432D01*
X266316Y147413D01*
X266336Y147386D01*
X266362Y147367D01*
X266369D01*
X266388Y147360D01*
X266421Y147353D01*
X266454Y147347D01*
X266467D01*
X266487Y147353D01*
X266519Y147360D01*
X266546Y147373D01*
X266552Y147380D01*
X266565Y147393D01*
X266585Y147426D01*
X266605Y147471D01*
X266677Y147452D01*
Y147445D01*
X266670Y147439D01*
X266657Y147406D01*
X266631Y147367D01*
X266598Y147334D01*
X266585Y147327D01*
X266559Y147314D01*
X266513Y147294D01*
X266454Y147288D01*
X266441D01*
X266408Y147294D01*
X266362Y147308D01*
X266316Y147327D01*
X266309Y147334D01*
X266290Y147347D01*
X266264Y147373D01*
X266237Y147413D01*
Y147419D01*
X266231Y147426D01*
X266224Y147458D01*
X266218Y147504D01*
X266211Y147557D01*
Y147563D01*
Y147570D01*
X266218Y147603D01*
X266224Y147649D01*
X266244Y147701D01*
X266250Y147708D01*
X266264Y147734D01*
X266290Y147760D01*
X266329Y147786D01*
X266342Y147793D01*
X266369Y147806D01*
X266408Y147813D01*
X266454Y147819D01*
X266467D01*
X266500Y147813D01*
D02*
G37*
G36*
X270141Y147301D02*
X270075D01*
Y147813D01*
X270141D01*
Y147301D01*
D02*
G37*
G36*
X269990Y147754D02*
X269819D01*
Y147301D01*
X269747D01*
Y147754D01*
X269576D01*
Y147813D01*
X269990D01*
Y147754D01*
D02*
G37*
G36*
X269616Y147301D02*
X269537D01*
X269471Y147445D01*
X269255D01*
X269196Y147301D01*
X269124D01*
X269327Y147813D01*
X269399D01*
X269616Y147301D01*
D02*
G37*
G36*
X269163Y147754D02*
X268992D01*
Y147301D01*
X268920D01*
Y147754D01*
X268750D01*
Y147813D01*
X269163D01*
Y147754D01*
D02*
G37*
G36*
X267510Y147806D02*
X267543Y147800D01*
X267549Y147793D01*
X267562Y147786D01*
X267582Y147767D01*
X267602Y147747D01*
X267608Y147740D01*
X267615Y147721D01*
X267621Y147701D01*
X267628Y147675D01*
Y147668D01*
X267621Y147642D01*
X267615Y147609D01*
X267589Y147576D01*
X267582Y147570D01*
X267562Y147557D01*
X267530Y147537D01*
X267477Y147524D01*
X267484D01*
X267490Y147517D01*
X267523Y147504D01*
X267530Y147498D01*
X267536Y147485D01*
X267556Y147465D01*
X267576Y147432D01*
X267667Y147301D01*
X267582D01*
X267510Y147399D01*
X267503Y147406D01*
X267490Y147426D01*
X267477Y147452D01*
X267464Y147471D01*
X267457Y147478D01*
X267451Y147485D01*
X267438Y147498D01*
X267425Y147504D01*
X267418Y147511D01*
X267411D01*
X267392Y147517D01*
X267385Y147524D01*
X267274D01*
Y147301D01*
X267208D01*
Y147813D01*
X267477D01*
X267510Y147806D01*
D02*
G37*
G36*
X267136Y147754D02*
X266959D01*
Y147301D01*
X266893D01*
Y147754D01*
X266716D01*
Y147813D01*
X267136D01*
Y147754D01*
D02*
G37*
G36*
X266119D02*
X265811D01*
Y147590D01*
X266106D01*
Y147531D01*
X265811D01*
Y147353D01*
X266132D01*
Y147301D01*
X265745D01*
Y147813D01*
X266119D01*
Y147754D01*
D02*
G37*
G36*
X265404Y147353D02*
X265660D01*
Y147301D01*
X265332D01*
Y147813D01*
X265404D01*
Y147353D01*
D02*
G37*
G36*
X265227Y147754D02*
X264919D01*
Y147590D01*
X265207D01*
Y147531D01*
X264919D01*
Y147353D01*
X265240D01*
Y147301D01*
X264846D01*
Y147813D01*
X265227D01*
Y147754D01*
D02*
G37*
G36*
X268008Y147813D02*
X268048Y147806D01*
X268094Y147786D01*
X268107Y147780D01*
X268127Y147760D01*
X268153Y147734D01*
X268179Y147688D01*
X268186Y147681D01*
X268199Y147649D01*
X268205Y147609D01*
X268212Y147550D01*
Y147544D01*
Y147537D01*
X268205Y147498D01*
X268199Y147452D01*
X268179Y147406D01*
X268173Y147399D01*
X268153Y147373D01*
X268127Y147347D01*
X268087Y147321D01*
X268081Y147314D01*
X268054Y147308D01*
X268015Y147294D01*
X267963Y147288D01*
X267949D01*
X267917Y147294D01*
X267877Y147308D01*
X267831Y147327D01*
X267818Y147334D01*
X267798Y147347D01*
X267766Y147373D01*
X267746Y147413D01*
X267740Y147419D01*
X267733Y147452D01*
X267720Y147491D01*
X267713Y147544D01*
Y147550D01*
Y147563D01*
X267720Y147590D01*
Y147616D01*
X267740Y147688D01*
X267779Y147747D01*
X267785Y147754D01*
X267792Y147760D01*
X267831Y147786D01*
X267884Y147806D01*
X267923Y147819D01*
X267976D01*
X268008Y147813D01*
D02*
G37*
G36*
X266198Y147117D02*
X266237Y147104D01*
X266244Y147098D01*
X266264Y147091D01*
X266283Y147071D01*
X266303Y147045D01*
X266309Y147039D01*
X266316Y147025D01*
X266322Y146993D01*
X266329Y146960D01*
X266264D01*
Y146966D01*
X266257Y146986D01*
X266244Y147012D01*
X266224Y147032D01*
X266218Y147039D01*
X266198Y147045D01*
X266172Y147052D01*
X266132Y147058D01*
X266100D01*
X266073Y147045D01*
X266047Y147032D01*
X266040Y147025D01*
X266034Y147019D01*
X266021Y146999D01*
X266014Y146979D01*
Y146973D01*
Y146966D01*
X266021Y146947D01*
X266034Y146934D01*
X266040D01*
X266060Y146927D01*
X266086Y146914D01*
X266139Y146894D01*
X266152D01*
X266178Y146888D01*
X266211Y146881D01*
X266257Y146861D01*
X266264Y146855D01*
X266283Y146848D01*
X266303Y146829D01*
X266322Y146809D01*
X266329Y146802D01*
X266336Y146789D01*
X266342Y146763D01*
Y146737D01*
Y146730D01*
Y146711D01*
X266336Y146684D01*
X266322Y146651D01*
X266316Y146645D01*
X266303Y146632D01*
X266283Y146619D01*
X266250Y146599D01*
X266244D01*
X266224Y146592D01*
X266191Y146586D01*
X266152Y146579D01*
X266113D01*
X266073Y146586D01*
X266034Y146599D01*
X266027Y146606D01*
X266008Y146612D01*
X265981Y146632D01*
X265955Y146658D01*
X265949Y146665D01*
X265942Y146691D01*
X265935Y146724D01*
X265929Y146756D01*
X265995Y146763D01*
Y146756D01*
Y146743D01*
X266001Y146717D01*
X266014Y146697D01*
X266027Y146684D01*
X266040Y146671D01*
X266067Y146651D01*
X266073D01*
X266093Y146645D01*
X266119Y146638D01*
X266172D01*
X266198Y146645D01*
X266218Y146651D01*
X266224D01*
X266237Y146658D01*
X266250Y146671D01*
X266264Y146684D01*
Y146691D01*
X266270Y146697D01*
X266277Y146730D01*
Y146737D01*
Y146743D01*
X266264Y146770D01*
Y146776D01*
X266250Y146783D01*
X266218Y146802D01*
X266211D01*
X266191Y146809D01*
X266159Y146822D01*
X266119Y146829D01*
X266106D01*
X266080Y146835D01*
X266047Y146848D01*
X266021Y146861D01*
X266014Y146868D01*
X266001Y146875D01*
X265981Y146888D01*
X265968Y146907D01*
Y146914D01*
X265962Y146927D01*
X265955Y146947D01*
X265949Y146973D01*
Y146979D01*
X265955Y146999D01*
X265962Y147025D01*
X265975Y147052D01*
Y147058D01*
X265988Y147071D01*
X266008Y147091D01*
X266034Y147104D01*
X266040Y147111D01*
X266067Y147117D01*
X266100Y147124D01*
X266165D01*
X266198Y147117D01*
D02*
G37*
G36*
X264689D02*
X264728Y147104D01*
X264735Y147098D01*
X264755Y147091D01*
X264781Y147071D01*
X264801Y147045D01*
X264807Y147039D01*
X264814Y147019D01*
X264820Y146993D01*
X264827Y146960D01*
X264755D01*
Y146966D01*
X264748Y146986D01*
X264742Y147012D01*
X264722Y147032D01*
X264715Y147039D01*
X264696Y147045D01*
X264669Y147052D01*
X264630Y147058D01*
X264597D01*
X264564Y147045D01*
X264538Y147032D01*
X264532Y147025D01*
X264525Y147019D01*
X264518Y146999D01*
X264512Y146979D01*
Y146973D01*
Y146966D01*
X264518Y146947D01*
X264532Y146934D01*
X264538D01*
X264551Y146927D01*
X264584Y146914D01*
X264637Y146894D01*
X264650D01*
X264676Y146888D01*
X264715Y146875D01*
X264748Y146861D01*
X264755Y146855D01*
X264774Y146848D01*
X264794Y146829D01*
X264814Y146809D01*
X264820Y146802D01*
X264827Y146789D01*
X264833Y146763D01*
X264840Y146737D01*
Y146730D01*
Y146711D01*
X264827Y146684D01*
X264814Y146651D01*
X264807Y146645D01*
X264801Y146632D01*
X264781Y146619D01*
X264748Y146599D01*
X264742D01*
X264722Y146592D01*
X264689Y146586D01*
X264650Y146579D01*
X264610D01*
X264564Y146586D01*
X264525Y146599D01*
X264518Y146606D01*
X264499Y146612D01*
X264473Y146632D01*
X264453Y146658D01*
X264446Y146665D01*
X264440Y146691D01*
X264427Y146724D01*
X264420Y146756D01*
X264492Y146763D01*
Y146756D01*
Y146737D01*
X264499Y146717D01*
X264512Y146697D01*
X264525Y146684D01*
X264538Y146671D01*
X264564Y146651D01*
X264571D01*
X264591Y146645D01*
X264617Y146638D01*
X264669D01*
X264715Y146651D01*
X264722Y146658D01*
X264728Y146665D01*
X264755Y146684D01*
X264761Y146691D01*
X264768Y146697D01*
X264774Y146711D01*
Y146730D01*
Y146737D01*
Y146743D01*
X264768Y146756D01*
X264755Y146770D01*
Y146776D01*
X264748Y146783D01*
X264715Y146802D01*
X264709Y146809D01*
X264683Y146816D01*
X264650Y146822D01*
X264617Y146829D01*
X264604D01*
X264578Y146835D01*
X264545Y146848D01*
X264518Y146861D01*
X264512Y146868D01*
X264499Y146875D01*
X264479Y146888D01*
X264459Y146907D01*
Y146914D01*
X264453Y146927D01*
X264446Y146973D01*
Y146979D01*
Y146999D01*
X264453Y147025D01*
X264466Y147052D01*
X264473Y147058D01*
X264486Y147071D01*
X264505Y147091D01*
X264532Y147104D01*
X264538Y147111D01*
X264558Y147117D01*
X264591Y147124D01*
X264656D01*
X264689Y147117D01*
D02*
G37*
G36*
X270449D02*
X270495Y147104D01*
X270541Y147078D01*
X270547Y147071D01*
X270567Y147052D01*
X270593Y147012D01*
X270613Y146966D01*
X270547Y146953D01*
X270541Y146960D01*
X270534Y146986D01*
X270514Y147012D01*
X270495Y147032D01*
X270488Y147039D01*
X270468Y147052D01*
X270442Y147058D01*
X270403Y147065D01*
X270396D01*
X270370Y147058D01*
X270337Y147052D01*
X270304Y147032D01*
X270298Y147025D01*
X270278Y147012D01*
X270258Y146986D01*
X270245Y146953D01*
Y146947D01*
X270239Y146927D01*
X270232Y146894D01*
Y146855D01*
Y146842D01*
Y146816D01*
X270239Y146776D01*
X270252Y146737D01*
X270258Y146730D01*
X270265Y146711D01*
X270285Y146684D01*
X270311Y146665D01*
X270318Y146658D01*
X270337Y146651D01*
X270363Y146645D01*
X270396Y146638D01*
X270403D01*
X270429Y146645D01*
X270462Y146651D01*
X270495Y146671D01*
X270501Y146678D01*
X270514Y146697D01*
X270534Y146724D01*
X270554Y146770D01*
X270619Y146756D01*
Y146750D01*
X270613Y146743D01*
X270600Y146711D01*
X270580Y146665D01*
X270541Y146625D01*
X270528Y146619D01*
X270501Y146606D01*
X270455Y146586D01*
X270403Y146579D01*
X270390D01*
X270357Y146586D01*
X270311Y146592D01*
X270265Y146612D01*
X270258Y146619D01*
X270239Y146638D01*
X270213Y146671D01*
X270186Y146711D01*
X270180Y146724D01*
X270173Y146756D01*
X270167Y146802D01*
X270160Y146855D01*
Y146861D01*
Y146868D01*
X270167Y146901D01*
X270173Y146947D01*
X270186Y146993D01*
X270193Y147006D01*
X270213Y147032D01*
X270239Y147065D01*
X270278Y147091D01*
X270291Y147098D01*
X270318Y147111D01*
X270357Y147117D01*
X270403Y147124D01*
X270416D01*
X270449Y147117D01*
D02*
G37*
G36*
X265837Y146586D02*
X265765D01*
X265489Y146999D01*
Y146586D01*
X265424D01*
Y147111D01*
X265489D01*
X265765Y146697D01*
Y147111D01*
X265837D01*
Y146586D01*
D02*
G37*
G36*
X269707D02*
X269635D01*
X269432Y147111D01*
X269511D01*
X269642Y146730D01*
X269649Y146724D01*
X269655Y146697D01*
X269668Y146671D01*
X269675Y146645D01*
Y146651D01*
X269681Y146671D01*
X269688Y146697D01*
X269701Y146730D01*
X269845Y147111D01*
X269911D01*
X269707Y146586D01*
D02*
G37*
G36*
X267510D02*
X267444D01*
X267241Y147111D01*
X267313D01*
X267451Y146730D01*
Y146724D01*
X267457Y146711D01*
X267464Y146684D01*
X267477Y146645D01*
Y146651D01*
X267484Y146671D01*
X267497Y146697D01*
X267510Y146730D01*
X267648Y147111D01*
X267720D01*
X267510Y146586D01*
D02*
G37*
G36*
X271085Y147052D02*
X270777D01*
Y146888D01*
X271065D01*
Y146829D01*
X270777D01*
Y146651D01*
X271098D01*
Y146586D01*
X270711D01*
Y147111D01*
X271085D01*
Y147052D01*
D02*
G37*
G36*
X270055Y146586D02*
X269990D01*
Y147111D01*
X270055D01*
Y146586D01*
D02*
G37*
G36*
X269379Y147052D02*
X269071D01*
Y146888D01*
X269360D01*
Y146829D01*
X269071D01*
Y146651D01*
X269393D01*
Y146586D01*
X268999D01*
Y147111D01*
X269379D01*
Y147052D01*
D02*
G37*
G36*
X268743Y147104D02*
X268750D01*
X268769Y147098D01*
X268822Y147065D01*
X268829Y147058D01*
X268848Y147039D01*
X268868Y147012D01*
X268881Y146973D01*
X268887Y146966D01*
X268894Y146940D01*
X268901Y146901D01*
Y146855D01*
Y146842D01*
Y146816D01*
X268894Y146776D01*
X268887Y146743D01*
Y146737D01*
X268881Y146717D01*
X268855Y146671D01*
X268848Y146665D01*
X268842Y146651D01*
X268822Y146638D01*
X268809Y146625D01*
X268802D01*
X268789Y146612D01*
X268743Y146592D01*
X268724D01*
X268691Y146586D01*
X268474D01*
Y147111D01*
X268710D01*
X268743Y147104D01*
D02*
G37*
G36*
X268159Y147052D02*
X267851D01*
Y146888D01*
X268140D01*
Y146829D01*
X267851D01*
Y146651D01*
X268173D01*
Y146586D01*
X267779D01*
Y147111D01*
X268159D01*
Y147052D01*
D02*
G37*
G36*
X267175Y146586D02*
X267097D01*
Y147111D01*
X267175D01*
Y146586D01*
D02*
G37*
G36*
X267018Y147052D02*
X266847D01*
Y146586D01*
X266775D01*
Y147052D01*
X266605D01*
Y147111D01*
X267018D01*
Y147052D01*
D02*
G37*
G36*
X266519Y146586D02*
X266454D01*
Y147111D01*
X266519D01*
Y146586D01*
D02*
G37*
G36*
X265312Y147052D02*
X265004D01*
Y146888D01*
X265299D01*
Y146829D01*
X265004D01*
Y146651D01*
X265325D01*
Y146586D01*
X264938D01*
Y147111D01*
X265312D01*
Y147052D01*
D02*
G37*
%LPC*%
G36*
X292964Y157099D02*
X292901D01*
Y157036D01*
X292964D01*
Y156973D01*
X293028D01*
Y157036D01*
X292964D01*
Y157099D01*
D02*
G37*
G36*
Y156973D02*
X292901D01*
Y156909D01*
X292964D01*
Y156973D01*
D02*
G37*
G36*
X292901Y156909D02*
X292838D01*
Y156846D01*
X292901D01*
Y156909D01*
D02*
G37*
G36*
X292774D02*
X292584D01*
Y156846D01*
X292774D01*
Y156909D01*
D02*
G37*
G36*
X292584Y156846D02*
X292394D01*
Y156783D01*
X292267D01*
Y156719D01*
X292141D01*
Y156656D01*
X292077D01*
Y156593D01*
X292014D01*
Y156529D01*
X291951D01*
Y156466D01*
Y156403D01*
Y156339D01*
Y156276D01*
Y156212D01*
Y156149D01*
Y156086D01*
Y156022D01*
Y155959D01*
X292014D01*
Y155896D01*
Y155832D01*
Y155769D01*
Y155706D01*
X292077D01*
Y155642D01*
Y155579D01*
Y155516D01*
X292141D01*
Y155579D01*
Y155642D01*
Y155706D01*
X292077D01*
Y155769D01*
Y155832D01*
Y155896D01*
Y155959D01*
Y156022D01*
X292014D01*
Y156086D01*
Y156149D01*
Y156212D01*
Y156276D01*
Y156339D01*
Y156403D01*
Y156466D01*
X292077D01*
Y156529D01*
X292141D01*
Y156466D01*
X292204D01*
Y156529D01*
X292141D01*
Y156593D01*
X292267D01*
Y156656D01*
X292331D01*
Y156719D01*
X292458D01*
Y156783D01*
X292584D01*
Y156846D01*
D02*
G37*
G36*
X287325Y156212D02*
X287262D01*
Y156149D01*
X287325D01*
Y156212D01*
D02*
G37*
G36*
X295372Y156149D02*
X295309D01*
Y156086D01*
X295372D01*
Y156022D01*
X295562D01*
Y155959D01*
X295626D01*
Y156022D01*
X295689D01*
Y156086D01*
X295372D01*
Y156149D01*
D02*
G37*
G36*
X295626Y156276D02*
X295436D01*
Y156212D01*
X295626D01*
Y156149D01*
X295689D01*
Y156086D01*
X295752D01*
Y156022D01*
Y155959D01*
Y155896D01*
X295816D01*
Y155959D01*
Y156022D01*
Y156086D01*
X295752D01*
Y156149D01*
X295689D01*
Y156212D01*
X295626D01*
Y156276D01*
D02*
G37*
G36*
X291887Y156022D02*
X291824D01*
Y155959D01*
Y155896D01*
X291951D01*
Y155959D01*
X291887D01*
Y156022D01*
D02*
G37*
G36*
X292204Y155452D02*
X292141D01*
Y155389D01*
X292204D01*
Y155452D01*
D02*
G37*
G36*
X292394Y155262D02*
X292331D01*
Y155199D01*
X292394D01*
Y155262D01*
D02*
G37*
G36*
X295119Y155199D02*
X295055D01*
Y155135D01*
X295119D01*
Y155199D01*
D02*
G37*
G36*
X295182Y155009D02*
X295119D01*
Y154945D01*
Y154882D01*
Y154818D01*
X295182D01*
Y154882D01*
Y154945D01*
Y155009D01*
D02*
G37*
G36*
X294992Y154565D02*
X294929D01*
Y154502D01*
X294992D01*
Y154565D01*
D02*
G37*
G36*
X295119Y154692D02*
X295055D01*
Y154628D01*
Y154565D01*
Y154502D01*
X295119D01*
Y154438D01*
X295182D01*
Y154502D01*
X295119D01*
Y154565D01*
Y154628D01*
Y154692D01*
D02*
G37*
G36*
X295055Y154438D02*
X294992D01*
Y154375D01*
Y154312D01*
X295055D01*
Y154375D01*
Y154438D01*
D02*
G37*
G36*
X294992Y154312D02*
X294929D01*
Y154248D01*
Y154185D01*
X294992D01*
Y154248D01*
Y154312D01*
D02*
G37*
G36*
X295689Y153931D02*
X295626D01*
Y153868D01*
X295689D01*
Y153931D01*
D02*
G37*
G36*
X293345D02*
X293281D01*
Y153868D01*
X293345D01*
Y153931D01*
D02*
G37*
G36*
X294358Y153868D02*
X294295D01*
Y153805D01*
X294358D01*
Y153868D01*
D02*
G37*
G36*
X287832Y153044D02*
X287769D01*
Y152981D01*
X287832D01*
Y153044D01*
D02*
G37*
G36*
X291697Y152854D02*
X291634D01*
Y152791D01*
X291697D01*
Y152854D01*
D02*
G37*
G36*
X291761Y152664D02*
X291697D01*
Y152601D01*
X291761D01*
Y152664D01*
D02*
G37*
G36*
X287832Y152791D02*
X287769D01*
Y152728D01*
Y152664D01*
Y152601D01*
X287832D01*
Y152664D01*
Y152728D01*
Y152791D01*
D02*
G37*
G36*
X295816Y152411D02*
X295689D01*
Y152347D01*
X295816D01*
Y152411D01*
D02*
G37*
G36*
X287705Y152601D02*
X287642D01*
Y152538D01*
X287705D01*
Y152474D01*
Y152411D01*
Y152347D01*
X287769D01*
Y152411D01*
Y152474D01*
Y152538D01*
X287705D01*
Y152601D01*
D02*
G37*
G36*
X295816Y152221D02*
X295752D01*
Y152157D01*
X295816D01*
Y152221D01*
D02*
G37*
G36*
X293978Y152031D02*
X293915D01*
Y151967D01*
X293978D01*
Y152031D01*
D02*
G37*
G36*
X287705Y152347D02*
X287642D01*
Y152284D01*
Y152221D01*
X287579D01*
Y152157D01*
Y152094D01*
X287515D01*
Y152031D01*
Y151967D01*
X287452D01*
Y151904D01*
Y151841D01*
X287515D01*
Y151904D01*
X287579D01*
Y151967D01*
Y152031D01*
X287642D01*
Y152094D01*
Y152157D01*
X287705D01*
Y152221D01*
Y152284D01*
Y152347D01*
D02*
G37*
G36*
X295752Y151841D02*
X295689D01*
Y151777D01*
X295752D01*
Y151841D01*
D02*
G37*
G36*
X293535Y150383D02*
X293471D01*
Y150320D01*
X293535D01*
Y150383D01*
D02*
G37*
G36*
X294485Y150257D02*
X294422D01*
Y150193D01*
X294485D01*
Y150257D01*
D02*
G37*
G36*
X286122Y150130D02*
X286058D01*
Y150066D01*
X286122D01*
Y150130D01*
D02*
G37*
G36*
X285551Y150003D02*
X285488D01*
Y149940D01*
X285551D01*
Y150003D01*
D02*
G37*
G36*
X285868Y149179D02*
X285805D01*
Y149116D01*
X285868D01*
Y149179D01*
D02*
G37*
G36*
X285361Y148482D02*
X285298D01*
Y148419D01*
X285361D01*
Y148482D01*
D02*
G37*
G36*
X54635Y9806D02*
X54045D01*
X54019Y9740D01*
X53989Y9681D01*
X53956Y9622D01*
X53920Y9563D01*
X53884Y9511D01*
X53845Y9461D01*
X53806Y9416D01*
X53769Y9373D01*
X53733Y9334D01*
X53697Y9301D01*
X53668Y9271D01*
X53641Y9245D01*
X53619Y9225D01*
X53599Y9212D01*
X53589Y9202D01*
X53586Y9199D01*
X53523Y9153D01*
X53464Y9111D01*
X53405Y9071D01*
X53350Y9035D01*
X53297Y9002D01*
X53245Y8973D01*
X53199Y8950D01*
X53156Y8927D01*
X53113Y8907D01*
X53081Y8891D01*
X53048Y8878D01*
X53022Y8868D01*
X53002Y8858D01*
X52986Y8851D01*
X52976Y8848D01*
X52972D01*
D01*
Y8189D01*
X53071Y8225D01*
X53166Y8264D01*
X53258Y8304D01*
X53346Y8350D01*
X53428Y8395D01*
X53507Y8442D01*
X53576Y8484D01*
X53645Y8530D01*
X53704Y8573D01*
X53756Y8609D01*
X53802Y8645D01*
X53838Y8678D01*
X53871Y8701D01*
X53891Y8720D01*
X53907Y8733D01*
X53910Y8737D01*
Y6008D01*
X52972D01*
D01*
X54635D01*
Y9806D01*
D02*
G37*
G36*
X58174D02*
X55718D01*
X56944D01*
X56843Y9803D01*
X56751Y9789D01*
X56662Y9770D01*
X56577Y9744D01*
X56502Y9714D01*
X56433Y9681D01*
X56367Y9648D01*
X56311Y9612D01*
X56259Y9573D01*
X56213Y9540D01*
X56177Y9507D01*
X56144Y9478D01*
X56121Y9452D01*
X56102Y9432D01*
X56092Y9419D01*
X56088Y9416D01*
X56056Y9370D01*
X56023Y9320D01*
X55967Y9216D01*
X55918Y9101D01*
X55875Y8976D01*
X55839Y8851D01*
X55810Y8724D01*
X55783Y8596D01*
X55764Y8471D01*
X55747Y8353D01*
X55737Y8241D01*
X55728Y8140D01*
Y8094D01*
X55724Y8051D01*
X55721Y8015D01*
Y7979D01*
X55718Y7949D01*
Y7776D01*
X55721Y7681D01*
X55728Y7589D01*
X55731Y7500D01*
X55741Y7415D01*
X55751Y7333D01*
X55760Y7257D01*
X55770Y7182D01*
X55783Y7110D01*
X55796Y7044D01*
X55810Y6982D01*
X55826Y6920D01*
X55839Y6864D01*
X55856Y6811D01*
X55872Y6759D01*
X55888Y6713D01*
X55918Y6628D01*
X55947Y6555D01*
X55977Y6496D01*
X56003Y6447D01*
X56026Y6411D01*
X56042Y6385D01*
X56052Y6372D01*
X56056Y6365D01*
X56121Y6290D01*
X56190Y6224D01*
X56262Y6168D01*
X56338Y6119D01*
X56413Y6080D01*
X56485Y6047D01*
X56557Y6018D01*
X56626Y5995D01*
X56692Y5978D01*
X56751Y5965D01*
X56807Y5955D01*
X56853Y5949D01*
X56892Y5945D01*
X56921Y5942D01*
X56944D01*
X57046Y5945D01*
X57138Y5959D01*
X57230Y5978D01*
X57312Y6001D01*
X57387Y6031D01*
X57456Y6064D01*
X57522Y6100D01*
X57581Y6136D01*
X57630Y6172D01*
X57676Y6208D01*
X57712Y6241D01*
X57745Y6270D01*
X57768Y6293D01*
X57787Y6313D01*
X57797Y6326D01*
X57801Y6329D01*
X57833Y6375D01*
X57866Y6424D01*
X57925Y6529D01*
X57974Y6647D01*
X58017Y6769D01*
X58053Y6893D01*
X58083Y7024D01*
X58109Y7152D01*
X58128Y7277D01*
X58142Y7395D01*
X58155Y7507D01*
X58165Y7608D01*
Y7654D01*
X58168Y7697D01*
X58171Y7733D01*
Y7769D01*
X58174Y7799D01*
Y6047D01*
Y7969D01*
X58171Y8064D01*
X58165Y8156D01*
X58158Y8245D01*
X58152Y8330D01*
X58142Y8412D01*
X58128Y8491D01*
X58115Y8566D01*
X58102Y8638D01*
X58089Y8704D01*
X58073Y8770D01*
X58056Y8832D01*
X58024Y8943D01*
X57991Y9045D01*
X57955Y9133D01*
X57922Y9209D01*
X57889Y9271D01*
X57863Y9324D01*
X57837Y9363D01*
X57820Y9389D01*
X57807Y9406D01*
X57804Y9412D01*
X57745Y9481D01*
X57679Y9544D01*
X57610Y9596D01*
X57538Y9639D01*
X57469Y9678D01*
X57397Y9711D01*
X57325Y9737D01*
X57259Y9757D01*
X57194Y9773D01*
X57135Y9786D01*
X57082Y9793D01*
X57036Y9799D01*
X56997Y9803D01*
X56967Y9806D01*
X58174D01*
D01*
D02*
G37*
G36*
X68982Y9789D02*
X65187Y9789D01*
X66657D01*
X65187Y6008D01*
X65997D01*
X66309Y6867D01*
X67821D01*
X68149Y6008D01*
X66833Y6008D01*
X68982Y6008D01*
X67470Y9789D01*
X68982Y9789D01*
D01*
D02*
G37*
G36*
X65167Y9789D02*
X61372D01*
X62842D01*
X61372Y6008D01*
X62183D01*
X62494Y6867D01*
X64006D01*
X64334Y6008D01*
X65167D01*
X63655Y9789D01*
X65167D01*
D01*
D02*
G37*
G36*
X50748D02*
X49128D01*
Y6008D01*
X52297D01*
Y7103D01*
X52293Y7162D01*
X52290Y7221D01*
X52280Y7277D01*
X52267Y7329D01*
X52254Y7382D01*
X52238Y7428D01*
X52221Y7471D01*
X52205Y7513D01*
X52185Y7549D01*
X52169Y7579D01*
X52152Y7608D01*
X52139Y7631D01*
X52126Y7651D01*
X52116Y7664D01*
X52113Y7671D01*
X52110Y7674D01*
X52074Y7717D01*
X52034Y7759D01*
X51949Y7831D01*
X51860Y7890D01*
X51775Y7936D01*
X51736Y7956D01*
X51700Y7972D01*
X51664Y7989D01*
X51634Y7999D01*
X51611Y8009D01*
X51595Y8015D01*
X51582Y8018D01*
X51578D01*
X51667Y8064D01*
X51742Y8117D01*
X51808Y8169D01*
X51864Y8225D01*
X51906Y8274D01*
X51939Y8314D01*
X51952Y8330D01*
X51959Y8340D01*
X51965Y8346D01*
Y8350D01*
X51992Y8392D01*
X52015Y8435D01*
X52047Y8520D01*
X52074Y8602D01*
X52093Y8678D01*
X52097Y8710D01*
X52103Y8743D01*
X52106Y8770D01*
Y8792D01*
X52110Y8812D01*
Y8825D01*
Y8835D01*
Y8838D01*
X52103Y8927D01*
X52090Y9009D01*
X52074Y9084D01*
X52051Y9150D01*
X52041Y9176D01*
X52028Y9202D01*
X52018Y9225D01*
X52011Y9245D01*
X52002Y9258D01*
X51998Y9268D01*
X51992Y9275D01*
Y9278D01*
X51946Y9347D01*
X51900Y9409D01*
X51851Y9465D01*
X51805Y9511D01*
X51765Y9544D01*
X51732Y9570D01*
X51719Y9580D01*
X51710Y9586D01*
X51706Y9593D01*
X51703D01*
X51637Y9635D01*
X51569Y9668D01*
X51500Y9694D01*
X51441Y9717D01*
X51385Y9734D01*
X51362Y9737D01*
X51342Y9744D01*
X51329Y9747D01*
X51316D01*
X51309Y9750D01*
X51306D01*
X51263Y9757D01*
X51214Y9763D01*
X51162Y9770D01*
X51109Y9773D01*
X50998Y9780D01*
X50890Y9786D01*
X50791D01*
X50748Y9789D01*
D02*
G37*
G36*
X59906Y9806D02*
X59883D01*
X59782Y9803D01*
X59690Y9789D01*
X59601Y9770D01*
X59516Y9744D01*
X59440Y9714D01*
X59372Y9681D01*
X59306Y9648D01*
X59250Y9612D01*
X59198Y9573D01*
X59152Y9540D01*
X59116Y9507D01*
X59083Y9478D01*
X59060Y9452D01*
X59040Y9432D01*
X59030Y9419D01*
X59027Y9416D01*
X58994Y9370D01*
X58962Y9320D01*
X58906Y9216D01*
X58857Y9101D01*
X58814Y8976D01*
X58778Y8851D01*
X58748Y8724D01*
X58722Y8596D01*
X58702Y8471D01*
X58686Y8353D01*
X58676Y8241D01*
X58666Y8140D01*
Y8094D01*
X58663Y8051D01*
X58660Y8015D01*
Y7979D01*
X58657Y7949D01*
Y7776D01*
X58660Y7681D01*
X58666Y7589D01*
X58670Y7500D01*
X58680Y7415D01*
X58689Y7333D01*
X58699Y7257D01*
X58709Y7182D01*
X58722Y7110D01*
X58735Y7044D01*
X58748Y6982D01*
X58765Y6920D01*
X58778Y6864D01*
X58794Y6811D01*
X58811Y6759D01*
X58827Y6713D01*
X58857Y6628D01*
X58886Y6555D01*
X58916Y6496D01*
X58942Y6447D01*
X58965Y6411D01*
X58981Y6385D01*
X58991Y6372D01*
X58994Y6365D01*
X59060Y6290D01*
X59129Y6224D01*
X59201Y6168D01*
X59276Y6119D01*
X59352Y6080D01*
X59424Y6047D01*
X59496Y6018D01*
X59565Y5995D01*
X59631Y5978D01*
X59690Y5965D01*
X59746Y5955D01*
X59791Y5949D01*
X59831Y5945D01*
X59860Y5942D01*
X58657D01*
D01*
X61113D01*
Y7969D01*
X61110Y8064D01*
X61103Y8156D01*
X61097Y8245D01*
X61090Y8330D01*
X61080Y8412D01*
X61067Y8491D01*
X61054Y8566D01*
X61041Y8638D01*
X61028Y8704D01*
X61012Y8770D01*
X60995Y8832D01*
X60962Y8943D01*
X60930Y9045D01*
X60894Y9133D01*
X60861Y9209D01*
X60828Y9271D01*
X60802Y9324D01*
X60776Y9363D01*
X60759Y9389D01*
X60746Y9406D01*
X60743Y9412D01*
X60684Y9481D01*
X60618Y9544D01*
X60549Y9596D01*
X60477Y9639D01*
X60408Y9678D01*
X60336Y9711D01*
X60264Y9737D01*
X60198Y9757D01*
X60133Y9773D01*
X60074Y9786D01*
X60021Y9793D01*
X59975Y9799D01*
X59936Y9803D01*
X59906Y9806D01*
D02*
G37*
%LPD*%
G36*
X56994Y9202D02*
X57036Y9193D01*
X57076Y9179D01*
X57112Y9163D01*
X57138Y9147D01*
X57161Y9133D01*
X57174Y9124D01*
X57177Y9120D01*
X57197Y9104D01*
X57213Y9081D01*
X57249Y9032D01*
X57279Y8976D01*
X57302Y8920D01*
X57322Y8868D01*
X57328Y8845D01*
X57335Y8825D01*
X57341Y8809D01*
X57345Y8796D01*
X57348Y8789D01*
Y8786D01*
X57361Y8733D01*
X57371Y8674D01*
X57381Y8609D01*
X57387Y8537D01*
X57394Y8464D01*
X57400Y8386D01*
X57407Y8235D01*
X57410Y8163D01*
X57414Y8094D01*
Y8032D01*
X57417Y7979D01*
Y7933D01*
Y7900D01*
Y7887D01*
Y7877D01*
Y7874D01*
Y7871D01*
Y7749D01*
X57414Y7638D01*
X57410Y7536D01*
X57404Y7441D01*
X57400Y7356D01*
X57394Y7280D01*
X57387Y7211D01*
X57381Y7149D01*
X57371Y7097D01*
X57364Y7051D01*
X57358Y7011D01*
X57354Y6979D01*
X57348Y6956D01*
X57345Y6939D01*
X57341Y6929D01*
Y6926D01*
X57318Y6851D01*
X57292Y6788D01*
X57263Y6736D01*
X57236Y6693D01*
X57213Y6664D01*
X57194Y6641D01*
X57181Y6628D01*
X57177Y6624D01*
X57138Y6598D01*
X57099Y6578D01*
X57059Y6562D01*
X57023Y6552D01*
X56990Y6546D01*
X56967Y6542D01*
X56944D01*
X56895Y6546D01*
X56853Y6555D01*
X56813Y6569D01*
X56780Y6585D01*
X56751Y6598D01*
X56731Y6611D01*
X56715Y6621D01*
X56712Y6624D01*
X56692Y6641D01*
X56675Y6664D01*
X56643Y6710D01*
X56613Y6765D01*
X56587Y6821D01*
X56567Y6874D01*
X56561Y6897D01*
X56554Y6916D01*
X56548Y6933D01*
X56544Y6946D01*
X56541Y6952D01*
Y6956D01*
X56531Y7008D01*
X56518Y7067D01*
X56511Y7133D01*
X56502Y7205D01*
X56498Y7277D01*
X56492Y7356D01*
X56485Y7507D01*
X56482Y7579D01*
X56479Y7648D01*
Y7710D01*
X56475Y7762D01*
Y7808D01*
Y7841D01*
Y7854D01*
Y7864D01*
Y7868D01*
Y7871D01*
Y7992D01*
X56479Y8104D01*
X56482Y8205D01*
X56485Y8300D01*
X56492Y8386D01*
X56498Y8464D01*
X56505Y8533D01*
X56511Y8596D01*
X56518Y8648D01*
X56525Y8694D01*
X56531Y8733D01*
X56538Y8763D01*
X56541Y8789D01*
X56544Y8805D01*
X56548Y8815D01*
Y8819D01*
X56571Y8894D01*
X56597Y8956D01*
X56623Y9009D01*
X56649Y9052D01*
X56672Y9081D01*
X56692Y9104D01*
X56705Y9117D01*
X56708Y9120D01*
X56748Y9150D01*
X56790Y9170D01*
X56830Y9186D01*
X56866Y9196D01*
X56898Y9202D01*
X56921Y9206D01*
X56944D01*
X56994Y9202D01*
D02*
G37*
G36*
X67575Y7507D02*
X66542D01*
X67053Y8907D01*
X67575Y7507D01*
D02*
G37*
G36*
X63760D02*
X62727D01*
X63239Y8907D01*
X63760Y7507D01*
D02*
G37*
G36*
X50657Y9156D02*
X50771D01*
X50817Y9153D01*
X50890D01*
X50916Y9150D01*
X50955D01*
X50968Y9147D01*
X50981D01*
X51047Y9133D01*
X51106Y9117D01*
X51155Y9094D01*
X51195Y9071D01*
X51227Y9048D01*
X51250Y9029D01*
X51263Y9019D01*
X51267Y9012D01*
X51300Y8969D01*
X51323Y8924D01*
X51342Y8874D01*
X51352Y8828D01*
X51359Y8789D01*
X51365Y8756D01*
Y8743D01*
Y8733D01*
Y8730D01*
Y8727D01*
X51362Y8661D01*
X51349Y8606D01*
X51329Y8553D01*
X51309Y8510D01*
X51286Y8478D01*
X51270Y8451D01*
X51257Y8438D01*
X51250Y8432D01*
X51204Y8395D01*
X51155Y8363D01*
X51106Y8340D01*
X51057Y8323D01*
X51011Y8310D01*
X50978Y8304D01*
X50965Y8300D01*
X50955Y8297D01*
X50922D01*
X50890Y8294D01*
X50854D01*
X50814Y8291D01*
X50722D01*
X50627Y8287D01*
X49892D01*
Y9160D01*
X50588D01*
X50657Y9156D01*
D02*
G37*
G36*
X50690Y7654D02*
X50765Y7651D01*
X50834Y7648D01*
X50896Y7644D01*
X50952Y7641D01*
X51001Y7635D01*
X51044Y7631D01*
X51080Y7625D01*
X51109Y7618D01*
X51132Y7615D01*
X51152Y7612D01*
X51168Y7608D01*
X51178Y7605D01*
X51182Y7602D01*
X51185D01*
X51240Y7579D01*
X51290Y7553D01*
X51329Y7523D01*
X51365Y7497D01*
X51391Y7471D01*
X51408Y7448D01*
X51421Y7435D01*
X51424Y7428D01*
X51454Y7382D01*
X51473Y7333D01*
X51490Y7284D01*
X51500Y7241D01*
X51506Y7198D01*
X51509Y7169D01*
Y7156D01*
Y7146D01*
Y7143D01*
Y7139D01*
X51506Y7067D01*
X51493Y7005D01*
X51477Y6949D01*
X51457Y6903D01*
X51434Y6867D01*
X51418Y6841D01*
X51405Y6824D01*
X51401Y6818D01*
X51359Y6779D01*
X51313Y6746D01*
X51267Y6719D01*
X51221Y6700D01*
X51182Y6687D01*
X51152Y6677D01*
X51139Y6673D01*
X51129Y6670D01*
X51122D01*
X51099Y6667D01*
X51067Y6664D01*
X51034Y6660D01*
X50994Y6657D01*
X50906Y6654D01*
X50817Y6651D01*
X50775D01*
X50735Y6647D01*
X49892D01*
Y7658D01*
X50604D01*
X50690Y7654D01*
D02*
G37*
G36*
X52297Y6008D02*
X50545D01*
X50663Y6011D01*
X50771D01*
X50867Y6014D01*
X50952D01*
X51027Y6018D01*
X51093D01*
X51149Y6021D01*
X51198Y6024D01*
X51237D01*
X51270Y6027D01*
X51313D01*
X51326Y6031D01*
X51336D01*
X51444Y6050D01*
X51546Y6073D01*
X51631Y6103D01*
X51670Y6119D01*
X51706Y6136D01*
X51739Y6149D01*
X51765Y6165D01*
X51792Y6175D01*
X51811Y6188D01*
X51828Y6198D01*
X51837Y6205D01*
X51844Y6211D01*
X51847D01*
X51920Y6270D01*
X51985Y6336D01*
X52041Y6398D01*
X52090Y6460D01*
X52126Y6516D01*
X52143Y6539D01*
X52152Y6562D01*
X52162Y6578D01*
X52169Y6592D01*
X52175Y6598D01*
Y6601D01*
X52215Y6693D01*
X52244Y6782D01*
X52267Y6867D01*
X52280Y6943D01*
X52287Y6979D01*
X52290Y7008D01*
X52293Y7034D01*
Y7061D01*
X52297Y7077D01*
Y6008D01*
D02*
G37*
G36*
X59933Y9202D02*
X59975Y9193D01*
X60014Y9179D01*
X60051Y9163D01*
X60077Y9147D01*
X60100Y9133D01*
X60113Y9124D01*
X60116Y9120D01*
X60136Y9104D01*
X60152Y9081D01*
X60188Y9032D01*
X60218Y8976D01*
X60241Y8920D01*
X60260Y8868D01*
X60267Y8845D01*
X60274Y8825D01*
X60280Y8809D01*
X60283Y8796D01*
X60287Y8789D01*
Y8786D01*
X60300Y8733D01*
X60310Y8674D01*
X60320Y8609D01*
X60326Y8537D01*
X60333Y8464D01*
X60339Y8386D01*
X60346Y8235D01*
X60349Y8163D01*
X60352Y8094D01*
Y8032D01*
X60356Y7979D01*
Y7933D01*
Y7900D01*
Y7887D01*
Y7877D01*
Y7874D01*
Y7871D01*
Y7749D01*
X60352Y7638D01*
X60349Y7536D01*
X60343Y7441D01*
X60339Y7356D01*
X60333Y7280D01*
X60326Y7211D01*
X60320Y7149D01*
X60310Y7097D01*
X60303Y7051D01*
X60297Y7011D01*
X60293Y6979D01*
X60287Y6956D01*
X60283Y6939D01*
X60280Y6929D01*
Y6926D01*
X60257Y6851D01*
X60231Y6788D01*
X60202Y6736D01*
X60175Y6693D01*
X60152Y6664D01*
X60133Y6641D01*
X60119Y6628D01*
X60116Y6624D01*
X60077Y6598D01*
X60037Y6578D01*
X59998Y6562D01*
X59962Y6552D01*
X59929Y6546D01*
X59906Y6542D01*
X59883D01*
X59834Y6546D01*
X59791Y6555D01*
X59752Y6569D01*
X59719Y6585D01*
X59690Y6598D01*
X59670Y6611D01*
X59654Y6621D01*
X59650Y6624D01*
X59631Y6641D01*
X59614Y6664D01*
X59582Y6710D01*
X59552Y6765D01*
X59526Y6821D01*
X59506Y6874D01*
X59500Y6897D01*
X59493Y6916D01*
X59486Y6933D01*
X59483Y6946D01*
X59480Y6952D01*
Y6956D01*
X59470Y7008D01*
X59457Y7067D01*
X59450Y7133D01*
X59440Y7205D01*
X59437Y7277D01*
X59431Y7356D01*
X59424Y7507D01*
X59421Y7579D01*
X59418Y7648D01*
Y7710D01*
X59414Y7762D01*
Y7808D01*
Y7841D01*
Y7854D01*
Y7864D01*
Y7868D01*
Y7871D01*
Y7992D01*
X59418Y8104D01*
X59421Y8205D01*
X59424Y8300D01*
X59431Y8386D01*
X59437Y8464D01*
X59444Y8533D01*
X59450Y8596D01*
X59457Y8648D01*
X59464Y8694D01*
X59470Y8733D01*
X59477Y8763D01*
X59480Y8789D01*
X59483Y8805D01*
X59486Y8815D01*
Y8819D01*
X59509Y8894D01*
X59536Y8956D01*
X59562Y9009D01*
X59588Y9052D01*
X59611Y9081D01*
X59631Y9104D01*
X59644Y9117D01*
X59647Y9120D01*
X59686Y9150D01*
X59729Y9170D01*
X59768Y9186D01*
X59805Y9196D01*
X59837Y9202D01*
X59860Y9206D01*
X59883D01*
X59933Y9202D01*
D02*
G37*
G36*
X61113Y5942D02*
X59883D01*
X59985Y5945D01*
X60077Y5959D01*
X60169Y5978D01*
X60251Y6001D01*
X60326Y6031D01*
X60395Y6064D01*
X60461Y6100D01*
X60520Y6136D01*
X60569Y6172D01*
X60615Y6208D01*
X60651Y6241D01*
X60684Y6270D01*
X60707Y6293D01*
X60726Y6313D01*
X60736Y6326D01*
X60739Y6329D01*
X60772Y6375D01*
X60805Y6424D01*
X60864Y6529D01*
X60913Y6647D01*
X60956Y6769D01*
X60992Y6893D01*
X61022Y7024D01*
X61048Y7152D01*
X61067Y7277D01*
X61080Y7395D01*
X61094Y7507D01*
X61103Y7608D01*
Y7654D01*
X61107Y7697D01*
X61110Y7733D01*
Y7769D01*
X61113Y7799D01*
Y5942D01*
D02*
G37*
%LPC*%
G36*
X277881Y156013D02*
X277835D01*
X277809Y156006D01*
X277730Y155986D01*
X277652Y155947D01*
X277645Y155940D01*
X277632Y155934D01*
X277625D01*
X277619Y155927D01*
X277612D01*
X277606Y155914D01*
X277573Y155881D01*
X277527Y155835D01*
X277488Y155777D01*
X277481D01*
X274345Y150345D01*
X274352D01*
X274345Y150338D01*
Y150332D01*
X274332Y150312D01*
X274326Y150292D01*
X274319Y150279D01*
Y150273D01*
X274313Y150253D01*
X274306Y150233D01*
X274300Y150214D01*
Y150207D01*
X274293Y150187D01*
Y150155D01*
Y150109D01*
Y150063D01*
X274306Y150004D01*
X274326Y149951D01*
X274352Y149892D01*
Y149886D01*
X274365Y149873D01*
X274391Y149840D01*
Y149833D01*
X274405Y149827D01*
X274418Y149807D01*
X274437Y149787D01*
X274444Y149781D01*
X274457Y149767D01*
X274490Y149748D01*
X274522Y149728D01*
X274569Y149702D01*
X274621Y149682D01*
X274687Y149669D01*
X274752Y149663D01*
X281017D01*
X281024Y149669D01*
X281096D01*
X281109Y149676D01*
X281142Y149682D01*
X281155Y149689D01*
X281161D01*
X281181Y149702D01*
X281214Y149715D01*
X281246Y149735D01*
X281293Y149761D01*
X281332Y149794D01*
X281371Y149840D01*
X281411Y149892D01*
Y149899D01*
X281424Y149912D01*
X281430Y149932D01*
X281443Y149964D01*
X281463Y150037D01*
X281476Y150122D01*
Y150128D01*
Y150135D01*
X281470Y150161D01*
Y150168D01*
Y150181D01*
X281463Y150200D01*
Y150220D01*
X281443Y150286D01*
X281411Y150351D01*
Y150358D01*
X278275Y155783D01*
X278268Y155790D01*
X278262Y155803D01*
X278236Y155835D01*
Y155842D01*
X278222Y155849D01*
X278209Y155868D01*
X278190Y155888D01*
X278183Y155895D01*
X278163Y155908D01*
X278137Y155927D01*
X278104Y155947D01*
X278058Y155967D01*
X278006Y155986D01*
X277947Y156000D01*
X277881Y156006D01*
Y156013D01*
D02*
G37*
%LPD*%
G36*
X276976Y152280D02*
X279036Y153349D01*
X277783Y150745D01*
X278236Y150856D01*
X277488Y149977D01*
X277310Y151027D01*
X277658Y150758D01*
X278144Y152634D01*
X276563Y151854D01*
X277573Y155370D01*
X278321Y155396D01*
X276976Y152280D01*
D02*
G37*
%LPC*%
G36*
X267713Y156013D02*
X267667D01*
X267641Y156006D01*
X267569Y155986D01*
X267484Y155947D01*
X267477D01*
X267471Y155940D01*
X267457Y155934D01*
X267451Y155927D01*
X267444D01*
X267438Y155914D01*
X267405Y155881D01*
X267359Y155835D01*
X267320Y155777D01*
X265837Y153218D01*
X266322Y152936D01*
X266329Y152949D01*
X266362Y152975D01*
X266408Y153021D01*
X266473Y153080D01*
X266480D01*
X266487Y153087D01*
X266526Y153113D01*
X266578Y153153D01*
X266657Y153205D01*
X266664D01*
X266670Y153211D01*
X266703Y153231D01*
X266710Y153238D01*
X266723Y153244D01*
X266762Y153271D01*
X266769Y153277D01*
X266782Y153284D01*
X266828Y153310D01*
X266874Y153343D01*
X266900Y153356D01*
X266913Y153362D01*
X266919D01*
X266926Y153369D01*
X266959Y153395D01*
X267018Y153435D01*
X267084Y153481D01*
X267162Y153533D01*
X267254Y153579D01*
X267339Y153625D01*
X267425Y153658D01*
X267438Y153664D01*
X267471Y153671D01*
X267516Y153684D01*
X267582Y153697D01*
X267667Y153710D01*
X267759Y153717D01*
X267864Y153723D01*
X268028D01*
X268061Y153717D01*
X268179D01*
X268212Y153710D01*
X268304D01*
X268363Y153703D01*
X268520D01*
X268553Y153710D01*
X268592D01*
X268645Y153717D01*
X268704Y153730D01*
X268815Y153769D01*
X269183Y153920D01*
X268107Y155783D01*
Y155790D01*
X268094Y155803D01*
X268068Y155835D01*
X268061Y155842D01*
X268054Y155855D01*
X268022Y155888D01*
X268015Y155895D01*
X267995Y155908D01*
X267969Y155927D01*
X267936Y155947D01*
X267890Y155967D01*
X267838Y155986D01*
X267779Y156000D01*
X267713Y156006D01*
Y156013D01*
D02*
G37*
G36*
X269242Y153815D02*
X268861Y153658D01*
X268855D01*
X268835Y153645D01*
X268796Y153631D01*
X268750Y153618D01*
X268697Y153605D01*
X268638Y153592D01*
X268500Y153579D01*
X268389D01*
X268330Y153585D01*
X268271D01*
X268140Y153592D01*
X268087D01*
X268054Y153599D01*
X267798D01*
X267720Y153592D01*
X267635Y153579D01*
X267549Y153566D01*
X267464Y153540D01*
X267457D01*
X267425Y153526D01*
X267385Y153507D01*
X267326Y153481D01*
X267254Y153441D01*
X267175Y153395D01*
X267084Y153336D01*
X266985Y153271D01*
X266979Y153264D01*
X266946Y153244D01*
X266893Y153211D01*
X266821Y153166D01*
X266814D01*
X266801Y153153D01*
X266769Y153133D01*
X266723Y153107D01*
X266716D01*
X266710Y153100D01*
X266670Y153074D01*
X266611Y153034D01*
X266546Y152982D01*
X266532Y152975D01*
X266506Y152949D01*
X266473Y152916D01*
X266427Y152877D01*
X268796Y151506D01*
X268809Y151513D01*
X268835Y151519D01*
X268881Y151539D01*
X268947Y151572D01*
X269019Y151624D01*
X269110Y151683D01*
X269209Y151768D01*
X269314Y151873D01*
X269321Y151880D01*
X269340Y151900D01*
X269366Y151926D01*
X269399Y151959D01*
X269406Y151965D01*
X269419Y151985D01*
X269452Y152031D01*
X269458Y152044D01*
X269465Y152057D01*
X269478Y152077D01*
X269491Y152103D01*
X269511Y152142D01*
X269530Y152188D01*
X269550Y152241D01*
Y152247D01*
X269557Y152267D01*
X269570Y152293D01*
X269583Y152326D01*
X269616Y152398D01*
X269649Y152470D01*
Y152477D01*
X269662Y152490D01*
X269675Y152510D01*
X269688Y152536D01*
X269734Y152595D01*
X269786Y152654D01*
X269793Y152661D01*
X269812Y152680D01*
X269839Y152706D01*
X269871Y152726D01*
X269242Y153815D01*
D02*
G37*
G36*
X267543Y151808D02*
Y151801D01*
X267536Y151775D01*
Y151749D01*
Y151722D01*
Y151716D01*
Y151690D01*
X267543Y151657D01*
X267556Y151624D01*
X267562Y151611D01*
X267569Y151598D01*
X267576Y151585D01*
X267589Y151552D01*
X267608Y151513D01*
X267635Y151480D01*
X267641Y151486D01*
X267654Y151499D01*
X267674Y151513D01*
X267707Y151539D01*
X267772Y151585D01*
X267838Y151637D01*
X267543Y151808D01*
D02*
G37*
G36*
X267221Y151991D02*
X267215Y151985D01*
X267202Y151965D01*
X267189Y151939D01*
X267175Y151900D01*
Y151886D01*
X267169Y151860D01*
X267162Y151827D01*
Y151781D01*
Y151775D01*
Y151749D01*
Y151722D01*
Y151683D01*
Y151650D01*
Y151617D01*
Y151591D01*
Y151585D01*
Y151578D01*
Y151565D01*
Y151526D01*
X267169Y151467D01*
X267182Y151414D01*
Y151401D01*
X267189Y151388D01*
X267195Y151368D01*
Y151362D01*
X267202Y151348D01*
X267215Y151322D01*
X267221Y151309D01*
X267234Y151276D01*
X267261Y151224D01*
X267300Y151158D01*
X267306Y151165D01*
X267320Y151184D01*
X267326Y151191D01*
X267339Y151211D01*
X267346Y151217D01*
X267353Y151230D01*
X267372Y151250D01*
X267398Y151270D01*
X267464Y151335D01*
X267536Y151401D01*
X267530Y151408D01*
X267516Y151440D01*
X267490Y151486D01*
X267457Y151552D01*
Y151558D01*
X267451Y151565D01*
X267444Y151578D01*
X267438Y151591D01*
X267431Y151617D01*
X267418Y151663D01*
X267411Y151722D01*
Y151729D01*
Y151735D01*
X267418Y151768D01*
X267425Y151814D01*
X267438Y151873D01*
X267221Y151991D01*
D02*
G37*
G36*
X266939Y152162D02*
Y152155D01*
X266933Y152149D01*
X266926Y152129D01*
X266919Y152103D01*
X266887Y152037D01*
X266861Y151991D01*
X266828Y151945D01*
Y151939D01*
X266814Y151932D01*
X266795Y151893D01*
X266769Y151840D01*
X266749Y151795D01*
Y151781D01*
Y151768D01*
X266756Y151742D01*
X266762Y151709D01*
X266769Y151670D01*
X266782Y151617D01*
X266801Y151552D01*
Y151545D01*
X266814Y151519D01*
X266821Y151486D01*
X266834Y151440D01*
X266847Y151355D01*
X266854Y151316D01*
X266847Y151283D01*
Y151276D01*
X266841Y151263D01*
Y151243D01*
X266834Y151211D01*
Y151139D01*
Y151053D01*
Y151040D01*
Y151027D01*
X266841Y151021D01*
Y151014D01*
X266847D01*
X266861Y151007D01*
X266874Y151001D01*
X266880Y150994D01*
X266874D01*
X266880Y150988D01*
X266887Y150981D01*
X266906Y150975D01*
X266913Y150968D01*
X266926Y150961D01*
X266946Y150948D01*
X266952Y150935D01*
Y150929D01*
X266965Y150922D01*
X266992Y150902D01*
X267024Y150883D01*
X267031Y150876D01*
X267051Y150870D01*
X267077Y150856D01*
X267097Y150843D01*
Y150850D01*
X267103Y150863D01*
X267116Y150883D01*
X267129Y150909D01*
X267169Y150975D01*
X267221Y151060D01*
Y151066D01*
X267208Y151079D01*
X267195Y151099D01*
X267182Y151125D01*
X267143Y151191D01*
X267103Y151270D01*
X267097Y151283D01*
X267090Y151303D01*
X267077Y151322D01*
Y151329D01*
Y151335D01*
X267070Y151348D01*
X267057Y151381D01*
Y151388D01*
Y151401D01*
X267051Y151434D01*
X267044Y151460D01*
Y151493D01*
X267038Y151539D01*
Y151585D01*
Y151591D01*
Y151611D01*
Y151644D01*
Y151676D01*
Y151683D01*
Y151709D01*
Y151742D01*
Y151781D01*
Y151788D01*
Y151795D01*
Y151834D01*
X267044Y151880D01*
X267057Y151932D01*
Y151939D01*
X267064Y151945D01*
X267070Y151978D01*
X267090Y152018D01*
X267116Y152057D01*
X266939Y152162D01*
D02*
G37*
G36*
X268284Y151066D02*
X268277D01*
X268271Y151060D01*
X268232Y151034D01*
X268192Y151007D01*
X268153Y150981D01*
X268140Y150968D01*
X268113Y150942D01*
X268068Y150889D01*
X268028Y150817D01*
X268022Y150811D01*
X268015Y150797D01*
Y150791D01*
X268008Y150784D01*
X268015Y150778D01*
X268035Y150771D01*
X268061Y150758D01*
X268094Y150745D01*
X268100D01*
X268113Y150738D01*
X268133Y150732D01*
X268159D01*
X268232Y150719D01*
X268317Y150712D01*
X268330D01*
X268369Y150719D01*
X268409Y150732D01*
X268428Y150738D01*
X268441Y150745D01*
Y150751D01*
Y150758D01*
X268448Y150765D01*
X268455Y150797D01*
X268461Y150830D01*
X268468Y150856D01*
Y150863D01*
Y150876D01*
X268461Y150896D01*
X268448Y150922D01*
X268441Y150929D01*
X268428D01*
Y150935D01*
X268422Y150942D01*
X268409Y150955D01*
X268369Y151001D01*
X268323Y151047D01*
X268304Y151060D01*
X268284Y151066D01*
D02*
G37*
G36*
X267956Y151572D02*
X267949Y151565D01*
X267936Y151558D01*
X267910Y151539D01*
X267884Y151519D01*
X267845Y151486D01*
X267798Y151453D01*
X267700Y151375D01*
X267694Y151368D01*
X267674Y151355D01*
X267648Y151335D01*
X267615Y151303D01*
X267523Y151224D01*
X267431Y151125D01*
X267418Y151112D01*
X267385Y151073D01*
X267346Y151014D01*
X267293Y150942D01*
X267241Y150856D01*
X267202Y150758D01*
X267169Y150660D01*
X267156Y150555D01*
X267162Y150561D01*
X267169Y150581D01*
X267175Y150601D01*
X267189Y150614D01*
X267195D01*
X267202Y150627D01*
X267234Y150653D01*
X267287Y150686D01*
X267353Y150712D01*
X267359D01*
X267372Y150719D01*
X267385Y150725D01*
X267411D01*
X267418Y150732D01*
X267438D01*
X267457Y150738D01*
X267464D01*
X267484Y150745D01*
X267510D01*
X267543Y150751D01*
X267621Y150758D01*
X267700Y150751D01*
X267707D01*
X267720Y150745D01*
X267759Y150738D01*
X267766D01*
X267785Y150732D01*
X267812Y150725D01*
X267851Y150706D01*
Y150712D01*
X267858Y150725D01*
X267871Y150758D01*
Y150765D01*
X267877Y150791D01*
X267890Y150824D01*
X267917Y150870D01*
Y150876D01*
X267930Y150889D01*
X267943Y150916D01*
X267963Y150948D01*
X268015Y151014D01*
X268081Y151079D01*
X268087Y151086D01*
X268107Y151099D01*
X268127Y151112D01*
X268153Y151125D01*
X268186Y151145D01*
X268225Y151171D01*
X268232Y151178D01*
X268245Y151184D01*
X268271Y151204D01*
X268297Y151224D01*
X268356Y151263D01*
X268389Y151289D01*
X268409Y151309D01*
X267956Y151572D01*
D02*
G37*
G36*
X267969Y150666D02*
X267963Y150653D01*
Y150640D01*
X267956Y150614D01*
Y150607D01*
X267949Y150601D01*
Y150581D01*
X267936Y150555D01*
X267910Y150496D01*
X267871Y150417D01*
X267877Y150410D01*
X267910Y150391D01*
X267949Y150378D01*
X268008Y150364D01*
X268022D01*
X268048Y150371D01*
X268081Y150384D01*
X268113Y150404D01*
X268120Y150410D01*
X268127Y150417D01*
X268140Y150437D01*
Y150443D01*
X268146Y150456D01*
X268153Y150469D01*
Y150476D01*
Y150483D01*
Y150515D01*
X268140Y150561D01*
X268113Y150614D01*
X268107D01*
X268094Y150620D01*
X268074Y150627D01*
X268054Y150633D01*
X268048Y150640D01*
X268022Y150647D01*
X267995Y150653D01*
X267969Y150666D01*
D02*
G37*
G36*
X266198Y152588D02*
Y152582D01*
X266191Y152569D01*
X266185Y152536D01*
X266178Y152503D01*
X266159Y152451D01*
X266139Y152398D01*
X266106Y152332D01*
X266073Y152260D01*
Y152254D01*
X266060Y152234D01*
X266047Y152208D01*
X266034Y152175D01*
X266008Y152103D01*
X265995Y152070D01*
X265988Y152044D01*
Y152037D01*
Y152024D01*
X265981Y151998D01*
Y151965D01*
X265988Y151919D01*
X265995Y151854D01*
X266014Y151781D01*
X266034Y151696D01*
X266040Y151683D01*
X266047Y151657D01*
X266060Y151617D01*
X266067Y151578D01*
Y151572D01*
Y151565D01*
X266073Y151552D01*
X266080Y151532D01*
X266086Y151499D01*
X266093Y151453D01*
X266100Y151401D01*
X266113Y151335D01*
X266119Y151263D01*
Y151257D01*
X266126Y151237D01*
Y151204D01*
X266132Y151165D01*
X266145Y151079D01*
X266159Y151034D01*
X266165Y150994D01*
Y150988D01*
X266172Y150975D01*
X266178Y150955D01*
X266191Y150929D01*
X266218Y150863D01*
X266250Y150784D01*
Y150778D01*
X266257Y150771D01*
X266270Y150732D01*
X266290Y150686D01*
X266303Y150647D01*
X266309D01*
X266322Y150653D01*
X266329D01*
X266342Y150660D01*
X266414D01*
X266441Y150653D01*
X266473Y150640D01*
X266513Y150620D01*
X266559Y150587D01*
X266598Y150548D01*
X266637Y150496D01*
Y150489D01*
X266644Y150476D01*
X266657Y150463D01*
X266670Y150450D01*
X266677Y150437D01*
X266690Y150410D01*
X266710Y150378D01*
X266723Y150338D01*
Y150332D01*
X266729Y150319D01*
Y150299D01*
Y150273D01*
Y150266D01*
Y150253D01*
Y150233D01*
X266723Y150220D01*
X266729D01*
X266736Y150227D01*
X266742Y150233D01*
X266749Y150240D01*
X266756Y150246D01*
X266762Y150253D01*
X266801Y150292D01*
X266841Y150351D01*
X266854Y150384D01*
X266861Y150424D01*
Y150430D01*
Y150443D01*
X266854Y150463D01*
X266847Y150502D01*
X266834Y150555D01*
X266821Y150627D01*
X266795Y150719D01*
X266762Y150830D01*
Y150843D01*
X266756Y150863D01*
X266749Y150883D01*
X266742Y150909D01*
X266736Y150922D01*
X266729Y150948D01*
X266723Y150981D01*
Y150988D01*
X266716Y151007D01*
Y151014D01*
Y151021D01*
Y151047D01*
Y151053D01*
Y151066D01*
Y151093D01*
Y151132D01*
Y151211D01*
X266736Y151309D01*
Y151316D01*
Y151329D01*
Y151348D01*
X266729Y151375D01*
X266723Y151408D01*
X266710Y151453D01*
X266690Y151506D01*
Y151513D01*
X266677Y151539D01*
X266670Y151578D01*
X266657Y151624D01*
X266637Y151729D01*
X266631Y151775D01*
Y151814D01*
Y151821D01*
X266637Y151827D01*
X266651Y151867D01*
X266677Y151932D01*
X266703Y151972D01*
X266729Y152011D01*
X266736Y152018D01*
X266742Y152031D01*
X266756Y152057D01*
X266775Y152090D01*
X266808Y152155D01*
X266814Y152195D01*
X266821Y152227D01*
X266198Y152588D01*
D02*
G37*
G36*
X267681Y150699D02*
X267621D01*
X267589Y150692D01*
X267543D01*
X267490Y150686D01*
X267444Y150673D01*
X267438D01*
X267425Y150666D01*
X267405D01*
X267398Y150660D01*
X267385Y150653D01*
X267366D01*
X267359Y150647D01*
X267326Y150633D01*
X267280Y150601D01*
X267234Y150568D01*
Y150561D01*
X267221Y150548D01*
X267208Y150515D01*
X267195Y150489D01*
X267182Y150456D01*
Y150450D01*
X267175Y150443D01*
X267169Y150424D01*
X267162Y150397D01*
Y150391D01*
X267169Y150378D01*
X267182Y150338D01*
X267202Y150286D01*
X267241Y150233D01*
X267248Y150227D01*
X267261Y150220D01*
X267287Y150207D01*
X267333Y150194D01*
X267385D01*
X267431Y150200D01*
X267457D01*
X267477Y150207D01*
X267503Y150220D01*
X267510D01*
X267523Y150227D01*
X267543Y150240D01*
X267582Y150259D01*
X267595Y150266D01*
X267621Y150299D01*
X267641Y150325D01*
X267667Y150351D01*
X267700Y150391D01*
X267733Y150437D01*
X267740Y150443D01*
X267746Y150456D01*
X267766Y150483D01*
X267785Y150509D01*
X267818Y150581D01*
X267831Y150614D01*
X267838Y150640D01*
X267831Y150647D01*
X267798Y150660D01*
X267753Y150679D01*
X267681Y150699D01*
D02*
G37*
G36*
X266388Y150601D02*
X266375D01*
X266336Y150594D01*
X266329D01*
X266322Y150587D01*
X266336Y150555D01*
X266342Y150542D01*
X266349Y150515D01*
X266362Y150476D01*
X266382Y150430D01*
X266427Y150325D01*
X266454Y150286D01*
X266473Y150253D01*
X266487Y150240D01*
X266513Y150220D01*
X266552Y150194D01*
X266578Y150187D01*
X266605Y150181D01*
X266657D01*
X266664Y150187D01*
Y150194D01*
Y150207D01*
Y150220D01*
Y150227D01*
Y150240D01*
Y150273D01*
Y150279D01*
Y150292D01*
Y150312D01*
Y150319D01*
Y150325D01*
X266651Y150345D01*
X266637Y150378D01*
X266618Y150410D01*
X266611Y150417D01*
X266598Y150437D01*
X266592Y150443D01*
X266585Y150469D01*
X266578Y150476D01*
X266572Y150489D01*
X266532Y150535D01*
X266467Y150581D01*
X266427Y150594D01*
X266388Y150601D01*
D02*
G37*
G36*
X269937Y152621D02*
X269931D01*
X269924Y152615D01*
X269911Y152608D01*
X269871Y152569D01*
X269865Y152562D01*
X269839Y152529D01*
X269799Y152483D01*
X269753Y152411D01*
Y152405D01*
X269747Y152392D01*
X269740Y152378D01*
X269727Y152359D01*
X269714Y152332D01*
X269701Y152300D01*
X269681Y152254D01*
X269662Y152201D01*
Y152195D01*
X269655Y152175D01*
X269642Y152149D01*
X269629Y152116D01*
X269596Y152037D01*
X269576Y151998D01*
X269557Y151965D01*
X269550Y151959D01*
X269537Y151939D01*
X269517Y151913D01*
X269491Y151880D01*
X269484Y151873D01*
X269458Y151847D01*
X269432Y151814D01*
X269399Y151788D01*
X269386Y151775D01*
X269353Y151749D01*
X269307Y151703D01*
X269242Y151650D01*
X269170Y151585D01*
X269091Y151526D01*
X269012Y151473D01*
X268927Y151427D01*
X271302Y150056D01*
Y150063D01*
X271308Y150069D01*
Y150095D01*
Y150122D01*
Y150128D01*
Y150135D01*
X271302Y150161D01*
X271308D01*
Y150168D01*
Y150181D01*
X271302Y150200D01*
X271295Y150227D01*
X271275Y150286D01*
X271242Y150351D01*
Y150358D01*
X269937Y152621D01*
D02*
G37*
G36*
X265653Y152897D02*
X264184Y150345D01*
X264177Y150338D01*
Y150332D01*
X264164Y150312D01*
X264158Y150292D01*
X264151Y150279D01*
Y150273D01*
X264145Y150259D01*
X264138Y150240D01*
X264131Y150214D01*
Y150207D01*
X264125Y150181D01*
Y150148D01*
Y150109D01*
X264131Y150056D01*
X264138Y150004D01*
X264158Y149945D01*
X264184Y149892D01*
Y149886D01*
X264197Y149879D01*
X264223Y149840D01*
Y149833D01*
X264236Y149827D01*
X264250Y149807D01*
X264269Y149787D01*
X264276Y149781D01*
X264296Y149767D01*
X264322Y149748D01*
X264361Y149728D01*
X264407Y149702D01*
X264459Y149682D01*
X264518Y149669D01*
X264584Y149663D01*
X270849D01*
X270855Y149669D01*
X270921D01*
X270934Y149676D01*
X270954Y149682D01*
X270974Y149689D01*
X270993D01*
X271000Y149695D01*
X271026Y149702D01*
X271065Y149722D01*
X271105Y149748D01*
X268520Y151243D01*
X268507Y151237D01*
X268481Y151211D01*
X268441Y151171D01*
X268395Y151139D01*
X268402Y151132D01*
X268428Y151112D01*
X268468Y151073D01*
X268520Y151021D01*
X268527Y151014D01*
X268533Y151001D01*
X268540Y150988D01*
X268566Y150955D01*
X268586Y150909D01*
X268592Y150850D01*
Y150837D01*
X268586Y150811D01*
X268579Y150765D01*
X268560Y150712D01*
X268553Y150706D01*
X268533Y150673D01*
X268520Y150660D01*
X268507Y150647D01*
X268487Y150633D01*
X268455Y150620D01*
X268415Y150607D01*
X268369Y150601D01*
X268317Y150594D01*
X268264D01*
Y150587D01*
Y150581D01*
X268271Y150548D01*
X268277Y150496D01*
X268271Y150443D01*
Y150437D01*
X268264Y150430D01*
X268258Y150410D01*
X268251Y150384D01*
Y150378D01*
X268238Y150364D01*
X268232Y150351D01*
X268218Y150338D01*
Y150332D01*
X268212Y150325D01*
X268205Y150319D01*
X268199Y150312D01*
X268192Y150305D01*
X268173Y150292D01*
X268153Y150279D01*
X268081Y150253D01*
X268041Y150246D01*
X267976D01*
X267956Y150253D01*
X267930D01*
X267871Y150279D01*
X267831Y150292D01*
X267798Y150319D01*
Y150312D01*
X267785Y150305D01*
X267753Y150266D01*
X267707Y150214D01*
X267654Y150168D01*
X267648Y150161D01*
X267628Y150148D01*
X267595Y150128D01*
X267556Y150109D01*
X267549Y150102D01*
X267523Y150095D01*
X267484Y150082D01*
X267444Y150076D01*
X267300D01*
X267254Y150089D01*
X267208Y150115D01*
X267156Y150148D01*
X267149Y150155D01*
X267136Y150168D01*
X267116Y150194D01*
X267097Y150233D01*
X267077Y150286D01*
X267057Y150345D01*
X267044Y150424D01*
X267038Y150509D01*
Y150515D01*
Y150522D01*
Y150529D01*
Y150542D01*
Y150548D01*
Y150555D01*
Y150594D01*
X267044Y150647D01*
X267057Y150712D01*
X267044Y150725D01*
X267018Y150745D01*
X266992Y150758D01*
X266965Y150778D01*
X266959Y150784D01*
X266939Y150791D01*
X266913Y150811D01*
X266893Y150824D01*
Y150817D01*
X266900Y150811D01*
X266906Y150771D01*
X266919Y150719D01*
X266939Y150660D01*
X266952Y150587D01*
X266965Y150522D01*
X266979Y150463D01*
Y150417D01*
Y150410D01*
X266972Y150391D01*
X266965Y150364D01*
X266952Y150325D01*
X266939Y150279D01*
X266906Y150240D01*
X266874Y150194D01*
X266828Y150148D01*
X266821Y150141D01*
X266795Y150122D01*
X266762Y150102D01*
X266723Y150082D01*
X266710Y150076D01*
X266683Y150069D01*
X266644Y150063D01*
X266598Y150056D01*
X266592D01*
X266578Y150063D01*
X266552Y150069D01*
X266519Y150076D01*
X266487Y150089D01*
X266454Y150109D01*
X266414Y150141D01*
X266382Y150174D01*
X266375Y150181D01*
X266369Y150194D01*
X266355Y150214D01*
X266336Y150253D01*
X266309Y150299D01*
X266283Y150351D01*
X266257Y150424D01*
X266224Y150509D01*
Y150515D01*
X266218Y150535D01*
X266211Y150555D01*
X266205Y150561D01*
Y150568D01*
X266198Y150574D01*
X266191Y150587D01*
X266185Y150614D01*
X266172Y150640D01*
X266159Y150679D01*
X266139Y150732D01*
Y150738D01*
X266126Y150758D01*
X266119Y150784D01*
X266106Y150817D01*
X266073Y150889D01*
X266060Y150922D01*
X266054Y150955D01*
Y150961D01*
X266047Y150968D01*
Y150988D01*
X266040Y151021D01*
X266027Y151060D01*
X266021Y151106D01*
X266014Y151171D01*
X266001Y151243D01*
Y151250D01*
X265995Y151276D01*
Y151316D01*
X265988Y151355D01*
X265968Y151460D01*
X265962Y151506D01*
X265949Y151545D01*
Y151552D01*
Y151558D01*
X265942Y151578D01*
X265935Y151617D01*
X265916Y151663D01*
Y151670D01*
Y151676D01*
X265903Y151709D01*
X265890Y151762D01*
X265883Y151827D01*
X265863Y151965D01*
Y152024D01*
X265870Y152077D01*
Y152083D01*
X265877Y152090D01*
X265883Y152109D01*
X265890Y152136D01*
X265903Y152175D01*
X265922Y152214D01*
X265942Y152260D01*
X265968Y152313D01*
X265975Y152319D01*
X265981Y152346D01*
X266001Y152385D01*
X266021Y152431D01*
X266060Y152542D01*
X266073Y152601D01*
X266080Y152654D01*
X265653Y152897D01*
D02*
G37*
G36*
X257545Y156013D02*
X257499D01*
X257473Y156006D01*
X257401Y155986D01*
X257316Y155947D01*
X257309D01*
X257302Y155940D01*
X257289Y155934D01*
X257283Y155927D01*
X257276D01*
X257270Y155914D01*
X257237Y155881D01*
X257191Y155835D01*
X257152Y155777D01*
X254016Y150345D01*
X254009Y150338D01*
Y150332D01*
X253996Y150312D01*
X253990Y150292D01*
X253983Y150279D01*
Y150273D01*
X253977Y150259D01*
X253970Y150240D01*
X253963Y150214D01*
Y150207D01*
X253957Y150181D01*
Y150148D01*
Y150109D01*
X253963Y150056D01*
X253970Y150004D01*
X253990Y149945D01*
X254016Y149892D01*
Y149886D01*
X254029Y149879D01*
X254055Y149840D01*
Y149833D01*
X254068Y149827D01*
X254082Y149807D01*
X254101Y149787D01*
X254108Y149781D01*
X254128Y149767D01*
X254154Y149748D01*
X254193Y149728D01*
X254239Y149702D01*
X254292Y149682D01*
X254350Y149669D01*
X254416Y149663D01*
X260681D01*
X260687Y149669D01*
X260753D01*
X260766Y149676D01*
X260786Y149682D01*
X260806Y149689D01*
X260825D01*
X260845Y149702D01*
X260878Y149715D01*
X260911Y149735D01*
X260957Y149761D01*
X260996Y149794D01*
X261035Y149840D01*
X261074Y149892D01*
X261081D01*
Y149899D01*
X261088Y149912D01*
X261101Y149932D01*
X261114Y149958D01*
X261134Y150037D01*
X261140Y150122D01*
Y150128D01*
Y150135D01*
X261134Y150161D01*
X261140D01*
Y150168D01*
Y150181D01*
X261134Y150200D01*
X261127Y150227D01*
X261107Y150286D01*
X261074Y150351D01*
Y150358D01*
X257939Y155783D01*
Y155790D01*
X257926Y155803D01*
X257899Y155835D01*
X257893Y155842D01*
X257886Y155855D01*
X257854Y155888D01*
X257847Y155895D01*
X257827Y155908D01*
X257801Y155927D01*
X257768Y155947D01*
X257722Y155967D01*
X257670Y155986D01*
X257611Y156000D01*
X257545Y156006D01*
Y156013D01*
D02*
G37*
%LPD*%
G36*
Y154891D02*
X257985D01*
Y154878D01*
Y154845D01*
Y154792D01*
Y154727D01*
Y154648D01*
Y154556D01*
Y154458D01*
Y154359D01*
Y154346D01*
Y154314D01*
Y154261D01*
Y154195D01*
Y154117D01*
Y154025D01*
Y153927D01*
Y153828D01*
Y153822D01*
Y153808D01*
X257978Y153789D01*
X257972Y153756D01*
Y153717D01*
X257959Y153664D01*
X257952Y153592D01*
Y153579D01*
Y153566D01*
X257945Y153546D01*
Y153513D01*
X257939Y153474D01*
X257932Y153428D01*
X257926Y153369D01*
X257919Y153303D01*
X257906Y153218D01*
X257893Y153126D01*
X257880Y153021D01*
X257867Y152897D01*
X257854Y152765D01*
X257834Y152615D01*
X257814Y152444D01*
Y152431D01*
Y152418D01*
Y152392D01*
X257808Y152359D01*
X257801Y152313D01*
X257794Y152254D01*
X257788Y152175D01*
Y152169D01*
Y152142D01*
X257781Y152103D01*
X257775Y152064D01*
X257768Y152024D01*
X257762Y151985D01*
X257749Y151952D01*
X257742Y151939D01*
X257591D01*
X257460Y151932D01*
X257335D01*
Y151939D01*
Y151952D01*
X257329Y151985D01*
Y152011D01*
X257322Y152044D01*
X257316Y152083D01*
X257309Y152136D01*
X257302Y152201D01*
X257296Y152273D01*
X257283Y152352D01*
X257270Y152451D01*
X257257Y152562D01*
X257243Y152687D01*
Y152693D01*
X257237Y152719D01*
Y152752D01*
X257230Y152798D01*
X257224Y152851D01*
X257217Y152910D01*
X257198Y153048D01*
X257185Y153179D01*
X257178Y153238D01*
X257171Y153297D01*
X257165Y153343D01*
X257158Y153382D01*
X257152Y153408D01*
Y153421D01*
Y153428D01*
Y153448D01*
X257145Y153467D01*
Y153500D01*
X257138Y153566D01*
X257132Y153592D01*
X257125Y153618D01*
Y153631D01*
X257119Y153664D01*
X257112Y153723D01*
X257106Y153802D01*
Y153815D01*
Y153848D01*
Y153900D01*
Y153972D01*
Y154058D01*
Y154150D01*
Y154346D01*
Y154359D01*
Y154392D01*
Y154451D01*
Y154517D01*
Y154602D01*
Y154694D01*
Y154897D01*
X257388D01*
X257545Y154891D01*
D02*
G37*
G36*
X257939Y151572D02*
Y151545D01*
Y151506D01*
Y151453D01*
Y151394D01*
Y151329D01*
Y151178D01*
Y151171D01*
Y151145D01*
Y151106D01*
Y151053D01*
Y150994D01*
Y150929D01*
Y150778D01*
X257106D01*
Y150784D01*
Y150811D01*
Y150850D01*
Y150902D01*
Y150968D01*
Y151034D01*
Y151178D01*
Y151184D01*
Y151211D01*
Y151250D01*
Y151303D01*
Y151368D01*
Y151434D01*
Y151578D01*
X257939D01*
Y151572D01*
D02*
G37*
%LPC*%
G36*
X264158Y148915D02*
Y148908D01*
X264151Y148895D01*
Y148875D01*
X264138Y148856D01*
X264125Y148790D01*
X264099Y148718D01*
X263981Y148410D01*
X264335D01*
X264230Y148698D01*
Y148705D01*
X264223Y148718D01*
X264217Y148744D01*
X264204Y148770D01*
X264177Y148843D01*
X264158Y148915D01*
D02*
G37*
G36*
X253990D02*
Y148908D01*
X253983Y148895D01*
Y148875D01*
X253970Y148856D01*
X253957Y148790D01*
X253931Y148718D01*
X253813Y148410D01*
X254167D01*
X254062Y148698D01*
Y148705D01*
X254055Y148718D01*
X254049Y148744D01*
X254036Y148770D01*
X254009Y148843D01*
X253990Y148915D01*
D02*
G37*
G36*
X270245Y148928D02*
X270219D01*
X270193Y148921D01*
X270160Y148915D01*
X270114Y148902D01*
X270075Y148889D01*
X270029Y148862D01*
X269990Y148829D01*
X269983Y148823D01*
X269976Y148810D01*
X269957Y148784D01*
X269937Y148751D01*
X269917Y148698D01*
X269904Y148639D01*
X269891Y148574D01*
X269885Y148488D01*
Y148482D01*
Y148456D01*
X269891Y148423D01*
X269898Y148383D01*
X269911Y148337D01*
X269924Y148285D01*
X269950Y148239D01*
X269983Y148193D01*
X269990Y148187D01*
X270003Y148173D01*
X270022Y148160D01*
X270055Y148141D01*
X270094Y148114D01*
X270141Y148101D01*
X270186Y148088D01*
X270245Y148082D01*
X270272D01*
X270298Y148088D01*
X270337Y148095D01*
X270377Y148108D01*
X270416Y148127D01*
X270462Y148154D01*
X270501Y148193D01*
X270508Y148200D01*
X270514Y148213D01*
X270534Y148239D01*
X270554Y148272D01*
X270567Y148318D01*
X270586Y148370D01*
X270593Y148429D01*
X270600Y148501D01*
Y148508D01*
Y148521D01*
Y148547D01*
X270593Y148574D01*
X270580Y148646D01*
X270554Y148724D01*
Y148731D01*
X270547Y148738D01*
X270521Y148777D01*
X270482Y148829D01*
X270429Y148875D01*
X270423D01*
X270416Y148882D01*
X270377Y148902D01*
X270318Y148921D01*
X270245Y148928D01*
D02*
G37*
G36*
X260077D02*
X260051D01*
X260025Y148921D01*
X259992Y148915D01*
X259946Y148902D01*
X259907Y148889D01*
X259861Y148862D01*
X259822Y148829D01*
X259815Y148823D01*
X259808Y148810D01*
X259789Y148784D01*
X259769Y148751D01*
X259749Y148698D01*
X259736Y148639D01*
X259723Y148574D01*
X259717Y148488D01*
Y148482D01*
Y148456D01*
X259723Y148423D01*
X259730Y148383D01*
X259743Y148337D01*
X259756Y148285D01*
X259782Y148239D01*
X259815Y148193D01*
X259822Y148187D01*
X259835Y148173D01*
X259854Y148160D01*
X259887Y148141D01*
X259927Y148114D01*
X259973Y148101D01*
X260018Y148088D01*
X260077Y148082D01*
X260104D01*
X260130Y148088D01*
X260169Y148095D01*
X260209Y148108D01*
X260248Y148127D01*
X260294Y148154D01*
X260333Y148193D01*
X260340Y148200D01*
X260346Y148213D01*
X260366Y148239D01*
X260386Y148272D01*
X260399Y148318D01*
X260419Y148370D01*
X260425Y148429D01*
X260432Y148501D01*
Y148508D01*
Y148521D01*
Y148547D01*
X260425Y148574D01*
X260412Y148646D01*
X260386Y148724D01*
Y148731D01*
X260379Y148738D01*
X260353Y148777D01*
X260314Y148829D01*
X260261Y148875D01*
X260255D01*
X260248Y148882D01*
X260209Y148902D01*
X260150Y148921D01*
X260077Y148928D01*
D02*
G37*
G36*
X269360Y147760D02*
Y147754D01*
X269353Y147734D01*
X269347Y147701D01*
X269334Y147655D01*
X269274Y147504D01*
X269452D01*
X269399Y147649D01*
Y147655D01*
X269393Y147662D01*
X269386Y147688D01*
X269373Y147727D01*
X269360Y147760D01*
D02*
G37*
G36*
X267477Y147754D02*
X267274D01*
Y147583D01*
X267451D01*
X267497Y147590D01*
X267503D01*
X267510Y147596D01*
X267536Y147622D01*
X267543Y147629D01*
X267549Y147635D01*
X267556Y147655D01*
Y147675D01*
Y147681D01*
X267549Y147695D01*
X267543Y147714D01*
X267523Y147734D01*
X267516Y147740D01*
X267503Y147747D01*
X267477Y147754D01*
D02*
G37*
G36*
X267963Y147760D02*
X267949D01*
X267923Y147754D01*
X267877Y147740D01*
X267838Y147714D01*
X267831Y147701D01*
X267812Y147668D01*
X267792Y147616D01*
X267785Y147544D01*
Y147537D01*
Y147531D01*
X267792Y147491D01*
X267805Y147439D01*
X267831Y147393D01*
X267838Y147386D01*
X267871Y147373D01*
X267910Y147353D01*
X267963Y147347D01*
X267976D01*
X268008Y147353D01*
X268054Y147367D01*
X268094Y147393D01*
X268100Y147406D01*
X268120Y147432D01*
X268133Y147485D01*
X268140Y147550D01*
Y147563D01*
Y147590D01*
X268133Y147622D01*
X268120Y147662D01*
X268113Y147668D01*
X268100Y147688D01*
X268081Y147714D01*
X268054Y147734D01*
X268048Y147740D01*
X268028Y147747D01*
X268002Y147754D01*
X267963Y147760D01*
D02*
G37*
G36*
X268691Y147052D02*
X268540D01*
Y146651D01*
X268710D01*
X268737Y146658D01*
X268743D01*
X268750Y146665D01*
X268782Y146684D01*
X268789Y146691D01*
X268796Y146704D01*
X268802Y146724D01*
X268815Y146750D01*
X268822Y146756D01*
X268829Y146783D01*
X268835Y146816D01*
Y146855D01*
Y146861D01*
Y146868D01*
Y146901D01*
X268822Y146947D01*
X268809Y146979D01*
X268802Y146986D01*
X268789Y147006D01*
X268763Y147025D01*
X268737Y147039D01*
X268730D01*
X268717Y147045D01*
X268691Y147052D01*
D02*
G37*
%LPD*%
D38*
X157480Y-7874D02*
D03*
Y165354D02*
D03*
D39*
X322835Y78740D02*
D03*
X-7874D02*
D03*
D40*
X144882Y78937D02*
D03*
X138583D02*
D03*
Y82480D02*
D03*
X144882D02*
D03*
Y92716D02*
D03*
X138583D02*
D03*
Y96260D02*
D03*
X144882D02*
D03*
X59449Y78740D02*
D03*
Y82480D02*
D03*
Y75000D02*
D03*
X50787D02*
D03*
Y78740D02*
D03*
Y82480D02*
D03*
X6693D02*
D03*
Y78740D02*
D03*
Y75000D02*
D03*
X16929D02*
D03*
Y82480D02*
D03*
D41*
X52165Y43307D02*
D03*
Y41339D02*
D03*
Y37402D02*
D03*
Y35433D02*
D03*
Y122047D02*
D03*
Y120079D02*
D03*
Y116142D02*
D03*
Y114173D02*
D03*
D42*
X52953Y39370D02*
D03*
Y118110D02*
D03*
D43*
X58661Y35433D02*
D03*
Y37402D02*
D03*
Y39370D02*
D03*
Y41339D02*
D03*
Y43307D02*
D03*
X287303Y14764D02*
D03*
X271752D02*
D03*
Y8858D02*
D03*
X287303D02*
D03*
X58661Y114173D02*
D03*
Y116142D02*
D03*
Y118110D02*
D03*
Y120079D02*
D03*
Y122047D02*
D03*
X192815Y14764D02*
D03*
X177264D02*
D03*
Y8858D02*
D03*
X192815D02*
D03*
X240059Y14764D02*
D03*
X224508D02*
D03*
Y8858D02*
D03*
X240059D02*
D03*
D44*
X284449Y18602D02*
D03*
X282480D02*
D03*
X280512D02*
D03*
X278543D02*
D03*
X276575D02*
D03*
X274606D02*
D03*
Y5020D02*
D03*
X276575D02*
D03*
X278543D02*
D03*
X280512D02*
D03*
X282480D02*
D03*
X284449D02*
D03*
X189961Y18602D02*
D03*
X187992D02*
D03*
X186024D02*
D03*
X184055D02*
D03*
X182087D02*
D03*
X180118D02*
D03*
Y5020D02*
D03*
X182087D02*
D03*
X184055D02*
D03*
X186024D02*
D03*
X187992D02*
D03*
X189961D02*
D03*
X237205Y18602D02*
D03*
X235236D02*
D03*
X233268D02*
D03*
X231299D02*
D03*
X229331D02*
D03*
X227362D02*
D03*
Y5020D02*
D03*
X229331D02*
D03*
X231299D02*
D03*
X233268D02*
D03*
X235236D02*
D03*
X237205D02*
D03*
D45*
X279528Y11811D02*
D03*
X185039D02*
D03*
X232283D02*
D03*
D46*
X96181Y118110D02*
D03*
X92795D02*
D03*
X58780Y23898D02*
D03*
X55394D02*
D03*
X306831Y108610D02*
D03*
X310216D02*
D03*
X306831Y112547D02*
D03*
X310216D02*
D03*
X301831Y108610D02*
D03*
X298445D02*
D03*
X301831Y112547D02*
D03*
X298445D02*
D03*
X68622Y82677D02*
D03*
X65236D02*
D03*
X45000Y74803D02*
D03*
X41614D02*
D03*
Y82677D02*
D03*
X45000D02*
D03*
X310937Y44299D02*
D03*
X307551D02*
D03*
X304161D02*
D03*
X300776D02*
D03*
X199094Y14764D02*
D03*
X202480D02*
D03*
X199094Y10827D02*
D03*
X202480D02*
D03*
X199094Y6890D02*
D03*
X202480D02*
D03*
X246339Y18701D02*
D03*
X249724D02*
D03*
X246339Y14764D02*
D03*
X249724D02*
D03*
X246339Y10827D02*
D03*
X249724D02*
D03*
X293583Y14764D02*
D03*
X296969D02*
D03*
X293583Y10827D02*
D03*
X296969D02*
D03*
X293583Y6890D02*
D03*
X296969D02*
D03*
X143425Y114173D02*
D03*
X140039D02*
D03*
Y129921D02*
D03*
X143425D02*
D03*
X124291Y133858D02*
D03*
X127677D02*
D03*
X111929Y114173D02*
D03*
X108543D02*
D03*
Y133858D02*
D03*
X111929D02*
D03*
X96181Y114173D02*
D03*
X92795D02*
D03*
Y133858D02*
D03*
X96181D02*
D03*
X140039Y17717D02*
D03*
X143425D02*
D03*
X108543Y98425D02*
D03*
X111929D02*
D03*
X108543Y82677D02*
D03*
X111929D02*
D03*
X124291Y98425D02*
D03*
X127677D02*
D03*
X124291Y82677D02*
D03*
X127677D02*
D03*
X92795Y98425D02*
D03*
X96181D02*
D03*
X92795Y82677D02*
D03*
X96181D02*
D03*
X96732Y33465D02*
D03*
X100118D02*
D03*
X55394Y126811D02*
D03*
X58780D02*
D03*
X55394Y130197D02*
D03*
X58780D02*
D03*
Y133583D02*
D03*
X55394D02*
D03*
Y48071D02*
D03*
X58780D02*
D03*
X55394Y51457D02*
D03*
X58780D02*
D03*
Y27283D02*
D03*
X55394D02*
D03*
X58780Y54843D02*
D03*
X55394D02*
D03*
X304567Y86500D02*
D03*
X301181D02*
D03*
X65236Y78740D02*
D03*
X68622D02*
D03*
X45000D02*
D03*
X41614D02*
D03*
X221551Y151894D02*
D03*
X218165D02*
D03*
X310937Y36425D02*
D03*
X307551D02*
D03*
X304161D02*
D03*
X300776D02*
D03*
X307551Y40362D02*
D03*
X310937D02*
D03*
X300776D02*
D03*
X304161D02*
D03*
X202480Y18701D02*
D03*
X199094D02*
D03*
X249724Y6890D02*
D03*
X246339D02*
D03*
X296969Y18701D02*
D03*
X293583D02*
D03*
X143425Y118110D02*
D03*
X140039D02*
D03*
X143425Y110236D02*
D03*
X140039D02*
D03*
X127677Y129921D02*
D03*
X124291D02*
D03*
X111929D02*
D03*
X108543D02*
D03*
Y110236D02*
D03*
X111929D02*
D03*
X92795D02*
D03*
X96181D02*
D03*
X140039Y21654D02*
D03*
X143425D02*
D03*
X108543Y78740D02*
D03*
X111929D02*
D03*
Y94488D02*
D03*
X108543D02*
D03*
X124291Y78740D02*
D03*
X127677D02*
D03*
Y94488D02*
D03*
X124291D02*
D03*
X92795Y78740D02*
D03*
X96181D02*
D03*
Y94488D02*
D03*
X92795D02*
D03*
X100118Y57087D02*
D03*
X96732D02*
D03*
Y37402D02*
D03*
X100118D02*
D03*
X96181Y129921D02*
D03*
X92795D02*
D03*
X127677Y118110D02*
D03*
X124291D02*
D03*
X111929D02*
D03*
X108543D02*
D03*
D47*
X128347Y16142D02*
D03*
X129921D02*
D03*
X131496D02*
D03*
Y23228D02*
D03*
X129921D02*
D03*
X128347D02*
D03*
X96614Y41535D02*
D03*
X90709D02*
D03*
X92677D02*
D03*
X94646D02*
D03*
X96614Y52953D02*
D03*
X90709D02*
D03*
X92677D02*
D03*
X94646D02*
D03*
D48*
X133465Y18110D02*
D03*
Y19685D02*
D03*
Y21260D02*
D03*
X126378D02*
D03*
Y19685D02*
D03*
Y18110D02*
D03*
D49*
X129921Y19685D02*
D03*
D50*
X110177Y47244D02*
D03*
X144429D02*
D03*
D51*
X39370Y44035D02*
D03*
Y34705D02*
D03*
Y122776D02*
D03*
Y113445D02*
D03*
D52*
X210165Y152441D02*
D03*
Y155827D02*
D03*
X41339Y106024D02*
D03*
Y102638D02*
D03*
X45276D02*
D03*
Y106024D02*
D03*
Y133583D02*
D03*
Y130197D02*
D03*
X41339D02*
D03*
Y133583D02*
D03*
X41339Y27283D02*
D03*
Y23898D02*
D03*
X45276D02*
D03*
Y27283D02*
D03*
X41339Y54843D02*
D03*
Y51457D02*
D03*
X45276D02*
D03*
Y54843D02*
D03*
X308661Y66996D02*
D03*
Y63610D02*
D03*
X301181D02*
D03*
Y66996D02*
D03*
X296500Y83114D02*
D03*
Y86500D02*
D03*
X0Y79094D02*
D03*
Y82480D02*
D03*
X27559Y81840D02*
D03*
Y78455D02*
D03*
X31496D02*
D03*
Y81840D02*
D03*
X291339Y63917D02*
D03*
Y60532D02*
D03*
X225551Y152441D02*
D03*
Y155827D02*
D03*
X214665Y152441D02*
D03*
Y155827D02*
D03*
X180118Y23110D02*
D03*
Y26496D02*
D03*
X184055Y23110D02*
D03*
Y26496D02*
D03*
X182087Y-276D02*
D03*
Y-3661D02*
D03*
X227362Y23110D02*
D03*
Y26496D02*
D03*
X231299Y23110D02*
D03*
Y26496D02*
D03*
X235236Y23110D02*
D03*
Y26496D02*
D03*
X227362Y-276D02*
D03*
Y-3661D02*
D03*
X231299Y-276D02*
D03*
Y-3661D02*
D03*
X235236Y-276D02*
D03*
Y-3661D02*
D03*
X272638Y23110D02*
D03*
Y26496D02*
D03*
X276575Y23110D02*
D03*
Y26496D02*
D03*
X280512Y23110D02*
D03*
Y26496D02*
D03*
X284449Y23110D02*
D03*
Y26496D02*
D03*
X272638Y-276D02*
D03*
Y-3661D02*
D03*
X276575Y-276D02*
D03*
Y-3661D02*
D03*
X280512Y-276D02*
D03*
Y-3661D02*
D03*
X284449Y-276D02*
D03*
Y-3661D02*
D03*
X114173Y17992D02*
D03*
Y21378D02*
D03*
X118110Y17992D02*
D03*
Y21378D02*
D03*
X110236D02*
D03*
Y17992D02*
D03*
X106299D02*
D03*
Y21378D02*
D03*
X133858Y79016D02*
D03*
Y82402D02*
D03*
X230551Y152441D02*
D03*
Y155827D02*
D03*
X304921Y66996D02*
D03*
Y63610D02*
D03*
X173228Y113524D02*
D03*
Y116909D02*
D03*
Y49744D02*
D03*
Y53130D02*
D03*
X239173Y26496D02*
D03*
Y23110D02*
D03*
X288386Y26496D02*
D03*
Y23110D02*
D03*
D53*
X301181Y99900D02*
D03*
Y93699D02*
D03*
X23622Y75640D02*
D03*
Y81840D02*
D03*
X307480Y99900D02*
D03*
Y93699D02*
D03*
D54*
X274803Y134783D02*
D03*
X281890Y127697D02*
D03*
X274803D02*
D03*
X281890Y113524D02*
D03*
Y120610D02*
D03*
X267717Y127697D02*
D03*
X274803Y120610D02*
D03*
X267717Y134783D02*
D03*
X274803Y113524D02*
D03*
X267717Y120610D02*
D03*
X281890Y106437D02*
D03*
Y99350D02*
D03*
X274803Y106437D02*
D03*
X281890Y85177D02*
D03*
Y92264D02*
D03*
X267717Y106437D02*
D03*
X274803Y99350D02*
D03*
X267717Y113524D02*
D03*
X274803Y92264D02*
D03*
X267717Y99350D02*
D03*
X253543Y134783D02*
D03*
X260630D02*
D03*
X246457D02*
D03*
X260630Y127697D02*
D03*
X253543D02*
D03*
X239370Y134783D02*
D03*
X246457Y127697D02*
D03*
X232283Y134783D02*
D03*
X239370Y127697D02*
D03*
X225197D02*
D03*
X260630Y120610D02*
D03*
Y113524D02*
D03*
X253543Y120610D02*
D03*
X267717Y85177D02*
D03*
Y92264D02*
D03*
X246457Y120610D02*
D03*
X232283Y127697D02*
D03*
X239370Y120610D02*
D03*
X232283D02*
D03*
X281890Y71004D02*
D03*
Y63917D02*
D03*
Y78091D02*
D03*
X274803D02*
D03*
Y71004D02*
D03*
Y85177D02*
D03*
Y63917D02*
D03*
X267717Y71004D02*
D03*
X281890Y56831D02*
D03*
Y49744D02*
D03*
X274803Y56831D02*
D03*
X281890Y42658D02*
D03*
X274803Y35571D02*
D03*
X267717Y56831D02*
D03*
X274803Y49744D02*
D03*
X267717Y63917D02*
D03*
X274803Y42658D02*
D03*
X267717Y35571D02*
D03*
Y78091D02*
D03*
Y49744D02*
D03*
X260630Y56831D02*
D03*
Y42658D02*
D03*
Y49744D02*
D03*
X246457D02*
D03*
X253543D02*
D03*
X232283D02*
D03*
X253543Y42658D02*
D03*
X239370Y49744D02*
D03*
X267717Y42658D02*
D03*
X260630Y35571D02*
D03*
X246457Y42658D02*
D03*
X253543Y35571D02*
D03*
X246457D02*
D03*
X239370Y42658D02*
D03*
X232283D02*
D03*
X239370Y35571D02*
D03*
X232283D02*
D03*
X218110Y134783D02*
D03*
X225197D02*
D03*
X211024D02*
D03*
X218110Y127697D02*
D03*
X211024D02*
D03*
X203937Y134783D02*
D03*
Y127697D02*
D03*
X196850Y134783D02*
D03*
X218110Y120610D02*
D03*
X225197D02*
D03*
X211024D02*
D03*
X203937Y113524D02*
D03*
Y120610D02*
D03*
X196850D02*
D03*
Y99350D02*
D03*
Y127697D02*
D03*
Y85177D02*
D03*
Y92264D02*
D03*
X189764Y127697D02*
D03*
Y120610D02*
D03*
Y134783D02*
D03*
X196850Y106437D02*
D03*
Y113524D02*
D03*
X182677Y127697D02*
D03*
Y120610D02*
D03*
X189764Y113524D02*
D03*
X182677D02*
D03*
X189764Y99350D02*
D03*
Y92264D02*
D03*
Y106437D02*
D03*
X196850Y78091D02*
D03*
X189764Y85177D02*
D03*
X182677Y99350D02*
D03*
Y106437D02*
D03*
Y85177D02*
D03*
Y92264D02*
D03*
X218110Y49744D02*
D03*
X225197D02*
D03*
X203937Y56831D02*
D03*
X225197Y42658D02*
D03*
X211024Y49744D02*
D03*
X196850Y56831D02*
D03*
X203937Y49744D02*
D03*
X196850Y71004D02*
D03*
X218110Y42658D02*
D03*
X225197Y35571D02*
D03*
X211024Y42658D02*
D03*
X218110Y35571D02*
D03*
X211024D02*
D03*
X203937D02*
D03*
Y42658D02*
D03*
X189764Y71004D02*
D03*
X196850Y63917D02*
D03*
X189764Y78091D02*
D03*
Y56831D02*
D03*
Y63917D02*
D03*
X182677Y71004D02*
D03*
Y63917D02*
D03*
Y78091D02*
D03*
X196850Y49744D02*
D03*
Y42658D02*
D03*
X189764Y49744D02*
D03*
X196850Y35571D02*
D03*
X189764D02*
D03*
X182677Y49744D02*
D03*
Y56831D02*
D03*
X189764Y42658D02*
D03*
X182677D02*
D03*
D55*
X93661Y47244D02*
D03*
D56*
X198071Y146776D02*
D03*
Y157012D02*
D03*
X23622Y51181D02*
D03*
X3937D02*
D03*
X23622Y106299D02*
D03*
X3937D02*
D03*
X23622Y129921D02*
D03*
X3937D02*
D03*
X23622Y27559D02*
D03*
X3937D02*
D03*
D57*
X203976Y151894D02*
D03*
D58*
X313681Y104673D02*
D03*
X307480D02*
D03*
X294980D02*
D03*
X301181D02*
D03*
D59*
X307768Y48303D02*
D03*
X310720D02*
D03*
X300992D02*
D03*
X303945D02*
D03*
X140256Y122244D02*
D03*
X143209D02*
D03*
X124508D02*
D03*
X127461D02*
D03*
X108760D02*
D03*
X111713D02*
D03*
X93012D02*
D03*
X95965D02*
D03*
X111713Y90354D02*
D03*
X108760D02*
D03*
X127461D02*
D03*
X124508D02*
D03*
X95965D02*
D03*
X93012D02*
D03*
D60*
X309244Y51846D02*
D03*
X302468D02*
D03*
X141732Y125787D02*
D03*
X125984D02*
D03*
X110236D02*
D03*
X94488D02*
D03*
X110236Y86811D02*
D03*
X125984D02*
D03*
X94488D02*
D03*
D61*
X304921Y81445D02*
D03*
X301181D02*
D03*
X308661D02*
D03*
Y72783D02*
D03*
X304921D02*
D03*
X301181D02*
D03*
D62*
X303150Y-7874D02*
D03*
X307087D02*
D03*
X299213D02*
D03*
X295276D02*
D03*
X291339D02*
D03*
X287402D02*
D03*
X267717D02*
D03*
X271654D02*
D03*
X275591D02*
D03*
X279528D02*
D03*
X283465D02*
D03*
X244095D02*
D03*
X240158D02*
D03*
X236221D02*
D03*
X232284D02*
D03*
X228347D02*
D03*
X248032D02*
D03*
X251969D02*
D03*
X255906D02*
D03*
X259843D02*
D03*
X263780D02*
D03*
X204725D02*
D03*
X200788D02*
D03*
X196851D02*
D03*
X192914D02*
D03*
X188977D02*
D03*
X208662D02*
D03*
X212599D02*
D03*
X216536D02*
D03*
X220473D02*
D03*
X224410D02*
D03*
X165355D02*
D03*
X161418D02*
D03*
X157481D02*
D03*
X153544D02*
D03*
X149607D02*
D03*
X169292D02*
D03*
X173229D02*
D03*
X177166D02*
D03*
X181103D02*
D03*
X185040D02*
D03*
X125985D02*
D03*
X122048D02*
D03*
X118111D02*
D03*
X114174D02*
D03*
X110237D02*
D03*
X129922D02*
D03*
X133859D02*
D03*
X137796D02*
D03*
X141733D02*
D03*
X145670D02*
D03*
X86615D02*
D03*
X82678D02*
D03*
X78741D02*
D03*
X74804D02*
D03*
X70867D02*
D03*
X90552D02*
D03*
X94489D02*
D03*
X98426D02*
D03*
X102363D02*
D03*
X106300D02*
D03*
X47245D02*
D03*
X43308D02*
D03*
X39371D02*
D03*
X35434D02*
D03*
X31497D02*
D03*
X51182D02*
D03*
X55119D02*
D03*
X59056D02*
D03*
X62993D02*
D03*
X66930D02*
D03*
X7875D02*
D03*
X11812D02*
D03*
X15749D02*
D03*
X19686D02*
D03*
X23623D02*
D03*
X27560D02*
D03*
X287401Y165354D02*
D03*
X291338D02*
D03*
X295275D02*
D03*
X299212D02*
D03*
X303149D02*
D03*
X307086D02*
D03*
X248031D02*
D03*
X251968D02*
D03*
X255905D02*
D03*
X259842D02*
D03*
X263779D02*
D03*
X283464D02*
D03*
X279527D02*
D03*
X275590D02*
D03*
X271653D02*
D03*
X267716D02*
D03*
X208661D02*
D03*
X212598D02*
D03*
X216535D02*
D03*
X220472D02*
D03*
X224409D02*
D03*
X244094D02*
D03*
X240157D02*
D03*
X236220D02*
D03*
X232283D02*
D03*
X228346D02*
D03*
X169291D02*
D03*
X173228D02*
D03*
X177165D02*
D03*
X181102D02*
D03*
X185039D02*
D03*
X204724D02*
D03*
X200787D02*
D03*
X196850D02*
D03*
X192913D02*
D03*
X188976D02*
D03*
X129921D02*
D03*
X133858D02*
D03*
X137795D02*
D03*
X141732D02*
D03*
X145669D02*
D03*
X165354D02*
D03*
X161417D02*
D03*
X157480D02*
D03*
X153543D02*
D03*
X149606D02*
D03*
X90551D02*
D03*
X94488D02*
D03*
X98425D02*
D03*
X102362D02*
D03*
X106299D02*
D03*
X125984D02*
D03*
X122047D02*
D03*
X118110D02*
D03*
X114173D02*
D03*
X110236D02*
D03*
X51181D02*
D03*
X55118D02*
D03*
X59055D02*
D03*
X62992D02*
D03*
X66929D02*
D03*
X86614D02*
D03*
X82677D02*
D03*
X78740D02*
D03*
X74803D02*
D03*
X70866D02*
D03*
X31496D02*
D03*
X35433D02*
D03*
X39370D02*
D03*
X43307D02*
D03*
X47244D02*
D03*
X27559D02*
D03*
X23622D02*
D03*
X19685D02*
D03*
X15748D02*
D03*
X7874D02*
D03*
X11811D02*
D03*
X322835Y129921D02*
D03*
Y125984D02*
D03*
Y122047D02*
D03*
Y118110D02*
D03*
Y114173D02*
D03*
Y110236D02*
D03*
Y106299D02*
D03*
Y102362D02*
D03*
Y98425D02*
D03*
Y94488D02*
D03*
Y90551D02*
D03*
Y86614D02*
D03*
Y82677D02*
D03*
Y78740D02*
D03*
Y74803D02*
D03*
Y70866D02*
D03*
Y66929D02*
D03*
Y62992D02*
D03*
Y59055D02*
D03*
Y55118D02*
D03*
Y7874D02*
D03*
Y11811D02*
D03*
Y15748D02*
D03*
Y19685D02*
D03*
Y23622D02*
D03*
Y27559D02*
D03*
Y31496D02*
D03*
Y35433D02*
D03*
Y39370D02*
D03*
Y43307D02*
D03*
Y47244D02*
D03*
Y51181D02*
D03*
Y133858D02*
D03*
Y137795D02*
D03*
Y141732D02*
D03*
Y145669D02*
D03*
Y149606D02*
D03*
X-7874Y7874D02*
D03*
Y11811D02*
D03*
Y15748D02*
D03*
Y19685D02*
D03*
Y23622D02*
D03*
Y106299D02*
D03*
Y110236D02*
D03*
Y114173D02*
D03*
Y118110D02*
D03*
Y122047D02*
D03*
Y125984D02*
D03*
Y129921D02*
D03*
Y133858D02*
D03*
Y137795D02*
D03*
Y141732D02*
D03*
Y145669D02*
D03*
Y149606D02*
D03*
Y102362D02*
D03*
Y98425D02*
D03*
Y94488D02*
D03*
Y90551D02*
D03*
Y86614D02*
D03*
Y82677D02*
D03*
Y78740D02*
D03*
Y74803D02*
D03*
Y70866D02*
D03*
Y66929D02*
D03*
Y62992D02*
D03*
Y59055D02*
D03*
Y55118D02*
D03*
Y51181D02*
D03*
Y47244D02*
D03*
Y43307D02*
D03*
Y39370D02*
D03*
Y35433D02*
D03*
Y31496D02*
D03*
Y27559D02*
D03*
D63*
X314961Y157480D02*
D03*
Y0D02*
D03*
X0Y157480D02*
D03*
Y0D02*
D03*
M02*
