G04*
G04 #@! TF.GenerationSoftware,Altium Limited,Altium Designer,20.0.13 (296)*
G04*
G04 Layer_Color=16711935*
%FSLAX25Y25*%
%MOIN*%
G70*
G01*
G75*
%ADD10C,0.00394*%
%ADD15C,0.00197*%
D10*
X112205Y35433D02*
X116142D01*
X114173Y33465D02*
Y37402D01*
D15*
X191898Y43338D02*
X233298D01*
Y1938D02*
Y43338D01*
X191898Y1938D02*
X233298D01*
X191898D02*
Y43338D01*
X212598Y21457D02*
Y23819D01*
X211417Y22638D02*
X213779D01*
X81201Y2461D02*
Y68405D01*
X147146Y2461D02*
Y68405D01*
X81201Y2461D02*
X147146D01*
X81201Y68405D02*
X147146D01*
X170968Y64366D02*
X182968D01*
X170968D02*
Y77266D01*
X182968D01*
Y64366D02*
Y77266D01*
X176969Y69685D02*
Y72047D01*
X175787Y70866D02*
X178150D01*
X181961Y78724D02*
Y90724D01*
X167961Y78724D02*
X181961D01*
X167961D02*
Y90724D01*
X181961D01*
X173779Y84724D02*
X176142D01*
X174961Y83543D02*
Y85905D01*
X200748Y86370D02*
Y92370D01*
X205748D01*
Y86370D02*
Y92370D01*
X200748Y86370D02*
X205748D01*
X202067Y89370D02*
X204429D01*
X203248Y88189D02*
Y90551D01*
X200324Y71940D02*
Y85540D01*
Y71940D02*
X209124D01*
Y85540D01*
X200324D02*
X209124D01*
X203543Y78740D02*
X205906D01*
X204724Y77559D02*
Y79921D01*
X192283Y86890D02*
Y90039D01*
X198189Y86890D02*
Y90039D01*
X192283Y86890D02*
X198189D01*
X192283Y90039D02*
X198189D01*
X194055Y88465D02*
X196417D01*
X195236Y87283D02*
Y89646D01*
X114173Y111024D02*
Y113386D01*
X112992Y112205D02*
X115354D01*
X84273Y149105D02*
X144073D01*
X84273Y91905D02*
Y149105D01*
Y91905D02*
X144073D01*
Y149105D01*
X19685Y60059D02*
Y62421D01*
X18504Y61240D02*
X20866D01*
X16732Y62815D02*
X22638D01*
X16732Y59665D02*
X22638D01*
Y62815D01*
X16732Y59665D02*
Y62815D01*
X109847Y71240D02*
Y86240D01*
X134347D01*
Y71240D02*
Y86240D01*
X109847Y71240D02*
X134347D01*
X120866Y78840D02*
X123228D01*
X122047Y77659D02*
Y80021D01*
X227165Y105492D02*
X229528D01*
X228346Y104311D02*
Y106673D01*
X229921Y102539D02*
Y108445D01*
X226772Y102539D02*
Y108445D01*
Y102539D02*
X229921D01*
X226772Y108445D02*
X229921D01*
X195158Y97618D02*
Y99980D01*
X193976Y98799D02*
X196339D01*
X192205Y100374D02*
X198110D01*
X192205Y97224D02*
X198110D01*
Y100374D01*
X192205Y97224D02*
Y100374D01*
X195158Y102618D02*
Y104980D01*
X193976Y103799D02*
X196339D01*
X192205Y105374D02*
X198110D01*
X192205Y102224D02*
X198110D01*
Y105374D01*
X192205Y102224D02*
Y105374D01*
X195158Y112618D02*
Y114980D01*
X193976Y113799D02*
X196339D01*
X192205Y115374D02*
X198110D01*
X192205Y112224D02*
X198110D01*
Y115374D01*
X192205Y112224D02*
Y115374D01*
X195158Y107618D02*
Y109980D01*
X193976Y108799D02*
X196339D01*
X192205Y110374D02*
X198110D01*
X192205Y107224D02*
X198110D01*
Y110374D01*
X192205Y107224D02*
Y110374D01*
X167717Y70531D02*
X170866D01*
X167717Y64626D02*
X170866D01*
X167717D02*
Y70531D01*
X170866Y64626D02*
Y70531D01*
X169291Y66398D02*
Y68760D01*
X168110Y67579D02*
X170472D01*
X183465Y64626D02*
X186614D01*
X183465Y70531D02*
X186614D01*
Y64626D02*
Y70531D01*
X183465Y64626D02*
Y70531D01*
X185039Y66398D02*
Y68760D01*
X183858Y67579D02*
X186221D01*
X151969Y71201D02*
X155118D01*
X151969Y77106D02*
X155118D01*
Y71201D02*
Y77106D01*
X151969Y71201D02*
Y77106D01*
X153543Y72973D02*
Y75335D01*
X152362Y74154D02*
X154724D01*
X160039Y85630D02*
X163189D01*
X160039Y79724D02*
X163189D01*
X160039D02*
Y85630D01*
X163189Y79724D02*
Y85630D01*
X161614Y81496D02*
Y83858D01*
X160433Y82677D02*
X162795D01*
X206378Y43701D02*
Y46850D01*
X212283Y43701D02*
Y46850D01*
X206378Y43701D02*
X212283D01*
X206378Y46850D02*
X212283D01*
X208150Y45276D02*
X210512D01*
X209331Y44094D02*
Y46457D01*
X212677Y43701D02*
Y46850D01*
X218583Y43701D02*
Y46850D01*
X212677Y43701D02*
X218583D01*
X212677Y46850D02*
X218583D01*
X214449Y45276D02*
X216811D01*
X215630Y44094D02*
Y46457D01*
X215827Y-1575D02*
Y1575D01*
X221732Y-1575D02*
Y1575D01*
X215827Y-1575D02*
X221732D01*
X215827Y1575D02*
X221732D01*
X217598Y0D02*
X219961D01*
X218779Y-1181D02*
Y1181D01*
X210630Y126240D02*
Y128602D01*
X209449Y127421D02*
X211811D01*
X207677Y125847D02*
X213583D01*
X207677Y128996D02*
X213583D01*
X207677Y125847D02*
Y128996D01*
X213583Y125847D02*
Y128996D01*
X210630Y136240D02*
Y138602D01*
X209449Y137421D02*
X211811D01*
X207677Y135846D02*
X213583D01*
X207677Y138996D02*
X213583D01*
X207677Y135846D02*
Y138996D01*
X213583Y135846D02*
Y138996D01*
X152362Y157106D02*
X154724D01*
X153543Y155925D02*
Y158287D01*
X155118Y154154D02*
Y160059D01*
X151969Y154154D02*
Y160059D01*
Y154154D02*
X155118D01*
X151969Y160059D02*
X155118D01*
X194882Y126240D02*
Y128602D01*
X193701Y127421D02*
X196063D01*
X191929Y125847D02*
X197835D01*
X191929Y128996D02*
X197835D01*
X191929Y125847D02*
Y128996D01*
X197835Y125847D02*
Y128996D01*
X194882Y136240D02*
Y138602D01*
X193701Y137421D02*
X196063D01*
X191929Y135846D02*
X197835D01*
X191929Y138996D02*
X197835D01*
X191929Y135846D02*
Y138996D01*
X197835Y135846D02*
Y138996D01*
X226378Y126535D02*
Y128898D01*
X225197Y127717D02*
X227559D01*
X223425Y126142D02*
X229331D01*
X223425Y129291D02*
X229331D01*
X223425Y126142D02*
Y129291D01*
X229331Y126142D02*
Y129291D01*
X226378Y136535D02*
Y138898D01*
X225197Y137717D02*
X227559D01*
X223425Y136142D02*
X229331D01*
X223425Y139291D02*
X229331D01*
X223425Y136142D02*
Y139291D01*
X229331Y136142D02*
Y139291D01*
X195276Y60827D02*
X198425D01*
X195276Y66732D02*
X198425D01*
Y60827D02*
Y66732D01*
X195276Y60827D02*
Y66732D01*
X196850Y62598D02*
Y64961D01*
X195669Y63779D02*
X198031D01*
X226772Y51378D02*
X229921D01*
X226772Y57284D02*
X229921D01*
Y51378D02*
Y57284D01*
X226772Y51378D02*
Y57284D01*
X228346Y53150D02*
Y55512D01*
X227165Y54331D02*
X229528D01*
X187402Y19567D02*
X190551D01*
X187402Y25472D02*
X190551D01*
Y19567D02*
Y25472D01*
X187402Y19567D02*
Y25472D01*
X188976Y21339D02*
Y23701D01*
X187795Y22520D02*
X190157D01*
X112972Y160433D02*
X116122D01*
X112972Y154527D02*
X116122D01*
X112972D02*
Y160433D01*
X116122Y154527D02*
Y160433D01*
X114547Y156299D02*
Y158661D01*
X113366Y157480D02*
X115728D01*
X151969Y61398D02*
X155118D01*
X151969Y55492D02*
X155118D01*
X151969D02*
Y61398D01*
X155118Y55492D02*
Y61398D01*
X153543Y57264D02*
Y59626D01*
X152362Y58445D02*
X154724D01*
X183465Y55492D02*
X186614D01*
X183465Y61398D02*
X186614D01*
Y55492D02*
Y61398D01*
X183465Y55492D02*
Y61398D01*
X185039Y57264D02*
Y59626D01*
X183858Y58445D02*
X186221D01*
X183465Y10020D02*
X186614D01*
X183465Y15925D02*
X186614D01*
Y10020D02*
Y15925D01*
X183465Y10020D02*
Y15925D01*
X185039Y11791D02*
Y14154D01*
X183858Y12972D02*
X186221D01*
X151969Y10020D02*
X155118D01*
X151969Y15925D02*
X155118D01*
Y10020D02*
Y15925D01*
X151969Y10020D02*
Y15925D01*
X153543Y11791D02*
Y14154D01*
X152362Y12972D02*
X154724D01*
X151969Y36398D02*
X155118D01*
X151969Y30492D02*
X155118D01*
X151969D02*
Y36398D01*
X155118Y30492D02*
Y36398D01*
X153543Y32264D02*
Y34626D01*
X152362Y33445D02*
X154724D01*
X98819Y75512D02*
X101969D01*
X98819Y69606D02*
X101969D01*
X98819D02*
Y75512D01*
X101969Y69606D02*
Y75512D01*
X100394Y71378D02*
Y73740D01*
X99213Y72559D02*
X101575D01*
X77165Y34173D02*
X80315D01*
X77165Y28268D02*
X80315D01*
X77165D02*
Y34173D01*
X80315Y28268D02*
Y34173D01*
X78740Y30039D02*
Y32402D01*
X77559Y31220D02*
X79921D01*
X136221Y76968D02*
X139370D01*
X136221Y71063D02*
X139370D01*
X136221D02*
Y76968D01*
X139370Y71063D02*
Y76968D01*
X137795Y72835D02*
Y75197D01*
X136614Y74016D02*
X138976D01*
X104724Y86417D02*
X107874D01*
X104724Y80512D02*
X107874D01*
X104724D02*
Y86417D01*
X107874Y80512D02*
Y86417D01*
X106299Y82284D02*
Y84646D01*
X105118Y83465D02*
X107480D01*
X128228Y-1181D02*
Y1181D01*
X127047Y0D02*
X129409D01*
X125276Y1575D02*
X131181D01*
X125276Y-1575D02*
X131181D01*
Y1575D01*
X125276Y-1575D02*
Y1575D01*
X148425Y41063D02*
X150787D01*
X149606Y39882D02*
Y42244D01*
X151181Y38110D02*
Y44016D01*
X148031Y38110D02*
Y44016D01*
Y38110D02*
X151181D01*
X148031Y44016D02*
X151181D01*
X91339Y72559D02*
X93701D01*
X92520Y71378D02*
Y73740D01*
X94095Y69606D02*
Y75512D01*
X90945Y69606D02*
Y75512D01*
Y69606D02*
X94095D01*
X90945Y75512D02*
X94095D01*
X62008Y9665D02*
Y12815D01*
X56102Y9665D02*
Y12815D01*
X62008D01*
X56102Y9665D02*
X62008D01*
X57874Y11240D02*
X60236D01*
X59055Y10059D02*
Y12421D01*
X62008Y14665D02*
Y17815D01*
X56102Y14665D02*
Y17815D01*
X62008D01*
X56102Y14665D02*
X62008D01*
X57874Y16240D02*
X60236D01*
X59055Y15059D02*
Y17421D01*
X62008Y19665D02*
Y22815D01*
X56102Y19665D02*
Y22815D01*
X62008D01*
X56102Y19665D02*
X62008D01*
X57874Y21240D02*
X60236D01*
X59055Y20059D02*
Y22421D01*
X16732Y4665D02*
Y7815D01*
X22638Y4665D02*
Y7815D01*
X16732Y4665D02*
X22638D01*
X16732Y7815D02*
X22638D01*
X18504Y6240D02*
X20866D01*
X19685Y5059D02*
Y7421D01*
X16732Y9665D02*
Y12815D01*
X22638Y9665D02*
Y12815D01*
X16732Y9665D02*
X22638D01*
X16732Y12815D02*
X22638D01*
X18504Y11240D02*
X20866D01*
X19685Y10059D02*
Y12421D01*
X16732Y14665D02*
Y17815D01*
X22638Y14665D02*
Y17815D01*
X16732Y14665D02*
X22638D01*
X16732Y17815D02*
X22638D01*
X18504Y16240D02*
X20866D01*
X19685Y15059D02*
Y17421D01*
X298228Y9665D02*
Y12815D01*
X292323Y9665D02*
Y12815D01*
X298228D01*
X292323Y9665D02*
X298228D01*
X294094Y11240D02*
X296457D01*
X295276Y10059D02*
Y12421D01*
X298228Y14665D02*
Y17815D01*
X292323Y14665D02*
Y17815D01*
X298228D01*
X292323Y14665D02*
X298228D01*
X294094Y16240D02*
X296457D01*
X295276Y15059D02*
Y17421D01*
X252953Y4665D02*
Y7815D01*
X258858Y4665D02*
Y7815D01*
X252953Y4665D02*
X258858D01*
X252953Y7815D02*
X258858D01*
X254724Y6240D02*
X257087D01*
X255906Y5059D02*
Y7421D01*
X252953Y9665D02*
Y12815D01*
X258858Y9665D02*
Y12815D01*
X252953Y9665D02*
X258858D01*
X252953Y12815D02*
X258858D01*
X254724Y11240D02*
X257087D01*
X255906Y10059D02*
Y12421D01*
X252953Y14665D02*
Y17815D01*
X258858Y14665D02*
Y17815D01*
X252953Y14665D02*
X258858D01*
X252953Y17815D02*
X258858D01*
X254724Y16240D02*
X257087D01*
X255906Y15059D02*
Y17421D01*
X62008Y144665D02*
Y147815D01*
X56102Y144665D02*
Y147815D01*
X62008D01*
X56102Y144665D02*
X62008D01*
X57874Y146240D02*
X60236D01*
X59055Y145059D02*
Y147421D01*
X62008Y149665D02*
Y152815D01*
X56102Y149665D02*
Y152815D01*
X62008D01*
X56102Y149665D02*
X62008D01*
X57874Y151240D02*
X60236D01*
X59055Y150059D02*
Y152421D01*
X16732Y139665D02*
Y142815D01*
X22638Y139665D02*
Y142815D01*
X16732Y139665D02*
X22638D01*
X16732Y142815D02*
X22638D01*
X18504Y141240D02*
X20866D01*
X19685Y140059D02*
Y142421D01*
X16732Y144665D02*
Y147815D01*
X22638Y144665D02*
Y147815D01*
X16732Y144665D02*
X22638D01*
X16732Y147815D02*
X22638D01*
X18504Y146240D02*
X20866D01*
X19685Y145059D02*
Y147421D01*
X298228Y144665D02*
Y147815D01*
X292323Y144665D02*
Y147815D01*
X298228D01*
X292323Y144665D02*
X298228D01*
X294094Y146240D02*
X296457D01*
X295276Y145059D02*
Y147421D01*
X298228Y149665D02*
Y152815D01*
X292323Y149665D02*
Y152815D01*
X298228D01*
X292323Y149665D02*
X298228D01*
X294094Y151240D02*
X296457D01*
X295276Y150059D02*
Y152421D01*
X252953Y139665D02*
Y142815D01*
X258858Y139665D02*
Y142815D01*
X252953Y139665D02*
X258858D01*
X252953Y142815D02*
X258858D01*
X254724Y141240D02*
X257087D01*
X255906Y140059D02*
Y142421D01*
X252953Y144665D02*
Y147815D01*
X258858Y144665D02*
Y147815D01*
X252953Y144665D02*
X258858D01*
X252953Y147815D02*
X258858D01*
X254724Y146240D02*
X257087D01*
X255906Y145059D02*
Y147421D01*
X151850Y114075D02*
Y116437D01*
X150669Y115256D02*
X153032D01*
X148898Y116831D02*
X154803D01*
X148898Y113681D02*
X154803D01*
Y116831D01*
X148898Y113681D02*
Y116831D01*
X195158Y75866D02*
Y78228D01*
X193976Y77047D02*
X196339D01*
X192205Y78622D02*
X198110D01*
X192205Y75472D02*
X198110D01*
Y78622D01*
X192205Y75472D02*
Y78622D01*
X195158Y79803D02*
Y82165D01*
X193976Y80984D02*
X196339D01*
X192205Y82559D02*
X198110D01*
X192205Y79409D02*
X198110D01*
Y82559D01*
X192205Y79409D02*
Y82559D01*
X215630Y79331D02*
Y81693D01*
X214449Y80512D02*
X216811D01*
X212677Y82087D02*
X218583D01*
X212677Y78937D02*
X218583D01*
Y82087D01*
X212677Y78937D02*
Y82087D01*
X215630Y86417D02*
Y88779D01*
X214449Y87598D02*
X216811D01*
X212677Y89173D02*
X218583D01*
X212677Y86024D02*
X218583D01*
Y89173D01*
X212677Y86024D02*
Y89173D01*
X164173Y82677D02*
X166535D01*
X165354Y81496D02*
Y83858D01*
X163779Y79724D02*
Y85630D01*
X166929Y79724D02*
Y85630D01*
X163779D02*
X166929D01*
X163779Y79724D02*
X166929D01*
X151850Y136240D02*
Y138602D01*
X150669Y137421D02*
X153032D01*
X148898Y138996D02*
X154803D01*
X148898Y135846D02*
X154803D01*
Y138996D01*
X148898Y135846D02*
Y138996D01*
X16732Y64665D02*
Y67815D01*
X22638Y64665D02*
Y67815D01*
X16732Y64665D02*
X22638D01*
X16732Y67815D02*
X22638D01*
X18504Y66240D02*
X20866D01*
X19685Y65059D02*
Y67421D01*
X16732Y69665D02*
Y72815D01*
X22638Y69665D02*
Y72815D01*
X16732Y69665D02*
X22638D01*
X16732Y72815D02*
X22638D01*
X18504Y71240D02*
X20866D01*
X19685Y70059D02*
Y72421D01*
X16732Y74665D02*
Y77815D01*
X22638Y74665D02*
Y77815D01*
X16732Y74665D02*
X22638D01*
X16732Y77815D02*
X22638D01*
X18504Y76240D02*
X20866D01*
X19685Y75059D02*
Y77421D01*
X16732Y79665D02*
Y82815D01*
X22638Y79665D02*
Y82815D01*
X16732Y79665D02*
X22638D01*
X16732Y82815D02*
X22638D01*
X18504Y81240D02*
X20866D01*
X19685Y80059D02*
Y82421D01*
X16732Y84665D02*
Y87815D01*
X22638Y84665D02*
Y87815D01*
X16732Y84665D02*
X22638D01*
X16732Y87815D02*
X22638D01*
X18504Y86240D02*
X20866D01*
X19685Y85059D02*
Y87421D01*
X16732Y89665D02*
Y92815D01*
X22638Y89665D02*
Y92815D01*
X16732Y89665D02*
X22638D01*
X16732Y92815D02*
X22638D01*
X18504Y91240D02*
X20866D01*
X19685Y90059D02*
Y92421D01*
X16732Y94665D02*
Y97815D01*
X22638Y94665D02*
Y97815D01*
X16732Y94665D02*
X22638D01*
X16732Y97815D02*
X22638D01*
X18504Y96240D02*
X20866D01*
X19685Y95059D02*
Y97421D01*
X16732Y99665D02*
Y102815D01*
X22638Y99665D02*
Y102815D01*
X16732Y99665D02*
X22638D01*
X16732Y102815D02*
X22638D01*
X18504Y101240D02*
X20866D01*
X19685Y100059D02*
Y102421D01*
X16732Y104665D02*
Y107815D01*
X22638Y104665D02*
Y107815D01*
X16732Y104665D02*
X22638D01*
X16732Y107815D02*
X22638D01*
X18504Y106240D02*
X20866D01*
X19685Y105059D02*
Y107421D01*
X16732Y109665D02*
Y112815D01*
X22638Y109665D02*
Y112815D01*
X16732Y109665D02*
X22638D01*
X16732Y112815D02*
X22638D01*
X18504Y111240D02*
X20866D01*
X19685Y110059D02*
Y112421D01*
X16732Y114665D02*
Y117815D01*
X22638Y114665D02*
Y117815D01*
X16732Y114665D02*
X22638D01*
X16732Y117815D02*
X22638D01*
X18504Y116240D02*
X20866D01*
X19685Y115059D02*
Y117421D01*
X16732Y119665D02*
Y122815D01*
X22638Y119665D02*
Y122815D01*
X16732Y119665D02*
X22638D01*
X16732Y122815D02*
X22638D01*
X18504Y121240D02*
X20866D01*
X19685Y120059D02*
Y122421D01*
X16732Y124665D02*
Y127815D01*
X22638Y124665D02*
Y127815D01*
X16732Y124665D02*
X22638D01*
X16732Y127815D02*
X22638D01*
X18504Y126240D02*
X20866D01*
X19685Y125059D02*
Y127421D01*
X252953Y24665D02*
Y27815D01*
X258858Y24665D02*
Y27815D01*
X252953Y24665D02*
X258858D01*
X252953Y27815D02*
X258858D01*
X254724Y26240D02*
X257087D01*
X255906Y25059D02*
Y27421D01*
X252953Y29665D02*
Y32815D01*
X258858Y29665D02*
Y32815D01*
X252953Y29665D02*
X258858D01*
X252953Y32815D02*
X258858D01*
X254724Y31240D02*
X257087D01*
X255906Y30059D02*
Y32421D01*
X252953Y34665D02*
Y37815D01*
X258858Y34665D02*
Y37815D01*
X252953Y34665D02*
X258858D01*
X252953Y37815D02*
X258858D01*
X254724Y36240D02*
X257087D01*
X255906Y35059D02*
Y37421D01*
X252953Y39665D02*
Y42815D01*
X258858Y39665D02*
Y42815D01*
X252953Y39665D02*
X258858D01*
X252953Y42815D02*
X258858D01*
X254724Y41240D02*
X257087D01*
X255906Y40059D02*
Y42421D01*
X252953Y44665D02*
Y47815D01*
X258858Y44665D02*
Y47815D01*
X252953Y44665D02*
X258858D01*
X252953Y47815D02*
X258858D01*
X254724Y46240D02*
X257087D01*
X255906Y45059D02*
Y47421D01*
X252953Y49665D02*
Y52815D01*
X258858Y49665D02*
Y52815D01*
X252953Y49665D02*
X258858D01*
X252953Y52815D02*
X258858D01*
X254724Y51240D02*
X257087D01*
X255906Y50059D02*
Y52421D01*
X252953Y54665D02*
Y57815D01*
X258858Y54665D02*
Y57815D01*
X252953Y54665D02*
X258858D01*
X252953Y57815D02*
X258858D01*
X254724Y56240D02*
X257087D01*
X255906Y55059D02*
Y57421D01*
X252953Y59665D02*
Y62815D01*
X258858Y59665D02*
Y62815D01*
X252953Y59665D02*
X258858D01*
X252953Y62815D02*
X258858D01*
X254724Y61240D02*
X257087D01*
X255906Y60059D02*
Y62421D01*
X252953Y64665D02*
Y67815D01*
X258858Y64665D02*
Y67815D01*
X252953Y64665D02*
X258858D01*
X252953Y67815D02*
X258858D01*
X254724Y66240D02*
X257087D01*
X255906Y65059D02*
Y67421D01*
X252953Y69665D02*
Y72815D01*
X258858Y69665D02*
Y72815D01*
X252953Y69665D02*
X258858D01*
X252953Y72815D02*
X258858D01*
X254724Y71240D02*
X257087D01*
X255906Y70059D02*
Y72421D01*
X252953Y74665D02*
Y77815D01*
X258858Y74665D02*
Y77815D01*
X252953Y74665D02*
X258858D01*
X252953Y77815D02*
X258858D01*
X254724Y76240D02*
X257087D01*
X255906Y75059D02*
Y77421D01*
X252953Y79665D02*
Y82815D01*
X258858Y79665D02*
Y82815D01*
X252953Y79665D02*
X258858D01*
X252953Y82815D02*
X258858D01*
X254724Y81240D02*
X257087D01*
X255906Y80059D02*
Y82421D01*
X252953Y84665D02*
Y87815D01*
X258858Y84665D02*
Y87815D01*
X252953Y84665D02*
X258858D01*
X252953Y87815D02*
X258858D01*
X254724Y86240D02*
X257087D01*
X255906Y85059D02*
Y87421D01*
X252953Y89665D02*
Y92815D01*
X258858Y89665D02*
Y92815D01*
X252953Y89665D02*
X258858D01*
X252953Y92815D02*
X258858D01*
X254724Y91240D02*
X257087D01*
X255906Y90059D02*
Y92421D01*
X252953Y94665D02*
Y97815D01*
X258858Y94665D02*
Y97815D01*
X252953Y94665D02*
X258858D01*
X252953Y97815D02*
X258858D01*
X254724Y96240D02*
X257087D01*
X255906Y95059D02*
Y97421D01*
X252953Y99665D02*
Y102815D01*
X258858Y99665D02*
Y102815D01*
X252953Y99665D02*
X258858D01*
X252953Y102815D02*
X258858D01*
X254724Y101240D02*
X257087D01*
X255906Y100059D02*
Y102421D01*
X252953Y104665D02*
Y107815D01*
X258858Y104665D02*
Y107815D01*
X252953Y104665D02*
X258858D01*
X252953Y107815D02*
X258858D01*
X254724Y106240D02*
X257087D01*
X255906Y105059D02*
Y107421D01*
X252953Y109665D02*
Y112815D01*
X258858Y109665D02*
Y112815D01*
X252953Y109665D02*
X258858D01*
X252953Y112815D02*
X258858D01*
X254724Y111240D02*
X257087D01*
X255906Y110059D02*
Y112421D01*
X252953Y114665D02*
Y117815D01*
X258858Y114665D02*
Y117815D01*
X252953Y114665D02*
X258858D01*
X252953Y117815D02*
X258858D01*
X254724Y116240D02*
X257087D01*
X255906Y115059D02*
Y117421D01*
X252953Y119665D02*
Y122815D01*
X258858Y119665D02*
Y122815D01*
X252953Y119665D02*
X258858D01*
X252953Y122815D02*
X258858D01*
X254724Y121240D02*
X257087D01*
X255906Y120059D02*
Y122421D01*
X252953Y124665D02*
Y127815D01*
X258858Y124665D02*
Y127815D01*
X252953Y124665D02*
X258858D01*
X252953Y127815D02*
X258858D01*
X254724Y126240D02*
X257087D01*
X255906Y125059D02*
Y127421D01*
X252953Y129665D02*
Y132815D01*
X258858Y129665D02*
Y132815D01*
X252953Y129665D02*
X258858D01*
X252953Y132815D02*
X258858D01*
X254724Y131240D02*
X257087D01*
X255906Y130059D02*
Y132421D01*
X252953Y134665D02*
Y137815D01*
X258858Y134665D02*
Y137815D01*
X252953Y134665D02*
X258858D01*
X252953Y137815D02*
X258858D01*
X254724Y136240D02*
X257087D01*
X255906Y135059D02*
Y137421D01*
X298228Y19665D02*
Y22815D01*
X292323Y19665D02*
Y22815D01*
X298228D01*
X292323Y19665D02*
X298228D01*
X294094Y21240D02*
X296457D01*
X295276Y20059D02*
Y22421D01*
X298228Y24665D02*
Y27815D01*
X292323Y24665D02*
Y27815D01*
X298228D01*
X292323Y24665D02*
X298228D01*
X294094Y26240D02*
X296457D01*
X295276Y25059D02*
Y27421D01*
X298228Y29665D02*
Y32815D01*
X292323Y29665D02*
Y32815D01*
X298228D01*
X292323Y29665D02*
X298228D01*
X294094Y31240D02*
X296457D01*
X295276Y30059D02*
Y32421D01*
X298228Y34665D02*
Y37815D01*
X292323Y34665D02*
Y37815D01*
X298228D01*
X292323Y34665D02*
X298228D01*
X294094Y36240D02*
X296457D01*
X295276Y35059D02*
Y37421D01*
X298228Y39665D02*
Y42815D01*
X292323Y39665D02*
Y42815D01*
X298228D01*
X292323Y39665D02*
X298228D01*
X294094Y41240D02*
X296457D01*
X295276Y40059D02*
Y42421D01*
X298228Y44665D02*
Y47815D01*
X292323Y44665D02*
Y47815D01*
X298228D01*
X292323Y44665D02*
X298228D01*
X294094Y46240D02*
X296457D01*
X295276Y45059D02*
Y47421D01*
X298228Y49665D02*
Y52815D01*
X292323Y49665D02*
Y52815D01*
X298228D01*
X292323Y49665D02*
X298228D01*
X294094Y51240D02*
X296457D01*
X295276Y50059D02*
Y52421D01*
X298228Y54665D02*
Y57815D01*
X292323Y54665D02*
Y57815D01*
X298228D01*
X292323Y54665D02*
X298228D01*
X294094Y56240D02*
X296457D01*
X295276Y55059D02*
Y57421D01*
X298228Y79665D02*
Y82815D01*
X292323Y79665D02*
Y82815D01*
X298228D01*
X292323Y79665D02*
X298228D01*
X294094Y81240D02*
X296457D01*
X295276Y80059D02*
Y82421D01*
X298228Y74665D02*
Y77815D01*
X292323Y74665D02*
Y77815D01*
X298228D01*
X292323Y74665D02*
X298228D01*
X294094Y76240D02*
X296457D01*
X295276Y75059D02*
Y77421D01*
X298228Y69665D02*
Y72815D01*
X292323Y69665D02*
Y72815D01*
X298228D01*
X292323Y69665D02*
X298228D01*
X294094Y71240D02*
X296457D01*
X295276Y70059D02*
Y72421D01*
X298228Y64665D02*
Y67815D01*
X292323Y64665D02*
Y67815D01*
X298228D01*
X292323Y64665D02*
X298228D01*
X294094Y66240D02*
X296457D01*
X295276Y65059D02*
Y67421D01*
X298228Y134665D02*
Y137815D01*
X292323Y134665D02*
Y137815D01*
X298228D01*
X292323Y134665D02*
X298228D01*
X294094Y136240D02*
X296457D01*
X295276Y135059D02*
Y137421D01*
X298228Y129665D02*
Y132815D01*
X292323Y129665D02*
Y132815D01*
X298228D01*
X292323Y129665D02*
X298228D01*
X294094Y131240D02*
X296457D01*
X295276Y130059D02*
Y132421D01*
X298228Y124665D02*
Y127815D01*
X292323Y124665D02*
Y127815D01*
X298228D01*
X292323Y124665D02*
X298228D01*
X294094Y126240D02*
X296457D01*
X295276Y125059D02*
Y127421D01*
X298228Y119665D02*
Y122815D01*
X292323Y119665D02*
Y122815D01*
X298228D01*
X292323Y119665D02*
X298228D01*
X294094Y121240D02*
X296457D01*
X295276Y120059D02*
Y122421D01*
X298228Y114665D02*
Y117815D01*
X292323Y114665D02*
Y117815D01*
X298228D01*
X292323Y114665D02*
X298228D01*
X294094Y116240D02*
X296457D01*
X295276Y115059D02*
Y117421D01*
X298228Y109665D02*
Y112815D01*
X292323Y109665D02*
Y112815D01*
X298228D01*
X292323Y109665D02*
X298228D01*
X294094Y111240D02*
X296457D01*
X295276Y110059D02*
Y112421D01*
X298228Y104665D02*
Y107815D01*
X292323Y104665D02*
Y107815D01*
X298228D01*
X292323Y104665D02*
X298228D01*
X294094Y106240D02*
X296457D01*
X295276Y105059D02*
Y107421D01*
X298228Y99665D02*
Y102815D01*
X292323Y99665D02*
Y102815D01*
X298228D01*
X292323Y99665D02*
X298228D01*
X294094Y101240D02*
X296457D01*
X295276Y100059D02*
Y102421D01*
X62008Y134665D02*
Y137815D01*
X56102Y134665D02*
Y137815D01*
X62008D01*
X56102Y134665D02*
X62008D01*
X57874Y136240D02*
X60236D01*
X59055Y135059D02*
Y137421D01*
X62008Y129665D02*
Y132815D01*
X56102Y129665D02*
Y132815D01*
X62008D01*
X56102Y129665D02*
X62008D01*
X57874Y131240D02*
X60236D01*
X59055Y130059D02*
Y132421D01*
X62008Y124665D02*
Y127815D01*
X56102Y124665D02*
Y127815D01*
X62008D01*
X56102Y124665D02*
X62008D01*
X57874Y126240D02*
X60236D01*
X59055Y125059D02*
Y127421D01*
X62008Y119665D02*
Y122815D01*
X56102Y119665D02*
Y122815D01*
X62008D01*
X56102Y119665D02*
X62008D01*
X57874Y121240D02*
X60236D01*
X59055Y120059D02*
Y122421D01*
X62008Y114665D02*
Y117815D01*
X56102Y114665D02*
Y117815D01*
X62008D01*
X56102Y114665D02*
X62008D01*
X57874Y116240D02*
X60236D01*
X59055Y115059D02*
Y117421D01*
X62008Y109665D02*
Y112815D01*
X56102Y109665D02*
Y112815D01*
X62008D01*
X56102Y109665D02*
X62008D01*
X57874Y111240D02*
X60236D01*
X59055Y110059D02*
Y112421D01*
X62008Y104665D02*
Y107815D01*
X56102Y104665D02*
Y107815D01*
X62008D01*
X56102Y104665D02*
X62008D01*
X57874Y106240D02*
X60236D01*
X59055Y105059D02*
Y107421D01*
X62008Y99665D02*
Y102815D01*
X56102Y99665D02*
Y102815D01*
X62008D01*
X56102Y99665D02*
X62008D01*
X57874Y101240D02*
X60236D01*
X59055Y100059D02*
Y102421D01*
X62008Y29665D02*
Y32815D01*
X56102Y29665D02*
Y32815D01*
X62008D01*
X56102Y29665D02*
X62008D01*
X57874Y31240D02*
X60236D01*
X59055Y30059D02*
Y32421D01*
X62008Y24665D02*
Y27815D01*
X56102Y24665D02*
Y27815D01*
X62008D01*
X56102Y24665D02*
X62008D01*
X57874Y26240D02*
X60236D01*
X59055Y25059D02*
Y27421D01*
X62008Y39665D02*
Y42815D01*
X56102Y39665D02*
Y42815D01*
X62008D01*
X56102Y39665D02*
X62008D01*
X57874Y41240D02*
X60236D01*
X59055Y40059D02*
Y42421D01*
X62008Y34665D02*
Y37815D01*
X56102Y34665D02*
Y37815D01*
X62008D01*
X56102Y34665D02*
X62008D01*
X57874Y36240D02*
X60236D01*
X59055Y35059D02*
Y37421D01*
X62008Y49665D02*
Y52815D01*
X56102Y49665D02*
Y52815D01*
X62008D01*
X56102Y49665D02*
X62008D01*
X57874Y51240D02*
X60236D01*
X59055Y50059D02*
Y52421D01*
X62008Y44665D02*
Y47815D01*
X56102Y44665D02*
Y47815D01*
X62008D01*
X56102Y44665D02*
X62008D01*
X57874Y46240D02*
X60236D01*
X59055Y45059D02*
Y47421D01*
X62008Y59665D02*
Y62815D01*
X56102Y59665D02*
Y62815D01*
X62008D01*
X56102Y59665D02*
X62008D01*
X57874Y61240D02*
X60236D01*
X59055Y60059D02*
Y62421D01*
X62008Y54665D02*
Y57815D01*
X56102Y54665D02*
Y57815D01*
X62008D01*
X56102Y54665D02*
X62008D01*
X57874Y56240D02*
X60236D01*
X59055Y55059D02*
Y57421D01*
X62008Y69665D02*
Y72815D01*
X56102Y69665D02*
Y72815D01*
X62008D01*
X56102Y69665D02*
X62008D01*
X57874Y71240D02*
X60236D01*
X59055Y70059D02*
Y72421D01*
X62008Y64665D02*
Y67815D01*
X56102Y64665D02*
Y67815D01*
X62008D01*
X56102Y64665D02*
X62008D01*
X57874Y66240D02*
X60236D01*
X59055Y65059D02*
Y67421D01*
X62008Y79665D02*
Y82815D01*
X56102Y79665D02*
Y82815D01*
X62008D01*
X56102Y79665D02*
X62008D01*
X57874Y81240D02*
X60236D01*
X59055Y80059D02*
Y82421D01*
X62008Y74665D02*
Y77815D01*
X56102Y74665D02*
Y77815D01*
X62008D01*
X56102Y74665D02*
X62008D01*
X57874Y76240D02*
X60236D01*
X59055Y75059D02*
Y77421D01*
X62008Y84665D02*
Y87815D01*
X56102Y84665D02*
Y87815D01*
X62008D01*
X56102Y84665D02*
X62008D01*
X57874Y86240D02*
X60236D01*
X59055Y85059D02*
Y87421D01*
X62008Y89665D02*
Y92815D01*
X56102Y89665D02*
Y92815D01*
X62008D01*
X56102Y89665D02*
X62008D01*
X57874Y91240D02*
X60236D01*
X59055Y90059D02*
Y92421D01*
X62008Y94665D02*
Y97815D01*
X56102Y94665D02*
Y97815D01*
X62008D01*
X56102Y94665D02*
X62008D01*
X57874Y96240D02*
X60236D01*
X59055Y95059D02*
Y97421D01*
X16732Y129665D02*
Y132815D01*
X22638Y129665D02*
Y132815D01*
X16732Y129665D02*
X22638D01*
X16732Y132815D02*
X22638D01*
X18504Y131240D02*
X20866D01*
X19685Y130059D02*
Y132421D01*
X16732Y134665D02*
Y137815D01*
X22638Y134665D02*
Y137815D01*
X16732Y134665D02*
X22638D01*
X16732Y137815D02*
X22638D01*
X18504Y136240D02*
X20866D01*
X19685Y135059D02*
Y137421D01*
X298228Y59665D02*
Y62815D01*
X292323Y59665D02*
Y62815D01*
X298228D01*
X292323Y59665D02*
X298228D01*
X294094Y61240D02*
X296457D01*
X295276Y60059D02*
Y62421D01*
X298228Y84665D02*
Y87815D01*
X292323Y84665D02*
Y87815D01*
X298228D01*
X292323Y84665D02*
X298228D01*
X294094Y86240D02*
X296457D01*
X295276Y85059D02*
Y87421D01*
X298228Y89665D02*
Y92815D01*
X292323Y89665D02*
Y92815D01*
X298228D01*
X292323Y89665D02*
X298228D01*
X294094Y91240D02*
X296457D01*
X295276Y90059D02*
Y92421D01*
X298228Y94665D02*
Y97815D01*
X292323Y94665D02*
Y97815D01*
X298228D01*
X292323Y94665D02*
X298228D01*
X294094Y96240D02*
X296457D01*
X295276Y95059D02*
Y97421D01*
X158200Y150100D02*
X164800D01*
X158200D02*
Y159900D01*
X164800D01*
Y150100D02*
Y159900D01*
X161400Y153819D02*
Y156181D01*
X160219Y155000D02*
X162581D01*
X208130Y129421D02*
Y135421D01*
X213130D01*
Y129421D02*
Y135421D01*
X208130Y129421D02*
X213130D01*
X209449Y132421D02*
X211811D01*
X210630Y131240D02*
Y133602D01*
X192382Y129421D02*
Y135421D01*
X197382D01*
Y129421D02*
Y135421D01*
X192382Y129421D02*
X197382D01*
X193701Y132421D02*
X196063D01*
X194882Y131240D02*
Y133602D01*
X223878Y129717D02*
Y135716D01*
X228878D01*
Y129717D02*
Y135716D01*
X223878Y129717D02*
X228878D01*
X225197Y132717D02*
X227559D01*
X226378Y131535D02*
Y133898D01*
X183465Y77106D02*
X186614D01*
X183465Y71201D02*
X186614D01*
X183465D02*
Y77106D01*
X186614Y71201D02*
Y77106D01*
X185039Y72973D02*
Y75335D01*
X183858Y74154D02*
X186221D01*
X151969Y70531D02*
X155118D01*
X151969Y64626D02*
X155118D01*
X151969D02*
Y70531D01*
X155118Y64626D02*
Y70531D01*
X153543Y66398D02*
Y68760D01*
X152362Y67579D02*
X154724D01*
X151969Y85630D02*
X155118D01*
X151969Y79724D02*
X155118D01*
X151969D02*
Y85630D01*
X155118Y79724D02*
Y85630D01*
X153543Y81496D02*
Y83858D01*
X152362Y82677D02*
X154724D01*
X156299Y85630D02*
X159449D01*
X156299Y79724D02*
X159449D01*
X156299D02*
Y85630D01*
X159449Y79724D02*
Y85630D01*
X157874Y81496D02*
Y83858D01*
X156693Y82677D02*
X159055D01*
X179961Y154026D02*
Y156388D01*
X178779Y155207D02*
X181142D01*
X177008Y153632D02*
X182913D01*
X177008Y156781D02*
X182913D01*
X177008Y153632D02*
Y156781D01*
X182913Y153632D02*
Y156781D01*
X179961Y150059D02*
Y152421D01*
X178779Y151240D02*
X181142D01*
X177008Y149665D02*
X182913D01*
X177008Y152815D02*
X182913D01*
X177008Y149665D02*
Y152815D01*
X182913Y149665D02*
Y152815D01*
X210630Y121240D02*
Y123602D01*
X209449Y122421D02*
X211811D01*
X207677Y123996D02*
X213583D01*
X207677Y120846D02*
X213583D01*
Y123996D01*
X207677Y120846D02*
Y123996D01*
X179961Y157992D02*
Y160354D01*
X178779Y159173D02*
X181142D01*
X177008Y157598D02*
X182913D01*
X177008Y160748D02*
X182913D01*
X177008Y157598D02*
Y160748D01*
X182913Y157598D02*
Y160748D01*
X194882Y121240D02*
Y123602D01*
X193701Y122421D02*
X196063D01*
X191929Y123996D02*
X197835D01*
X191929Y120846D02*
X197835D01*
Y123996D01*
X191929Y120846D02*
Y123996D01*
X183465Y25472D02*
X186614D01*
X183465Y19567D02*
X186614D01*
X183465D02*
Y25472D01*
X186614Y19567D02*
Y25472D01*
X185039Y21339D02*
Y23701D01*
X183858Y22520D02*
X186221D01*
X226378Y121535D02*
Y123898D01*
X225197Y122716D02*
X227559D01*
X223425Y124291D02*
X229331D01*
X223425Y121142D02*
X229331D01*
Y124291D01*
X223425Y121142D02*
Y124291D01*
X108642Y154527D02*
X111791D01*
X108642Y160433D02*
X111791D01*
Y154527D02*
Y160433D01*
X108642Y154527D02*
Y160433D01*
X110216Y156299D02*
Y158661D01*
X109035Y157480D02*
X111398D01*
X125965Y154527D02*
X129114D01*
X125965Y160433D02*
X129114D01*
Y154527D02*
Y160433D01*
X125965Y154527D02*
Y160433D01*
X127539Y156299D02*
Y158661D01*
X126358Y157480D02*
X128720D01*
X117303Y154527D02*
X120453D01*
X117303Y160433D02*
X120453D01*
Y154527D02*
Y160433D01*
X117303Y154527D02*
Y160433D01*
X118878Y156299D02*
Y158661D01*
X117697Y157480D02*
X120059D01*
X104311Y154527D02*
X107461D01*
X104311Y160433D02*
X107461D01*
Y154527D02*
Y160433D01*
X104311Y154527D02*
Y160433D01*
X105886Y156299D02*
Y158661D01*
X104705Y157480D02*
X107067D01*
X187402Y55492D02*
X190551D01*
X187402Y61398D02*
X190551D01*
Y55492D02*
Y61398D01*
X187402Y55492D02*
Y61398D01*
X188976Y57264D02*
Y59626D01*
X187795Y58445D02*
X190157D01*
X148031Y30492D02*
X151181D01*
X148031Y36398D02*
X151181D01*
Y30492D02*
Y36398D01*
X148031Y30492D02*
Y36398D01*
X149606Y32264D02*
Y34626D01*
X148425Y33445D02*
X150787D01*
X95276Y72559D02*
X97638D01*
X96457Y71378D02*
Y73740D01*
X94882Y69606D02*
Y75512D01*
X98032Y69606D02*
Y75512D01*
X94882D02*
X98032D01*
X94882Y69606D02*
X98032D01*
X154803Y105807D02*
Y108957D01*
X148898Y105807D02*
Y108957D01*
X154803D01*
X148898Y105807D02*
X154803D01*
X150669Y107382D02*
X153032D01*
X151850Y106201D02*
Y108563D01*
X154803Y109744D02*
Y112894D01*
X148898Y109744D02*
Y112894D01*
X154803D01*
X148898Y109744D02*
X154803D01*
X150669Y111319D02*
X153032D01*
X151850Y110138D02*
Y112500D01*
X215630Y75787D02*
Y78150D01*
X214449Y76968D02*
X216811D01*
X212677Y78543D02*
X218583D01*
X212677Y75394D02*
X218583D01*
Y78543D01*
X212677Y75394D02*
Y78543D01*
X215630Y72244D02*
Y74606D01*
X214449Y73425D02*
X216811D01*
X212677Y75000D02*
X218583D01*
X212677Y71850D02*
X218583D01*
Y75000D01*
X212677Y71850D02*
Y75000D01*
X215630Y82874D02*
Y85236D01*
X214449Y84055D02*
X216811D01*
X212677Y85630D02*
X218583D01*
X212677Y82480D02*
X218583D01*
Y85630D01*
X212677Y82480D02*
Y85630D01*
X215630Y89961D02*
Y92323D01*
X214449Y91142D02*
X216811D01*
X212677Y92716D02*
X218583D01*
X212677Y89567D02*
X218583D01*
Y92716D01*
X212677Y89567D02*
Y92716D01*
X186732Y87283D02*
Y89646D01*
X185551Y88465D02*
X187913D01*
X183780Y90039D02*
X189685D01*
X183780Y86890D02*
X189685D01*
Y90039D01*
X183780Y86890D02*
Y90039D01*
X186732Y79803D02*
Y82165D01*
X185551Y80984D02*
X187913D01*
X183780Y82559D02*
X189685D01*
X183780Y79409D02*
X189685D01*
Y82559D01*
X183780Y79409D02*
Y82559D01*
X151850Y126240D02*
Y128602D01*
X150669Y127421D02*
X153032D01*
X148898Y125847D02*
X154803D01*
X148898Y128996D02*
X154803D01*
X148898Y125847D02*
Y128996D01*
X154803Y125847D02*
Y128996D01*
X151850Y121240D02*
Y123602D01*
X150669Y122421D02*
X153032D01*
X148898Y120846D02*
X154803D01*
X148898Y123996D02*
X154803D01*
X148898Y120846D02*
Y123996D01*
X154803Y120846D02*
Y123996D01*
X155614Y64366D02*
X167614D01*
X155614D02*
Y77266D01*
X167614D01*
Y64366D02*
Y77266D01*
X161614Y69685D02*
Y72047D01*
X160433Y70866D02*
X162795D01*
X212598Y57774D02*
Y60136D01*
X211417Y58955D02*
X213779D01*
X200298Y66555D02*
X224798D01*
X200298Y51555D02*
Y66555D01*
Y51555D02*
X224798D01*
Y66555D01*
X19685Y25059D02*
Y27421D01*
X18504Y26240D02*
X20866D01*
X16732Y27815D02*
X22638D01*
X16732Y24665D02*
X22638D01*
Y27815D01*
X16732Y24665D02*
Y27815D01*
X19685Y30059D02*
Y32421D01*
X18504Y31240D02*
X20866D01*
X16732Y32815D02*
X22638D01*
X16732Y29665D02*
X22638D01*
Y32815D01*
X16732Y29665D02*
Y32815D01*
X19685Y35059D02*
Y37421D01*
X18504Y36240D02*
X20866D01*
X16732Y37815D02*
X22638D01*
X16732Y34665D02*
X22638D01*
Y37815D01*
X16732Y34665D02*
Y37815D01*
X19685Y40059D02*
Y42421D01*
X18504Y41240D02*
X20866D01*
X16732Y42815D02*
X22638D01*
X16732Y39665D02*
X22638D01*
Y42815D01*
X16732Y39665D02*
Y42815D01*
X19685Y45059D02*
Y47421D01*
X18504Y46240D02*
X20866D01*
X16732Y47815D02*
X22638D01*
X16732Y44665D02*
X22638D01*
Y47815D01*
X16732Y44665D02*
Y47815D01*
X19685Y50059D02*
Y52421D01*
X18504Y51240D02*
X20866D01*
X16732Y52815D02*
X22638D01*
X16732Y49665D02*
X22638D01*
Y52815D01*
X16732Y49665D02*
Y52815D01*
X19685Y55059D02*
Y57421D01*
X18504Y56240D02*
X20866D01*
X16732Y57815D02*
X22638D01*
X16732Y54665D02*
X22638D01*
Y57815D01*
X16732Y54665D02*
Y57815D01*
M02*
