G04*
G04 #@! TF.GenerationSoftware,Altium Limited,Altium Designer,20.0.13 (296)*
G04*
G04 Layer_Physical_Order=3*
G04 Layer_Color=16440176*
%FSLAX25Y25*%
%MOIN*%
G70*
G01*
G75*
%ADD11C,0.00787*%
%ADD14C,0.01575*%
%ADD62C,0.02953*%
%ADD66C,0.19685*%
%ADD67C,0.01968*%
G36*
X315669Y168288D02*
X317074Y168103D01*
X318442Y167736D01*
X319751Y167194D01*
X320978Y166486D01*
X322102Y165623D01*
X323104Y164621D01*
X323966Y163497D01*
X324674Y162271D01*
X325217Y160962D01*
X325583Y159593D01*
X325768Y158189D01*
Y157480D01*
Y0D01*
Y-708D01*
X325583Y-2113D01*
X325217Y-3481D01*
X324674Y-4790D01*
X323966Y-6017D01*
X323104Y-7141D01*
X322102Y-8143D01*
X320978Y-9005D01*
X319751Y-9714D01*
X318442Y-10256D01*
X317074Y-10623D01*
X315669Y-10808D01*
X314961D01*
X-0Y-10808D01*
X-709D01*
X-2113Y-10623D01*
X-3482Y-10256D01*
X-4791Y-9714D01*
X-6017Y-9005D01*
X-7141Y-8143D01*
X-8143Y-7141D01*
X-9006Y-6017D01*
X-9714Y-4790D01*
X-10256Y-3481D01*
X-10623Y-2113D01*
X-10808Y-708D01*
Y-0D01*
Y157480D01*
Y158189D01*
X-10623Y159593D01*
X-10256Y160962D01*
X-9714Y162271D01*
X-9006Y163497D01*
X-8143Y164621D01*
X-7141Y165623D01*
X-6017Y166486D01*
X-4791Y167194D01*
X-3482Y167736D01*
X-2113Y168103D01*
X-709Y168288D01*
X0Y168288D01*
X314961D01*
X315669Y168288D01*
D02*
G37*
%LPC*%
G36*
X299274Y137095D02*
X298966Y137034D01*
X298706Y136860D01*
X298532Y136599D01*
X298471Y136292D01*
X298532Y135985D01*
X298706Y135724D01*
X298966Y135550D01*
X299274Y135489D01*
X299581Y135550D01*
X299841Y135724D01*
X300015Y135985D01*
X300076Y136292D01*
X300015Y136599D01*
X299841Y136860D01*
X299581Y137034D01*
X299274Y137095D01*
D02*
G37*
G36*
X203485Y156245D02*
X193249D01*
X192947Y156120D01*
X192823Y155819D01*
Y147945D01*
X192947Y147643D01*
X193249Y147519D01*
X203485D01*
X203786Y147643D01*
X203911Y147945D01*
Y149715D01*
X203976Y149768D01*
X233661D01*
X233747Y149785D01*
X234240Y149768D01*
D01*
X234732Y149759D01*
X236217Y149613D01*
X238117Y149037D01*
X239868Y148100D01*
X241404Y146841D01*
X242664Y145306D01*
X243600Y143554D01*
X244176Y141654D01*
X244358Y139810D01*
X244331Y139677D01*
Y134783D01*
X244493Y133970D01*
X244954Y133281D01*
X245643Y132820D01*
X246457Y132658D01*
X247270Y132820D01*
X247960Y133281D01*
X248420Y133970D01*
X248582Y134783D01*
Y139677D01*
X248586D01*
X248409Y141921D01*
X247883Y144110D01*
X247022Y146190D01*
X245846Y148109D01*
X244384Y149821D01*
X242672Y151283D01*
X240753Y152459D01*
X238673Y153321D01*
X236484Y153846D01*
X234240Y154023D01*
Y154023D01*
X233747Y154002D01*
X233661Y154019D01*
X203976D01*
X203911Y154073D01*
Y155819D01*
X203786Y156120D01*
X203485Y156245D01*
D02*
G37*
G36*
X299274Y132095D02*
X298966Y132034D01*
X298706Y131860D01*
X298532Y131599D01*
X298471Y131292D01*
X298532Y130985D01*
X298706Y130725D01*
X298966Y130551D01*
X299274Y130489D01*
X299581Y130551D01*
X299841Y130725D01*
X300015Y130985D01*
X300076Y131292D01*
X300015Y131599D01*
X299841Y131860D01*
X299581Y132034D01*
X299274Y132095D01*
D02*
G37*
G36*
X161713Y128263D02*
X161405Y128202D01*
X161145Y128028D01*
X160971Y127768D01*
X160910Y127461D01*
X160971Y127153D01*
X161145Y126893D01*
X161405Y126719D01*
X161713Y126658D01*
X162020Y126719D01*
X162280Y126893D01*
X162454Y127153D01*
X162515Y127461D01*
X162454Y127768D01*
X162280Y128028D01*
X162020Y128202D01*
X161713Y128263D01*
D02*
G37*
G36*
X285630Y127043D02*
X285323Y126982D01*
X285062Y126808D01*
X284888Y126547D01*
X284827Y126240D01*
X284888Y125933D01*
X285062Y125672D01*
X285323Y125498D01*
X285630Y125437D01*
X285937Y125498D01*
X286198Y125672D01*
X286372Y125933D01*
X286433Y126240D01*
X286372Y126547D01*
X286198Y126808D01*
X285937Y126982D01*
X285630Y127043D01*
D02*
G37*
G36*
X255906Y137645D02*
X255368Y137538D01*
X254912Y137234D01*
X254608Y136778D01*
X254501Y136240D01*
X254608Y135703D01*
X254912Y135247D01*
X255103Y135119D01*
Y125136D01*
X253309Y123342D01*
X184157D01*
X184156Y123342D01*
X183849Y123281D01*
X183589Y123107D01*
X173391Y112909D01*
X151378D01*
X151378Y112909D01*
X151071Y112848D01*
X150810Y112674D01*
X148683Y110547D01*
X135195D01*
X132778Y112964D01*
X132822Y113189D01*
X132715Y113727D01*
X132411Y114182D01*
X131955Y114487D01*
X131417Y114594D01*
X130880Y114487D01*
X130424Y114182D01*
X130297Y113992D01*
X100787D01*
X100787Y113992D01*
X100480Y113931D01*
X100220Y113757D01*
X100220Y113757D01*
X91952Y105489D01*
X91778Y105228D01*
X91717Y104921D01*
Y58207D01*
X91526Y58080D01*
X91222Y57624D01*
X91115Y57087D01*
X91222Y56549D01*
X91526Y56093D01*
X91578Y56059D01*
Y55457D01*
X91526Y55423D01*
X91222Y54967D01*
X91115Y54429D01*
X91222Y53891D01*
X91526Y53436D01*
X91982Y53131D01*
X92520Y53024D01*
X93057Y53131D01*
X93513Y53436D01*
X93818Y53891D01*
X93925Y54429D01*
X93880Y54654D01*
X94306Y55080D01*
X94768Y54889D01*
Y36122D01*
X94829Y35815D01*
X95003Y35554D01*
X97070Y33487D01*
X97070Y33487D01*
X97331Y33313D01*
X97638Y33252D01*
X103347D01*
X103654Y33313D01*
X103914Y33487D01*
X106670Y36243D01*
X106844Y36504D01*
X106905Y36811D01*
Y43761D01*
X107096Y43888D01*
X107400Y44344D01*
X107507Y44882D01*
X107400Y45419D01*
X107096Y45875D01*
X106640Y46180D01*
X106102Y46287D01*
X105565Y46180D01*
X105109Y45875D01*
X104804Y45419D01*
X104697Y44882D01*
X104804Y44344D01*
X105109Y43888D01*
X105299Y43761D01*
Y37144D01*
X103014Y34858D01*
X97970D01*
X96374Y36455D01*
Y59350D01*
X96313Y59658D01*
X96139Y59918D01*
X95685Y60372D01*
Y103610D01*
X102098Y110024D01*
X128900D01*
X132109Y106814D01*
X132370Y106640D01*
X132677Y106579D01*
X163841D01*
X164256Y106164D01*
Y104331D01*
X164317Y104024D01*
X164491Y103763D01*
X165569Y102685D01*
X165524Y102461D01*
X165631Y101923D01*
X165936Y101467D01*
X166392Y101163D01*
X166531Y101135D01*
X166596Y100782D01*
X166580Y100615D01*
X166361Y100469D01*
X166187Y100209D01*
X166126Y99902D01*
X166187Y99594D01*
X166361Y99334D01*
X166622Y99160D01*
X166929Y99099D01*
X167236Y99160D01*
X167497Y99334D01*
X167671Y99594D01*
X167732Y99902D01*
X167671Y100209D01*
X167497Y100469D01*
X167278Y100615D01*
X167262Y100782D01*
X167328Y101135D01*
X167467Y101163D01*
X167923Y101467D01*
X168227Y101923D01*
X168334Y102461D01*
X168227Y102998D01*
X167923Y103454D01*
X167869Y103490D01*
Y103990D01*
X167923Y104026D01*
X168227Y104482D01*
X168334Y105020D01*
X168227Y105557D01*
X167923Y106013D01*
X167732Y106140D01*
Y107087D01*
X167732Y107087D01*
X167671Y107394D01*
X167497Y107654D01*
X167497Y107654D01*
X166218Y108933D01*
X166425Y109433D01*
X173524D01*
X173831Y109494D01*
X174091Y109669D01*
X184860Y120437D01*
X254785D01*
X254912Y120247D01*
X255368Y119942D01*
X255906Y119835D01*
X256443Y119942D01*
X256899Y120247D01*
X257204Y120703D01*
X257311Y121240D01*
X257204Y121778D01*
X256899Y122234D01*
X256443Y122538D01*
X255906Y122645D01*
X255512Y122567D01*
X255258Y123021D01*
X256473Y124235D01*
X256473Y124235D01*
X256647Y124496D01*
X256708Y124803D01*
Y135119D01*
X256899Y135247D01*
X257204Y135703D01*
X257311Y136240D01*
X257204Y136778D01*
X256899Y137234D01*
X256443Y137538D01*
X255906Y137645D01*
D02*
G37*
G36*
X161713Y123224D02*
X161405Y123163D01*
X161145Y122989D01*
X160971Y122729D01*
X160910Y122421D01*
X160971Y122114D01*
X161145Y121854D01*
X161405Y121679D01*
X161713Y121618D01*
X162020Y121679D01*
X162280Y121854D01*
X162454Y122114D01*
X162515Y122421D01*
X162454Y122729D01*
X162280Y122989D01*
X162020Y123163D01*
X161713Y123224D01*
D02*
G37*
G36*
X285630Y122043D02*
X285323Y121982D01*
X285062Y121808D01*
X284888Y121547D01*
X284827Y121240D01*
X284888Y120933D01*
X285062Y120673D01*
X285323Y120499D01*
X285630Y120437D01*
X285937Y120499D01*
X286198Y120673D01*
X286372Y120933D01*
X286433Y121240D01*
X286372Y121547D01*
X286198Y121808D01*
X285937Y121982D01*
X285630Y122043D01*
D02*
G37*
G36*
X299326Y117147D02*
X299018Y117086D01*
X298758Y116912D01*
X298584Y116651D01*
X298523Y116344D01*
X298584Y116037D01*
X298758Y115777D01*
X299018Y115603D01*
X299326Y115541D01*
X299633Y115603D01*
X299893Y115777D01*
X300067Y116037D01*
X300129Y116344D01*
X300067Y116651D01*
X299893Y116912D01*
X299633Y117086D01*
X299326Y117147D01*
D02*
G37*
G36*
X255906Y117043D02*
X255598Y116982D01*
X255338Y116808D01*
X255164Y116547D01*
X255103Y116240D01*
X255164Y115933D01*
X255338Y115673D01*
X255598Y115498D01*
X255906Y115437D01*
X256213Y115498D01*
X256473Y115673D01*
X256647Y115933D01*
X256708Y116240D01*
X256647Y116547D01*
X256473Y116808D01*
X256213Y116982D01*
X255906Y117043D01*
D02*
G37*
G36*
X166339Y116157D02*
X166031Y116096D01*
X165771Y115922D01*
X165597Y115662D01*
X165536Y115354D01*
X165597Y115047D01*
X165771Y114787D01*
X166031Y114613D01*
X166339Y114551D01*
X166646Y114613D01*
X166906Y114787D01*
X167080Y115047D01*
X167141Y115354D01*
X167080Y115662D01*
X166906Y115922D01*
X166646Y116096D01*
X166339Y116157D01*
D02*
G37*
G36*
X143405D02*
X143098Y116096D01*
X142838Y115922D01*
X142664Y115662D01*
X142603Y115354D01*
X142664Y115047D01*
X142838Y114787D01*
X143098Y114613D01*
X143405Y114551D01*
X143713Y114613D01*
X143973Y114787D01*
X144147Y115047D01*
X144208Y115354D01*
X144147Y115662D01*
X143973Y115922D01*
X143713Y116096D01*
X143405Y116157D01*
D02*
G37*
G36*
X285630Y112043D02*
X285323Y111982D01*
X285062Y111808D01*
X284888Y111547D01*
X284827Y111240D01*
X284888Y110933D01*
X285062Y110672D01*
X285323Y110498D01*
X285630Y110437D01*
X285937Y110498D01*
X286198Y110672D01*
X286372Y110933D01*
X286433Y111240D01*
X286372Y111547D01*
X286198Y111808D01*
X285937Y111982D01*
X285630Y112043D01*
D02*
G37*
G36*
X255906Y112043D02*
X255598Y111982D01*
X255338Y111808D01*
X255164Y111547D01*
X255103Y111240D01*
X255164Y110933D01*
X255338Y110672D01*
X255598Y110498D01*
X255906Y110437D01*
X256213Y110498D01*
X256473Y110672D01*
X256647Y110933D01*
X256708Y111240D01*
X256647Y111547D01*
X256473Y111808D01*
X256213Y111982D01*
X255906Y112043D01*
D02*
G37*
G36*
X199409Y110744D02*
X199102Y110683D01*
X198842Y110509D01*
X198668Y110248D01*
X198607Y109941D01*
X198668Y109634D01*
X198842Y109373D01*
X199102Y109199D01*
X199409Y109138D01*
X199717Y109199D01*
X199977Y109373D01*
X200151Y109634D01*
X200212Y109941D01*
X200151Y110248D01*
X199977Y110509D01*
X199717Y110683D01*
X199409Y110744D01*
D02*
G37*
G36*
X196457Y107299D02*
X196150Y107238D01*
X195889Y107064D01*
X195715Y106803D01*
X195654Y106496D01*
X195715Y106189D01*
X195889Y105928D01*
X196150Y105754D01*
X196457Y105693D01*
X196764Y105754D01*
X197024Y105928D01*
X197198Y106189D01*
X197259Y106496D01*
X197198Y106803D01*
X197024Y107064D01*
X196764Y107238D01*
X196457Y107299D01*
D02*
G37*
G36*
X285630Y107043D02*
X285323Y106982D01*
X285062Y106808D01*
X284888Y106547D01*
X284827Y106240D01*
X284888Y105933D01*
X285062Y105673D01*
X285323Y105499D01*
X285630Y105437D01*
X285937Y105499D01*
X286198Y105673D01*
X286372Y105933D01*
X286433Y106240D01*
X286372Y106547D01*
X286198Y106808D01*
X285937Y106982D01*
X285630Y107043D01*
D02*
G37*
G36*
X127657Y107299D02*
X111713D01*
X111405Y107238D01*
X111145Y107064D01*
X111145Y107064D01*
X109649Y105568D01*
X109475Y105307D01*
X109414Y105000D01*
Y103684D01*
X109223Y103556D01*
X108919Y103101D01*
X108812Y102563D01*
X108919Y102025D01*
X109223Y101569D01*
X109679Y101265D01*
X110217Y101158D01*
X110754Y101265D01*
X111210Y101569D01*
X111515Y102025D01*
X111621Y102563D01*
X111515Y103101D01*
X111210Y103556D01*
X111019Y103684D01*
Y104667D01*
X112045Y105693D01*
X127325D01*
X128737Y104281D01*
X128759Y104124D01*
X128727Y104005D01*
X128170Y103799D01*
X128077Y103861D01*
X127539Y103968D01*
X127002Y103861D01*
X126546Y103556D01*
X126241Y103101D01*
X126134Y102563D01*
X126241Y102025D01*
X126546Y101569D01*
X126737Y101442D01*
Y98150D01*
X126798Y97842D01*
X126972Y97582D01*
X132306Y92247D01*
X132567Y92073D01*
X132874Y92012D01*
X165711D01*
X172918Y84805D01*
Y54134D01*
X172979Y53827D01*
X173153Y53566D01*
X176166Y50553D01*
Y41967D01*
X175975Y41840D01*
X175671Y41384D01*
X175564Y40846D01*
X175671Y40309D01*
X175975Y39853D01*
X176431Y39549D01*
X176969Y39441D01*
X177506Y39549D01*
X177962Y39853D01*
X178179Y40178D01*
X178193Y40189D01*
X178631Y40283D01*
X178769Y40273D01*
X183941Y35100D01*
Y22574D01*
X179001Y17634D01*
X175596D01*
X175289Y17572D01*
X175029Y17398D01*
X175029Y17398D01*
X173984Y16354D01*
X167864D01*
X167864Y16354D01*
X167557Y16293D01*
X167297Y16119D01*
X166252Y15075D01*
X160531D01*
X160224Y15013D01*
X159964Y14839D01*
X159964Y14839D01*
X158094Y12969D01*
X157920Y12709D01*
X157859Y12402D01*
Y10176D01*
X157668Y10049D01*
X157363Y9593D01*
X157256Y9055D01*
X157363Y8517D01*
X157668Y8062D01*
X158124Y7757D01*
X158661Y7650D01*
X159199Y7757D01*
X159655Y8062D01*
X159959Y8517D01*
X160066Y9055D01*
X159959Y9593D01*
X159655Y10049D01*
X159464Y10176D01*
Y11681D01*
X159656Y11824D01*
X159688Y11833D01*
X160293Y11702D01*
X160424Y11507D01*
X160880Y11202D01*
X161417Y11095D01*
X161955Y11202D01*
X162411Y11507D01*
X162588Y11772D01*
X166709D01*
X167016Y11833D01*
X167276Y12007D01*
X167442Y12173D01*
X167984Y12008D01*
X167993Y11962D01*
X168298Y11507D01*
X168754Y11202D01*
X169291Y11095D01*
X169829Y11202D01*
X170285Y11507D01*
X170462Y11772D01*
X174681D01*
X174988Y11833D01*
X175214Y11739D01*
X175277Y11425D01*
X175581Y10970D01*
X176037Y10665D01*
X176575Y10558D01*
X177112Y10665D01*
X177568Y10970D01*
X177873Y11425D01*
X177942Y11772D01*
X180291D01*
X180599Y11833D01*
X180859Y12007D01*
X183775Y14923D01*
X184237Y14731D01*
Y13696D01*
X184046Y13568D01*
X183741Y13113D01*
X183634Y12575D01*
X183741Y12037D01*
X184046Y11581D01*
X184502Y11277D01*
X185039Y11170D01*
X185577Y11277D01*
X186033Y11581D01*
X186337Y12037D01*
X186444Y12575D01*
X186337Y13113D01*
X186033Y13568D01*
X185842Y13696D01*
Y15320D01*
X187218Y16696D01*
X187680Y16505D01*
Y15338D01*
X187489Y15211D01*
X187185Y14755D01*
X187078Y14217D01*
X187185Y13680D01*
X187489Y13224D01*
X187945Y12919D01*
X188483Y12812D01*
X189021Y12919D01*
X189476Y13224D01*
X189781Y13680D01*
X189888Y14217D01*
X189781Y14755D01*
X189476Y15211D01*
X189286Y15338D01*
Y17093D01*
X199736Y27544D01*
X207281D01*
X207588Y27605D01*
X207848Y27779D01*
X211058Y30988D01*
X215453D01*
X215760Y31050D01*
X216020Y31224D01*
X217694Y32897D01*
X217694Y32897D01*
X217868Y33157D01*
X217929Y33465D01*
Y37205D01*
X217929Y37205D01*
X217868Y37512D01*
X217694Y37772D01*
X217694Y37772D01*
X215627Y39839D01*
X215366Y40013D01*
X215059Y40075D01*
X212144D01*
X212017Y40265D01*
X211561Y40570D01*
X211024Y40677D01*
X210486Y40570D01*
X210030Y40265D01*
X209903Y40075D01*
X190979D01*
X187868Y43186D01*
X187868Y43186D01*
X185055Y45999D01*
Y71321D01*
X187182Y73448D01*
X187356Y73708D01*
X187417Y74016D01*
X187417Y74016D01*
Y75060D01*
X187608Y75188D01*
X187912Y75643D01*
X188019Y76181D01*
X187912Y76719D01*
X187608Y77175D01*
X187152Y77479D01*
X186614Y77586D01*
X186076Y77479D01*
X185621Y77175D01*
X185316Y76719D01*
X185209Y76181D01*
X185316Y75643D01*
X185621Y75188D01*
X185811Y75060D01*
Y74348D01*
X183684Y72221D01*
X183510Y71961D01*
X183449Y71653D01*
Y45666D01*
X183510Y45359D01*
X183684Y45099D01*
X186732Y42050D01*
X186732Y42050D01*
X186733Y42050D01*
X190079Y38704D01*
X190340Y38530D01*
X190647Y38469D01*
X190647Y38469D01*
X209903D01*
X210030Y38278D01*
X210486Y37974D01*
X211024Y37867D01*
X211561Y37974D01*
X212017Y38278D01*
X212144Y38469D01*
X214726D01*
X216323Y36872D01*
Y34581D01*
X216064Y34499D01*
X215823Y34498D01*
X215560Y34891D01*
X215105Y35196D01*
X214567Y35303D01*
X214029Y35196D01*
X213574Y34891D01*
X213446Y34701D01*
X211161D01*
X210854Y34639D01*
X210594Y34465D01*
X209161Y33032D01*
X208772Y33351D01*
X208778Y33360D01*
X208885Y33898D01*
X208778Y34435D01*
X208474Y34891D01*
X208018Y35196D01*
X207480Y35303D01*
X206943Y35196D01*
X206487Y34891D01*
X206360Y34701D01*
X204764D01*
X204764Y34701D01*
X204456Y34639D01*
X204196Y34465D01*
X203430Y33699D01*
X202968Y33891D01*
Y34941D01*
X202968Y34941D01*
X202907Y35248D01*
X202733Y35509D01*
X202733Y35509D01*
X201650Y36591D01*
X201390Y36765D01*
X201083Y36826D01*
X198425D01*
X198425Y36827D01*
X198118Y36765D01*
X197857Y36591D01*
X195967Y34701D01*
X194428D01*
X194300Y34891D01*
X193845Y35196D01*
X193307Y35303D01*
X192769Y35196D01*
X192314Y34891D01*
X192009Y34435D01*
X191902Y33898D01*
X192009Y33360D01*
X192314Y32904D01*
X192769Y32600D01*
X193307Y32493D01*
X193845Y32600D01*
X194300Y32904D01*
X194428Y33095D01*
X195479D01*
X195671Y32633D01*
X186009Y22971D01*
X185547Y23162D01*
Y35433D01*
X185486Y35740D01*
X185312Y36001D01*
X185312Y36001D01*
X179937Y41376D01*
Y43407D01*
X180127Y43534D01*
X180432Y43990D01*
X180539Y44528D01*
X180432Y45065D01*
X180127Y45521D01*
X179672Y45826D01*
X179134Y45932D01*
X178596Y45826D01*
X178271Y45608D01*
X177837Y45775D01*
X177771Y45830D01*
Y50886D01*
X177771Y50886D01*
X177717Y51158D01*
X177720Y51208D01*
X178001Y51658D01*
X179785D01*
X179912Y51467D01*
X180368Y51163D01*
X180905Y51056D01*
X181443Y51163D01*
X181899Y51467D01*
X182203Y51923D01*
X182310Y52461D01*
X182203Y52998D01*
X181899Y53454D01*
X181443Y53759D01*
X180905Y53866D01*
X180368Y53759D01*
X179912Y53454D01*
X179785Y53263D01*
X177596D01*
X175704Y55155D01*
Y63142D01*
X176204Y63191D01*
X176227Y63079D01*
X176401Y62818D01*
X176661Y62644D01*
X176969Y62583D01*
X177276Y62644D01*
X177536Y62818D01*
X177710Y63079D01*
X177771Y63386D01*
X177710Y63693D01*
X177536Y63954D01*
X177276Y64127D01*
X176969Y64189D01*
X176661Y64127D01*
X176401Y63954D01*
X176227Y63693D01*
X176204Y63581D01*
X175704Y63630D01*
Y83957D01*
Y85627D01*
X175704Y85627D01*
X175643Y85934D01*
X175469Y86195D01*
X175469Y86195D01*
X167100Y94564D01*
X166840Y94738D01*
X166533Y94799D01*
X133696D01*
X130527Y97967D01*
Y104429D01*
X130466Y104736D01*
X130292Y104997D01*
X128225Y107064D01*
X127965Y107238D01*
X127657Y107299D01*
D02*
G37*
G36*
X229328Y104599D02*
X229021Y104538D01*
X228760Y104364D01*
X228586Y104104D01*
X228525Y103797D01*
X228586Y103489D01*
X228760Y103229D01*
X229021Y103055D01*
X229328Y102994D01*
X229635Y103055D01*
X229896Y103229D01*
X230070Y103489D01*
X230131Y103797D01*
X230070Y104104D01*
X229896Y104364D01*
X229635Y104538D01*
X229328Y104599D01*
D02*
G37*
G36*
X199409Y104445D02*
X199102Y104383D01*
X198842Y104209D01*
X198668Y103949D01*
X198607Y103642D01*
X198668Y103334D01*
X198842Y103074D01*
X199102Y102900D01*
X199409Y102839D01*
X199717Y102900D01*
X199977Y103074D01*
X200151Y103334D01*
X200212Y103642D01*
X200151Y103949D01*
X199977Y104209D01*
X199717Y104383D01*
X199409Y104445D01*
D02*
G37*
G36*
X118799Y103445D02*
X118492Y103383D01*
X118231Y103209D01*
X118058Y102949D01*
X117996Y102642D01*
X118058Y102334D01*
X118231Y102074D01*
X118492Y101900D01*
X118799Y101839D01*
X119106Y101900D01*
X119367Y102074D01*
X119541Y102334D01*
X119602Y102642D01*
X119541Y102949D01*
X119367Y103209D01*
X119106Y103383D01*
X118799Y103445D01*
D02*
G37*
G36*
X105886Y103366D02*
X105579Y103305D01*
X105318Y103131D01*
X105144Y102870D01*
X105083Y102563D01*
X105144Y102256D01*
X105318Y101995D01*
X105579Y101821D01*
X105886Y101760D01*
X106193Y101821D01*
X106454Y101995D01*
X106628Y102256D01*
X106689Y102563D01*
X106628Y102870D01*
X106454Y103131D01*
X106193Y103305D01*
X105886Y103366D01*
D02*
G37*
G36*
X285630Y102043D02*
X285323Y101982D01*
X285062Y101808D01*
X284888Y101547D01*
X284827Y101240D01*
X284888Y100933D01*
X285062Y100672D01*
X285323Y100498D01*
X285630Y100437D01*
X285937Y100498D01*
X286198Y100672D01*
X286372Y100933D01*
X286433Y101240D01*
X286372Y101547D01*
X286198Y101808D01*
X285937Y101982D01*
X285630Y102043D01*
D02*
G37*
G36*
X166929Y98145D02*
X166622Y98084D01*
X166361Y97910D01*
X166187Y97650D01*
X166126Y97342D01*
X166187Y97035D01*
X166361Y96775D01*
X166622Y96601D01*
X166929Y96540D01*
X167236Y96601D01*
X167497Y96775D01*
X167671Y97035D01*
X167732Y97342D01*
X167671Y97650D01*
X167497Y97910D01*
X167236Y98084D01*
X166929Y98145D01*
D02*
G37*
G36*
X61811Y97043D02*
X61504Y96982D01*
X61243Y96808D01*
X61069Y96547D01*
X61008Y96240D01*
X61069Y95933D01*
X61243Y95673D01*
X61504Y95499D01*
X61811Y95437D01*
X62118Y95499D01*
X62379Y95673D01*
X62553Y95933D01*
X62614Y96240D01*
X62553Y96547D01*
X62379Y96808D01*
X62118Y96982D01*
X61811Y97043D01*
D02*
G37*
G36*
X126093Y91265D02*
X125785Y91204D01*
X125525Y91030D01*
X125351Y90770D01*
X125290Y90463D01*
X125351Y90155D01*
X125525Y89895D01*
X125785Y89721D01*
X126093Y89660D01*
X126400Y89721D01*
X126660Y89895D01*
X126834Y90155D01*
X126895Y90463D01*
X126834Y90770D01*
X126660Y91030D01*
X126400Y91204D01*
X126093Y91265D01*
D02*
G37*
G36*
X120778D02*
X120470Y91204D01*
X120210Y91030D01*
X120036Y90770D01*
X119975Y90463D01*
X120036Y90155D01*
X120210Y89895D01*
X120470Y89721D01*
X120778Y89660D01*
X121085Y89721D01*
X121345Y89895D01*
X121519Y90155D01*
X121580Y90463D01*
X121519Y90770D01*
X121345Y91030D01*
X121085Y91204D01*
X120778Y91265D01*
D02*
G37*
G36*
X104921Y91157D02*
X104614Y91096D01*
X104354Y90922D01*
X104180Y90662D01*
X104118Y90354D01*
X104180Y90047D01*
X104354Y89787D01*
X104614Y89613D01*
X104921Y89552D01*
X105228Y89613D01*
X105489Y89787D01*
X105663Y90047D01*
X105724Y90354D01*
X105663Y90662D01*
X105489Y90922D01*
X105228Y91096D01*
X104921Y91157D01*
D02*
G37*
G36*
X312500Y83480D02*
X312193Y83419D01*
X311932Y83245D01*
X311758Y82984D01*
X311697Y82677D01*
X311758Y82370D01*
X311932Y82109D01*
X312193Y81936D01*
X312500Y81874D01*
X312807Y81936D01*
X313068Y82109D01*
X313242Y82370D01*
X313303Y82677D01*
X313242Y82984D01*
X313068Y83245D01*
X312807Y83419D01*
X312500Y83480D01*
D02*
G37*
G36*
X214252Y81315D02*
X213945Y81253D01*
X213684Y81080D01*
X213510Y80819D01*
X213449Y80512D01*
X213510Y80205D01*
X213684Y79944D01*
X213945Y79770D01*
X214252Y79709D01*
X214559Y79770D01*
X214820Y79944D01*
X214994Y80205D01*
X215055Y80512D01*
X214994Y80819D01*
X214820Y81080D01*
X214559Y81253D01*
X214252Y81315D01*
D02*
G37*
G36*
X308661Y80484D02*
X308354Y80423D01*
X308094Y80249D01*
X307920Y79988D01*
X307859Y79681D01*
X307920Y79374D01*
X308094Y79113D01*
X308354Y78939D01*
X308661Y78878D01*
X308969Y78939D01*
X309229Y79113D01*
X309403Y79374D01*
X309464Y79681D01*
X309403Y79988D01*
X309229Y80249D01*
X308969Y80423D01*
X308661Y80484D01*
D02*
G37*
G36*
X66142Y75704D02*
X65834Y75643D01*
X65574Y75469D01*
X65400Y75209D01*
X65339Y74902D01*
X65400Y74594D01*
X65574Y74334D01*
X65834Y74160D01*
X66142Y74099D01*
X66449Y74160D01*
X66709Y74334D01*
X66883Y74594D01*
X66945Y74902D01*
X66883Y75209D01*
X66709Y75469D01*
X66449Y75643D01*
X66142Y75704D01*
D02*
G37*
G36*
Y72043D02*
X65834Y71982D01*
X65574Y71808D01*
X65400Y71547D01*
X65339Y71240D01*
X65400Y70933D01*
X65574Y70673D01*
X65834Y70499D01*
X66142Y70437D01*
X66449Y70499D01*
X66709Y70673D01*
X66883Y70933D01*
X66945Y71240D01*
X66883Y71547D01*
X66709Y71808D01*
X66449Y71982D01*
X66142Y72043D01*
D02*
G37*
G36*
X251476Y163901D02*
X251476Y163901D01*
X27067D01*
X26606Y163809D01*
X26215Y163548D01*
X26215Y163548D01*
X16865Y154198D01*
X16604Y153807D01*
X16512Y153347D01*
X16512Y153346D01*
Y146918D01*
X16419Y146778D01*
X16312Y146240D01*
X16419Y145703D01*
X16723Y145247D01*
X17179Y144942D01*
X17556Y144867D01*
X17747Y144428D01*
X17752Y144357D01*
X16940Y143545D01*
X16679Y143154D01*
X16588Y142693D01*
X16588Y142693D01*
Y142031D01*
X16419Y141778D01*
X16312Y141240D01*
X16419Y140702D01*
X16723Y140247D01*
X17179Y139942D01*
X17717Y139835D01*
X18254Y139942D01*
X18710Y140247D01*
X19015Y140702D01*
X19121Y141240D01*
X19015Y141778D01*
X18996Y141805D01*
Y142195D01*
X21127Y144326D01*
X21388Y144716D01*
X21480Y145177D01*
X21480Y145177D01*
Y152623D01*
X28381Y159524D01*
X250162D01*
X255489Y154198D01*
Y146063D01*
X255489Y146063D01*
X255580Y145602D01*
X255841Y145212D01*
X260664Y140389D01*
X260664Y140389D01*
X261055Y140128D01*
X261516Y140036D01*
X261516Y140036D01*
X264283D01*
X264423Y139942D01*
X264961Y139835D01*
X265498Y139942D01*
X265639Y140036D01*
X271844D01*
X274485Y137395D01*
Y73130D01*
X274485Y73130D01*
X274576Y72669D01*
X274837Y72278D01*
X277998Y69118D01*
X277928Y68806D01*
X277807Y68618D01*
X217754D01*
X208796Y77576D01*
X208536Y77750D01*
X208228Y77811D01*
X205255D01*
X205127Y78001D01*
X204672Y78306D01*
X204134Y78413D01*
X203596Y78306D01*
X203140Y78001D01*
X202836Y77545D01*
X202729Y77008D01*
X202836Y76470D01*
X203140Y76014D01*
X203596Y75710D01*
X204134Y75603D01*
X204672Y75710D01*
X205127Y76014D01*
X205255Y76205D01*
X207896D01*
X216854Y67247D01*
X217114Y67073D01*
X217421Y67012D01*
X308723D01*
X311599Y64136D01*
Y25985D01*
X302460Y16846D01*
X299644D01*
X297320Y19170D01*
X297059Y19344D01*
X296752Y19405D01*
X294587D01*
X294279Y19344D01*
X294019Y19170D01*
X294019Y19170D01*
X292346Y17497D01*
X292172Y17236D01*
X292111Y16929D01*
Y13602D01*
X292172Y13295D01*
X292346Y13035D01*
X293915Y11465D01*
X293871Y11240D01*
X293978Y10702D01*
X294071Y10563D01*
X293804Y10063D01*
X273334D01*
X271304Y12092D01*
X270914Y12353D01*
X270453Y12444D01*
X270453Y12444D01*
X267607D01*
X267467Y12538D01*
X266929Y12645D01*
X266391Y12538D01*
X266251Y12444D01*
X262396D01*
X262245Y12944D01*
X262367Y13026D01*
X264377Y15036D01*
X266251D01*
X266391Y14942D01*
X266929Y14835D01*
X267467Y14942D01*
X267923Y15247D01*
X268227Y15702D01*
X268334Y16240D01*
X268227Y16778D01*
X267923Y17234D01*
X267467Y17538D01*
X266929Y17645D01*
X266391Y17538D01*
X266251Y17444D01*
X263878D01*
X263878Y17444D01*
X263417Y17353D01*
X263026Y17092D01*
X261017Y15082D01*
X249065D01*
X248873Y15544D01*
X263533Y30204D01*
X264625D01*
X264945Y29884D01*
Y24803D01*
X265006Y24496D01*
X265180Y24236D01*
X266356Y23059D01*
X266312Y22835D01*
X266419Y22297D01*
X266723Y21841D01*
X267179Y21537D01*
X267717Y21430D01*
X268254Y21537D01*
X268710Y21841D01*
X269015Y22297D01*
X269122Y22835D01*
X269015Y23372D01*
X268710Y23828D01*
X268254Y24133D01*
X268144Y24155D01*
Y24664D01*
X268254Y24686D01*
X268710Y24991D01*
X268837Y25181D01*
X269685D01*
X269992Y25242D01*
X270253Y25417D01*
X272123Y27287D01*
X272123Y27287D01*
X272297Y27547D01*
X272358Y27854D01*
Y33560D01*
X272358Y33560D01*
X272297Y33867D01*
X272123Y34128D01*
X272123Y34128D01*
X270348Y35902D01*
X270088Y36076D01*
X269781Y36138D01*
X262506D01*
X262506Y36138D01*
X262199Y36076D01*
X261938Y35902D01*
X261938Y35902D01*
X257072Y31036D01*
X256610Y31227D01*
Y42008D01*
X257001Y42352D01*
X257283Y42296D01*
X257821Y42403D01*
X258277Y42707D01*
X258581Y43163D01*
X258688Y43701D01*
X258581Y44238D01*
X258277Y44694D01*
X257821Y44999D01*
X257283Y45106D01*
X256746Y44999D01*
X256550Y44868D01*
X256231Y45257D01*
X261590Y50615D01*
X270139D01*
X270266Y50424D01*
X270722Y50119D01*
X271260Y50012D01*
X271797Y50119D01*
X272253Y50424D01*
X272558Y50880D01*
X272665Y51417D01*
X272558Y51955D01*
X272253Y52411D01*
X271797Y52715D01*
X271260Y52822D01*
X270722Y52715D01*
X270266Y52411D01*
X270139Y52220D01*
X268576D01*
X268384Y52682D01*
X269710Y54007D01*
X270266Y54026D01*
X270722Y53722D01*
X271260Y53615D01*
X271797Y53722D01*
X272253Y54026D01*
X272558Y54482D01*
X272665Y55020D01*
X272558Y55557D01*
X272253Y56013D01*
X271797Y56318D01*
X271578Y56362D01*
X271560Y56373D01*
X271336Y56911D01*
X271389Y56987D01*
X271797Y57068D01*
X272253Y57373D01*
X272558Y57828D01*
X272665Y58366D01*
X272558Y58904D01*
X272253Y59360D01*
X271797Y59664D01*
X271260Y59771D01*
X270722Y59664D01*
X270266Y59360D01*
X269962Y58904D01*
X269855Y58366D01*
X269900Y58141D01*
X266400Y54641D01*
X260338D01*
X260338Y54641D01*
X260030Y54580D01*
X259770Y54406D01*
X259770Y54406D01*
X251696Y46332D01*
X251522Y46072D01*
X251461Y45765D01*
Y32106D01*
X233838Y14484D01*
X229921D01*
X229921Y14484D01*
X229614Y14423D01*
X229354Y14249D01*
X222305Y7201D01*
X183389D01*
X183036Y7571D01*
X183080Y8062D01*
X183385Y8517D01*
X183492Y9055D01*
X183385Y9593D01*
X183080Y10049D01*
X182624Y10353D01*
X182087Y10460D01*
X181549Y10353D01*
X181093Y10049D01*
X180789Y9593D01*
X180682Y9055D01*
X180789Y8517D01*
X181093Y8062D01*
X181284Y7934D01*
Y7283D01*
X181345Y6976D01*
X181519Y6716D01*
X181753Y6481D01*
X181562Y6019D01*
X153305D01*
X146669Y12655D01*
Y27657D01*
X146608Y27965D01*
X146434Y28225D01*
X146434Y28225D01*
X136236Y38423D01*
Y44450D01*
X136426Y44577D01*
X136731Y45033D01*
X136838Y45571D01*
X136731Y46108D01*
X136426Y46564D01*
X135971Y46869D01*
X135433Y46976D01*
X134895Y46869D01*
X134440Y46564D01*
X134135Y46108D01*
X134028Y45571D01*
X134135Y45033D01*
X134274Y44825D01*
X134094Y44548D01*
X133943Y44420D01*
X133465Y44515D01*
X132986Y44420D01*
X132835Y44548D01*
X132655Y44825D01*
X132794Y45033D01*
X132901Y45571D01*
X132794Y46108D01*
X132490Y46564D01*
X132183Y46769D01*
X132166Y46822D01*
Y47273D01*
X132183Y47325D01*
X132490Y47530D01*
X132794Y47986D01*
X132889Y48461D01*
X133329Y48902D01*
X146616D01*
X147263Y48255D01*
Y46324D01*
X147324Y46016D01*
X147499Y45756D01*
X149394Y43861D01*
Y43345D01*
X149203Y43218D01*
X148899Y42762D01*
X148792Y42224D01*
X148899Y41687D01*
X149203Y41231D01*
X149659Y40926D01*
X150197Y40819D01*
X150734Y40926D01*
X151190Y41231D01*
X151495Y41687D01*
X151602Y42224D01*
X151495Y42762D01*
X151190Y43218D01*
X151000Y43345D01*
Y44193D01*
X151000Y44193D01*
X150939Y44500D01*
X150765Y44761D01*
X148869Y46656D01*
Y48576D01*
X148875Y48582D01*
X148905Y48606D01*
X149332Y48822D01*
X149659Y48604D01*
X149798Y48576D01*
X149864Y48223D01*
X149848Y48056D01*
X149629Y47910D01*
X149455Y47650D01*
X149394Y47343D01*
X149455Y47035D01*
X149629Y46775D01*
X149890Y46601D01*
X150197Y46540D01*
X150504Y46601D01*
X150765Y46775D01*
X150939Y47035D01*
X151000Y47343D01*
X150939Y47650D01*
X150765Y47910D01*
X150546Y48056D01*
X150530Y48223D01*
X150595Y48576D01*
X150734Y48604D01*
X151190Y48908D01*
X151495Y49364D01*
X151602Y49902D01*
X151495Y50439D01*
X151278Y50764D01*
X151444Y51198D01*
X151499Y51264D01*
X164272D01*
X164579Y51325D01*
X164839Y51499D01*
X164998Y51658D01*
X166074D01*
X166154Y51546D01*
X166261Y51164D01*
X166209Y51104D01*
X165180Y50076D01*
X165006Y49815D01*
X164945Y49508D01*
Y48595D01*
X164558Y48336D01*
X164253Y47880D01*
X164146Y47343D01*
X164253Y46805D01*
X164558Y46349D01*
X165014Y46044D01*
X165551Y45938D01*
X166089Y46044D01*
X166545Y46349D01*
X166849Y46805D01*
X166956Y47343D01*
X166849Y47880D01*
X166551Y48327D01*
Y49175D01*
X167262Y49886D01*
X168504D01*
X168811Y49947D01*
X169072Y50121D01*
X171926Y52976D01*
X171926Y52976D01*
X172100Y53236D01*
X172161Y53543D01*
Y59646D01*
X172161Y59646D01*
X172100Y59953D01*
X171926Y60213D01*
X171926Y60213D01*
X171040Y61099D01*
X170780Y61273D01*
X170472Y61334D01*
X167815D01*
X167815Y61334D01*
X167508Y61273D01*
X167247Y61099D01*
X167247Y61099D01*
X166755Y60607D01*
X166749Y60598D01*
X161383Y55232D01*
X100689D01*
X100382Y55171D01*
X100121Y54997D01*
X100121Y54997D01*
X99634Y54510D01*
X99409Y54555D01*
X98872Y54448D01*
X98416Y54143D01*
X98111Y53687D01*
X98005Y53150D01*
X98111Y52612D01*
X98416Y52156D01*
X98872Y51852D01*
X99409Y51745D01*
X99553Y51773D01*
X99978Y51348D01*
X99949Y51201D01*
X100056Y50664D01*
X100360Y50208D01*
X100747Y49949D01*
X100887Y49474D01*
X100680Y49232D01*
X100410Y49271D01*
X100185Y49351D01*
X100151Y49520D01*
X99977Y49780D01*
X99717Y49954D01*
X99409Y50015D01*
X99102Y49954D01*
X98842Y49780D01*
X98668Y49520D01*
X98607Y49213D01*
X98668Y48905D01*
X98842Y48645D01*
X99102Y48471D01*
X99409Y48410D01*
X99717Y48471D01*
X99826Y48544D01*
X100290Y48418D01*
X100375Y48355D01*
X100398Y48249D01*
X100381Y48237D01*
X100076Y47782D01*
X99969Y47244D01*
X100076Y46706D01*
X100381Y46251D01*
X100836Y45946D01*
X101374Y45839D01*
X101912Y45946D01*
X102367Y46251D01*
X102672Y46706D01*
X102779Y47244D01*
X102672Y47782D01*
X102367Y48237D01*
X102526Y48733D01*
X105057Y51264D01*
X126936D01*
X127127Y50802D01*
X126991Y50666D01*
X126817Y50406D01*
X126756Y50098D01*
Y49644D01*
X126566Y49517D01*
X126261Y49061D01*
X126154Y48524D01*
X126261Y47986D01*
X126566Y47530D01*
X127021Y47226D01*
X127559Y47119D01*
X128097Y47226D01*
X128552Y47530D01*
X128857Y47986D01*
X128964Y48524D01*
X128857Y49061D01*
X128552Y49517D01*
X128650Y50054D01*
X128679Y50083D01*
X130450D01*
X130601Y49583D01*
X130503Y49517D01*
X130198Y49061D01*
X130091Y48524D01*
X130198Y47986D01*
X130503Y47530D01*
X130810Y47325D01*
X130827Y47273D01*
Y46822D01*
X130810Y46769D01*
X130503Y46564D01*
X130198Y46108D01*
X130091Y45571D01*
X130198Y45033D01*
X130337Y44825D01*
X130157Y44548D01*
X130007Y44420D01*
X129528Y44515D01*
X128990Y44408D01*
X128534Y44104D01*
X128230Y43648D01*
X128123Y43110D01*
X128230Y42573D01*
X128534Y42117D01*
X128725Y41989D01*
Y38985D01*
X128786Y38678D01*
X128960Y38417D01*
X141520Y25857D01*
Y16825D01*
X141261Y16743D01*
X141020Y16742D01*
X140757Y17135D01*
X140301Y17440D01*
X139764Y17547D01*
X139226Y17440D01*
X138770Y17135D01*
X138643Y16945D01*
X137368D01*
X136422Y17890D01*
X136162Y18065D01*
X135855Y18126D01*
X122548D01*
X122548Y18126D01*
X122241Y18065D01*
X121980Y17890D01*
X110405Y6315D01*
X76083D01*
X73637Y8760D01*
Y27029D01*
X73828Y27156D01*
X74133Y27612D01*
X74240Y28150D01*
X74133Y28687D01*
X73828Y29143D01*
X73372Y29448D01*
X72835Y29555D01*
X72297Y29448D01*
X71841Y29143D01*
X71537Y28687D01*
X71430Y28150D01*
X71537Y27612D01*
X71841Y27156D01*
X72032Y27029D01*
Y26528D01*
X71532Y26405D01*
X71434Y26552D01*
X71173Y26726D01*
X70866Y26787D01*
X70559Y26726D01*
X70298Y26552D01*
X70124Y26291D01*
X70063Y25984D01*
X70124Y25677D01*
X70298Y25417D01*
X70559Y25242D01*
X70866Y25181D01*
X71173Y25242D01*
X71434Y25417D01*
X71532Y25563D01*
X72032Y25441D01*
Y18907D01*
X71570Y18716D01*
X68194Y22092D01*
X67803Y22353D01*
X67343Y22444D01*
X67343Y22444D01*
X63670D01*
X63530Y22538D01*
X62992Y22645D01*
X62454Y22538D01*
X61999Y22234D01*
X61694Y21778D01*
X61587Y21240D01*
X61694Y20703D01*
X61999Y20247D01*
X62454Y19942D01*
X62992Y19835D01*
X63530Y19942D01*
X63670Y20036D01*
X66844D01*
X70056Y16824D01*
Y7776D01*
X70056Y7776D01*
X70147Y7315D01*
X70408Y6924D01*
X73698Y3635D01*
X73506Y3173D01*
X42948D01*
X37001Y9119D01*
X36611Y9380D01*
X36150Y9472D01*
X36150Y9472D01*
X23727D01*
X21107Y12092D01*
X20717Y12353D01*
X20256Y12444D01*
X20256Y12444D01*
X18395D01*
X18254Y12538D01*
X17717Y12645D01*
X17179Y12538D01*
X17039Y12444D01*
X15932D01*
X15378Y12999D01*
Y20733D01*
X17948Y23304D01*
X19448D01*
X19639Y22842D01*
X17149Y20351D01*
X16975Y20091D01*
X16914Y19783D01*
Y17361D01*
X16723Y17234D01*
X16419Y16778D01*
X16312Y16240D01*
X16419Y15702D01*
X16723Y15247D01*
X17179Y14942D01*
X17717Y14835D01*
X18254Y14942D01*
X18710Y15247D01*
X19015Y15702D01*
X19121Y16240D01*
X19015Y16778D01*
X18710Y17234D01*
X18519Y17361D01*
Y19451D01*
X21199Y22130D01*
X37168D01*
X37475Y22191D01*
X37736Y22365D01*
X43875Y28504D01*
X44049Y28765D01*
X44110Y29072D01*
X44110Y29072D01*
Y141113D01*
X46630Y143633D01*
X151424D01*
X151732Y143694D01*
X151992Y143869D01*
X156908Y148785D01*
X156908Y148785D01*
X157082Y149045D01*
X157143Y149352D01*
X157143Y149352D01*
Y152954D01*
X157334Y153081D01*
X157639Y153537D01*
X157746Y154075D01*
X157639Y154613D01*
X157334Y155068D01*
X156878Y155373D01*
X156341Y155480D01*
X155803Y155373D01*
X155347Y155068D01*
X155043Y154613D01*
X154936Y154075D01*
X155043Y153537D01*
X155347Y153081D01*
X155538Y152954D01*
Y149685D01*
X151092Y145239D01*
X62613D01*
X62332Y145686D01*
X62329Y145739D01*
X62429Y146240D01*
X62322Y146778D01*
X62017Y147234D01*
X61561Y147538D01*
X61024Y147645D01*
X60486Y147538D01*
X60346Y147444D01*
X56986D01*
X56794Y147906D01*
X58924Y150036D01*
X60346D01*
X60486Y149942D01*
X61024Y149835D01*
X61561Y149942D01*
X62017Y150247D01*
X62322Y150703D01*
X62429Y151240D01*
X62322Y151778D01*
X62017Y152234D01*
X61561Y152538D01*
X61024Y152645D01*
X60486Y152538D01*
X60346Y152444D01*
X58425D01*
X58425Y152444D01*
X57964Y152353D01*
X57574Y152092D01*
X57574Y152092D01*
X54915Y149433D01*
X45079D01*
X45079Y149433D01*
X44618Y149341D01*
X44227Y149080D01*
X38519Y143371D01*
X38258Y142981D01*
X38166Y142520D01*
X38166Y142520D01*
Y109979D01*
X37974Y109691D01*
X37867Y109153D01*
X37974Y108616D01*
X38117Y108402D01*
Y31170D01*
X37974Y30957D01*
X37941Y30791D01*
X34830Y27681D01*
X16634D01*
X16634Y27681D01*
X16173Y27589D01*
X15782Y27328D01*
X15782Y27328D01*
X11255Y22800D01*
X10994Y22410D01*
X10902Y21949D01*
X10902Y21949D01*
Y9449D01*
X10902Y9449D01*
X10994Y8988D01*
X11255Y8597D01*
X14463Y5389D01*
X14464Y5389D01*
X14854Y5128D01*
X15315Y5036D01*
X17039D01*
X17179Y4942D01*
X17717Y4835D01*
X18254Y4942D01*
X18395Y5036D01*
X34895D01*
X40782Y-852D01*
X40782Y-852D01*
X41173Y-1113D01*
X41634Y-1204D01*
X113020D01*
X113020Y-1204D01*
X113481Y-1113D01*
X113872Y-852D01*
X124838Y10115D01*
X133565D01*
X148468Y-4789D01*
X148859Y-5050D01*
X149320Y-5141D01*
X237008D01*
X237008Y-5141D01*
X237469Y-5050D01*
X237859Y-4789D01*
X248333Y5686D01*
X265715D01*
X265855Y5592D01*
X266392Y5485D01*
X266930Y5592D01*
X267070Y5686D01*
X304218D01*
X304218Y5686D01*
X304679Y5777D01*
X305069Y6038D01*
X320733Y21702D01*
X320733Y21702D01*
X320994Y22093D01*
X321086Y22554D01*
X321086Y22554D01*
Y133563D01*
X321086Y133563D01*
X320994Y134024D01*
X320733Y134415D01*
X320733Y134415D01*
X306068Y149080D01*
X305677Y149341D01*
X305217Y149433D01*
X305217Y149433D01*
X290263D01*
X287603Y152092D01*
X287213Y152353D01*
X286752Y152444D01*
X286752Y152444D01*
X284930D01*
X284790Y152538D01*
X284252Y152645D01*
X283714Y152538D01*
X283259Y152234D01*
X282954Y151778D01*
X282847Y151240D01*
X282954Y150703D01*
X283259Y150247D01*
X283714Y149942D01*
X284252Y149835D01*
X284790Y149942D01*
X284930Y150036D01*
X286253D01*
X288383Y147906D01*
X288191Y147444D01*
X284930D01*
X284790Y147538D01*
X284252Y147645D01*
X283714Y147538D01*
X283259Y147234D01*
X282954Y146778D01*
X282847Y146240D01*
X282954Y145703D01*
X283259Y145247D01*
X283714Y144942D01*
X284252Y144835D01*
X284790Y144942D01*
X284930Y145036D01*
X303922D01*
X316709Y132249D01*
Y79359D01*
X316389Y78991D01*
X316389Y78991D01*
Y78991D01*
X316209Y78974D01*
X316206Y78988D01*
X316195Y79047D01*
X316020Y79308D01*
X315760Y79482D01*
X315453Y79543D01*
X315145Y79482D01*
X314885Y79308D01*
X314711Y79047D01*
X314650Y78740D01*
X314711Y78433D01*
X314885Y78172D01*
X315145Y77998D01*
X315453Y77937D01*
X315760Y77998D01*
X316020Y78172D01*
X316195Y78433D01*
X316206Y78492D01*
X316209Y78507D01*
X316389Y78489D01*
Y78489D01*
X316389Y78489D01*
X316709Y78122D01*
Y67565D01*
X316247Y67374D01*
X310624Y72997D01*
X310233Y73258D01*
X309772Y73350D01*
X309772Y73350D01*
X279956D01*
X278862Y74444D01*
Y138709D01*
X278770Y139170D01*
X278509Y139561D01*
X278509Y139561D01*
X273911Y144159D01*
X273911Y144159D01*
X270978Y147092D01*
X270587Y147353D01*
X270126Y147444D01*
X270126Y147444D01*
X265639D01*
X265498Y147538D01*
X264961Y147645D01*
X264423Y147538D01*
X264283Y147444D01*
X260263D01*
X259866Y147841D01*
Y155512D01*
X259866Y155512D01*
X259774Y155973D01*
X259513Y156363D01*
X259513Y156363D01*
X252328Y163548D01*
X251937Y163809D01*
X251476Y163901D01*
D02*
G37*
G36*
X98425Y69700D02*
X98118Y69639D01*
X97857Y69465D01*
X97684Y69205D01*
X97622Y68898D01*
X97684Y68590D01*
X97857Y68330D01*
X98118Y68156D01*
X98425Y68095D01*
X98732Y68156D01*
X98993Y68330D01*
X99167Y68590D01*
X99228Y68898D01*
X99167Y69205D01*
X98993Y69465D01*
X98732Y69639D01*
X98425Y69700D01*
D02*
G37*
G36*
X114547Y103968D02*
X114010Y103861D01*
X113554Y103556D01*
X113249Y103101D01*
X113142Y102563D01*
X113249Y102025D01*
X113343Y101885D01*
Y73609D01*
X107281Y67547D01*
X104656D01*
X104504Y67648D01*
X104043Y67740D01*
X104043Y67740D01*
X101072D01*
X100931Y67833D01*
X100394Y67940D01*
X99856Y67833D01*
X99400Y67529D01*
X99096Y67073D01*
X98989Y66535D01*
X99096Y65998D01*
X99400Y65542D01*
X99856Y65237D01*
X100394Y65131D01*
X100931Y65237D01*
X101072Y65331D01*
X103624D01*
X103776Y65230D01*
X104236Y65138D01*
X104236Y65138D01*
X107780D01*
X107780Y65138D01*
X108240Y65230D01*
X108631Y65491D01*
X115399Y72259D01*
X115399Y72259D01*
X115660Y72649D01*
X115752Y73110D01*
X115752Y73110D01*
Y101885D01*
X115845Y102025D01*
X115952Y102563D01*
X115845Y103101D01*
X115541Y103556D01*
X115085Y103861D01*
X114547Y103968D01*
D02*
G37*
G36*
X66142Y67043D02*
X65834Y66982D01*
X65574Y66808D01*
X65400Y66547D01*
X65339Y66240D01*
X65400Y65933D01*
X65574Y65672D01*
X65834Y65499D01*
X66142Y65437D01*
X66449Y65499D01*
X66709Y65672D01*
X66883Y65933D01*
X66945Y66240D01*
X66883Y66547D01*
X66709Y66808D01*
X66449Y66982D01*
X66142Y67043D01*
D02*
G37*
G36*
X163386Y66689D02*
X163079Y66628D01*
X162818Y66453D01*
X162644Y66193D01*
X162583Y65886D01*
X162644Y65579D01*
X162818Y65318D01*
X163079Y65144D01*
X163386Y65083D01*
X163693Y65144D01*
X163953Y65318D01*
X164128Y65579D01*
X164189Y65886D01*
X164128Y66193D01*
X163953Y66453D01*
X163693Y66628D01*
X163386Y66689D01*
D02*
G37*
G36*
X179134Y111543D02*
X178596Y111436D01*
X178140Y111131D01*
X177836Y110675D01*
X177729Y110138D01*
X177836Y109600D01*
X178140Y109144D01*
X178331Y109017D01*
Y67007D01*
X178140Y66879D01*
X177836Y66423D01*
X177729Y65886D01*
X177836Y65348D01*
X178140Y64892D01*
X178596Y64588D01*
X179134Y64481D01*
X179672Y64588D01*
X180127Y64892D01*
X180432Y65348D01*
X180539Y65886D01*
X180432Y66423D01*
X180127Y66879D01*
X179937Y67007D01*
Y109017D01*
X180127Y109144D01*
X180432Y109600D01*
X180539Y110138D01*
X180432Y110675D01*
X180127Y111131D01*
X179672Y111436D01*
X179134Y111543D01*
D02*
G37*
G36*
X283465Y64720D02*
X283157Y64659D01*
X282897Y64485D01*
X282723Y64224D01*
X282662Y63917D01*
X282723Y63610D01*
X282897Y63350D01*
X283157Y63176D01*
X283465Y63115D01*
X283772Y63176D01*
X284032Y63350D01*
X284206Y63610D01*
X284267Y63917D01*
X284206Y64224D01*
X284032Y64485D01*
X283772Y64659D01*
X283465Y64720D01*
D02*
G37*
G36*
X66142Y62043D02*
X65834Y61982D01*
X65574Y61808D01*
X65400Y61547D01*
X65339Y61240D01*
X65400Y60933D01*
X65574Y60672D01*
X65834Y60498D01*
X66142Y60437D01*
X66449Y60498D01*
X66709Y60672D01*
X66883Y60933D01*
X66945Y61240D01*
X66883Y61547D01*
X66709Y61808D01*
X66449Y61982D01*
X66142Y62043D01*
D02*
G37*
G36*
X146555Y60941D02*
X146248Y60879D01*
X145987Y60706D01*
X145813Y60445D01*
X145752Y60138D01*
X145813Y59831D01*
X145987Y59570D01*
X146248Y59396D01*
X146555Y59335D01*
X146862Y59396D01*
X147123Y59570D01*
X147297Y59831D01*
X147358Y60138D01*
X147297Y60445D01*
X147123Y60706D01*
X146862Y60879D01*
X146555Y60941D01*
D02*
G37*
G36*
X66142Y57043D02*
X65834Y56982D01*
X65574Y56808D01*
X65400Y56547D01*
X65339Y56240D01*
X65400Y55933D01*
X65574Y55673D01*
X65834Y55498D01*
X66142Y55437D01*
X66449Y55498D01*
X66709Y55673D01*
X66883Y55933D01*
X66945Y56240D01*
X66883Y56547D01*
X66709Y56808D01*
X66449Y56982D01*
X66142Y57043D01*
D02*
G37*
G36*
X127559Y46374D02*
X127252Y46313D01*
X126991Y46139D01*
X126817Y45878D01*
X126756Y45571D01*
X126817Y45264D01*
X126991Y45003D01*
X127252Y44829D01*
X127559Y44768D01*
X127866Y44829D01*
X128127Y45003D01*
X128301Y45264D01*
X128362Y45571D01*
X128301Y45878D01*
X128127Y46139D01*
X127866Y46313D01*
X127559Y46374D01*
D02*
G37*
G36*
X123622D02*
X123315Y46313D01*
X123054Y46139D01*
X122880Y45878D01*
X122819Y45571D01*
X122880Y45264D01*
X123054Y45003D01*
X123315Y44829D01*
X123622Y44768D01*
X123929Y44829D01*
X124190Y45003D01*
X124364Y45264D01*
X124425Y45571D01*
X124364Y45878D01*
X124190Y46139D01*
X123929Y46313D01*
X123622Y46374D01*
D02*
G37*
G36*
X99409Y46028D02*
X99102Y45967D01*
X98842Y45793D01*
X98668Y45532D01*
X98607Y45225D01*
X98668Y44918D01*
X98842Y44657D01*
X99102Y44483D01*
X99409Y44422D01*
X99717Y44483D01*
X99977Y44657D01*
X100151Y44918D01*
X100212Y45225D01*
X100151Y45532D01*
X99977Y45793D01*
X99717Y45967D01*
X99409Y46028D01*
D02*
G37*
G36*
X101279Y44110D02*
X100972Y44049D01*
X100712Y43875D01*
X100538Y43614D01*
X100477Y43307D01*
X100538Y43000D01*
X100712Y42739D01*
X100972Y42565D01*
X101279Y42504D01*
X101587Y42565D01*
X101847Y42739D01*
X102021Y43000D01*
X102082Y43307D01*
X102021Y43614D01*
X101847Y43875D01*
X101587Y44049D01*
X101279Y44110D01*
D02*
G37*
G36*
X125591Y43913D02*
X125283Y43852D01*
X125023Y43678D01*
X124849Y43418D01*
X124788Y43110D01*
X124849Y42803D01*
X125023Y42542D01*
X125283Y42369D01*
X125591Y42307D01*
X125898Y42369D01*
X126158Y42542D01*
X126332Y42803D01*
X126393Y43110D01*
X126332Y43418D01*
X126158Y43678D01*
X125898Y43852D01*
X125591Y43913D01*
D02*
G37*
G36*
X99409Y42141D02*
X99102Y42080D01*
X98842Y41906D01*
X98668Y41646D01*
X98607Y41339D01*
X98668Y41031D01*
X98842Y40771D01*
X99102Y40597D01*
X99409Y40536D01*
X99717Y40597D01*
X99977Y40771D01*
X100151Y41031D01*
X100212Y41339D01*
X100151Y41646D01*
X99977Y41906D01*
X99717Y42080D01*
X99409Y42141D01*
D02*
G37*
G36*
X163579Y41649D02*
X163271Y41588D01*
X163011Y41414D01*
X162837Y41154D01*
X162776Y40846D01*
X162837Y40539D01*
X163011Y40279D01*
X163271Y40105D01*
X163579Y40044D01*
X163886Y40105D01*
X164146Y40279D01*
X164321Y40539D01*
X164382Y40846D01*
X164321Y41154D01*
X164146Y41414D01*
X163886Y41588D01*
X163579Y41649D01*
D02*
G37*
G36*
X143311Y40173D02*
X143004Y40112D01*
X142743Y39938D01*
X142569Y39677D01*
X142508Y39370D01*
X142569Y39063D01*
X142743Y38802D01*
X143004Y38628D01*
X143311Y38567D01*
X143618Y38628D01*
X143879Y38802D01*
X144053Y39063D01*
X144114Y39370D01*
X144053Y39677D01*
X143879Y39938D01*
X143618Y40112D01*
X143311Y40173D01*
D02*
G37*
G36*
X101374D02*
X101067Y40112D01*
X100806Y39938D01*
X100632Y39677D01*
X100571Y39370D01*
X100632Y39063D01*
X100806Y38802D01*
X101067Y38628D01*
X101374Y38567D01*
X101681Y38628D01*
X101942Y38802D01*
X102116Y39063D01*
X102177Y39370D01*
X102116Y39677D01*
X101942Y39938D01*
X101681Y40112D01*
X101374Y40173D01*
D02*
G37*
G36*
X225590Y39976D02*
X225283Y39915D01*
X225023Y39741D01*
X224849Y39481D01*
X224788Y39173D01*
X224849Y38866D01*
X225023Y38605D01*
X225283Y38432D01*
X225590Y38370D01*
X225898Y38432D01*
X226158Y38605D01*
X226332Y38866D01*
X226393Y39173D01*
X226332Y39481D01*
X226158Y39741D01*
X225898Y39915D01*
X225590Y39976D01*
D02*
G37*
G36*
X167421Y39189D02*
X167114Y39128D01*
X166854Y38954D01*
X166680Y38693D01*
X166618Y38386D01*
X166680Y38079D01*
X166854Y37818D01*
X167114Y37644D01*
X167421Y37583D01*
X167728Y37644D01*
X167989Y37818D01*
X168163Y38079D01*
X168224Y38386D01*
X168163Y38693D01*
X167989Y38954D01*
X167728Y39128D01*
X167421Y39189D01*
D02*
G37*
G36*
X99410Y38204D02*
X99102Y38143D01*
X98842Y37969D01*
X98668Y37709D01*
X98607Y37402D01*
X98668Y37094D01*
X98842Y36834D01*
X99102Y36660D01*
X99410Y36599D01*
X99717Y36660D01*
X99977Y36834D01*
X100151Y37094D01*
X100212Y37402D01*
X100151Y37709D01*
X99977Y37969D01*
X99717Y38143D01*
X99410Y38204D01*
D02*
G37*
G36*
X88189Y28362D02*
X87882Y28301D01*
X87621Y28127D01*
X87447Y27866D01*
X87386Y27559D01*
X87447Y27252D01*
X87621Y26991D01*
X87882Y26817D01*
X88189Y26756D01*
X88496Y26817D01*
X88757Y26991D01*
X88931Y27252D01*
X88992Y27559D01*
X88931Y27866D01*
X88757Y28127D01*
X88496Y28301D01*
X88189Y28362D01*
D02*
G37*
G36*
X48031Y17043D02*
X47724Y16982D01*
X47464Y16808D01*
X47290Y16547D01*
X47229Y16240D01*
X47290Y15933D01*
X47464Y15673D01*
X47724Y15498D01*
X48031Y15437D01*
X48339Y15498D01*
X48599Y15673D01*
X48773Y15933D01*
X48834Y16240D01*
X48773Y16547D01*
X48599Y16808D01*
X48339Y16982D01*
X48031Y17043D01*
D02*
G37*
G36*
X51181Y12043D02*
X50874Y11982D01*
X50613Y11808D01*
X50439Y11547D01*
X50378Y11240D01*
X50439Y10933D01*
X50613Y10672D01*
X50874Y10498D01*
X51181Y10437D01*
X51488Y10498D01*
X51749Y10672D01*
X51923Y10933D01*
X51984Y11240D01*
X51923Y11547D01*
X51749Y11808D01*
X51488Y11982D01*
X51181Y12043D01*
D02*
G37*
G36*
X195955Y11826D02*
X195648Y11765D01*
X195387Y11591D01*
X195213Y11331D01*
X195152Y11024D01*
X195213Y10716D01*
X195387Y10456D01*
X195648Y10282D01*
X195955Y10221D01*
X196262Y10282D01*
X196522Y10456D01*
X196696Y10716D01*
X196758Y11024D01*
X196696Y11331D01*
X196522Y11591D01*
X196262Y11765D01*
X195955Y11826D01*
D02*
G37*
G36*
X131890Y6704D02*
X131582Y6643D01*
X131322Y6469D01*
X131148Y6209D01*
X131087Y5902D01*
X131148Y5594D01*
X131322Y5334D01*
X131582Y5160D01*
X131890Y5099D01*
X132197Y5160D01*
X132457Y5334D01*
X132632Y5594D01*
X132693Y5902D01*
X132632Y6209D01*
X132457Y6469D01*
X132197Y6643D01*
X131890Y6704D01*
D02*
G37*
G36*
X292815Y3756D02*
X292508Y3695D01*
X292247Y3520D01*
X292073Y3260D01*
X292012Y2953D01*
X292073Y2646D01*
X292247Y2385D01*
X292508Y2211D01*
X292815Y2150D01*
X293122Y2211D01*
X293383Y2385D01*
X293557Y2646D01*
X293618Y2953D01*
X293557Y3260D01*
X293383Y3520D01*
X293122Y3695D01*
X292815Y3756D01*
D02*
G37*
G36*
X287402Y3362D02*
X287094Y3301D01*
X286834Y3127D01*
X286660Y2866D01*
X286599Y2559D01*
X286660Y2252D01*
X286834Y1991D01*
X287094Y1817D01*
X287402Y1756D01*
X287709Y1817D01*
X287969Y1991D01*
X288143Y2252D01*
X288204Y2559D01*
X288143Y2866D01*
X287969Y3127D01*
X287709Y3301D01*
X287402Y3362D01*
D02*
G37*
%LPD*%
G36*
X271719Y142944D02*
X271512Y142444D01*
X265639D01*
X265498Y142538D01*
X264961Y142645D01*
X264423Y142538D01*
X264283Y142444D01*
X262015D01*
X259923Y144536D01*
X260130Y145036D01*
X264283D01*
X264423Y144942D01*
X264961Y144835D01*
X265498Y144942D01*
X265639Y145036D01*
X269627D01*
X271719Y142944D01*
D02*
G37*
G36*
X271434Y8556D02*
X271243Y8094D01*
X267070D01*
X266930Y8188D01*
X266392Y8295D01*
X265855Y8188D01*
X265715Y8094D01*
X248502D01*
X248295Y8594D01*
X248994Y9294D01*
X249160Y9326D01*
X249616Y9631D01*
X249886Y10036D01*
X266251D01*
X266391Y9942D01*
X266929Y9835D01*
X267467Y9942D01*
X267607Y10036D01*
X269954D01*
X271434Y8556D01*
D02*
G37*
D11*
X296752Y18602D02*
X299311Y16043D01*
X302793D01*
X217421Y67815D02*
X309055D01*
X292913Y13602D02*
Y16929D01*
X151504Y1673D02*
X233867D01*
X233366Y2854D02*
X262700Y32188D01*
X234171Y13681D02*
X252264Y31774D01*
X152972Y5217D02*
X232388D01*
X262506Y35335D01*
X152483Y4035D02*
X232877D01*
X234782Y9281D02*
X255807Y30306D01*
X234847Y11016D02*
X254626Y30795D01*
X231246Y12500D02*
X234660D01*
X262700Y32188D02*
X267621D01*
X263201Y31007D02*
X264958D01*
X232473Y11016D02*
X234847D01*
X151994Y2854D02*
X233366D01*
X255807Y30306D02*
Y42421D01*
X253445Y31285D02*
Y45276D01*
X252264Y31774D02*
Y45765D01*
X262995Y34154D02*
X269291D01*
X233867Y1673D02*
X263201Y31007D01*
X234660Y12500D02*
X253445Y31285D01*
X232877Y4035D02*
X262995Y34154D01*
X233494Y9281D02*
X234782D01*
X229921Y13681D02*
X234171D01*
X254626Y30795D02*
Y44786D01*
X262506Y35335D02*
X269781D01*
X182087Y7283D02*
Y9055D01*
X182972Y6398D02*
X222638D01*
X182087Y7283D02*
X182972Y6398D01*
X143504Y11344D02*
X151994Y2854D01*
X222638Y6398D02*
X229921Y13681D01*
X142323Y10855D02*
X151504Y1673D01*
X144685Y11833D02*
X152483Y4035D01*
X145866Y12322D02*
X152972Y5217D01*
X179334Y16831D02*
X184744Y22241D01*
X179134Y41043D02*
X184744Y35433D01*
Y22241D02*
Y35433D01*
X179134Y41043D02*
Y44528D01*
X204134Y77008D02*
X208228D01*
X131417Y113189D02*
X134862Y109744D01*
X149016D01*
X100787Y113189D02*
X131417D01*
X184156Y122539D02*
X253642D01*
X255906Y124803D02*
Y136240D01*
X253642Y122539D02*
X255906Y124803D01*
X173723Y112106D02*
X184156Y122539D01*
X184528Y121240D02*
X255906D01*
X173524Y110236D02*
X184528Y121240D01*
X152480Y110236D02*
X173524D01*
X149016Y109744D02*
X151378Y112106D01*
X173723D01*
X152382Y110335D02*
X152480Y110236D01*
X186614Y74016D02*
Y76181D01*
X167666Y58709D02*
X169488D01*
X169366Y12575D02*
X174681D01*
X169291Y12500D02*
X169366Y12575D01*
X95571Y36122D02*
X97638Y34055D01*
X103347D01*
X106102Y36811D02*
Y44882D01*
X103347Y34055D02*
X106102Y36811D01*
X94882Y60039D02*
X95571Y59350D01*
Y36122D02*
Y59350D01*
X94390Y56299D02*
Y58563D01*
X92520Y54429D02*
X94390Y56299D01*
X93701Y59252D02*
X94390Y58563D01*
X93701Y59252D02*
Y104432D01*
X101382Y48724D02*
X104724Y52067D01*
X101382Y47252D02*
Y48724D01*
X101374Y47244D02*
X101382Y47252D01*
X99409Y53150D02*
X100689Y54429D01*
X94882Y60039D02*
Y103943D01*
X101766Y110827D01*
X92520Y104921D02*
X100787Y113189D01*
X133268Y108563D02*
X165453D01*
X93701Y104432D02*
X101277Y112008D01*
X129823D02*
X133268Y108563D01*
X92520Y57087D02*
Y104921D01*
X101277Y112008D02*
X129823D01*
X165453Y108563D02*
X166929Y107087D01*
Y105020D02*
Y107087D01*
X101766Y110827D02*
X129232D01*
X132677Y107382D01*
X111713Y106496D02*
X127657D01*
X129724Y104429D01*
Y97635D02*
Y104429D01*
X110217Y105000D02*
X111713Y106496D01*
X132677Y107382D02*
X164173D01*
X165059Y106496D01*
Y104331D02*
X166929Y102461D01*
X165059Y104331D02*
Y106496D01*
X257087Y43701D02*
X257283D01*
X265748Y24803D02*
X267717Y22835D01*
X233268Y9055D02*
X233494Y9281D01*
X227801Y9055D02*
X231246Y12500D01*
X292913Y13602D02*
X295276Y11240D01*
X261257Y51417D02*
X271260D01*
X176575Y11963D02*
X177187Y12575D01*
X150197Y42224D02*
Y44193D01*
X148066Y46324D02*
Y48587D01*
Y46324D02*
X150197Y44193D01*
X146949Y49705D02*
X148066Y48587D01*
X132997Y49705D02*
X146949D01*
X131496Y48524D02*
X131816D01*
X132997Y49705D01*
X127559Y48524D02*
Y50098D01*
X128347Y50886D02*
X149145D01*
X127559Y50098D02*
X128347Y50886D01*
X150129Y49902D02*
X150197D01*
X149145Y50886D02*
X150129Y49902D01*
X166533Y93996D02*
X174902Y85627D01*
Y83957D02*
Y85627D01*
X173721Y54134D02*
Y85138D01*
X132874Y92815D02*
X166043D01*
X173721Y85138D01*
X164862Y93996D02*
X166533D01*
X174902Y54823D02*
Y83957D01*
X133363Y93996D02*
X164862D01*
X176969Y40846D02*
Y50886D01*
X173721Y54134D02*
X176969Y50886D01*
X174902Y54823D02*
X177264Y52461D01*
X180905D01*
X170472Y60532D02*
X171358Y59646D01*
X168504Y50689D02*
X171358Y53543D01*
Y59646D01*
X179134Y65886D02*
Y110138D01*
X129724Y97635D02*
X133363Y93996D01*
X110217Y102563D02*
Y105000D01*
X127539Y98150D02*
X132874Y92815D01*
X127539Y98150D02*
Y102563D01*
X165748Y47539D02*
Y49508D01*
X165551Y47343D02*
X165748Y47539D01*
X198425Y36024D02*
X201083D01*
X202165Y32969D02*
Y34941D01*
X201083Y36024D02*
X202165Y34941D01*
X196299Y33898D02*
X198425Y36024D01*
X193307Y33898D02*
X196299D01*
X207281Y28346D02*
X210725Y31791D01*
X199404Y28346D02*
X207281D01*
X188483Y17426D02*
X199404Y28346D01*
X185039Y15653D02*
X198914Y29528D01*
X175596Y16831D02*
X179334D01*
X177187Y12575D02*
X180291D01*
X197736Y31890D02*
X201086D01*
X180291Y12575D02*
X198425Y30709D01*
X179823Y15650D02*
X198071Y33898D01*
X188483Y14217D02*
Y17426D01*
X176575Y14469D02*
X180315D01*
X176086Y15650D02*
X179823D01*
X198914Y29528D02*
X206791D01*
X180315Y14469D02*
X197736Y31890D01*
X198071Y33898D02*
X200394D01*
X185039Y12575D02*
Y15653D01*
X198425Y30709D02*
X201575D01*
X206791Y29528D02*
X209252Y31988D01*
X201575Y30709D02*
X204764Y33898D01*
X201086Y31890D02*
X202165Y32969D01*
X204764Y33898D02*
X207480D01*
X190647Y39272D02*
X211024D01*
X187300Y42618D02*
X190647Y39272D01*
X187300Y42618D02*
X187300D01*
X211024Y39272D02*
X215059D01*
X184252Y45666D02*
X187300Y42618D01*
X184252Y45666D02*
Y71653D01*
X186614Y74016D01*
X167864Y15551D02*
X174317D01*
X175596Y16831D01*
X160531Y14272D02*
X166585D01*
X161492Y12575D02*
X166709D01*
X161417Y12500D02*
X161492Y12575D01*
X166585Y14272D02*
X167864Y15551D01*
X158661Y9055D02*
Y12402D01*
X160531Y14272D01*
X72835Y8428D02*
Y28150D01*
Y8428D02*
X75751Y5512D01*
X137036Y16142D02*
X139764D01*
X135855Y17323D02*
X137036Y16142D01*
X122548Y17323D02*
X135855D01*
X110737Y5512D02*
X122548Y17323D01*
X131496Y38687D02*
X143504Y26679D01*
X135433Y38091D02*
X145866Y27657D01*
X133465Y38389D02*
X144685Y27168D01*
X129528Y38985D02*
X142323Y26190D01*
X145866Y12322D02*
Y27657D01*
X144685Y11833D02*
Y27168D01*
X143504Y11344D02*
Y26679D01*
X142323Y10855D02*
Y26190D01*
X75751Y5512D02*
X110737D01*
X208228Y77008D02*
X217421Y67815D01*
X309055D02*
X312402Y64468D01*
Y25652D02*
Y64468D01*
X302793Y16043D02*
X312402Y25652D01*
X294587Y18602D02*
X296752D01*
X292913Y16929D02*
X294587Y18602D01*
X43307Y141446D02*
X46298Y144436D01*
X37168Y22933D02*
X43307Y29072D01*
Y141446D01*
X46298Y144436D02*
X151424D01*
X215453Y31791D02*
X217126Y33465D01*
X210725Y31791D02*
X215453D01*
X211161Y33898D02*
X214567D01*
X209252Y31988D02*
X211161Y33898D01*
X209252Y31988D02*
Y31988D01*
X215059Y39272D02*
X217126Y37205D01*
Y33465D02*
Y37205D01*
X101354Y51201D02*
X101394D01*
X156341Y149352D02*
Y154075D01*
X151424Y144436D02*
X156341Y149352D01*
X20866Y22933D02*
X37168D01*
X17717Y16240D02*
Y19783D01*
X20866Y22933D01*
X265748Y24803D02*
Y30217D01*
X264958Y31007D02*
X265748Y30217D01*
X230512Y9055D02*
X232473Y11016D01*
X131496Y38687D02*
Y45571D01*
X267621Y32188D02*
X267717Y32283D01*
Y25984D02*
X269685D01*
X267717Y29134D02*
X269291D01*
X133465Y38389D02*
Y43110D01*
X269291Y29134D02*
X270374Y30217D01*
X269291Y34154D02*
X270374Y33071D01*
Y30217D02*
Y33071D01*
X269685Y25984D02*
X271555Y27854D01*
X269781Y35335D02*
X271555Y33560D01*
Y27854D02*
Y33560D01*
X129528Y38985D02*
Y43110D01*
X135433Y38091D02*
Y45571D01*
X167323Y60039D02*
X167815Y60532D01*
X170472D01*
X161715Y54429D02*
X167323Y60036D01*
Y60039D01*
X103441Y53248D02*
X162205D01*
X167666Y58709D01*
X100689Y54429D02*
X161715D01*
X164272Y52067D02*
X164665Y52461D01*
X167516D01*
X104724Y52067D02*
X164272D01*
X166929Y50689D02*
X168504D01*
X165748Y49508D02*
X166929Y50689D01*
X101394Y51201D02*
X103441Y53248D01*
X168504Y14370D02*
X174806D01*
X176086Y15650D01*
X166709Y12575D02*
X168504Y14370D01*
X174681Y12575D02*
X176575Y14469D01*
X260827Y52658D02*
X267224D01*
X269587Y55020D02*
X271260D01*
X267224Y52658D02*
X269587Y55020D01*
X266732Y53839D02*
X271260Y58366D01*
X260338Y53839D02*
X266732D01*
X271260Y58366D02*
X271260D01*
X252264Y45765D02*
X260338Y53839D01*
X254626Y44786D02*
X261257Y51417D01*
X255807Y42421D02*
X257087Y43701D01*
X253445Y45276D02*
X260827Y52658D01*
D14*
X17792Y142693D02*
X20276Y145177D01*
X27882Y160728D02*
X250661D01*
X17717Y141240D02*
X17792Y141315D01*
X20276Y145177D02*
Y153122D01*
X258661Y147343D02*
X259764Y146240D01*
X17717D02*
Y153347D01*
X27067Y162697D02*
X251476D01*
X259764Y146240D02*
X264961D01*
X17717Y153347D02*
X27067Y162697D01*
X251476D02*
X258661Y155512D01*
X17792Y141315D02*
Y142693D01*
X20276Y153122D02*
X27882Y160728D01*
X258661Y147343D02*
Y155512D01*
X149320Y-3937D02*
X237008D01*
X247835Y6890D02*
X266392D01*
X237008Y-3937D02*
X247835Y6890D01*
X243570Y5573D02*
X248622Y10624D01*
X150951Y0D02*
X234421D01*
X236029Y-1969D02*
X243570Y5573D01*
Y5573D01*
X150135Y-1969D02*
X236029D01*
X234421Y0D02*
X248299Y13878D01*
X261516D01*
X134608Y13559D02*
X150135Y-1969D01*
X134064Y11319D02*
X149320Y-3937D01*
X135202Y15748D02*
X150951Y0D01*
X41437Y94488D02*
Y141803D01*
Y29429D02*
Y94488D01*
X100394Y66535D02*
X104043D01*
X104236Y66343D01*
X107780D01*
X62992Y21240D02*
X67343D01*
X71260Y17323D01*
X263878Y16240D02*
X266929D01*
X261516Y13878D02*
X263878Y16240D01*
X249344Y11240D02*
X266929D01*
X266574Y6890D02*
X304218D01*
X319882Y22554D01*
X270453Y11240D02*
X272835Y8858D01*
X303402D02*
X317913Y23369D01*
X272835Y8858D02*
X303402D01*
X295295Y11220D02*
X302981D01*
X295276Y11240D02*
X295295Y11220D01*
X114547Y73110D02*
Y102563D01*
X107780Y66343D02*
X114547Y73110D01*
X71260Y7776D02*
X75098Y3937D01*
X71260Y7776D02*
Y17323D01*
X278929Y69890D02*
X306398D01*
X295276Y16240D02*
X295351Y16165D01*
Y14984D02*
Y16165D01*
Y14984D02*
X297146Y13189D01*
X309772Y72146D02*
X315945Y65973D01*
X279457Y72146D02*
X309772D01*
X277658Y73945D02*
X279457Y72146D01*
X39272Y109153D02*
X39321Y109104D01*
X41437Y141803D02*
X45874Y146240D01*
X39321Y109104D02*
X39370Y109153D01*
X39321Y30468D02*
Y109104D01*
X250661Y160728D02*
X256693Y154697D01*
Y146063D02*
Y154697D01*
X264961Y146240D02*
X270126D01*
X273059Y143307D01*
X273060D01*
X297146Y13189D02*
X302165D01*
X313976Y25000D01*
X302981Y11220D02*
X315945Y24185D01*
Y65973D01*
X313976Y25000D02*
Y65158D01*
X317913Y23369D02*
Y132748D01*
X304421Y146240D02*
X317913Y132748D01*
X305217Y148228D02*
X319882Y133563D01*
Y22554D02*
Y133563D01*
X309319Y69814D02*
X313976Y65158D01*
X273060Y143307D02*
X277658Y138709D01*
Y73945D02*
Y138709D01*
X275689Y73130D02*
X278929Y69890D01*
X275689Y73130D02*
Y137894D01*
X272342Y141240D02*
X275689Y137894D01*
X306398Y69890D02*
X306473Y69814D01*
X309319D01*
X261516Y141240D02*
X264961D01*
X266929Y11240D02*
X270453D01*
X264961Y141240D02*
X272342D01*
X256693Y146063D02*
X261516Y141240D01*
X45079Y148228D02*
X55413D01*
X39370Y109153D02*
Y142520D01*
X45079Y148228D01*
X55413D02*
X58425Y151240D01*
X61024D01*
X36516Y24508D02*
X41437Y29429D01*
X45874Y146240D02*
X61024D01*
X113020Y0D02*
X124339Y11319D01*
X134064D01*
X123795Y13559D02*
X129921D01*
X123200Y15748D02*
X135202D01*
X119327Y11874D02*
X123200Y15748D01*
X119327Y11874D02*
X119327D01*
X111389Y3937D02*
X119327Y11874D01*
X75098Y3937D02*
X111389D01*
X20256Y11240D02*
X23228Y8268D01*
X36150D01*
X112205Y1969D02*
X123795Y13559D01*
X36150Y8268D02*
X42449Y1969D01*
X35394Y6240D02*
X41634Y0D01*
X42449Y1969D02*
X112205D01*
X41634Y0D02*
X113020D01*
X17717Y6240D02*
X35394D01*
X129921Y13559D02*
X134608D01*
X17717Y11240D02*
X20256D01*
X15433D02*
X17717D01*
X12106Y9449D02*
X15315Y6240D01*
X12106Y21949D02*
X16634Y26476D01*
X12106Y9449D02*
Y21949D01*
X14173Y12500D02*
X15433Y11240D01*
X14173Y12500D02*
Y21232D01*
X17449Y24508D01*
X16634Y26476D02*
X35329D01*
X39272Y30419D01*
X17449Y24508D02*
X36516D01*
X289764Y148228D02*
X305217D01*
X284252Y151240D02*
X286752D01*
X289764Y148228D01*
X284252Y146240D02*
X304421D01*
X15315Y6240D02*
X17717D01*
D62*
X165228Y-7874D02*
D03*
X169165D02*
D03*
X173102D02*
D03*
X177039D02*
D03*
X180976D02*
D03*
X263653D02*
D03*
X267590D02*
D03*
X271528D02*
D03*
X275465D02*
D03*
X279402D02*
D03*
X283339D02*
D03*
X287276D02*
D03*
X291213D02*
D03*
X295150D02*
D03*
X299087D02*
D03*
X303024D02*
D03*
X306961D02*
D03*
X259717D02*
D03*
X255780D02*
D03*
X251842D02*
D03*
X247905D02*
D03*
X243969D02*
D03*
X240032D02*
D03*
X236094D02*
D03*
X232157D02*
D03*
X228221D02*
D03*
X224284D02*
D03*
X220346D02*
D03*
X216409D02*
D03*
X212472D02*
D03*
X208535D02*
D03*
X204598D02*
D03*
X200661D02*
D03*
X196724D02*
D03*
X192787D02*
D03*
X188850D02*
D03*
X184913D02*
D03*
X23496D02*
D03*
X27433D02*
D03*
X31370D02*
D03*
X35307D02*
D03*
X39244D02*
D03*
X121921D02*
D03*
X125858D02*
D03*
X129795D02*
D03*
X133732D02*
D03*
X137669D02*
D03*
X141606D02*
D03*
X145543D02*
D03*
X149480D02*
D03*
X153417D02*
D03*
X157354D02*
D03*
X161291D02*
D03*
X117984D02*
D03*
X114047D02*
D03*
X110110D02*
D03*
X106173D02*
D03*
X102236D02*
D03*
X98299D02*
D03*
X94362D02*
D03*
X90425D02*
D03*
X86488D02*
D03*
X82551D02*
D03*
X78614D02*
D03*
X74677D02*
D03*
X70740D02*
D03*
X66803D02*
D03*
X62866D02*
D03*
X58929D02*
D03*
X54992D02*
D03*
X51055D02*
D03*
X47118D02*
D03*
X43181D02*
D03*
X11685D02*
D03*
X15622D02*
D03*
X19559D02*
D03*
X7748D02*
D03*
X307213Y165354D02*
D03*
X295402D02*
D03*
X299339D02*
D03*
X303276D02*
D03*
X271779D02*
D03*
X267843D02*
D03*
X263906D02*
D03*
X259968D02*
D03*
X256031D02*
D03*
X252095D02*
D03*
X248158D02*
D03*
X244220D02*
D03*
X240283D02*
D03*
X236347D02*
D03*
X232410D02*
D03*
X228472D02*
D03*
X224535D02*
D03*
X220598D02*
D03*
X216661D02*
D03*
X212724D02*
D03*
X208787D02*
D03*
X204850D02*
D03*
X200913D02*
D03*
X196976D02*
D03*
X153669D02*
D03*
X157606D02*
D03*
X161543D02*
D03*
X165480D02*
D03*
X169417D02*
D03*
X173354D02*
D03*
X177291D02*
D03*
X181228D02*
D03*
X185165D02*
D03*
X189102D02*
D03*
X193039D02*
D03*
X275716D02*
D03*
X279654D02*
D03*
X283591D02*
D03*
X287528D02*
D03*
X291465D02*
D03*
X130047D02*
D03*
X126110D02*
D03*
X122173D02*
D03*
X118236D02*
D03*
X114299D02*
D03*
X110362D02*
D03*
X106425D02*
D03*
X102488D02*
D03*
X98551D02*
D03*
X94614D02*
D03*
X90677D02*
D03*
X86740D02*
D03*
X82803D02*
D03*
X78866D02*
D03*
X74929D02*
D03*
X70992D02*
D03*
X67055D02*
D03*
X63118D02*
D03*
X59181D02*
D03*
X55244D02*
D03*
X8000D02*
D03*
X11937D02*
D03*
X15874D02*
D03*
X19811D02*
D03*
X23748D02*
D03*
X27685D02*
D03*
X31622D02*
D03*
X35559D02*
D03*
X39496D02*
D03*
X43433D02*
D03*
X47370D02*
D03*
X51307D02*
D03*
X133984D02*
D03*
X137921D02*
D03*
X141858D02*
D03*
X145795D02*
D03*
X149732D02*
D03*
X322835Y129921D02*
D03*
Y125984D02*
D03*
Y122047D02*
D03*
Y118110D02*
D03*
Y114173D02*
D03*
Y110236D02*
D03*
Y106299D02*
D03*
Y102362D02*
D03*
Y98425D02*
D03*
Y94488D02*
D03*
Y90551D02*
D03*
Y86614D02*
D03*
Y82677D02*
D03*
Y78740D02*
D03*
Y74803D02*
D03*
Y70866D02*
D03*
Y66929D02*
D03*
Y62992D02*
D03*
Y59055D02*
D03*
Y55118D02*
D03*
Y7874D02*
D03*
Y11811D02*
D03*
Y15748D02*
D03*
Y19685D02*
D03*
Y23622D02*
D03*
Y27559D02*
D03*
Y31496D02*
D03*
Y35433D02*
D03*
Y39370D02*
D03*
Y43307D02*
D03*
Y47244D02*
D03*
Y51181D02*
D03*
Y133858D02*
D03*
Y137795D02*
D03*
Y141732D02*
D03*
Y145669D02*
D03*
Y149606D02*
D03*
X-7874Y7874D02*
D03*
Y11811D02*
D03*
Y15748D02*
D03*
Y19685D02*
D03*
Y23622D02*
D03*
Y106299D02*
D03*
Y110236D02*
D03*
Y114173D02*
D03*
Y118110D02*
D03*
Y122047D02*
D03*
Y125984D02*
D03*
Y129921D02*
D03*
Y133858D02*
D03*
Y137795D02*
D03*
Y141732D02*
D03*
Y145669D02*
D03*
Y149606D02*
D03*
Y102362D02*
D03*
Y98425D02*
D03*
Y94488D02*
D03*
Y90551D02*
D03*
Y86614D02*
D03*
Y82677D02*
D03*
Y78740D02*
D03*
Y74803D02*
D03*
Y70866D02*
D03*
Y66929D02*
D03*
Y62992D02*
D03*
Y59055D02*
D03*
Y55118D02*
D03*
Y51181D02*
D03*
Y47244D02*
D03*
Y43307D02*
D03*
Y39370D02*
D03*
Y35433D02*
D03*
Y31496D02*
D03*
Y27559D02*
D03*
D66*
X314961Y157480D02*
D03*
Y0D02*
D03*
X0Y157480D02*
D03*
Y0D02*
D03*
D67*
X34744Y139173D02*
D03*
X30512Y156201D02*
D03*
X22146Y15354D02*
D03*
X35433Y30610D02*
D03*
X35630Y65256D02*
D03*
X36516Y97835D02*
D03*
X46752Y139567D02*
D03*
X46457Y88189D02*
D03*
X45851Y62880D02*
D03*
X80512Y10531D02*
D03*
X92224Y19783D02*
D03*
X148819Y15453D02*
D03*
X262008Y9055D02*
D03*
X302264Y152067D02*
D03*
X316437Y142815D02*
D03*
X263386Y149705D02*
D03*
X284744Y137894D02*
D03*
X285433Y90748D02*
D03*
X285531Y76378D02*
D03*
X298228Y59941D02*
D03*
X286024Y49705D02*
D03*
X285531Y31890D02*
D03*
X269882Y18504D02*
D03*
X262500Y21949D02*
D03*
X278740Y59941D02*
D03*
X256988Y100394D02*
D03*
X236122Y118012D02*
D03*
X214370Y118110D02*
D03*
X188976Y118405D02*
D03*
X175394Y97539D02*
D03*
X168898Y108169D02*
D03*
X168701Y94882D02*
D03*
X137894Y103937D02*
D03*
X108465Y107579D02*
D03*
X125000Y104331D02*
D03*
X117815Y96555D02*
D03*
X117913Y77362D02*
D03*
X242815Y62500D02*
D03*
X235531Y38780D02*
D03*
X102461Y76083D02*
D03*
X105807Y49311D02*
D03*
X18110Y128740D02*
D03*
X19587Y98622D02*
D03*
X19685Y58760D02*
D03*
X19783Y33760D02*
D03*
X72047Y34350D02*
D03*
Y53543D02*
D03*
X146850Y123524D02*
D03*
X235433Y131299D02*
D03*
X200197D02*
D03*
X275590Y146063D02*
D03*
X298819Y123819D02*
D03*
X309449Y116535D02*
D03*
Y127461D02*
D03*
Y55905D02*
D03*
X308661Y27264D02*
D03*
X255906Y78740D02*
D03*
Y88779D02*
D03*
X218799Y70177D02*
D03*
X211516Y95571D02*
D03*
X193209Y95177D02*
D03*
X169193Y84941D02*
D03*
Y78445D02*
D03*
X168799Y62795D02*
D03*
X193110Y63878D02*
D03*
X303508Y160555D02*
D03*
Y89689D02*
D03*
Y77878D02*
D03*
X291697Y160555D02*
D03*
X279886D02*
D03*
X268075D02*
D03*
X244453Y113311D02*
D03*
Y89689D02*
D03*
Y77878D02*
D03*
X232642Y113311D02*
D03*
Y89689D02*
D03*
Y77878D02*
D03*
Y54256D02*
D03*
X220831Y125122D02*
D03*
X209020Y66067D02*
D03*
X185398Y136933D02*
D03*
X173586Y148744D02*
D03*
Y136933D02*
D03*
Y125122D02*
D03*
X161776Y148744D02*
D03*
Y89689D02*
D03*
Y18823D02*
D03*
X149964Y148744D02*
D03*
X138154D02*
D03*
X126342Y136933D02*
D03*
X114531Y30634D02*
D03*
X102720Y148744D02*
D03*
Y136933D02*
D03*
Y125122D02*
D03*
Y101500D02*
D03*
X90909Y148744D02*
D03*
Y125122D02*
D03*
X79098Y148744D02*
D03*
Y136933D02*
D03*
Y125122D02*
D03*
Y113311D02*
D03*
Y101500D02*
D03*
Y89689D02*
D03*
Y66067D02*
D03*
X67287Y148744D02*
D03*
Y136933D02*
D03*
Y125122D02*
D03*
Y113311D02*
D03*
Y101500D02*
D03*
Y89689D02*
D03*
X20043Y160555D02*
D03*
X8232Y148744D02*
D03*
Y136933D02*
D03*
Y113311D02*
D03*
Y101500D02*
D03*
Y89689D02*
D03*
Y66067D02*
D03*
Y42445D02*
D03*
Y18823D02*
D03*
X-3579Y136933D02*
D03*
Y125122D02*
D03*
Y77878D02*
D03*
Y66067D02*
D03*
Y54256D02*
D03*
Y42445D02*
D03*
Y30634D02*
D03*
Y18823D02*
D03*
X210039Y147736D02*
D03*
X213976D02*
D03*
X217913D02*
D03*
X221850D02*
D03*
X225787D02*
D03*
X229724D02*
D03*
X233661D02*
D03*
Y155610D02*
D03*
X221850D02*
D03*
X217913D02*
D03*
X206102Y147736D02*
D03*
Y155610D02*
D03*
X204134Y77008D02*
D03*
X100394Y66535D02*
D03*
X152382Y110335D02*
D03*
X255906Y136240D02*
D03*
X186614Y76181D02*
D03*
X169488Y58709D02*
D03*
X169291Y12500D02*
D03*
X106102Y44882D02*
D03*
X99409Y53150D02*
D03*
X131417Y113189D02*
D03*
X166929Y105020D02*
D03*
X92520Y57087D02*
D03*
X166929Y102461D02*
D03*
X92520Y54429D02*
D03*
X62992Y21240D02*
D03*
X257283Y43701D02*
D03*
X267717Y22835D02*
D03*
X266929Y16240D02*
D03*
Y11240D02*
D03*
X233268Y9055D02*
D03*
X227801D02*
D03*
X295276Y11240D02*
D03*
X266392Y6890D02*
D03*
X271260Y51417D02*
D03*
X176575Y11963D02*
D03*
X127559Y48524D02*
D03*
X131496D02*
D03*
X179134Y44528D02*
D03*
Y65886D02*
D03*
X180905Y52461D02*
D03*
X165551Y47343D02*
D03*
X200394Y33898D02*
D03*
X193307D02*
D03*
X161417Y12500D02*
D03*
X176969Y40846D02*
D03*
X127539Y102563D02*
D03*
X114547D02*
D03*
X110217D02*
D03*
X211024Y39272D02*
D03*
X150197Y42224D02*
D03*
Y49902D02*
D03*
X72835Y28150D02*
D03*
X139764Y16142D02*
D03*
X306398Y69890D02*
D03*
X295276Y16240D02*
D03*
X39272Y109153D02*
D03*
X17717Y146240D02*
D03*
X264961Y141240D02*
D03*
Y146240D02*
D03*
X41535Y94488D02*
D03*
X248622Y10624D02*
D03*
X214567Y33898D02*
D03*
X101374Y47244D02*
D03*
X101354Y51201D02*
D03*
X129921Y13559D02*
D03*
X61024Y146240D02*
D03*
X39272Y30419D02*
D03*
X158661Y9055D02*
D03*
X230512D02*
D03*
X182087D02*
D03*
X267717Y25984D02*
D03*
X284252Y146240D02*
D03*
Y151240D02*
D03*
X61024Y151240D02*
D03*
X17717Y141240D02*
D03*
X17717Y16240D02*
D03*
Y11240D02*
D03*
Y6240D02*
D03*
X188483Y14217D02*
D03*
X179134Y110138D02*
D03*
X156341Y154075D02*
D03*
X267717Y32283D02*
D03*
Y29134D02*
D03*
X133465Y43110D02*
D03*
X129528D02*
D03*
X135433Y45571D02*
D03*
X131496D02*
D03*
X167516Y52461D02*
D03*
X207480Y33898D02*
D03*
X185039Y12575D02*
D03*
X271260Y55020D02*
D03*
Y58366D02*
D03*
X255906Y121240D02*
D03*
M02*
