G04*
G04 #@! TF.GenerationSoftware,Altium Limited,Altium Designer,20.0.13 (296)*
G04*
G04 Layer_Color=128*
%FSLAX25Y25*%
%MOIN*%
G70*
G01*
G75*
%ADD111C,0.00200*%
D111*
X206299Y34646D02*
X207087D01*
X206693Y34252D02*
Y35039D01*
X201772Y16929D02*
X202559D01*
X202165Y16535D02*
Y17323D01*
X116535Y44488D02*
X117323D01*
X116929Y44094D02*
Y44882D01*
X112402Y32283D02*
X113189D01*
X112795Y31890D02*
Y32677D01*
X114154Y152047D02*
X114941D01*
X114547Y151654D02*
Y152441D01*
X127146Y152047D02*
X127933D01*
X127539Y151654D02*
Y152441D01*
X118405Y151969D02*
X119193D01*
X118799Y151575D02*
Y152362D01*
X109823Y152047D02*
X110610D01*
X110216Y151654D02*
Y152441D01*
X105492Y152047D02*
X106280D01*
X105886Y151654D02*
Y152441D01*
X185000Y151240D02*
X185787D01*
X185394Y150847D02*
Y151634D01*
X185000Y155207D02*
X185787D01*
X185394Y154813D02*
Y155600D01*
X196181Y141161D02*
X196968D01*
X196575Y140768D02*
Y141555D01*
X185000Y159173D02*
X185787D01*
X185394Y158780D02*
Y159567D01*
X227756Y141535D02*
X228543D01*
X228150Y141142D02*
Y141929D01*
X211929Y141161D02*
X212717D01*
X212323Y140768D02*
Y141555D01*
X54134Y91240D02*
X54921D01*
X54528Y90847D02*
Y91634D01*
X184055Y107579D02*
X184843D01*
X184449Y107185D02*
Y107973D01*
X22343Y-295D02*
X23130D01*
X22736Y-689D02*
Y98D01*
X82185Y1575D02*
X82972D01*
X82579Y1181D02*
Y1969D01*
X93307Y13681D02*
X94095D01*
X93701Y13287D02*
Y14075D01*
X141437Y75689D02*
X142224D01*
X141831Y75295D02*
Y76083D01*
X122047Y85335D02*
X122835D01*
X122441Y84941D02*
Y85728D01*
X85925Y66634D02*
X86713D01*
X86319Y66240D02*
Y67028D01*
X79331Y73819D02*
X80118D01*
X79724Y73425D02*
Y74213D01*
X210118Y80512D02*
X210906D01*
X210512Y80118D02*
Y80905D01*
X135433Y59847D02*
X136221D01*
X135827Y59453D02*
Y60240D01*
X155315Y75846D02*
X156102D01*
X155709Y75453D02*
Y76240D01*
X165551Y-2756D02*
X166339D01*
X165945Y-3150D02*
Y-2362D01*
X168898Y7457D02*
X169685D01*
X169291Y7063D02*
Y7850D01*
X153740Y49902D02*
X154528D01*
X154134Y49508D02*
Y50295D01*
X153740Y47343D02*
X154528D01*
X154134Y46949D02*
Y47736D01*
X153740Y42224D02*
X154528D01*
X154134Y41831D02*
Y42618D01*
X157480Y63425D02*
X158268D01*
X157874Y63032D02*
Y63819D01*
X105492Y106500D02*
X106280D01*
X105886Y106106D02*
Y106894D01*
X118405Y106579D02*
X119193D01*
X118799Y106185D02*
Y106972D01*
X127146Y106500D02*
X127933D01*
X127539Y106106D02*
Y106894D01*
X114154Y106500D02*
X114941D01*
X114547Y106106D02*
Y106894D01*
X109823Y106500D02*
X110610D01*
X110217Y106106D02*
Y106894D01*
X163779Y122421D02*
X164567D01*
X164173Y122028D02*
Y122815D01*
X163779Y127461D02*
X164567D01*
X164173Y127067D02*
Y127854D01*
X220079Y2165D02*
X220866D01*
X220472Y1772D02*
Y2559D01*
X223228Y9646D02*
X224016D01*
X223622Y9252D02*
Y10039D01*
X225197Y11614D02*
X225984D01*
X225590Y11220D02*
Y12008D01*
X210236Y24213D02*
X211024D01*
X210630Y23819D02*
Y24606D01*
X176575Y44783D02*
X177362D01*
X176969Y44390D02*
Y45177D01*
X176575Y49902D02*
X177362D01*
X176969Y49508D02*
Y50295D01*
X176575Y52461D02*
X177362D01*
X176969Y52067D02*
Y52854D01*
X176575Y60138D02*
X177362D01*
X176969Y59744D02*
Y60532D01*
X176575Y57579D02*
X177362D01*
X176969Y57185D02*
Y57972D01*
X182480Y76181D02*
X183268D01*
X182874Y75787D02*
Y76575D01*
X140378Y19685D02*
X141165D01*
X140772Y19291D02*
Y20079D01*
X138193Y23622D02*
X138980D01*
X138587Y23228D02*
Y24016D01*
X140378Y15748D02*
X141165D01*
X140772Y15354D02*
Y16142D01*
X138193Y27559D02*
X138980D01*
X138587Y27165D02*
Y27953D01*
X155947Y158799D02*
X156734D01*
X156341Y158405D02*
Y159193D01*
X184055Y110138D02*
X184843D01*
X184449Y109744D02*
Y110531D01*
X161221Y115354D02*
X162008D01*
X161614Y114961D02*
Y115748D01*
X166929Y65886D02*
X167717D01*
X167323Y65492D02*
Y66280D01*
X164961Y87106D02*
X165748D01*
X165354Y86713D02*
Y87500D01*
X188031Y84724D02*
X188819D01*
X188425Y84331D02*
Y85118D01*
X182480Y65886D02*
X183268D01*
X182874Y65492D02*
Y66280D01*
X150098Y60138D02*
X150886D01*
X150492Y59744D02*
Y60532D01*
X150591Y14665D02*
X151378D01*
X150984Y14272D02*
Y15059D01*
X184646Y17746D02*
X185433D01*
X185039Y17352D02*
Y18140D01*
X210630Y34547D02*
X211417D01*
X211024Y34154D02*
Y34941D01*
X219980Y91142D02*
X220768D01*
X220374Y90748D02*
Y91535D01*
X219980Y84055D02*
X220768D01*
X220374Y83661D02*
Y84449D01*
X219980Y76968D02*
X220768D01*
X220374Y76575D02*
Y77362D01*
X199213Y77008D02*
X200000D01*
X199606Y76614D02*
Y77402D01*
X199213Y80748D02*
X200000D01*
X199606Y80354D02*
Y81142D01*
X94095Y29528D02*
X94882D01*
X94488Y29134D02*
Y29921D01*
X90158Y11020D02*
X90945D01*
X90551Y10626D02*
Y11413D01*
X161221Y55020D02*
X162008D01*
X161614Y54626D02*
Y55413D01*
X140157Y25591D02*
X140945D01*
X140551Y25197D02*
Y25984D01*
X184646Y7457D02*
X185433D01*
X185039Y7063D02*
Y7850D01*
X182520Y80984D02*
X183307D01*
X182913Y80591D02*
Y81378D01*
X182520Y88465D02*
X183307D01*
X182913Y88071D02*
Y88858D01*
X184055Y99902D02*
X184843D01*
X184449Y99508D02*
Y100295D01*
X184055Y102461D02*
X184843D01*
X184449Y102067D02*
Y102854D01*
X184055Y105020D02*
X184843D01*
X184449Y104626D02*
Y105413D01*
X210118Y73425D02*
X210906D01*
X210512Y73032D02*
Y73819D01*
X210118Y76968D02*
X210906D01*
X210512Y76575D02*
Y77362D01*
X176772Y7457D02*
X177559D01*
X177165Y7063D02*
Y7850D01*
X161024Y7457D02*
X161811D01*
X161417Y7063D02*
Y7850D01*
X153150Y7457D02*
X153937D01*
X153543Y7063D02*
Y7850D01*
X225197Y21063D02*
X225984D01*
X225590Y20669D02*
Y21457D01*
X260039Y111240D02*
X260827D01*
X260433Y110846D02*
Y111634D01*
X260039Y116240D02*
X260827D01*
X260433Y115847D02*
Y116634D01*
X260039Y121240D02*
X260827D01*
X260433Y120846D02*
Y121634D01*
X169095Y47343D02*
X169882D01*
X169488Y46949D02*
Y47736D01*
X54134Y81240D02*
X54921D01*
X54528Y80847D02*
Y81634D01*
X125591Y61811D02*
X126378D01*
X125984Y61417D02*
Y62205D01*
X54134Y86240D02*
X54921D01*
X54528Y85847D02*
Y86634D01*
X75197Y17717D02*
X75984D01*
X75590Y17323D02*
Y18110D01*
X68504Y13780D02*
X69291D01*
X68898Y13386D02*
Y14173D01*
X66535Y15748D02*
X67323D01*
X66929Y15354D02*
Y16142D01*
X54134Y11240D02*
X54921D01*
X54528Y10847D02*
Y11634D01*
X54131Y26237D02*
X54918D01*
X54525Y25844D02*
Y26631D01*
X54134Y21240D02*
X54921D01*
X54528Y20846D02*
Y21634D01*
X54134Y71240D02*
X54921D01*
X54528Y70846D02*
Y71634D01*
X54134Y76240D02*
X54921D01*
X54528Y75846D02*
Y76634D01*
X54134Y16240D02*
X54921D01*
X54528Y15846D02*
Y16634D01*
X70472Y23622D02*
X71260D01*
X70866Y23228D02*
Y24016D01*
X72441Y21654D02*
X73228D01*
X72835Y21260D02*
Y22047D01*
X23819Y131240D02*
X24606D01*
X24213Y130847D02*
Y131634D01*
X290354Y136240D02*
X291142D01*
X290748Y135846D02*
Y136634D01*
X290354Y146240D02*
X291142D01*
X290748Y145846D02*
Y146634D01*
X129528Y61811D02*
X130315D01*
X129921Y61417D02*
Y62205D01*
X127559Y59847D02*
X128347D01*
X127953Y59453D02*
Y60240D01*
X138193Y55118D02*
X138980D01*
X138587Y54724D02*
Y55512D01*
X131496Y59847D02*
X132283D01*
X131890Y59453D02*
Y60240D01*
X123622Y59847D02*
X124409D01*
X124016Y59453D02*
Y60240D01*
X169095Y55020D02*
X169882D01*
X169488Y54626D02*
Y55413D01*
X161221Y97342D02*
X162008D01*
X161614Y96949D02*
Y97736D01*
X161221Y99902D02*
X162008D01*
X161614Y99508D02*
Y100295D01*
X161221Y102461D02*
X162008D01*
X161614Y102067D02*
Y102854D01*
X161221Y105020D02*
X162008D01*
X161614Y104626D02*
Y105413D01*
X161221Y110138D02*
X162008D01*
X161614Y109744D02*
Y110531D01*
X161221Y112697D02*
X162008D01*
X161614Y112303D02*
Y113091D01*
X163185Y44783D02*
X163972D01*
X163579Y44390D02*
Y45177D01*
X163185Y52461D02*
X163972D01*
X163579Y52067D02*
Y52854D01*
X201181Y43012D02*
X201969D01*
X201575Y42618D02*
Y43406D01*
X176575Y27461D02*
X177362D01*
X176969Y27067D02*
Y27854D01*
X176575Y30020D02*
X177362D01*
X176969Y29626D02*
Y30413D01*
X176575Y32579D02*
X177362D01*
X176969Y32185D02*
Y32972D01*
X201177Y30512D02*
X201965D01*
X201571Y30118D02*
Y30906D01*
X176575Y24902D02*
X177362D01*
X176969Y24508D02*
Y25295D01*
X161221Y24902D02*
X162008D01*
X161614Y24508D02*
Y25295D01*
X161221Y27461D02*
X162008D01*
X161614Y27067D02*
Y27854D01*
X161221Y30020D02*
X162008D01*
X161614Y29626D02*
Y30413D01*
X161221Y35138D02*
X162008D01*
X161614Y34744D02*
Y35531D01*
X161221Y32579D02*
X162008D01*
X161614Y32185D02*
Y32972D01*
X260039Y96240D02*
X260827D01*
X260433Y95846D02*
Y96634D01*
X260039Y101240D02*
X260827D01*
X260433Y100847D02*
Y101634D01*
X225394Y103799D02*
X226181D01*
X225787Y103405D02*
Y104193D01*
X199016Y101476D02*
X199803D01*
X199409Y101083D02*
Y101870D01*
X199016Y106496D02*
X199803D01*
X199409Y106102D02*
Y106890D01*
X199016Y113799D02*
X199803D01*
X199409Y113406D02*
Y114193D01*
X211983Y118627D02*
X212771D01*
X212377Y118233D02*
Y119021D01*
X196181Y118681D02*
X196968D01*
X196575Y118287D02*
Y119075D01*
X227731Y118922D02*
X228519D01*
X228125Y118528D02*
Y119316D01*
X199213Y11614D02*
X200000D01*
X199606Y11220D02*
Y12008D01*
X260039Y76240D02*
X260827D01*
X260433Y75846D02*
Y76634D01*
X201177Y33661D02*
X201965D01*
X201571Y33268D02*
Y34055D01*
X201177Y27362D02*
X201965D01*
X201571Y26969D02*
Y27756D01*
X225197Y17913D02*
X225984D01*
X225590Y17520D02*
Y18307D01*
X225197Y14764D02*
X225984D01*
X225590Y14370D02*
Y15157D01*
X260039Y66240D02*
X260827D01*
X260433Y65847D02*
Y66634D01*
X260039Y6240D02*
X260827D01*
X260433Y5847D02*
Y6634D01*
X260039Y11240D02*
X260827D01*
X260433Y10847D02*
Y11634D01*
X260039Y16240D02*
X260827D01*
X260433Y15846D02*
Y16634D01*
X204331Y9646D02*
X205118D01*
X204724Y9252D02*
Y10039D01*
X201181Y9646D02*
X201969D01*
X201575Y9252D02*
Y10039D01*
X225197Y24213D02*
X225984D01*
X225590Y23819D02*
Y24606D01*
X260039Y71240D02*
X260827D01*
X260433Y70846D02*
Y71634D01*
X290354Y76240D02*
X291142D01*
X290748Y75846D02*
Y76634D01*
X290354Y71240D02*
X291142D01*
X290748Y70846D02*
Y71634D01*
X87402Y45225D02*
X88189D01*
X87795Y44831D02*
Y45619D01*
X23819Y71240D02*
X24606D01*
X24213Y70846D02*
Y71634D01*
X23816Y76237D02*
X24603D01*
X24210Y75844D02*
Y76631D01*
X87402Y49213D02*
X88189D01*
X87795Y48819D02*
Y49606D01*
X92126Y61811D02*
X92913D01*
X92520Y61417D02*
Y62205D01*
X107874Y9055D02*
X108661D01*
X108268Y8661D02*
Y9449D01*
X105905Y11020D02*
X106693D01*
X106299Y10626D02*
Y11413D01*
X103988Y9055D02*
X104775D01*
X104381Y8661D02*
Y9449D01*
X101969Y11020D02*
X102756D01*
X102362Y10626D02*
Y11413D01*
X100000Y9055D02*
X100787D01*
X100394Y8661D02*
Y9449D01*
X98032Y11020D02*
X98819D01*
X98425Y10626D02*
Y11413D01*
X96063Y9055D02*
X96850D01*
X96457Y8661D02*
Y9449D01*
X23819Y91240D02*
X24606D01*
X24213Y90847D02*
Y91634D01*
X23819Y96240D02*
X24606D01*
X24213Y95846D02*
Y96634D01*
X23819Y101240D02*
X24606D01*
X24213Y100847D02*
Y101634D01*
X23819Y106240D02*
X24606D01*
X24213Y105847D02*
Y106634D01*
X23819Y111240D02*
X24606D01*
X24213Y110846D02*
Y111634D01*
X23819Y116240D02*
X24606D01*
X24213Y115847D02*
Y116634D01*
X23819Y121240D02*
X24606D01*
X24213Y120846D02*
Y121634D01*
X23819Y126240D02*
X24606D01*
X24213Y125847D02*
Y126634D01*
X125591Y11020D02*
X126378D01*
X125984Y10626D02*
Y11413D01*
X123622Y9055D02*
X124409D01*
X124016Y8661D02*
Y9449D01*
X121653Y11020D02*
X122441D01*
X122047Y10626D02*
Y11413D01*
X119736Y9055D02*
X120523D01*
X120129Y8661D02*
Y9449D01*
X117717Y11020D02*
X118504D01*
X118110Y10626D02*
Y11413D01*
X260039Y61240D02*
X260827D01*
X260433Y60847D02*
Y61634D01*
X260039Y56240D02*
X260827D01*
X260433Y55847D02*
Y56634D01*
X260039Y41240D02*
X260827D01*
X260433Y40846D02*
Y41634D01*
X260039Y46240D02*
X260827D01*
X260433Y45847D02*
Y46634D01*
X260039Y51240D02*
X260827D01*
X260433Y50846D02*
Y51634D01*
X290354Y21240D02*
X291142D01*
X290748Y20846D02*
Y21634D01*
X290551Y26240D02*
X291339D01*
X290945Y25846D02*
Y26634D01*
X290354Y31240D02*
X291142D01*
X290748Y30847D02*
Y31634D01*
X290354Y36240D02*
X291142D01*
X290748Y35846D02*
Y36634D01*
X290354Y41240D02*
X291142D01*
X290748Y40846D02*
Y41634D01*
X290354Y46240D02*
X291142D01*
X290748Y45847D02*
Y46634D01*
X290354Y51240D02*
X291142D01*
X290748Y50846D02*
Y51634D01*
X290354Y56240D02*
X291142D01*
X290748Y55847D02*
Y56634D01*
X100000Y59847D02*
X100787D01*
X100394Y59453D02*
Y60240D01*
X138193Y39370D02*
X138980D01*
X138587Y38976D02*
Y39764D01*
X98032Y61811D02*
X98819D01*
X98425Y61417D02*
Y62205D01*
X133465Y61811D02*
X134252D01*
X133858Y61417D02*
Y62205D01*
X138193Y13780D02*
X138980D01*
X138587Y13386D02*
Y14173D01*
X140378Y11811D02*
X141165D01*
X140772Y11417D02*
Y12205D01*
X138193Y17717D02*
X138980D01*
X138587Y17323D02*
Y18110D01*
X138193Y31496D02*
X138980D01*
X138587Y31102D02*
Y31890D01*
X138193Y35433D02*
X138980D01*
X138587Y35039D02*
Y35827D01*
X140157Y29578D02*
X140945D01*
X140551Y29184D02*
Y29972D01*
X140157Y33465D02*
X140945D01*
X140551Y33071D02*
Y33858D01*
X89341Y35458D02*
X90128D01*
X89735Y35065D02*
Y35852D01*
X87376Y37376D02*
X88164D01*
X87770Y36983D02*
Y37770D01*
X87376Y33490D02*
X88164D01*
X87770Y33096D02*
Y33884D01*
X87402Y41339D02*
X88189D01*
X87795Y40945D02*
Y41732D01*
X87402Y53150D02*
X88189D01*
X87795Y52756D02*
Y53543D01*
X89366Y39370D02*
X90153D01*
X89760Y38976D02*
Y39764D01*
X89366Y43307D02*
X90153D01*
X89760Y42913D02*
Y43701D01*
X89366Y47244D02*
X90153D01*
X89760Y46850D02*
Y47638D01*
X89366Y51181D02*
X90153D01*
X89760Y50787D02*
Y51575D01*
X87402Y19634D02*
X88189D01*
X87795Y19241D02*
Y20028D01*
X90945Y27559D02*
X91732D01*
X91339Y27165D02*
Y27953D01*
X89370Y25591D02*
X90158D01*
X89764Y25197D02*
Y25984D01*
X111811Y9055D02*
X112598D01*
X112205Y8661D02*
Y9449D01*
X113779Y11020D02*
X114567D01*
X114173Y10626D02*
Y11413D01*
X115748Y9055D02*
X116535D01*
X116142Y8661D02*
Y9449D01*
X109843Y11020D02*
X110630D01*
X110236Y10626D02*
Y11413D01*
X140157Y53150D02*
X140945D01*
X140551Y52756D02*
Y53543D01*
X140157Y49263D02*
X140945D01*
X140551Y48870D02*
Y49657D01*
X140157Y41339D02*
X140945D01*
X140551Y40945D02*
Y41732D01*
X138193Y51181D02*
X138980D01*
X138587Y50787D02*
Y51575D01*
X138193Y47244D02*
X138980D01*
X138587Y46850D02*
Y47638D01*
X138193Y43307D02*
X138980D01*
X138587Y42913D02*
Y43701D01*
X140157Y45276D02*
X140945D01*
X140551Y44882D02*
Y45669D01*
X117717Y61811D02*
X118504D01*
X118110Y61417D02*
Y62205D01*
X119685Y59847D02*
X120472D01*
X120079Y59453D02*
Y60240D01*
X115748Y59847D02*
X116535D01*
X116142Y59453D02*
Y60240D01*
X111811Y59847D02*
X112598D01*
X112205Y59453D02*
Y60240D01*
X107874Y59847D02*
X108661D01*
X108268Y59453D02*
Y60240D01*
X23819Y6240D02*
X24606D01*
X24213Y5847D02*
Y6634D01*
X23819Y11240D02*
X24606D01*
X24213Y10847D02*
Y11634D01*
X23819Y16240D02*
X24606D01*
X24213Y15846D02*
Y16634D01*
X54134Y31240D02*
X54921D01*
X54528Y30847D02*
Y31634D01*
X54134Y36240D02*
X54921D01*
X54528Y35846D02*
Y36634D01*
X54134Y41240D02*
X54921D01*
X54528Y40846D02*
Y41634D01*
X54134Y46240D02*
X54921D01*
X54528Y45847D02*
Y46634D01*
X54134Y51240D02*
X54921D01*
X54528Y50846D02*
Y51634D01*
X54134Y56240D02*
X54921D01*
X54528Y55847D02*
Y56634D01*
X54134Y116240D02*
X54921D01*
X54528Y115846D02*
Y116634D01*
X54134Y121240D02*
X54921D01*
X54528Y120846D02*
Y121634D01*
X54134Y126240D02*
X54921D01*
X54528Y125846D02*
Y126634D01*
X54134Y131240D02*
X54921D01*
X54528Y130846D02*
Y131634D01*
X23819Y26240D02*
X24606D01*
X24213Y25846D02*
Y26634D01*
X23819Y51240D02*
X24606D01*
X24213Y50846D02*
Y51634D01*
X260039Y31240D02*
X260827D01*
X260433Y30847D02*
Y31634D01*
X260039Y36240D02*
X260827D01*
X260433Y35846D02*
Y36634D01*
X260039Y136240D02*
X260827D01*
X260433Y135846D02*
Y136634D01*
X260039Y126240D02*
X260827D01*
X260433Y125847D02*
Y126634D01*
X290354Y61240D02*
X291142D01*
X290748Y60847D02*
Y61634D01*
X121653Y61811D02*
X122441D01*
X122047Y61417D02*
Y62205D01*
X113729Y61811D02*
X114516D01*
X114123Y61417D02*
Y62205D01*
X109843Y61811D02*
X110630D01*
X110236Y61417D02*
Y62205D01*
X137402Y8835D02*
X138189D01*
X137795Y8441D02*
Y9228D01*
X133465Y8835D02*
X134252D01*
X133858Y8441D02*
Y9228D01*
X135433Y11020D02*
X136221D01*
X135827Y10626D02*
Y11413D01*
X54134Y111240D02*
X54921D01*
X54528Y110846D02*
Y111634D01*
X54253Y106359D02*
X55040D01*
X54646Y105965D02*
Y106753D01*
X23819Y31240D02*
X24606D01*
X24213Y30847D02*
Y31634D01*
X131496Y11020D02*
X132283D01*
X131890Y10626D02*
Y11413D01*
X129528Y8835D02*
X130315D01*
X129921Y8441D02*
Y9228D01*
X54134Y61240D02*
X54921D01*
X54528Y60847D02*
Y61634D01*
X54134Y66240D02*
X54921D01*
X54528Y65847D02*
Y66634D01*
X54134Y96240D02*
X54921D01*
X54528Y95846D02*
Y96634D01*
X54134Y101240D02*
X54921D01*
X54528Y100847D02*
Y101634D01*
X54134Y136240D02*
X54921D01*
X54528Y135846D02*
Y136634D01*
X54134Y146240D02*
X54921D01*
X54528Y145846D02*
Y146634D01*
X54134Y151240D02*
X54921D01*
X54528Y150847D02*
Y151634D01*
X23819Y146240D02*
X24606D01*
X24213Y145846D02*
Y146634D01*
X23819Y141240D02*
X24606D01*
X24213Y140847D02*
Y141634D01*
X23819Y136240D02*
X24606D01*
X24213Y135846D02*
Y136634D01*
X23819Y86240D02*
X24606D01*
X24213Y85847D02*
Y86634D01*
X23819Y81240D02*
X24606D01*
X24213Y80847D02*
Y81634D01*
X23819Y66240D02*
X24606D01*
X24213Y65847D02*
Y66634D01*
X23819Y61240D02*
X24606D01*
X24213Y60847D02*
Y61634D01*
X23819Y56240D02*
X24606D01*
X24213Y55847D02*
Y56634D01*
X23819Y46240D02*
X24606D01*
X24213Y45847D02*
Y46634D01*
X23819Y41240D02*
X24606D01*
X24213Y40846D02*
Y41634D01*
X23819Y36240D02*
X24606D01*
X24213Y35846D02*
Y36634D01*
X260039Y26240D02*
X260827D01*
X260433Y25846D02*
Y26634D01*
X260039Y81240D02*
X260827D01*
X260433Y80847D02*
Y81634D01*
X260039Y86240D02*
X260827D01*
X260433Y85847D02*
Y86634D01*
X260039Y91240D02*
X260827D01*
X260433Y90847D02*
Y91634D01*
X260039Y106240D02*
X260827D01*
X260433Y105847D02*
Y106634D01*
X260039Y131240D02*
X260827D01*
X260433Y130847D02*
Y131634D01*
X260039Y141240D02*
X260827D01*
X260433Y140847D02*
Y141634D01*
X260039Y146240D02*
X260827D01*
X260433Y145846D02*
Y146634D01*
X290354Y151240D02*
X291142D01*
X290748Y150847D02*
Y151634D01*
X290354Y11240D02*
X291142D01*
X290748Y10847D02*
Y11634D01*
X290354Y16240D02*
X291142D01*
X290748Y15846D02*
Y16634D01*
X290354Y66240D02*
X291142D01*
X290748Y65847D02*
Y66634D01*
X290354Y81240D02*
X291142D01*
X290748Y80847D02*
Y81634D01*
X290354Y86240D02*
X291142D01*
X290748Y85847D02*
Y86634D01*
X290354Y91240D02*
X291142D01*
X290748Y90847D02*
Y91634D01*
X290354Y96240D02*
X291142D01*
X290748Y95846D02*
Y96634D01*
X290354Y101240D02*
X291142D01*
X290748Y100847D02*
Y101634D01*
X290354Y106240D02*
X291142D01*
X290748Y105847D02*
Y106634D01*
X290354Y111240D02*
X291142D01*
X290748Y110846D02*
Y111634D01*
X290354Y116240D02*
X291142D01*
X290748Y115847D02*
Y116634D01*
X290354Y121240D02*
X291142D01*
X290748Y120846D02*
Y121634D01*
X290354Y126240D02*
X291142D01*
X290748Y125847D02*
Y126634D01*
X290354Y131240D02*
X291142D01*
X290748Y130847D02*
Y131634D01*
M02*
