G04*
G04 #@! TF.GenerationSoftware,Altium Limited,Altium Designer,20.0.13 (296)*
G04*
G04 Layer_Color=32768*
%FSLAX25Y25*%
%MOIN*%
G70*
G01*
G75*
%ADD10C,0.00394*%
%ADD15C,0.00197*%
D10*
X92126Y11417D02*
G03*
X92126Y11417I-1969J0D01*
G01*
X86614Y7874D02*
Y62992D01*
X141732Y7874D02*
Y62992D01*
X86614Y7874D02*
X141732D01*
X86614Y62992D02*
X141732D01*
D15*
X200024Y85840D02*
X209424D01*
X200024Y71640D02*
X209424D01*
X200024D02*
Y85840D01*
X209424Y71640D02*
Y85840D01*
X192283Y86890D02*
Y90039D01*
X198189Y86890D02*
Y90039D01*
X192283Y86890D02*
X198189D01*
X192283Y90039D02*
X198189D01*
X144073Y91905D02*
Y149105D01*
X84273Y91905D02*
Y149105D01*
X144073D01*
X84273Y91905D02*
X144073D01*
X16732Y62815D02*
X22638D01*
X16732Y59665D02*
X22638D01*
Y62815D01*
X16732Y59665D02*
Y62815D01*
X109847Y71240D02*
X134347D01*
Y86240D01*
X109847D02*
X134347D01*
X109847Y71240D02*
Y86240D01*
X229921Y102539D02*
Y108445D01*
X226772Y102539D02*
Y108445D01*
Y102539D02*
X229921D01*
X226772Y108445D02*
X229921D01*
X192205Y100374D02*
X198110D01*
X192205Y97224D02*
X198110D01*
Y100374D01*
X192205Y97224D02*
Y100374D01*
Y105374D02*
X198110D01*
X192205Y102224D02*
X198110D01*
Y105374D01*
X192205Y102224D02*
Y105374D01*
Y115374D02*
X198110D01*
X192205Y112224D02*
X198110D01*
Y115374D01*
X192205Y112224D02*
Y115374D01*
Y110374D02*
X198110D01*
X192205Y107224D02*
X198110D01*
Y110374D01*
X192205Y107224D02*
Y110374D01*
X167717Y70531D02*
X170866D01*
X167717Y64626D02*
X170866D01*
X167717D02*
Y70531D01*
X170866Y64626D02*
Y70531D01*
X183465Y64626D02*
X186614D01*
X183465Y70531D02*
X186614D01*
Y64626D02*
Y70531D01*
X183465Y64626D02*
Y70531D01*
X151969Y71201D02*
X155118D01*
X151969Y77106D02*
X155118D01*
Y71201D02*
Y77106D01*
X151969Y71201D02*
Y77106D01*
X160039Y85630D02*
X163189D01*
X160039Y79724D02*
X163189D01*
X160039D02*
Y85630D01*
X163189Y79724D02*
Y85630D01*
X206378Y43701D02*
Y46850D01*
X212283Y43701D02*
Y46850D01*
X206378Y43701D02*
X212283D01*
X206378Y46850D02*
X212283D01*
X212677Y43701D02*
Y46850D01*
X218583Y43701D02*
Y46850D01*
X212677Y43701D02*
X218583D01*
X212677Y46850D02*
X218583D01*
X215827Y-1575D02*
Y1575D01*
X221732Y-1575D02*
Y1575D01*
X215827Y-1575D02*
X221732D01*
X215827Y1575D02*
X221732D01*
X207677Y125847D02*
X213583D01*
X207677Y128996D02*
X213583D01*
X207677Y125847D02*
Y128996D01*
X213583Y125847D02*
Y128996D01*
X207677Y135846D02*
X213583D01*
X207677Y138996D02*
X213583D01*
X207677Y135846D02*
Y138996D01*
X213583Y135846D02*
Y138996D01*
X155118Y154154D02*
Y160059D01*
X151969Y154154D02*
Y160059D01*
Y154154D02*
X155118D01*
X151969Y160059D02*
X155118D01*
X191929Y125847D02*
X197835D01*
X191929Y128996D02*
X197835D01*
X191929Y125847D02*
Y128996D01*
X197835Y125847D02*
Y128996D01*
X191929Y135846D02*
X197835D01*
X191929Y138996D02*
X197835D01*
X191929Y135846D02*
Y138996D01*
X197835Y135846D02*
Y138996D01*
X223425Y126142D02*
X229331D01*
X223425Y129291D02*
X229331D01*
X223425Y126142D02*
Y129291D01*
X229331Y126142D02*
Y129291D01*
X223425Y136142D02*
X229331D01*
X223425Y139291D02*
X229331D01*
X223425Y136142D02*
Y139291D01*
X229331Y136142D02*
Y139291D01*
X195276Y60827D02*
X198425D01*
X195276Y66732D02*
X198425D01*
Y60827D02*
Y66732D01*
X195276Y60827D02*
Y66732D01*
X226772Y51378D02*
X229921D01*
X226772Y57284D02*
X229921D01*
Y51378D02*
Y57284D01*
X226772Y51378D02*
Y57284D01*
X187402Y19567D02*
X190551D01*
X187402Y25472D02*
X190551D01*
Y19567D02*
Y25472D01*
X187402Y19567D02*
Y25472D01*
X112972Y160433D02*
X116122D01*
X112972Y154527D02*
X116122D01*
X112972D02*
Y160433D01*
X116122Y154527D02*
Y160433D01*
X151969Y61398D02*
X155118D01*
X151969Y55492D02*
X155118D01*
X151969D02*
Y61398D01*
X155118Y55492D02*
Y61398D01*
X183465Y55492D02*
X186614D01*
X183465Y61398D02*
X186614D01*
Y55492D02*
Y61398D01*
X183465Y55492D02*
Y61398D01*
Y10020D02*
X186614D01*
X183465Y15925D02*
X186614D01*
Y10020D02*
Y15925D01*
X183465Y10020D02*
Y15925D01*
X151969Y10020D02*
X155118D01*
X151969Y15925D02*
X155118D01*
Y10020D02*
Y15925D01*
X151969Y10020D02*
Y15925D01*
Y36398D02*
X155118D01*
X151969Y30492D02*
X155118D01*
X151969D02*
Y36398D01*
X155118Y30492D02*
Y36398D01*
X98819Y75512D02*
X101969D01*
X98819Y69606D02*
X101969D01*
X98819D02*
Y75512D01*
X101969Y69606D02*
Y75512D01*
X77165Y34173D02*
X80315D01*
X77165Y28268D02*
X80315D01*
X77165D02*
Y34173D01*
X80315Y28268D02*
Y34173D01*
X136221Y76968D02*
X139370D01*
X136221Y71063D02*
X139370D01*
X136221D02*
Y76968D01*
X139370Y71063D02*
Y76968D01*
X104724Y86417D02*
X107874D01*
X104724Y80512D02*
X107874D01*
X104724D02*
Y86417D01*
X107874Y80512D02*
Y86417D01*
X125276Y1575D02*
X131181D01*
X125276Y-1575D02*
X131181D01*
Y1575D01*
X125276Y-1575D02*
Y1575D01*
X151181Y38110D02*
Y44016D01*
X148031Y38110D02*
Y44016D01*
Y38110D02*
X151181D01*
X148031Y44016D02*
X151181D01*
X94095Y69606D02*
Y75512D01*
X90945Y69606D02*
Y75512D01*
Y69606D02*
X94095D01*
X90945Y75512D02*
X94095D01*
X62008Y9665D02*
Y12815D01*
X56102Y9665D02*
Y12815D01*
X62008D01*
X56102Y9665D02*
X62008D01*
Y14665D02*
Y17815D01*
X56102Y14665D02*
Y17815D01*
X62008D01*
X56102Y14665D02*
X62008D01*
Y19665D02*
Y22815D01*
X56102Y19665D02*
Y22815D01*
X62008D01*
X56102Y19665D02*
X62008D01*
X16732Y4665D02*
Y7815D01*
X22638Y4665D02*
Y7815D01*
X16732Y4665D02*
X22638D01*
X16732Y7815D02*
X22638D01*
X16732Y9665D02*
Y12815D01*
X22638Y9665D02*
Y12815D01*
X16732Y9665D02*
X22638D01*
X16732Y12815D02*
X22638D01*
X16732Y14665D02*
Y17815D01*
X22638Y14665D02*
Y17815D01*
X16732Y14665D02*
X22638D01*
X16732Y17815D02*
X22638D01*
X298228Y9665D02*
Y12815D01*
X292323Y9665D02*
Y12815D01*
X298228D01*
X292323Y9665D02*
X298228D01*
Y14665D02*
Y17815D01*
X292323Y14665D02*
Y17815D01*
X298228D01*
X292323Y14665D02*
X298228D01*
X252953Y4665D02*
Y7815D01*
X258858Y4665D02*
Y7815D01*
X252953Y4665D02*
X258858D01*
X252953Y7815D02*
X258858D01*
X252953Y9665D02*
Y12815D01*
X258858Y9665D02*
Y12815D01*
X252953Y9665D02*
X258858D01*
X252953Y12815D02*
X258858D01*
X252953Y14665D02*
Y17815D01*
X258858Y14665D02*
Y17815D01*
X252953Y14665D02*
X258858D01*
X252953Y17815D02*
X258858D01*
X62008Y144665D02*
Y147815D01*
X56102Y144665D02*
Y147815D01*
X62008D01*
X56102Y144665D02*
X62008D01*
Y149665D02*
Y152815D01*
X56102Y149665D02*
Y152815D01*
X62008D01*
X56102Y149665D02*
X62008D01*
X16732Y139665D02*
Y142815D01*
X22638Y139665D02*
Y142815D01*
X16732Y139665D02*
X22638D01*
X16732Y142815D02*
X22638D01*
X16732Y144665D02*
Y147815D01*
X22638Y144665D02*
Y147815D01*
X16732Y144665D02*
X22638D01*
X16732Y147815D02*
X22638D01*
X298228Y144665D02*
Y147815D01*
X292323Y144665D02*
Y147815D01*
X298228D01*
X292323Y144665D02*
X298228D01*
Y149665D02*
Y152815D01*
X292323Y149665D02*
Y152815D01*
X298228D01*
X292323Y149665D02*
X298228D01*
X252953Y139665D02*
Y142815D01*
X258858Y139665D02*
Y142815D01*
X252953Y139665D02*
X258858D01*
X252953Y142815D02*
X258858D01*
X252953Y144665D02*
Y147815D01*
X258858Y144665D02*
Y147815D01*
X252953Y144665D02*
X258858D01*
X252953Y147815D02*
X258858D01*
X148898Y116831D02*
X154803D01*
X148898Y113681D02*
X154803D01*
Y116831D01*
X148898Y113681D02*
Y116831D01*
X192205Y78622D02*
X198110D01*
X192205Y75472D02*
X198110D01*
Y78622D01*
X192205Y75472D02*
Y78622D01*
Y82559D02*
X198110D01*
X192205Y79409D02*
X198110D01*
Y82559D01*
X192205Y79409D02*
Y82559D01*
X212677Y82087D02*
X218583D01*
X212677Y78937D02*
X218583D01*
Y82087D01*
X212677Y78937D02*
Y82087D01*
Y89173D02*
X218583D01*
X212677Y86024D02*
X218583D01*
Y89173D01*
X212677Y86024D02*
Y89173D01*
X163779Y79724D02*
Y85630D01*
X166929Y79724D02*
Y85630D01*
X163779D02*
X166929D01*
X163779Y79724D02*
X166929D01*
X148898Y138996D02*
X154803D01*
X148898Y135846D02*
X154803D01*
Y138996D01*
X148898Y135846D02*
Y138996D01*
X16732Y64665D02*
Y67815D01*
X22638Y64665D02*
Y67815D01*
X16732Y64665D02*
X22638D01*
X16732Y67815D02*
X22638D01*
X16732Y69665D02*
Y72815D01*
X22638Y69665D02*
Y72815D01*
X16732Y69665D02*
X22638D01*
X16732Y72815D02*
X22638D01*
X16732Y74665D02*
Y77815D01*
X22638Y74665D02*
Y77815D01*
X16732Y74665D02*
X22638D01*
X16732Y77815D02*
X22638D01*
X16732Y79665D02*
Y82815D01*
X22638Y79665D02*
Y82815D01*
X16732Y79665D02*
X22638D01*
X16732Y82815D02*
X22638D01*
X16732Y84665D02*
Y87815D01*
X22638Y84665D02*
Y87815D01*
X16732Y84665D02*
X22638D01*
X16732Y87815D02*
X22638D01*
X16732Y89665D02*
Y92815D01*
X22638Y89665D02*
Y92815D01*
X16732Y89665D02*
X22638D01*
X16732Y92815D02*
X22638D01*
X16732Y94665D02*
Y97815D01*
X22638Y94665D02*
Y97815D01*
X16732Y94665D02*
X22638D01*
X16732Y97815D02*
X22638D01*
X16732Y99665D02*
Y102815D01*
X22638Y99665D02*
Y102815D01*
X16732Y99665D02*
X22638D01*
X16732Y102815D02*
X22638D01*
X16732Y104665D02*
Y107815D01*
X22638Y104665D02*
Y107815D01*
X16732Y104665D02*
X22638D01*
X16732Y107815D02*
X22638D01*
X16732Y109665D02*
Y112815D01*
X22638Y109665D02*
Y112815D01*
X16732Y109665D02*
X22638D01*
X16732Y112815D02*
X22638D01*
X16732Y114665D02*
Y117815D01*
X22638Y114665D02*
Y117815D01*
X16732Y114665D02*
X22638D01*
X16732Y117815D02*
X22638D01*
X16732Y119665D02*
Y122815D01*
X22638Y119665D02*
Y122815D01*
X16732Y119665D02*
X22638D01*
X16732Y122815D02*
X22638D01*
X16732Y124665D02*
Y127815D01*
X22638Y124665D02*
Y127815D01*
X16732Y124665D02*
X22638D01*
X16732Y127815D02*
X22638D01*
X252953Y24665D02*
Y27815D01*
X258858Y24665D02*
Y27815D01*
X252953Y24665D02*
X258858D01*
X252953Y27815D02*
X258858D01*
X252953Y29665D02*
Y32815D01*
X258858Y29665D02*
Y32815D01*
X252953Y29665D02*
X258858D01*
X252953Y32815D02*
X258858D01*
X252953Y34665D02*
Y37815D01*
X258858Y34665D02*
Y37815D01*
X252953Y34665D02*
X258858D01*
X252953Y37815D02*
X258858D01*
X252953Y39665D02*
Y42815D01*
X258858Y39665D02*
Y42815D01*
X252953Y39665D02*
X258858D01*
X252953Y42815D02*
X258858D01*
X252953Y44665D02*
Y47815D01*
X258858Y44665D02*
Y47815D01*
X252953Y44665D02*
X258858D01*
X252953Y47815D02*
X258858D01*
X252953Y49665D02*
Y52815D01*
X258858Y49665D02*
Y52815D01*
X252953Y49665D02*
X258858D01*
X252953Y52815D02*
X258858D01*
X252953Y54665D02*
Y57815D01*
X258858Y54665D02*
Y57815D01*
X252953Y54665D02*
X258858D01*
X252953Y57815D02*
X258858D01*
X252953Y59665D02*
Y62815D01*
X258858Y59665D02*
Y62815D01*
X252953Y59665D02*
X258858D01*
X252953Y62815D02*
X258858D01*
X252953Y64665D02*
Y67815D01*
X258858Y64665D02*
Y67815D01*
X252953Y64665D02*
X258858D01*
X252953Y67815D02*
X258858D01*
X252953Y69665D02*
Y72815D01*
X258858Y69665D02*
Y72815D01*
X252953Y69665D02*
X258858D01*
X252953Y72815D02*
X258858D01*
X252953Y74665D02*
Y77815D01*
X258858Y74665D02*
Y77815D01*
X252953Y74665D02*
X258858D01*
X252953Y77815D02*
X258858D01*
X252953Y79665D02*
Y82815D01*
X258858Y79665D02*
Y82815D01*
X252953Y79665D02*
X258858D01*
X252953Y82815D02*
X258858D01*
X252953Y84665D02*
Y87815D01*
X258858Y84665D02*
Y87815D01*
X252953Y84665D02*
X258858D01*
X252953Y87815D02*
X258858D01*
X252953Y89665D02*
Y92815D01*
X258858Y89665D02*
Y92815D01*
X252953Y89665D02*
X258858D01*
X252953Y92815D02*
X258858D01*
X252953Y94665D02*
Y97815D01*
X258858Y94665D02*
Y97815D01*
X252953Y94665D02*
X258858D01*
X252953Y97815D02*
X258858D01*
X252953Y99665D02*
Y102815D01*
X258858Y99665D02*
Y102815D01*
X252953Y99665D02*
X258858D01*
X252953Y102815D02*
X258858D01*
X252953Y104665D02*
Y107815D01*
X258858Y104665D02*
Y107815D01*
X252953Y104665D02*
X258858D01*
X252953Y107815D02*
X258858D01*
X252953Y109665D02*
Y112815D01*
X258858Y109665D02*
Y112815D01*
X252953Y109665D02*
X258858D01*
X252953Y112815D02*
X258858D01*
X252953Y114665D02*
Y117815D01*
X258858Y114665D02*
Y117815D01*
X252953Y114665D02*
X258858D01*
X252953Y117815D02*
X258858D01*
X252953Y119665D02*
Y122815D01*
X258858Y119665D02*
Y122815D01*
X252953Y119665D02*
X258858D01*
X252953Y122815D02*
X258858D01*
X252953Y124665D02*
Y127815D01*
X258858Y124665D02*
Y127815D01*
X252953Y124665D02*
X258858D01*
X252953Y127815D02*
X258858D01*
X252953Y129665D02*
Y132815D01*
X258858Y129665D02*
Y132815D01*
X252953Y129665D02*
X258858D01*
X252953Y132815D02*
X258858D01*
X252953Y134665D02*
Y137815D01*
X258858Y134665D02*
Y137815D01*
X252953Y134665D02*
X258858D01*
X252953Y137815D02*
X258858D01*
X298228Y19665D02*
Y22815D01*
X292323Y19665D02*
Y22815D01*
X298228D01*
X292323Y19665D02*
X298228D01*
Y24665D02*
Y27815D01*
X292323Y24665D02*
Y27815D01*
X298228D01*
X292323Y24665D02*
X298228D01*
Y29665D02*
Y32815D01*
X292323Y29665D02*
Y32815D01*
X298228D01*
X292323Y29665D02*
X298228D01*
Y34665D02*
Y37815D01*
X292323Y34665D02*
Y37815D01*
X298228D01*
X292323Y34665D02*
X298228D01*
Y39665D02*
Y42815D01*
X292323Y39665D02*
Y42815D01*
X298228D01*
X292323Y39665D02*
X298228D01*
Y44665D02*
Y47815D01*
X292323Y44665D02*
Y47815D01*
X298228D01*
X292323Y44665D02*
X298228D01*
Y49665D02*
Y52815D01*
X292323Y49665D02*
Y52815D01*
X298228D01*
X292323Y49665D02*
X298228D01*
Y54665D02*
Y57815D01*
X292323Y54665D02*
Y57815D01*
X298228D01*
X292323Y54665D02*
X298228D01*
Y79665D02*
Y82815D01*
X292323Y79665D02*
Y82815D01*
X298228D01*
X292323Y79665D02*
X298228D01*
Y74665D02*
Y77815D01*
X292323Y74665D02*
Y77815D01*
X298228D01*
X292323Y74665D02*
X298228D01*
Y69665D02*
Y72815D01*
X292323Y69665D02*
Y72815D01*
X298228D01*
X292323Y69665D02*
X298228D01*
Y64665D02*
Y67815D01*
X292323Y64665D02*
Y67815D01*
X298228D01*
X292323Y64665D02*
X298228D01*
Y134665D02*
Y137815D01*
X292323Y134665D02*
Y137815D01*
X298228D01*
X292323Y134665D02*
X298228D01*
Y129665D02*
Y132815D01*
X292323Y129665D02*
Y132815D01*
X298228D01*
X292323Y129665D02*
X298228D01*
Y124665D02*
Y127815D01*
X292323Y124665D02*
Y127815D01*
X298228D01*
X292323Y124665D02*
X298228D01*
Y119665D02*
Y122815D01*
X292323Y119665D02*
Y122815D01*
X298228D01*
X292323Y119665D02*
X298228D01*
Y114665D02*
Y117815D01*
X292323Y114665D02*
Y117815D01*
X298228D01*
X292323Y114665D02*
X298228D01*
Y109665D02*
Y112815D01*
X292323Y109665D02*
Y112815D01*
X298228D01*
X292323Y109665D02*
X298228D01*
Y104665D02*
Y107815D01*
X292323Y104665D02*
Y107815D01*
X298228D01*
X292323Y104665D02*
X298228D01*
Y99665D02*
Y102815D01*
X292323Y99665D02*
Y102815D01*
X298228D01*
X292323Y99665D02*
X298228D01*
X62008Y134665D02*
Y137815D01*
X56102Y134665D02*
Y137815D01*
X62008D01*
X56102Y134665D02*
X62008D01*
Y129665D02*
Y132815D01*
X56102Y129665D02*
Y132815D01*
X62008D01*
X56102Y129665D02*
X62008D01*
Y124665D02*
Y127815D01*
X56102Y124665D02*
Y127815D01*
X62008D01*
X56102Y124665D02*
X62008D01*
Y119665D02*
Y122815D01*
X56102Y119665D02*
Y122815D01*
X62008D01*
X56102Y119665D02*
X62008D01*
Y114665D02*
Y117815D01*
X56102Y114665D02*
Y117815D01*
X62008D01*
X56102Y114665D02*
X62008D01*
Y109665D02*
Y112815D01*
X56102Y109665D02*
Y112815D01*
X62008D01*
X56102Y109665D02*
X62008D01*
Y104665D02*
Y107815D01*
X56102Y104665D02*
Y107815D01*
X62008D01*
X56102Y104665D02*
X62008D01*
Y99665D02*
Y102815D01*
X56102Y99665D02*
Y102815D01*
X62008D01*
X56102Y99665D02*
X62008D01*
Y29665D02*
Y32815D01*
X56102Y29665D02*
Y32815D01*
X62008D01*
X56102Y29665D02*
X62008D01*
Y24665D02*
Y27815D01*
X56102Y24665D02*
Y27815D01*
X62008D01*
X56102Y24665D02*
X62008D01*
Y39665D02*
Y42815D01*
X56102Y39665D02*
Y42815D01*
X62008D01*
X56102Y39665D02*
X62008D01*
Y34665D02*
Y37815D01*
X56102Y34665D02*
Y37815D01*
X62008D01*
X56102Y34665D02*
X62008D01*
Y49665D02*
Y52815D01*
X56102Y49665D02*
Y52815D01*
X62008D01*
X56102Y49665D02*
X62008D01*
Y44665D02*
Y47815D01*
X56102Y44665D02*
Y47815D01*
X62008D01*
X56102Y44665D02*
X62008D01*
Y59665D02*
Y62815D01*
X56102Y59665D02*
Y62815D01*
X62008D01*
X56102Y59665D02*
X62008D01*
Y54665D02*
Y57815D01*
X56102Y54665D02*
Y57815D01*
X62008D01*
X56102Y54665D02*
X62008D01*
Y69665D02*
Y72815D01*
X56102Y69665D02*
Y72815D01*
X62008D01*
X56102Y69665D02*
X62008D01*
Y64665D02*
Y67815D01*
X56102Y64665D02*
Y67815D01*
X62008D01*
X56102Y64665D02*
X62008D01*
Y79665D02*
Y82815D01*
X56102Y79665D02*
Y82815D01*
X62008D01*
X56102Y79665D02*
X62008D01*
Y74665D02*
Y77815D01*
X56102Y74665D02*
Y77815D01*
X62008D01*
X56102Y74665D02*
X62008D01*
Y84665D02*
Y87815D01*
X56102Y84665D02*
Y87815D01*
X62008D01*
X56102Y84665D02*
X62008D01*
Y89665D02*
Y92815D01*
X56102Y89665D02*
Y92815D01*
X62008D01*
X56102Y89665D02*
X62008D01*
Y94665D02*
Y97815D01*
X56102Y94665D02*
Y97815D01*
X62008D01*
X56102Y94665D02*
X62008D01*
X16732Y129665D02*
Y132815D01*
X22638Y129665D02*
Y132815D01*
X16732Y129665D02*
X22638D01*
X16732Y132815D02*
X22638D01*
X16732Y134665D02*
Y137815D01*
X22638Y134665D02*
Y137815D01*
X16732Y134665D02*
X22638D01*
X16732Y137815D02*
X22638D01*
X298228Y59665D02*
Y62815D01*
X292323Y59665D02*
Y62815D01*
X298228D01*
X292323Y59665D02*
X298228D01*
Y84665D02*
Y87815D01*
X292323Y84665D02*
Y87815D01*
X298228D01*
X292323Y84665D02*
X298228D01*
Y89665D02*
Y92815D01*
X292323Y89665D02*
Y92815D01*
X298228D01*
X292323Y89665D02*
X298228D01*
Y94665D02*
Y97815D01*
X292323Y94665D02*
Y97815D01*
X298228D01*
X292323Y94665D02*
X298228D01*
X164800Y150100D02*
Y159900D01*
X158200D02*
X164800D01*
X158200Y150100D02*
Y159900D01*
Y150100D02*
X164800D01*
X183465Y77106D02*
X186614D01*
X183465Y71201D02*
X186614D01*
X183465D02*
Y77106D01*
X186614Y71201D02*
Y77106D01*
X151969Y70531D02*
X155118D01*
X151969Y64626D02*
X155118D01*
X151969D02*
Y70531D01*
X155118Y64626D02*
Y70531D01*
X151969Y85630D02*
X155118D01*
X151969Y79724D02*
X155118D01*
X151969D02*
Y85630D01*
X155118Y79724D02*
Y85630D01*
X156299D02*
X159449D01*
X156299Y79724D02*
X159449D01*
X156299D02*
Y85630D01*
X159449Y79724D02*
Y85630D01*
X177008Y153632D02*
X182913D01*
X177008Y156781D02*
X182913D01*
X177008Y153632D02*
Y156781D01*
X182913Y153632D02*
Y156781D01*
X177008Y149665D02*
X182913D01*
X177008Y152815D02*
X182913D01*
X177008Y149665D02*
Y152815D01*
X182913Y149665D02*
Y152815D01*
X207677Y123996D02*
X213583D01*
X207677Y120846D02*
X213583D01*
Y123996D01*
X207677Y120846D02*
Y123996D01*
X177008Y157598D02*
X182913D01*
X177008Y160748D02*
X182913D01*
X177008Y157598D02*
Y160748D01*
X182913Y157598D02*
Y160748D01*
X191929Y123996D02*
X197835D01*
X191929Y120846D02*
X197835D01*
Y123996D01*
X191929Y120846D02*
Y123996D01*
X183465Y25472D02*
X186614D01*
X183465Y19567D02*
X186614D01*
X183465D02*
Y25472D01*
X186614Y19567D02*
Y25472D01*
X223425Y124291D02*
X229331D01*
X223425Y121142D02*
X229331D01*
Y124291D01*
X223425Y121142D02*
Y124291D01*
X108642Y154527D02*
X111791D01*
X108642Y160433D02*
X111791D01*
Y154527D02*
Y160433D01*
X108642Y154527D02*
Y160433D01*
X125965Y154527D02*
X129114D01*
X125965Y160433D02*
X129114D01*
Y154527D02*
Y160433D01*
X125965Y154527D02*
Y160433D01*
X117303Y154527D02*
X120453D01*
X117303Y160433D02*
X120453D01*
Y154527D02*
Y160433D01*
X117303Y154527D02*
Y160433D01*
X104311Y154527D02*
X107461D01*
X104311Y160433D02*
X107461D01*
Y154527D02*
Y160433D01*
X104311Y154527D02*
Y160433D01*
X187402Y55492D02*
X190551D01*
X187402Y61398D02*
X190551D01*
Y55492D02*
Y61398D01*
X187402Y55492D02*
Y61398D01*
X148031Y30492D02*
X151181D01*
X148031Y36398D02*
X151181D01*
Y30492D02*
Y36398D01*
X148031Y30492D02*
Y36398D01*
X94882Y69606D02*
Y75512D01*
X98032Y69606D02*
Y75512D01*
X94882D02*
X98032D01*
X94882Y69606D02*
X98032D01*
X154803Y105807D02*
Y108957D01*
X148898Y105807D02*
Y108957D01*
X154803D01*
X148898Y105807D02*
X154803D01*
Y109744D02*
Y112894D01*
X148898Y109744D02*
Y112894D01*
X154803D01*
X148898Y109744D02*
X154803D01*
X212677Y78543D02*
X218583D01*
X212677Y75394D02*
X218583D01*
Y78543D01*
X212677Y75394D02*
Y78543D01*
Y75000D02*
X218583D01*
X212677Y71850D02*
X218583D01*
Y75000D01*
X212677Y71850D02*
Y75000D01*
Y85630D02*
X218583D01*
X212677Y82480D02*
X218583D01*
Y85630D01*
X212677Y82480D02*
Y85630D01*
Y92716D02*
X218583D01*
X212677Y89567D02*
X218583D01*
Y92716D01*
X212677Y89567D02*
Y92716D01*
X183780Y90039D02*
X189685D01*
X183780Y86890D02*
X189685D01*
Y90039D01*
X183780Y86890D02*
Y90039D01*
Y82559D02*
X189685D01*
X183780Y79409D02*
X189685D01*
Y82559D01*
X183780Y79409D02*
Y82559D01*
X148898Y125847D02*
X154803D01*
X148898Y128996D02*
X154803D01*
X148898Y125847D02*
Y128996D01*
X154803Y125847D02*
Y128996D01*
X148898Y120846D02*
X154803D01*
X148898Y123996D02*
X154803D01*
X148898Y120846D02*
Y123996D01*
X154803Y120846D02*
Y123996D01*
X224798Y51555D02*
Y66555D01*
X200298Y51555D02*
X224798D01*
X200298D02*
Y66555D01*
X224798D01*
X16732Y27815D02*
X22638D01*
X16732Y24665D02*
X22638D01*
Y27815D01*
X16732Y24665D02*
Y27815D01*
Y32815D02*
X22638D01*
X16732Y29665D02*
X22638D01*
Y32815D01*
X16732Y29665D02*
Y32815D01*
Y37815D02*
X22638D01*
X16732Y34665D02*
X22638D01*
Y37815D01*
X16732Y34665D02*
Y37815D01*
Y42815D02*
X22638D01*
X16732Y39665D02*
X22638D01*
Y42815D01*
X16732Y39665D02*
Y42815D01*
Y47815D02*
X22638D01*
X16732Y44665D02*
X22638D01*
Y47815D01*
X16732Y44665D02*
Y47815D01*
Y52815D02*
X22638D01*
X16732Y49665D02*
X22638D01*
Y52815D01*
X16732Y49665D02*
Y52815D01*
Y57815D02*
X22638D01*
X16732Y54665D02*
X22638D01*
Y57815D01*
X16732Y54665D02*
Y57815D01*
M02*
